<?xml version="1.0" encoding="UTF-8" standalone="no"?>
<!DOCTYPE svg PUBLIC "-//W3C//DTD SVG 1.1//EN"
 "http://www.w3.org/Graphics/SVG/1.1/DTD/svg11.dtd">
<!-- Generated by graphviz version 2.38.0 (20140413.2041)
 -->
<!-- Title: Juniper.Unity.JuniperPlatform Pages: 1 -->
<svg width="178pt" height="325pt"
 viewBox="0.00 0.00 177.50 325.00" xmlns="http://www.w3.org/2000/svg" xmlns:xlink="http://www.w3.org/1999/xlink">
<g id="graph0" class="graph" transform="scale(1 1) rotate(0) translate(4 321)">
<title>Juniper.Unity.JuniperPlatform</title>
<polygon fill="white" stroke="none" points="-4,4 -4,-321 173.5,-321 173.5,4 -4,4"/>
<!-- Node0 -->
<g id="node1" class="node"><title>Node0</title>
<g id="a_node1"><a xlink:title=" ">
<polygon fill="#bfbfbf" stroke="black" points="17,-0.5 17,-200.5 159,-200.5 159,-0.5 17,-0.5"/>
<text text-anchor="middle" x="88" y="-188.5" font-family="SegoeUI" font-size="10.00">Juniper.Unity.JuniperPlatform</text>
<polyline fill="none" stroke="black" points="17,-181.5 159,-181.5 "/>
<text text-anchor="start" x="25" y="-169.5" font-family="SegoeUI" font-size="10.00">+ CurrentPlatform</text>
<text text-anchor="start" x="25" y="-158.5" font-family="SegoeUI" font-size="10.00">+ System</text>
<text text-anchor="start" x="25" y="-147.5" font-family="SegoeUI" font-size="10.00">+ DisplayType</text>
<text text-anchor="start" x="25" y="-136.5" font-family="SegoeUI" font-size="10.00">+ SupportedDisplayType</text>
<text text-anchor="start" x="25" y="-125.5" font-family="SegoeUI" font-size="10.00">+ ARMode</text>
<text text-anchor="start" x="25" y="-114.5" font-family="SegoeUI" font-size="10.00">+ SupportedARMode</text>
<text text-anchor="start" x="25" y="-103.5" font-family="SegoeUI" font-size="10.00">+ Option</text>
<text text-anchor="start" x="25" y="-92.5" font-family="SegoeUI" font-size="10.00">+ CURRENT_PLATFORM</text>
<text text-anchor="start" x="25" y="-81.5" font-family="SegoeUI" font-size="10.00">+ VRPlatformHasPassthrough</text>
<text text-anchor="start" x="25" y="-70.5" font-family="SegoeUI" font-size="10.00">+ IsARCapablePlatform</text>
<polyline fill="none" stroke="black" points="17,-63.5 159,-63.5 "/>
<text text-anchor="start" x="25" y="-51.5" font-family="SegoeUI" font-size="10.00">+ Awake()</text>
<text text-anchor="start" x="25" y="-40.5" font-family="SegoeUI" font-size="10.00">+ Reinstall()</text>
<text text-anchor="start" x="25" y="-29.5" font-family="SegoeUI" font-size="10.00">+ Install()</text>
<text text-anchor="start" x="25" y="-18.5" font-family="SegoeUI" font-size="10.00">+ Uninstall()</text>
<text text-anchor="start" x="25" y="-7.5" font-family="SegoeUI" font-size="10.00">+ Ensure()</text>
</a>
</g>
</g>
<!-- Node1 -->
<g id="node2" class="node"><title>Node1</title>
<g id="a_node2"><a xlink:title=" ">
<polygon fill="white" stroke="#bfbfbf" points="0,-248.5 0,-305.5 82,-305.5 82,-248.5 0,-248.5"/>
<text text-anchor="middle" x="41" y="-293.5" font-family="SegoeUI" font-size="10.00">MonoBehaviour</text>
<polyline fill="none" stroke="#bfbfbf" points="0,-286.5 82,-286.5 "/>
<text text-anchor="middle" x="41" y="-274.5" font-family="SegoeUI" font-size="10.00"> </text>
<polyline fill="none" stroke="#bfbfbf" points="0,-267.5 82,-267.5 "/>
<text text-anchor="middle" x="41" y="-255.5" font-family="SegoeUI" font-size="10.00"> </text>
</a>
</g>
</g>
<!-- Node1&#45;&gt;Node0 -->
<g id="edge1" class="edge"><title>Node1&#45;&gt;Node0</title>
<path fill="none" stroke="midnightblue" d="M51.1051,-238.482C54.1477,-227.185 57.6401,-214.219 61.2365,-200.867"/>
<polygon fill="none" stroke="midnightblue" points="47.6685,-237.784 48.4473,-248.35 54.4277,-239.604 47.6685,-237.784"/>
</g>
<!-- Node2 -->
<g id="node3" class="node"><title>Node2</title>
<g id="a_node3"><a xlink:href="../../db/d28/interface_juniper_1_1_i_installable.html" target="_top" xlink:title=" ">
<polygon fill="white" stroke="black" points="100.5,-237.5 100.5,-316.5 169.5,-316.5 169.5,-237.5 100.5,-237.5"/>
<text text-anchor="middle" x="135" y="-304.5" font-family="SegoeUI" font-size="10.00">IInstallable</text>
<polyline fill="none" stroke="black" points="100.5,-297.5 169.5,-297.5 "/>
<text text-anchor="middle" x="135" y="-285.5" font-family="SegoeUI" font-size="10.00"> </text>
<polyline fill="none" stroke="black" points="100.5,-278.5 169.5,-278.5 "/>
<text text-anchor="start" x="108.5" y="-266.5" font-family="SegoeUI" font-size="10.00">+ Install()</text>
<text text-anchor="start" x="108.5" y="-255.5" font-family="SegoeUI" font-size="10.00">+ Reinstall()</text>
<text text-anchor="start" x="108.5" y="-244.5" font-family="SegoeUI" font-size="10.00">+ Uninstall()</text>
</a>
</g>
</g>
<!-- Node2&#45;&gt;Node0 -->
<g id="edge2" class="edge"><title>Node2&#45;&gt;Node0</title>
<path fill="none" stroke="midnightblue" d="M121.894,-227.342C119.63,-218.933 117.204,-209.926 114.729,-200.738"/>
<polygon fill="none" stroke="midnightblue" points="118.589,-228.527 124.569,-237.273 125.348,-226.707 118.589,-228.527"/>
</g>
</g>
</svg>
