<?xml version="1.0" encoding="UTF-8" standalone="no"?>
<!DOCTYPE svg PUBLIC "-//W3C//DTD SVG 1.1//EN"
 "http://www.w3.org/Graphics/SVG/1.1/DTD/svg11.dtd">
<!-- Generated by graphviz version 2.38.0 (20140413.2041)
 -->
<!-- Title: Juniper.IO.IJsonDecoder&lt; T &gt; Pages: 1 -->
<svg width="343pt" height="470pt"
 viewBox="0.00 0.00 343.00 470.00" xmlns="http://www.w3.org/2000/svg" xmlns:xlink="http://www.w3.org/1999/xlink">
<g id="graph0" class="graph" transform="scale(1 1) rotate(0) translate(4 466)">
<title>Juniper.IO.IJsonDecoder&lt; T &gt;</title>
<polygon fill="white" stroke="none" points="-4,4 -4,-466 339,-466 339,4 -4,4"/>
<!-- Node0 -->
<g id="node1" class="node"><title>Node0</title>
<g id="a_node1"><a xlink:title=" ">
<polygon fill="#bfbfbf" stroke="black" points="87,-182.5 87,-239.5 233,-239.5 233,-182.5 87,-182.5"/>
<text text-anchor="middle" x="160" y="-227.5" font-family="SegoeUI" font-size="10.00">Juniper.IO.IJsonDecoder&lt; T &gt;</text>
<polyline fill="none" stroke="black" points="87,-220.5 233,-220.5 "/>
<text text-anchor="middle" x="160" y="-208.5" font-family="SegoeUI" font-size="10.00"> </text>
<polyline fill="none" stroke="black" points="87,-201.5 233,-201.5 "/>
<text text-anchor="middle" x="160" y="-189.5" font-family="SegoeUI" font-size="10.00"> </text>
</a>
</g>
</g>
<!-- Node5 -->
<g id="node6" class="node"><title>Node5</title>
<g id="a_node6"><a xlink:href="../../d6/ddd/class_juniper_1_1_i_o_1_1_json_factory.html" target="_top" xlink:title=" ">
<polygon fill="white" stroke="black" points="0,-0.5 0,-112.5 148,-112.5 148,-0.5 0,-0.5"/>
<text text-anchor="middle" x="74" y="-100.5" font-family="SegoeUI" font-size="10.00">Juniper::IO::JsonFactory&lt; T &gt;</text>
<polyline fill="none" stroke="black" points="0,-93.5 148,-93.5 "/>
<text text-anchor="start" x="8" y="-81.5" font-family="SegoeUI" font-size="10.00">+ ContentType</text>
<polyline fill="none" stroke="black" points="0,-74.5 148,-74.5 "/>
<text text-anchor="start" x="8" y="-62.5" font-family="SegoeUI" font-size="10.00">+ JsonFactory()</text>
<text text-anchor="start" x="8" y="-51.5" font-family="SegoeUI" font-size="10.00">+ JsonFactory()</text>
<text text-anchor="start" x="8" y="-40.5" font-family="SegoeUI" font-size="10.00">+ Deserialize()</text>
<text text-anchor="start" x="8" y="-29.5" font-family="SegoeUI" font-size="10.00">+ Serialize()</text>
<text text-anchor="start" x="8" y="-18.5" font-family="SegoeUI" font-size="10.00">+ Serialize()</text>
<text text-anchor="start" x="8" y="-7.5" font-family="SegoeUI" font-size="10.00">+ Serialize()</text>
</a>
</g>
</g>
<!-- Node0&#45;&gt;Node5 -->
<g id="edge5" class="edge"><title>Node0&#45;&gt;Node5</title>
<path fill="none" stroke="midnightblue" d="M139.305,-173.302C129.069,-155.151 116.502,-132.866 105.134,-112.709"/>
<polygon fill="none" stroke="midnightblue" points="136.465,-175.392 144.426,-182.383 142.563,-171.954 136.465,-175.392"/>
</g>
<!-- Node6 -->
<g id="node7" class="node"><title>Node6</title>
<g id="a_node7"><a xlink:href="../../db/dfd/interface_juniper_1_1_i_o_1_1_i_json_decoder.html" target="_top" xlink:title=" ">
<polygon fill="white" stroke="black" points="166.5,-17 166.5,-96 327.5,-96 327.5,-17 166.5,-17"/>
<text text-anchor="start" x="174.5" y="-84" font-family="SegoeUI" font-size="10.00">Juniper.IO.IJsonDecoder</text>
<text text-anchor="start" x="174.5" y="-73" font-family="SegoeUI" font-size="10.00">&lt; Juniper.Speech.Azure.Cognitive</text>
<text text-anchor="middle" x="247" y="-62" font-family="SegoeUI" font-size="10.00">Services.Voice[]&gt;</text>
<polyline fill="none" stroke="black" points="166.5,-55 327.5,-55 "/>
<text text-anchor="middle" x="247" y="-43" font-family="SegoeUI" font-size="10.00"> </text>
<polyline fill="none" stroke="black" points="166.5,-36 327.5,-36 "/>
<text text-anchor="middle" x="247" y="-24" font-family="SegoeUI" font-size="10.00"> </text>
</a>
</g>
</g>
<!-- Node0&#45;&gt;Node6 -->
<g id="edge6" class="edge"><title>Node0&#45;&gt;Node6</title>
<path fill="none" stroke="orange" d="M180.836,-173.476C194.164,-150.115 211.43,-119.85 224.982,-96.0954"/>
<polygon fill="orange" stroke="orange" points="177.67,-171.963 175.755,-182.383 183.75,-175.432 177.67,-171.963"/>
<text text-anchor="start" x="204" y="-156" font-family="SegoeUI" font-size="10.00"> &lt; Juniper::Speech::</text>
<text text-anchor="start" x="204" y="-145" font-family="SegoeUI" font-size="10.00">Azure::CognitiveServices</text>
<text text-anchor="middle" x="258" y="-134" font-family="SegoeUI" font-size="10.00">::Voice[]&gt;</text>
</g>
<!-- Node1 -->
<g id="node2" class="node"><title>Node1</title>
<g id="a_node2"><a xlink:href="../../d1/d4d/interface_juniper_1_1_i_o_1_1_i_deserializer.html" target="_top" xlink:title=" ">
<polygon fill="white" stroke="black" points="28.5,-283 28.5,-340 123.5,-340 123.5,-283 28.5,-283"/>
<text text-anchor="middle" x="76" y="-328" font-family="SegoeUI" font-size="10.00">IDeserializer&lt; T &gt;</text>
<polyline fill="none" stroke="black" points="28.5,-321 123.5,-321 "/>
<text text-anchor="middle" x="76" y="-309" font-family="SegoeUI" font-size="10.00"> </text>
<polyline fill="none" stroke="black" points="28.5,-302 123.5,-302 "/>
<text text-anchor="start" x="36.5" y="-290" font-family="SegoeUI" font-size="10.00">+ Deserialize()</text>
</a>
</g>
</g>
<!-- Node1&#45;&gt;Node0 -->
<g id="edge1" class="edge"><title>Node1&#45;&gt;Node0</title>
<path fill="none" stroke="midnightblue" d="M106.274,-275.001C116.141,-263.43 126.947,-250.758 136.264,-239.833"/>
<polygon fill="none" stroke="midnightblue" points="103.448,-272.92 99.6222,-282.8 108.774,-277.462 103.448,-272.92"/>
</g>
<!-- Node2 -->
<g id="node3" class="node"><title>Node2</title>
<g id="a_node3"><a xlink:href="../../d1/d4d/interface_juniper_1_1_i_o_1_1_i_deserializer.html" target="_top" xlink:title=" ">
<polygon fill="white" stroke="black" points="17,-393.5 17,-461.5 133,-461.5 133,-393.5 17,-393.5"/>
<text text-anchor="start" x="25" y="-449.5" font-family="SegoeUI" font-size="10.00">Juniper.IO.IDeserializer</text>
<text text-anchor="middle" x="75" y="-438.5" font-family="SegoeUI" font-size="10.00">&lt; out out ResultT &gt;</text>
<polyline fill="none" stroke="black" points="17,-431.5 133,-431.5 "/>
<text text-anchor="middle" x="75" y="-419.5" font-family="SegoeUI" font-size="10.00"> </text>
<polyline fill="none" stroke="black" points="17,-412.5 133,-412.5 "/>
<text text-anchor="start" x="25" y="-400.5" font-family="SegoeUI" font-size="10.00">+ Deserialize()</text>
</a>
</g>
</g>
<!-- Node2&#45;&gt;Node1 -->
<g id="edge2" class="edge"><title>Node2&#45;&gt;Node1</title>
<path fill="none" stroke="orange" d="M75.3813,-383.034C75.5073,-368.673 75.6439,-353.096 75.7567,-340.242"/>
<polygon fill="orange" stroke="orange" points="71.8799,-383.19 75.2919,-393.22 78.8796,-383.251 71.8799,-383.19"/>
<text text-anchor="middle" x="90.5" y="-367" font-family="SegoeUI" font-size="10.00"> &lt; T &gt;</text>
</g>
<!-- Node3 -->
<g id="node4" class="node"><title>Node3</title>
<g id="a_node4"><a xlink:href="../../da/d97/interface_juniper_1_1_i_o_1_1_i_content_handler.html" target="_top" xlink:title=" ">
<polygon fill="white" stroke="black" points="143.5,-277.5 143.5,-345.5 288.5,-345.5 288.5,-277.5 143.5,-277.5"/>
<text text-anchor="start" x="151.5" y="-333.5" font-family="SegoeUI" font-size="10.00">IContentHandler&lt; MediaType.</text>
<text text-anchor="middle" x="216" y="-322.5" font-family="SegoeUI" font-size="10.00">Application &gt;</text>
<polyline fill="none" stroke="black" points="143.5,-315.5 288.5,-315.5 "/>
<text text-anchor="middle" x="216" y="-303.5" font-family="SegoeUI" font-size="10.00"> </text>
<polyline fill="none" stroke="black" points="143.5,-296.5 288.5,-296.5 "/>
<text text-anchor="middle" x="216" y="-284.5" font-family="SegoeUI" font-size="10.00"> </text>
</a>
</g>
</g>
<!-- Node3&#45;&gt;Node0 -->
<g id="edge3" class="edge"><title>Node3&#45;&gt;Node0</title>
<path fill="none" stroke="midnightblue" d="M192.166,-268.578C186.591,-258.771 180.79,-248.568 175.675,-239.571"/>
<polygon fill="none" stroke="midnightblue" points="189.212,-270.463 197.197,-277.427 195.297,-267.004 189.212,-270.463"/>
</g>
<!-- Node4 -->
<g id="node5" class="node"><title>Node4</title>
<g id="a_node5"><a xlink:href="../../da/d97/interface_juniper_1_1_i_o_1_1_i_content_handler.html" target="_top" xlink:title=" ">
<polygon fill="white" stroke="black" points="151,-399 151,-456 283,-456 283,-399 151,-399"/>
<text text-anchor="middle" x="217" y="-444" font-family="SegoeUI" font-size="10.00">Juniper.IO.IContentHandler</text>
<polyline fill="none" stroke="black" points="151,-437 283,-437 "/>
<text text-anchor="middle" x="217" y="-425" font-family="SegoeUI" font-size="10.00"> </text>
<polyline fill="none" stroke="black" points="151,-418 283,-418 "/>
<text text-anchor="middle" x="217" y="-406" font-family="SegoeUI" font-size="10.00"> </text>
</a>
</g>
</g>
<!-- Node4&#45;&gt;Node3 -->
<g id="edge4" class="edge"><title>Node4&#45;&gt;Node3</title>
<path fill="none" stroke="orange" d="M216.668,-388.639C216.546,-374.689 216.408,-359.01 216.29,-345.521"/>
<polygon fill="orange" stroke="orange" points="213.17,-388.935 216.758,-398.904 220.17,-388.873 213.17,-388.935"/>
<text text-anchor="middle" x="275.5" y="-367" font-family="SegoeUI" font-size="10.00"> &lt; MediaType.Application &gt;</text>
</g>
</g>
</svg>
