<?xml version="1.0" encoding="UTF-8" standalone="no"?>
<!DOCTYPE svg PUBLIC "-//W3C//DTD SVG 1.1//EN"
 "http://www.w3.org/Graphics/SVG/1.1/DTD/svg11.dtd">
<!-- Generated by graphviz version 2.38.0 (20140413.2041)
 -->
<!-- Title: Juniper.Unity.World.LightEstimation.VuforiaLightMeasurement Pages: 1 -->
<!--zoomable 811 -->
<svg id="main" version="1.1" xmlns="http://www.w3.org/2000/svg" xmlns:xlink="http://www.w3.org/1999/xlink" xml:space="preserve" onload="init(evt)">
<style type="text/css"><![CDATA[
.edge:hover path { stroke: red; }
.edge:hover polygon { stroke: red; fill: red; }
]]></style>
<script type="text/javascript"><![CDATA[
var edges = document.getElementsByTagName('g');
if (edges && edges.length) {
  for (var i=0;i<edges.length;i++) {
    if (edges[i].id.substr(0,4)=='edge') {
      edges[i].setAttribute('class','edge');
    }
  }
}
]]></script>
        <defs>
                <circle id="rim" cx="0" cy="0" r="7"/>
                <circle id="rim2" cx="0" cy="0" r="3.5"/>
                <g id="zoomPlus">
                        <use xlink:href="#rim" fill="#404040">
                                <set attributeName="fill" to="#808080" begin="zoomplus.mouseover" end="zoomplus.mouseout"/>
                        </use>
                        <path d="M-4,0h8M0,-4v8" fill="none" stroke="white" stroke-width="1.5" pointer-events="none"/>
                </g>
                <g id="zoomMin">
                        <use xlink:href="#rim" fill="#404040">
                                <set attributeName="fill" to="#808080" begin="zoomminus.mouseover" end="zoomminus.mouseout"/>
                        </use>
                        <path d="M-4,0h8" fill="none" stroke="white" stroke-width="1.5" pointer-events="none"/>
                </g>
                <g id="dirArrow">
                        <path fill="none" stroke="white" stroke-width="1.5" d="M0,-3.0v7 M-2.5,-0.5L0,-3.0L2.5,-0.5"/>
                </g>
               <g id="resetDef">
                       <use xlink:href="#rim2" fill="#404040">
                               <set attributeName="fill" to="#808080" begin="reset.mouseover" end="reset.mouseout"/>
                       </use>
               </g>
        </defs>

<script type="text/javascript">
var viewWidth = 426;
var viewHeight = 811;
var sectionId = 'dynsection-1';
</script>
<script xlink:href="../../svgpan.js"/>
<svg id="graph" class="graph">
<g id="viewport">
<title>Juniper.Unity.World.LightEstimation.VuforiaLightMeasurement</title>
<polygon fill="white" stroke="none" points="-4,4 -4,-807 422,-807 422,4 -4,4"/>
<!-- Node5 -->
<g id="node1" class="node"><title>Node5</title>
<g id="a_node1"><a xlink:title=" ">
<polygon fill="#bfbfbf" stroke="black" points="125.5,-0.5 125.5,-178.5 298.5,-178.5 298.5,-0.5 125.5,-0.5"/>
<text text-anchor="start" x="133.5" y="-166.5" font-family="SegoeUI" font-size="10.00">Juniper.Unity.World.Light</text>
<text text-anchor="middle" x="212" y="-155.5" font-family="SegoeUI" font-size="10.00">Estimation.VuforiaLightMeasurement</text>
<polyline fill="none" stroke="black" points="125.5,-148.5 298.5,-148.5 "/>
<text text-anchor="start" x="133.5" y="-136.5" font-family="SegoeUI" font-size="10.00">+ useCustomAnalyzer</text>
<text text-anchor="start" x="133.5" y="-125.5" font-family="SegoeUI" font-size="10.00"># UseFakeIntensity</text>
<text text-anchor="start" x="133.5" y="-114.5" font-family="SegoeUI" font-size="10.00">&#45; NumSampleRows</text>
<text text-anchor="start" x="133.5" y="-103.5" font-family="SegoeUI" font-size="10.00">&#45; NumSamplesPerRow</text>
<text text-anchor="start" x="133.5" y="-92.5" font-family="SegoeUI" font-size="10.00">&#45; illumination</text>
<polyline fill="none" stroke="black" points="125.5,-85.5 298.5,-85.5 "/>
<text text-anchor="start" x="133.5" y="-73.5" font-family="SegoeUI" font-size="10.00">+ Awake()</text>
<text text-anchor="start" x="133.5" y="-62.5" font-family="SegoeUI" font-size="10.00">+ Install()</text>
<text text-anchor="start" x="133.5" y="-51.5" font-family="SegoeUI" font-size="10.00">+ Uninstall()</text>
<text text-anchor="start" x="133.5" y="-40.5" font-family="SegoeUI" font-size="10.00"># InternalUpdate()</text>
<text text-anchor="start" x="133.5" y="-29.5" font-family="SegoeUI" font-size="10.00"># PrintDebugReport()</text>
<text text-anchor="start" x="133.5" y="-18.5" font-family="SegoeUI" font-size="10.00">&#45; GetIlluminationManagerCoroutine()</text>
<text text-anchor="start" x="133.5" y="-7.5" font-family="SegoeUI" font-size="10.00">&#45; GetAveragePixelIntensity()</text>
</a>
</g>
</g>
<!-- Node6 -->
<g id="node2" class="node"><title>Node6</title>
<g id="a_node2"><a xlink:href="../../df/db3/class_juniper_1_1_unity_1_1_world_1_1_light_estimation_1_1_abstract_light_measurement.html" target="_top" xlink:title=" ">
<polygon fill="white" stroke="black" points="54.5,-226.5 54.5,-459.5 185.5,-459.5 185.5,-226.5 54.5,-226.5"/>
<text text-anchor="middle" x="120" y="-447.5" font-family="SegoeUI" font-size="10.00">AbstractLightMeasurement</text>
<polyline fill="none" stroke="black" points="54.5,-440.5 185.5,-440.5 "/>
<text text-anchor="start" x="62.5" y="-428.5" font-family="SegoeUI" font-size="10.00">+ useFake</text>
<text text-anchor="start" x="62.5" y="-417.5" font-family="SegoeUI" font-size="10.00">+ Intensity</text>
<text text-anchor="start" x="62.5" y="-406.5" font-family="SegoeUI" font-size="10.00">+ Color</text>
<text text-anchor="start" x="62.5" y="-395.5" font-family="SegoeUI" font-size="10.00">+ DebugReport</text>
<text text-anchor="start" x="62.5" y="-384.5" font-family="SegoeUI" font-size="10.00">+ UseFakeIntensity</text>
<text text-anchor="start" x="62.5" y="-373.5" font-family="SegoeUI" font-size="10.00">+ ColorEstimate</text>
<text text-anchor="start" x="62.5" y="-362.5" font-family="SegoeUI" font-size="10.00">+ IntensityEstimate</text>
<text text-anchor="start" x="62.5" y="-351.5" font-family="SegoeUI" font-size="10.00"># lastIntensity</text>
<text text-anchor="start" x="62.5" y="-340.5" font-family="SegoeUI" font-size="10.00"># lastColor</text>
<polyline fill="none" stroke="black" points="54.5,-333.5 185.5,-333.5 "/>
<text text-anchor="start" x="62.5" y="-321.5" font-family="SegoeUI" font-size="10.00">+ Awake()</text>
<text text-anchor="start" x="62.5" y="-310.5" font-family="SegoeUI" font-size="10.00">+ Reinstall()</text>
<text text-anchor="start" x="62.5" y="-299.5" font-family="SegoeUI" font-size="10.00">+ Reset()</text>
<text text-anchor="start" x="62.5" y="-288.5" font-family="SegoeUI" font-size="10.00">+ Install()</text>
<text text-anchor="start" x="62.5" y="-277.5" font-family="SegoeUI" font-size="10.00">+ Uninstall()</text>
<text text-anchor="start" x="62.5" y="-266.5" font-family="SegoeUI" font-size="10.00">+ Update()</text>
<text text-anchor="start" x="62.5" y="-255.5" font-family="SegoeUI" font-size="10.00"># UpdateMeasurement()</text>
<text text-anchor="start" x="62.5" y="-244.5" font-family="SegoeUI" font-size="10.00"># PrintDebugReport()</text>
<text text-anchor="start" x="62.5" y="-233.5" font-family="SegoeUI" font-size="10.00">&#45; SetFakeValues()</text>
</a>
</g>
</g>
<!-- Node6&#45;&gt;Node5 -->
<g id="edge1" class="edge"><title>Node6&#45;&gt;Node5</title>
<path fill="none" stroke="midnightblue" d="M165.935,-216.428C170.608,-203.654 175.281,-190.877 179.763,-178.625"/>
<polygon fill="none" stroke="midnightblue" points="162.513,-215.594 162.365,-226.188 169.087,-217.999 162.513,-215.594"/>
</g>
<!-- Node7 -->
<g id="node3" class="node"><title>Node7</title>
<g id="a_node3"><a xlink:title=" ">
<polygon fill="white" stroke="#bfbfbf" points="0,-551.5 0,-608.5 82,-608.5 82,-551.5 0,-551.5"/>
<text text-anchor="middle" x="41" y="-596.5" font-family="SegoeUI" font-size="10.00">MonoBehaviour</text>
<polyline fill="none" stroke="#bfbfbf" points="0,-589.5 82,-589.5 "/>
<text text-anchor="middle" x="41" y="-577.5" font-family="SegoeUI" font-size="10.00"> </text>
<polyline fill="none" stroke="#bfbfbf" points="0,-570.5 82,-570.5 "/>
<text text-anchor="middle" x="41" y="-558.5" font-family="SegoeUI" font-size="10.00"> </text>
</a>
</g>
</g>
<!-- Node7&#45;&gt;Node6 -->
<g id="edge2" class="edge"><title>Node7&#45;&gt;Node6</title>
<path fill="none" stroke="midnightblue" d="M53.6508,-541.368C61.1844,-518.958 71.192,-489.188 81.145,-459.581"/>
<polygon fill="none" stroke="midnightblue" points="50.2415,-540.526 50.3726,-551.12 56.8767,-542.756 50.2415,-540.526"/>
</g>
<!-- Node8 -->
<g id="node4" class="node"><title>Node8</title>
<g id="a_node4"><a xlink:href="../../db/d28/interface_juniper_1_1_i_installable.html" target="_top" xlink:title=" ">
<polygon fill="white" stroke="black" points="100.5,-540.5 100.5,-619.5 169.5,-619.5 169.5,-540.5 100.5,-540.5"/>
<text text-anchor="middle" x="135" y="-607.5" font-family="SegoeUI" font-size="10.00">IInstallable</text>
<polyline fill="none" stroke="black" points="100.5,-600.5 169.5,-600.5 "/>
<text text-anchor="middle" x="135" y="-588.5" font-family="SegoeUI" font-size="10.00"> </text>
<polyline fill="none" stroke="black" points="100.5,-581.5 169.5,-581.5 "/>
<text text-anchor="start" x="108.5" y="-569.5" font-family="SegoeUI" font-size="10.00">+ Install()</text>
<text text-anchor="start" x="108.5" y="-558.5" font-family="SegoeUI" font-size="10.00">+ Reinstall()</text>
<text text-anchor="start" x="108.5" y="-547.5" font-family="SegoeUI" font-size="10.00">+ Uninstall()</text>
</a>
</g>
</g>
<!-- Node8&#45;&gt;Node6 -->
<g id="edge3" class="edge"><title>Node8&#45;&gt;Node6</title>
<path fill="none" stroke="midnightblue" d="M131.897,-530.384C130.578,-509.723 128.979,-484.67 127.387,-459.723"/>
<polygon fill="none" stroke="midnightblue" points="128.41,-530.701 132.54,-540.458 135.396,-530.255 128.41,-530.701"/>
</g>
<!-- Node9 -->
<g id="node5" class="node"><title>Node9</title>
<g id="a_node5"><a xlink:href="../../dc/dc0/class_juniper_1_1_unity_1_1_imaging_1_1_vuforia_image_analyzer.html" target="_top" xlink:title="Basic scaffolding around performing image analysis on Vuforia&#39;s image feed. This typically only works...">
<polygon fill="white" stroke="black" points="203.5,-287 203.5,-399 346.5,-399 346.5,-287 203.5,-287"/>
<text text-anchor="start" x="211.5" y="-387" font-family="SegoeUI" font-size="10.00">Juniper.Unity.Imaging.Vuforia</text>
<text text-anchor="middle" x="275" y="-376" font-family="SegoeUI" font-size="10.00">ImageAnalyzer</text>
<polyline fill="none" stroke="black" points="203.5,-369 346.5,-369 "/>
<text text-anchor="start" x="211.5" y="-357" font-family="SegoeUI" font-size="10.00">+ imageAnalyzer</text>
<text text-anchor="start" x="211.5" y="-346" font-family="SegoeUI" font-size="10.00">+ ImageFormat</text>
<text text-anchor="start" x="211.5" y="-335" font-family="SegoeUI" font-size="10.00">&#45; pixelGetter</text>
<text text-anchor="start" x="211.5" y="-324" font-family="SegoeUI" font-size="10.00">&#45; lastFormat</text>
<polyline fill="none" stroke="black" points="203.5,-317 346.5,-317 "/>
<text text-anchor="start" x="211.5" y="-305" font-family="SegoeUI" font-size="10.00"># Loop()</text>
<text text-anchor="start" x="211.5" y="-294" font-family="SegoeUI" font-size="10.00">&#45; Update()</text>
</a>
</g>
</g>
<!-- Node9&#45;&gt;Node5 -->
<g id="edge4" class="edge"><title>Node9&#45;&gt;Node5</title>
<path fill="none" stroke="#404040" d="M261.174,-286.807C254.11,-258.604 245.291,-223.4 237.08,-190.622"/>
<polygon fill="none" stroke="#404040" points="237.003,-190.314 231.665,-185.466 234.087,-178.674 239.425,-183.522 237.003,-190.314"/>
<text text-anchor="middle" x="261.5" y="-200" font-family="SegoeUI" font-size="10.00"> &#45;analyzer</text>
</g>
<!-- Node10 -->
<g id="node6" class="node"><title>Node10</title>
<g id="a_node6"><a xlink:href="../../dd/dad/class_juniper_1_1_data_1_1_abstract_background_repeating_thread.html" target="_top" xlink:title="Performs an operation in a loop on a background thread.">
<polygon fill="white" stroke="black" points="195,-518.5 195,-641.5 339,-641.5 339,-518.5 195,-518.5"/>
<text text-anchor="start" x="203" y="-629.5" font-family="SegoeUI" font-size="10.00">AbstractBackgroundRepeating</text>
<text text-anchor="middle" x="267" y="-618.5" font-family="SegoeUI" font-size="10.00">Thread</text>
<polyline fill="none" stroke="black" points="195,-611.5 339,-611.5 "/>
<text text-anchor="start" x="203" y="-599.5" font-family="SegoeUI" font-size="10.00">+ Running</text>
<text text-anchor="start" x="203" y="-588.5" font-family="SegoeUI" font-size="10.00">&#45; stopping</text>
<polyline fill="none" stroke="black" points="195,-581.5 339,-581.5 "/>
<text text-anchor="start" x="203" y="-569.5" font-family="SegoeUI" font-size="10.00">+ Stop()</text>
<text text-anchor="start" x="203" y="-558.5" font-family="SegoeUI" font-size="10.00"># Awake()</text>
<text text-anchor="start" x="203" y="-547.5" font-family="SegoeUI" font-size="10.00"># OnBegin()</text>
<text text-anchor="start" x="203" y="-536.5" font-family="SegoeUI" font-size="10.00"># Execute()</text>
<text text-anchor="start" x="203" y="-525.5" font-family="SegoeUI" font-size="10.00"># Loop()</text>
</a>
</g>
</g>
<!-- Node10&#45;&gt;Node9 -->
<g id="edge5" class="edge"><title>Node10&#45;&gt;Node9</title>
<path fill="none" stroke="midnightblue" d="M269.406,-508.324C270.598,-473.32 272.015,-431.687 273.125,-399.085"/>
<polygon fill="none" stroke="midnightblue" points="265.903,-508.368 269.06,-518.482 272.898,-508.607 265.903,-508.368"/>
</g>
<!-- Node11 -->
<g id="node7" class="node"><title>Node11</title>
<g id="a_node7"><a xlink:href="../../dd/da7/class_juniper_1_1_data_1_1_abstract_background_thread.html" target="_top" xlink:title="An abstract class for performing an operation on a background thread.">
<polygon fill="white" stroke="black" points="201,-679.5 201,-802.5 333,-802.5 333,-679.5 201,-679.5"/>
<text text-anchor="middle" x="267" y="-790.5" font-family="SegoeUI" font-size="10.00">AbstractBackgroundThread</text>
<polyline fill="none" stroke="black" points="201,-783.5 333,-783.5 "/>
<text text-anchor="start" x="209" y="-771.5" font-family="SegoeUI" font-size="10.00">+ Running</text>
<text text-anchor="start" x="209" y="-760.5" font-family="SegoeUI" font-size="10.00">&#45; running</text>
<polyline fill="none" stroke="black" points="201,-753.5 333,-753.5 "/>
<text text-anchor="start" x="209" y="-741.5" font-family="SegoeUI" font-size="10.00"># OnError()</text>
<text text-anchor="start" x="209" y="-730.5" font-family="SegoeUI" font-size="10.00"># Awake()</text>
<text text-anchor="start" x="209" y="-719.5" font-family="SegoeUI" font-size="10.00"># Begin()</text>
<text text-anchor="start" x="209" y="-708.5" font-family="SegoeUI" font-size="10.00"># OnBegin()</text>
<text text-anchor="start" x="209" y="-697.5" font-family="SegoeUI" font-size="10.00"># Execute()</text>
<text text-anchor="start" x="209" y="-686.5" font-family="SegoeUI" font-size="10.00">&#45; Run()</text>
</a>
</g>
</g>
<!-- Node11&#45;&gt;Node10 -->
<g id="edge6" class="edge"><title>Node11&#45;&gt;Node10</title>
<path fill="none" stroke="midnightblue" d="M267,-669.165C267,-659.987 267,-650.653 267,-641.66"/>
<polygon fill="none" stroke="midnightblue" points="263.5,-669.435 267,-679.435 270.5,-669.435 263.5,-669.435"/>
</g>
<!-- Node12 -->
<g id="node8" class="node"><title>Node12</title>
<g id="a_node8"><a xlink:title=" ">
<polygon fill="white" stroke="#bfbfbf" points="357.5,-551.5 357.5,-608.5 396.5,-608.5 396.5,-551.5 357.5,-551.5"/>
<text text-anchor="middle" x="377" y="-596.5" font-family="SegoeUI" font-size="10.00">static</text>
<polyline fill="none" stroke="#bfbfbf" points="357.5,-589.5 396.5,-589.5 "/>
<text text-anchor="middle" x="377" y="-577.5" font-family="SegoeUI" font-size="10.00"> </text>
<polyline fill="none" stroke="#bfbfbf" points="357.5,-570.5 396.5,-570.5 "/>
<text text-anchor="middle" x="377" y="-558.5" font-family="SegoeUI" font-size="10.00"> </text>
</a>
</g>
</g>
<!-- Node12&#45;&gt;Node9 -->
<g id="edge7" class="edge"><title>Node12&#45;&gt;Node9</title>
<path fill="none" stroke="#404040" d="M364.899,-551.12C349.932,-516.638 323.962,-456.804 303.771,-410.285"/>
<polygon fill="none" stroke="#404040" points="303.681,-410.079 297.623,-406.168 298.903,-399.072 304.962,-402.983 303.681,-410.079"/>
<text text-anchor="middle" x="380" y="-492" font-family="SegoeUI" font-size="10.00"> &#45;attemptFormats</text>
<text text-anchor="middle" x="380" y="-481" font-family="SegoeUI" font-size="10.00">&#45;PixelConverters</text>
</g>
</g>
</svg>
        <g id="navigator" transform="translate(0 0)" fill="#404254">
                <rect fill="#f2f5e9" fill-opacity="0.5" stroke="#606060" stroke-width=".5" x="0" y="0" width="60" height="60"/>
                <use id="zoomplus" xlink:href="#zoomPlus" x="17" y="9" onmousedown="handleZoom(evt,'in')"/>
                <use id="zoomminus" xlink:href="#zoomMin" x="42" y="9" onmousedown="handleZoom(evt,'out')"/>
                <use id="reset" xlink:href="#resetDef" x="30" y="36" onmousedown="handleReset()"/>
                <g id="arrowUp" xlink:href="#dirArrow" transform="translate(30 24)" onmousedown="handlePan(0,-1)">
                  <use xlink:href="#rim" fill="#404040">
                        <set attributeName="fill" to="#808080" begin="arrowUp.mouseover" end="arrowUp.mouseout"/>
                  </use>
                  <path fill="none" stroke="white" stroke-width="1.5" d="M0,-3.0v7 M-2.5,-0.5L0,-3.0L2.5,-0.5"/>
                </g>
                <g id="arrowRight" xlink:href="#dirArrow" transform="rotate(90) translate(36 -43)" onmousedown="handlePan(1,0)">
                  <use xlink:href="#rim" fill="#404040">
                        <set attributeName="fill" to="#808080" begin="arrowRight.mouseover" end="arrowRight.mouseout"/>
                  </use>
                  <path fill="none" stroke="white" stroke-width="1.5" d="M0,-3.0v7 M-2.5,-0.5L0,-3.0L2.5,-0.5"/>
                </g>
                <g id="arrowDown" xlink:href="#dirArrow" transform="rotate(180) translate(-30 -48)" onmousedown="handlePan(0,1)">
                  <use xlink:href="#rim" fill="#404040">
                        <set attributeName="fill" to="#808080" begin="arrowDown.mouseover" end="arrowDown.mouseout"/>
                  </use>
                  <path fill="none" stroke="white" stroke-width="1.5" d="M0,-3.0v7 M-2.5,-0.5L0,-3.0L2.5,-0.5"/>
                </g>
                <g id="arrowLeft" xlink:href="#dirArrow" transform="rotate(270) translate(-36 17)" onmousedown="handlePan(-1,0)">
                  <use xlink:href="#rim" fill="#404040">
                        <set attributeName="fill" to="#808080" begin="arrowLeft.mouseover" end="arrowLeft.mouseout"/>
                  </use>
                  <path fill="none" stroke="white" stroke-width="1.5" d="M0,-3.0v7 M-2.5,-0.5L0,-3.0L2.5,-0.5"/>
                </g>
        </g>
        <svg viewBox="0 0 15 15" width="100%" height="30px" preserveAspectRatio="xMaxYMin meet">
         <g id="arrow_out" transform="scale(0.3 0.3)">
          <a xlink:href="class_juniper_1_1_unity_1_1_world_1_1_light_estimation_1_1_vuforia_light_measurement__coll__graph_org.svg" target="_base">
           <rect id="button" ry="5" rx="5" y="6" x="6" height="38" width="38"
                fill="#f2f5e9" fill-opacity="0.5" stroke="#606060" stroke-width="1.0"/>
           <path id="arrow"
             d="M 11.500037,31.436501 C 11.940474,20.09759 22.043105,11.32322 32.158766,21.979434 L 37.068811,17.246167 C 37.068811,17.246167 37.088388,32 37.088388,32 L 22.160133,31.978069 C 22.160133,31.978069 26.997745,27.140456 26.997745,27.140456 C 18.528582,18.264221 13.291696,25.230495 11.500037,31.436501 z"
             style="fill:#404040;"/>
          </a>
         </g>
        </svg>
</svg>
