<?xml version="1.0" encoding="UTF-8" standalone="no"?>
<!DOCTYPE svg PUBLIC "-//W3C//DTD SVG 1.1//EN"
 "http://www.w3.org/Graphics/SVG/1.1/DTD/svg11.dtd">
<!-- Generated by graphviz version 2.38.0 (20140413.2041)
 -->
<!-- Title: UnityEngine.Android.Device Pages: 1 -->
<svg width="148pt" height="171pt"
 viewBox="0.00 0.00 147.50 171.00" xmlns="http://www.w3.org/2000/svg" xmlns:xlink="http://www.w3.org/1999/xlink">
<g id="graph0" class="graph" transform="scale(1 1) rotate(0) translate(4 167)">
<title>UnityEngine.Android.Device</title>
<polygon fill="white" stroke="none" points="-4,4 -4,-167 143.5,-167 143.5,4 -4,4"/>
<!-- Node1 -->
<g id="node1" class="node"><title>Node1</title>
<g id="a_node1"><a xlink:title="A grab&#45;bag of features specific to Android devices.">
<polygon fill="#bfbfbf" stroke="black" points="0,-0.5 0,-57.5 133,-57.5 133,-0.5 0,-0.5"/>
<text text-anchor="middle" x="66.5" y="-45.5" font-family="SegoeUI" font-size="10.00">UnityEngine.Android.Device</text>
<polyline fill="none" stroke="black" points="0,-38.5 133,-38.5 "/>
<text text-anchor="start" x="8" y="-26.5" font-family="SegoeUI" font-size="10.00">+ APILevel</text>
<polyline fill="none" stroke="black" points="0,-19.5 133,-19.5 "/>
<text text-anchor="start" x="8" y="-7.5" font-family="SegoeUI" font-size="10.00">+ ShowToastMessage()</text>
</a>
</g>
</g>
<!-- Node2 -->
<g id="node2" class="node"><title>Node2</title>
<g id="a_node2"><a xlink:title=" ">
<polygon fill="white" stroke="#bfbfbf" points="47,-105.5 47,-162.5 86,-162.5 86,-105.5 47,-105.5"/>
<text text-anchor="middle" x="66.5" y="-150.5" font-family="SegoeUI" font-size="10.00">static</text>
<polyline fill="none" stroke="#bfbfbf" points="47,-143.5 86,-143.5 "/>
<text text-anchor="middle" x="66.5" y="-131.5" font-family="SegoeUI" font-size="10.00"> </text>
<polyline fill="none" stroke="#bfbfbf" points="47,-124.5 86,-124.5 "/>
<text text-anchor="middle" x="66.5" y="-112.5" font-family="SegoeUI" font-size="10.00"> </text>
</a>
</g>
</g>
<!-- Node2&#45;&gt;Node1 -->
<g id="edge1" class="edge"><title>Node2&#45;&gt;Node1</title>
<path fill="none" stroke="#404040" d="M66.5,-105.398C66.5,-94.5451 66.5,-81.8731 66.5,-70.0493"/>
<polygon fill="none" stroke="#404040" points="66.5001,-69.6783 62.5,-63.6783 66.5,-57.6783 70.5,-63.6783 66.5001,-69.6783"/>
<text text-anchor="middle" x="103" y="-79" font-family="SegoeUI" font-size="10.00"> &#45;cachedAPILevel</text>
</g>
</g>
</svg>
