<?xml version="1.0" encoding="UTF-8" standalone="no"?>
<!DOCTYPE svg PUBLIC "-//W3C//DTD SVG 1.1//EN"
 "http://www.w3.org/Graphics/SVG/1.1/DTD/svg11.dtd">
<!-- Generated by graphviz version 2.38.0 (20140413.2041)
 -->
<!-- Title: Juniper.MediaType.Message Pages: 1 -->
<svg width="400pt" height="849pt"
 viewBox="0.00 0.00 400.00 849.00" xmlns="http://www.w3.org/2000/svg" xmlns:xlink="http://www.w3.org/1999/xlink">
<g id="graph0" class="graph" transform="scale(1 1) rotate(0) translate(4 845)">
<title>Juniper.MediaType.Message</title>
<polygon fill="white" stroke="none" points="-4,4 -4,-845 396,-845 396,4 -4,4"/>
<!-- Node4 -->
<g id="node1" class="node"><title>Node4</title>
<g id="a_node1"><a xlink:title=" ">
<polygon fill="#bfbfbf" stroke="black" points="135.5,-0.5 135.5,-211.5 272.5,-211.5 272.5,-0.5 135.5,-0.5"/>
<text text-anchor="middle" x="204" y="-199.5" font-family="SegoeUI" font-size="10.00">Juniper.MediaType.Message</text>
<polyline fill="none" stroke="black" points="135.5,-192.5 272.5,-192.5 "/>
<text text-anchor="start" x="143.5" y="-180.5" font-family="SegoeUI" font-size="10.00">+ AnyMessage</text>
<text text-anchor="start" x="143.5" y="-169.5" font-family="SegoeUI" font-size="10.00">+ CPIM</text>
<text text-anchor="start" x="143.5" y="-158.5" font-family="SegoeUI" font-size="10.00">+ Disposition_Notification</text>
<text text-anchor="start" x="143.5" y="-147.5" font-family="SegoeUI" font-size="10.00">+ Example</text>
<text text-anchor="start" x="143.5" y="-136.5" font-family="SegoeUI" font-size="10.00">+ Global</text>
<text text-anchor="start" x="143.5" y="-125.5" font-family="SegoeUI" font-size="10.00">+ Http</text>
<text text-anchor="start" x="143.5" y="-114.5" font-family="SegoeUI" font-size="10.00">+ ImdnXml</text>
<text text-anchor="start" x="143.5" y="-103.5" font-family="SegoeUI" font-size="10.00">+ News</text>
<text text-anchor="start" x="143.5" y="-92.5" font-family="SegoeUI" font-size="10.00">+ Partial</text>
<text text-anchor="start" x="143.5" y="-81.5" font-family="SegoeUI" font-size="10.00">+ S_Http</text>
<text text-anchor="start" x="143.5" y="-70.5" font-family="SegoeUI" font-size="10.00">+ Sip</text>
<text text-anchor="start" x="143.5" y="-59.5" font-family="SegoeUI" font-size="10.00">+ Sipfrag</text>
<text text-anchor="start" x="143.5" y="-48.5" font-family="SegoeUI" font-size="10.00">+ VendorSiSimp</text>
<polyline fill="none" stroke="black" points="135.5,-41.5 272.5,-41.5 "/>
<text text-anchor="start" x="143.5" y="-29.5" font-family="SegoeUI" font-size="10.00">+ Matches()</text>
<text text-anchor="start" x="143.5" y="-18.5" font-family="SegoeUI" font-size="10.00">&#45; Message()</text>
<text text-anchor="start" x="143.5" y="-7.5" font-family="SegoeUI" font-size="10.00">&#45; Message()</text>
</a>
</g>
</g>
<!-- Node5 -->
<g id="node2" class="node"><title>Node5</title>
<g id="a_node2"><a xlink:href="../../d4/d56/class_juniper_1_1_media_type.html" target="_top" xlink:title=" ">
<polygon fill="white" stroke="black" points="144.5,-249.5 144.5,-680.5 263.5,-680.5 263.5,-249.5 144.5,-249.5"/>
<text text-anchor="middle" x="204" y="-668.5" font-family="SegoeUI" font-size="10.00">MediaType</text>
<polyline fill="none" stroke="black" points="144.5,-661.5 263.5,-661.5 "/>
<text text-anchor="start" x="152.5" y="-649.5" font-family="SegoeUI" font-size="10.00">+ TYPE_PATTERN</text>
<text text-anchor="start" x="152.5" y="-638.5" font-family="SegoeUI" font-size="10.00">+ Value</text>
<text text-anchor="start" x="152.5" y="-627.5" font-family="SegoeUI" font-size="10.00">+ TypeName</text>
<text text-anchor="start" x="152.5" y="-616.5" font-family="SegoeUI" font-size="10.00">+ SubTypeName</text>
<text text-anchor="start" x="152.5" y="-605.5" font-family="SegoeUI" font-size="10.00">+ Weight</text>
<text text-anchor="start" x="152.5" y="-594.5" font-family="SegoeUI" font-size="10.00">+ Extensions</text>
<text text-anchor="start" x="152.5" y="-583.5" font-family="SegoeUI" font-size="10.00">+ PrimaryExtension</text>
<text text-anchor="start" x="152.5" y="-572.5" font-family="SegoeUI" font-size="10.00">&#45; weightedValue</text>
<polyline fill="none" stroke="black" points="144.5,-565.5 263.5,-565.5 "/>
<text text-anchor="start" x="152.5" y="-553.5" font-family="SegoeUI" font-size="10.00">+ Matches()</text>
<text text-anchor="start" x="152.5" y="-542.5" font-family="SegoeUI" font-size="10.00">+ Matches()</text>
<text text-anchor="start" x="152.5" y="-531.5" font-family="SegoeUI" font-size="10.00">+ AddExtension()</text>
<text text-anchor="start" x="152.5" y="-520.5" font-family="SegoeUI" font-size="10.00">+ Equals()</text>
<text text-anchor="start" x="152.5" y="-509.5" font-family="SegoeUI" font-size="10.00">+ Equals()</text>
<text text-anchor="start" x="152.5" y="-498.5" font-family="SegoeUI" font-size="10.00">+ Equals()</text>
<text text-anchor="start" x="152.5" y="-487.5" font-family="SegoeUI" font-size="10.00">+ ToString()</text>
<text text-anchor="start" x="152.5" y="-476.5" font-family="SegoeUI" font-size="10.00">+ GetHashCode()</text>
<text text-anchor="start" x="152.5" y="-465.5" font-family="SegoeUI" font-size="10.00">+ Parse()</text>
<text text-anchor="start" x="152.5" y="-454.5" font-family="SegoeUI" font-size="10.00">+ ParseAll()</text>
<text text-anchor="start" x="152.5" y="-443.5" font-family="SegoeUI" font-size="10.00">+ TryParse()</text>
<text text-anchor="start" x="152.5" y="-432.5" font-family="SegoeUI" font-size="10.00">+ GuessByFileName()</text>
<text text-anchor="start" x="152.5" y="-421.5" font-family="SegoeUI" font-size="10.00">+ GuessByFile()</text>
<text text-anchor="start" x="152.5" y="-410.5" font-family="SegoeUI" font-size="10.00">+ Lookup()</text>
<text text-anchor="start" x="152.5" y="-399.5" font-family="SegoeUI" font-size="10.00">+ operator+()</text>
<text text-anchor="start" x="152.5" y="-388.5" font-family="SegoeUI" font-size="10.00">+ operator string()</text>
<text text-anchor="start" x="152.5" y="-377.5" font-family="SegoeUI" font-size="10.00">+ operator==()</text>
<text text-anchor="start" x="152.5" y="-366.5" font-family="SegoeUI" font-size="10.00">+ operator !=()</text>
<text text-anchor="start" x="152.5" y="-355.5" font-family="SegoeUI" font-size="10.00">+ operator==()</text>
<text text-anchor="start" x="152.5" y="-344.5" font-family="SegoeUI" font-size="10.00">+ operator !=()</text>
<text text-anchor="start" x="152.5" y="-333.5" font-family="SegoeUI" font-size="10.00">+ operator==()</text>
<text text-anchor="start" x="152.5" y="-322.5" font-family="SegoeUI" font-size="10.00">+ operator !=()</text>
<text text-anchor="start" x="152.5" y="-311.5" font-family="SegoeUI" font-size="10.00"># MediaType()</text>
<text text-anchor="start" x="152.5" y="-300.5" font-family="SegoeUI" font-size="10.00">&#45; MediaType()</text>
<text text-anchor="start" x="152.5" y="-289.5" font-family="SegoeUI" font-size="10.00">&#45; MediaType()</text>
<text text-anchor="start" x="152.5" y="-278.5" font-family="SegoeUI" font-size="10.00">&#45; UpdateLookupTables()</text>
<text text-anchor="start" x="152.5" y="-267.5" font-family="SegoeUI" font-size="10.00">&#45; InternalParseAll()</text>
<text text-anchor="start" x="152.5" y="-256.5" font-family="SegoeUI" font-size="10.00">&#45; GuessByExtension()</text>
</a>
</g>
</g>
<!-- Node5&#45;&gt;Node4 -->
<g id="edge1" class="edge"><title>Node5&#45;&gt;Node4</title>
<path fill="none" stroke="midnightblue" d="M197.456,-239.187C197.541,-229.855 197.652,-220.705 197.789,-211.849"/>
<polygon fill="none" stroke="midnightblue" points="193.955,-239.35 197.374,-249.378 200.955,-239.407 193.955,-239.35"/>
</g>
<!-- Node5&#45;&gt;Node4 -->
<g id="edge5" class="edge"><title>Node5&#45;&gt;Node4</title>
<path fill="none" stroke="midnightblue" d="M210.544,-239.187C210.459,-229.855 210.348,-220.705 210.211,-211.849"/>
<polygon fill="none" stroke="midnightblue" points="207.045,-239.407 210.626,-249.378 214.045,-239.35 207.045,-239.407"/>
</g>
<!-- Node6 -->
<g id="node3" class="node"><title>Node6</title>
<g id="a_node3"><a xlink:title=" ">
<polygon fill="white" stroke="#bfbfbf" points="0,-783.5 0,-840.5 128,-840.5 128,-783.5 0,-783.5"/>
<text text-anchor="middle" x="64" y="-828.5" font-family="SegoeUI" font-size="10.00">IEquatable&lt; MediaType &gt;</text>
<polyline fill="none" stroke="#bfbfbf" points="0,-821.5 128,-821.5 "/>
<text text-anchor="middle" x="64" y="-809.5" font-family="SegoeUI" font-size="10.00"> </text>
<polyline fill="none" stroke="#bfbfbf" points="0,-802.5 128,-802.5 "/>
<text text-anchor="middle" x="64" y="-790.5" font-family="SegoeUI" font-size="10.00"> </text>
</a>
</g>
</g>
<!-- Node6&#45;&gt;Node5 -->
<g id="edge2" class="edge"><title>Node6&#45;&gt;Node5</title>
<path fill="none" stroke="midnightblue" d="M78.9928,-774.053C94.7059,-735.332 120.402,-672.009 144.424,-612.813"/>
<polygon fill="none" stroke="midnightblue" points="75.7372,-772.768 75.2201,-783.35 82.2235,-775.4 75.7372,-772.768"/>
</g>
<!-- Node7 -->
<g id="node4" class="node"><title>Node7</title>
<g id="a_node4"><a xlink:title=" ">
<polygon fill="white" stroke="#bfbfbf" points="146.5,-783.5 146.5,-840.5 251.5,-840.5 251.5,-783.5 146.5,-783.5"/>
<text text-anchor="middle" x="199" y="-828.5" font-family="SegoeUI" font-size="10.00">IEquatable&lt; string &gt;</text>
<polyline fill="none" stroke="#bfbfbf" points="146.5,-821.5 251.5,-821.5 "/>
<text text-anchor="middle" x="199" y="-809.5" font-family="SegoeUI" font-size="10.00"> </text>
<polyline fill="none" stroke="#bfbfbf" points="146.5,-802.5 251.5,-802.5 "/>
<text text-anchor="middle" x="199" y="-790.5" font-family="SegoeUI" font-size="10.00"> </text>
</a>
</g>
</g>
<!-- Node7&#45;&gt;Node5 -->
<g id="edge3" class="edge"><title>Node7&#45;&gt;Node5</title>
<path fill="none" stroke="midnightblue" d="M199.55,-773.047C199.896,-749.184 200.373,-716.27 200.887,-680.814"/>
<polygon fill="none" stroke="midnightblue" points="196.046,-773.301 199.401,-783.35 203.045,-773.402 196.046,-773.301"/>
</g>
<!-- Node8 -->
<g id="node5" class="node"><title>Node8</title>
<g id="a_node5"><a xlink:title=" ">
<polygon fill="white" stroke="#bfbfbf" points="277.5,-783.5 277.5,-840.5 316.5,-840.5 316.5,-783.5 277.5,-783.5"/>
<text text-anchor="middle" x="297" y="-828.5" font-family="SegoeUI" font-size="10.00">static</text>
<polyline fill="none" stroke="#bfbfbf" points="277.5,-821.5 316.5,-821.5 "/>
<text text-anchor="middle" x="297" y="-809.5" font-family="SegoeUI" font-size="10.00"> </text>
<polyline fill="none" stroke="#bfbfbf" points="277.5,-802.5 316.5,-802.5 "/>
<text text-anchor="middle" x="297" y="-790.5" font-family="SegoeUI" font-size="10.00"> </text>
</a>
</g>
</g>
<!-- Node8&#45;&gt;Node4 -->
<g id="edge6" class="edge"><title>Node8&#45;&gt;Node4</title>
<path fill="none" stroke="#404040" d="M299.622,-783.245C306.63,-700.465 322.031,-448.658 272,-249 269.852,-240.428 267.162,-231.755 264.101,-223.145"/>
<polygon fill="none" stroke="#404040" points="264.089,-223.113 258.237,-218.898 259.877,-211.876 265.729,-216.091 264.089,-223.113"/>
<text text-anchor="middle" x="350" y="-528.5" font-family="SegoeUI" font-size="10.00"> +VendorWfaWsc</text>
<text text-anchor="middle" x="350" y="-517.5" font-family="SegoeUI" font-size="10.00">+Tracking_Status</text>
<text text-anchor="start" x="308" y="-506.5" font-family="SegoeUI" font-size="10.00">+Global_Delivery</text>
<text text-anchor="middle" x="350" y="-495.5" font-family="SegoeUI" font-size="10.00">_Status</text>
<text text-anchor="middle" x="350" y="-484.5" font-family="SegoeUI" font-size="10.00">+Feedback_Report</text>
<text text-anchor="middle" x="350" y="-473.5" font-family="SegoeUI" font-size="10.00">+Delivery_Status</text>
<text text-anchor="middle" x="350" y="-462.5" font-family="SegoeUI" font-size="10.00">+Global_Headers</text>
<text text-anchor="middle" x="350" y="-451.5" font-family="SegoeUI" font-size="10.00">+Rfc822</text>
<text text-anchor="start" x="308" y="-440.5" font-family="SegoeUI" font-size="10.00">+Global_Disposition</text>
<text text-anchor="middle" x="350" y="-429.5" font-family="SegoeUI" font-size="10.00">_Notification</text>
<text text-anchor="middle" x="350" y="-418.5" font-family="SegoeUI" font-size="10.00">+External_Body</text>
<text text-anchor="middle" x="350" y="-407.5" font-family="SegoeUI" font-size="10.00">+Values</text>
<text text-anchor="middle" x="350" y="-396.5" font-family="SegoeUI" font-size="10.00">...</text>
</g>
<!-- Node8&#45;&gt;Node5 -->
<g id="edge4" class="edge"><title>Node8&#45;&gt;Node5</title>
<path fill="none" stroke="#404040" d="M277.192,-795.666C271.675,-791.49 265.647,-787.014 260,-783 248.245,-774.645 240.412,-777.372 233,-765 224.296,-750.47 218.141,-724.066 213.804,-692.748"/>
<polygon fill="none" stroke="#404040" points="213.761,-692.421 209.028,-686.981 212.228,-680.519 216.962,-685.959 213.761,-692.421"/>
<text text-anchor="middle" x="262.5" y="-757" font-family="SegoeUI" font-size="10.00"> +All</text>
<text text-anchor="middle" x="262.5" y="-746" font-family="SegoeUI" font-size="10.00">+Values</text>
<text text-anchor="middle" x="262.5" y="-735" font-family="SegoeUI" font-size="10.00">&#45;typePattern</text>
<text text-anchor="middle" x="262.5" y="-724" font-family="SegoeUI" font-size="10.00">&#45;byValue</text>
<text text-anchor="middle" x="262.5" y="-713" font-family="SegoeUI" font-size="10.00">+Any</text>
<text text-anchor="middle" x="262.5" y="-702" font-family="SegoeUI" font-size="10.00">&#45;byExtensions</text>
</g>
</g>
</svg>
