<?xml version="1.0" encoding="UTF-8" standalone="no"?>
<!DOCTYPE svg PUBLIC "-//W3C//DTD SVG 1.1//EN"
 "http://www.w3.org/Graphics/SVG/1.1/DTD/svg11.dtd">
<!-- Generated by graphviz version 2.38.0 (20140413.2041)
 -->
<!-- Title: Juniper.Widgets.JibberJabber Pages: 1 -->
<svg width="150pt" height="248pt"
 viewBox="0.00 0.00 150.00 248.00" xmlns="http://www.w3.org/2000/svg" xmlns:xlink="http://www.w3.org/1999/xlink">
<g id="graph0" class="graph" transform="scale(1 1) rotate(0) translate(4 244)">
<title>Juniper.Widgets.JibberJabber</title>
<polygon fill="white" stroke="none" points="-4,4 -4,-244 146,-244 146,4 -4,4"/>
<!-- Node0 -->
<g id="node1" class="node"><title>Node0</title>
<g id="a_node1"><a xlink:title="Plays clips out of an AudioClipCollection at set intervals, making for a point source of ambient soun...">
<polygon fill="#bfbfbf" stroke="black" points="0,-0.5 0,-145.5 142,-145.5 142,-0.5 0,-0.5"/>
<text text-anchor="middle" x="71" y="-133.5" font-family="SegoeUI" font-size="10.00">Juniper.Widgets.JibberJabber</text>
<polyline fill="none" stroke="black" points="0,-126.5 142,-126.5 "/>
<text text-anchor="start" x="8" y="-114.5" font-family="SegoeUI" font-size="10.00">+ clips</text>
<text text-anchor="start" x="8" y="-103.5" font-family="SegoeUI" font-size="10.00">+ timeBetweenClips</text>
<text text-anchor="start" x="8" y="-92.5" font-family="SegoeUI" font-size="10.00">+ delayBeforeStart</text>
<text text-anchor="start" x="8" y="-81.5" font-family="SegoeUI" font-size="10.00">&#45; time</text>
<text text-anchor="start" x="8" y="-70.5" font-family="SegoeUI" font-size="10.00">&#45; playing</text>
<text text-anchor="start" x="8" y="-59.5" font-family="SegoeUI" font-size="10.00">&#45; audioSource</text>
<polyline fill="none" stroke="black" points="0,-52.5 142,-52.5 "/>
<text text-anchor="start" x="8" y="-40.5" font-family="SegoeUI" font-size="10.00">+ Awake()</text>
<text text-anchor="start" x="8" y="-29.5" font-family="SegoeUI" font-size="10.00">+ Update()</text>
<text text-anchor="start" x="8" y="-18.5" font-family="SegoeUI" font-size="10.00">+ Play()</text>
<text text-anchor="start" x="8" y="-7.5" font-family="SegoeUI" font-size="10.00">+ Stop()</text>
</a>
</g>
</g>
<!-- Node1 -->
<g id="node2" class="node"><title>Node1</title>
<g id="a_node2"><a xlink:title=" ">
<polygon fill="white" stroke="#bfbfbf" points="30,-182.5 30,-239.5 112,-239.5 112,-182.5 30,-182.5"/>
<text text-anchor="middle" x="71" y="-227.5" font-family="SegoeUI" font-size="10.00">MonoBehaviour</text>
<polyline fill="none" stroke="#bfbfbf" points="30,-220.5 112,-220.5 "/>
<text text-anchor="middle" x="71" y="-208.5" font-family="SegoeUI" font-size="10.00"> </text>
<polyline fill="none" stroke="#bfbfbf" points="30,-201.5 112,-201.5 "/>
<text text-anchor="middle" x="71" y="-189.5" font-family="SegoeUI" font-size="10.00"> </text>
</a>
</g>
</g>
<!-- Node1&#45;&gt;Node0 -->
<g id="edge1" class="edge"><title>Node1&#45;&gt;Node0</title>
<path fill="none" stroke="midnightblue" d="M71,-172.356C71,-163.999 71,-154.872 71,-145.656"/>
<polygon fill="none" stroke="midnightblue" points="67.5001,-172.478 71,-182.478 74.5001,-172.478 67.5001,-172.478"/>
</g>
</g>
</svg>
