<?xml version="1.0" encoding="UTF-8" standalone="no"?>
<!DOCTYPE svg PUBLIC "-//W3C//DTD SVG 1.1//EN"
 "http://www.w3.org/Graphics/SVG/1.1/DTD/svg11.dtd">
<!-- Generated by graphviz version 2.38.0 (20140413.2041)
 -->
<!-- Title: Juniper.Unity.Ground.WindowsMRGround Pages: 1 -->
<!--zoomable 673 -->
<svg id="main" version="1.1" xmlns="http://www.w3.org/2000/svg" xmlns:xlink="http://www.w3.org/1999/xlink" xml:space="preserve" onload="init(evt)">
<style type="text/css"><![CDATA[
.edge:hover path { stroke: red; }
.edge:hover polygon { stroke: red; fill: red; }
]]></style>
<script type="text/javascript"><![CDATA[
var edges = document.getElementsByTagName('g');
if (edges && edges.length) {
  for (var i=0;i<edges.length;i++) {
    if (edges[i].id.substr(0,4)=='edge') {
      edges[i].setAttribute('class','edge');
    }
  }
}
]]></script>
        <defs>
                <circle id="rim" cx="0" cy="0" r="7"/>
                <circle id="rim2" cx="0" cy="0" r="3.5"/>
                <g id="zoomPlus">
                        <use xlink:href="#rim" fill="#404040">
                                <set attributeName="fill" to="#808080" begin="zoomplus.mouseover" end="zoomplus.mouseout"/>
                        </use>
                        <path d="M-4,0h8M0,-4v8" fill="none" stroke="white" stroke-width="1.5" pointer-events="none"/>
                </g>
                <g id="zoomMin">
                        <use xlink:href="#rim" fill="#404040">
                                <set attributeName="fill" to="#808080" begin="zoomminus.mouseover" end="zoomminus.mouseout"/>
                        </use>
                        <path d="M-4,0h8" fill="none" stroke="white" stroke-width="1.5" pointer-events="none"/>
                </g>
                <g id="dirArrow">
                        <path fill="none" stroke="white" stroke-width="1.5" d="M0,-3.0v7 M-2.5,-0.5L0,-3.0L2.5,-0.5"/>
                </g>
               <g id="resetDef">
                       <use xlink:href="#rim2" fill="#404040">
                               <set attributeName="fill" to="#808080" begin="reset.mouseover" end="reset.mouseout"/>
                       </use>
               </g>
        </defs>

<script type="text/javascript">
var viewWidth = 353;
var viewHeight = 673;
var sectionId = 'dynsection-1';
</script>
<script xlink:href="../../svgpan.js"/>
<svg id="graph" class="graph">
<g id="viewport">
<title>Juniper.Unity.Ground.WindowsMRGround</title>
<polygon fill="white" stroke="none" points="-4,4 -4,-669 349,-669 349,4 -4,4"/>
<!-- Node4 -->
<g id="node1" class="node"><title>Node4</title>
<g id="a_node1"><a xlink:title=" ">
<polygon fill="#bfbfbf" stroke="black" points="125,-0.5 125,-277.5 287,-277.5 287,-0.5 125,-0.5"/>
<text text-anchor="start" x="133" y="-265.5" font-family="SegoeUI" font-size="10.00">Juniper.Unity.Ground.Windows</text>
<text text-anchor="middle" x="206" y="-254.5" font-family="SegoeUI" font-size="10.00">MRGround</text>
<polyline fill="none" stroke="black" points="125,-247.5 287,-247.5 "/>
<text text-anchor="start" x="133" y="-235.5" font-family="SegoeUI" font-size="10.00">+ surfaceParent</text>
<text text-anchor="start" x="133" y="-224.5" font-family="SegoeUI" font-size="10.00">+ secondsBetweenSpatialMapping</text>
<text text-anchor="start" x="133" y="-213.5" font-family="SegoeUI" font-size="10.00">Updates</text>
<text text-anchor="start" x="133" y="-202.5" font-family="SegoeUI" font-size="10.00">+ updateCountBeforeSpatial</text>
<text text-anchor="start" x="133" y="-191.5" font-family="SegoeUI" font-size="10.00">MappingCleanup</text>
<text text-anchor="start" x="133" y="-180.5" font-family="SegoeUI" font-size="10.00">+ spatialMappingRange</text>
<text text-anchor="start" x="133" y="-169.5" font-family="SegoeUI" font-size="10.00">+ freezeUpdates</text>
<text text-anchor="start" x="133" y="-158.5" font-family="SegoeUI" font-size="10.00">+ volumeType</text>
<text text-anchor="start" x="133" y="-147.5" font-family="SegoeUI" font-size="10.00">+ HalfBoxExtents</text>
<text text-anchor="start" x="133" y="-136.5" font-family="SegoeUI" font-size="10.00">+ LODType</text>
<text text-anchor="start" x="133" y="-125.5" font-family="SegoeUI" font-size="10.00">&#45; gRenderer</text>
<text text-anchor="start" x="133" y="-114.5" font-family="SegoeUI" font-size="10.00">&#45; gCollider</text>
<text text-anchor="start" x="133" y="-103.5" font-family="SegoeUI" font-size="10.00">&#45; lastSurfaceParent</text>
<text text-anchor="start" x="133" y="-92.5" font-family="SegoeUI" font-size="10.00">&#45; lastUpdateTime</text>
<text text-anchor="start" x="133" y="-81.5" font-family="SegoeUI" font-size="10.00">&#45; lastUpdateCount</text>
<text text-anchor="start" x="133" y="-70.5" font-family="SegoeUI" font-size="10.00">&#45; lastFreezeUpdates</text>
<text text-anchor="start" x="133" y="-59.5" font-family="SegoeUI" font-size="10.00">&#45; lastLODType</text>
<text text-anchor="start" x="133" y="-48.5" font-family="SegoeUI" font-size="10.00">&#45; lastVolumeType</text>
<polyline fill="none" stroke="black" points="125,-41.5 287,-41.5 "/>
<text text-anchor="start" x="133" y="-29.5" font-family="SegoeUI" font-size="10.00">+ Update()</text>
<text text-anchor="start" x="133" y="-18.5" font-family="SegoeUI" font-size="10.00"># Awake()</text>
<text text-anchor="start" x="133" y="-7.5" font-family="SegoeUI" font-size="10.00">&#45; Check&lt; T &gt;()</text>
</a>
</g>
</g>
<!-- Node5 -->
<g id="node2" class="node"><title>Node5</title>
<g id="a_node2"><a xlink:href="../../d6/dcb/class_juniper_1_1_unity_1_1_ground_1_1_abstract_ground.html" target="_top" xlink:title=" ">
<polygon fill="white" stroke="black" points="21,-325.5 21,-547.5 155,-547.5 155,-325.5 21,-325.5"/>
<text text-anchor="middle" x="88" y="-535.5" font-family="SegoeUI" font-size="10.00">AbstractGround</text>
<polyline fill="none" stroke="black" points="21,-528.5 155,-528.5 "/>
<text text-anchor="start" x="29" y="-516.5" font-family="SegoeUI" font-size="10.00">+ Roughness</text>
<text text-anchor="start" x="29" y="-505.5" font-family="SegoeUI" font-size="10.00">+ spatialMappingFidelity</text>
<text text-anchor="start" x="29" y="-494.5" font-family="SegoeUI" font-size="10.00">+ MeshVisualization</text>
<text text-anchor="start" x="29" y="-483.5" font-family="SegoeUI" font-size="10.00">+ OcclusionMaterial</text>
<text text-anchor="start" x="29" y="-472.5" font-family="SegoeUI" font-size="10.00">+ OcclusionMaterialInEditor</text>
<text text-anchor="start" x="29" y="-461.5" font-family="SegoeUI" font-size="10.00">+ VisualizationMaterial</text>
<text text-anchor="start" x="29" y="-450.5" font-family="SegoeUI" font-size="10.00">+ CurrentMaterial</text>
<text text-anchor="start" x="29" y="-439.5" font-family="SegoeUI" font-size="10.00">+ GroundLayer</text>
<text text-anchor="start" x="29" y="-428.5" font-family="SegoeUI" font-size="10.00">+ GroundVisualizers</text>
<text text-anchor="start" x="29" y="-417.5" font-family="SegoeUI" font-size="10.00">&#45; lastMeshVisualization</text>
<polyline fill="none" stroke="black" points="21,-410.5 155,-410.5 "/>
<text text-anchor="start" x="29" y="-398.5" font-family="SegoeUI" font-size="10.00">+ ToggleVisualization()</text>
<text text-anchor="start" x="29" y="-387.5" font-family="SegoeUI" font-size="10.00">+ Reinstall()</text>
<text text-anchor="start" x="29" y="-376.5" font-family="SegoeUI" font-size="10.00">+ Update()</text>
<text text-anchor="start" x="29" y="-365.5" font-family="SegoeUI" font-size="10.00">+ Install()</text>
<text text-anchor="start" x="29" y="-354.5" font-family="SegoeUI" font-size="10.00">+ Uninstall()</text>
<text text-anchor="start" x="29" y="-343.5" font-family="SegoeUI" font-size="10.00"># Awake()</text>
<text text-anchor="start" x="29" y="-332.5" font-family="SegoeUI" font-size="10.00"># VisualizationChanged()</text>
</a>
</g>
</g>
<!-- Node5&#45;&gt;Node4 -->
<g id="edge1" class="edge"><title>Node5&#45;&gt;Node4</title>
<path fill="none" stroke="midnightblue" d="M135.759,-315.899C140.787,-303.308 145.929,-290.433 151.03,-277.659"/>
<polygon fill="none" stroke="midnightblue" points="132.397,-314.882 131.939,-325.467 138.898,-317.478 132.397,-314.882"/>
</g>
<!-- Node6 -->
<g id="node3" class="node"><title>Node6</title>
<g id="a_node3"><a xlink:title=" ">
<polygon fill="white" stroke="#bfbfbf" points="0,-596.5 0,-653.5 82,-653.5 82,-596.5 0,-596.5"/>
<text text-anchor="middle" x="41" y="-641.5" font-family="SegoeUI" font-size="10.00">MonoBehaviour</text>
<polyline fill="none" stroke="#bfbfbf" points="0,-634.5 82,-634.5 "/>
<text text-anchor="middle" x="41" y="-622.5" font-family="SegoeUI" font-size="10.00"> </text>
<polyline fill="none" stroke="#bfbfbf" points="0,-615.5 82,-615.5 "/>
<text text-anchor="middle" x="41" y="-603.5" font-family="SegoeUI" font-size="10.00"> </text>
</a>
</g>
</g>
<!-- Node6&#45;&gt;Node5 -->
<g id="edge2" class="edge"><title>Node6&#45;&gt;Node5</title>
<path fill="none" stroke="midnightblue" d="M50.3796,-586.781C53.307,-575.165 56.6989,-561.705 60.2237,-547.719"/>
<polygon fill="none" stroke="midnightblue" points="46.9849,-585.929 47.935,-596.481 53.7727,-587.64 46.9849,-585.929"/>
</g>
<!-- Node7 -->
<g id="node4" class="node"><title>Node7</title>
<g id="a_node4"><a xlink:href="../../db/d28/interface_juniper_1_1_i_installable.html" target="_top" xlink:title="Defines an interface for objects that can be installed and have their installation progress tracked.">
<polygon fill="white" stroke="black" points="100.5,-585.5 100.5,-664.5 169.5,-664.5 169.5,-585.5 100.5,-585.5"/>
<text text-anchor="middle" x="135" y="-652.5" font-family="SegoeUI" font-size="10.00">IInstallable</text>
<polyline fill="none" stroke="black" points="100.5,-645.5 169.5,-645.5 "/>
<text text-anchor="middle" x="135" y="-633.5" font-family="SegoeUI" font-size="10.00"> </text>
<polyline fill="none" stroke="black" points="100.5,-626.5 169.5,-626.5 "/>
<text text-anchor="start" x="108.5" y="-614.5" font-family="SegoeUI" font-size="10.00">+ Install()</text>
<text text-anchor="start" x="108.5" y="-603.5" font-family="SegoeUI" font-size="10.00">+ Reinstall()</text>
<text text-anchor="start" x="108.5" y="-592.5" font-family="SegoeUI" font-size="10.00">+ Uninstall()</text>
</a>
</g>
</g>
<!-- Node7&#45;&gt;Node5 -->
<g id="edge3" class="edge"><title>Node7&#45;&gt;Node5</title>
<path fill="none" stroke="midnightblue" d="M122.764,-575.448C120.564,-566.717 118.191,-557.301 115.755,-547.635"/>
<polygon fill="none" stroke="midnightblue" points="119.424,-576.516 125.262,-585.357 126.212,-574.805 119.424,-576.516"/>
</g>
<!-- Node8 -->
<g id="node5" class="node"><title>Node8</title>
<g id="a_node5"><a xlink:title=" ">
<polygon fill="white" stroke="#bfbfbf" points="173,-408 173,-465 239,-465 239,-408 173,-408"/>
<text text-anchor="middle" x="206" y="-453" font-family="SegoeUI" font-size="10.00">UnityEngine</text>
<polyline fill="none" stroke="#bfbfbf" points="173,-446 239,-446 "/>
<text text-anchor="middle" x="206" y="-434" font-family="SegoeUI" font-size="10.00"> </text>
<polyline fill="none" stroke="#bfbfbf" points="173,-427 239,-427 "/>
<text text-anchor="middle" x="206" y="-415" font-family="SegoeUI" font-size="10.00"> </text>
</a>
</g>
</g>
<!-- Node8&#45;&gt;Node4 -->
<g id="edge4" class="edge"><title>Node8&#45;&gt;Node4</title>
<path fill="none" stroke="#404040" d="M206,-407.965C206,-380.214 206,-335.11 206,-289.754"/>
<polygon fill="none" stroke="#404040" points="206,-289.601 202,-283.601 206,-277.601 210,-283.601 206,-289.601"/>
<text text-anchor="middle" x="233" y="-299" font-family="SegoeUI" font-size="10.00"> &#45;lastHalfBox</text>
</g>
<!-- Node9 -->
<g id="node6" class="node"><title>Node9</title>
<g id="a_node6"><a xlink:title=" ">
<polygon fill="white" stroke="#bfbfbf" points="263.5,-408 263.5,-465 302.5,-465 302.5,-408 263.5,-408"/>
<text text-anchor="middle" x="283" y="-453" font-family="SegoeUI" font-size="10.00">static</text>
<polyline fill="none" stroke="#bfbfbf" points="263.5,-446 302.5,-446 "/>
<text text-anchor="middle" x="283" y="-434" font-family="SegoeUI" font-size="10.00"> </text>
<polyline fill="none" stroke="#bfbfbf" points="263.5,-427 302.5,-427 "/>
<text text-anchor="middle" x="283" y="-415" font-family="SegoeUI" font-size="10.00"> </text>
</a>
</g>
</g>
<!-- Node9&#45;&gt;Node4 -->
<g id="edge5" class="edge"><title>Node9&#45;&gt;Node4</title>
<path fill="none" stroke="#404040" d="M280.158,-407.936C276.884,-379.579 270.678,-334.269 261,-296 260.456,-293.849 259.895,-291.685 259.318,-289.512"/>
<polygon fill="none" stroke="#404040" points="259.282,-289.384 253.831,-284.664 256.091,-277.816 261.543,-282.536 259.282,-289.384"/>
<text text-anchor="middle" x="304" y="-299" font-family="SegoeUI" font-size="10.00"> &#45;LODTypeMapping</text>
</g>
</g>
</svg>
        <g id="navigator" transform="translate(0 0)" fill="#404254">
                <rect fill="#f2f5e9" fill-opacity="0.5" stroke="#606060" stroke-width=".5" x="0" y="0" width="60" height="60"/>
                <use id="zoomplus" xlink:href="#zoomPlus" x="17" y="9" onmousedown="handleZoom(evt,'in')"/>
                <use id="zoomminus" xlink:href="#zoomMin" x="42" y="9" onmousedown="handleZoom(evt,'out')"/>
                <use id="reset" xlink:href="#resetDef" x="30" y="36" onmousedown="handleReset()"/>
                <g id="arrowUp" xlink:href="#dirArrow" transform="translate(30 24)" onmousedown="handlePan(0,-1)">
                  <use xlink:href="#rim" fill="#404040">
                        <set attributeName="fill" to="#808080" begin="arrowUp.mouseover" end="arrowUp.mouseout"/>
                  </use>
                  <path fill="none" stroke="white" stroke-width="1.5" d="M0,-3.0v7 M-2.5,-0.5L0,-3.0L2.5,-0.5"/>
                </g>
                <g id="arrowRight" xlink:href="#dirArrow" transform="rotate(90) translate(36 -43)" onmousedown="handlePan(1,0)">
                  <use xlink:href="#rim" fill="#404040">
                        <set attributeName="fill" to="#808080" begin="arrowRight.mouseover" end="arrowRight.mouseout"/>
                  </use>
                  <path fill="none" stroke="white" stroke-width="1.5" d="M0,-3.0v7 M-2.5,-0.5L0,-3.0L2.5,-0.5"/>
                </g>
                <g id="arrowDown" xlink:href="#dirArrow" transform="rotate(180) translate(-30 -48)" onmousedown="handlePan(0,1)">
                  <use xlink:href="#rim" fill="#404040">
                        <set attributeName="fill" to="#808080" begin="arrowDown.mouseover" end="arrowDown.mouseout"/>
                  </use>
                  <path fill="none" stroke="white" stroke-width="1.5" d="M0,-3.0v7 M-2.5,-0.5L0,-3.0L2.5,-0.5"/>
                </g>
                <g id="arrowLeft" xlink:href="#dirArrow" transform="rotate(270) translate(-36 17)" onmousedown="handlePan(-1,0)">
                  <use xlink:href="#rim" fill="#404040">
                        <set attributeName="fill" to="#808080" begin="arrowLeft.mouseover" end="arrowLeft.mouseout"/>
                  </use>
                  <path fill="none" stroke="white" stroke-width="1.5" d="M0,-3.0v7 M-2.5,-0.5L0,-3.0L2.5,-0.5"/>
                </g>
        </g>
        <svg viewBox="0 0 15 15" width="100%" height="30px" preserveAspectRatio="xMaxYMin meet">
         <g id="arrow_out" transform="scale(0.3 0.3)">
          <a xlink:href="class_juniper_1_1_unity_1_1_ground_1_1_windows_m_r_ground__coll__graph_org.svg" target="_base">
           <rect id="button" ry="5" rx="5" y="6" x="6" height="38" width="38"
                fill="#f2f5e9" fill-opacity="0.5" stroke="#606060" stroke-width="1.0"/>
           <path id="arrow"
             d="M 11.500037,31.436501 C 11.940474,20.09759 22.043105,11.32322 32.158766,21.979434 L 37.068811,17.246167 C 37.068811,17.246167 37.088388,32 37.088388,32 L 22.160133,31.978069 C 22.160133,31.978069 26.997745,27.140456 26.997745,27.140456 C 18.528582,18.264221 13.291696,25.230495 11.500037,31.436501 z"
             style="fill:#404040;"/>
          </a>
         </g>
        </svg>
</svg>
