<?xml version="1.0" encoding="UTF-8" standalone="no"?>
<!DOCTYPE svg PUBLIC "-//W3C//DTD SVG 1.1//EN"
 "http://www.w3.org/Graphics/SVG/1.1/DTD/svg11.dtd">
<!-- Generated by graphviz version 2.38.0 (20140413.2041)
 -->
<!-- Title: Juniper.Unity.Input.Pointers.Motion.NoHandTracker Pages: 1 -->
<!--zoomable 1690 -->
<svg id="main" version="1.1" xmlns="http://www.w3.org/2000/svg" xmlns:xlink="http://www.w3.org/1999/xlink" xml:space="preserve" onload="init(evt)">
<style type="text/css"><![CDATA[
.edge:hover path { stroke: red; }
.edge:hover polygon { stroke: red; fill: red; }
]]></style>
<script type="text/javascript"><![CDATA[
var edges = document.getElementsByTagName('g');
if (edges && edges.length) {
  for (var i=0;i<edges.length;i++) {
    if (edges[i].id.substr(0,4)=='edge') {
      edges[i].setAttribute('class','edge');
    }
  }
}
]]></script>
        <defs>
                <circle id="rim" cx="0" cy="0" r="7"/>
                <circle id="rim2" cx="0" cy="0" r="3.5"/>
                <g id="zoomPlus">
                        <use xlink:href="#rim" fill="#404040">
                                <set attributeName="fill" to="#808080" begin="zoomplus.mouseover" end="zoomplus.mouseout"/>
                        </use>
                        <path d="M-4,0h8M0,-4v8" fill="none" stroke="white" stroke-width="1.5" pointer-events="none"/>
                </g>
                <g id="zoomMin">
                        <use xlink:href="#rim" fill="#404040">
                                <set attributeName="fill" to="#808080" begin="zoomminus.mouseover" end="zoomminus.mouseout"/>
                        </use>
                        <path d="M-4,0h8" fill="none" stroke="white" stroke-width="1.5" pointer-events="none"/>
                </g>
                <g id="dirArrow">
                        <path fill="none" stroke="white" stroke-width="1.5" d="M0,-3.0v7 M-2.5,-0.5L0,-3.0L2.5,-0.5"/>
                </g>
               <g id="resetDef">
                       <use xlink:href="#rim2" fill="#404040">
                               <set attributeName="fill" to="#808080" begin="reset.mouseover" end="reset.mouseout"/>
                       </use>
               </g>
        </defs>

<script type="text/javascript">
var viewWidth = 496;
var viewHeight = 1690;
var sectionId = 'dynsection-0';
</script>
<script xlink:href="../../svgpan.js"/>
<svg id="graph" class="graph">
<g id="viewport">
<title>Juniper.Unity.Input.Pointers.Motion.NoHandTracker</title>
<polygon fill="white" stroke="none" points="-4,4 -4,-1686 491.5,-1686 491.5,4 -4,4"/>
<!-- Node0 -->
<g id="node1" class="node"><title>Node0</title>
<g id="a_node1"><a xlink:title=" ">
<polygon fill="#bfbfbf" stroke="black" points="288,-0.5 288,-112.5 425,-112.5 425,-0.5 288,-0.5"/>
<text text-anchor="start" x="296" y="-100.5" font-family="SegoeUI" font-size="10.00">Juniper.Unity.Input.Pointers.</text>
<text text-anchor="middle" x="356.5" y="-89.5" font-family="SegoeUI" font-size="10.00">Motion.NoHandTracker</text>
<polyline fill="none" stroke="black" points="288,-82.5 425,-82.5 "/>
<text text-anchor="start" x="296" y="-70.5" font-family="SegoeUI" font-size="10.00">+ IsConnected</text>
<text text-anchor="start" x="296" y="-59.5" font-family="SegoeUI" font-size="10.00">+ IsDominantHand</text>
<polyline fill="none" stroke="black" points="288,-52.5 425,-52.5 "/>
<text text-anchor="start" x="296" y="-40.5" font-family="SegoeUI" font-size="10.00">+ IsButtonDown()</text>
<text text-anchor="start" x="296" y="-29.5" font-family="SegoeUI" font-size="10.00">+ IsButtonPressed()</text>
<text text-anchor="start" x="296" y="-18.5" font-family="SegoeUI" font-size="10.00">+ IsButtonUp()</text>
<text text-anchor="start" x="296" y="-7.5" font-family="SegoeUI" font-size="10.00"># InternalUpdate()</text>
</a>
</g>
</g>
<!-- Node1 -->
<g id="node2" class="node"><title>Node1</title>
<g id="a_node2"><a xlink:href="../../d0/d0a/class_juniper_1_1_unity_1_1_input_1_1_pointers_1_1_motion_1_1_abstract_hand_tracker.html" target="_top" xlink:title=" ">
<polygon fill="white" stroke="black" points="273.5,-150.5 273.5,-229.5 439.5,-229.5 439.5,-150.5 273.5,-150.5"/>
<text text-anchor="start" x="281.5" y="-217.5" font-family="SegoeUI" font-size="10.00">AbstractHandTracker</text>
<text text-anchor="start" x="281.5" y="-206.5" font-family="SegoeUI" font-size="10.00">&lt; Unary, KeyCode, NoHandTracker</text>
<text text-anchor="middle" x="356.5" y="-195.5" font-family="SegoeUI" font-size="10.00">Configuration &gt;</text>
<polyline fill="none" stroke="black" points="273.5,-188.5 439.5,-188.5 "/>
<text text-anchor="middle" x="356.5" y="-176.5" font-family="SegoeUI" font-size="10.00"> </text>
<polyline fill="none" stroke="black" points="273.5,-169.5 439.5,-169.5 "/>
<text text-anchor="middle" x="356.5" y="-157.5" font-family="SegoeUI" font-size="10.00"> </text>
</a>
</g>
</g>
<!-- Node1&#45;&gt;Node0 -->
<g id="edge1" class="edge"><title>Node1&#45;&gt;Node0</title>
<path fill="none" stroke="midnightblue" d="M356.5,-139.994C356.5,-131.041 356.5,-121.644 356.5,-112.53"/>
<polygon fill="none" stroke="midnightblue" points="353,-140.257 356.5,-150.257 360,-140.257 353,-140.257"/>
</g>
<!-- Node2 -->
<g id="node3" class="node"><title>Node2</title>
<g id="a_node3"><a xlink:href="../../d0/d0a/class_juniper_1_1_unity_1_1_input_1_1_pointers_1_1_motion_1_1_abstract_hand_tracker.html" target="_top" xlink:title=" ">
<polygon fill="white" stroke="black" points="284.5,-288.5 284.5,-378.5 428.5,-378.5 428.5,-288.5 284.5,-288.5"/>
<text text-anchor="start" x="292.5" y="-366.5" font-family="SegoeUI" font-size="10.00">Juniper.Unity.Input.Pointers.</text>
<text text-anchor="start" x="292.5" y="-355.5" font-family="SegoeUI" font-size="10.00">Motion.AbstractHandTracker</text>
<text text-anchor="start" x="292.5" y="-344.5" font-family="SegoeUI" font-size="10.00">&lt; HandIDType, ButtonIDType,</text>
<text text-anchor="middle" x="356.5" y="-333.5" font-family="SegoeUI" font-size="10.00"> ConfigType &gt;</text>
<polyline fill="none" stroke="black" points="284.5,-326.5 428.5,-326.5 "/>
<text text-anchor="middle" x="356.5" y="-314.5" font-family="SegoeUI" font-size="10.00"> </text>
<polyline fill="none" stroke="black" points="284.5,-307.5 428.5,-307.5 "/>
<text text-anchor="middle" x="356.5" y="-295.5" font-family="SegoeUI" font-size="10.00"> </text>
</a>
</g>
</g>
<!-- Node2&#45;&gt;Node1 -->
<g id="edge2" class="edge"><title>Node2&#45;&gt;Node1</title>
<path fill="none" stroke="orange" d="M356.5,-277.829C356.5,-261.864 356.5,-244.746 356.5,-229.965"/>
<polygon fill="orange" stroke="orange" points="353,-278.117 356.5,-288.117 360,-278.117 353,-278.117"/>
<text text-anchor="start" x="356.5" y="-262" font-family="SegoeUI" font-size="10.00"> &lt; Unary, KeyCode, NoHand</text>
<text text-anchor="middle" x="416.5" y="-251" font-family="SegoeUI" font-size="10.00">TrackerConfiguration &gt;</text>
</g>
<!-- Node3 -->
<g id="node4" class="node"><title>Node3</title>
<g id="a_node4"><a xlink:href="../../d7/d77/class_juniper_1_1_unity_1_1_input_1_1_pointers_1_1_motion_1_1_abstract_handed_pointer.html" target="_top" xlink:title=" ">
<polygon fill="white" stroke="black" points="284.5,-416.5 284.5,-572.5 428.5,-572.5 428.5,-416.5 284.5,-416.5"/>
<text text-anchor="start" x="292.5" y="-560.5" font-family="SegoeUI" font-size="10.00">AbstractHandedPointer</text>
<text text-anchor="start" x="292.5" y="-549.5" font-family="SegoeUI" font-size="10.00">&lt; HandIDType, ButtonIDType,</text>
<text text-anchor="middle" x="356.5" y="-538.5" font-family="SegoeUI" font-size="10.00"> ConfigType, NoHaptics &gt;</text>
<polyline fill="none" stroke="black" points="284.5,-531.5 428.5,-531.5 "/>
<text text-anchor="start" x="292.5" y="-519.5" font-family="SegoeUI" font-size="10.00">+ _hand</text>
<text text-anchor="start" x="292.5" y="-508.5" font-family="SegoeUI" font-size="10.00">+ Hand</text>
<text text-anchor="start" x="292.5" y="-497.5" font-family="SegoeUI" font-size="10.00">+ NativeHandID</text>
<text text-anchor="start" x="292.5" y="-486.5" font-family="SegoeUI" font-size="10.00">+ IsLeftHand</text>
<text text-anchor="start" x="292.5" y="-475.5" font-family="SegoeUI" font-size="10.00">+ IsRightHand</text>
<text text-anchor="start" x="292.5" y="-464.5" font-family="SegoeUI" font-size="10.00">+ IsDominantHand</text>
<text text-anchor="start" x="292.5" y="-453.5" font-family="SegoeUI" font-size="10.00">+ IsNonDominantHand</text>
<text text-anchor="start" x="292.5" y="-442.5" font-family="SegoeUI" font-size="10.00">+ WorldPoint</text>
<polyline fill="none" stroke="black" points="284.5,-435.5 428.5,-435.5 "/>
<text text-anchor="middle" x="356.5" y="-423.5" font-family="SegoeUI" font-size="10.00"> </text>
</a>
</g>
</g>
<!-- Node3&#45;&gt;Node2 -->
<g id="edge3" class="edge"><title>Node3&#45;&gt;Node2</title>
<path fill="none" stroke="midnightblue" d="M356.5,-406.3C356.5,-396.706 356.5,-387.263 356.5,-378.536"/>
<polygon fill="none" stroke="midnightblue" points="353,-406.329 356.5,-416.329 360,-406.329 353,-406.329"/>
</g>
<!-- Node4 -->
<g id="node5" class="node"><title>Node4</title>
<g id="a_node5"><a xlink:href="../../d7/d77/class_juniper_1_1_unity_1_1_input_1_1_pointers_1_1_motion_1_1_abstract_handed_pointer.html" target="_top" xlink:title=" ">
<polygon fill="white" stroke="black" points="283.5,-631.5 283.5,-798.5 429.5,-798.5 429.5,-631.5 283.5,-631.5"/>
<text text-anchor="start" x="291.5" y="-786.5" font-family="SegoeUI" font-size="10.00">Juniper.Unity.Input.Pointers.</text>
<text text-anchor="start" x="291.5" y="-775.5" font-family="SegoeUI" font-size="10.00">Motion.AbstractHandedPointer</text>
<text text-anchor="start" x="291.5" y="-764.5" font-family="SegoeUI" font-size="10.00">&lt; HandIDType, ButtonIDType,</text>
<text text-anchor="middle" x="356.5" y="-753.5" font-family="SegoeUI" font-size="10.00"> ConfigType, HapticsType &gt;</text>
<polyline fill="none" stroke="black" points="283.5,-746.5 429.5,-746.5 "/>
<text text-anchor="start" x="291.5" y="-734.5" font-family="SegoeUI" font-size="10.00">+ _hand</text>
<text text-anchor="start" x="291.5" y="-723.5" font-family="SegoeUI" font-size="10.00">+ Hand</text>
<text text-anchor="start" x="291.5" y="-712.5" font-family="SegoeUI" font-size="10.00">+ NativeHandID</text>
<text text-anchor="start" x="291.5" y="-701.5" font-family="SegoeUI" font-size="10.00">+ IsLeftHand</text>
<text text-anchor="start" x="291.5" y="-690.5" font-family="SegoeUI" font-size="10.00">+ IsRightHand</text>
<text text-anchor="start" x="291.5" y="-679.5" font-family="SegoeUI" font-size="10.00">+ IsDominantHand</text>
<text text-anchor="start" x="291.5" y="-668.5" font-family="SegoeUI" font-size="10.00">+ IsNonDominantHand</text>
<text text-anchor="start" x="291.5" y="-657.5" font-family="SegoeUI" font-size="10.00">+ WorldPoint</text>
<polyline fill="none" stroke="black" points="283.5,-650.5 429.5,-650.5 "/>
<text text-anchor="middle" x="356.5" y="-638.5" font-family="SegoeUI" font-size="10.00"> </text>
</a>
</g>
</g>
<!-- Node4&#45;&gt;Node3 -->
<g id="edge4" class="edge"><title>Node4&#45;&gt;Node3</title>
<path fill="none" stroke="orange" d="M356.5,-620.938C356.5,-604.898 356.5,-588.383 356.5,-572.816"/>
<polygon fill="orange" stroke="orange" points="353,-621.394 356.5,-631.395 360,-621.395 353,-621.394"/>
<text text-anchor="start" x="356.5" y="-605" font-family="SegoeUI" font-size="10.00"> &lt; HandIDType, ButtonIDType,</text>
<text text-anchor="middle" x="422" y="-594" font-family="SegoeUI" font-size="10.00"> ConfigType, NoHaptics &gt;</text>
</g>
<!-- Node5 -->
<g id="node6" class="node"><title>Node5</title>
<g id="a_node6"><a xlink:href="../../d7/d05/class_juniper_1_1_unity_1_1_input_1_1_pointers_1_1_abstract_pointer_device.html" target="_top" xlink:title=" ">
<polygon fill="white" stroke="black" points="194.5,-836.5 194.5,-1366.5 338.5,-1366.5 338.5,-836.5 194.5,-836.5"/>
<text text-anchor="start" x="202.5" y="-1354.5" font-family="SegoeUI" font-size="10.00">AbstractPointerDevice</text>
<text text-anchor="start" x="202.5" y="-1343.5" font-family="SegoeUI" font-size="10.00">&lt; ButtonIDType, HapticsType,</text>
<text text-anchor="middle" x="266.5" y="-1332.5" font-family="SegoeUI" font-size="10.00"> ConfigType &gt;</text>
<polyline fill="none" stroke="black" points="194.5,-1325.5 338.5,-1325.5 "/>
<text text-anchor="start" x="202.5" y="-1313.5" font-family="SegoeUI" font-size="10.00">+ Connected</text>
<text text-anchor="start" x="202.5" y="-1302.5" font-family="SegoeUI" font-size="10.00">+ LaserPointerMaterial</text>
<text text-anchor="start" x="202.5" y="-1291.5" font-family="SegoeUI" font-size="10.00">+ showProbe</text>
<text text-anchor="start" x="202.5" y="-1280.5" font-family="SegoeUI" font-size="10.00">+ motionFilter</text>
<text text-anchor="start" x="202.5" y="-1269.5" font-family="SegoeUI" font-size="10.00">+ ButtonType</text>
<text text-anchor="start" x="202.5" y="-1258.5" font-family="SegoeUI" font-size="10.00">+ MinimumPointerDistance</text>
<text text-anchor="start" x="202.5" y="-1247.5" font-family="SegoeUI" font-size="10.00">+ MaximumPointerDistance</text>
<text text-anchor="start" x="202.5" y="-1236.5" font-family="SegoeUI" font-size="10.00">+ LockedOnTarget</text>
<text text-anchor="start" x="202.5" y="-1225.5" font-family="SegoeUI" font-size="10.00">+ EventTarget</text>
<text text-anchor="start" x="202.5" y="-1214.5" font-family="SegoeUI" font-size="10.00">+ IsConnected</text>
<text text-anchor="start" x="202.5" y="-1203.5" font-family="SegoeUI" font-size="10.00">+ IsEnabled</text>
<text text-anchor="start" x="202.5" y="-1192.5" font-family="SegoeUI" font-size="10.00">+ IsDisabled</text>
<text text-anchor="start" x="202.5" y="-1181.5" font-family="SegoeUI" font-size="10.00">+ Raycaster</text>
<text text-anchor="start" x="202.5" y="-1170.5" font-family="SegoeUI" font-size="10.00">+ EventCamera</text>
<text text-anchor="start" x="202.5" y="-1159.5" font-family="SegoeUI" font-size="10.00">and 24 more...</text>
<text text-anchor="start" x="202.5" y="-1148.5" font-family="SegoeUI" font-size="10.00"># nativeButtons</text>
<text text-anchor="start" x="202.5" y="-1137.5" font-family="SegoeUI" font-size="10.00"># pointerOffset</text>
<text text-anchor="start" x="202.5" y="-1126.5" font-family="SegoeUI" font-size="10.00"># probe</text>
<text text-anchor="start" x="202.5" y="-1115.5" font-family="SegoeUI" font-size="10.00"># eventManager</text>
<text text-anchor="start" x="202.5" y="-1104.5" font-family="SegoeUI" font-size="10.00"># stage</text>
<text text-anchor="start" x="202.5" y="-1093.5" font-family="SegoeUI" font-size="10.00"># VIEWPORT_MIDPOINT</text>
<text text-anchor="start" x="202.5" y="-1082.5" font-family="SegoeUI" font-size="10.00"># PointerConfig</text>
<text text-anchor="start" x="202.5" y="-1071.5" font-family="SegoeUI" font-size="10.00">&#45; _probeName</text>
<text text-anchor="start" x="202.5" y="-1060.5" font-family="SegoeUI" font-size="10.00">&#45; lastMotionFilter</text>
<text text-anchor="start" x="202.5" y="-1049.5" font-family="SegoeUI" font-size="10.00">&#45; finishTime</text>
<text text-anchor="start" x="202.5" y="-1038.5" font-family="SegoeUI" font-size="10.00">&#45; lastAction</text>
<polyline fill="none" stroke="black" points="194.5,-1031.5 338.5,-1031.5 "/>
<text text-anchor="start" x="202.5" y="-1019.5" font-family="SegoeUI" font-size="10.00">+ Awake()</text>
<text text-anchor="start" x="202.5" y="-1008.5" font-family="SegoeUI" font-size="10.00">+ Start()</text>
<text text-anchor="start" x="202.5" y="-997.5" font-family="SegoeUI" font-size="10.00">+ Install()</text>
<text text-anchor="start" x="202.5" y="-986.5" font-family="SegoeUI" font-size="10.00">+ Uninstall()</text>
<text text-anchor="start" x="202.5" y="-975.5" font-family="SegoeUI" font-size="10.00">+ Reinstall()</text>
<text text-anchor="start" x="202.5" y="-964.5" font-family="SegoeUI" font-size="10.00">+ SetProbe()</text>
<text text-anchor="start" x="202.5" y="-953.5" font-family="SegoeUI" font-size="10.00">+ ScreenFromWorld()</text>
<text text-anchor="start" x="202.5" y="-942.5" font-family="SegoeUI" font-size="10.00">+ ScreenFromViewport()</text>
<text text-anchor="start" x="202.5" y="-931.5" font-family="SegoeUI" font-size="10.00">+ ViewportFromWorld()</text>
<text text-anchor="start" x="202.5" y="-920.5" font-family="SegoeUI" font-size="10.00">+ ViewportFromScreen()</text>
<text text-anchor="start" x="202.5" y="-909.5" font-family="SegoeUI" font-size="10.00">and 11 more...</text>
<text text-anchor="start" x="202.5" y="-898.5" font-family="SegoeUI" font-size="10.00"># DraggableChanged()</text>
<text text-anchor="start" x="202.5" y="-887.5" font-family="SegoeUI" font-size="10.00"># ProcessButtons()</text>
<text text-anchor="start" x="202.5" y="-876.5" font-family="SegoeUI" font-size="10.00"># InternalUpdate()</text>
<text text-anchor="start" x="202.5" y="-865.5" font-family="SegoeUI" font-size="10.00">&#45; FindProbe()</text>
<text text-anchor="start" x="202.5" y="-854.5" font-family="SegoeUI" font-size="10.00">&#45; Clone()</text>
<text text-anchor="start" x="202.5" y="-843.5" font-family="SegoeUI" font-size="10.00">&#45; TestEnterExit()</text>
</a>
</g>
</g>
<!-- Node5&#45;&gt;Node4 -->
<g id="edge5" class="edge"><title>Node5&#45;&gt;Node4</title>
<path fill="none" stroke="midnightblue" d="M330.627,-826.536C332.896,-816.84 335.086,-807.485 337.166,-798.6"/>
<polygon fill="none" stroke="midnightblue" points="327.203,-825.805 328.332,-836.34 334.019,-827.401 327.203,-825.805"/>
</g>
<!-- Node6 -->
<g id="node7" class="node"><title>Node6</title>
<g id="a_node7"><a xlink:title=" ">
<polygon fill="white" stroke="#bfbfbf" points="87.5,-1514.5 87.5,-1571.5 169.5,-1571.5 169.5,-1514.5 87.5,-1514.5"/>
<text text-anchor="middle" x="128.5" y="-1559.5" font-family="SegoeUI" font-size="10.00">MonoBehaviour</text>
<polyline fill="none" stroke="#bfbfbf" points="87.5,-1552.5 169.5,-1552.5 "/>
<text text-anchor="middle" x="128.5" y="-1540.5" font-family="SegoeUI" font-size="10.00"> </text>
<polyline fill="none" stroke="#bfbfbf" points="87.5,-1533.5 169.5,-1533.5 "/>
<text text-anchor="middle" x="128.5" y="-1521.5" font-family="SegoeUI" font-size="10.00"> </text>
</a>
</g>
</g>
<!-- Node6&#45;&gt;Node5 -->
<g id="edge6" class="edge"><title>Node6&#45;&gt;Node5</title>
<path fill="none" stroke="midnightblue" d="M140.292,-1504.44C152.728,-1464.84 173.403,-1398.99 194.457,-1331.94"/>
<polygon fill="none" stroke="midnightblue" points="136.894,-1503.58 137.237,-1514.17 143.572,-1505.68 136.894,-1503.58"/>
</g>
<!-- Node7 -->
<g id="node8" class="node"><title>Node7</title>
<g id="a_node8"><a xlink:href="../../db/d28/interface_juniper_1_1_i_installable.html" target="_top" xlink:title=" ">
<polygon fill="white" stroke="black" points="0,-1503.5 0,-1582.5 69,-1582.5 69,-1503.5 0,-1503.5"/>
<text text-anchor="middle" x="34.5" y="-1570.5" font-family="SegoeUI" font-size="10.00">IInstallable</text>
<polyline fill="none" stroke="black" points="0,-1563.5 69,-1563.5 "/>
<text text-anchor="middle" x="34.5" y="-1551.5" font-family="SegoeUI" font-size="10.00"> </text>
<polyline fill="none" stroke="black" points="0,-1544.5 69,-1544.5 "/>
<text text-anchor="start" x="8" y="-1532.5" font-family="SegoeUI" font-size="10.00">+ Install()</text>
<text text-anchor="start" x="8" y="-1521.5" font-family="SegoeUI" font-size="10.00">+ Reinstall()</text>
<text text-anchor="start" x="8" y="-1510.5" font-family="SegoeUI" font-size="10.00">+ Uninstall()</text>
</a>
</g>
</g>
<!-- Node7&#45;&gt;Node5 -->
<g id="edge7" class="edge"><title>Node7&#45;&gt;Node5</title>
<path fill="none" stroke="midnightblue" d="M46.8242,-1493.29C54.4269,-1466.35 65.2581,-1432.64 78.5,-1404 110.796,-1334.15 156.26,-1260.78 194.389,-1203.91"/>
<polygon fill="none" stroke="midnightblue" points="43.36,-1492.69 44.0702,-1503.26 50.1071,-1494.55 43.36,-1492.69"/>
</g>
<!-- Node8 -->
<g id="node9" class="node"><title>Node8</title>
<g id="a_node9"><a xlink:href="../../d4/d43/interface_juniper_1_1_unity_1_1_input_1_1_pointers_1_1_i_pointer_device.html" target="_top" xlink:title=" ">
<polygon fill="white" stroke="black" points="363.5,-1404.5 363.5,-1681.5 487.5,-1681.5 487.5,-1404.5 363.5,-1404.5"/>
<text text-anchor="middle" x="425.5" y="-1669.5" font-family="SegoeUI" font-size="10.00">IPointerDevice</text>
<polyline fill="none" stroke="black" points="363.5,-1662.5 487.5,-1662.5 "/>
<text text-anchor="start" x="371.5" y="-1650.5" font-family="SegoeUI" font-size="10.00">+ EventTarget</text>
<text text-anchor="start" x="371.5" y="-1639.5" font-family="SegoeUI" font-size="10.00">+ InputModule</text>
<text text-anchor="start" x="371.5" y="-1628.5" font-family="SegoeUI" font-size="10.00">+ PointerID</text>
<text text-anchor="start" x="371.5" y="-1617.5" font-family="SegoeUI" font-size="10.00">+ name</text>
<text text-anchor="start" x="371.5" y="-1606.5" font-family="SegoeUI" font-size="10.00">+ ProbeName</text>
<text text-anchor="start" x="371.5" y="-1595.5" font-family="SegoeUI" font-size="10.00">+ ButtonType</text>
<text text-anchor="start" x="371.5" y="-1584.5" font-family="SegoeUI" font-size="10.00">+ isActiveAndEnabled</text>
<text text-anchor="start" x="371.5" y="-1573.5" font-family="SegoeUI" font-size="10.00">+ IsConnected</text>
<text text-anchor="start" x="371.5" y="-1562.5" font-family="SegoeUI" font-size="10.00">+ IsDisabled</text>
<text text-anchor="start" x="371.5" y="-1551.5" font-family="SegoeUI" font-size="10.00">+ IsEnabled</text>
<text text-anchor="start" x="371.5" y="-1540.5" font-family="SegoeUI" font-size="10.00">and 23 more...</text>
<polyline fill="none" stroke="black" points="363.5,-1533.5 487.5,-1533.5 "/>
<text text-anchor="start" x="371.5" y="-1521.5" font-family="SegoeUI" font-size="10.00">+ ViewportFromWorld()</text>
<text text-anchor="start" x="371.5" y="-1510.5" font-family="SegoeUI" font-size="10.00">+ ViewportFromScreen()</text>
<text text-anchor="start" x="371.5" y="-1499.5" font-family="SegoeUI" font-size="10.00">+ ScreenFromWorld()</text>
<text text-anchor="start" x="371.5" y="-1488.5" font-family="SegoeUI" font-size="10.00">+ ScreenFromViewport()</text>
<text text-anchor="start" x="371.5" y="-1477.5" font-family="SegoeUI" font-size="10.00">+ WorldFromScreen()</text>
<text text-anchor="start" x="371.5" y="-1466.5" font-family="SegoeUI" font-size="10.00">+ WorldFromViewport()</text>
<text text-anchor="start" x="371.5" y="-1455.5" font-family="SegoeUI" font-size="10.00">+ IsButtonDown()</text>
<text text-anchor="start" x="371.5" y="-1444.5" font-family="SegoeUI" font-size="10.00">+ IsButtonPressed()</text>
<text text-anchor="start" x="371.5" y="-1433.5" font-family="SegoeUI" font-size="10.00">+ IsButtonUp()</text>
<text text-anchor="start" x="371.5" y="-1422.5" font-family="SegoeUI" font-size="10.00">+ Process()</text>
<text text-anchor="start" x="371.5" y="-1411.5" font-family="SegoeUI" font-size="10.00">+ SetProbe()</text>
</a>
</g>
</g>
<!-- Node8&#45;&gt;Node5 -->
<g id="edge8" class="edge"><title>Node8&#45;&gt;Node5</title>
<path fill="none" stroke="midnightblue" d="M361.291,-1395.02C357.544,-1385.57 353.915,-1376.18 350.5,-1367 346.51,-1356.28 342.537,-1345.26 338.613,-1334.11"/>
<polygon fill="none" stroke="midnightblue" points="358.109,-1396.49 365.075,-1404.47 364.608,-1393.88 358.109,-1396.49"/>
</g>
<!-- Node10 -->
<g id="node11" class="node"><title>Node10</title>
<g id="a_node11"><a xlink:href="../../dc/d7c/interface_juniper_1_1_unity_1_1_input_1_1_pointers_1_1_motion_1_1_i_handed_pointer.html" target="_top" xlink:title=" ">
<polygon fill="white" stroke="black" points="359.5,-1051 359.5,-1152 471.5,-1152 471.5,-1051 359.5,-1051"/>
<text text-anchor="middle" x="415.5" y="-1140" font-family="SegoeUI" font-size="10.00">IHandedPointer</text>
<polyline fill="none" stroke="black" points="359.5,-1133 471.5,-1133 "/>
<text text-anchor="start" x="367.5" y="-1121" font-family="SegoeUI" font-size="10.00">+ Hand</text>
<text text-anchor="start" x="367.5" y="-1110" font-family="SegoeUI" font-size="10.00">+ IsDominantHand</text>
<text text-anchor="start" x="367.5" y="-1099" font-family="SegoeUI" font-size="10.00">+ IsLeftHand</text>
<text text-anchor="start" x="367.5" y="-1088" font-family="SegoeUI" font-size="10.00">+ IsNonDominantHand</text>
<text text-anchor="start" x="367.5" y="-1077" font-family="SegoeUI" font-size="10.00">+ IsRightHand</text>
<polyline fill="none" stroke="black" points="359.5,-1070 471.5,-1070 "/>
<text text-anchor="middle" x="415.5" y="-1058" font-family="SegoeUI" font-size="10.00"> </text>
</a>
</g>
</g>
<!-- Node8&#45;&gt;Node10 -->
<g id="edge11" class="edge"><title>Node8&#45;&gt;Node10</title>
<path fill="none" stroke="midnightblue" d="M422.139,-1394.28C420.227,-1310.27 417.957,-1210.47 416.627,-1152.04"/>
<polygon fill="none" stroke="midnightblue" points="418.644,-1394.53 422.37,-1404.45 425.642,-1394.37 418.644,-1394.53"/>
</g>
<!-- Node9 -->
<g id="node10" class="node"><title>Node9</title>
<g id="a_node10"><a xlink:href="../../dc/dc8/interface_juniper_1_1_input_1_1_pointers_1_1_i_pointer_buttons.html" target="_top" xlink:title=" ">
<polygon fill="white" stroke="black" points="187.5,-1492.5 187.5,-1593.5 345.5,-1593.5 345.5,-1492.5 187.5,-1492.5"/>
<text text-anchor="middle" x="266.5" y="-1581.5" font-family="SegoeUI" font-size="10.00">IPointerButtons&lt; ButtonIDType &gt;</text>
<polyline fill="none" stroke="black" points="187.5,-1574.5 345.5,-1574.5 "/>
<text text-anchor="start" x="195.5" y="-1562.5" font-family="SegoeUI" font-size="10.00">+ name</text>
<text text-anchor="start" x="195.5" y="-1551.5" font-family="SegoeUI" font-size="10.00">+ IsConnected</text>
<text text-anchor="start" x="195.5" y="-1540.5" font-family="SegoeUI" font-size="10.00">+ AnyButtonPressed</text>
<polyline fill="none" stroke="black" points="187.5,-1533.5 345.5,-1533.5 "/>
<text text-anchor="start" x="195.5" y="-1521.5" font-family="SegoeUI" font-size="10.00">+ IsButtonDown()</text>
<text text-anchor="start" x="195.5" y="-1510.5" font-family="SegoeUI" font-size="10.00">+ IsButtonPressed()</text>
<text text-anchor="start" x="195.5" y="-1499.5" font-family="SegoeUI" font-size="10.00">+ IsButtonUp()</text>
</a>
</g>
</g>
<!-- Node9&#45;&gt;Node5 -->
<g id="edge9" class="edge"><title>Node9&#45;&gt;Node5</title>
<path fill="none" stroke="midnightblue" d="M266.5,-1482.17C266.5,-1450.79 266.5,-1409.92 266.5,-1366.65"/>
<polygon fill="none" stroke="midnightblue" points="263,-1482.44 266.5,-1492.44 270,-1482.44 263,-1482.44"/>
</g>
<!-- Node10&#45;&gt;Node4 -->
<g id="edge10" class="edge"><title>Node10&#45;&gt;Node4</title>
<path fill="none" stroke="midnightblue" d="M406.301,-1040.55C396.334,-975.599 380.366,-871.531 369.205,-798.8"/>
<polygon fill="none" stroke="midnightblue" points="402.871,-1041.27 407.847,-1050.63 409.79,-1040.21 402.871,-1041.27"/>
</g>
</g>
</svg>
        <g id="navigator" transform="translate(0 0)" fill="#404254">
                <rect fill="#f2f5e9" fill-opacity="0.5" stroke="#606060" stroke-width=".5" x="0" y="0" width="60" height="60"/>
                <use id="zoomplus" xlink:href="#zoomPlus" x="17" y="9" onmousedown="handleZoom(evt,'in')"/>
                <use id="zoomminus" xlink:href="#zoomMin" x="42" y="9" onmousedown="handleZoom(evt,'out')"/>
                <use id="reset" xlink:href="#resetDef" x="30" y="36" onmousedown="handleReset()"/>
                <g id="arrowUp" xlink:href="#dirArrow" transform="translate(30 24)" onmousedown="handlePan(0,-1)">
                  <use xlink:href="#rim" fill="#404040">
                        <set attributeName="fill" to="#808080" begin="arrowUp.mouseover" end="arrowUp.mouseout"/>
                  </use>
                  <path fill="none" stroke="white" stroke-width="1.5" d="M0,-3.0v7 M-2.5,-0.5L0,-3.0L2.5,-0.5"/>
                </g>
                <g id="arrowRight" xlink:href="#dirArrow" transform="rotate(90) translate(36 -43)" onmousedown="handlePan(1,0)">
                  <use xlink:href="#rim" fill="#404040">
                        <set attributeName="fill" to="#808080" begin="arrowRight.mouseover" end="arrowRight.mouseout"/>
                  </use>
                  <path fill="none" stroke="white" stroke-width="1.5" d="M0,-3.0v7 M-2.5,-0.5L0,-3.0L2.5,-0.5"/>
                </g>
                <g id="arrowDown" xlink:href="#dirArrow" transform="rotate(180) translate(-30 -48)" onmousedown="handlePan(0,1)">
                  <use xlink:href="#rim" fill="#404040">
                        <set attributeName="fill" to="#808080" begin="arrowDown.mouseover" end="arrowDown.mouseout"/>
                  </use>
                  <path fill="none" stroke="white" stroke-width="1.5" d="M0,-3.0v7 M-2.5,-0.5L0,-3.0L2.5,-0.5"/>
                </g>
                <g id="arrowLeft" xlink:href="#dirArrow" transform="rotate(270) translate(-36 17)" onmousedown="handlePan(-1,0)">
                  <use xlink:href="#rim" fill="#404040">
                        <set attributeName="fill" to="#808080" begin="arrowLeft.mouseover" end="arrowLeft.mouseout"/>
                  </use>
                  <path fill="none" stroke="white" stroke-width="1.5" d="M0,-3.0v7 M-2.5,-0.5L0,-3.0L2.5,-0.5"/>
                </g>
        </g>
        <svg viewBox="0 0 15 15" width="100%" height="30px" preserveAspectRatio="xMaxYMin meet">
         <g id="arrow_out" transform="scale(0.3 0.3)">
          <a xlink:href="class_juniper_1_1_unity_1_1_input_1_1_pointers_1_1_motion_1_1_no_hand_tracker__inherit__graph_org.svg" target="_base">
           <rect id="button" ry="5" rx="5" y="6" x="6" height="38" width="38"
                fill="#f2f5e9" fill-opacity="0.5" stroke="#606060" stroke-width="1.0"/>
           <path id="arrow"
             d="M 11.500037,31.436501 C 11.940474,20.09759 22.043105,11.32322 32.158766,21.979434 L 37.068811,17.246167 C 37.068811,17.246167 37.088388,32 37.088388,32 L 22.160133,31.978069 C 22.160133,31.978069 26.997745,27.140456 26.997745,27.140456 C 18.528582,18.264221 13.291696,25.230495 11.500037,31.436501 z"
             style="fill:#404040;"/>
          </a>
         </g>
        </svg>
</svg>
