<?xml version="1.0" encoding="UTF-8" standalone="no"?>
<!DOCTYPE svg PUBLIC "-//W3C//DTD SVG 1.1//EN"
 "http://www.w3.org/Graphics/SVG/1.1/DTD/svg11.dtd">
<!-- Generated by graphviz version 2.38.0 (20140413.2041)
 -->
<!-- Title: Juniper.Unity.Display.ARCoreDisplayManager Pages: 1 -->
<!--zoomable 906 -->
<svg id="main" version="1.1" xmlns="http://www.w3.org/2000/svg" xmlns:xlink="http://www.w3.org/1999/xlink" xml:space="preserve" onload="init(evt)">
<style type="text/css"><![CDATA[
.edge:hover path { stroke: red; }
.edge:hover polygon { stroke: red; fill: red; }
]]></style>
<script type="text/javascript"><![CDATA[
var edges = document.getElementsByTagName('g');
if (edges && edges.length) {
  for (var i=0;i<edges.length;i++) {
    if (edges[i].id.substr(0,4)=='edge') {
      edges[i].setAttribute('class','edge');
    }
  }
}
]]></script>
        <defs>
                <circle id="rim" cx="0" cy="0" r="7"/>
                <circle id="rim2" cx="0" cy="0" r="3.5"/>
                <g id="zoomPlus">
                        <use xlink:href="#rim" fill="#404040">
                                <set attributeName="fill" to="#808080" begin="zoomplus.mouseover" end="zoomplus.mouseout"/>
                        </use>
                        <path d="M-4,0h8M0,-4v8" fill="none" stroke="white" stroke-width="1.5" pointer-events="none"/>
                </g>
                <g id="zoomMin">
                        <use xlink:href="#rim" fill="#404040">
                                <set attributeName="fill" to="#808080" begin="zoomminus.mouseover" end="zoomminus.mouseout"/>
                        </use>
                        <path d="M-4,0h8" fill="none" stroke="white" stroke-width="1.5" pointer-events="none"/>
                </g>
                <g id="dirArrow">
                        <path fill="none" stroke="white" stroke-width="1.5" d="M0,-3.0v7 M-2.5,-0.5L0,-3.0L2.5,-0.5"/>
                </g>
               <g id="resetDef">
                       <use xlink:href="#rim2" fill="#404040">
                               <set attributeName="fill" to="#808080" begin="reset.mouseover" end="reset.mouseout"/>
                       </use>
               </g>
        </defs>

<script type="text/javascript">
var viewWidth = 334;
var viewHeight = 906;
var sectionId = 'dynsection-1';
</script>
<script xlink:href="../../svgpan.js"/>
<svg id="graph" class="graph">
<g id="viewport">
<title>Juniper.Unity.Display.ARCoreDisplayManager</title>
<polygon fill="white" stroke="none" points="-4,4 -4,-902 330,-902 330,4 -4,4"/>
<!-- Node6 -->
<g id="node1" class="node"><title>Node6</title>
<g id="a_node1"><a xlink:title=" ">
<polygon fill="#bfbfbf" stroke="black" points="50,-0.5 50,-90.5 190,-90.5 190,-0.5 50,-0.5"/>
<text text-anchor="start" x="58" y="-78.5" font-family="SegoeUI" font-size="10.00">Juniper.Unity.Display.ARCore</text>
<text text-anchor="middle" x="120" y="-67.5" font-family="SegoeUI" font-size="10.00">DisplayManager</text>
<polyline fill="none" stroke="black" points="50,-60.5 190,-60.5 "/>
<text text-anchor="start" x="58" y="-48.5" font-family="SegoeUI" font-size="10.00">&#45; isQuitting</text>
<polyline fill="none" stroke="black" points="50,-41.5 190,-41.5 "/>
<text text-anchor="start" x="58" y="-29.5" font-family="SegoeUI" font-size="10.00">+ Install()</text>
<text text-anchor="start" x="58" y="-18.5" font-family="SegoeUI" font-size="10.00">+ Uninstall()</text>
<text text-anchor="start" x="58" y="-7.5" font-family="SegoeUI" font-size="10.00">+ Update()</text>
</a>
</g>
</g>
<!-- Node7 -->
<g id="node2" class="node"><title>Node7</title>
<g id="a_node2"><a xlink:href="../../de/dad/class_juniper_1_1_unity_1_1_display_1_1_abstract_passthrough_display_manager.html" target="_top" xlink:title=" ">
<polygon fill="white" stroke="black" points="53,-128.5 53,-207.5 187,-207.5 187,-128.5 53,-128.5"/>
<text text-anchor="start" x="61" y="-195.5" font-family="SegoeUI" font-size="10.00">AbstractPassthroughDisplay</text>
<text text-anchor="middle" x="120" y="-184.5" font-family="SegoeUI" font-size="10.00">Manager</text>
<polyline fill="none" stroke="black" points="53,-177.5 187,-177.5 "/>
<text text-anchor="start" x="61" y="-165.5" font-family="SegoeUI" font-size="10.00">+ ARBackgroundMaterial</text>
<text text-anchor="start" x="61" y="-154.5" font-family="SegoeUI" font-size="10.00">+ enablePointCloud</text>
<polyline fill="none" stroke="black" points="53,-147.5 187,-147.5 "/>
<text text-anchor="middle" x="120" y="-135.5" font-family="SegoeUI" font-size="10.00"> </text>
</a>
</g>
</g>
<!-- Node7&#45;&gt;Node6 -->
<g id="edge1" class="edge"><title>Node7&#45;&gt;Node6</title>
<path fill="none" stroke="midnightblue" d="M120,-118.144C120,-109.053 120,-99.6021 120,-90.6615"/>
<polygon fill="none" stroke="midnightblue" points="116.5,-118.21 120,-128.21 123.5,-118.21 116.5,-118.21"/>
</g>
<!-- Node8 -->
<g id="node3" class="node"><title>Node8</title>
<g id="a_node3"><a xlink:href="../../da/da5/class_juniper_1_1_unity_1_1_display_1_1_abstract_display_manager.html" target="_top" xlink:title=" ">
<polygon fill="white" stroke="black" points="60.5,-245.5 60.5,-511.5 179.5,-511.5 179.5,-245.5 60.5,-245.5"/>
<text text-anchor="middle" x="120" y="-499.5" font-family="SegoeUI" font-size="10.00">AbstractDisplayManager</text>
<polyline fill="none" stroke="black" points="60.5,-492.5 179.5,-492.5 "/>
<text text-anchor="start" x="68.5" y="-480.5" font-family="SegoeUI" font-size="10.00">+ MainCamera</text>
<text text-anchor="start" x="68.5" y="-469.5" font-family="SegoeUI" font-size="10.00">+ DEFAULT_FOV</text>
<text text-anchor="start" x="68.5" y="-458.5" font-family="SegoeUI" font-size="10.00">+ VerticalFieldOfView</text>
<text text-anchor="start" x="68.5" y="-447.5" font-family="SegoeUI" font-size="10.00">&#45; lastSystem</text>
<text text-anchor="start" x="68.5" y="-436.5" font-family="SegoeUI" font-size="10.00">&#45; lastDisplayType</text>
<text text-anchor="start" x="68.5" y="-425.5" font-family="SegoeUI" font-size="10.00">&#45; lastARMode</text>
<text text-anchor="start" x="68.5" y="-414.5" font-family="SegoeUI" font-size="10.00">&#45; lastOption</text>
<polyline fill="none" stroke="black" points="60.5,-407.5 179.5,-407.5 "/>
<text text-anchor="start" x="68.5" y="-395.5" font-family="SegoeUI" font-size="10.00">+ StartXRDisplay()</text>
<text text-anchor="start" x="68.5" y="-384.5" font-family="SegoeUI" font-size="10.00">+ StopXRDisplay()</text>
<text text-anchor="start" x="68.5" y="-373.5" font-family="SegoeUI" font-size="10.00">+ DisableDisplay()</text>
<text text-anchor="start" x="68.5" y="-362.5" font-family="SegoeUI" font-size="10.00">+ StartAR()</text>
<text text-anchor="start" x="68.5" y="-351.5" font-family="SegoeUI" font-size="10.00">+ StopAR()</text>
<text text-anchor="start" x="68.5" y="-340.5" font-family="SegoeUI" font-size="10.00">+ ToggleAR()</text>
<text text-anchor="start" x="68.5" y="-329.5" font-family="SegoeUI" font-size="10.00">+ Awake()</text>
<text text-anchor="start" x="68.5" y="-318.5" font-family="SegoeUI" font-size="10.00">+ Reinstall()</text>
<text text-anchor="start" x="68.5" y="-307.5" font-family="SegoeUI" font-size="10.00">+ Reset()</text>
<text text-anchor="start" x="68.5" y="-296.5" font-family="SegoeUI" font-size="10.00">+ Install()</text>
<text text-anchor="start" x="68.5" y="-285.5" font-family="SegoeUI" font-size="10.00">+ Uninstall()</text>
<text text-anchor="start" x="68.5" y="-274.5" font-family="SegoeUI" font-size="10.00">+ Update()</text>
<text text-anchor="start" x="68.5" y="-263.5" font-family="SegoeUI" font-size="10.00">&#45; ChangeDisplayType()</text>
<text text-anchor="start" x="68.5" y="-252.5" font-family="SegoeUI" font-size="10.00">&#45; ChangeARMode()</text>
</a>
</g>
</g>
<!-- Node8&#45;&gt;Node7 -->
<g id="edge2" class="edge"><title>Node8&#45;&gt;Node7</title>
<path fill="none" stroke="midnightblue" d="M120,-235.414C120,-225.533 120,-216.177 120,-207.774"/>
<polygon fill="none" stroke="midnightblue" points="116.5,-235.454 120,-245.454 123.5,-235.454 116.5,-235.454"/>
</g>
<!-- Node9 -->
<g id="node4" class="node"><title>Node9</title>
<g id="a_node4"><a xlink:title=" ">
<polygon fill="white" stroke="#bfbfbf" points="0,-829.5 0,-886.5 82,-886.5 82,-829.5 0,-829.5"/>
<text text-anchor="middle" x="41" y="-874.5" font-family="SegoeUI" font-size="10.00">MonoBehaviour</text>
<polyline fill="none" stroke="#bfbfbf" points="0,-867.5 82,-867.5 "/>
<text text-anchor="middle" x="41" y="-855.5" font-family="SegoeUI" font-size="10.00"> </text>
<polyline fill="none" stroke="#bfbfbf" points="0,-848.5 82,-848.5 "/>
<text text-anchor="middle" x="41" y="-836.5" font-family="SegoeUI" font-size="10.00"> </text>
</a>
</g>
</g>
<!-- Node9&#45;&gt;Node8 -->
<g id="edge3" class="edge"><title>Node9&#45;&gt;Node8</title>
<path fill="none" stroke="midnightblue" d="M47.2237,-819.382C58.0688,-753.831 80.9169,-615.73 98.1372,-511.645"/>
<polygon fill="none" stroke="midnightblue" points="43.7681,-818.826 45.5888,-829.264 50.6742,-819.969 43.7681,-818.826"/>
</g>
<!-- Node11 -->
<g id="node6" class="node"><title>Node11</title>
<g id="a_node6"><a xlink:href="../../d5/d97/class_juniper_1_1_unity_1_1_juniper_platform.html" target="_top" xlink:title=" ">
<polygon fill="white" stroke="black" points="115,-559.5 115,-770.5 257,-770.5 257,-559.5 115,-559.5"/>
<text text-anchor="middle" x="186" y="-758.5" font-family="SegoeUI" font-size="10.00">Juniper.Unity.JuniperPlatform</text>
<polyline fill="none" stroke="black" points="115,-751.5 257,-751.5 "/>
<text text-anchor="start" x="123" y="-739.5" font-family="SegoeUI" font-size="10.00">+ CurrentPlatform</text>
<text text-anchor="start" x="123" y="-728.5" font-family="SegoeUI" font-size="10.00">+ System</text>
<text text-anchor="start" x="123" y="-717.5" font-family="SegoeUI" font-size="10.00">+ DisplayType</text>
<text text-anchor="start" x="123" y="-706.5" font-family="SegoeUI" font-size="10.00">+ SupportedDisplayType</text>
<text text-anchor="start" x="123" y="-695.5" font-family="SegoeUI" font-size="10.00">+ ARMode</text>
<text text-anchor="start" x="123" y="-684.5" font-family="SegoeUI" font-size="10.00">+ SupportedARMode</text>
<text text-anchor="start" x="123" y="-673.5" font-family="SegoeUI" font-size="10.00">+ Option</text>
<text text-anchor="start" x="123" y="-662.5" font-family="SegoeUI" font-size="10.00">+ VRPlatformHasPassthrough</text>
<text text-anchor="start" x="123" y="-651.5" font-family="SegoeUI" font-size="10.00">+ IsARCapablePlatform</text>
<polyline fill="none" stroke="black" points="115,-644.5 257,-644.5 "/>
<text text-anchor="start" x="123" y="-632.5" font-family="SegoeUI" font-size="10.00">+ Awake()</text>
<text text-anchor="start" x="123" y="-621.5" font-family="SegoeUI" font-size="10.00">+ Reinstall()</text>
<text text-anchor="start" x="123" y="-610.5" font-family="SegoeUI" font-size="10.00">+ Reset()</text>
<text text-anchor="start" x="123" y="-599.5" font-family="SegoeUI" font-size="10.00">+ OnValidate()</text>
<text text-anchor="start" x="123" y="-588.5" font-family="SegoeUI" font-size="10.00">+ Install()</text>
<text text-anchor="start" x="123" y="-577.5" font-family="SegoeUI" font-size="10.00">+ Uninstall()</text>
<text text-anchor="start" x="123" y="-566.5" font-family="SegoeUI" font-size="10.00">+ Ensure()</text>
</a>
</g>
</g>
<!-- Node9&#45;&gt;Node11 -->
<g id="edge6" class="edge"><title>Node9&#45;&gt;Node11</title>
<path fill="none" stroke="midnightblue" d="M68.3159,-821.018C81.5907,-803.532 98.2264,-781.619 114.774,-759.822"/>
<polygon fill="none" stroke="midnightblue" points="65.3432,-819.146 62.0842,-829.227 70.9186,-823.378 65.3432,-819.146"/>
</g>
<!-- Node10 -->
<g id="node5" class="node"><title>Node10</title>
<g id="a_node5"><a xlink:href="../../db/d28/interface_juniper_1_1_i_installable.html" target="_top" xlink:title=" ">
<polygon fill="white" stroke="black" points="102.5,-818.5 102.5,-897.5 171.5,-897.5 171.5,-818.5 102.5,-818.5"/>
<text text-anchor="middle" x="137" y="-885.5" font-family="SegoeUI" font-size="10.00">IInstallable</text>
<polyline fill="none" stroke="black" points="102.5,-878.5 171.5,-878.5 "/>
<text text-anchor="middle" x="137" y="-866.5" font-family="SegoeUI" font-size="10.00"> </text>
<polyline fill="none" stroke="black" points="102.5,-859.5 171.5,-859.5 "/>
<text text-anchor="start" x="110.5" y="-847.5" font-family="SegoeUI" font-size="10.00">+ Install()</text>
<text text-anchor="start" x="110.5" y="-836.5" font-family="SegoeUI" font-size="10.00">+ Reinstall()</text>
<text text-anchor="start" x="110.5" y="-825.5" font-family="SegoeUI" font-size="10.00">+ Uninstall()</text>
</a>
</g>
</g>
<!-- Node10&#45;&gt;Node8 -->
<g id="edge4" class="edge"><title>Node10&#45;&gt;Node8</title>
<path fill="none" stroke="midnightblue" d="M116.366,-808.901C112.079,-796.754 108.199,-783.583 106,-771 91.0743,-685.579 94.4887,-588.133 101.677,-511.829"/>
<polygon fill="none" stroke="midnightblue" points="113.122,-810.22 119.867,-818.391 119.69,-807.798 113.122,-810.22"/>
</g>
<!-- Node10&#45;&gt;Node11 -->
<g id="edge7" class="edge"><title>Node10&#45;&gt;Node11</title>
<path fill="none" stroke="midnightblue" d="M149.463,-808.418C152.464,-796.723 155.784,-783.78 159.165,-770.603"/>
<polygon fill="none" stroke="midnightblue" points="146.011,-807.792 146.916,-818.348 152.791,-809.532 146.011,-807.792"/>
</g>
<!-- Node11&#45;&gt;Node8 -->
<g id="edge5" class="edge"><title>Node11&#45;&gt;Node8</title>
<path fill="none" stroke="#404040" d="M161.705,-559.275C159.004,-547.63 156.218,-535.623 153.429,-523.599"/>
<polygon fill="none" stroke="#404040" points="153.353,-523.271 148.1,-518.33 150.641,-511.582 155.894,-516.522 153.353,-523.271"/>
<text text-anchor="middle" x="166.5" y="-533" font-family="SegoeUI" font-size="10.00"> #jp</text>
</g>
<!-- Node12 -->
<g id="node7" class="node"><title>Node12</title>
<g id="a_node7"><a xlink:title=" ">
<polygon fill="white" stroke="#bfbfbf" points="233.5,-829.5 233.5,-886.5 272.5,-886.5 272.5,-829.5 233.5,-829.5"/>
<text text-anchor="middle" x="253" y="-874.5" font-family="SegoeUI" font-size="10.00">static</text>
<polyline fill="none" stroke="#bfbfbf" points="233.5,-867.5 272.5,-867.5 "/>
<text text-anchor="middle" x="253" y="-855.5" font-family="SegoeUI" font-size="10.00"> </text>
<polyline fill="none" stroke="#bfbfbf" points="233.5,-848.5 272.5,-848.5 "/>
<text text-anchor="middle" x="253" y="-836.5" font-family="SegoeUI" font-size="10.00"> </text>
</a>
</g>
</g>
<!-- Node12&#45;&gt;Node8 -->
<g id="edge9" class="edge"><title>Node12&#45;&gt;Node8</title>
<path fill="none" stroke="#404040" d="M271.558,-829.45C276.62,-820.452 281.418,-810.153 284,-800 310.476,-695.905 305.887,-658.729 266,-559 248.825,-516.058 217.567,-475.434 188.368,-443.729"/>
<polygon fill="none" stroke="#404040" points="188.014,-443.353 180.99,-441.719 179.797,-434.607 186.82,-436.241 188.014,-443.353"/>
<text text-anchor="middle" x="313.5" y="-662.5" font-family="SegoeUI" font-size="10.00"> &#45;cam</text>
</g>
<!-- Node12&#45;&gt;Node11 -->
<g id="edge8" class="edge"><title>Node12&#45;&gt;Node11</title>
<path fill="none" stroke="#404040" d="M233.247,-847.772C215.886,-838.449 191.762,-822.245 181,-800 178.282,-794.381 176.188,-788.469 174.617,-782.387"/>
<polygon fill="none" stroke="#404040" points="174.595,-782.276 169.484,-777.188 172.215,-770.514 177.325,-775.602 174.595,-782.276"/>
<text text-anchor="middle" x="232.5" y="-792" font-family="SegoeUI" font-size="10.00"> +CURRENT_PLATFORM</text>
</g>
</g>
</svg>
        <g id="navigator" transform="translate(0 0)" fill="#404254">
                <rect fill="#f2f5e9" fill-opacity="0.5" stroke="#606060" stroke-width=".5" x="0" y="0" width="60" height="60"/>
                <use id="zoomplus" xlink:href="#zoomPlus" x="17" y="9" onmousedown="handleZoom(evt,'in')"/>
                <use id="zoomminus" xlink:href="#zoomMin" x="42" y="9" onmousedown="handleZoom(evt,'out')"/>
                <use id="reset" xlink:href="#resetDef" x="30" y="36" onmousedown="handleReset()"/>
                <g id="arrowUp" xlink:href="#dirArrow" transform="translate(30 24)" onmousedown="handlePan(0,-1)">
                  <use xlink:href="#rim" fill="#404040">
                        <set attributeName="fill" to="#808080" begin="arrowUp.mouseover" end="arrowUp.mouseout"/>
                  </use>
                  <path fill="none" stroke="white" stroke-width="1.5" d="M0,-3.0v7 M-2.5,-0.5L0,-3.0L2.5,-0.5"/>
                </g>
                <g id="arrowRight" xlink:href="#dirArrow" transform="rotate(90) translate(36 -43)" onmousedown="handlePan(1,0)">
                  <use xlink:href="#rim" fill="#404040">
                        <set attributeName="fill" to="#808080" begin="arrowRight.mouseover" end="arrowRight.mouseout"/>
                  </use>
                  <path fill="none" stroke="white" stroke-width="1.5" d="M0,-3.0v7 M-2.5,-0.5L0,-3.0L2.5,-0.5"/>
                </g>
                <g id="arrowDown" xlink:href="#dirArrow" transform="rotate(180) translate(-30 -48)" onmousedown="handlePan(0,1)">
                  <use xlink:href="#rim" fill="#404040">
                        <set attributeName="fill" to="#808080" begin="arrowDown.mouseover" end="arrowDown.mouseout"/>
                  </use>
                  <path fill="none" stroke="white" stroke-width="1.5" d="M0,-3.0v7 M-2.5,-0.5L0,-3.0L2.5,-0.5"/>
                </g>
                <g id="arrowLeft" xlink:href="#dirArrow" transform="rotate(270) translate(-36 17)" onmousedown="handlePan(-1,0)">
                  <use xlink:href="#rim" fill="#404040">
                        <set attributeName="fill" to="#808080" begin="arrowLeft.mouseover" end="arrowLeft.mouseout"/>
                  </use>
                  <path fill="none" stroke="white" stroke-width="1.5" d="M0,-3.0v7 M-2.5,-0.5L0,-3.0L2.5,-0.5"/>
                </g>
        </g>
        <svg viewBox="0 0 15 15" width="100%" height="30px" preserveAspectRatio="xMaxYMin meet">
         <g id="arrow_out" transform="scale(0.3 0.3)">
          <a xlink:href="class_juniper_1_1_unity_1_1_display_1_1_a_r_core_display_manager__coll__graph_org.svg" target="_base">
           <rect id="button" ry="5" rx="5" y="6" x="6" height="38" width="38"
                fill="#f2f5e9" fill-opacity="0.5" stroke="#606060" stroke-width="1.0"/>
           <path id="arrow"
             d="M 11.500037,31.436501 C 11.940474,20.09759 22.043105,11.32322 32.158766,21.979434 L 37.068811,17.246167 C 37.068811,17.246167 37.088388,32 37.088388,32 L 22.160133,31.978069 C 22.160133,31.978069 26.997745,27.140456 26.997745,27.140456 C 18.528582,18.264221 13.291696,25.230495 11.500037,31.436501 z"
             style="fill:#404040;"/>
          </a>
         </g>
        </svg>
</svg>
