<?xml version="1.0" encoding="UTF-8" standalone="no"?>
<!DOCTYPE svg PUBLIC "-//W3C//DTD SVG 1.1//EN"
 "http://www.w3.org/Graphics/SVG/1.1/DTD/svg11.dtd">
<!-- Generated by graphviz version 2.38.0 (20140413.2041)
 -->
<!-- Title: Juniper.Unity.ImageTracking.AbstractTrackableFoundEventHandler Pages: 1 -->
<!--zoomable 656 -->
<svg id="main" version="1.1" xmlns="http://www.w3.org/2000/svg" xmlns:xlink="http://www.w3.org/1999/xlink" xml:space="preserve" onload="init(evt)">
<style type="text/css"><![CDATA[
.edge:hover path { stroke: red; }
.edge:hover polygon { stroke: red; fill: red; }
]]></style>
<script type="text/javascript"><![CDATA[
var edges = document.getElementsByTagName('g');
if (edges && edges.length) {
  for (var i=0;i<edges.length;i++) {
    if (edges[i].id.substr(0,4)=='edge') {
      edges[i].setAttribute('class','edge');
    }
  }
}
]]></script>
        <defs>
                <circle id="rim" cx="0" cy="0" r="7"/>
                <circle id="rim2" cx="0" cy="0" r="3.5"/>
                <g id="zoomPlus">
                        <use xlink:href="#rim" fill="#404040">
                                <set attributeName="fill" to="#808080" begin="zoomplus.mouseover" end="zoomplus.mouseout"/>
                        </use>
                        <path d="M-4,0h8M0,-4v8" fill="none" stroke="white" stroke-width="1.5" pointer-events="none"/>
                </g>
                <g id="zoomMin">
                        <use xlink:href="#rim" fill="#404040">
                                <set attributeName="fill" to="#808080" begin="zoomminus.mouseover" end="zoomminus.mouseout"/>
                        </use>
                        <path d="M-4,0h8" fill="none" stroke="white" stroke-width="1.5" pointer-events="none"/>
                </g>
                <g id="dirArrow">
                        <path fill="none" stroke="white" stroke-width="1.5" d="M0,-3.0v7 M-2.5,-0.5L0,-3.0L2.5,-0.5"/>
                </g>
               <g id="resetDef">
                       <use xlink:href="#rim2" fill="#404040">
                               <set attributeName="fill" to="#808080" begin="reset.mouseover" end="reset.mouseout"/>
                       </use>
               </g>
        </defs>

<script type="text/javascript">
var viewWidth = 184;
var viewHeight = 656;
var sectionId = 'dynsection-0';
</script>
<script xlink:href="../../svgpan.js"/>
<svg id="graph" class="graph">
<g id="viewport">
<title>Juniper.Unity.ImageTracking.AbstractTrackableFoundEventHandler</title>
<polygon fill="white" stroke="none" points="-4,4 -4,-652 180,-652 180,4 -4,4"/>
<!-- Node0 -->
<g id="node1" class="node"><title>Node0</title>
<g id="a_node1"><a xlink:title=" ">
<polygon fill="#bfbfbf" stroke="black" points="0,-221.5 0,-553.5 176,-553.5 176,-221.5 0,-221.5"/>
<text text-anchor="start" x="8" y="-541.5" font-family="SegoeUI" font-size="10.00">Juniper.Unity.ImageTracking.</text>
<text text-anchor="middle" x="88" y="-530.5" font-family="SegoeUI" font-size="10.00">AbstractTrackableFoundEventHandler</text>
<polyline fill="none" stroke="black" points="0,-523.5 176,-523.5 "/>
<text text-anchor="start" x="8" y="-511.5" font-family="SegoeUI" font-size="10.00">+ Found</text>
<text text-anchor="start" x="8" y="-500.5" font-family="SegoeUI" font-size="10.00">+ Safe</text>
<text text-anchor="start" x="8" y="-489.5" font-family="SegoeUI" font-size="10.00">+ Extended</text>
<text text-anchor="start" x="8" y="-478.5" font-family="SegoeUI" font-size="10.00">+ attachmentPoint</text>
<text text-anchor="start" x="8" y="-467.5" font-family="SegoeUI" font-size="10.00">+ safeDistance</text>
<text text-anchor="start" x="8" y="-456.5" font-family="SegoeUI" font-size="10.00">+ onTrackingStateChange</text>
<text text-anchor="start" x="8" y="-445.5" font-family="SegoeUI" font-size="10.00">+ onFound</text>
<text text-anchor="start" x="8" y="-434.5" font-family="SegoeUI" font-size="10.00">+ onLost</text>
<text text-anchor="start" x="8" y="-423.5" font-family="SegoeUI" font-size="10.00">+ onProximity</text>
<text text-anchor="start" x="8" y="-412.5" font-family="SegoeUI" font-size="10.00">+ onSafe</text>
<text text-anchor="start" x="8" y="-401.5" font-family="SegoeUI" font-size="10.00">&#45; wasFound</text>
<text text-anchor="start" x="8" y="-390.5" font-family="SegoeUI" font-size="10.00">&#45; wasSafe</text>
<text text-anchor="start" x="8" y="-379.5" font-family="SegoeUI" font-size="10.00">&#45; TAG_NAME</text>
<text text-anchor="start" x="8" y="-368.5" font-family="SegoeUI" font-size="10.00">&#45; TRANSFORM_NAME</text>
<polyline fill="none" stroke="black" points="0,-361.5 176,-361.5 "/>
<text text-anchor="start" x="8" y="-349.5" font-family="SegoeUI" font-size="10.00">+ OnValidate()</text>
<text text-anchor="start" x="8" y="-338.5" font-family="SegoeUI" font-size="10.00">+ OnEnable()</text>
<text text-anchor="start" x="8" y="-327.5" font-family="SegoeUI" font-size="10.00">+ Update()</text>
<text text-anchor="start" x="8" y="-316.5" font-family="SegoeUI" font-size="10.00">+ ForceFound()</text>
<text text-anchor="start" x="8" y="-305.5" font-family="SegoeUI" font-size="10.00">+ ForceLost()</text>
<text text-anchor="start" x="8" y="-294.5" font-family="SegoeUI" font-size="10.00">+ OnDisable()</text>
<text text-anchor="start" x="8" y="-283.5" font-family="SegoeUI" font-size="10.00">+ Awake()</text>
<text text-anchor="start" x="8" y="-272.5" font-family="SegoeUI" font-size="10.00">&#45; SafetyCheck()</text>
<text text-anchor="start" x="8" y="-261.5" font-family="SegoeUI" font-size="10.00">&#45; OnSafeOrProximity()</text>
<text text-anchor="start" x="8" y="-250.5" font-family="SegoeUI" font-size="10.00">&#45; OnFoundChanged()</text>
<text text-anchor="start" x="8" y="-239.5" font-family="SegoeUI" font-size="10.00">&#45; OnLostOrFound()</text>
<text text-anchor="start" x="8" y="-228.5" font-family="SegoeUI" font-size="10.00">&#45; OnTrackingStateChanged()</text>
</a>
</g>
</g>
<!-- Node2 -->
<g id="node3" class="node"><title>Node2</title>
<g id="a_node3"><a xlink:href="../../d4/d2c/class_juniper_1_1_unity_1_1_image_tracking_1_1_a_r_kit_trackable_found_event_handler.html" target="_top" xlink:title=" ">
<polygon fill="white" stroke="black" points="6,-105.5 6,-184.5 170,-184.5 170,-105.5 6,-105.5"/>
<text text-anchor="start" x="14" y="-172.5" font-family="SegoeUI" font-size="10.00">Juniper.Unity.ImageTracking.</text>
<text text-anchor="middle" x="88" y="-161.5" font-family="SegoeUI" font-size="10.00">ARKitTrackableFoundEventHandler</text>
<polyline fill="none" stroke="black" points="6,-154.5 170,-154.5 "/>
<text text-anchor="start" x="14" y="-142.5" font-family="SegoeUI" font-size="10.00">+ imagesSet</text>
<text text-anchor="start" x="14" y="-131.5" font-family="SegoeUI" font-size="10.00">+ image</text>
<polyline fill="none" stroke="black" points="6,-124.5 170,-124.5 "/>
<text text-anchor="middle" x="88" y="-112.5" font-family="SegoeUI" font-size="10.00"> </text>
</a>
</g>
</g>
<!-- Node0&#45;&gt;Node2 -->
<g id="edge2" class="edge"><title>Node0&#45;&gt;Node2</title>
<path fill="none" stroke="midnightblue" d="M88,-211.227C88,-201.624 88,-192.618 88,-184.545"/>
<polygon fill="none" stroke="midnightblue" points="84.5001,-211.436 88,-221.436 91.5001,-211.436 84.5001,-211.436"/>
</g>
<!-- Node1 -->
<g id="node2" class="node"><title>Node1</title>
<g id="a_node2"><a xlink:title=" ">
<polygon fill="white" stroke="#bfbfbf" points="47,-590.5 47,-647.5 129,-647.5 129,-590.5 47,-590.5"/>
<text text-anchor="middle" x="88" y="-635.5" font-family="SegoeUI" font-size="10.00">MonoBehaviour</text>
<polyline fill="none" stroke="#bfbfbf" points="47,-628.5 129,-628.5 "/>
<text text-anchor="middle" x="88" y="-616.5" font-family="SegoeUI" font-size="10.00"> </text>
<polyline fill="none" stroke="#bfbfbf" points="47,-609.5 129,-609.5 "/>
<text text-anchor="middle" x="88" y="-597.5" font-family="SegoeUI" font-size="10.00"> </text>
</a>
</g>
</g>
<!-- Node1&#45;&gt;Node0 -->
<g id="edge1" class="edge"><title>Node1&#45;&gt;Node0</title>
<path fill="none" stroke="midnightblue" d="M88,-580.078C88,-572.132 88,-563.278 88,-553.855"/>
<polygon fill="none" stroke="midnightblue" points="84.5001,-580.317 88,-590.317 91.5001,-580.317 84.5001,-580.317"/>
</g>
<!-- Node3 -->
<g id="node4" class="node"><title>Node3</title>
<g id="a_node4"><a xlink:href="../../de/d4e/class_juniper_1_1_unity_1_1_image_tracking_1_1_trackable_found_event_handler.html" target="_top" xlink:title="Trackable object–like images, scanned objects, and model generated targets– come and go out of the us...">
<polygon fill="white" stroke="black" points="17.5,-0.5 17.5,-68.5 158.5,-68.5 158.5,-0.5 17.5,-0.5"/>
<text text-anchor="start" x="25.5" y="-56.5" font-family="SegoeUI" font-size="10.00">Juniper.Unity.ImageTracking.</text>
<text text-anchor="middle" x="88" y="-45.5" font-family="SegoeUI" font-size="10.00">TrackableFoundEventHandler</text>
<polyline fill="none" stroke="black" points="17.5,-38.5 158.5,-38.5 "/>
<text text-anchor="middle" x="88" y="-26.5" font-family="SegoeUI" font-size="10.00"> </text>
<polyline fill="none" stroke="black" points="17.5,-19.5 158.5,-19.5 "/>
<text text-anchor="middle" x="88" y="-7.5" font-family="SegoeUI" font-size="10.00"> </text>
</a>
</g>
</g>
<!-- Node2&#45;&gt;Node3 -->
<g id="edge3" class="edge"><title>Node2&#45;&gt;Node3</title>
<path fill="none" stroke="midnightblue" d="M88,-95.3492C88,-86.2824 88,-77.0048 88,-68.5439"/>
<polygon fill="none" stroke="midnightblue" points="84.5001,-95.4414 88,-105.441 91.5001,-95.4415 84.5001,-95.4414"/>
</g>
</g>
</svg>
        <g id="navigator" transform="translate(0 0)" fill="#404254">
                <rect fill="#f2f5e9" fill-opacity="0.5" stroke="#606060" stroke-width=".5" x="0" y="0" width="60" height="60"/>
                <use id="zoomplus" xlink:href="#zoomPlus" x="17" y="9" onmousedown="handleZoom(evt,'in')"/>
                <use id="zoomminus" xlink:href="#zoomMin" x="42" y="9" onmousedown="handleZoom(evt,'out')"/>
                <use id="reset" xlink:href="#resetDef" x="30" y="36" onmousedown="handleReset()"/>
                <g id="arrowUp" xlink:href="#dirArrow" transform="translate(30 24)" onmousedown="handlePan(0,-1)">
                  <use xlink:href="#rim" fill="#404040">
                        <set attributeName="fill" to="#808080" begin="arrowUp.mouseover" end="arrowUp.mouseout"/>
                  </use>
                  <path fill="none" stroke="white" stroke-width="1.5" d="M0,-3.0v7 M-2.5,-0.5L0,-3.0L2.5,-0.5"/>
                </g>
                <g id="arrowRight" xlink:href="#dirArrow" transform="rotate(90) translate(36 -43)" onmousedown="handlePan(1,0)">
                  <use xlink:href="#rim" fill="#404040">
                        <set attributeName="fill" to="#808080" begin="arrowRight.mouseover" end="arrowRight.mouseout"/>
                  </use>
                  <path fill="none" stroke="white" stroke-width="1.5" d="M0,-3.0v7 M-2.5,-0.5L0,-3.0L2.5,-0.5"/>
                </g>
                <g id="arrowDown" xlink:href="#dirArrow" transform="rotate(180) translate(-30 -48)" onmousedown="handlePan(0,1)">
                  <use xlink:href="#rim" fill="#404040">
                        <set attributeName="fill" to="#808080" begin="arrowDown.mouseover" end="arrowDown.mouseout"/>
                  </use>
                  <path fill="none" stroke="white" stroke-width="1.5" d="M0,-3.0v7 M-2.5,-0.5L0,-3.0L2.5,-0.5"/>
                </g>
                <g id="arrowLeft" xlink:href="#dirArrow" transform="rotate(270) translate(-36 17)" onmousedown="handlePan(-1,0)">
                  <use xlink:href="#rim" fill="#404040">
                        <set attributeName="fill" to="#808080" begin="arrowLeft.mouseover" end="arrowLeft.mouseout"/>
                  </use>
                  <path fill="none" stroke="white" stroke-width="1.5" d="M0,-3.0v7 M-2.5,-0.5L0,-3.0L2.5,-0.5"/>
                </g>
        </g>
        <svg viewBox="0 0 15 15" width="100%" height="30px" preserveAspectRatio="xMaxYMin meet">
         <g id="arrow_out" transform="scale(0.3 0.3)">
          <a xlink:href="class_juniper_1_1_unity_1_1_image_tracking_1_1_abstract_trackable_found_event_handler__inherit__graph_org.svg" target="_base">
           <rect id="button" ry="5" rx="5" y="6" x="6" height="38" width="38"
                fill="#f2f5e9" fill-opacity="0.5" stroke="#606060" stroke-width="1.0"/>
           <path id="arrow"
             d="M 11.500037,31.436501 C 11.940474,20.09759 22.043105,11.32322 32.158766,21.979434 L 37.068811,17.246167 C 37.068811,17.246167 37.088388,32 37.088388,32 L 22.160133,31.978069 C 22.160133,31.978069 26.997745,27.140456 26.997745,27.140456 C 18.528582,18.264221 13.291696,25.230495 11.500037,31.436501 z"
             style="fill:#404040;"/>
          </a>
         </g>
        </svg>
</svg>
