<?xml version="1.0" encoding="UTF-8" standalone="no"?>
<!DOCTYPE svg PUBLIC "-//W3C//DTD SVG 1.1//EN"
 "http://www.w3.org/Graphics/SVG/1.1/DTD/svg11.dtd">
<!-- Generated by graphviz version 2.38.0 (20140413.2041)
 -->
<!-- Title: Juniper.Unity.Input.Pointers.Gaze.NosePointer Pages: 1 -->
<!--zoomable 1807 -->
<svg id="main" version="1.1" xmlns="http://www.w3.org/2000/svg" xmlns:xlink="http://www.w3.org/1999/xlink" xml:space="preserve" onload="init(evt)">
<style type="text/css"><![CDATA[
.edge:hover path { stroke: red; }
.edge:hover polygon { stroke: red; fill: red; }
]]></style>
<script type="text/javascript"><![CDATA[
var edges = document.getElementsByTagName('g');
if (edges && edges.length) {
  for (var i=0;i<edges.length;i++) {
    if (edges[i].id.substr(0,4)=='edge') {
      edges[i].setAttribute('class','edge');
    }
  }
}
]]></script>
        <defs>
                <circle id="rim" cx="0" cy="0" r="7"/>
                <circle id="rim2" cx="0" cy="0" r="3.5"/>
                <g id="zoomPlus">
                        <use xlink:href="#rim" fill="#404040">
                                <set attributeName="fill" to="#808080" begin="zoomplus.mouseover" end="zoomplus.mouseout"/>
                        </use>
                        <path d="M-4,0h8M0,-4v8" fill="none" stroke="white" stroke-width="1.5" pointer-events="none"/>
                </g>
                <g id="zoomMin">
                        <use xlink:href="#rim" fill="#404040">
                                <set attributeName="fill" to="#808080" begin="zoomminus.mouseover" end="zoomminus.mouseout"/>
                        </use>
                        <path d="M-4,0h8" fill="none" stroke="white" stroke-width="1.5" pointer-events="none"/>
                </g>
                <g id="dirArrow">
                        <path fill="none" stroke="white" stroke-width="1.5" d="M0,-3.0v7 M-2.5,-0.5L0,-3.0L2.5,-0.5"/>
                </g>
               <g id="resetDef">
                       <use xlink:href="#rim2" fill="#404040">
                               <set attributeName="fill" to="#808080" begin="reset.mouseover" end="reset.mouseout"/>
                       </use>
               </g>
        </defs>

<script type="text/javascript">
var viewWidth = 512;
var viewHeight = 1807;
var sectionId = 'dynsection-0';
</script>
<script xlink:href="../../svgpan.js"/>
<svg id="graph" class="graph">
<g id="viewport">
<title>Juniper.Unity.Input.Pointers.Gaze.NosePointer</title>
<polygon fill="white" stroke="none" points="-4,4 -4,-1803 507.5,-1803 507.5,4 -4,4"/>
<!-- Node0 -->
<g id="node1" class="node"><title>Node0</title>
<g id="a_node1"><a xlink:title=" ">
<polygon fill="#bfbfbf" stroke="black" points="305,-0.5 305,-68.5 442,-68.5 442,-0.5 305,-0.5"/>
<text text-anchor="start" x="313" y="-56.5" font-family="SegoeUI" font-size="10.00">Juniper.Unity.Input.Pointers.</text>
<text text-anchor="middle" x="373.5" y="-45.5" font-family="SegoeUI" font-size="10.00">Gaze.NosePointer</text>
<polyline fill="none" stroke="black" points="305,-38.5 442,-38.5 "/>
<text text-anchor="start" x="313" y="-26.5" font-family="SegoeUI" font-size="10.00">+ WorldPoint</text>
<polyline fill="none" stroke="black" points="305,-19.5 442,-19.5 "/>
<text text-anchor="middle" x="373.5" y="-7.5" font-family="SegoeUI" font-size="10.00"> </text>
</a>
</g>
</g>
<!-- Node1 -->
<g id="node2" class="node"><title>Node1</title>
<g id="a_node2"><a xlink:href="../../d6/d9c/class_juniper_1_1_unity_1_1_input_1_1_pointers_1_1_gaze_1_1_abstract_gaze_pointer.html" target="_top" xlink:title=" ">
<polygon fill="white" stroke="black" points="322,-106.5 322,-295.5 425,-295.5 425,-106.5 322,-106.5"/>
<text text-anchor="start" x="330" y="-283.5" font-family="SegoeUI" font-size="10.00">AbstractGazePointer</text>
<text text-anchor="middle" x="373.5" y="-272.5" font-family="SegoeUI" font-size="10.00">&lt; NoHaptics &gt;</text>
<polyline fill="none" stroke="black" points="322,-265.5 425,-265.5 "/>
<text text-anchor="start" x="330" y="-253.5" font-family="SegoeUI" font-size="10.00">+ gazeThreshold</text>
<text text-anchor="start" x="330" y="-242.5" font-family="SegoeUI" font-size="10.00">+ IsConnected</text>
<text text-anchor="start" x="330" y="-231.5" font-family="SegoeUI" font-size="10.00"># gazed</text>
<text text-anchor="start" x="330" y="-220.5" font-family="SegoeUI" font-size="10.00">&#45; wasGazed</text>
<text text-anchor="start" x="330" y="-209.5" font-family="SegoeUI" font-size="10.00">&#45; lastTarget</text>
<text text-anchor="start" x="330" y="-198.5" font-family="SegoeUI" font-size="10.00">&#45; gazeTime</text>
<text text-anchor="start" x="330" y="-187.5" font-family="SegoeUI" font-size="10.00">&#45; target</text>
<polyline fill="none" stroke="black" points="322,-180.5 425,-180.5 "/>
<text text-anchor="start" x="330" y="-168.5" font-family="SegoeUI" font-size="10.00">+ IsButtonPressed()</text>
<text text-anchor="start" x="330" y="-157.5" font-family="SegoeUI" font-size="10.00">+ IsButtonDown()</text>
<text text-anchor="start" x="330" y="-146.5" font-family="SegoeUI" font-size="10.00">+ IsButtonUp()</text>
<text text-anchor="start" x="330" y="-135.5" font-family="SegoeUI" font-size="10.00">+ SetProbe()</text>
<text text-anchor="start" x="330" y="-124.5" font-family="SegoeUI" font-size="10.00">+ Process()</text>
<text text-anchor="start" x="330" y="-113.5" font-family="SegoeUI" font-size="10.00"># InternalUpdate()</text>
</a>
</g>
</g>
<!-- Node1&#45;&gt;Node0 -->
<g id="edge1" class="edge"><title>Node1&#45;&gt;Node0</title>
<path fill="none" stroke="midnightblue" d="M373.5,-95.9462C373.5,-86.2181 373.5,-76.9286 373.5,-68.6777"/>
<polygon fill="none" stroke="midnightblue" points="370,-96.2174 373.5,-106.217 377,-96.2175 370,-96.2174"/>
</g>
<!-- Node2 -->
<g id="node3" class="node"><title>Node2</title>
<g id="a_node3"><a xlink:href="../../d6/d9c/class_juniper_1_1_unity_1_1_input_1_1_pointers_1_1_gaze_1_1_abstract_gaze_pointer.html" target="_top" xlink:title=" ">
<polygon fill="white" stroke="black" points="305,-343.5 305,-543.5 442,-543.5 442,-343.5 305,-343.5"/>
<text text-anchor="start" x="313" y="-531.5" font-family="SegoeUI" font-size="10.00">Juniper.Unity.Input.Pointers.</text>
<text text-anchor="start" x="313" y="-520.5" font-family="SegoeUI" font-size="10.00">Gaze.AbstractGazePointer</text>
<text text-anchor="middle" x="373.5" y="-509.5" font-family="SegoeUI" font-size="10.00">&lt; HapticsType &gt;</text>
<polyline fill="none" stroke="black" points="305,-502.5 442,-502.5 "/>
<text text-anchor="start" x="313" y="-490.5" font-family="SegoeUI" font-size="10.00">+ gazeThreshold</text>
<text text-anchor="start" x="313" y="-479.5" font-family="SegoeUI" font-size="10.00">+ IsConnected</text>
<text text-anchor="start" x="313" y="-468.5" font-family="SegoeUI" font-size="10.00"># gazed</text>
<text text-anchor="start" x="313" y="-457.5" font-family="SegoeUI" font-size="10.00">&#45; wasGazed</text>
<text text-anchor="start" x="313" y="-446.5" font-family="SegoeUI" font-size="10.00">&#45; lastTarget</text>
<text text-anchor="start" x="313" y="-435.5" font-family="SegoeUI" font-size="10.00">&#45; gazeTime</text>
<text text-anchor="start" x="313" y="-424.5" font-family="SegoeUI" font-size="10.00">&#45; target</text>
<polyline fill="none" stroke="black" points="305,-417.5 442,-417.5 "/>
<text text-anchor="start" x="313" y="-405.5" font-family="SegoeUI" font-size="10.00">+ IsButtonPressed()</text>
<text text-anchor="start" x="313" y="-394.5" font-family="SegoeUI" font-size="10.00">+ IsButtonDown()</text>
<text text-anchor="start" x="313" y="-383.5" font-family="SegoeUI" font-size="10.00">+ IsButtonUp()</text>
<text text-anchor="start" x="313" y="-372.5" font-family="SegoeUI" font-size="10.00">+ SetProbe()</text>
<text text-anchor="start" x="313" y="-361.5" font-family="SegoeUI" font-size="10.00">+ Process()</text>
<text text-anchor="start" x="313" y="-350.5" font-family="SegoeUI" font-size="10.00"># InternalUpdate()</text>
</a>
</g>
</g>
<!-- Node2&#45;&gt;Node1 -->
<g id="edge2" class="edge"><title>Node2&#45;&gt;Node1</title>
<path fill="none" stroke="orange" d="M373.5,-333.246C373.5,-320.663 373.5,-307.919 373.5,-295.57"/>
<polygon fill="orange" stroke="orange" points="370,-333.291 373.5,-343.291 377,-333.291 370,-333.291"/>
<text text-anchor="middle" x="406" y="-317" font-family="SegoeUI" font-size="10.00"> &lt; NoHaptics &gt;</text>
</g>
<!-- Node3 -->
<g id="node4" class="node"><title>Node3</title>
<g id="a_node4"><a xlink:href="../../dc/db8/class_juniper_1_1_unity_1_1_input_1_1_pointers_1_1_screen_1_1_abstract_screen_device.html" target="_top" xlink:title=" ">
<polygon fill="white" stroke="black" points="303,-581.5 303,-671.5 444,-671.5 444,-581.5 303,-581.5"/>
<text text-anchor="start" x="311" y="-659.5" font-family="SegoeUI" font-size="10.00">AbstractScreenDevice</text>
<text text-anchor="start" x="311" y="-648.5" font-family="SegoeUI" font-size="10.00">&lt; Unary, HapticsType,</text>
<text text-anchor="middle" x="373.5" y="-637.5" font-family="SegoeUI" font-size="10.00"> UnaryPointerConfiguration &gt;</text>
<polyline fill="none" stroke="black" points="303,-630.5 444,-630.5 "/>
<text text-anchor="start" x="311" y="-618.5" font-family="SegoeUI" font-size="10.00">+ CameraPositionOffset</text>
<text text-anchor="start" x="311" y="-607.5" font-family="SegoeUI" font-size="10.00">+ CameraRotationOffset</text>
<polyline fill="none" stroke="black" points="303,-600.5 444,-600.5 "/>
<text text-anchor="start" x="311" y="-588.5" font-family="SegoeUI" font-size="10.00"># InternalUpdate()</text>
</a>
</g>
</g>
<!-- Node3&#45;&gt;Node2 -->
<g id="edge3" class="edge"><title>Node3&#45;&gt;Node2</title>
<path fill="none" stroke="midnightblue" d="M373.5,-571.21C373.5,-562.448 373.5,-553.143 373.5,-543.711"/>
<polygon fill="none" stroke="midnightblue" points="370,-571.222 373.5,-581.222 377,-571.222 370,-571.222"/>
</g>
<!-- Node4 -->
<g id="node5" class="node"><title>Node4</title>
<g id="a_node5"><a xlink:href="../../dc/db8/class_juniper_1_1_unity_1_1_input_1_1_pointers_1_1_screen_1_1_abstract_screen_device.html" target="_top" xlink:title="A ScreenDevice is a AbstractPointerDevice&lt;ButtonIDType, HapticsType&gt; that has its primary pointer int...">
<polygon fill="white" stroke="black" points="301.5,-730.5 301.5,-831.5 445.5,-831.5 445.5,-730.5 301.5,-730.5"/>
<text text-anchor="start" x="309.5" y="-819.5" font-family="SegoeUI" font-size="10.00">Juniper.Unity.Input.Pointers.</text>
<text text-anchor="start" x="309.5" y="-808.5" font-family="SegoeUI" font-size="10.00">Screen.AbstractScreenDevice</text>
<text text-anchor="start" x="309.5" y="-797.5" font-family="SegoeUI" font-size="10.00">&lt; ButtonIDType, HapticsType,</text>
<text text-anchor="middle" x="373.5" y="-786.5" font-family="SegoeUI" font-size="10.00"> ConfigType &gt;</text>
<polyline fill="none" stroke="black" points="301.5,-779.5 445.5,-779.5 "/>
<text text-anchor="start" x="309.5" y="-767.5" font-family="SegoeUI" font-size="10.00">+ CameraPositionOffset</text>
<text text-anchor="start" x="309.5" y="-756.5" font-family="SegoeUI" font-size="10.00">+ CameraRotationOffset</text>
<polyline fill="none" stroke="black" points="301.5,-749.5 445.5,-749.5 "/>
<text text-anchor="start" x="309.5" y="-737.5" font-family="SegoeUI" font-size="10.00"># InternalUpdate()</text>
</a>
</g>
</g>
<!-- Node4&#45;&gt;Node3 -->
<g id="edge4" class="edge"><title>Node4&#45;&gt;Node3</title>
<path fill="none" stroke="orange" d="M373.5,-720.055C373.5,-703.906 373.5,-686.733 373.5,-671.621"/>
<polygon fill="orange" stroke="orange" points="370,-720.488 373.5,-730.488 377,-720.488 370,-720.488"/>
<text text-anchor="start" x="373.5" y="-704" font-family="SegoeUI" font-size="10.00"> &lt; Unary, HapticsType,</text>
<text text-anchor="middle" x="436" y="-693" font-family="SegoeUI" font-size="10.00"> UnaryPointerConfiguration &gt;</text>
</g>
<!-- Node5 -->
<g id="node6" class="node"><title>Node5</title>
<g id="a_node6"><a xlink:href="../../d7/d05/class_juniper_1_1_unity_1_1_input_1_1_pointers_1_1_abstract_pointer_device.html" target="_top" xlink:title=" ">
<polygon fill="white" stroke="black" points="210.5,-869.5 210.5,-1388.5 354.5,-1388.5 354.5,-869.5 210.5,-869.5"/>
<text text-anchor="start" x="218.5" y="-1376.5" font-family="SegoeUI" font-size="10.00">AbstractPointerDevice</text>
<text text-anchor="start" x="218.5" y="-1365.5" font-family="SegoeUI" font-size="10.00">&lt; ButtonIDType, HapticsType,</text>
<text text-anchor="middle" x="282.5" y="-1354.5" font-family="SegoeUI" font-size="10.00"> ConfigType &gt;</text>
<polyline fill="none" stroke="black" points="210.5,-1347.5 354.5,-1347.5 "/>
<text text-anchor="start" x="218.5" y="-1335.5" font-family="SegoeUI" font-size="10.00">+ Connected</text>
<text text-anchor="start" x="218.5" y="-1324.5" font-family="SegoeUI" font-size="10.00">+ LaserPointerMaterial</text>
<text text-anchor="start" x="218.5" y="-1313.5" font-family="SegoeUI" font-size="10.00">+ showProbe</text>
<text text-anchor="start" x="218.5" y="-1302.5" font-family="SegoeUI" font-size="10.00">+ motionFilter</text>
<text text-anchor="start" x="218.5" y="-1291.5" font-family="SegoeUI" font-size="10.00">+ ButtonType</text>
<text text-anchor="start" x="218.5" y="-1280.5" font-family="SegoeUI" font-size="10.00">+ MinimumPointerDistance</text>
<text text-anchor="start" x="218.5" y="-1269.5" font-family="SegoeUI" font-size="10.00">+ MaximumPointerDistance</text>
<text text-anchor="start" x="218.5" y="-1258.5" font-family="SegoeUI" font-size="10.00">+ LockedOnTarget</text>
<text text-anchor="start" x="218.5" y="-1247.5" font-family="SegoeUI" font-size="10.00">+ EventTarget</text>
<text text-anchor="start" x="218.5" y="-1236.5" font-family="SegoeUI" font-size="10.00">+ IsConnected</text>
<text text-anchor="start" x="218.5" y="-1225.5" font-family="SegoeUI" font-size="10.00">+ IsEnabled</text>
<text text-anchor="start" x="218.5" y="-1214.5" font-family="SegoeUI" font-size="10.00">+ IsDisabled</text>
<text text-anchor="start" x="218.5" y="-1203.5" font-family="SegoeUI" font-size="10.00">+ Raycaster</text>
<text text-anchor="start" x="218.5" y="-1192.5" font-family="SegoeUI" font-size="10.00">+ EventCamera</text>
<text text-anchor="start" x="218.5" y="-1181.5" font-family="SegoeUI" font-size="10.00">and 23 more...</text>
<text text-anchor="start" x="218.5" y="-1170.5" font-family="SegoeUI" font-size="10.00"># nativeButtons</text>
<text text-anchor="start" x="218.5" y="-1159.5" font-family="SegoeUI" font-size="10.00"># pointerOffset</text>
<text text-anchor="start" x="218.5" y="-1148.5" font-family="SegoeUI" font-size="10.00"># probe</text>
<text text-anchor="start" x="218.5" y="-1137.5" font-family="SegoeUI" font-size="10.00"># eventManager</text>
<text text-anchor="start" x="218.5" y="-1126.5" font-family="SegoeUI" font-size="10.00"># stage</text>
<text text-anchor="start" x="218.5" y="-1115.5" font-family="SegoeUI" font-size="10.00"># VIEWPORT_MIDPOINT</text>
<text text-anchor="start" x="218.5" y="-1104.5" font-family="SegoeUI" font-size="10.00"># PointerConfig</text>
<text text-anchor="start" x="218.5" y="-1093.5" font-family="SegoeUI" font-size="10.00">&#45; _probeName</text>
<text text-anchor="start" x="218.5" y="-1082.5" font-family="SegoeUI" font-size="10.00">&#45; lastMotionFilter</text>
<text text-anchor="start" x="218.5" y="-1071.5" font-family="SegoeUI" font-size="10.00">&#45; finishTime</text>
<text text-anchor="start" x="218.5" y="-1060.5" font-family="SegoeUI" font-size="10.00">&#45; lastAction</text>
<polyline fill="none" stroke="black" points="210.5,-1053.5 354.5,-1053.5 "/>
<text text-anchor="start" x="218.5" y="-1041.5" font-family="SegoeUI" font-size="10.00">+ Awake()</text>
<text text-anchor="start" x="218.5" y="-1030.5" font-family="SegoeUI" font-size="10.00">+ Start()</text>
<text text-anchor="start" x="218.5" y="-1019.5" font-family="SegoeUI" font-size="10.00">+ Install()</text>
<text text-anchor="start" x="218.5" y="-1008.5" font-family="SegoeUI" font-size="10.00">+ Uninstall()</text>
<text text-anchor="start" x="218.5" y="-997.5" font-family="SegoeUI" font-size="10.00">+ Reinstall()</text>
<text text-anchor="start" x="218.5" y="-986.5" font-family="SegoeUI" font-size="10.00">+ SetProbe()</text>
<text text-anchor="start" x="218.5" y="-975.5" font-family="SegoeUI" font-size="10.00">+ ScreenFromWorld()</text>
<text text-anchor="start" x="218.5" y="-964.5" font-family="SegoeUI" font-size="10.00">+ ScreenFromViewport()</text>
<text text-anchor="start" x="218.5" y="-953.5" font-family="SegoeUI" font-size="10.00">+ ViewportFromWorld()</text>
<text text-anchor="start" x="218.5" y="-942.5" font-family="SegoeUI" font-size="10.00">+ ViewportFromScreen()</text>
<text text-anchor="start" x="218.5" y="-931.5" font-family="SegoeUI" font-size="10.00">and 11 more...</text>
<text text-anchor="start" x="218.5" y="-920.5" font-family="SegoeUI" font-size="10.00"># Clone()</text>
<text text-anchor="start" x="218.5" y="-909.5" font-family="SegoeUI" font-size="10.00"># ProcessButtons()</text>
<text text-anchor="start" x="218.5" y="-898.5" font-family="SegoeUI" font-size="10.00"># InternalUpdate()</text>
<text text-anchor="start" x="218.5" y="-887.5" font-family="SegoeUI" font-size="10.00">&#45; FindProbe()</text>
<text text-anchor="start" x="218.5" y="-876.5" font-family="SegoeUI" font-size="10.00">&#45; TestEnterExit()</text>
</a>
</g>
</g>
<!-- Node5&#45;&gt;Node4 -->
<g id="edge5" class="edge"><title>Node5&#45;&gt;Node4</title>
<path fill="none" stroke="midnightblue" d="M353.106,-859.541C355.736,-849.542 358.203,-840.162 360.45,-831.619"/>
<polygon fill="none" stroke="midnightblue" points="349.696,-858.749 350.537,-869.31 356.465,-860.53 349.696,-858.749"/>
</g>
<!-- Node6 -->
<g id="node7" class="node"><title>Node6</title>
<g id="a_node7"><a xlink:href="../../db/ded/class_juniper_1_1_unity_1_1_input_1_1_pointers_1_1_pointer_data_creator.html" target="_top" xlink:title=" ">
<polygon fill="white" stroke="black" points="87.5,-1531 87.5,-1599 185.5,-1599 185.5,-1531 87.5,-1531"/>
<text text-anchor="middle" x="136.5" y="-1587" font-family="SegoeUI" font-size="10.00">PointerDataCreator</text>
<polyline fill="none" stroke="black" points="87.5,-1580 185.5,-1580 "/>
<text text-anchor="start" x="95.5" y="-1568" font-family="SegoeUI" font-size="10.00">+ PointerDataID</text>
<text text-anchor="start" x="95.5" y="-1557" font-family="SegoeUI" font-size="10.00">&#45; COUNTER</text>
<polyline fill="none" stroke="black" points="87.5,-1550 185.5,-1550 "/>
<text text-anchor="start" x="95.5" y="-1538" font-family="SegoeUI" font-size="10.00">+ Awake()</text>
</a>
</g>
</g>
<!-- Node6&#45;&gt;Node5 -->
<g id="edge6" class="edge"><title>Node6&#45;&gt;Node5</title>
<path fill="none" stroke="midnightblue" d="M150.954,-1521.03C165.129,-1478.9 187.846,-1411.37 210.443,-1344.2"/>
<polygon fill="none" stroke="midnightblue" points="147.585,-1520.07 147.714,-1530.67 154.22,-1522.3 147.585,-1520.07"/>
</g>
<!-- Node7 -->
<g id="node8" class="node"><title>Node7</title>
<g id="a_node8"><a xlink:title=" ">
<polygon fill="white" stroke="#bfbfbf" points="95.5,-1741.5 95.5,-1798.5 177.5,-1798.5 177.5,-1741.5 95.5,-1741.5"/>
<text text-anchor="middle" x="136.5" y="-1786.5" font-family="SegoeUI" font-size="10.00">MonoBehaviour</text>
<polyline fill="none" stroke="#bfbfbf" points="95.5,-1779.5 177.5,-1779.5 "/>
<text text-anchor="middle" x="136.5" y="-1767.5" font-family="SegoeUI" font-size="10.00"> </text>
<polyline fill="none" stroke="#bfbfbf" points="95.5,-1760.5 177.5,-1760.5 "/>
<text text-anchor="middle" x="136.5" y="-1748.5" font-family="SegoeUI" font-size="10.00"> </text>
</a>
</g>
</g>
<!-- Node7&#45;&gt;Node6 -->
<g id="edge7" class="edge"><title>Node7&#45;&gt;Node6</title>
<path fill="none" stroke="midnightblue" d="M136.5,-1731.06C136.5,-1693.12 136.5,-1635.35 136.5,-1599.18"/>
<polygon fill="none" stroke="midnightblue" points="133,-1731.2 136.5,-1741.2 140,-1731.2 133,-1731.2"/>
</g>
<!-- Node8 -->
<g id="node9" class="node"><title>Node8</title>
<g id="a_node9"><a xlink:href="../../db/d28/interface_juniper_1_1_i_installable.html" target="_top" xlink:title="Defines an interface for objects that can be installed and have their installation progress tracked.">
<polygon fill="white" stroke="black" points="0,-1525.5 0,-1604.5 69,-1604.5 69,-1525.5 0,-1525.5"/>
<text text-anchor="middle" x="34.5" y="-1592.5" font-family="SegoeUI" font-size="10.00">IInstallable</text>
<polyline fill="none" stroke="black" points="0,-1585.5 69,-1585.5 "/>
<text text-anchor="middle" x="34.5" y="-1573.5" font-family="SegoeUI" font-size="10.00"> </text>
<polyline fill="none" stroke="black" points="0,-1566.5 69,-1566.5 "/>
<text text-anchor="start" x="8" y="-1554.5" font-family="SegoeUI" font-size="10.00">+ Install()</text>
<text text-anchor="start" x="8" y="-1543.5" font-family="SegoeUI" font-size="10.00">+ Reinstall()</text>
<text text-anchor="start" x="8" y="-1532.5" font-family="SegoeUI" font-size="10.00">+ Uninstall()</text>
</a>
</g>
</g>
<!-- Node8&#45;&gt;Node5 -->
<g id="edge8" class="edge"><title>Node8&#45;&gt;Node5</title>
<path fill="none" stroke="midnightblue" d="M46.2358,-1515.33C53.6839,-1488.28 64.5556,-1454.43 78.5,-1426 114.644,-1352.32 167.483,-1276.23 210.328,-1219.65"/>
<polygon fill="none" stroke="midnightblue" points="42.7603,-1514.78 43.5496,-1525.35 49.5212,-1516.6 42.7603,-1514.78"/>
</g>
<!-- Node9 -->
<g id="node10" class="node"><title>Node9</title>
<g id="a_node10"><a xlink:href="../../d4/d43/interface_juniper_1_1_unity_1_1_input_1_1_pointers_1_1_i_pointer_device.html" target="_top" xlink:title=" ">
<polygon fill="white" stroke="black" points="379.5,-1426.5 379.5,-1703.5 503.5,-1703.5 503.5,-1426.5 379.5,-1426.5"/>
<text text-anchor="middle" x="441.5" y="-1691.5" font-family="SegoeUI" font-size="10.00">IPointerDevice</text>
<polyline fill="none" stroke="black" points="379.5,-1684.5 503.5,-1684.5 "/>
<text text-anchor="start" x="387.5" y="-1672.5" font-family="SegoeUI" font-size="10.00">+ EventTarget</text>
<text text-anchor="start" x="387.5" y="-1661.5" font-family="SegoeUI" font-size="10.00">+ InputModule</text>
<text text-anchor="start" x="387.5" y="-1650.5" font-family="SegoeUI" font-size="10.00">+ PointerDataID</text>
<text text-anchor="start" x="387.5" y="-1639.5" font-family="SegoeUI" font-size="10.00">+ ProbeName</text>
<text text-anchor="start" x="387.5" y="-1628.5" font-family="SegoeUI" font-size="10.00">+ ButtonType</text>
<text text-anchor="start" x="387.5" y="-1617.5" font-family="SegoeUI" font-size="10.00">+ isActiveAndEnabled</text>
<text text-anchor="start" x="387.5" y="-1606.5" font-family="SegoeUI" font-size="10.00">+ IsConnected</text>
<text text-anchor="start" x="387.5" y="-1595.5" font-family="SegoeUI" font-size="10.00">+ IsDisabled</text>
<text text-anchor="start" x="387.5" y="-1584.5" font-family="SegoeUI" font-size="10.00">+ IsEnabled</text>
<text text-anchor="start" x="387.5" y="-1573.5" font-family="SegoeUI" font-size="10.00">+ IsDragging</text>
<text text-anchor="start" x="387.5" y="-1562.5" font-family="SegoeUI" font-size="10.00">and 22 more...</text>
<polyline fill="none" stroke="black" points="379.5,-1555.5 503.5,-1555.5 "/>
<text text-anchor="start" x="387.5" y="-1543.5" font-family="SegoeUI" font-size="10.00">+ ViewportFromWorld()</text>
<text text-anchor="start" x="387.5" y="-1532.5" font-family="SegoeUI" font-size="10.00">+ ViewportFromScreen()</text>
<text text-anchor="start" x="387.5" y="-1521.5" font-family="SegoeUI" font-size="10.00">+ ScreenFromWorld()</text>
<text text-anchor="start" x="387.5" y="-1510.5" font-family="SegoeUI" font-size="10.00">+ ScreenFromViewport()</text>
<text text-anchor="start" x="387.5" y="-1499.5" font-family="SegoeUI" font-size="10.00">+ WorldFromScreen()</text>
<text text-anchor="start" x="387.5" y="-1488.5" font-family="SegoeUI" font-size="10.00">+ WorldFromViewport()</text>
<text text-anchor="start" x="387.5" y="-1477.5" font-family="SegoeUI" font-size="10.00">+ IsButtonDown()</text>
<text text-anchor="start" x="387.5" y="-1466.5" font-family="SegoeUI" font-size="10.00">+ IsButtonPressed()</text>
<text text-anchor="start" x="387.5" y="-1455.5" font-family="SegoeUI" font-size="10.00">+ IsButtonUp()</text>
<text text-anchor="start" x="387.5" y="-1444.5" font-family="SegoeUI" font-size="10.00">+ Process()</text>
<text text-anchor="start" x="387.5" y="-1433.5" font-family="SegoeUI" font-size="10.00">+ SetProbe()</text>
</a>
</g>
</g>
<!-- Node9&#45;&gt;Node5 -->
<g id="edge9" class="edge"><title>Node9&#45;&gt;Node5</title>
<path fill="none" stroke="midnightblue" d="M376.425,-1417.03C372.63,-1407.59 368.956,-1398.18 365.5,-1389 361.841,-1379.28 358.199,-1369.31 354.596,-1359.22"/>
<polygon fill="none" stroke="midnightblue" points="373.257,-1418.53 380.257,-1426.49 379.745,-1415.91 373.257,-1418.53"/>
</g>
<!-- Node11 -->
<g id="node12" class="node"><title>Node11</title>
<g id="a_node12"><a xlink:href="../../df/dcd/interface_juniper_1_1_unity_1_1_input_1_1_pointers_1_1_screen_1_1_i_screen_device.html" target="_top" xlink:title=" ">
<polygon fill="white" stroke="black" points="374.5,-1095 374.5,-1163 494.5,-1163 494.5,-1095 374.5,-1095"/>
<text text-anchor="middle" x="434.5" y="-1151" font-family="SegoeUI" font-size="10.00">IScreenDevice</text>
<polyline fill="none" stroke="black" points="374.5,-1144 494.5,-1144 "/>
<text text-anchor="start" x="382.5" y="-1132" font-family="SegoeUI" font-size="10.00">+ CameraPositionOffset</text>
<text text-anchor="start" x="382.5" y="-1121" font-family="SegoeUI" font-size="10.00">+ CameraRotationOffset</text>
<polyline fill="none" stroke="black" points="374.5,-1114 494.5,-1114 "/>
<text text-anchor="middle" x="434.5" y="-1102" font-family="SegoeUI" font-size="10.00"> </text>
</a>
</g>
</g>
<!-- Node9&#45;&gt;Node11 -->
<g id="edge12" class="edge"><title>Node9&#45;&gt;Node11</title>
<path fill="none" stroke="midnightblue" d="M439.117,-1416.26C437.654,-1325.54 435.9,-1216.79 435.035,-1163.2"/>
<polygon fill="none" stroke="midnightblue" points="435.619,-1416.44 439.28,-1426.38 442.619,-1416.33 435.619,-1416.44"/>
</g>
<!-- Node10 -->
<g id="node11" class="node"><title>Node10</title>
<g id="a_node11"><a xlink:href="../../dc/dc8/interface_juniper_1_1_input_1_1_pointers_1_1_i_pointer_buttons.html" target="_top" xlink:title="An interface for specifying how devices with buttons should behave.">
<polygon fill="white" stroke="black" points="203.5,-1520 203.5,-1610 361.5,-1610 361.5,-1520 203.5,-1520"/>
<text text-anchor="middle" x="282.5" y="-1598" font-family="SegoeUI" font-size="10.00">IPointerButtons&lt; ButtonIDType &gt;</text>
<polyline fill="none" stroke="black" points="203.5,-1591 361.5,-1591 "/>
<text text-anchor="start" x="211.5" y="-1579" font-family="SegoeUI" font-size="10.00">+ IsConnected</text>
<text text-anchor="start" x="211.5" y="-1568" font-family="SegoeUI" font-size="10.00">+ AnyButtonPressed</text>
<polyline fill="none" stroke="black" points="203.5,-1561 361.5,-1561 "/>
<text text-anchor="start" x="211.5" y="-1549" font-family="SegoeUI" font-size="10.00">+ IsButtonDown()</text>
<text text-anchor="start" x="211.5" y="-1538" font-family="SegoeUI" font-size="10.00">+ IsButtonPressed()</text>
<text text-anchor="start" x="211.5" y="-1527" font-family="SegoeUI" font-size="10.00">+ IsButtonUp()</text>
</a>
</g>
</g>
<!-- Node10&#45;&gt;Node5 -->
<g id="edge10" class="edge"><title>Node10&#45;&gt;Node5</title>
<path fill="none" stroke="midnightblue" d="M282.5,-1509.98C282.5,-1477.9 282.5,-1434.6 282.5,-1388.71"/>
<polygon fill="none" stroke="midnightblue" points="279,-1510 282.5,-1520 286,-1510 279,-1510"/>
</g>
<!-- Node11&#45;&gt;Node4 -->
<g id="edge11" class="edge"><title>Node11&#45;&gt;Node4</title>
<path fill="none" stroke="midnightblue" d="M426.849,-1084.6C415.489,-1020.17 394.218,-899.514 382.252,-831.645"/>
<polygon fill="none" stroke="midnightblue" points="423.468,-1085.58 428.651,-1094.82 430.362,-1084.37 423.468,-1085.58"/>
</g>
</g>
</svg>
        <g id="navigator" transform="translate(0 0)" fill="#404254">
                <rect fill="#f2f5e9" fill-opacity="0.5" stroke="#606060" stroke-width=".5" x="0" y="0" width="60" height="60"/>
                <use id="zoomplus" xlink:href="#zoomPlus" x="17" y="9" onmousedown="handleZoom(evt,'in')"/>
                <use id="zoomminus" xlink:href="#zoomMin" x="42" y="9" onmousedown="handleZoom(evt,'out')"/>
                <use id="reset" xlink:href="#resetDef" x="30" y="36" onmousedown="handleReset()"/>
                <g id="arrowUp" xlink:href="#dirArrow" transform="translate(30 24)" onmousedown="handlePan(0,-1)">
                  <use xlink:href="#rim" fill="#404040">
                        <set attributeName="fill" to="#808080" begin="arrowUp.mouseover" end="arrowUp.mouseout"/>
                  </use>
                  <path fill="none" stroke="white" stroke-width="1.5" d="M0,-3.0v7 M-2.5,-0.5L0,-3.0L2.5,-0.5"/>
                </g>
                <g id="arrowRight" xlink:href="#dirArrow" transform="rotate(90) translate(36 -43)" onmousedown="handlePan(1,0)">
                  <use xlink:href="#rim" fill="#404040">
                        <set attributeName="fill" to="#808080" begin="arrowRight.mouseover" end="arrowRight.mouseout"/>
                  </use>
                  <path fill="none" stroke="white" stroke-width="1.5" d="M0,-3.0v7 M-2.5,-0.5L0,-3.0L2.5,-0.5"/>
                </g>
                <g id="arrowDown" xlink:href="#dirArrow" transform="rotate(180) translate(-30 -48)" onmousedown="handlePan(0,1)">
                  <use xlink:href="#rim" fill="#404040">
                        <set attributeName="fill" to="#808080" begin="arrowDown.mouseover" end="arrowDown.mouseout"/>
                  </use>
                  <path fill="none" stroke="white" stroke-width="1.5" d="M0,-3.0v7 M-2.5,-0.5L0,-3.0L2.5,-0.5"/>
                </g>
                <g id="arrowLeft" xlink:href="#dirArrow" transform="rotate(270) translate(-36 17)" onmousedown="handlePan(-1,0)">
                  <use xlink:href="#rim" fill="#404040">
                        <set attributeName="fill" to="#808080" begin="arrowLeft.mouseover" end="arrowLeft.mouseout"/>
                  </use>
                  <path fill="none" stroke="white" stroke-width="1.5" d="M0,-3.0v7 M-2.5,-0.5L0,-3.0L2.5,-0.5"/>
                </g>
        </g>
        <svg viewBox="0 0 15 15" width="100%" height="30px" preserveAspectRatio="xMaxYMin meet">
         <g id="arrow_out" transform="scale(0.3 0.3)">
          <a xlink:href="class_juniper_1_1_unity_1_1_input_1_1_pointers_1_1_gaze_1_1_nose_pointer__inherit__graph_org.svg" target="_base">
           <rect id="button" ry="5" rx="5" y="6" x="6" height="38" width="38"
                fill="#f2f5e9" fill-opacity="0.5" stroke="#606060" stroke-width="1.0"/>
           <path id="arrow"
             d="M 11.500037,31.436501 C 11.940474,20.09759 22.043105,11.32322 32.158766,21.979434 L 37.068811,17.246167 C 37.068811,17.246167 37.088388,32 37.088388,32 L 22.160133,31.978069 C 22.160133,31.978069 26.997745,27.140456 26.997745,27.140456 C 18.528582,18.264221 13.291696,25.230495 11.500037,31.436501 z"
             style="fill:#404040;"/>
          </a>
         </g>
        </svg>
</svg>
