<?xml version="1.0" encoding="UTF-8" standalone="no"?>
<!DOCTYPE svg PUBLIC "-//W3C//DTD SVG 1.1//EN"
 "http://www.w3.org/Graphics/SVG/1.1/DTD/svg11.dtd">
<!-- Generated by graphviz version 2.38.0 (20140413.2041)
 -->
<!-- Title: Juniper.Widgets.IValuedControl&lt; T &gt; Pages: 1 -->
<svg width="394pt" height="856pt"
 viewBox="0.00 0.00 393.50 856.00" xmlns="http://www.w3.org/2000/svg" xmlns:xlink="http://www.w3.org/1999/xlink">
<g id="graph0" class="graph" transform="scale(1 1) rotate(0) translate(4 852)">
<title>Juniper.Widgets.IValuedControl&lt; T &gt;</title>
<polygon fill="white" stroke="none" points="-4,4 -4,-852 389.5,-852 389.5,4 -4,4"/>
<!-- Node0 -->
<g id="node1" class="node"><title>Node0</title>
<g id="a_node1"><a xlink:title=" ">
<polygon fill="#bfbfbf" stroke="black" points="180.5,-790.5 180.5,-847.5 356.5,-847.5 356.5,-790.5 180.5,-790.5"/>
<text text-anchor="middle" x="268.5" y="-835.5" font-family="SegoeUI" font-size="10.00">Juniper.Widgets.IValuedControl&lt; T &gt;</text>
<polyline fill="none" stroke="black" points="180.5,-828.5 356.5,-828.5 "/>
<text text-anchor="start" x="188.5" y="-816.5" font-family="SegoeUI" font-size="10.00">+ value</text>
<polyline fill="none" stroke="black" points="180.5,-809.5 356.5,-809.5 "/>
<text text-anchor="middle" x="268.5" y="-797.5" font-family="SegoeUI" font-size="10.00"> </text>
</a>
</g>
</g>
<!-- Node1 -->
<g id="node2" class="node"><title>Node1</title>
<g id="a_node2"><a xlink:href="../../d0/d32/interface_juniper_1_1_widgets_1_1_i_valued_control.html" target="_top" xlink:title=" ">
<polygon fill="white" stroke="black" points="193,-674.5 193,-742.5 344,-742.5 344,-674.5 193,-674.5"/>
<text text-anchor="start" x="201" y="-730.5" font-family="SegoeUI" font-size="10.00">Juniper.Widgets.IValuedControl</text>
<text text-anchor="middle" x="268.5" y="-719.5" font-family="SegoeUI" font-size="10.00">&lt; float &gt;</text>
<polyline fill="none" stroke="black" points="193,-712.5 344,-712.5 "/>
<text text-anchor="start" x="201" y="-700.5" font-family="SegoeUI" font-size="10.00">+ value</text>
<polyline fill="none" stroke="black" points="193,-693.5 344,-693.5 "/>
<text text-anchor="middle" x="268.5" y="-681.5" font-family="SegoeUI" font-size="10.00"> </text>
</a>
</g>
</g>
<!-- Node0&#45;&gt;Node1 -->
<g id="edge1" class="edge"><title>Node0&#45;&gt;Node1</title>
<path fill="none" stroke="orange" d="M268.5,-779.987C268.5,-767.771 268.5,-754.346 268.5,-742.519"/>
<polygon fill="orange" stroke="orange" points="265,-780.34 268.5,-790.34 272,-780.34 265,-780.34"/>
<text text-anchor="middle" x="289.5" y="-764" font-family="SegoeUI" font-size="10.00"> &lt; float &gt;</text>
</g>
<!-- Node2 -->
<g id="node3" class="node"><title>Node2</title>
<g id="a_node3"><a xlink:href="../../dd/d30/class_juniper_1_1_widgets_1_1_abstract_valued.html" target="_top" xlink:title="The Valued component adds a float field and range of valid values for that field to a Touchable objec...">
<polygon fill="white" stroke="black" points="78,-227.5 78,-636.5 215,-636.5 215,-227.5 78,-227.5"/>
<text text-anchor="start" x="86" y="-624.5" font-family="SegoeUI" font-size="10.00">Juniper.Widgets.Abstract</text>
<text text-anchor="middle" x="146.5" y="-613.5" font-family="SegoeUI" font-size="10.00">Valued</text>
<polyline fill="none" stroke="black" points="78,-606.5 215,-606.5 "/>
<text text-anchor="start" x="86" y="-594.5" font-family="SegoeUI" font-size="10.00">+ Display</text>
<text text-anchor="start" x="86" y="-583.5" font-family="SegoeUI" font-size="10.00">+ SigFigs</text>
<text text-anchor="start" x="86" y="-572.5" font-family="SegoeUI" font-size="10.00">+ minValue</text>
<text text-anchor="start" x="86" y="-561.5" font-family="SegoeUI" font-size="10.00">+ maxValue</text>
<text text-anchor="start" x="86" y="-550.5" font-family="SegoeUI" font-size="10.00">+ _value</text>
<text text-anchor="start" x="86" y="-539.5" font-family="SegoeUI" font-size="10.00">+ Dragged</text>
<text text-anchor="start" x="86" y="-528.5" font-family="SegoeUI" font-size="10.00">+ value</text>
<text text-anchor="start" x="86" y="-517.5" font-family="SegoeUI" font-size="10.00">+ Delta</text>
<text text-anchor="start" x="86" y="-506.5" font-family="SegoeUI" font-size="10.00">+ DraggedChanged</text>
<text text-anchor="start" x="86" y="-495.5" font-family="SegoeUI" font-size="10.00">+ DraggedDown</text>
<text text-anchor="start" x="86" y="-484.5" font-family="SegoeUI" font-size="10.00">+ DraggedUp</text>
<text text-anchor="start" x="86" y="-473.5" font-family="SegoeUI" font-size="10.00">+ ValueChanged</text>
<text text-anchor="start" x="86" y="-462.5" font-family="SegoeUI" font-size="10.00">+ ConstraintRange</text>
<text text-anchor="start" x="86" y="-451.5" font-family="SegoeUI" font-size="10.00"># dragDistance</text>
<text text-anchor="start" x="86" y="-440.5" font-family="SegoeUI" font-size="10.00"># interactionPoint</text>
<text text-anchor="start" x="86" y="-429.5" font-family="SegoeUI" font-size="10.00"># interactionOffset</text>
<text text-anchor="start" x="86" y="-418.5" font-family="SegoeUI" font-size="10.00"># velocity</text>
<text text-anchor="start" x="86" y="-407.5" font-family="SegoeUI" font-size="10.00"># angVel</text>
<text text-anchor="start" x="86" y="-396.5" font-family="SegoeUI" font-size="10.00"># camT</text>
<text text-anchor="start" x="86" y="-385.5" font-family="SegoeUI" font-size="10.00"># grabOffset</text>
<text text-anchor="start" x="86" y="-374.5" font-family="SegoeUI" font-size="10.00"># internalValue</text>
<text text-anchor="start" x="86" y="-363.5" font-family="SegoeUI" font-size="10.00">&#45; wasDragged</text>
<text text-anchor="start" x="86" y="-352.5" font-family="SegoeUI" font-size="10.00">&#45; lastValue</text>
<text text-anchor="start" x="86" y="-341.5" font-family="SegoeUI" font-size="10.00">&#45; lastTickValue</text>
<polyline fill="none" stroke="black" points="78,-334.5 215,-334.5 "/>
<text text-anchor="start" x="86" y="-322.5" font-family="SegoeUI" font-size="10.00">+ SetValue()</text>
<text text-anchor="start" x="86" y="-311.5" font-family="SegoeUI" font-size="10.00">+ OnInitializePotentialDrag()</text>
<text text-anchor="start" x="86" y="-300.5" font-family="SegoeUI" font-size="10.00">+ OnBeginDrag()</text>
<text text-anchor="start" x="86" y="-289.5" font-family="SegoeUI" font-size="10.00">+ OnDrag()</text>
<text text-anchor="start" x="86" y="-278.5" font-family="SegoeUI" font-size="10.00">+ OnDrop()</text>
<text text-anchor="start" x="86" y="-267.5" font-family="SegoeUI" font-size="10.00">+ OnEndDrag()</text>
<text text-anchor="start" x="86" y="-256.5" font-family="SegoeUI" font-size="10.00"># LateUpdate()</text>
<text text-anchor="start" x="86" y="-245.5" font-family="SegoeUI" font-size="10.00"># UpdateInternalValue()</text>
<text text-anchor="start" x="86" y="-234.5" font-family="SegoeUI" font-size="10.00"># ResetInternalValue()</text>
</a>
</g>
</g>
<!-- Node1&#45;&gt;Node2 -->
<g id="edge2" class="edge"><title>Node1&#45;&gt;Node2</title>
<path fill="none" stroke="midnightblue" d="M240.501,-665.576C234.862,-656.351 229.223,-646.496 224.5,-637 221.291,-630.55 218.13,-623.933 215.025,-617.21"/>
<polygon fill="none" stroke="midnightblue" points="237.615,-667.563 245.877,-674.196 243.554,-663.859 237.615,-667.563"/>
</g>
<!-- Node5 -->
<g id="node6" class="node"><title>Node5</title>
<g id="a_node6"><a xlink:href="../../d4/dcc/class_juniper_1_1_widgets_1_1_unity_slider_adapter.html" target="_top" xlink:title=" ">
<polygon fill="white" stroke="black" points="233.5,-387 233.5,-477 385.5,-477 385.5,-387 233.5,-387"/>
<text text-anchor="start" x="241.5" y="-465" font-family="SegoeUI" font-size="10.00">Juniper.Widgets.UnitySlider</text>
<text text-anchor="middle" x="309.5" y="-454" font-family="SegoeUI" font-size="10.00">Adapter</text>
<polyline fill="none" stroke="black" points="233.5,-447 385.5,-447 "/>
<text text-anchor="start" x="241.5" y="-435" font-family="SegoeUI" font-size="10.00">+ value</text>
<text text-anchor="start" x="241.5" y="-424" font-family="SegoeUI" font-size="10.00">&#45; element</text>
<polyline fill="none" stroke="black" points="233.5,-417 385.5,-417 "/>
<text text-anchor="start" x="241.5" y="-405" font-family="SegoeUI" font-size="10.00">+ operator UnitySliderAdapter()</text>
<text text-anchor="start" x="241.5" y="-394" font-family="SegoeUI" font-size="10.00">&#45; UnitySliderAdapter()</text>
</a>
</g>
</g>
<!-- Node1&#45;&gt;Node5 -->
<g id="edge5" class="edge"><title>Node1&#45;&gt;Node5</title>
<path fill="none" stroke="midnightblue" d="M274.948,-664.328C282.58,-613.234 295.219,-528.611 302.912,-477.11"/>
<polygon fill="none" stroke="midnightblue" points="271.461,-663.982 273.446,-674.389 278.384,-665.016 271.461,-663.982"/>
</g>
<!-- Node3 -->
<g id="node4" class="node"><title>Node3</title>
<g id="a_node4"><a xlink:href="../../d9/d93/class_juniper_1_1_widgets_1_1_draggable.html" target="_top" xlink:title="An object that can be picked up and put down in a new location.">
<polygon fill="white" stroke="black" points="0,-0.5 0,-189.5 141,-189.5 141,-0.5 0,-0.5"/>
<text text-anchor="middle" x="70.5" y="-177.5" font-family="SegoeUI" font-size="10.00">Juniper.Widgets.Draggable</text>
<polyline fill="none" stroke="black" points="0,-170.5 141,-170.5 "/>
<text text-anchor="start" x="8" y="-158.5" font-family="SegoeUI" font-size="10.00">+ constrainMotion</text>
<text text-anchor="start" x="8" y="-147.5" font-family="SegoeUI" font-size="10.00">+ rotateWhileDragging</text>
<text text-anchor="start" x="8" y="-136.5" font-family="SegoeUI" font-size="10.00">+ TrackStart</text>
<text text-anchor="start" x="8" y="-125.5" font-family="SegoeUI" font-size="10.00">+ TrackEnd</text>
<text text-anchor="start" x="8" y="-114.5" font-family="SegoeUI" font-size="10.00">&#45; MotionConstraintStartName</text>
<text text-anchor="start" x="8" y="-103.5" font-family="SegoeUI" font-size="10.00">&#45; MotionConstraintEndName</text>
<text text-anchor="start" x="8" y="-92.5" font-family="SegoeUI" font-size="10.00">&#45; motionConstraintStart</text>
<text text-anchor="start" x="8" y="-81.5" font-family="SegoeUI" font-size="10.00">&#45; motionConstraintEnd</text>
<text text-anchor="start" x="8" y="-70.5" font-family="SegoeUI" font-size="10.00">&#45; lastCamPosition</text>
<polyline fill="none" stroke="black" points="0,-63.5 141,-63.5 "/>
<text text-anchor="start" x="8" y="-51.5" font-family="SegoeUI" font-size="10.00">+ OnValidate()</text>
<text text-anchor="start" x="8" y="-40.5" font-family="SegoeUI" font-size="10.00">+ OnDrag()</text>
<text text-anchor="start" x="8" y="-29.5" font-family="SegoeUI" font-size="10.00"># LateUpdate()</text>
<text text-anchor="start" x="8" y="-18.5" font-family="SegoeUI" font-size="10.00">&#45; ResolveConstraint()</text>
<text text-anchor="start" x="8" y="-7.5" font-family="SegoeUI" font-size="10.00">&#45; DestroyConstraint()</text>
</a>
</g>
</g>
<!-- Node2&#45;&gt;Node3 -->
<g id="edge3" class="edge"><title>Node2&#45;&gt;Node3</title>
<path fill="none" stroke="midnightblue" d="M98.0503,-217.439C95.889,-207.912 93.7765,-198.6 91.744,-189.642"/>
<polygon fill="none" stroke="midnightblue" points="94.6933,-218.462 100.319,-227.439 101.52,-216.913 94.6933,-218.462"/>
</g>
<!-- Node4 -->
<g id="node5" class="node"><title>Node4</title>
<g id="a_node5"><a xlink:href="../../d7/d7d/class_juniper_1_1_widgets_1_1_rotatable.html" target="_top" xlink:title="A control that is rotatable in a single axis at a time.">
<polygon fill="white" stroke="black" points="159.5,-0.5 159.5,-189.5 287.5,-189.5 287.5,-0.5 159.5,-0.5"/>
<text text-anchor="middle" x="223.5" y="-177.5" font-family="SegoeUI" font-size="10.00">Juniper.Widgets.Rotatable</text>
<polyline fill="none" stroke="black" points="159.5,-170.5 287.5,-170.5 "/>
<text text-anchor="start" x="167.5" y="-158.5" font-family="SegoeUI" font-size="10.00">+ rotationAxis</text>
<text text-anchor="start" x="167.5" y="-147.5" font-family="SegoeUI" font-size="10.00">+ InterpolationScale</text>
<text text-anchor="start" x="167.5" y="-136.5" font-family="SegoeUI" font-size="10.00">+ ConstraintRange</text>
<text text-anchor="start" x="167.5" y="-125.5" font-family="SegoeUI" font-size="10.00">&#45; lastInteractionPoint</text>
<text text-anchor="start" x="167.5" y="-114.5" font-family="SegoeUI" font-size="10.00">&#45; amount</text>
<text text-anchor="start" x="167.5" y="-103.5" font-family="SegoeUI" font-size="10.00">&#45; angleCorrector</text>
<text text-anchor="start" x="167.5" y="-92.5" font-family="SegoeUI" font-size="10.00">&#45; startValue</text>
<text text-anchor="start" x="167.5" y="-81.5" font-family="SegoeUI" font-size="10.00">&#45; endValue</text>
<polyline fill="none" stroke="black" points="159.5,-74.5 287.5,-74.5 "/>
<text text-anchor="start" x="167.5" y="-62.5" font-family="SegoeUI" font-size="10.00">+ OnEnable()</text>
<text text-anchor="start" x="167.5" y="-51.5" font-family="SegoeUI" font-size="10.00">+ OnDisable()</text>
<text text-anchor="start" x="167.5" y="-40.5" font-family="SegoeUI" font-size="10.00">+ OnBeginDrag()</text>
<text text-anchor="start" x="167.5" y="-29.5" font-family="SegoeUI" font-size="10.00">+ OnDrag()</text>
<text text-anchor="start" x="167.5" y="-18.5" font-family="SegoeUI" font-size="10.00">+ Awake()</text>
<text text-anchor="start" x="167.5" y="-7.5" font-family="SegoeUI" font-size="10.00">+ Update()</text>
</a>
</g>
</g>
<!-- Node2&#45;&gt;Node4 -->
<g id="edge4" class="edge"><title>Node2&#45;&gt;Node4</title>
<path fill="none" stroke="midnightblue" d="M195.587,-217.439C197.777,-207.912 199.917,-198.6 201.976,-189.642"/>
<polygon fill="none" stroke="midnightblue" points="192.118,-216.909 193.289,-227.439 198.94,-218.478 192.118,-216.909"/>
</g>
</g>
</svg>
