<?xml version="1.0" encoding="UTF-8" standalone="no"?>
<!DOCTYPE svg PUBLIC "-//W3C//DTD SVG 1.1//EN"
 "http://www.w3.org/Graphics/SVG/1.1/DTD/svg11.dtd">
<!-- Generated by graphviz version 2.38.0 (20140413.2041)
 -->
<!-- Title: Juniper.Input.Pointers.Gaze.TobiiGazePointer Pages: 1 -->
<!--zoomable 1559 -->
<svg id="main" version="1.1" xmlns="http://www.w3.org/2000/svg" xmlns:xlink="http://www.w3.org/1999/xlink" xml:space="preserve" onload="init(evt)">
<style type="text/css"><![CDATA[
.edge:hover path { stroke: red; }
.edge:hover polygon { stroke: red; fill: red; }
]]></style>
<script type="text/javascript"><![CDATA[
var edges = document.getElementsByTagName('g');
if (edges && edges.length) {
  for (var i=0;i<edges.length;i++) {
    if (edges[i].id.substr(0,4)=='edge') {
      edges[i].setAttribute('class','edge');
    }
  }
}
]]></script>
        <defs>
                <circle id="rim" cx="0" cy="0" r="7"/>
                <circle id="rim2" cx="0" cy="0" r="3.5"/>
                <g id="zoomPlus">
                        <use xlink:href="#rim" fill="#404040">
                                <set attributeName="fill" to="#808080" begin="zoomplus.mouseover" end="zoomplus.mouseout"/>
                        </use>
                        <path d="M-4,0h8M0,-4v8" fill="none" stroke="white" stroke-width="1.5" pointer-events="none"/>
                </g>
                <g id="zoomMin">
                        <use xlink:href="#rim" fill="#404040">
                                <set attributeName="fill" to="#808080" begin="zoomminus.mouseover" end="zoomminus.mouseout"/>
                        </use>
                        <path d="M-4,0h8" fill="none" stroke="white" stroke-width="1.5" pointer-events="none"/>
                </g>
                <g id="dirArrow">
                        <path fill="none" stroke="white" stroke-width="1.5" d="M0,-3.0v7 M-2.5,-0.5L0,-3.0L2.5,-0.5"/>
                </g>
               <g id="resetDef">
                       <use xlink:href="#rim2" fill="#404040">
                               <set attributeName="fill" to="#808080" begin="reset.mouseover" end="reset.mouseout"/>
                       </use>
               </g>
        </defs>

<script type="text/javascript">
var viewWidth = 533;
var viewHeight = 1559;
var sectionId = 'dynsection-0';
</script>
<script xlink:href="../../svgpan.js"/>
<svg id="graph" class="graph">
<g id="viewport">
<title>Juniper.Input.Pointers.Gaze.TobiiGazePointer</title>
<polygon fill="white" stroke="none" points="-4,4 -4,-1555 528.5,-1555 528.5,4 -4,4"/>
<!-- Node0 -->
<g id="node1" class="node"><title>Node0</title>
<g id="a_node1"><a xlink:title=" ">
<polygon fill="#bfbfbf" stroke="black" points="290,-106.5 290,-218.5 427,-218.5 427,-106.5 290,-106.5"/>
<text text-anchor="start" x="298" y="-206.5" font-family="SegoeUI" font-size="10.00">Juniper.Input.Pointers.Gaze.</text>
<text text-anchor="middle" x="358.5" y="-195.5" font-family="SegoeUI" font-size="10.00">TobiiGazePointer</text>
<polyline fill="none" stroke="black" points="290,-188.5 427,-188.5 "/>
<text text-anchor="start" x="298" y="-176.5" font-family="SegoeUI" font-size="10.00">+ IsConnected</text>
<text text-anchor="start" x="298" y="-165.5" font-family="SegoeUI" font-size="10.00">+ WorldPoint</text>
<text text-anchor="start" x="298" y="-154.5" font-family="SegoeUI" font-size="10.00">+ CameraPositionOffset</text>
<text text-anchor="start" x="298" y="-143.5" font-family="SegoeUI" font-size="10.00">&#45; lastGaze</text>
<text text-anchor="start" x="298" y="-132.5" font-family="SegoeUI" font-size="10.00">&#45; lastPose</text>
<polyline fill="none" stroke="black" points="290,-125.5 427,-125.5 "/>
<text text-anchor="middle" x="358.5" y="-113.5" font-family="SegoeUI" font-size="10.00"> </text>
</a>
</g>
</g>
<!-- Node10 -->
<g id="node11" class="node"><title>Node10</title>
<g id="a_node11"><a xlink:href="../../d2/d9a/class_juniper_1_1_input_1_1_pointers_1_1_gaze_1_1_gaze_pointer.html" target="_top" xlink:title=" ">
<polygon fill="white" stroke="black" points="290,-0.5 290,-68.5 427,-68.5 427,-0.5 290,-0.5"/>
<text text-anchor="start" x="298" y="-56.5" font-family="SegoeUI" font-size="10.00">Juniper.Input.Pointers.Gaze.</text>
<text text-anchor="middle" x="358.5" y="-45.5" font-family="SegoeUI" font-size="10.00">GazePointer</text>
<polyline fill="none" stroke="black" points="290,-38.5 427,-38.5 "/>
<text text-anchor="middle" x="358.5" y="-26.5" font-family="SegoeUI" font-size="10.00"> </text>
<polyline fill="none" stroke="black" points="290,-19.5 427,-19.5 "/>
<text text-anchor="middle" x="358.5" y="-7.5" font-family="SegoeUI" font-size="10.00"> </text>
</a>
</g>
</g>
<!-- Node0&#45;&gt;Node10 -->
<g id="edge11" class="edge"><title>Node0&#45;&gt;Node10</title>
<path fill="none" stroke="midnightblue" d="M358.5,-95.9612C358.5,-86.4839 358.5,-77.0833 358.5,-68.6192"/>
<polygon fill="none" stroke="midnightblue" points="355,-96.2345 358.5,-106.235 362,-96.2346 355,-96.2345"/>
</g>
<!-- Node1 -->
<g id="node2" class="node"><title>Node1</title>
<g id="a_node2"><a xlink:href="../../d9/df7/class_juniper_1_1_input_1_1_pointers_1_1_gaze_1_1_abstract_gaze_pointer.html" target="_top" xlink:title=" ">
<polygon fill="white" stroke="black" points="301,-256.5 301,-445.5 416,-445.5 416,-256.5 301,-256.5"/>
<text text-anchor="middle" x="358.5" y="-433.5" font-family="SegoeUI" font-size="10.00">AbstractGazePointer</text>
<polyline fill="none" stroke="black" points="301,-426.5 416,-426.5 "/>
<text text-anchor="start" x="309" y="-414.5" font-family="SegoeUI" font-size="10.00">+ gazeThreshold</text>
<text text-anchor="start" x="309" y="-403.5" font-family="SegoeUI" font-size="10.00">+ IsConnected</text>
<text text-anchor="start" x="309" y="-392.5" font-family="SegoeUI" font-size="10.00"># gazed</text>
<text text-anchor="start" x="309" y="-381.5" font-family="SegoeUI" font-size="10.00">&#45; wasGazed</text>
<text text-anchor="start" x="309" y="-370.5" font-family="SegoeUI" font-size="10.00">&#45; lastTarget</text>
<text text-anchor="start" x="309" y="-359.5" font-family="SegoeUI" font-size="10.00">&#45; gazeTime</text>
<text text-anchor="start" x="309" y="-348.5" font-family="SegoeUI" font-size="10.00">&#45; target</text>
<polyline fill="none" stroke="black" points="301,-341.5 416,-341.5 "/>
<text text-anchor="start" x="309" y="-329.5" font-family="SegoeUI" font-size="10.00">+ IsButtonPressed()</text>
<text text-anchor="start" x="309" y="-318.5" font-family="SegoeUI" font-size="10.00">+ IsButtonDown()</text>
<text text-anchor="start" x="309" y="-307.5" font-family="SegoeUI" font-size="10.00">+ IsButtonUp()</text>
<text text-anchor="start" x="309" y="-296.5" font-family="SegoeUI" font-size="10.00">+ OnProbeFound()</text>
<text text-anchor="start" x="309" y="-285.5" font-family="SegoeUI" font-size="10.00">+ Process()</text>
<text text-anchor="start" x="309" y="-274.5" font-family="SegoeUI" font-size="10.00"># InternalUpdate()</text>
<text text-anchor="start" x="309" y="-263.5" font-family="SegoeUI" font-size="10.00"># MakeHapticsDevice()</text>
</a>
</g>
</g>
<!-- Node1&#45;&gt;Node0 -->
<g id="edge1" class="edge"><title>Node1&#45;&gt;Node0</title>
<path fill="none" stroke="midnightblue" d="M358.5,-246.443C358.5,-236.85 358.5,-227.404 358.5,-218.518"/>
<polygon fill="none" stroke="midnightblue" points="355,-246.477 358.5,-256.477 362,-246.477 355,-246.477"/>
</g>
<!-- Node2 -->
<g id="node3" class="node"><title>Node2</title>
<g id="a_node3"><a xlink:href="../../d5/d55/class_juniper_1_1_input_1_1_pointers_1_1_screen_1_1_abstract_screen_device.html" target="_top" xlink:title=" ">
<polygon fill="white" stroke="black" points="269,-483.5 269,-562.5 448,-562.5 448,-483.5 269,-483.5"/>
<text text-anchor="start" x="277" y="-550.5" font-family="SegoeUI" font-size="10.00">AbstractScreenDevice</text>
<text text-anchor="middle" x="358.5" y="-539.5" font-family="SegoeUI" font-size="10.00">&lt; Unary, UnaryPointerConfiguration &gt;</text>
<polyline fill="none" stroke="black" points="269,-532.5 448,-532.5 "/>
<text text-anchor="start" x="277" y="-520.5" font-family="SegoeUI" font-size="10.00">+ CameraPositionOffset</text>
<text text-anchor="start" x="277" y="-509.5" font-family="SegoeUI" font-size="10.00">+ CameraRotationOffset</text>
<polyline fill="none" stroke="black" points="269,-502.5 448,-502.5 "/>
<text text-anchor="middle" x="358.5" y="-490.5" font-family="SegoeUI" font-size="10.00"> </text>
</a>
</g>
</g>
<!-- Node2&#45;&gt;Node1 -->
<g id="edge2" class="edge"><title>Node2&#45;&gt;Node1</title>
<path fill="none" stroke="midnightblue" d="M358.5,-473.398C358.5,-464.579 358.5,-455.116 358.5,-445.507"/>
<polygon fill="none" stroke="midnightblue" points="355,-473.424 358.5,-483.424 362,-473.424 355,-473.424"/>
</g>
<!-- Node3 -->
<g id="node4" class="node"><title>Node3</title>
<g id="a_node4"><a xlink:href="../../d5/d55/class_juniper_1_1_input_1_1_pointers_1_1_screen_1_1_abstract_screen_device.html" target="_top" xlink:title="A ScreenDevice is a AbstractPointerDevice&lt;ButtonIDType, ConfigType&gt; that has its primary pointer inte...">
<polygon fill="white" stroke="black" points="269,-610.5 269,-700.5 448,-700.5 448,-610.5 269,-610.5"/>
<text text-anchor="start" x="277" y="-688.5" font-family="SegoeUI" font-size="10.00">Juniper.Input.Pointers.Screen.</text>
<text text-anchor="start" x="277" y="-677.5" font-family="SegoeUI" font-size="10.00">AbstractScreenDevice&lt; ButtonIDType,</text>
<text text-anchor="middle" x="358.5" y="-666.5" font-family="SegoeUI" font-size="10.00"> ConfigType &gt;</text>
<polyline fill="none" stroke="black" points="269,-659.5 448,-659.5 "/>
<text text-anchor="start" x="277" y="-647.5" font-family="SegoeUI" font-size="10.00">+ CameraPositionOffset</text>
<text text-anchor="start" x="277" y="-636.5" font-family="SegoeUI" font-size="10.00">+ CameraRotationOffset</text>
<polyline fill="none" stroke="black" points="269,-629.5 448,-629.5 "/>
<text text-anchor="middle" x="358.5" y="-617.5" font-family="SegoeUI" font-size="10.00"> </text>
</a>
</g>
</g>
<!-- Node3&#45;&gt;Node2 -->
<g id="edge3" class="edge"><title>Node3&#45;&gt;Node2</title>
<path fill="none" stroke="orange" d="M358.5,-600.016C358.5,-587.55 358.5,-574.545 358.5,-562.889"/>
<polygon fill="orange" stroke="orange" points="355,-600.319 358.5,-610.319 362,-600.319 355,-600.319"/>
<text text-anchor="middle" x="441.5" y="-584" font-family="SegoeUI" font-size="10.00"> &lt; Unary, UnaryPointerConfiguration &gt;</text>
</g>
<!-- Node4 -->
<g id="node5" class="node"><title>Node4</title>
<g id="a_node5"><a xlink:href="../../da/d81/class_juniper_1_1_input_1_1_pointers_1_1_abstract_pointer_device.html" target="_top" xlink:title=" ">
<polygon fill="white" stroke="black" points="193,-738.5 193,-1235.5 340,-1235.5 340,-738.5 193,-738.5"/>
<text text-anchor="start" x="201" y="-1223.5" font-family="SegoeUI" font-size="10.00">AbstractPointerDevice</text>
<text text-anchor="middle" x="266.5" y="-1212.5" font-family="SegoeUI" font-size="10.00">&lt; ButtonIDType, ConfigType &gt;</text>
<polyline fill="none" stroke="black" points="193,-1205.5 340,-1205.5 "/>
<text text-anchor="start" x="201" y="-1193.5" font-family="SegoeUI" font-size="10.00">+ Connected</text>
<text text-anchor="start" x="201" y="-1182.5" font-family="SegoeUI" font-size="10.00">+ LaserPointerMaterial</text>
<text text-anchor="start" x="201" y="-1171.5" font-family="SegoeUI" font-size="10.00">+ showProbe</text>
<text text-anchor="start" x="201" y="-1160.5" font-family="SegoeUI" font-size="10.00">+ motionFilter</text>
<text text-anchor="start" x="201" y="-1149.5" font-family="SegoeUI" font-size="10.00">+ ButtonType</text>
<text text-anchor="start" x="201" y="-1138.5" font-family="SegoeUI" font-size="10.00">+ PointerDataID</text>
<text text-anchor="start" x="201" y="-1127.5" font-family="SegoeUI" font-size="10.00">+ MinimumPointerDistance</text>
<text text-anchor="start" x="201" y="-1116.5" font-family="SegoeUI" font-size="10.00">+ MaximumPointerDistance</text>
<text text-anchor="start" x="201" y="-1105.5" font-family="SegoeUI" font-size="10.00">+ Layer</text>
<text text-anchor="start" x="201" y="-1094.5" font-family="SegoeUI" font-size="10.00">+ LockedOnTarget</text>
<text text-anchor="start" x="201" y="-1083.5" font-family="SegoeUI" font-size="10.00">+ EventTarget</text>
<text text-anchor="start" x="201" y="-1072.5" font-family="SegoeUI" font-size="10.00">+ IsConnected</text>
<text text-anchor="start" x="201" y="-1061.5" font-family="SegoeUI" font-size="10.00">+ IsEnabled</text>
<text text-anchor="start" x="201" y="-1050.5" font-family="SegoeUI" font-size="10.00">+ IsDisabled</text>
<text text-anchor="start" x="201" y="-1039.5" font-family="SegoeUI" font-size="10.00">and 24 more...</text>
<text text-anchor="start" x="201" y="-1028.5" font-family="SegoeUI" font-size="10.00"># nativeButtons</text>
<text text-anchor="start" x="201" y="-1017.5" font-family="SegoeUI" font-size="10.00"># pointerOffset</text>
<text text-anchor="start" x="201" y="-1006.5" font-family="SegoeUI" font-size="10.00"># probe</text>
<text text-anchor="start" x="201" y="-995.5" font-family="SegoeUI" font-size="10.00"># eventManager</text>
<text text-anchor="start" x="201" y="-984.5" font-family="SegoeUI" font-size="10.00"># stage</text>
<text text-anchor="start" x="201" y="-973.5" font-family="SegoeUI" font-size="10.00"># VIEWPORT_MIDPOINT</text>
<text text-anchor="start" x="201" y="-962.5" font-family="SegoeUI" font-size="10.00"># PointerConfig</text>
<text text-anchor="start" x="201" y="-951.5" font-family="SegoeUI" font-size="10.00">&#45; lastMotionFilter</text>
<text text-anchor="start" x="201" y="-940.5" font-family="SegoeUI" font-size="10.00">&#45; finishTime</text>
<text text-anchor="start" x="201" y="-929.5" font-family="SegoeUI" font-size="10.00">&#45; lastAction</text>
<polyline fill="none" stroke="black" points="193,-922.5 340,-922.5 "/>
<text text-anchor="start" x="201" y="-910.5" font-family="SegoeUI" font-size="10.00">+ AddButton()</text>
<text text-anchor="start" x="201" y="-899.5" font-family="SegoeUI" font-size="10.00">+ RemoveButton()</text>
<text text-anchor="start" x="201" y="-888.5" font-family="SegoeUI" font-size="10.00">+ Awake()</text>
<text text-anchor="start" x="201" y="-877.5" font-family="SegoeUI" font-size="10.00">+ Start()</text>
<text text-anchor="start" x="201" y="-866.5" font-family="SegoeUI" font-size="10.00">+ Install()</text>
<text text-anchor="start" x="201" y="-855.5" font-family="SegoeUI" font-size="10.00">+ Uninstall()</text>
<text text-anchor="start" x="201" y="-844.5" font-family="SegoeUI" font-size="10.00">+ Reinstall()</text>
<text text-anchor="start" x="201" y="-833.5" font-family="SegoeUI" font-size="10.00">+ OnProbeFound()</text>
<text text-anchor="start" x="201" y="-822.5" font-family="SegoeUI" font-size="10.00">+ ScreenFromWorld()</text>
<text text-anchor="start" x="201" y="-811.5" font-family="SegoeUI" font-size="10.00">+ ScreenFromViewport()</text>
<text text-anchor="start" x="201" y="-800.5" font-family="SegoeUI" font-size="10.00">and 13 more...</text>
<text text-anchor="start" x="201" y="-789.5" font-family="SegoeUI" font-size="10.00"># Clone()</text>
<text text-anchor="start" x="201" y="-778.5" font-family="SegoeUI" font-size="10.00"># ProcessButtons()</text>
<text text-anchor="start" x="201" y="-767.5" font-family="SegoeUI" font-size="10.00"># InternalUpdate()</text>
<text text-anchor="start" x="201" y="-756.5" font-family="SegoeUI" font-size="10.00"># MakeHapticsDevice()</text>
<text text-anchor="start" x="201" y="-745.5" font-family="SegoeUI" font-size="10.00">&#45; TestEnterExit()</text>
</a>
</g>
</g>
<!-- Node4&#45;&gt;Node3 -->
<g id="edge4" class="edge"><title>Node4&#45;&gt;Node3</title>
<path fill="none" stroke="midnightblue" d="M338.382,-728.555C341.183,-718.523 343.794,-709.171 346.146,-700.747"/>
<polygon fill="none" stroke="midnightblue" points="334.958,-727.8 335.64,-738.373 341.701,-729.682 334.958,-727.8"/>
</g>
<!-- Node5 -->
<g id="node6" class="node"><title>Node5</title>
<g id="a_node6"><a xlink:title=" ">
<polygon fill="white" stroke="#bfbfbf" points="87.5,-1383.5 87.5,-1440.5 169.5,-1440.5 169.5,-1383.5 87.5,-1383.5"/>
<text text-anchor="middle" x="128.5" y="-1428.5" font-family="SegoeUI" font-size="10.00">MonoBehaviour</text>
<polyline fill="none" stroke="#bfbfbf" points="87.5,-1421.5 169.5,-1421.5 "/>
<text text-anchor="middle" x="128.5" y="-1409.5" font-family="SegoeUI" font-size="10.00"> </text>
<polyline fill="none" stroke="#bfbfbf" points="87.5,-1402.5 169.5,-1402.5 "/>
<text text-anchor="middle" x="128.5" y="-1390.5" font-family="SegoeUI" font-size="10.00"> </text>
</a>
</g>
</g>
<!-- Node5&#45;&gt;Node4 -->
<g id="edge5" class="edge"><title>Node5&#45;&gt;Node4</title>
<path fill="none" stroke="midnightblue" d="M140.785,-1373.34C152.968,-1336 172.697,-1275.53 192.951,-1213.44"/>
<polygon fill="none" stroke="midnightblue" points="137.329,-1372.65 137.555,-1383.25 143.984,-1374.82 137.329,-1372.65"/>
</g>
<!-- Node6 -->
<g id="node7" class="node"><title>Node6</title>
<g id="a_node7"><a xlink:href="../../db/d28/interface_juniper_1_1_i_installable.html" target="_top" xlink:title="Defines an interface for objects that can be installed and have their installation progress tracked.">
<polygon fill="white" stroke="black" points="0,-1372.5 0,-1451.5 69,-1451.5 69,-1372.5 0,-1372.5"/>
<text text-anchor="middle" x="34.5" y="-1439.5" font-family="SegoeUI" font-size="10.00">IInstallable</text>
<polyline fill="none" stroke="black" points="0,-1432.5 69,-1432.5 "/>
<text text-anchor="middle" x="34.5" y="-1420.5" font-family="SegoeUI" font-size="10.00"> </text>
<polyline fill="none" stroke="black" points="0,-1413.5 69,-1413.5 "/>
<text text-anchor="start" x="8" y="-1401.5" font-family="SegoeUI" font-size="10.00">+ Install()</text>
<text text-anchor="start" x="8" y="-1390.5" font-family="SegoeUI" font-size="10.00">+ Reinstall()</text>
<text text-anchor="start" x="8" y="-1379.5" font-family="SegoeUI" font-size="10.00">+ Uninstall()</text>
</a>
</g>
</g>
<!-- Node6&#45;&gt;Node4 -->
<g id="edge6" class="edge"><title>Node6&#45;&gt;Node4</title>
<path fill="none" stroke="midnightblue" d="M46.4599,-1362.44C53.978,-1335.42 64.8449,-1301.57 78.5,-1273 110.07,-1206.95 154.933,-1138.3 192.917,-1084.93"/>
<polygon fill="none" stroke="midnightblue" points="42.9878,-1361.87 43.7437,-1372.44 49.743,-1363.71 42.9878,-1361.87"/>
</g>
<!-- Node7 -->
<g id="node8" class="node"><title>Node7</title>
<g id="a_node8"><a xlink:href="../../d0/da1/interface_juniper_1_1_input_1_1_pointers_1_1_i_pointer_device.html" target="_top" xlink:title=" ">
<polygon fill="white" stroke="black" points="363.5,-1273.5 363.5,-1550.5 487.5,-1550.5 487.5,-1273.5 363.5,-1273.5"/>
<text text-anchor="middle" x="425.5" y="-1538.5" font-family="SegoeUI" font-size="10.00">IPointerDevice</text>
<polyline fill="none" stroke="black" points="363.5,-1531.5 487.5,-1531.5 "/>
<text text-anchor="start" x="371.5" y="-1519.5" font-family="SegoeUI" font-size="10.00">+ transform</text>
<text text-anchor="start" x="371.5" y="-1508.5" font-family="SegoeUI" font-size="10.00">+ EventTarget</text>
<text text-anchor="start" x="371.5" y="-1497.5" font-family="SegoeUI" font-size="10.00">+ InputModule</text>
<text text-anchor="start" x="371.5" y="-1486.5" font-family="SegoeUI" font-size="10.00">+ PointerDataID</text>
<text text-anchor="start" x="371.5" y="-1475.5" font-family="SegoeUI" font-size="10.00">+ ProbeName</text>
<text text-anchor="start" x="371.5" y="-1464.5" font-family="SegoeUI" font-size="10.00">+ ButtonType</text>
<text text-anchor="start" x="371.5" y="-1453.5" font-family="SegoeUI" font-size="10.00">+ isActiveAndEnabled</text>
<text text-anchor="start" x="371.5" y="-1442.5" font-family="SegoeUI" font-size="10.00">+ IsConnected</text>
<text text-anchor="start" x="371.5" y="-1431.5" font-family="SegoeUI" font-size="10.00">+ IsDisabled</text>
<text text-anchor="start" x="371.5" y="-1420.5" font-family="SegoeUI" font-size="10.00">+ IsEnabled</text>
<text text-anchor="start" x="371.5" y="-1409.5" font-family="SegoeUI" font-size="10.00">and 23 more...</text>
<polyline fill="none" stroke="black" points="363.5,-1402.5 487.5,-1402.5 "/>
<text text-anchor="start" x="371.5" y="-1390.5" font-family="SegoeUI" font-size="10.00">+ ViewportFromWorld()</text>
<text text-anchor="start" x="371.5" y="-1379.5" font-family="SegoeUI" font-size="10.00">+ ViewportFromScreen()</text>
<text text-anchor="start" x="371.5" y="-1368.5" font-family="SegoeUI" font-size="10.00">+ ScreenFromWorld()</text>
<text text-anchor="start" x="371.5" y="-1357.5" font-family="SegoeUI" font-size="10.00">+ ScreenFromViewport()</text>
<text text-anchor="start" x="371.5" y="-1346.5" font-family="SegoeUI" font-size="10.00">+ WorldFromScreen()</text>
<text text-anchor="start" x="371.5" y="-1335.5" font-family="SegoeUI" font-size="10.00">+ WorldFromViewport()</text>
<text text-anchor="start" x="371.5" y="-1324.5" font-family="SegoeUI" font-size="10.00">+ IsButtonDown()</text>
<text text-anchor="start" x="371.5" y="-1313.5" font-family="SegoeUI" font-size="10.00">+ IsButtonPressed()</text>
<text text-anchor="start" x="371.5" y="-1302.5" font-family="SegoeUI" font-size="10.00">+ IsButtonUp()</text>
<text text-anchor="start" x="371.5" y="-1291.5" font-family="SegoeUI" font-size="10.00">+ Process()</text>
<text text-anchor="start" x="371.5" y="-1280.5" font-family="SegoeUI" font-size="10.00">+ OnProbeFound()</text>
</a>
</g>
</g>
<!-- Node7&#45;&gt;Node4 -->
<g id="edge7" class="edge"><title>Node7&#45;&gt;Node4</title>
<path fill="none" stroke="midnightblue" d="M362.429,-1263.9C358.662,-1254.49 354.989,-1245.13 351.5,-1236 347.681,-1226.01 343.847,-1215.76 340.032,-1205.39"/>
<polygon fill="none" stroke="midnightblue" points="359.243,-1265.36 366.224,-1273.33 365.736,-1262.74 359.243,-1265.36"/>
</g>
<!-- Node9 -->
<g id="node10" class="node"><title>Node9</title>
<g id="a_node10"><a xlink:href="../../dd/d2f/interface_juniper_1_1_input_1_1_pointers_1_1_screen_1_1_i_screen_device.html" target="_top" xlink:title=" ">
<polygon fill="white" stroke="black" points="360.5,-953 360.5,-1021 480.5,-1021 480.5,-953 360.5,-953"/>
<text text-anchor="middle" x="420.5" y="-1009" font-family="SegoeUI" font-size="10.00">IScreenDevice</text>
<polyline fill="none" stroke="black" points="360.5,-1002 480.5,-1002 "/>
<text text-anchor="start" x="368.5" y="-990" font-family="SegoeUI" font-size="10.00">+ CameraPositionOffset</text>
<text text-anchor="start" x="368.5" y="-979" font-family="SegoeUI" font-size="10.00">+ CameraRotationOffset</text>
<polyline fill="none" stroke="black" points="360.5,-972 480.5,-972 "/>
<text text-anchor="middle" x="420.5" y="-960" font-family="SegoeUI" font-size="10.00"> </text>
</a>
</g>
</g>
<!-- Node7&#45;&gt;Node9 -->
<g id="edge10" class="edge"><title>Node7&#45;&gt;Node9</title>
<path fill="none" stroke="midnightblue" d="M423.755,-1263.36C422.723,-1176.11 421.503,-1072.85 420.891,-1021.09"/>
<polygon fill="none" stroke="midnightblue" points="420.255,-1263.41 423.873,-1273.37 427.255,-1263.33 420.255,-1263.41"/>
</g>
<!-- Node8 -->
<g id="node9" class="node"><title>Node8</title>
<g id="a_node9"><a xlink:href="../../dc/dc8/interface_juniper_1_1_input_1_1_pointers_1_1_i_pointer_buttons.html" target="_top" xlink:title="An interface for specifying how devices with buttons should behave.">
<polygon fill="white" stroke="black" points="187.5,-1356 187.5,-1468 345.5,-1468 345.5,-1356 187.5,-1356"/>
<text text-anchor="middle" x="266.5" y="-1456" font-family="SegoeUI" font-size="10.00">IPointerButtons&lt; ButtonIDType &gt;</text>
<polyline fill="none" stroke="black" points="187.5,-1449 345.5,-1449 "/>
<text text-anchor="start" x="195.5" y="-1437" font-family="SegoeUI" font-size="10.00">+ IsConnected</text>
<text text-anchor="start" x="195.5" y="-1426" font-family="SegoeUI" font-size="10.00">+ AnyButtonPressed</text>
<polyline fill="none" stroke="black" points="187.5,-1419 345.5,-1419 "/>
<text text-anchor="start" x="195.5" y="-1407" font-family="SegoeUI" font-size="10.00">+ IsButtonDown()</text>
<text text-anchor="start" x="195.5" y="-1396" font-family="SegoeUI" font-size="10.00">+ IsButtonPressed()</text>
<text text-anchor="start" x="195.5" y="-1385" font-family="SegoeUI" font-size="10.00">+ IsButtonUp()</text>
<text text-anchor="start" x="195.5" y="-1374" font-family="SegoeUI" font-size="10.00">+ AddButton()</text>
<text text-anchor="start" x="195.5" y="-1363" font-family="SegoeUI" font-size="10.00">+ RemoveButton()</text>
</a>
</g>
</g>
<!-- Node8&#45;&gt;Node4 -->
<g id="edge8" class="edge"><title>Node8&#45;&gt;Node4</title>
<path fill="none" stroke="midnightblue" d="M266.5,-1345.62C266.5,-1314.96 266.5,-1276.28 266.5,-1235.77"/>
<polygon fill="none" stroke="midnightblue" points="263,-1345.7 266.5,-1355.7 270,-1345.7 263,-1345.7"/>
</g>
<!-- Node9&#45;&gt;Node3 -->
<g id="edge9" class="edge"><title>Node9&#45;&gt;Node3</title>
<path fill="none" stroke="midnightblue" d="M412.396,-942.93C400.587,-880.172 378.763,-764.186 366.829,-700.762"/>
<polygon fill="none" stroke="midnightblue" points="408.982,-943.717 414.271,-952.898 415.862,-942.423 408.982,-943.717"/>
</g>
</g>
</svg>
        <g id="navigator" transform="translate(0 0)" fill="#404254">
                <rect fill="#f2f5e9" fill-opacity="0.5" stroke="#606060" stroke-width=".5" x="0" y="0" width="60" height="60"/>
                <use id="zoomplus" xlink:href="#zoomPlus" x="17" y="9" onmousedown="handleZoom(evt,'in')"/>
                <use id="zoomminus" xlink:href="#zoomMin" x="42" y="9" onmousedown="handleZoom(evt,'out')"/>
                <use id="reset" xlink:href="#resetDef" x="30" y="36" onmousedown="handleReset()"/>
                <g id="arrowUp" xlink:href="#dirArrow" transform="translate(30 24)" onmousedown="handlePan(0,-1)">
                  <use xlink:href="#rim" fill="#404040">
                        <set attributeName="fill" to="#808080" begin="arrowUp.mouseover" end="arrowUp.mouseout"/>
                  </use>
                  <path fill="none" stroke="white" stroke-width="1.5" d="M0,-3.0v7 M-2.5,-0.5L0,-3.0L2.5,-0.5"/>
                </g>
                <g id="arrowRight" xlink:href="#dirArrow" transform="rotate(90) translate(36 -43)" onmousedown="handlePan(1,0)">
                  <use xlink:href="#rim" fill="#404040">
                        <set attributeName="fill" to="#808080" begin="arrowRight.mouseover" end="arrowRight.mouseout"/>
                  </use>
                  <path fill="none" stroke="white" stroke-width="1.5" d="M0,-3.0v7 M-2.5,-0.5L0,-3.0L2.5,-0.5"/>
                </g>
                <g id="arrowDown" xlink:href="#dirArrow" transform="rotate(180) translate(-30 -48)" onmousedown="handlePan(0,1)">
                  <use xlink:href="#rim" fill="#404040">
                        <set attributeName="fill" to="#808080" begin="arrowDown.mouseover" end="arrowDown.mouseout"/>
                  </use>
                  <path fill="none" stroke="white" stroke-width="1.5" d="M0,-3.0v7 M-2.5,-0.5L0,-3.0L2.5,-0.5"/>
                </g>
                <g id="arrowLeft" xlink:href="#dirArrow" transform="rotate(270) translate(-36 17)" onmousedown="handlePan(-1,0)">
                  <use xlink:href="#rim" fill="#404040">
                        <set attributeName="fill" to="#808080" begin="arrowLeft.mouseover" end="arrowLeft.mouseout"/>
                  </use>
                  <path fill="none" stroke="white" stroke-width="1.5" d="M0,-3.0v7 M-2.5,-0.5L0,-3.0L2.5,-0.5"/>
                </g>
        </g>
        <svg viewBox="0 0 15 15" width="100%" height="30px" preserveAspectRatio="xMaxYMin meet">
         <g id="arrow_out" transform="scale(0.3 0.3)">
          <a xlink:href="class_juniper_1_1_input_1_1_pointers_1_1_gaze_1_1_tobii_gaze_pointer__inherit__graph_org.svg" target="_base">
           <rect id="button" ry="5" rx="5" y="6" x="6" height="38" width="38"
                fill="#f2f5e9" fill-opacity="0.5" stroke="#606060" stroke-width="1.0"/>
           <path id="arrow"
             d="M 11.500037,31.436501 C 11.940474,20.09759 22.043105,11.32322 32.158766,21.979434 L 37.068811,17.246167 C 37.068811,17.246167 37.088388,32 37.088388,32 L 22.160133,31.978069 C 22.160133,31.978069 26.997745,27.140456 26.997745,27.140456 C 18.528582,18.264221 13.291696,25.230495 11.500037,31.436501 z"
             style="fill:#404040;"/>
          </a>
         </g>
        </svg>
</svg>
