<?xml version="1.0" encoding="UTF-8" standalone="no"?>
<!DOCTYPE svg PUBLIC "-//W3C//DTD SVG 1.1//EN"
 "http://www.w3.org/Graphics/SVG/1.1/DTD/svg11.dtd">
<!-- Generated by graphviz version 2.38.0 (20140413.2041)
 -->
<!-- Title: Juniper.Input.Pointers.Gaze.TobiiGazePointer Pages: 1 -->
<!--zoomable 1698 -->
<svg id="main" version="1.1" xmlns="http://www.w3.org/2000/svg" xmlns:xlink="http://www.w3.org/1999/xlink" xml:space="preserve" onload="init(evt)">
<style type="text/css"><![CDATA[
.edge:hover path { stroke: red; }
.edge:hover polygon { stroke: red; fill: red; }
]]></style>
<script type="text/javascript"><![CDATA[
var edges = document.getElementsByTagName('g');
if (edges && edges.length) {
  for (var i=0;i<edges.length;i++) {
    if (edges[i].id.substr(0,4)=='edge') {
      edges[i].setAttribute('class','edge');
    }
  }
}
]]></script>
        <defs>
                <circle id="rim" cx="0" cy="0" r="7"/>
                <circle id="rim2" cx="0" cy="0" r="3.5"/>
                <g id="zoomPlus">
                        <use xlink:href="#rim" fill="#404040">
                                <set attributeName="fill" to="#808080" begin="zoomplus.mouseover" end="zoomplus.mouseout"/>
                        </use>
                        <path d="M-4,0h8M0,-4v8" fill="none" stroke="white" stroke-width="1.5" pointer-events="none"/>
                </g>
                <g id="zoomMin">
                        <use xlink:href="#rim" fill="#404040">
                                <set attributeName="fill" to="#808080" begin="zoomminus.mouseover" end="zoomminus.mouseout"/>
                        </use>
                        <path d="M-4,0h8" fill="none" stroke="white" stroke-width="1.5" pointer-events="none"/>
                </g>
                <g id="dirArrow">
                        <path fill="none" stroke="white" stroke-width="1.5" d="M0,-3.0v7 M-2.5,-0.5L0,-3.0L2.5,-0.5"/>
                </g>
               <g id="resetDef">
                       <use xlink:href="#rim2" fill="#404040">
                               <set attributeName="fill" to="#808080" begin="reset.mouseover" end="reset.mouseout"/>
                       </use>
               </g>
        </defs>

<script type="text/javascript">
var viewWidth = 526;
var viewHeight = 1698;
var sectionId = 'dynsection-0';
</script>
<script xlink:href="../../svgpan.js"/>
<svg id="graph" class="graph">
<g id="viewport">
<title>Juniper.Input.Pointers.Gaze.TobiiGazePointer</title>
<polygon fill="white" stroke="none" points="-4,4 -4,-1694 521.5,-1694 521.5,4 -4,4"/>
<!-- Node0 -->
<g id="node1" class="node"><title>Node0</title>
<g id="a_node1"><a xlink:title=" ">
<polygon fill="#bfbfbf" stroke="black" points="290,-106.5 290,-218.5 427,-218.5 427,-106.5 290,-106.5"/>
<text text-anchor="start" x="298" y="-206.5" font-family="SegoeUI" font-size="10.00">Juniper.Input.Pointers.Gaze.</text>
<text text-anchor="middle" x="358.5" y="-195.5" font-family="SegoeUI" font-size="10.00">TobiiGazePointer</text>
<polyline fill="none" stroke="black" points="290,-188.5 427,-188.5 "/>
<text text-anchor="start" x="298" y="-176.5" font-family="SegoeUI" font-size="10.00">+ IsConnected</text>
<text text-anchor="start" x="298" y="-165.5" font-family="SegoeUI" font-size="10.00">+ WorldPoint</text>
<text text-anchor="start" x="298" y="-154.5" font-family="SegoeUI" font-size="10.00">+ CameraPositionOffset</text>
<text text-anchor="start" x="298" y="-143.5" font-family="SegoeUI" font-size="10.00">&#45; lastGaze</text>
<text text-anchor="start" x="298" y="-132.5" font-family="SegoeUI" font-size="10.00">&#45; lastPose</text>
<polyline fill="none" stroke="black" points="290,-125.5 427,-125.5 "/>
<text text-anchor="middle" x="358.5" y="-113.5" font-family="SegoeUI" font-size="10.00"> </text>
</a>
</g>
</g>
<!-- Node11 -->
<g id="node12" class="node"><title>Node11</title>
<g id="a_node12"><a xlink:href="../../d2/d9a/class_juniper_1_1_input_1_1_pointers_1_1_gaze_1_1_gaze_pointer.html" target="_top" xlink:title=" ">
<polygon fill="white" stroke="black" points="290,-0.5 290,-68.5 427,-68.5 427,-0.5 290,-0.5"/>
<text text-anchor="start" x="298" y="-56.5" font-family="SegoeUI" font-size="10.00">Juniper.Input.Pointers.Gaze.</text>
<text text-anchor="middle" x="358.5" y="-45.5" font-family="SegoeUI" font-size="10.00">GazePointer</text>
<polyline fill="none" stroke="black" points="290,-38.5 427,-38.5 "/>
<text text-anchor="middle" x="358.5" y="-26.5" font-family="SegoeUI" font-size="10.00"> </text>
<polyline fill="none" stroke="black" points="290,-19.5 427,-19.5 "/>
<text text-anchor="middle" x="358.5" y="-7.5" font-family="SegoeUI" font-size="10.00"> </text>
</a>
</g>
</g>
<!-- Node0&#45;&gt;Node11 -->
<g id="edge12" class="edge"><title>Node0&#45;&gt;Node11</title>
<path fill="none" stroke="midnightblue" d="M358.5,-95.9612C358.5,-86.4839 358.5,-77.0833 358.5,-68.6192"/>
<polygon fill="none" stroke="midnightblue" points="355,-96.2345 358.5,-106.235 362,-96.2346 355,-96.2345"/>
</g>
<!-- Node1 -->
<g id="node2" class="node"><title>Node1</title>
<g id="a_node2"><a xlink:href="../../d9/df7/class_juniper_1_1_input_1_1_pointers_1_1_gaze_1_1_abstract_gaze_pointer.html" target="_top" xlink:title=" ">
<polygon fill="white" stroke="black" points="307,-256.5 307,-434.5 410,-434.5 410,-256.5 307,-256.5"/>
<text text-anchor="middle" x="358.5" y="-422.5" font-family="SegoeUI" font-size="10.00">AbstractGazePointer</text>
<polyline fill="none" stroke="black" points="307,-415.5 410,-415.5 "/>
<text text-anchor="start" x="315" y="-403.5" font-family="SegoeUI" font-size="10.00">+ gazeThreshold</text>
<text text-anchor="start" x="315" y="-392.5" font-family="SegoeUI" font-size="10.00">+ IsConnected</text>
<text text-anchor="start" x="315" y="-381.5" font-family="SegoeUI" font-size="10.00"># gazed</text>
<text text-anchor="start" x="315" y="-370.5" font-family="SegoeUI" font-size="10.00">&#45; wasGazed</text>
<text text-anchor="start" x="315" y="-359.5" font-family="SegoeUI" font-size="10.00">&#45; lastTarget</text>
<text text-anchor="start" x="315" y="-348.5" font-family="SegoeUI" font-size="10.00">&#45; gazeTime</text>
<text text-anchor="start" x="315" y="-337.5" font-family="SegoeUI" font-size="10.00">&#45; target</text>
<polyline fill="none" stroke="black" points="307,-330.5 410,-330.5 "/>
<text text-anchor="start" x="315" y="-318.5" font-family="SegoeUI" font-size="10.00">+ IsButtonPressed()</text>
<text text-anchor="start" x="315" y="-307.5" font-family="SegoeUI" font-size="10.00">+ IsButtonDown()</text>
<text text-anchor="start" x="315" y="-296.5" font-family="SegoeUI" font-size="10.00">+ IsButtonUp()</text>
<text text-anchor="start" x="315" y="-285.5" font-family="SegoeUI" font-size="10.00">+ OnProbeFound()</text>
<text text-anchor="start" x="315" y="-274.5" font-family="SegoeUI" font-size="10.00">+ Process()</text>
<text text-anchor="start" x="315" y="-263.5" font-family="SegoeUI" font-size="10.00"># InternalUpdate()</text>
</a>
</g>
</g>
<!-- Node1&#45;&gt;Node0 -->
<g id="edge1" class="edge"><title>Node1&#45;&gt;Node0</title>
<path fill="none" stroke="midnightblue" d="M358.5,-246.147C358.5,-236.734 358.5,-227.436 358.5,-218.663"/>
<polygon fill="none" stroke="midnightblue" points="355,-246.386 358.5,-256.386 362,-246.386 355,-246.386"/>
</g>
<!-- Node2 -->
<g id="node3" class="node"><title>Node2</title>
<g id="a_node3"><a xlink:href="../../d5/d55/class_juniper_1_1_input_1_1_pointers_1_1_screen_1_1_abstract_screen_device.html" target="_top" xlink:title=" ">
<polygon fill="white" stroke="black" points="272.5,-472.5 272.5,-562.5 444.5,-562.5 444.5,-472.5 272.5,-472.5"/>
<text text-anchor="start" x="280.5" y="-550.5" font-family="SegoeUI" font-size="10.00">AbstractScreenDevice</text>
<text text-anchor="start" x="280.5" y="-539.5" font-family="SegoeUI" font-size="10.00">&lt; Unary, UnaryPointerConfiguration,</text>
<text text-anchor="middle" x="358.5" y="-528.5" font-family="SegoeUI" font-size="10.00"> HapticType &gt;</text>
<polyline fill="none" stroke="black" points="272.5,-521.5 444.5,-521.5 "/>
<text text-anchor="start" x="280.5" y="-509.5" font-family="SegoeUI" font-size="10.00">+ CameraPositionOffset</text>
<text text-anchor="start" x="280.5" y="-498.5" font-family="SegoeUI" font-size="10.00">+ CameraRotationOffset</text>
<polyline fill="none" stroke="black" points="272.5,-491.5 444.5,-491.5 "/>
<text text-anchor="middle" x="358.5" y="-479.5" font-family="SegoeUI" font-size="10.00"> </text>
</a>
</g>
</g>
<!-- Node2&#45;&gt;Node1 -->
<g id="edge2" class="edge"><title>Node2&#45;&gt;Node1</title>
<path fill="none" stroke="midnightblue" d="M358.5,-462.195C358.5,-453.384 358.5,-444.064 358.5,-434.692"/>
<polygon fill="none" stroke="midnightblue" points="355,-462.278 358.5,-472.278 362,-462.278 355,-462.278"/>
</g>
<!-- Node3 -->
<g id="node4" class="node"><title>Node3</title>
<g id="a_node4"><a xlink:href="../../d5/d55/class_juniper_1_1_input_1_1_pointers_1_1_screen_1_1_abstract_screen_device.html" target="_top" xlink:title="A ScreenDevice is a AbstractPointerDevice&lt;ButtonIDType, ConfigType&gt; that has its primary pointer inte...">
<polygon fill="white" stroke="black" points="269,-621.5 269,-711.5 448,-711.5 448,-621.5 269,-621.5"/>
<text text-anchor="start" x="277" y="-699.5" font-family="SegoeUI" font-size="10.00">Juniper.Input.Pointers.Screen.</text>
<text text-anchor="start" x="277" y="-688.5" font-family="SegoeUI" font-size="10.00">AbstractScreenDevice&lt; ButtonIDType,</text>
<text text-anchor="middle" x="358.5" y="-677.5" font-family="SegoeUI" font-size="10.00"> ConfigType, HapticType &gt;</text>
<polyline fill="none" stroke="black" points="269,-670.5 448,-670.5 "/>
<text text-anchor="start" x="277" y="-658.5" font-family="SegoeUI" font-size="10.00">+ CameraPositionOffset</text>
<text text-anchor="start" x="277" y="-647.5" font-family="SegoeUI" font-size="10.00">+ CameraRotationOffset</text>
<polyline fill="none" stroke="black" points="269,-640.5 448,-640.5 "/>
<text text-anchor="middle" x="358.5" y="-628.5" font-family="SegoeUI" font-size="10.00"> </text>
</a>
</g>
</g>
<!-- Node3&#45;&gt;Node2 -->
<g id="edge3" class="edge"><title>Node3&#45;&gt;Node2</title>
<path fill="none" stroke="orange" d="M358.5,-611.109C358.5,-595.119 358.5,-577.833 358.5,-562.574"/>
<polygon fill="orange" stroke="orange" points="355,-611.395 358.5,-621.395 362,-611.395 355,-611.395"/>
<text text-anchor="start" x="358.5" y="-595" font-family="SegoeUI" font-size="10.00"> &lt; Unary, UnaryPointerConfiguration,</text>
<text text-anchor="middle" x="438" y="-584" font-family="SegoeUI" font-size="10.00"> HapticType &gt;</text>
</g>
<!-- Node4 -->
<g id="node5" class="node"><title>Node4</title>
<g id="a_node5"><a xlink:href="../../da/d81/class_juniper_1_1_input_1_1_pointers_1_1_abstract_pointer_device.html" target="_top" xlink:title=" ">
<polygon fill="white" stroke="black" points="192,-749.5 192,-1257.5 341,-1257.5 341,-749.5 192,-749.5"/>
<text text-anchor="start" x="200" y="-1245.5" font-family="SegoeUI" font-size="10.00">AbstractPointerDevice</text>
<text text-anchor="start" x="200" y="-1234.5" font-family="SegoeUI" font-size="10.00">&lt; ButtonIDType, ConfigType,</text>
<text text-anchor="middle" x="266.5" y="-1223.5" font-family="SegoeUI" font-size="10.00"> HapticType &gt;</text>
<polyline fill="none" stroke="black" points="192,-1216.5 341,-1216.5 "/>
<text text-anchor="start" x="200" y="-1204.5" font-family="SegoeUI" font-size="10.00">+ Connected</text>
<text text-anchor="start" x="200" y="-1193.5" font-family="SegoeUI" font-size="10.00">+ enableLaserPointer</text>
<text text-anchor="start" x="200" y="-1182.5" font-family="SegoeUI" font-size="10.00">+ showProbe</text>
<text text-anchor="start" x="200" y="-1171.5" font-family="SegoeUI" font-size="10.00">+ motionFilter</text>
<text text-anchor="start" x="200" y="-1160.5" font-family="SegoeUI" font-size="10.00">+ ButtonType</text>
<text text-anchor="start" x="200" y="-1149.5" font-family="SegoeUI" font-size="10.00">+ ProcessInUpdate</text>
<text text-anchor="start" x="200" y="-1138.5" font-family="SegoeUI" font-size="10.00">+ PointerDataID</text>
<text text-anchor="start" x="200" y="-1127.5" font-family="SegoeUI" font-size="10.00">+ MinimumPointerDistance</text>
<text text-anchor="start" x="200" y="-1116.5" font-family="SegoeUI" font-size="10.00">+ MaximumPointerDistance</text>
<text text-anchor="start" x="200" y="-1105.5" font-family="SegoeUI" font-size="10.00">+ LaserPointerNormalMaterial</text>
<text text-anchor="start" x="200" y="-1094.5" font-family="SegoeUI" font-size="10.00">+ LaserPointerEnabledMaterial</text>
<text text-anchor="start" x="200" y="-1083.5" font-family="SegoeUI" font-size="10.00">+ LaserPointerDisabledMaterial</text>
<text text-anchor="start" x="200" y="-1072.5" font-family="SegoeUI" font-size="10.00">+ Layer</text>
<text text-anchor="start" x="200" y="-1061.5" font-family="SegoeUI" font-size="10.00">+ LockedOnTarget</text>
<text text-anchor="start" x="200" y="-1050.5" font-family="SegoeUI" font-size="10.00">and 30 more...</text>
<text text-anchor="start" x="200" y="-1039.5" font-family="SegoeUI" font-size="10.00"># nativeButtons</text>
<text text-anchor="start" x="200" y="-1028.5" font-family="SegoeUI" font-size="10.00"># pointerOffset</text>
<text text-anchor="start" x="200" y="-1017.5" font-family="SegoeUI" font-size="10.00"># stage</text>
<text text-anchor="start" x="200" y="-1006.5" font-family="SegoeUI" font-size="10.00"># VIEWPORT_MIDPOINT</text>
<text text-anchor="start" x="200" y="-995.5" font-family="SegoeUI" font-size="10.00"># PointerConfig</text>
<text text-anchor="start" x="200" y="-984.5" font-family="SegoeUI" font-size="10.00">&#45; curLaserPointerMaterial</text>
<text text-anchor="start" x="200" y="-973.5" font-family="SegoeUI" font-size="10.00">&#45; interaction</text>
<text text-anchor="start" x="200" y="-962.5" font-family="SegoeUI" font-size="10.00">&#45; lastMotionFilter</text>
<text text-anchor="start" x="200" y="-951.5" font-family="SegoeUI" font-size="10.00">&#45; input</text>
<text text-anchor="start" x="200" y="-940.5" font-family="SegoeUI" font-size="10.00">&#45; finishTime</text>
<text text-anchor="start" x="200" y="-929.5" font-family="SegoeUI" font-size="10.00">&#45; lastAction</text>
<polyline fill="none" stroke="black" points="192,-922.5 341,-922.5 "/>
<text text-anchor="start" x="200" y="-910.5" font-family="SegoeUI" font-size="10.00">+ Awake()</text>
<text text-anchor="start" x="200" y="-899.5" font-family="SegoeUI" font-size="10.00">+ Start()</text>
<text text-anchor="start" x="200" y="-888.5" font-family="SegoeUI" font-size="10.00">+ Install()</text>
<text text-anchor="start" x="200" y="-877.5" font-family="SegoeUI" font-size="10.00">+ Uninstall()</text>
<text text-anchor="start" x="200" y="-866.5" font-family="SegoeUI" font-size="10.00">+ Reinstall()</text>
<text text-anchor="start" x="200" y="-855.5" font-family="SegoeUI" font-size="10.00">+ OnProbeFound()</text>
<text text-anchor="start" x="200" y="-844.5" font-family="SegoeUI" font-size="10.00">+ ScreenFromWorld()</text>
<text text-anchor="start" x="200" y="-833.5" font-family="SegoeUI" font-size="10.00">+ ScreenFromViewport()</text>
<text text-anchor="start" x="200" y="-822.5" font-family="SegoeUI" font-size="10.00">+ ViewportFromWorld()</text>
<text text-anchor="start" x="200" y="-811.5" font-family="SegoeUI" font-size="10.00">+ ViewportFromScreen()</text>
<text text-anchor="start" x="200" y="-800.5" font-family="SegoeUI" font-size="10.00">and 17 more...</text>
<text text-anchor="start" x="200" y="-789.5" font-family="SegoeUI" font-size="10.00"># Clone()</text>
<text text-anchor="start" x="200" y="-778.5" font-family="SegoeUI" font-size="10.00"># ProcessButtons()</text>
<text text-anchor="start" x="200" y="-767.5" font-family="SegoeUI" font-size="10.00"># InternalUpdate()</text>
<text text-anchor="start" x="200" y="-756.5" font-family="SegoeUI" font-size="10.00">&#45; TestEnterExit()</text>
</a>
</g>
</g>
<!-- Node4&#45;&gt;Node3 -->
<g id="edge4" class="edge"><title>Node4&#45;&gt;Node3</title>
<path fill="none" stroke="midnightblue" d="M338.698,-739.607C341.459,-729.552 344.031,-720.184 346.348,-711.75"/>
<polygon fill="none" stroke="midnightblue" points="335.268,-738.88 335.994,-749.45 342.018,-740.734 335.268,-738.88"/>
</g>
<!-- Node5 -->
<g id="node6" class="node"><title>Node5</title>
<g id="a_node6"><a xlink:title=" ">
<polygon fill="white" stroke="#bfbfbf" points="87.5,-1405.5 87.5,-1462.5 169.5,-1462.5 169.5,-1405.5 87.5,-1405.5"/>
<text text-anchor="middle" x="128.5" y="-1450.5" font-family="SegoeUI" font-size="10.00">MonoBehaviour</text>
<polyline fill="none" stroke="#bfbfbf" points="87.5,-1443.5 169.5,-1443.5 "/>
<text text-anchor="middle" x="128.5" y="-1431.5" font-family="SegoeUI" font-size="10.00"> </text>
<polyline fill="none" stroke="#bfbfbf" points="87.5,-1424.5 169.5,-1424.5 "/>
<text text-anchor="middle" x="128.5" y="-1412.5" font-family="SegoeUI" font-size="10.00"> </text>
</a>
</g>
</g>
<!-- Node5&#45;&gt;Node4 -->
<g id="edge5" class="edge"><title>Node5&#45;&gt;Node4</title>
<path fill="none" stroke="midnightblue" d="M140.624,-1395.35C152.599,-1358.17 171.975,-1298.01 191.975,-1235.91"/>
<polygon fill="none" stroke="midnightblue" points="137.182,-1394.62 137.448,-1405.22 143.845,-1396.77 137.182,-1394.62"/>
</g>
<!-- Node6 -->
<g id="node7" class="node"><title>Node6</title>
<g id="a_node7"><a xlink:href="../../d7/dbe/interface_juniper_1_1_i_o_1_1_i_installable.html" target="_top" xlink:title="Defines an interface for objects that can be installed and have their installation progress tracked.">
<polygon fill="white" stroke="black" points="0,-1394.5 0,-1473.5 69,-1473.5 69,-1394.5 0,-1394.5"/>
<text text-anchor="middle" x="34.5" y="-1461.5" font-family="SegoeUI" font-size="10.00">IInstallable</text>
<polyline fill="none" stroke="black" points="0,-1454.5 69,-1454.5 "/>
<text text-anchor="middle" x="34.5" y="-1442.5" font-family="SegoeUI" font-size="10.00"> </text>
<polyline fill="none" stroke="black" points="0,-1435.5 69,-1435.5 "/>
<text text-anchor="start" x="8" y="-1423.5" font-family="SegoeUI" font-size="10.00">+ Install()</text>
<text text-anchor="start" x="8" y="-1412.5" font-family="SegoeUI" font-size="10.00">+ Reinstall()</text>
<text text-anchor="start" x="8" y="-1401.5" font-family="SegoeUI" font-size="10.00">+ Uninstall()</text>
</a>
</g>
</g>
<!-- Node6&#45;&gt;Node4 -->
<g id="edge6" class="edge"><title>Node6&#45;&gt;Node4</title>
<path fill="none" stroke="midnightblue" d="M46.5568,-1384.49C54.1052,-1357.48 64.9701,-1323.63 78.5,-1295 109.882,-1228.6 154.164,-1159.37 191.869,-1105.16"/>
<polygon fill="none" stroke="midnightblue" points="43.0862,-1383.91 43.8276,-1394.48 49.8389,-1385.76 43.0862,-1383.91"/>
</g>
<!-- Node7 -->
<g id="node8" class="node"><title>Node7</title>
<g id="a_node8"><a xlink:href="../../d0/da1/interface_juniper_1_1_input_1_1_pointers_1_1_i_pointer_device.html" target="_top" xlink:title=" ">
<polygon fill="white" stroke="black" points="363.5,-1295.5 363.5,-1572.5 487.5,-1572.5 487.5,-1295.5 363.5,-1295.5"/>
<text text-anchor="middle" x="425.5" y="-1560.5" font-family="SegoeUI" font-size="10.00">IPointerDevice</text>
<polyline fill="none" stroke="black" points="363.5,-1553.5 487.5,-1553.5 "/>
<text text-anchor="start" x="371.5" y="-1541.5" font-family="SegoeUI" font-size="10.00">+ transform</text>
<text text-anchor="start" x="371.5" y="-1530.5" font-family="SegoeUI" font-size="10.00">+ EventTarget</text>
<text text-anchor="start" x="371.5" y="-1519.5" font-family="SegoeUI" font-size="10.00">+ InputModule</text>
<text text-anchor="start" x="371.5" y="-1508.5" font-family="SegoeUI" font-size="10.00">+ PointerDataID</text>
<text text-anchor="start" x="371.5" y="-1497.5" font-family="SegoeUI" font-size="10.00">+ ProbeName</text>
<text text-anchor="start" x="371.5" y="-1486.5" font-family="SegoeUI" font-size="10.00">+ Probe</text>
<text text-anchor="start" x="371.5" y="-1475.5" font-family="SegoeUI" font-size="10.00">+ ButtonType</text>
<text text-anchor="start" x="371.5" y="-1464.5" font-family="SegoeUI" font-size="10.00">+ isActiveAndEnabled</text>
<text text-anchor="start" x="371.5" y="-1453.5" font-family="SegoeUI" font-size="10.00">+ IsConnected</text>
<text text-anchor="start" x="371.5" y="-1442.5" font-family="SegoeUI" font-size="10.00">+ ProcessInUpdate</text>
<text text-anchor="start" x="371.5" y="-1431.5" font-family="SegoeUI" font-size="10.00">and 26 more...</text>
<polyline fill="none" stroke="black" points="363.5,-1424.5 487.5,-1424.5 "/>
<text text-anchor="start" x="371.5" y="-1412.5" font-family="SegoeUI" font-size="10.00">+ OnProbeFound()</text>
<text text-anchor="start" x="371.5" y="-1401.5" font-family="SegoeUI" font-size="10.00">+ ViewportFromWorld()</text>
<text text-anchor="start" x="371.5" y="-1390.5" font-family="SegoeUI" font-size="10.00">+ ViewportFromScreen()</text>
<text text-anchor="start" x="371.5" y="-1379.5" font-family="SegoeUI" font-size="10.00">+ ScreenFromWorld()</text>
<text text-anchor="start" x="371.5" y="-1368.5" font-family="SegoeUI" font-size="10.00">+ ScreenFromViewport()</text>
<text text-anchor="start" x="371.5" y="-1357.5" font-family="SegoeUI" font-size="10.00">+ WorldFromScreen()</text>
<text text-anchor="start" x="371.5" y="-1346.5" font-family="SegoeUI" font-size="10.00">+ WorldFromViewport()</text>
<text text-anchor="start" x="371.5" y="-1335.5" font-family="SegoeUI" font-size="10.00">+ IsButtonDown()</text>
<text text-anchor="start" x="371.5" y="-1324.5" font-family="SegoeUI" font-size="10.00">+ IsButtonPressed()</text>
<text text-anchor="start" x="371.5" y="-1313.5" font-family="SegoeUI" font-size="10.00">+ IsButtonUp()</text>
<text text-anchor="start" x="371.5" y="-1302.5" font-family="SegoeUI" font-size="10.00">and 7 more...</text>
</a>
</g>
</g>
<!-- Node7&#45;&gt;Node4 -->
<g id="edge7" class="edge"><title>Node7&#45;&gt;Node4</title>
<path fill="none" stroke="midnightblue" d="M362.358,-1285.93C358.608,-1276.51 354.959,-1267.14 351.5,-1258 348.009,-1248.77 344.511,-1239.33 341.033,-1229.78"/>
<polygon fill="none" stroke="midnightblue" points="359.169,-1287.38 366.137,-1295.36 365.666,-1284.78 359.169,-1287.38"/>
</g>
<!-- Node10 -->
<g id="node11" class="node"><title>Node10</title>
<g id="a_node11"><a xlink:href="../../dd/d2f/interface_juniper_1_1_input_1_1_pointers_1_1_screen_1_1_i_screen_device.html" target="_top" xlink:title=" ">
<polygon fill="white" stroke="black" points="360.5,-969.5 360.5,-1037.5 480.5,-1037.5 480.5,-969.5 360.5,-969.5"/>
<text text-anchor="middle" x="420.5" y="-1025.5" font-family="SegoeUI" font-size="10.00">IScreenDevice</text>
<polyline fill="none" stroke="black" points="360.5,-1018.5 480.5,-1018.5 "/>
<text text-anchor="start" x="368.5" y="-1006.5" font-family="SegoeUI" font-size="10.00">+ CameraPositionOffset</text>
<text text-anchor="start" x="368.5" y="-995.5" font-family="SegoeUI" font-size="10.00">+ CameraRotationOffset</text>
<polyline fill="none" stroke="black" points="360.5,-988.5 480.5,-988.5 "/>
<text text-anchor="middle" x="420.5" y="-976.5" font-family="SegoeUI" font-size="10.00"> </text>
</a>
</g>
</g>
<!-- Node7&#45;&gt;Node10 -->
<g id="edge11" class="edge"><title>Node7&#45;&gt;Node10</title>
<path fill="none" stroke="midnightblue" d="M423.775,-1285.17C422.738,-1196.33 421.505,-1090.6 420.889,-1037.87"/>
<polygon fill="none" stroke="midnightblue" points="420.277,-1285.4 423.894,-1295.36 427.277,-1285.32 420.277,-1285.4"/>
</g>
<!-- Node8 -->
<g id="node9" class="node"><title>Node8</title>
<g id="a_node9"><a xlink:href="../../d5/d9e/interface_juniper_1_1_input_1_1_pointers_1_1_i_laser_pointer.html" target="_top" xlink:title=" ">
<polygon fill="white" stroke="black" points="351,-1610.5 351,-1689.5 500,-1689.5 500,-1610.5 351,-1610.5"/>
<text text-anchor="middle" x="425.5" y="-1677.5" font-family="SegoeUI" font-size="10.00">ILaserPointer</text>
<polyline fill="none" stroke="black" points="351,-1670.5 500,-1670.5 "/>
<text text-anchor="start" x="359" y="-1658.5" font-family="SegoeUI" font-size="10.00">+ LaserPointerNormalMaterial</text>
<text text-anchor="start" x="359" y="-1647.5" font-family="SegoeUI" font-size="10.00">+ LaserPointerEnabledMaterial</text>
<text text-anchor="start" x="359" y="-1636.5" font-family="SegoeUI" font-size="10.00">+ LaserPointerDisabledMaterial</text>
<polyline fill="none" stroke="black" points="351,-1629.5 500,-1629.5 "/>
<text text-anchor="middle" x="425.5" y="-1617.5" font-family="SegoeUI" font-size="10.00"> </text>
</a>
</g>
</g>
<!-- Node8&#45;&gt;Node7 -->
<g id="edge8" class="edge"><title>Node8&#45;&gt;Node7</title>
<path fill="none" stroke="midnightblue" d="M425.5,-1600.24C425.5,-1591.73 425.5,-1582.51 425.5,-1572.93"/>
<polygon fill="none" stroke="midnightblue" points="422,-1600.25 425.5,-1610.25 429,-1600.25 422,-1600.25"/>
</g>
<!-- Node9 -->
<g id="node10" class="node"><title>Node9</title>
<g id="a_node10"><a xlink:href="../../dc/dc8/interface_juniper_1_1_input_1_1_pointers_1_1_i_pointer_buttons.html" target="_top" xlink:title="An interface for specifying how devices with buttons should behave.">
<polygon fill="white" stroke="black" points="187.5,-1389 187.5,-1479 345.5,-1479 345.5,-1389 187.5,-1389"/>
<text text-anchor="middle" x="266.5" y="-1467" font-family="SegoeUI" font-size="10.00">IPointerButtons&lt; ButtonIDType &gt;</text>
<polyline fill="none" stroke="black" points="187.5,-1460 345.5,-1460 "/>
<text text-anchor="start" x="195.5" y="-1448" font-family="SegoeUI" font-size="10.00">+ IsConnected</text>
<text text-anchor="start" x="195.5" y="-1437" font-family="SegoeUI" font-size="10.00">+ AnyButtonPressed</text>
<polyline fill="none" stroke="black" points="187.5,-1430 345.5,-1430 "/>
<text text-anchor="start" x="195.5" y="-1418" font-family="SegoeUI" font-size="10.00">+ IsButtonDown()</text>
<text text-anchor="start" x="195.5" y="-1407" font-family="SegoeUI" font-size="10.00">+ IsButtonPressed()</text>
<text text-anchor="start" x="195.5" y="-1396" font-family="SegoeUI" font-size="10.00">+ IsButtonUp()</text>
</a>
</g>
</g>
<!-- Node9&#45;&gt;Node4 -->
<g id="edge9" class="edge"><title>Node9&#45;&gt;Node4</title>
<path fill="none" stroke="midnightblue" d="M266.5,-1378.73C266.5,-1346.59 266.5,-1303.3 266.5,-1257.58"/>
<polygon fill="none" stroke="midnightblue" points="263,-1378.76 266.5,-1388.76 270,-1378.76 263,-1378.76"/>
</g>
<!-- Node10&#45;&gt;Node3 -->
<g id="edge10" class="edge"><title>Node10&#45;&gt;Node3</title>
<path fill="none" stroke="midnightblue" d="M412.507,-959.313C400.669,-895.348 378.592,-776.061 366.659,-711.584"/>
<polygon fill="none" stroke="midnightblue" points="409.124,-960.266 414.386,-969.462 416.007,-958.992 409.124,-960.266"/>
</g>
</g>
</svg>
        <g id="navigator" transform="translate(0 0)" fill="#404254">
                <rect fill="#f2f5e9" fill-opacity="0.5" stroke="#606060" stroke-width=".5" x="0" y="0" width="60" height="60"/>
                <use id="zoomplus" xlink:href="#zoomPlus" x="17" y="9" onmousedown="handleZoom(evt,'in')"/>
                <use id="zoomminus" xlink:href="#zoomMin" x="42" y="9" onmousedown="handleZoom(evt,'out')"/>
                <use id="reset" xlink:href="#resetDef" x="30" y="36" onmousedown="handleReset()"/>
                <g id="arrowUp" xlink:href="#dirArrow" transform="translate(30 24)" onmousedown="handlePan(0,-1)">
                  <use xlink:href="#rim" fill="#404040">
                        <set attributeName="fill" to="#808080" begin="arrowUp.mouseover" end="arrowUp.mouseout"/>
                  </use>
                  <path fill="none" stroke="white" stroke-width="1.5" d="M0,-3.0v7 M-2.5,-0.5L0,-3.0L2.5,-0.5"/>
                </g>
                <g id="arrowRight" xlink:href="#dirArrow" transform="rotate(90) translate(36 -43)" onmousedown="handlePan(1,0)">
                  <use xlink:href="#rim" fill="#404040">
                        <set attributeName="fill" to="#808080" begin="arrowRight.mouseover" end="arrowRight.mouseout"/>
                  </use>
                  <path fill="none" stroke="white" stroke-width="1.5" d="M0,-3.0v7 M-2.5,-0.5L0,-3.0L2.5,-0.5"/>
                </g>
                <g id="arrowDown" xlink:href="#dirArrow" transform="rotate(180) translate(-30 -48)" onmousedown="handlePan(0,1)">
                  <use xlink:href="#rim" fill="#404040">
                        <set attributeName="fill" to="#808080" begin="arrowDown.mouseover" end="arrowDown.mouseout"/>
                  </use>
                  <path fill="none" stroke="white" stroke-width="1.5" d="M0,-3.0v7 M-2.5,-0.5L0,-3.0L2.5,-0.5"/>
                </g>
                <g id="arrowLeft" xlink:href="#dirArrow" transform="rotate(270) translate(-36 17)" onmousedown="handlePan(-1,0)">
                  <use xlink:href="#rim" fill="#404040">
                        <set attributeName="fill" to="#808080" begin="arrowLeft.mouseover" end="arrowLeft.mouseout"/>
                  </use>
                  <path fill="none" stroke="white" stroke-width="1.5" d="M0,-3.0v7 M-2.5,-0.5L0,-3.0L2.5,-0.5"/>
                </g>
        </g>
        <svg viewBox="0 0 15 15" width="100%" height="30px" preserveAspectRatio="xMaxYMin meet">
         <g id="arrow_out" transform="scale(0.3 0.3)">
          <a xlink:href="class_juniper_1_1_input_1_1_pointers_1_1_gaze_1_1_tobii_gaze_pointer__inherit__graph_org.svg" target="_base">
           <rect id="button" ry="5" rx="5" y="6" x="6" height="38" width="38"
                fill="#f2f5e9" fill-opacity="0.5" stroke="#606060" stroke-width="1.0"/>
           <path id="arrow"
             d="M 11.500037,31.436501 C 11.940474,20.09759 22.043105,11.32322 32.158766,21.979434 L 37.068811,17.246167 C 37.068811,17.246167 37.088388,32 37.088388,32 L 22.160133,31.978069 C 22.160133,31.978069 26.997745,27.140456 26.997745,27.140456 C 18.528582,18.264221 13.291696,25.230495 11.500037,31.436501 z"
             style="fill:#404040;"/>
          </a>
         </g>
        </svg>
</svg>
