<?xml version="1.0" encoding="UTF-8" standalone="no"?>
<!DOCTYPE svg PUBLIC "-//W3C//DTD SVG 1.1//EN"
 "http://www.w3.org/Graphics/SVG/1.1/DTD/svg11.dtd">
<!-- Generated by graphviz version 2.38.0 (20140413.2041)
 -->
<!-- Title: Juniper.Widgets.MenuView Pages: 1 -->
<!--zoomable 661 -->
<svg id="main" version="1.1" xmlns="http://www.w3.org/2000/svg" xmlns:xlink="http://www.w3.org/1999/xlink" xml:space="preserve" onload="init(evt)">
<style type="text/css"><![CDATA[
.edge:hover path { stroke: red; }
.edge:hover polygon { stroke: red; fill: red; }
]]></style>
<script type="text/javascript"><![CDATA[
var edges = document.getElementsByTagName('g');
if (edges && edges.length) {
  for (var i=0;i<edges.length;i++) {
    if (edges[i].id.substr(0,4)=='edge') {
      edges[i].setAttribute('class','edge');
    }
  }
}
]]></script>
        <defs>
                <circle id="rim" cx="0" cy="0" r="7"/>
                <circle id="rim2" cx="0" cy="0" r="3.5"/>
                <g id="zoomPlus">
                        <use xlink:href="#rim" fill="#404040">
                                <set attributeName="fill" to="#808080" begin="zoomplus.mouseover" end="zoomplus.mouseout"/>
                        </use>
                        <path d="M-4,0h8M0,-4v8" fill="none" stroke="white" stroke-width="1.5" pointer-events="none"/>
                </g>
                <g id="zoomMin">
                        <use xlink:href="#rim" fill="#404040">
                                <set attributeName="fill" to="#808080" begin="zoomminus.mouseover" end="zoomminus.mouseout"/>
                        </use>
                        <path d="M-4,0h8" fill="none" stroke="white" stroke-width="1.5" pointer-events="none"/>
                </g>
                <g id="dirArrow">
                        <path fill="none" stroke="white" stroke-width="1.5" d="M0,-3.0v7 M-2.5,-0.5L0,-3.0L2.5,-0.5"/>
                </g>
               <g id="resetDef">
                       <use xlink:href="#rim2" fill="#404040">
                               <set attributeName="fill" to="#808080" begin="reset.mouseover" end="reset.mouseout"/>
                       </use>
               </g>
        </defs>

<script type="text/javascript">
var viewWidth = 140;
var viewHeight = 661;
var sectionId = 'dynsection-0';
</script>
<script xlink:href="../../svgpan.js"/>
<svg id="graph" class="graph">
<g id="viewport">
<title>Juniper.Widgets.MenuView</title>
<polygon fill="white" stroke="none" points="-4,4 -4,-657 136,-657 136,4 -4,4"/>
<!-- Node0 -->
<g id="node1" class="node"><title>Node0</title>
<g id="a_node1"><a xlink:title=" ">
<polygon fill="#bfbfbf" stroke="black" points="0,-0.5 0,-123.5 132,-123.5 132,-0.5 0,-0.5"/>
<text text-anchor="middle" x="66" y="-111.5" font-family="SegoeUI" font-size="10.00">Juniper.Widgets.MenuView</text>
<polyline fill="none" stroke="black" points="0,-104.5 132,-104.5 "/>
<text text-anchor="start" x="8" y="-92.5" font-family="SegoeUI" font-size="10.00">&#45; transitions</text>
<text text-anchor="start" x="8" y="-81.5" font-family="SegoeUI" font-size="10.00">&#45; waitingCount</text>
<polyline fill="none" stroke="black" points="0,-74.5 132,-74.5 "/>
<text text-anchor="start" x="8" y="-62.5" font-family="SegoeUI" font-size="10.00">+ Awake()</text>
<text text-anchor="start" x="8" y="-51.5" font-family="SegoeUI" font-size="10.00">+ SkipEnter()</text>
<text text-anchor="start" x="8" y="-40.5" font-family="SegoeUI" font-size="10.00">+ SkipExit()</text>
<text text-anchor="start" x="8" y="-29.5" font-family="SegoeUI" font-size="10.00">+ Enter()</text>
<text text-anchor="start" x="8" y="-18.5" font-family="SegoeUI" font-size="10.00">+ Exit()</text>
<text text-anchor="start" x="8" y="-7.5" font-family="SegoeUI" font-size="10.00">&#45; Trans_EnteredExited()</text>
</a>
</g>
</g>
<!-- Node1 -->
<g id="node2" class="node"><title>Node1</title>
<g id="a_node2"><a xlink:href="../../d9/d7e/class_juniper_1_1_abstract_state_controller.html" target="_top" xlink:title="A subscene is a game object loaded from another scene. The scenes all get loaded at runtime and then ...">
<polygon fill="white" stroke="black" points="8,-160.5 8,-558.5 124,-558.5 124,-160.5 8,-160.5"/>
<text text-anchor="middle" x="66" y="-546.5" font-family="SegoeUI" font-size="10.00">AbstractStateController</text>
<polyline fill="none" stroke="black" points="8,-539.5 124,-539.5 "/>
<text text-anchor="start" x="16" y="-527.5" font-family="SegoeUI" font-size="10.00">+ onEntering</text>
<text text-anchor="start" x="16" y="-516.5" font-family="SegoeUI" font-size="10.00">+ onEntered</text>
<text text-anchor="start" x="16" y="-505.5" font-family="SegoeUI" font-size="10.00">+ onExiting</text>
<text text-anchor="start" x="16" y="-494.5" font-family="SegoeUI" font-size="10.00">+ onExited</text>
<text text-anchor="start" x="16" y="-483.5" font-family="SegoeUI" font-size="10.00">+ onStopped</text>
<text text-anchor="start" x="16" y="-472.5" font-family="SegoeUI" font-size="10.00">+ _curState</text>
<text text-anchor="start" x="16" y="-461.5" font-family="SegoeUI" font-size="10.00">+ State</text>
<text text-anchor="start" x="16" y="-450.5" font-family="SegoeUI" font-size="10.00">+ IsComplete</text>
<text text-anchor="start" x="16" y="-439.5" font-family="SegoeUI" font-size="10.00">+ IsEntering</text>
<text text-anchor="start" x="16" y="-428.5" font-family="SegoeUI" font-size="10.00">+ IsExiting</text>
<text text-anchor="start" x="16" y="-417.5" font-family="SegoeUI" font-size="10.00">+ CanExit</text>
<text text-anchor="start" x="16" y="-406.5" font-family="SegoeUI" font-size="10.00">+ CanEnter</text>
<text text-anchor="start" x="16" y="-395.5" font-family="SegoeUI" font-size="10.00">+ IsRunning</text>
<text text-anchor="start" x="16" y="-384.5" font-family="SegoeUI" font-size="10.00">+ IsEntered</text>
<text text-anchor="start" x="16" y="-373.5" font-family="SegoeUI" font-size="10.00">+ IsExited</text>
<text text-anchor="start" x="16" y="-362.5" font-family="SegoeUI" font-size="10.00"># skipEvents</text>
<text text-anchor="start" x="16" y="-351.5" font-family="SegoeUI" font-size="10.00">&#45; lastState</text>
<polyline fill="none" stroke="black" points="8,-344.5 124,-344.5 "/>
<text text-anchor="start" x="16" y="-332.5" font-family="SegoeUI" font-size="10.00">+ Enter()</text>
<text text-anchor="start" x="16" y="-321.5" font-family="SegoeUI" font-size="10.00">+ Enter()</text>
<text text-anchor="start" x="16" y="-310.5" font-family="SegoeUI" font-size="10.00">+ Exit()</text>
<text text-anchor="start" x="16" y="-299.5" font-family="SegoeUI" font-size="10.00">+ Exit()</text>
<text text-anchor="start" x="16" y="-288.5" font-family="SegoeUI" font-size="10.00">+ SkipEnter()</text>
<text text-anchor="start" x="16" y="-277.5" font-family="SegoeUI" font-size="10.00">+ SkipExit()</text>
<text text-anchor="start" x="16" y="-266.5" font-family="SegoeUI" font-size="10.00">+ EnterAsync()</text>
<text text-anchor="start" x="16" y="-255.5" font-family="SegoeUI" font-size="10.00">+ ExitAsync()</text>
<text text-anchor="start" x="16" y="-244.5" font-family="SegoeUI" font-size="10.00"># Complete()</text>
<text text-anchor="start" x="16" y="-233.5" font-family="SegoeUI" font-size="10.00"># OnEntering()</text>
<text text-anchor="start" x="16" y="-222.5" font-family="SegoeUI" font-size="10.00"># OnEntered()</text>
<text text-anchor="start" x="16" y="-211.5" font-family="SegoeUI" font-size="10.00"># OnExiting()</text>
<text text-anchor="start" x="16" y="-200.5" font-family="SegoeUI" font-size="10.00"># OnExited()</text>
<text text-anchor="start" x="16" y="-189.5" font-family="SegoeUI" font-size="10.00"># OnStopped()</text>
<text text-anchor="start" x="16" y="-178.5" font-family="SegoeUI" font-size="10.00">&#45; SetState()</text>
<text text-anchor="start" x="16" y="-167.5" font-family="SegoeUI" font-size="10.00">&#45; Stopper()</text>
</a>
</g>
</g>
<!-- Node1&#45;&gt;Node0 -->
<g id="edge1" class="edge"><title>Node1&#45;&gt;Node0</title>
<path fill="none" stroke="midnightblue" d="M66,-150.03C66,-140.819 66,-131.988 66,-123.722"/>
<polygon fill="none" stroke="midnightblue" points="62.5001,-150.167 66,-160.167 69.5001,-150.167 62.5001,-150.167"/>
</g>
<!-- Node2 -->
<g id="node3" class="node"><title>Node2</title>
<g id="a_node3"><a xlink:title=" ">
<polygon fill="white" stroke="#bfbfbf" points="25,-595.5 25,-652.5 107,-652.5 107,-595.5 25,-595.5"/>
<text text-anchor="middle" x="66" y="-640.5" font-family="SegoeUI" font-size="10.00">MonoBehaviour</text>
<polyline fill="none" stroke="#bfbfbf" points="25,-633.5 107,-633.5 "/>
<text text-anchor="middle" x="66" y="-621.5" font-family="SegoeUI" font-size="10.00"> </text>
<polyline fill="none" stroke="#bfbfbf" points="25,-614.5 107,-614.5 "/>
<text text-anchor="middle" x="66" y="-602.5" font-family="SegoeUI" font-size="10.00"> </text>
</a>
</g>
</g>
<!-- Node2&#45;&gt;Node1 -->
<g id="edge2" class="edge"><title>Node2&#45;&gt;Node1</title>
<path fill="none" stroke="midnightblue" d="M66,-585.399C66,-577.336 66,-568.29 66,-558.578"/>
<polygon fill="none" stroke="midnightblue" points="62.5001,-585.404 66,-595.404 69.5001,-585.404 62.5001,-585.404"/>
</g>
</g>
</svg>
        <g id="navigator" transform="translate(0 0)" fill="#404254">
                <rect fill="#f2f5e9" fill-opacity="0.5" stroke="#606060" stroke-width=".5" x="0" y="0" width="60" height="60"/>
                <use id="zoomplus" xlink:href="#zoomPlus" x="17" y="9" onmousedown="handleZoom(evt,'in')"/>
                <use id="zoomminus" xlink:href="#zoomMin" x="42" y="9" onmousedown="handleZoom(evt,'out')"/>
                <use id="reset" xlink:href="#resetDef" x="30" y="36" onmousedown="handleReset()"/>
                <g id="arrowUp" xlink:href="#dirArrow" transform="translate(30 24)" onmousedown="handlePan(0,-1)">
                  <use xlink:href="#rim" fill="#404040">
                        <set attributeName="fill" to="#808080" begin="arrowUp.mouseover" end="arrowUp.mouseout"/>
                  </use>
                  <path fill="none" stroke="white" stroke-width="1.5" d="M0,-3.0v7 M-2.5,-0.5L0,-3.0L2.5,-0.5"/>
                </g>
                <g id="arrowRight" xlink:href="#dirArrow" transform="rotate(90) translate(36 -43)" onmousedown="handlePan(1,0)">
                  <use xlink:href="#rim" fill="#404040">
                        <set attributeName="fill" to="#808080" begin="arrowRight.mouseover" end="arrowRight.mouseout"/>
                  </use>
                  <path fill="none" stroke="white" stroke-width="1.5" d="M0,-3.0v7 M-2.5,-0.5L0,-3.0L2.5,-0.5"/>
                </g>
                <g id="arrowDown" xlink:href="#dirArrow" transform="rotate(180) translate(-30 -48)" onmousedown="handlePan(0,1)">
                  <use xlink:href="#rim" fill="#404040">
                        <set attributeName="fill" to="#808080" begin="arrowDown.mouseover" end="arrowDown.mouseout"/>
                  </use>
                  <path fill="none" stroke="white" stroke-width="1.5" d="M0,-3.0v7 M-2.5,-0.5L0,-3.0L2.5,-0.5"/>
                </g>
                <g id="arrowLeft" xlink:href="#dirArrow" transform="rotate(270) translate(-36 17)" onmousedown="handlePan(-1,0)">
                  <use xlink:href="#rim" fill="#404040">
                        <set attributeName="fill" to="#808080" begin="arrowLeft.mouseover" end="arrowLeft.mouseout"/>
                  </use>
                  <path fill="none" stroke="white" stroke-width="1.5" d="M0,-3.0v7 M-2.5,-0.5L0,-3.0L2.5,-0.5"/>
                </g>
        </g>
        <svg viewBox="0 0 15 15" width="100%" height="30px" preserveAspectRatio="xMaxYMin meet">
         <g id="arrow_out" transform="scale(0.3 0.3)">
          <a xlink:href="class_juniper_1_1_widgets_1_1_menu_view__inherit__graph_org.svg" target="_base">
           <rect id="button" ry="5" rx="5" y="6" x="6" height="38" width="38"
                fill="#f2f5e9" fill-opacity="0.5" stroke="#606060" stroke-width="1.0"/>
           <path id="arrow"
             d="M 11.500037,31.436501 C 11.940474,20.09759 22.043105,11.32322 32.158766,21.979434 L 37.068811,17.246167 C 37.068811,17.246167 37.088388,32 37.088388,32 L 22.160133,31.978069 C 22.160133,31.978069 26.997745,27.140456 26.997745,27.140456 C 18.528582,18.264221 13.291696,25.230495 11.500037,31.436501 z"
             style="fill:#404040;"/>
          </a>
         </g>
        </svg>
</svg>
