<?xml version="1.0" encoding="UTF-8" standalone="no"?>
<!DOCTYPE svg PUBLIC "-//W3C//DTD SVG 1.1//EN"
 "http://www.w3.org/Graphics/SVG/1.1/DTD/svg11.dtd">
<!-- Generated by graphviz version 2.38.0 (20140413.2041)
 -->
<!-- Title: Juniper.Unity.Video.Video360 Pages: 1 -->
<!--zoomable 1301 -->
<svg id="main" version="1.1" xmlns="http://www.w3.org/2000/svg" xmlns:xlink="http://www.w3.org/1999/xlink" xml:space="preserve" onload="init(evt)">
<style type="text/css"><![CDATA[
.edge:hover path { stroke: red; }
.edge:hover polygon { stroke: red; fill: red; }
]]></style>
<script type="text/javascript"><![CDATA[
var edges = document.getElementsByTagName('g');
if (edges && edges.length) {
  for (var i=0;i<edges.length;i++) {
    if (edges[i].id.substr(0,4)=='edge') {
      edges[i].setAttribute('class','edge');
    }
  }
}
]]></script>
        <defs>
                <circle id="rim" cx="0" cy="0" r="7"/>
                <circle id="rim2" cx="0" cy="0" r="3.5"/>
                <g id="zoomPlus">
                        <use xlink:href="#rim" fill="#404040">
                                <set attributeName="fill" to="#808080" begin="zoomplus.mouseover" end="zoomplus.mouseout"/>
                        </use>
                        <path d="M-4,0h8M0,-4v8" fill="none" stroke="white" stroke-width="1.5" pointer-events="none"/>
                </g>
                <g id="zoomMin">
                        <use xlink:href="#rim" fill="#404040">
                                <set attributeName="fill" to="#808080" begin="zoomminus.mouseover" end="zoomminus.mouseout"/>
                        </use>
                        <path d="M-4,0h8" fill="none" stroke="white" stroke-width="1.5" pointer-events="none"/>
                </g>
                <g id="dirArrow">
                        <path fill="none" stroke="white" stroke-width="1.5" d="M0,-3.0v7 M-2.5,-0.5L0,-3.0L2.5,-0.5"/>
                </g>
               <g id="resetDef">
                       <use xlink:href="#rim2" fill="#404040">
                               <set attributeName="fill" to="#808080" begin="reset.mouseover" end="reset.mouseout"/>
                       </use>
               </g>
        </defs>

<script type="text/javascript">
var viewWidth = 368;
var viewHeight = 1301;
var sectionId = 'dynsection-1';
</script>
<script xlink:href="../../svgpan.js"/>
<svg id="graph" class="graph">
<g id="viewport">
<title>Juniper.Unity.Video.Video360</title>
<polygon fill="white" stroke="none" points="-4,4 -4,-1297 363.5,-1297 363.5,4 -4,4"/>
<!-- Node4 -->
<g id="node1" class="node"><title>Node4</title>
<g id="a_node1"><a xlink:title=" ">
<polygon fill="#bfbfbf" stroke="black" points="146.5,-0.5 146.5,-321.5 287.5,-321.5 287.5,-0.5 146.5,-0.5"/>
<text text-anchor="middle" x="217" y="-309.5" font-family="SegoeUI" font-size="10.00">Juniper.Unity.Video.Video360</text>
<polyline fill="none" stroke="black" points="146.5,-302.5 287.5,-302.5 "/>
<text text-anchor="start" x="154.5" y="-290.5" font-family="SegoeUI" font-size="10.00">+ textureFormat</text>
<text text-anchor="start" x="154.5" y="-279.5" font-family="SegoeUI" font-size="10.00">+ tint</text>
<text text-anchor="start" x="154.5" y="-268.5" font-family="SegoeUI" font-size="10.00">+ exposure</text>
<text text-anchor="start" x="154.5" y="-257.5" font-family="SegoeUI" font-size="10.00">+ rotation</text>
<text text-anchor="start" x="154.5" y="-246.5" font-family="SegoeUI" font-size="10.00">+ useMipMap</text>
<text text-anchor="start" x="154.5" y="-235.5" font-family="SegoeUI" font-size="10.00">+ layout</text>
<text text-anchor="start" x="154.5" y="-224.5" font-family="SegoeUI" font-size="10.00">+ imageType</text>
<text text-anchor="start" x="154.5" y="-213.5" font-family="SegoeUI" font-size="10.00">+ mirror180OnBack</text>
<text text-anchor="start" x="154.5" y="-202.5" font-family="SegoeUI" font-size="10.00">+ stereoLayout</text>
<text text-anchor="start" x="154.5" y="-191.5" font-family="SegoeUI" font-size="10.00">+ onLoop</text>
<text text-anchor="start" x="154.5" y="-180.5" font-family="SegoeUI" font-size="10.00">+ Loop</text>
<text text-anchor="start" x="154.5" y="-169.5" font-family="SegoeUI" font-size="10.00">+ secondsToCache</text>
<text text-anchor="start" x="154.5" y="-158.5" font-family="SegoeUI" font-size="10.00">&#45; LAT_LON</text>
<text text-anchor="start" x="154.5" y="-147.5" font-family="SegoeUI" font-size="10.00">&#45; SIDES_6</text>
<text text-anchor="start" x="154.5" y="-136.5" font-family="SegoeUI" font-size="10.00">&#45; width</text>
<text text-anchor="start" x="154.5" y="-125.5" font-family="SegoeUI" font-size="10.00">&#45; height</text>
<text text-anchor="start" x="154.5" y="-114.5" font-family="SegoeUI" font-size="10.00">&#45; player</text>
<text text-anchor="start" x="154.5" y="-103.5" font-family="SegoeUI" font-size="10.00">&#45; audioTracks</text>
<text text-anchor="start" x="154.5" y="-92.5" font-family="SegoeUI" font-size="10.00">&#45; renderTexture</text>
<text text-anchor="start" x="154.5" y="-81.5" font-family="SegoeUI" font-size="10.00">&#45; skyboxMaterial</text>
<polyline fill="none" stroke="black" points="146.5,-74.5 287.5,-74.5 "/>
<text text-anchor="start" x="154.5" y="-62.5" font-family="SegoeUI" font-size="10.00">+ Awake()</text>
<text text-anchor="start" x="154.5" y="-51.5" font-family="SegoeUI" font-size="10.00">+ Load()</text>
<text text-anchor="start" x="154.5" y="-40.5" font-family="SegoeUI" font-size="10.00">+ Play()</text>
<text text-anchor="start" x="154.5" y="-29.5" font-family="SegoeUI" font-size="10.00">+ Update()</text>
<text text-anchor="start" x="154.5" y="-18.5" font-family="SegoeUI" font-size="10.00"># OnLoop()</text>
<text text-anchor="start" x="154.5" y="-7.5" font-family="SegoeUI" font-size="10.00">&#45; CreateAudioTracks()</text>
</a>
</g>
</g>
<!-- Node5 -->
<g id="node2" class="node"><title>Node5</title>
<g id="a_node2"><a xlink:href="../../d7/d3c/class_juniper_1_1_unity_1_1_sub_scene_controller.html" target="_top" xlink:title="SubSceneControllers are used by the MasterSceneController to manage workflow through an application....">
<polygon fill="white" stroke="black" points="64,-369.5 64,-536.5 184,-536.5 184,-369.5 64,-369.5"/>
<text text-anchor="middle" x="124" y="-524.5" font-family="SegoeUI" font-size="10.00">SubSceneController</text>
<polyline fill="none" stroke="black" points="64,-517.5 184,-517.5 "/>
<text text-anchor="start" x="72" y="-505.5" font-family="SegoeUI" font-size="10.00">+ Enterable</text>
<text text-anchor="start" x="72" y="-494.5" font-family="SegoeUI" font-size="10.00">+ Exitable</text>
<text text-anchor="start" x="72" y="-483.5" font-family="SegoeUI" font-size="10.00">+ CurrentSubScenes</text>
<text text-anchor="start" x="72" y="-472.5" font-family="SegoeUI" font-size="10.00"># deactivateOnExit</text>
<text text-anchor="start" x="72" y="-461.5" font-family="SegoeUI" font-size="10.00">&#45; isExitingPreviousScene</text>
<polyline fill="none" stroke="black" points="64,-454.5 184,-454.5 "/>
<text text-anchor="start" x="72" y="-442.5" font-family="SegoeUI" font-size="10.00">+ Awake()</text>
<text text-anchor="start" x="72" y="-431.5" font-family="SegoeUI" font-size="10.00">+ Load()</text>
<text text-anchor="start" x="72" y="-420.5" font-family="SegoeUI" font-size="10.00">+ Enter()</text>
<text text-anchor="start" x="72" y="-409.5" font-family="SegoeUI" font-size="10.00">+ Exit()</text>
<text text-anchor="start" x="72" y="-398.5" font-family="SegoeUI" font-size="10.00">+ Update()</text>
<text text-anchor="start" x="72" y="-387.5" font-family="SegoeUI" font-size="10.00"># OnExited()</text>
<text text-anchor="start" x="72" y="-376.5" font-family="SegoeUI" font-size="10.00">&#45; AllComplete()</text>
</a>
</g>
</g>
<!-- Node5&#45;&gt;Node4 -->
<g id="edge1" class="edge"><title>Node5&#45;&gt;Node4</title>
<path fill="none" stroke="midnightblue" d="M153.628,-359.611C157.549,-347.383 161.656,-334.578 165.813,-321.615"/>
<polygon fill="none" stroke="midnightblue" points="150.247,-358.695 150.526,-369.286 156.912,-360.832 150.247,-358.695"/>
</g>
<!-- Node6 -->
<g id="node3" class="node"><title>Node6</title>
<g id="a_node3"><a xlink:href="../../dd/d90/class_juniper_1_1_unity_1_1_abstract_state_controller.html" target="_top" xlink:title="A subscene is a game object loaded from another scene. The scenes all get loaded at runtime and then ...">
<polygon fill="white" stroke="black" points="0,-887.5 0,-1197.5 116,-1197.5 116,-887.5 0,-887.5"/>
<text text-anchor="middle" x="58" y="-1185.5" font-family="SegoeUI" font-size="10.00">AbstractStateController</text>
<polyline fill="none" stroke="black" points="0,-1178.5 116,-1178.5 "/>
<text text-anchor="start" x="8" y="-1166.5" font-family="SegoeUI" font-size="10.00">+ onEntering</text>
<text text-anchor="start" x="8" y="-1155.5" font-family="SegoeUI" font-size="10.00">+ onEntered</text>
<text text-anchor="start" x="8" y="-1144.5" font-family="SegoeUI" font-size="10.00">+ onExiting</text>
<text text-anchor="start" x="8" y="-1133.5" font-family="SegoeUI" font-size="10.00">+ onExited</text>
<text text-anchor="start" x="8" y="-1122.5" font-family="SegoeUI" font-size="10.00">+ state</text>
<text text-anchor="start" x="8" y="-1111.5" font-family="SegoeUI" font-size="10.00">+ IsComplete</text>
<text text-anchor="start" x="8" y="-1100.5" font-family="SegoeUI" font-size="10.00">+ IsRunning</text>
<text text-anchor="start" x="8" y="-1089.5" font-family="SegoeUI" font-size="10.00">+ IsEntered</text>
<text text-anchor="start" x="8" y="-1078.5" font-family="SegoeUI" font-size="10.00">+ IsExited</text>
<text text-anchor="start" x="8" y="-1067.5" font-family="SegoeUI" font-size="10.00">+ Waiter</text>
<text text-anchor="start" x="8" y="-1056.5" font-family="SegoeUI" font-size="10.00">&#45; lastState</text>
<text text-anchor="start" x="8" y="-1045.5" font-family="SegoeUI" font-size="10.00">&#45; skipEvents</text>
<text text-anchor="start" x="8" y="-1034.5" font-family="SegoeUI" font-size="10.00">&#45; _waiter</text>
<polyline fill="none" stroke="black" points="0,-1027.5 116,-1027.5 "/>
<text text-anchor="start" x="8" y="-1015.5" font-family="SegoeUI" font-size="10.00">+ HasCompleted()</text>
<text text-anchor="start" x="8" y="-1004.5" font-family="SegoeUI" font-size="10.00">+ SkipEnter()</text>
<text text-anchor="start" x="8" y="-993.5" font-family="SegoeUI" font-size="10.00">+ Enter()</text>
<text text-anchor="start" x="8" y="-982.5" font-family="SegoeUI" font-size="10.00">+ OnEnable()</text>
<text text-anchor="start" x="8" y="-971.5" font-family="SegoeUI" font-size="10.00">+ Update()</text>
<text text-anchor="start" x="8" y="-960.5" font-family="SegoeUI" font-size="10.00">+ SkipExit()</text>
<text text-anchor="start" x="8" y="-949.5" font-family="SegoeUI" font-size="10.00">+ Exit()</text>
<text text-anchor="start" x="8" y="-938.5" font-family="SegoeUI" font-size="10.00">+ OnDisable()</text>
<text text-anchor="start" x="8" y="-927.5" font-family="SegoeUI" font-size="10.00"># OnEntering()</text>
<text text-anchor="start" x="8" y="-916.5" font-family="SegoeUI" font-size="10.00"># OnEntered()</text>
<text text-anchor="start" x="8" y="-905.5" font-family="SegoeUI" font-size="10.00"># OnExiting()</text>
<text text-anchor="start" x="8" y="-894.5" font-family="SegoeUI" font-size="10.00"># OnExited()</text>
</a>
</g>
</g>
<!-- Node6&#45;&gt;Node5 -->
<g id="edge2" class="edge"><title>Node6&#45;&gt;Node5</title>
<path fill="none" stroke="midnightblue" d="M30.6837,-877.187C21.6859,-788.776 19.7577,-678.743 46,-584 50.4614,-567.893 57.5086,-551.778 65.5844,-536.65"/>
<polygon fill="none" stroke="midnightblue" points="27.2219,-877.734 31.7543,-887.311 34.1831,-876.998 27.2219,-877.734"/>
</g>
<!-- Node8 -->
<g id="node5" class="node"><title>Node8</title>
<g id="a_node5"><a xlink:href="../../de/d7d/class_juniper_1_1_unity_1_1_animation_1_1_abstract_transition_controller.html" target="_top" xlink:title="Child classes of this class are able to animate transitions between program states.">
<polygon fill="white" stroke="black" points="55.5,-584.5 55.5,-839.5 192.5,-839.5 192.5,-584.5 55.5,-584.5"/>
<text text-anchor="start" x="63.5" y="-827.5" font-family="SegoeUI" font-size="10.00">Juniper.Unity.Animation.</text>
<text text-anchor="middle" x="124" y="-816.5" font-family="SegoeUI" font-size="10.00">AbstractTransitionController</text>
<polyline fill="none" stroke="black" points="55.5,-809.5 192.5,-809.5 "/>
<text text-anchor="start" x="63.5" y="-797.5" font-family="SegoeUI" font-size="10.00">+ attackTime</text>
<text text-anchor="start" x="63.5" y="-786.5" font-family="SegoeUI" font-size="10.00">+ releaseTime</text>
<text text-anchor="start" x="63.5" y="-775.5" font-family="SegoeUI" font-size="10.00">+ onValueChanged</text>
<text text-anchor="start" x="63.5" y="-764.5" font-family="SegoeUI" font-size="10.00">+ tween</text>
<text text-anchor="start" x="63.5" y="-753.5" font-family="SegoeUI" font-size="10.00">+ tweenK</text>
<text text-anchor="start" x="63.5" y="-742.5" font-family="SegoeUI" font-size="10.00">+ TransitionLength</text>
<text text-anchor="start" x="63.5" y="-731.5" font-family="SegoeUI" font-size="10.00">&#45; tweenFunc</text>
<text text-anchor="start" x="63.5" y="-720.5" font-family="SegoeUI" font-size="10.00">&#45; attack</text>
<text text-anchor="start" x="63.5" y="-709.5" font-family="SegoeUI" font-size="10.00">&#45; release</text>
<text text-anchor="start" x="63.5" y="-698.5" font-family="SegoeUI" font-size="10.00">&#45; progress</text>
<text text-anchor="start" x="63.5" y="-687.5" font-family="SegoeUI" font-size="10.00">&#45; tweenedValue</text>
<polyline fill="none" stroke="black" points="55.5,-680.5 192.5,-680.5 "/>
<text text-anchor="start" x="63.5" y="-668.5" font-family="SegoeUI" font-size="10.00">+ Enter()</text>
<text text-anchor="start" x="63.5" y="-657.5" font-family="SegoeUI" font-size="10.00">+ SkipEnter()</text>
<text text-anchor="start" x="63.5" y="-646.5" font-family="SegoeUI" font-size="10.00">+ Exit()</text>
<text text-anchor="start" x="63.5" y="-635.5" font-family="SegoeUI" font-size="10.00">+ Update()</text>
<text text-anchor="start" x="63.5" y="-624.5" font-family="SegoeUI" font-size="10.00"># RenderValue()</text>
<text text-anchor="start" x="63.5" y="-613.5" font-family="SegoeUI" font-size="10.00">&#45; OnValueChanged()</text>
<text text-anchor="start" x="63.5" y="-602.5" font-family="SegoeUI" font-size="10.00">&#45; SetProgress()</text>
<text text-anchor="start" x="63.5" y="-591.5" font-family="SegoeUI" font-size="10.00">&#45; StartTransition()</text>
</a>
</g>
</g>
<!-- Node6&#45;&gt;Node8 -->
<g id="edge5" class="edge"><title>Node6&#45;&gt;Node8</title>
<path fill="none" stroke="midnightblue" d="M91.0078,-877.211C93.5491,-864.563 96.0903,-851.914 98.5712,-839.566"/>
<polygon fill="none" stroke="midnightblue" points="87.5093,-876.856 88.9709,-887.35 94.3721,-878.235 87.5093,-876.856"/>
</g>
<!-- Node7 -->
<g id="node4" class="node"><title>Node7</title>
<g id="a_node4"><a xlink:title=" ">
<polygon fill="white" stroke="#bfbfbf" points="17,-1235.5 17,-1292.5 99,-1292.5 99,-1235.5 17,-1235.5"/>
<text text-anchor="middle" x="58" y="-1280.5" font-family="SegoeUI" font-size="10.00">MonoBehaviour</text>
<polyline fill="none" stroke="#bfbfbf" points="17,-1273.5 99,-1273.5 "/>
<text text-anchor="middle" x="58" y="-1261.5" font-family="SegoeUI" font-size="10.00"> </text>
<polyline fill="none" stroke="#bfbfbf" points="17,-1254.5 99,-1254.5 "/>
<text text-anchor="middle" x="58" y="-1242.5" font-family="SegoeUI" font-size="10.00"> </text>
</a>
</g>
</g>
<!-- Node7&#45;&gt;Node6 -->
<g id="edge3" class="edge"><title>Node7&#45;&gt;Node6</title>
<path fill="none" stroke="midnightblue" d="M58,-1224.99C58,-1216.78 58,-1207.62 58,-1197.89"/>
<polygon fill="none" stroke="midnightblue" points="54.5001,-1225.2 58,-1235.2 61.5001,-1225.2 54.5001,-1225.2"/>
</g>
<!-- Node8&#45;&gt;Node5 -->
<g id="edge4" class="edge"><title>Node8&#45;&gt;Node5</title>
<path fill="none" stroke="#404040" d="M124,-584.382C124,-572.472 124,-560.541 124,-548.997"/>
<polygon fill="none" stroke="#404040" points="124,-548.642 120,-542.643 124,-536.642 128,-542.642 124,-548.642"/>
<text text-anchor="middle" x="161" y="-558" font-family="SegoeUI" font-size="10.00"> &#45;childTransitions</text>
</g>
<!-- Node9 -->
<g id="node6" class="node"><title>Node9</title>
<g id="a_node6"><a xlink:href="../../da/d67/class_juniper_1_1_unity_1_1_video_1_1_streamable_video_clip.html" target="_top" xlink:title=" ">
<polygon fill="white" stroke="black" points="204.5,-419 204.5,-487 355.5,-487 355.5,-419 204.5,-419"/>
<text text-anchor="start" x="212.5" y="-475" font-family="SegoeUI" font-size="10.00">Juniper.Unity.Video.Streamable</text>
<text text-anchor="middle" x="280" y="-464" font-family="SegoeUI" font-size="10.00">VideoClip</text>
<polyline fill="none" stroke="black" points="204.5,-457 355.5,-457 "/>
<text text-anchor="middle" x="280" y="-445" font-family="SegoeUI" font-size="10.00"> </text>
<polyline fill="none" stroke="black" points="204.5,-438 355.5,-438 "/>
<text text-anchor="start" x="212.5" y="-426" font-family="SegoeUI" font-size="10.00">+ Load()</text>
</a>
</g>
</g>
<!-- Node9&#45;&gt;Node4 -->
<g id="edge6" class="edge"><title>Node9&#45;&gt;Node4</title>
<path fill="none" stroke="#404040" d="M272.773,-418.733C268.009,-396.804 261.366,-366.223 254.32,-333.789"/>
<polygon fill="none" stroke="#404040" points="254.256,-333.496 249.073,-328.481 251.708,-321.769 256.891,-326.783 254.256,-333.496"/>
<text text-anchor="middle" x="282" y="-343" font-family="SegoeUI" font-size="10.00"> +videoClip</text>
</g>
<!-- Node10 -->
<g id="node7" class="node"><title>Node10</title>
<g id="a_node7"><a xlink:href="../../d5/d45/class_juniper_1_1_unity_1_1_streamable_asset.html" target="_top" xlink:title=" ">
<polygon fill="white" stroke="black" points="210.5,-683.5 210.5,-740.5 359.5,-740.5 359.5,-683.5 210.5,-683.5"/>
<text text-anchor="middle" x="285" y="-728.5" font-family="SegoeUI" font-size="10.00">StreamableAsset&lt; VideoClip &gt;</text>
<polyline fill="none" stroke="black" points="210.5,-721.5 359.5,-721.5 "/>
<text text-anchor="middle" x="285" y="-709.5" font-family="SegoeUI" font-size="10.00"> </text>
<polyline fill="none" stroke="black" points="210.5,-702.5 359.5,-702.5 "/>
<text text-anchor="middle" x="285" y="-690.5" font-family="SegoeUI" font-size="10.00"> </text>
</a>
</g>
</g>
<!-- Node10&#45;&gt;Node9 -->
<g id="edge7" class="edge"><title>Node10&#45;&gt;Node9</title>
<path fill="none" stroke="midnightblue" d="M284.268,-673.398C283.293,-623.253 281.581,-535.257 280.649,-487.359"/>
<polygon fill="none" stroke="midnightblue" points="280.771,-673.567 284.465,-683.496 287.77,-673.43 280.771,-673.567"/>
</g>
<!-- Node11 -->
<g id="node8" class="node"><title>Node11</title>
<g id="a_node8"><a xlink:href="../../d5/d45/class_juniper_1_1_unity_1_1_streamable_asset.html" target="_top" xlink:title=" ">
<polygon fill="white" stroke="black" points="223,-1008.5 223,-1076.5 347,-1076.5 347,-1008.5 223,-1008.5"/>
<text text-anchor="start" x="231" y="-1064.5" font-family="SegoeUI" font-size="10.00">Juniper.Unity.Streamable</text>
<text text-anchor="middle" x="285" y="-1053.5" font-family="SegoeUI" font-size="10.00">Asset</text>
<polyline fill="none" stroke="black" points="223,-1046.5 347,-1046.5 "/>
<text text-anchor="middle" x="285" y="-1034.5" font-family="SegoeUI" font-size="10.00"> </text>
<polyline fill="none" stroke="black" points="223,-1027.5 347,-1027.5 "/>
<text text-anchor="middle" x="285" y="-1015.5" font-family="SegoeUI" font-size="10.00"> </text>
</a>
</g>
</g>
<!-- Node11&#45;&gt;Node10 -->
<g id="edge8" class="edge"><title>Node11&#45;&gt;Node10</title>
<path fill="none" stroke="orange" d="M285,-998.474C285,-930.01 285,-798.158 285,-740.794"/>
<polygon fill="orange" stroke="orange" points="281.5,-998.498 285,-1008.5 288.5,-998.498 281.5,-998.498"/>
<text text-anchor="middle" x="316.5" y="-861" font-family="SegoeUI" font-size="10.00"> &lt; VideoClip &gt;</text>
</g>
</g>
</svg>
        <g id="navigator" transform="translate(0 0)" fill="#404254">
                <rect fill="#f2f5e9" fill-opacity="0.5" stroke="#606060" stroke-width=".5" x="0" y="0" width="60" height="60"/>
                <use id="zoomplus" xlink:href="#zoomPlus" x="17" y="9" onmousedown="handleZoom(evt,'in')"/>
                <use id="zoomminus" xlink:href="#zoomMin" x="42" y="9" onmousedown="handleZoom(evt,'out')"/>
                <use id="reset" xlink:href="#resetDef" x="30" y="36" onmousedown="handleReset()"/>
                <g id="arrowUp" xlink:href="#dirArrow" transform="translate(30 24)" onmousedown="handlePan(0,-1)">
                  <use xlink:href="#rim" fill="#404040">
                        <set attributeName="fill" to="#808080" begin="arrowUp.mouseover" end="arrowUp.mouseout"/>
                  </use>
                  <path fill="none" stroke="white" stroke-width="1.5" d="M0,-3.0v7 M-2.5,-0.5L0,-3.0L2.5,-0.5"/>
                </g>
                <g id="arrowRight" xlink:href="#dirArrow" transform="rotate(90) translate(36 -43)" onmousedown="handlePan(1,0)">
                  <use xlink:href="#rim" fill="#404040">
                        <set attributeName="fill" to="#808080" begin="arrowRight.mouseover" end="arrowRight.mouseout"/>
                  </use>
                  <path fill="none" stroke="white" stroke-width="1.5" d="M0,-3.0v7 M-2.5,-0.5L0,-3.0L2.5,-0.5"/>
                </g>
                <g id="arrowDown" xlink:href="#dirArrow" transform="rotate(180) translate(-30 -48)" onmousedown="handlePan(0,1)">
                  <use xlink:href="#rim" fill="#404040">
                        <set attributeName="fill" to="#808080" begin="arrowDown.mouseover" end="arrowDown.mouseout"/>
                  </use>
                  <path fill="none" stroke="white" stroke-width="1.5" d="M0,-3.0v7 M-2.5,-0.5L0,-3.0L2.5,-0.5"/>
                </g>
                <g id="arrowLeft" xlink:href="#dirArrow" transform="rotate(270) translate(-36 17)" onmousedown="handlePan(-1,0)">
                  <use xlink:href="#rim" fill="#404040">
                        <set attributeName="fill" to="#808080" begin="arrowLeft.mouseover" end="arrowLeft.mouseout"/>
                  </use>
                  <path fill="none" stroke="white" stroke-width="1.5" d="M0,-3.0v7 M-2.5,-0.5L0,-3.0L2.5,-0.5"/>
                </g>
        </g>
        <svg viewBox="0 0 15 15" width="100%" height="30px" preserveAspectRatio="xMaxYMin meet">
         <g id="arrow_out" transform="scale(0.3 0.3)">
          <a xlink:href="class_juniper_1_1_unity_1_1_video_1_1_video360__coll__graph_org.svg" target="_base">
           <rect id="button" ry="5" rx="5" y="6" x="6" height="38" width="38"
                fill="#f2f5e9" fill-opacity="0.5" stroke="#606060" stroke-width="1.0"/>
           <path id="arrow"
             d="M 11.500037,31.436501 C 11.940474,20.09759 22.043105,11.32322 32.158766,21.979434 L 37.068811,17.246167 C 37.068811,17.246167 37.088388,32 37.088388,32 L 22.160133,31.978069 C 22.160133,31.978069 26.997745,27.140456 26.997745,27.140456 C 18.528582,18.264221 13.291696,25.230495 11.500037,31.436501 z"
             style="fill:#404040;"/>
          </a>
         </g>
        </svg>
</svg>
