<?xml version="1.0" encoding="UTF-8" standalone="no"?>
<!DOCTYPE svg PUBLIC "-//W3C//DTD SVG 1.1//EN"
 "http://www.w3.org/Graphics/SVG/1.1/DTD/svg11.dtd">
<!-- Generated by graphviz version 2.38.0 (20140413.2041)
 -->
<!-- Title: Juniper.IO.IProgress Pages: 1 -->
<!--zoomable 683 -->
<svg id="main" version="1.1" xmlns="http://www.w3.org/2000/svg" xmlns:xlink="http://www.w3.org/1999/xlink" xml:space="preserve" onload="init(evt)">
<style type="text/css"><![CDATA[
.edge:hover path { stroke: red; }
.edge:hover polygon { stroke: red; fill: red; }
]]></style>
<script type="text/javascript"><![CDATA[
var edges = document.getElementsByTagName('g');
if (edges && edges.length) {
  for (var i=0;i<edges.length;i++) {
    if (edges[i].id.substr(0,4)=='edge') {
      edges[i].setAttribute('class','edge');
    }
  }
}
]]></script>
        <defs>
                <circle id="rim" cx="0" cy="0" r="7"/>
                <circle id="rim2" cx="0" cy="0" r="3.5"/>
                <g id="zoomPlus">
                        <use xlink:href="#rim" fill="#404040">
                                <set attributeName="fill" to="#808080" begin="zoomplus.mouseover" end="zoomplus.mouseout"/>
                        </use>
                        <path d="M-4,0h8M0,-4v8" fill="none" stroke="white" stroke-width="1.5" pointer-events="none"/>
                </g>
                <g id="zoomMin">
                        <use xlink:href="#rim" fill="#404040">
                                <set attributeName="fill" to="#808080" begin="zoomminus.mouseover" end="zoomminus.mouseout"/>
                        </use>
                        <path d="M-4,0h8" fill="none" stroke="white" stroke-width="1.5" pointer-events="none"/>
                </g>
                <g id="dirArrow">
                        <path fill="none" stroke="white" stroke-width="1.5" d="M0,-3.0v7 M-2.5,-0.5L0,-3.0L2.5,-0.5"/>
                </g>
               <g id="resetDef">
                       <use xlink:href="#rim2" fill="#404040">
                               <set attributeName="fill" to="#808080" begin="reset.mouseover" end="reset.mouseout"/>
                       </use>
               </g>
        </defs>

<script type="text/javascript">
var viewWidth = 947;
var viewHeight = 683;
var sectionId = 'dynsection-0';
</script>
<script xlink:href="../../svgpan.js"/>
<svg id="graph" class="graph">
<g id="viewport">
<title>Juniper.IO.IProgress</title>
<polygon fill="white" stroke="none" points="-4,4 -4,-679 942.5,-679 942.5,4 -4,4"/>
<!-- Node0 -->
<g id="node1" class="node"><title>Node0</title>
<g id="a_node1"><a xlink:title="Progress reporting interface for asynchronous operations.">
<polygon fill="#bfbfbf" stroke="black" points="422,-606.5 422,-674.5 530,-674.5 530,-606.5 422,-606.5"/>
<text text-anchor="middle" x="476" y="-662.5" font-family="SegoeUI" font-size="10.00">Juniper.IO.IProgress</text>
<polyline fill="none" stroke="black" points="422,-655.5 530,-655.5 "/>
<text text-anchor="start" x="430" y="-643.5" font-family="SegoeUI" font-size="10.00">+ Status</text>
<text text-anchor="start" x="430" y="-632.5" font-family="SegoeUI" font-size="10.00">+ Progress</text>
<polyline fill="none" stroke="black" points="422,-625.5 530,-625.5 "/>
<text text-anchor="start" x="430" y="-613.5" font-family="SegoeUI" font-size="10.00">+ ReportWithStatus()</text>
</a>
</g>
</g>
<!-- Node1 -->
<g id="node2" class="node"><title>Node1</title>
<g id="a_node2"><a xlink:href="../../d5/d59/class_juniper_1_1_imaging_1_1_photosphere.html" target="_top" xlink:title=" ">
<polygon fill="white" stroke="black" points="3,-298 3,-564 149,-564 149,-298 3,-298"/>
<text text-anchor="middle" x="76" y="-552" font-family="SegoeUI" font-size="10.00">Juniper.Imaging.Photosphere</text>
<polyline fill="none" stroke="black" points="3,-545 149,-545 "/>
<text text-anchor="start" x="11" y="-533" font-family="SegoeUI" font-size="10.00">+ PHOTOSPHERE_LAYER</text>
<text text-anchor="start" x="11" y="-522" font-family="SegoeUI" font-size="10.00">+ CubemapName</text>
<text text-anchor="start" x="11" y="-511" font-family="SegoeUI" font-size="10.00">+ ProgressToReady</text>
<text text-anchor="start" x="11" y="-500" font-family="SegoeUI" font-size="10.00">+ OnEnter</text>
<text text-anchor="start" x="11" y="-489" font-family="SegoeUI" font-size="10.00">+ rotation</text>
<text text-anchor="start" x="11" y="-478" font-family="SegoeUI" font-size="10.00">+ PHOTOSPHERE_LAYER_ARR</text>
<text text-anchor="start" x="11" y="-467" font-family="SegoeUI" font-size="10.00">+ IsCubemapAvailable</text>
<text text-anchor="start" x="11" y="-456" font-family="SegoeUI" font-size="10.00">+ LastRotation</text>
<text text-anchor="start" x="11" y="-445" font-family="SegoeUI" font-size="10.00">+ IsReady</text>
<text text-anchor="start" x="11" y="-434" font-family="SegoeUI" font-size="10.00">+ IsBusy</text>
<text text-anchor="start" x="11" y="-423" font-family="SegoeUI" font-size="10.00">+ Progress</text>
<text text-anchor="start" x="11" y="-412" font-family="SegoeUI" font-size="10.00">+ Status</text>
<text text-anchor="start" x="11" y="-401" font-family="SegoeUI" font-size="10.00">&#45; lastPosition</text>
<text text-anchor="start" x="11" y="-390" font-family="SegoeUI" font-size="10.00">&#45; texture</text>
<text text-anchor="start" x="11" y="-379" font-family="SegoeUI" font-size="10.00">&#45; skybox</text>
<polyline fill="none" stroke="black" points="3,-372 149,-372 "/>
<text text-anchor="start" x="11" y="-360" font-family="SegoeUI" font-size="10.00">+ ReportWithStatus()</text>
<text text-anchor="start" x="11" y="-349" font-family="SegoeUI" font-size="10.00">+ Awake()</text>
<text text-anchor="start" x="11" y="-338" font-family="SegoeUI" font-size="10.00">+ OnEnable()</text>
<text text-anchor="start" x="11" y="-327" font-family="SegoeUI" font-size="10.00">+ OnDisable()</text>
<text text-anchor="start" x="11" y="-316" font-family="SegoeUI" font-size="10.00">+ Update()</text>
<text text-anchor="start" x="11" y="-305" font-family="SegoeUI" font-size="10.00"># OnReady()</text>
</a>
</g>
</g>
<!-- Node0&#45;&gt;Node1 -->
<g id="edge1" class="edge"><title>Node0&#45;&gt;Node1</title>
<path fill="none" stroke="midnightblue" d="M411.486,-639.892C342.836,-637.224 233.991,-623.828 159,-570 155.593,-567.555 152.301,-564.922 149.121,-562.132"/>
<polygon fill="none" stroke="midnightblue" points="411.623,-643.398 421.731,-640.222 411.849,-636.402 411.623,-643.398"/>
</g>
<!-- Node3 -->
<g id="node4" class="node"><title>Node3</title>
<g id="a_node4"><a xlink:href="../../de/dc3/class_juniper_1_1_i_o_1_1_progress_aggregator.html" target="_top" xlink:title=" ">
<polygon fill="white" stroke="black" points="167.5,-347.5 167.5,-514.5 316.5,-514.5 316.5,-347.5 167.5,-347.5"/>
<text text-anchor="middle" x="242" y="-502.5" font-family="SegoeUI" font-size="10.00">Juniper.IO.ProgressAggregator</text>
<polyline fill="none" stroke="black" points="167.5,-495.5 316.5,-495.5 "/>
<text text-anchor="start" x="175.5" y="-483.5" font-family="SegoeUI" font-size="10.00">+ Progress</text>
<text text-anchor="start" x="175.5" y="-472.5" font-family="SegoeUI" font-size="10.00">+ Count</text>
<text text-anchor="start" x="175.5" y="-461.5" font-family="SegoeUI" font-size="10.00">+ Status</text>
<text text-anchor="start" x="175.5" y="-450.5" font-family="SegoeUI" font-size="10.00">+ this[int index]</text>
<text text-anchor="start" x="175.5" y="-439.5" font-family="SegoeUI" font-size="10.00">&#45; subProgs</text>
<text text-anchor="start" x="175.5" y="-428.5" font-family="SegoeUI" font-size="10.00">&#45; parent</text>
<polyline fill="none" stroke="black" points="167.5,-421.5 316.5,-421.5 "/>
<text text-anchor="start" x="175.5" y="-409.5" font-family="SegoeUI" font-size="10.00">+ ProgressAggregator()</text>
<text text-anchor="start" x="175.5" y="-398.5" font-family="SegoeUI" font-size="10.00">+ ProgressAggregator()</text>
<text text-anchor="start" x="175.5" y="-387.5" font-family="SegoeUI" font-size="10.00">+ ReportWithStatus()</text>
<text text-anchor="start" x="175.5" y="-376.5" font-family="SegoeUI" font-size="10.00">+ GetEnumerator()</text>
<text text-anchor="start" x="175.5" y="-365.5" font-family="SegoeUI" font-size="10.00">&#45; ProgressAggregator()</text>
<text text-anchor="start" x="175.5" y="-354.5" font-family="SegoeUI" font-size="10.00">&#45; GetEnumerator()</text>
</a>
</g>
</g>
<!-- Node0&#45;&gt;Node3 -->
<g id="edge3" class="edge"><title>Node0&#45;&gt;Node3</title>
<path fill="none" stroke="midnightblue" d="M412.354,-619.614C383.645,-608.37 350.715,-592.071 326,-570 308.636,-554.494 293.702,-534.536 281.447,-514.644"/>
<polygon fill="none" stroke="midnightblue" points="411.319,-622.964 421.91,-623.234 413.799,-616.418 411.319,-622.964"/>
</g>
<!-- Node4 -->
<g id="node5" class="node"><title>Node4</title>
<g id="a_node5"><a xlink:href="../../dd/d6d/class_juniper_1_1_i_o_1_1_progress_eventer.html" target="_top" xlink:title=" ">
<polygon fill="white" stroke="black" points="334.5,-397 334.5,-465 467.5,-465 467.5,-397 334.5,-397"/>
<text text-anchor="middle" x="401" y="-453" font-family="SegoeUI" font-size="10.00">Juniper.IO.ProgressEventer</text>
<polyline fill="none" stroke="black" points="334.5,-446 467.5,-446 "/>
<text text-anchor="start" x="342.5" y="-434" font-family="SegoeUI" font-size="10.00">+ Status</text>
<text text-anchor="start" x="342.5" y="-423" font-family="SegoeUI" font-size="10.00">+ Progress</text>
<polyline fill="none" stroke="black" points="334.5,-416 467.5,-416 "/>
<text text-anchor="start" x="342.5" y="-404" font-family="SegoeUI" font-size="10.00">+ ReportWithStatus()</text>
</a>
</g>
</g>
<!-- Node0&#45;&gt;Node4 -->
<g id="edge4" class="edge"><title>Node0&#45;&gt;Node4</title>
<path fill="none" stroke="midnightblue" d="M460.514,-596.656C446.423,-557.67 425.911,-500.92 413.02,-465.256"/>
<polygon fill="none" stroke="midnightblue" points="457.259,-597.947 463.95,-606.162 463.842,-595.567 457.259,-597.947"/>
</g>
<!-- Node5 -->
<g id="node6" class="node"><title>Node5</title>
<g id="a_node6"><a xlink:href="../../d5/d25/class_juniper_1_1_i_o_1_1_progress_stream.html" target="_top" xlink:title="A stream that can report progress on how much it has been consumed.">
<polygon fill="white" stroke="black" points="486,-292.5 486,-569.5 618,-569.5 618,-292.5 486,-292.5"/>
<text text-anchor="middle" x="552" y="-557.5" font-family="SegoeUI" font-size="10.00">Juniper.IO.ProgressStream</text>
<polyline fill="none" stroke="black" points="486,-550.5 618,-550.5 "/>
<text text-anchor="start" x="494" y="-538.5" font-family="SegoeUI" font-size="10.00">+ SourceStream</text>
<text text-anchor="start" x="494" y="-527.5" font-family="SegoeUI" font-size="10.00">+ CanRead</text>
<text text-anchor="start" x="494" y="-516.5" font-family="SegoeUI" font-size="10.00">+ CanSeek</text>
<text text-anchor="start" x="494" y="-505.5" font-family="SegoeUI" font-size="10.00">+ CanWrite</text>
<text text-anchor="start" x="494" y="-494.5" font-family="SegoeUI" font-size="10.00">+ Length</text>
<text text-anchor="start" x="494" y="-483.5" font-family="SegoeUI" font-size="10.00">+ BaseStream</text>
<text text-anchor="start" x="494" y="-472.5" font-family="SegoeUI" font-size="10.00">+ TotalByteCount</text>
<text text-anchor="start" x="494" y="-461.5" font-family="SegoeUI" font-size="10.00">+ Status</text>
<text text-anchor="start" x="494" y="-450.5" font-family="SegoeUI" font-size="10.00">+ Progress</text>
<text text-anchor="start" x="494" y="-439.5" font-family="SegoeUI" font-size="10.00">+ Position</text>
<text text-anchor="start" x="494" y="-428.5" font-family="SegoeUI" font-size="10.00">&#45; ownStream</text>
<text text-anchor="start" x="494" y="-417.5" font-family="SegoeUI" font-size="10.00">&#45; length</text>
<text text-anchor="start" x="494" y="-406.5" font-family="SegoeUI" font-size="10.00">&#45; parent</text>
<text text-anchor="start" x="494" y="-395.5" font-family="SegoeUI" font-size="10.00">&#45; totalRead</text>
<polyline fill="none" stroke="black" points="486,-388.5 618,-388.5 "/>
<text text-anchor="start" x="494" y="-376.5" font-family="SegoeUI" font-size="10.00">+ ProgressStream()</text>
<text text-anchor="start" x="494" y="-365.5" font-family="SegoeUI" font-size="10.00">+ SetLength()</text>
<text text-anchor="start" x="494" y="-354.5" font-family="SegoeUI" font-size="10.00">+ ReportWithStatus()</text>
<text text-anchor="start" x="494" y="-343.5" font-family="SegoeUI" font-size="10.00">+ Flush()</text>
<text text-anchor="start" x="494" y="-332.5" font-family="SegoeUI" font-size="10.00">+ Read()</text>
<text text-anchor="start" x="494" y="-321.5" font-family="SegoeUI" font-size="10.00">+ Seek()</text>
<text text-anchor="start" x="494" y="-310.5" font-family="SegoeUI" font-size="10.00">+ Write()</text>
<text text-anchor="start" x="494" y="-299.5" font-family="SegoeUI" font-size="10.00"># Dispose()</text>
</a>
</g>
</g>
<!-- Node0&#45;&gt;Node5 -->
<g id="edge5" class="edge"><title>Node0&#45;&gt;Node5</title>
<path fill="none" stroke="midnightblue" d="M491.658,-596.75C494.719,-588.393 498.08,-579.216 501.6,-569.605"/>
<polygon fill="none" stroke="midnightblue" points="488.364,-595.568 488.211,-606.162 494.936,-597.975 488.364,-595.568"/>
</g>
<!-- Node6 -->
<g id="node7" class="node"><title>Node6</title>
<g id="a_node7"><a xlink:href="../../d1/d87/class_juniper_1_1_i_o_1_1_progress_subdivision.html" target="_top" xlink:title="A small chunk of a progress meter, reporting its own progress up to a parent progress tracker.">
<polygon fill="white" stroke="black" points="636.5,-364 636.5,-498 785.5,-498 785.5,-364 636.5,-364"/>
<text text-anchor="middle" x="711" y="-486" font-family="SegoeUI" font-size="10.00">Juniper.IO.ProgressSubdivision</text>
<polyline fill="none" stroke="black" points="636.5,-479 785.5,-479 "/>
<text text-anchor="start" x="644.5" y="-467" font-family="SegoeUI" font-size="10.00">+ Progress</text>
<text text-anchor="start" x="644.5" y="-456" font-family="SegoeUI" font-size="10.00">+ Status</text>
<text text-anchor="start" x="644.5" y="-445" font-family="SegoeUI" font-size="10.00">&#45; parent</text>
<text text-anchor="start" x="644.5" y="-434" font-family="SegoeUI" font-size="10.00">&#45; start</text>
<text text-anchor="start" x="644.5" y="-423" font-family="SegoeUI" font-size="10.00">&#45; length</text>
<text text-anchor="start" x="644.5" y="-412" font-family="SegoeUI" font-size="10.00">&#45; prefix</text>
<polyline fill="none" stroke="black" points="636.5,-405 785.5,-405 "/>
<text text-anchor="start" x="644.5" y="-393" font-family="SegoeUI" font-size="10.00">+ ProgressSubdivision()</text>
<text text-anchor="start" x="644.5" y="-382" font-family="SegoeUI" font-size="10.00">+ ProgressSubdivision()</text>
<text text-anchor="start" x="644.5" y="-371" font-family="SegoeUI" font-size="10.00">+ ReportWithStatus()</text>
</a>
</g>
</g>
<!-- Node0&#45;&gt;Node6 -->
<g id="edge6" class="edge"><title>Node0&#45;&gt;Node6</title>
<path fill="none" stroke="midnightblue" d="M539.734,-619.826C568.714,-608.595 602.025,-592.247 627,-570 649.2,-550.225 667.418,-523.166 681.144,-498.246"/>
<polygon fill="none" stroke="midnightblue" points="538.227,-616.653 530.091,-623.439 540.683,-623.208 538.227,-616.653"/>
</g>
<!-- Node7 -->
<g id="node8" class="node"><title>Node7</title>
<g id="a_node8"><a xlink:href="../../d5/dae/class_juniper_1_1_widgets_1_1_loading_bar.html" target="_top" xlink:title=" ">
<polygon fill="white" stroke="black" points="803.5,-347.5 803.5,-514.5 938.5,-514.5 938.5,-347.5 803.5,-347.5"/>
<text text-anchor="middle" x="871" y="-502.5" font-family="SegoeUI" font-size="10.00">Juniper.Widgets.LoadingBar</text>
<polyline fill="none" stroke="black" points="803.5,-495.5 938.5,-495.5 "/>
<text text-anchor="start" x="811.5" y="-483.5" font-family="SegoeUI" font-size="10.00">+ Status</text>
<text text-anchor="start" x="811.5" y="-472.5" font-family="SegoeUI" font-size="10.00">+ Progress</text>
<text text-anchor="start" x="811.5" y="-461.5" font-family="SegoeUI" font-size="10.00">+ TargetValue</text>
<text text-anchor="start" x="811.5" y="-450.5" font-family="SegoeUI" font-size="10.00">&#45; indicator</text>
<text text-anchor="start" x="811.5" y="-439.5" font-family="SegoeUI" font-size="10.00">&#45; text</text>
<polyline fill="none" stroke="black" points="803.5,-432.5 938.5,-432.5 "/>
<text text-anchor="start" x="811.5" y="-420.5" font-family="SegoeUI" font-size="10.00">+ OnEnable()</text>
<text text-anchor="start" x="811.5" y="-409.5" font-family="SegoeUI" font-size="10.00">+ OnDisable()</text>
<text text-anchor="start" x="811.5" y="-398.5" font-family="SegoeUI" font-size="10.00">+ ReportWithStatus()</text>
<text text-anchor="start" x="811.5" y="-387.5" font-family="SegoeUI" font-size="10.00">+ Awake()</text>
<text text-anchor="start" x="811.5" y="-376.5" font-family="SegoeUI" font-size="10.00">+ Update()</text>
<text text-anchor="start" x="811.5" y="-365.5" font-family="SegoeUI" font-size="10.00">+ Ensure()</text>
<text text-anchor="start" x="811.5" y="-354.5" font-family="SegoeUI" font-size="10.00">&#45; ResetValues()</text>
</a>
</g>
</g>
<!-- Node0&#45;&gt;Node7 -->
<g id="edge7" class="edge"><title>Node0&#45;&gt;Node7</title>
<path fill="none" stroke="midnightblue" d="M540.307,-631.851C621.489,-621.13 755.353,-599.578 795,-570 813.963,-555.853 828.788,-535.511 840.107,-514.775"/>
<polygon fill="none" stroke="midnightblue" points="539.656,-628.406 530.191,-633.167 540.559,-635.348 539.656,-628.406"/>
</g>
<!-- Node2 -->
<g id="node3" class="node"><title>Node2</title>
<g id="a_node3"><a xlink:href="../../d1/dba/class_juniper_1_1_imaging_1_1_photosphere_jig.html" target="_top" xlink:title=" ">
<polygon fill="white" stroke="black" points="0,-0.5 0,-255.5 152,-255.5 152,-0.5 0,-0.5"/>
<text text-anchor="middle" x="76" y="-243.5" font-family="SegoeUI" font-size="10.00">Juniper.Imaging.PhotosphereJig</text>
<polyline fill="none" stroke="black" points="0,-236.5 152,-236.5 "/>
<text text-anchor="start" x="8" y="-224.5" font-family="SegoeUI" font-size="10.00">+ ProgressToComplete</text>
<text text-anchor="start" x="8" y="-213.5" font-family="SegoeUI" font-size="10.00">+ IsBusy</text>
<text text-anchor="start" x="8" y="-202.5" font-family="SegoeUI" font-size="10.00">+ IsComplete</text>
<text text-anchor="start" x="8" y="-191.5" font-family="SegoeUI" font-size="10.00">&#45; MAX_REQUESTS</text>
<text text-anchor="start" x="8" y="-180.5" font-family="SegoeUI" font-size="10.00">&#45; detailContainerCache</text>
<text text-anchor="start" x="8" y="-169.5" font-family="SegoeUI" font-size="10.00">&#45; detailSliceContainerCache</text>
<text text-anchor="start" x="8" y="-158.5" font-family="SegoeUI" font-size="10.00">&#45; detailSliceFrameContainer</text>
<text text-anchor="start" x="8" y="-147.5" font-family="SegoeUI" font-size="10.00">Cache</text>
<text text-anchor="start" x="8" y="-136.5" font-family="SegoeUI" font-size="10.00">&#45; mgr</text>
<text text-anchor="start" x="8" y="-125.5" font-family="SegoeUI" font-size="10.00">&#45; avatar</text>
<text text-anchor="start" x="8" y="-114.5" font-family="SegoeUI" font-size="10.00">&#45; wasComplete</text>
<text text-anchor="start" x="8" y="-103.5" font-family="SegoeUI" font-size="10.00">&#45; updateTask</text>
<text text-anchor="start" x="8" y="-92.5" font-family="SegoeUI" font-size="10.00">&#45; material</text>
<polyline fill="none" stroke="black" points="0,-85.5 152,-85.5 "/>
<text text-anchor="start" x="8" y="-73.5" font-family="SegoeUI" font-size="10.00">+ Awake()</text>
<text text-anchor="start" x="8" y="-62.5" font-family="SegoeUI" font-size="10.00">+ OnDisable()</text>
<text text-anchor="start" x="8" y="-51.5" font-family="SegoeUI" font-size="10.00">+ DestroyJig()</text>
<text text-anchor="start" x="8" y="-40.5" font-family="SegoeUI" font-size="10.00">+ Update()</text>
<text text-anchor="start" x="8" y="-29.5" font-family="SegoeUI" font-size="10.00">+ DetailLevelCompleteCount()</text>
<text text-anchor="start" x="8" y="-18.5" font-family="SegoeUI" font-size="10.00">&#45; OnComplete()</text>
<text text-anchor="start" x="8" y="-7.5" font-family="SegoeUI" font-size="10.00">&#45; UpdatePhotosphere()</text>
</a>
</g>
</g>
<!-- Node1&#45;&gt;Node2 -->
<g id="edge2" class="edge"><title>Node1&#45;&gt;Node2</title>
<path fill="none" stroke="midnightblue" d="M76,-287.731C76,-277.02 76,-266.253 76,-255.648"/>
<polygon fill="none" stroke="midnightblue" points="72.5001,-287.977 76,-297.977 79.5001,-287.977 72.5001,-287.977"/>
</g>
</g>
</svg>
        <g id="navigator" transform="translate(0 0)" fill="#404254">
                <rect fill="#f2f5e9" fill-opacity="0.5" stroke="#606060" stroke-width=".5" x="0" y="0" width="60" height="60"/>
                <use id="zoomplus" xlink:href="#zoomPlus" x="17" y="9" onmousedown="handleZoom(evt,'in')"/>
                <use id="zoomminus" xlink:href="#zoomMin" x="42" y="9" onmousedown="handleZoom(evt,'out')"/>
                <use id="reset" xlink:href="#resetDef" x="30" y="36" onmousedown="handleReset()"/>
                <g id="arrowUp" xlink:href="#dirArrow" transform="translate(30 24)" onmousedown="handlePan(0,-1)">
                  <use xlink:href="#rim" fill="#404040">
                        <set attributeName="fill" to="#808080" begin="arrowUp.mouseover" end="arrowUp.mouseout"/>
                  </use>
                  <path fill="none" stroke="white" stroke-width="1.5" d="M0,-3.0v7 M-2.5,-0.5L0,-3.0L2.5,-0.5"/>
                </g>
                <g id="arrowRight" xlink:href="#dirArrow" transform="rotate(90) translate(36 -43)" onmousedown="handlePan(1,0)">
                  <use xlink:href="#rim" fill="#404040">
                        <set attributeName="fill" to="#808080" begin="arrowRight.mouseover" end="arrowRight.mouseout"/>
                  </use>
                  <path fill="none" stroke="white" stroke-width="1.5" d="M0,-3.0v7 M-2.5,-0.5L0,-3.0L2.5,-0.5"/>
                </g>
                <g id="arrowDown" xlink:href="#dirArrow" transform="rotate(180) translate(-30 -48)" onmousedown="handlePan(0,1)">
                  <use xlink:href="#rim" fill="#404040">
                        <set attributeName="fill" to="#808080" begin="arrowDown.mouseover" end="arrowDown.mouseout"/>
                  </use>
                  <path fill="none" stroke="white" stroke-width="1.5" d="M0,-3.0v7 M-2.5,-0.5L0,-3.0L2.5,-0.5"/>
                </g>
                <g id="arrowLeft" xlink:href="#dirArrow" transform="rotate(270) translate(-36 17)" onmousedown="handlePan(-1,0)">
                  <use xlink:href="#rim" fill="#404040">
                        <set attributeName="fill" to="#808080" begin="arrowLeft.mouseover" end="arrowLeft.mouseout"/>
                  </use>
                  <path fill="none" stroke="white" stroke-width="1.5" d="M0,-3.0v7 M-2.5,-0.5L0,-3.0L2.5,-0.5"/>
                </g>
        </g>
        <svg viewBox="0 0 15 15" width="100%" height="30px" preserveAspectRatio="xMaxYMin meet">
         <g id="arrow_out" transform="scale(0.3 0.3)">
          <a xlink:href="interface_juniper_1_1_i_o_1_1_i_progress__inherit__graph_org.svg" target="_base">
           <rect id="button" ry="5" rx="5" y="6" x="6" height="38" width="38"
                fill="#f2f5e9" fill-opacity="0.5" stroke="#606060" stroke-width="1.0"/>
           <path id="arrow"
             d="M 11.500037,31.436501 C 11.940474,20.09759 22.043105,11.32322 32.158766,21.979434 L 37.068811,17.246167 C 37.068811,17.246167 37.088388,32 37.088388,32 L 22.160133,31.978069 C 22.160133,31.978069 26.997745,27.140456 26.997745,27.140456 C 18.528582,18.264221 13.291696,25.230495 11.500037,31.436501 z"
             style="fill:#404040;"/>
          </a>
         </g>
        </svg>
</svg>
