<?xml version="1.0" encoding="UTF-8" standalone="no"?>
<!DOCTYPE svg PUBLIC "-//W3C//DTD SVG 1.1//EN"
 "http://www.w3.org/Graphics/SVG/1.1/DTD/svg11.dtd">
<!-- Generated by graphviz version 2.38.0 (20140413.2041)
 -->
<!-- Title: Juniper.Input.UnifiedInputModule Pages: 1 -->
<svg width="323pt" height="1008pt"
 viewBox="0.00 0.00 323.00 1008.00" xmlns="http://www.w3.org/2000/svg" xmlns:xlink="http://www.w3.org/1999/xlink">
<g id="graph0" class="graph" transform="scale(1 1) rotate(0) translate(4 1004)">
<title>Juniper.Input.UnifiedInputModule</title>
<polygon fill="white" stroke="none" points="-4,4 -4,-1004 319,-1004 319,4 -4,4"/>
<!-- Node0 -->
<g id="node1" class="node"><title>Node0</title>
<g id="a_node1"><a xlink:title=" ">
<polygon fill="#bfbfbf" stroke="black" points="88.5,-0.5 88.5,-68.5 214.5,-68.5 214.5,-0.5 88.5,-0.5"/>
<text text-anchor="start" x="96.5" y="-56.5" font-family="SegoeUI" font-size="10.00">Juniper.Input.UnifiedInput</text>
<text text-anchor="middle" x="151.5" y="-45.5" font-family="SegoeUI" font-size="10.00">Module</text>
<polyline fill="none" stroke="black" points="88.5,-38.5 214.5,-38.5 "/>
<text text-anchor="middle" x="151.5" y="-26.5" font-family="SegoeUI" font-size="10.00"> </text>
<polyline fill="none" stroke="black" points="88.5,-19.5 214.5,-19.5 "/>
<text text-anchor="middle" x="151.5" y="-7.5" font-family="SegoeUI" font-size="10.00"> </text>
</a>
</g>
</g>
<!-- Node1 -->
<g id="node2" class="node"><title>Node1</title>
<g id="a_node2"><a xlink:href="../../d0/daf/class_juniper_1_1_input_1_1_daydream_input_module.html" target="_top" xlink:title=" ">
<polygon fill="white" stroke="black" points="95,-105.5 95,-184.5 208,-184.5 208,-105.5 95,-105.5"/>
<text text-anchor="middle" x="151.5" y="-172.5" font-family="SegoeUI" font-size="10.00">DaydreamInputModule</text>
<polyline fill="none" stroke="black" points="95,-165.5 208,-165.5 "/>
<text text-anchor="middle" x="151.5" y="-153.5" font-family="SegoeUI" font-size="10.00"> </text>
<polyline fill="none" stroke="black" points="95,-146.5 208,-146.5 "/>
<text text-anchor="start" x="103" y="-134.5" font-family="SegoeUI" font-size="10.00">+ Install()</text>
<text text-anchor="start" x="103" y="-123.5" font-family="SegoeUI" font-size="10.00">+ Uninstall()</text>
<text text-anchor="start" x="103" y="-112.5" font-family="SegoeUI" font-size="10.00"># Awake()</text>
</a>
</g>
</g>
<!-- Node1&#45;&gt;Node0 -->
<g id="edge1" class="edge"><title>Node1&#45;&gt;Node0</title>
<path fill="none" stroke="midnightblue" d="M151.5,-95.3492C151.5,-86.2824 151.5,-77.0048 151.5,-68.5439"/>
<polygon fill="none" stroke="midnightblue" points="148,-95.4414 151.5,-105.441 155,-95.4415 148,-95.4414"/>
</g>
<!-- Node2 -->
<g id="node3" class="node"><title>Node2</title>
<g id="a_node3"><a xlink:href="../../db/d40/class_juniper_1_1_input_1_1_abstract_unified_input_module.html" target="_top" xlink:title="Finds all of the IPointerDevice s and fires raycaster events for all of them.">
<polygon fill="white" stroke="black" points="78.5,-221.5 78.5,-817.5 224.5,-817.5 224.5,-221.5 78.5,-221.5"/>
<text text-anchor="middle" x="151.5" y="-805.5" font-family="SegoeUI" font-size="10.00">AbstractUnifiedInputModule</text>
<polyline fill="none" stroke="black" points="78.5,-798.5 224.5,-798.5 "/>
<text text-anchor="start" x="86.5" y="-786.5" font-family="SegoeUI" font-size="10.00">+ Devices</text>
<text text-anchor="start" x="86.5" y="-775.5" font-family="SegoeUI" font-size="10.00">+ PrimaryPointer</text>
<text text-anchor="start" x="86.5" y="-764.5" font-family="SegoeUI" font-size="10.00">+ mode</text>
<text text-anchor="start" x="86.5" y="-753.5" font-family="SegoeUI" font-size="10.00">+ pointerPrefab</text>
<text text-anchor="start" x="86.5" y="-742.5" font-family="SegoeUI" font-size="10.00">+ enableControllersToggle</text>
<text text-anchor="start" x="86.5" y="-731.5" font-family="SegoeUI" font-size="10.00">+ enableMouseToggle</text>
<text text-anchor="start" x="86.5" y="-720.5" font-family="SegoeUI" font-size="10.00">+ enableTouchToggle</text>
<text text-anchor="start" x="86.5" y="-709.5" font-family="SegoeUI" font-size="10.00">+ enableHandsToggle</text>
<text text-anchor="start" x="86.5" y="-698.5" font-family="SegoeUI" font-size="10.00">+ enableGazeToggle</text>
<text text-anchor="start" x="86.5" y="-687.5" font-family="SegoeUI" font-size="10.00">+ gazePointer</text>
<text text-anchor="start" x="86.5" y="-676.5" font-family="SegoeUI" font-size="10.00">and 6 more...</text>
<text text-anchor="start" x="86.5" y="-665.5" font-family="SegoeUI" font-size="10.00">+ AnyPointerDragging</text>
<text text-anchor="start" x="86.5" y="-654.5" font-family="SegoeUI" font-size="10.00">+ TouchConnected</text>
<text text-anchor="start" x="86.5" y="-643.5" font-family="SegoeUI" font-size="10.00">+ MotionConnected</text>
<text text-anchor="start" x="86.5" y="-632.5" font-family="SegoeUI" font-size="10.00">+ HandsConnected</text>
<text text-anchor="start" x="86.5" y="-621.5" font-family="SegoeUI" font-size="10.00"># stage</text>
<text text-anchor="start" x="86.5" y="-610.5" font-family="SegoeUI" font-size="10.00">&#45; newDevices</text>
<text text-anchor="start" x="86.5" y="-599.5" font-family="SegoeUI" font-size="10.00">&#45; ENABLE_GAZE_KEY</text>
<text text-anchor="start" x="86.5" y="-588.5" font-family="SegoeUI" font-size="10.00">&#45; ENABLE_MOUSE_KEY</text>
<text text-anchor="start" x="86.5" y="-577.5" font-family="SegoeUI" font-size="10.00">&#45; ENABLE_TOUCH_KEY</text>
<text text-anchor="start" x="86.5" y="-566.5" font-family="SegoeUI" font-size="10.00">&#45; ENABLE_HANDS_KEY</text>
<text text-anchor="start" x="86.5" y="-555.5" font-family="SegoeUI" font-size="10.00">&#45; ENABLE_CONTROLLERS_KEY</text>
<text text-anchor="start" x="86.5" y="-544.5" font-family="SegoeUI" font-size="10.00">&#45; enableControllersObject</text>
<text text-anchor="start" x="86.5" y="-533.5" font-family="SegoeUI" font-size="10.00">&#45; enableMouseObject</text>
<text text-anchor="start" x="86.5" y="-522.5" font-family="SegoeUI" font-size="10.00">&#45; enableTouchObject</text>
<text text-anchor="start" x="86.5" y="-511.5" font-family="SegoeUI" font-size="10.00">&#45; enableHandsObject</text>
<text text-anchor="start" x="86.5" y="-500.5" font-family="SegoeUI" font-size="10.00">&#45; enableGazeObject</text>
<text text-anchor="start" x="86.5" y="-489.5" font-family="SegoeUI" font-size="10.00">&#45; wasTouchAvailable</text>
<polyline fill="none" stroke="black" points="78.5,-482.5 224.5,-482.5 "/>
<text text-anchor="start" x="86.5" y="-470.5" font-family="SegoeUI" font-size="10.00">+ AddPointer()</text>
<text text-anchor="start" x="86.5" y="-459.5" font-family="SegoeUI" font-size="10.00">+ Reinstall()</text>
<text text-anchor="start" x="86.5" y="-448.5" font-family="SegoeUI" font-size="10.00">+ Install()</text>
<text text-anchor="start" x="86.5" y="-437.5" font-family="SegoeUI" font-size="10.00">+ MakePointer&lt; T &gt;()</text>
<text text-anchor="start" x="86.5" y="-426.5" font-family="SegoeUI" font-size="10.00">+ Uninstall()</text>
<text text-anchor="start" x="86.5" y="-415.5" font-family="SegoeUI" font-size="10.00">+ Clone()</text>
<text text-anchor="start" x="86.5" y="-404.5" font-family="SegoeUI" font-size="10.00">+ Process()</text>
<text text-anchor="start" x="86.5" y="-393.5" font-family="SegoeUI" font-size="10.00">+ EnableMouse()</text>
<text text-anchor="start" x="86.5" y="-382.5" font-family="SegoeUI" font-size="10.00">+ EnableGaze()</text>
<text text-anchor="start" x="86.5" y="-371.5" font-family="SegoeUI" font-size="10.00">+ EnableTouch()</text>
<text text-anchor="start" x="86.5" y="-360.5" font-family="SegoeUI" font-size="10.00">+ EnableHands()</text>
<text text-anchor="start" x="86.5" y="-349.5" font-family="SegoeUI" font-size="10.00">+ EnableControllers()</text>
<text text-anchor="start" x="86.5" y="-338.5" font-family="SegoeUI" font-size="10.00"># Awake()</text>
<text text-anchor="start" x="86.5" y="-327.5" font-family="SegoeUI" font-size="10.00">&#45; SetupDevice()</text>
<text text-anchor="start" x="86.5" y="-316.5" font-family="SegoeUI" font-size="10.00">&#45; UpdateRay()</text>
<text text-anchor="start" x="86.5" y="-305.5" font-family="SegoeUI" font-size="10.00">&#45; RaycastAll()</text>
<text text-anchor="start" x="86.5" y="-294.5" font-family="SegoeUI" font-size="10.00">&#45; GetBool()</text>
<text text-anchor="start" x="86.5" y="-283.5" font-family="SegoeUI" font-size="10.00">&#45; SetBool()</text>
<text text-anchor="start" x="86.5" y="-272.5" font-family="SegoeUI" font-size="10.00">&#45; EnableDevice()</text>
<text text-anchor="start" x="86.5" y="-261.5" font-family="SegoeUI" font-size="10.00">&#45; EnableDevice()</text>
<text text-anchor="start" x="86.5" y="-250.5" font-family="SegoeUI" font-size="10.00">&#45; EnableTouches()</text>
<text text-anchor="start" x="86.5" y="-239.5" font-family="SegoeUI" font-size="10.00">&#45; EnableHands()</text>
<text text-anchor="start" x="86.5" y="-228.5" font-family="SegoeUI" font-size="10.00">&#45; EnableControllers()</text>
</a>
</g>
</g>
<!-- Node2&#45;&gt;Node1 -->
<g id="edge2" class="edge"><title>Node2&#45;&gt;Node1</title>
<path fill="none" stroke="midnightblue" d="M151.5,-211.381C151.5,-201.632 151.5,-192.66 151.5,-184.69"/>
<polygon fill="none" stroke="midnightblue" points="148,-211.381 151.5,-221.381 155,-211.381 148,-211.381"/>
</g>
<!-- Node3 -->
<g id="node4" class="node"><title>Node3</title>
<g id="a_node4"><a xlink:title=" ">
<polygon fill="white" stroke="#bfbfbf" points="0,-898.5 0,-955.5 99,-955.5 99,-898.5 0,-898.5"/>
<text text-anchor="middle" x="49.5" y="-943.5" font-family="SegoeUI" font-size="10.00">PointerInputModule</text>
<polyline fill="none" stroke="#bfbfbf" points="0,-936.5 99,-936.5 "/>
<text text-anchor="middle" x="49.5" y="-924.5" font-family="SegoeUI" font-size="10.00"> </text>
<polyline fill="none" stroke="#bfbfbf" points="0,-917.5 99,-917.5 "/>
<text text-anchor="middle" x="49.5" y="-905.5" font-family="SegoeUI" font-size="10.00"> </text>
</a>
</g>
</g>
<!-- Node3&#45;&gt;Node2 -->
<g id="edge3" class="edge"><title>Node3&#45;&gt;Node2</title>
<path fill="none" stroke="midnightblue" d="M58.9318,-888.504C64.021,-868.272 70.8157,-841.26 78.4225,-811.019"/>
<polygon fill="none" stroke="midnightblue" points="55.4759,-887.895 56.4307,-898.447 62.2644,-889.603 55.4759,-887.895"/>
</g>
<!-- Node4 -->
<g id="node5" class="node"><title>Node4</title>
<g id="a_node5"><a xlink:href="../../db/d28/interface_juniper_1_1_i_installable.html" target="_top" xlink:title="Defines an interface for objects that can be installed and have their installation progress tracked.">
<polygon fill="white" stroke="black" points="117,-887.5 117,-966.5 186,-966.5 186,-887.5 117,-887.5"/>
<text text-anchor="middle" x="151.5" y="-954.5" font-family="SegoeUI" font-size="10.00">IInstallable</text>
<polyline fill="none" stroke="black" points="117,-947.5 186,-947.5 "/>
<text text-anchor="middle" x="151.5" y="-935.5" font-family="SegoeUI" font-size="10.00"> </text>
<polyline fill="none" stroke="black" points="117,-928.5 186,-928.5 "/>
<text text-anchor="start" x="125" y="-916.5" font-family="SegoeUI" font-size="10.00">+ Install()</text>
<text text-anchor="start" x="125" y="-905.5" font-family="SegoeUI" font-size="10.00">+ Reinstall()</text>
<text text-anchor="start" x="125" y="-894.5" font-family="SegoeUI" font-size="10.00">+ Uninstall()</text>
</a>
</g>
</g>
<!-- Node4&#45;&gt;Node2 -->
<g id="edge4" class="edge"><title>Node4&#45;&gt;Node2</title>
<path fill="none" stroke="midnightblue" d="M151.5,-877.426C151.5,-860.523 151.5,-840.13 151.5,-817.76"/>
<polygon fill="none" stroke="midnightblue" points="148,-877.486 151.5,-887.486 155,-877.486 148,-877.486"/>
</g>
<!-- Node5 -->
<g id="node6" class="node"><title>Node5</title>
<g id="a_node6"><a xlink:href="../../d0/d2e/interface_juniper_1_1_input_1_1_i_input_module.html" target="_top" xlink:title=" ">
<polygon fill="white" stroke="black" points="204,-854.5 204,-999.5 315,-999.5 315,-854.5 204,-854.5"/>
<text text-anchor="middle" x="259.5" y="-987.5" font-family="SegoeUI" font-size="10.00">IInputModule</text>
<polyline fill="none" stroke="black" points="204,-980.5 315,-980.5 "/>
<text text-anchor="start" x="212" y="-968.5" font-family="SegoeUI" font-size="10.00">+ AnyPointerDragging</text>
<polyline fill="none" stroke="black" points="204,-961.5 315,-961.5 "/>
<text text-anchor="start" x="212" y="-949.5" font-family="SegoeUI" font-size="10.00">+ AddPointer()</text>
<text text-anchor="start" x="212" y="-938.5" font-family="SegoeUI" font-size="10.00">+ Clone()</text>
<text text-anchor="start" x="212" y="-927.5" font-family="SegoeUI" font-size="10.00">+ EnableControllers()</text>
<text text-anchor="start" x="212" y="-916.5" font-family="SegoeUI" font-size="10.00">+ EnableGaze()</text>
<text text-anchor="start" x="212" y="-905.5" font-family="SegoeUI" font-size="10.00">+ EnableHands()</text>
<text text-anchor="start" x="212" y="-894.5" font-family="SegoeUI" font-size="10.00">+ EnableMouse()</text>
<text text-anchor="start" x="212" y="-883.5" font-family="SegoeUI" font-size="10.00">+ EnableTouch()</text>
<text text-anchor="start" x="212" y="-872.5" font-family="SegoeUI" font-size="10.00">+ MakePointer&lt; T &gt;()</text>
<text text-anchor="start" x="212" y="-861.5" font-family="SegoeUI" font-size="10.00">+ Process()</text>
</a>
</g>
</g>
<!-- Node5&#45;&gt;Node2 -->
<g id="edge5" class="edge"><title>Node5&#45;&gt;Node2</title>
<path fill="none" stroke="midnightblue" d="M237.818,-844.593C233.74,-829.282 229.273,-812.51 224.586,-794.911"/>
<polygon fill="none" stroke="midnightblue" points="234.485,-845.676 240.44,-854.438 241.249,-843.874 234.485,-845.676"/>
</g>
</g>
</svg>
