<?xml version="1.0" encoding="UTF-8" standalone="no"?>
<!DOCTYPE svg PUBLIC "-//W3C//DTD SVG 1.1//EN"
 "http://www.w3.org/Graphics/SVG/1.1/DTD/svg11.dtd">
<!-- Generated by graphviz version 2.38.0 (20140413.2041)
 -->
<!-- Title: Juniper.IO.BinaryFactory&lt; ResultT &gt; Pages: 1 -->
<!--zoomable 543 -->
<svg id="main" version="1.1" xmlns="http://www.w3.org/2000/svg" xmlns:xlink="http://www.w3.org/1999/xlink" xml:space="preserve" onload="init(evt)">
<style type="text/css"><![CDATA[
.edge:hover path { stroke: red; }
.edge:hover polygon { stroke: red; fill: red; }
]]></style>
<script type="text/javascript"><![CDATA[
var edges = document.getElementsByTagName('g');
if (edges && edges.length) {
  for (var i=0;i<edges.length;i++) {
    if (edges[i].id.substr(0,4)=='edge') {
      edges[i].setAttribute('class','edge');
    }
  }
}
]]></script>
        <defs>
                <circle id="rim" cx="0" cy="0" r="7"/>
                <circle id="rim2" cx="0" cy="0" r="3.5"/>
                <g id="zoomPlus">
                        <use xlink:href="#rim" fill="#404040">
                                <set attributeName="fill" to="#808080" begin="zoomplus.mouseover" end="zoomplus.mouseout"/>
                        </use>
                        <path d="M-4,0h8M0,-4v8" fill="none" stroke="white" stroke-width="1.5" pointer-events="none"/>
                </g>
                <g id="zoomMin">
                        <use xlink:href="#rim" fill="#404040">
                                <set attributeName="fill" to="#808080" begin="zoomminus.mouseover" end="zoomminus.mouseout"/>
                        </use>
                        <path d="M-4,0h8" fill="none" stroke="white" stroke-width="1.5" pointer-events="none"/>
                </g>
                <g id="dirArrow">
                        <path fill="none" stroke="white" stroke-width="1.5" d="M0,-3.0v7 M-2.5,-0.5L0,-3.0L2.5,-0.5"/>
                </g>
               <g id="resetDef">
                       <use xlink:href="#rim2" fill="#404040">
                               <set attributeName="fill" to="#808080" begin="reset.mouseover" end="reset.mouseout"/>
                       </use>
               </g>
        </defs>

<script type="text/javascript">
var viewWidth = 436;
var viewHeight = 543;
var sectionId = 'dynsection-0';
</script>
<script xlink:href="../../svgpan.js"/>
<svg id="graph" class="graph">
<g id="viewport">
<title>Juniper.IO.BinaryFactory&lt; ResultT &gt;</title>
<polygon fill="white" stroke="none" points="-4,4 -4,-539 432,-539 432,4 -4,4"/>
<!-- Node0 -->
<g id="node1" class="node"><title>Node0</title>
<g id="a_node1"><a xlink:title=" ">
<polygon fill="#bfbfbf" stroke="black" points="39.5,-0.5 39.5,-101.5 160.5,-101.5 160.5,-0.5 39.5,-0.5"/>
<text text-anchor="start" x="47.5" y="-89.5" font-family="SegoeUI" font-size="10.00">Juniper.IO.BinaryFactory</text>
<text text-anchor="middle" x="100" y="-78.5" font-family="SegoeUI" font-size="10.00">&lt; ResultT &gt;</text>
<polyline fill="none" stroke="black" points="39.5,-71.5 160.5,-71.5 "/>
<text text-anchor="start" x="47.5" y="-59.5" font-family="SegoeUI" font-size="10.00">+ ContentType</text>
<polyline fill="none" stroke="black" points="39.5,-52.5 160.5,-52.5 "/>
<text text-anchor="start" x="47.5" y="-40.5" font-family="SegoeUI" font-size="10.00">+ BinaryFactory()</text>
<text text-anchor="start" x="47.5" y="-29.5" font-family="SegoeUI" font-size="10.00">+ BindToType()</text>
<text text-anchor="start" x="47.5" y="-18.5" font-family="SegoeUI" font-size="10.00">+ Deserialize()</text>
<text text-anchor="start" x="47.5" y="-7.5" font-family="SegoeUI" font-size="10.00">+ Serialize()</text>
</a>
</g>
</g>
<!-- Node1 -->
<g id="node2" class="node"><title>Node1</title>
<g id="a_node2"><a xlink:title=" ">
<polygon fill="white" stroke="#bfbfbf" points="14,-145 14,-202 110,-202 110,-145 14,-145"/>
<text text-anchor="middle" x="62" y="-190" font-family="SegoeUI" font-size="10.00">SerializationBinder</text>
<polyline fill="none" stroke="#bfbfbf" points="14,-183 110,-183 "/>
<text text-anchor="middle" x="62" y="-171" font-family="SegoeUI" font-size="10.00"> </text>
<polyline fill="none" stroke="#bfbfbf" points="14,-164 110,-164 "/>
<text text-anchor="middle" x="62" y="-152" font-family="SegoeUI" font-size="10.00"> </text>
</a>
</g>
</g>
<!-- Node1&#45;&gt;Node0 -->
<g id="edge1" class="edge"><title>Node1&#45;&gt;Node0</title>
<path fill="none" stroke="midnightblue" d="M73.7864,-135.125C77.1149,-124.57 80.7901,-112.916 84.3091,-101.757"/>
<polygon fill="none" stroke="midnightblue" points="70.3876,-134.265 70.718,-144.855 77.0635,-136.37 70.3876,-134.265"/>
</g>
<!-- Node2 -->
<g id="node3" class="node"><title>Node2</title>
<g id="a_node3"><a xlink:href="../../da/df2/interface_juniper_1_1_i_o_1_1_i_factory.html" target="_top" xlink:title=" ">
<polygon fill="white" stroke="black" points="128.5,-139.5 128.5,-207.5 253.5,-207.5 253.5,-139.5 128.5,-139.5"/>
<text text-anchor="start" x="136.5" y="-195.5" font-family="SegoeUI" font-size="10.00">IFactory&lt; ResultT,</text>
<text text-anchor="middle" x="191" y="-184.5" font-family="SegoeUI" font-size="10.00"> MediaType.Application &gt;</text>
<polyline fill="none" stroke="black" points="128.5,-177.5 253.5,-177.5 "/>
<text text-anchor="middle" x="191" y="-165.5" font-family="SegoeUI" font-size="10.00"> </text>
<polyline fill="none" stroke="black" points="128.5,-158.5 253.5,-158.5 "/>
<text text-anchor="middle" x="191" y="-146.5" font-family="SegoeUI" font-size="10.00"> </text>
</a>
</g>
</g>
<!-- Node2&#45;&gt;Node0 -->
<g id="edge2" class="edge"><title>Node2&#45;&gt;Node0</title>
<path fill="none" stroke="midnightblue" d="M159.783,-131.163C152.655,-121.724 145.006,-111.595 137.64,-101.842"/>
<polygon fill="none" stroke="midnightblue" points="157.073,-133.383 165.893,-139.254 162.66,-129.164 157.073,-133.383"/>
</g>
<!-- Node3 -->
<g id="node4" class="node"><title>Node3</title>
<g id="a_node4"><a xlink:href="../../da/df2/interface_juniper_1_1_i_o_1_1_i_factory.html" target="_top" xlink:title=" ">
<polygon fill="white" stroke="black" points="111,-255.5 111,-323.5 271,-323.5 271,-255.5 111,-255.5"/>
<text text-anchor="start" x="119" y="-311.5" font-family="SegoeUI" font-size="10.00">Juniper.IO.IFactory</text>
<text text-anchor="middle" x="191" y="-300.5" font-family="SegoeUI" font-size="10.00">&lt; ResultT, out out MediaTypeT &gt;</text>
<polyline fill="none" stroke="black" points="111,-293.5 271,-293.5 "/>
<text text-anchor="middle" x="191" y="-281.5" font-family="SegoeUI" font-size="10.00"> </text>
<polyline fill="none" stroke="black" points="111,-274.5 271,-274.5 "/>
<text text-anchor="middle" x="191" y="-262.5" font-family="SegoeUI" font-size="10.00"> </text>
</a>
</g>
</g>
<!-- Node3&#45;&gt;Node2 -->
<g id="edge3" class="edge"><title>Node3&#45;&gt;Node2</title>
<path fill="none" stroke="orange" d="M191,-245.06C191,-232.644 191,-219.316 191,-207.624"/>
<polygon fill="orange" stroke="orange" points="187.5,-245.22 191,-255.22 194.5,-245.22 187.5,-245.22"/>
<text text-anchor="middle" x="269.5" y="-229" font-family="SegoeUI" font-size="10.00"> &lt; ResultT, MediaType.Application &gt;</text>
</g>
<!-- Node4 -->
<g id="node5" class="node"><title>Node4</title>
<g id="a_node5"><a xlink:href="../../de/d17/interface_juniper_1_1_i_o_1_1_i_serializer.html" target="_top" xlink:title=" ">
<polygon fill="white" stroke="black" points="0,-361.5 0,-418.5 112,-418.5 112,-361.5 0,-361.5"/>
<text text-anchor="middle" x="56" y="-406.5" font-family="SegoeUI" font-size="10.00">ISerializer&lt; ResultT &gt;</text>
<polyline fill="none" stroke="black" points="0,-399.5 112,-399.5 "/>
<text text-anchor="middle" x="56" y="-387.5" font-family="SegoeUI" font-size="10.00"> </text>
<polyline fill="none" stroke="black" points="0,-380.5 112,-380.5 "/>
<text text-anchor="start" x="8" y="-368.5" font-family="SegoeUI" font-size="10.00">+ Serialize()</text>
</a>
</g>
</g>
<!-- Node4&#45;&gt;Node3 -->
<g id="edge4" class="edge"><title>Node4&#45;&gt;Node3</title>
<path fill="none" stroke="midnightblue" d="M102.075,-355.383C116.158,-345.107 131.63,-333.818 145.664,-323.578"/>
<polygon fill="none" stroke="midnightblue" points="99.9796,-352.579 93.9643,-361.3 104.106,-358.233 99.9796,-352.579"/>
</g>
<!-- Node5 -->
<g id="node6" class="node"><title>Node5</title>
<g id="a_node6"><a xlink:href="../../de/d17/interface_juniper_1_1_i_o_1_1_i_serializer.html" target="_top" xlink:title=" ">
<polygon fill="white" stroke="black" points="2.5,-466.5 2.5,-534.5 109.5,-534.5 109.5,-466.5 2.5,-466.5"/>
<text text-anchor="start" x="10.5" y="-522.5" font-family="SegoeUI" font-size="10.00">Juniper.IO.ISerializer</text>
<text text-anchor="middle" x="56" y="-511.5" font-family="SegoeUI" font-size="10.00">&lt; in in T &gt;</text>
<polyline fill="none" stroke="black" points="2.5,-504.5 109.5,-504.5 "/>
<text text-anchor="middle" x="56" y="-492.5" font-family="SegoeUI" font-size="10.00"> </text>
<polyline fill="none" stroke="black" points="2.5,-485.5 109.5,-485.5 "/>
<text text-anchor="start" x="10.5" y="-473.5" font-family="SegoeUI" font-size="10.00">+ Serialize()</text>
</a>
</g>
</g>
<!-- Node5&#45;&gt;Node4 -->
<g id="edge5" class="edge"><title>Node5&#45;&gt;Node4</title>
<path fill="none" stroke="orange" d="M56,-456.064C56,-443.511 56,-430.152 56,-418.827"/>
<polygon fill="orange" stroke="orange" points="52.5001,-456.357 56,-466.357 59.5001,-456.357 52.5001,-456.357"/>
<text text-anchor="middle" x="83.5" y="-440" font-family="SegoeUI" font-size="10.00"> &lt; ResultT &gt;</text>
</g>
<!-- Node6 -->
<g id="node7" class="node"><title>Node6</title>
<g id="a_node7"><a xlink:href="../../d1/d4d/interface_juniper_1_1_i_o_1_1_i_deserializer.html" target="_top" xlink:title=" ">
<polygon fill="white" stroke="black" points="130,-361.5 130,-418.5 252,-418.5 252,-361.5 130,-361.5"/>
<text text-anchor="middle" x="191" y="-406.5" font-family="SegoeUI" font-size="10.00">IDeserializer&lt; ResultT &gt;</text>
<polyline fill="none" stroke="black" points="130,-399.5 252,-399.5 "/>
<text text-anchor="middle" x="191" y="-387.5" font-family="SegoeUI" font-size="10.00"> </text>
<polyline fill="none" stroke="black" points="130,-380.5 252,-380.5 "/>
<text text-anchor="start" x="138" y="-368.5" font-family="SegoeUI" font-size="10.00">+ Deserialize()</text>
</a>
</g>
</g>
<!-- Node6&#45;&gt;Node3 -->
<g id="edge6" class="edge"><title>Node6&#45;&gt;Node3</title>
<path fill="none" stroke="midnightblue" d="M191,-351.007C191,-341.962 191,-332.383 191,-323.578"/>
<polygon fill="none" stroke="midnightblue" points="187.5,-351.3 191,-361.3 194.5,-351.3 187.5,-351.3"/>
</g>
<!-- Node7 -->
<g id="node8" class="node"><title>Node7</title>
<g id="a_node8"><a xlink:href="../../d1/d4d/interface_juniper_1_1_i_o_1_1_i_deserializer.html" target="_top" xlink:title=" ">
<polygon fill="white" stroke="black" points="133,-466.5 133,-534.5 249,-534.5 249,-466.5 133,-466.5"/>
<text text-anchor="start" x="141" y="-522.5" font-family="SegoeUI" font-size="10.00">Juniper.IO.IDeserializer</text>
<text text-anchor="middle" x="191" y="-511.5" font-family="SegoeUI" font-size="10.00">&lt; out out ResultT &gt;</text>
<polyline fill="none" stroke="black" points="133,-504.5 249,-504.5 "/>
<text text-anchor="middle" x="191" y="-492.5" font-family="SegoeUI" font-size="10.00"> </text>
<polyline fill="none" stroke="black" points="133,-485.5 249,-485.5 "/>
<text text-anchor="start" x="141" y="-473.5" font-family="SegoeUI" font-size="10.00">+ Deserialize()</text>
</a>
</g>
</g>
<!-- Node7&#45;&gt;Node6 -->
<g id="edge7" class="edge"><title>Node7&#45;&gt;Node6</title>
<path fill="none" stroke="orange" d="M191,-456.064C191,-443.511 191,-430.152 191,-418.827"/>
<polygon fill="orange" stroke="orange" points="187.5,-456.357 191,-466.357 194.5,-456.357 187.5,-456.357"/>
<text text-anchor="middle" x="218.5" y="-440" font-family="SegoeUI" font-size="10.00"> &lt; ResultT &gt;</text>
</g>
<!-- Node8 -->
<g id="node9" class="node"><title>Node8</title>
<g id="a_node9"><a xlink:href="../../da/d97/interface_juniper_1_1_i_o_1_1_i_content_handler.html" target="_top" xlink:title=" ">
<polygon fill="white" stroke="black" points="270,-361.5 270,-418.5 428,-418.5 428,-361.5 270,-361.5"/>
<text text-anchor="middle" x="349" y="-406.5" font-family="SegoeUI" font-size="10.00">IContentHandler&lt; MediaTypeT &gt;</text>
<polyline fill="none" stroke="black" points="270,-399.5 428,-399.5 "/>
<text text-anchor="middle" x="349" y="-387.5" font-family="SegoeUI" font-size="10.00"> </text>
<polyline fill="none" stroke="black" points="270,-380.5 428,-380.5 "/>
<text text-anchor="middle" x="349" y="-368.5" font-family="SegoeUI" font-size="10.00"> </text>
</a>
</g>
</g>
<!-- Node8&#45;&gt;Node3 -->
<g id="edge8" class="edge"><title>Node8&#45;&gt;Node3</title>
<path fill="none" stroke="midnightblue" d="M295.998,-355.958C279.27,-345.529 260.792,-334.009 244.06,-323.578"/>
<polygon fill="none" stroke="midnightblue" points="294.23,-358.98 304.568,-361.3 297.933,-353.04 294.23,-358.98"/>
</g>
<!-- Node9 -->
<g id="node10" class="node"><title>Node9</title>
<g id="a_node10"><a xlink:href="../../da/d97/interface_juniper_1_1_i_o_1_1_i_content_handler.html" target="_top" xlink:title=" ">
<polygon fill="white" stroke="black" points="283,-472 283,-529 415,-529 415,-472 283,-472"/>
<text text-anchor="middle" x="349" y="-517" font-family="SegoeUI" font-size="10.00">Juniper.IO.IContentHandler</text>
<polyline fill="none" stroke="black" points="283,-510 415,-510 "/>
<text text-anchor="middle" x="349" y="-498" font-family="SegoeUI" font-size="10.00"> </text>
<polyline fill="none" stroke="black" points="283,-491 415,-491 "/>
<text text-anchor="middle" x="349" y="-479" font-family="SegoeUI" font-size="10.00"> </text>
</a>
</g>
</g>
<!-- Node9&#45;&gt;Node8 -->
<g id="edge9" class="edge"><title>Node9&#45;&gt;Node8</title>
<path fill="none" stroke="orange" d="M349,-461.436C349,-447.327 349,-431.611 349,-418.609"/>
<polygon fill="orange" stroke="orange" points="345.5,-461.84 349,-471.84 352.5,-461.84 345.5,-461.84"/>
<text text-anchor="middle" x="387" y="-440" font-family="SegoeUI" font-size="10.00"> &lt; MediaTypeT &gt;</text>
</g>
</g>
</svg>
        <g id="navigator" transform="translate(0 0)" fill="#404254">
                <rect fill="#f2f5e9" fill-opacity="0.5" stroke="#606060" stroke-width=".5" x="0" y="0" width="60" height="60"/>
                <use id="zoomplus" xlink:href="#zoomPlus" x="17" y="9" onmousedown="handleZoom(evt,'in')"/>
                <use id="zoomminus" xlink:href="#zoomMin" x="42" y="9" onmousedown="handleZoom(evt,'out')"/>
                <use id="reset" xlink:href="#resetDef" x="30" y="36" onmousedown="handleReset()"/>
                <g id="arrowUp" xlink:href="#dirArrow" transform="translate(30 24)" onmousedown="handlePan(0,-1)">
                  <use xlink:href="#rim" fill="#404040">
                        <set attributeName="fill" to="#808080" begin="arrowUp.mouseover" end="arrowUp.mouseout"/>
                  </use>
                  <path fill="none" stroke="white" stroke-width="1.5" d="M0,-3.0v7 M-2.5,-0.5L0,-3.0L2.5,-0.5"/>
                </g>
                <g id="arrowRight" xlink:href="#dirArrow" transform="rotate(90) translate(36 -43)" onmousedown="handlePan(1,0)">
                  <use xlink:href="#rim" fill="#404040">
                        <set attributeName="fill" to="#808080" begin="arrowRight.mouseover" end="arrowRight.mouseout"/>
                  </use>
                  <path fill="none" stroke="white" stroke-width="1.5" d="M0,-3.0v7 M-2.5,-0.5L0,-3.0L2.5,-0.5"/>
                </g>
                <g id="arrowDown" xlink:href="#dirArrow" transform="rotate(180) translate(-30 -48)" onmousedown="handlePan(0,1)">
                  <use xlink:href="#rim" fill="#404040">
                        <set attributeName="fill" to="#808080" begin="arrowDown.mouseover" end="arrowDown.mouseout"/>
                  </use>
                  <path fill="none" stroke="white" stroke-width="1.5" d="M0,-3.0v7 M-2.5,-0.5L0,-3.0L2.5,-0.5"/>
                </g>
                <g id="arrowLeft" xlink:href="#dirArrow" transform="rotate(270) translate(-36 17)" onmousedown="handlePan(-1,0)">
                  <use xlink:href="#rim" fill="#404040">
                        <set attributeName="fill" to="#808080" begin="arrowLeft.mouseover" end="arrowLeft.mouseout"/>
                  </use>
                  <path fill="none" stroke="white" stroke-width="1.5" d="M0,-3.0v7 M-2.5,-0.5L0,-3.0L2.5,-0.5"/>
                </g>
        </g>
        <svg viewBox="0 0 15 15" width="100%" height="30px" preserveAspectRatio="xMaxYMin meet">
         <g id="arrow_out" transform="scale(0.3 0.3)">
          <a xlink:href="class_juniper_1_1_i_o_1_1_binary_factory__inherit__graph_org.svg" target="_base">
           <rect id="button" ry="5" rx="5" y="6" x="6" height="38" width="38"
                fill="#f2f5e9" fill-opacity="0.5" stroke="#606060" stroke-width="1.0"/>
           <path id="arrow"
             d="M 11.500037,31.436501 C 11.940474,20.09759 22.043105,11.32322 32.158766,21.979434 L 37.068811,17.246167 C 37.068811,17.246167 37.088388,32 37.088388,32 L 22.160133,31.978069 C 22.160133,31.978069 26.997745,27.140456 26.997745,27.140456 C 18.528582,18.264221 13.291696,25.230495 11.500037,31.436501 z"
             style="fill:#404040;"/>
          </a>
         </g>
        </svg>
</svg>
