<?xml version="1.0" encoding="UTF-8" standalone="no"?>
<!DOCTYPE svg PUBLIC "-//W3C//DTD SVG 1.1//EN"
 "http://www.w3.org/Graphics/SVG/1.1/DTD/svg11.dtd">
<!-- Generated by graphviz version 2.38.0 (20140413.2041)
 -->
<!-- Title: Juniper.Widgets.FileSelector Pages: 1 -->
<svg width="257pt" height="837pt"
 viewBox="0.00 0.00 256.50 837.00" xmlns="http://www.w3.org/2000/svg" xmlns:xlink="http://www.w3.org/1999/xlink">
<g id="graph0" class="graph" transform="scale(1 1) rotate(0) translate(4 833)">
<title>Juniper.Widgets.FileSelector</title>
<polygon fill="white" stroke="none" points="-4,4 -4,-833 252.5,-833 252.5,4 -4,4"/>
<!-- Node2 -->
<g id="node1" class="node"><title>Node2</title>
<g id="a_node1"><a xlink:title=" ">
<polygon fill="#bfbfbf" stroke="black" points="59,-0.5 59,-343.5 197,-343.5 197,-0.5 59,-0.5"/>
<text text-anchor="middle" x="128" y="-331.5" font-family="SegoeUI" font-size="10.00">Juniper.Widgets.FileSelector</text>
<polyline fill="none" stroke="black" points="59,-324.5 197,-324.5 "/>
<text text-anchor="start" x="67" y="-312.5" font-family="SegoeUI" font-size="10.00">+ mode</text>
<text text-anchor="start" x="67" y="-301.5" font-family="SegoeUI" font-size="10.00">+ font</text>
<text text-anchor="start" x="67" y="-290.5" font-family="SegoeUI" font-size="10.00">+ fontSize</text>
<text text-anchor="start" x="67" y="-279.5" font-family="SegoeUI" font-size="10.00">+ filter</text>
<text text-anchor="start" x="67" y="-268.5" font-family="SegoeUI" font-size="10.00">+ startDirectory</text>
<text text-anchor="start" x="67" y="-257.5" font-family="SegoeUI" font-size="10.00">+ SelectedPath</text>
<text text-anchor="start" x="67" y="-246.5" font-family="SegoeUI" font-size="10.00">&#45; lastFilter</text>
<text text-anchor="start" x="67" y="-235.5" font-family="SegoeUI" font-size="10.00">&#45; fileFilter</text>
<text text-anchor="start" x="67" y="-224.5" font-family="SegoeUI" font-size="10.00">&#45; lastStartDirectory</text>
<text text-anchor="start" x="67" y="-213.5" font-family="SegoeUI" font-size="10.00">&#45; onSelected</text>
<text text-anchor="start" x="67" y="-202.5" font-family="SegoeUI" font-size="10.00">&#45; onCancel</text>
<text text-anchor="start" x="67" y="-191.5" font-family="SegoeUI" font-size="10.00">&#45; path</text>
<text text-anchor="start" x="67" y="-180.5" font-family="SegoeUI" font-size="10.00">&#45; ok</text>
<text text-anchor="start" x="67" y="-169.5" font-family="SegoeUI" font-size="10.00">&#45; cancel</text>
<polyline fill="none" stroke="black" points="59,-162.5 197,-162.5 "/>
<text text-anchor="start" x="67" y="-150.5" font-family="SegoeUI" font-size="10.00">+ OK()</text>
<text text-anchor="start" x="67" y="-139.5" font-family="SegoeUI" font-size="10.00">+ Cancel()</text>
<text text-anchor="start" x="67" y="-128.5" font-family="SegoeUI" font-size="10.00">+ Show()</text>
<text text-anchor="start" x="67" y="-117.5" font-family="SegoeUI" font-size="10.00">+ Show()</text>
<text text-anchor="start" x="67" y="-106.5" font-family="SegoeUI" font-size="10.00">+ Awake()</text>
<text text-anchor="start" x="67" y="-95.5" font-family="SegoeUI" font-size="10.00">+ Update()</text>
<text text-anchor="start" x="67" y="-84.5" font-family="SegoeUI" font-size="10.00">+ MaybeSetStartDirectory()</text>
<text text-anchor="start" x="67" y="-73.5" font-family="SegoeUI" font-size="10.00">&#45; CallAndExit()</text>
<text text-anchor="start" x="67" y="-62.5" font-family="SegoeUI" font-size="10.00">&#45; Get&lt; T &gt;()</text>
<text text-anchor="start" x="67" y="-51.5" font-family="SegoeUI" font-size="10.00">&#45; ReadDirectory()</text>
<text text-anchor="start" x="67" y="-40.5" font-family="SegoeUI" font-size="10.00">&#45; FilePassesFilter()</text>
<text text-anchor="start" x="67" y="-29.5" font-family="SegoeUI" font-size="10.00">&#45; ShowPath()</text>
<text text-anchor="start" x="67" y="-18.5" font-family="SegoeUI" font-size="10.00">&#45; AddEntry()</text>
<text text-anchor="start" x="67" y="-7.5" font-family="SegoeUI" font-size="10.00">&#45; Select()</text>
</a>
</g>
</g>
<!-- Node3 -->
<g id="node2" class="node"><title>Node3</title>
<g id="a_node2"><a xlink:title=" ">
<polygon fill="white" stroke="#bfbfbf" points="0,-771.5 0,-828.5 82,-828.5 82,-771.5 0,-771.5"/>
<text text-anchor="middle" x="41" y="-816.5" font-family="SegoeUI" font-size="10.00">MonoBehaviour</text>
<polyline fill="none" stroke="#bfbfbf" points="0,-809.5 82,-809.5 "/>
<text text-anchor="middle" x="41" y="-797.5" font-family="SegoeUI" font-size="10.00"> </text>
<polyline fill="none" stroke="#bfbfbf" points="0,-790.5 82,-790.5 "/>
<text text-anchor="middle" x="41" y="-778.5" font-family="SegoeUI" font-size="10.00"> </text>
</a>
</g>
</g>
<!-- Node3&#45;&gt;Node2 -->
<g id="edge1" class="edge"><title>Node3&#45;&gt;Node2</title>
<path fill="none" stroke="midnightblue" d="M38.3982,-761.039C34.33,-689.946 29.1125,-532.153 52,-402 55.3735,-382.816 60.029,-363.045 65.3894,-343.535"/>
<polygon fill="none" stroke="midnightblue" points="34.9203,-761.514 39.0117,-771.287 41.9077,-761.096 34.9203,-761.514"/>
</g>
<!-- Node5 -->
<g id="node4" class="node"><title>Node5</title>
<g id="a_node4"><a xlink:href="../../d9/dd4/class_juniper_1_1_widgets_1_1_list_view.html" target="_top" xlink:title=" ">
<polygon fill="white" stroke="black" points="61,-402.5 61,-723.5 195,-723.5 195,-402.5 61,-402.5"/>
<text text-anchor="middle" x="128" y="-711.5" font-family="SegoeUI" font-size="10.00">Juniper.Widgets.ListView</text>
<polyline fill="none" stroke="black" points="61,-704.5 195,-704.5 "/>
<text text-anchor="start" x="69" y="-692.5" font-family="SegoeUI" font-size="10.00">+ selectionMode</text>
<text text-anchor="start" x="69" y="-681.5" font-family="SegoeUI" font-size="10.00">+ font</text>
<text text-anchor="start" x="69" y="-670.5" font-family="SegoeUI" font-size="10.00">+ fontSize</text>
<text text-anchor="start" x="69" y="-659.5" font-family="SegoeUI" font-size="10.00">+ normalBackgroundColor</text>
<text text-anchor="start" x="69" y="-648.5" font-family="SegoeUI" font-size="10.00">+ highlightBackgroundColor</text>
<text text-anchor="start" x="69" y="-637.5" font-family="SegoeUI" font-size="10.00">+ normalColor</text>
<text text-anchor="start" x="69" y="-626.5" font-family="SegoeUI" font-size="10.00">+ disabledColor</text>
<text text-anchor="start" x="69" y="-615.5" font-family="SegoeUI" font-size="10.00">+ highlightColor</text>
<text text-anchor="start" x="69" y="-604.5" font-family="SegoeUI" font-size="10.00">+ onSelectionChanged</text>
<text text-anchor="start" x="69" y="-593.5" font-family="SegoeUI" font-size="10.00">+ Items</text>
<text text-anchor="start" x="69" y="-582.5" font-family="SegoeUI" font-size="10.00">+ Selection</text>
<text text-anchor="start" x="69" y="-571.5" font-family="SegoeUI" font-size="10.00">+ FirstSelectedItem</text>
<text text-anchor="start" x="69" y="-560.5" font-family="SegoeUI" font-size="10.00">+ Container</text>
<text text-anchor="start" x="69" y="-549.5" font-family="SegoeUI" font-size="10.00">&#45; count</text>
<polyline fill="none" stroke="black" points="61,-542.5 195,-542.5 "/>
<text text-anchor="start" x="69" y="-530.5" font-family="SegoeUI" font-size="10.00">+ Awake()</text>
<text text-anchor="start" x="69" y="-519.5" font-family="SegoeUI" font-size="10.00">+ Clear()</text>
<text text-anchor="start" x="69" y="-508.5" font-family="SegoeUI" font-size="10.00">+ GetItem()</text>
<text text-anchor="start" x="69" y="-497.5" font-family="SegoeUI" font-size="10.00">+ ContainsItem()</text>
<text text-anchor="start" x="69" y="-486.5" font-family="SegoeUI" font-size="10.00">+ AddItems&lt; T &gt;()</text>
<text text-anchor="start" x="69" y="-475.5" font-family="SegoeUI" font-size="10.00">+ AddItem()</text>
<text text-anchor="start" x="69" y="-464.5" font-family="SegoeUI" font-size="10.00">+ ClearSelection()</text>
<text text-anchor="start" x="69" y="-453.5" font-family="SegoeUI" font-size="10.00">+ SetSelection()</text>
<text text-anchor="start" x="69" y="-442.5" font-family="SegoeUI" font-size="10.00">+ SetSelection()</text>
<text text-anchor="start" x="69" y="-431.5" font-family="SegoeUI" font-size="10.00">+ RemoveItem()</text>
<text text-anchor="start" x="69" y="-420.5" font-family="SegoeUI" font-size="10.00">&#45; ChangeSelection()</text>
<text text-anchor="start" x="69" y="-409.5" font-family="SegoeUI" font-size="10.00">&#45; SetSelection()</text>
</a>
</g>
</g>
<!-- Node3&#45;&gt;Node5 -->
<g id="edge4" class="edge"><title>Node3&#45;&gt;Node5</title>
<path fill="none" stroke="midnightblue" d="M54.9005,-761.453C59.0137,-750.342 63.7986,-737.418 68.9149,-723.598"/>
<polygon fill="none" stroke="midnightblue" points="51.5113,-760.526 51.3217,-771.12 58.0759,-762.957 51.5113,-760.526"/>
</g>
<!-- Node4 -->
<g id="node3" class="node"><title>Node4</title>
<g id="a_node3"><a xlink:title=" ">
<polygon fill="white" stroke="#bfbfbf" points="213.5,-534.5 213.5,-591.5 248.5,-591.5 248.5,-534.5 213.5,-534.5"/>
<text text-anchor="middle" x="231" y="-579.5" font-family="SegoeUI" font-size="10.00">Text</text>
<polyline fill="none" stroke="#bfbfbf" points="213.5,-572.5 248.5,-572.5 "/>
<text text-anchor="middle" x="231" y="-560.5" font-family="SegoeUI" font-size="10.00"> </text>
<polyline fill="none" stroke="#bfbfbf" points="213.5,-553.5 248.5,-553.5 "/>
<text text-anchor="middle" x="231" y="-541.5" font-family="SegoeUI" font-size="10.00"> </text>
</a>
</g>
</g>
<!-- Node4&#45;&gt;Node2 -->
<g id="edge2" class="edge"><title>Node4&#45;&gt;Node2</title>
<path fill="none" stroke="#404040" d="M227.635,-534.273C223.434,-502.156 215.391,-447.79 204,-402 200.233,-386.856 195.953,-371.27 191.389,-355.692"/>
<polygon fill="none" stroke="#404040" points="191.269,-355.29 185.724,-350.679 187.847,-343.788 193.392,-348.398 191.269,-355.29"/>
<text text-anchor="middle" x="214" y="-376" font-family="SegoeUI" font-size="10.00"> &#45;label</text>
<text text-anchor="middle" x="214" y="-365" font-family="SegoeUI" font-size="10.00">&#45;title</text>
</g>
<!-- Node5&#45;&gt;Node2 -->
<g id="edge3" class="edge"><title>Node5&#45;&gt;Node2</title>
<path fill="none" stroke="#404040" d="M128,-402.376C128,-387.071 128,-371.468 128,-355.964"/>
<polygon fill="none" stroke="#404040" points="128,-355.558 124,-349.558 128,-343.558 132,-349.558 128,-355.558"/>
<text text-anchor="middle" x="151.5" y="-370.5" font-family="SegoeUI" font-size="10.00"> &#45;container</text>
</g>
<!-- Node6 -->
<g id="node5" class="node"><title>Node6</title>
<g id="a_node5"><a xlink:title=" ">
<polygon fill="white" stroke="#bfbfbf" points="108.5,-771.5 108.5,-828.5 147.5,-828.5 147.5,-771.5 108.5,-771.5"/>
<text text-anchor="middle" x="128" y="-816.5" font-family="SegoeUI" font-size="10.00">static</text>
<polyline fill="none" stroke="#bfbfbf" points="108.5,-809.5 147.5,-809.5 "/>
<text text-anchor="middle" x="128" y="-797.5" font-family="SegoeUI" font-size="10.00"> </text>
<polyline fill="none" stroke="#bfbfbf" points="108.5,-790.5 147.5,-790.5 "/>
<text text-anchor="middle" x="128" y="-778.5" font-family="SegoeUI" font-size="10.00"> </text>
</a>
</g>
</g>
<!-- Node6&#45;&gt;Node5 -->
<g id="edge5" class="edge"><title>Node6&#45;&gt;Node5</title>
<path fill="none" stroke="#404040" d="M128,-771.12C128,-761.105 128,-748.952 128,-735.607"/>
<polygon fill="none" stroke="#404040" points="128,-735.598 124,-729.598 128,-723.598 132,-729.598 128,-735.598"/>
<text text-anchor="middle" x="173.5" y="-745" font-family="SegoeUI" font-size="10.00"> &#45;EMPTY_SELECTION</text>
</g>
</g>
</svg>
