<?xml version="1.0" encoding="UTF-8" standalone="no"?>
<!DOCTYPE svg PUBLIC "-//W3C//DTD SVG 1.1//EN"
 "http://www.w3.org/Graphics/SVG/1.1/DTD/svg11.dtd">
<!-- Generated by graphviz version 2.38.0 (20140413.2041)
 -->
<!-- Title: Juniper.Mathematics.AbstractMotionFilter Pages: 1 -->
<!--zoomable 540 -->
<svg id="main" version="1.1" xmlns="http://www.w3.org/2000/svg" xmlns:xlink="http://www.w3.org/1999/xlink" xml:space="preserve" onload="init(evt)">
<style type="text/css"><![CDATA[
.edge:hover path { stroke: red; }
.edge:hover polygon { stroke: red; fill: red; }
]]></style>
<script type="text/javascript"><![CDATA[
var edges = document.getElementsByTagName('g');
if (edges && edges.length) {
  for (var i=0;i<edges.length;i++) {
    if (edges[i].id.substr(0,4)=='edge') {
      edges[i].setAttribute('class','edge');
    }
  }
}
]]></script>
        <defs>
                <circle id="rim" cx="0" cy="0" r="7"/>
                <circle id="rim2" cx="0" cy="0" r="3.5"/>
                <g id="zoomPlus">
                        <use xlink:href="#rim" fill="#404040">
                                <set attributeName="fill" to="#808080" begin="zoomplus.mouseover" end="zoomplus.mouseout"/>
                        </use>
                        <path d="M-4,0h8M0,-4v8" fill="none" stroke="white" stroke-width="1.5" pointer-events="none"/>
                </g>
                <g id="zoomMin">
                        <use xlink:href="#rim" fill="#404040">
                                <set attributeName="fill" to="#808080" begin="zoomminus.mouseover" end="zoomminus.mouseout"/>
                        </use>
                        <path d="M-4,0h8" fill="none" stroke="white" stroke-width="1.5" pointer-events="none"/>
                </g>
                <g id="dirArrow">
                        <path fill="none" stroke="white" stroke-width="1.5" d="M0,-3.0v7 M-2.5,-0.5L0,-3.0L2.5,-0.5"/>
                </g>
               <g id="resetDef">
                       <use xlink:href="#rim2" fill="#404040">
                               <set attributeName="fill" to="#808080" begin="reset.mouseover" end="reset.mouseout"/>
                       </use>
               </g>
        </defs>

<script type="text/javascript">
var viewWidth = 496;
var viewHeight = 540;
var sectionId = 'dynsection-0';
</script>
<script xlink:href="../../svgpan.js"/>
<svg id="graph" class="graph">
<g id="viewport">
<title>Juniper.Mathematics.AbstractMotionFilter</title>
<polygon fill="white" stroke="none" points="-4,4 -4,-536 492,-536 492,4 -4,4"/>
<!-- Node0 -->
<g id="node1" class="node"><title>Node0</title>
<g id="a_node1"><a xlink:title=" ">
<polygon fill="#bfbfbf" stroke="black" points="186.5,-358.5 186.5,-437.5 329.5,-437.5 329.5,-358.5 186.5,-358.5"/>
<text text-anchor="start" x="194.5" y="-425.5" font-family="SegoeUI" font-size="10.00">Juniper.Mathematics.Abstract</text>
<text text-anchor="middle" x="258" y="-414.5" font-family="SegoeUI" font-size="10.00">MotionFilter</text>
<polyline fill="none" stroke="black" points="186.5,-407.5 329.5,-407.5 "/>
<text text-anchor="start" x="194.5" y="-395.5" font-family="SegoeUI" font-size="10.00">+ PredictedPosition</text>
<text text-anchor="start" x="194.5" y="-384.5" font-family="SegoeUI" font-size="10.00">+ Position</text>
<polyline fill="none" stroke="black" points="186.5,-377.5 329.5,-377.5 "/>
<text text-anchor="start" x="194.5" y="-365.5" font-family="SegoeUI" font-size="10.00">+ UpdateState()</text>
</a>
</g>
</g>
<!-- Node2 -->
<g id="node3" class="node"><title>Node2</title>
<g id="a_node3"><a xlink:href="../../d0/dee/class_juniper_1_1_mathematics_1_1_integration_motion_filter.html" target="_top" xlink:title=" ">
<polygon fill="white" stroke="black" points="0,-83 0,-239 154,-239 154,-83 0,-83"/>
<text text-anchor="start" x="8" y="-227" font-family="SegoeUI" font-size="10.00">Juniper.Mathematics.Integration</text>
<text text-anchor="middle" x="77" y="-216" font-family="SegoeUI" font-size="10.00">MotionFilter</text>
<polyline fill="none" stroke="black" points="0,-209 154,-209 "/>
<text text-anchor="start" x="8" y="-197" font-family="SegoeUI" font-size="10.00">+ interpolationFactor</text>
<text text-anchor="start" x="8" y="-186" font-family="SegoeUI" font-size="10.00">+ componentCount</text>
<text text-anchor="start" x="8" y="-175" font-family="SegoeUI" font-size="10.00">+ PredictedPosition</text>
<text text-anchor="start" x="8" y="-164" font-family="SegoeUI" font-size="10.00">+ Position</text>
<text text-anchor="start" x="8" y="-153" font-family="SegoeUI" font-size="10.00">&#45; IF</text>
<text text-anchor="start" x="8" y="-142" font-family="SegoeUI" font-size="10.00">&#45; compIF</text>
<text text-anchor="start" x="8" y="-131" font-family="SegoeUI" font-size="10.00">&#45; components</text>
<text text-anchor="start" x="8" y="-120" font-family="SegoeUI" font-size="10.00">&#45; saturation</text>
<text text-anchor="start" x="8" y="-109" font-family="SegoeUI" font-size="10.00">&#45; lastTime</text>
<polyline fill="none" stroke="black" points="0,-102 154,-102 "/>
<text text-anchor="start" x="8" y="-90" font-family="SegoeUI" font-size="10.00">+ UpdateState()</text>
</a>
</g>
</g>
<!-- Node0&#45;&gt;Node2 -->
<g id="edge2" class="edge"><title>Node0&#45;&gt;Node2</title>
<path fill="none" stroke="midnightblue" d="M193.406,-351.939C182.538,-342.754 171.91,-332.624 163,-322 142.33,-297.353 124.479,-266.946 110.482,-239.282"/>
<polygon fill="none" stroke="midnightblue" points="191.392,-354.814 201.342,-358.454 195.834,-349.403 191.392,-354.814"/>
</g>
<!-- Node3 -->
<g id="node4" class="node"><title>Node3</title>
<g id="a_node4"><a xlink:href="../../d2/d04/class_juniper_1_1_mathematics_1_1_kalman_motion_filter.html" target="_top" xlink:title=" ">
<polygon fill="white" stroke="black" points="172.5,-0.5 172.5,-321.5 343.5,-321.5 343.5,-0.5 172.5,-0.5"/>
<text text-anchor="start" x="180.5" y="-309.5" font-family="SegoeUI" font-size="10.00">Juniper.Mathematics.Kalman</text>
<text text-anchor="middle" x="258" y="-298.5" font-family="SegoeUI" font-size="10.00">MotionFilter</text>
<polyline fill="none" stroke="black" points="172.5,-291.5 343.5,-291.5 "/>
<text text-anchor="start" x="180.5" y="-279.5" font-family="SegoeUI" font-size="10.00">+ componentCount</text>
<text text-anchor="start" x="180.5" y="-268.5" font-family="SegoeUI" font-size="10.00">+ measurementNoise</text>
<text text-anchor="start" x="180.5" y="-257.5" font-family="SegoeUI" font-size="10.00">+ processNoiseScale</text>
<text text-anchor="start" x="180.5" y="-246.5" font-family="SegoeUI" font-size="10.00">+ processNoiseExponent</text>
<text text-anchor="start" x="180.5" y="-235.5" font-family="SegoeUI" font-size="10.00">+ ComponentCount</text>
<text text-anchor="start" x="180.5" y="-224.5" font-family="SegoeUI" font-size="10.00">+ Dimension</text>
<text text-anchor="start" x="180.5" y="-213.5" font-family="SegoeUI" font-size="10.00">+ Kalman</text>
<text text-anchor="start" x="180.5" y="-202.5" font-family="SegoeUI" font-size="10.00">+ PredictedPosition</text>
<text text-anchor="start" x="180.5" y="-191.5" font-family="SegoeUI" font-size="10.00">+ Position</text>
<text text-anchor="start" x="180.5" y="-180.5" font-family="SegoeUI" font-size="10.00">&#45; mNoise</text>
<text text-anchor="start" x="180.5" y="-169.5" font-family="SegoeUI" font-size="10.00">&#45; procNoiseK</text>
<text text-anchor="start" x="180.5" y="-158.5" font-family="SegoeUI" font-size="10.00">&#45; procNoiseE</text>
<text text-anchor="start" x="180.5" y="-147.5" font-family="SegoeUI" font-size="10.00">&#45; VectorSize</text>
<text text-anchor="start" x="180.5" y="-136.5" font-family="SegoeUI" font-size="10.00">&#45; lastPoint</text>
<polyline fill="none" stroke="black" points="172.5,-129.5 343.5,-129.5 "/>
<text text-anchor="start" x="180.5" y="-117.5" font-family="SegoeUI" font-size="10.00">+ UpdateState()</text>
<text text-anchor="start" x="180.5" y="-106.5" font-family="SegoeUI" font-size="10.00">&#45; X()</text>
<text text-anchor="start" x="180.5" y="-95.5" font-family="SegoeUI" font-size="10.00">&#45; Y()</text>
<text text-anchor="start" x="180.5" y="-84.5" font-family="SegoeUI" font-size="10.00">&#45; Z()</text>
<text text-anchor="start" x="180.5" y="-73.5" font-family="SegoeUI" font-size="10.00">&#45; ToVector3s()</text>
<text text-anchor="start" x="180.5" y="-62.5" font-family="SegoeUI" font-size="10.00">&#45; ToVector3()</text>
<text text-anchor="start" x="180.5" y="-51.5" font-family="SegoeUI" font-size="10.00">&#45; ToArray()</text>
<text text-anchor="start" x="180.5" y="-40.5" font-family="SegoeUI" font-size="10.00">&#45; ToArray()</text>
<text text-anchor="start" x="180.5" y="-29.5" font-family="SegoeUI" font-size="10.00">&#45; GetProcessNoise()</text>
<text text-anchor="start" x="180.5" y="-18.5" font-family="SegoeUI" font-size="10.00">&#45; MakePositionMeasurementMatrix()</text>
<text text-anchor="start" x="180.5" y="-7.5" font-family="SegoeUI" font-size="10.00">&#45; MakeTransitionMatrix()</text>
</a>
</g>
</g>
<!-- Node0&#45;&gt;Node3 -->
<g id="edge3" class="edge"><title>Node0&#45;&gt;Node3</title>
<path fill="none" stroke="midnightblue" d="M258,-348.415C258,-340.174 258,-331.234 258,-321.88"/>
<polygon fill="none" stroke="midnightblue" points="254.5,-348.458 258,-358.458 261.5,-348.458 254.5,-348.458"/>
</g>
<!-- Node4 -->
<g id="node5" class="node"><title>Node4</title>
<g id="a_node5"><a xlink:href="../../db/d93/class_juniper_1_1_mathematics_1_1_lerp_motion_filter.html" target="_top" xlink:title=" ">
<polygon fill="white" stroke="black" points="362,-99.5 362,-222.5 488,-222.5 488,-99.5 362,-99.5"/>
<text text-anchor="start" x="370" y="-210.5" font-family="SegoeUI" font-size="10.00">Juniper.Mathematics.Lerp</text>
<text text-anchor="middle" x="425" y="-199.5" font-family="SegoeUI" font-size="10.00">MotionFilter</text>
<polyline fill="none" stroke="black" points="362,-192.5 488,-192.5 "/>
<text text-anchor="start" x="370" y="-180.5" font-family="SegoeUI" font-size="10.00">+ interpolationFactor</text>
<text text-anchor="start" x="370" y="-169.5" font-family="SegoeUI" font-size="10.00">+ IF</text>
<text text-anchor="start" x="370" y="-158.5" font-family="SegoeUI" font-size="10.00">+ CompIF</text>
<text text-anchor="start" x="370" y="-147.5" font-family="SegoeUI" font-size="10.00">+ PredictedPosition</text>
<text text-anchor="start" x="370" y="-136.5" font-family="SegoeUI" font-size="10.00">+ Position</text>
<text text-anchor="start" x="370" y="-125.5" font-family="SegoeUI" font-size="10.00">&#45; position</text>
<polyline fill="none" stroke="black" points="362,-118.5 488,-118.5 "/>
<text text-anchor="start" x="370" y="-106.5" font-family="SegoeUI" font-size="10.00">+ UpdateState()</text>
</a>
</g>
</g>
<!-- Node0&#45;&gt;Node4 -->
<g id="edge4" class="edge"><title>Node0&#45;&gt;Node4</title>
<path fill="none" stroke="midnightblue" d="M324.01,-351.768C334.533,-342.708 344.678,-332.664 353,-322 376.051,-292.463 393.572,-254.373 405.557,-222.768"/>
<polygon fill="none" stroke="midnightblue" points="321.746,-349.099 316.301,-358.187 326.225,-354.478 321.746,-349.099"/>
</g>
<!-- Node1 -->
<g id="node2" class="node"><title>Node1</title>
<g id="a_node2"><a xlink:title=" ">
<polygon fill="white" stroke="#bfbfbf" points="214.5,-474.5 214.5,-531.5 301.5,-531.5 301.5,-474.5 214.5,-474.5"/>
<text text-anchor="middle" x="258" y="-519.5" font-family="SegoeUI" font-size="10.00">ScriptableObject</text>
<polyline fill="none" stroke="#bfbfbf" points="214.5,-512.5 301.5,-512.5 "/>
<text text-anchor="middle" x="258" y="-500.5" font-family="SegoeUI" font-size="10.00"> </text>
<polyline fill="none" stroke="#bfbfbf" points="214.5,-493.5 301.5,-493.5 "/>
<text text-anchor="middle" x="258" y="-481.5" font-family="SegoeUI" font-size="10.00"> </text>
</a>
</g>
</g>
<!-- Node1&#45;&gt;Node0 -->
<g id="edge1" class="edge"><title>Node1&#45;&gt;Node0</title>
<path fill="none" stroke="midnightblue" d="M258,-464.156C258,-455.473 258,-446.232 258,-437.52"/>
<polygon fill="none" stroke="midnightblue" points="254.5,-464.398 258,-474.398 261.5,-464.398 254.5,-464.398"/>
</g>
</g>
</svg>
        <g id="navigator" transform="translate(0 0)" fill="#404254">
                <rect fill="#f2f5e9" fill-opacity="0.5" stroke="#606060" stroke-width=".5" x="0" y="0" width="60" height="60"/>
                <use id="zoomplus" xlink:href="#zoomPlus" x="17" y="9" onmousedown="handleZoom(evt,'in')"/>
                <use id="zoomminus" xlink:href="#zoomMin" x="42" y="9" onmousedown="handleZoom(evt,'out')"/>
                <use id="reset" xlink:href="#resetDef" x="30" y="36" onmousedown="handleReset()"/>
                <g id="arrowUp" xlink:href="#dirArrow" transform="translate(30 24)" onmousedown="handlePan(0,-1)">
                  <use xlink:href="#rim" fill="#404040">
                        <set attributeName="fill" to="#808080" begin="arrowUp.mouseover" end="arrowUp.mouseout"/>
                  </use>
                  <path fill="none" stroke="white" stroke-width="1.5" d="M0,-3.0v7 M-2.5,-0.5L0,-3.0L2.5,-0.5"/>
                </g>
                <g id="arrowRight" xlink:href="#dirArrow" transform="rotate(90) translate(36 -43)" onmousedown="handlePan(1,0)">
                  <use xlink:href="#rim" fill="#404040">
                        <set attributeName="fill" to="#808080" begin="arrowRight.mouseover" end="arrowRight.mouseout"/>
                  </use>
                  <path fill="none" stroke="white" stroke-width="1.5" d="M0,-3.0v7 M-2.5,-0.5L0,-3.0L2.5,-0.5"/>
                </g>
                <g id="arrowDown" xlink:href="#dirArrow" transform="rotate(180) translate(-30 -48)" onmousedown="handlePan(0,1)">
                  <use xlink:href="#rim" fill="#404040">
                        <set attributeName="fill" to="#808080" begin="arrowDown.mouseover" end="arrowDown.mouseout"/>
                  </use>
                  <path fill="none" stroke="white" stroke-width="1.5" d="M0,-3.0v7 M-2.5,-0.5L0,-3.0L2.5,-0.5"/>
                </g>
                <g id="arrowLeft" xlink:href="#dirArrow" transform="rotate(270) translate(-36 17)" onmousedown="handlePan(-1,0)">
                  <use xlink:href="#rim" fill="#404040">
                        <set attributeName="fill" to="#808080" begin="arrowLeft.mouseover" end="arrowLeft.mouseout"/>
                  </use>
                  <path fill="none" stroke="white" stroke-width="1.5" d="M0,-3.0v7 M-2.5,-0.5L0,-3.0L2.5,-0.5"/>
                </g>
        </g>
        <svg viewBox="0 0 15 15" width="100%" height="30px" preserveAspectRatio="xMaxYMin meet">
         <g id="arrow_out" transform="scale(0.3 0.3)">
          <a xlink:href="class_juniper_1_1_mathematics_1_1_abstract_motion_filter__inherit__graph_org.svg" target="_base">
           <rect id="button" ry="5" rx="5" y="6" x="6" height="38" width="38"
                fill="#f2f5e9" fill-opacity="0.5" stroke="#606060" stroke-width="1.0"/>
           <path id="arrow"
             d="M 11.500037,31.436501 C 11.940474,20.09759 22.043105,11.32322 32.158766,21.979434 L 37.068811,17.246167 C 37.068811,17.246167 37.088388,32 37.088388,32 L 22.160133,31.978069 C 22.160133,31.978069 26.997745,27.140456 26.997745,27.140456 C 18.528582,18.264221 13.291696,25.230495 11.500037,31.436501 z"
             style="fill:#404040;"/>
          </a>
         </g>
        </svg>
</svg>
