<?xml version="1.0" encoding="UTF-8" standalone="no"?>
<!DOCTYPE svg PUBLIC "-//W3C//DTD SVG 1.1//EN"
 "http://www.w3.org/Graphics/SVG/1.1/DTD/svg11.dtd">
<!-- Generated by graphviz version 2.38.0 (20140413.2041)
 -->
<!-- Title: Juniper.World.GIS.Google.StreetView.MetadataResponse Pages: 1 -->
<!--zoomable 369 -->
<svg id="main" version="1.1" xmlns="http://www.w3.org/2000/svg" xmlns:xlink="http://www.w3.org/1999/xlink" xml:space="preserve" onload="init(evt)">
<style type="text/css"><![CDATA[
.edge:hover path { stroke: red; }
.edge:hover polygon { stroke: red; fill: red; }
]]></style>
<script type="text/javascript"><![CDATA[
var edges = document.getElementsByTagName('g');
if (edges && edges.length) {
  for (var i=0;i<edges.length;i++) {
    if (edges[i].id.substr(0,4)=='edge') {
      edges[i].setAttribute('class','edge');
    }
  }
}
]]></script>
        <defs>
                <circle id="rim" cx="0" cy="0" r="7"/>
                <circle id="rim2" cx="0" cy="0" r="3.5"/>
                <g id="zoomPlus">
                        <use xlink:href="#rim" fill="#404040">
                                <set attributeName="fill" to="#808080" begin="zoomplus.mouseover" end="zoomplus.mouseout"/>
                        </use>
                        <path d="M-4,0h8M0,-4v8" fill="none" stroke="white" stroke-width="1.5" pointer-events="none"/>
                </g>
                <g id="zoomMin">
                        <use xlink:href="#rim" fill="#404040">
                                <set attributeName="fill" to="#808080" begin="zoomminus.mouseover" end="zoomminus.mouseout"/>
                        </use>
                        <path d="M-4,0h8" fill="none" stroke="white" stroke-width="1.5" pointer-events="none"/>
                </g>
                <g id="dirArrow">
                        <path fill="none" stroke="white" stroke-width="1.5" d="M0,-3.0v7 M-2.5,-0.5L0,-3.0L2.5,-0.5"/>
                </g>
               <g id="resetDef">
                       <use xlink:href="#rim2" fill="#404040">
                               <set attributeName="fill" to="#808080" begin="reset.mouseover" end="reset.mouseout"/>
                       </use>
               </g>
        </defs>

<script type="text/javascript">
var viewWidth = 514;
var viewHeight = 369;
var sectionId = 'dynsection-1';
</script>
<script xlink:href="../../svgpan.js"/>
<svg id="graph" class="graph">
<g id="viewport">
<title>Juniper.World.GIS.Google.StreetView.MetadataResponse</title>
<polygon fill="white" stroke="none" points="-4,4 -4,-365 509.5,-365 509.5,4 -4,4"/>
<!-- Node4 -->
<g id="node1" class="node"><title>Node4</title>
<g id="a_node1"><a xlink:title=" ">
<polygon fill="#bfbfbf" stroke="black" points="186.5,-0.5 186.5,-255.5 334.5,-255.5 334.5,-0.5 186.5,-0.5"/>
<text text-anchor="start" x="194.5" y="-243.5" font-family="SegoeUI" font-size="10.00">Juniper.World.GIS.Google.</text>
<text text-anchor="middle" x="260.5" y="-232.5" font-family="SegoeUI" font-size="10.00">StreetView.MetadataResponse</text>
<polyline fill="none" stroke="black" points="186.5,-225.5 334.5,-225.5 "/>
<text text-anchor="start" x="194.5" y="-213.5" font-family="SegoeUI" font-size="10.00">+ Status</text>
<text text-anchor="start" x="194.5" y="-202.5" font-family="SegoeUI" font-size="10.00">+ Copyright</text>
<text text-anchor="start" x="194.5" y="-191.5" font-family="SegoeUI" font-size="10.00">+ Date</text>
<text text-anchor="start" x="194.5" y="-180.5" font-family="SegoeUI" font-size="10.00">+ Pano_ID</text>
<text text-anchor="start" x="194.5" y="-169.5" font-family="SegoeUI" font-size="10.00">+ Location</text>
<polyline fill="none" stroke="black" points="186.5,-162.5 334.5,-162.5 "/>
<text text-anchor="start" x="194.5" y="-150.5" font-family="SegoeUI" font-size="10.00">+ GetObjectData()</text>
<text text-anchor="start" x="194.5" y="-139.5" font-family="SegoeUI" font-size="10.00">+ CompareTo()</text>
<text text-anchor="start" x="194.5" y="-128.5" font-family="SegoeUI" font-size="10.00">+ Equals()</text>
<text text-anchor="start" x="194.5" y="-117.5" font-family="SegoeUI" font-size="10.00">+ Equals()</text>
<text text-anchor="start" x="194.5" y="-106.5" font-family="SegoeUI" font-size="10.00">+ GetHashCode()</text>
<text text-anchor="start" x="194.5" y="-95.5" font-family="SegoeUI" font-size="10.00">+ IsPano()</text>
<text text-anchor="start" x="194.5" y="-84.5" font-family="SegoeUI" font-size="10.00">+ operator==()</text>
<text text-anchor="start" x="194.5" y="-73.5" font-family="SegoeUI" font-size="10.00">+ operator !=()</text>
<text text-anchor="start" x="194.5" y="-62.5" font-family="SegoeUI" font-size="10.00">+ operator&lt;()</text>
<text text-anchor="start" x="194.5" y="-51.5" font-family="SegoeUI" font-size="10.00">+ operator&lt;=()</text>
<text text-anchor="start" x="194.5" y="-40.5" font-family="SegoeUI" font-size="10.00">+ operator &gt;()</text>
<text text-anchor="start" x="194.5" y="-29.5" font-family="SegoeUI" font-size="10.00">+ operator &gt;=()</text>
<text text-anchor="start" x="194.5" y="-18.5" font-family="SegoeUI" font-size="10.00"># MetadataResponse()</text>
<text text-anchor="start" x="194.5" y="-7.5" font-family="SegoeUI" font-size="10.00"># MetadataResponse()</text>
</a>
</g>
</g>
<!-- Node5 -->
<g id="node2" class="node"><title>Node5</title>
<g id="a_node2"><a xlink:title=" ">
<polygon fill="white" stroke="#bfbfbf" points="0,-303.5 0,-360.5 69,-360.5 69,-303.5 0,-303.5"/>
<text text-anchor="middle" x="34.5" y="-348.5" font-family="SegoeUI" font-size="10.00">ISerializable</text>
<polyline fill="none" stroke="#bfbfbf" points="0,-341.5 69,-341.5 "/>
<text text-anchor="middle" x="34.5" y="-329.5" font-family="SegoeUI" font-size="10.00"> </text>
<polyline fill="none" stroke="#bfbfbf" points="0,-322.5 69,-322.5 "/>
<text text-anchor="middle" x="34.5" y="-310.5" font-family="SegoeUI" font-size="10.00"> </text>
</a>
</g>
</g>
<!-- Node5&#45;&gt;Node4 -->
<g id="edge1" class="edge"><title>Node5&#45;&gt;Node4</title>
<path fill="none" stroke="midnightblue" d="M73.0179,-296.573C103.97,-268.907 148.366,-229.226 186.186,-195.422"/>
<polygon fill="none" stroke="midnightblue" points="70.5739,-294.063 65.4505,-303.336 75.2388,-299.282 70.5739,-294.063"/>
</g>
<!-- Node6 -->
<g id="node3" class="node"><title>Node6</title>
<g id="a_node3"><a xlink:title=" ">
<polygon fill="white" stroke="#bfbfbf" points="87.5,-303.5 87.5,-360.5 249.5,-360.5 249.5,-303.5 87.5,-303.5"/>
<text text-anchor="middle" x="168.5" y="-348.5" font-family="SegoeUI" font-size="10.00">IEquatable&lt; MetadataResponse &gt;</text>
<polyline fill="none" stroke="#bfbfbf" points="87.5,-341.5 249.5,-341.5 "/>
<text text-anchor="middle" x="168.5" y="-329.5" font-family="SegoeUI" font-size="10.00"> </text>
<polyline fill="none" stroke="#bfbfbf" points="87.5,-322.5 249.5,-322.5 "/>
<text text-anchor="middle" x="168.5" y="-310.5" font-family="SegoeUI" font-size="10.00"> </text>
</a>
</g>
</g>
<!-- Node6&#45;&gt;Node4 -->
<g id="edge2" class="edge"><title>Node6&#45;&gt;Node4</title>
<path fill="none" stroke="midnightblue" d="M185.383,-293.93C190.513,-282.667 196.463,-269.603 202.725,-255.853"/>
<polygon fill="none" stroke="midnightblue" points="182.059,-292.785 181.099,-303.336 188.429,-295.686 182.059,-292.785"/>
</g>
<!-- Node7 -->
<g id="node4" class="node"><title>Node7</title>
<g id="a_node4"><a xlink:title=" ">
<polygon fill="white" stroke="#bfbfbf" points="267.5,-303.5 267.5,-360.5 439.5,-360.5 439.5,-303.5 267.5,-303.5"/>
<text text-anchor="middle" x="353.5" y="-348.5" font-family="SegoeUI" font-size="10.00">IComparable&lt; MetadataResponse &gt;</text>
<polyline fill="none" stroke="#bfbfbf" points="267.5,-341.5 439.5,-341.5 "/>
<text text-anchor="middle" x="353.5" y="-329.5" font-family="SegoeUI" font-size="10.00"> </text>
<polyline fill="none" stroke="#bfbfbf" points="267.5,-322.5 439.5,-322.5 "/>
<text text-anchor="middle" x="353.5" y="-310.5" font-family="SegoeUI" font-size="10.00"> </text>
</a>
</g>
</g>
<!-- Node7&#45;&gt;Node4 -->
<g id="edge3" class="edge"><title>Node7&#45;&gt;Node4</title>
<path fill="none" stroke="midnightblue" d="M336.433,-293.93C331.248,-282.667 325.233,-269.603 318.903,-255.853"/>
<polygon fill="none" stroke="midnightblue" points="333.402,-295.716 340.764,-303.336 339.761,-292.789 333.402,-295.716"/>
</g>
<!-- Node8 -->
<g id="node5" class="node"><title>Node8</title>
<g id="a_node5"><a xlink:title=" ">
<polygon fill="white" stroke="#bfbfbf" points="458,-303.5 458,-360.5 497,-360.5 497,-303.5 458,-303.5"/>
<text text-anchor="middle" x="477.5" y="-348.5" font-family="SegoeUI" font-size="10.00">static</text>
<polyline fill="none" stroke="#bfbfbf" points="458,-341.5 497,-341.5 "/>
<text text-anchor="middle" x="477.5" y="-329.5" font-family="SegoeUI" font-size="10.00"> </text>
<polyline fill="none" stroke="#bfbfbf" points="458,-322.5 497,-322.5 "/>
<text text-anchor="middle" x="477.5" y="-310.5" font-family="SegoeUI" font-size="10.00"> </text>
</a>
</g>
</g>
<!-- Node8&#45;&gt;Node4 -->
<g id="edge4" class="edge"><title>Node8&#45;&gt;Node4</title>
<path fill="none" stroke="#404040" d="M457.898,-311.966C454.766,-308.955 451.551,-305.885 448.5,-303 414.528,-270.885 376.757,-235.807 344.035,-205.614"/>
<polygon fill="none" stroke="#404040" points="343.769,-205.368 336.647,-204.242 334.947,-197.234 342.07,-198.36 343.769,-205.368"/>
<text text-anchor="middle" x="467" y="-277" font-family="SegoeUI" font-size="10.00"> &#45;PANO_PATTERN</text>
</g>
</g>
</svg>
        <g id="navigator" transform="translate(0 0)" fill="#404254">
                <rect fill="#f2f5e9" fill-opacity="0.5" stroke="#606060" stroke-width=".5" x="0" y="0" width="60" height="60"/>
                <use id="zoomplus" xlink:href="#zoomPlus" x="17" y="9" onmousedown="handleZoom(evt,'in')"/>
                <use id="zoomminus" xlink:href="#zoomMin" x="42" y="9" onmousedown="handleZoom(evt,'out')"/>
                <use id="reset" xlink:href="#resetDef" x="30" y="36" onmousedown="handleReset()"/>
                <g id="arrowUp" xlink:href="#dirArrow" transform="translate(30 24)" onmousedown="handlePan(0,-1)">
                  <use xlink:href="#rim" fill="#404040">
                        <set attributeName="fill" to="#808080" begin="arrowUp.mouseover" end="arrowUp.mouseout"/>
                  </use>
                  <path fill="none" stroke="white" stroke-width="1.5" d="M0,-3.0v7 M-2.5,-0.5L0,-3.0L2.5,-0.5"/>
                </g>
                <g id="arrowRight" xlink:href="#dirArrow" transform="rotate(90) translate(36 -43)" onmousedown="handlePan(1,0)">
                  <use xlink:href="#rim" fill="#404040">
                        <set attributeName="fill" to="#808080" begin="arrowRight.mouseover" end="arrowRight.mouseout"/>
                  </use>
                  <path fill="none" stroke="white" stroke-width="1.5" d="M0,-3.0v7 M-2.5,-0.5L0,-3.0L2.5,-0.5"/>
                </g>
                <g id="arrowDown" xlink:href="#dirArrow" transform="rotate(180) translate(-30 -48)" onmousedown="handlePan(0,1)">
                  <use xlink:href="#rim" fill="#404040">
                        <set attributeName="fill" to="#808080" begin="arrowDown.mouseover" end="arrowDown.mouseout"/>
                  </use>
                  <path fill="none" stroke="white" stroke-width="1.5" d="M0,-3.0v7 M-2.5,-0.5L0,-3.0L2.5,-0.5"/>
                </g>
                <g id="arrowLeft" xlink:href="#dirArrow" transform="rotate(270) translate(-36 17)" onmousedown="handlePan(-1,0)">
                  <use xlink:href="#rim" fill="#404040">
                        <set attributeName="fill" to="#808080" begin="arrowLeft.mouseover" end="arrowLeft.mouseout"/>
                  </use>
                  <path fill="none" stroke="white" stroke-width="1.5" d="M0,-3.0v7 M-2.5,-0.5L0,-3.0L2.5,-0.5"/>
                </g>
        </g>
        <svg viewBox="0 0 15 15" width="100%" height="30px" preserveAspectRatio="xMaxYMin meet">
         <g id="arrow_out" transform="scale(0.3 0.3)">
          <a xlink:href="class_juniper_1_1_world_1_1_g_i_s_1_1_google_1_1_street_view_1_1_metadata_response__coll__graph_org.svg" target="_base">
           <rect id="button" ry="5" rx="5" y="6" x="6" height="38" width="38"
                fill="#f2f5e9" fill-opacity="0.5" stroke="#606060" stroke-width="1.0"/>
           <path id="arrow"
             d="M 11.500037,31.436501 C 11.940474,20.09759 22.043105,11.32322 32.158766,21.979434 L 37.068811,17.246167 C 37.068811,17.246167 37.088388,32 37.088388,32 L 22.160133,31.978069 C 22.160133,31.978069 26.997745,27.140456 26.997745,27.140456 C 18.528582,18.264221 13.291696,25.230495 11.500037,31.436501 z"
             style="fill:#404040;"/>
          </a>
         </g>
        </svg>
</svg>
