<?xml version="1.0" encoding="UTF-8" standalone="no"?>
<!DOCTYPE svg PUBLIC "-//W3C//DTD SVG 1.1//EN"
 "http://www.w3.org/Graphics/SVG/1.1/DTD/svg11.dtd">
<!-- Generated by graphviz version 2.38.0 (20140413.2041)
 -->
<!-- Title: Juniper.World.Climate.FakeWeatherReport Pages: 1 -->
<svg width="142pt" height="435pt"
 viewBox="0.00 0.00 142.00 435.00" xmlns="http://www.w3.org/2000/svg" xmlns:xlink="http://www.w3.org/1999/xlink">
<g id="graph0" class="graph" transform="scale(1 1) rotate(0) translate(4 431)">
<title>Juniper.World.Climate.FakeWeatherReport</title>
<polygon fill="white" stroke="none" points="-4,4 -4,-431 138,-431 138,4 -4,4"/>
<!-- Node0 -->
<g id="node1" class="node"><title>Node0</title>
<g id="a_node1"><a xlink:title="An API&#45;compatible, editable object for making static weather reports.">
<polygon fill="#bfbfbf" stroke="black" points="0,-0.5 0,-178.5 134,-178.5 134,-0.5 0,-0.5"/>
<text text-anchor="start" x="8" y="-166.5" font-family="SegoeUI" font-size="10.00">Juniper.World.Climate.Fake</text>
<text text-anchor="middle" x="67" y="-155.5" font-family="SegoeUI" font-size="10.00">WeatherReport</text>
<polyline fill="none" stroke="black" points="0,-148.5 134,-148.5 "/>
<text text-anchor="start" x="8" y="-136.5" font-family="SegoeUI" font-size="10.00">+ reportTime</text>
<text text-anchor="start" x="8" y="-125.5" font-family="SegoeUI" font-size="10.00">+ location</text>
<text text-anchor="start" x="8" y="-114.5" font-family="SegoeUI" font-size="10.00">+ visibility</text>
<text text-anchor="start" x="8" y="-103.5" font-family="SegoeUI" font-size="10.00">+ cloudCover</text>
<text text-anchor="start" x="8" y="-92.5" font-family="SegoeUI" font-size="10.00">+ windDirection</text>
<text text-anchor="start" x="8" y="-81.5" font-family="SegoeUI" font-size="10.00">+ windSpeed</text>
<text text-anchor="start" x="8" y="-70.5" font-family="SegoeUI" font-size="10.00">+ temperature</text>
<text text-anchor="start" x="8" y="-59.5" font-family="SegoeUI" font-size="10.00">+ humidity</text>
<text text-anchor="start" x="8" y="-48.5" font-family="SegoeUI" font-size="10.00">+ atmosphericPressure</text>
<text text-anchor="start" x="8" y="-37.5" font-family="SegoeUI" font-size="10.00">+ ReportTime</text>
<text text-anchor="start" x="8" y="-26.5" font-family="SegoeUI" font-size="10.00">and 14 more...</text>
<polyline fill="none" stroke="black" points="0,-19.5 134,-19.5 "/>
<text text-anchor="middle" x="67" y="-7.5" font-family="SegoeUI" font-size="10.00"> </text>
</a>
</g>
</g>
<!-- Node1 -->
<g id="node2" class="node"><title>Node1</title>
<g id="a_node2"><a xlink:href="../../de/d3a/interface_juniper_1_1_climate_1_1_i_weather_report.html" target="_top" xlink:title=" ">
<polygon fill="white" stroke="black" points="9,-215.5 9,-426.5 125,-426.5 125,-215.5 9,-215.5"/>
<text text-anchor="middle" x="67" y="-414.5" font-family="SegoeUI" font-size="10.00">IWeatherReport</text>
<polyline fill="none" stroke="black" points="9,-407.5 125,-407.5 "/>
<text text-anchor="start" x="17" y="-395.5" font-family="SegoeUI" font-size="10.00">+ ReportTime</text>
<text text-anchor="start" x="17" y="-384.5" font-family="SegoeUI" font-size="10.00">+ City</text>
<text text-anchor="start" x="17" y="-373.5" font-family="SegoeUI" font-size="10.00">+ Country</text>
<text text-anchor="start" x="17" y="-362.5" font-family="SegoeUI" font-size="10.00">+ Location</text>
<text text-anchor="start" x="17" y="-351.5" font-family="SegoeUI" font-size="10.00">+ AtmosphericVisibility</text>
<text text-anchor="start" x="17" y="-340.5" font-family="SegoeUI" font-size="10.00">+ SunriseTime</text>
<text text-anchor="start" x="17" y="-329.5" font-family="SegoeUI" font-size="10.00">+ SunsetTime</text>
<text text-anchor="start" x="17" y="-318.5" font-family="SegoeUI" font-size="10.00">+ CloudCover</text>
<text text-anchor="start" x="17" y="-307.5" font-family="SegoeUI" font-size="10.00">+ WindDirection</text>
<text text-anchor="start" x="17" y="-296.5" font-family="SegoeUI" font-size="10.00">+ WindSpeed</text>
<text text-anchor="start" x="17" y="-285.5" font-family="SegoeUI" font-size="10.00">+ Conditions</text>
<text text-anchor="start" x="17" y="-274.5" font-family="SegoeUI" font-size="10.00">+ Temperature</text>
<text text-anchor="start" x="17" y="-263.5" font-family="SegoeUI" font-size="10.00">+ Humidity</text>
<text text-anchor="start" x="17" y="-252.5" font-family="SegoeUI" font-size="10.00">+ AtmosphericPressure</text>
<text text-anchor="start" x="17" y="-241.5" font-family="SegoeUI" font-size="10.00">+ ErrorMessage</text>
<polyline fill="none" stroke="black" points="9,-234.5 125,-234.5 "/>
<text text-anchor="middle" x="67" y="-222.5" font-family="SegoeUI" font-size="10.00"> </text>
</a>
</g>
</g>
<!-- Node1&#45;&gt;Node0 -->
<g id="edge1" class="edge"><title>Node1&#45;&gt;Node0</title>
<path fill="none" stroke="midnightblue" d="M67,-205.215C67,-196.251 67,-187.288 67,-178.544"/>
<polygon fill="none" stroke="midnightblue" points="63.5001,-205.324 67,-215.324 70.5001,-205.324 63.5001,-205.324"/>
</g>
</g>
</svg>
