<?xml version="1.0" encoding="UTF-8" standalone="no"?>
<!DOCTYPE svg PUBLIC "-//W3C//DTD SVG 1.1//EN"
 "http://www.w3.org/Graphics/SVG/1.1/DTD/svg11.dtd">
<!-- Generated by graphviz version 2.38.0 (20140413.2041)
 -->
<!-- Title: Juniper.Unity.Display.DisplayManager Pages: 1 -->
<svg width="178pt" height="937pt"
 viewBox="0.00 0.00 177.50 937.00" xmlns="http://www.w3.org/2000/svg" xmlns:xlink="http://www.w3.org/1999/xlink">
<g id="graph0" class="graph" transform="scale(1 1) rotate(0) translate(4 933)">
<title>Juniper.Unity.Display.DisplayManager</title>
<polygon fill="white" stroke="none" points="-4,4 -4,-933 173.5,-933 173.5,4 -4,4"/>
<!-- Node0 -->
<g id="node1" class="node"><title>Node0</title>
<g id="a_node1"><a xlink:title="Manages the camera FOV in the editor so that it matches the target system, or on desktop makes sure t...">
<polygon fill="#bfbfbf" stroke="black" points="19.5,-0.5 19.5,-68.5 156.5,-68.5 156.5,-0.5 19.5,-0.5"/>
<text text-anchor="start" x="27.5" y="-56.5" font-family="SegoeUI" font-size="10.00">Juniper.Unity.Display.Display</text>
<text text-anchor="middle" x="88" y="-45.5" font-family="SegoeUI" font-size="10.00">Manager</text>
<polyline fill="none" stroke="black" points="19.5,-38.5 156.5,-38.5 "/>
<text text-anchor="middle" x="88" y="-26.5" font-family="SegoeUI" font-size="10.00"> </text>
<polyline fill="none" stroke="black" points="19.5,-19.5 156.5,-19.5 "/>
<text text-anchor="middle" x="88" y="-7.5" font-family="SegoeUI" font-size="10.00"> </text>
</a>
</g>
</g>
<!-- Node1 -->
<g id="node2" class="node"><title>Node1</title>
<g id="a_node2"><a xlink:href="../../da/df4/class_juniper_1_1_unity_1_1_display_1_1_a_r_kit_display_manager.html" target="_top" xlink:title=" ">
<polygon fill="white" stroke="black" points="34.5,-105.5 34.5,-173.5 141.5,-173.5 141.5,-105.5 34.5,-105.5"/>
<text text-anchor="middle" x="88" y="-161.5" font-family="SegoeUI" font-size="10.00">ARKitDisplayManager</text>
<polyline fill="none" stroke="black" points="34.5,-154.5 141.5,-154.5 "/>
<text text-anchor="middle" x="88" y="-142.5" font-family="SegoeUI" font-size="10.00"> </text>
<polyline fill="none" stroke="black" points="34.5,-135.5 141.5,-135.5 "/>
<text text-anchor="start" x="42.5" y="-123.5" font-family="SegoeUI" font-size="10.00">+ Install()</text>
<text text-anchor="start" x="42.5" y="-112.5" font-family="SegoeUI" font-size="10.00">+ Uninstall()</text>
</a>
</g>
</g>
<!-- Node1&#45;&gt;Node0 -->
<g id="edge1" class="edge"><title>Node1&#45;&gt;Node0</title>
<path fill="none" stroke="midnightblue" d="M88,-95.1362C88,-86.256 88,-77.0447 88,-68.5947"/>
<polygon fill="none" stroke="midnightblue" points="84.5001,-95.3432 88,-105.343 91.5001,-95.3432 84.5001,-95.3432"/>
</g>
<!-- Node2 -->
<g id="node3" class="node"><title>Node2</title>
<g id="a_node3"><a xlink:href="../../de/dad/class_juniper_1_1_unity_1_1_display_1_1_abstract_passthrough_display_manager.html" target="_top" xlink:title=" ">
<polygon fill="white" stroke="black" points="21,-210.5 21,-289.5 155,-289.5 155,-210.5 21,-210.5"/>
<text text-anchor="start" x="29" y="-277.5" font-family="SegoeUI" font-size="10.00">AbstractPassthroughDisplay</text>
<text text-anchor="middle" x="88" y="-266.5" font-family="SegoeUI" font-size="10.00">Manager</text>
<polyline fill="none" stroke="black" points="21,-259.5 155,-259.5 "/>
<text text-anchor="start" x="29" y="-247.5" font-family="SegoeUI" font-size="10.00">+ ARBackgroundMaterial</text>
<text text-anchor="start" x="29" y="-236.5" font-family="SegoeUI" font-size="10.00">+ enablePointCloud</text>
<polyline fill="none" stroke="black" points="21,-229.5 155,-229.5 "/>
<text text-anchor="start" x="29" y="-217.5" font-family="SegoeUI" font-size="10.00"># OnARModeChange()</text>
</a>
</g>
</g>
<!-- Node2&#45;&gt;Node1 -->
<g id="edge2" class="edge"><title>Node2&#45;&gt;Node1</title>
<path fill="none" stroke="midnightblue" d="M88,-200.349C88,-191.282 88,-182.005 88,-173.544"/>
<polygon fill="none" stroke="midnightblue" points="84.5001,-200.441 88,-210.441 91.5001,-200.441 84.5001,-200.441"/>
</g>
<!-- Node3 -->
<g id="node4" class="node"><title>Node3</title>
<g id="a_node4"><a xlink:href="../../da/da5/class_juniper_1_1_unity_1_1_display_1_1_abstract_display_manager.html" target="_top" xlink:title=" ">
<polygon fill="white" stroke="black" points="11,-326.5 11,-812.5 165,-812.5 165,-326.5 11,-326.5"/>
<text text-anchor="middle" x="88" y="-800.5" font-family="SegoeUI" font-size="10.00">AbstractDisplayManager</text>
<polyline fill="none" stroke="black" points="11,-793.5 165,-793.5 "/>
<text text-anchor="start" x="19" y="-781.5" font-family="SegoeUI" font-size="10.00">+ onDisplayTypeChange</text>
<text text-anchor="start" x="19" y="-770.5" font-family="SegoeUI" font-size="10.00">+ onARModeChange</text>
<text text-anchor="start" x="19" y="-759.5" font-family="SegoeUI" font-size="10.00">+ MainCamera</text>
<text text-anchor="start" x="19" y="-748.5" font-family="SegoeUI" font-size="10.00">+ EventCamera</text>
<text text-anchor="start" x="19" y="-737.5" font-family="SegoeUI" font-size="10.00">+ ClearFlags</text>
<text text-anchor="start" x="19" y="-726.5" font-family="SegoeUI" font-size="10.00">+ BackgroundColor</text>
<text text-anchor="start" x="19" y="-715.5" font-family="SegoeUI" font-size="10.00">+ CullingMask</text>
<text text-anchor="start" x="19" y="-704.5" font-family="SegoeUI" font-size="10.00">+ Sys</text>
<text text-anchor="start" x="19" y="-693.5" font-family="SegoeUI" font-size="10.00">+ CurrentPlatform</text>
<text text-anchor="start" x="19" y="-682.5" font-family="SegoeUI" font-size="10.00">+ System</text>
<text text-anchor="start" x="19" y="-671.5" font-family="SegoeUI" font-size="10.00">+ DisplayType</text>
<text text-anchor="start" x="19" y="-660.5" font-family="SegoeUI" font-size="10.00">+ SupportedDisplayType</text>
<text text-anchor="start" x="19" y="-649.5" font-family="SegoeUI" font-size="10.00">and 6 more...</text>
<text text-anchor="start" x="19" y="-638.5" font-family="SegoeUI" font-size="10.00"># cameraCtrl</text>
<text text-anchor="start" x="19" y="-627.5" font-family="SegoeUI" font-size="10.00">&#45; jp</text>
<text text-anchor="start" x="19" y="-616.5" font-family="SegoeUI" font-size="10.00">&#45; lastSystem</text>
<text text-anchor="start" x="19" y="-605.5" font-family="SegoeUI" font-size="10.00">&#45; lastDisplayType</text>
<text text-anchor="start" x="19" y="-594.5" font-family="SegoeUI" font-size="10.00">&#45; resumeMode</text>
<text text-anchor="start" x="19" y="-583.5" font-family="SegoeUI" font-size="10.00">&#45; lastARMode</text>
<text text-anchor="start" x="19" y="-572.5" font-family="SegoeUI" font-size="10.00">&#45; lastOption</text>
<text text-anchor="start" x="19" y="-561.5" font-family="SegoeUI" font-size="10.00">&#45; cam</text>
<text text-anchor="start" x="19" y="-550.5" font-family="SegoeUI" font-size="10.00">&#45; eventCam</text>
<polyline fill="none" stroke="black" points="11,-543.5 165,-543.5 "/>
<text text-anchor="start" x="19" y="-531.5" font-family="SegoeUI" font-size="10.00">+ Awake()</text>
<text text-anchor="start" x="19" y="-520.5" font-family="SegoeUI" font-size="10.00">+ Reinstall()</text>
<text text-anchor="start" x="19" y="-509.5" font-family="SegoeUI" font-size="10.00">+ Install()</text>
<text text-anchor="start" x="19" y="-498.5" font-family="SegoeUI" font-size="10.00">+ Uninstall()</text>
<text text-anchor="start" x="19" y="-487.5" font-family="SegoeUI" font-size="10.00">+ StartXRDisplay()</text>
<text text-anchor="start" x="19" y="-476.5" font-family="SegoeUI" font-size="10.00">+ StopXRDisplay()</text>
<text text-anchor="start" x="19" y="-465.5" font-family="SegoeUI" font-size="10.00">+ DisableDisplay()</text>
<text text-anchor="start" x="19" y="-454.5" font-family="SegoeUI" font-size="10.00">+ ResumeDisplay()</text>
<text text-anchor="start" x="19" y="-443.5" font-family="SegoeUI" font-size="10.00">+ StartAR()</text>
<text text-anchor="start" x="19" y="-432.5" font-family="SegoeUI" font-size="10.00">+ StopAR()</text>
<text text-anchor="start" x="19" y="-421.5" font-family="SegoeUI" font-size="10.00">+ Update()</text>
<text text-anchor="start" x="19" y="-410.5" font-family="SegoeUI" font-size="10.00">+ SetupMainCamera()</text>
<text text-anchor="start" x="19" y="-399.5" font-family="SegoeUI" font-size="10.00">+ MoveEventCameraToPointer()</text>
<text text-anchor="start" x="19" y="-388.5" font-family="SegoeUI" font-size="10.00"># OnDisplayTypeChange()</text>
<text text-anchor="start" x="19" y="-377.5" font-family="SegoeUI" font-size="10.00"># OnARModeChange()</text>
<text text-anchor="start" x="19" y="-366.5" font-family="SegoeUI" font-size="10.00">&#45; ChangeDisplayType()</text>
<text text-anchor="start" x="19" y="-355.5" font-family="SegoeUI" font-size="10.00">&#45; ChangeARMode()</text>
<text text-anchor="start" x="19" y="-344.5" font-family="SegoeUI" font-size="10.00">&#45; MakeCamera()</text>
<text text-anchor="start" x="19" y="-333.5" font-family="SegoeUI" font-size="10.00">&#45; ChangeXRDevice()</text>
</a>
</g>
</g>
<!-- Node3&#45;&gt;Node2 -->
<g id="edge3" class="edge"><title>Node3&#45;&gt;Node2</title>
<path fill="none" stroke="midnightblue" d="M88,-315.977C88,-306.365 88,-297.467 88,-289.535"/>
<polygon fill="none" stroke="midnightblue" points="84.5001,-316.243 88,-326.243 91.5001,-316.243 84.5001,-316.243"/>
</g>
<!-- Node4 -->
<g id="node5" class="node"><title>Node4</title>
<g id="a_node5"><a xlink:title=" ">
<polygon fill="white" stroke="#bfbfbf" points="0,-860.5 0,-917.5 82,-917.5 82,-860.5 0,-860.5"/>
<text text-anchor="middle" x="41" y="-905.5" font-family="SegoeUI" font-size="10.00">MonoBehaviour</text>
<polyline fill="none" stroke="#bfbfbf" points="0,-898.5 82,-898.5 "/>
<text text-anchor="middle" x="41" y="-886.5" font-family="SegoeUI" font-size="10.00"> </text>
<polyline fill="none" stroke="#bfbfbf" points="0,-879.5 82,-879.5 "/>
<text text-anchor="middle" x="41" y="-867.5" font-family="SegoeUI" font-size="10.00"> </text>
</a>
</g>
</g>
<!-- Node4&#45;&gt;Node3 -->
<g id="edge4" class="edge"><title>Node4&#45;&gt;Node3</title>
<path fill="none" stroke="midnightblue" d="M46.6029,-850.151C48.2121,-839.28 50.0958,-826.555 52.1564,-812.635"/>
<polygon fill="none" stroke="midnightblue" points="43.0909,-849.975 45.0887,-860.379 50.0154,-851 43.0909,-849.975"/>
</g>
<!-- Node5 -->
<g id="node6" class="node"><title>Node5</title>
<g id="a_node6"><a xlink:href="../../db/d28/interface_juniper_1_1_i_installable.html" target="_top" xlink:title="Defines an interface for objects that can be installed and have their installation progress tracked.">
<polygon fill="white" stroke="black" points="100.5,-849.5 100.5,-928.5 169.5,-928.5 169.5,-849.5 100.5,-849.5"/>
<text text-anchor="middle" x="135" y="-916.5" font-family="SegoeUI" font-size="10.00">IInstallable</text>
<polyline fill="none" stroke="black" points="100.5,-909.5 169.5,-909.5 "/>
<text text-anchor="middle" x="135" y="-897.5" font-family="SegoeUI" font-size="10.00"> </text>
<polyline fill="none" stroke="black" points="100.5,-890.5 169.5,-890.5 "/>
<text text-anchor="start" x="108.5" y="-878.5" font-family="SegoeUI" font-size="10.00">+ Install()</text>
<text text-anchor="start" x="108.5" y="-867.5" font-family="SegoeUI" font-size="10.00">+ Reinstall()</text>
<text text-anchor="start" x="108.5" y="-856.5" font-family="SegoeUI" font-size="10.00">+ Uninstall()</text>
</a>
</g>
</g>
<!-- Node5&#45;&gt;Node3 -->
<g id="edge5" class="edge"><title>Node5&#45;&gt;Node3</title>
<path fill="none" stroke="midnightblue" d="M127.813,-839.448C126.601,-831.264 125.276,-822.309 123.867,-812.794"/>
<polygon fill="none" stroke="midnightblue" points="124.357,-840.006 129.284,-849.386 131.282,-838.981 124.357,-840.006"/>
</g>
</g>
</svg>
