<?xml version="1.0" encoding="UTF-8" standalone="no"?>
<!DOCTYPE svg PUBLIC "-//W3C//DTD SVG 1.1//EN"
 "http://www.w3.org/Graphics/SVG/1.1/DTD/svg11.dtd">
<!-- Generated by graphviz version 2.38.0 (20140413.2041)
 -->
<!-- Title: Juniper.Unity.Display.DisplayManager Pages: 1 -->
<svg width="178pt" height="750pt"
 viewBox="0.00 0.00 177.50 750.00" xmlns="http://www.w3.org/2000/svg" xmlns:xlink="http://www.w3.org/1999/xlink">
<g id="graph0" class="graph" transform="scale(1 1) rotate(0) translate(4 746)">
<title>Juniper.Unity.Display.DisplayManager</title>
<polygon fill="white" stroke="none" points="-4,4 -4,-746 173.5,-746 173.5,4 -4,4"/>
<!-- Node0 -->
<g id="node1" class="node"><title>Node0</title>
<g id="a_node1"><a xlink:title="Manages the camera FOV in the editor so that it matches the target system, or on desktop makes sure t...">
<polygon fill="#bfbfbf" stroke="black" points="19.5,-0.5 19.5,-68.5 156.5,-68.5 156.5,-0.5 19.5,-0.5"/>
<text text-anchor="start" x="27.5" y="-56.5" font-family="SegoeUI" font-size="10.00">Juniper.Unity.Display.Display</text>
<text text-anchor="middle" x="88" y="-45.5" font-family="SegoeUI" font-size="10.00">Manager</text>
<polyline fill="none" stroke="black" points="19.5,-38.5 156.5,-38.5 "/>
<text text-anchor="middle" x="88" y="-26.5" font-family="SegoeUI" font-size="10.00"> </text>
<polyline fill="none" stroke="black" points="19.5,-19.5 156.5,-19.5 "/>
<text text-anchor="middle" x="88" y="-7.5" font-family="SegoeUI" font-size="10.00"> </text>
</a>
</g>
</g>
<!-- Node1 -->
<g id="node2" class="node"><title>Node1</title>
<g id="a_node2"><a xlink:href="../../d6/d5d/class_juniper_1_1_unity_1_1_display_1_1_a_r_core_display_manager.html" target="_top" xlink:title=" ">
<polygon fill="white" stroke="black" points="30,-105.5 30,-184.5 146,-184.5 146,-105.5 30,-105.5"/>
<text text-anchor="middle" x="88" y="-172.5" font-family="SegoeUI" font-size="10.00">ARCoreDisplayManager</text>
<polyline fill="none" stroke="black" points="30,-165.5 146,-165.5 "/>
<text text-anchor="start" x="38" y="-153.5" font-family="SegoeUI" font-size="10.00">&#45; isQuitting</text>
<polyline fill="none" stroke="black" points="30,-146.5 146,-146.5 "/>
<text text-anchor="start" x="38" y="-134.5" font-family="SegoeUI" font-size="10.00">+ Install()</text>
<text text-anchor="start" x="38" y="-123.5" font-family="SegoeUI" font-size="10.00">+ Uninstall()</text>
<text text-anchor="start" x="38" y="-112.5" font-family="SegoeUI" font-size="10.00">+ Update()</text>
</a>
</g>
</g>
<!-- Node1&#45;&gt;Node0 -->
<g id="edge1" class="edge"><title>Node1&#45;&gt;Node0</title>
<path fill="none" stroke="midnightblue" d="M88,-95.3492C88,-86.2824 88,-77.0048 88,-68.5439"/>
<polygon fill="none" stroke="midnightblue" points="84.5001,-95.4414 88,-105.441 91.5001,-95.4415 84.5001,-95.4414"/>
</g>
<!-- Node2 -->
<g id="node3" class="node"><title>Node2</title>
<g id="a_node3"><a xlink:href="../../de/dad/class_juniper_1_1_unity_1_1_display_1_1_abstract_passthrough_display_manager.html" target="_top" xlink:title=" ">
<polygon fill="white" stroke="black" points="21,-221.5 21,-300.5 155,-300.5 155,-221.5 21,-221.5"/>
<text text-anchor="start" x="29" y="-288.5" font-family="SegoeUI" font-size="10.00">AbstractPassthroughDisplay</text>
<text text-anchor="middle" x="88" y="-277.5" font-family="SegoeUI" font-size="10.00">Manager</text>
<polyline fill="none" stroke="black" points="21,-270.5 155,-270.5 "/>
<text text-anchor="start" x="29" y="-258.5" font-family="SegoeUI" font-size="10.00">+ ARBackgroundMaterial</text>
<text text-anchor="start" x="29" y="-247.5" font-family="SegoeUI" font-size="10.00">+ enablePointCloud</text>
<polyline fill="none" stroke="black" points="21,-240.5 155,-240.5 "/>
<text text-anchor="middle" x="88" y="-228.5" font-family="SegoeUI" font-size="10.00"> </text>
</a>
</g>
</g>
<!-- Node2&#45;&gt;Node1 -->
<g id="edge2" class="edge"><title>Node2&#45;&gt;Node1</title>
<path fill="none" stroke="midnightblue" d="M88,-211.146C88,-202.256 88,-193.096 88,-184.555"/>
<polygon fill="none" stroke="midnightblue" points="84.5001,-211.405 88,-221.405 91.5001,-211.405 84.5001,-211.405"/>
</g>
<!-- Node3 -->
<g id="node4" class="node"><title>Node3</title>
<g id="a_node4"><a xlink:href="../../da/da5/class_juniper_1_1_unity_1_1_display_1_1_abstract_display_manager.html" target="_top" xlink:title=" ">
<polygon fill="white" stroke="black" points="28.5,-337.5 28.5,-625.5 147.5,-625.5 147.5,-337.5 28.5,-337.5"/>
<text text-anchor="middle" x="88" y="-613.5" font-family="SegoeUI" font-size="10.00">AbstractDisplayManager</text>
<polyline fill="none" stroke="black" points="28.5,-606.5 147.5,-606.5 "/>
<text text-anchor="start" x="36.5" y="-594.5" font-family="SegoeUI" font-size="10.00">+ MainCamera</text>
<text text-anchor="start" x="36.5" y="-583.5" font-family="SegoeUI" font-size="10.00">+ DEFAULT_FOV</text>
<text text-anchor="start" x="36.5" y="-572.5" font-family="SegoeUI" font-size="10.00">+ VerticalFieldOfView</text>
<text text-anchor="start" x="36.5" y="-561.5" font-family="SegoeUI" font-size="10.00"># jp</text>
<text text-anchor="start" x="36.5" y="-550.5" font-family="SegoeUI" font-size="10.00">&#45; lastSystem</text>
<text text-anchor="start" x="36.5" y="-539.5" font-family="SegoeUI" font-size="10.00">&#45; lastDisplayType</text>
<text text-anchor="start" x="36.5" y="-528.5" font-family="SegoeUI" font-size="10.00">&#45; lastARMode</text>
<text text-anchor="start" x="36.5" y="-517.5" font-family="SegoeUI" font-size="10.00">&#45; lastOption</text>
<text text-anchor="start" x="36.5" y="-506.5" font-family="SegoeUI" font-size="10.00">&#45; cam</text>
<polyline fill="none" stroke="black" points="28.5,-499.5 147.5,-499.5 "/>
<text text-anchor="start" x="36.5" y="-487.5" font-family="SegoeUI" font-size="10.00">+ StartXRDisplay()</text>
<text text-anchor="start" x="36.5" y="-476.5" font-family="SegoeUI" font-size="10.00">+ StopXRDisplay()</text>
<text text-anchor="start" x="36.5" y="-465.5" font-family="SegoeUI" font-size="10.00">+ DisableDisplay()</text>
<text text-anchor="start" x="36.5" y="-454.5" font-family="SegoeUI" font-size="10.00">+ StartAR()</text>
<text text-anchor="start" x="36.5" y="-443.5" font-family="SegoeUI" font-size="10.00">+ StopAR()</text>
<text text-anchor="start" x="36.5" y="-432.5" font-family="SegoeUI" font-size="10.00">+ ToggleAR()</text>
<text text-anchor="start" x="36.5" y="-421.5" font-family="SegoeUI" font-size="10.00">+ Awake()</text>
<text text-anchor="start" x="36.5" y="-410.5" font-family="SegoeUI" font-size="10.00">+ Reinstall()</text>
<text text-anchor="start" x="36.5" y="-399.5" font-family="SegoeUI" font-size="10.00">+ Reset()</text>
<text text-anchor="start" x="36.5" y="-388.5" font-family="SegoeUI" font-size="10.00">+ Install()</text>
<text text-anchor="start" x="36.5" y="-377.5" font-family="SegoeUI" font-size="10.00">+ Uninstall()</text>
<text text-anchor="start" x="36.5" y="-366.5" font-family="SegoeUI" font-size="10.00">+ Update()</text>
<text text-anchor="start" x="36.5" y="-355.5" font-family="SegoeUI" font-size="10.00">&#45; ChangeDisplayType()</text>
<text text-anchor="start" x="36.5" y="-344.5" font-family="SegoeUI" font-size="10.00">&#45; ChangeARMode()</text>
</a>
</g>
</g>
<!-- Node3&#45;&gt;Node2 -->
<g id="edge3" class="edge"><title>Node3&#45;&gt;Node2</title>
<path fill="none" stroke="midnightblue" d="M88,-327.154C88,-317.688 88,-308.753 88,-300.71"/>
<polygon fill="none" stroke="midnightblue" points="84.5001,-327.195 88,-337.195 91.5001,-327.195 84.5001,-327.195"/>
</g>
<!-- Node4 -->
<g id="node5" class="node"><title>Node4</title>
<g id="a_node5"><a xlink:title=" ">
<polygon fill="white" stroke="#bfbfbf" points="0,-673.5 0,-730.5 82,-730.5 82,-673.5 0,-673.5"/>
<text text-anchor="middle" x="41" y="-718.5" font-family="SegoeUI" font-size="10.00">MonoBehaviour</text>
<polyline fill="none" stroke="#bfbfbf" points="0,-711.5 82,-711.5 "/>
<text text-anchor="middle" x="41" y="-699.5" font-family="SegoeUI" font-size="10.00"> </text>
<polyline fill="none" stroke="#bfbfbf" points="0,-692.5 82,-692.5 "/>
<text text-anchor="middle" x="41" y="-680.5" font-family="SegoeUI" font-size="10.00"> </text>
</a>
</g>
</g>
<!-- Node4&#45;&gt;Node3 -->
<g id="edge4" class="edge"><title>Node4&#45;&gt;Node3</title>
<path fill="none" stroke="midnightblue" d="M49.1089,-663.302C51.4847,-652.257 54.2351,-639.471 57.1537,-625.903"/>
<polygon fill="none" stroke="midnightblue" points="45.6339,-662.814 46.9526,-673.327 52.4773,-664.286 45.6339,-662.814"/>
</g>
<!-- Node5 -->
<g id="node6" class="node"><title>Node5</title>
<g id="a_node6"><a xlink:href="../../db/d28/interface_juniper_1_1_i_installable.html" target="_top" xlink:title=" ">
<polygon fill="white" stroke="black" points="100.5,-662.5 100.5,-741.5 169.5,-741.5 169.5,-662.5 100.5,-662.5"/>
<text text-anchor="middle" x="135" y="-729.5" font-family="SegoeUI" font-size="10.00">IInstallable</text>
<polyline fill="none" stroke="black" points="100.5,-722.5 169.5,-722.5 "/>
<text text-anchor="middle" x="135" y="-710.5" font-family="SegoeUI" font-size="10.00"> </text>
<polyline fill="none" stroke="black" points="100.5,-703.5 169.5,-703.5 "/>
<text text-anchor="start" x="108.5" y="-691.5" font-family="SegoeUI" font-size="10.00">+ Install()</text>
<text text-anchor="start" x="108.5" y="-680.5" font-family="SegoeUI" font-size="10.00">+ Reinstall()</text>
<text text-anchor="start" x="108.5" y="-669.5" font-family="SegoeUI" font-size="10.00">+ Uninstall()</text>
</a>
</g>
</g>
<!-- Node5&#45;&gt;Node3 -->
<g id="edge5" class="edge"><title>Node5&#45;&gt;Node3</title>
<path fill="none" stroke="midnightblue" d="M124.588,-652.593C122.786,-644.218 120.834,-635.143 118.801,-625.691"/>
<polygon fill="none" stroke="midnightblue" points="121.181,-653.399 126.706,-662.44 128.024,-651.927 121.181,-653.399"/>
</g>
</g>
</svg>
