<?xml version="1.0" encoding="UTF-8" standalone="no"?>
<!DOCTYPE svg PUBLIC "-//W3C//DTD SVG 1.1//EN"
 "http://www.w3.org/Graphics/SVG/1.1/DTD/svg11.dtd">
<!-- Generated by graphviz version 2.38.0 (20140413.2041)
 -->
<!-- Title: Juniper.Unity.Display.DisplayManager Pages: 1 -->
<!--zoomable 926 -->
<svg id="main" version="1.1" xmlns="http://www.w3.org/2000/svg" xmlns:xlink="http://www.w3.org/1999/xlink" xml:space="preserve" onload="init(evt)">
<style type="text/css"><![CDATA[
.edge:hover path { stroke: red; }
.edge:hover polygon { stroke: red; fill: red; }
]]></style>
<script type="text/javascript"><![CDATA[
var edges = document.getElementsByTagName('g');
if (edges && edges.length) {
  for (var i=0;i<edges.length;i++) {
    if (edges[i].id.substr(0,4)=='edge') {
      edges[i].setAttribute('class','edge');
    }
  }
}
]]></script>
        <defs>
                <circle id="rim" cx="0" cy="0" r="7"/>
                <circle id="rim2" cx="0" cy="0" r="3.5"/>
                <g id="zoomPlus">
                        <use xlink:href="#rim" fill="#404040">
                                <set attributeName="fill" to="#808080" begin="zoomplus.mouseover" end="zoomplus.mouseout"/>
                        </use>
                        <path d="M-4,0h8M0,-4v8" fill="none" stroke="white" stroke-width="1.5" pointer-events="none"/>
                </g>
                <g id="zoomMin">
                        <use xlink:href="#rim" fill="#404040">
                                <set attributeName="fill" to="#808080" begin="zoomminus.mouseover" end="zoomminus.mouseout"/>
                        </use>
                        <path d="M-4,0h8" fill="none" stroke="white" stroke-width="1.5" pointer-events="none"/>
                </g>
                <g id="dirArrow">
                        <path fill="none" stroke="white" stroke-width="1.5" d="M0,-3.0v7 M-2.5,-0.5L0,-3.0L2.5,-0.5"/>
                </g>
               <g id="resetDef">
                       <use xlink:href="#rim2" fill="#404040">
                               <set attributeName="fill" to="#808080" begin="reset.mouseover" end="reset.mouseout"/>
                       </use>
               </g>
        </defs>

<script type="text/javascript">
var viewWidth = 178;
var viewHeight = 926;
var sectionId = 'dynsection-0';
</script>
<script xlink:href="../../svgpan.js"/>
<svg id="graph" class="graph">
<g id="viewport">
<title>Juniper.Unity.Display.DisplayManager</title>
<polygon fill="white" stroke="none" points="-4,4 -4,-922 173.5,-922 173.5,4 -4,4"/>
<!-- Node0 -->
<g id="node1" class="node"><title>Node0</title>
<g id="a_node1"><a xlink:title="Manages the camera FOV in the editor so that it matches the target system, or on desktop makes sure t...">
<polygon fill="#bfbfbf" stroke="black" points="19.5,-0.5 19.5,-68.5 156.5,-68.5 156.5,-0.5 19.5,-0.5"/>
<text text-anchor="start" x="27.5" y="-56.5" font-family="SegoeUI" font-size="10.00">Juniper.Unity.Display.Display</text>
<text text-anchor="middle" x="88" y="-45.5" font-family="SegoeUI" font-size="10.00">Manager</text>
<polyline fill="none" stroke="black" points="19.5,-38.5 156.5,-38.5 "/>
<text text-anchor="middle" x="88" y="-26.5" font-family="SegoeUI" font-size="10.00"> </text>
<polyline fill="none" stroke="black" points="19.5,-19.5 156.5,-19.5 "/>
<text text-anchor="middle" x="88" y="-7.5" font-family="SegoeUI" font-size="10.00"> </text>
</a>
</g>
</g>
<!-- Node1 -->
<g id="node2" class="node"><title>Node1</title>
<g id="a_node2"><a xlink:href="../../da/df4/class_juniper_1_1_unity_1_1_display_1_1_a_r_kit_display_manager.html" target="_top" xlink:title=" ">
<polygon fill="white" stroke="black" points="34.5,-105.5 34.5,-173.5 141.5,-173.5 141.5,-105.5 34.5,-105.5"/>
<text text-anchor="middle" x="88" y="-161.5" font-family="SegoeUI" font-size="10.00">ARKitDisplayManager</text>
<polyline fill="none" stroke="black" points="34.5,-154.5 141.5,-154.5 "/>
<text text-anchor="middle" x="88" y="-142.5" font-family="SegoeUI" font-size="10.00"> </text>
<polyline fill="none" stroke="black" points="34.5,-135.5 141.5,-135.5 "/>
<text text-anchor="start" x="42.5" y="-123.5" font-family="SegoeUI" font-size="10.00">+ Install()</text>
<text text-anchor="start" x="42.5" y="-112.5" font-family="SegoeUI" font-size="10.00">+ Uninstall()</text>
</a>
</g>
</g>
<!-- Node1&#45;&gt;Node0 -->
<g id="edge1" class="edge"><title>Node1&#45;&gt;Node0</title>
<path fill="none" stroke="midnightblue" d="M88,-95.1362C88,-86.256 88,-77.0447 88,-68.5947"/>
<polygon fill="none" stroke="midnightblue" points="84.5001,-95.3432 88,-105.343 91.5001,-95.3432 84.5001,-95.3432"/>
</g>
<!-- Node2 -->
<g id="node3" class="node"><title>Node2</title>
<g id="a_node3"><a xlink:href="../../de/dad/class_juniper_1_1_unity_1_1_display_1_1_abstract_passthrough_display_manager.html" target="_top" xlink:title=" ">
<polygon fill="white" stroke="black" points="21,-210.5 21,-300.5 155,-300.5 155,-210.5 21,-210.5"/>
<text text-anchor="start" x="29" y="-288.5" font-family="SegoeUI" font-size="10.00">AbstractPassthroughDisplay</text>
<text text-anchor="middle" x="88" y="-277.5" font-family="SegoeUI" font-size="10.00">Manager</text>
<polyline fill="none" stroke="black" points="21,-270.5 155,-270.5 "/>
<text text-anchor="start" x="29" y="-258.5" font-family="SegoeUI" font-size="10.00">+ ARBackgroundMaterial</text>
<text text-anchor="start" x="29" y="-247.5" font-family="SegoeUI" font-size="10.00">+ enablePointCloud</text>
<polyline fill="none" stroke="black" points="21,-240.5 155,-240.5 "/>
<text text-anchor="start" x="29" y="-228.5" font-family="SegoeUI" font-size="10.00">+ Start()</text>
<text text-anchor="start" x="29" y="-217.5" font-family="SegoeUI" font-size="10.00"># OnARModeChange()</text>
</a>
</g>
</g>
<!-- Node2&#45;&gt;Node1 -->
<g id="edge2" class="edge"><title>Node2&#45;&gt;Node1</title>
<path fill="none" stroke="midnightblue" d="M88,-200.316C88,-191.285 88,-182.159 88,-173.848"/>
<polygon fill="none" stroke="midnightblue" points="84.5001,-200.425 88,-210.425 91.5001,-200.425 84.5001,-200.425"/>
</g>
<!-- Node3 -->
<g id="node4" class="node"><title>Node3</title>
<g id="a_node4"><a xlink:href="../../da/da5/class_juniper_1_1_unity_1_1_display_1_1_abstract_display_manager.html" target="_top" xlink:title=" ">
<polygon fill="white" stroke="black" points="23.5,-337.5 23.5,-801.5 152.5,-801.5 152.5,-337.5 23.5,-337.5"/>
<text text-anchor="middle" x="88" y="-789.5" font-family="SegoeUI" font-size="10.00">AbstractDisplayManager</text>
<polyline fill="none" stroke="black" points="23.5,-782.5 152.5,-782.5 "/>
<text text-anchor="start" x="31.5" y="-770.5" font-family="SegoeUI" font-size="10.00">+ onDisplayTypeChange</text>
<text text-anchor="start" x="31.5" y="-759.5" font-family="SegoeUI" font-size="10.00">+ onARModeChange</text>
<text text-anchor="start" x="31.5" y="-748.5" font-family="SegoeUI" font-size="10.00">+ MainCamera</text>
<text text-anchor="start" x="31.5" y="-737.5" font-family="SegoeUI" font-size="10.00">+ CurrentPlatform</text>
<text text-anchor="start" x="31.5" y="-726.5" font-family="SegoeUI" font-size="10.00">+ System</text>
<text text-anchor="start" x="31.5" y="-715.5" font-family="SegoeUI" font-size="10.00">+ DisplayType</text>
<text text-anchor="start" x="31.5" y="-704.5" font-family="SegoeUI" font-size="10.00">+ SupportedDisplayType</text>
<text text-anchor="start" x="31.5" y="-693.5" font-family="SegoeUI" font-size="10.00">+ ARMode</text>
<text text-anchor="start" x="31.5" y="-682.5" font-family="SegoeUI" font-size="10.00">+ SupportedARMode</text>
<text text-anchor="start" x="31.5" y="-671.5" font-family="SegoeUI" font-size="10.00">+ Option</text>
<text text-anchor="start" x="31.5" y="-660.5" font-family="SegoeUI" font-size="10.00">+ IsValidDisplayChange</text>
<text text-anchor="start" x="31.5" y="-649.5" font-family="SegoeUI" font-size="10.00">+ DEFAULT_FOV</text>
<text text-anchor="start" x="31.5" y="-638.5" font-family="SegoeUI" font-size="10.00">+ VerticalFieldOfView</text>
<text text-anchor="start" x="31.5" y="-627.5" font-family="SegoeUI" font-size="10.00"># listener</text>
<text text-anchor="start" x="31.5" y="-616.5" font-family="SegoeUI" font-size="10.00"># cameraCtrl</text>
<text text-anchor="start" x="31.5" y="-605.5" font-family="SegoeUI" font-size="10.00">&#45; jp</text>
<text text-anchor="start" x="31.5" y="-594.5" font-family="SegoeUI" font-size="10.00">&#45; lastSystem</text>
<text text-anchor="start" x="31.5" y="-583.5" font-family="SegoeUI" font-size="10.00">&#45; lastDisplayType</text>
<text text-anchor="start" x="31.5" y="-572.5" font-family="SegoeUI" font-size="10.00">&#45; lastARMode</text>
<text text-anchor="start" x="31.5" y="-561.5" font-family="SegoeUI" font-size="10.00">&#45; lastOption</text>
<text text-anchor="start" x="31.5" y="-550.5" font-family="SegoeUI" font-size="10.00">&#45; cam</text>
<polyline fill="none" stroke="black" points="23.5,-543.5 152.5,-543.5 "/>
<text text-anchor="start" x="31.5" y="-531.5" font-family="SegoeUI" font-size="10.00">+ Awake()</text>
<text text-anchor="start" x="31.5" y="-520.5" font-family="SegoeUI" font-size="10.00">+ Reinstall()</text>
<text text-anchor="start" x="31.5" y="-509.5" font-family="SegoeUI" font-size="10.00">+ Install()</text>
<text text-anchor="start" x="31.5" y="-498.5" font-family="SegoeUI" font-size="10.00">+ Uninstall()</text>
<text text-anchor="start" x="31.5" y="-487.5" font-family="SegoeUI" font-size="10.00">+ Start()</text>
<text text-anchor="start" x="31.5" y="-476.5" font-family="SegoeUI" font-size="10.00">+ StartXRDisplay()</text>
<text text-anchor="start" x="31.5" y="-465.5" font-family="SegoeUI" font-size="10.00">+ StopXRDisplay()</text>
<text text-anchor="start" x="31.5" y="-454.5" font-family="SegoeUI" font-size="10.00">+ DisableDisplay()</text>
<text text-anchor="start" x="31.5" y="-443.5" font-family="SegoeUI" font-size="10.00">+ StartAR()</text>
<text text-anchor="start" x="31.5" y="-432.5" font-family="SegoeUI" font-size="10.00">+ StopAR()</text>
<text text-anchor="start" x="31.5" y="-421.5" font-family="SegoeUI" font-size="10.00">+ ToggleAR()</text>
<text text-anchor="start" x="31.5" y="-410.5" font-family="SegoeUI" font-size="10.00">+ Update()</text>
<text text-anchor="start" x="31.5" y="-399.5" font-family="SegoeUI" font-size="10.00">+ SupportedXRDevice()</text>
<text text-anchor="start" x="31.5" y="-388.5" font-family="SegoeUI" font-size="10.00"># OnDisplayTypeChange()</text>
<text text-anchor="start" x="31.5" y="-377.5" font-family="SegoeUI" font-size="10.00"># OnARModeChange()</text>
<text text-anchor="start" x="31.5" y="-366.5" font-family="SegoeUI" font-size="10.00">&#45; ChangeDisplayType()</text>
<text text-anchor="start" x="31.5" y="-355.5" font-family="SegoeUI" font-size="10.00">&#45; ChangeARMode()</text>
<text text-anchor="start" x="31.5" y="-344.5" font-family="SegoeUI" font-size="10.00">&#45; ChangeDevice()</text>
</a>
</g>
</g>
<!-- Node3&#45;&gt;Node2 -->
<g id="edge3" class="edge"><title>Node3&#45;&gt;Node2</title>
<path fill="none" stroke="midnightblue" d="M88,-327.137C88,-317.632 88,-308.738 88,-300.682"/>
<polygon fill="none" stroke="midnightblue" points="84.5001,-327.253 88,-337.254 91.5001,-327.254 84.5001,-327.253"/>
</g>
<!-- Node4 -->
<g id="node5" class="node"><title>Node4</title>
<g id="a_node5"><a xlink:title=" ">
<polygon fill="white" stroke="#bfbfbf" points="0,-849.5 0,-906.5 82,-906.5 82,-849.5 0,-849.5"/>
<text text-anchor="middle" x="41" y="-894.5" font-family="SegoeUI" font-size="10.00">MonoBehaviour</text>
<polyline fill="none" stroke="#bfbfbf" points="0,-887.5 82,-887.5 "/>
<text text-anchor="middle" x="41" y="-875.5" font-family="SegoeUI" font-size="10.00"> </text>
<polyline fill="none" stroke="#bfbfbf" points="0,-868.5 82,-868.5 "/>
<text text-anchor="middle" x="41" y="-856.5" font-family="SegoeUI" font-size="10.00"> </text>
</a>
</g>
</g>
<!-- Node4&#45;&gt;Node3 -->
<g id="edge4" class="edge"><title>Node4&#45;&gt;Node3</title>
<path fill="none" stroke="midnightblue" d="M46.8209,-839.04C48.4852,-828.187 50.4299,-815.505 52.5517,-801.668"/>
<polygon fill="none" stroke="midnightblue" points="43.3101,-838.845 45.2538,-849.26 50.2292,-839.906 43.3101,-838.845"/>
</g>
<!-- Node5 -->
<g id="node6" class="node"><title>Node5</title>
<g id="a_node6"><a xlink:href="../../db/d28/interface_juniper_1_1_i_installable.html" target="_top" xlink:title=" ">
<polygon fill="white" stroke="black" points="100.5,-838.5 100.5,-917.5 169.5,-917.5 169.5,-838.5 100.5,-838.5"/>
<text text-anchor="middle" x="135" y="-905.5" font-family="SegoeUI" font-size="10.00">IInstallable</text>
<polyline fill="none" stroke="black" points="100.5,-898.5 169.5,-898.5 "/>
<text text-anchor="middle" x="135" y="-886.5" font-family="SegoeUI" font-size="10.00"> </text>
<polyline fill="none" stroke="black" points="100.5,-879.5 169.5,-879.5 "/>
<text text-anchor="start" x="108.5" y="-867.5" font-family="SegoeUI" font-size="10.00">+ Install()</text>
<text text-anchor="start" x="108.5" y="-856.5" font-family="SegoeUI" font-size="10.00">+ Reinstall()</text>
<text text-anchor="start" x="108.5" y="-845.5" font-family="SegoeUI" font-size="10.00">+ Uninstall()</text>
</a>
</g>
</g>
<!-- Node5&#45;&gt;Node3 -->
<g id="edge5" class="edge"><title>Node5&#45;&gt;Node3</title>
<path fill="none" stroke="midnightblue" d="M127.555,-828.447C126.286,-820.174 124.898,-811.121 123.425,-801.513"/>
<polygon fill="none" stroke="midnightblue" points="124.12,-829.138 129.095,-838.492 131.039,-828.077 124.12,-829.138"/>
</g>
</g>
</svg>
        <g id="navigator" transform="translate(0 0)" fill="#404254">
                <rect fill="#f2f5e9" fill-opacity="0.5" stroke="#606060" stroke-width=".5" x="0" y="0" width="60" height="60"/>
                <use id="zoomplus" xlink:href="#zoomPlus" x="17" y="9" onmousedown="handleZoom(evt,'in')"/>
                <use id="zoomminus" xlink:href="#zoomMin" x="42" y="9" onmousedown="handleZoom(evt,'out')"/>
                <use id="reset" xlink:href="#resetDef" x="30" y="36" onmousedown="handleReset()"/>
                <g id="arrowUp" xlink:href="#dirArrow" transform="translate(30 24)" onmousedown="handlePan(0,-1)">
                  <use xlink:href="#rim" fill="#404040">
                        <set attributeName="fill" to="#808080" begin="arrowUp.mouseover" end="arrowUp.mouseout"/>
                  </use>
                  <path fill="none" stroke="white" stroke-width="1.5" d="M0,-3.0v7 M-2.5,-0.5L0,-3.0L2.5,-0.5"/>
                </g>
                <g id="arrowRight" xlink:href="#dirArrow" transform="rotate(90) translate(36 -43)" onmousedown="handlePan(1,0)">
                  <use xlink:href="#rim" fill="#404040">
                        <set attributeName="fill" to="#808080" begin="arrowRight.mouseover" end="arrowRight.mouseout"/>
                  </use>
                  <path fill="none" stroke="white" stroke-width="1.5" d="M0,-3.0v7 M-2.5,-0.5L0,-3.0L2.5,-0.5"/>
                </g>
                <g id="arrowDown" xlink:href="#dirArrow" transform="rotate(180) translate(-30 -48)" onmousedown="handlePan(0,1)">
                  <use xlink:href="#rim" fill="#404040">
                        <set attributeName="fill" to="#808080" begin="arrowDown.mouseover" end="arrowDown.mouseout"/>
                  </use>
                  <path fill="none" stroke="white" stroke-width="1.5" d="M0,-3.0v7 M-2.5,-0.5L0,-3.0L2.5,-0.5"/>
                </g>
                <g id="arrowLeft" xlink:href="#dirArrow" transform="rotate(270) translate(-36 17)" onmousedown="handlePan(-1,0)">
                  <use xlink:href="#rim" fill="#404040">
                        <set attributeName="fill" to="#808080" begin="arrowLeft.mouseover" end="arrowLeft.mouseout"/>
                  </use>
                  <path fill="none" stroke="white" stroke-width="1.5" d="M0,-3.0v7 M-2.5,-0.5L0,-3.0L2.5,-0.5"/>
                </g>
        </g>
        <svg viewBox="0 0 15 15" width="100%" height="30px" preserveAspectRatio="xMaxYMin meet">
         <g id="arrow_out" transform="scale(0.3 0.3)">
          <a xlink:href="class_juniper_1_1_unity_1_1_display_1_1_display_manager__inherit__graph_org.svg" target="_base">
           <rect id="button" ry="5" rx="5" y="6" x="6" height="38" width="38"
                fill="#f2f5e9" fill-opacity="0.5" stroke="#606060" stroke-width="1.0"/>
           <path id="arrow"
             d="M 11.500037,31.436501 C 11.940474,20.09759 22.043105,11.32322 32.158766,21.979434 L 37.068811,17.246167 C 37.068811,17.246167 37.088388,32 37.088388,32 L 22.160133,31.978069 C 22.160133,31.978069 26.997745,27.140456 26.997745,27.140456 C 18.528582,18.264221 13.291696,25.230495 11.500037,31.436501 z"
             style="fill:#404040;"/>
          </a>
         </g>
        </svg>
</svg>
