<?xml version="1.0" encoding="UTF-8" standalone="no"?>
<!DOCTYPE svg PUBLIC "-//W3C//DTD SVG 1.1//EN"
 "http://www.w3.org/Graphics/SVG/1.1/DTD/svg11.dtd">
<!-- Generated by graphviz version 2.38.0 (20140413.2041)
 -->
<!-- Title: Juniper.Events.IInteractable Pages: 1 -->
<svg width="601pt" height="1096pt"
 viewBox="0.00 0.00 600.50 1096.00" xmlns="http://www.w3.org/2000/svg" xmlns:xlink="http://www.w3.org/1999/xlink">
<g id="graph0" class="graph" transform="scale(1 1) rotate(0) translate(4 1092)">
<title>Juniper.Events.IInteractable</title>
<polygon fill="white" stroke="none" points="-4,4 -4,-1092 596.5,-1092 596.5,4 -4,4"/>
<!-- Node0 -->
<g id="node1" class="node"><title>Node0</title>
<g id="a_node1"><a xlink:title="An interface for custom controls to report to the Input.UnifiedInputModule that they are enabled/disa...">
<polygon fill="#bfbfbf" stroke="black" points="229,-1030.5 229,-1087.5 364,-1087.5 364,-1030.5 229,-1030.5"/>
<text text-anchor="middle" x="296.5" y="-1075.5" font-family="SegoeUI" font-size="10.00">Juniper.Events.IInteractable</text>
<polyline fill="none" stroke="black" points="229,-1068.5 364,-1068.5 "/>
<text text-anchor="middle" x="296.5" y="-1056.5" font-family="SegoeUI" font-size="10.00"> </text>
<polyline fill="none" stroke="black" points="229,-1049.5 364,-1049.5 "/>
<text text-anchor="start" x="237" y="-1037.5" font-family="SegoeUI" font-size="10.00">+ IsInteractable()</text>
</a>
</g>
</g>
<!-- Node1 -->
<g id="node2" class="node"><title>Node1</title>
<g id="a_node2"><a xlink:href="../../d7/d8c/class_juniper_1_1_widgets_1_1_abstract_touchable.html" target="_top" xlink:title="The base class for all interactive, AR&#45;compatible, GUI controls /// This class is abstract to avoid i...">
<polygon fill="white" stroke="black" points="233.5,-672.5 233.5,-993.5 359.5,-993.5 359.5,-672.5 233.5,-672.5"/>
<text text-anchor="start" x="241.5" y="-981.5" font-family="SegoeUI" font-size="10.00">Juniper.Widgets.Abstract</text>
<text text-anchor="middle" x="296.5" y="-970.5" font-family="SegoeUI" font-size="10.00">Touchable</text>
<polyline fill="none" stroke="black" points="233.5,-963.5 359.5,-963.5 "/>
<text text-anchor="start" x="241.5" y="-951.5" font-family="SegoeUI" font-size="10.00">+ clickButton</text>
<text text-anchor="start" x="241.5" y="-940.5" font-family="SegoeUI" font-size="10.00">+ disabled</text>
<text text-anchor="start" x="241.5" y="-929.5" font-family="SegoeUI" font-size="10.00">+ pointerPosition</text>
<text text-anchor="start" x="241.5" y="-918.5" font-family="SegoeUI" font-size="10.00">+ PART_NAMES</text>
<text text-anchor="start" x="241.5" y="-907.5" font-family="SegoeUI" font-size="10.00">+ DisabledChanged</text>
<text text-anchor="start" x="241.5" y="-896.5" font-family="SegoeUI" font-size="10.00">+ DisabledDown</text>
<text text-anchor="start" x="241.5" y="-885.5" font-family="SegoeUI" font-size="10.00">+ DisabledUp</text>
<text text-anchor="start" x="241.5" y="-874.5" font-family="SegoeUI" font-size="10.00">+ IsDisabled</text>
<text text-anchor="start" x="241.5" y="-863.5" font-family="SegoeUI" font-size="10.00">+ PointerPositionChanged</text>
<text text-anchor="start" x="241.5" y="-852.5" font-family="SegoeUI" font-size="10.00"># lastPointerPosition</text>
<text text-anchor="start" x="241.5" y="-841.5" font-family="SegoeUI" font-size="10.00">&#45; animator</text>
<text text-anchor="start" x="241.5" y="-830.5" font-family="SegoeUI" font-size="10.00">&#45; wasDisabled</text>
<polyline fill="none" stroke="black" points="233.5,-823.5 359.5,-823.5 "/>
<text text-anchor="start" x="241.5" y="-811.5" font-family="SegoeUI" font-size="10.00">+ IsInteractable()</text>
<text text-anchor="start" x="241.5" y="-800.5" font-family="SegoeUI" font-size="10.00">+ SetDisabled()</text>
<text text-anchor="start" x="241.5" y="-789.5" font-family="SegoeUI" font-size="10.00">+ ToggleEnabled()</text>
<text text-anchor="start" x="241.5" y="-778.5" font-family="SegoeUI" font-size="10.00">+ Update()</text>
<text text-anchor="start" x="241.5" y="-767.5" font-family="SegoeUI" font-size="10.00">+ OnPointerEnter()</text>
<text text-anchor="start" x="241.5" y="-756.5" font-family="SegoeUI" font-size="10.00">+ OnPointerExit()</text>
<text text-anchor="start" x="241.5" y="-745.5" font-family="SegoeUI" font-size="10.00">+ OnPointerDown()</text>
<text text-anchor="start" x="241.5" y="-734.5" font-family="SegoeUI" font-size="10.00">+ OnPointerUp()</text>
<text text-anchor="start" x="241.5" y="-723.5" font-family="SegoeUI" font-size="10.00"># LateUpdate()</text>
<text text-anchor="start" x="241.5" y="-712.5" font-family="SegoeUI" font-size="10.00"># ShowState()</text>
<text text-anchor="start" x="241.5" y="-701.5" font-family="SegoeUI" font-size="10.00"># GetPosition()</text>
<text text-anchor="start" x="241.5" y="-690.5" font-family="SegoeUI" font-size="10.00">&#45; Awake()</text>
<text text-anchor="start" x="241.5" y="-679.5" font-family="SegoeUI" font-size="10.00">&#45; NormalizePart()</text>
</a>
</g>
</g>
<!-- Node0&#45;&gt;Node1 -->
<g id="edge1" class="edge"><title>Node0&#45;&gt;Node1</title>
<path fill="none" stroke="midnightblue" d="M296.5,-1019.91C296.5,-1012.02 296.5,-1003.25 296.5,-993.931"/>
<polygon fill="none" stroke="midnightblue" points="293,-1020.08 296.5,-1030.08 300,-1020.08 293,-1020.08"/>
</g>
<!-- Node2 -->
<g id="node3" class="node"><title>Node2</title>
<g id="a_node3"><a xlink:href="../../dd/d30/class_juniper_1_1_widgets_1_1_abstract_valued.html" target="_top" xlink:title="The Valued component adds a float field and range of valid values for that field to a Touchable objec...">
<polygon fill="white" stroke="black" points="154,-226.5 154,-635.5 291,-635.5 291,-226.5 154,-226.5"/>
<text text-anchor="start" x="162" y="-623.5" font-family="SegoeUI" font-size="10.00">Juniper.Widgets.Abstract</text>
<text text-anchor="middle" x="222.5" y="-612.5" font-family="SegoeUI" font-size="10.00">Valued</text>
<polyline fill="none" stroke="black" points="154,-605.5 291,-605.5 "/>
<text text-anchor="start" x="162" y="-593.5" font-family="SegoeUI" font-size="10.00">+ Display</text>
<text text-anchor="start" x="162" y="-582.5" font-family="SegoeUI" font-size="10.00">+ SigFigs</text>
<text text-anchor="start" x="162" y="-571.5" font-family="SegoeUI" font-size="10.00">+ minValue</text>
<text text-anchor="start" x="162" y="-560.5" font-family="SegoeUI" font-size="10.00">+ maxValue</text>
<text text-anchor="start" x="162" y="-549.5" font-family="SegoeUI" font-size="10.00">+ _value</text>
<text text-anchor="start" x="162" y="-538.5" font-family="SegoeUI" font-size="10.00">+ Dragged</text>
<text text-anchor="start" x="162" y="-527.5" font-family="SegoeUI" font-size="10.00">+ value</text>
<text text-anchor="start" x="162" y="-516.5" font-family="SegoeUI" font-size="10.00">+ Delta</text>
<text text-anchor="start" x="162" y="-505.5" font-family="SegoeUI" font-size="10.00">+ DraggedChanged</text>
<text text-anchor="start" x="162" y="-494.5" font-family="SegoeUI" font-size="10.00">+ DraggedDown</text>
<text text-anchor="start" x="162" y="-483.5" font-family="SegoeUI" font-size="10.00">+ DraggedUp</text>
<text text-anchor="start" x="162" y="-472.5" font-family="SegoeUI" font-size="10.00">+ ValueChanged</text>
<text text-anchor="start" x="162" y="-461.5" font-family="SegoeUI" font-size="10.00">+ ConstraintRange</text>
<text text-anchor="start" x="162" y="-450.5" font-family="SegoeUI" font-size="10.00"># dragDistance</text>
<text text-anchor="start" x="162" y="-439.5" font-family="SegoeUI" font-size="10.00"># interactionPoint</text>
<text text-anchor="start" x="162" y="-428.5" font-family="SegoeUI" font-size="10.00"># interactionOffset</text>
<text text-anchor="start" x="162" y="-417.5" font-family="SegoeUI" font-size="10.00"># velocity</text>
<text text-anchor="start" x="162" y="-406.5" font-family="SegoeUI" font-size="10.00"># angVel</text>
<text text-anchor="start" x="162" y="-395.5" font-family="SegoeUI" font-size="10.00"># camT</text>
<text text-anchor="start" x="162" y="-384.5" font-family="SegoeUI" font-size="10.00"># grabOffset</text>
<text text-anchor="start" x="162" y="-373.5" font-family="SegoeUI" font-size="10.00"># internalValue</text>
<text text-anchor="start" x="162" y="-362.5" font-family="SegoeUI" font-size="10.00">&#45; wasDragged</text>
<text text-anchor="start" x="162" y="-351.5" font-family="SegoeUI" font-size="10.00">&#45; lastValue</text>
<text text-anchor="start" x="162" y="-340.5" font-family="SegoeUI" font-size="10.00">&#45; lastTickValue</text>
<polyline fill="none" stroke="black" points="154,-333.5 291,-333.5 "/>
<text text-anchor="start" x="162" y="-321.5" font-family="SegoeUI" font-size="10.00">+ SetValue()</text>
<text text-anchor="start" x="162" y="-310.5" font-family="SegoeUI" font-size="10.00">+ OnInitializePotentialDrag()</text>
<text text-anchor="start" x="162" y="-299.5" font-family="SegoeUI" font-size="10.00">+ OnBeginDrag()</text>
<text text-anchor="start" x="162" y="-288.5" font-family="SegoeUI" font-size="10.00">+ OnDrag()</text>
<text text-anchor="start" x="162" y="-277.5" font-family="SegoeUI" font-size="10.00">+ OnDrop()</text>
<text text-anchor="start" x="162" y="-266.5" font-family="SegoeUI" font-size="10.00">+ OnEndDrag()</text>
<text text-anchor="start" x="162" y="-255.5" font-family="SegoeUI" font-size="10.00"># LateUpdate()</text>
<text text-anchor="start" x="162" y="-244.5" font-family="SegoeUI" font-size="10.00"># UpdateInternalValue()</text>
<text text-anchor="start" x="162" y="-233.5" font-family="SegoeUI" font-size="10.00"># ResetInternalValue()</text>
</a>
</g>
</g>
<!-- Node1&#45;&gt;Node2 -->
<g id="edge2" class="edge"><title>Node1&#45;&gt;Node2</title>
<path fill="none" stroke="midnightblue" d="M265.146,-662.517C263.508,-653.666 261.855,-644.732 260.201,-635.789"/>
<polygon fill="none" stroke="midnightblue" points="261.727,-663.276 266.987,-672.473 268.61,-662.003 261.727,-663.276"/>
</g>
<!-- Node5 -->
<g id="node6" class="node"><title>Node5</title>
<g id="a_node6"><a xlink:href="../../d2/d70/class_juniper_1_1_widgets_1_1_clickable.html" target="_top" xlink:title="An object that can be Touched on a screen or Clicked with a mouse and fires an event in response.">
<polygon fill="white" stroke="black" points="309,-369.5 309,-492.5 434,-492.5 434,-369.5 309,-369.5"/>
<text text-anchor="middle" x="371.5" y="-480.5" font-family="SegoeUI" font-size="10.00">Juniper.Widgets.Clickable</text>
<polyline fill="none" stroke="black" points="309,-473.5 434,-473.5 "/>
<text text-anchor="start" x="317" y="-461.5" font-family="SegoeUI" font-size="10.00">+ onClick</text>
<text text-anchor="start" x="317" y="-450.5" font-family="SegoeUI" font-size="10.00">+ onLongPress</text>
<polyline fill="none" stroke="black" points="309,-443.5 434,-443.5 "/>
<text text-anchor="start" x="317" y="-431.5" font-family="SegoeUI" font-size="10.00">+ OnPointerClick()</text>
<text text-anchor="start" x="317" y="-420.5" font-family="SegoeUI" font-size="10.00">+ OnClick()</text>
<text text-anchor="start" x="317" y="-409.5" font-family="SegoeUI" font-size="10.00">+ ActivateClick()</text>
<text text-anchor="start" x="317" y="-398.5" font-family="SegoeUI" font-size="10.00">+ OnLongPress()</text>
<text text-anchor="start" x="317" y="-387.5" font-family="SegoeUI" font-size="10.00">+ OnLongPress()</text>
<text text-anchor="start" x="317" y="-376.5" font-family="SegoeUI" font-size="10.00">+ OnLongPressUpdate()</text>
</a>
</g>
</g>
<!-- Node1&#45;&gt;Node5 -->
<g id="edge5" class="edge"><title>Node1&#45;&gt;Node5</title>
<path fill="none" stroke="midnightblue" d="M328.292,-662.44C339.6,-602.135 351.616,-538.049 360.098,-492.81"/>
<polygon fill="none" stroke="midnightblue" points="324.814,-661.999 326.411,-672.473 331.694,-663.289 324.814,-661.999"/>
</g>
<!-- Node3 -->
<g id="node4" class="node"><title>Node3</title>
<g id="a_node4"><a xlink:href="../../d9/d93/class_juniper_1_1_widgets_1_1_draggable.html" target="_top" xlink:title="An object that can be picked up and put down in a new location.">
<polygon fill="white" stroke="black" points="0,-0.5 0,-189.5 141,-189.5 141,-0.5 0,-0.5"/>
<text text-anchor="middle" x="70.5" y="-177.5" font-family="SegoeUI" font-size="10.00">Juniper.Widgets.Draggable</text>
<polyline fill="none" stroke="black" points="0,-170.5 141,-170.5 "/>
<text text-anchor="start" x="8" y="-158.5" font-family="SegoeUI" font-size="10.00">+ constrainMotion</text>
<text text-anchor="start" x="8" y="-147.5" font-family="SegoeUI" font-size="10.00">+ rotateWhileDragging</text>
<text text-anchor="start" x="8" y="-136.5" font-family="SegoeUI" font-size="10.00">+ TrackStart</text>
<text text-anchor="start" x="8" y="-125.5" font-family="SegoeUI" font-size="10.00">+ TrackEnd</text>
<text text-anchor="start" x="8" y="-114.5" font-family="SegoeUI" font-size="10.00">&#45; MotionConstraintStartName</text>
<text text-anchor="start" x="8" y="-103.5" font-family="SegoeUI" font-size="10.00">&#45; MotionConstraintEndName</text>
<text text-anchor="start" x="8" y="-92.5" font-family="SegoeUI" font-size="10.00">&#45; motionConstraintStart</text>
<text text-anchor="start" x="8" y="-81.5" font-family="SegoeUI" font-size="10.00">&#45; motionConstraintEnd</text>
<text text-anchor="start" x="8" y="-70.5" font-family="SegoeUI" font-size="10.00">&#45; lastCamPosition</text>
<polyline fill="none" stroke="black" points="0,-63.5 141,-63.5 "/>
<text text-anchor="start" x="8" y="-51.5" font-family="SegoeUI" font-size="10.00">+ OnValidate()</text>
<text text-anchor="start" x="8" y="-40.5" font-family="SegoeUI" font-size="10.00">+ OnDrag()</text>
<text text-anchor="start" x="8" y="-29.5" font-family="SegoeUI" font-size="10.00"># LateUpdate()</text>
<text text-anchor="start" x="8" y="-18.5" font-family="SegoeUI" font-size="10.00">&#45; ResolveConstraint()</text>
<text text-anchor="start" x="8" y="-7.5" font-family="SegoeUI" font-size="10.00">&#45; DestroyConstraint()</text>
</a>
</g>
</g>
<!-- Node2&#45;&gt;Node3 -->
<g id="edge3" class="edge"><title>Node2&#45;&gt;Node3</title>
<path fill="none" stroke="midnightblue" d="M149.61,-269.835C137.127,-242.405 124.532,-214.729 113.175,-189.774"/>
<polygon fill="none" stroke="midnightblue" points="146.51,-271.471 153.837,-279.123 152.881,-268.572 146.51,-271.471"/>
</g>
<!-- Node4 -->
<g id="node5" class="node"><title>Node4</title>
<g id="a_node5"><a xlink:href="../../d7/d7d/class_juniper_1_1_widgets_1_1_rotatable.html" target="_top" xlink:title="A control that is rotatable in a single axis at a time.">
<polygon fill="white" stroke="black" points="159.5,-0.5 159.5,-189.5 287.5,-189.5 287.5,-0.5 159.5,-0.5"/>
<text text-anchor="middle" x="223.5" y="-177.5" font-family="SegoeUI" font-size="10.00">Juniper.Widgets.Rotatable</text>
<polyline fill="none" stroke="black" points="159.5,-170.5 287.5,-170.5 "/>
<text text-anchor="start" x="167.5" y="-158.5" font-family="SegoeUI" font-size="10.00">+ rotationAxis</text>
<text text-anchor="start" x="167.5" y="-147.5" font-family="SegoeUI" font-size="10.00">+ InterpolationScale</text>
<text text-anchor="start" x="167.5" y="-136.5" font-family="SegoeUI" font-size="10.00">+ ConstraintRange</text>
<text text-anchor="start" x="167.5" y="-125.5" font-family="SegoeUI" font-size="10.00">&#45; lastInteractionPoint</text>
<text text-anchor="start" x="167.5" y="-114.5" font-family="SegoeUI" font-size="10.00">&#45; amount</text>
<text text-anchor="start" x="167.5" y="-103.5" font-family="SegoeUI" font-size="10.00">&#45; angleCorrector</text>
<text text-anchor="start" x="167.5" y="-92.5" font-family="SegoeUI" font-size="10.00">&#45; startValue</text>
<text text-anchor="start" x="167.5" y="-81.5" font-family="SegoeUI" font-size="10.00">&#45; endValue</text>
<polyline fill="none" stroke="black" points="159.5,-74.5 287.5,-74.5 "/>
<text text-anchor="start" x="167.5" y="-62.5" font-family="SegoeUI" font-size="10.00">+ OnEnable()</text>
<text text-anchor="start" x="167.5" y="-51.5" font-family="SegoeUI" font-size="10.00">+ OnDisable()</text>
<text text-anchor="start" x="167.5" y="-40.5" font-family="SegoeUI" font-size="10.00">+ OnBeginDrag()</text>
<text text-anchor="start" x="167.5" y="-29.5" font-family="SegoeUI" font-size="10.00">+ OnDrag()</text>
<text text-anchor="start" x="167.5" y="-18.5" font-family="SegoeUI" font-size="10.00">+ Awake()</text>
<text text-anchor="start" x="167.5" y="-7.5" font-family="SegoeUI" font-size="10.00">+ Update()</text>
</a>
</g>
</g>
<!-- Node2&#45;&gt;Node4 -->
<g id="edge4" class="edge"><title>Node2&#45;&gt;Node4</title>
<path fill="none" stroke="midnightblue" d="M223.141,-215.911C223.168,-206.964 223.194,-198.213 223.219,-189.774"/>
<polygon fill="none" stroke="midnightblue" points="219.641,-216.079 223.111,-226.09 226.641,-216.1 219.641,-216.079"/>
</g>
<!-- Node6 -->
<g id="node7" class="node"><title>Node6</title>
<g id="a_node7"><a xlink:href="../../dc/d25/class_juniper_1_1_widgets_1_1_openable.html" target="_top" xlink:title="A control that is a container of other controls that are hidden until the control is clicked.">
<polygon fill="white" stroke="black" points="306.5,-11.5 306.5,-178.5 434.5,-178.5 434.5,-11.5 306.5,-11.5"/>
<text text-anchor="middle" x="370.5" y="-166.5" font-family="SegoeUI" font-size="10.00">Juniper.Widgets.Openable</text>
<polyline fill="none" stroke="black" points="306.5,-159.5 434.5,-159.5 "/>
<text text-anchor="start" x="314.5" y="-147.5" font-family="SegoeUI" font-size="10.00">+ payload</text>
<text text-anchor="start" x="314.5" y="-136.5" font-family="SegoeUI" font-size="10.00">+ Open</text>
<text text-anchor="start" x="314.5" y="-125.5" font-family="SegoeUI" font-size="10.00">+ OpenChanged</text>
<text text-anchor="start" x="314.5" y="-114.5" font-family="SegoeUI" font-size="10.00">+ Opened</text>
<text text-anchor="start" x="314.5" y="-103.5" font-family="SegoeUI" font-size="10.00">+ Closed</text>
<text text-anchor="start" x="314.5" y="-92.5" font-family="SegoeUI" font-size="10.00">&#45; stater</text>
<text text-anchor="start" x="314.5" y="-81.5" font-family="SegoeUI" font-size="10.00">&#45; wasOpen</text>
<polyline fill="none" stroke="black" points="306.5,-74.5 434.5,-74.5 "/>
<text text-anchor="start" x="314.5" y="-62.5" font-family="SegoeUI" font-size="10.00">+ SetOpen()</text>
<text text-anchor="start" x="314.5" y="-51.5" font-family="SegoeUI" font-size="10.00">+ ToggleOpen()</text>
<text text-anchor="start" x="314.5" y="-40.5" font-family="SegoeUI" font-size="10.00">+ OnPointerClick()</text>
<text text-anchor="start" x="314.5" y="-29.5" font-family="SegoeUI" font-size="10.00">+ Update()</text>
<text text-anchor="start" x="314.5" y="-18.5" font-family="SegoeUI" font-size="10.00"># LateUpdate()</text>
</a>
</g>
</g>
<!-- Node5&#45;&gt;Node6 -->
<g id="edge6" class="edge"><title>Node5&#45;&gt;Node6</title>
<path fill="none" stroke="midnightblue" d="M371.287,-358.847C371.129,-306.108 370.913,-234.087 370.748,-178.77"/>
<polygon fill="none" stroke="midnightblue" points="367.788,-359.138 371.318,-369.128 374.788,-359.117 367.788,-359.138"/>
</g>
<!-- Node7 -->
<g id="node8" class="node"><title>Node7</title>
<g id="a_node8"><a xlink:href="../../d2/da9/class_juniper_1_1_widgets_1_1_teleport_pad.html" target="_top" xlink:title=" ">
<polygon fill="white" stroke="black" points="452.5,-39 452.5,-151 592.5,-151 592.5,-39 452.5,-39"/>
<text text-anchor="middle" x="522.5" y="-139" font-family="SegoeUI" font-size="10.00">Juniper.Widgets.TeleportPad</text>
<polyline fill="none" stroke="black" points="452.5,-132 592.5,-132 "/>
<text text-anchor="start" x="460.5" y="-120" font-family="SegoeUI" font-size="10.00">&#45; userT</text>
<text text-anchor="start" x="460.5" y="-109" font-family="SegoeUI" font-size="10.00">&#45; user</text>
<text text-anchor="start" x="460.5" y="-98" font-family="SegoeUI" font-size="10.00">&#45; darth</text>
<text text-anchor="start" x="460.5" y="-87" font-family="SegoeUI" font-size="10.00">&#45; running</text>
<polyline fill="none" stroke="black" points="452.5,-80 592.5,-80 "/>
<text text-anchor="start" x="460.5" y="-68" font-family="SegoeUI" font-size="10.00">+ OnClick()</text>
<text text-anchor="start" x="460.5" y="-57" font-family="SegoeUI" font-size="10.00">&#45; Start()</text>
<text text-anchor="start" x="460.5" y="-46" font-family="SegoeUI" font-size="10.00">&#45; Darth_Entered()</text>
</a>
</g>
</g>
<!-- Node5&#45;&gt;Node7 -->
<g id="edge7" class="edge"><title>Node5&#45;&gt;Node7</title>
<path fill="none" stroke="midnightblue" d="M403.243,-359.787C431.321,-297.68 471.73,-208.3 497.549,-151.19"/>
<polygon fill="none" stroke="midnightblue" points="399.951,-358.574 399.02,-369.128 406.329,-361.457 399.951,-358.574"/>
</g>
</g>
</svg>
