<?xml version="1.0" encoding="UTF-8" standalone="no"?>
<!DOCTYPE svg PUBLIC "-//W3C//DTD SVG 1.1//EN"
 "http://www.w3.org/Graphics/SVG/1.1/DTD/svg11.dtd">
<!-- Generated by graphviz version 2.38.0 (20140413.2041)
 -->
<!-- Title: Juniper.Unity.Widgets.FollowMainCamera Pages: 1 -->
<!--zoomable 485 -->
<svg id="main" version="1.1" xmlns="http://www.w3.org/2000/svg" xmlns:xlink="http://www.w3.org/1999/xlink" xml:space="preserve" onload="init(evt)">
<style type="text/css"><![CDATA[
.edge:hover path { stroke: red; }
.edge:hover polygon { stroke: red; fill: red; }
]]></style>
<script type="text/javascript"><![CDATA[
var edges = document.getElementsByTagName('g');
if (edges && edges.length) {
  for (var i=0;i<edges.length;i++) {
    if (edges[i].id.substr(0,4)=='edge') {
      edges[i].setAttribute('class','edge');
    }
  }
}
]]></script>
        <defs>
                <circle id="rim" cx="0" cy="0" r="7"/>
                <circle id="rim2" cx="0" cy="0" r="3.5"/>
                <g id="zoomPlus">
                        <use xlink:href="#rim" fill="#404040">
                                <set attributeName="fill" to="#808080" begin="zoomplus.mouseover" end="zoomplus.mouseout"/>
                        </use>
                        <path d="M-4,0h8M0,-4v8" fill="none" stroke="white" stroke-width="1.5" pointer-events="none"/>
                </g>
                <g id="zoomMin">
                        <use xlink:href="#rim" fill="#404040">
                                <set attributeName="fill" to="#808080" begin="zoomminus.mouseover" end="zoomminus.mouseout"/>
                        </use>
                        <path d="M-4,0h8" fill="none" stroke="white" stroke-width="1.5" pointer-events="none"/>
                </g>
                <g id="dirArrow">
                        <path fill="none" stroke="white" stroke-width="1.5" d="M0,-3.0v7 M-2.5,-0.5L0,-3.0L2.5,-0.5"/>
                </g>
               <g id="resetDef">
                       <use xlink:href="#rim2" fill="#404040">
                               <set attributeName="fill" to="#808080" begin="reset.mouseover" end="reset.mouseout"/>
                       </use>
               </g>
        </defs>

<script type="text/javascript">
var viewWidth = 232;
var viewHeight = 485;
var sectionId = 'dynsection-1';
</script>
<script xlink:href="../../svgpan.js"/>
<svg id="graph" class="graph">
<g id="viewport">
<title>Juniper.Unity.Widgets.FollowMainCamera</title>
<polygon fill="white" stroke="none" points="-4,4 -4,-481 228,-481 228,4 -4,4"/>
<!-- Node2 -->
<g id="node1" class="node"><title>Node2</title>
<g id="a_node1"><a xlink:title=" ">
<polygon fill="#bfbfbf" stroke="black" points="0,-0.5 0,-79.5 140,-79.5 140,-0.5 0,-0.5"/>
<text text-anchor="start" x="8" y="-67.5" font-family="SegoeUI" font-size="10.00">Juniper.Unity.Widgets.Follow</text>
<text text-anchor="middle" x="70" y="-56.5" font-family="SegoeUI" font-size="10.00">MainCamera</text>
<polyline fill="none" stroke="black" points="0,-49.5 140,-49.5 "/>
<text text-anchor="start" x="8" y="-37.5" font-family="SegoeUI" font-size="10.00">+ followDistance</text>
<polyline fill="none" stroke="black" points="0,-30.5 140,-30.5 "/>
<text text-anchor="start" x="8" y="-18.5" font-family="SegoeUI" font-size="10.00">+ Awake()</text>
<text text-anchor="start" x="8" y="-7.5" font-family="SegoeUI" font-size="10.00">+ Start()</text>
</a>
</g>
</g>
<!-- Node3 -->
<g id="node2" class="node"><title>Node3</title>
<g id="a_node2"><a xlink:title=" ">
<polygon fill="white" stroke="#bfbfbf" points="0,-419.5 0,-476.5 82,-476.5 82,-419.5 0,-419.5"/>
<text text-anchor="middle" x="41" y="-464.5" font-family="SegoeUI" font-size="10.00">MonoBehaviour</text>
<polyline fill="none" stroke="#bfbfbf" points="0,-457.5 82,-457.5 "/>
<text text-anchor="middle" x="41" y="-445.5" font-family="SegoeUI" font-size="10.00"> </text>
<polyline fill="none" stroke="#bfbfbf" points="0,-438.5 82,-438.5 "/>
<text text-anchor="middle" x="41" y="-426.5" font-family="SegoeUI" font-size="10.00"> </text>
</a>
</g>
</g>
<!-- Node3&#45;&gt;Node2 -->
<g id="edge1" class="edge"><title>Node3&#45;&gt;Node2</title>
<path fill="none" stroke="midnightblue" d="M41.6716,-408.962C43.0086,-348.919 46.8115,-228.553 57,-127 58.5526,-111.525 60.9603,-94.5802 63.2837,-79.8543"/>
<polygon fill="none" stroke="midnightblue" points="38.1694,-409.036 41.4566,-419.108 45.1678,-409.184 38.1694,-409.036"/>
</g>
<!-- Node4 -->
<g id="node3" class="node"><title>Node4</title>
<g id="a_node3"><a xlink:href="../../df/d33/class_juniper_1_1_unity_1_1_widgets_1_1_follow_object.html" target="_top" xlink:title="Make one object&#39;s pose follow the pose of another object.">
<polygon fill="white" stroke="black" points="66,-127.5 66,-327.5 206,-327.5 206,-127.5 66,-127.5"/>
<text text-anchor="start" x="74" y="-315.5" font-family="SegoeUI" font-size="10.00">Juniper.Unity.Widgets.Follow</text>
<text text-anchor="middle" x="136" y="-304.5" font-family="SegoeUI" font-size="10.00">Object</text>
<polyline fill="none" stroke="black" points="66,-297.5 206,-297.5 "/>
<text text-anchor="start" x="74" y="-285.5" font-family="SegoeUI" font-size="10.00">+ followObject</text>
<text text-anchor="start" x="74" y="-274.5" font-family="SegoeUI" font-size="10.00">+ interpolate</text>
<text text-anchor="start" x="74" y="-263.5" font-family="SegoeUI" font-size="10.00">+ FollowPosition</text>
<text text-anchor="start" x="74" y="-252.5" font-family="SegoeUI" font-size="10.00">+ FollowThreshold</text>
<text text-anchor="start" x="74" y="-241.5" font-family="SegoeUI" font-size="10.00">+ maxSpeed</text>
<text text-anchor="start" x="74" y="-230.5" font-family="SegoeUI" font-size="10.00">+ Distance</text>
<text text-anchor="start" x="74" y="-219.5" font-family="SegoeUI" font-size="10.00">+ FollowRotation</text>
<text text-anchor="start" x="74" y="-208.5" font-family="SegoeUI" font-size="10.00">+ maxRotationRate</text>
<polyline fill="none" stroke="black" points="66,-201.5 206,-201.5 "/>
<text text-anchor="start" x="74" y="-189.5" font-family="SegoeUI" font-size="10.00">+ Start()</text>
<text text-anchor="start" x="74" y="-178.5" font-family="SegoeUI" font-size="10.00">+ SetTarget()</text>
<text text-anchor="start" x="74" y="-167.5" font-family="SegoeUI" font-size="10.00">+ Reparent()</text>
<text text-anchor="start" x="74" y="-156.5" font-family="SegoeUI" font-size="10.00">+ LateUpdate()</text>
<text text-anchor="start" x="74" y="-145.5" font-family="SegoeUI" font-size="10.00">&#45; GetEndPosition()</text>
<text text-anchor="start" x="74" y="-134.5" font-family="SegoeUI" font-size="10.00">&#45; GetEndRotationEuler()</text>
</a>
</g>
</g>
<!-- Node3&#45;&gt;Node4 -->
<g id="edge3" class="edge"><title>Node3&#45;&gt;Node4</title>
<path fill="none" stroke="midnightblue" d="M57.0564,-410.07C66.9437,-387.329 80.1311,-356.998 92.8921,-327.648"/>
<polygon fill="none" stroke="midnightblue" points="53.8094,-408.761 53.0318,-419.327 60.2289,-411.552 53.8094,-408.761"/>
</g>
<!-- Node4&#45;&gt;Node2 -->
<g id="edge2" class="edge"><title>Node4&#45;&gt;Node2</title>
<path fill="none" stroke="#404040" d="M100.681,-127.233C96.223,-114.703 91.8213,-102.331 87.804,-91.0401"/>
<polygon fill="none" stroke="#404040" points="87.7931,-91.0091 82.0132,-86.6971 83.7705,-79.7034 89.5503,-84.0154 87.7931,-91.0091"/>
<text text-anchor="middle" x="98" y="-101" font-family="SegoeUI" font-size="10.00"> &#45;f</text>
</g>
<!-- Node5 -->
<g id="node4" class="node"><title>Node5</title>
<g id="a_node4"><a xlink:title=" ">
<polygon fill="white" stroke="#bfbfbf" points="103,-419.5 103,-476.5 169,-476.5 169,-419.5 103,-419.5"/>
<text text-anchor="middle" x="136" y="-464.5" font-family="SegoeUI" font-size="10.00">UnityEngine</text>
<polyline fill="none" stroke="#bfbfbf" points="103,-457.5 169,-457.5 "/>
<text text-anchor="middle" x="136" y="-445.5" font-family="SegoeUI" font-size="10.00"> </text>
<polyline fill="none" stroke="#bfbfbf" points="103,-438.5 169,-438.5 "/>
<text text-anchor="middle" x="136" y="-426.5" font-family="SegoeUI" font-size="10.00"> </text>
</a>
</g>
</g>
<!-- Node5&#45;&gt;Node4 -->
<g id="edge4" class="edge"><title>Node5&#45;&gt;Node4</title>
<path fill="none" stroke="#404040" d="M136,-419.327C136,-398.838 136,-369.456 136,-339.867"/>
<polygon fill="none" stroke="#404040" points="136,-339.648 132,-333.648 136,-327.648 140,-333.648 136,-339.648"/>
<text text-anchor="middle" x="180" y="-393" font-family="SegoeUI" font-size="10.00"> &#45;targetRotationRate</text>
<text text-anchor="middle" x="180" y="-382" font-family="SegoeUI" font-size="10.00">&#45;targetVelocity</text>
<text text-anchor="middle" x="180" y="-371" font-family="SegoeUI" font-size="10.00">&#45;rotationRate</text>
<text text-anchor="middle" x="180" y="-360" font-family="SegoeUI" font-size="10.00">+RotationThreshold</text>
<text text-anchor="middle" x="180" y="-349" font-family="SegoeUI" font-size="10.00">&#45;velocity</text>
</g>
</g>
</svg>
        <g id="navigator" transform="translate(0 0)" fill="#404254">
                <rect fill="#f2f5e9" fill-opacity="0.5" stroke="#606060" stroke-width=".5" x="0" y="0" width="60" height="60"/>
                <use id="zoomplus" xlink:href="#zoomPlus" x="17" y="9" onmousedown="handleZoom(evt,'in')"/>
                <use id="zoomminus" xlink:href="#zoomMin" x="42" y="9" onmousedown="handleZoom(evt,'out')"/>
                <use id="reset" xlink:href="#resetDef" x="30" y="36" onmousedown="handleReset()"/>
                <g id="arrowUp" xlink:href="#dirArrow" transform="translate(30 24)" onmousedown="handlePan(0,-1)">
                  <use xlink:href="#rim" fill="#404040">
                        <set attributeName="fill" to="#808080" begin="arrowUp.mouseover" end="arrowUp.mouseout"/>
                  </use>
                  <path fill="none" stroke="white" stroke-width="1.5" d="M0,-3.0v7 M-2.5,-0.5L0,-3.0L2.5,-0.5"/>
                </g>
                <g id="arrowRight" xlink:href="#dirArrow" transform="rotate(90) translate(36 -43)" onmousedown="handlePan(1,0)">
                  <use xlink:href="#rim" fill="#404040">
                        <set attributeName="fill" to="#808080" begin="arrowRight.mouseover" end="arrowRight.mouseout"/>
                  </use>
                  <path fill="none" stroke="white" stroke-width="1.5" d="M0,-3.0v7 M-2.5,-0.5L0,-3.0L2.5,-0.5"/>
                </g>
                <g id="arrowDown" xlink:href="#dirArrow" transform="rotate(180) translate(-30 -48)" onmousedown="handlePan(0,1)">
                  <use xlink:href="#rim" fill="#404040">
                        <set attributeName="fill" to="#808080" begin="arrowDown.mouseover" end="arrowDown.mouseout"/>
                  </use>
                  <path fill="none" stroke="white" stroke-width="1.5" d="M0,-3.0v7 M-2.5,-0.5L0,-3.0L2.5,-0.5"/>
                </g>
                <g id="arrowLeft" xlink:href="#dirArrow" transform="rotate(270) translate(-36 17)" onmousedown="handlePan(-1,0)">
                  <use xlink:href="#rim" fill="#404040">
                        <set attributeName="fill" to="#808080" begin="arrowLeft.mouseover" end="arrowLeft.mouseout"/>
                  </use>
                  <path fill="none" stroke="white" stroke-width="1.5" d="M0,-3.0v7 M-2.5,-0.5L0,-3.0L2.5,-0.5"/>
                </g>
        </g>
        <svg viewBox="0 0 15 15" width="100%" height="30px" preserveAspectRatio="xMaxYMin meet">
         <g id="arrow_out" transform="scale(0.3 0.3)">
          <a xlink:href="class_juniper_1_1_unity_1_1_widgets_1_1_follow_main_camera__coll__graph_org.svg" target="_base">
           <rect id="button" ry="5" rx="5" y="6" x="6" height="38" width="38"
                fill="#f2f5e9" fill-opacity="0.5" stroke="#606060" stroke-width="1.0"/>
           <path id="arrow"
             d="M 11.500037,31.436501 C 11.940474,20.09759 22.043105,11.32322 32.158766,21.979434 L 37.068811,17.246167 C 37.068811,17.246167 37.088388,32 37.088388,32 L 22.160133,31.978069 C 22.160133,31.978069 26.997745,27.140456 26.997745,27.140456 C 18.528582,18.264221 13.291696,25.230495 11.500037,31.436501 z"
             style="fill:#404040;"/>
          </a>
         </g>
        </svg>
</svg>
