<?xml version="1.0" encoding="UTF-8" standalone="no"?>
<!DOCTYPE svg PUBLIC "-//W3C//DTD SVG 1.1//EN"
 "http://www.w3.org/Graphics/SVG/1.1/DTD/svg11.dtd">
<!-- Generated by graphviz version 2.38.0 (20140413.2041)
 -->
<!-- Title: Juniper.Progress.IProgress Pages: 1 -->
<svg width="139pt" height="171pt"
 viewBox="0.00 0.00 139.00 171.00" xmlns="http://www.w3.org/2000/svg" xmlns:xlink="http://www.w3.org/1999/xlink">
<g id="graph0" class="graph" transform="scale(1 1) rotate(0) translate(4 167)">
<title>Juniper.Progress.IProgress</title>
<polygon fill="white" stroke="none" points="-4,4 -4,-167 135,-167 135,4 -4,4"/>
<!-- Node5 -->
<g id="node1" class="node"><title>Node5</title>
<g id="a_node1"><a xlink:title="Progress reporting interface for asynchronous operations.">
<polygon fill="#bfbfbf" stroke="black" points="0,-0.5 0,-57.5 131,-57.5 131,-0.5 0,-0.5"/>
<text text-anchor="middle" x="65.5" y="-45.5" font-family="SegoeUI" font-size="10.00">Juniper.Progress.IProgress</text>
<polyline fill="none" stroke="black" points="0,-38.5 131,-38.5 "/>
<text text-anchor="start" x="8" y="-26.5" font-family="SegoeUI" font-size="10.00">+ Progress</text>
<polyline fill="none" stroke="black" points="0,-19.5 131,-19.5 "/>
<text text-anchor="start" x="8" y="-7.5" font-family="SegoeUI" font-size="10.00">+ Report()</text>
</a>
</g>
</g>
<!-- Node6 -->
<g id="node2" class="node"><title>Node6</title>
<g id="a_node2"><a xlink:title=" ">
<polygon fill="white" stroke="#bfbfbf" points="14,-94.5 14,-162.5 117,-162.5 117,-94.5 14,-94.5"/>
<text text-anchor="start" x="22" y="-150.5" font-family="SegoeUI" font-size="10.00">System::IProgress&lt;</text>
<text text-anchor="middle" x="65.5" y="-139.5" font-family="SegoeUI" font-size="10.00"> float &gt;</text>
<polyline fill="none" stroke="#bfbfbf" points="14,-132.5 117,-132.5 "/>
<text text-anchor="middle" x="65.5" y="-120.5" font-family="SegoeUI" font-size="10.00"> </text>
<polyline fill="none" stroke="#bfbfbf" points="14,-113.5 117,-113.5 "/>
<text text-anchor="middle" x="65.5" y="-101.5" font-family="SegoeUI" font-size="10.00"> </text>
</a>
</g>
</g>
<!-- Node6&#45;&gt;Node5 -->
<g id="edge1" class="edge"><title>Node6&#45;&gt;Node5</title>
<path fill="none" stroke="midnightblue" d="M65.5,-84.4538C65.5,-75.4036 65.5,-66.0876 65.5,-57.7765"/>
<polygon fill="none" stroke="midnightblue" points="62.0001,-84.4909 65.5,-94.4909 69.0001,-84.491 62.0001,-84.4909"/>
</g>
</g>
</svg>
