<?xml version="1.0" encoding="UTF-8" standalone="no"?>
<!DOCTYPE svg PUBLIC "-//W3C//DTD SVG 1.1//EN"
 "http://www.w3.org/Graphics/SVG/1.1/DTD/svg11.dtd">
<!-- Generated by graphviz version 2.38.0 (20140413.2041)
 -->
<!-- Title: Juniper.ConfigurationManagement.PackageReference Pages: 1 -->
<svg width="356pt" height="391pt"
 viewBox="0.00 0.00 356.00 391.00" xmlns="http://www.w3.org/2000/svg" xmlns:xlink="http://www.w3.org/1999/xlink">
<g id="graph0" class="graph" transform="scale(1 1) rotate(0) translate(4 387)">
<title>Juniper.ConfigurationManagement.PackageReference</title>
<polygon fill="white" stroke="none" points="-4,4 -4,-387 352,-387 352,4 -4,4"/>
<!-- Node8 -->
<g id="node1" class="node"><title>Node8</title>
<g id="a_node1"><a xlink:title=" ">
<polygon fill="#bfbfbf" stroke="black" points="81.5,-0.5 81.5,-288.5 260.5,-288.5 260.5,-0.5 81.5,-0.5"/>
<text text-anchor="start" x="89.5" y="-276.5" font-family="SegoeUI" font-size="10.00">Juniper.ConfigurationManagement.</text>
<text text-anchor="middle" x="171" y="-265.5" font-family="SegoeUI" font-size="10.00">PackageReference</text>
<polyline fill="none" stroke="black" points="81.5,-258.5 260.5,-258.5 "/>
<text text-anchor="start" x="89.5" y="-246.5" font-family="SegoeUI" font-size="10.00">+ Name</text>
<text text-anchor="start" x="89.5" y="-235.5" font-family="SegoeUI" font-size="10.00">+ ForRemoval</text>
<text text-anchor="start" x="89.5" y="-224.5" font-family="SegoeUI" font-size="10.00">+ Source</text>
<text text-anchor="start" x="89.5" y="-213.5" font-family="SegoeUI" font-size="10.00">+ PackageID</text>
<text text-anchor="start" x="89.5" y="-202.5" font-family="SegoeUI" font-size="10.00">+ VersionSpec</text>
<text text-anchor="start" x="89.5" y="-191.5" font-family="SegoeUI" font-size="10.00">+ Version</text>
<text text-anchor="start" x="89.5" y="-180.5" font-family="SegoeUI" font-size="10.00">+ PackageSpec</text>
<polyline fill="none" stroke="black" points="81.5,-173.5 260.5,-173.5 "/>
<text text-anchor="start" x="89.5" y="-161.5" font-family="SegoeUI" font-size="10.00">+ PackageReference()</text>
<text text-anchor="start" x="89.5" y="-150.5" font-family="SegoeUI" font-size="10.00">+ Equals()</text>
<text text-anchor="start" x="89.5" y="-139.5" font-family="SegoeUI" font-size="10.00">+ Equals()</text>
<text text-anchor="start" x="89.5" y="-128.5" font-family="SegoeUI" font-size="10.00">+ GetHashCode()</text>
<text text-anchor="start" x="89.5" y="-117.5" font-family="SegoeUI" font-size="10.00">+ ToString()</text>
<text text-anchor="start" x="89.5" y="-106.5" font-family="SegoeUI" font-size="10.00">+ CompareTo()</text>
<text text-anchor="start" x="89.5" y="-95.5" font-family="SegoeUI" font-size="10.00">+ FormatUnityPackageManagerSpec()</text>
<text text-anchor="start" x="89.5" y="-84.5" font-family="SegoeUI" font-size="10.00">+ operator==()</text>
<text text-anchor="start" x="89.5" y="-73.5" font-family="SegoeUI" font-size="10.00">+ operator !=()</text>
<text text-anchor="start" x="89.5" y="-62.5" font-family="SegoeUI" font-size="10.00">+ operator&lt;()</text>
<text text-anchor="start" x="89.5" y="-51.5" font-family="SegoeUI" font-size="10.00">+ operator&lt;=()</text>
<text text-anchor="start" x="89.5" y="-40.5" font-family="SegoeUI" font-size="10.00">+ operator &gt;()</text>
<text text-anchor="start" x="89.5" y="-29.5" font-family="SegoeUI" font-size="10.00">+ operator &gt;=()</text>
<text text-anchor="start" x="89.5" y="-18.5" font-family="SegoeUI" font-size="10.00"># PackageReference()</text>
<text text-anchor="start" x="89.5" y="-7.5" font-family="SegoeUI" font-size="10.00">&#45; InferSource()</text>
</a>
</g>
</g>
<!-- Node9 -->
<g id="node2" class="node"><title>Node9</title>
<g id="a_node2"><a xlink:title=" ">
<polygon fill="white" stroke="#bfbfbf" points="0,-325.5 0,-382.5 160,-382.5 160,-325.5 0,-325.5"/>
<text text-anchor="middle" x="80" y="-370.5" font-family="SegoeUI" font-size="10.00">IEquatable&lt; PackageReference &gt;</text>
<polyline fill="none" stroke="#bfbfbf" points="0,-363.5 160,-363.5 "/>
<text text-anchor="middle" x="80" y="-351.5" font-family="SegoeUI" font-size="10.00"> </text>
<polyline fill="none" stroke="#bfbfbf" points="0,-344.5 160,-344.5 "/>
<text text-anchor="middle" x="80" y="-332.5" font-family="SegoeUI" font-size="10.00"> </text>
</a>
</g>
</g>
<!-- Node9&#45;&gt;Node8 -->
<g id="edge1" class="edge"><title>Node9&#45;&gt;Node8</title>
<path fill="none" stroke="midnightblue" d="M96.1424,-316.192C99.7802,-307.897 103.855,-298.605 108.175,-288.756"/>
<polygon fill="none" stroke="midnightblue" points="92.8951,-314.882 92.0841,-325.446 99.3058,-317.693 92.8951,-314.882"/>
</g>
<!-- Node10 -->
<g id="node3" class="node"><title>Node10</title>
<g id="a_node3"><a xlink:title=" ">
<polygon fill="white" stroke="#bfbfbf" points="178,-325.5 178,-382.5 348,-382.5 348,-325.5 178,-325.5"/>
<text text-anchor="middle" x="263" y="-370.5" font-family="SegoeUI" font-size="10.00">IComparable&lt; PackageReference &gt;</text>
<polyline fill="none" stroke="#bfbfbf" points="178,-363.5 348,-363.5 "/>
<text text-anchor="middle" x="263" y="-351.5" font-family="SegoeUI" font-size="10.00"> </text>
<polyline fill="none" stroke="#bfbfbf" points="178,-344.5 348,-344.5 "/>
<text text-anchor="middle" x="263" y="-332.5" font-family="SegoeUI" font-size="10.00"> </text>
</a>
</g>
</g>
<!-- Node10&#45;&gt;Node8 -->
<g id="edge2" class="edge"><title>Node10&#45;&gt;Node8</title>
<path fill="none" stroke="midnightblue" d="M246.68,-316.192C243.002,-307.897 238.883,-298.605 234.516,-288.756"/>
<polygon fill="none" stroke="midnightblue" points="243.53,-317.722 250.783,-325.446 249.929,-314.885 243.53,-317.722"/>
</g>
</g>
</svg>
