<?xml version="1.0" encoding="UTF-8" standalone="no"?>
<!DOCTYPE svg PUBLIC "-//W3C//DTD SVG 1.1//EN"
 "http://www.w3.org/Graphics/SVG/1.1/DTD/svg11.dtd">
<!-- Generated by graphviz version 2.38.0 (20140413.2041)
 -->
<!-- Title: Juniper.Unity.Input.Pointers.ButtonMapper&lt; ButtonIDType &gt; Pages: 1 -->
<svg width="400pt" height="413pt"
 viewBox="0.00 0.00 400.00 413.00" xmlns="http://www.w3.org/2000/svg" xmlns:xlink="http://www.w3.org/1999/xlink">
<g id="graph0" class="graph" transform="scale(1 1) rotate(0) translate(4 409)">
<title>Juniper.Unity.Input.Pointers.ButtonMapper&lt; ButtonIDType &gt;</title>
<polygon fill="white" stroke="none" points="-4,4 -4,-409 396,-409 396,4 -4,4"/>
<!-- Node0 -->
<g id="node1" class="node"><title>Node0</title>
<g id="a_node1"><a xlink:title=" ">
<polygon fill="#bfbfbf" stroke="black" points="114,-226.5 114,-404.5 272,-404.5 272,-226.5 114,-226.5"/>
<text text-anchor="start" x="122" y="-392.5" font-family="SegoeUI" font-size="10.00">Juniper.Unity.Input.Pointers.</text>
<text text-anchor="middle" x="193" y="-381.5" font-family="SegoeUI" font-size="10.00">ButtonMapper&lt; ButtonIDType &gt;</text>
<polyline fill="none" stroke="black" points="114,-374.5 272,-374.5 "/>
<text text-anchor="start" x="122" y="-362.5" font-family="SegoeUI" font-size="10.00">+ IsDragging</text>
<text text-anchor="start" x="122" y="-351.5" font-family="SegoeUI" font-size="10.00">&#45; buttons</text>
<polyline fill="none" stroke="black" points="114,-344.5 272,-344.5 "/>
<text text-anchor="start" x="122" y="-332.5" font-family="SegoeUI" font-size="10.00">+ Install()</text>
<text text-anchor="start" x="122" y="-321.5" font-family="SegoeUI" font-size="10.00">+ IsButtonDown()</text>
<text text-anchor="start" x="122" y="-310.5" font-family="SegoeUI" font-size="10.00">+ IsButtonUp()</text>
<text text-anchor="start" x="122" y="-299.5" font-family="SegoeUI" font-size="10.00">+ IsButtonPressed()</text>
<text text-anchor="start" x="122" y="-288.5" font-family="SegoeUI" font-size="10.00">+ Process()</text>
<text text-anchor="start" x="122" y="-277.5" font-family="SegoeUI" font-size="10.00">&#45; OnButtonDownNeeded()</text>
<text text-anchor="start" x="122" y="-266.5" font-family="SegoeUI" font-size="10.00">&#45; OnButtonUpNeeded()</text>
<text text-anchor="start" x="122" y="-255.5" font-family="SegoeUI" font-size="10.00">&#45; OnButtonPressedNeeded()</text>
<text text-anchor="start" x="122" y="-244.5" font-family="SegoeUI" font-size="10.00">&#45; OnClonedPointerEventNeeded()</text>
<text text-anchor="start" x="122" y="-233.5" font-family="SegoeUI" font-size="10.00">&#45; FindMappedButton()</text>
</a>
</g>
</g>
<!-- Node1 -->
<g id="node2" class="node"><title>Node1</title>
<g id="a_node2"><a xlink:href="../../d4/da3/class_juniper_1_1_unity_1_1_input_1_1_pointers_1_1_button_mapper.html" target="_top" xlink:title=" ">
<polygon fill="white" stroke="black" points="0,-0.5 0,-178.5 182,-178.5 182,-0.5 0,-0.5"/>
<text text-anchor="start" x="8" y="-166.5" font-family="SegoeUI" font-size="10.00">Juniper.Unity.Input.Pointers.</text>
<text text-anchor="middle" x="91" y="-155.5" font-family="SegoeUI" font-size="10.00">ButtonMapper&lt; VirtualTriggerButton &gt;</text>
<polyline fill="none" stroke="black" points="0,-148.5 182,-148.5 "/>
<text text-anchor="start" x="8" y="-136.5" font-family="SegoeUI" font-size="10.00">+ IsDragging</text>
<text text-anchor="start" x="8" y="-125.5" font-family="SegoeUI" font-size="10.00">&#45; buttons</text>
<polyline fill="none" stroke="black" points="0,-118.5 182,-118.5 "/>
<text text-anchor="start" x="8" y="-106.5" font-family="SegoeUI" font-size="10.00">+ Install()</text>
<text text-anchor="start" x="8" y="-95.5" font-family="SegoeUI" font-size="10.00">+ IsButtonDown()</text>
<text text-anchor="start" x="8" y="-84.5" font-family="SegoeUI" font-size="10.00">+ IsButtonUp()</text>
<text text-anchor="start" x="8" y="-73.5" font-family="SegoeUI" font-size="10.00">+ IsButtonPressed()</text>
<text text-anchor="start" x="8" y="-62.5" font-family="SegoeUI" font-size="10.00">+ Process()</text>
<text text-anchor="start" x="8" y="-51.5" font-family="SegoeUI" font-size="10.00">&#45; OnButtonDownNeeded()</text>
<text text-anchor="start" x="8" y="-40.5" font-family="SegoeUI" font-size="10.00">&#45; OnButtonUpNeeded()</text>
<text text-anchor="start" x="8" y="-29.5" font-family="SegoeUI" font-size="10.00">&#45; OnButtonPressedNeeded()</text>
<text text-anchor="start" x="8" y="-18.5" font-family="SegoeUI" font-size="10.00">&#45; OnClonedPointerEventNeeded()</text>
<text text-anchor="start" x="8" y="-7.5" font-family="SegoeUI" font-size="10.00">&#45; FindMappedButton()</text>
</a>
</g>
</g>
<!-- Node0&#45;&gt;Node1 -->
<g id="edge1" class="edge"><title>Node0&#45;&gt;Node1</title>
<path fill="none" stroke="orange" d="M148.623,-217.044C142.805,-204.269 136.871,-191.237 131.13,-178.629"/>
<polygon fill="orange" stroke="orange" points="145.504,-218.64 152.833,-226.291 151.874,-215.739 145.504,-218.64"/>
<text text-anchor="middle" x="196.5" y="-200" font-family="SegoeUI" font-size="10.00"> &lt; VirtualTriggerButton &gt;</text>
</g>
<!-- Node2 -->
<g id="node3" class="node"><title>Node2</title>
<g id="a_node3"><a xlink:href="../../d4/da3/class_juniper_1_1_unity_1_1_input_1_1_pointers_1_1_button_mapper.html" target="_top" xlink:title=" ">
<polygon fill="white" stroke="black" points="200,-0.5 200,-178.5 392,-178.5 392,-0.5 200,-0.5"/>
<text text-anchor="start" x="208" y="-166.5" font-family="SegoeUI" font-size="10.00">Juniper.Unity.Input.Pointers.</text>
<text text-anchor="middle" x="296" y="-155.5" font-family="SegoeUI" font-size="10.00">ButtonMapper&lt; VirtualTouchPadButton &gt;</text>
<polyline fill="none" stroke="black" points="200,-148.5 392,-148.5 "/>
<text text-anchor="start" x="208" y="-136.5" font-family="SegoeUI" font-size="10.00">+ IsDragging</text>
<text text-anchor="start" x="208" y="-125.5" font-family="SegoeUI" font-size="10.00">&#45; buttons</text>
<polyline fill="none" stroke="black" points="200,-118.5 392,-118.5 "/>
<text text-anchor="start" x="208" y="-106.5" font-family="SegoeUI" font-size="10.00">+ Install()</text>
<text text-anchor="start" x="208" y="-95.5" font-family="SegoeUI" font-size="10.00">+ IsButtonDown()</text>
<text text-anchor="start" x="208" y="-84.5" font-family="SegoeUI" font-size="10.00">+ IsButtonUp()</text>
<text text-anchor="start" x="208" y="-73.5" font-family="SegoeUI" font-size="10.00">+ IsButtonPressed()</text>
<text text-anchor="start" x="208" y="-62.5" font-family="SegoeUI" font-size="10.00">+ Process()</text>
<text text-anchor="start" x="208" y="-51.5" font-family="SegoeUI" font-size="10.00">&#45; OnButtonDownNeeded()</text>
<text text-anchor="start" x="208" y="-40.5" font-family="SegoeUI" font-size="10.00">&#45; OnButtonUpNeeded()</text>
<text text-anchor="start" x="208" y="-29.5" font-family="SegoeUI" font-size="10.00">&#45; OnButtonPressedNeeded()</text>
<text text-anchor="start" x="208" y="-18.5" font-family="SegoeUI" font-size="10.00">&#45; OnClonedPointerEventNeeded()</text>
<text text-anchor="start" x="208" y="-7.5" font-family="SegoeUI" font-size="10.00">&#45; FindMappedButton()</text>
</a>
</g>
</g>
<!-- Node0&#45;&gt;Node2 -->
<g id="edge2" class="edge"><title>Node0&#45;&gt;Node2</title>
<path fill="none" stroke="orange" d="M250.674,-217.1C252.167,-214.05 253.613,-211.012 255,-208 259.337,-198.58 263.489,-188.561 267.373,-178.5"/>
<polygon fill="orange" stroke="orange" points="247.429,-215.761 246.065,-226.268 253.683,-218.905 247.429,-215.761"/>
<text text-anchor="middle" x="319" y="-200" font-family="SegoeUI" font-size="10.00"> &lt; VirtualTouchPadButton &gt;</text>
</g>
</g>
</svg>
