<?xml version="1.0" encoding="UTF-8" standalone="no"?>
<!DOCTYPE svg PUBLIC "-//W3C//DTD SVG 1.1//EN"
 "http://www.w3.org/Graphics/SVG/1.1/DTD/svg11.dtd">
<!-- Generated by graphviz version 2.38.0 (20140413.2041)
 -->
<!-- Title: Juniper.Permissions.AbstractPermissionHandler Pages: 1 -->
<svg width="320pt" height="331pt"
 viewBox="0.00 0.00 320.00 331.00" xmlns="http://www.w3.org/2000/svg" xmlns:xlink="http://www.w3.org/1999/xlink">
<g id="graph0" class="graph" transform="scale(1 1) rotate(0) translate(4 327)">
<title>Juniper.Permissions.AbstractPermissionHandler</title>
<polygon fill="white" stroke="none" points="-4,4 -4,-327 316,-327 316,4 -4,4"/>
<!-- Node0 -->
<g id="node1" class="node"><title>Node0</title>
<g id="a_node1"><a xlink:title="Perform system&#45;specific authorization requests, such as GPS on Android, or Microphone on iOS.">
<polygon fill="#bfbfbf" stroke="black" points="87.5,-105.5 87.5,-206.5 227.5,-206.5 227.5,-105.5 87.5,-105.5"/>
<text text-anchor="start" x="95.5" y="-194.5" font-family="SegoeUI" font-size="10.00">Juniper.Permissions.Abstract</text>
<text text-anchor="middle" x="157.5" y="-183.5" font-family="SegoeUI" font-size="10.00">PermissionHandler</text>
<polyline fill="none" stroke="black" points="87.5,-176.5 227.5,-176.5 "/>
<text text-anchor="middle" x="157.5" y="-164.5" font-family="SegoeUI" font-size="10.00"> </text>
<polyline fill="none" stroke="black" points="87.5,-157.5 227.5,-157.5 "/>
<text text-anchor="start" x="95.5" y="-145.5" font-family="SegoeUI" font-size="10.00">+ Awake()</text>
<text text-anchor="start" x="95.5" y="-134.5" font-family="SegoeUI" font-size="10.00">+ Reinstall()</text>
<text text-anchor="start" x="95.5" y="-123.5" font-family="SegoeUI" font-size="10.00">+ Install()</text>
<text text-anchor="start" x="95.5" y="-112.5" font-family="SegoeUI" font-size="10.00">+ Uninstall()</text>
</a>
</g>
</g>
<!-- Node3 -->
<g id="node4" class="node"><title>Node3</title>
<g id="a_node4"><a xlink:href="../../d0/d61/class_juniper_1_1_permissions_1_1_permission_handler.html" target="_top" xlink:title=" ">
<polygon fill="white" stroke="black" points="0,-0.5 0,-68.5 151,-68.5 151,-0.5 0,-0.5"/>
<text text-anchor="start" x="8" y="-56.5" font-family="SegoeUI" font-size="10.00">Juniper.Permissions.Permission</text>
<text text-anchor="middle" x="75.5" y="-45.5" font-family="SegoeUI" font-size="10.00">Handler</text>
<polyline fill="none" stroke="black" points="0,-38.5 151,-38.5 "/>
<text text-anchor="middle" x="75.5" y="-26.5" font-family="SegoeUI" font-size="10.00"> </text>
<polyline fill="none" stroke="black" points="0,-19.5 151,-19.5 "/>
<text text-anchor="middle" x="75.5" y="-7.5" font-family="SegoeUI" font-size="10.00"> </text>
</a>
</g>
</g>
<!-- Node0&#45;&gt;Node3 -->
<g id="edge3" class="edge"><title>Node0&#45;&gt;Node3</title>
<path fill="none" stroke="midnightblue" d="M117.65,-96.9254C111.033,-87.2823 104.376,-77.5809 98.3688,-68.8271"/>
<polygon fill="none" stroke="midnightblue" points="114.893,-99.0942 123.437,-105.359 120.665,-95.1336 114.893,-99.0942"/>
</g>
<!-- Node4 -->
<g id="node5" class="node"><title>Node4</title>
<g id="a_node5"><a xlink:href="../../df/dba/class_juniper_1_1_permissions_1_1_windows_m_r_permission_handler.html" target="_top" xlink:title=" ">
<polygon fill="white" stroke="black" points="169,-0.5 169,-68.5 312,-68.5 312,-0.5 169,-0.5"/>
<text text-anchor="start" x="177" y="-56.5" font-family="SegoeUI" font-size="10.00">Juniper.Permissions.Windows</text>
<text text-anchor="middle" x="240.5" y="-45.5" font-family="SegoeUI" font-size="10.00">MRPermissionHandler</text>
<polyline fill="none" stroke="black" points="169,-38.5 312,-38.5 "/>
<text text-anchor="middle" x="240.5" y="-26.5" font-family="SegoeUI" font-size="10.00"> </text>
<polyline fill="none" stroke="black" points="169,-19.5 312,-19.5 "/>
<text text-anchor="start" x="177" y="-7.5" font-family="SegoeUI" font-size="10.00">+ Install()</text>
</a>
</g>
</g>
<!-- Node0&#45;&gt;Node4 -->
<g id="edge4" class="edge"><title>Node0&#45;&gt;Node4</title>
<path fill="none" stroke="midnightblue" d="M197.836,-96.9254C204.534,-87.2823 211.272,-77.5809 217.352,-68.8271"/>
<polygon fill="none" stroke="midnightblue" points="194.808,-95.1495 191.978,-105.359 200.558,-99.1428 194.808,-95.1495"/>
</g>
<!-- Node1 -->
<g id="node2" class="node"><title>Node1</title>
<g id="a_node2"><a xlink:title=" ">
<polygon fill="white" stroke="#bfbfbf" points="69.5,-254.5 69.5,-311.5 151.5,-311.5 151.5,-254.5 69.5,-254.5"/>
<text text-anchor="middle" x="110.5" y="-299.5" font-family="SegoeUI" font-size="10.00">MonoBehaviour</text>
<polyline fill="none" stroke="#bfbfbf" points="69.5,-292.5 151.5,-292.5 "/>
<text text-anchor="middle" x="110.5" y="-280.5" font-family="SegoeUI" font-size="10.00"> </text>
<polyline fill="none" stroke="#bfbfbf" points="69.5,-273.5 151.5,-273.5 "/>
<text text-anchor="middle" x="110.5" y="-261.5" font-family="SegoeUI" font-size="10.00"> </text>
</a>
</g>
</g>
<!-- Node1&#45;&gt;Node0 -->
<g id="edge1" class="edge"><title>Node1&#45;&gt;Node0</title>
<path fill="none" stroke="midnightblue" d="M124.539,-244.663C129.009,-232.774 134.027,-219.427 138.775,-206.802"/>
<polygon fill="none" stroke="midnightblue" points="121.174,-243.666 120.931,-254.258 127.726,-246.13 121.174,-243.666"/>
</g>
<!-- Node2 -->
<g id="node3" class="node"><title>Node2</title>
<g id="a_node3"><a xlink:href="../../db/d28/interface_juniper_1_1_i_installable.html" target="_top" xlink:title="Defines an interface for objects that can be installed and have their installation progress tracked.">
<polygon fill="white" stroke="black" points="170,-243.5 170,-322.5 239,-322.5 239,-243.5 170,-243.5"/>
<text text-anchor="middle" x="204.5" y="-310.5" font-family="SegoeUI" font-size="10.00">IInstallable</text>
<polyline fill="none" stroke="black" points="170,-303.5 239,-303.5 "/>
<text text-anchor="middle" x="204.5" y="-291.5" font-family="SegoeUI" font-size="10.00"> </text>
<polyline fill="none" stroke="black" points="170,-284.5 239,-284.5 "/>
<text text-anchor="start" x="178" y="-272.5" font-family="SegoeUI" font-size="10.00">+ Install()</text>
<text text-anchor="start" x="178" y="-261.5" font-family="SegoeUI" font-size="10.00">+ Reinstall()</text>
<text text-anchor="start" x="178" y="-250.5" font-family="SegoeUI" font-size="10.00">+ Uninstall()</text>
</a>
</g>
</g>
<!-- Node2&#45;&gt;Node0 -->
<g id="edge2" class="edge"><title>Node2&#45;&gt;Node0</title>
<path fill="none" stroke="midnightblue" d="M186.443,-233.977C183.082,-225.037 179.563,-215.679 176.184,-206.691"/>
<polygon fill="none" stroke="midnightblue" points="183.219,-235.348 190.015,-243.476 189.772,-232.884 183.219,-235.348"/>
</g>
</g>
</svg>
