<?xml version="1.0" encoding="UTF-8" standalone="no"?>
<!DOCTYPE svg PUBLIC "-//W3C//DTD SVG 1.1//EN"
 "http://www.w3.org/Graphics/SVG/1.1/DTD/svg11.dtd">
<!-- Generated by graphviz version 2.38.0 (20140413.2041)
 -->
<!-- Title: Juniper.Input.Pointers.AbstractPointerConfiguration&lt; ButtonIDType &gt; Pages: 1 -->
<!--zoomable 730 -->
<svg id="main" version="1.1" xmlns="http://www.w3.org/2000/svg" xmlns:xlink="http://www.w3.org/1999/xlink" xml:space="preserve" onload="init(evt)">
<style type="text/css"><![CDATA[
.edge:hover path { stroke: red; }
.edge:hover polygon { stroke: red; fill: red; }
]]></style>
<script type="text/javascript"><![CDATA[
var edges = document.getElementsByTagName('g');
if (edges && edges.length) {
  for (var i=0;i<edges.length;i++) {
    if (edges[i].id.substr(0,4)=='edge') {
      edges[i].setAttribute('class','edge');
    }
  }
}
]]></script>
        <defs>
                <circle id="rim" cx="0" cy="0" r="7"/>
                <circle id="rim2" cx="0" cy="0" r="3.5"/>
                <g id="zoomPlus">
                        <use xlink:href="#rim" fill="#404040">
                                <set attributeName="fill" to="#808080" begin="zoomplus.mouseover" end="zoomplus.mouseout"/>
                        </use>
                        <path d="M-4,0h8M0,-4v8" fill="none" stroke="white" stroke-width="1.5" pointer-events="none"/>
                </g>
                <g id="zoomMin">
                        <use xlink:href="#rim" fill="#404040">
                                <set attributeName="fill" to="#808080" begin="zoomminus.mouseover" end="zoomminus.mouseout"/>
                        </use>
                        <path d="M-4,0h8" fill="none" stroke="white" stroke-width="1.5" pointer-events="none"/>
                </g>
                <g id="dirArrow">
                        <path fill="none" stroke="white" stroke-width="1.5" d="M0,-3.0v7 M-2.5,-0.5L0,-3.0L2.5,-0.5"/>
                </g>
               <g id="resetDef">
                       <use xlink:href="#rim2" fill="#404040">
                               <set attributeName="fill" to="#808080" begin="reset.mouseover" end="reset.mouseout"/>
                       </use>
               </g>
        </defs>

<script type="text/javascript">
var viewWidth = 1060;
var viewHeight = 730;
var sectionId = 'dynsection-0';
</script>
<script xlink:href="../../svgpan.js"/>
<svg id="graph" class="graph">
<g id="viewport">
<title>Juniper.Input.Pointers.AbstractPointerConfiguration&lt; ButtonIDType &gt;</title>
<polygon fill="white" stroke="none" points="-4,4 -4,-726 1056,-726 1056,4 -4,4"/>
<!-- Node0 -->
<g id="node1" class="node"><title>Node0</title>
<g id="a_node1"><a xlink:title=" ">
<polygon fill="#bfbfbf" stroke="black" points="582,-631.5 582,-721.5 762,-721.5 762,-631.5 582,-631.5"/>
<text text-anchor="start" x="590" y="-709.5" font-family="SegoeUI" font-size="10.00">Juniper.Input.Pointers.Abstract</text>
<text text-anchor="middle" x="672" y="-698.5" font-family="SegoeUI" font-size="10.00">PointerConfiguration&lt; ButtonIDType &gt;</text>
<polyline fill="none" stroke="black" points="582,-691.5 762,-691.5 "/>
<text text-anchor="start" x="590" y="-679.5" font-family="SegoeUI" font-size="10.00">&#45; nativeButtons</text>
<polyline fill="none" stroke="black" points="582,-672.5 762,-672.5 "/>
<text text-anchor="start" x="590" y="-660.5" font-family="SegoeUI" font-size="10.00">+ Install()</text>
<text text-anchor="start" x="590" y="-649.5" font-family="SegoeUI" font-size="10.00">+ Uninstall()</text>
<text text-anchor="start" x="590" y="-638.5" font-family="SegoeUI" font-size="10.00"># AddButton()</text>
</a>
</g>
</g>
<!-- Node1 -->
<g id="node2" class="node"><title>Node1</title>
<g id="a_node2"><a xlink:href="../../d0/d65/class_juniper_1_1_input_1_1_pointers_1_1_motion_1_1_abstract_handed_pointer_configuration.html" target="_top" xlink:title=" ">
<polygon fill="white" stroke="black" points="402,-482.5 402,-583.5 560,-583.5 560,-482.5 402,-482.5"/>
<text text-anchor="start" x="410" y="-571.5" font-family="SegoeUI" font-size="10.00">Juniper::Input::Pointers</text>
<text text-anchor="start" x="410" y="-560.5" font-family="SegoeUI" font-size="10.00">::Motion::AbstractHandedPointer</text>
<text text-anchor="middle" x="481" y="-549.5" font-family="SegoeUI" font-size="10.00">Configuration&lt; ButtonIDType &gt;</text>
<polyline fill="none" stroke="black" points="402,-542.5 560,-542.5 "/>
<text text-anchor="start" x="410" y="-530.5" font-family="SegoeUI" font-size="10.00">+ HandType</text>
<text text-anchor="start" x="410" y="-519.5" font-family="SegoeUI" font-size="10.00">+ PointerNameStub</text>
<text text-anchor="start" x="410" y="-508.5" font-family="SegoeUI" font-size="10.00">+ this[Hands hand]</text>
<polyline fill="none" stroke="black" points="402,-501.5 560,-501.5 "/>
<text text-anchor="start" x="410" y="-489.5" font-family="SegoeUI" font-size="10.00">+ MakePointerName()</text>
</a>
</g>
</g>
<!-- Node0&#45;&gt;Node1 -->
<g id="edge1" class="edge"><title>Node0&#45;&gt;Node1</title>
<path fill="none" stroke="midnightblue" d="M604.071,-625.176C585.8,-611.64 566.056,-597.013 547.844,-583.52"/>
<polygon fill="none" stroke="midnightblue" points="602.233,-628.17 612.352,-631.311 606.4,-622.545 602.233,-628.17"/>
</g>
<!-- Node14 -->
<g id="node15" class="node"><title>Node14</title>
<g id="a_node15"><a xlink:href="../../d0/d7e/class_juniper_1_1_input_1_1_pointers_1_1_abstract_pointer_configuration.html" target="_top" xlink:title=" ">
<polygon fill="white" stroke="black" points="598,-488 598,-578 746,-578 746,-488 598,-488"/>
<text text-anchor="start" x="606" y="-566" font-family="SegoeUI" font-size="10.00">Juniper.Input.Pointers.Abstract</text>
<text text-anchor="middle" x="672" y="-555" font-family="SegoeUI" font-size="10.00">PointerConfiguration&lt; Unary &gt;</text>
<polyline fill="none" stroke="black" points="598,-548 746,-548 "/>
<text text-anchor="start" x="606" y="-536" font-family="SegoeUI" font-size="10.00">&#45; nativeButtons</text>
<polyline fill="none" stroke="black" points="598,-529 746,-529 "/>
<text text-anchor="start" x="606" y="-517" font-family="SegoeUI" font-size="10.00">+ Install()</text>
<text text-anchor="start" x="606" y="-506" font-family="SegoeUI" font-size="10.00">+ Uninstall()</text>
<text text-anchor="start" x="606" y="-495" font-family="SegoeUI" font-size="10.00"># AddButton()</text>
</a>
</g>
</g>
<!-- Node0&#45;&gt;Node14 -->
<g id="edge14" class="edge"><title>Node0&#45;&gt;Node14</title>
<path fill="none" stroke="orange" d="M672,-621.007C672,-606.852 672,-591.78 672,-578.226"/>
<polygon fill="orange" stroke="orange" points="668.5,-621.117 672,-631.117 675.5,-621.117 668.5,-621.117"/>
<text text-anchor="middle" x="696" y="-605" font-family="SegoeUI" font-size="10.00"> &lt; Unary &gt;</text>
</g>
<!-- Node16 -->
<g id="node17" class="node"><title>Node16</title>
<g id="a_node17"><a xlink:href="../../d0/d7e/class_juniper_1_1_input_1_1_pointers_1_1_abstract_pointer_configuration.html" target="_top" xlink:title=" ">
<polygon fill="white" stroke="black" points="764,-488 764,-578 924,-578 924,-488 764,-488"/>
<text text-anchor="start" x="772" y="-566" font-family="SegoeUI" font-size="10.00">Juniper.Input.Pointers.Abstract</text>
<text text-anchor="middle" x="844" y="-555" font-family="SegoeUI" font-size="10.00">PointerConfiguration&lt; KeyCode &gt;</text>
<polyline fill="none" stroke="black" points="764,-548 924,-548 "/>
<text text-anchor="start" x="772" y="-536" font-family="SegoeUI" font-size="10.00">&#45; nativeButtons</text>
<polyline fill="none" stroke="black" points="764,-529 924,-529 "/>
<text text-anchor="start" x="772" y="-517" font-family="SegoeUI" font-size="10.00">+ Install()</text>
<text text-anchor="start" x="772" y="-506" font-family="SegoeUI" font-size="10.00">+ Uninstall()</text>
<text text-anchor="start" x="772" y="-495" font-family="SegoeUI" font-size="10.00"># AddButton()</text>
</a>
</g>
</g>
<!-- Node0&#45;&gt;Node16 -->
<g id="edge16" class="edge"><title>Node0&#45;&gt;Node16</title>
<path fill="none" stroke="orange" d="M733.756,-624.695C752.229,-609.498 772.326,-592.964 790.241,-578.226"/>
<polygon fill="orange" stroke="orange" points="731.449,-622.061 725.95,-631.117 735.896,-627.466 731.449,-622.061"/>
<text text-anchor="middle" x="788" y="-605" font-family="SegoeUI" font-size="10.00"> &lt; KeyCode &gt;</text>
</g>
<!-- Node2 -->
<g id="node3" class="node"><title>Node2</title>
<g id="a_node3"><a xlink:href="../../d2/d45/class_juniper_1_1_input_1_1_pointers_1_1_motion_1_1_abstract_hand_tracker_configuration.html" target="_top" xlink:title=" ">
<polygon fill="white" stroke="black" points="99.5,-338 99.5,-417 306.5,-417 306.5,-338 99.5,-338"/>
<text text-anchor="start" x="107.5" y="-405" font-family="SegoeUI" font-size="10.00">Juniper::Input::Pointers</text>
<text text-anchor="start" x="107.5" y="-394" font-family="SegoeUI" font-size="10.00">::Motion::AbstractHandTrackerConfiguration</text>
<text text-anchor="middle" x="203" y="-383" font-family="SegoeUI" font-size="10.00">&lt; HandIDType, ButtonIDType &gt;</text>
<polyline fill="none" stroke="black" points="99.5,-376 306.5,-376 "/>
<text text-anchor="start" x="107.5" y="-364" font-family="SegoeUI" font-size="10.00">+ PointerNameStub</text>
<polyline fill="none" stroke="black" points="99.5,-357 306.5,-357 "/>
<text text-anchor="middle" x="203" y="-345" font-family="SegoeUI" font-size="10.00"> </text>
</a>
</g>
</g>
<!-- Node1&#45;&gt;Node2 -->
<g id="edge2" class="edge"><title>Node1&#45;&gt;Node2</title>
<path fill="none" stroke="midnightblue" d="M392.537,-483.154C353.887,-461.813 309.202,-437.14 272.93,-417.113"/>
<polygon fill="none" stroke="midnightblue" points="391.262,-486.449 401.708,-488.218 394.646,-480.321 391.262,-486.449"/>
</g>
<!-- Node5 -->
<g id="node6" class="node"><title>Node5</title>
<g id="a_node6"><a xlink:href="../../da/de2/class_juniper_1_1_input_1_1_pointers_1_1_motion_1_1_abstract_motion_controller_configuration.html" target="_top" xlink:title=" ">
<polygon fill="white" stroke="black" points="377,-310.5 377,-444.5 585,-444.5 585,-310.5 377,-310.5"/>
<text text-anchor="start" x="385" y="-432.5" font-family="SegoeUI" font-size="10.00">Juniper::Input::Pointers</text>
<text text-anchor="start" x="385" y="-421.5" font-family="SegoeUI" font-size="10.00">::Motion::AbstractMotionController</text>
<text text-anchor="middle" x="481" y="-410.5" font-family="SegoeUI" font-size="10.00">Configuration&lt; HandIDType, ButtonIDType &gt;</text>
<polyline fill="none" stroke="black" points="377,-403.5 585,-403.5 "/>
<text text-anchor="start" x="385" y="-391.5" font-family="SegoeUI" font-size="10.00">+ PointerNameStub</text>
<text text-anchor="start" x="385" y="-380.5" font-family="SegoeUI" font-size="10.00">&#45; touchPadButtons</text>
<text text-anchor="start" x="385" y="-369.5" font-family="SegoeUI" font-size="10.00">&#45; triggerButtons</text>
<polyline fill="none" stroke="black" points="377,-362.5 585,-362.5 "/>
<text text-anchor="start" x="385" y="-350.5" font-family="SegoeUI" font-size="10.00">+ Install()</text>
<text text-anchor="start" x="385" y="-339.5" font-family="SegoeUI" font-size="10.00">+ Install()</text>
<text text-anchor="start" x="385" y="-328.5" font-family="SegoeUI" font-size="10.00"># AddButton()</text>
<text text-anchor="start" x="385" y="-317.5" font-family="SegoeUI" font-size="10.00"># AddButton()</text>
</a>
</g>
</g>
<!-- Node1&#45;&gt;Node5 -->
<g id="edge5" class="edge"><title>Node1&#45;&gt;Node5</title>
<path fill="none" stroke="midnightblue" d="M481,-472.128C481,-463.091 481,-453.726 481,-444.568"/>
<polygon fill="none" stroke="midnightblue" points="477.5,-472.163 481,-482.163 484.5,-472.163 477.5,-472.163"/>
</g>
<!-- Node3 -->
<g id="node4" class="node"><title>Node3</title>
<g id="a_node4"><a xlink:href="../../d2/d45/class_juniper_1_1_input_1_1_pointers_1_1_motion_1_1_abstract_hand_tracker_configuration.html" target="_top" xlink:title=" ">
<polygon fill="white" stroke="black" points="0,-145 0,-224 164,-224 164,-145 0,-145"/>
<text text-anchor="start" x="8" y="-212" font-family="SegoeUI" font-size="10.00">Juniper.Input.Pointers.Motion.</text>
<text text-anchor="start" x="8" y="-201" font-family="SegoeUI" font-size="10.00">AbstractHandTrackerConfiguration</text>
<text text-anchor="middle" x="82" y="-190" font-family="SegoeUI" font-size="10.00">&lt; Unary, KeyCode &gt;</text>
<polyline fill="none" stroke="black" points="0,-183 164,-183 "/>
<text text-anchor="start" x="8" y="-171" font-family="SegoeUI" font-size="10.00">+ PointerNameStub</text>
<polyline fill="none" stroke="black" points="0,-164 164,-164 "/>
<text text-anchor="middle" x="82" y="-152" font-family="SegoeUI" font-size="10.00"> </text>
</a>
</g>
</g>
<!-- Node2&#45;&gt;Node3 -->
<g id="edge3" class="edge"><title>Node2&#45;&gt;Node3</title>
<path fill="none" stroke="orange" d="M172.912,-329.005C152.417,-296.654 125.629,-254.369 106.45,-224.094"/>
<polygon fill="orange" stroke="orange" points="170.206,-331.274 178.514,-337.848 176.119,-327.528 170.206,-331.274"/>
<text text-anchor="middle" x="192.5" y="-278.5" font-family="SegoeUI" font-size="10.00"> &lt; Unary, KeyCode &gt;</text>
</g>
<!-- Node4 -->
<g id="node5" class="node"><title>Node4</title>
<g id="a_node5"><a xlink:href="../../d5/dc9/class_juniper_1_1_input_1_1_pointers_1_1_motion_1_1_no_hand_tracker_configuration.html" target="_top" xlink:title=" ">
<polygon fill="white" stroke="black" points="10,-6 10,-74 154,-74 154,-6 10,-6"/>
<text text-anchor="start" x="18" y="-62" font-family="SegoeUI" font-size="10.00">Juniper.Input.Pointers.Motion.</text>
<text text-anchor="middle" x="82" y="-51" font-family="SegoeUI" font-size="10.00">NoHandTrackerConfiguration</text>
<polyline fill="none" stroke="black" points="10,-44 154,-44 "/>
<text text-anchor="start" x="18" y="-32" font-family="SegoeUI" font-size="10.00">+ this[Hands hand]</text>
<polyline fill="none" stroke="black" points="10,-25 154,-25 "/>
<text text-anchor="middle" x="82" y="-13" font-family="SegoeUI" font-size="10.00"> </text>
</a>
</g>
</g>
<!-- Node3&#45;&gt;Node4 -->
<g id="edge4" class="edge"><title>Node3&#45;&gt;Node4</title>
<path fill="none" stroke="midnightblue" d="M82,-134.785C82,-114.839 82,-92.2675 82,-74.2666"/>
<polygon fill="none" stroke="midnightblue" points="78.5001,-134.937 82,-144.937 85.5001,-134.937 78.5001,-134.937"/>
</g>
<!-- Node6 -->
<g id="node7" class="node"><title>Node6</title>
<g id="a_node7"><a xlink:href="../../da/de2/class_juniper_1_1_input_1_1_pointers_1_1_motion_1_1_abstract_motion_controller_configuration.html" target="_top" xlink:title=" ">
<polygon fill="white" stroke="black" points="182.5,-117.5 182.5,-251.5 361.5,-251.5 361.5,-117.5 182.5,-117.5"/>
<text text-anchor="start" x="190.5" y="-239.5" font-family="SegoeUI" font-size="10.00">Juniper.Input.Pointers.Motion.</text>
<text text-anchor="start" x="190.5" y="-228.5" font-family="SegoeUI" font-size="10.00">AbstractMotionControllerConfiguration</text>
<text text-anchor="middle" x="272" y="-217.5" font-family="SegoeUI" font-size="10.00">&lt; WVR_DeviceType, WVR_InputId &gt;</text>
<polyline fill="none" stroke="black" points="182.5,-210.5 361.5,-210.5 "/>
<text text-anchor="start" x="190.5" y="-198.5" font-family="SegoeUI" font-size="10.00">+ PointerNameStub</text>
<text text-anchor="start" x="190.5" y="-187.5" font-family="SegoeUI" font-size="10.00">&#45; touchPadButtons</text>
<text text-anchor="start" x="190.5" y="-176.5" font-family="SegoeUI" font-size="10.00">&#45; triggerButtons</text>
<polyline fill="none" stroke="black" points="182.5,-169.5 361.5,-169.5 "/>
<text text-anchor="start" x="190.5" y="-157.5" font-family="SegoeUI" font-size="10.00">+ Install()</text>
<text text-anchor="start" x="190.5" y="-146.5" font-family="SegoeUI" font-size="10.00">+ Install()</text>
<text text-anchor="start" x="190.5" y="-135.5" font-family="SegoeUI" font-size="10.00"># AddButton()</text>
<text text-anchor="start" x="190.5" y="-124.5" font-family="SegoeUI" font-size="10.00"># AddButton()</text>
</a>
</g>
</g>
<!-- Node5&#45;&gt;Node6 -->
<g id="edge6" class="edge"><title>Node5&#45;&gt;Node6</title>
<path fill="none" stroke="orange" d="M375.602,-303.918C370.92,-299.992 366.362,-296.01 362,-292 348.633,-279.713 335.374,-265.485 323.306,-251.507"/>
<polygon fill="orange" stroke="orange" points="373.634,-306.83 383.585,-310.467 378.074,-301.419 373.634,-306.83"/>
<text text-anchor="start" x="362" y="-284" font-family="SegoeUI" font-size="10.00"> &lt; WVR_DeviceType, WVR</text>
<text text-anchor="middle" x="419.5" y="-273" font-family="SegoeUI" font-size="10.00">_InputId &gt;</text>
</g>
<!-- Node8 -->
<g id="node9" class="node"><title>Node8</title>
<g id="a_node9"><a xlink:href="../../da/de2/class_juniper_1_1_input_1_1_pointers_1_1_motion_1_1_abstract_motion_controller_configuration.html" target="_top" xlink:title=" ">
<polygon fill="white" stroke="black" points="379.5,-117.5 379.5,-251.5 582.5,-251.5 582.5,-117.5 379.5,-117.5"/>
<text text-anchor="start" x="387.5" y="-239.5" font-family="SegoeUI" font-size="10.00">Juniper.Input.Pointers.Motion.</text>
<text text-anchor="start" x="387.5" y="-228.5" font-family="SegoeUI" font-size="10.00">AbstractMotionControllerConfiguration</text>
<text text-anchor="middle" x="481" y="-217.5" font-family="SegoeUI" font-size="10.00">&lt; GvrControllerHand, GvrControllerButton &gt;</text>
<polyline fill="none" stroke="black" points="379.5,-210.5 582.5,-210.5 "/>
<text text-anchor="start" x="387.5" y="-198.5" font-family="SegoeUI" font-size="10.00">+ PointerNameStub</text>
<text text-anchor="start" x="387.5" y="-187.5" font-family="SegoeUI" font-size="10.00">&#45; touchPadButtons</text>
<text text-anchor="start" x="387.5" y="-176.5" font-family="SegoeUI" font-size="10.00">&#45; triggerButtons</text>
<polyline fill="none" stroke="black" points="379.5,-169.5 582.5,-169.5 "/>
<text text-anchor="start" x="387.5" y="-157.5" font-family="SegoeUI" font-size="10.00">+ Install()</text>
<text text-anchor="start" x="387.5" y="-146.5" font-family="SegoeUI" font-size="10.00">+ Install()</text>
<text text-anchor="start" x="387.5" y="-135.5" font-family="SegoeUI" font-size="10.00"># AddButton()</text>
<text text-anchor="start" x="387.5" y="-124.5" font-family="SegoeUI" font-size="10.00"># AddButton()</text>
</a>
</g>
</g>
<!-- Node5&#45;&gt;Node8 -->
<g id="edge8" class="edge"><title>Node5&#45;&gt;Node8</title>
<path fill="none" stroke="orange" d="M481,-299.866C481,-283.899 481,-267.199 481,-251.649"/>
<polygon fill="orange" stroke="orange" points="477.5,-300.233 481,-310.234 484.5,-300.234 477.5,-300.233"/>
<text text-anchor="start" x="481" y="-284" font-family="SegoeUI" font-size="10.00"> &lt; GvrControllerHand,</text>
<text text-anchor="middle" x="529.5" y="-273" font-family="SegoeUI" font-size="10.00"> GvrControllerButton &gt;</text>
</g>
<!-- Node10 -->
<g id="node11" class="node"><title>Node10</title>
<g id="a_node11"><a xlink:href="../../da/de2/class_juniper_1_1_input_1_1_pointers_1_1_motion_1_1_abstract_motion_controller_configuration.html" target="_top" xlink:title=" ">
<polygon fill="white" stroke="black" points="600.5,-117.5 600.5,-251.5 779.5,-251.5 779.5,-117.5 600.5,-117.5"/>
<text text-anchor="start" x="608.5" y="-239.5" font-family="SegoeUI" font-size="10.00">Juniper.Input.Pointers.Motion.</text>
<text text-anchor="start" x="608.5" y="-228.5" font-family="SegoeUI" font-size="10.00">AbstractMotionControllerConfiguration</text>
<text text-anchor="middle" x="690" y="-217.5" font-family="SegoeUI" font-size="10.00">&lt; Unary, KeyCode &gt;</text>
<polyline fill="none" stroke="black" points="600.5,-210.5 779.5,-210.5 "/>
<text text-anchor="start" x="608.5" y="-198.5" font-family="SegoeUI" font-size="10.00">+ PointerNameStub</text>
<text text-anchor="start" x="608.5" y="-187.5" font-family="SegoeUI" font-size="10.00">&#45; touchPadButtons</text>
<text text-anchor="start" x="608.5" y="-176.5" font-family="SegoeUI" font-size="10.00">&#45; triggerButtons</text>
<polyline fill="none" stroke="black" points="600.5,-169.5 779.5,-169.5 "/>
<text text-anchor="start" x="608.5" y="-157.5" font-family="SegoeUI" font-size="10.00">+ Install()</text>
<text text-anchor="start" x="608.5" y="-146.5" font-family="SegoeUI" font-size="10.00">+ Install()</text>
<text text-anchor="start" x="608.5" y="-135.5" font-family="SegoeUI" font-size="10.00"># AddButton()</text>
<text text-anchor="start" x="608.5" y="-124.5" font-family="SegoeUI" font-size="10.00"># AddButton()</text>
</a>
</g>
</g>
<!-- Node5&#45;&gt;Node10 -->
<g id="edge10" class="edge"><title>Node5&#45;&gt;Node10</title>
<path fill="none" stroke="orange" d="M568.803,-303.792C573.296,-299.837 577.718,-295.89 582,-292 596.033,-279.25 610.715,-265.248 624.571,-251.706"/>
<polygon fill="orange" stroke="orange" points="566.416,-301.23 561.187,-310.444 571.021,-306.501 566.416,-301.23"/>
<text text-anchor="middle" x="649.5" y="-278.5" font-family="SegoeUI" font-size="10.00"> &lt; Unary, KeyCode &gt;</text>
</g>
<!-- Node12 -->
<g id="node13" class="node"><title>Node12</title>
<g id="a_node13"><a xlink:href="../../da/de2/class_juniper_1_1_input_1_1_pointers_1_1_motion_1_1_abstract_motion_controller_configuration.html" target="_top" xlink:title=" ">
<polygon fill="white" stroke="black" points="798,-117.5 798,-251.5 1052,-251.5 1052,-117.5 798,-117.5"/>
<text text-anchor="start" x="806" y="-239.5" font-family="SegoeUI" font-size="10.00">Juniper.Input.Pointers.Motion.</text>
<text text-anchor="start" x="806" y="-228.5" font-family="SegoeUI" font-size="10.00">AbstractMotionControllerConfiguration</text>
<text text-anchor="middle" x="925" y="-217.5" font-family="SegoeUI" font-size="10.00">&lt; InteractionSourceHandedness, WindowsMRButtons &gt;</text>
<polyline fill="none" stroke="black" points="798,-210.5 1052,-210.5 "/>
<text text-anchor="start" x="806" y="-198.5" font-family="SegoeUI" font-size="10.00">+ PointerNameStub</text>
<text text-anchor="start" x="806" y="-187.5" font-family="SegoeUI" font-size="10.00">&#45; touchPadButtons</text>
<text text-anchor="start" x="806" y="-176.5" font-family="SegoeUI" font-size="10.00">&#45; triggerButtons</text>
<polyline fill="none" stroke="black" points="798,-169.5 1052,-169.5 "/>
<text text-anchor="start" x="806" y="-157.5" font-family="SegoeUI" font-size="10.00">+ Install()</text>
<text text-anchor="start" x="806" y="-146.5" font-family="SegoeUI" font-size="10.00">+ Install()</text>
<text text-anchor="start" x="806" y="-135.5" font-family="SegoeUI" font-size="10.00"># AddButton()</text>
<text text-anchor="start" x="806" y="-124.5" font-family="SegoeUI" font-size="10.00"># AddButton()</text>
</a>
</g>
</g>
<!-- Node5&#45;&gt;Node12 -->
<g id="edge12" class="edge"><title>Node5&#45;&gt;Node12</title>
<path fill="none" stroke="orange" d="M594.593,-310.161C640.487,-295.137 656.543,-304.951 699,-292 740.48,-279.347 748.711,-270.36 788,-252 791.234,-250.489 794.507,-248.952 797.807,-247.397"/>
<polygon fill="orange" stroke="orange" points="593.287,-306.91 585,-313.511 595.595,-313.518 593.287,-306.91"/>
<text text-anchor="start" x="752" y="-284" font-family="SegoeUI" font-size="10.00"> &lt; InteractionSourceHandedness,</text>
<text text-anchor="middle" x="824" y="-273" font-family="SegoeUI" font-size="10.00"> WindowsMRButtons &gt;</text>
</g>
<!-- Node7 -->
<g id="node8" class="node"><title>Node7</title>
<g id="a_node8"><a xlink:href="../../d7/d33/class_juniper_1_1_input_1_1_pointers_1_1_motion_1_1_vive_focus_motion_controller_configuration.html" target="_top" xlink:title=" ">
<polygon fill="white" stroke="black" points="178.5,-0.5 178.5,-79.5 365.5,-79.5 365.5,-0.5 178.5,-0.5"/>
<text text-anchor="start" x="186.5" y="-67.5" font-family="SegoeUI" font-size="10.00">Juniper.Input.Pointers.Motion.</text>
<text text-anchor="middle" x="272" y="-56.5" font-family="SegoeUI" font-size="10.00">ViveFocusMotionControllerConfiguration</text>
<polyline fill="none" stroke="black" points="178.5,-49.5 365.5,-49.5 "/>
<text text-anchor="start" x="186.5" y="-37.5" font-family="SegoeUI" font-size="10.00">+ this[Hands hand]</text>
<polyline fill="none" stroke="black" points="178.5,-30.5 365.5,-30.5 "/>
<text text-anchor="start" x="186.5" y="-18.5" font-family="SegoeUI" font-size="10.00">+ ViveFocusMotionController</text>
<text text-anchor="start" x="186.5" y="-7.5" font-family="SegoeUI" font-size="10.00">Configuration()</text>
</a>
</g>
</g>
<!-- Node6&#45;&gt;Node7 -->
<g id="edge7" class="edge"><title>Node6&#45;&gt;Node7</title>
<path fill="none" stroke="midnightblue" d="M272,-107.048C272,-97.6554 272,-88.3842 272,-79.8917"/>
<polygon fill="none" stroke="midnightblue" points="268.5,-107.256 272,-117.256 275.5,-107.256 268.5,-107.256"/>
</g>
<!-- Node9 -->
<g id="node10" class="node"><title>Node9</title>
<g id="a_node10"><a xlink:href="../../d4/d65/class_juniper_1_1_input_1_1_pointers_1_1_motion_1_1_daydream_pointer_configuration.html" target="_top" xlink:title=" ">
<polygon fill="white" stroke="black" points="399,-6 399,-74 563,-74 563,-6 399,-6"/>
<text text-anchor="start" x="407" y="-62" font-family="SegoeUI" font-size="10.00">Juniper.Input.Pointers.Motion.</text>
<text text-anchor="middle" x="481" y="-51" font-family="SegoeUI" font-size="10.00">DaydreamPointerConfiguration</text>
<polyline fill="none" stroke="black" points="399,-44 563,-44 "/>
<text text-anchor="start" x="407" y="-32" font-family="SegoeUI" font-size="10.00">+ this[Hands hand]</text>
<polyline fill="none" stroke="black" points="399,-25 563,-25 "/>
<text text-anchor="start" x="407" y="-13" font-family="SegoeUI" font-size="10.00">+ DaydreamPointerConfiguration()</text>
</a>
</g>
</g>
<!-- Node8&#45;&gt;Node9 -->
<g id="edge9" class="edge"><title>Node8&#45;&gt;Node9</title>
<path fill="none" stroke="midnightblue" d="M481,-107.065C481,-95.4865 481,-84.0917 481,-74.1122"/>
<polygon fill="none" stroke="midnightblue" points="477.5,-107.256 481,-117.256 484.5,-107.256 477.5,-107.256"/>
</g>
<!-- Node11 -->
<g id="node12" class="node"><title>Node11</title>
<g id="a_node12"><a xlink:href="../../de/d96/class_juniper_1_1_input_1_1_pointers_1_1_motion_1_1_no_motion_controller_configuration.html" target="_top" xlink:title=" ">
<polygon fill="white" stroke="black" points="612.5,-6 612.5,-74 767.5,-74 767.5,-6 612.5,-6"/>
<text text-anchor="start" x="620.5" y="-62" font-family="SegoeUI" font-size="10.00">Juniper.Input.Pointers.Motion.</text>
<text text-anchor="middle" x="690" y="-51" font-family="SegoeUI" font-size="10.00">NoMotionControllerConfiguration</text>
<polyline fill="none" stroke="black" points="612.5,-44 767.5,-44 "/>
<text text-anchor="start" x="620.5" y="-32" font-family="SegoeUI" font-size="10.00">+ this[Hands hand]</text>
<polyline fill="none" stroke="black" points="612.5,-25 767.5,-25 "/>
<text text-anchor="middle" x="690" y="-13" font-family="SegoeUI" font-size="10.00"> </text>
</a>
</g>
</g>
<!-- Node10&#45;&gt;Node11 -->
<g id="edge11" class="edge"><title>Node10&#45;&gt;Node11</title>
<path fill="none" stroke="midnightblue" d="M690,-107.065C690,-95.4865 690,-84.0917 690,-74.1122"/>
<polygon fill="none" stroke="midnightblue" points="686.5,-107.256 690,-117.256 693.5,-107.256 686.5,-107.256"/>
</g>
<!-- Node13 -->
<g id="node14" class="node"><title>Node13</title>
<g id="a_node14"><a xlink:href="../../dd/d07/class_juniper_1_1_input_1_1_pointers_1_1_motion_1_1_windows_m_r_motion_controller_configuration.html" target="_top" xlink:title=" ">
<polygon fill="white" stroke="black" points="826.5,-0.5 826.5,-79.5 1023.5,-79.5 1023.5,-0.5 826.5,-0.5"/>
<text text-anchor="start" x="834.5" y="-67.5" font-family="SegoeUI" font-size="10.00">Juniper.Input.Pointers.Motion.</text>
<text text-anchor="middle" x="925" y="-56.5" font-family="SegoeUI" font-size="10.00">WindowsMRMotionControllerConfiguration</text>
<polyline fill="none" stroke="black" points="826.5,-49.5 1023.5,-49.5 "/>
<text text-anchor="start" x="834.5" y="-37.5" font-family="SegoeUI" font-size="10.00">+ this[Hands hand]</text>
<polyline fill="none" stroke="black" points="826.5,-30.5 1023.5,-30.5 "/>
<text text-anchor="start" x="834.5" y="-18.5" font-family="SegoeUI" font-size="10.00">+ WindowsMRMotionController</text>
<text text-anchor="start" x="834.5" y="-7.5" font-family="SegoeUI" font-size="10.00">Configuration()</text>
</a>
</g>
</g>
<!-- Node12&#45;&gt;Node13 -->
<g id="edge13" class="edge"><title>Node12&#45;&gt;Node13</title>
<path fill="none" stroke="midnightblue" d="M925,-107.048C925,-97.6554 925,-88.3842 925,-79.8917"/>
<polygon fill="none" stroke="midnightblue" points="921.5,-107.256 925,-117.256 928.5,-107.256 921.5,-107.256"/>
</g>
<!-- Node15 -->
<g id="node16" class="node"><title>Node15</title>
<g id="a_node16"><a xlink:href="../../d4/d3d/class_juniper_1_1_input_1_1_pointers_1_1_unary_pointer_configuration.html" target="_top" xlink:title=" ">
<polygon fill="white" stroke="black" points="603.5,-343.5 603.5,-411.5 748.5,-411.5 748.5,-343.5 603.5,-343.5"/>
<text text-anchor="start" x="611.5" y="-399.5" font-family="SegoeUI" font-size="10.00">Juniper.Input.Pointers.Unary</text>
<text text-anchor="middle" x="676" y="-388.5" font-family="SegoeUI" font-size="10.00">PointerConfiguration</text>
<polyline fill="none" stroke="black" points="603.5,-381.5 748.5,-381.5 "/>
<text text-anchor="middle" x="676" y="-369.5" font-family="SegoeUI" font-size="10.00"> </text>
<polyline fill="none" stroke="black" points="603.5,-362.5 748.5,-362.5 "/>
<text text-anchor="start" x="611.5" y="-350.5" font-family="SegoeUI" font-size="10.00">+ UnaryPointerConfiguration()</text>
</a>
</g>
</g>
<!-- Node14&#45;&gt;Node15 -->
<g id="edge15" class="edge"><title>Node14&#45;&gt;Node15</title>
<path fill="none" stroke="midnightblue" d="M673.423,-477.387C673.996,-455.4 674.638,-430.763 675.138,-411.58"/>
<polygon fill="none" stroke="midnightblue" points="669.919,-477.514 673.157,-487.601 676.916,-477.696 669.919,-477.514"/>
</g>
<!-- Node17 -->
<g id="node18" class="node"><title>Node17</title>
<g id="a_node18"><a xlink:href="../../d7/d0c/class_juniper_1_1_input_1_1_pointers_1_1_screen_1_1_mouse_pointer_configuration.html" target="_top" xlink:title=" ">
<polygon fill="white" stroke="black" points="770,-343.5 770,-411.5 918,-411.5 918,-343.5 770,-343.5"/>
<text text-anchor="start" x="778" y="-399.5" font-family="SegoeUI" font-size="10.00">Juniper.Input.Pointers.Screen.</text>
<text text-anchor="middle" x="844" y="-388.5" font-family="SegoeUI" font-size="10.00">MousePointerConfiguration</text>
<polyline fill="none" stroke="black" points="770,-381.5 918,-381.5 "/>
<text text-anchor="middle" x="844" y="-369.5" font-family="SegoeUI" font-size="10.00"> </text>
<polyline fill="none" stroke="black" points="770,-362.5 918,-362.5 "/>
<text text-anchor="start" x="778" y="-350.5" font-family="SegoeUI" font-size="10.00">+ MousePointerConfiguration()</text>
</a>
</g>
</g>
<!-- Node16&#45;&gt;Node17 -->
<g id="edge17" class="edge"><title>Node16&#45;&gt;Node17</title>
<path fill="none" stroke="midnightblue" d="M844,-477.387C844,-455.4 844,-430.763 844,-411.58"/>
<polygon fill="none" stroke="midnightblue" points="840.5,-477.601 844,-487.601 847.5,-477.601 840.5,-477.601"/>
</g>
</g>
</svg>
        <g id="navigator" transform="translate(0 0)" fill="#404254">
                <rect fill="#f2f5e9" fill-opacity="0.5" stroke="#606060" stroke-width=".5" x="0" y="0" width="60" height="60"/>
                <use id="zoomplus" xlink:href="#zoomPlus" x="17" y="9" onmousedown="handleZoom(evt,'in')"/>
                <use id="zoomminus" xlink:href="#zoomMin" x="42" y="9" onmousedown="handleZoom(evt,'out')"/>
                <use id="reset" xlink:href="#resetDef" x="30" y="36" onmousedown="handleReset()"/>
                <g id="arrowUp" xlink:href="#dirArrow" transform="translate(30 24)" onmousedown="handlePan(0,-1)">
                  <use xlink:href="#rim" fill="#404040">
                        <set attributeName="fill" to="#808080" begin="arrowUp.mouseover" end="arrowUp.mouseout"/>
                  </use>
                  <path fill="none" stroke="white" stroke-width="1.5" d="M0,-3.0v7 M-2.5,-0.5L0,-3.0L2.5,-0.5"/>
                </g>
                <g id="arrowRight" xlink:href="#dirArrow" transform="rotate(90) translate(36 -43)" onmousedown="handlePan(1,0)">
                  <use xlink:href="#rim" fill="#404040">
                        <set attributeName="fill" to="#808080" begin="arrowRight.mouseover" end="arrowRight.mouseout"/>
                  </use>
                  <path fill="none" stroke="white" stroke-width="1.5" d="M0,-3.0v7 M-2.5,-0.5L0,-3.0L2.5,-0.5"/>
                </g>
                <g id="arrowDown" xlink:href="#dirArrow" transform="rotate(180) translate(-30 -48)" onmousedown="handlePan(0,1)">
                  <use xlink:href="#rim" fill="#404040">
                        <set attributeName="fill" to="#808080" begin="arrowDown.mouseover" end="arrowDown.mouseout"/>
                  </use>
                  <path fill="none" stroke="white" stroke-width="1.5" d="M0,-3.0v7 M-2.5,-0.5L0,-3.0L2.5,-0.5"/>
                </g>
                <g id="arrowLeft" xlink:href="#dirArrow" transform="rotate(270) translate(-36 17)" onmousedown="handlePan(-1,0)">
                  <use xlink:href="#rim" fill="#404040">
                        <set attributeName="fill" to="#808080" begin="arrowLeft.mouseover" end="arrowLeft.mouseout"/>
                  </use>
                  <path fill="none" stroke="white" stroke-width="1.5" d="M0,-3.0v7 M-2.5,-0.5L0,-3.0L2.5,-0.5"/>
                </g>
        </g>
        <svg viewBox="0 0 15 15" width="100%" height="30px" preserveAspectRatio="xMaxYMin meet">
         <g id="arrow_out" transform="scale(0.3 0.3)">
          <a xlink:href="class_juniper_1_1_input_1_1_pointers_1_1_abstract_pointer_configuration__inherit__graph_org.svg" target="_base">
           <rect id="button" ry="5" rx="5" y="6" x="6" height="38" width="38"
                fill="#f2f5e9" fill-opacity="0.5" stroke="#606060" stroke-width="1.0"/>
           <path id="arrow"
             d="M 11.500037,31.436501 C 11.940474,20.09759 22.043105,11.32322 32.158766,21.979434 L 37.068811,17.246167 C 37.068811,17.246167 37.088388,32 37.088388,32 L 22.160133,31.978069 C 22.160133,31.978069 26.997745,27.140456 26.997745,27.140456 C 18.528582,18.264221 13.291696,25.230495 11.500037,31.436501 z"
             style="fill:#404040;"/>
          </a>
         </g>
        </svg>
</svg>
