<?xml version="1.0" encoding="UTF-8" standalone="no"?>
<!DOCTYPE svg PUBLIC "-//W3C//DTD SVG 1.1//EN"
 "http://www.w3.org/Graphics/SVG/1.1/DTD/svg11.dtd">
<!-- Generated by graphviz version 2.38.0 (20140413.2041)
 -->
<!-- Title: Juniper.Sound.NAudioAudioDataDecoder Pages: 1 -->
<!--zoomable 493 -->
<svg id="main" version="1.1" xmlns="http://www.w3.org/2000/svg" xmlns:xlink="http://www.w3.org/1999/xlink" xml:space="preserve" onload="init(evt)">
<style type="text/css"><![CDATA[
.edge:hover path { stroke: red; }
.edge:hover polygon { stroke: red; fill: red; }
]]></style>
<script type="text/javascript"><![CDATA[
var edges = document.getElementsByTagName('g');
if (edges && edges.length) {
  for (var i=0;i<edges.length;i++) {
    if (edges[i].id.substr(0,4)=='edge') {
      edges[i].setAttribute('class','edge');
    }
  }
}
]]></script>
        <defs>
                <circle id="rim" cx="0" cy="0" r="7"/>
                <circle id="rim2" cx="0" cy="0" r="3.5"/>
                <g id="zoomPlus">
                        <use xlink:href="#rim" fill="#404040">
                                <set attributeName="fill" to="#808080" begin="zoomplus.mouseover" end="zoomplus.mouseout"/>
                        </use>
                        <path d="M-4,0h8M0,-4v8" fill="none" stroke="white" stroke-width="1.5" pointer-events="none"/>
                </g>
                <g id="zoomMin">
                        <use xlink:href="#rim" fill="#404040">
                                <set attributeName="fill" to="#808080" begin="zoomminus.mouseover" end="zoomminus.mouseout"/>
                        </use>
                        <path d="M-4,0h8" fill="none" stroke="white" stroke-width="1.5" pointer-events="none"/>
                </g>
                <g id="dirArrow">
                        <path fill="none" stroke="white" stroke-width="1.5" d="M0,-3.0v7 M-2.5,-0.5L0,-3.0L2.5,-0.5"/>
                </g>
               <g id="resetDef">
                       <use xlink:href="#rim2" fill="#404040">
                               <set attributeName="fill" to="#808080" begin="reset.mouseover" end="reset.mouseout"/>
                       </use>
               </g>
        </defs>

<script type="text/javascript">
var viewWidth = 329;
var viewHeight = 493;
var sectionId = 'dynsection-0';
</script>
<script xlink:href="../../svgpan.js"/>
<svg id="graph" class="graph">
<g id="viewport">
<title>Juniper.Sound.NAudioAudioDataDecoder</title>
<polygon fill="white" stroke="none" points="-4,4 -4,-489 324.5,-489 324.5,4 -4,4"/>
<!-- Node0 -->
<g id="node1" class="node"><title>Node0</title>
<g id="a_node1"><a xlink:title=" ">
<polygon fill="#bfbfbf" stroke="black" points="78,-0.5 78,-167.5 245,-167.5 245,-0.5 78,-0.5"/>
<text text-anchor="start" x="86" y="-155.5" font-family="SegoeUI" font-size="10.00">Juniper.Sound.NAudioAudio</text>
<text text-anchor="middle" x="161.5" y="-144.5" font-family="SegoeUI" font-size="10.00">DataDecoder</text>
<polyline fill="none" stroke="black" points="78,-137.5 245,-137.5 "/>
<text text-anchor="start" x="86" y="-125.5" font-family="SegoeUI" font-size="10.00">+ SupportedFormats</text>
<text text-anchor="start" x="86" y="-114.5" font-family="SegoeUI" font-size="10.00">+ Format</text>
<text text-anchor="start" x="86" y="-103.5" font-family="SegoeUI" font-size="10.00">+ ContentType</text>
<text text-anchor="start" x="86" y="-92.5" font-family="SegoeUI" font-size="10.00">&#45; format</text>
<polyline fill="none" stroke="black" points="78,-85.5 245,-85.5 "/>
<text text-anchor="start" x="86" y="-73.5" font-family="SegoeUI" font-size="10.00">+ NAudioAudioDataDecoder()</text>
<text text-anchor="start" x="86" y="-62.5" font-family="SegoeUI" font-size="10.00">+ SupportsFormat()</text>
<text text-anchor="start" x="86" y="-51.5" font-family="SegoeUI" font-size="10.00">+ MakeDecodingStream()</text>
<text text-anchor="start" x="86" y="-40.5" font-family="SegoeUI" font-size="10.00">+ Deserialize()</text>
<text text-anchor="start" x="86" y="-29.5" font-family="SegoeUI" font-size="10.00">&#45; CreateMp3FrameDecompressor()</text>
<text text-anchor="start" x="86" y="-18.5" font-family="SegoeUI" font-size="10.00">&#45; ValidateFormat()</text>
<text text-anchor="start" x="86" y="-7.5" font-family="SegoeUI" font-size="10.00">&#45; MakeAudioFormat()</text>
</a>
</g>
</g>
<!-- Node1 -->
<g id="node2" class="node"><title>Node1</title>
<g id="a_node2"><a xlink:href="../../db/d85/interface_juniper_1_1_sound_1_1_i_audio_decoder.html" target="_top" xlink:title=" ">
<polygon fill="white" stroke="black" points="110.5,-205.5 110.5,-262.5 212.5,-262.5 212.5,-205.5 110.5,-205.5"/>
<text text-anchor="middle" x="161.5" y="-250.5" font-family="SegoeUI" font-size="10.00">IAudioDecoder</text>
<polyline fill="none" stroke="black" points="110.5,-243.5 212.5,-243.5 "/>
<text text-anchor="start" x="118.5" y="-231.5" font-family="SegoeUI" font-size="10.00">+ Format</text>
<polyline fill="none" stroke="black" points="110.5,-224.5 212.5,-224.5 "/>
<text text-anchor="start" x="118.5" y="-212.5" font-family="SegoeUI" font-size="10.00">+ SupportsFormat()</text>
</a>
</g>
</g>
<!-- Node1&#45;&gt;Node0 -->
<g id="edge1" class="edge"><title>Node1&#45;&gt;Node0</title>
<path fill="none" stroke="midnightblue" d="M161.5,-194.929C161.5,-186.462 161.5,-177.166 161.5,-167.678"/>
<polygon fill="none" stroke="midnightblue" points="158,-195.162 161.5,-205.162 165,-195.162 158,-195.162"/>
</g>
<!-- Node2 -->
<g id="node3" class="node"><title>Node2</title>
<g id="a_node3"><a xlink:href="../../d1/d4d/interface_juniper_1_1_i_o_1_1_i_deserializer.html" target="_top" xlink:title=" ">
<polygon fill="white" stroke="black" points="0,-306 0,-363 133,-363 133,-306 0,-306"/>
<text text-anchor="middle" x="66.5" y="-351" font-family="SegoeUI" font-size="10.00">IDeserializer&lt; AudioData &gt;</text>
<polyline fill="none" stroke="black" points="0,-344 133,-344 "/>
<text text-anchor="middle" x="66.5" y="-332" font-family="SegoeUI" font-size="10.00"> </text>
<polyline fill="none" stroke="black" points="0,-325 133,-325 "/>
<text text-anchor="start" x="8" y="-313" font-family="SegoeUI" font-size="10.00">+ Deserialize()</text>
</a>
</g>
</g>
<!-- Node2&#45;&gt;Node1 -->
<g id="edge2" class="edge"><title>Node2&#45;&gt;Node1</title>
<path fill="none" stroke="midnightblue" d="M100.416,-298.334C111.662,-286.674 124.017,-273.864 134.656,-262.833"/>
<polygon fill="none" stroke="midnightblue" points="97.6384,-296.173 93.2156,-305.8 102.677,-301.032 97.6384,-296.173"/>
</g>
<!-- Node3 -->
<g id="node4" class="node"><title>Node3</title>
<g id="a_node4"><a xlink:href="../../d1/d4d/interface_juniper_1_1_i_o_1_1_i_deserializer.html" target="_top" xlink:title=" ">
<polygon fill="white" stroke="black" points="8.5,-416.5 8.5,-484.5 124.5,-484.5 124.5,-416.5 8.5,-416.5"/>
<text text-anchor="start" x="16.5" y="-472.5" font-family="SegoeUI" font-size="10.00">Juniper.IO.IDeserializer</text>
<text text-anchor="middle" x="66.5" y="-461.5" font-family="SegoeUI" font-size="10.00">&lt; out out ResultT &gt;</text>
<polyline fill="none" stroke="black" points="8.5,-454.5 124.5,-454.5 "/>
<text text-anchor="middle" x="66.5" y="-442.5" font-family="SegoeUI" font-size="10.00"> </text>
<polyline fill="none" stroke="black" points="8.5,-435.5 124.5,-435.5 "/>
<text text-anchor="start" x="16.5" y="-423.5" font-family="SegoeUI" font-size="10.00">+ Deserialize()</text>
</a>
</g>
</g>
<!-- Node3&#45;&gt;Node2 -->
<g id="edge3" class="edge"><title>Node3&#45;&gt;Node2</title>
<path fill="none" stroke="orange" d="M66.5,-406.034C66.5,-391.673 66.5,-376.096 66.5,-363.242"/>
<polygon fill="orange" stroke="orange" points="63.0001,-406.22 66.5,-416.22 70.0001,-406.22 63.0001,-406.22"/>
<text text-anchor="middle" x="100" y="-390" font-family="SegoeUI" font-size="10.00"> &lt; AudioData &gt;</text>
</g>
<!-- Node4 -->
<g id="node5" class="node"><title>Node4</title>
<g id="a_node5"><a xlink:href="../../da/d97/interface_juniper_1_1_i_o_1_1_i_content_handler.html" target="_top" xlink:title=" ">
<polygon fill="white" stroke="black" points="151,-300.5 151,-368.5 296,-368.5 296,-300.5 151,-300.5"/>
<text text-anchor="start" x="159" y="-356.5" font-family="SegoeUI" font-size="10.00">IContentHandler&lt; MediaType.</text>
<text text-anchor="middle" x="223.5" y="-345.5" font-family="SegoeUI" font-size="10.00">Audio &gt;</text>
<polyline fill="none" stroke="black" points="151,-338.5 296,-338.5 "/>
<text text-anchor="middle" x="223.5" y="-326.5" font-family="SegoeUI" font-size="10.00"> </text>
<polyline fill="none" stroke="black" points="151,-319.5 296,-319.5 "/>
<text text-anchor="middle" x="223.5" y="-307.5" font-family="SegoeUI" font-size="10.00"> </text>
</a>
</g>
</g>
<!-- Node4&#45;&gt;Node1 -->
<g id="edge4" class="edge"><title>Node4&#45;&gt;Node1</title>
<path fill="none" stroke="midnightblue" d="M197.302,-291.878C191.071,-281.98 184.575,-271.66 178.854,-262.571"/>
<polygon fill="none" stroke="midnightblue" points="194.393,-293.828 202.682,-300.427 200.317,-290.099 194.393,-293.828"/>
</g>
<!-- Node5 -->
<g id="node6" class="node"><title>Node5</title>
<g id="a_node6"><a xlink:href="../../da/d97/interface_juniper_1_1_i_o_1_1_i_content_handler.html" target="_top" xlink:title=" ">
<polygon fill="white" stroke="black" points="157.5,-422 157.5,-479 289.5,-479 289.5,-422 157.5,-422"/>
<text text-anchor="middle" x="223.5" y="-467" font-family="SegoeUI" font-size="10.00">Juniper.IO.IContentHandler</text>
<polyline fill="none" stroke="black" points="157.5,-460 289.5,-460 "/>
<text text-anchor="middle" x="223.5" y="-448" font-family="SegoeUI" font-size="10.00"> </text>
<polyline fill="none" stroke="black" points="157.5,-441 289.5,-441 "/>
<text text-anchor="middle" x="223.5" y="-429" font-family="SegoeUI" font-size="10.00"> </text>
</a>
</g>
</g>
<!-- Node5&#45;&gt;Node4 -->
<g id="edge5" class="edge"><title>Node5&#45;&gt;Node4</title>
<path fill="none" stroke="orange" d="M223.5,-411.639C223.5,-397.689 223.5,-382.01 223.5,-368.521"/>
<polygon fill="orange" stroke="orange" points="220,-411.904 223.5,-421.904 227,-411.904 220,-411.904"/>
<text text-anchor="middle" x="272" y="-390" font-family="SegoeUI" font-size="10.00"> &lt; MediaType.Audio &gt;</text>
</g>
</g>
</svg>
        <g id="navigator" transform="translate(0 0)" fill="#404254">
                <rect fill="#f2f5e9" fill-opacity="0.5" stroke="#606060" stroke-width=".5" x="0" y="0" width="60" height="60"/>
                <use id="zoomplus" xlink:href="#zoomPlus" x="17" y="9" onmousedown="handleZoom(evt,'in')"/>
                <use id="zoomminus" xlink:href="#zoomMin" x="42" y="9" onmousedown="handleZoom(evt,'out')"/>
                <use id="reset" xlink:href="#resetDef" x="30" y="36" onmousedown="handleReset()"/>
                <g id="arrowUp" xlink:href="#dirArrow" transform="translate(30 24)" onmousedown="handlePan(0,-1)">
                  <use xlink:href="#rim" fill="#404040">
                        <set attributeName="fill" to="#808080" begin="arrowUp.mouseover" end="arrowUp.mouseout"/>
                  </use>
                  <path fill="none" stroke="white" stroke-width="1.5" d="M0,-3.0v7 M-2.5,-0.5L0,-3.0L2.5,-0.5"/>
                </g>
                <g id="arrowRight" xlink:href="#dirArrow" transform="rotate(90) translate(36 -43)" onmousedown="handlePan(1,0)">
                  <use xlink:href="#rim" fill="#404040">
                        <set attributeName="fill" to="#808080" begin="arrowRight.mouseover" end="arrowRight.mouseout"/>
                  </use>
                  <path fill="none" stroke="white" stroke-width="1.5" d="M0,-3.0v7 M-2.5,-0.5L0,-3.0L2.5,-0.5"/>
                </g>
                <g id="arrowDown" xlink:href="#dirArrow" transform="rotate(180) translate(-30 -48)" onmousedown="handlePan(0,1)">
                  <use xlink:href="#rim" fill="#404040">
                        <set attributeName="fill" to="#808080" begin="arrowDown.mouseover" end="arrowDown.mouseout"/>
                  </use>
                  <path fill="none" stroke="white" stroke-width="1.5" d="M0,-3.0v7 M-2.5,-0.5L0,-3.0L2.5,-0.5"/>
                </g>
                <g id="arrowLeft" xlink:href="#dirArrow" transform="rotate(270) translate(-36 17)" onmousedown="handlePan(-1,0)">
                  <use xlink:href="#rim" fill="#404040">
                        <set attributeName="fill" to="#808080" begin="arrowLeft.mouseover" end="arrowLeft.mouseout"/>
                  </use>
                  <path fill="none" stroke="white" stroke-width="1.5" d="M0,-3.0v7 M-2.5,-0.5L0,-3.0L2.5,-0.5"/>
                </g>
        </g>
        <svg viewBox="0 0 15 15" width="100%" height="30px" preserveAspectRatio="xMaxYMin meet">
         <g id="arrow_out" transform="scale(0.3 0.3)">
          <a xlink:href="class_juniper_1_1_sound_1_1_n_audio_audio_data_decoder__inherit__graph_org.svg" target="_base">
           <rect id="button" ry="5" rx="5" y="6" x="6" height="38" width="38"
                fill="#f2f5e9" fill-opacity="0.5" stroke="#606060" stroke-width="1.0"/>
           <path id="arrow"
             d="M 11.500037,31.436501 C 11.940474,20.09759 22.043105,11.32322 32.158766,21.979434 L 37.068811,17.246167 C 37.068811,17.246167 37.088388,32 37.088388,32 L 22.160133,31.978069 C 22.160133,31.978069 26.997745,27.140456 26.997745,27.140456 C 18.528582,18.264221 13.291696,25.230495 11.500037,31.436501 z"
             style="fill:#404040;"/>
          </a>
         </g>
        </svg>
</svg>
