<?xml version="1.0" encoding="UTF-8" standalone="no"?>
<!DOCTYPE svg PUBLIC "-//W3C//DTD SVG 1.1//EN"
 "http://www.w3.org/Graphics/SVG/1.1/DTD/svg11.dtd">
<!-- Generated by graphviz version 2.38.0 (20140413.2041)
 -->
<!-- Title: Juniper.Unity.Widgets.Draggable Pages: 1 -->
<!--zoomable 1137 -->
<svg id="main" version="1.1" xmlns="http://www.w3.org/2000/svg" xmlns:xlink="http://www.w3.org/1999/xlink" xml:space="preserve" onload="init(evt)">
<style type="text/css"><![CDATA[
.edge:hover path { stroke: red; }
.edge:hover polygon { stroke: red; fill: red; }
]]></style>
<script type="text/javascript"><![CDATA[
var edges = document.getElementsByTagName('g');
if (edges && edges.length) {
  for (var i=0;i<edges.length;i++) {
    if (edges[i].id.substr(0,4)=='edge') {
      edges[i].setAttribute('class','edge');
    }
  }
}
]]></script>
        <defs>
                <circle id="rim" cx="0" cy="0" r="7"/>
                <circle id="rim2" cx="0" cy="0" r="3.5"/>
                <g id="zoomPlus">
                        <use xlink:href="#rim" fill="#404040">
                                <set attributeName="fill" to="#808080" begin="zoomplus.mouseover" end="zoomplus.mouseout"/>
                        </use>
                        <path d="M-4,0h8M0,-4v8" fill="none" stroke="white" stroke-width="1.5" pointer-events="none"/>
                </g>
                <g id="zoomMin">
                        <use xlink:href="#rim" fill="#404040">
                                <set attributeName="fill" to="#808080" begin="zoomminus.mouseover" end="zoomminus.mouseout"/>
                        </use>
                        <path d="M-4,0h8" fill="none" stroke="white" stroke-width="1.5" pointer-events="none"/>
                </g>
                <g id="dirArrow">
                        <path fill="none" stroke="white" stroke-width="1.5" d="M0,-3.0v7 M-2.5,-0.5L0,-3.0L2.5,-0.5"/>
                </g>
               <g id="resetDef">
                       <use xlink:href="#rim2" fill="#404040">
                               <set attributeName="fill" to="#808080" begin="reset.mouseover" end="reset.mouseout"/>
                       </use>
               </g>
        </defs>

<script type="text/javascript">
var viewWidth = 1287;
var viewHeight = 1137;
var sectionId = 'dynsection-1';
</script>
<script xlink:href="../../svgpan.js"/>
<svg id="graph" class="graph">
<g id="viewport">
<title>Juniper.Unity.Widgets.Draggable</title>
<polygon fill="white" stroke="none" points="-4,4 -4,-1133 1282.5,-1133 1282.5,4 -4,4"/>
<!-- Node15 -->
<g id="node1" class="node"><title>Node15</title>
<g id="a_node1"><a xlink:title="An object that can be picked up and put down in a new location.">
<polygon fill="#bfbfbf" stroke="black" points="64.503,-0.5 64.503,-178.5 219.503,-178.5 219.503,-0.5 64.503,-0.5"/>
<text text-anchor="middle" x="142.003" y="-166.5" font-family="SegoeUI" font-size="10.00">Juniper.Unity.Widgets.Draggable</text>
<polyline fill="none" stroke="black" points="64.503,-159.5 219.503,-159.5 "/>
<text text-anchor="start" x="72.503" y="-147.5" font-family="SegoeUI" font-size="10.00">+ constrainMotion</text>
<text text-anchor="start" x="72.503" y="-136.5" font-family="SegoeUI" font-size="10.00">+ rotateWhileDragging</text>
<text text-anchor="start" x="72.503" y="-125.5" font-family="SegoeUI" font-size="10.00">+ TrackStart</text>
<text text-anchor="start" x="72.503" y="-114.5" font-family="SegoeUI" font-size="10.00">+ TrackEnd</text>
<text text-anchor="start" x="72.503" y="-103.5" font-family="SegoeUI" font-size="10.00">&#45; MotionConstraintStartName</text>
<text text-anchor="start" x="72.503" y="-92.5" font-family="SegoeUI" font-size="10.00">&#45; MotionConstraintEndName</text>
<text text-anchor="start" x="72.503" y="-81.5" font-family="SegoeUI" font-size="10.00">&#45; motionConstraintStart</text>
<text text-anchor="start" x="72.503" y="-70.5" font-family="SegoeUI" font-size="10.00">&#45; motionConstraintEnd</text>
<polyline fill="none" stroke="black" points="64.503,-63.5 219.503,-63.5 "/>
<text text-anchor="start" x="72.503" y="-51.5" font-family="SegoeUI" font-size="10.00">+ OnValidate()</text>
<text text-anchor="start" x="72.503" y="-40.5" font-family="SegoeUI" font-size="10.00">+ OnDrag()</text>
<text text-anchor="start" x="72.503" y="-29.5" font-family="SegoeUI" font-size="10.00"># LateUpdate()</text>
<text text-anchor="start" x="72.503" y="-18.5" font-family="SegoeUI" font-size="10.00">&#45; ResolveConstraint()</text>
<text text-anchor="start" x="72.503" y="-7.5" font-family="SegoeUI" font-size="10.00">&#45; DestroyConstraint()</text>
</a>
</g>
</g>
<!-- Node16 -->
<g id="node2" class="node"><title>Node16</title>
<g id="a_node2"><a xlink:href="../../d2/d57/class_juniper_1_1_unity_1_1_widgets_1_1_abstract_valued.html" target="_top" xlink:title="The Valued component adds a float field and range of valid values for that field to a Touchable objec...">
<polygon fill="white" stroke="black" points="319.503,-216.5 319.503,-570.5 456.503,-570.5 456.503,-216.5 319.503,-216.5"/>
<text text-anchor="middle" x="388.003" y="-558.5" font-family="SegoeUI" font-size="10.00">AbstractValued</text>
<polyline fill="none" stroke="black" points="319.503,-551.5 456.503,-551.5 "/>
<text text-anchor="start" x="327.503" y="-539.5" font-family="SegoeUI" font-size="10.00">+ Display</text>
<text text-anchor="start" x="327.503" y="-528.5" font-family="SegoeUI" font-size="10.00">+ SigFigs</text>
<text text-anchor="start" x="327.503" y="-517.5" font-family="SegoeUI" font-size="10.00">+ minValue</text>
<text text-anchor="start" x="327.503" y="-506.5" font-family="SegoeUI" font-size="10.00">+ maxValue</text>
<text text-anchor="start" x="327.503" y="-495.5" font-family="SegoeUI" font-size="10.00">+ _value</text>
<text text-anchor="start" x="327.503" y="-484.5" font-family="SegoeUI" font-size="10.00">+ Dragged</text>
<text text-anchor="start" x="327.503" y="-473.5" font-family="SegoeUI" font-size="10.00">+ value</text>
<text text-anchor="start" x="327.503" y="-462.5" font-family="SegoeUI" font-size="10.00">+ Delta</text>
<text text-anchor="start" x="327.503" y="-451.5" font-family="SegoeUI" font-size="10.00">+ DraggedChanged</text>
<text text-anchor="start" x="327.503" y="-440.5" font-family="SegoeUI" font-size="10.00">+ DraggedDown</text>
<text text-anchor="start" x="327.503" y="-429.5" font-family="SegoeUI" font-size="10.00">+ DraggedUp</text>
<text text-anchor="start" x="327.503" y="-418.5" font-family="SegoeUI" font-size="10.00">+ ValueChanged</text>
<text text-anchor="start" x="327.503" y="-407.5" font-family="SegoeUI" font-size="10.00">+ ConstraintRange</text>
<text text-anchor="start" x="327.503" y="-396.5" font-family="SegoeUI" font-size="10.00"># dragDistance</text>
<text text-anchor="start" x="327.503" y="-385.5" font-family="SegoeUI" font-size="10.00"># camT</text>
<text text-anchor="start" x="327.503" y="-374.5" font-family="SegoeUI" font-size="10.00"># internalValue</text>
<text text-anchor="start" x="327.503" y="-363.5" font-family="SegoeUI" font-size="10.00">&#45; wasDragged</text>
<text text-anchor="start" x="327.503" y="-352.5" font-family="SegoeUI" font-size="10.00">&#45; lastValue</text>
<text text-anchor="start" x="327.503" y="-341.5" font-family="SegoeUI" font-size="10.00">&#45; lastTickValue</text>
<polyline fill="none" stroke="black" points="319.503,-334.5 456.503,-334.5 "/>
<text text-anchor="start" x="327.503" y="-322.5" font-family="SegoeUI" font-size="10.00">+ SetValue()</text>
<text text-anchor="start" x="327.503" y="-311.5" font-family="SegoeUI" font-size="10.00">+ OnInitializePotentialDrag()</text>
<text text-anchor="start" x="327.503" y="-300.5" font-family="SegoeUI" font-size="10.00">+ OnBeginDrag()</text>
<text text-anchor="start" x="327.503" y="-289.5" font-family="SegoeUI" font-size="10.00">+ OnDrag()</text>
<text text-anchor="start" x="327.503" y="-278.5" font-family="SegoeUI" font-size="10.00">+ OnDrop()</text>
<text text-anchor="start" x="327.503" y="-267.5" font-family="SegoeUI" font-size="10.00">+ OnEndDrag()</text>
<text text-anchor="start" x="327.503" y="-256.5" font-family="SegoeUI" font-size="10.00"># Awake()</text>
<text text-anchor="start" x="327.503" y="-245.5" font-family="SegoeUI" font-size="10.00"># LateUpdate()</text>
<text text-anchor="start" x="327.503" y="-234.5" font-family="SegoeUI" font-size="10.00"># UpdateInternalValue()</text>
<text text-anchor="start" x="327.503" y="-223.5" font-family="SegoeUI" font-size="10.00"># ResetInternalValue()</text>
</a>
</g>
</g>
<!-- Node16&#45;&gt;Node15 -->
<g id="edge1" class="edge"><title>Node16&#45;&gt;Node15</title>
<path fill="none" stroke="midnightblue" d="M312.839,-300.226C281.356,-261.576 244.921,-216.846 213.806,-178.648"/>
<polygon fill="none" stroke="midnightblue" points="310.449,-302.833 319.478,-308.376 315.876,-298.412 310.449,-302.833"/>
</g>
<!-- Node17 -->
<g id="node3" class="node"><title>Node17</title>
<g id="a_node3"><a xlink:href="../../dc/dad/class_juniper_1_1_unity_1_1_widgets_1_1_abstract_touchable.html" target="_top" xlink:title="The base class for all interactive, AR&#45;compatible, GUI controls /// This class is abstract to avoid i...">
<polygon fill="white" stroke="black" points="620.003,-618.5 620.003,-862.5 746.003,-862.5 746.003,-618.5 620.003,-618.5"/>
<text text-anchor="middle" x="683.003" y="-850.5" font-family="SegoeUI" font-size="10.00">AbstractTouchable</text>
<polyline fill="none" stroke="black" points="620.003,-843.5 746.003,-843.5 "/>
<text text-anchor="start" x="628.003" y="-831.5" font-family="SegoeUI" font-size="10.00">+ disabled</text>
<text text-anchor="start" x="628.003" y="-820.5" font-family="SegoeUI" font-size="10.00">+ DisabledChanged</text>
<text text-anchor="start" x="628.003" y="-809.5" font-family="SegoeUI" font-size="10.00">+ DisabledDown</text>
<text text-anchor="start" x="628.003" y="-798.5" font-family="SegoeUI" font-size="10.00">+ DisabledUp</text>
<text text-anchor="start" x="628.003" y="-787.5" font-family="SegoeUI" font-size="10.00">+ IsDisabled</text>
<text text-anchor="start" x="628.003" y="-776.5" font-family="SegoeUI" font-size="10.00">+ PointerPositionChanged</text>
<text text-anchor="start" x="628.003" y="-765.5" font-family="SegoeUI" font-size="10.00">&#45; wasDisabled</text>
<polyline fill="none" stroke="black" points="620.003,-758.5 746.003,-758.5 "/>
<text text-anchor="start" x="628.003" y="-746.5" font-family="SegoeUI" font-size="10.00">+ SetDisabled()</text>
<text text-anchor="start" x="628.003" y="-735.5" font-family="SegoeUI" font-size="10.00">+ ToggleEnabled()</text>
<text text-anchor="start" x="628.003" y="-724.5" font-family="SegoeUI" font-size="10.00">+ OnPointerEnter()</text>
<text text-anchor="start" x="628.003" y="-713.5" font-family="SegoeUI" font-size="10.00">+ OnPointerExit()</text>
<text text-anchor="start" x="628.003" y="-702.5" font-family="SegoeUI" font-size="10.00">+ OnPointerDown()</text>
<text text-anchor="start" x="628.003" y="-691.5" font-family="SegoeUI" font-size="10.00">+ OnPointerUp()</text>
<text text-anchor="start" x="628.003" y="-680.5" font-family="SegoeUI" font-size="10.00"># Awake()</text>
<text text-anchor="start" x="628.003" y="-669.5" font-family="SegoeUI" font-size="10.00"># Update()</text>
<text text-anchor="start" x="628.003" y="-658.5" font-family="SegoeUI" font-size="10.00"># LateUpdate()</text>
<text text-anchor="start" x="628.003" y="-647.5" font-family="SegoeUI" font-size="10.00"># ShowState()</text>
<text text-anchor="start" x="628.003" y="-636.5" font-family="SegoeUI" font-size="10.00"># GetPosition()</text>
<text text-anchor="start" x="628.003" y="-625.5" font-family="SegoeUI" font-size="10.00">&#45; NormalizePart()</text>
</a>
</g>
</g>
<!-- Node17&#45;&gt;Node16 -->
<g id="edge2" class="edge"><title>Node17&#45;&gt;Node16</title>
<path fill="none" stroke="midnightblue" d="M613.811,-621.671C612.878,-620.435 611.942,-619.211 611.003,-618 564.564,-558.117 503.247,-497.731 456.664,-454.849"/>
<polygon fill="none" stroke="midnightblue" points="611.176,-623.997 619.914,-629.989 616.82,-619.856 611.176,-623.997"/>
</g>
<!-- Node18 -->
<g id="node4" class="node"><title>Node18</title>
<g id="a_node4"><a xlink:title=" ">
<polygon fill="white" stroke="#bfbfbf" points="701.003,-1071.5 701.003,-1128.5 783.003,-1128.5 783.003,-1071.5 701.003,-1071.5"/>
<text text-anchor="middle" x="742.003" y="-1116.5" font-family="SegoeUI" font-size="10.00">MonoBehaviour</text>
<polyline fill="none" stroke="#bfbfbf" points="701.003,-1109.5 783.003,-1109.5 "/>
<text text-anchor="middle" x="742.003" y="-1097.5" font-family="SegoeUI" font-size="10.00"> </text>
<polyline fill="none" stroke="#bfbfbf" points="701.003,-1090.5 783.003,-1090.5 "/>
<text text-anchor="middle" x="742.003" y="-1078.5" font-family="SegoeUI" font-size="10.00"> </text>
</a>
</g>
</g>
<!-- Node18&#45;&gt;Node17 -->
<g id="edge3" class="edge"><title>Node18&#45;&gt;Node17</title>
<path fill="none" stroke="midnightblue" d="M691.048,-1087.07C663.097,-1077.65 630.796,-1061.36 614.003,-1034 580.161,-978.86 595.292,-908.51 619.894,-850.623"/>
<polygon fill="none" stroke="midnightblue" points="690.13,-1090.45 700.72,-1090.13 692.239,-1083.78 690.13,-1090.45"/>
</g>
<!-- Node23 -->
<g id="node9" class="node"><title>Node23</title>
<g id="a_node9"><a xlink:href="../../dd/d2d/class_juniper_1_1_unity_1_1_animation_1_1_abstract_animator.html" target="_top" xlink:title="An abstraction layer over different ways of showing UI state. Only one such component is allowed on a...">
<polygon fill="white" stroke="black" points="1101,-932.5 1101,-1033.5 1221,-1033.5 1221,-932.5 1101,-932.5"/>
<text text-anchor="start" x="1109" y="-1021.5" font-family="SegoeUI" font-size="10.00">Juniper.Unity.Animation.</text>
<text text-anchor="middle" x="1161" y="-1010.5" font-family="SegoeUI" font-size="10.00">AbstractAnimator</text>
<polyline fill="none" stroke="black" points="1101,-1003.5 1221,-1003.5 "/>
<text text-anchor="middle" x="1161" y="-991.5" font-family="SegoeUI" font-size="10.00"> </text>
<polyline fill="none" stroke="black" points="1101,-984.5 1221,-984.5 "/>
<text text-anchor="start" x="1109" y="-972.5" font-family="SegoeUI" font-size="10.00">+ PlayCoroutine()</text>
<text text-anchor="start" x="1109" y="-961.5" font-family="SegoeUI" font-size="10.00">+ Play()</text>
<text text-anchor="start" x="1109" y="-950.5" font-family="SegoeUI" font-size="10.00">+ HasState()</text>
<text text-anchor="start" x="1109" y="-939.5" font-family="SegoeUI" font-size="10.00">+ GetAnimator()</text>
</a>
</g>
</g>
<!-- Node18&#45;&gt;Node23 -->
<g id="edge9" class="edge"><title>Node18&#45;&gt;Node23</title>
<path fill="none" stroke="midnightblue" d="M793.367,-1096.53C863.456,-1091.6 991.793,-1077 1092,-1034 1094.99,-1032.72 1097.98,-1031.28 1100.94,-1029.74"/>
<polygon fill="none" stroke="midnightblue" points="792.791,-1093.06 783.045,-1097.21 793.254,-1100.04 792.791,-1093.06"/>
</g>
<!-- Node19 -->
<g id="node5" class="node"><title>Node19</title>
<g id="a_node5"><a xlink:title=" ">
<polygon fill="white" stroke="#bfbfbf" points="623.503,-954.5 623.503,-1011.5 728.503,-1011.5 728.503,-954.5 623.503,-954.5"/>
<text text-anchor="middle" x="676.003" y="-999.5" font-family="SegoeUI" font-size="10.00">IPointerEnterHandler</text>
<polyline fill="none" stroke="#bfbfbf" points="623.503,-992.5 728.503,-992.5 "/>
<text text-anchor="middle" x="676.003" y="-980.5" font-family="SegoeUI" font-size="10.00"> </text>
<polyline fill="none" stroke="#bfbfbf" points="623.503,-973.5 728.503,-973.5 "/>
<text text-anchor="middle" x="676.003" y="-961.5" font-family="SegoeUI" font-size="10.00"> </text>
</a>
</g>
</g>
<!-- Node19&#45;&gt;Node17 -->
<g id="edge4" class="edge"><title>Node19&#45;&gt;Node17</title>
<path fill="none" stroke="midnightblue" d="M677.098,-944.387C677.748,-922.062 678.612,-892.376 679.478,-862.62"/>
<polygon fill="none" stroke="midnightblue" points="673.598,-944.314 676.806,-954.412 680.596,-944.518 673.598,-944.314"/>
</g>
<!-- Node20 -->
<g id="node6" class="node"><title>Node20</title>
<g id="a_node6"><a xlink:title=" ">
<polygon fill="white" stroke="#bfbfbf" points="747.003,-954.5 747.003,-1011.5 845.003,-1011.5 845.003,-954.5 747.003,-954.5"/>
<text text-anchor="middle" x="796.003" y="-999.5" font-family="SegoeUI" font-size="10.00">IPointerExitHandler</text>
<polyline fill="none" stroke="#bfbfbf" points="747.003,-992.5 845.003,-992.5 "/>
<text text-anchor="middle" x="796.003" y="-980.5" font-family="SegoeUI" font-size="10.00"> </text>
<polyline fill="none" stroke="#bfbfbf" points="747.003,-973.5 845.003,-973.5 "/>
<text text-anchor="middle" x="796.003" y="-961.5" font-family="SegoeUI" font-size="10.00"> </text>
</a>
</g>
</g>
<!-- Node20&#45;&gt;Node17 -->
<g id="edge5" class="edge"><title>Node20&#45;&gt;Node17</title>
<path fill="none" stroke="midnightblue" d="M778.756,-945.292C768.219,-922.868 754.083,-892.78 739.912,-862.62"/>
<polygon fill="none" stroke="midnightblue" points="775.62,-946.849 783.04,-954.412 781.956,-943.872 775.62,-946.849"/>
</g>
<!-- Node21 -->
<g id="node7" class="node"><title>Node21</title>
<g id="a_node7"><a xlink:title=" ">
<polygon fill="white" stroke="#bfbfbf" points="863.503,-954.5 863.503,-1011.5 970.503,-1011.5 970.503,-954.5 863.503,-954.5"/>
<text text-anchor="middle" x="917.003" y="-999.5" font-family="SegoeUI" font-size="10.00">IPointerDownHandler</text>
<polyline fill="none" stroke="#bfbfbf" points="863.503,-992.5 970.503,-992.5 "/>
<text text-anchor="middle" x="917.003" y="-980.5" font-family="SegoeUI" font-size="10.00"> </text>
<polyline fill="none" stroke="#bfbfbf" points="863.503,-973.5 970.503,-973.5 "/>
<text text-anchor="middle" x="917.003" y="-961.5" font-family="SegoeUI" font-size="10.00"> </text>
</a>
</g>
</g>
<!-- Node21&#45;&gt;Node17 -->
<g id="edge6" class="edge"><title>Node21&#45;&gt;Node17</title>
<path fill="none" stroke="midnightblue" d="M874.956,-948.04C868.012,-942.603 860.847,-937.093 854.003,-932 810.977,-899.981 791.503,-902.296 755.003,-863 751.999,-859.766 749.062,-856.387 746.197,-852.898"/>
<polygon fill="none" stroke="midnightblue" points="872.952,-950.918 882.972,-954.361 877.287,-945.421 872.952,-950.918"/>
</g>
<!-- Node22 -->
<g id="node8" class="node"><title>Node22</title>
<g id="a_node8"><a xlink:title=" ">
<polygon fill="white" stroke="#bfbfbf" points="989.003,-954.5 989.003,-1011.5 1083,-1011.5 1083,-954.5 989.003,-954.5"/>
<text text-anchor="middle" x="1036" y="-999.5" font-family="SegoeUI" font-size="10.00">IPointerUpHandler</text>
<polyline fill="none" stroke="#bfbfbf" points="989.003,-992.5 1083,-992.5 "/>
<text text-anchor="middle" x="1036" y="-980.5" font-family="SegoeUI" font-size="10.00"> </text>
<polyline fill="none" stroke="#bfbfbf" points="989.003,-973.5 1083,-973.5 "/>
<text text-anchor="middle" x="1036" y="-961.5" font-family="SegoeUI" font-size="10.00"> </text>
</a>
</g>
</g>
<!-- Node22&#45;&gt;Node17 -->
<g id="edge7" class="edge"><title>Node22&#45;&gt;Node17</title>
<path fill="none" stroke="midnightblue" d="M1001.89,-947.456C995.035,-941.733 987.592,-936.279 980.003,-932 912.774,-894.089 887.803,-903.594 814.003,-881 787.789,-872.974 776.56,-879.938 755.003,-863 751.918,-860.576 748.938,-857.981 746.061,-855.245"/>
<polygon fill="none" stroke="midnightblue" points="999.816,-950.29 1009.65,-954.243 1004.43,-945.023 999.816,-950.29"/>
</g>
<!-- Node23&#45;&gt;Node17 -->
<g id="edge8" class="edge"><title>Node23&#45;&gt;Node17</title>
<path fill="none" stroke="#404040" d="M1100.83,-936.503C1097.9,-934.892 1094.95,-933.38 1092,-932 1008.53,-892.929 981.508,-898.409 891.003,-881 834.637,-870.158 808.957,-893.558 756.292,-862.802"/>
<polygon fill="none" stroke="#404040" points="756.288,-862.799 749.079,-862.989 746.131,-856.408 753.34,-856.218 756.288,-862.799"/>
<text text-anchor="middle" x="1070" y="-895" font-family="SegoeUI" font-size="10.00"> &#45;animator</text>
</g>
<!-- Node24 -->
<g id="node10" class="node"><title>Node24</title>
<g id="a_node10"><a xlink:title=" ">
<polygon fill="white" stroke="#bfbfbf" points="339.003,-954.5 339.003,-1011.5 405.003,-1011.5 405.003,-954.5 339.003,-954.5"/>
<text text-anchor="middle" x="372.003" y="-999.5" font-family="SegoeUI" font-size="10.00">UnityEngine</text>
<polyline fill="none" stroke="#bfbfbf" points="339.003,-992.5 405.003,-992.5 "/>
<text text-anchor="middle" x="372.003" y="-980.5" font-family="SegoeUI" font-size="10.00"> </text>
<polyline fill="none" stroke="#bfbfbf" points="339.003,-973.5 405.003,-973.5 "/>
<text text-anchor="middle" x="372.003" y="-961.5" font-family="SegoeUI" font-size="10.00"> </text>
</a>
</g>
</g>
<!-- Node24&#45;&gt;Node15 -->
<g id="edge20" class="edge"><title>Node24&#45;&gt;Node15</title>
<path fill="none" stroke="#404040" d="M338.875,-980.345C274.281,-975.117 132.458,-953.38 71.003,-863 -68.6782,-657.576 29.7791,-347.147 95.7284,-189.665"/>
<polygon fill="none" stroke="#404040" points="95.7372,-189.644 94.3937,-182.56 100.417,-178.595 101.76,-185.679 95.7372,-189.644"/>
<text text-anchor="middle" x="38.503" y="-592" font-family="SegoeUI" font-size="10.00"> &#45;lastCamPosition</text>
</g>
<!-- Node24&#45;&gt;Node16 -->
<g id="edge19" class="edge"><title>Node24&#45;&gt;Node16</title>
<path fill="none" stroke="#404040" d="M372.753,-954.452C374.54,-888.829 379.176,-718.619 382.871,-582.949"/>
<polygon fill="none" stroke="#404040" points="382.876,-582.759 379.041,-576.652 383.203,-570.763 387.038,-576.87 382.876,-582.759"/>
<text text-anchor="middle" x="421.003" y="-760" font-family="SegoeUI" font-size="10.00"> #interactionPoint</text>
<text text-anchor="middle" x="421.003" y="-749" font-family="SegoeUI" font-size="10.00">#interactionOffset</text>
<text text-anchor="middle" x="421.003" y="-738" font-family="SegoeUI" font-size="10.00">#angVel</text>
<text text-anchor="middle" x="421.003" y="-727" font-family="SegoeUI" font-size="10.00">#grabOffset</text>
<text text-anchor="middle" x="421.003" y="-716" font-family="SegoeUI" font-size="10.00">#velocity</text>
</g>
<!-- Node24&#45;&gt;Node17 -->
<g id="edge10" class="edge"><title>Node24&#45;&gt;Node17</title>
<path fill="none" stroke="#404040" d="M382.957,-954.275C394.393,-925.986 411.546,-885.592 418.003,-881 485.192,-833.215 533.88,-902.616 609.61,-862.634"/>
<polygon fill="none" stroke="#404040" points="609.621,-862.628 612.779,-856.145 619.977,-856.567 616.819,-863.049 609.621,-862.628"/>
<text text-anchor="middle" x="462.003" y="-906" font-family="SegoeUI" font-size="10.00"> #lastPointerPosition</text>
<text text-anchor="middle" x="462.003" y="-895" font-family="SegoeUI" font-size="10.00">+pointerPosition</text>
<text text-anchor="middle" x="462.003" y="-884" font-family="SegoeUI" font-size="10.00">+clickButton</text>
</g>
<!-- Node25 -->
<g id="node11" class="node"><title>Node25</title>
<g id="a_node11"><a xlink:title=" ">
<polygon fill="white" stroke="#bfbfbf" points="1239.5,-954.5 1239.5,-1011.5 1278.5,-1011.5 1278.5,-954.5 1239.5,-954.5"/>
<text text-anchor="middle" x="1259" y="-999.5" font-family="SegoeUI" font-size="10.00">static</text>
<polyline fill="none" stroke="#bfbfbf" points="1239.5,-992.5 1278.5,-992.5 "/>
<text text-anchor="middle" x="1259" y="-980.5" font-family="SegoeUI" font-size="10.00"> </text>
<polyline fill="none" stroke="#bfbfbf" points="1239.5,-973.5 1278.5,-973.5 "/>
<text text-anchor="middle" x="1259" y="-961.5" font-family="SegoeUI" font-size="10.00"> </text>
</a>
</g>
</g>
<!-- Node25&#45;&gt;Node17 -->
<g id="edge11" class="edge"><title>Node25&#45;&gt;Node17</title>
<path fill="none" stroke="#404040" d="M1247.34,-954.363C1242.88,-946.306 1237.11,-938.053 1230,-932 1181.82,-890.941 1158.93,-894.158 1097,-881 1062.25,-873.616 822.677,-881.502 757.37,-861.636"/>
<polygon fill="none" stroke="#404040" points="757.282,-861.6 750.203,-862.969 746.216,-856.96 753.295,-855.591 757.282,-861.6"/>
<text text-anchor="middle" x="1240.5" y="-895" font-family="SegoeUI" font-size="10.00"> +PART_NAMES</text>
</g>
<!-- Node26 -->
<g id="node12" class="node"><title>Node26</title>
<g id="a_node12"><a xlink:title=" ">
<polygon fill="white" stroke="#bfbfbf" points="764.003,-706.5 764.003,-774.5 876.003,-774.5 876.003,-706.5 764.003,-706.5"/>
<text text-anchor="start" x="772.003" y="-762.5" font-family="SegoeUI" font-size="10.00">IInitializePotentialDrag</text>
<text text-anchor="middle" x="820.003" y="-751.5" font-family="SegoeUI" font-size="10.00">Handler</text>
<polyline fill="none" stroke="#bfbfbf" points="764.003,-744.5 876.003,-744.5 "/>
<text text-anchor="middle" x="820.003" y="-732.5" font-family="SegoeUI" font-size="10.00"> </text>
<polyline fill="none" stroke="#bfbfbf" points="764.003,-725.5 876.003,-725.5 "/>
<text text-anchor="middle" x="820.003" y="-713.5" font-family="SegoeUI" font-size="10.00"> </text>
</a>
</g>
</g>
<!-- Node26&#45;&gt;Node16 -->
<g id="edge12" class="edge"><title>Node26&#45;&gt;Node16</title>
<path fill="none" stroke="midnightblue" d="M803.994,-697.051C793,-671.951 776.502,-640.733 755.003,-618 668.503,-526.536 536.573,-458.54 456.692,-422.815"/>
<polygon fill="none" stroke="midnightblue" points="800.809,-698.503 807.938,-706.34 807.252,-695.768 800.809,-698.503"/>
</g>
<!-- Node27 -->
<g id="node13" class="node"><title>Node27</title>
<g id="a_node13"><a xlink:title=" ">
<polygon fill="white" stroke="#bfbfbf" points="894.003,-712 894.003,-769 990.003,-769 990.003,-712 894.003,-712"/>
<text text-anchor="middle" x="942.003" y="-757" font-family="SegoeUI" font-size="10.00">IBeginDragHandler</text>
<polyline fill="none" stroke="#bfbfbf" points="894.003,-750 990.003,-750 "/>
<text text-anchor="middle" x="942.003" y="-738" font-family="SegoeUI" font-size="10.00"> </text>
<polyline fill="none" stroke="#bfbfbf" points="894.003,-731 990.003,-731 "/>
<text text-anchor="middle" x="942.003" y="-719" font-family="SegoeUI" font-size="10.00"> </text>
</a>
</g>
</g>
<!-- Node27&#45;&gt;Node16 -->
<g id="edge13" class="edge"><title>Node27&#45;&gt;Node16</title>
<path fill="none" stroke="midnightblue" d="M932.085,-702.165C923.423,-675.772 908.491,-641.114 885.003,-618 761.77,-496.729 561.207,-434.704 456.52,-409.138"/>
<polygon fill="none" stroke="midnightblue" points="928.782,-703.331 935.103,-711.834 935.465,-701.246 928.782,-703.331"/>
</g>
<!-- Node28 -->
<g id="node14" class="node"><title>Node28</title>
<g id="a_node14"><a xlink:title=" ">
<polygon fill="white" stroke="#bfbfbf" points="80.503,-712 80.503,-769 153.503,-769 153.503,-712 80.503,-712"/>
<text text-anchor="middle" x="117.003" y="-757" font-family="SegoeUI" font-size="10.00">IDragHandler</text>
<polyline fill="none" stroke="#bfbfbf" points="80.503,-750 153.503,-750 "/>
<text text-anchor="middle" x="117.003" y="-738" font-family="SegoeUI" font-size="10.00"> </text>
<polyline fill="none" stroke="#bfbfbf" points="80.503,-731 153.503,-731 "/>
<text text-anchor="middle" x="117.003" y="-719" font-family="SegoeUI" font-size="10.00"> </text>
</a>
</g>
</g>
<!-- Node28&#45;&gt;Node16 -->
<g id="edge14" class="edge"><title>Node28&#45;&gt;Node16</title>
<path fill="none" stroke="midnightblue" d="M126.289,-701.994C133.568,-676.926 145.286,-643.918 162.003,-618 204.624,-551.918 269.822,-490.153 319.256,-448.374"/>
<polygon fill="none" stroke="midnightblue" points="122.851,-701.292 123.531,-711.865 129.593,-703.175 122.851,-701.292"/>
</g>
<!-- Node29 -->
<g id="node15" class="node"><title>Node29</title>
<g id="a_node15"><a xlink:title=" ">
<polygon fill="white" stroke="#bfbfbf" points="171.503,-712 171.503,-769 260.503,-769 260.503,-712 171.503,-712"/>
<text text-anchor="middle" x="216.003" y="-757" font-family="SegoeUI" font-size="10.00">IEndDragHandler</text>
<polyline fill="none" stroke="#bfbfbf" points="171.503,-750 260.503,-750 "/>
<text text-anchor="middle" x="216.003" y="-738" font-family="SegoeUI" font-size="10.00"> </text>
<polyline fill="none" stroke="#bfbfbf" points="171.503,-731 260.503,-731 "/>
<text text-anchor="middle" x="216.003" y="-719" font-family="SegoeUI" font-size="10.00"> </text>
</a>
</g>
</g>
<!-- Node29&#45;&gt;Node16 -->
<g id="edge15" class="edge"><title>Node29&#45;&gt;Node16</title>
<path fill="none" stroke="midnightblue" d="M231.389,-702.19C241.591,-677.978 255.534,-645.862 269.003,-618 284.644,-585.645 302.43,-551.163 319.397,-519.212"/>
<polygon fill="none" stroke="midnightblue" points="228.034,-701.141 227.396,-711.717 234.489,-703.847 228.034,-701.141"/>
</g>
<!-- Node30 -->
<g id="node16" class="node"><title>Node30</title>
<g id="a_node16"><a xlink:title=" ">
<polygon fill="white" stroke="#bfbfbf" points="278.503,-712 278.503,-769 351.503,-769 351.503,-712 278.503,-712"/>
<text text-anchor="middle" x="315.003" y="-757" font-family="SegoeUI" font-size="10.00">IDropHandler</text>
<polyline fill="none" stroke="#bfbfbf" points="278.503,-750 351.503,-750 "/>
<text text-anchor="middle" x="315.003" y="-738" font-family="SegoeUI" font-size="10.00"> </text>
<polyline fill="none" stroke="#bfbfbf" points="278.503,-731 351.503,-731 "/>
<text text-anchor="middle" x="315.003" y="-719" font-family="SegoeUI" font-size="10.00"> </text>
</a>
</g>
</g>
<!-- Node30&#45;&gt;Node16 -->
<g id="edge16" class="edge"><title>Node30&#45;&gt;Node16</title>
<path fill="none" stroke="midnightblue" d="M322.945,-701.965C329.786,-669.633 340.19,-620.466 350.684,-570.872"/>
<polygon fill="none" stroke="midnightblue" points="319.499,-701.342 320.853,-711.85 326.348,-702.792 319.499,-701.342"/>
</g>
<!-- Node31 -->
<g id="node17" class="node"><title>Node31</title>
<g id="a_node17"><a xlink:href="../../dd/d6e/interface_juniper_1_1_unity_1_1_widgets_1_1_i_valued_control.html" target="_top" xlink:title=" ">
<polygon fill="white" stroke="black" points="484.003,-712 484.003,-769 602.003,-769 602.003,-712 484.003,-712"/>
<text text-anchor="middle" x="543.003" y="-757" font-family="SegoeUI" font-size="10.00">IValuedControl&lt; float &gt;</text>
<polyline fill="none" stroke="black" points="484.003,-750 602.003,-750 "/>
<text text-anchor="start" x="492.003" y="-738" font-family="SegoeUI" font-size="10.00">+ value</text>
<polyline fill="none" stroke="black" points="484.003,-731 602.003,-731 "/>
<text text-anchor="middle" x="543.003" y="-719" font-family="SegoeUI" font-size="10.00"> </text>
</a>
</g>
</g>
<!-- Node31&#45;&gt;Node16 -->
<g id="edge17" class="edge"><title>Node31&#45;&gt;Node16</title>
<path fill="none" stroke="midnightblue" d="M526.322,-702.372C509.486,-664.898 482.358,-604.517 456.568,-547.113"/>
<polygon fill="none" stroke="midnightblue" points="523.29,-704.163 530.581,-711.85 529.675,-701.294 523.29,-704.163"/>
</g>
<!-- Node32 -->
<g id="node18" class="node"><title>Node32</title>
<g id="a_node18"><a xlink:href="../../dd/d6e/interface_juniper_1_1_unity_1_1_widgets_1_1_i_valued_control.html" target="_top" xlink:title=" ">
<polygon fill="white" stroke="black" points="423.003,-949 423.003,-1017 567.003,-1017 567.003,-949 423.003,-949"/>
<text text-anchor="start" x="431.003" y="-1005" font-family="SegoeUI" font-size="10.00">Juniper.Unity.Widgets.IValued</text>
<text text-anchor="middle" x="495.003" y="-994" font-family="SegoeUI" font-size="10.00">Control&lt; T &gt;</text>
<polyline fill="none" stroke="black" points="423.003,-987 567.003,-987 "/>
<text text-anchor="start" x="431.003" y="-975" font-family="SegoeUI" font-size="10.00">+ value</text>
<polyline fill="none" stroke="black" points="423.003,-968 567.003,-968 "/>
<text text-anchor="middle" x="495.003" y="-956" font-family="SegoeUI" font-size="10.00"> </text>
</a>
</g>
</g>
<!-- Node32&#45;&gt;Node31 -->
<g id="edge18" class="edge"><title>Node32&#45;&gt;Node31</title>
<path fill="none" stroke="orange" d="M504.688,-938.963C506.496,-930.687 508.339,-922.081 510.003,-914 520.518,-862.932 531.71,-803.121 537.982,-769.033"/>
<polygon fill="orange" stroke="orange" points="501.246,-938.318 502.514,-948.837 508.082,-939.823 501.246,-938.318"/>
<text text-anchor="middle" x="538.003" y="-895" font-family="SegoeUI" font-size="10.00"> &lt; float &gt;</text>
</g>
</g>
</svg>
        <g id="navigator" transform="translate(0 0)" fill="#404254">
                <rect fill="#f2f5e9" fill-opacity="0.5" stroke="#606060" stroke-width=".5" x="0" y="0" width="60" height="60"/>
                <use id="zoomplus" xlink:href="#zoomPlus" x="17" y="9" onmousedown="handleZoom(evt,'in')"/>
                <use id="zoomminus" xlink:href="#zoomMin" x="42" y="9" onmousedown="handleZoom(evt,'out')"/>
                <use id="reset" xlink:href="#resetDef" x="30" y="36" onmousedown="handleReset()"/>
                <g id="arrowUp" xlink:href="#dirArrow" transform="translate(30 24)" onmousedown="handlePan(0,-1)">
                  <use xlink:href="#rim" fill="#404040">
                        <set attributeName="fill" to="#808080" begin="arrowUp.mouseover" end="arrowUp.mouseout"/>
                  </use>
                  <path fill="none" stroke="white" stroke-width="1.5" d="M0,-3.0v7 M-2.5,-0.5L0,-3.0L2.5,-0.5"/>
                </g>
                <g id="arrowRight" xlink:href="#dirArrow" transform="rotate(90) translate(36 -43)" onmousedown="handlePan(1,0)">
                  <use xlink:href="#rim" fill="#404040">
                        <set attributeName="fill" to="#808080" begin="arrowRight.mouseover" end="arrowRight.mouseout"/>
                  </use>
                  <path fill="none" stroke="white" stroke-width="1.5" d="M0,-3.0v7 M-2.5,-0.5L0,-3.0L2.5,-0.5"/>
                </g>
                <g id="arrowDown" xlink:href="#dirArrow" transform="rotate(180) translate(-30 -48)" onmousedown="handlePan(0,1)">
                  <use xlink:href="#rim" fill="#404040">
                        <set attributeName="fill" to="#808080" begin="arrowDown.mouseover" end="arrowDown.mouseout"/>
                  </use>
                  <path fill="none" stroke="white" stroke-width="1.5" d="M0,-3.0v7 M-2.5,-0.5L0,-3.0L2.5,-0.5"/>
                </g>
                <g id="arrowLeft" xlink:href="#dirArrow" transform="rotate(270) translate(-36 17)" onmousedown="handlePan(-1,0)">
                  <use xlink:href="#rim" fill="#404040">
                        <set attributeName="fill" to="#808080" begin="arrowLeft.mouseover" end="arrowLeft.mouseout"/>
                  </use>
                  <path fill="none" stroke="white" stroke-width="1.5" d="M0,-3.0v7 M-2.5,-0.5L0,-3.0L2.5,-0.5"/>
                </g>
        </g>
        <svg viewBox="0 0 15 15" width="100%" height="30px" preserveAspectRatio="xMaxYMin meet">
         <g id="arrow_out" transform="scale(0.3 0.3)">
          <a xlink:href="class_juniper_1_1_unity_1_1_widgets_1_1_draggable__coll__graph_org.svg" target="_base">
           <rect id="button" ry="5" rx="5" y="6" x="6" height="38" width="38"
                fill="#f2f5e9" fill-opacity="0.5" stroke="#606060" stroke-width="1.0"/>
           <path id="arrow"
             d="M 11.500037,31.436501 C 11.940474,20.09759 22.043105,11.32322 32.158766,21.979434 L 37.068811,17.246167 C 37.068811,17.246167 37.088388,32 37.088388,32 L 22.160133,31.978069 C 22.160133,31.978069 26.997745,27.140456 26.997745,27.140456 C 18.528582,18.264221 13.291696,25.230495 11.500037,31.436501 z"
             style="fill:#404040;"/>
          </a>
         </g>
        </svg>
</svg>
