<?xml version="1.0" encoding="UTF-8" standalone="no"?>
<!DOCTYPE svg PUBLIC "-//W3C//DTD SVG 1.1//EN"
 "http://www.w3.org/Graphics/SVG/1.1/DTD/svg11.dtd">
<!-- Generated by graphviz version 2.38.0 (20140413.2041)
 -->
<!-- Title: Juniper.ConfigurationManagement.PlatformConfiguration Pages: 1 -->
<svg width="174pt" height="402pt"
 viewBox="0.00 0.00 174.00 402.00" xmlns="http://www.w3.org/2000/svg" xmlns:xlink="http://www.w3.org/1999/xlink">
<g id="graph0" class="graph" transform="scale(1 1) rotate(0) translate(4 398)">
<title>Juniper.ConfigurationManagement.PlatformConfiguration</title>
<polygon fill="white" stroke="none" points="-4,4 -4,-398 170,-398 170,4 -4,4"/>
<!-- Node0 -->
<g id="node1" class="node"><title>Node0</title>
<g id="a_node1"><a xlink:title=" ">
<polygon fill="#bfbfbf" stroke="black" points="0,-0.5 0,-299.5 166,-299.5 166,-0.5 0,-0.5"/>
<text text-anchor="start" x="8" y="-287.5" font-family="SegoeUI" font-size="10.00">Juniper.ConfigurationManagement.</text>
<text text-anchor="middle" x="83" y="-276.5" font-family="SegoeUI" font-size="10.00">PlatformConfiguration</text>
<polyline fill="none" stroke="black" points="0,-269.5 166,-269.5 "/>
<text text-anchor="start" x="8" y="-257.5" font-family="SegoeUI" font-size="10.00">+ Current</text>
<text text-anchor="start" x="8" y="-246.5" font-family="SegoeUI" font-size="10.00">+ Name</text>
<text text-anchor="start" x="8" y="-235.5" font-family="SegoeUI" font-size="10.00">+ CompilerDefine</text>
<text text-anchor="start" x="8" y="-224.5" font-family="SegoeUI" font-size="10.00">+ BuildTargetName</text>
<text text-anchor="start" x="8" y="-213.5" font-family="SegoeUI" font-size="10.00">+ Spatializer</text>
<text text-anchor="start" x="8" y="-202.5" font-family="SegoeUI" font-size="10.00">+ AndroidSdkVersion</text>
<text text-anchor="start" x="8" y="-191.5" font-family="SegoeUI" font-size="10.00">+ IOSVersion</text>
<text text-anchor="start" x="8" y="-180.5" font-family="SegoeUI" font-size="10.00">+ WsaSubtarget</text>
<text text-anchor="start" x="8" y="-169.5" font-family="SegoeUI" font-size="10.00">+ Packages</text>
<text text-anchor="start" x="8" y="-158.5" font-family="SegoeUI" font-size="10.00">+ VrSystems</text>
<text text-anchor="start" x="8" y="-147.5" font-family="SegoeUI" font-size="10.00">+ XRPlatforms</text>
<text text-anchor="start" x="8" y="-136.5" font-family="SegoeUI" font-size="10.00">&#45; NO_VR_SYSTEMS</text>
<polyline fill="none" stroke="black" points="0,-129.5 166,-129.5 "/>
<text text-anchor="start" x="8" y="-117.5" font-family="SegoeUI" font-size="10.00">+ GetObjectData()</text>
<text text-anchor="start" x="8" y="-106.5" font-family="SegoeUI" font-size="10.00">+ GetBuildTarget()</text>
<text text-anchor="start" x="8" y="-95.5" font-family="SegoeUI" font-size="10.00">+ GetTargetGroup()</text>
<text text-anchor="start" x="8" y="-84.5" font-family="SegoeUI" font-size="10.00">+ IsSupported()</text>
<text text-anchor="start" x="8" y="-73.5" font-family="SegoeUI" font-size="10.00">+ IsActivated()</text>
<text text-anchor="start" x="8" y="-62.5" font-family="SegoeUI" font-size="10.00">+ SwitchTarget()</text>
<text text-anchor="start" x="8" y="-51.5" font-family="SegoeUI" font-size="10.00">+ IsTargetSwitchNeeded()</text>
<text text-anchor="start" x="8" y="-40.5" font-family="SegoeUI" font-size="10.00">+ GetCompilerDefines()</text>
<text text-anchor="start" x="8" y="-29.5" font-family="SegoeUI" font-size="10.00">+ Activate()</text>
<text text-anchor="start" x="8" y="-18.5" font-family="SegoeUI" font-size="10.00">+ Deactivate()</text>
<text text-anchor="start" x="8" y="-7.5" font-family="SegoeUI" font-size="10.00">&#45; PlatformConfiguration()</text>
</a>
</g>
</g>
<!-- Node1 -->
<g id="node2" class="node"><title>Node1</title>
<g id="a_node2"><a xlink:title=" ">
<polygon fill="white" stroke="#bfbfbf" points="48.5,-336.5 48.5,-393.5 117.5,-393.5 117.5,-336.5 48.5,-336.5"/>
<text text-anchor="middle" x="83" y="-381.5" font-family="SegoeUI" font-size="10.00">ISerializable</text>
<polyline fill="none" stroke="#bfbfbf" points="48.5,-374.5 117.5,-374.5 "/>
<text text-anchor="middle" x="83" y="-362.5" font-family="SegoeUI" font-size="10.00"> </text>
<polyline fill="none" stroke="#bfbfbf" points="48.5,-355.5 117.5,-355.5 "/>
<text text-anchor="middle" x="83" y="-343.5" font-family="SegoeUI" font-size="10.00"> </text>
</a>
</g>
</g>
<!-- Node1&#45;&gt;Node0 -->
<g id="edge1" class="edge"><title>Node1&#45;&gt;Node0</title>
<path fill="none" stroke="midnightblue" d="M83,-325.923C83,-317.996 83,-309.193 83,-299.872"/>
<polygon fill="none" stroke="midnightblue" points="79.5001,-326.154 83,-336.154 86.5001,-326.154 79.5001,-326.154"/>
</g>
</g>
</svg>
