<?xml version="1.0" encoding="UTF-8" standalone="no"?>
<!DOCTYPE svg PUBLIC "-//W3C//DTD SVG 1.1//EN"
 "http://www.w3.org/Graphics/SVG/1.1/DTD/svg11.dtd">
<!-- Generated by graphviz version 2.38.0 (20140413.2041)
 -->
<!-- Title: Juniper.Input.Pointers.Screen.IScreenDevice Pages: 1 -->
<svg width="157pt" height="518pt"
 viewBox="0.00 0.00 157.00 518.00" xmlns="http://www.w3.org/2000/svg" xmlns:xlink="http://www.w3.org/1999/xlink">
<g id="graph0" class="graph" transform="scale(1 1) rotate(0) translate(4 514)">
<title>Juniper.Input.Pointers.Screen.IScreenDevice</title>
<polygon fill="white" stroke="none" points="-4,4 -4,-514 153,-514 153,4 -4,4"/>
<!-- Node14 -->
<g id="node1" class="node"><title>Node14</title>
<g id="a_node1"><a xlink:title=" ">
<polygon fill="#bfbfbf" stroke="black" points="1.5,-0.5 1.5,-79.5 147.5,-79.5 147.5,-0.5 1.5,-0.5"/>
<text text-anchor="start" x="9.5" y="-67.5" font-family="SegoeUI" font-size="10.00">Juniper.Input.Pointers.Screen.</text>
<text text-anchor="middle" x="74.5" y="-56.5" font-family="SegoeUI" font-size="10.00">IScreenDevice</text>
<polyline fill="none" stroke="black" points="1.5,-49.5 147.5,-49.5 "/>
<text text-anchor="start" x="9.5" y="-37.5" font-family="SegoeUI" font-size="10.00">+ CameraPositionOffset</text>
<text text-anchor="start" x="9.5" y="-26.5" font-family="SegoeUI" font-size="10.00">+ CameraRotationOffset</text>
<polyline fill="none" stroke="black" points="1.5,-19.5 147.5,-19.5 "/>
<text text-anchor="middle" x="74.5" y="-7.5" font-family="SegoeUI" font-size="10.00"> </text>
</a>
</g>
</g>
<!-- Node15 -->
<g id="node2" class="node"><title>Node15</title>
<g id="a_node2"><a xlink:href="../../d0/da1/interface_juniper_1_1_input_1_1_pointers_1_1_i_pointer_device.html" target="_top" xlink:title=" ">
<polygon fill="white" stroke="black" points="12.5,-116.5 12.5,-393.5 136.5,-393.5 136.5,-116.5 12.5,-116.5"/>
<text text-anchor="middle" x="74.5" y="-381.5" font-family="SegoeUI" font-size="10.00">IPointerDevice</text>
<polyline fill="none" stroke="black" points="12.5,-374.5 136.5,-374.5 "/>
<text text-anchor="start" x="20.5" y="-362.5" font-family="SegoeUI" font-size="10.00">+ transform</text>
<text text-anchor="start" x="20.5" y="-351.5" font-family="SegoeUI" font-size="10.00">+ EventTarget</text>
<text text-anchor="start" x="20.5" y="-340.5" font-family="SegoeUI" font-size="10.00">+ InputModule</text>
<text text-anchor="start" x="20.5" y="-329.5" font-family="SegoeUI" font-size="10.00">+ PointerDataID</text>
<text text-anchor="start" x="20.5" y="-318.5" font-family="SegoeUI" font-size="10.00">+ ProbeName</text>
<text text-anchor="start" x="20.5" y="-307.5" font-family="SegoeUI" font-size="10.00">+ Probe</text>
<text text-anchor="start" x="20.5" y="-296.5" font-family="SegoeUI" font-size="10.00">+ ButtonType</text>
<text text-anchor="start" x="20.5" y="-285.5" font-family="SegoeUI" font-size="10.00">+ isActiveAndEnabled</text>
<text text-anchor="start" x="20.5" y="-274.5" font-family="SegoeUI" font-size="10.00">+ IsConnected</text>
<text text-anchor="start" x="20.5" y="-263.5" font-family="SegoeUI" font-size="10.00">+ ProcessInUpdate</text>
<text text-anchor="start" x="20.5" y="-252.5" font-family="SegoeUI" font-size="10.00">and 26 more...</text>
<polyline fill="none" stroke="black" points="12.5,-245.5 136.5,-245.5 "/>
<text text-anchor="start" x="20.5" y="-233.5" font-family="SegoeUI" font-size="10.00">+ OnProbeFound()</text>
<text text-anchor="start" x="20.5" y="-222.5" font-family="SegoeUI" font-size="10.00">+ ViewportFromWorld()</text>
<text text-anchor="start" x="20.5" y="-211.5" font-family="SegoeUI" font-size="10.00">+ ViewportFromScreen()</text>
<text text-anchor="start" x="20.5" y="-200.5" font-family="SegoeUI" font-size="10.00">+ ScreenFromWorld()</text>
<text text-anchor="start" x="20.5" y="-189.5" font-family="SegoeUI" font-size="10.00">+ ScreenFromViewport()</text>
<text text-anchor="start" x="20.5" y="-178.5" font-family="SegoeUI" font-size="10.00">+ WorldFromScreen()</text>
<text text-anchor="start" x="20.5" y="-167.5" font-family="SegoeUI" font-size="10.00">+ WorldFromViewport()</text>
<text text-anchor="start" x="20.5" y="-156.5" font-family="SegoeUI" font-size="10.00">+ IsButtonDown()</text>
<text text-anchor="start" x="20.5" y="-145.5" font-family="SegoeUI" font-size="10.00">+ IsButtonPressed()</text>
<text text-anchor="start" x="20.5" y="-134.5" font-family="SegoeUI" font-size="10.00">+ IsButtonUp()</text>
<text text-anchor="start" x="20.5" y="-123.5" font-family="SegoeUI" font-size="10.00">and 7 more...</text>
</a>
</g>
</g>
<!-- Node15&#45;&gt;Node14 -->
<g id="edge1" class="edge"><title>Node15&#45;&gt;Node14</title>
<path fill="none" stroke="midnightblue" d="M74.5,-106.252C74.5,-96.6846 74.5,-87.6428 74.5,-79.51"/>
<polygon fill="none" stroke="midnightblue" points="71.0001,-106.396 74.5,-116.396 78.0001,-106.396 71.0001,-106.396"/>
</g>
<!-- Node16 -->
<g id="node3" class="node"><title>Node16</title>
<g id="a_node3"><a xlink:href="../../d5/d9e/interface_juniper_1_1_input_1_1_pointers_1_1_i_laser_pointer.html" target="_top" xlink:title=" ">
<polygon fill="white" stroke="black" points="0,-430.5 0,-509.5 149,-509.5 149,-430.5 0,-430.5"/>
<text text-anchor="middle" x="74.5" y="-497.5" font-family="SegoeUI" font-size="10.00">ILaserPointer</text>
<polyline fill="none" stroke="black" points="0,-490.5 149,-490.5 "/>
<text text-anchor="start" x="8" y="-478.5" font-family="SegoeUI" font-size="10.00">+ LaserPointerNormalMaterial</text>
<text text-anchor="start" x="8" y="-467.5" font-family="SegoeUI" font-size="10.00">+ LaserPointerEnabledMaterial</text>
<text text-anchor="start" x="8" y="-456.5" font-family="SegoeUI" font-size="10.00">+ LaserPointerDisabledMaterial</text>
<polyline fill="none" stroke="black" points="0,-449.5 149,-449.5 "/>
<text text-anchor="middle" x="74.5" y="-437.5" font-family="SegoeUI" font-size="10.00"> </text>
</a>
</g>
</g>
<!-- Node16&#45;&gt;Node15 -->
<g id="edge2" class="edge"><title>Node16&#45;&gt;Node15</title>
<path fill="none" stroke="midnightblue" d="M74.5,-420.304C74.5,-412.009 74.5,-403.043 74.5,-393.727"/>
<polygon fill="none" stroke="midnightblue" points="71.0001,-420.427 74.5,-430.427 78.0001,-420.427 71.0001,-420.427"/>
</g>
</g>
</svg>
