<?xml version="1.0" encoding="UTF-8" standalone="no"?>
<!DOCTYPE svg PUBLIC "-//W3C//DTD SVG 1.1//EN"
 "http://www.w3.org/Graphics/SVG/1.1/DTD/svg11.dtd">
<!-- Generated by graphviz version 2.38.0 (20140413.2041)
 -->
<!-- Title: Juniper.PlayerSettingsExt Pages: 1 -->
<svg width="171pt" height="193pt"
 viewBox="0.00 0.00 171.00 193.00" xmlns="http://www.w3.org/2000/svg" xmlns:xlink="http://www.w3.org/1999/xlink">
<g id="graph0" class="graph" transform="scale(1 1) rotate(0) translate(4 189)">
<title>Juniper.PlayerSettingsExt</title>
<polygon fill="white" stroke="none" points="-4,4 -4,-189 167,-189 167,4 -4,4"/>
<!-- Node2 -->
<g id="node1" class="node"><title>Node2</title>
<g id="a_node1"><a xlink:title="A collection of extra settings that Unity doesn&#39;t expose natively.">
<polygon fill="#bfbfbf" stroke="black" points="19.5,-0.5 19.5,-57.5 143.5,-57.5 143.5,-0.5 19.5,-0.5"/>
<text text-anchor="middle" x="81.5" y="-45.5" font-family="SegoeUI" font-size="10.00">Juniper.PlayerSettingsExt</text>
<polyline fill="none" stroke="black" points="19.5,-38.5 143.5,-38.5 "/>
<text text-anchor="middle" x="81.5" y="-26.5" font-family="SegoeUI" font-size="10.00"> </text>
<polyline fill="none" stroke="black" points="19.5,-19.5 143.5,-19.5 "/>
<text text-anchor="middle" x="81.5" y="-7.5" font-family="SegoeUI" font-size="10.00"> </text>
</a>
</g>
</g>
<!-- Node3 -->
<g id="node2" class="node"><title>Node3</title>
<g id="a_node2"><a xlink:href="../../de/d99/class_juniper_1_1_hidden_settings_accessor.html" target="_top" xlink:title="A base class for all of the Settings extender classes to gain access to helper methods that do the ha...">
<polygon fill="white" stroke="black" points="0,-94.5 0,-184.5 163,-184.5 163,-94.5 0,-94.5"/>
<text text-anchor="middle" x="81.5" y="-172.5" font-family="SegoeUI" font-size="10.00">HiddenSettingsAccessor</text>
<polyline fill="none" stroke="black" points="0,-165.5 163,-165.5 "/>
<text text-anchor="start" x="8" y="-153.5" font-family="SegoeUI" font-size="10.00">&#45; HIDDEN_STATIC</text>
<polyline fill="none" stroke="black" points="0,-146.5 163,-146.5 "/>
<text text-anchor="start" x="8" y="-134.5" font-family="SegoeUI" font-size="10.00"># SetHiddenStaticProperty&lt; T &gt;()</text>
<text text-anchor="start" x="8" y="-123.5" font-family="SegoeUI" font-size="10.00"># GetHiddenStaticProperty</text>
<text text-anchor="start" x="8" y="-112.5" font-family="SegoeUI" font-size="10.00">&lt; T, U &gt;()</text>
<text text-anchor="start" x="8" y="-101.5" font-family="SegoeUI" font-size="10.00"># CallHiddenStaticMethod&lt; T &gt;()</text>
</a>
</g>
</g>
<!-- Node3&#45;&gt;Node2 -->
<g id="edge1" class="edge"><title>Node3&#45;&gt;Node2</title>
<path fill="none" stroke="midnightblue" d="M81.5,-84.3531C81.5,-75.074 81.5,-65.7909 81.5,-57.5896"/>
<polygon fill="none" stroke="midnightblue" points="78.0001,-84.3689 81.5,-94.3689 85.0001,-84.3689 78.0001,-84.3689"/>
</g>
</g>
</svg>
