<?xml version="1.0" encoding="UTF-8" standalone="no"?>
<!DOCTYPE svg PUBLIC "-//W3C//DTD SVG 1.1//EN"
 "http://www.w3.org/Graphics/SVG/1.1/DTD/svg11.dtd">
<!-- Generated by graphviz version 2.38.0 (20140413.2041)
 -->
<!-- Title: Juniper.Unity.Input.AbstractMobileInputModule Pages: 1 -->
<svg width="194pt" height="694pt"
 viewBox="0.00 0.00 194.00 694.00" xmlns="http://www.w3.org/2000/svg" xmlns:xlink="http://www.w3.org/1999/xlink">
<g id="graph0" class="graph" transform="scale(1 1) rotate(0) translate(4 690)">
<title>Juniper.Unity.Input.AbstractMobileInputModule</title>
<polygon fill="white" stroke="none" points="-4,4 -4,-690 190,-690 190,4 -4,4"/>
<!-- Node0 -->
<g id="node1" class="node"><title>Node0</title>
<g id="a_node1"><a xlink:title=" ">
<polygon fill="#bfbfbf" stroke="black" points="33.5,-0.5 33.5,-68.5 167.5,-68.5 167.5,-0.5 33.5,-0.5"/>
<text text-anchor="start" x="41.5" y="-56.5" font-family="SegoeUI" font-size="10.00">Juniper.Unity.Input.Abstract</text>
<text text-anchor="middle" x="100.5" y="-45.5" font-family="SegoeUI" font-size="10.00">MobileInputModule</text>
<polyline fill="none" stroke="black" points="33.5,-38.5 167.5,-38.5 "/>
<text text-anchor="middle" x="100.5" y="-26.5" font-family="SegoeUI" font-size="10.00"> </text>
<polyline fill="none" stroke="black" points="33.5,-19.5 167.5,-19.5 "/>
<text text-anchor="start" x="41.5" y="-7.5" font-family="SegoeUI" font-size="10.00"># Awake()</text>
</a>
</g>
</g>
<!-- Node1 -->
<g id="node2" class="node"><title>Node1</title>
<g id="a_node2"><a xlink:href="../../d6/dd6/class_juniper_1_1_unity_1_1_input_1_1_abstract_unified_input_module.html" target="_top" xlink:title="Finds all of the IPointerDevice s and fires raycaster events for all of them.">
<polygon fill="white" stroke="black" points="27.5,-105.5 27.5,-569.5 173.5,-569.5 173.5,-105.5 27.5,-105.5"/>
<text text-anchor="middle" x="100.5" y="-557.5" font-family="SegoeUI" font-size="10.00">AbstractUnifiedInputModule</text>
<polyline fill="none" stroke="black" points="27.5,-550.5 173.5,-550.5 "/>
<text text-anchor="start" x="35.5" y="-538.5" font-family="SegoeUI" font-size="10.00">+ Devices</text>
<text text-anchor="start" x="35.5" y="-527.5" font-family="SegoeUI" font-size="10.00">+ pointerPrefab</text>
<text text-anchor="start" x="35.5" y="-516.5" font-family="SegoeUI" font-size="10.00">+ onPointerFound</text>
<text text-anchor="start" x="35.5" y="-505.5" font-family="SegoeUI" font-size="10.00">+ enableControllersToggle</text>
<text text-anchor="start" x="35.5" y="-494.5" font-family="SegoeUI" font-size="10.00">+ enableMouseToggle</text>
<text text-anchor="start" x="35.5" y="-483.5" font-family="SegoeUI" font-size="10.00">+ enableTouchToggle</text>
<text text-anchor="start" x="35.5" y="-472.5" font-family="SegoeUI" font-size="10.00">+ enableHandsToggle</text>
<text text-anchor="start" x="35.5" y="-461.5" font-family="SegoeUI" font-size="10.00">+ enableGazeToggle</text>
<text text-anchor="start" x="35.5" y="-450.5" font-family="SegoeUI" font-size="10.00">+ gazePointer</text>
<text text-anchor="start" x="35.5" y="-439.5" font-family="SegoeUI" font-size="10.00">+ mouse</text>
<text text-anchor="start" x="35.5" y="-428.5" font-family="SegoeUI" font-size="10.00">+ touches</text>
<text text-anchor="start" x="35.5" y="-417.5" font-family="SegoeUI" font-size="10.00">+ motionControllers</text>
<text text-anchor="start" x="35.5" y="-406.5" font-family="SegoeUI" font-size="10.00">+ handTrackers</text>
<text text-anchor="start" x="35.5" y="-395.5" font-family="SegoeUI" font-size="10.00">+ AnyPointerDragging</text>
<text text-anchor="start" x="35.5" y="-384.5" font-family="SegoeUI" font-size="10.00"># stage</text>
<text text-anchor="start" x="35.5" y="-373.5" font-family="SegoeUI" font-size="10.00">&#45; newDevices</text>
<text text-anchor="start" x="35.5" y="-362.5" font-family="SegoeUI" font-size="10.00">&#45; ENABLE_GAZE_KEY</text>
<text text-anchor="start" x="35.5" y="-351.5" font-family="SegoeUI" font-size="10.00">&#45; ENABLE_MOUSE_KEY</text>
<text text-anchor="start" x="35.5" y="-340.5" font-family="SegoeUI" font-size="10.00">&#45; ENABLE_TOUCH_KEY</text>
<text text-anchor="start" x="35.5" y="-329.5" font-family="SegoeUI" font-size="10.00">&#45; ENABLE_HANDS_KEY</text>
<text text-anchor="start" x="35.5" y="-318.5" font-family="SegoeUI" font-size="10.00">&#45; ENABLE_CONTROLLERS_KEY</text>
<polyline fill="none" stroke="black" points="27.5,-311.5 173.5,-311.5 "/>
<text text-anchor="start" x="35.5" y="-299.5" font-family="SegoeUI" font-size="10.00">+ AddPointer()</text>
<text text-anchor="start" x="35.5" y="-288.5" font-family="SegoeUI" font-size="10.00">+ WithPointer()</text>
<text text-anchor="start" x="35.5" y="-277.5" font-family="SegoeUI" font-size="10.00">+ Reinstall()</text>
<text text-anchor="start" x="35.5" y="-266.5" font-family="SegoeUI" font-size="10.00">+ Install()</text>
<text text-anchor="start" x="35.5" y="-255.5" font-family="SegoeUI" font-size="10.00">+ MakePointer&lt; T &gt;()</text>
<text text-anchor="start" x="35.5" y="-244.5" font-family="SegoeUI" font-size="10.00">+ Uninstall()</text>
<text text-anchor="start" x="35.5" y="-233.5" font-family="SegoeUI" font-size="10.00">+ Process()</text>
<text text-anchor="start" x="35.5" y="-222.5" font-family="SegoeUI" font-size="10.00">+ Clone()</text>
<text text-anchor="start" x="35.5" y="-211.5" font-family="SegoeUI" font-size="10.00">+ EnableMouse()</text>
<text text-anchor="start" x="35.5" y="-200.5" font-family="SegoeUI" font-size="10.00">+ EnableGaze()</text>
<text text-anchor="start" x="35.5" y="-189.5" font-family="SegoeUI" font-size="10.00">+ EnableTouch()</text>
<text text-anchor="start" x="35.5" y="-178.5" font-family="SegoeUI" font-size="10.00">+ EnableHands()</text>
<text text-anchor="start" x="35.5" y="-167.5" font-family="SegoeUI" font-size="10.00">+ EnableControllers()</text>
<text text-anchor="start" x="35.5" y="-156.5" font-family="SegoeUI" font-size="10.00"># Awake()</text>
<text text-anchor="start" x="35.5" y="-145.5" font-family="SegoeUI" font-size="10.00">&#45; OnPointerFound()</text>
<text text-anchor="start" x="35.5" y="-134.5" font-family="SegoeUI" font-size="10.00">&#45; UpdateRay()</text>
<text text-anchor="start" x="35.5" y="-123.5" font-family="SegoeUI" font-size="10.00">&#45; RaycastAll()</text>
<text text-anchor="start" x="35.5" y="-112.5" font-family="SegoeUI" font-size="10.00">&#45; RaycastComparer()</text>
</a>
</g>
</g>
<!-- Node1&#45;&gt;Node0 -->
<g id="edge1" class="edge"><title>Node1&#45;&gt;Node0</title>
<path fill="none" stroke="midnightblue" d="M100.5,-95.2603C100.5,-85.4697 100.5,-76.4967 100.5,-68.6455"/>
<polygon fill="none" stroke="midnightblue" points="97.0001,-95.312 100.5,-105.312 104,-95.312 97.0001,-95.312"/>
</g>
<!-- Node2 -->
<g id="node3" class="node"><title>Node2</title>
<g id="a_node3"><a xlink:title=" ">
<polygon fill="white" stroke="#bfbfbf" points="0,-617.5 0,-674.5 99,-674.5 99,-617.5 0,-617.5"/>
<text text-anchor="middle" x="49.5" y="-662.5" font-family="SegoeUI" font-size="10.00">PointerInputModule</text>
<polyline fill="none" stroke="#bfbfbf" points="0,-655.5 99,-655.5 "/>
<text text-anchor="middle" x="49.5" y="-643.5" font-family="SegoeUI" font-size="10.00"> </text>
<polyline fill="none" stroke="#bfbfbf" points="0,-636.5 99,-636.5 "/>
<text text-anchor="middle" x="49.5" y="-624.5" font-family="SegoeUI" font-size="10.00"> </text>
</a>
</g>
</g>
<!-- Node2&#45;&gt;Node1 -->
<g id="edge2" class="edge"><title>Node2&#45;&gt;Node1</title>
<path fill="none" stroke="midnightblue" d="M55.76,-607.379C57.5783,-596.451 59.7085,-583.649 62.0348,-569.668"/>
<polygon fill="none" stroke="midnightblue" points="52.3048,-606.821 54.1159,-617.26 59.2099,-607.97 52.3048,-606.821"/>
</g>
<!-- Node3 -->
<g id="node4" class="node"><title>Node3</title>
<g id="a_node4"><a xlink:href="../../db/d28/interface_juniper_1_1_i_installable.html" target="_top" xlink:title="Defines an interface for objects that can be installed and have their installation progress tracked.">
<polygon fill="white" stroke="black" points="117,-606.5 117,-685.5 186,-685.5 186,-606.5 117,-606.5"/>
<text text-anchor="middle" x="151.5" y="-673.5" font-family="SegoeUI" font-size="10.00">IInstallable</text>
<polyline fill="none" stroke="black" points="117,-666.5 186,-666.5 "/>
<text text-anchor="middle" x="151.5" y="-654.5" font-family="SegoeUI" font-size="10.00"> </text>
<polyline fill="none" stroke="black" points="117,-647.5 186,-647.5 "/>
<text text-anchor="start" x="125" y="-635.5" font-family="SegoeUI" font-size="10.00">+ Install()</text>
<text text-anchor="start" x="125" y="-624.5" font-family="SegoeUI" font-size="10.00">+ Reinstall()</text>
<text text-anchor="start" x="125" y="-613.5" font-family="SegoeUI" font-size="10.00">+ Uninstall()</text>
</a>
</g>
</g>
<!-- Node3&#45;&gt;Node1 -->
<g id="edge3" class="edge"><title>Node3&#45;&gt;Node1</title>
<path fill="none" stroke="midnightblue" d="M143.421,-596.447C142.044,-588.174 140.538,-579.121 138.939,-569.513"/>
<polygon fill="none" stroke="midnightblue" points="139.998,-597.202 145.092,-606.492 146.904,-596.053 139.998,-597.202"/>
</g>
</g>
</svg>
