<?xml version="1.0" encoding="UTF-8" standalone="no"?>
<!DOCTYPE svg PUBLIC "-//W3C//DTD SVG 1.1//EN"
 "http://www.w3.org/Graphics/SVG/1.1/DTD/svg11.dtd">
<!-- Generated by graphviz version 2.38.0 (20140413.2041)
 -->
<!-- Title: Juniper.Unity.AbstractStateController Pages: 1 -->
<svg width="688pt" height="1245pt"
 viewBox="0.00 0.00 688.00 1245.00" xmlns="http://www.w3.org/2000/svg" xmlns:xlink="http://www.w3.org/1999/xlink">
<g id="graph0" class="graph" transform="scale(1 1) rotate(0) translate(4 1241)">
<title>Juniper.Unity.AbstractStateController</title>
<polygon fill="white" stroke="none" points="-4,4 -4,-1241 684,-1241 684,4 -4,4"/>
<!-- Node0 -->
<g id="node1" class="node"><title>Node0</title>
<g id="a_node1"><a xlink:title="A subscene is a game object loaded from another scene. The scenes all get loaded at runtime and then ...">
<polygon fill="#bfbfbf" stroke="black" points="361,-821.5 361,-1142.5 493,-1142.5 493,-821.5 361,-821.5"/>
<text text-anchor="start" x="369" y="-1130.5" font-family="SegoeUI" font-size="10.00">Juniper.Unity.AbstractState</text>
<text text-anchor="middle" x="427" y="-1119.5" font-family="SegoeUI" font-size="10.00">Controller</text>
<polyline fill="none" stroke="black" points="361,-1112.5 493,-1112.5 "/>
<text text-anchor="start" x="369" y="-1100.5" font-family="SegoeUI" font-size="10.00">+ onEntering</text>
<text text-anchor="start" x="369" y="-1089.5" font-family="SegoeUI" font-size="10.00">+ onEntered</text>
<text text-anchor="start" x="369" y="-1078.5" font-family="SegoeUI" font-size="10.00">+ onExiting</text>
<text text-anchor="start" x="369" y="-1067.5" font-family="SegoeUI" font-size="10.00">+ onExited</text>
<text text-anchor="start" x="369" y="-1056.5" font-family="SegoeUI" font-size="10.00">+ state</text>
<text text-anchor="start" x="369" y="-1045.5" font-family="SegoeUI" font-size="10.00">+ IsComplete</text>
<text text-anchor="start" x="369" y="-1034.5" font-family="SegoeUI" font-size="10.00">+ IsRunning</text>
<text text-anchor="start" x="369" y="-1023.5" font-family="SegoeUI" font-size="10.00">+ IsEntered</text>
<text text-anchor="start" x="369" y="-1012.5" font-family="SegoeUI" font-size="10.00">+ IsExited</text>
<text text-anchor="start" x="369" y="-1001.5" font-family="SegoeUI" font-size="10.00">+ Waiter</text>
<text text-anchor="start" x="369" y="-990.5" font-family="SegoeUI" font-size="10.00">&#45; lastState</text>
<text text-anchor="start" x="369" y="-979.5" font-family="SegoeUI" font-size="10.00">&#45; skipEvents</text>
<text text-anchor="start" x="369" y="-968.5" font-family="SegoeUI" font-size="10.00">&#45; _waiter</text>
<polyline fill="none" stroke="black" points="361,-961.5 493,-961.5 "/>
<text text-anchor="start" x="369" y="-949.5" font-family="SegoeUI" font-size="10.00">+ HasCompleted()</text>
<text text-anchor="start" x="369" y="-938.5" font-family="SegoeUI" font-size="10.00">+ SkipEnter()</text>
<text text-anchor="start" x="369" y="-927.5" font-family="SegoeUI" font-size="10.00">+ Enter()</text>
<text text-anchor="start" x="369" y="-916.5" font-family="SegoeUI" font-size="10.00">+ OnEnable()</text>
<text text-anchor="start" x="369" y="-905.5" font-family="SegoeUI" font-size="10.00">+ Update()</text>
<text text-anchor="start" x="369" y="-894.5" font-family="SegoeUI" font-size="10.00">+ SkipExit()</text>
<text text-anchor="start" x="369" y="-883.5" font-family="SegoeUI" font-size="10.00">+ Exit()</text>
<text text-anchor="start" x="369" y="-872.5" font-family="SegoeUI" font-size="10.00">+ OnDisable()</text>
<text text-anchor="start" x="369" y="-861.5" font-family="SegoeUI" font-size="10.00"># OnEntering()</text>
<text text-anchor="start" x="369" y="-850.5" font-family="SegoeUI" font-size="10.00"># OnEntered()</text>
<text text-anchor="start" x="369" y="-839.5" font-family="SegoeUI" font-size="10.00"># OnExiting()</text>
<text text-anchor="start" x="369" y="-828.5" font-family="SegoeUI" font-size="10.00"># OnExited()</text>
</a>
</g>
</g>
<!-- Node2 -->
<g id="node3" class="node"><title>Node2</title>
<g id="a_node3"><a xlink:href="../../de/d7d/class_juniper_1_1_unity_1_1_animation_1_1_abstract_transition_controller.html" target="_top" xlink:title="Child classes of this class are able to animate transitions between program states.">
<polygon fill="white" stroke="black" points="275.5,-529.5 275.5,-784.5 412.5,-784.5 412.5,-529.5 275.5,-529.5"/>
<text text-anchor="start" x="283.5" y="-772.5" font-family="SegoeUI" font-size="10.00">Juniper.Unity.Animation.</text>
<text text-anchor="middle" x="344" y="-761.5" font-family="SegoeUI" font-size="10.00">AbstractTransitionController</text>
<polyline fill="none" stroke="black" points="275.5,-754.5 412.5,-754.5 "/>
<text text-anchor="start" x="283.5" y="-742.5" font-family="SegoeUI" font-size="10.00">+ attackTime</text>
<text text-anchor="start" x="283.5" y="-731.5" font-family="SegoeUI" font-size="10.00">+ releaseTime</text>
<text text-anchor="start" x="283.5" y="-720.5" font-family="SegoeUI" font-size="10.00">+ onValueChanged</text>
<text text-anchor="start" x="283.5" y="-709.5" font-family="SegoeUI" font-size="10.00">+ tween</text>
<text text-anchor="start" x="283.5" y="-698.5" font-family="SegoeUI" font-size="10.00">+ tweenK</text>
<text text-anchor="start" x="283.5" y="-687.5" font-family="SegoeUI" font-size="10.00">+ TransitionLength</text>
<text text-anchor="start" x="283.5" y="-676.5" font-family="SegoeUI" font-size="10.00">&#45; tweenFunc</text>
<text text-anchor="start" x="283.5" y="-665.5" font-family="SegoeUI" font-size="10.00">&#45; attack</text>
<text text-anchor="start" x="283.5" y="-654.5" font-family="SegoeUI" font-size="10.00">&#45; release</text>
<text text-anchor="start" x="283.5" y="-643.5" font-family="SegoeUI" font-size="10.00">&#45; progress</text>
<text text-anchor="start" x="283.5" y="-632.5" font-family="SegoeUI" font-size="10.00">&#45; tweenedValue</text>
<polyline fill="none" stroke="black" points="275.5,-625.5 412.5,-625.5 "/>
<text text-anchor="start" x="283.5" y="-613.5" font-family="SegoeUI" font-size="10.00">+ Enter()</text>
<text text-anchor="start" x="283.5" y="-602.5" font-family="SegoeUI" font-size="10.00">+ SkipEnter()</text>
<text text-anchor="start" x="283.5" y="-591.5" font-family="SegoeUI" font-size="10.00">+ Exit()</text>
<text text-anchor="start" x="283.5" y="-580.5" font-family="SegoeUI" font-size="10.00">+ Update()</text>
<text text-anchor="start" x="283.5" y="-569.5" font-family="SegoeUI" font-size="10.00"># RenderValue()</text>
<text text-anchor="start" x="283.5" y="-558.5" font-family="SegoeUI" font-size="10.00">&#45; OnValueChanged()</text>
<text text-anchor="start" x="283.5" y="-547.5" font-family="SegoeUI" font-size="10.00">&#45; SetProgress()</text>
<text text-anchor="start" x="283.5" y="-536.5" font-family="SegoeUI" font-size="10.00">&#45; StartTransition()</text>
</a>
</g>
</g>
<!-- Node0&#45;&gt;Node2 -->
<g id="edge2" class="edge"><title>Node0&#45;&gt;Node2</title>
<path fill="none" stroke="midnightblue" d="M383.481,-811.642C381.174,-802.664 378.875,-793.718 376.613,-784.916"/>
<polygon fill="none" stroke="midnightblue" points="380.108,-812.578 385.986,-821.393 386.887,-810.836 380.108,-812.578"/>
</g>
<!-- Node9 -->
<g id="node10" class="node"><title>Node9</title>
<g id="a_node10"><a xlink:href="../../d7/d3c/class_juniper_1_1_unity_1_1_sub_scene_controller.html" target="_top" xlink:title="SubSceneControllers are used by the MasterSceneController to manage workflow through an application....">
<polygon fill="white" stroke="black" points="430.5,-562.5 430.5,-751.5 589.5,-751.5 589.5,-562.5 430.5,-562.5"/>
<text text-anchor="middle" x="510" y="-739.5" font-family="SegoeUI" font-size="10.00">Juniper.Unity.SubSceneController</text>
<polyline fill="none" stroke="black" points="430.5,-732.5 589.5,-732.5 "/>
<text text-anchor="start" x="438.5" y="-720.5" font-family="SegoeUI" font-size="10.00">+ Enterable</text>
<text text-anchor="start" x="438.5" y="-709.5" font-family="SegoeUI" font-size="10.00">+ Exitable</text>
<text text-anchor="start" x="438.5" y="-698.5" font-family="SegoeUI" font-size="10.00">+ CurrentSubScenes</text>
<text text-anchor="start" x="438.5" y="-687.5" font-family="SegoeUI" font-size="10.00"># deactivateOnExit</text>
<text text-anchor="start" x="438.5" y="-676.5" font-family="SegoeUI" font-size="10.00">&#45; childTransitions</text>
<text text-anchor="start" x="438.5" y="-665.5" font-family="SegoeUI" font-size="10.00">&#45; isExitingPreviousScene</text>
<polyline fill="none" stroke="black" points="430.5,-658.5 589.5,-658.5 "/>
<text text-anchor="start" x="438.5" y="-646.5" font-family="SegoeUI" font-size="10.00">+ Awake()</text>
<text text-anchor="start" x="438.5" y="-635.5" font-family="SegoeUI" font-size="10.00">+ Load()</text>
<text text-anchor="start" x="438.5" y="-624.5" font-family="SegoeUI" font-size="10.00">+ Enter()</text>
<text text-anchor="start" x="438.5" y="-613.5" font-family="SegoeUI" font-size="10.00">+ Exit()</text>
<text text-anchor="start" x="438.5" y="-602.5" font-family="SegoeUI" font-size="10.00">+ Update()</text>
<text text-anchor="start" x="438.5" y="-591.5" font-family="SegoeUI" font-size="10.00">+ CopyStreamingAssets()</text>
<text text-anchor="start" x="438.5" y="-580.5" font-family="SegoeUI" font-size="10.00"># OnExited()</text>
<text text-anchor="start" x="438.5" y="-569.5" font-family="SegoeUI" font-size="10.00">&#45; AllComplete()</text>
</a>
</g>
</g>
<!-- Node0&#45;&gt;Node9 -->
<g id="edge9" class="edge"><title>Node0&#45;&gt;Node9</title>
<path fill="none" stroke="midnightblue" d="M470.526,-811.616C475.809,-791.056 481.049,-770.666 485.901,-751.784"/>
<polygon fill="none" stroke="midnightblue" points="467.113,-810.836 468.014,-821.393 473.892,-812.578 467.113,-810.836"/>
</g>
<!-- Node1 -->
<g id="node2" class="node"><title>Node1</title>
<g id="a_node2"><a xlink:title=" ">
<polygon fill="white" stroke="#bfbfbf" points="386,-1179.5 386,-1236.5 468,-1236.5 468,-1179.5 386,-1179.5"/>
<text text-anchor="middle" x="427" y="-1224.5" font-family="SegoeUI" font-size="10.00">MonoBehaviour</text>
<polyline fill="none" stroke="#bfbfbf" points="386,-1217.5 468,-1217.5 "/>
<text text-anchor="middle" x="427" y="-1205.5" font-family="SegoeUI" font-size="10.00"> </text>
<polyline fill="none" stroke="#bfbfbf" points="386,-1198.5 468,-1198.5 "/>
<text text-anchor="middle" x="427" y="-1186.5" font-family="SegoeUI" font-size="10.00"> </text>
</a>
</g>
</g>
<!-- Node1&#45;&gt;Node0 -->
<g id="edge1" class="edge"><title>Node1&#45;&gt;Node0</title>
<path fill="none" stroke="midnightblue" d="M427,-1168.91C427,-1161.02 427,-1152.25 427,-1142.93"/>
<polygon fill="none" stroke="midnightblue" points="423.5,-1169.08 427,-1179.08 430.5,-1169.08 423.5,-1169.08"/>
</g>
<!-- Node3 -->
<g id="node4" class="node"><title>Node3</title>
<g id="a_node4"><a xlink:href="../../da/d20/class_juniper_1_1_unity_1_1_animation_1_1_alpha_transition.html" target="_top" xlink:title="Performs a shrinking/growing animation on scene transitions.">
<polygon fill="white" stroke="black" points="8,-287 8,-410 128,-410 128,-287 8,-287"/>
<text text-anchor="start" x="16" y="-398" font-family="SegoeUI" font-size="10.00">Juniper.Unity.Animation.</text>
<text text-anchor="middle" x="68" y="-387" font-family="SegoeUI" font-size="10.00">AlphaTransition</text>
<polyline fill="none" stroke="black" points="8,-380 128,-380 "/>
<text text-anchor="start" x="16" y="-368" font-family="SegoeUI" font-size="10.00">+ minAlpha</text>
<text text-anchor="start" x="16" y="-357" font-family="SegoeUI" font-size="10.00">+ maxAlpha</text>
<text text-anchor="start" x="16" y="-346" font-family="SegoeUI" font-size="10.00">+ length</text>
<text text-anchor="start" x="16" y="-335" font-family="SegoeUI" font-size="10.00">+ TransitionLength</text>
<text text-anchor="start" x="16" y="-324" font-family="SegoeUI" font-size="10.00">+ DeltaAlpha</text>
<text text-anchor="start" x="16" y="-313" font-family="SegoeUI" font-size="10.00">&#45; transitionMaterial</text>
<polyline fill="none" stroke="black" points="8,-306 128,-306 "/>
<text text-anchor="start" x="16" y="-294" font-family="SegoeUI" font-size="10.00"># RenderValue()</text>
</a>
</g>
</g>
<!-- Node2&#45;&gt;Node3 -->
<g id="edge3" class="edge"><title>Node2&#45;&gt;Node3</title>
<path fill="none" stroke="midnightblue" d="M267.006,-608.088C224.6,-578.807 173.355,-538.328 137,-493 117.283,-468.416 101.444,-437.271 89.9382,-410.283"/>
<polygon fill="none" stroke="midnightblue" points="265.13,-611.045 275.362,-613.793 269.076,-605.264 265.13,-611.045"/>
</g>
<!-- Node5 -->
<g id="node6" class="node"><title>Node5</title>
<g id="a_node6"><a xlink:href="../../d3/d84/class_juniper_1_1_unity_1_1_animation_1_1_fade_transition.html" target="_top" xlink:title="Performs a fade&#45;in/fade&#45;out animation on scene transitions.">
<polygon fill="white" stroke="black" points="146,-204.5 146,-492.5 266,-492.5 266,-204.5 146,-204.5"/>
<text text-anchor="start" x="154" y="-480.5" font-family="SegoeUI" font-size="10.00">Juniper.Unity.Animation.</text>
<text text-anchor="middle" x="206" y="-469.5" font-family="SegoeUI" font-size="10.00">FadeTransition</text>
<polyline fill="none" stroke="black" points="146,-462.5 266,-462.5 "/>
<text text-anchor="start" x="154" y="-450.5" font-family="SegoeUI" font-size="10.00">+ fadeLength</text>
<text text-anchor="start" x="154" y="-439.5" font-family="SegoeUI" font-size="10.00">+ TransitionLength</text>
<text text-anchor="start" x="154" y="-428.5" font-family="SegoeUI" font-size="10.00">&#45; display</text>
<text text-anchor="start" x="154" y="-417.5" font-family="SegoeUI" font-size="10.00">&#45; r</text>
<text text-anchor="start" x="154" y="-406.5" font-family="SegoeUI" font-size="10.00">&#45; props</text>
<text text-anchor="start" x="154" y="-395.5" font-family="SegoeUI" font-size="10.00">&#45; actions</text>
<text text-anchor="start" x="154" y="-384.5" font-family="SegoeUI" font-size="10.00">&#45; lastColor</text>
<text text-anchor="start" x="154" y="-373.5" font-family="SegoeUI" font-size="10.00">&#45; lastCullingMask</text>
<text text-anchor="start" x="154" y="-362.5" font-family="SegoeUI" font-size="10.00">&#45; lastAmbientMode</text>
<polyline fill="none" stroke="black" points="146,-355.5 266,-355.5 "/>
<text text-anchor="start" x="154" y="-343.5" font-family="SegoeUI" font-size="10.00">+ Awake()</text>
<text text-anchor="start" x="154" y="-332.5" font-family="SegoeUI" font-size="10.00">+ Reinstall()</text>
<text text-anchor="start" x="154" y="-321.5" font-family="SegoeUI" font-size="10.00">+ Reset()</text>
<text text-anchor="start" x="154" y="-310.5" font-family="SegoeUI" font-size="10.00">+ Install()</text>
<text text-anchor="start" x="154" y="-299.5" font-family="SegoeUI" font-size="10.00">+ Uninstall()</text>
<text text-anchor="start" x="154" y="-288.5" font-family="SegoeUI" font-size="10.00">+ Fader()</text>
<text text-anchor="start" x="154" y="-277.5" font-family="SegoeUI" font-size="10.00">+ Ensure()</text>
<text text-anchor="start" x="154" y="-266.5" font-family="SegoeUI" font-size="10.00"># RenderValue()</text>
<text text-anchor="start" x="154" y="-255.5" font-family="SegoeUI" font-size="10.00"># OnEntered()</text>
<text text-anchor="start" x="154" y="-244.5" font-family="SegoeUI" font-size="10.00"># OnExiting()</text>
<text text-anchor="start" x="154" y="-233.5" font-family="SegoeUI" font-size="10.00"># OnExited()</text>
<text text-anchor="start" x="154" y="-222.5" font-family="SegoeUI" font-size="10.00">&#45; FadeTransition_Enter</text>
<text text-anchor="start" x="154" y="-211.5" font-family="SegoeUI" font-size="10.00">_Exiting()</text>
</a>
</g>
</g>
<!-- Node2&#45;&gt;Node5 -->
<g id="edge5" class="edge"><title>Node2&#45;&gt;Node5</title>
<path fill="none" stroke="midnightblue" d="M282.7,-519.851C277.221,-507.683 271.677,-495.369 266.207,-483.221"/>
<polygon fill="none" stroke="midnightblue" points="279.577,-521.441 286.874,-529.122 285.96,-518.567 279.577,-521.441"/>
</g>
<!-- Node6 -->
<g id="node7" class="node"><title>Node6</title>
<g id="a_node7"><a xlink:href="../../da/dc2/class_juniper_1_1_unity_1_1_animation_1_1_scale_transition.html" target="_top" xlink:title="Performs a shrinking/growing animation on scene transitions.">
<polygon fill="white" stroke="black" points="284,-292.5 284,-404.5 404,-404.5 404,-292.5 284,-292.5"/>
<text text-anchor="start" x="292" y="-392.5" font-family="SegoeUI" font-size="10.00">Juniper.Unity.Animation.</text>
<text text-anchor="middle" x="344" y="-381.5" font-family="SegoeUI" font-size="10.00">ScaleTransition</text>
<polyline fill="none" stroke="black" points="284,-374.5 404,-374.5 "/>
<text text-anchor="start" x="292" y="-362.5" font-family="SegoeUI" font-size="10.00">+ minScale</text>
<text text-anchor="start" x="292" y="-351.5" font-family="SegoeUI" font-size="10.00">+ maxScale</text>
<text text-anchor="start" x="292" y="-340.5" font-family="SegoeUI" font-size="10.00">+ length</text>
<text text-anchor="start" x="292" y="-329.5" font-family="SegoeUI" font-size="10.00">+ TransitionLength</text>
<text text-anchor="start" x="292" y="-318.5" font-family="SegoeUI" font-size="10.00">+ DeltaScale</text>
<polyline fill="none" stroke="black" points="284,-311.5 404,-311.5 "/>
<text text-anchor="start" x="292" y="-299.5" font-family="SegoeUI" font-size="10.00"># RenderValue()</text>
</a>
</g>
</g>
<!-- Node2&#45;&gt;Node6 -->
<g id="edge6" class="edge"><title>Node2&#45;&gt;Node6</title>
<path fill="none" stroke="midnightblue" d="M344,-518.886C344,-478.466 344,-436.533 344,-404.501"/>
<polygon fill="none" stroke="midnightblue" points="340.5,-519.122 344,-529.122 347.5,-519.122 340.5,-519.122"/>
</g>
<!-- Node7 -->
<g id="node8" class="node"><title>Node7</title>
<g id="a_node8"><a xlink:href="../../d5/d56/class_juniper_1_1_unity_1_1_animation_1_1_spiral_transition.html" target="_top" xlink:title="Take an object in world&#45;space and spiral it in to camera&#45;locked space (faux&#45;screen&#45;space)">
<polygon fill="white" stroke="black" points="422,-232 422,-465 542,-465 542,-232 422,-232"/>
<text text-anchor="start" x="430" y="-453" font-family="SegoeUI" font-size="10.00">Juniper.Unity.Animation.</text>
<text text-anchor="middle" x="482" y="-442" font-family="SegoeUI" font-size="10.00">SpiralTransition</text>
<polyline fill="none" stroke="black" points="422,-435 542,-435 "/>
<text text-anchor="start" x="430" y="-423" font-family="SegoeUI" font-size="10.00">+ startOrientation</text>
<text text-anchor="start" x="430" y="-412" font-family="SegoeUI" font-size="10.00">+ endOrientation</text>
<text text-anchor="start" x="430" y="-401" font-family="SegoeUI" font-size="10.00">+ fullScreen</text>
<text text-anchor="start" x="430" y="-390" font-family="SegoeUI" font-size="10.00">+ distance</text>
<text text-anchor="start" x="430" y="-379" font-family="SegoeUI" font-size="10.00">+ length</text>
<text text-anchor="start" x="430" y="-368" font-family="SegoeUI" font-size="10.00">+ TransitionLength</text>
<text text-anchor="start" x="430" y="-357" font-family="SegoeUI" font-size="10.00">&#45; startParent</text>
<text text-anchor="start" x="430" y="-346" font-family="SegoeUI" font-size="10.00">&#45; startPosition</text>
<text text-anchor="start" x="430" y="-335" font-family="SegoeUI" font-size="10.00">&#45; startScale</text>
<text text-anchor="start" x="430" y="-324" font-family="SegoeUI" font-size="10.00">&#45; endScale</text>
<text text-anchor="start" x="430" y="-313" font-family="SegoeUI" font-size="10.00">&#45; camT</text>
<text text-anchor="start" x="430" y="-302" font-family="SegoeUI" font-size="10.00">&#45; tweenValue</text>
<polyline fill="none" stroke="black" points="422,-295 542,-295 "/>
<text text-anchor="start" x="430" y="-283" font-family="SegoeUI" font-size="10.00">+ Awake()</text>
<text text-anchor="start" x="430" y="-272" font-family="SegoeUI" font-size="10.00">+ Update()</text>
<text text-anchor="start" x="430" y="-261" font-family="SegoeUI" font-size="10.00"># RenderValue()</text>
<text text-anchor="start" x="430" y="-250" font-family="SegoeUI" font-size="10.00"># OnEntering()</text>
<text text-anchor="start" x="430" y="-239" font-family="SegoeUI" font-size="10.00"># OnExiting()</text>
</a>
</g>
</g>
<!-- Node2&#45;&gt;Node7 -->
<g id="edge7" class="edge"><title>Node2&#45;&gt;Node7</title>
<path fill="none" stroke="midnightblue" d="M405.371,-519.695C413.517,-501.602 421.807,-483.19 429.779,-465.484"/>
<polygon fill="none" stroke="midnightblue" points="402.04,-518.567 401.126,-529.122 408.423,-521.441 402.04,-518.567"/>
</g>
<!-- Node8 -->
<g id="node9" class="node"><title>Node8</title>
<g id="a_node9"><a xlink:href="../../d4/d79/class_juniper_1_1_unity_1_1_animation_1_1_translation_transition.html" target="_top" xlink:title="Performs a sliding animation on scene transitions. The object&#39;s localPosition is the value that is ch...">
<polygon fill="white" stroke="black" points="560,-281.5 560,-415.5 680,-415.5 680,-281.5 560,-281.5"/>
<text text-anchor="start" x="568" y="-403.5" font-family="SegoeUI" font-size="10.00">Juniper.Unity.Animation.</text>
<text text-anchor="middle" x="620" y="-392.5" font-family="SegoeUI" font-size="10.00">TranslationTransition</text>
<polyline fill="none" stroke="black" points="560,-385.5 680,-385.5 "/>
<text text-anchor="start" x="568" y="-373.5" font-family="SegoeUI" font-size="10.00">+ Delta</text>
<text text-anchor="start" x="568" y="-362.5" font-family="SegoeUI" font-size="10.00">+ length</text>
<text text-anchor="start" x="568" y="-351.5" font-family="SegoeUI" font-size="10.00">+ TransitionLength</text>
<text text-anchor="start" x="568" y="-340.5" font-family="SegoeUI" font-size="10.00">+ EndPosition</text>
<text text-anchor="start" x="568" y="-329.5" font-family="SegoeUI" font-size="10.00">&#45; startPosition</text>
<polyline fill="none" stroke="black" points="560,-322.5 680,-322.5 "/>
<text text-anchor="start" x="568" y="-310.5" font-family="SegoeUI" font-size="10.00"># Awake()</text>
<text text-anchor="start" x="568" y="-299.5" font-family="SegoeUI" font-size="10.00"># RenderValue()</text>
<text text-anchor="start" x="568" y="-288.5" font-family="SegoeUI" font-size="10.00">&#45; OnDrawGizmos()</text>
</a>
</g>
</g>
<!-- Node2&#45;&gt;Node8 -->
<g id="edge8" class="edge"><title>Node2&#45;&gt;Node8</title>
<path fill="none" stroke="midnightblue" d="M420.461,-529.41C420.641,-529.273 420.82,-529.136 421,-529 468.801,-492.815 505.006,-531.456 551,-493 574.752,-473.14 590.928,-443.191 601.611,-415.782"/>
<polygon fill="none" stroke="midnightblue" points="418.065,-526.851 412.618,-535.939 422.543,-532.231 418.065,-526.851"/>
</g>
<!-- Node4 -->
<g id="node5" class="node"><title>Node4</title>
<g id="a_node5"><a xlink:href="../../db/de8/class_juniper_1_1_unity_1_1_widgets_1_1_video_vader.html" target="_top" xlink:title="Manages the life&#45;cycle of a video that can be faded out or faded in.">
<polygon fill="white" stroke="black" points="0,-0.5 0,-167.5 136,-167.5 136,-0.5 0,-0.5"/>
<text text-anchor="start" x="8" y="-155.5" font-family="SegoeUI" font-size="10.00">Juniper.Unity.Widgets.Video</text>
<text text-anchor="middle" x="68" y="-144.5" font-family="SegoeUI" font-size="10.00">Vader</text>
<polyline fill="none" stroke="black" points="0,-137.5 136,-137.5 "/>
<text text-anchor="start" x="8" y="-125.5" font-family="SegoeUI" font-size="10.00">+ restartTimeout</text>
<text text-anchor="start" x="8" y="-114.5" font-family="SegoeUI" font-size="10.00">+ lingerTimeout</text>
<text text-anchor="start" x="8" y="-103.5" font-family="SegoeUI" font-size="10.00">+ onComplete</text>
<polyline fill="none" stroke="black" points="0,-96.5 136,-96.5 "/>
<text text-anchor="start" x="8" y="-84.5" font-family="SegoeUI" font-size="10.00">+ Awake()</text>
<text text-anchor="start" x="8" y="-73.5" font-family="SegoeUI" font-size="10.00">+ FireComplete()</text>
<text text-anchor="start" x="8" y="-62.5" font-family="SegoeUI" font-size="10.00"># OnEntering()</text>
<text text-anchor="start" x="8" y="-51.5" font-family="SegoeUI" font-size="10.00"># OnExiting()</text>
<text text-anchor="start" x="8" y="-40.5" font-family="SegoeUI" font-size="10.00"># RenderValue()</text>
<text text-anchor="start" x="8" y="-29.5" font-family="SegoeUI" font-size="10.00">&#45; RestartVideo()</text>
<text text-anchor="start" x="8" y="-18.5" font-family="SegoeUI" font-size="10.00">&#45; Finish()</text>
<text text-anchor="start" x="8" y="-7.5" font-family="SegoeUI" font-size="10.00">&#45; OnFinish()</text>
</a>
</g>
</g>
<!-- Node3&#45;&gt;Node4 -->
<g id="edge4" class="edge"><title>Node3&#45;&gt;Node4</title>
<path fill="none" stroke="midnightblue" d="M68,-276.738C68,-243.095 68,-202.665 68,-167.622"/>
<polygon fill="none" stroke="midnightblue" points="64.5001,-276.948 68,-286.948 71.5001,-276.948 64.5001,-276.948"/>
</g>
</g>
</svg>
