<?xml version="1.0" encoding="UTF-8" standalone="no"?>
<!DOCTYPE svg PUBLIC "-//W3C//DTD SVG 1.1//EN"
 "http://www.w3.org/Graphics/SVG/1.1/DTD/svg11.dtd">
<!-- Generated by graphviz version 2.38.0 (20140413.2041)
 -->
<!-- Title: Juniper.Unity.AbstractStateController Pages: 1 -->
<!--zoomable 1300 -->
<svg id="main" version="1.1" xmlns="http://www.w3.org/2000/svg" xmlns:xlink="http://www.w3.org/1999/xlink" xml:space="preserve" onload="init(evt)">
<style type="text/css"><![CDATA[
.edge:hover path { stroke: red; }
.edge:hover polygon { stroke: red; fill: red; }
]]></style>
<script type="text/javascript"><![CDATA[
var edges = document.getElementsByTagName('g');
if (edges && edges.length) {
  for (var i=0;i<edges.length;i++) {
    if (edges[i].id.substr(0,4)=='edge') {
      edges[i].setAttribute('class','edge');
    }
  }
}
]]></script>
        <defs>
                <circle id="rim" cx="0" cy="0" r="7"/>
                <circle id="rim2" cx="0" cy="0" r="3.5"/>
                <g id="zoomPlus">
                        <use xlink:href="#rim" fill="#404040">
                                <set attributeName="fill" to="#808080" begin="zoomplus.mouseover" end="zoomplus.mouseout"/>
                        </use>
                        <path d="M-4,0h8M0,-4v8" fill="none" stroke="white" stroke-width="1.5" pointer-events="none"/>
                </g>
                <g id="zoomMin">
                        <use xlink:href="#rim" fill="#404040">
                                <set attributeName="fill" to="#808080" begin="zoomminus.mouseover" end="zoomminus.mouseout"/>
                        </use>
                        <path d="M-4,0h8" fill="none" stroke="white" stroke-width="1.5" pointer-events="none"/>
                </g>
                <g id="dirArrow">
                        <path fill="none" stroke="white" stroke-width="1.5" d="M0,-3.0v7 M-2.5,-0.5L0,-3.0L2.5,-0.5"/>
                </g>
               <g id="resetDef">
                       <use xlink:href="#rim2" fill="#404040">
                               <set attributeName="fill" to="#808080" begin="reset.mouseover" end="reset.mouseout"/>
                       </use>
               </g>
        </defs>

<script type="text/javascript">
var viewWidth = 848;
var viewHeight = 1300;
var sectionId = 'dynsection-0';
</script>
<script xlink:href="../../svgpan.js"/>
<svg id="graph" class="graph">
<g id="viewport">
<title>Juniper.Unity.AbstractStateController</title>
<polygon fill="white" stroke="none" points="-4,4 -4,-1296 843.5,-1296 843.5,4 -4,4"/>
<!-- Node0 -->
<g id="node1" class="node"><title>Node0</title>
<g id="a_node1"><a xlink:title="A subscene is a game object loaded from another scene. The scenes all get loaded at runtime and then ...">
<polygon fill="#bfbfbf" stroke="black" points="426,-876.5 426,-1197.5 558,-1197.5 558,-876.5 426,-876.5"/>
<text text-anchor="start" x="434" y="-1185.5" font-family="SegoeUI" font-size="10.00">Juniper.Unity.AbstractState</text>
<text text-anchor="middle" x="492" y="-1174.5" font-family="SegoeUI" font-size="10.00">Controller</text>
<polyline fill="none" stroke="black" points="426,-1167.5 558,-1167.5 "/>
<text text-anchor="start" x="434" y="-1155.5" font-family="SegoeUI" font-size="10.00">+ onEntering</text>
<text text-anchor="start" x="434" y="-1144.5" font-family="SegoeUI" font-size="10.00">+ onEntered</text>
<text text-anchor="start" x="434" y="-1133.5" font-family="SegoeUI" font-size="10.00">+ onExiting</text>
<text text-anchor="start" x="434" y="-1122.5" font-family="SegoeUI" font-size="10.00">+ onExited</text>
<text text-anchor="start" x="434" y="-1111.5" font-family="SegoeUI" font-size="10.00">+ state</text>
<text text-anchor="start" x="434" y="-1100.5" font-family="SegoeUI" font-size="10.00">+ IsComplete</text>
<text text-anchor="start" x="434" y="-1089.5" font-family="SegoeUI" font-size="10.00">+ IsRunning</text>
<text text-anchor="start" x="434" y="-1078.5" font-family="SegoeUI" font-size="10.00">+ IsEntered</text>
<text text-anchor="start" x="434" y="-1067.5" font-family="SegoeUI" font-size="10.00">+ IsExited</text>
<text text-anchor="start" x="434" y="-1056.5" font-family="SegoeUI" font-size="10.00">+ Waiter</text>
<text text-anchor="start" x="434" y="-1045.5" font-family="SegoeUI" font-size="10.00">&#45; lastState</text>
<text text-anchor="start" x="434" y="-1034.5" font-family="SegoeUI" font-size="10.00">&#45; skipEvents</text>
<text text-anchor="start" x="434" y="-1023.5" font-family="SegoeUI" font-size="10.00">&#45; _waiter</text>
<polyline fill="none" stroke="black" points="426,-1016.5 558,-1016.5 "/>
<text text-anchor="start" x="434" y="-1004.5" font-family="SegoeUI" font-size="10.00">+ HasCompleted()</text>
<text text-anchor="start" x="434" y="-993.5" font-family="SegoeUI" font-size="10.00">+ SkipEnter()</text>
<text text-anchor="start" x="434" y="-982.5" font-family="SegoeUI" font-size="10.00">+ Enter()</text>
<text text-anchor="start" x="434" y="-971.5" font-family="SegoeUI" font-size="10.00">+ OnEnable()</text>
<text text-anchor="start" x="434" y="-960.5" font-family="SegoeUI" font-size="10.00">+ Update()</text>
<text text-anchor="start" x="434" y="-949.5" font-family="SegoeUI" font-size="10.00">+ SkipExit()</text>
<text text-anchor="start" x="434" y="-938.5" font-family="SegoeUI" font-size="10.00">+ Exit()</text>
<text text-anchor="start" x="434" y="-927.5" font-family="SegoeUI" font-size="10.00">+ OnDisable()</text>
<text text-anchor="start" x="434" y="-916.5" font-family="SegoeUI" font-size="10.00"># OnEntering()</text>
<text text-anchor="start" x="434" y="-905.5" font-family="SegoeUI" font-size="10.00"># OnEntered()</text>
<text text-anchor="start" x="434" y="-894.5" font-family="SegoeUI" font-size="10.00"># OnExiting()</text>
<text text-anchor="start" x="434" y="-883.5" font-family="SegoeUI" font-size="10.00"># OnExited()</text>
</a>
</g>
</g>
<!-- Node2 -->
<g id="node3" class="node"><title>Node2</title>
<g id="a_node3"><a xlink:href="../../de/d7d/class_juniper_1_1_unity_1_1_animation_1_1_abstract_transition_controller.html" target="_top" xlink:title="Child classes of this class are able to animate transitions between program states.">
<polygon fill="white" stroke="black" points="340.5,-584.5 340.5,-839.5 477.5,-839.5 477.5,-584.5 340.5,-584.5"/>
<text text-anchor="start" x="348.5" y="-827.5" font-family="SegoeUI" font-size="10.00">Juniper.Unity.Animation.</text>
<text text-anchor="middle" x="409" y="-816.5" font-family="SegoeUI" font-size="10.00">AbstractTransitionController</text>
<polyline fill="none" stroke="black" points="340.5,-809.5 477.5,-809.5 "/>
<text text-anchor="start" x="348.5" y="-797.5" font-family="SegoeUI" font-size="10.00">+ attackTime</text>
<text text-anchor="start" x="348.5" y="-786.5" font-family="SegoeUI" font-size="10.00">+ releaseTime</text>
<text text-anchor="start" x="348.5" y="-775.5" font-family="SegoeUI" font-size="10.00">+ onValueChanged</text>
<text text-anchor="start" x="348.5" y="-764.5" font-family="SegoeUI" font-size="10.00">+ tween</text>
<text text-anchor="start" x="348.5" y="-753.5" font-family="SegoeUI" font-size="10.00">+ tweenK</text>
<text text-anchor="start" x="348.5" y="-742.5" font-family="SegoeUI" font-size="10.00">+ TransitionLength</text>
<text text-anchor="start" x="348.5" y="-731.5" font-family="SegoeUI" font-size="10.00">&#45; tweenFunc</text>
<text text-anchor="start" x="348.5" y="-720.5" font-family="SegoeUI" font-size="10.00">&#45; attack</text>
<text text-anchor="start" x="348.5" y="-709.5" font-family="SegoeUI" font-size="10.00">&#45; release</text>
<text text-anchor="start" x="348.5" y="-698.5" font-family="SegoeUI" font-size="10.00">&#45; progress</text>
<text text-anchor="start" x="348.5" y="-687.5" font-family="SegoeUI" font-size="10.00">&#45; tweenedValue</text>
<polyline fill="none" stroke="black" points="340.5,-680.5 477.5,-680.5 "/>
<text text-anchor="start" x="348.5" y="-668.5" font-family="SegoeUI" font-size="10.00">+ Enter()</text>
<text text-anchor="start" x="348.5" y="-657.5" font-family="SegoeUI" font-size="10.00">+ SkipEnter()</text>
<text text-anchor="start" x="348.5" y="-646.5" font-family="SegoeUI" font-size="10.00">+ Exit()</text>
<text text-anchor="start" x="348.5" y="-635.5" font-family="SegoeUI" font-size="10.00">+ Update()</text>
<text text-anchor="start" x="348.5" y="-624.5" font-family="SegoeUI" font-size="10.00"># RenderValue()</text>
<text text-anchor="start" x="348.5" y="-613.5" font-family="SegoeUI" font-size="10.00">&#45; OnValueChanged()</text>
<text text-anchor="start" x="348.5" y="-602.5" font-family="SegoeUI" font-size="10.00">&#45; SetProgress()</text>
<text text-anchor="start" x="348.5" y="-591.5" font-family="SegoeUI" font-size="10.00">&#45; StartTransition()</text>
</a>
</g>
</g>
<!-- Node0&#45;&gt;Node2 -->
<g id="edge2" class="edge"><title>Node0&#45;&gt;Node2</title>
<path fill="none" stroke="midnightblue" d="M448.481,-866.642C446.174,-857.664 443.875,-848.718 441.613,-839.916"/>
<polygon fill="none" stroke="midnightblue" points="445.108,-867.578 450.986,-876.393 451.887,-865.836 445.108,-867.578"/>
</g>
<!-- Node9 -->
<g id="node10" class="node"><title>Node9</title>
<g id="a_node10"><a xlink:href="../../d7/d3c/class_juniper_1_1_unity_1_1_sub_scene_controller.html" target="_top" xlink:title="SubSceneControllers are used by the MasterSceneController to manage workflow through an application....">
<polygon fill="white" stroke="black" points="624.5,-623 624.5,-801 783.5,-801 783.5,-623 624.5,-623"/>
<text text-anchor="middle" x="704" y="-789" font-family="SegoeUI" font-size="10.00">Juniper.Unity.SubSceneController</text>
<polyline fill="none" stroke="black" points="624.5,-782 783.5,-782 "/>
<text text-anchor="start" x="632.5" y="-770" font-family="SegoeUI" font-size="10.00">+ Enterable</text>
<text text-anchor="start" x="632.5" y="-759" font-family="SegoeUI" font-size="10.00">+ Exitable</text>
<text text-anchor="start" x="632.5" y="-748" font-family="SegoeUI" font-size="10.00">+ CurrentSubScenes</text>
<text text-anchor="start" x="632.5" y="-737" font-family="SegoeUI" font-size="10.00"># deactivateOnExit</text>
<text text-anchor="start" x="632.5" y="-726" font-family="SegoeUI" font-size="10.00">&#45; childTransitions</text>
<text text-anchor="start" x="632.5" y="-715" font-family="SegoeUI" font-size="10.00">&#45; isExitingPreviousScene</text>
<polyline fill="none" stroke="black" points="624.5,-708 783.5,-708 "/>
<text text-anchor="start" x="632.5" y="-696" font-family="SegoeUI" font-size="10.00">+ Awake()</text>
<text text-anchor="start" x="632.5" y="-685" font-family="SegoeUI" font-size="10.00">+ Load()</text>
<text text-anchor="start" x="632.5" y="-674" font-family="SegoeUI" font-size="10.00">+ Enter()</text>
<text text-anchor="start" x="632.5" y="-663" font-family="SegoeUI" font-size="10.00">+ Exit()</text>
<text text-anchor="start" x="632.5" y="-652" font-family="SegoeUI" font-size="10.00">+ Update()</text>
<text text-anchor="start" x="632.5" y="-641" font-family="SegoeUI" font-size="10.00"># OnExited()</text>
<text text-anchor="start" x="632.5" y="-630" font-family="SegoeUI" font-size="10.00">&#45; AllComplete()</text>
</a>
</g>
</g>
<!-- Node0&#45;&gt;Node9 -->
<g id="edge9" class="edge"><title>Node0&#45;&gt;Node9</title>
<path fill="none" stroke="midnightblue" d="M563.708,-926.746C590.569,-885.822 620.722,-839.881 646.171,-801.108"/>
<polygon fill="none" stroke="midnightblue" points="560.767,-924.849 558.206,-935.129 566.619,-928.69 560.767,-924.849"/>
</g>
<!-- Node1 -->
<g id="node2" class="node"><title>Node1</title>
<g id="a_node2"><a xlink:title=" ">
<polygon fill="white" stroke="#bfbfbf" points="451,-1234.5 451,-1291.5 533,-1291.5 533,-1234.5 451,-1234.5"/>
<text text-anchor="middle" x="492" y="-1279.5" font-family="SegoeUI" font-size="10.00">MonoBehaviour</text>
<polyline fill="none" stroke="#bfbfbf" points="451,-1272.5 533,-1272.5 "/>
<text text-anchor="middle" x="492" y="-1260.5" font-family="SegoeUI" font-size="10.00"> </text>
<polyline fill="none" stroke="#bfbfbf" points="451,-1253.5 533,-1253.5 "/>
<text text-anchor="middle" x="492" y="-1241.5" font-family="SegoeUI" font-size="10.00"> </text>
</a>
</g>
</g>
<!-- Node1&#45;&gt;Node0 -->
<g id="edge1" class="edge"><title>Node1&#45;&gt;Node0</title>
<path fill="none" stroke="midnightblue" d="M492,-1223.91C492,-1216.02 492,-1207.25 492,-1197.93"/>
<polygon fill="none" stroke="midnightblue" points="488.5,-1224.08 492,-1234.08 495.5,-1224.08 488.5,-1224.08"/>
</g>
<!-- Node3 -->
<g id="node4" class="node"><title>Node3</title>
<g id="a_node4"><a xlink:href="../../da/d20/class_juniper_1_1_unity_1_1_animation_1_1_alpha_transition.html" target="_top" xlink:title="Performs a shrinking/growing animation on scene transitions.">
<polygon fill="white" stroke="black" points="8,-320 8,-443 128,-443 128,-320 8,-320"/>
<text text-anchor="start" x="16" y="-431" font-family="SegoeUI" font-size="10.00">Juniper.Unity.Animation.</text>
<text text-anchor="middle" x="68" y="-420" font-family="SegoeUI" font-size="10.00">AlphaTransition</text>
<polyline fill="none" stroke="black" points="8,-413 128,-413 "/>
<text text-anchor="start" x="16" y="-401" font-family="SegoeUI" font-size="10.00">+ minAlpha</text>
<text text-anchor="start" x="16" y="-390" font-family="SegoeUI" font-size="10.00">+ maxAlpha</text>
<text text-anchor="start" x="16" y="-379" font-family="SegoeUI" font-size="10.00">+ length</text>
<text text-anchor="start" x="16" y="-368" font-family="SegoeUI" font-size="10.00">+ TransitionLength</text>
<text text-anchor="start" x="16" y="-357" font-family="SegoeUI" font-size="10.00">+ DeltaAlpha</text>
<text text-anchor="start" x="16" y="-346" font-family="SegoeUI" font-size="10.00">&#45; transitionMaterial</text>
<polyline fill="none" stroke="black" points="8,-339 128,-339 "/>
<text text-anchor="start" x="16" y="-327" font-family="SegoeUI" font-size="10.00"># RenderValue()</text>
</a>
</g>
</g>
<!-- Node2&#45;&gt;Node3 -->
<g id="edge3" class="edge"><title>Node2&#45;&gt;Node3</title>
<path fill="none" stroke="midnightblue" d="M330.839,-680.354C270.849,-653.375 189.637,-608.874 137,-548 111.039,-517.977 93.8225,-476.807 83.0793,-443.041"/>
<polygon fill="none" stroke="midnightblue" points="329.717,-683.684 340.277,-684.533 332.551,-677.284 329.717,-683.684"/>
</g>
<!-- Node5 -->
<g id="node6" class="node"><title>Node5</title>
<g id="a_node6"><a xlink:href="../../d3/d84/class_juniper_1_1_unity_1_1_animation_1_1_fade_transition.html" target="_top" xlink:title="Performs a fade&#45;in/fade&#45;out animation on scene transitions.">
<polygon fill="white" stroke="black" points="146,-226.5 146,-536.5 266,-536.5 266,-226.5 146,-226.5"/>
<text text-anchor="start" x="154" y="-524.5" font-family="SegoeUI" font-size="10.00">Juniper.Unity.Animation.</text>
<text text-anchor="middle" x="206" y="-513.5" font-family="SegoeUI" font-size="10.00">FadeTransition</text>
<polyline fill="none" stroke="black" points="146,-506.5 266,-506.5 "/>
<text text-anchor="start" x="154" y="-494.5" font-family="SegoeUI" font-size="10.00">+ fadeOutSound</text>
<text text-anchor="start" x="154" y="-483.5" font-family="SegoeUI" font-size="10.00">+ fadeInSound</text>
<text text-anchor="start" x="154" y="-472.5" font-family="SegoeUI" font-size="10.00">+ fadeLength</text>
<text text-anchor="start" x="154" y="-461.5" font-family="SegoeUI" font-size="10.00">+ TransitionLength</text>
<text text-anchor="start" x="154" y="-450.5" font-family="SegoeUI" font-size="10.00">&#45; display</text>
<text text-anchor="start" x="154" y="-439.5" font-family="SegoeUI" font-size="10.00">&#45; aud</text>
<text text-anchor="start" x="154" y="-428.5" font-family="SegoeUI" font-size="10.00">&#45; r</text>
<text text-anchor="start" x="154" y="-417.5" font-family="SegoeUI" font-size="10.00">&#45; props</text>
<text text-anchor="start" x="154" y="-406.5" font-family="SegoeUI" font-size="10.00">&#45; actions</text>
<text text-anchor="start" x="154" y="-395.5" font-family="SegoeUI" font-size="10.00">&#45; lastColor</text>
<text text-anchor="start" x="154" y="-384.5" font-family="SegoeUI" font-size="10.00">&#45; lastCullingMask</text>
<text text-anchor="start" x="154" y="-373.5" font-family="SegoeUI" font-size="10.00">&#45; lastAmbientMode</text>
<polyline fill="none" stroke="black" points="146,-366.5 266,-366.5 "/>
<text text-anchor="start" x="154" y="-354.5" font-family="SegoeUI" font-size="10.00">+ Awake()</text>
<text text-anchor="start" x="154" y="-343.5" font-family="SegoeUI" font-size="10.00">+ Reinstall()</text>
<text text-anchor="start" x="154" y="-332.5" font-family="SegoeUI" font-size="10.00">+ Install()</text>
<text text-anchor="start" x="154" y="-321.5" font-family="SegoeUI" font-size="10.00">+ Uninstall()</text>
<text text-anchor="start" x="154" y="-310.5" font-family="SegoeUI" font-size="10.00">+ Fader()</text>
<text text-anchor="start" x="154" y="-299.5" font-family="SegoeUI" font-size="10.00">+ Ensure()</text>
<text text-anchor="start" x="154" y="-288.5" font-family="SegoeUI" font-size="10.00"># RenderValue()</text>
<text text-anchor="start" x="154" y="-277.5" font-family="SegoeUI" font-size="10.00"># OnEntered()</text>
<text text-anchor="start" x="154" y="-266.5" font-family="SegoeUI" font-size="10.00"># OnExiting()</text>
<text text-anchor="start" x="154" y="-255.5" font-family="SegoeUI" font-size="10.00"># OnExited()</text>
<text text-anchor="start" x="154" y="-244.5" font-family="SegoeUI" font-size="10.00">&#45; FadeTransition_Enter</text>
<text text-anchor="start" x="154" y="-233.5" font-family="SegoeUI" font-size="10.00">_Exiting()</text>
</a>
</g>
</g>
<!-- Node2&#45;&gt;Node5 -->
<g id="edge5" class="edge"><title>Node2&#45;&gt;Node5</title>
<path fill="none" stroke="midnightblue" d="M333.699,-628.973C313.065,-604.077 291.783,-575.901 275,-548 271.951,-542.932 268.975,-537.704 266.077,-532.368"/>
<polygon fill="none" stroke="midnightblue" points="331.264,-631.517 340.369,-636.936 336.631,-627.023 331.264,-631.517"/>
</g>
<!-- Node6 -->
<g id="node7" class="node"><title>Node6</title>
<g id="a_node7"><a xlink:href="../../da/dc2/class_juniper_1_1_unity_1_1_animation_1_1_scale_transition.html" target="_top" xlink:title="Performs a shrinking/growing animation on scene transitions.">
<polygon fill="white" stroke="black" points="284,-325.5 284,-437.5 404,-437.5 404,-325.5 284,-325.5"/>
<text text-anchor="start" x="292" y="-425.5" font-family="SegoeUI" font-size="10.00">Juniper.Unity.Animation.</text>
<text text-anchor="middle" x="344" y="-414.5" font-family="SegoeUI" font-size="10.00">ScaleTransition</text>
<polyline fill="none" stroke="black" points="284,-407.5 404,-407.5 "/>
<text text-anchor="start" x="292" y="-395.5" font-family="SegoeUI" font-size="10.00">+ minScale</text>
<text text-anchor="start" x="292" y="-384.5" font-family="SegoeUI" font-size="10.00">+ maxScale</text>
<text text-anchor="start" x="292" y="-373.5" font-family="SegoeUI" font-size="10.00">+ length</text>
<text text-anchor="start" x="292" y="-362.5" font-family="SegoeUI" font-size="10.00">+ TransitionLength</text>
<text text-anchor="start" x="292" y="-351.5" font-family="SegoeUI" font-size="10.00">+ DeltaScale</text>
<polyline fill="none" stroke="black" points="284,-344.5 404,-344.5 "/>
<text text-anchor="start" x="292" y="-332.5" font-family="SegoeUI" font-size="10.00"># RenderValue()</text>
</a>
</g>
</g>
<!-- Node2&#45;&gt;Node6 -->
<g id="edge6" class="edge"><title>Node2&#45;&gt;Node6</title>
<path fill="none" stroke="midnightblue" d="M382.008,-574.585C372.501,-526.538 362.346,-475.218 354.927,-437.722"/>
<polygon fill="none" stroke="midnightblue" points="378.588,-575.333 383.962,-584.463 385.455,-573.974 378.588,-575.333"/>
</g>
<!-- Node7 -->
<g id="node8" class="node"><title>Node7</title>
<g id="a_node8"><a xlink:href="../../d5/d56/class_juniper_1_1_unity_1_1_animation_1_1_spiral_transition.html" target="_top" xlink:title="Take an object in world&#45;space and spiral it in to camera&#45;locked space (faux&#45;screen&#45;space)">
<polygon fill="white" stroke="black" points="422,-265 422,-498 542,-498 542,-265 422,-265"/>
<text text-anchor="start" x="430" y="-486" font-family="SegoeUI" font-size="10.00">Juniper.Unity.Animation.</text>
<text text-anchor="middle" x="482" y="-475" font-family="SegoeUI" font-size="10.00">SpiralTransition</text>
<polyline fill="none" stroke="black" points="422,-468 542,-468 "/>
<text text-anchor="start" x="430" y="-456" font-family="SegoeUI" font-size="10.00">+ startOrientation</text>
<text text-anchor="start" x="430" y="-445" font-family="SegoeUI" font-size="10.00">+ endOrientation</text>
<text text-anchor="start" x="430" y="-434" font-family="SegoeUI" font-size="10.00">+ fullScreen</text>
<text text-anchor="start" x="430" y="-423" font-family="SegoeUI" font-size="10.00">+ distance</text>
<text text-anchor="start" x="430" y="-412" font-family="SegoeUI" font-size="10.00">+ length</text>
<text text-anchor="start" x="430" y="-401" font-family="SegoeUI" font-size="10.00">+ TransitionLength</text>
<text text-anchor="start" x="430" y="-390" font-family="SegoeUI" font-size="10.00">&#45; startParent</text>
<text text-anchor="start" x="430" y="-379" font-family="SegoeUI" font-size="10.00">&#45; startPosition</text>
<text text-anchor="start" x="430" y="-368" font-family="SegoeUI" font-size="10.00">&#45; startScale</text>
<text text-anchor="start" x="430" y="-357" font-family="SegoeUI" font-size="10.00">&#45; endScale</text>
<text text-anchor="start" x="430" y="-346" font-family="SegoeUI" font-size="10.00">&#45; camT</text>
<text text-anchor="start" x="430" y="-335" font-family="SegoeUI" font-size="10.00">&#45; tweenValue</text>
<polyline fill="none" stroke="black" points="422,-328 542,-328 "/>
<text text-anchor="start" x="430" y="-316" font-family="SegoeUI" font-size="10.00">+ Awake()</text>
<text text-anchor="start" x="430" y="-305" font-family="SegoeUI" font-size="10.00">+ Update()</text>
<text text-anchor="start" x="430" y="-294" font-family="SegoeUI" font-size="10.00"># RenderValue()</text>
<text text-anchor="start" x="430" y="-283" font-family="SegoeUI" font-size="10.00"># OnEntering()</text>
<text text-anchor="start" x="430" y="-272" font-family="SegoeUI" font-size="10.00"># OnExiting()</text>
</a>
</g>
</g>
<!-- Node2&#45;&gt;Node7 -->
<g id="edge7" class="edge"><title>Node2&#45;&gt;Node7</title>
<path fill="none" stroke="midnightblue" d="M439.349,-574.428C444.98,-549.092 450.811,-522.852 456.286,-498.213"/>
<polygon fill="none" stroke="midnightblue" points="435.872,-573.942 437.119,-584.463 442.705,-575.461 435.872,-573.942"/>
</g>
<!-- Node8 -->
<g id="node9" class="node"><title>Node8</title>
<g id="a_node9"><a xlink:href="../../d4/d79/class_juniper_1_1_unity_1_1_animation_1_1_translation_transition.html" target="_top" xlink:title="Performs a sliding animation on scene transitions. The object&#39;s localPosition is the value that is ch...">
<polygon fill="white" stroke="black" points="560,-320 560,-443 680,-443 680,-320 560,-320"/>
<text text-anchor="start" x="568" y="-431" font-family="SegoeUI" font-size="10.00">Juniper.Unity.Animation.</text>
<text text-anchor="middle" x="620" y="-420" font-family="SegoeUI" font-size="10.00">TranslationTransition</text>
<polyline fill="none" stroke="black" points="560,-413 680,-413 "/>
<text text-anchor="start" x="568" y="-401" font-family="SegoeUI" font-size="10.00">+ Delta</text>
<text text-anchor="start" x="568" y="-390" font-family="SegoeUI" font-size="10.00">+ length</text>
<text text-anchor="start" x="568" y="-379" font-family="SegoeUI" font-size="10.00">+ TransitionLength</text>
<text text-anchor="start" x="568" y="-368" font-family="SegoeUI" font-size="10.00">+ EndPosition</text>
<text text-anchor="start" x="568" y="-357" font-family="SegoeUI" font-size="10.00">&#45; startPosition</text>
<polyline fill="none" stroke="black" points="560,-350 680,-350 "/>
<text text-anchor="start" x="568" y="-338" font-family="SegoeUI" font-size="10.00"># Awake()</text>
<text text-anchor="start" x="568" y="-327" font-family="SegoeUI" font-size="10.00"># RenderValue()</text>
</a>
</g>
</g>
<!-- Node2&#45;&gt;Node8 -->
<g id="edge8" class="edge"><title>Node2&#45;&gt;Node8</title>
<path fill="none" stroke="midnightblue" d="M484.444,-634.71C507.725,-608.613 532.165,-578.323 551,-548 571.286,-515.342 588.057,-475.677 599.984,-443.366"/>
<polygon fill="none" stroke="midnightblue" points="481.687,-632.541 477.59,-642.312 486.886,-637.229 481.687,-632.541"/>
</g>
<!-- Node4 -->
<g id="node5" class="node"><title>Node4</title>
<g id="a_node5"><a xlink:href="../../db/de8/class_juniper_1_1_unity_1_1_widgets_1_1_video_vader.html" target="_top" xlink:title="Manages the life&#45;cycle of a video that can be faded out or faded in.">
<polygon fill="white" stroke="black" points="0,-0.5 0,-178.5 136,-178.5 136,-0.5 0,-0.5"/>
<text text-anchor="start" x="8" y="-166.5" font-family="SegoeUI" font-size="10.00">Juniper.Unity.Widgets.Video</text>
<text text-anchor="middle" x="68" y="-155.5" font-family="SegoeUI" font-size="10.00">Vader</text>
<polyline fill="none" stroke="black" points="0,-148.5 136,-148.5 "/>
<text text-anchor="start" x="8" y="-136.5" font-family="SegoeUI" font-size="10.00">+ restartTimeout</text>
<text text-anchor="start" x="8" y="-125.5" font-family="SegoeUI" font-size="10.00">+ lingerTimeout</text>
<text text-anchor="start" x="8" y="-114.5" font-family="SegoeUI" font-size="10.00">+ onComplete</text>
<text text-anchor="start" x="8" y="-103.5" font-family="SegoeUI" font-size="10.00">&#45; player</text>
<polyline fill="none" stroke="black" points="0,-96.5 136,-96.5 "/>
<text text-anchor="start" x="8" y="-84.5" font-family="SegoeUI" font-size="10.00">+ Awake()</text>
<text text-anchor="start" x="8" y="-73.5" font-family="SegoeUI" font-size="10.00">+ FireComplete()</text>
<text text-anchor="start" x="8" y="-62.5" font-family="SegoeUI" font-size="10.00"># OnEntering()</text>
<text text-anchor="start" x="8" y="-51.5" font-family="SegoeUI" font-size="10.00"># OnExiting()</text>
<text text-anchor="start" x="8" y="-40.5" font-family="SegoeUI" font-size="10.00"># RenderValue()</text>
<text text-anchor="start" x="8" y="-29.5" font-family="SegoeUI" font-size="10.00">&#45; RestartVideo()</text>
<text text-anchor="start" x="8" y="-18.5" font-family="SegoeUI" font-size="10.00">&#45; Finish()</text>
<text text-anchor="start" x="8" y="-7.5" font-family="SegoeUI" font-size="10.00">&#45; OnFinish()</text>
</a>
</g>
</g>
<!-- Node3&#45;&gt;Node4 -->
<g id="edge4" class="edge"><title>Node3&#45;&gt;Node4</title>
<path fill="none" stroke="midnightblue" d="M68,-309.64C68,-270.176 68,-220.688 68,-178.731"/>
<polygon fill="none" stroke="midnightblue" points="64.5001,-309.706 68,-319.706 71.5001,-309.707 64.5001,-309.706"/>
</g>
<!-- Node10 -->
<g id="node11" class="node"><title>Node10</title>
<g id="a_node11"><a xlink:href="../../d2/d0b/class_juniper_1_1_unity_1_1_video_1_1_video360.html" target="_top" xlink:title=" ">
<polygon fill="white" stroke="black" points="698.5,-215.5 698.5,-547.5 839.5,-547.5 839.5,-215.5 698.5,-215.5"/>
<text text-anchor="middle" x="769" y="-535.5" font-family="SegoeUI" font-size="10.00">Juniper.Unity.Video.Video360</text>
<polyline fill="none" stroke="black" points="698.5,-528.5 839.5,-528.5 "/>
<text text-anchor="start" x="706.5" y="-516.5" font-family="SegoeUI" font-size="10.00">+ videoClip</text>
<text text-anchor="start" x="706.5" y="-505.5" font-family="SegoeUI" font-size="10.00">+ textureFormat</text>
<text text-anchor="start" x="706.5" y="-494.5" font-family="SegoeUI" font-size="10.00">+ tint</text>
<text text-anchor="start" x="706.5" y="-483.5" font-family="SegoeUI" font-size="10.00">+ exposure</text>
<text text-anchor="start" x="706.5" y="-472.5" font-family="SegoeUI" font-size="10.00">+ rotation</text>
<text text-anchor="start" x="706.5" y="-461.5" font-family="SegoeUI" font-size="10.00">+ useMipMap</text>
<text text-anchor="start" x="706.5" y="-450.5" font-family="SegoeUI" font-size="10.00">+ layout</text>
<text text-anchor="start" x="706.5" y="-439.5" font-family="SegoeUI" font-size="10.00">+ imageType</text>
<text text-anchor="start" x="706.5" y="-428.5" font-family="SegoeUI" font-size="10.00">+ mirror180OnBack</text>
<text text-anchor="start" x="706.5" y="-417.5" font-family="SegoeUI" font-size="10.00">+ stereoLayout</text>
<text text-anchor="start" x="706.5" y="-406.5" font-family="SegoeUI" font-size="10.00">+ onLoop</text>
<text text-anchor="start" x="706.5" y="-395.5" font-family="SegoeUI" font-size="10.00">+ Loop</text>
<text text-anchor="start" x="706.5" y="-384.5" font-family="SegoeUI" font-size="10.00">+ secondsToCache</text>
<text text-anchor="start" x="706.5" y="-373.5" font-family="SegoeUI" font-size="10.00">&#45; LAT_LON</text>
<text text-anchor="start" x="706.5" y="-362.5" font-family="SegoeUI" font-size="10.00">&#45; SIDES_6</text>
<text text-anchor="start" x="706.5" y="-351.5" font-family="SegoeUI" font-size="10.00">&#45; width</text>
<text text-anchor="start" x="706.5" y="-340.5" font-family="SegoeUI" font-size="10.00">&#45; height</text>
<text text-anchor="start" x="706.5" y="-329.5" font-family="SegoeUI" font-size="10.00">&#45; player</text>
<text text-anchor="start" x="706.5" y="-318.5" font-family="SegoeUI" font-size="10.00">&#45; audioTracks</text>
<text text-anchor="start" x="706.5" y="-307.5" font-family="SegoeUI" font-size="10.00">&#45; renderTexture</text>
<text text-anchor="start" x="706.5" y="-296.5" font-family="SegoeUI" font-size="10.00">&#45; skyboxMaterial</text>
<polyline fill="none" stroke="black" points="698.5,-289.5 839.5,-289.5 "/>
<text text-anchor="start" x="706.5" y="-277.5" font-family="SegoeUI" font-size="10.00">+ Awake()</text>
<text text-anchor="start" x="706.5" y="-266.5" font-family="SegoeUI" font-size="10.00">+ Load()</text>
<text text-anchor="start" x="706.5" y="-255.5" font-family="SegoeUI" font-size="10.00">+ Play()</text>
<text text-anchor="start" x="706.5" y="-244.5" font-family="SegoeUI" font-size="10.00">+ Update()</text>
<text text-anchor="start" x="706.5" y="-233.5" font-family="SegoeUI" font-size="10.00"># OnLoop()</text>
<text text-anchor="start" x="706.5" y="-222.5" font-family="SegoeUI" font-size="10.00">&#45; CreateAudioTracks()</text>
</a>
</g>
</g>
<!-- Node9&#45;&gt;Node10 -->
<g id="edge10" class="edge"><title>Node9&#45;&gt;Node10</title>
<path fill="none" stroke="midnightblue" d="M723.4,-612.956C727.493,-592.272 731.918,-569.906 736.348,-547.521"/>
<polygon fill="none" stroke="midnightblue" points="719.927,-612.479 721.419,-622.968 726.793,-613.838 719.927,-612.479"/>
</g>
</g>
</svg>
        <g id="navigator" transform="translate(0 0)" fill="#404254">
                <rect fill="#f2f5e9" fill-opacity="0.5" stroke="#606060" stroke-width=".5" x="0" y="0" width="60" height="60"/>
                <use id="zoomplus" xlink:href="#zoomPlus" x="17" y="9" onmousedown="handleZoom(evt,'in')"/>
                <use id="zoomminus" xlink:href="#zoomMin" x="42" y="9" onmousedown="handleZoom(evt,'out')"/>
                <use id="reset" xlink:href="#resetDef" x="30" y="36" onmousedown="handleReset()"/>
                <g id="arrowUp" xlink:href="#dirArrow" transform="translate(30 24)" onmousedown="handlePan(0,-1)">
                  <use xlink:href="#rim" fill="#404040">
                        <set attributeName="fill" to="#808080" begin="arrowUp.mouseover" end="arrowUp.mouseout"/>
                  </use>
                  <path fill="none" stroke="white" stroke-width="1.5" d="M0,-3.0v7 M-2.5,-0.5L0,-3.0L2.5,-0.5"/>
                </g>
                <g id="arrowRight" xlink:href="#dirArrow" transform="rotate(90) translate(36 -43)" onmousedown="handlePan(1,0)">
                  <use xlink:href="#rim" fill="#404040">
                        <set attributeName="fill" to="#808080" begin="arrowRight.mouseover" end="arrowRight.mouseout"/>
                  </use>
                  <path fill="none" stroke="white" stroke-width="1.5" d="M0,-3.0v7 M-2.5,-0.5L0,-3.0L2.5,-0.5"/>
                </g>
                <g id="arrowDown" xlink:href="#dirArrow" transform="rotate(180) translate(-30 -48)" onmousedown="handlePan(0,1)">
                  <use xlink:href="#rim" fill="#404040">
                        <set attributeName="fill" to="#808080" begin="arrowDown.mouseover" end="arrowDown.mouseout"/>
                  </use>
                  <path fill="none" stroke="white" stroke-width="1.5" d="M0,-3.0v7 M-2.5,-0.5L0,-3.0L2.5,-0.5"/>
                </g>
                <g id="arrowLeft" xlink:href="#dirArrow" transform="rotate(270) translate(-36 17)" onmousedown="handlePan(-1,0)">
                  <use xlink:href="#rim" fill="#404040">
                        <set attributeName="fill" to="#808080" begin="arrowLeft.mouseover" end="arrowLeft.mouseout"/>
                  </use>
                  <path fill="none" stroke="white" stroke-width="1.5" d="M0,-3.0v7 M-2.5,-0.5L0,-3.0L2.5,-0.5"/>
                </g>
        </g>
        <svg viewBox="0 0 15 15" width="100%" height="30px" preserveAspectRatio="xMaxYMin meet">
         <g id="arrow_out" transform="scale(0.3 0.3)">
          <a xlink:href="class_juniper_1_1_unity_1_1_abstract_state_controller__inherit__graph_org.svg" target="_base">
           <rect id="button" ry="5" rx="5" y="6" x="6" height="38" width="38"
                fill="#f2f5e9" fill-opacity="0.5" stroke="#606060" stroke-width="1.0"/>
           <path id="arrow"
             d="M 11.500037,31.436501 C 11.940474,20.09759 22.043105,11.32322 32.158766,21.979434 L 37.068811,17.246167 C 37.068811,17.246167 37.088388,32 37.088388,32 L 22.160133,31.978069 C 22.160133,31.978069 26.997745,27.140456 26.997745,27.140456 C 18.528582,18.264221 13.291696,25.230495 11.500037,31.436501 z"
             style="fill:#404040;"/>
          </a>
         </g>
        </svg>
</svg>
