<?xml version="1.0" encoding="UTF-8" standalone="no"?>
<!DOCTYPE svg PUBLIC "-//W3C//DTD SVG 1.1//EN"
 "http://www.w3.org/Graphics/SVG/1.1/DTD/svg11.dtd">
<!-- Generated by graphviz version 2.38.0 (20140413.2041)
 -->
<!-- Title: Juniper.Progress.ProgressStream Pages: 1 -->
<svg width="161pt" height="507pt"
 viewBox="0.00 0.00 160.50 507.00" xmlns="http://www.w3.org/2000/svg" xmlns:xlink="http://www.w3.org/1999/xlink">
<g id="graph0" class="graph" transform="scale(1 1) rotate(0) translate(4 503)">
<title>Juniper.Progress.ProgressStream</title>
<polygon fill="white" stroke="none" points="-4,4 -4,-503 156.5,-503 156.5,4 -4,4"/>
<!-- Node0 -->
<g id="node1" class="node"><title>Node0</title>
<g id="a_node1"><a xlink:title="A stream that can report progress on how much it has been consumed.">
<polygon fill="#bfbfbf" stroke="black" points="0,-0.5 0,-299.5 128,-299.5 128,-0.5 0,-0.5"/>
<text text-anchor="start" x="8" y="-287.5" font-family="SegoeUI" font-size="10.00">Juniper.Progress.Progress</text>
<text text-anchor="middle" x="64" y="-276.5" font-family="SegoeUI" font-size="10.00">Stream</text>
<polyline fill="none" stroke="black" points="0,-269.5 128,-269.5 "/>
<text text-anchor="start" x="8" y="-257.5" font-family="SegoeUI" font-size="10.00">+ TotalByteCount</text>
<text text-anchor="start" x="8" y="-246.5" font-family="SegoeUI" font-size="10.00">+ Progress</text>
<text text-anchor="start" x="8" y="-235.5" font-family="SegoeUI" font-size="10.00">+ CanRead</text>
<text text-anchor="start" x="8" y="-224.5" font-family="SegoeUI" font-size="10.00">+ CanSeek</text>
<text text-anchor="start" x="8" y="-213.5" font-family="SegoeUI" font-size="10.00">+ CanWrite</text>
<text text-anchor="start" x="8" y="-202.5" font-family="SegoeUI" font-size="10.00">+ Length</text>
<text text-anchor="start" x="8" y="-191.5" font-family="SegoeUI" font-size="10.00">+ Position</text>
<text text-anchor="start" x="8" y="-180.5" font-family="SegoeUI" font-size="10.00">&#45; stream</text>
<text text-anchor="start" x="8" y="-169.5" font-family="SegoeUI" font-size="10.00">&#45; hasLength</text>
<text text-anchor="start" x="8" y="-158.5" font-family="SegoeUI" font-size="10.00">&#45; length</text>
<text text-anchor="start" x="8" y="-147.5" font-family="SegoeUI" font-size="10.00">&#45; parent</text>
<text text-anchor="start" x="8" y="-136.5" font-family="SegoeUI" font-size="10.00">&#45; totalRead</text>
<polyline fill="none" stroke="black" points="0,-129.5 128,-129.5 "/>
<text text-anchor="start" x="8" y="-117.5" font-family="SegoeUI" font-size="10.00">+ ProgressStream()</text>
<text text-anchor="start" x="8" y="-106.5" font-family="SegoeUI" font-size="10.00">+ ProgressStream()</text>
<text text-anchor="start" x="8" y="-95.5" font-family="SegoeUI" font-size="10.00">+ SetLength()</text>
<text text-anchor="start" x="8" y="-84.5" font-family="SegoeUI" font-size="10.00">+ Report()</text>
<text text-anchor="start" x="8" y="-73.5" font-family="SegoeUI" font-size="10.00">+ Report()</text>
<text text-anchor="start" x="8" y="-62.5" font-family="SegoeUI" font-size="10.00">+ Flush()</text>
<text text-anchor="start" x="8" y="-51.5" font-family="SegoeUI" font-size="10.00">+ Read()</text>
<text text-anchor="start" x="8" y="-40.5" font-family="SegoeUI" font-size="10.00">+ Seek()</text>
<text text-anchor="start" x="8" y="-29.5" font-family="SegoeUI" font-size="10.00">+ Write()</text>
<text text-anchor="start" x="8" y="-18.5" font-family="SegoeUI" font-size="10.00"># Dispose()</text>
<text text-anchor="start" x="8" y="-7.5" font-family="SegoeUI" font-size="10.00">&#45; GetStreamLength()</text>
</a>
</g>
</g>
<!-- Node1 -->
<g id="node2" class="node"><title>Node1</title>
<g id="a_node2"><a xlink:title=" ">
<polygon fill="white" stroke="#bfbfbf" points="3,-336.5 3,-393.5 51,-393.5 51,-336.5 3,-336.5"/>
<text text-anchor="middle" x="27" y="-381.5" font-family="SegoeUI" font-size="10.00">Stream</text>
<polyline fill="none" stroke="#bfbfbf" points="3,-374.5 51,-374.5 "/>
<text text-anchor="middle" x="27" y="-362.5" font-family="SegoeUI" font-size="10.00"> </text>
<polyline fill="none" stroke="#bfbfbf" points="3,-355.5 51,-355.5 "/>
<text text-anchor="middle" x="27" y="-343.5" font-family="SegoeUI" font-size="10.00"> </text>
</a>
</g>
</g>
<!-- Node1&#45;&gt;Node0 -->
<g id="edge1" class="edge"><title>Node1&#45;&gt;Node0</title>
<path fill="none" stroke="midnightblue" d="M33.5675,-326.192C34.9566,-318.196 36.5021,-309.299 38.1396,-299.872"/>
<polygon fill="none" stroke="midnightblue" points="30.1003,-325.702 31.8371,-336.154 36.997,-326.901 30.1003,-325.702"/>
</g>
<!-- Node2 -->
<g id="node3" class="node"><title>Node2</title>
<g id="a_node3"><a xlink:href="../../d9/daf/interface_juniper_1_1_progress_1_1_i_progress.html" target="_top" xlink:title="Progress reporting interface for asynchronous operations.">
<polygon fill="white" stroke="black" points="69.5,-336.5 69.5,-393.5 132.5,-393.5 132.5,-336.5 69.5,-336.5"/>
<text text-anchor="middle" x="101" y="-381.5" font-family="SegoeUI" font-size="10.00">IProgress</text>
<polyline fill="none" stroke="black" points="69.5,-374.5 132.5,-374.5 "/>
<text text-anchor="start" x="77.5" y="-362.5" font-family="SegoeUI" font-size="10.00">+ Progress</text>
<polyline fill="none" stroke="black" points="69.5,-355.5 132.5,-355.5 "/>
<text text-anchor="start" x="77.5" y="-343.5" font-family="SegoeUI" font-size="10.00">+ Report()</text>
</a>
</g>
</g>
<!-- Node2&#45;&gt;Node0 -->
<g id="edge2" class="edge"><title>Node2&#45;&gt;Node0</title>
<path fill="none" stroke="midnightblue" d="M94.4325,-326.192C93.0434,-318.196 91.4979,-309.299 89.8604,-299.872"/>
<polygon fill="none" stroke="midnightblue" points="91.003,-326.901 96.1629,-336.154 97.8997,-325.702 91.003,-326.901"/>
</g>
<!-- Node3 -->
<g id="node4" class="node"><title>Node3</title>
<g id="a_node4"><a xlink:title=" ">
<polygon fill="white" stroke="#bfbfbf" points="49.5,-430.5 49.5,-498.5 152.5,-498.5 152.5,-430.5 49.5,-430.5"/>
<text text-anchor="start" x="57.5" y="-486.5" font-family="SegoeUI" font-size="10.00">System::IProgress&lt;</text>
<text text-anchor="middle" x="101" y="-475.5" font-family="SegoeUI" font-size="10.00"> float &gt;</text>
<polyline fill="none" stroke="#bfbfbf" points="49.5,-468.5 152.5,-468.5 "/>
<text text-anchor="middle" x="101" y="-456.5" font-family="SegoeUI" font-size="10.00"> </text>
<polyline fill="none" stroke="#bfbfbf" points="49.5,-449.5 152.5,-449.5 "/>
<text text-anchor="middle" x="101" y="-437.5" font-family="SegoeUI" font-size="10.00"> </text>
</a>
</g>
</g>
<!-- Node3&#45;&gt;Node2 -->
<g id="edge3" class="edge"><title>Node3&#45;&gt;Node2</title>
<path fill="none" stroke="midnightblue" d="M101,-420.454C101,-411.404 101,-402.088 101,-393.777"/>
<polygon fill="none" stroke="midnightblue" points="97.5001,-420.491 101,-430.491 104.5,-420.491 97.5001,-420.491"/>
</g>
</g>
</svg>
