<?xml version="1.0" encoding="UTF-8" standalone="no"?>
<!DOCTYPE svg PUBLIC "-//W3C//DTD SVG 1.1//EN"
 "http://www.w3.org/Graphics/SVG/1.1/DTD/svg11.dtd">
<!-- Generated by graphviz version 2.38.0 (20140413.2041)
 -->
<!-- Title: Juniper.Unity.World.LightEstimation.ARCoreLightMeasurement Pages: 1 -->
<svg width="184pt" height="474pt"
 viewBox="0.00 0.00 183.50 474.00" xmlns="http://www.w3.org/2000/svg" xmlns:xlink="http://www.w3.org/1999/xlink">
<g id="graph0" class="graph" transform="scale(1 1) rotate(0) translate(4 470)">
<title>Juniper.Unity.World.LightEstimation.ARCoreLightMeasurement</title>
<polygon fill="white" stroke="none" points="-4,4 -4,-470 179.5,-470 179.5,4 -4,4"/>
<!-- Node0 -->
<g id="node1" class="node"><title>Node0</title>
<g id="a_node1"><a xlink:title=" ">
<polygon fill="#bfbfbf" stroke="black" points="0.5,-0.5 0.5,-79.5 175.5,-79.5 175.5,-0.5 0.5,-0.5"/>
<text text-anchor="start" x="8.5" y="-67.5" font-family="SegoeUI" font-size="10.00">Juniper.Unity.World.Light</text>
<text text-anchor="middle" x="88" y="-56.5" font-family="SegoeUI" font-size="10.00">Estimation.ARCoreLightMeasurement</text>
<polyline fill="none" stroke="black" points="0.5,-49.5 175.5,-49.5 "/>
<text text-anchor="middle" x="88" y="-37.5" font-family="SegoeUI" font-size="10.00"> </text>
<polyline fill="none" stroke="black" points="0.5,-30.5 175.5,-30.5 "/>
<text text-anchor="start" x="8.5" y="-18.5" font-family="SegoeUI" font-size="10.00">+ Start()</text>
<text text-anchor="start" x="8.5" y="-7.5" font-family="SegoeUI" font-size="10.00"># InternalUpdate()</text>
</a>
</g>
</g>
<!-- Node1 -->
<g id="node2" class="node"><title>Node1</title>
<g id="a_node2"><a xlink:href="../../df/db3/class_juniper_1_1_unity_1_1_world_1_1_light_estimation_1_1_abstract_light_measurement.html" target="_top" xlink:title=" ">
<polygon fill="white" stroke="black" points="22.5,-116.5 22.5,-349.5 153.5,-349.5 153.5,-116.5 22.5,-116.5"/>
<text text-anchor="middle" x="88" y="-337.5" font-family="SegoeUI" font-size="10.00">AbstractLightMeasurement</text>
<polyline fill="none" stroke="black" points="22.5,-330.5 153.5,-330.5 "/>
<text text-anchor="start" x="30.5" y="-318.5" font-family="SegoeUI" font-size="10.00">+ useFake</text>
<text text-anchor="start" x="30.5" y="-307.5" font-family="SegoeUI" font-size="10.00">+ Intensity</text>
<text text-anchor="start" x="30.5" y="-296.5" font-family="SegoeUI" font-size="10.00">+ Color</text>
<text text-anchor="start" x="30.5" y="-285.5" font-family="SegoeUI" font-size="10.00">+ DebugReport</text>
<text text-anchor="start" x="30.5" y="-274.5" font-family="SegoeUI" font-size="10.00">+ UseFakeIntensity</text>
<text text-anchor="start" x="30.5" y="-263.5" font-family="SegoeUI" font-size="10.00">+ ColorEstimate</text>
<text text-anchor="start" x="30.5" y="-252.5" font-family="SegoeUI" font-size="10.00">+ IntensityEstimate</text>
<text text-anchor="start" x="30.5" y="-241.5" font-family="SegoeUI" font-size="10.00"># lastIntensity</text>
<text text-anchor="start" x="30.5" y="-230.5" font-family="SegoeUI" font-size="10.00"># lastColor</text>
<polyline fill="none" stroke="black" points="22.5,-223.5 153.5,-223.5 "/>
<text text-anchor="start" x="30.5" y="-211.5" font-family="SegoeUI" font-size="10.00">+ Awake()</text>
<text text-anchor="start" x="30.5" y="-200.5" font-family="SegoeUI" font-size="10.00">+ Reinstall()</text>
<text text-anchor="start" x="30.5" y="-189.5" font-family="SegoeUI" font-size="10.00">+ Reset()</text>
<text text-anchor="start" x="30.5" y="-178.5" font-family="SegoeUI" font-size="10.00">+ Install()</text>
<text text-anchor="start" x="30.5" y="-167.5" font-family="SegoeUI" font-size="10.00">+ Uninstall()</text>
<text text-anchor="start" x="30.5" y="-156.5" font-family="SegoeUI" font-size="10.00">+ Update()</text>
<text text-anchor="start" x="30.5" y="-145.5" font-family="SegoeUI" font-size="10.00"># UpdateMeasurement()</text>
<text text-anchor="start" x="30.5" y="-134.5" font-family="SegoeUI" font-size="10.00"># PrintDebugReport()</text>
<text text-anchor="start" x="30.5" y="-123.5" font-family="SegoeUI" font-size="10.00">&#45; SetFakeValues()</text>
</a>
</g>
</g>
<!-- Node1&#45;&gt;Node0 -->
<g id="edge1" class="edge"><title>Node1&#45;&gt;Node0</title>
<path fill="none" stroke="midnightblue" d="M88,-106.405C88,-96.8664 88,-87.774 88,-79.5655"/>
<polygon fill="none" stroke="midnightblue" points="84.5001,-106.488 88,-116.488 91.5001,-106.488 84.5001,-106.488"/>
</g>
<!-- Node2 -->
<g id="node3" class="node"><title>Node2</title>
<g id="a_node3"><a xlink:title=" ">
<polygon fill="white" stroke="#bfbfbf" points="0,-397.5 0,-454.5 82,-454.5 82,-397.5 0,-397.5"/>
<text text-anchor="middle" x="41" y="-442.5" font-family="SegoeUI" font-size="10.00">MonoBehaviour</text>
<polyline fill="none" stroke="#bfbfbf" points="0,-435.5 82,-435.5 "/>
<text text-anchor="middle" x="41" y="-423.5" font-family="SegoeUI" font-size="10.00"> </text>
<polyline fill="none" stroke="#bfbfbf" points="0,-416.5 82,-416.5 "/>
<text text-anchor="middle" x="41" y="-404.5" font-family="SegoeUI" font-size="10.00"> </text>
</a>
</g>
</g>
<!-- Node2&#45;&gt;Node1 -->
<g id="edge2" class="edge"><title>Node2&#45;&gt;Node1</title>
<path fill="none" stroke="midnightblue" d="M50.2425,-387.44C53.0028,-376.223 56.1851,-363.29 59.5069,-349.791"/>
<polygon fill="none" stroke="midnightblue" points="46.8251,-386.68 47.8342,-397.227 53.6223,-388.353 46.8251,-386.68"/>
</g>
<!-- Node3 -->
<g id="node4" class="node"><title>Node3</title>
<g id="a_node4"><a xlink:href="../../db/d28/interface_juniper_1_1_i_installable.html" target="_top" xlink:title=" ">
<polygon fill="white" stroke="black" points="100.5,-386.5 100.5,-465.5 169.5,-465.5 169.5,-386.5 100.5,-386.5"/>
<text text-anchor="middle" x="135" y="-453.5" font-family="SegoeUI" font-size="10.00">IInstallable</text>
<polyline fill="none" stroke="black" points="100.5,-446.5 169.5,-446.5 "/>
<text text-anchor="middle" x="135" y="-434.5" font-family="SegoeUI" font-size="10.00"> </text>
<polyline fill="none" stroke="black" points="100.5,-427.5 169.5,-427.5 "/>
<text text-anchor="start" x="108.5" y="-415.5" font-family="SegoeUI" font-size="10.00">+ Install()</text>
<text text-anchor="start" x="108.5" y="-404.5" font-family="SegoeUI" font-size="10.00">+ Reinstall()</text>
<text text-anchor="start" x="108.5" y="-393.5" font-family="SegoeUI" font-size="10.00">+ Uninstall()</text>
</a>
</g>
</g>
<!-- Node3&#45;&gt;Node1 -->
<g id="edge3" class="edge"><title>Node3&#45;&gt;Node1</title>
<path fill="none" stroke="midnightblue" d="M123.048,-376.429C120.977,-368.013 118.747,-358.95 116.451,-349.619"/>
<polygon fill="none" stroke="midnightblue" points="119.701,-377.474 125.489,-386.348 126.498,-375.802 119.701,-377.474"/>
</g>
</g>
</svg>
