<?xml version="1.0" encoding="UTF-8" standalone="no"?>
<!DOCTYPE svg PUBLIC "-//W3C//DTD SVG 1.1//EN"
 "http://www.w3.org/Graphics/SVG/1.1/DTD/svg11.dtd">
<!-- Generated by graphviz version 2.38.0 (20140413.2041)
 -->
<!-- Title: Juniper.Unity.Anchoring.Grounded Pages: 1 -->
<svg width="1201pt" height="1406pt"
 viewBox="0.00 0.00 1201.00 1406.00" xmlns="http://www.w3.org/2000/svg" xmlns:xlink="http://www.w3.org/1999/xlink">
<g id="graph0" class="graph" transform="scale(1 1) rotate(0) translate(4 1402)">
<title>Juniper.Unity.Anchoring.Grounded</title>
<polygon fill="white" stroke="none" points="-4,4 -4,-1402 1197,-1402 1197,4 -4,4"/>
<!-- Node2 -->
<g id="node1" class="node"><title>Node2</title>
<g id="a_node1"><a xlink:title="This component searches for the ground above or below the gameObject it&#39;s attached to....">
<polygon fill="#bfbfbf" stroke="black" points="32,-0.5 32,-211.5 162,-211.5 162,-0.5 32,-0.5"/>
<text text-anchor="start" x="40" y="-199.5" font-family="SegoeUI" font-size="10.00">Juniper.Unity.Anchoring.</text>
<text text-anchor="middle" x="97" y="-188.5" font-family="SegoeUI" font-size="10.00">Grounded</text>
<polyline fill="none" stroke="black" points="32,-181.5 162,-181.5 "/>
<text text-anchor="start" x="40" y="-169.5" font-family="SegoeUI" font-size="10.00">+ testTimeout</text>
<text text-anchor="start" x="40" y="-158.5" font-family="SegoeUI" font-size="10.00">+ horizontalnessThreshold</text>
<text text-anchor="start" x="40" y="-147.5" font-family="SegoeUI" font-size="10.00">&#45; body</text>
<text text-anchor="start" x="40" y="-136.5" font-family="SegoeUI" font-size="10.00">&#45; wasUsingGravity</text>
<text text-anchor="start" x="40" y="-125.5" font-family="SegoeUI" font-size="10.00">&#45; groundPoint</text>
<text text-anchor="start" x="40" y="-114.5" font-family="SegoeUI" font-size="10.00">&#45; q</text>
<text text-anchor="start" x="40" y="-103.5" font-family="SegoeUI" font-size="10.00">&#45; GroundMask</text>
<text text-anchor="start" x="40" y="-92.5" font-family="SegoeUI" font-size="10.00">&#45; lastTime</text>
<polyline fill="none" stroke="black" points="32,-85.5 162,-85.5 "/>
<text text-anchor="start" x="40" y="-73.5" font-family="SegoeUI" font-size="10.00">+ Awake()</text>
<text text-anchor="start" x="40" y="-62.5" font-family="SegoeUI" font-size="10.00">+ Update()</text>
<text text-anchor="start" x="40" y="-51.5" font-family="SegoeUI" font-size="10.00">+ WhenGrounded()</text>
<text text-anchor="start" x="40" y="-40.5" font-family="SegoeUI" font-size="10.00">&#45; Freeze()</text>
<text text-anchor="start" x="40" y="-29.5" font-family="SegoeUI" font-size="10.00">&#45; GetGroundUnderObject()</text>
<text text-anchor="start" x="40" y="-18.5" font-family="SegoeUI" font-size="10.00">&#45; Unfreeze()</text>
<text text-anchor="start" x="40" y="-7.5" font-family="SegoeUI" font-size="10.00">&#45; EmptyJobQueue()</text>
</a>
</g>
</g>
<!-- Node3 -->
<g id="node2" class="node"><title>Node3</title>
<g id="a_node2"><a xlink:title=" ">
<polygon fill="white" stroke="#bfbfbf" points="114,-1340.5 114,-1397.5 196,-1397.5 196,-1340.5 114,-1340.5"/>
<text text-anchor="middle" x="155" y="-1385.5" font-family="SegoeUI" font-size="10.00">MonoBehaviour</text>
<polyline fill="none" stroke="#bfbfbf" points="114,-1378.5 196,-1378.5 "/>
<text text-anchor="middle" x="155" y="-1366.5" font-family="SegoeUI" font-size="10.00"> </text>
<polyline fill="none" stroke="#bfbfbf" points="114,-1359.5 196,-1359.5 "/>
<text text-anchor="middle" x="155" y="-1347.5" font-family="SegoeUI" font-size="10.00"> </text>
</a>
</g>
</g>
<!-- Node3&#45;&gt;Node2 -->
<g id="edge1" class="edge"><title>Node3&#45;&gt;Node2</title>
<path fill="none" stroke="midnightblue" d="M104.173,-1353.59C58.9777,-1337.3 0,-1305.91 0,-1253 0,-1253 0,-1253 0,-347.5 0,-300.903 15.8552,-252.672 34.7452,-211.746"/>
<polygon fill="none" stroke="midnightblue" points="103.275,-1356.99 113.87,-1356.94 105.557,-1350.37 103.275,-1356.99"/>
</g>
<!-- Node4 -->
<g id="node3" class="node"><title>Node4</title>
<g id="a_node3"><a xlink:href="../../dd/db6/class_juniper_1_1_unity_1_1_stage_extensions.html" target="_top" xlink:title=" ">
<polygon fill="white" stroke="black" points="28,-898.5 28,-1120.5 172,-1120.5 172,-898.5 28,-898.5"/>
<text text-anchor="middle" x="100" y="-1108.5" font-family="SegoeUI" font-size="10.00">Juniper.Unity.StageExtensions</text>
<polyline fill="none" stroke="black" points="28,-1101.5 172,-1101.5 "/>
<text text-anchor="start" x="36" y="-1089.5" font-family="SegoeUI" font-size="10.00">+ defaultAvatarHeight</text>
<text text-anchor="start" x="36" y="-1078.5" font-family="SegoeUI" font-size="10.00">+ usePhysicsBasedMovement</text>
<text text-anchor="start" x="36" y="-1067.5" font-family="SegoeUI" font-size="10.00">+ shoes</text>
<text text-anchor="start" x="36" y="-1056.5" font-family="SegoeUI" font-size="10.00">+ BodyPhysics</text>
<text text-anchor="start" x="36" y="-1045.5" font-family="SegoeUI" font-size="10.00">+ useGravity</text>
<text text-anchor="start" x="36" y="-1034.5" font-family="SegoeUI" font-size="10.00">+ Head</text>
<text text-anchor="start" x="36" y="-1023.5" font-family="SegoeUI" font-size="10.00">+ Hands</text>
<text text-anchor="start" x="36" y="-1012.5" font-family="SegoeUI" font-size="10.00">+ Body</text>
<text text-anchor="start" x="36" y="-1001.5" font-family="SegoeUI" font-size="10.00">&#45; BodyShape</text>
<polyline fill="none" stroke="black" points="28,-994.5 172,-994.5 "/>
<text text-anchor="start" x="36" y="-982.5" font-family="SegoeUI" font-size="10.00">+ Awake()</text>
<text text-anchor="start" x="36" y="-971.5" font-family="SegoeUI" font-size="10.00">+ Reinstall()</text>
<text text-anchor="start" x="36" y="-960.5" font-family="SegoeUI" font-size="10.00">+ Install()</text>
<text text-anchor="start" x="36" y="-949.5" font-family="SegoeUI" font-size="10.00">+ Uninstall()</text>
<text text-anchor="start" x="36" y="-938.5" font-family="SegoeUI" font-size="10.00">+ RotateView()</text>
<text text-anchor="start" x="36" y="-927.5" font-family="SegoeUI" font-size="10.00">+ SetVelocity()</text>
<text text-anchor="start" x="36" y="-916.5" font-family="SegoeUI" font-size="10.00">+ FixedUpdate()</text>
<text text-anchor="start" x="36" y="-905.5" font-family="SegoeUI" font-size="10.00">&#45; MakeShadowCaster()</text>
</a>
</g>
</g>
<!-- Node3&#45;&gt;Node4 -->
<g id="edge3" class="edge"><title>Node3&#45;&gt;Node4</title>
<path fill="none" stroke="midnightblue" d="M105.274,-1342.19C90.8941,-1332.05 76.9465,-1318.97 69,-1303 41.1851,-1247.11 47.005,-1177.9 60.6787,-1120.83"/>
<polygon fill="none" stroke="midnightblue" points="103.481,-1345.2 113.748,-1347.82 107.354,-1339.37 103.481,-1345.2"/>
</g>
<!-- Node9 -->
<g id="node8" class="node"><title>Node9</title>
<g id="a_node8"><a xlink:href="../../dc/dad/class_juniper_1_1_unity_1_1_widgets_1_1_abstract_touchable.html" target="_top" xlink:title="The base class for all interactive, AR&#45;compatible, GUI controls /// This class is abstract to avoid i...">
<polygon fill="white" stroke="black" points="384,-887.5 384,-1131.5 510,-1131.5 510,-887.5 384,-887.5"/>
<text text-anchor="middle" x="447" y="-1119.5" font-family="SegoeUI" font-size="10.00">AbstractTouchable</text>
<polyline fill="none" stroke="black" points="384,-1112.5 510,-1112.5 "/>
<text text-anchor="start" x="392" y="-1100.5" font-family="SegoeUI" font-size="10.00">+ disabled</text>
<text text-anchor="start" x="392" y="-1089.5" font-family="SegoeUI" font-size="10.00">+ DisabledChanged</text>
<text text-anchor="start" x="392" y="-1078.5" font-family="SegoeUI" font-size="10.00">+ DisabledDown</text>
<text text-anchor="start" x="392" y="-1067.5" font-family="SegoeUI" font-size="10.00">+ DisabledUp</text>
<text text-anchor="start" x="392" y="-1056.5" font-family="SegoeUI" font-size="10.00">+ IsDisabled</text>
<text text-anchor="start" x="392" y="-1045.5" font-family="SegoeUI" font-size="10.00">+ PointerPositionChanged</text>
<text text-anchor="start" x="392" y="-1034.5" font-family="SegoeUI" font-size="10.00">&#45; wasDisabled</text>
<polyline fill="none" stroke="black" points="384,-1027.5 510,-1027.5 "/>
<text text-anchor="start" x="392" y="-1015.5" font-family="SegoeUI" font-size="10.00">+ SetDisabled()</text>
<text text-anchor="start" x="392" y="-1004.5" font-family="SegoeUI" font-size="10.00">+ ToggleEnabled()</text>
<text text-anchor="start" x="392" y="-993.5" font-family="SegoeUI" font-size="10.00">+ OnPointerEnter()</text>
<text text-anchor="start" x="392" y="-982.5" font-family="SegoeUI" font-size="10.00">+ OnPointerExit()</text>
<text text-anchor="start" x="392" y="-971.5" font-family="SegoeUI" font-size="10.00">+ OnPointerDown()</text>
<text text-anchor="start" x="392" y="-960.5" font-family="SegoeUI" font-size="10.00">+ OnPointerUp()</text>
<text text-anchor="start" x="392" y="-949.5" font-family="SegoeUI" font-size="10.00"># Awake()</text>
<text text-anchor="start" x="392" y="-938.5" font-family="SegoeUI" font-size="10.00"># Update()</text>
<text text-anchor="start" x="392" y="-927.5" font-family="SegoeUI" font-size="10.00"># LateUpdate()</text>
<text text-anchor="start" x="392" y="-916.5" font-family="SegoeUI" font-size="10.00"># ShowState()</text>
<text text-anchor="start" x="392" y="-905.5" font-family="SegoeUI" font-size="10.00"># GetPosition()</text>
<text text-anchor="start" x="392" y="-894.5" font-family="SegoeUI" font-size="10.00">&#45; NormalizePart()</text>
</a>
</g>
</g>
<!-- Node3&#45;&gt;Node9 -->
<g id="edge9" class="edge"><title>Node3&#45;&gt;Node9</title>
<path fill="none" stroke="midnightblue" d="M204.725,-1338.4C218.226,-1328.5 231.891,-1316.5 242,-1303 271.002,-1264.28 244.22,-1233.56 280,-1201 302.805,-1180.25 322.528,-1201.76 347,-1183 357.852,-1174.68 371.53,-1155.07 385.255,-1131.93"/>
<polygon fill="none" stroke="midnightblue" points="202.529,-1335.66 196.372,-1344.29 206.562,-1341.38 202.529,-1335.66"/>
</g>
<!-- Node14 -->
<g id="node13" class="node"><title>Node14</title>
<g id="a_node13"><a xlink:href="../../dd/d2d/class_juniper_1_1_unity_1_1_animation_1_1_abstract_animator.html" target="_top" xlink:title="An abstraction layer over different ways of showing UI state. Only one such component is allowed on a...">
<polygon fill="white" stroke="black" points="767,-1201.5 767,-1302.5 887,-1302.5 887,-1201.5 767,-1201.5"/>
<text text-anchor="start" x="775" y="-1290.5" font-family="SegoeUI" font-size="10.00">Juniper.Unity.Animation.</text>
<text text-anchor="middle" x="827" y="-1279.5" font-family="SegoeUI" font-size="10.00">AbstractAnimator</text>
<polyline fill="none" stroke="black" points="767,-1272.5 887,-1272.5 "/>
<text text-anchor="middle" x="827" y="-1260.5" font-family="SegoeUI" font-size="10.00"> </text>
<polyline fill="none" stroke="black" points="767,-1253.5 887,-1253.5 "/>
<text text-anchor="start" x="775" y="-1241.5" font-family="SegoeUI" font-size="10.00">+ PlayCoroutine()</text>
<text text-anchor="start" x="775" y="-1230.5" font-family="SegoeUI" font-size="10.00">+ Play()</text>
<text text-anchor="start" x="775" y="-1219.5" font-family="SegoeUI" font-size="10.00">+ HasState()</text>
<text text-anchor="start" x="775" y="-1208.5" font-family="SegoeUI" font-size="10.00">+ GetAnimator()</text>
</a>
</g>
</g>
<!-- Node3&#45;&gt;Node14 -->
<g id="edge15" class="edge"><title>Node3&#45;&gt;Node14</title>
<path fill="none" stroke="midnightblue" d="M206.643,-1365.84C333.549,-1359.99 657.634,-1341.61 758,-1303 760.9,-1301.88 763.788,-1300.62 766.647,-1299.23"/>
<polygon fill="none" stroke="midnightblue" points="206.247,-1362.35 196.416,-1366.3 206.565,-1369.35 206.247,-1362.35"/>
</g>
<!-- Node4&#45;&gt;Node2 -->
<g id="edge2" class="edge"><title>Node4&#45;&gt;Node2</title>
<path fill="none" stroke="#404040" d="M99.6336,-898.409C99.064,-727.23 97.9709,-398.769 97.3882,-223.661"/>
<polygon fill="none" stroke="#404040" points="97.3881,-223.579 93.3681,-217.593 97.348,-211.579 101.368,-217.566 97.3881,-223.579"/>
<text text-anchor="middle" x="114.5" y="-459" font-family="SegoeUI" font-size="10.00"> &#45;stage</text>
</g>
<!-- Node5 -->
<g id="node4" class="node"><title>Node5</title>
<g id="a_node4"><a xlink:href="../../db/d28/interface_juniper_1_1_i_installable.html" target="_top" xlink:title="Defines an interface for objects that can be installed and have their installation progress tracked.">
<polygon fill="white" stroke="black" points="78.5,-1212.5 78.5,-1291.5 147.5,-1291.5 147.5,-1212.5 78.5,-1212.5"/>
<text text-anchor="middle" x="113" y="-1279.5" font-family="SegoeUI" font-size="10.00">IInstallable</text>
<polyline fill="none" stroke="black" points="78.5,-1272.5 147.5,-1272.5 "/>
<text text-anchor="middle" x="113" y="-1260.5" font-family="SegoeUI" font-size="10.00"> </text>
<polyline fill="none" stroke="black" points="78.5,-1253.5 147.5,-1253.5 "/>
<text text-anchor="start" x="86.5" y="-1241.5" font-family="SegoeUI" font-size="10.00">+ Install()</text>
<text text-anchor="start" x="86.5" y="-1230.5" font-family="SegoeUI" font-size="10.00">+ Reinstall()</text>
<text text-anchor="start" x="86.5" y="-1219.5" font-family="SegoeUI" font-size="10.00">+ Uninstall()</text>
</a>
</g>
</g>
<!-- Node5&#45;&gt;Node4 -->
<g id="edge4" class="edge"><title>Node5&#45;&gt;Node4</title>
<path fill="none" stroke="midnightblue" d="M110.367,-1202.28C109.091,-1178.69 107.504,-1149.32 105.957,-1120.71"/>
<polygon fill="none" stroke="midnightblue" points="106.877,-1202.56 110.911,-1212.36 113.866,-1202.19 106.877,-1202.56"/>
</g>
<!-- Node6 -->
<g id="node5" class="node"><title>Node6</title>
<g id="a_node5"><a xlink:title=" ">
<polygon fill="white" stroke="#bfbfbf" points="167,-1223.5 167,-1280.5 233,-1280.5 233,-1223.5 167,-1223.5"/>
<text text-anchor="middle" x="200" y="-1268.5" font-family="SegoeUI" font-size="10.00">UnityEngine</text>
<polyline fill="none" stroke="#bfbfbf" points="167,-1261.5 233,-1261.5 "/>
<text text-anchor="middle" x="200" y="-1249.5" font-family="SegoeUI" font-size="10.00"> </text>
<polyline fill="none" stroke="#bfbfbf" points="167,-1242.5 233,-1242.5 "/>
<text text-anchor="middle" x="200" y="-1230.5" font-family="SegoeUI" font-size="10.00"> </text>
</a>
</g>
</g>
<!-- Node6&#45;&gt;Node4 -->
<g id="edge5" class="edge"><title>Node6&#45;&gt;Node4</title>
<path fill="none" stroke="#404040" d="M174.322,-1223.26C164.603,-1211.55 154.168,-1197.32 147,-1183 139.023,-1167.06 132.26,-1149.59 126.567,-1132.09"/>
<polygon fill="none" stroke="#404040" points="126.555,-1132.04 120.949,-1127.51 122.979,-1120.59 128.585,-1125.13 126.555,-1132.04"/>
<text text-anchor="middle" x="166.5" y="-1164" font-family="SegoeUI" font-size="10.00"> &#45;velocity</text>
</g>
<!-- Node7 -->
<g id="node6" class="node"><title>Node7</title>
<g id="a_node6"><a xlink:href="../../dc/da5/class_juniper_1_1_unity_1_1_widgets_1_1_draggable.html" target="_top" xlink:title="An object that can be picked up and put down in a new location.">
<polygon fill="white" stroke="black" points="125.5,-259.5 125.5,-437.5 280.5,-437.5 280.5,-259.5 125.5,-259.5"/>
<text text-anchor="middle" x="203" y="-425.5" font-family="SegoeUI" font-size="10.00">Juniper.Unity.Widgets.Draggable</text>
<polyline fill="none" stroke="black" points="125.5,-418.5 280.5,-418.5 "/>
<text text-anchor="start" x="133.5" y="-406.5" font-family="SegoeUI" font-size="10.00">+ constrainMotion</text>
<text text-anchor="start" x="133.5" y="-395.5" font-family="SegoeUI" font-size="10.00">+ rotateWhileDragging</text>
<text text-anchor="start" x="133.5" y="-384.5" font-family="SegoeUI" font-size="10.00">+ TrackStart</text>
<text text-anchor="start" x="133.5" y="-373.5" font-family="SegoeUI" font-size="10.00">+ TrackEnd</text>
<text text-anchor="start" x="133.5" y="-362.5" font-family="SegoeUI" font-size="10.00">&#45; MotionConstraintStartName</text>
<text text-anchor="start" x="133.5" y="-351.5" font-family="SegoeUI" font-size="10.00">&#45; MotionConstraintEndName</text>
<text text-anchor="start" x="133.5" y="-340.5" font-family="SegoeUI" font-size="10.00">&#45; motionConstraintStart</text>
<text text-anchor="start" x="133.5" y="-329.5" font-family="SegoeUI" font-size="10.00">&#45; motionConstraintEnd</text>
<polyline fill="none" stroke="black" points="125.5,-322.5 280.5,-322.5 "/>
<text text-anchor="start" x="133.5" y="-310.5" font-family="SegoeUI" font-size="10.00">+ OnValidate()</text>
<text text-anchor="start" x="133.5" y="-299.5" font-family="SegoeUI" font-size="10.00">+ OnDrag()</text>
<text text-anchor="start" x="133.5" y="-288.5" font-family="SegoeUI" font-size="10.00"># LateUpdate()</text>
<text text-anchor="start" x="133.5" y="-277.5" font-family="SegoeUI" font-size="10.00">&#45; ResolveConstraint()</text>
<text text-anchor="start" x="133.5" y="-266.5" font-family="SegoeUI" font-size="10.00">&#45; DestroyConstraint()</text>
</a>
</g>
</g>
<!-- Node6&#45;&gt;Node7 -->
<g id="edge26" class="edge"><title>Node6&#45;&gt;Node7</title>
<path fill="none" stroke="#404040" d="M200.093,-1223.03C200.482,-1106.17 201.988,-653.575 202.666,-449.863"/>
<polygon fill="none" stroke="#404040" points="202.666,-449.695 198.687,-443.682 202.707,-437.695 206.686,-443.709 202.666,-449.695"/>
<text text-anchor="middle" x="239.5" y="-861" font-family="SegoeUI" font-size="10.00"> &#45;lastCamPosition</text>
</g>
<!-- Node8 -->
<g id="node7" class="node"><title>Node8</title>
<g id="a_node7"><a xlink:href="../../d2/d57/class_juniper_1_1_unity_1_1_widgets_1_1_abstract_valued.html" target="_top" xlink:title="The Valued component adds a float field and range of valid values for that field to a Touchable objec...">
<polygon fill="white" stroke="black" points="637.5,-485.5 637.5,-839.5 774.5,-839.5 774.5,-485.5 637.5,-485.5"/>
<text text-anchor="middle" x="706" y="-827.5" font-family="SegoeUI" font-size="10.00">AbstractValued</text>
<polyline fill="none" stroke="black" points="637.5,-820.5 774.5,-820.5 "/>
<text text-anchor="start" x="645.5" y="-808.5" font-family="SegoeUI" font-size="10.00">+ Display</text>
<text text-anchor="start" x="645.5" y="-797.5" font-family="SegoeUI" font-size="10.00">+ SigFigs</text>
<text text-anchor="start" x="645.5" y="-786.5" font-family="SegoeUI" font-size="10.00">+ minValue</text>
<text text-anchor="start" x="645.5" y="-775.5" font-family="SegoeUI" font-size="10.00">+ maxValue</text>
<text text-anchor="start" x="645.5" y="-764.5" font-family="SegoeUI" font-size="10.00">+ _value</text>
<text text-anchor="start" x="645.5" y="-753.5" font-family="SegoeUI" font-size="10.00">+ Dragged</text>
<text text-anchor="start" x="645.5" y="-742.5" font-family="SegoeUI" font-size="10.00">+ value</text>
<text text-anchor="start" x="645.5" y="-731.5" font-family="SegoeUI" font-size="10.00">+ Delta</text>
<text text-anchor="start" x="645.5" y="-720.5" font-family="SegoeUI" font-size="10.00">+ DraggedChanged</text>
<text text-anchor="start" x="645.5" y="-709.5" font-family="SegoeUI" font-size="10.00">+ DraggedDown</text>
<text text-anchor="start" x="645.5" y="-698.5" font-family="SegoeUI" font-size="10.00">+ DraggedUp</text>
<text text-anchor="start" x="645.5" y="-687.5" font-family="SegoeUI" font-size="10.00">+ ValueChanged</text>
<text text-anchor="start" x="645.5" y="-676.5" font-family="SegoeUI" font-size="10.00">+ ConstraintRange</text>
<text text-anchor="start" x="645.5" y="-665.5" font-family="SegoeUI" font-size="10.00"># dragDistance</text>
<text text-anchor="start" x="645.5" y="-654.5" font-family="SegoeUI" font-size="10.00"># camT</text>
<text text-anchor="start" x="645.5" y="-643.5" font-family="SegoeUI" font-size="10.00"># internalValue</text>
<text text-anchor="start" x="645.5" y="-632.5" font-family="SegoeUI" font-size="10.00">&#45; wasDragged</text>
<text text-anchor="start" x="645.5" y="-621.5" font-family="SegoeUI" font-size="10.00">&#45; lastValue</text>
<text text-anchor="start" x="645.5" y="-610.5" font-family="SegoeUI" font-size="10.00">&#45; lastTickValue</text>
<polyline fill="none" stroke="black" points="637.5,-603.5 774.5,-603.5 "/>
<text text-anchor="start" x="645.5" y="-591.5" font-family="SegoeUI" font-size="10.00">+ SetValue()</text>
<text text-anchor="start" x="645.5" y="-580.5" font-family="SegoeUI" font-size="10.00">+ OnInitializePotentialDrag()</text>
<text text-anchor="start" x="645.5" y="-569.5" font-family="SegoeUI" font-size="10.00">+ OnBeginDrag()</text>
<text text-anchor="start" x="645.5" y="-558.5" font-family="SegoeUI" font-size="10.00">+ OnDrag()</text>
<text text-anchor="start" x="645.5" y="-547.5" font-family="SegoeUI" font-size="10.00">+ OnDrop()</text>
<text text-anchor="start" x="645.5" y="-536.5" font-family="SegoeUI" font-size="10.00">+ OnEndDrag()</text>
<text text-anchor="start" x="645.5" y="-525.5" font-family="SegoeUI" font-size="10.00"># Awake()</text>
<text text-anchor="start" x="645.5" y="-514.5" font-family="SegoeUI" font-size="10.00"># LateUpdate()</text>
<text text-anchor="start" x="645.5" y="-503.5" font-family="SegoeUI" font-size="10.00"># UpdateInternalValue()</text>
<text text-anchor="start" x="645.5" y="-492.5" font-family="SegoeUI" font-size="10.00"># ResetInternalValue()</text>
</a>
</g>
</g>
<!-- Node6&#45;&gt;Node8 -->
<g id="edge25" class="edge"><title>Node6&#45;&gt;Node8</title>
<path fill="none" stroke="#404040" d="M204.476,-1223.32C217.124,-1147.86 254.95,-940.564 297,-887 381.453,-779.423 532.677,-716.472 625.688,-686.114"/>
<polygon fill="none" stroke="#404040" points="625.865,-686.057 630.359,-680.417 637.293,-682.396 632.799,-688.036 625.865,-686.057"/>
<text text-anchor="middle" x="336" y="-1029" font-family="SegoeUI" font-size="10.00"> #interactionPoint</text>
<text text-anchor="middle" x="336" y="-1018" font-family="SegoeUI" font-size="10.00">#interactionOffset</text>
<text text-anchor="middle" x="336" y="-1007" font-family="SegoeUI" font-size="10.00">#angVel</text>
<text text-anchor="middle" x="336" y="-996" font-family="SegoeUI" font-size="10.00">#grabOffset</text>
<text text-anchor="middle" x="336" y="-985" font-family="SegoeUI" font-size="10.00">#velocity</text>
</g>
<!-- Node6&#45;&gt;Node9 -->
<g id="edge16" class="edge"><title>Node6&#45;&gt;Node9</title>
<path fill="none" stroke="#404040" d="M214.634,-1223.4C229.807,-1195.21 252.241,-1154.91 259,-1150 289.548,-1127.83 309.544,-1151.27 342,-1132 353.773,-1125.01 364.894,-1116.23 375.179,-1106.6"/>
<polygon fill="none" stroke="#404040" points="375.432,-1106.35 376.913,-1099.3 383.997,-1097.95 382.516,-1105.01 375.432,-1106.35"/>
<text text-anchor="middle" x="303" y="-1175" font-family="SegoeUI" font-size="10.00"> #lastPointerPosition</text>
<text text-anchor="middle" x="303" y="-1164" font-family="SegoeUI" font-size="10.00">+pointerPosition</text>
<text text-anchor="middle" x="303" y="-1153" font-family="SegoeUI" font-size="10.00">+clickButton</text>
</g>
<!-- Node7&#45;&gt;Node2 -->
<g id="edge6" class="edge"><title>Node7&#45;&gt;Node2</title>
<path fill="none" stroke="#404040" d="M164.131,-259.312C158.929,-247.509 153.531,-235.261 148.158,-223.07"/>
<polygon fill="none" stroke="#404040" points="148.076,-222.885 141.996,-219.008 143.237,-211.905 149.317,-215.782 148.076,-222.885"/>
<text text-anchor="middle" x="174.5" y="-233" font-family="SegoeUI" font-size="10.00"> &#45;dragger</text>
</g>
<!-- Node8&#45;&gt;Node7 -->
<g id="edge7" class="edge"><title>Node8&#45;&gt;Node7</title>
<path fill="none" stroke="midnightblue" d="M628.721,-613.565C534.236,-554.959 375.256,-456.347 280.618,-397.645"/>
<polygon fill="none" stroke="midnightblue" points="627.034,-616.638 637.377,-618.935 630.724,-610.689 627.034,-616.638"/>
</g>
<!-- Node9&#45;&gt;Node8 -->
<g id="edge8" class="edge"><title>Node9&#45;&gt;Node8</title>
<path fill="none" stroke="midnightblue" d="M515.935,-891.378C516.956,-889.905 517.978,-888.445 519,-887 555.384,-835.584 600.607,-781.317 637.467,-739.132"/>
<polygon fill="none" stroke="midnightblue" points="512.838,-889.707 510.107,-899.944 518.626,-893.645 512.838,-889.707"/>
</g>
<!-- Node10 -->
<g id="node9" class="node"><title>Node10</title>
<g id="a_node9"><a xlink:title=" ">
<polygon fill="white" stroke="#bfbfbf" points="289.5,-1223.5 289.5,-1280.5 394.5,-1280.5 394.5,-1223.5 289.5,-1223.5"/>
<text text-anchor="middle" x="342" y="-1268.5" font-family="SegoeUI" font-size="10.00">IPointerEnterHandler</text>
<polyline fill="none" stroke="#bfbfbf" points="289.5,-1261.5 394.5,-1261.5 "/>
<text text-anchor="middle" x="342" y="-1249.5" font-family="SegoeUI" font-size="10.00"> </text>
<polyline fill="none" stroke="#bfbfbf" points="289.5,-1242.5 394.5,-1242.5 "/>
<text text-anchor="middle" x="342" y="-1230.5" font-family="SegoeUI" font-size="10.00"> </text>
</a>
</g>
</g>
<!-- Node10&#45;&gt;Node9 -->
<g id="edge10" class="edge"><title>Node10&#45;&gt;Node9</title>
<path fill="none" stroke="midnightblue" d="M358.404,-1213.92C362.828,-1203.89 367.606,-1193.03 372,-1183 379.271,-1166.4 386.915,-1148.89 394.427,-1131.64"/>
<polygon fill="none" stroke="midnightblue" points="355.131,-1212.66 354.294,-1223.22 361.535,-1215.49 355.131,-1212.66"/>
</g>
<!-- Node11 -->
<g id="node10" class="node"><title>Node11</title>
<g id="a_node10"><a xlink:title=" ">
<polygon fill="white" stroke="#bfbfbf" points="413,-1223.5 413,-1280.5 511,-1280.5 511,-1223.5 413,-1223.5"/>
<text text-anchor="middle" x="462" y="-1268.5" font-family="SegoeUI" font-size="10.00">IPointerExitHandler</text>
<polyline fill="none" stroke="#bfbfbf" points="413,-1261.5 511,-1261.5 "/>
<text text-anchor="middle" x="462" y="-1249.5" font-family="SegoeUI" font-size="10.00"> </text>
<polyline fill="none" stroke="#bfbfbf" points="413,-1242.5 511,-1242.5 "/>
<text text-anchor="middle" x="462" y="-1230.5" font-family="SegoeUI" font-size="10.00"> </text>
</a>
</g>
</g>
<!-- Node11&#45;&gt;Node9 -->
<g id="edge11" class="edge"><title>Node11&#45;&gt;Node9</title>
<path fill="none" stroke="midnightblue" d="M459.654,-1213.39C458.262,-1191.06 456.41,-1161.38 454.554,-1131.62"/>
<polygon fill="none" stroke="midnightblue" points="456.164,-1213.65 460.279,-1223.41 463.15,-1213.21 456.164,-1213.65"/>
</g>
<!-- Node12 -->
<g id="node11" class="node"><title>Node12</title>
<g id="a_node11"><a xlink:title=" ">
<polygon fill="white" stroke="#bfbfbf" points="529.5,-1223.5 529.5,-1280.5 636.5,-1280.5 636.5,-1223.5 529.5,-1223.5"/>
<text text-anchor="middle" x="583" y="-1268.5" font-family="SegoeUI" font-size="10.00">IPointerDownHandler</text>
<polyline fill="none" stroke="#bfbfbf" points="529.5,-1261.5 636.5,-1261.5 "/>
<text text-anchor="middle" x="583" y="-1249.5" font-family="SegoeUI" font-size="10.00"> </text>
<polyline fill="none" stroke="#bfbfbf" points="529.5,-1242.5 636.5,-1242.5 "/>
<text text-anchor="middle" x="583" y="-1230.5" font-family="SegoeUI" font-size="10.00"> </text>
</a>
</g>
</g>
<!-- Node12&#45;&gt;Node9 -->
<g id="edge12" class="edge"><title>Node12&#45;&gt;Node9</title>
<path fill="none" stroke="midnightblue" d="M562.302,-1214.4C548.291,-1189.62 528.972,-1155.46 510.151,-1122.17"/>
<polygon fill="none" stroke="midnightblue" points="559.43,-1216.43 567.399,-1223.41 565.523,-1212.98 559.43,-1216.43"/>
</g>
<!-- Node13 -->
<g id="node12" class="node"><title>Node13</title>
<g id="a_node12"><a xlink:title=" ">
<polygon fill="white" stroke="#bfbfbf" points="655,-1223.5 655,-1280.5 749,-1280.5 749,-1223.5 655,-1223.5"/>
<text text-anchor="middle" x="702" y="-1268.5" font-family="SegoeUI" font-size="10.00">IPointerUpHandler</text>
<polyline fill="none" stroke="#bfbfbf" points="655,-1261.5 749,-1261.5 "/>
<text text-anchor="middle" x="702" y="-1249.5" font-family="SegoeUI" font-size="10.00"> </text>
<polyline fill="none" stroke="#bfbfbf" points="655,-1242.5 749,-1242.5 "/>
<text text-anchor="middle" x="702" y="-1230.5" font-family="SegoeUI" font-size="10.00"> </text>
</a>
</g>
</g>
<!-- Node13&#45;&gt;Node9 -->
<g id="edge13" class="edge"><title>Node13&#45;&gt;Node9</title>
<path fill="none" stroke="midnightblue" d="M664.892,-1216.41C658.451,-1211 651.673,-1205.67 645,-1201 638.461,-1196.42 524.738,-1137.55 519,-1132 515.915,-1129.02 512.915,-1125.88 510.003,-1122.61"/>
<polygon fill="none" stroke="midnightblue" points="662.975,-1219.37 672.838,-1223.24 667.541,-1214.07 662.975,-1219.37"/>
</g>
<!-- Node14&#45;&gt;Node9 -->
<g id="edge14" class="edge"><title>Node14&#45;&gt;Node9</title>
<path fill="none" stroke="#404040" d="M766.732,-1205.7C763.827,-1204.04 760.909,-1202.46 758,-1201 690.157,-1166.95 668.2,-1170.09 595,-1150 564.795,-1141.71 549.987,-1150.47 520.325,-1131.83"/>
<polygon fill="none" stroke="#404040" points="519.993,-1131.6 512.783,-1131.46 510.134,-1124.76 517.344,-1124.89 519.993,-1131.6"/>
<text text-anchor="middle" x="739" y="-1164" font-family="SegoeUI" font-size="10.00"> &#45;animator</text>
</g>
<!-- Node15 -->
<g id="node14" class="node"><title>Node15</title>
<g id="a_node14"><a xlink:title=" ">
<polygon fill="white" stroke="#bfbfbf" points="905.5,-1223.5 905.5,-1280.5 944.5,-1280.5 944.5,-1223.5 905.5,-1223.5"/>
<text text-anchor="middle" x="925" y="-1268.5" font-family="SegoeUI" font-size="10.00">static</text>
<polyline fill="none" stroke="#bfbfbf" points="905.5,-1261.5 944.5,-1261.5 "/>
<text text-anchor="middle" x="925" y="-1249.5" font-family="SegoeUI" font-size="10.00"> </text>
<polyline fill="none" stroke="#bfbfbf" points="905.5,-1242.5 944.5,-1242.5 "/>
<text text-anchor="middle" x="925" y="-1230.5" font-family="SegoeUI" font-size="10.00"> </text>
</a>
</g>
</g>
<!-- Node15&#45;&gt;Node9 -->
<g id="edge17" class="edge"><title>Node15&#45;&gt;Node9</title>
<path fill="none" stroke="#404040" d="M913.312,-1223.4C908.843,-1215.34 903.08,-1207.08 896,-1201 848.914,-1160.57 826.524,-1163.74 766,-1150 715.477,-1138.53 582.648,-1158.37 520.924,-1131.47"/>
<polygon fill="none" stroke="#404040" points="520.892,-1131.45 513.721,-1132.21 510.263,-1125.88 517.434,-1125.12 520.892,-1131.45"/>
<text text-anchor="middle" x="905.5" y="-1164" font-family="SegoeUI" font-size="10.00"> +PART_NAMES</text>
</g>
<!-- Node16 -->
<g id="node15" class="node"><title>Node16</title>
<g id="a_node15"><a xlink:title=" ">
<polygon fill="white" stroke="#bfbfbf" points="528,-975.5 528,-1043.5 640,-1043.5 640,-975.5 528,-975.5"/>
<text text-anchor="start" x="536" y="-1031.5" font-family="SegoeUI" font-size="10.00">IInitializePotentialDrag</text>
<text text-anchor="middle" x="584" y="-1020.5" font-family="SegoeUI" font-size="10.00">Handler</text>
<polyline fill="none" stroke="#bfbfbf" points="528,-1013.5 640,-1013.5 "/>
<text text-anchor="middle" x="584" y="-1001.5" font-family="SegoeUI" font-size="10.00"> </text>
<polyline fill="none" stroke="#bfbfbf" points="528,-994.5 640,-994.5 "/>
<text text-anchor="middle" x="584" y="-982.5" font-family="SegoeUI" font-size="10.00"> </text>
</a>
</g>
</g>
<!-- Node16&#45;&gt;Node8 -->
<g id="edge18" class="edge"><title>Node16&#45;&gt;Node8</title>
<path fill="none" stroke="midnightblue" d="M599.077,-965.865C610.511,-933.531 627.056,-886.743 643.728,-839.597"/>
<polygon fill="none" stroke="midnightblue" points="595.732,-964.825 595.698,-975.42 602.332,-967.159 595.732,-964.825"/>
</g>
<!-- Node17 -->
<g id="node16" class="node"><title>Node17</title>
<g id="a_node16"><a xlink:title=" ">
<polygon fill="white" stroke="#bfbfbf" points="658,-981 658,-1038 754,-1038 754,-981 658,-981"/>
<text text-anchor="middle" x="706" y="-1026" font-family="SegoeUI" font-size="10.00">IBeginDragHandler</text>
<polyline fill="none" stroke="#bfbfbf" points="658,-1019 754,-1019 "/>
<text text-anchor="middle" x="706" y="-1007" font-family="SegoeUI" font-size="10.00"> </text>
<polyline fill="none" stroke="#bfbfbf" points="658,-1000 754,-1000 "/>
<text text-anchor="middle" x="706" y="-988" font-family="SegoeUI" font-size="10.00"> </text>
</a>
</g>
</g>
<!-- Node17&#45;&gt;Node8 -->
<g id="edge19" class="edge"><title>Node17&#45;&gt;Node8</title>
<path fill="none" stroke="midnightblue" d="M706,-970.545C706,-938.208 706,-889.251 706,-839.872"/>
<polygon fill="none" stroke="midnightblue" points="702.5,-970.85 706,-980.85 709.5,-970.85 702.5,-970.85"/>
</g>
<!-- Node18 -->
<g id="node17" class="node"><title>Node18</title>
<g id="a_node17"><a xlink:title=" ">
<polygon fill="white" stroke="#bfbfbf" points="772.5,-981 772.5,-1038 845.5,-1038 845.5,-981 772.5,-981"/>
<text text-anchor="middle" x="809" y="-1026" font-family="SegoeUI" font-size="10.00">IDragHandler</text>
<polyline fill="none" stroke="#bfbfbf" points="772.5,-1019 845.5,-1019 "/>
<text text-anchor="middle" x="809" y="-1007" font-family="SegoeUI" font-size="10.00"> </text>
<polyline fill="none" stroke="#bfbfbf" points="772.5,-1000 845.5,-1000 "/>
<text text-anchor="middle" x="809" y="-988" font-family="SegoeUI" font-size="10.00"> </text>
</a>
</g>
</g>
<!-- Node18&#45;&gt;Node8 -->
<g id="edge20" class="edge"><title>Node18&#45;&gt;Node8</title>
<path fill="none" stroke="midnightblue" d="M797.794,-970.965C788.141,-938.633 773.462,-889.466 758.656,-839.872"/>
<polygon fill="none" stroke="midnightblue" points="794.531,-972.27 800.745,-980.85 801.238,-970.267 794.531,-972.27"/>
</g>
<!-- Node19 -->
<g id="node18" class="node"><title>Node19</title>
<g id="a_node18"><a xlink:title=" ">
<polygon fill="white" stroke="#bfbfbf" points="863.5,-981 863.5,-1038 952.5,-1038 952.5,-981 863.5,-981"/>
<text text-anchor="middle" x="908" y="-1026" font-family="SegoeUI" font-size="10.00">IEndDragHandler</text>
<polyline fill="none" stroke="#bfbfbf" points="863.5,-1019 952.5,-1019 "/>
<text text-anchor="middle" x="908" y="-1007" font-family="SegoeUI" font-size="10.00"> </text>
<polyline fill="none" stroke="#bfbfbf" points="863.5,-1000 952.5,-1000 "/>
<text text-anchor="middle" x="908" y="-988" font-family="SegoeUI" font-size="10.00"> </text>
</a>
</g>
</g>
<!-- Node19&#45;&gt;Node8 -->
<g id="edge21" class="edge"><title>Node19&#45;&gt;Node8</title>
<path fill="none" stroke="midnightblue" d="M893.467,-971.558C883.381,-947.074 869.089,-914.517 854,-887 830.338,-843.847 800.97,-798.208 774.648,-759.5"/>
<polygon fill="none" stroke="midnightblue" points="890.239,-972.91 897.253,-980.85 896.721,-970.269 890.239,-972.91"/>
</g>
<!-- Node20 -->
<g id="node19" class="node"><title>Node20</title>
<g id="a_node19"><a xlink:title=" ">
<polygon fill="white" stroke="#bfbfbf" points="970.5,-981 970.5,-1038 1043.5,-1038 1043.5,-981 970.5,-981"/>
<text text-anchor="middle" x="1007" y="-1026" font-family="SegoeUI" font-size="10.00">IDropHandler</text>
<polyline fill="none" stroke="#bfbfbf" points="970.5,-1019 1043.5,-1019 "/>
<text text-anchor="middle" x="1007" y="-1007" font-family="SegoeUI" font-size="10.00"> </text>
<polyline fill="none" stroke="#bfbfbf" points="970.5,-1000 1043.5,-1000 "/>
<text text-anchor="middle" x="1007" y="-988" font-family="SegoeUI" font-size="10.00"> </text>
</a>
</g>
</g>
<!-- Node20&#45;&gt;Node8 -->
<g id="edge22" class="edge"><title>Node20&#45;&gt;Node8</title>
<path fill="none" stroke="midnightblue" d="M997.857,-970.665C990.568,-945.453 978.628,-912.409 961,-887 910.582,-814.327 831.507,-749.971 774.78,-709.203"/>
<polygon fill="none" stroke="midnightblue" points="994.566,-971.896 1000.61,-980.599 1001.31,-970.028 994.566,-971.896"/>
</g>
<!-- Node21 -->
<g id="node20" class="node"><title>Node21</title>
<g id="a_node20"><a xlink:href="../../dd/d6e/interface_juniper_1_1_unity_1_1_widgets_1_1_i_valued_control.html" target="_top" xlink:title=" ">
<polygon fill="white" stroke="black" points="1062,-981 1062,-1038 1180,-1038 1180,-981 1062,-981"/>
<text text-anchor="middle" x="1121" y="-1026" font-family="SegoeUI" font-size="10.00">IValuedControl&lt; float &gt;</text>
<polyline fill="none" stroke="black" points="1062,-1019 1180,-1019 "/>
<text text-anchor="start" x="1070" y="-1007" font-family="SegoeUI" font-size="10.00">+ value</text>
<polyline fill="none" stroke="black" points="1062,-1000 1180,-1000 "/>
<text text-anchor="middle" x="1121" y="-988" font-family="SegoeUI" font-size="10.00"> </text>
</a>
</g>
</g>
<!-- Node21&#45;&gt;Node8 -->
<g id="edge23" class="edge"><title>Node21&#45;&gt;Node8</title>
<path fill="none" stroke="midnightblue" d="M1105.73,-971.532C1093.8,-945.761 1075.34,-911.707 1052,-887 970.733,-800.96 849.934,-732.757 774.681,-695.288"/>
<polygon fill="none" stroke="midnightblue" points="1102.68,-973.286 1109.98,-980.966 1109.06,-970.411 1102.68,-973.286"/>
</g>
<!-- Node22 -->
<g id="node21" class="node"><title>Node22</title>
<g id="a_node21"><a xlink:href="../../dd/d6e/interface_juniper_1_1_unity_1_1_widgets_1_1_i_valued_control.html" target="_top" xlink:title=" ">
<polygon fill="white" stroke="black" points="1049,-1218 1049,-1286 1193,-1286 1193,-1218 1049,-1218"/>
<text text-anchor="start" x="1057" y="-1274" font-family="SegoeUI" font-size="10.00">Juniper.Unity.Widgets.IValued</text>
<text text-anchor="middle" x="1121" y="-1263" font-family="SegoeUI" font-size="10.00">Control&lt; T &gt;</text>
<polyline fill="none" stroke="black" points="1049,-1256 1193,-1256 "/>
<text text-anchor="start" x="1057" y="-1244" font-family="SegoeUI" font-size="10.00">+ value</text>
<polyline fill="none" stroke="black" points="1049,-1237 1193,-1237 "/>
<text text-anchor="middle" x="1121" y="-1225" font-family="SegoeUI" font-size="10.00"> </text>
</a>
</g>
</g>
<!-- Node22&#45;&gt;Node21 -->
<g id="edge24" class="edge"><title>Node22&#45;&gt;Node21</title>
<path fill="none" stroke="orange" d="M1121,-1207.79C1121,-1158.59 1121,-1079.68 1121,-1038.13"/>
<polygon fill="orange" stroke="orange" points="1117.5,-1207.81 1121,-1217.81 1124.5,-1207.81 1117.5,-1207.81"/>
<text text-anchor="middle" x="1142" y="-1164" font-family="SegoeUI" font-size="10.00"> &lt; float &gt;</text>
</g>
</g>
</svg>
