<?xml version="1.0" encoding="UTF-8" standalone="no"?>
<!DOCTYPE svg PUBLIC "-//W3C//DTD SVG 1.1//EN"
 "http://www.w3.org/Graphics/SVG/1.1/DTD/svg11.dtd">
<!-- Generated by graphviz version 2.38.0 (20140413.2041)
 -->
<!-- Title: Juniper.Widgets.AbstractFollowSettings Pages: 1 -->
<svg width="137pt" height="237pt"
 viewBox="0.00 0.00 137.00 237.00" xmlns="http://www.w3.org/2000/svg" xmlns:xlink="http://www.w3.org/1999/xlink">
<g id="graph0" class="graph" transform="scale(1 1) rotate(0) translate(4 233)">
<title>Juniper.Widgets.AbstractFollowSettings</title>
<polygon fill="white" stroke="none" points="-4,4 -4,-233 133,-233 133,4 -4,4"/>
<!-- Node4 -->
<g id="node1" class="node"><title>Node4</title>
<g id="a_node1"><a xlink:title="Make one object&#39;s pose follow the pose of another object.">
<polygon fill="#bfbfbf" stroke="black" points="0,-0.5 0,-134.5 129,-134.5 129,-0.5 0,-0.5"/>
<text text-anchor="start" x="8" y="-122.5" font-family="SegoeUI" font-size="10.00">Juniper.Widgets.Abstract</text>
<text text-anchor="middle" x="64.5" y="-111.5" font-family="SegoeUI" font-size="10.00">FollowSettings</text>
<polyline fill="none" stroke="black" points="0,-104.5 129,-104.5 "/>
<text text-anchor="start" x="8" y="-92.5" font-family="SegoeUI" font-size="10.00">+ FollowPosition</text>
<text text-anchor="start" x="8" y="-81.5" font-family="SegoeUI" font-size="10.00">+ interpolatePosition</text>
<text text-anchor="start" x="8" y="-70.5" font-family="SegoeUI" font-size="10.00">+ FollowPositionThreshold</text>
<text text-anchor="start" x="8" y="-59.5" font-family="SegoeUI" font-size="10.00">+ speedConstant</text>
<text text-anchor="start" x="8" y="-48.5" font-family="SegoeUI" font-size="10.00">+ speedProportion</text>
<text text-anchor="start" x="8" y="-37.5" font-family="SegoeUI" font-size="10.00">+ Distance</text>
<text text-anchor="start" x="8" y="-26.5" font-family="SegoeUI" font-size="10.00">+ FollowRotation</text>
<polyline fill="none" stroke="black" points="0,-19.5 129,-19.5 "/>
<text text-anchor="start" x="8" y="-7.5" font-family="SegoeUI" font-size="10.00">+ Copy()</text>
</a>
</g>
</g>
<!-- Node5 -->
<g id="node2" class="node"><title>Node5</title>
<g id="a_node2"><a xlink:title=" ">
<polygon fill="white" stroke="#bfbfbf" points="23.5,-171.5 23.5,-228.5 105.5,-228.5 105.5,-171.5 23.5,-171.5"/>
<text text-anchor="middle" x="64.5" y="-216.5" font-family="SegoeUI" font-size="10.00">MonoBehaviour</text>
<polyline fill="none" stroke="#bfbfbf" points="23.5,-209.5 105.5,-209.5 "/>
<text text-anchor="middle" x="64.5" y="-197.5" font-family="SegoeUI" font-size="10.00"> </text>
<polyline fill="none" stroke="#bfbfbf" points="23.5,-190.5 105.5,-190.5 "/>
<text text-anchor="middle" x="64.5" y="-178.5" font-family="SegoeUI" font-size="10.00"> </text>
</a>
</g>
</g>
<!-- Node5&#45;&gt;Node4 -->
<g id="edge1" class="edge"><title>Node5&#45;&gt;Node4</title>
<path fill="none" stroke="midnightblue" d="M64.5,-161.16C64.5,-152.782 64.5,-143.668 64.5,-134.533"/>
<polygon fill="none" stroke="midnightblue" points="61.0001,-161.324 64.5,-171.324 68.0001,-161.324 61.0001,-161.324"/>
</g>
</g>
</svg>
