<?xml version="1.0" encoding="UTF-8" standalone="no"?>
<!DOCTYPE svg PUBLIC "-//W3C//DTD SVG 1.1//EN"
 "http://www.w3.org/Graphics/SVG/1.1/DTD/svg11.dtd">
<!-- Generated by graphviz version 2.38.0 (20140413.2041)
 -->
<!-- Title: Juniper.HSVColor Pages: 1 -->
<svg width="341pt" height="391pt"
 viewBox="0.00 0.00 341.00 391.00" xmlns="http://www.w3.org/2000/svg" xmlns:xlink="http://www.w3.org/1999/xlink">
<g id="graph0" class="graph" transform="scale(1 1) rotate(0) translate(4 387)">
<title>Juniper.HSVColor</title>
<polygon fill="white" stroke="none" points="-4,4 -4,-387 337,-387 337,4 -4,4"/>
<!-- Node3 -->
<g id="node1" class="node"><title>Node3</title>
<g id="a_node1"><a xlink:title="The Hue/Saturation/Value color space.">
<polygon fill="#bfbfbf" stroke="black" points="135.5,-0.5 135.5,-255.5 248.5,-255.5 248.5,-0.5 135.5,-0.5"/>
<text text-anchor="middle" x="192" y="-243.5" font-family="SegoeUI" font-size="10.00">Juniper.HSVColor</text>
<polyline fill="none" stroke="black" points="135.5,-236.5 248.5,-236.5 "/>
<text text-anchor="start" x="143.5" y="-224.5" font-family="SegoeUI" font-size="10.00">+ h</text>
<text text-anchor="start" x="143.5" y="-213.5" font-family="SegoeUI" font-size="10.00">+ s</text>
<text text-anchor="start" x="143.5" y="-202.5" font-family="SegoeUI" font-size="10.00">+ v</text>
<text text-anchor="start" x="143.5" y="-191.5" font-family="SegoeUI" font-size="10.00">+ a</text>
<polyline fill="none" stroke="black" points="135.5,-184.5 248.5,-184.5 "/>
<text text-anchor="start" x="143.5" y="-172.5" font-family="SegoeUI" font-size="10.00">+ HSVColor()</text>
<text text-anchor="start" x="143.5" y="-161.5" font-family="SegoeUI" font-size="10.00">+ Equals()</text>
<text text-anchor="start" x="143.5" y="-150.5" font-family="SegoeUI" font-size="10.00">+ Equals()</text>
<text text-anchor="start" x="143.5" y="-139.5" font-family="SegoeUI" font-size="10.00">+ Equals()</text>
<text text-anchor="start" x="143.5" y="-128.5" font-family="SegoeUI" font-size="10.00">+ GetHashCode()</text>
<text text-anchor="start" x="143.5" y="-117.5" font-family="SegoeUI" font-size="10.00">+ operator==()</text>
<text text-anchor="start" x="143.5" y="-106.5" font-family="SegoeUI" font-size="10.00">+ operator !=()</text>
<text text-anchor="start" x="143.5" y="-95.5" font-family="SegoeUI" font-size="10.00">+ operator+()</text>
<text text-anchor="start" x="143.5" y="-84.5" font-family="SegoeUI" font-size="10.00">+ operator &#45;()</text>
<text text-anchor="start" x="143.5" y="-73.5" font-family="SegoeUI" font-size="10.00">+ operator *()</text>
<text text-anchor="start" x="143.5" y="-62.5" font-family="SegoeUI" font-size="10.00">+ operator/()</text>
<text text-anchor="start" x="143.5" y="-51.5" font-family="SegoeUI" font-size="10.00">+ Lerp()</text>
<text text-anchor="start" x="143.5" y="-40.5" font-family="SegoeUI" font-size="10.00">+ operator HSVColor()</text>
<text text-anchor="start" x="143.5" y="-29.5" font-family="SegoeUI" font-size="10.00">+ operator Color()</text>
<text text-anchor="start" x="143.5" y="-18.5" font-family="SegoeUI" font-size="10.00">+ operator Vector4()</text>
<text text-anchor="start" x="143.5" y="-7.5" font-family="SegoeUI" font-size="10.00">+ operator HSVColor()</text>
</a>
</g>
</g>
<!-- Node4 -->
<g id="node2" class="node"><title>Node4</title>
<g id="a_node2"><a xlink:title=" ">
<polygon fill="white" stroke="#bfbfbf" points="0,-325.5 0,-382.5 122,-382.5 122,-325.5 0,-325.5"/>
<text text-anchor="middle" x="61" y="-370.5" font-family="SegoeUI" font-size="10.00">IEquatable&lt; HSVColor &gt;</text>
<polyline fill="none" stroke="#bfbfbf" points="0,-363.5 122,-363.5 "/>
<text text-anchor="middle" x="61" y="-351.5" font-family="SegoeUI" font-size="10.00"> </text>
<polyline fill="none" stroke="#bfbfbf" points="0,-344.5 122,-344.5 "/>
<text text-anchor="middle" x="61" y="-332.5" font-family="SegoeUI" font-size="10.00"> </text>
</a>
</g>
</g>
<!-- Node4&#45;&gt;Node3 -->
<g id="edge1" class="edge"><title>Node4&#45;&gt;Node3</title>
<path fill="none" stroke="midnightblue" d="M82.3968,-316.413C96.8483,-291.702 116.649,-257.844 135.448,-225.7"/>
<polygon fill="none" stroke="midnightblue" points="79.3534,-314.684 77.3264,-325.083 85.396,-318.218 79.3534,-314.684"/>
</g>
<!-- Node5 -->
<g id="node3" class="node"><title>Node5</title>
<g id="a_node3"><a xlink:title=" ">
<polygon fill="white" stroke="#bfbfbf" points="140,-325.5 140,-382.5 244,-382.5 244,-325.5 140,-325.5"/>
<text text-anchor="middle" x="192" y="-370.5" font-family="SegoeUI" font-size="10.00">IEquatable&lt; Color &gt;</text>
<polyline fill="none" stroke="#bfbfbf" points="140,-363.5 244,-363.5 "/>
<text text-anchor="middle" x="192" y="-351.5" font-family="SegoeUI" font-size="10.00"> </text>
<polyline fill="none" stroke="#bfbfbf" points="140,-344.5 244,-344.5 "/>
<text text-anchor="middle" x="192" y="-332.5" font-family="SegoeUI" font-size="10.00"> </text>
</a>
</g>
</g>
<!-- Node5&#45;&gt;Node3 -->
<g id="edge2" class="edge"><title>Node5&#45;&gt;Node3</title>
<path fill="none" stroke="midnightblue" d="M192,-314.643C192,-297.834 192,-277.05 192,-255.538"/>
<polygon fill="none" stroke="midnightblue" points="188.5,-315.083 192,-325.083 195.5,-315.083 188.5,-315.083"/>
</g>
<!-- Node6 -->
<g id="node4" class="node"><title>Node6</title>
<g id="a_node4"><a xlink:title=" ">
<polygon fill="white" stroke="#bfbfbf" points="262.5,-325.5 262.5,-382.5 301.5,-382.5 301.5,-325.5 262.5,-325.5"/>
<text text-anchor="middle" x="282" y="-370.5" font-family="SegoeUI" font-size="10.00">static</text>
<polyline fill="none" stroke="#bfbfbf" points="262.5,-363.5 301.5,-363.5 "/>
<text text-anchor="middle" x="282" y="-351.5" font-family="SegoeUI" font-size="10.00"> </text>
<polyline fill="none" stroke="#bfbfbf" points="262.5,-344.5 301.5,-344.5 "/>
<text text-anchor="middle" x="282" y="-332.5" font-family="SegoeUI" font-size="10.00"> </text>
</a>
</g>
</g>
<!-- Node6&#45;&gt;Node3 -->
<g id="edge3" class="edge"><title>Node6&#45;&gt;Node3</title>
<path fill="none" stroke="#404040" d="M270.783,-325.083C264.535,-309.532 256.239,-288.885 247.375,-266.823"/>
<polygon fill="none" stroke="#404040" points="247.315,-266.673 241.367,-262.597 242.841,-255.538 248.79,-259.614 247.315,-266.673"/>
<text text-anchor="middle" x="298" y="-299" font-family="SegoeUI" font-size="10.00"> &#45;SkinColors</text>
<text text-anchor="middle" x="298" y="-288" font-family="SegoeUI" font-size="10.00">+SkinColorsRGB</text>
<text text-anchor="middle" x="298" y="-277" font-family="SegoeUI" font-size="10.00">+SkinColorsHSV</text>
</g>
</g>
</svg>
