<?xml version="1.0" encoding="UTF-8" standalone="no"?>
<!DOCTYPE svg PUBLIC "-//W3C//DTD SVG 1.1//EN"
 "http://www.w3.org/Graphics/SVG/1.1/DTD/svg11.dtd">
<!-- Generated by graphviz version 2.38.0 (20140413.2041)
 -->
<!-- Title: Juniper.JuniperSystem Pages: 1 -->
<svg width="304pt" height="490pt"
 viewBox="0.00 0.00 304.00 490.00" xmlns="http://www.w3.org/2000/svg" xmlns:xlink="http://www.w3.org/1999/xlink">
<g id="graph0" class="graph" transform="scale(1 1) rotate(0) translate(4 486)">
<title>Juniper.JuniperSystem</title>
<polygon fill="white" stroke="none" points="-4,4 -4,-486 300,-486 300,4 -4,4"/>
<!-- Node3 -->
<g id="node1" class="node"><title>Node3</title>
<g id="a_node1"><a xlink:title=" ">
<polygon fill="#bfbfbf" stroke="black" points="62,-0.5 62,-266.5 208,-266.5 208,-0.5 62,-0.5"/>
<text text-anchor="middle" x="135" y="-254.5" font-family="SegoeUI" font-size="10.00">Juniper.JuniperSystem</text>
<polyline fill="none" stroke="black" points="62,-247.5 208,-247.5 "/>
<text text-anchor="start" x="70" y="-235.5" font-family="SegoeUI" font-size="10.00">+ m_CurrentPlatform</text>
<text text-anchor="start" x="70" y="-224.5" font-family="SegoeUI" font-size="10.00">+ m_System</text>
<text text-anchor="start" x="70" y="-213.5" font-family="SegoeUI" font-size="10.00">+ m_DisplayType</text>
<text text-anchor="start" x="70" y="-202.5" font-family="SegoeUI" font-size="10.00">+ m_SupportedDisplayType</text>
<text text-anchor="start" x="70" y="-191.5" font-family="SegoeUI" font-size="10.00">+ m_ARMode</text>
<text text-anchor="start" x="70" y="-180.5" font-family="SegoeUI" font-size="10.00">+ m_SupportedARMode</text>
<text text-anchor="start" x="70" y="-169.5" font-family="SegoeUI" font-size="10.00">+ m_Option</text>
<polyline fill="none" stroke="black" points="62,-162.5 208,-162.5 "/>
<text text-anchor="start" x="70" y="-150.5" font-family="SegoeUI" font-size="10.00">+ Install()</text>
<text text-anchor="start" x="70" y="-139.5" font-family="SegoeUI" font-size="10.00">+ Uninstall()</text>
<text text-anchor="start" x="70" y="-128.5" font-family="SegoeUI" font-size="10.00">+ Awake()</text>
<text text-anchor="start" x="70" y="-117.5" font-family="SegoeUI" font-size="10.00">+ Update()</text>
<text text-anchor="start" x="70" y="-106.5" font-family="SegoeUI" font-size="10.00">+ Reinstall()</text>
<text text-anchor="start" x="70" y="-95.5" font-family="SegoeUI" font-size="10.00">+ EnsureFactory()</text>
<text text-anchor="start" x="70" y="-84.5" font-family="SegoeUI" font-size="10.00">+ OnMainThreadAsync()</text>
<text text-anchor="start" x="70" y="-73.5" font-family="SegoeUI" font-size="10.00">+ OnMainThread()</text>
<text text-anchor="start" x="70" y="-62.5" font-family="SegoeUI" font-size="10.00">+ OnMainThreadAsync&lt; T &gt;()</text>
<text text-anchor="start" x="70" y="-51.5" font-family="SegoeUI" font-size="10.00">+ OnMainThread&lt; T &gt;()</text>
<text text-anchor="start" x="70" y="-40.5" font-family="SegoeUI" font-size="10.00">+ UninstallSystem()</text>
<text text-anchor="start" x="70" y="-29.5" font-family="SegoeUI" font-size="10.00">+ InstallSystem()</text>
<text text-anchor="start" x="70" y="-18.5" font-family="SegoeUI" font-size="10.00">+ LogError()</text>
<text text-anchor="start" x="70" y="-7.5" font-family="SegoeUI" font-size="10.00">&#45; GetInstallables()</text>
</a>
</g>
</g>
<!-- Node4 -->
<g id="node2" class="node"><title>Node4</title>
<g id="a_node2"><a xlink:title=" ">
<polygon fill="white" stroke="#bfbfbf" points="0,-413.5 0,-470.5 82,-470.5 82,-413.5 0,-413.5"/>
<text text-anchor="middle" x="41" y="-458.5" font-family="SegoeUI" font-size="10.00">MonoBehaviour</text>
<polyline fill="none" stroke="#bfbfbf" points="0,-451.5 82,-451.5 "/>
<text text-anchor="middle" x="41" y="-439.5" font-family="SegoeUI" font-size="10.00"> </text>
<polyline fill="none" stroke="#bfbfbf" points="0,-432.5 82,-432.5 "/>
<text text-anchor="middle" x="41" y="-420.5" font-family="SegoeUI" font-size="10.00"> </text>
</a>
</g>
</g>
<!-- Node4&#45;&gt;Node3 -->
<g id="edge1" class="edge"><title>Node4&#45;&gt;Node3</title>
<path fill="none" stroke="midnightblue" d="M52.4461,-403.678C62.9532,-369.418 79.1632,-316.564 94.4463,-266.731"/>
<polygon fill="none" stroke="midnightblue" points="49.0937,-402.673 49.5077,-413.26 55.786,-404.725 49.0937,-402.673"/>
</g>
<!-- Node5 -->
<g id="node3" class="node"><title>Node5</title>
<g id="a_node3"><a xlink:href="../../d7/dbe/interface_juniper_1_1_i_o_1_1_i_installable.html" target="_top" xlink:title="Defines an interface for objects that can be installed and have their installation progress tracked.">
<polygon fill="white" stroke="black" points="100.5,-402.5 100.5,-481.5 169.5,-481.5 169.5,-402.5 100.5,-402.5"/>
<text text-anchor="middle" x="135" y="-469.5" font-family="SegoeUI" font-size="10.00">IInstallable</text>
<polyline fill="none" stroke="black" points="100.5,-462.5 169.5,-462.5 "/>
<text text-anchor="middle" x="135" y="-450.5" font-family="SegoeUI" font-size="10.00"> </text>
<polyline fill="none" stroke="black" points="100.5,-443.5 169.5,-443.5 "/>
<text text-anchor="start" x="108.5" y="-431.5" font-family="SegoeUI" font-size="10.00">+ Install()</text>
<text text-anchor="start" x="108.5" y="-420.5" font-family="SegoeUI" font-size="10.00">+ Reinstall()</text>
<text text-anchor="start" x="108.5" y="-409.5" font-family="SegoeUI" font-size="10.00">+ Uninstall()</text>
</a>
</g>
</g>
<!-- Node5&#45;&gt;Node3 -->
<g id="edge2" class="edge"><title>Node5&#45;&gt;Node3</title>
<path fill="none" stroke="midnightblue" d="M135,-392.381C135,-358.386 135,-311.244 135,-266.555"/>
<polygon fill="none" stroke="midnightblue" points="131.5,-392.492 135,-402.492 138.5,-392.492 131.5,-392.492"/>
</g>
<!-- Node6 -->
<g id="node4" class="node"><title>Node6</title>
<g id="a_node4"><a xlink:title=" ">
<polygon fill="white" stroke="#bfbfbf" points="187.5,-413.5 187.5,-470.5 226.5,-470.5 226.5,-413.5 187.5,-413.5"/>
<text text-anchor="middle" x="207" y="-458.5" font-family="SegoeUI" font-size="10.00">static</text>
<polyline fill="none" stroke="#bfbfbf" points="187.5,-451.5 226.5,-451.5 "/>
<text text-anchor="middle" x="207" y="-439.5" font-family="SegoeUI" font-size="10.00"> </text>
<polyline fill="none" stroke="#bfbfbf" points="187.5,-432.5 226.5,-432.5 "/>
<text text-anchor="middle" x="207" y="-420.5" font-family="SegoeUI" font-size="10.00"> </text>
</a>
</g>
</g>
<!-- Node6&#45;&gt;Node3 -->
<g id="edge3" class="edge"><title>Node6&#45;&gt;Node3</title>
<path fill="none" stroke="#404040" d="M200.483,-413.26C193.21,-382.295 180.876,-329.793 168.862,-278.647"/>
<polygon fill="none" stroke="#404040" points="168.807,-278.413 163.541,-273.487 166.062,-266.731 171.329,-271.657 168.807,-278.413"/>
<text text-anchor="middle" x="245" y="-376" font-family="SegoeUI" font-size="10.00"> +CurrentPlatform</text>
<text text-anchor="middle" x="245" y="-365" font-family="SegoeUI" font-size="10.00">+SupportedARMode</text>
<text text-anchor="middle" x="245" y="-354" font-family="SegoeUI" font-size="10.00">+IsMainThreadReady</text>
<text text-anchor="middle" x="245" y="-343" font-family="SegoeUI" font-size="10.00">+SupportedDisplayType</text>
<text text-anchor="middle" x="245" y="-332" font-family="SegoeUI" font-size="10.00">+System</text>
<text text-anchor="middle" x="245" y="-321" font-family="SegoeUI" font-size="10.00">&#45;mainThread</text>
<text text-anchor="middle" x="245" y="-310" font-family="SegoeUI" font-size="10.00">&#45;IsOnMainThread</text>
<text text-anchor="middle" x="245" y="-299" font-family="SegoeUI" font-size="10.00">&#45;mainThreadScheduler</text>
<text text-anchor="middle" x="245" y="-288" font-family="SegoeUI" font-size="10.00">+Option</text>
</g>
</g>
</svg>
