<?xml version="1.0" encoding="UTF-8" standalone="no"?>
<!DOCTYPE svg PUBLIC "-//W3C//DTD SVG 1.1//EN"
 "http://www.w3.org/Graphics/SVG/1.1/DTD/svg11.dtd">
<!-- Generated by graphviz version 2.38.0 (20140413.2041)
 -->
<!-- Title: Juniper.Imaging.HjgPngcsCodec Pages: 1 -->
<svg width="436pt" height="743pt"
 viewBox="0.00 0.00 436.00 743.00" xmlns="http://www.w3.org/2000/svg" xmlns:xlink="http://www.w3.org/1999/xlink">
<g id="graph0" class="graph" transform="scale(1 1) rotate(0) translate(4 739)">
<title>Juniper.Imaging.HjgPngcsCodec</title>
<polygon fill="white" stroke="none" points="-4,4 -4,-739 432,-739 432,4 -4,4"/>
<!-- Node0 -->
<g id="node1" class="node"><title>Node0</title>
<g id="a_node1"><a xlink:title=" ">
<polygon fill="#bfbfbf" stroke="black" points="127.5,-0.5 127.5,-112.5 254.5,-112.5 254.5,-0.5 127.5,-0.5"/>
<text text-anchor="start" x="135.5" y="-100.5" font-family="SegoeUI" font-size="10.00">Juniper.Imaging.HjgPngcs</text>
<text text-anchor="middle" x="191" y="-89.5" font-family="SegoeUI" font-size="10.00">Codec</text>
<polyline fill="none" stroke="black" points="127.5,-82.5 254.5,-82.5 "/>
<text text-anchor="start" x="135.5" y="-70.5" font-family="SegoeUI" font-size="10.00">+ ContentType</text>
<text text-anchor="start" x="135.5" y="-59.5" font-family="SegoeUI" font-size="10.00">&#45; compressionLevel</text>
<text text-anchor="start" x="135.5" y="-48.5" font-family="SegoeUI" font-size="10.00">&#45; IDATMaxSize</text>
<polyline fill="none" stroke="black" points="127.5,-41.5 254.5,-41.5 "/>
<text text-anchor="start" x="135.5" y="-29.5" font-family="SegoeUI" font-size="10.00">+ HjgPngcsCodec()</text>
<text text-anchor="start" x="135.5" y="-18.5" font-family="SegoeUI" font-size="10.00">+ Deserialize()</text>
<text text-anchor="start" x="135.5" y="-7.5" font-family="SegoeUI" font-size="10.00">+ Serialize()</text>
</a>
</g>
</g>
<!-- Node1 -->
<g id="node2" class="node"><title>Node1</title>
<g id="a_node2"><a xlink:href="../../d8/d64/interface_juniper_1_1_imaging_1_1_i_image_codec.html" target="_top" xlink:title=" ">
<polygon fill="white" stroke="black" points="120.5,-150.5 120.5,-207.5 261.5,-207.5 261.5,-150.5 120.5,-150.5"/>
<text text-anchor="middle" x="191" y="-195.5" font-family="SegoeUI" font-size="10.00">IImageCodec&lt; ImageLines &gt;</text>
<polyline fill="none" stroke="black" points="120.5,-188.5 261.5,-188.5 "/>
<text text-anchor="middle" x="191" y="-176.5" font-family="SegoeUI" font-size="10.00"> </text>
<polyline fill="none" stroke="black" points="120.5,-169.5 261.5,-169.5 "/>
<text text-anchor="middle" x="191" y="-157.5" font-family="SegoeUI" font-size="10.00"> </text>
</a>
</g>
</g>
<!-- Node1&#45;&gt;Node0 -->
<g id="edge1" class="edge"><title>Node1&#45;&gt;Node0</title>
<path fill="none" stroke="midnightblue" d="M191,-140.109C191,-131.362 191,-121.883 191,-112.569"/>
<polygon fill="none" stroke="midnightblue" points="187.5,-140.355 191,-150.355 194.5,-140.355 187.5,-140.355"/>
</g>
<!-- Node2 -->
<g id="node3" class="node"><title>Node2</title>
<g id="a_node3"><a xlink:href="../../d8/d64/interface_juniper_1_1_imaging_1_1_i_image_codec.html" target="_top" xlink:title=" ">
<polygon fill="white" stroke="black" points="106,-255.5 106,-312.5 276,-312.5 276,-255.5 106,-255.5"/>
<text text-anchor="middle" x="191" y="-300.5" font-family="SegoeUI" font-size="10.00">Juniper.Imaging.IImageCodec&lt; T &gt;</text>
<polyline fill="none" stroke="black" points="106,-293.5 276,-293.5 "/>
<text text-anchor="middle" x="191" y="-281.5" font-family="SegoeUI" font-size="10.00"> </text>
<polyline fill="none" stroke="black" points="106,-274.5 276,-274.5 "/>
<text text-anchor="middle" x="191" y="-262.5" font-family="SegoeUI" font-size="10.00"> </text>
</a>
</g>
</g>
<!-- Node2&#45;&gt;Node1 -->
<g id="edge2" class="edge"><title>Node2&#45;&gt;Node1</title>
<path fill="none" stroke="orange" d="M191,-245.286C191,-232.839 191,-219.233 191,-207.678"/>
<polygon fill="orange" stroke="orange" points="187.5,-245.398 191,-255.398 194.5,-245.398 187.5,-245.398"/>
<text text-anchor="middle" x="227" y="-229" font-family="SegoeUI" font-size="10.00"> &lt; ImageLines &gt;</text>
</g>
<!-- Node3 -->
<g id="node4" class="node"><title>Node3</title>
<g id="a_node4"><a xlink:href="../../da/df2/interface_juniper_1_1_i_o_1_1_i_factory.html" target="_top" xlink:title=" ">
<polygon fill="white" stroke="black" points="111.5,-350.5 111.5,-407.5 270.5,-407.5 270.5,-350.5 111.5,-350.5"/>
<text text-anchor="middle" x="191" y="-395.5" font-family="SegoeUI" font-size="10.00">IFactory&lt; T, MediaType.Image &gt;</text>
<polyline fill="none" stroke="black" points="111.5,-388.5 270.5,-388.5 "/>
<text text-anchor="middle" x="191" y="-376.5" font-family="SegoeUI" font-size="10.00"> </text>
<polyline fill="none" stroke="black" points="111.5,-369.5 270.5,-369.5 "/>
<text text-anchor="middle" x="191" y="-357.5" font-family="SegoeUI" font-size="10.00"> </text>
</a>
</g>
</g>
<!-- Node3&#45;&gt;Node2 -->
<g id="edge3" class="edge"><title>Node3&#45;&gt;Node2</title>
<path fill="none" stroke="midnightblue" d="M191,-340.235C191,-331.028 191,-321.346 191,-312.705"/>
<polygon fill="none" stroke="midnightblue" points="187.5,-340.349 191,-350.349 194.5,-340.349 187.5,-340.349"/>
</g>
<!-- Node4 -->
<g id="node5" class="node"><title>Node4</title>
<g id="a_node5"><a xlink:href="../../da/df2/interface_juniper_1_1_i_o_1_1_i_factory.html" target="_top" xlink:title=" ">
<polygon fill="white" stroke="black" points="111,-455.5 111,-523.5 271,-523.5 271,-455.5 111,-455.5"/>
<text text-anchor="start" x="119" y="-511.5" font-family="SegoeUI" font-size="10.00">Juniper.IO.IFactory</text>
<text text-anchor="middle" x="191" y="-500.5" font-family="SegoeUI" font-size="10.00">&lt; ResultT, out out MediaTypeT &gt;</text>
<polyline fill="none" stroke="black" points="111,-493.5 271,-493.5 "/>
<text text-anchor="middle" x="191" y="-481.5" font-family="SegoeUI" font-size="10.00"> </text>
<polyline fill="none" stroke="black" points="111,-474.5 271,-474.5 "/>
<text text-anchor="middle" x="191" y="-462.5" font-family="SegoeUI" font-size="10.00"> </text>
</a>
</g>
</g>
<!-- Node4&#45;&gt;Node3 -->
<g id="edge4" class="edge"><title>Node4&#45;&gt;Node3</title>
<path fill="none" stroke="orange" d="M191,-445.064C191,-432.511 191,-419.152 191,-407.827"/>
<polygon fill="orange" stroke="orange" points="187.5,-445.357 191,-455.357 194.5,-445.357 187.5,-445.357"/>
<text text-anchor="middle" x="247" y="-429" font-family="SegoeUI" font-size="10.00"> &lt; T, MediaType.Image &gt;</text>
</g>
<!-- Node5 -->
<g id="node6" class="node"><title>Node5</title>
<g id="a_node6"><a xlink:href="../../de/d17/interface_juniper_1_1_i_o_1_1_i_serializer.html" target="_top" xlink:title=" ">
<polygon fill="white" stroke="black" points="0,-561.5 0,-618.5 112,-618.5 112,-561.5 0,-561.5"/>
<text text-anchor="middle" x="56" y="-606.5" font-family="SegoeUI" font-size="10.00">ISerializer&lt; ResultT &gt;</text>
<polyline fill="none" stroke="black" points="0,-599.5 112,-599.5 "/>
<text text-anchor="middle" x="56" y="-587.5" font-family="SegoeUI" font-size="10.00"> </text>
<polyline fill="none" stroke="black" points="0,-580.5 112,-580.5 "/>
<text text-anchor="start" x="8" y="-568.5" font-family="SegoeUI" font-size="10.00">+ Serialize()</text>
</a>
</g>
</g>
<!-- Node5&#45;&gt;Node4 -->
<g id="edge5" class="edge"><title>Node5&#45;&gt;Node4</title>
<path fill="none" stroke="midnightblue" d="M102.075,-555.383C116.158,-545.107 131.63,-533.818 145.664,-523.578"/>
<polygon fill="none" stroke="midnightblue" points="99.9796,-552.579 93.9643,-561.3 104.106,-558.233 99.9796,-552.579"/>
</g>
<!-- Node6 -->
<g id="node7" class="node"><title>Node6</title>
<g id="a_node7"><a xlink:href="../../de/d17/interface_juniper_1_1_i_o_1_1_i_serializer.html" target="_top" xlink:title=" ">
<polygon fill="white" stroke="black" points="2.5,-666.5 2.5,-734.5 109.5,-734.5 109.5,-666.5 2.5,-666.5"/>
<text text-anchor="start" x="10.5" y="-722.5" font-family="SegoeUI" font-size="10.00">Juniper.IO.ISerializer</text>
<text text-anchor="middle" x="56" y="-711.5" font-family="SegoeUI" font-size="10.00">&lt; in in T &gt;</text>
<polyline fill="none" stroke="black" points="2.5,-704.5 109.5,-704.5 "/>
<text text-anchor="middle" x="56" y="-692.5" font-family="SegoeUI" font-size="10.00"> </text>
<polyline fill="none" stroke="black" points="2.5,-685.5 109.5,-685.5 "/>
<text text-anchor="start" x="10.5" y="-673.5" font-family="SegoeUI" font-size="10.00">+ Serialize()</text>
</a>
</g>
</g>
<!-- Node6&#45;&gt;Node5 -->
<g id="edge6" class="edge"><title>Node6&#45;&gt;Node5</title>
<path fill="none" stroke="orange" d="M56,-656.064C56,-643.511 56,-630.152 56,-618.827"/>
<polygon fill="orange" stroke="orange" points="52.5001,-656.357 56,-666.357 59.5001,-656.357 52.5001,-656.357"/>
<text text-anchor="middle" x="83.5" y="-640" font-family="SegoeUI" font-size="10.00"> &lt; ResultT &gt;</text>
</g>
<!-- Node7 -->
<g id="node8" class="node"><title>Node7</title>
<g id="a_node8"><a xlink:href="../../d1/d4d/interface_juniper_1_1_i_o_1_1_i_deserializer.html" target="_top" xlink:title=" ">
<polygon fill="white" stroke="black" points="130,-561.5 130,-618.5 252,-618.5 252,-561.5 130,-561.5"/>
<text text-anchor="middle" x="191" y="-606.5" font-family="SegoeUI" font-size="10.00">IDeserializer&lt; ResultT &gt;</text>
<polyline fill="none" stroke="black" points="130,-599.5 252,-599.5 "/>
<text text-anchor="middle" x="191" y="-587.5" font-family="SegoeUI" font-size="10.00"> </text>
<polyline fill="none" stroke="black" points="130,-580.5 252,-580.5 "/>
<text text-anchor="start" x="138" y="-568.5" font-family="SegoeUI" font-size="10.00">+ Deserialize()</text>
</a>
</g>
</g>
<!-- Node7&#45;&gt;Node4 -->
<g id="edge7" class="edge"><title>Node7&#45;&gt;Node4</title>
<path fill="none" stroke="midnightblue" d="M191,-551.007C191,-541.962 191,-532.383 191,-523.578"/>
<polygon fill="none" stroke="midnightblue" points="187.5,-551.3 191,-561.3 194.5,-551.3 187.5,-551.3"/>
</g>
<!-- Node8 -->
<g id="node9" class="node"><title>Node8</title>
<g id="a_node9"><a xlink:href="../../d1/d4d/interface_juniper_1_1_i_o_1_1_i_deserializer.html" target="_top" xlink:title=" ">
<polygon fill="white" stroke="black" points="133,-666.5 133,-734.5 249,-734.5 249,-666.5 133,-666.5"/>
<text text-anchor="start" x="141" y="-722.5" font-family="SegoeUI" font-size="10.00">Juniper.IO.IDeserializer</text>
<text text-anchor="middle" x="191" y="-711.5" font-family="SegoeUI" font-size="10.00">&lt; out out ResultT &gt;</text>
<polyline fill="none" stroke="black" points="133,-704.5 249,-704.5 "/>
<text text-anchor="middle" x="191" y="-692.5" font-family="SegoeUI" font-size="10.00"> </text>
<polyline fill="none" stroke="black" points="133,-685.5 249,-685.5 "/>
<text text-anchor="start" x="141" y="-673.5" font-family="SegoeUI" font-size="10.00">+ Deserialize()</text>
</a>
</g>
</g>
<!-- Node8&#45;&gt;Node7 -->
<g id="edge8" class="edge"><title>Node8&#45;&gt;Node7</title>
<path fill="none" stroke="orange" d="M191,-656.064C191,-643.511 191,-630.152 191,-618.827"/>
<polygon fill="orange" stroke="orange" points="187.5,-656.357 191,-666.357 194.5,-656.357 187.5,-656.357"/>
<text text-anchor="middle" x="218.5" y="-640" font-family="SegoeUI" font-size="10.00"> &lt; ResultT &gt;</text>
</g>
<!-- Node9 -->
<g id="node10" class="node"><title>Node9</title>
<g id="a_node10"><a xlink:href="../../da/d97/interface_juniper_1_1_i_o_1_1_i_content_handler.html" target="_top" xlink:title=" ">
<polygon fill="white" stroke="black" points="270,-561.5 270,-618.5 428,-618.5 428,-561.5 270,-561.5"/>
<text text-anchor="middle" x="349" y="-606.5" font-family="SegoeUI" font-size="10.00">IContentHandler&lt; MediaTypeT &gt;</text>
<polyline fill="none" stroke="black" points="270,-599.5 428,-599.5 "/>
<text text-anchor="middle" x="349" y="-587.5" font-family="SegoeUI" font-size="10.00"> </text>
<polyline fill="none" stroke="black" points="270,-580.5 428,-580.5 "/>
<text text-anchor="middle" x="349" y="-568.5" font-family="SegoeUI" font-size="10.00"> </text>
</a>
</g>
</g>
<!-- Node9&#45;&gt;Node4 -->
<g id="edge9" class="edge"><title>Node9&#45;&gt;Node4</title>
<path fill="none" stroke="midnightblue" d="M295.998,-555.958C279.27,-545.529 260.792,-534.009 244.06,-523.578"/>
<polygon fill="none" stroke="midnightblue" points="294.23,-558.98 304.568,-561.3 297.933,-553.04 294.23,-558.98"/>
</g>
<!-- Node10 -->
<g id="node11" class="node"><title>Node10</title>
<g id="a_node11"><a xlink:href="../../da/d97/interface_juniper_1_1_i_o_1_1_i_content_handler.html" target="_top" xlink:title=" ">
<polygon fill="white" stroke="black" points="283,-672 283,-729 415,-729 415,-672 283,-672"/>
<text text-anchor="middle" x="349" y="-717" font-family="SegoeUI" font-size="10.00">Juniper.IO.IContentHandler</text>
<polyline fill="none" stroke="black" points="283,-710 415,-710 "/>
<text text-anchor="middle" x="349" y="-698" font-family="SegoeUI" font-size="10.00"> </text>
<polyline fill="none" stroke="black" points="283,-691 415,-691 "/>
<text text-anchor="middle" x="349" y="-679" font-family="SegoeUI" font-size="10.00"> </text>
</a>
</g>
</g>
<!-- Node10&#45;&gt;Node9 -->
<g id="edge10" class="edge"><title>Node10&#45;&gt;Node9</title>
<path fill="none" stroke="orange" d="M349,-661.436C349,-647.327 349,-631.611 349,-618.609"/>
<polygon fill="orange" stroke="orange" points="345.5,-661.84 349,-671.84 352.5,-661.84 345.5,-661.84"/>
<text text-anchor="middle" x="387" y="-640" font-family="SegoeUI" font-size="10.00"> &lt; MediaTypeT &gt;</text>
</g>
</g>
</svg>
