<?xml version="1.0" encoding="UTF-8" standalone="no"?>
<!DOCTYPE svg PUBLIC "-//W3C//DTD SVG 1.1//EN"
 "http://www.w3.org/Graphics/SVG/1.1/DTD/svg11.dtd">
<!-- Generated by graphviz version 2.38.0 (20140413.2041)
 -->
<!-- Title: Juniper.Unity.Input.AbstractUnifiedInputModule Pages: 1 -->
<!--zoomable 997 -->
<svg id="main" version="1.1" xmlns="http://www.w3.org/2000/svg" xmlns:xlink="http://www.w3.org/1999/xlink" xml:space="preserve" onload="init(evt)">
<style type="text/css"><![CDATA[
.edge:hover path { stroke: red; }
.edge:hover polygon { stroke: red; fill: red; }
]]></style>
<script type="text/javascript"><![CDATA[
var edges = document.getElementsByTagName('g');
if (edges && edges.length) {
  for (var i=0;i<edges.length;i++) {
    if (edges[i].id.substr(0,4)=='edge') {
      edges[i].setAttribute('class','edge');
    }
  }
}
]]></script>
        <defs>
                <circle id="rim" cx="0" cy="0" r="7"/>
                <circle id="rim2" cx="0" cy="0" r="3.5"/>
                <g id="zoomPlus">
                        <use xlink:href="#rim" fill="#404040">
                                <set attributeName="fill" to="#808080" begin="zoomplus.mouseover" end="zoomplus.mouseout"/>
                        </use>
                        <path d="M-4,0h8M0,-4v8" fill="none" stroke="white" stroke-width="1.5" pointer-events="none"/>
                </g>
                <g id="zoomMin">
                        <use xlink:href="#rim" fill="#404040">
                                <set attributeName="fill" to="#808080" begin="zoomminus.mouseover" end="zoomminus.mouseout"/>
                        </use>
                        <path d="M-4,0h8" fill="none" stroke="white" stroke-width="1.5" pointer-events="none"/>
                </g>
                <g id="dirArrow">
                        <path fill="none" stroke="white" stroke-width="1.5" d="M0,-3.0v7 M-2.5,-0.5L0,-3.0L2.5,-0.5"/>
                </g>
               <g id="resetDef">
                       <use xlink:href="#rim2" fill="#404040">
                               <set attributeName="fill" to="#808080" begin="reset.mouseover" end="reset.mouseout"/>
                       </use>
               </g>
        </defs>

<script type="text/javascript">
var viewWidth = 760;
var viewHeight = 997;
var sectionId = 'dynsection-0';
</script>
<script xlink:href="../../svgpan.js"/>
<svg id="graph" class="graph">
<g id="viewport">
<title>Juniper.Unity.Input.AbstractUnifiedInputModule</title>
<polygon fill="white" stroke="none" points="-4,4 -4,-993 756,-993 756,4 -4,4"/>
<!-- Node0 -->
<g id="node1" class="node"><title>Node0</title>
<g id="a_node1"><a xlink:title="Finds all of the IPointerDevice s and fires raycaster events for all of them.">
<polygon fill="#bfbfbf" stroke="black" points="314,-232.5 314,-806.5 460,-806.5 460,-232.5 314,-232.5"/>
<text text-anchor="start" x="322" y="-794.5" font-family="SegoeUI" font-size="10.00">Juniper.Unity.Input.Abstract</text>
<text text-anchor="middle" x="387" y="-783.5" font-family="SegoeUI" font-size="10.00">UnifiedInputModule</text>
<polyline fill="none" stroke="black" points="314,-776.5 460,-776.5 "/>
<text text-anchor="start" x="322" y="-764.5" font-family="SegoeUI" font-size="10.00">+ Devices</text>
<text text-anchor="start" x="322" y="-753.5" font-family="SegoeUI" font-size="10.00">+ mode</text>
<text text-anchor="start" x="322" y="-742.5" font-family="SegoeUI" font-size="10.00">+ pointerPrefab</text>
<text text-anchor="start" x="322" y="-731.5" font-family="SegoeUI" font-size="10.00">+ enableControllersToggle</text>
<text text-anchor="start" x="322" y="-720.5" font-family="SegoeUI" font-size="10.00">+ enableMouseToggle</text>
<text text-anchor="start" x="322" y="-709.5" font-family="SegoeUI" font-size="10.00">+ enableTouchToggle</text>
<text text-anchor="start" x="322" y="-698.5" font-family="SegoeUI" font-size="10.00">+ enableHandsToggle</text>
<text text-anchor="start" x="322" y="-687.5" font-family="SegoeUI" font-size="10.00">+ enableGazeToggle</text>
<text text-anchor="start" x="322" y="-676.5" font-family="SegoeUI" font-size="10.00">+ gazePointer</text>
<text text-anchor="start" x="322" y="-665.5" font-family="SegoeUI" font-size="10.00">+ mouse</text>
<text text-anchor="start" x="322" y="-654.5" font-family="SegoeUI" font-size="10.00">+ touches</text>
<text text-anchor="start" x="322" y="-643.5" font-family="SegoeUI" font-size="10.00">+ motionControllers</text>
<text text-anchor="start" x="322" y="-632.5" font-family="SegoeUI" font-size="10.00">+ handTrackers</text>
<text text-anchor="start" x="322" y="-621.5" font-family="SegoeUI" font-size="10.00">+ AnyPointerDragging</text>
<text text-anchor="start" x="322" y="-610.5" font-family="SegoeUI" font-size="10.00">+ TouchConnected</text>
<text text-anchor="start" x="322" y="-599.5" font-family="SegoeUI" font-size="10.00">+ MotionConnected</text>
<text text-anchor="start" x="322" y="-588.5" font-family="SegoeUI" font-size="10.00"># stage</text>
<text text-anchor="start" x="322" y="-577.5" font-family="SegoeUI" font-size="10.00">&#45; newDevices</text>
<text text-anchor="start" x="322" y="-566.5" font-family="SegoeUI" font-size="10.00">&#45; ENABLE_GAZE_KEY</text>
<text text-anchor="start" x="322" y="-555.5" font-family="SegoeUI" font-size="10.00">&#45; ENABLE_MOUSE_KEY</text>
<text text-anchor="start" x="322" y="-544.5" font-family="SegoeUI" font-size="10.00">&#45; ENABLE_TOUCH_KEY</text>
<text text-anchor="start" x="322" y="-533.5" font-family="SegoeUI" font-size="10.00">&#45; ENABLE_HANDS_KEY</text>
<text text-anchor="start" x="322" y="-522.5" font-family="SegoeUI" font-size="10.00">&#45; ENABLE_CONTROLLERS_KEY</text>
<text text-anchor="start" x="322" y="-511.5" font-family="SegoeUI" font-size="10.00">&#45; wasTouchConnected</text>
<text text-anchor="start" x="322" y="-500.5" font-family="SegoeUI" font-size="10.00">&#45; CanvasOffset</text>
<polyline fill="none" stroke="black" points="314,-493.5 460,-493.5 "/>
<text text-anchor="start" x="322" y="-481.5" font-family="SegoeUI" font-size="10.00">+ AddPointer()</text>
<text text-anchor="start" x="322" y="-470.5" font-family="SegoeUI" font-size="10.00">+ Reinstall()</text>
<text text-anchor="start" x="322" y="-459.5" font-family="SegoeUI" font-size="10.00">+ Install()</text>
<text text-anchor="start" x="322" y="-448.5" font-family="SegoeUI" font-size="10.00">+ MakePointer&lt; T &gt;()</text>
<text text-anchor="start" x="322" y="-437.5" font-family="SegoeUI" font-size="10.00">+ Uninstall()</text>
<text text-anchor="start" x="322" y="-426.5" font-family="SegoeUI" font-size="10.00">+ Process()</text>
<text text-anchor="start" x="322" y="-415.5" font-family="SegoeUI" font-size="10.00">+ Clone()</text>
<text text-anchor="start" x="322" y="-404.5" font-family="SegoeUI" font-size="10.00">+ EnableMouse()</text>
<text text-anchor="start" x="322" y="-393.5" font-family="SegoeUI" font-size="10.00">+ EnableGaze()</text>
<text text-anchor="start" x="322" y="-382.5" font-family="SegoeUI" font-size="10.00">+ EnableTouch()</text>
<text text-anchor="start" x="322" y="-371.5" font-family="SegoeUI" font-size="10.00">+ EnableHands()</text>
<text text-anchor="start" x="322" y="-360.5" font-family="SegoeUI" font-size="10.00">+ EnableControllers()</text>
<text text-anchor="start" x="322" y="-349.5" font-family="SegoeUI" font-size="10.00"># Awake()</text>
<text text-anchor="start" x="322" y="-338.5" font-family="SegoeUI" font-size="10.00">&#45; SetupDevice()</text>
<text text-anchor="start" x="322" y="-327.5" font-family="SegoeUI" font-size="10.00">&#45; UpdateRay()</text>
<text text-anchor="start" x="322" y="-316.5" font-family="SegoeUI" font-size="10.00">&#45; RaycastAll()</text>
<text text-anchor="start" x="322" y="-305.5" font-family="SegoeUI" font-size="10.00">&#45; GetBool()</text>
<text text-anchor="start" x="322" y="-294.5" font-family="SegoeUI" font-size="10.00">&#45; SetBool()</text>
<text text-anchor="start" x="322" y="-283.5" font-family="SegoeUI" font-size="10.00">&#45; EnableDevice()</text>
<text text-anchor="start" x="322" y="-272.5" font-family="SegoeUI" font-size="10.00">&#45; EnableTouches()</text>
<text text-anchor="start" x="322" y="-261.5" font-family="SegoeUI" font-size="10.00">&#45; EnableHands()</text>
<text text-anchor="start" x="322" y="-250.5" font-family="SegoeUI" font-size="10.00">&#45; EnableControllers()</text>
<text text-anchor="start" x="322" y="-239.5" font-family="SegoeUI" font-size="10.00">&#45; RaycastComparer()</text>
</a>
</g>
</g>
<!-- Node4 -->
<g id="node5" class="node"><title>Node4</title>
<g id="a_node5"><a xlink:href="../../d0/d5e/class_juniper_1_1_unity_1_1_input_1_1_abstract_mobile_input_module.html" target="_top" xlink:title=" ">
<polygon fill="white" stroke="black" points="0,-116.5 0,-184.5 134,-184.5 134,-116.5 0,-116.5"/>
<text text-anchor="start" x="8" y="-172.5" font-family="SegoeUI" font-size="10.00">Juniper.Unity.Input.Abstract</text>
<text text-anchor="middle" x="67" y="-161.5" font-family="SegoeUI" font-size="10.00">MobileInputModule</text>
<polyline fill="none" stroke="black" points="0,-154.5 134,-154.5 "/>
<text text-anchor="middle" x="67" y="-142.5" font-family="SegoeUI" font-size="10.00"> </text>
<polyline fill="none" stroke="black" points="0,-135.5 134,-135.5 "/>
<text text-anchor="start" x="8" y="-123.5" font-family="SegoeUI" font-size="10.00">+ Install()</text>
</a>
</g>
</g>
<!-- Node0&#45;&gt;Node4 -->
<g id="edge4" class="edge"><title>Node0&#45;&gt;Node4</title>
<path fill="none" stroke="midnightblue" d="M307.015,-426.767C238.414,-348.091 143.386,-239.105 96.1207,-184.898"/>
<polygon fill="none" stroke="midnightblue" points="304.777,-429.526 313.987,-434.763 310.053,-424.925 304.777,-429.526"/>
</g>
<!-- Node5 -->
<g id="node6" class="node"><title>Node5</title>
<g id="a_node6"><a xlink:href="../../d7/d3e/class_juniper_1_1_unity_1_1_input_1_1_daydream_input_module.html" target="_top" xlink:title=" ">
<polygon fill="white" stroke="black" points="152.5,-105.5 152.5,-195.5 295.5,-195.5 295.5,-105.5 152.5,-105.5"/>
<text text-anchor="start" x="160.5" y="-183.5" font-family="SegoeUI" font-size="10.00">Juniper.Unity.Input.Daydream</text>
<text text-anchor="middle" x="224" y="-172.5" font-family="SegoeUI" font-size="10.00">InputModule</text>
<polyline fill="none" stroke="black" points="152.5,-165.5 295.5,-165.5 "/>
<text text-anchor="middle" x="224" y="-153.5" font-family="SegoeUI" font-size="10.00"> </text>
<polyline fill="none" stroke="black" points="152.5,-146.5 295.5,-146.5 "/>
<text text-anchor="start" x="160.5" y="-134.5" font-family="SegoeUI" font-size="10.00">+ Install()</text>
<text text-anchor="start" x="160.5" y="-123.5" font-family="SegoeUI" font-size="10.00">+ Uninstall()</text>
<text text-anchor="start" x="160.5" y="-112.5" font-family="SegoeUI" font-size="10.00"># Awake()</text>
</a>
</g>
</g>
<!-- Node0&#45;&gt;Node5 -->
<g id="edge5" class="edge"><title>Node0&#45;&gt;Node5</title>
<path fill="none" stroke="midnightblue" d="M309.868,-344.834C285.31,-289.542 260.222,-233.055 243.557,-195.533"/>
<polygon fill="none" stroke="midnightblue" points="306.705,-346.336 313.963,-354.054 313.102,-343.494 306.705,-346.336"/>
</g>
<!-- Node7 -->
<g id="node8" class="node"><title>Node7</title>
<g id="a_node8"><a xlink:href="../../de/d32/class_juniper_1_1_unity_1_1_input_1_1_standalone_input_module.html" target="_top" xlink:title=" ">
<polygon fill="white" stroke="black" points="313.5,-116.5 313.5,-184.5 460.5,-184.5 460.5,-116.5 313.5,-116.5"/>
<text text-anchor="start" x="321.5" y="-172.5" font-family="SegoeUI" font-size="10.00">Juniper.Unity.Input.Standalone</text>
<text text-anchor="middle" x="387" y="-161.5" font-family="SegoeUI" font-size="10.00">InputModule</text>
<polyline fill="none" stroke="black" points="313.5,-154.5 460.5,-154.5 "/>
<text text-anchor="middle" x="387" y="-142.5" font-family="SegoeUI" font-size="10.00"> </text>
<polyline fill="none" stroke="black" points="313.5,-135.5 460.5,-135.5 "/>
<text text-anchor="start" x="321.5" y="-123.5" font-family="SegoeUI" font-size="10.00">+ Install()</text>
</a>
</g>
</g>
<!-- Node0&#45;&gt;Node7 -->
<g id="edge7" class="edge"><title>Node0&#45;&gt;Node7</title>
<path fill="none" stroke="midnightblue" d="M387,-222.358C387,-208.049 387,-195.23 387,-184.559"/>
<polygon fill="none" stroke="midnightblue" points="383.5,-222.494 387,-232.494 390.5,-222.494 383.5,-222.494"/>
</g>
<!-- Node8 -->
<g id="node9" class="node"><title>Node8</title>
<g id="a_node9"><a xlink:href="../../d8/d50/class_juniper_1_1_unity_1_1_input_1_1_vive_focus_input_module.html" target="_top" xlink:title=" ">
<polygon fill="white" stroke="black" points="478.5,-116.5 478.5,-184.5 595.5,-184.5 595.5,-116.5 478.5,-116.5"/>
<text text-anchor="start" x="486.5" y="-172.5" font-family="SegoeUI" font-size="10.00">Juniper.Unity.Input.Vive</text>
<text text-anchor="middle" x="537" y="-161.5" font-family="SegoeUI" font-size="10.00">FocusInputModule</text>
<polyline fill="none" stroke="black" points="478.5,-154.5 595.5,-154.5 "/>
<text text-anchor="middle" x="537" y="-142.5" font-family="SegoeUI" font-size="10.00"> </text>
<polyline fill="none" stroke="black" points="478.5,-135.5 595.5,-135.5 "/>
<text text-anchor="start" x="486.5" y="-123.5" font-family="SegoeUI" font-size="10.00">+ Install()</text>
</a>
</g>
</g>
<!-- Node0&#45;&gt;Node8 -->
<g id="edge8" class="edge"><title>Node0&#45;&gt;Node8</title>
<path fill="none" stroke="midnightblue" d="M463.854,-330.463C486.793,-274.34 509.5,-218.783 523.386,-184.809"/>
<polygon fill="none" stroke="midnightblue" points="460.566,-329.257 460.023,-339.838 467.046,-331.905 460.566,-329.257"/>
</g>
<!-- Node9 -->
<g id="node10" class="node"><title>Node9</title>
<g id="a_node10"><a xlink:href="../../d1/d22/class_juniper_1_1_unity_1_1_input_1_1_windows_m_r_input_module.html" target="_top" xlink:title=" ">
<polygon fill="white" stroke="black" points="614,-111 614,-190 752,-190 752,-111 614,-111"/>
<text text-anchor="start" x="622" y="-178" font-family="SegoeUI" font-size="10.00">Juniper.Unity.Input.Windows</text>
<text text-anchor="middle" x="683" y="-167" font-family="SegoeUI" font-size="10.00">MRInputModule</text>
<polyline fill="none" stroke="black" points="614,-160 752,-160 "/>
<text text-anchor="middle" x="683" y="-148" font-family="SegoeUI" font-size="10.00"> </text>
<polyline fill="none" stroke="black" points="614,-141 752,-141 "/>
<text text-anchor="start" x="622" y="-129" font-family="SegoeUI" font-size="10.00">+ Install()</text>
<text text-anchor="start" x="622" y="-118" font-family="SegoeUI" font-size="10.00">+ UpdateModule()</text>
</a>
</g>
</g>
<!-- Node0&#45;&gt;Node9 -->
<g id="edge9" class="edge"><title>Node0&#45;&gt;Node9</title>
<path fill="none" stroke="midnightblue" d="M466.735,-419.64C527.544,-344.244 608.043,-244.436 651.662,-190.355"/>
<polygon fill="none" stroke="midnightblue" points="463.722,-417.8 460.169,-427.781 469.171,-422.194 463.722,-417.8"/>
</g>
<!-- Node1 -->
<g id="node2" class="node"><title>Node1</title>
<g id="a_node2"><a xlink:title=" ">
<polygon fill="white" stroke="#bfbfbf" points="235.5,-887.5 235.5,-944.5 334.5,-944.5 334.5,-887.5 235.5,-887.5"/>
<text text-anchor="middle" x="285" y="-932.5" font-family="SegoeUI" font-size="10.00">PointerInputModule</text>
<polyline fill="none" stroke="#bfbfbf" points="235.5,-925.5 334.5,-925.5 "/>
<text text-anchor="middle" x="285" y="-913.5" font-family="SegoeUI" font-size="10.00"> </text>
<polyline fill="none" stroke="#bfbfbf" points="235.5,-906.5 334.5,-906.5 "/>
<text text-anchor="middle" x="285" y="-894.5" font-family="SegoeUI" font-size="10.00"> </text>
</a>
</g>
</g>
<!-- Node1&#45;&gt;Node0 -->
<g id="edge1" class="edge"><title>Node1&#45;&gt;Node0</title>
<path fill="none" stroke="midnightblue" d="M294.733,-877.357C299.781,-857.831 306.449,-832.045 313.895,-803.243"/>
<polygon fill="none" stroke="midnightblue" points="291.287,-876.702 292.172,-887.26 298.064,-878.454 291.287,-876.702"/>
</g>
<!-- Node2 -->
<g id="node3" class="node"><title>Node2</title>
<g id="a_node3"><a xlink:href="../../db/d28/interface_juniper_1_1_i_installable.html" target="_top" xlink:title="Defines an interface for objects that can be installed and have their installation progress tracked.">
<polygon fill="white" stroke="black" points="352.5,-876.5 352.5,-955.5 421.5,-955.5 421.5,-876.5 352.5,-876.5"/>
<text text-anchor="middle" x="387" y="-943.5" font-family="SegoeUI" font-size="10.00">IInstallable</text>
<polyline fill="none" stroke="black" points="352.5,-936.5 421.5,-936.5 "/>
<text text-anchor="middle" x="387" y="-924.5" font-family="SegoeUI" font-size="10.00"> </text>
<polyline fill="none" stroke="black" points="352.5,-917.5 421.5,-917.5 "/>
<text text-anchor="start" x="360.5" y="-905.5" font-family="SegoeUI" font-size="10.00">+ Install()</text>
<text text-anchor="start" x="360.5" y="-894.5" font-family="SegoeUI" font-size="10.00">+ Reinstall()</text>
<text text-anchor="start" x="360.5" y="-883.5" font-family="SegoeUI" font-size="10.00">+ Uninstall()</text>
</a>
</g>
</g>
<!-- Node2&#45;&gt;Node0 -->
<g id="edge2" class="edge"><title>Node2&#45;&gt;Node0</title>
<path fill="none" stroke="midnightblue" d="M387,-866.382C387,-849.46 387,-829.064 387,-806.745"/>
<polygon fill="none" stroke="midnightblue" points="383.5,-866.455 387,-876.455 390.5,-866.455 383.5,-866.455"/>
</g>
<!-- Node3 -->
<g id="node4" class="node"><title>Node3</title>
<g id="a_node4"><a xlink:href="../../d5/da1/interface_juniper_1_1_unity_1_1_input_1_1_i_input_module.html" target="_top" xlink:title=" ">
<polygon fill="white" stroke="black" points="439.5,-843.5 439.5,-988.5 550.5,-988.5 550.5,-843.5 439.5,-843.5"/>
<text text-anchor="middle" x="495" y="-976.5" font-family="SegoeUI" font-size="10.00">IInputModule</text>
<polyline fill="none" stroke="black" points="439.5,-969.5 550.5,-969.5 "/>
<text text-anchor="start" x="447.5" y="-957.5" font-family="SegoeUI" font-size="10.00">+ AnyPointerDragging</text>
<polyline fill="none" stroke="black" points="439.5,-950.5 550.5,-950.5 "/>
<text text-anchor="start" x="447.5" y="-938.5" font-family="SegoeUI" font-size="10.00">+ AddPointer()</text>
<text text-anchor="start" x="447.5" y="-927.5" font-family="SegoeUI" font-size="10.00">+ Clone()</text>
<text text-anchor="start" x="447.5" y="-916.5" font-family="SegoeUI" font-size="10.00">+ EnableControllers()</text>
<text text-anchor="start" x="447.5" y="-905.5" font-family="SegoeUI" font-size="10.00">+ EnableGaze()</text>
<text text-anchor="start" x="447.5" y="-894.5" font-family="SegoeUI" font-size="10.00">+ EnableHands()</text>
<text text-anchor="start" x="447.5" y="-883.5" font-family="SegoeUI" font-size="10.00">+ EnableMouse()</text>
<text text-anchor="start" x="447.5" y="-872.5" font-family="SegoeUI" font-size="10.00">+ EnableTouch()</text>
<text text-anchor="start" x="447.5" y="-861.5" font-family="SegoeUI" font-size="10.00">+ MakePointer&lt; T &gt;()</text>
<text text-anchor="start" x="447.5" y="-850.5" font-family="SegoeUI" font-size="10.00">+ Process()</text>
</a>
</g>
</g>
<!-- Node3&#45;&gt;Node0 -->
<g id="edge3" class="edge"><title>Node3&#45;&gt;Node0</title>
<path fill="none" stroke="midnightblue" d="M472.675,-833.452C468.778,-819.217 464.541,-803.738 460.106,-787.539"/>
<polygon fill="none" stroke="midnightblue" points="469.3,-834.38 475.317,-843.101 476.052,-832.532 469.3,-834.38"/>
</g>
<!-- Node6 -->
<g id="node7" class="node"><title>Node6</title>
<g id="a_node7"><a xlink:href="../../d0/d5c/class_juniper_1_1_unity_1_1_input_1_1_unified_input_module.html" target="_top" xlink:title=" ">
<polygon fill="white" stroke="black" points="160,-0.5 160,-68.5 288,-68.5 288,-0.5 160,-0.5"/>
<text text-anchor="start" x="168" y="-56.5" font-family="SegoeUI" font-size="10.00">Juniper.Unity.Input.Unified</text>
<text text-anchor="middle" x="224" y="-45.5" font-family="SegoeUI" font-size="10.00">InputModule</text>
<polyline fill="none" stroke="black" points="160,-38.5 288,-38.5 "/>
<text text-anchor="middle" x="224" y="-26.5" font-family="SegoeUI" font-size="10.00"> </text>
<polyline fill="none" stroke="black" points="160,-19.5 288,-19.5 "/>
<text text-anchor="middle" x="224" y="-7.5" font-family="SegoeUI" font-size="10.00"> </text>
</a>
</g>
</g>
<!-- Node5&#45;&gt;Node6 -->
<g id="edge6" class="edge"><title>Node5&#45;&gt;Node6</title>
<path fill="none" stroke="midnightblue" d="M224,-95.3164C224,-86.2849 224,-77.1589 224,-68.8483"/>
<polygon fill="none" stroke="midnightblue" points="220.5,-95.4246 224,-105.425 227.5,-95.4247 220.5,-95.4246"/>
</g>
</g>
</svg>
        <g id="navigator" transform="translate(0 0)" fill="#404254">
                <rect fill="#f2f5e9" fill-opacity="0.5" stroke="#606060" stroke-width=".5" x="0" y="0" width="60" height="60"/>
                <use id="zoomplus" xlink:href="#zoomPlus" x="17" y="9" onmousedown="handleZoom(evt,'in')"/>
                <use id="zoomminus" xlink:href="#zoomMin" x="42" y="9" onmousedown="handleZoom(evt,'out')"/>
                <use id="reset" xlink:href="#resetDef" x="30" y="36" onmousedown="handleReset()"/>
                <g id="arrowUp" xlink:href="#dirArrow" transform="translate(30 24)" onmousedown="handlePan(0,-1)">
                  <use xlink:href="#rim" fill="#404040">
                        <set attributeName="fill" to="#808080" begin="arrowUp.mouseover" end="arrowUp.mouseout"/>
                  </use>
                  <path fill="none" stroke="white" stroke-width="1.5" d="M0,-3.0v7 M-2.5,-0.5L0,-3.0L2.5,-0.5"/>
                </g>
                <g id="arrowRight" xlink:href="#dirArrow" transform="rotate(90) translate(36 -43)" onmousedown="handlePan(1,0)">
                  <use xlink:href="#rim" fill="#404040">
                        <set attributeName="fill" to="#808080" begin="arrowRight.mouseover" end="arrowRight.mouseout"/>
                  </use>
                  <path fill="none" stroke="white" stroke-width="1.5" d="M0,-3.0v7 M-2.5,-0.5L0,-3.0L2.5,-0.5"/>
                </g>
                <g id="arrowDown" xlink:href="#dirArrow" transform="rotate(180) translate(-30 -48)" onmousedown="handlePan(0,1)">
                  <use xlink:href="#rim" fill="#404040">
                        <set attributeName="fill" to="#808080" begin="arrowDown.mouseover" end="arrowDown.mouseout"/>
                  </use>
                  <path fill="none" stroke="white" stroke-width="1.5" d="M0,-3.0v7 M-2.5,-0.5L0,-3.0L2.5,-0.5"/>
                </g>
                <g id="arrowLeft" xlink:href="#dirArrow" transform="rotate(270) translate(-36 17)" onmousedown="handlePan(-1,0)">
                  <use xlink:href="#rim" fill="#404040">
                        <set attributeName="fill" to="#808080" begin="arrowLeft.mouseover" end="arrowLeft.mouseout"/>
                  </use>
                  <path fill="none" stroke="white" stroke-width="1.5" d="M0,-3.0v7 M-2.5,-0.5L0,-3.0L2.5,-0.5"/>
                </g>
        </g>
        <svg viewBox="0 0 15 15" width="100%" height="30px" preserveAspectRatio="xMaxYMin meet">
         <g id="arrow_out" transform="scale(0.3 0.3)">
          <a xlink:href="class_juniper_1_1_unity_1_1_input_1_1_abstract_unified_input_module__inherit__graph_org.svg" target="_base">
           <rect id="button" ry="5" rx="5" y="6" x="6" height="38" width="38"
                fill="#f2f5e9" fill-opacity="0.5" stroke="#606060" stroke-width="1.0"/>
           <path id="arrow"
             d="M 11.500037,31.436501 C 11.940474,20.09759 22.043105,11.32322 32.158766,21.979434 L 37.068811,17.246167 C 37.068811,17.246167 37.088388,32 37.088388,32 L 22.160133,31.978069 C 22.160133,31.978069 26.997745,27.140456 26.997745,27.140456 C 18.528582,18.264221 13.291696,25.230495 11.500037,31.436501 z"
             style="fill:#404040;"/>
          </a>
         </g>
        </svg>
</svg>
