<?xml version="1.0" encoding="UTF-8" standalone="no"?>
<!DOCTYPE svg PUBLIC "-//W3C//DTD SVG 1.1//EN"
 "http://www.w3.org/Graphics/SVG/1.1/DTD/svg11.dtd">
<!-- Generated by graphviz version 2.38.0 (20140413.2041)
 -->
<!-- Title: Juniper.Unity.Haptics.AbstractAndroidAPIHaptics Pages: 1 -->
<svg width="308pt" height="783pt"
 viewBox="0.00 0.00 308.00 783.00" xmlns="http://www.w3.org/2000/svg" xmlns:xlink="http://www.w3.org/1999/xlink">
<g id="graph0" class="graph" transform="scale(1 1) rotate(0) translate(4 779)">
<title>Juniper.Unity.Haptics.AbstractAndroidAPIHaptics</title>
<polygon fill="white" stroke="none" points="-4,4 -4,-779 304,-779 304,4 -4,4"/>
<!-- Node0 -->
<g id="node1" class="node"><title>Node0</title>
<g id="a_node1"><a xlink:title="Android has two APIs for haptic feedback, but they all pump through the Vibrator system service....">
<polygon fill="#bfbfbf" stroke="black" points="78,-171.5 78,-272.5 221,-272.5 221,-171.5 78,-171.5"/>
<text text-anchor="start" x="86" y="-260.5" font-family="SegoeUI" font-size="10.00">Juniper.Unity.Haptics.Abstract</text>
<text text-anchor="middle" x="149.5" y="-249.5" font-family="SegoeUI" font-size="10.00">AndroidAPIHaptics</text>
<polyline fill="none" stroke="black" points="78,-242.5 221,-242.5 "/>
<text text-anchor="start" x="86" y="-230.5" font-family="SegoeUI" font-size="10.00"># vibrator</text>
<polyline fill="none" stroke="black" points="78,-223.5 221,-223.5 "/>
<text text-anchor="start" x="86" y="-211.5" font-family="SegoeUI" font-size="10.00">+ Cancel()</text>
<text text-anchor="start" x="86" y="-200.5" font-family="SegoeUI" font-size="10.00"># Awake()</text>
<text text-anchor="start" x="86" y="-189.5" font-family="SegoeUI" font-size="10.00"># VibrateCoroutine()</text>
<text text-anchor="start" x="86" y="-178.5" font-family="SegoeUI" font-size="10.00"># PlayCoroutine()</text>
</a>
</g>
</g>
<!-- Node4 -->
<g id="node5" class="node"><title>Node4</title>
<g id="a_node5"><a xlink:href="../../df/df6/class_juniper_1_1_unity_1_1_haptics_1_1_android_a_p_i1_haptics.html" target="_top" xlink:title="Implements haptic feedback for Android API levels less than 26. Vibration amplitude is not available ...">
<polygon fill="white" stroke="black" points="0,-28 0,-107 141,-107 141,-28 0,-28"/>
<text text-anchor="start" x="8" y="-95" font-family="SegoeUI" font-size="10.00">Juniper.Unity.Haptics.Android</text>
<text text-anchor="middle" x="70.5" y="-84" font-family="SegoeUI" font-size="10.00">API1Haptics</text>
<polyline fill="none" stroke="black" points="0,-77 141,-77 "/>
<text text-anchor="middle" x="70.5" y="-65" font-family="SegoeUI" font-size="10.00"> </text>
<polyline fill="none" stroke="black" points="0,-58 141,-58 "/>
<text text-anchor="start" x="8" y="-46" font-family="SegoeUI" font-size="10.00"># VibrateCoroutine()</text>
<text text-anchor="start" x="8" y="-35" font-family="SegoeUI" font-size="10.00"># PlayCoroutine()</text>
</a>
</g>
</g>
<!-- Node0&#45;&gt;Node4 -->
<g id="edge4" class="edge"><title>Node0&#45;&gt;Node4</title>
<path fill="none" stroke="midnightblue" d="M119.206,-162.521C109.596,-143.97 99.2163,-123.933 90.518,-107.142"/>
<polygon fill="none" stroke="midnightblue" points="116.143,-164.218 123.851,-171.488 122.359,-160.998 116.143,-164.218"/>
</g>
<!-- Node5 -->
<g id="node6" class="node"><title>Node5</title>
<g id="a_node6"><a xlink:href="../../d9/d56/class_juniper_1_1_unity_1_1_haptics_1_1_android_a_p_i26_haptics.html" target="_top" xlink:title="Haptic system that implements the latest Android API version (26), which enables vibrations of differ...">
<polygon fill="white" stroke="black" points="159,-0.5 159,-134.5 300,-134.5 300,-0.5 159,-0.5"/>
<text text-anchor="start" x="167" y="-122.5" font-family="SegoeUI" font-size="10.00">Juniper.Unity.Haptics.Android</text>
<text text-anchor="middle" x="229.5" y="-111.5" font-family="SegoeUI" font-size="10.00">API26Haptics</text>
<polyline fill="none" stroke="black" points="159,-104.5 300,-104.5 "/>
<text text-anchor="start" x="167" y="-92.5" font-family="SegoeUI" font-size="10.00">&#45; VibrationEffect</text>
<text text-anchor="start" x="167" y="-81.5" font-family="SegoeUI" font-size="10.00">&#45; DefaultAmplitude</text>
<polyline fill="none" stroke="black" points="159,-74.5 300,-74.5 "/>
<text text-anchor="start" x="167" y="-62.5" font-family="SegoeUI" font-size="10.00"># Awake()</text>
<text text-anchor="start" x="167" y="-51.5" font-family="SegoeUI" font-size="10.00"># VibrateCoroutine()</text>
<text text-anchor="start" x="167" y="-40.5" font-family="SegoeUI" font-size="10.00"># VibrateCoroutine()</text>
<text text-anchor="start" x="167" y="-29.5" font-family="SegoeUI" font-size="10.00"># PlayCoroutine()</text>
<text text-anchor="start" x="167" y="-18.5" font-family="SegoeUI" font-size="10.00"># PlayCoroutine()</text>
<text text-anchor="start" x="167" y="-7.5" font-family="SegoeUI" font-size="10.00">&#45; CreateVibrationEffect()</text>
</a>
</g>
</g>
<!-- Node0&#45;&gt;Node5 -->
<g id="edge5" class="edge"><title>Node0&#45;&gt;Node5</title>
<path fill="none" stroke="midnightblue" d="M180.178,-162.521C184.955,-153.414 189.92,-143.949 194.779,-134.686"/>
<polygon fill="none" stroke="midnightblue" points="177.02,-161.006 175.474,-171.488 183.219,-164.258 177.02,-161.006"/>
</g>
<!-- Node1 -->
<g id="node2" class="node"><title>Node1</title>
<g id="a_node2"><a xlink:href="../../de/d85/class_juniper_1_1_unity_1_1_haptics_1_1_abstract_haptic_expressor.html" target="_top" xlink:title="Non&#45;iOS systems do not have built&#45;in haptic patterns. This class replicates the functionality of the ...">
<polygon fill="white" stroke="black" points="89.5,-309.5 89.5,-509.5 209.5,-509.5 209.5,-309.5 89.5,-309.5"/>
<text text-anchor="middle" x="149.5" y="-497.5" font-family="SegoeUI" font-size="10.00">AbstractHapticExpressor</text>
<polyline fill="none" stroke="black" points="89.5,-490.5 209.5,-490.5 "/>
<text text-anchor="middle" x="149.5" y="-478.5" font-family="SegoeUI" font-size="10.00"> </text>
<polyline fill="none" stroke="black" points="89.5,-471.5 209.5,-471.5 "/>
<text text-anchor="start" x="97.5" y="-459.5" font-family="SegoeUI" font-size="10.00">+ Cancel()</text>
<text text-anchor="start" x="97.5" y="-448.5" font-family="SegoeUI" font-size="10.00">+ Play()</text>
<text text-anchor="start" x="97.5" y="-437.5" font-family="SegoeUI" font-size="10.00">+ Play()</text>
<text text-anchor="start" x="97.5" y="-426.5" font-family="SegoeUI" font-size="10.00">+ Vibrate()</text>
<text text-anchor="start" x="97.5" y="-415.5" font-family="SegoeUI" font-size="10.00">+ Vibrate()</text>
<text text-anchor="start" x="97.5" y="-404.5" font-family="SegoeUI" font-size="10.00">+ Play()</text>
<text text-anchor="start" x="97.5" y="-393.5" font-family="SegoeUI" font-size="10.00">+ Play()</text>
<text text-anchor="start" x="97.5" y="-382.5" font-family="SegoeUI" font-size="10.00">+ Vibrate()</text>
<text text-anchor="start" x="97.5" y="-371.5" font-family="SegoeUI" font-size="10.00"># VibrateCoroutine()</text>
<text text-anchor="start" x="97.5" y="-360.5" font-family="SegoeUI" font-size="10.00"># PlayCoroutine()</text>
<text text-anchor="start" x="97.5" y="-349.5" font-family="SegoeUI" font-size="10.00"># PlayCoroutine()</text>
<text text-anchor="start" x="97.5" y="-338.5" font-family="SegoeUI" font-size="10.00"># VibrateCoroutine()</text>
<text text-anchor="start" x="97.5" y="-327.5" font-family="SegoeUI" font-size="10.00">&#45; PlayCoroutine()</text>
<text text-anchor="start" x="97.5" y="-316.5" font-family="SegoeUI" font-size="10.00">&#45; VibrateCoroutine()</text>
</a>
</g>
</g>
<!-- Node1&#45;&gt;Node0 -->
<g id="edge1" class="edge"><title>Node1&#45;&gt;Node0</title>
<path fill="none" stroke="midnightblue" d="M149.5,-298.972C149.5,-289.948 149.5,-281.144 149.5,-272.916"/>
<polygon fill="none" stroke="midnightblue" points="146,-299.233 149.5,-309.233 153,-299.233 146,-299.233"/>
</g>
<!-- Node2 -->
<g id="node3" class="node"><title>Node2</title>
<g id="a_node3"><a xlink:href="../../dd/d24/class_juniper_1_1_unity_1_1_haptics_1_1_abstract_haptic_device.html" target="_top" xlink:title="An interface for all haptic device subsystems.">
<polygon fill="white" stroke="black" points="96.5,-546.5 96.5,-680.5 202.5,-680.5 202.5,-546.5 96.5,-546.5"/>
<text text-anchor="middle" x="149.5" y="-668.5" font-family="SegoeUI" font-size="10.00">AbstractHapticDevice</text>
<polyline fill="none" stroke="black" points="96.5,-661.5 202.5,-661.5 "/>
<text text-anchor="middle" x="149.5" y="-649.5" font-family="SegoeUI" font-size="10.00"> </text>
<polyline fill="none" stroke="black" points="96.5,-642.5 202.5,-642.5 "/>
<text text-anchor="start" x="104.5" y="-630.5" font-family="SegoeUI" font-size="10.00">+ Cancel()</text>
<text text-anchor="start" x="104.5" y="-619.5" font-family="SegoeUI" font-size="10.00">+ Play()</text>
<text text-anchor="start" x="104.5" y="-608.5" font-family="SegoeUI" font-size="10.00">+ Vibrate()</text>
<text text-anchor="start" x="104.5" y="-597.5" font-family="SegoeUI" font-size="10.00">+ Play()</text>
<text text-anchor="start" x="104.5" y="-586.5" font-family="SegoeUI" font-size="10.00">+ Play()</text>
<text text-anchor="start" x="104.5" y="-575.5" font-family="SegoeUI" font-size="10.00">+ Play()</text>
<text text-anchor="start" x="104.5" y="-564.5" font-family="SegoeUI" font-size="10.00">+ Vibrate()</text>
<text text-anchor="start" x="104.5" y="-553.5" font-family="SegoeUI" font-size="10.00">+ Vibrate()</text>
</a>
</g>
</g>
<!-- Node2&#45;&gt;Node1 -->
<g id="edge2" class="edge"><title>Node2&#45;&gt;Node1</title>
<path fill="none" stroke="midnightblue" d="M149.5,-536.302C149.5,-527.62 149.5,-518.677 149.5,-509.752"/>
<polygon fill="none" stroke="midnightblue" points="146,-536.358 149.5,-546.358 153,-536.358 146,-536.358"/>
</g>
<!-- Node3 -->
<g id="node4" class="node"><title>Node3</title>
<g id="a_node4"><a xlink:title=" ">
<polygon fill="white" stroke="#bfbfbf" points="108.5,-717.5 108.5,-774.5 190.5,-774.5 190.5,-717.5 108.5,-717.5"/>
<text text-anchor="middle" x="149.5" y="-762.5" font-family="SegoeUI" font-size="10.00">MonoBehaviour</text>
<polyline fill="none" stroke="#bfbfbf" points="108.5,-755.5 190.5,-755.5 "/>
<text text-anchor="middle" x="149.5" y="-743.5" font-family="SegoeUI" font-size="10.00"> </text>
<polyline fill="none" stroke="#bfbfbf" points="108.5,-736.5 190.5,-736.5 "/>
<text text-anchor="middle" x="149.5" y="-724.5" font-family="SegoeUI" font-size="10.00"> </text>
</a>
</g>
</g>
<!-- Node3&#45;&gt;Node2 -->
<g id="edge3" class="edge"><title>Node3&#45;&gt;Node2</title>
<path fill="none" stroke="midnightblue" d="M149.5,-707.16C149.5,-698.782 149.5,-689.668 149.5,-680.533"/>
<polygon fill="none" stroke="midnightblue" points="146,-707.324 149.5,-717.324 153,-707.324 146,-707.324"/>
</g>
</g>
</svg>
