<?xml version="1.0" encoding="UTF-8" standalone="no"?>
<!DOCTYPE svg PUBLIC "-//W3C//DTD SVG 1.1//EN"
 "http://www.w3.org/Graphics/SVG/1.1/DTD/svg11.dtd">
<!-- Generated by graphviz version 2.38.0 (20140413.2041)
 -->
<!-- Title: Juniper.Unity.LightMapping.LightMapSwitcher Pages: 1 -->
<svg width="142pt" height="215pt"
 viewBox="0.00 0.00 142.00 215.00" xmlns="http://www.w3.org/2000/svg" xmlns:xlink="http://www.w3.org/1999/xlink">
<g id="graph0" class="graph" transform="scale(1 1) rotate(0) translate(4 211)">
<title>Juniper.Unity.LightMapping.LightMapSwitcher</title>
<polygon fill="white" stroke="none" points="-4,4 -4,-211 138,-211 138,4 -4,4"/>
<!-- Node0 -->
<g id="node1" class="node"><title>Node0</title>
<g id="a_node1"><a xlink:title="The LightMapSwitcher takes different sets of static light map sets and switches between them at runti...">
<polygon fill="#bfbfbf" stroke="black" points="0,-0.5 0,-112.5 134,-112.5 134,-0.5 0,-0.5"/>
<text text-anchor="start" x="8" y="-100.5" font-family="SegoeUI" font-size="10.00">Juniper.Unity.LightMapping.</text>
<text text-anchor="middle" x="67" y="-89.5" font-family="SegoeUI" font-size="10.00">LightMapSwitcher</text>
<polyline fill="none" stroke="black" points="0,-82.5 134,-82.5 "/>
<text text-anchor="start" x="8" y="-70.5" font-family="SegoeUI" font-size="10.00">+ Index</text>
<text text-anchor="start" x="8" y="-59.5" font-family="SegoeUI" font-size="10.00">+ Sun</text>
<text text-anchor="start" x="8" y="-48.5" font-family="SegoeUI" font-size="10.00">+ LightMapSets</text>
<text text-anchor="start" x="8" y="-37.5" font-family="SegoeUI" font-size="10.00">&#45; prevIndex</text>
<polyline fill="none" stroke="black" points="0,-30.5 134,-30.5 "/>
<text text-anchor="start" x="8" y="-18.5" font-family="SegoeUI" font-size="10.00">+ Update()</text>
<text text-anchor="start" x="8" y="-7.5" font-family="SegoeUI" font-size="10.00">+ Next()</text>
</a>
</g>
</g>
<!-- Node1 -->
<g id="node2" class="node"><title>Node1</title>
<g id="a_node2"><a xlink:title=" ">
<polygon fill="white" stroke="#bfbfbf" points="26,-149.5 26,-206.5 108,-206.5 108,-149.5 26,-149.5"/>
<text text-anchor="middle" x="67" y="-194.5" font-family="SegoeUI" font-size="10.00">MonoBehaviour</text>
<polyline fill="none" stroke="#bfbfbf" points="26,-187.5 108,-187.5 "/>
<text text-anchor="middle" x="67" y="-175.5" font-family="SegoeUI" font-size="10.00"> </text>
<polyline fill="none" stroke="#bfbfbf" points="26,-168.5 108,-168.5 "/>
<text text-anchor="middle" x="67" y="-156.5" font-family="SegoeUI" font-size="10.00"> </text>
</a>
</g>
</g>
<!-- Node1&#45;&gt;Node0 -->
<g id="edge1" class="edge"><title>Node1&#45;&gt;Node0</title>
<path fill="none" stroke="midnightblue" d="M67,-139.108C67,-130.748 67,-121.725 67,-112.834"/>
<polygon fill="none" stroke="midnightblue" points="63.5001,-139.284 67,-149.284 70.5001,-139.284 63.5001,-139.284"/>
</g>
</g>
</svg>
