<?xml version="1.0" encoding="UTF-8" standalone="no"?>
<!DOCTYPE svg PUBLIC "-//W3C//DTD SVG 1.1//EN"
 "http://www.w3.org/Graphics/SVG/1.1/DTD/svg11.dtd">
<!-- Generated by graphviz version 2.38.0 (20140413.2041)
 -->
<!-- Title: Juniper.Unity.Input.AbstractVelocityLocomotion Pages: 1 -->
<svg width="462pt" height="469pt"
 viewBox="0.00 0.00 462.00 469.00" xmlns="http://www.w3.org/2000/svg" xmlns:xlink="http://www.w3.org/1999/xlink">
<g id="graph0" class="graph" transform="scale(1 1) rotate(0) translate(4 465)">
<title>Juniper.Unity.Input.AbstractVelocityLocomotion</title>
<polygon fill="white" stroke="none" points="-4,4 -4,-465 458,-465 458,4 -4,4"/>
<!-- Node0 -->
<g id="node1" class="node"><title>Node0</title>
<g id="a_node1"><a xlink:title=" ">
<polygon fill="#bfbfbf" stroke="black" points="155,-243.5 155,-366.5 289,-366.5 289,-243.5 155,-243.5"/>
<text text-anchor="start" x="163" y="-354.5" font-family="SegoeUI" font-size="10.00">Juniper.Unity.Input.Abstract</text>
<text text-anchor="middle" x="222" y="-343.5" font-family="SegoeUI" font-size="10.00">VelocityLocomotion</text>
<polyline fill="none" stroke="black" points="155,-336.5 289,-336.5 "/>
<text text-anchor="start" x="163" y="-324.5" font-family="SegoeUI" font-size="10.00">+ moveSpeed</text>
<text text-anchor="start" x="163" y="-313.5" font-family="SegoeUI" font-size="10.00">+ jink</text>
<text text-anchor="start" x="163" y="-302.5" font-family="SegoeUI" font-size="10.00"># MOVEMENT_SCALE</text>
<text text-anchor="start" x="163" y="-291.5" font-family="SegoeUI" font-size="10.00"># velocity</text>
<text text-anchor="start" x="163" y="-280.5" font-family="SegoeUI" font-size="10.00">&#45; stage</text>
<polyline fill="none" stroke="black" points="155,-273.5 289,-273.5 "/>
<text text-anchor="start" x="163" y="-261.5" font-family="SegoeUI" font-size="10.00">+ Awake()</text>
<text text-anchor="start" x="163" y="-250.5" font-family="SegoeUI" font-size="10.00">+ Update()</text>
</a>
</g>
</g>
<!-- Node2 -->
<g id="node3" class="node"><title>Node2</title>
<g id="a_node3"><a xlink:href="../../db/dbe/class_juniper_1_1_unity_1_1_input_1_1_hover_craft.html" target="_top" xlink:title=" ">
<polygon fill="white" stroke="black" points="0,-105.5 0,-206.5 124,-206.5 124,-105.5 0,-105.5"/>
<text text-anchor="start" x="8" y="-194.5" font-family="SegoeUI" font-size="10.00">Juniper.Unity.Input.Hover</text>
<text text-anchor="middle" x="62" y="-183.5" font-family="SegoeUI" font-size="10.00">Craft</text>
<polyline fill="none" stroke="black" points="0,-176.5 124,-176.5 "/>
<text text-anchor="start" x="8" y="-164.5" font-family="SegoeUI" font-size="10.00">+ Pointer</text>
<text text-anchor="start" x="8" y="-153.5" font-family="SegoeUI" font-size="10.00">+ ForwardPressed</text>
<text text-anchor="start" x="8" y="-142.5" font-family="SegoeUI" font-size="10.00">+ BackPressed</text>
<polyline fill="none" stroke="black" points="0,-135.5 124,-135.5 "/>
<text text-anchor="start" x="8" y="-123.5" font-family="SegoeUI" font-size="10.00">+ Awake()</text>
<text text-anchor="start" x="8" y="-112.5" font-family="SegoeUI" font-size="10.00">+ Update()</text>
</a>
</g>
</g>
<!-- Node0&#45;&gt;Node2 -->
<g id="edge2" class="edge"><title>Node0&#45;&gt;Node2</title>
<path fill="none" stroke="midnightblue" d="M148.495,-236.468C137.607,-226.464 126.556,-216.311 116.158,-206.758"/>
<polygon fill="none" stroke="midnightblue" points="146.266,-239.173 155.998,-243.361 151.002,-234.018 146.266,-239.173"/>
</g>
<!-- Node3 -->
<g id="node4" class="node"><title>Node3</title>
<g id="a_node4"><a xlink:href="../../d1/df3/class_juniper_1_1_unity_1_1_input_1_1_no_locomotion.html" target="_top" xlink:title="Controlling the camera from a desktop system. Very useful for quickly debugging things.">
<polygon fill="white" stroke="black" points="142.5,-127.5 142.5,-184.5 301.5,-184.5 301.5,-127.5 142.5,-127.5"/>
<text text-anchor="middle" x="222" y="-172.5" font-family="SegoeUI" font-size="10.00">Juniper.Unity.Input.NoLocomotion</text>
<polyline fill="none" stroke="black" points="142.5,-165.5 301.5,-165.5 "/>
<text text-anchor="middle" x="222" y="-153.5" font-family="SegoeUI" font-size="10.00"> </text>
<polyline fill="none" stroke="black" points="142.5,-146.5 301.5,-146.5 "/>
<text text-anchor="middle" x="222" y="-134.5" font-family="SegoeUI" font-size="10.00"> </text>
</a>
</g>
</g>
<!-- Node0&#45;&gt;Node3 -->
<g id="edge3" class="edge"><title>Node0&#45;&gt;Node3</title>
<path fill="none" stroke="midnightblue" d="M222,-233.237C222,-215.953 222,-198.467 222,-184.609"/>
<polygon fill="none" stroke="midnightblue" points="218.5,-233.361 222,-243.361 225.5,-233.361 218.5,-233.361"/>
</g>
<!-- Node5 -->
<g id="node6" class="node"><title>Node5</title>
<g id="a_node6"><a xlink:href="../../db/def/class_juniper_1_1_unity_1_1_input_1_1_running_movement.html" target="_top" xlink:title="Controlling the camera from a desktop system. Very useful for quickly debugging things.">
<polygon fill="white" stroke="black" points="320,-122 320,-190 454,-190 454,-122 320,-122"/>
<text text-anchor="start" x="328" y="-178" font-family="SegoeUI" font-size="10.00">Juniper.Unity.Input.Running</text>
<text text-anchor="middle" x="387" y="-167" font-family="SegoeUI" font-size="10.00">Movement</text>
<polyline fill="none" stroke="black" points="320,-160 454,-160 "/>
<text text-anchor="middle" x="387" y="-148" font-family="SegoeUI" font-size="10.00"> </text>
<polyline fill="none" stroke="black" points="320,-141 454,-141 "/>
<text text-anchor="start" x="328" y="-129" font-family="SegoeUI" font-size="10.00">+ Update()</text>
</a>
</g>
</g>
<!-- Node0&#45;&gt;Node5 -->
<g id="edge5" class="edge"><title>Node0&#45;&gt;Node5</title>
<path fill="none" stroke="midnightblue" d="M296.926,-237.248C315.256,-220.917 334.09,-204.138 349.765,-190.173"/>
<polygon fill="none" stroke="midnightblue" points="294.25,-234.944 289.112,-244.209 298.907,-240.171 294.25,-234.944"/>
</g>
<!-- Node1 -->
<g id="node2" class="node"><title>Node1</title>
<g id="a_node2"><a xlink:title=" ">
<polygon fill="white" stroke="#bfbfbf" points="181,-403.5 181,-460.5 263,-460.5 263,-403.5 181,-403.5"/>
<text text-anchor="middle" x="222" y="-448.5" font-family="SegoeUI" font-size="10.00">MonoBehaviour</text>
<polyline fill="none" stroke="#bfbfbf" points="181,-441.5 263,-441.5 "/>
<text text-anchor="middle" x="222" y="-429.5" font-family="SegoeUI" font-size="10.00"> </text>
<polyline fill="none" stroke="#bfbfbf" points="181,-422.5 263,-422.5 "/>
<text text-anchor="middle" x="222" y="-410.5" font-family="SegoeUI" font-size="10.00"> </text>
</a>
</g>
</g>
<!-- Node1&#45;&gt;Node0 -->
<g id="edge1" class="edge"><title>Node1&#45;&gt;Node0</title>
<path fill="none" stroke="midnightblue" d="M222,-393.099C222,-384.739 222,-375.68 222,-366.672"/>
<polygon fill="none" stroke="midnightblue" points="218.5,-393.258 222,-403.258 225.5,-393.258 218.5,-393.258"/>
</g>
<!-- Node4 -->
<g id="node5" class="node"><title>Node4</title>
<g id="a_node5"><a xlink:href="../../d7/d1a/class_juniper_1_1_unity_1_1_input_1_1_default_locomotion.html" target="_top" xlink:title=" ">
<polygon fill="white" stroke="black" points="157.5,-0.5 157.5,-68.5 286.5,-68.5 286.5,-0.5 157.5,-0.5"/>
<text text-anchor="start" x="165.5" y="-56.5" font-family="SegoeUI" font-size="10.00">Juniper.Unity.Input.Default</text>
<text text-anchor="middle" x="222" y="-45.5" font-family="SegoeUI" font-size="10.00">Locomotion</text>
<polyline fill="none" stroke="black" points="157.5,-38.5 286.5,-38.5 "/>
<text text-anchor="middle" x="222" y="-26.5" font-family="SegoeUI" font-size="10.00"> </text>
<polyline fill="none" stroke="black" points="157.5,-19.5 286.5,-19.5 "/>
<text text-anchor="middle" x="222" y="-7.5" font-family="SegoeUI" font-size="10.00"> </text>
</a>
</g>
</g>
<!-- Node3&#45;&gt;Node4 -->
<g id="edge4" class="edge"><title>Node3&#45;&gt;Node4</title>
<path fill="none" stroke="midnightblue" d="M222,-116.946C222,-101.399 222,-83.5848 222,-68.5891"/>
<polygon fill="none" stroke="midnightblue" points="218.5,-117.284 222,-127.284 225.5,-117.284 218.5,-117.284"/>
</g>
</g>
</svg>
