<?xml version="1.0" encoding="UTF-8" standalone="no"?>
<!DOCTYPE svg PUBLIC "-//W3C//DTD SVG 1.1//EN"
 "http://www.w3.org/Graphics/SVG/1.1/DTD/svg11.dtd">
<!-- Generated by graphviz version 2.38.0 (20140413.2041)
 -->
<!-- Title: Juniper.Unity.MasterSceneController Pages: 1 -->
<!--zoomable 1682 -->
<svg id="main" version="1.1" xmlns="http://www.w3.org/2000/svg" xmlns:xlink="http://www.w3.org/1999/xlink" xml:space="preserve" onload="init(evt)">
<style type="text/css"><![CDATA[
.edge:hover path { stroke: red; }
.edge:hover polygon { stroke: red; fill: red; }
]]></style>
<script type="text/javascript"><![CDATA[
var edges = document.getElementsByTagName('g');
if (edges && edges.length) {
  for (var i=0;i<edges.length;i++) {
    if (edges[i].id.substr(0,4)=='edge') {
      edges[i].setAttribute('class','edge');
    }
  }
}
]]></script>
        <defs>
                <circle id="rim" cx="0" cy="0" r="7"/>
                <circle id="rim2" cx="0" cy="0" r="3.5"/>
                <g id="zoomPlus">
                        <use xlink:href="#rim" fill="#404040">
                                <set attributeName="fill" to="#808080" begin="zoomplus.mouseover" end="zoomplus.mouseout"/>
                        </use>
                        <path d="M-4,0h8M0,-4v8" fill="none" stroke="white" stroke-width="1.5" pointer-events="none"/>
                </g>
                <g id="zoomMin">
                        <use xlink:href="#rim" fill="#404040">
                                <set attributeName="fill" to="#808080" begin="zoomminus.mouseover" end="zoomminus.mouseout"/>
                        </use>
                        <path d="M-4,0h8" fill="none" stroke="white" stroke-width="1.5" pointer-events="none"/>
                </g>
                <g id="dirArrow">
                        <path fill="none" stroke="white" stroke-width="1.5" d="M0,-3.0v7 M-2.5,-0.5L0,-3.0L2.5,-0.5"/>
                </g>
               <g id="resetDef">
                       <use xlink:href="#rim2" fill="#404040">
                               <set attributeName="fill" to="#808080" begin="reset.mouseover" end="reset.mouseout"/>
                       </use>
               </g>
        </defs>

<script type="text/javascript">
var viewWidth = 685;
var viewHeight = 1682;
var sectionId = 'dynsection-1';
</script>
<script xlink:href="../../svgpan.js"/>
<svg id="graph" class="graph">
<g id="viewport">
<title>Juniper.Unity.MasterSceneController</title>
<polygon fill="white" stroke="none" points="-4,4 -4,-1678 681,-1678 681,4 -4,4"/>
<!-- Node3 -->
<g id="node1" class="node"><title>Node3</title>
<g id="a_node1"><a xlink:title="Manages loading SubSceneController components (scenes that are additively loaded into a &quot;main&quot; scene)...">
<polygon fill="#bfbfbf" stroke="black" points="304,-0.5 304,-475.5 467,-475.5 467,-0.5 304,-0.5"/>
<text text-anchor="start" x="312" y="-463.5" font-family="SegoeUI" font-size="10.00">Juniper.Unity.MasterScene</text>
<text text-anchor="middle" x="385.5" y="-452.5" font-family="SegoeUI" font-size="10.00">Controller</text>
<polyline fill="none" stroke="black" points="304,-445.5 467,-445.5 "/>
<text text-anchor="start" x="312" y="-433.5" font-family="SegoeUI" font-size="10.00">+ splash</text>
<text text-anchor="start" x="312" y="-422.5" font-family="SegoeUI" font-size="10.00">+ optionsInterface</text>
<text text-anchor="start" x="312" y="-411.5" font-family="SegoeUI" font-size="10.00">+ sceneFaderMaterial</text>
<text text-anchor="start" x="312" y="-400.5" font-family="SegoeUI" font-size="10.00">+ loadAll</text>
<text text-anchor="start" x="312" y="-389.5" font-family="SegoeUI" font-size="10.00">+ exitOnEscape</text>
<text text-anchor="start" x="312" y="-378.5" font-family="SegoeUI" font-size="10.00">+ subSceneNames</text>
<text text-anchor="start" x="312" y="-367.5" font-family="SegoeUI" font-size="10.00">+ AllScenes</text>
<text text-anchor="start" x="312" y="-356.5" font-family="SegoeUI" font-size="10.00">+ SubScenes</text>
<text text-anchor="start" x="312" y="-345.5" font-family="SegoeUI" font-size="10.00">+ CurrentSubScenes</text>
<text text-anchor="start" x="312" y="-334.5" font-family="SegoeUI" font-size="10.00">&#45; SceneNamePatternStr</text>
<text text-anchor="start" x="312" y="-323.5" font-family="SegoeUI" font-size="10.00">&#45; wasLocked</text>
<polyline fill="none" stroke="black" points="304,-316.5 467,-316.5 "/>
<text text-anchor="start" x="312" y="-304.5" font-family="SegoeUI" font-size="10.00">+ Update()</text>
<text text-anchor="start" x="312" y="-293.5" font-family="SegoeUI" font-size="10.00">+ SwitchToSceneName()</text>
<text text-anchor="start" x="312" y="-282.5" font-family="SegoeUI" font-size="10.00">+ Quit()</text>
<text text-anchor="start" x="312" y="-271.5" font-family="SegoeUI" font-size="10.00">+ Awake()</text>
<text text-anchor="start" x="312" y="-260.5" font-family="SegoeUI" font-size="10.00">+ Reinstall()</text>
<text text-anchor="start" x="312" y="-249.5" font-family="SegoeUI" font-size="10.00">+ Reset()</text>
<text text-anchor="start" x="312" y="-238.5" font-family="SegoeUI" font-size="10.00">+ Install()</text>
<text text-anchor="start" x="312" y="-227.5" font-family="SegoeUI" font-size="10.00">+ Uninstall()</text>
<text text-anchor="start" x="312" y="-216.5" font-family="SegoeUI" font-size="10.00">+ LoadAllScenes()</text>
<text text-anchor="start" x="312" y="-205.5" font-family="SegoeUI" font-size="10.00">+ OnValidate()</text>
<text text-anchor="start" x="312" y="-194.5" font-family="SegoeUI" font-size="10.00">+ QuitApp()</text>
<text text-anchor="start" x="312" y="-183.5" font-family="SegoeUI" font-size="10.00"># Start()</text>
<text text-anchor="start" x="312" y="-172.5" font-family="SegoeUI" font-size="10.00">&#45; FadeOut()</text>
<text text-anchor="start" x="312" y="-161.5" font-family="SegoeUI" font-size="10.00">&#45; SwitchToSceneNameCoroutine()</text>
<text text-anchor="start" x="312" y="-150.5" font-family="SegoeUI" font-size="10.00">&#45; LoadingCompleteCoroutine()</text>
<text text-anchor="start" x="312" y="-139.5" font-family="SegoeUI" font-size="10.00">&#45; LoadAllScenesCoroutine2()</text>
<text text-anchor="start" x="312" y="-128.5" font-family="SegoeUI" font-size="10.00">&#45; LoadAllScenesCoroutine()</text>
<text text-anchor="start" x="312" y="-117.5" font-family="SegoeUI" font-size="10.00">&#45; LoadFirstScene()</text>
<text text-anchor="start" x="312" y="-106.5" font-family="SegoeUI" font-size="10.00">&#45; LoadScenes_MenuItem()</text>
<text text-anchor="start" x="312" y="-95.5" font-family="SegoeUI" font-size="10.00">&#45; SetBuildSettings()</text>
<text text-anchor="start" x="312" y="-84.5" font-family="SegoeUI" font-size="10.00">&#45; GetScene()</text>
<text text-anchor="start" x="312" y="-73.5" font-family="SegoeUI" font-size="10.00">&#45; LoadScenePathCoroutine()</text>
<text text-anchor="start" x="312" y="-62.5" font-family="SegoeUI" font-size="10.00">&#45; Flatten()</text>
<text text-anchor="start" x="312" y="-51.5" font-family="SegoeUI" font-size="10.00">&#45; QuitCoroutine()</text>
<text text-anchor="start" x="312" y="-40.5" font-family="SegoeUI" font-size="10.00">&#45; LoadScene()</text>
<text text-anchor="start" x="312" y="-29.5" font-family="SegoeUI" font-size="10.00">&#45; GetSceneNameFromPath()</text>
<text text-anchor="start" x="312" y="-18.5" font-family="SegoeUI" font-size="10.00">&#45; IsScenePathLoaded()</text>
<text text-anchor="start" x="312" y="-7.5" font-family="SegoeUI" font-size="10.00">&#45; Exit()</text>
</a>
</g>
</g>
<!-- Node4 -->
<g id="node2" class="node"><title>Node4</title>
<g id="a_node2"><a xlink:title=" ">
<polygon fill="white" stroke="#bfbfbf" points="352.5,-1521.5 352.5,-1578.5 434.5,-1578.5 434.5,-1521.5 352.5,-1521.5"/>
<text text-anchor="middle" x="393.5" y="-1566.5" font-family="SegoeUI" font-size="10.00">MonoBehaviour</text>
<polyline fill="none" stroke="#bfbfbf" points="352.5,-1559.5 434.5,-1559.5 "/>
<text text-anchor="middle" x="393.5" y="-1547.5" font-family="SegoeUI" font-size="10.00"> </text>
<polyline fill="none" stroke="#bfbfbf" points="352.5,-1540.5 434.5,-1540.5 "/>
<text text-anchor="middle" x="393.5" y="-1528.5" font-family="SegoeUI" font-size="10.00"> </text>
</a>
</g>
</g>
<!-- Node4&#45;&gt;Node3 -->
<g id="edge1" class="edge"><title>Node4&#45;&gt;Node3</title>
<path fill="none" stroke="midnightblue" d="M418.41,-1512.95C446.854,-1468.18 489.5,-1388.47 489.5,-1313 489.5,-1313 489.5,-1313 489.5,-661 489.5,-599.975 479.12,-535.39 464.919,-475.586"/>
<polygon fill="none" stroke="midnightblue" points="415.419,-1511.12 412.927,-1521.42 421.297,-1514.93 415.419,-1511.12"/>
</g>
<!-- Node8 -->
<g id="node6" class="node"><title>Node8</title>
<g id="a_node6"><a xlink:href="../../dd/d90/class_juniper_1_1_unity_1_1_abstract_state_controller.html" target="_top" xlink:title="A subscene is a game object loaded from another scene. The scenes all get loaded at runtime and then ...">
<polygon fill="white" stroke="black" points="19.5,-1140.5 19.5,-1483.5 135.5,-1483.5 135.5,-1140.5 19.5,-1140.5"/>
<text text-anchor="middle" x="77.5" y="-1471.5" font-family="SegoeUI" font-size="10.00">AbstractStateController</text>
<polyline fill="none" stroke="black" points="19.5,-1464.5 135.5,-1464.5 "/>
<text text-anchor="start" x="27.5" y="-1452.5" font-family="SegoeUI" font-size="10.00">+ onEntering</text>
<text text-anchor="start" x="27.5" y="-1441.5" font-family="SegoeUI" font-size="10.00">+ onEntered</text>
<text text-anchor="start" x="27.5" y="-1430.5" font-family="SegoeUI" font-size="10.00">+ onExiting</text>
<text text-anchor="start" x="27.5" y="-1419.5" font-family="SegoeUI" font-size="10.00">+ onExited</text>
<text text-anchor="start" x="27.5" y="-1408.5" font-family="SegoeUI" font-size="10.00">+ IsComplete</text>
<text text-anchor="start" x="27.5" y="-1397.5" font-family="SegoeUI" font-size="10.00">+ IsRunning</text>
<text text-anchor="start" x="27.5" y="-1386.5" font-family="SegoeUI" font-size="10.00">+ Waiter</text>
<text text-anchor="start" x="27.5" y="-1375.5" font-family="SegoeUI" font-size="10.00"># ENTERING</text>
<text text-anchor="start" x="27.5" y="-1364.5" font-family="SegoeUI" font-size="10.00"># STOPPED</text>
<text text-anchor="start" x="27.5" y="-1353.5" font-family="SegoeUI" font-size="10.00"># EXITING</text>
<text text-anchor="start" x="27.5" y="-1342.5" font-family="SegoeUI" font-size="10.00"># state</text>
<text text-anchor="start" x="27.5" y="-1331.5" font-family="SegoeUI" font-size="10.00">&#45; _waiter</text>
<text text-anchor="start" x="27.5" y="-1320.5" font-family="SegoeUI" font-size="10.00">&#45; lastState</text>
<text text-anchor="start" x="27.5" y="-1309.5" font-family="SegoeUI" font-size="10.00">&#45; skipEvent</text>
<polyline fill="none" stroke="black" points="19.5,-1302.5 135.5,-1302.5 "/>
<text text-anchor="start" x="27.5" y="-1290.5" font-family="SegoeUI" font-size="10.00">+ HasStopped()</text>
<text text-anchor="start" x="27.5" y="-1279.5" font-family="SegoeUI" font-size="10.00">+ Enter()</text>
<text text-anchor="start" x="27.5" y="-1268.5" font-family="SegoeUI" font-size="10.00">+ SkipEnter()</text>
<text text-anchor="start" x="27.5" y="-1257.5" font-family="SegoeUI" font-size="10.00">+ Exit()</text>
<text text-anchor="start" x="27.5" y="-1246.5" font-family="SegoeUI" font-size="10.00">+ SkipExit()</text>
<text text-anchor="start" x="27.5" y="-1235.5" font-family="SegoeUI" font-size="10.00">+ OnEnable()</text>
<text text-anchor="start" x="27.5" y="-1224.5" font-family="SegoeUI" font-size="10.00">+ OnDisable()</text>
<text text-anchor="start" x="27.5" y="-1213.5" font-family="SegoeUI" font-size="10.00">+ Update()</text>
<text text-anchor="start" x="27.5" y="-1202.5" font-family="SegoeUI" font-size="10.00"># OnEnabled()</text>
<text text-anchor="start" x="27.5" y="-1191.5" font-family="SegoeUI" font-size="10.00"># OnDisabled()</text>
<text text-anchor="start" x="27.5" y="-1180.5" font-family="SegoeUI" font-size="10.00"># OnEntering()</text>
<text text-anchor="start" x="27.5" y="-1169.5" font-family="SegoeUI" font-size="10.00"># OnEntered()</text>
<text text-anchor="start" x="27.5" y="-1158.5" font-family="SegoeUI" font-size="10.00"># OnExiting()</text>
<text text-anchor="start" x="27.5" y="-1147.5" font-family="SegoeUI" font-size="10.00"># OnExited()</text>
</a>
</g>
</g>
<!-- Node4&#45;&gt;Node8 -->
<g id="edge6" class="edge"><title>Node4&#45;&gt;Node8</title>
<path fill="none" stroke="midnightblue" d="M342.163,-1547.19C289.855,-1542.79 209.146,-1528.6 156.5,-1484 148.89,-1477.55 141.971,-1470.21 135.688,-1462.29"/>
<polygon fill="none" stroke="midnightblue" points="341.995,-1550.69 352.229,-1547.95 342.519,-1543.71 341.995,-1550.69"/>
</g>
<!-- Node9 -->
<g id="node7" class="node"><title>Node9</title>
<g id="a_node7"><a xlink:href="../../d5/d97/class_juniper_1_1_unity_1_1_juniper_platform.html" target="_top" xlink:title=" ">
<polygon fill="white" stroke="black" points="231.5,-865 231.5,-1076 373.5,-1076 373.5,-865 231.5,-865"/>
<text text-anchor="middle" x="302.5" y="-1064" font-family="SegoeUI" font-size="10.00">Juniper.Unity.JuniperPlatform</text>
<polyline fill="none" stroke="black" points="231.5,-1057 373.5,-1057 "/>
<text text-anchor="start" x="239.5" y="-1045" font-family="SegoeUI" font-size="10.00">+ CurrentPlatform</text>
<text text-anchor="start" x="239.5" y="-1034" font-family="SegoeUI" font-size="10.00">+ System</text>
<text text-anchor="start" x="239.5" y="-1023" font-family="SegoeUI" font-size="10.00">+ DisplayType</text>
<text text-anchor="start" x="239.5" y="-1012" font-family="SegoeUI" font-size="10.00">+ SupportedDisplayType</text>
<text text-anchor="start" x="239.5" y="-1001" font-family="SegoeUI" font-size="10.00">+ ARMode</text>
<text text-anchor="start" x="239.5" y="-990" font-family="SegoeUI" font-size="10.00">+ SupportedARMode</text>
<text text-anchor="start" x="239.5" y="-979" font-family="SegoeUI" font-size="10.00">+ Option</text>
<text text-anchor="start" x="239.5" y="-968" font-family="SegoeUI" font-size="10.00">+ VRPlatformHasPassthrough</text>
<text text-anchor="start" x="239.5" y="-957" font-family="SegoeUI" font-size="10.00">+ IsARCapablePlatform</text>
<polyline fill="none" stroke="black" points="231.5,-950 373.5,-950 "/>
<text text-anchor="start" x="239.5" y="-938" font-family="SegoeUI" font-size="10.00">+ Awake()</text>
<text text-anchor="start" x="239.5" y="-927" font-family="SegoeUI" font-size="10.00">+ Reinstall()</text>
<text text-anchor="start" x="239.5" y="-916" font-family="SegoeUI" font-size="10.00">+ Reset()</text>
<text text-anchor="start" x="239.5" y="-905" font-family="SegoeUI" font-size="10.00">+ OnValidate()</text>
<text text-anchor="start" x="239.5" y="-894" font-family="SegoeUI" font-size="10.00">+ Install()</text>
<text text-anchor="start" x="239.5" y="-883" font-family="SegoeUI" font-size="10.00">+ Uninstall()</text>
<text text-anchor="start" x="239.5" y="-872" font-family="SegoeUI" font-size="10.00">+ Ensure()</text>
</a>
</g>
</g>
<!-- Node4&#45;&gt;Node9 -->
<g id="edge9" class="edge"><title>Node4&#45;&gt;Node9</title>
<path fill="none" stroke="midnightblue" d="M375.387,-1512.23C371.395,-1503.16 367.475,-1493.35 364.5,-1484 313.318,-1323.11 286.46,-1279.73 292.5,-1111 292.904,-1099.72 293.491,-1087.93 294.181,-1076.19"/>
<polygon fill="none" stroke="midnightblue" points="372.218,-1513.72 379.537,-1521.38 378.592,-1510.83 372.218,-1513.72"/>
</g>
<!-- Node11 -->
<g id="node9" class="node"><title>Node11</title>
<g id="a_node9"><a xlink:href="../../d2/d95/class_juniper_1_1_unity_1_1_widgets_1_1_loading_bar.html" target="_top" xlink:title=" ">
<polygon fill="white" stroke="black" points="518,-1245 518,-1379 677,-1379 677,-1245 518,-1245"/>
<text text-anchor="middle" x="597.5" y="-1367" font-family="SegoeUI" font-size="10.00">Juniper.Unity.Widgets.LoadingBar</text>
<polyline fill="none" stroke="black" points="518,-1360 677,-1360 "/>
<text text-anchor="start" x="526" y="-1348" font-family="SegoeUI" font-size="10.00">+ Progress</text>
<text text-anchor="start" x="526" y="-1337" font-family="SegoeUI" font-size="10.00">+ TargetValue</text>
<text text-anchor="start" x="526" y="-1326" font-family="SegoeUI" font-size="10.00">+ Waiter</text>
<text text-anchor="start" x="526" y="-1315" font-family="SegoeUI" font-size="10.00">&#45; indicator</text>
<text text-anchor="start" x="526" y="-1304" font-family="SegoeUI" font-size="10.00">&#45; _waiter</text>
<polyline fill="none" stroke="black" points="518,-1297 677,-1297 "/>
<text text-anchor="start" x="526" y="-1285" font-family="SegoeUI" font-size="10.00">+ SetProgress()</text>
<text text-anchor="start" x="526" y="-1274" font-family="SegoeUI" font-size="10.00">+ Awake()</text>
<text text-anchor="start" x="526" y="-1263" font-family="SegoeUI" font-size="10.00">+ Update()</text>
<text text-anchor="start" x="526" y="-1252" font-family="SegoeUI" font-size="10.00">+ Ensure()</text>
</a>
</g>
</g>
<!-- Node4&#45;&gt;Node11 -->
<g id="edge14" class="edge"><title>Node4&#45;&gt;Node11</title>
<path fill="none" stroke="midnightblue" d="M444.304,-1536.22C464.607,-1529.1 487.027,-1518.46 503.5,-1503 539.189,-1469.5 563.167,-1419.53 577.969,-1379.24"/>
<polygon fill="none" stroke="midnightblue" points="442.945,-1532.98 434.543,-1539.44 445.136,-1539.63 442.945,-1532.98"/>
</g>
<!-- Node5 -->
<g id="node3" class="node"><title>Node5</title>
<g id="a_node3"><a xlink:href="../../db/d28/interface_juniper_1_1_i_installable.html" target="_top" xlink:title=" ">
<polygon fill="white" stroke="black" points="166,-1272.5 166,-1351.5 235,-1351.5 235,-1272.5 166,-1272.5"/>
<text text-anchor="middle" x="200.5" y="-1339.5" font-family="SegoeUI" font-size="10.00">IInstallable</text>
<polyline fill="none" stroke="black" points="166,-1332.5 235,-1332.5 "/>
<text text-anchor="middle" x="200.5" y="-1320.5" font-family="SegoeUI" font-size="10.00"> </text>
<polyline fill="none" stroke="black" points="166,-1313.5 235,-1313.5 "/>
<text text-anchor="start" x="174" y="-1301.5" font-family="SegoeUI" font-size="10.00">+ Install()</text>
<text text-anchor="start" x="174" y="-1290.5" font-family="SegoeUI" font-size="10.00">+ Reinstall()</text>
<text text-anchor="start" x="174" y="-1279.5" font-family="SegoeUI" font-size="10.00">+ Uninstall()</text>
</a>
</g>
</g>
<!-- Node5&#45;&gt;Node3 -->
<g id="edge2" class="edge"><title>Node5&#45;&gt;Node3</title>
<path fill="none" stroke="midnightblue" d="M190.221,-1262C165.868,-1135.96 112.592,-791.562 194.5,-523 216.211,-451.815 262.397,-382.304 303.913,-329.868"/>
<polygon fill="none" stroke="midnightblue" points="186.844,-1262.97 192.203,-1272.11 193.713,-1261.62 186.844,-1262.97"/>
</g>
<!-- Node6 -->
<g id="node4" class="node"><title>Node6</title>
<g id="a_node4"><a xlink:href="../../d3/d84/class_juniper_1_1_unity_1_1_animation_1_1_fade_transition.html" target="_top" xlink:title="Performs a fade&#45;in/fade&#45;out animation on scene transitions.">
<polygon fill="white" stroke="black" points="204,-523.5 204,-800.5 337,-800.5 337,-523.5 204,-523.5"/>
<text text-anchor="start" x="212" y="-788.5" font-family="SegoeUI" font-size="10.00">Juniper.Unity.Animation.</text>
<text text-anchor="middle" x="270.5" y="-777.5" font-family="SegoeUI" font-size="10.00">FadeTransition</text>
<polyline fill="none" stroke="black" points="204,-770.5 337,-770.5 "/>
<text text-anchor="start" x="212" y="-758.5" font-family="SegoeUI" font-size="10.00">+ fadeLength</text>
<text text-anchor="start" x="212" y="-747.5" font-family="SegoeUI" font-size="10.00">+ TransitionLength</text>
<text text-anchor="start" x="212" y="-736.5" font-family="SegoeUI" font-size="10.00">&#45; r</text>
<text text-anchor="start" x="212" y="-725.5" font-family="SegoeUI" font-size="10.00">&#45; props</text>
<text text-anchor="start" x="212" y="-714.5" font-family="SegoeUI" font-size="10.00">&#45; actions</text>
<text text-anchor="start" x="212" y="-703.5" font-family="SegoeUI" font-size="10.00">&#45; lastColor</text>
<text text-anchor="start" x="212" y="-692.5" font-family="SegoeUI" font-size="10.00">&#45; lastCullingMask</text>
<text text-anchor="start" x="212" y="-681.5" font-family="SegoeUI" font-size="10.00">&#45; lastAmbientMode</text>
<polyline fill="none" stroke="black" points="204,-674.5 337,-674.5 "/>
<text text-anchor="start" x="212" y="-662.5" font-family="SegoeUI" font-size="10.00">+ Awake()</text>
<text text-anchor="start" x="212" y="-651.5" font-family="SegoeUI" font-size="10.00">+ Reinstall()</text>
<text text-anchor="start" x="212" y="-640.5" font-family="SegoeUI" font-size="10.00">+ Reset()</text>
<text text-anchor="start" x="212" y="-629.5" font-family="SegoeUI" font-size="10.00">+ Install()</text>
<text text-anchor="start" x="212" y="-618.5" font-family="SegoeUI" font-size="10.00">+ Uninstall()</text>
<text text-anchor="start" x="212" y="-607.5" font-family="SegoeUI" font-size="10.00">+ Fader()</text>
<text text-anchor="start" x="212" y="-596.5" font-family="SegoeUI" font-size="10.00">+ Enter()</text>
<text text-anchor="start" x="212" y="-585.5" font-family="SegoeUI" font-size="10.00">+ Exit()</text>
<text text-anchor="start" x="212" y="-574.5" font-family="SegoeUI" font-size="10.00">+ Ensure()</text>
<text text-anchor="start" x="212" y="-563.5" font-family="SegoeUI" font-size="10.00"># RenderValue()</text>
<text text-anchor="start" x="212" y="-552.5" font-family="SegoeUI" font-size="10.00"># OnEntered()</text>
<text text-anchor="start" x="212" y="-541.5" font-family="SegoeUI" font-size="10.00"># OnExiting()</text>
<text text-anchor="start" x="212" y="-530.5" font-family="SegoeUI" font-size="10.00">&#45; FadeTransition_Entered()</text>
</a>
</g>
</g>
<!-- Node5&#45;&gt;Node6 -->
<g id="edge7" class="edge"><title>Node5&#45;&gt;Node6</title>
<path fill="none" stroke="midnightblue" d="M199.528,-1262.22C198.569,-1177.45 199.773,-997.696 222.5,-848 224.841,-832.581 227.94,-816.589 231.44,-800.752"/>
<polygon fill="none" stroke="midnightblue" points="196.029,-1262.37 199.657,-1272.32 203.029,-1262.28 196.029,-1262.37"/>
</g>
<!-- Node5&#45;&gt;Node9 -->
<g id="edge10" class="edge"><title>Node5&#45;&gt;Node9</title>
<path fill="none" stroke="midnightblue" d="M210.668,-1262.33C219.606,-1221.54 233.637,-1161.98 249.5,-1111 253.041,-1099.62 257.021,-1087.83 261.167,-1076.13"/>
<polygon fill="none" stroke="midnightblue" points="207.21,-1261.76 208.508,-1272.27 214.051,-1263.24 207.21,-1261.76"/>
</g>
<!-- Node6&#45;&gt;Node3 -->
<g id="edge3" class="edge"><title>Node6&#45;&gt;Node3</title>
<path fill="none" stroke="#404040" d="M307.996,-523.405C311.175,-511.74 314.447,-499.733 317.766,-487.553"/>
<polygon fill="none" stroke="#404040" points="317.806,-487.406 315.525,-480.565 320.962,-475.828 323.243,-482.669 317.806,-487.406"/>
<text text-anchor="middle" x="329.5" y="-497" font-family="SegoeUI" font-size="10.00"> &#45;darth</text>
</g>
<!-- Node7 -->
<g id="node5" class="node"><title>Node7</title>
<g id="a_node5"><a xlink:href="../../de/d7d/class_juniper_1_1_unity_1_1_animation_1_1_abstract_transition_controller.html" target="_top" xlink:title="Child classes of this class are able to animate transitions between program states.">
<polygon fill="white" stroke="black" points="0,-848.5 0,-1092.5 137,-1092.5 137,-848.5 0,-848.5"/>
<text text-anchor="middle" x="68.5" y="-1080.5" font-family="SegoeUI" font-size="10.00">AbstractTransitionController</text>
<polyline fill="none" stroke="black" points="0,-1073.5 137,-1073.5 "/>
<text text-anchor="start" x="8" y="-1061.5" font-family="SegoeUI" font-size="10.00">+ attackTime</text>
<text text-anchor="start" x="8" y="-1050.5" font-family="SegoeUI" font-size="10.00">+ releaseTime</text>
<text text-anchor="start" x="8" y="-1039.5" font-family="SegoeUI" font-size="10.00">+ onValueChanged</text>
<text text-anchor="start" x="8" y="-1028.5" font-family="SegoeUI" font-size="10.00">+ tween</text>
<text text-anchor="start" x="8" y="-1017.5" font-family="SegoeUI" font-size="10.00">+ tweenK</text>
<text text-anchor="start" x="8" y="-1006.5" font-family="SegoeUI" font-size="10.00">+ TransitionLength</text>
<text text-anchor="start" x="8" y="-995.5" font-family="SegoeUI" font-size="10.00">&#45; tweenFunc</text>
<text text-anchor="start" x="8" y="-984.5" font-family="SegoeUI" font-size="10.00">&#45; attack</text>
<text text-anchor="start" x="8" y="-973.5" font-family="SegoeUI" font-size="10.00">&#45; release</text>
<text text-anchor="start" x="8" y="-962.5" font-family="SegoeUI" font-size="10.00">&#45; progress</text>
<text text-anchor="start" x="8" y="-951.5" font-family="SegoeUI" font-size="10.00">&#45; tweenedValue</text>
<polyline fill="none" stroke="black" points="0,-944.5 137,-944.5 "/>
<text text-anchor="start" x="8" y="-932.5" font-family="SegoeUI" font-size="10.00">+ Enter()</text>
<text text-anchor="start" x="8" y="-921.5" font-family="SegoeUI" font-size="10.00">+ SkipEnter()</text>
<text text-anchor="start" x="8" y="-910.5" font-family="SegoeUI" font-size="10.00">+ Exit()</text>
<text text-anchor="start" x="8" y="-899.5" font-family="SegoeUI" font-size="10.00">+ Update()</text>
<text text-anchor="start" x="8" y="-888.5" font-family="SegoeUI" font-size="10.00"># RenderValue()</text>
<text text-anchor="start" x="8" y="-877.5" font-family="SegoeUI" font-size="10.00">&#45; OnValueChanged()</text>
<text text-anchor="start" x="8" y="-866.5" font-family="SegoeUI" font-size="10.00">&#45; SetProgress()</text>
<text text-anchor="start" x="8" y="-855.5" font-family="SegoeUI" font-size="10.00">&#45; StartTransition()</text>
</a>
</g>
</g>
<!-- Node7&#45;&gt;Node6 -->
<g id="edge4" class="edge"><title>Node7&#45;&gt;Node6</title>
<path fill="none" stroke="midnightblue" d="M142.774,-856.802C162.795,-826.423 184.327,-793.753 203.9,-764.053"/>
<polygon fill="none" stroke="midnightblue" points="139.75,-855.03 137.17,-865.305 145.595,-858.882 139.75,-855.03"/>
</g>
<!-- Node8&#45;&gt;Node7 -->
<g id="edge5" class="edge"><title>Node8&#45;&gt;Node7</title>
<path fill="none" stroke="midnightblue" d="M72.7051,-1130.13C72.3707,-1117.51 72.0385,-1104.98 71.7159,-1092.81"/>
<polygon fill="none" stroke="midnightblue" points="69.2098,-1130.35 72.9736,-1140.26 76.2073,-1130.17 69.2098,-1130.35"/>
</g>
<!-- Node9&#45;&gt;Node6 -->
<g id="edge8" class="edge"><title>Node9&#45;&gt;Node6</title>
<path fill="none" stroke="#404040" d="M291.577,-864.877C289.826,-848.11 287.985,-830.476 286.15,-812.901"/>
<polygon fill="none" stroke="#404040" points="286.128,-812.689 281.527,-807.137 284.882,-800.754 289.484,-806.306 286.128,-812.689"/>
<text text-anchor="middle" x="295.5" y="-822" font-family="SegoeUI" font-size="10.00"> &#45;xr</text>
</g>
<!-- Node10 -->
<g id="node8" class="node"><title>Node10</title>
<g id="a_node8"><a xlink:title=" ">
<polygon fill="white" stroke="#bfbfbf" points="374,-1283.5 374,-1340.5 413,-1340.5 413,-1283.5 374,-1283.5"/>
<text text-anchor="middle" x="393.5" y="-1328.5" font-family="SegoeUI" font-size="10.00">static</text>
<polyline fill="none" stroke="#bfbfbf" points="374,-1321.5 413,-1321.5 "/>
<text text-anchor="middle" x="393.5" y="-1309.5" font-family="SegoeUI" font-size="10.00"> </text>
<polyline fill="none" stroke="#bfbfbf" points="374,-1302.5 413,-1302.5 "/>
<text text-anchor="middle" x="393.5" y="-1290.5" font-family="SegoeUI" font-size="10.00"> </text>
</a>
</g>
</g>
<!-- Node10&#45;&gt;Node3 -->
<g id="edge12" class="edge"><title>Node10&#45;&gt;Node3</title>
<path fill="none" stroke="#404040" d="M395.526,-1283.18C398.098,-1244.55 402.031,-1172.48 400.5,-1111 397.388,-985.995 389.718,-955.002 386.5,-830 383.608,-717.656 383.008,-593.26 383.267,-487.689"/>
<polygon fill="none" stroke="#404040" points="383.268,-487.569 379.284,-481.558 383.301,-475.569 387.284,-481.58 383.268,-487.569"/>
<text text-anchor="middle" x="431" y="-822" font-family="SegoeUI" font-size="10.00"> &#45;SceneNamePattern</text>
</g>
<!-- Node10&#45;&gt;Node9 -->
<g id="edge11" class="edge"><title>Node10&#45;&gt;Node9</title>
<path fill="none" stroke="#404040" d="M374.036,-1283.19C350.508,-1247.72 312.238,-1183.56 297.5,-1122 294.93,-1111.26 293.343,-1099.98 292.486,-1088.61"/>
<polygon fill="none" stroke="#404040" points="292.467,-1088.25 288.155,-1082.47 291.831,-1076.26 296.143,-1082.04 292.467,-1088.25"/>
<text text-anchor="middle" x="349" y="-1114" font-family="SegoeUI" font-size="10.00"> +CURRENT_PLATFORM</text>
</g>
<!-- Node11&#45;&gt;Node3 -->
<g id="edge13" class="edge"><title>Node11&#45;&gt;Node3</title>
<path fill="none" stroke="#404040" d="M596.965,-1244.77C594.298,-1103.91 579.745,-765.294 503.5,-494 495.315,-464.876 484.17,-434.897 471.98,-406.187"/>
<polygon fill="none" stroke="#404040" points="471.832,-405.843 465.781,-401.92 467.075,-394.826 473.126,-398.749 471.832,-405.843"/>
<text text-anchor="middle" x="595" y="-822" font-family="SegoeUI" font-size="10.00"> +loadingBar</text>
</g>
<!-- Node12 -->
<g id="node10" class="node"><title>Node12</title>
<g id="a_node10"><a xlink:href="../../d3/de9/interface_juniper_1_1_progress_1_1_i_progress_receiver.html" target="_top" xlink:title=" ">
<polygon fill="white" stroke="black" points="550.5,-1521.5 550.5,-1578.5 644.5,-1578.5 644.5,-1521.5 550.5,-1521.5"/>
<text text-anchor="middle" x="597.5" y="-1566.5" font-family="SegoeUI" font-size="10.00">IProgressReceiver</text>
<polyline fill="none" stroke="black" points="550.5,-1559.5 644.5,-1559.5 "/>
<text text-anchor="middle" x="597.5" y="-1547.5" font-family="SegoeUI" font-size="10.00"> </text>
<polyline fill="none" stroke="black" points="550.5,-1540.5 644.5,-1540.5 "/>
<text text-anchor="start" x="558.5" y="-1528.5" font-family="SegoeUI" font-size="10.00">+ SetProgress()</text>
</a>
</g>
</g>
<!-- Node12&#45;&gt;Node11 -->
<g id="edge15" class="edge"><title>Node12&#45;&gt;Node11</title>
<path fill="none" stroke="midnightblue" d="M597.5,-1511.07C597.5,-1475.56 597.5,-1421.74 597.5,-1379.16"/>
<polygon fill="none" stroke="midnightblue" points="594,-1511.47 597.5,-1521.47 601,-1511.47 594,-1511.47"/>
</g>
<!-- Node13 -->
<g id="node11" class="node"><title>Node13</title>
<g id="a_node11"><a xlink:href="../../d9/daf/interface_juniper_1_1_progress_1_1_i_progress.html" target="_top" xlink:title=" ">
<polygon fill="white" stroke="black" points="566,-1616.5 566,-1673.5 629,-1673.5 629,-1616.5 566,-1616.5"/>
<text text-anchor="middle" x="597.5" y="-1661.5" font-family="SegoeUI" font-size="10.00">IProgress</text>
<polyline fill="none" stroke="black" points="566,-1654.5 629,-1654.5 "/>
<text text-anchor="start" x="574" y="-1642.5" font-family="SegoeUI" font-size="10.00">+ Progress</text>
<polyline fill="none" stroke="black" points="566,-1635.5 629,-1635.5 "/>
<text text-anchor="middle" x="597.5" y="-1623.5" font-family="SegoeUI" font-size="10.00"> </text>
</a>
</g>
</g>
<!-- Node13&#45;&gt;Node12 -->
<g id="edge16" class="edge"><title>Node13&#45;&gt;Node12</title>
<path fill="none" stroke="midnightblue" d="M597.5,-1606.24C597.5,-1597.03 597.5,-1587.35 597.5,-1578.71"/>
<polygon fill="none" stroke="midnightblue" points="594,-1606.35 597.5,-1616.35 601,-1606.35 594,-1606.35"/>
</g>
</g>
</svg>
        <g id="navigator" transform="translate(0 0)" fill="#404254">
                <rect fill="#f2f5e9" fill-opacity="0.5" stroke="#606060" stroke-width=".5" x="0" y="0" width="60" height="60"/>
                <use id="zoomplus" xlink:href="#zoomPlus" x="17" y="9" onmousedown="handleZoom(evt,'in')"/>
                <use id="zoomminus" xlink:href="#zoomMin" x="42" y="9" onmousedown="handleZoom(evt,'out')"/>
                <use id="reset" xlink:href="#resetDef" x="30" y="36" onmousedown="handleReset()"/>
                <g id="arrowUp" xlink:href="#dirArrow" transform="translate(30 24)" onmousedown="handlePan(0,-1)">
                  <use xlink:href="#rim" fill="#404040">
                        <set attributeName="fill" to="#808080" begin="arrowUp.mouseover" end="arrowUp.mouseout"/>
                  </use>
                  <path fill="none" stroke="white" stroke-width="1.5" d="M0,-3.0v7 M-2.5,-0.5L0,-3.0L2.5,-0.5"/>
                </g>
                <g id="arrowRight" xlink:href="#dirArrow" transform="rotate(90) translate(36 -43)" onmousedown="handlePan(1,0)">
                  <use xlink:href="#rim" fill="#404040">
                        <set attributeName="fill" to="#808080" begin="arrowRight.mouseover" end="arrowRight.mouseout"/>
                  </use>
                  <path fill="none" stroke="white" stroke-width="1.5" d="M0,-3.0v7 M-2.5,-0.5L0,-3.0L2.5,-0.5"/>
                </g>
                <g id="arrowDown" xlink:href="#dirArrow" transform="rotate(180) translate(-30 -48)" onmousedown="handlePan(0,1)">
                  <use xlink:href="#rim" fill="#404040">
                        <set attributeName="fill" to="#808080" begin="arrowDown.mouseover" end="arrowDown.mouseout"/>
                  </use>
                  <path fill="none" stroke="white" stroke-width="1.5" d="M0,-3.0v7 M-2.5,-0.5L0,-3.0L2.5,-0.5"/>
                </g>
                <g id="arrowLeft" xlink:href="#dirArrow" transform="rotate(270) translate(-36 17)" onmousedown="handlePan(-1,0)">
                  <use xlink:href="#rim" fill="#404040">
                        <set attributeName="fill" to="#808080" begin="arrowLeft.mouseover" end="arrowLeft.mouseout"/>
                  </use>
                  <path fill="none" stroke="white" stroke-width="1.5" d="M0,-3.0v7 M-2.5,-0.5L0,-3.0L2.5,-0.5"/>
                </g>
        </g>
        <svg viewBox="0 0 15 15" width="100%" height="30px" preserveAspectRatio="xMaxYMin meet">
         <g id="arrow_out" transform="scale(0.3 0.3)">
          <a xlink:href="class_juniper_1_1_unity_1_1_master_scene_controller__coll__graph_org.svg" target="_base">
           <rect id="button" ry="5" rx="5" y="6" x="6" height="38" width="38"
                fill="#f2f5e9" fill-opacity="0.5" stroke="#606060" stroke-width="1.0"/>
           <path id="arrow"
             d="M 11.500037,31.436501 C 11.940474,20.09759 22.043105,11.32322 32.158766,21.979434 L 37.068811,17.246167 C 37.068811,17.246167 37.088388,32 37.088388,32 L 22.160133,31.978069 C 22.160133,31.978069 26.997745,27.140456 26.997745,27.140456 C 18.528582,18.264221 13.291696,25.230495 11.500037,31.436501 z"
             style="fill:#404040;"/>
          </a>
         </g>
        </svg>
</svg>
