<?xml version="1.0" encoding="UTF-8" standalone="no"?>
<!DOCTYPE svg PUBLIC "-//W3C//DTD SVG 1.1//EN"
 "http://www.w3.org/Graphics/SVG/1.1/DTD/svg11.dtd">
<!-- Generated by graphviz version 2.38.0 (20140413.2041)
 -->
<!-- Title: Juniper.Unity.Input.OculusInputModule Pages: 1 -->
<svg width="194pt" height="474pt"
 viewBox="0.00 0.00 194.00 474.00" xmlns="http://www.w3.org/2000/svg" xmlns:xlink="http://www.w3.org/1999/xlink">
<g id="graph0" class="graph" transform="scale(1 1) rotate(0) translate(4 470)">
<title>Juniper.Unity.Input.OculusInputModule</title>
<polygon fill="white" stroke="none" points="-4,4 -4,-470 190,-470 190,4 -4,4"/>
<!-- Node0 -->
<g id="node1" class="node"><title>Node0</title>
<g id="a_node1"><a xlink:title=" ">
<polygon fill="#bfbfbf" stroke="black" points="36.5,-0.5 36.5,-79.5 164.5,-79.5 164.5,-0.5 36.5,-0.5"/>
<text text-anchor="start" x="44.5" y="-67.5" font-family="SegoeUI" font-size="10.00">Juniper.Unity.Input.Oculus</text>
<text text-anchor="middle" x="100.5" y="-56.5" font-family="SegoeUI" font-size="10.00">InputModule</text>
<polyline fill="none" stroke="black" points="36.5,-49.5 164.5,-49.5 "/>
<text text-anchor="middle" x="100.5" y="-37.5" font-family="SegoeUI" font-size="10.00"> </text>
<polyline fill="none" stroke="black" points="36.5,-30.5 164.5,-30.5 "/>
<text text-anchor="start" x="44.5" y="-18.5" font-family="SegoeUI" font-size="10.00">+ Install()</text>
<text text-anchor="start" x="44.5" y="-7.5" font-family="SegoeUI" font-size="10.00">+ Uninstall()</text>
</a>
</g>
</g>
<!-- Node1 -->
<g id="node2" class="node"><title>Node1</title>
<g id="a_node2"><a xlink:href="../../d6/dd6/class_juniper_1_1_unity_1_1_input_1_1_abstract_unified_input_module.html" target="_top" xlink:title="Finds all of the IPointerDevice s and fires raycaster events for all of them.">
<polygon fill="white" stroke="black" points="33.5,-116.5 33.5,-349.5 167.5,-349.5 167.5,-116.5 33.5,-116.5"/>
<text text-anchor="middle" x="100.5" y="-337.5" font-family="SegoeUI" font-size="10.00">AbstractUnifiedInputModule</text>
<polyline fill="none" stroke="black" points="33.5,-330.5 167.5,-330.5 "/>
<text text-anchor="start" x="41.5" y="-318.5" font-family="SegoeUI" font-size="10.00">+ Devices</text>
<text text-anchor="start" x="41.5" y="-307.5" font-family="SegoeUI" font-size="10.00">+ pointerPrefab</text>
<text text-anchor="start" x="41.5" y="-296.5" font-family="SegoeUI" font-size="10.00">+ onPointerFound</text>
<text text-anchor="start" x="41.5" y="-285.5" font-family="SegoeUI" font-size="10.00">+ AnyPointerDragging</text>
<text text-anchor="start" x="41.5" y="-274.5" font-family="SegoeUI" font-size="10.00"># stage</text>
<text text-anchor="start" x="41.5" y="-263.5" font-family="SegoeUI" font-size="10.00">&#45; newDevices</text>
<polyline fill="none" stroke="black" points="33.5,-256.5 167.5,-256.5 "/>
<text text-anchor="start" x="41.5" y="-244.5" font-family="SegoeUI" font-size="10.00">+ AddPointer()</text>
<text text-anchor="start" x="41.5" y="-233.5" font-family="SegoeUI" font-size="10.00">+ WithPointer()</text>
<text text-anchor="start" x="41.5" y="-222.5" font-family="SegoeUI" font-size="10.00">+ Reinstall()</text>
<text text-anchor="start" x="41.5" y="-211.5" font-family="SegoeUI" font-size="10.00">+ Process()</text>
<text text-anchor="start" x="41.5" y="-200.5" font-family="SegoeUI" font-size="10.00">+ Clone()</text>
<text text-anchor="start" x="41.5" y="-189.5" font-family="SegoeUI" font-size="10.00">+ Install()</text>
<text text-anchor="start" x="41.5" y="-178.5" font-family="SegoeUI" font-size="10.00">+ Uninstall()</text>
<text text-anchor="start" x="41.5" y="-167.5" font-family="SegoeUI" font-size="10.00"># Awake()</text>
<text text-anchor="start" x="41.5" y="-156.5" font-family="SegoeUI" font-size="10.00">&#45; OnPointerFound()</text>
<text text-anchor="start" x="41.5" y="-145.5" font-family="SegoeUI" font-size="10.00">&#45; UpdateRay()</text>
<text text-anchor="start" x="41.5" y="-134.5" font-family="SegoeUI" font-size="10.00">&#45; RaycastAll()</text>
<text text-anchor="start" x="41.5" y="-123.5" font-family="SegoeUI" font-size="10.00">&#45; RaycastComparer()</text>
</a>
</g>
</g>
<!-- Node1&#45;&gt;Node0 -->
<g id="edge1" class="edge"><title>Node1&#45;&gt;Node0</title>
<path fill="none" stroke="midnightblue" d="M100.5,-106.405C100.5,-96.8664 100.5,-87.774 100.5,-79.5655"/>
<polygon fill="none" stroke="midnightblue" points="97.0001,-106.488 100.5,-116.488 104,-106.488 97.0001,-106.488"/>
</g>
<!-- Node2 -->
<g id="node3" class="node"><title>Node2</title>
<g id="a_node3"><a xlink:title=" ">
<polygon fill="white" stroke="#bfbfbf" points="0,-397.5 0,-454.5 99,-454.5 99,-397.5 0,-397.5"/>
<text text-anchor="middle" x="49.5" y="-442.5" font-family="SegoeUI" font-size="10.00">PointerInputModule</text>
<polyline fill="none" stroke="#bfbfbf" points="0,-435.5 99,-435.5 "/>
<text text-anchor="middle" x="49.5" y="-423.5" font-family="SegoeUI" font-size="10.00"> </text>
<polyline fill="none" stroke="#bfbfbf" points="0,-416.5 99,-416.5 "/>
<text text-anchor="middle" x="49.5" y="-404.5" font-family="SegoeUI" font-size="10.00"> </text>
</a>
</g>
</g>
<!-- Node2&#45;&gt;Node1 -->
<g id="edge2" class="edge"><title>Node2&#45;&gt;Node1</title>
<path fill="none" stroke="midnightblue" d="M59.5291,-387.44C62.5243,-376.223 65.9774,-363.29 69.5819,-349.791"/>
<polygon fill="none" stroke="midnightblue" points="56.1142,-386.663 56.9158,-397.227 62.8772,-388.468 56.1142,-386.663"/>
</g>
<!-- Node3 -->
<g id="node4" class="node"><title>Node3</title>
<g id="a_node4"><a xlink:href="../../db/d28/interface_juniper_1_1_i_installable.html" target="_top" xlink:title=" ">
<polygon fill="white" stroke="black" points="117,-386.5 117,-465.5 186,-465.5 186,-386.5 117,-386.5"/>
<text text-anchor="middle" x="151.5" y="-453.5" font-family="SegoeUI" font-size="10.00">IInstallable</text>
<polyline fill="none" stroke="black" points="117,-446.5 186,-446.5 "/>
<text text-anchor="middle" x="151.5" y="-434.5" font-family="SegoeUI" font-size="10.00"> </text>
<polyline fill="none" stroke="black" points="117,-427.5 186,-427.5 "/>
<text text-anchor="start" x="125" y="-415.5" font-family="SegoeUI" font-size="10.00">+ Install()</text>
<text text-anchor="start" x="125" y="-404.5" font-family="SegoeUI" font-size="10.00">+ Reinstall()</text>
<text text-anchor="start" x="125" y="-393.5" font-family="SegoeUI" font-size="10.00">+ Uninstall()</text>
</a>
</g>
</g>
<!-- Node3&#45;&gt;Node1 -->
<g id="edge3" class="edge"><title>Node3&#45;&gt;Node1</title>
<path fill="none" stroke="midnightblue" d="M138.531,-376.429C136.284,-368.013 133.864,-358.95 131.372,-349.619"/>
<polygon fill="none" stroke="midnightblue" points="135.218,-377.59 141.179,-386.348 141.981,-375.784 135.218,-377.59"/>
</g>
</g>
</svg>
