<?xml version="1.0" encoding="UTF-8" standalone="no"?>
<!DOCTYPE svg PUBLIC "-//W3C//DTD SVG 1.1//EN"
 "http://www.w3.org/Graphics/SVG/1.1/DTD/svg11.dtd">
<!-- Generated by graphviz version 2.38.0 (20140413.2041)
 -->
<!-- Title: Juniper.Unity.Widgets.AbstractTouchable Pages: 1 -->
<svg width="822pt" height="519pt"
 viewBox="0.00 0.00 822.00 519.00" xmlns="http://www.w3.org/2000/svg" xmlns:xlink="http://www.w3.org/1999/xlink">
<g id="graph0" class="graph" transform="scale(1 1) rotate(0) translate(4 515)">
<title>Juniper.Unity.Widgets.AbstractTouchable</title>
<polygon fill="white" stroke="none" points="-4,4 -4,-515 818,-515 818,4 -4,4"/>
<!-- Node12 -->
<g id="node1" class="node"><title>Node12</title>
<g id="a_node1"><a xlink:title="The base class for all interactive, AR&#45;compatible, GUI controls /// This class is abstract to avoid i...">
<polygon fill="#bfbfbf" stroke="black" points="338.5,-0.5 338.5,-244.5 485.5,-244.5 485.5,-0.5 338.5,-0.5"/>
<text text-anchor="start" x="346.5" y="-232.5" font-family="SegoeUI" font-size="10.00">Juniper.Unity.Widgets.Abstract</text>
<text text-anchor="middle" x="412" y="-221.5" font-family="SegoeUI" font-size="10.00">Touchable</text>
<polyline fill="none" stroke="black" points="338.5,-214.5 485.5,-214.5 "/>
<text text-anchor="start" x="346.5" y="-202.5" font-family="SegoeUI" font-size="10.00">+ disabled</text>
<text text-anchor="start" x="346.5" y="-191.5" font-family="SegoeUI" font-size="10.00">+ DisabledChanged</text>
<text text-anchor="start" x="346.5" y="-180.5" font-family="SegoeUI" font-size="10.00">+ DisabledDown</text>
<text text-anchor="start" x="346.5" y="-169.5" font-family="SegoeUI" font-size="10.00">+ DisabledUp</text>
<text text-anchor="start" x="346.5" y="-158.5" font-family="SegoeUI" font-size="10.00">+ IsDisabled</text>
<text text-anchor="start" x="346.5" y="-147.5" font-family="SegoeUI" font-size="10.00">+ PointerPositionChanged</text>
<text text-anchor="start" x="346.5" y="-136.5" font-family="SegoeUI" font-size="10.00">&#45; wasDisabled</text>
<polyline fill="none" stroke="black" points="338.5,-129.5 485.5,-129.5 "/>
<text text-anchor="start" x="346.5" y="-117.5" font-family="SegoeUI" font-size="10.00">+ SetDisabled()</text>
<text text-anchor="start" x="346.5" y="-106.5" font-family="SegoeUI" font-size="10.00">+ ToggleEnabled()</text>
<text text-anchor="start" x="346.5" y="-95.5" font-family="SegoeUI" font-size="10.00">+ OnPointerEnter()</text>
<text text-anchor="start" x="346.5" y="-84.5" font-family="SegoeUI" font-size="10.00">+ OnPointerExit()</text>
<text text-anchor="start" x="346.5" y="-73.5" font-family="SegoeUI" font-size="10.00">+ OnPointerDown()</text>
<text text-anchor="start" x="346.5" y="-62.5" font-family="SegoeUI" font-size="10.00">+ OnPointerUp()</text>
<text text-anchor="start" x="346.5" y="-51.5" font-family="SegoeUI" font-size="10.00"># Update()</text>
<text text-anchor="start" x="346.5" y="-40.5" font-family="SegoeUI" font-size="10.00"># LateUpdate()</text>
<text text-anchor="start" x="346.5" y="-29.5" font-family="SegoeUI" font-size="10.00"># ShowState()</text>
<text text-anchor="start" x="346.5" y="-18.5" font-family="SegoeUI" font-size="10.00"># GetPosition()</text>
<text text-anchor="start" x="346.5" y="-7.5" font-family="SegoeUI" font-size="10.00">&#45; NormalizePart()</text>
</a>
</g>
</g>
<!-- Node13 -->
<g id="node2" class="node"><title>Node13</title>
<g id="a_node2"><a xlink:title=" ">
<polygon fill="white" stroke="#bfbfbf" points="0,-453.5 0,-510.5 82,-510.5 82,-453.5 0,-453.5"/>
<text text-anchor="middle" x="41" y="-498.5" font-family="SegoeUI" font-size="10.00">MonoBehaviour</text>
<polyline fill="none" stroke="#bfbfbf" points="0,-491.5 82,-491.5 "/>
<text text-anchor="middle" x="41" y="-479.5" font-family="SegoeUI" font-size="10.00"> </text>
<polyline fill="none" stroke="#bfbfbf" points="0,-472.5 82,-472.5 "/>
<text text-anchor="middle" x="41" y="-460.5" font-family="SegoeUI" font-size="10.00"> </text>
</a>
</g>
</g>
<!-- Node13&#45;&gt;Node12 -->
<g id="edge1" class="edge"><title>Node13&#45;&gt;Node12</title>
<path fill="none" stroke="midnightblue" d="M27.4853,-443.571C16.9938,-407.593 7.8821,-353.07 32,-314 98.8695,-205.676 248.159,-156.84 338.433,-136.507"/>
<polygon fill="none" stroke="midnightblue" points="24.1628,-444.674 30.4546,-453.198 30.8519,-442.611 24.1628,-444.674"/>
</g>
<!-- Node18 -->
<g id="node7" class="node"><title>Node18</title>
<g id="a_node7"><a xlink:href="../../dd/d2d/class_juniper_1_1_unity_1_1_animation_1_1_abstract_animator.html" target="_top" xlink:title="An abstraction layer over different ways of showing UI state. Only one such component is allowed on a...">
<polygon fill="white" stroke="black" points="41,-314.5 41,-415.5 161,-415.5 161,-314.5 41,-314.5"/>
<text text-anchor="start" x="49" y="-403.5" font-family="SegoeUI" font-size="10.00">Juniper.Unity.Animation.</text>
<text text-anchor="middle" x="101" y="-392.5" font-family="SegoeUI" font-size="10.00">AbstractAnimator</text>
<polyline fill="none" stroke="black" points="41,-385.5 161,-385.5 "/>
<text text-anchor="middle" x="101" y="-373.5" font-family="SegoeUI" font-size="10.00"> </text>
<polyline fill="none" stroke="black" points="41,-366.5 161,-366.5 "/>
<text text-anchor="start" x="49" y="-354.5" font-family="SegoeUI" font-size="10.00">+ PlayCoroutine()</text>
<text text-anchor="start" x="49" y="-343.5" font-family="SegoeUI" font-size="10.00">+ Play()</text>
<text text-anchor="start" x="49" y="-332.5" font-family="SegoeUI" font-size="10.00">+ HasState()</text>
<text text-anchor="start" x="49" y="-321.5" font-family="SegoeUI" font-size="10.00">+ GetAnimator()</text>
</a>
</g>
</g>
<!-- Node13&#45;&gt;Node18 -->
<g id="edge7" class="edge"><title>Node13&#45;&gt;Node18</title>
<path fill="none" stroke="midnightblue" d="M60.1287,-444.337C64.8616,-435.265 70.0119,-425.394 75.011,-415.812"/>
<polygon fill="none" stroke="midnightblue" points="56.8942,-442.97 55.3715,-453.455 63.1003,-446.208 56.8942,-442.97"/>
</g>
<!-- Node14 -->
<g id="node3" class="node"><title>Node14</title>
<g id="a_node3"><a xlink:title=" ">
<polygon fill="white" stroke="#bfbfbf" points="179.5,-336.5 179.5,-393.5 284.5,-393.5 284.5,-336.5 179.5,-336.5"/>
<text text-anchor="middle" x="232" y="-381.5" font-family="SegoeUI" font-size="10.00">IPointerEnterHandler</text>
<polyline fill="none" stroke="#bfbfbf" points="179.5,-374.5 284.5,-374.5 "/>
<text text-anchor="middle" x="232" y="-362.5" font-family="SegoeUI" font-size="10.00"> </text>
<polyline fill="none" stroke="#bfbfbf" points="179.5,-355.5 284.5,-355.5 "/>
<text text-anchor="middle" x="232" y="-343.5" font-family="SegoeUI" font-size="10.00"> </text>
</a>
</g>
</g>
<!-- Node14&#45;&gt;Node12 -->
<g id="edge2" class="edge"><title>Node14&#45;&gt;Node12</title>
<path fill="none" stroke="midnightblue" d="M258.867,-328.103C279.905,-299.993 310.217,-259.494 338.329,-221.933"/>
<polygon fill="none" stroke="midnightblue" points="255.838,-326.308 252.648,-336.412 261.442,-330.503 255.838,-326.308"/>
</g>
<!-- Node15 -->
<g id="node4" class="node"><title>Node15</title>
<g id="a_node4"><a xlink:title=" ">
<polygon fill="white" stroke="#bfbfbf" points="303,-336.5 303,-393.5 401,-393.5 401,-336.5 303,-336.5"/>
<text text-anchor="middle" x="352" y="-381.5" font-family="SegoeUI" font-size="10.00">IPointerExitHandler</text>
<polyline fill="none" stroke="#bfbfbf" points="303,-374.5 401,-374.5 "/>
<text text-anchor="middle" x="352" y="-362.5" font-family="SegoeUI" font-size="10.00"> </text>
<polyline fill="none" stroke="#bfbfbf" points="303,-355.5 401,-355.5 "/>
<text text-anchor="middle" x="352" y="-343.5" font-family="SegoeUI" font-size="10.00"> </text>
</a>
</g>
</g>
<!-- Node15&#45;&gt;Node12 -->
<g id="edge3" class="edge"><title>Node15&#45;&gt;Node12</title>
<path fill="none" stroke="midnightblue" d="M361.308,-326.69C366.886,-304.33 374.326,-274.511 381.783,-244.62"/>
<polygon fill="none" stroke="midnightblue" points="357.908,-325.862 358.883,-336.412 364.699,-327.556 357.908,-325.862"/>
</g>
<!-- Node16 -->
<g id="node5" class="node"><title>Node16</title>
<g id="a_node5"><a xlink:title=" ">
<polygon fill="white" stroke="#bfbfbf" points="419.5,-336.5 419.5,-393.5 526.5,-393.5 526.5,-336.5 419.5,-336.5"/>
<text text-anchor="middle" x="473" y="-381.5" font-family="SegoeUI" font-size="10.00">IPointerDownHandler</text>
<polyline fill="none" stroke="#bfbfbf" points="419.5,-374.5 526.5,-374.5 "/>
<text text-anchor="middle" x="473" y="-362.5" font-family="SegoeUI" font-size="10.00"> </text>
<polyline fill="none" stroke="#bfbfbf" points="419.5,-355.5 526.5,-355.5 "/>
<text text-anchor="middle" x="473" y="-343.5" font-family="SegoeUI" font-size="10.00"> </text>
</a>
</g>
</g>
<!-- Node16&#45;&gt;Node12 -->
<g id="edge4" class="edge"><title>Node16&#45;&gt;Node12</title>
<path fill="none" stroke="midnightblue" d="M463.537,-326.69C457.865,-304.33 450.302,-274.511 442.721,-244.62"/>
<polygon fill="none" stroke="midnightblue" points="460.151,-327.579 466.003,-336.412 466.936,-325.858 460.151,-327.579"/>
</g>
<!-- Node17 -->
<g id="node6" class="node"><title>Node17</title>
<g id="a_node6"><a xlink:title=" ">
<polygon fill="white" stroke="#bfbfbf" points="545,-336.5 545,-393.5 639,-393.5 639,-336.5 545,-336.5"/>
<text text-anchor="middle" x="592" y="-381.5" font-family="SegoeUI" font-size="10.00">IPointerUpHandler</text>
<polyline fill="none" stroke="#bfbfbf" points="545,-374.5 639,-374.5 "/>
<text text-anchor="middle" x="592" y="-362.5" font-family="SegoeUI" font-size="10.00"> </text>
<polyline fill="none" stroke="#bfbfbf" points="545,-355.5 639,-355.5 "/>
<text text-anchor="middle" x="592" y="-343.5" font-family="SegoeUI" font-size="10.00"> </text>
</a>
</g>
</g>
<!-- Node17&#45;&gt;Node12 -->
<g id="edge5" class="edge"><title>Node17&#45;&gt;Node12</title>
<path fill="none" stroke="midnightblue" d="M565.133,-328.103C544.095,-299.993 513.783,-259.494 485.671,-221.933"/>
<polygon fill="none" stroke="midnightblue" points="562.558,-330.503 571.352,-336.412 568.162,-326.308 562.558,-330.503"/>
</g>
<!-- Node18&#45;&gt;Node12 -->
<g id="edge6" class="edge"><title>Node18&#45;&gt;Node12</title>
<path fill="none" stroke="#404040" d="M161.333,-317.344C208.975,-280.501 275.983,-228.683 328.734,-187.891"/>
<polygon fill="none" stroke="#404040" points="328.917,-187.749 331.216,-180.915 338.409,-180.409 336.11,-187.243 328.917,-187.749"/>
<text text-anchor="middle" x="252" y="-277" font-family="SegoeUI" font-size="10.00"> &#45;animator</text>
</g>
<!-- Node19 -->
<g id="node8" class="node"><title>Node19</title>
<g id="a_node8"><a xlink:title=" ">
<polygon fill="white" stroke="#bfbfbf" points="657,-336.5 657,-393.5 723,-393.5 723,-336.5 657,-336.5"/>
<text text-anchor="middle" x="690" y="-381.5" font-family="SegoeUI" font-size="10.00">UnityEngine</text>
<polyline fill="none" stroke="#bfbfbf" points="657,-374.5 723,-374.5 "/>
<text text-anchor="middle" x="690" y="-362.5" font-family="SegoeUI" font-size="10.00"> </text>
<polyline fill="none" stroke="#bfbfbf" points="657,-355.5 723,-355.5 "/>
<text text-anchor="middle" x="690" y="-343.5" font-family="SegoeUI" font-size="10.00"> </text>
</a>
</g>
</g>
<!-- Node19&#45;&gt;Node12 -->
<g id="edge8" class="edge"><title>Node19&#45;&gt;Node12</title>
<path fill="none" stroke="#404040" d="M668.462,-336.428C662.148,-328.892 655.042,-320.906 648,-314 600.354,-267.276 542.044,-220.126 495.305,-184.423"/>
<polygon fill="none" stroke="#404040" points="495.069,-184.244 487.871,-183.798 485.515,-176.982 492.712,-177.428 495.069,-184.244"/>
<text text-anchor="middle" x="669" y="-288" font-family="SegoeUI" font-size="10.00"> #lastPointerPosition</text>
<text text-anchor="middle" x="669" y="-277" font-family="SegoeUI" font-size="10.00">+pointerPosition</text>
<text text-anchor="middle" x="669" y="-266" font-family="SegoeUI" font-size="10.00">+clickButton</text>
</g>
<!-- Node20 -->
<g id="node9" class="node"><title>Node20</title>
<g id="a_node9"><a xlink:title=" ">
<polygon fill="white" stroke="#bfbfbf" points="761.5,-336.5 761.5,-393.5 800.5,-393.5 800.5,-336.5 761.5,-336.5"/>
<text text-anchor="middle" x="781" y="-381.5" font-family="SegoeUI" font-size="10.00">static</text>
<polyline fill="none" stroke="#bfbfbf" points="761.5,-374.5 800.5,-374.5 "/>
<text text-anchor="middle" x="781" y="-362.5" font-family="SegoeUI" font-size="10.00"> </text>
<polyline fill="none" stroke="#bfbfbf" points="761.5,-355.5 800.5,-355.5 "/>
<text text-anchor="middle" x="781" y="-343.5" font-family="SegoeUI" font-size="10.00"> </text>
</a>
</g>
</g>
<!-- Node20&#45;&gt;Node12 -->
<g id="edge9" class="edge"><title>Node20&#45;&gt;Node12</title>
<path fill="none" stroke="#404040" d="M769.018,-336.474C758.162,-314.215 740.305,-283.336 717,-263 652.953,-207.112 562.77,-169.6 497.086,-147.681"/>
<polygon fill="none" stroke="#404040" points="496.936,-147.632 489.989,-149.569 485.53,-143.901 492.477,-141.965 496.936,-147.632"/>
<text text-anchor="middle" x="779.5" y="-277" font-family="SegoeUI" font-size="10.00"> +PART_NAMES</text>
</g>
</g>
</svg>
