<?xml version="1.0" encoding="UTF-8" standalone="no"?>
<!DOCTYPE svg PUBLIC "-//W3C//DTD SVG 1.1//EN"
 "http://www.w3.org/Graphics/SVG/1.1/DTD/svg11.dtd">
<!-- Generated by graphviz version 2.38.0 (20140413.2041)
 -->
<!-- Title: Juniper.IO.ProgressStream Pages: 1 -->
<svg width="290pt" height="391pt"
 viewBox="0.00 0.00 289.50 391.00" xmlns="http://www.w3.org/2000/svg" xmlns:xlink="http://www.w3.org/1999/xlink">
<g id="graph0" class="graph" transform="scale(1 1) rotate(0) translate(4 387)">
<title>Juniper.IO.ProgressStream</title>
<polygon fill="white" stroke="none" points="-4,4 -4,-387 285.5,-387 285.5,4 -4,4"/>
<!-- Node0 -->
<g id="node1" class="node"><title>Node0</title>
<g id="a_node1"><a xlink:title="A stream that can report progress on how much it has been consumed.">
<polygon fill="#bfbfbf" stroke="black" points="54,-0.5 54,-277.5 186,-277.5 186,-0.5 54,-0.5"/>
<text text-anchor="middle" x="120" y="-265.5" font-family="SegoeUI" font-size="10.00">Juniper.IO.ProgressStream</text>
<polyline fill="none" stroke="black" points="54,-258.5 186,-258.5 "/>
<text text-anchor="start" x="62" y="-246.5" font-family="SegoeUI" font-size="10.00">+ SourceStream</text>
<text text-anchor="start" x="62" y="-235.5" font-family="SegoeUI" font-size="10.00">+ CanRead</text>
<text text-anchor="start" x="62" y="-224.5" font-family="SegoeUI" font-size="10.00">+ CanSeek</text>
<text text-anchor="start" x="62" y="-213.5" font-family="SegoeUI" font-size="10.00">+ CanWrite</text>
<text text-anchor="start" x="62" y="-202.5" font-family="SegoeUI" font-size="10.00">+ Length</text>
<text text-anchor="start" x="62" y="-191.5" font-family="SegoeUI" font-size="10.00">+ BaseStream</text>
<text text-anchor="start" x="62" y="-180.5" font-family="SegoeUI" font-size="10.00">+ TotalByteCount</text>
<text text-anchor="start" x="62" y="-169.5" font-family="SegoeUI" font-size="10.00">+ Status</text>
<text text-anchor="start" x="62" y="-158.5" font-family="SegoeUI" font-size="10.00">+ Progress</text>
<text text-anchor="start" x="62" y="-147.5" font-family="SegoeUI" font-size="10.00">+ Position</text>
<text text-anchor="start" x="62" y="-136.5" font-family="SegoeUI" font-size="10.00">&#45; ownStream</text>
<text text-anchor="start" x="62" y="-125.5" font-family="SegoeUI" font-size="10.00">&#45; length</text>
<text text-anchor="start" x="62" y="-114.5" font-family="SegoeUI" font-size="10.00">&#45; parent</text>
<text text-anchor="start" x="62" y="-103.5" font-family="SegoeUI" font-size="10.00">&#45; totalRead</text>
<polyline fill="none" stroke="black" points="54,-96.5 186,-96.5 "/>
<text text-anchor="start" x="62" y="-84.5" font-family="SegoeUI" font-size="10.00">+ ProgressStream()</text>
<text text-anchor="start" x="62" y="-73.5" font-family="SegoeUI" font-size="10.00">+ SetLength()</text>
<text text-anchor="start" x="62" y="-62.5" font-family="SegoeUI" font-size="10.00">+ ReportWithStatus()</text>
<text text-anchor="start" x="62" y="-51.5" font-family="SegoeUI" font-size="10.00">+ Flush()</text>
<text text-anchor="start" x="62" y="-40.5" font-family="SegoeUI" font-size="10.00">+ Read()</text>
<text text-anchor="start" x="62" y="-29.5" font-family="SegoeUI" font-size="10.00">+ Seek()</text>
<text text-anchor="start" x="62" y="-18.5" font-family="SegoeUI" font-size="10.00">+ Write()</text>
<text text-anchor="start" x="62" y="-7.5" font-family="SegoeUI" font-size="10.00"># Dispose()</text>
</a>
</g>
</g>
<!-- Node1 -->
<g id="node2" class="node"><title>Node1</title>
<g id="a_node2"><a xlink:title=" ">
<polygon fill="white" stroke="#bfbfbf" points="0,-320 0,-377 48,-377 48,-320 0,-320"/>
<text text-anchor="middle" x="24" y="-365" font-family="SegoeUI" font-size="10.00">Stream</text>
<polyline fill="none" stroke="#bfbfbf" points="0,-358 48,-358 "/>
<text text-anchor="middle" x="24" y="-346" font-family="SegoeUI" font-size="10.00"> </text>
<polyline fill="none" stroke="#bfbfbf" points="0,-339 48,-339 "/>
<text text-anchor="middle" x="24" y="-327" font-family="SegoeUI" font-size="10.00"> </text>
</a>
</g>
</g>
<!-- Node1&#45;&gt;Node0 -->
<g id="edge1" class="edge"><title>Node1&#45;&gt;Node0</title>
<path fill="none" stroke="midnightblue" d="M41.0826,-310.577C45.646,-300.713 50.8585,-289.447 56.3804,-277.511"/>
<polygon fill="none" stroke="midnightblue" points="37.7705,-309.4 36.7481,-319.946 44.1235,-312.339 37.7705,-309.4"/>
</g>
<!-- Node2 -->
<g id="node3" class="node"><title>Node2</title>
<g id="a_node3"><a xlink:href="../../d3/ddf/interface_juniper_1_1_i_o_1_1_i_progress.html" target="_top" xlink:title="Progress reporting interface for asynchronous operations.">
<polygon fill="white" stroke="black" points="66,-314.5 66,-382.5 174,-382.5 174,-314.5 66,-314.5"/>
<text text-anchor="middle" x="120" y="-370.5" font-family="SegoeUI" font-size="10.00">IProgress</text>
<polyline fill="none" stroke="black" points="66,-363.5 174,-363.5 "/>
<text text-anchor="start" x="74" y="-351.5" font-family="SegoeUI" font-size="10.00">+ Status</text>
<text text-anchor="start" x="74" y="-340.5" font-family="SegoeUI" font-size="10.00">+ Progress</text>
<polyline fill="none" stroke="black" points="66,-333.5 174,-333.5 "/>
<text text-anchor="start" x="74" y="-321.5" font-family="SegoeUI" font-size="10.00">+ ReportWithStatus()</text>
</a>
</g>
</g>
<!-- Node2&#45;&gt;Node0 -->
<g id="edge2" class="edge"><title>Node2&#45;&gt;Node0</title>
<path fill="none" stroke="midnightblue" d="M120,-303.93C120,-295.794 120,-286.903 120,-277.605"/>
<polygon fill="none" stroke="midnightblue" points="116.5,-304.162 120,-314.162 123.5,-304.162 116.5,-304.162"/>
</g>
<!-- Node3 -->
<g id="node4" class="node"><title>Node3</title>
<g id="a_node4"><a xlink:href="../../da/db7/interface_juniper_1_1_i_o_1_1_i_stream_wrapper.html" target="_top" xlink:title=" ">
<polygon fill="white" stroke="black" points="192.5,-320 192.5,-377 281.5,-377 281.5,-320 192.5,-320"/>
<text text-anchor="middle" x="237" y="-365" font-family="SegoeUI" font-size="10.00">IStreamWrapper</text>
<polyline fill="none" stroke="black" points="192.5,-358 281.5,-358 "/>
<text text-anchor="start" x="200.5" y="-346" font-family="SegoeUI" font-size="10.00">+ SourceStream</text>
<polyline fill="none" stroke="black" points="192.5,-339 281.5,-339 "/>
<text text-anchor="middle" x="237" y="-327" font-family="SegoeUI" font-size="10.00"> </text>
</a>
</g>
</g>
<!-- Node3&#45;&gt;Node0 -->
<g id="edge3" class="edge"><title>Node3&#45;&gt;Node0</title>
<path fill="none" stroke="midnightblue" d="M216.346,-310.87C207.704,-295.544 197.132,-276.794 186.195,-257.396"/>
<polygon fill="none" stroke="midnightblue" points="213.503,-312.954 221.463,-319.946 219.6,-309.516 213.503,-312.954"/>
</g>
</g>
</svg>
