<?xml version="1.0" encoding="UTF-8" standalone="no"?>
<!DOCTYPE svg PUBLIC "-//W3C//DTD SVG 1.1//EN"
 "http://www.w3.org/Graphics/SVG/1.1/DTD/svg11.dtd">
<!-- Generated by graphviz version 2.38.0 (20140413.2041)
 -->
<!-- Title: Juniper.Unity.Anchoring.Grounded Pages: 1 -->
<svg width="138pt" height="325pt"
 viewBox="0.00 0.00 138.00 325.00" xmlns="http://www.w3.org/2000/svg" xmlns:xlink="http://www.w3.org/1999/xlink">
<g id="graph0" class="graph" transform="scale(1 1) rotate(0) translate(4 321)">
<title>Juniper.Unity.Anchoring.Grounded</title>
<polygon fill="white" stroke="none" points="-4,4 -4,-321 134,-321 134,4 -4,4"/>
<!-- Node0 -->
<g id="node1" class="node"><title>Node0</title>
<g id="a_node1"><a xlink:title="This component searches for the ground above or below the gameObject it&#39;s attached to....">
<polygon fill="#bfbfbf" stroke="black" points="0,-0.5 0,-222.5 130,-222.5 130,-0.5 0,-0.5"/>
<text text-anchor="start" x="8" y="-210.5" font-family="SegoeUI" font-size="10.00">Juniper.Unity.Anchoring.</text>
<text text-anchor="middle" x="65" y="-199.5" font-family="SegoeUI" font-size="10.00">Grounded</text>
<polyline fill="none" stroke="black" points="0,-192.5 130,-192.5 "/>
<text text-anchor="start" x="8" y="-180.5" font-family="SegoeUI" font-size="10.00">+ testTimeout</text>
<text text-anchor="start" x="8" y="-169.5" font-family="SegoeUI" font-size="10.00">+ horizontalnessThreshold</text>
<text text-anchor="start" x="8" y="-158.5" font-family="SegoeUI" font-size="10.00">&#45; dragger</text>
<text text-anchor="start" x="8" y="-147.5" font-family="SegoeUI" font-size="10.00">&#45; body</text>
<text text-anchor="start" x="8" y="-136.5" font-family="SegoeUI" font-size="10.00">&#45; wasUsingGravity</text>
<text text-anchor="start" x="8" y="-125.5" font-family="SegoeUI" font-size="10.00">&#45; groundPoint</text>
<text text-anchor="start" x="8" y="-114.5" font-family="SegoeUI" font-size="10.00">&#45; q</text>
<text text-anchor="start" x="8" y="-103.5" font-family="SegoeUI" font-size="10.00">&#45; GroundMask</text>
<text text-anchor="start" x="8" y="-92.5" font-family="SegoeUI" font-size="10.00">&#45; lastTime</text>
<polyline fill="none" stroke="black" points="0,-85.5 130,-85.5 "/>
<text text-anchor="start" x="8" y="-73.5" font-family="SegoeUI" font-size="10.00">+ Awake()</text>
<text text-anchor="start" x="8" y="-62.5" font-family="SegoeUI" font-size="10.00">+ Update()</text>
<text text-anchor="start" x="8" y="-51.5" font-family="SegoeUI" font-size="10.00">+ WhenGrounded()</text>
<text text-anchor="start" x="8" y="-40.5" font-family="SegoeUI" font-size="10.00">&#45; Freeze()</text>
<text text-anchor="start" x="8" y="-29.5" font-family="SegoeUI" font-size="10.00">&#45; GetGroundUnderObject()</text>
<text text-anchor="start" x="8" y="-18.5" font-family="SegoeUI" font-size="10.00">&#45; Unfreeze()</text>
<text text-anchor="start" x="8" y="-7.5" font-family="SegoeUI" font-size="10.00">&#45; EmptyJobQueue()</text>
</a>
</g>
</g>
<!-- Node1 -->
<g id="node2" class="node"><title>Node1</title>
<g id="a_node2"><a xlink:title=" ">
<polygon fill="white" stroke="#bfbfbf" points="24,-259.5 24,-316.5 106,-316.5 106,-259.5 24,-259.5"/>
<text text-anchor="middle" x="65" y="-304.5" font-family="SegoeUI" font-size="10.00">MonoBehaviour</text>
<polyline fill="none" stroke="#bfbfbf" points="24,-297.5 106,-297.5 "/>
<text text-anchor="middle" x="65" y="-285.5" font-family="SegoeUI" font-size="10.00"> </text>
<polyline fill="none" stroke="#bfbfbf" points="24,-278.5 106,-278.5 "/>
<text text-anchor="middle" x="65" y="-266.5" font-family="SegoeUI" font-size="10.00"> </text>
</a>
</g>
</g>
<!-- Node1&#45;&gt;Node0 -->
<g id="edge1" class="edge"><title>Node1&#45;&gt;Node0</title>
<path fill="none" stroke="midnightblue" d="M65,-249.203C65,-241.081 65,-232.104 65,-222.748"/>
<polygon fill="none" stroke="midnightblue" points="61.5001,-249.35 65,-259.35 68.5001,-249.35 61.5001,-249.35"/>
</g>
</g>
</svg>
