<?xml version="1.0" encoding="UTF-8" standalone="no"?>
<!DOCTYPE svg PUBLIC "-//W3C//DTD SVG 1.1//EN"
 "http://www.w3.org/Graphics/SVG/1.1/DTD/svg11.dtd">
<!-- Generated by graphviz version 2.38.0 (20140413.2041)
 -->
<!-- Title: Juniper.Widgets.QualityDegrader Pages: 1 -->
<svg width="165pt" height="281pt"
 viewBox="0.00 0.00 165.00 281.00" xmlns="http://www.w3.org/2000/svg" xmlns:xlink="http://www.w3.org/1999/xlink">
<g id="graph0" class="graph" transform="scale(1 1) rotate(0) translate(4 277)">
<title>Juniper.Widgets.QualityDegrader</title>
<polygon fill="white" stroke="none" points="-4,4 -4,-277 161,-277 161,4 -4,4"/>
<!-- Node0 -->
<g id="node1" class="node"><title>Node0</title>
<g id="a_node1"><a xlink:title="This component manages the quality settings on the fly, making sure the application never falls below...">
<polygon fill="#bfbfbf" stroke="black" points="0,-0.5 0,-178.5 157,-178.5 157,-0.5 0,-0.5"/>
<text text-anchor="middle" x="78.5" y="-166.5" font-family="SegoeUI" font-size="10.00">Juniper.Widgets.QualityDegrader</text>
<polyline fill="none" stroke="black" points="0,-159.5 157,-159.5 "/>
<text text-anchor="start" x="8" y="-147.5" font-family="SegoeUI" font-size="10.00">+ qualityButtons</text>
<text text-anchor="start" x="8" y="-136.5" font-family="SegoeUI" font-size="10.00">+ QualityLevel</text>
<text text-anchor="start" x="8" y="-125.5" font-family="SegoeUI" font-size="10.00">+ QualityName</text>
<text text-anchor="start" x="8" y="-114.5" font-family="SegoeUI" font-size="10.00">+ IsBad</text>
<text text-anchor="start" x="8" y="-103.5" font-family="SegoeUI" font-size="10.00">&#45; ground</text>
<text text-anchor="start" x="8" y="-92.5" font-family="SegoeUI" font-size="10.00">&#45; frameStats</text>
<text text-anchor="start" x="8" y="-81.5" font-family="SegoeUI" font-size="10.00">&#45; display</text>
<text text-anchor="start" x="8" y="-70.5" font-family="SegoeUI" font-size="10.00">&#45; GRAPHICS_QUALITY_KEY</text>
<polyline fill="none" stroke="black" points="0,-63.5 157,-63.5 "/>
<text text-anchor="start" x="8" y="-51.5" font-family="SegoeUI" font-size="10.00">+ Awake()</text>
<text text-anchor="start" x="8" y="-40.5" font-family="SegoeUI" font-size="10.00">+ Update()</text>
<text text-anchor="start" x="8" y="-29.5" font-family="SegoeUI" font-size="10.00">&#45; ChangeQuality()</text>
<text text-anchor="start" x="8" y="-18.5" font-family="SegoeUI" font-size="10.00">&#45; QualityValueChange()</text>
<text text-anchor="start" x="8" y="-7.5" font-family="SegoeUI" font-size="10.00">&#45; UpdateButtons()</text>
</a>
</g>
</g>
<!-- Node1 -->
<g id="node2" class="node"><title>Node1</title>
<g id="a_node2"><a xlink:title=" ">
<polygon fill="white" stroke="#bfbfbf" points="37.5,-215.5 37.5,-272.5 119.5,-272.5 119.5,-215.5 37.5,-215.5"/>
<text text-anchor="middle" x="78.5" y="-260.5" font-family="SegoeUI" font-size="10.00">MonoBehaviour</text>
<polyline fill="none" stroke="#bfbfbf" points="37.5,-253.5 119.5,-253.5 "/>
<text text-anchor="middle" x="78.5" y="-241.5" font-family="SegoeUI" font-size="10.00"> </text>
<polyline fill="none" stroke="#bfbfbf" points="37.5,-234.5 119.5,-234.5 "/>
<text text-anchor="middle" x="78.5" y="-222.5" font-family="SegoeUI" font-size="10.00"> </text>
</a>
</g>
</g>
<!-- Node1&#45;&gt;Node0 -->
<g id="edge1" class="edge"><title>Node1&#45;&gt;Node0</title>
<path fill="none" stroke="midnightblue" d="M78.5,-205.374C78.5,-197.089 78.5,-187.977 78.5,-178.62"/>
<polygon fill="none" stroke="midnightblue" points="75.0001,-205.383 78.5,-215.383 82.0001,-205.383 75.0001,-205.383"/>
</g>
</g>
</svg>
