<?xml version="1.0" encoding="UTF-8" standalone="no"?>
<!DOCTYPE svg PUBLIC "-//W3C//DTD SVG 1.1//EN"
 "http://www.w3.org/Graphics/SVG/1.1/DTD/svg11.dtd">
<!-- Generated by graphviz version 2.38.0 (20140413.2041)
 -->
<!-- Title: Juniper.World.GIS.Google.USAddress Pages: 1 -->
<svg width="347pt" height="314pt"
 viewBox="0.00 0.00 347.00 314.00" xmlns="http://www.w3.org/2000/svg" xmlns:xlink="http://www.w3.org/1999/xlink">
<g id="graph0" class="graph" transform="scale(1 1) rotate(0) translate(4 310)">
<title>Juniper.World.GIS.Google.USAddress</title>
<polygon fill="white" stroke="none" points="-4,4 -4,-310 343,-310 343,4 -4,4"/>
<!-- Node0 -->
<g id="node1" class="node"><title>Node0</title>
<g id="a_node1"><a xlink:title=" ">
<polygon fill="#bfbfbf" stroke="black" points="87,-0.5 87,-211.5 216,-211.5 216,-0.5 87,-0.5"/>
<text text-anchor="start" x="95" y="-199.5" font-family="SegoeUI" font-size="10.00">Juniper.World.GIS.Google.</text>
<text text-anchor="middle" x="151.5" y="-188.5" font-family="SegoeUI" font-size="10.00">USAddress</text>
<polyline fill="none" stroke="black" points="87,-181.5 216,-181.5 "/>
<text text-anchor="start" x="95" y="-169.5" font-family="SegoeUI" font-size="10.00">&#45; street</text>
<text text-anchor="start" x="95" y="-158.5" font-family="SegoeUI" font-size="10.00">&#45; city</text>
<text text-anchor="start" x="95" y="-147.5" font-family="SegoeUI" font-size="10.00">&#45; state</text>
<text text-anchor="start" x="95" y="-136.5" font-family="SegoeUI" font-size="10.00">&#45; zip</text>
<polyline fill="none" stroke="black" points="87,-129.5 216,-129.5 "/>
<text text-anchor="start" x="95" y="-117.5" font-family="SegoeUI" font-size="10.00">+ USAddress()</text>
<text text-anchor="start" x="95" y="-106.5" font-family="SegoeUI" font-size="10.00">+ GetObjectData()</text>
<text text-anchor="start" x="95" y="-95.5" font-family="SegoeUI" font-size="10.00">+ USAddress()</text>
<text text-anchor="start" x="95" y="-84.5" font-family="SegoeUI" font-size="10.00">+ ToString()</text>
<text text-anchor="start" x="95" y="-73.5" font-family="SegoeUI" font-size="10.00">+ Equals()</text>
<text text-anchor="start" x="95" y="-62.5" font-family="SegoeUI" font-size="10.00">+ Equals()</text>
<text text-anchor="start" x="95" y="-51.5" font-family="SegoeUI" font-size="10.00">+ Equals()</text>
<text text-anchor="start" x="95" y="-40.5" font-family="SegoeUI" font-size="10.00">+ GetHashCode()</text>
<text text-anchor="start" x="95" y="-29.5" font-family="SegoeUI" font-size="10.00">+ operator==()</text>
<text text-anchor="start" x="95" y="-18.5" font-family="SegoeUI" font-size="10.00">+ operator !=()</text>
<text text-anchor="start" x="95" y="-7.5" font-family="SegoeUI" font-size="10.00">&#45; USAddress()</text>
</a>
</g>
</g>
<!-- Node1 -->
<g id="node2" class="node"><title>Node1</title>
<g id="a_node2"><a xlink:title=" ">
<polygon fill="white" stroke="#bfbfbf" points="0,-248.5 0,-305.5 69,-305.5 69,-248.5 0,-248.5"/>
<text text-anchor="middle" x="34.5" y="-293.5" font-family="SegoeUI" font-size="10.00">ISerializable</text>
<polyline fill="none" stroke="#bfbfbf" points="0,-286.5 69,-286.5 "/>
<text text-anchor="middle" x="34.5" y="-274.5" font-family="SegoeUI" font-size="10.00"> </text>
<polyline fill="none" stroke="#bfbfbf" points="0,-267.5 69,-267.5 "/>
<text text-anchor="middle" x="34.5" y="-255.5" font-family="SegoeUI" font-size="10.00"> </text>
</a>
</g>
</g>
<!-- Node1&#45;&gt;Node0 -->
<g id="edge1" class="edge"><title>Node1&#45;&gt;Node0</title>
<path fill="none" stroke="midnightblue" d="M59.2924,-240.189C67.5163,-228.31 77.0893,-214.482 86.8935,-200.32"/>
<polygon fill="none" stroke="midnightblue" points="56.3729,-238.257 53.5585,-248.471 62.1283,-242.241 56.3729,-238.257"/>
</g>
<!-- Node2 -->
<g id="node3" class="node"><title>Node2</title>
<g id="a_node3"><a xlink:title=" ">
<polygon fill="white" stroke="#bfbfbf" points="87.5,-248.5 87.5,-305.5 215.5,-305.5 215.5,-248.5 87.5,-248.5"/>
<text text-anchor="middle" x="151.5" y="-293.5" font-family="SegoeUI" font-size="10.00">IEquatable&lt; USAddress &gt;</text>
<polyline fill="none" stroke="#bfbfbf" points="87.5,-286.5 215.5,-286.5 "/>
<text text-anchor="middle" x="151.5" y="-274.5" font-family="SegoeUI" font-size="10.00"> </text>
<polyline fill="none" stroke="#bfbfbf" points="87.5,-267.5 215.5,-267.5 "/>
<text text-anchor="middle" x="151.5" y="-255.5" font-family="SegoeUI" font-size="10.00"> </text>
</a>
</g>
</g>
<!-- Node2&#45;&gt;Node0 -->
<g id="edge2" class="edge"><title>Node2&#45;&gt;Node0</title>
<path fill="none" stroke="midnightblue" d="M151.5,-238.233C151.5,-230.038 151.5,-220.987 151.5,-211.584"/>
<polygon fill="none" stroke="midnightblue" points="148,-238.471 151.5,-248.471 155,-238.471 148,-238.471"/>
</g>
<!-- Node3 -->
<g id="node4" class="node"><title>Node3</title>
<g id="a_node4"><a xlink:title=" ">
<polygon fill="white" stroke="#bfbfbf" points="234,-248.5 234,-305.5 339,-305.5 339,-248.5 234,-248.5"/>
<text text-anchor="middle" x="286.5" y="-293.5" font-family="SegoeUI" font-size="10.00">IEquatable&lt; string &gt;</text>
<polyline fill="none" stroke="#bfbfbf" points="234,-286.5 339,-286.5 "/>
<text text-anchor="middle" x="286.5" y="-274.5" font-family="SegoeUI" font-size="10.00"> </text>
<polyline fill="none" stroke="#bfbfbf" points="234,-267.5 339,-267.5 "/>
<text text-anchor="middle" x="286.5" y="-255.5" font-family="SegoeUI" font-size="10.00"> </text>
</a>
</g>
</g>
<!-- Node3&#45;&gt;Node0 -->
<g id="edge3" class="edge"><title>Node3&#45;&gt;Node0</title>
<path fill="none" stroke="midnightblue" d="M257.97,-240.285C245.682,-224.902 230.773,-206.238 216.052,-187.809"/>
<polygon fill="none" stroke="midnightblue" points="255.533,-242.842 264.509,-248.471 261.003,-238.473 255.533,-242.842"/>
</g>
</g>
</svg>
