<?xml version="1.0" encoding="UTF-8" standalone="no"?>
<!DOCTYPE svg PUBLIC "-//W3C//DTD SVG 1.1//EN"
 "http://www.w3.org/Graphics/SVG/1.1/DTD/svg11.dtd">
<!-- Generated by graphviz version 2.38.0 (20140413.2041)
 -->
<!-- Title: BitMiracle.LibJpeg.Classic.Internal.ArithEntropyEncoder Pages: 1 -->
<svg width="148pt" height="215pt"
 viewBox="0.00 0.00 148.00 215.00" xmlns="http://www.w3.org/2000/svg" xmlns:xlink="http://www.w3.org/1999/xlink">
<g id="graph0" class="graph" transform="scale(1 1) rotate(0) translate(4 211)">
<title>BitMiracle.LibJpeg.Classic.Internal.ArithEntropyEncoder</title>
<polygon fill="white" stroke="none" points="-4,4 -4,-211 144,-211 144,4 -4,4"/>
<!-- Node0 -->
<g id="node1" class="node"><title>Node0</title>
<g id="a_node1"><a xlink:title=" ">
<polygon fill="#bfbfbf" stroke="black" points="0,-0.5 0,-79.5 140,-79.5 140,-0.5 0,-0.5"/>
<text text-anchor="start" x="8" y="-67.5" font-family="SegoeUI" font-size="10.00">BitMiracle.LibJpeg.Classic.</text>
<text text-anchor="middle" x="70" y="-56.5" font-family="SegoeUI" font-size="10.00">Internal.ArithEntropyEncoder</text>
<polyline fill="none" stroke="black" points="0,-49.5 140,-49.5 "/>
<text text-anchor="middle" x="70" y="-37.5" font-family="SegoeUI" font-size="10.00"> </text>
<polyline fill="none" stroke="black" points="0,-30.5 140,-30.5 "/>
<text text-anchor="start" x="8" y="-18.5" font-family="SegoeUI" font-size="10.00">+ ArithEntropyEncoder()</text>
<text text-anchor="start" x="8" y="-7.5" font-family="SegoeUI" font-size="10.00">+ StartPass()</text>
</a>
</g>
</g>
<!-- Node1 -->
<g id="node2" class="node"><title>Node1</title>
<g id="a_node2"><a xlink:href="../../d1/d7e/class_bit_miracle_1_1_lib_jpeg_1_1_classic_1_1_internal_1_1_jpeg_entropy_encoder.html" target="_top" xlink:title="Entropy encoding">
<polygon fill="white" stroke="black" points="10.5,-116.5 10.5,-206.5 129.5,-206.5 129.5,-116.5 10.5,-116.5"/>
<text text-anchor="middle" x="70" y="-194.5" font-family="SegoeUI" font-size="10.00">JpegEntropyEncoder</text>
<polyline fill="none" stroke="black" points="10.5,-187.5 129.5,-187.5 "/>
<text text-anchor="start" x="18.5" y="-175.5" font-family="SegoeUI" font-size="10.00">+ encodeMcu</text>
<text text-anchor="start" x="18.5" y="-164.5" font-family="SegoeUI" font-size="10.00">+ finishPass</text>
<polyline fill="none" stroke="black" points="10.5,-157.5 129.5,-157.5 "/>
<text text-anchor="start" x="18.5" y="-145.5" font-family="SegoeUI" font-size="10.00">+ EncodeMcuDelegate()</text>
<text text-anchor="start" x="18.5" y="-134.5" font-family="SegoeUI" font-size="10.00">+ FinishPassDelegate()</text>
<text text-anchor="start" x="18.5" y="-123.5" font-family="SegoeUI" font-size="10.00">+ StartPass()</text>
</a>
</g>
</g>
<!-- Node1&#45;&gt;Node0 -->
<g id="edge1" class="edge"><title>Node1&#45;&gt;Node0</title>
<path fill="none" stroke="midnightblue" d="M70,-106.079C70,-97.234 70,-88.2325 70,-79.8576"/>
<polygon fill="none" stroke="midnightblue" points="66.5001,-106.342 70,-116.342 73.5001,-106.342 66.5001,-106.342"/>
</g>
</g>
</svg>
