<?xml version="1.0" encoding="UTF-8" standalone="no"?>
<!DOCTYPE svg PUBLIC "-//W3C//DTD SVG 1.1//EN"
 "http://www.w3.org/Graphics/SVG/1.1/DTD/svg11.dtd">
<!-- Generated by graphviz version 2.38.0 (20140413.2041)
 -->
<!-- Title: Juniper.Sound.IAudioClipCollection Pages: 1 -->
<svg width="328pt" height="364pt"
 viewBox="0.00 0.00 327.50 364.00" xmlns="http://www.w3.org/2000/svg" xmlns:xlink="http://www.w3.org/1999/xlink">
<g id="graph0" class="graph" transform="scale(1 1) rotate(0) translate(4 360)">
<title>Juniper.Sound.IAudioClipCollection</title>
<polygon fill="white" stroke="none" points="-4,4 -4,-360 323.5,-360 323.5,4 -4,4"/>
<!-- Node0 -->
<g id="node1" class="node"><title>Node0</title>
<g id="a_node1"><a xlink:title="The IAudioClipCollection interface is implemented by two classes. One is a savable collection of audi...">
<polygon fill="#bfbfbf" stroke="black" points="103,-171.5 103,-261.5 226,-261.5 226,-171.5 103,-171.5"/>
<text text-anchor="start" x="111" y="-249.5" font-family="SegoeUI" font-size="10.00">Juniper.Sound.IAudioClip</text>
<text text-anchor="middle" x="164.5" y="-238.5" font-family="SegoeUI" font-size="10.00">Collection</text>
<polyline fill="none" stroke="black" points="103,-231.5 226,-231.5 "/>
<text text-anchor="start" x="111" y="-219.5" font-family="SegoeUI" font-size="10.00">+ Length</text>
<text text-anchor="start" x="111" y="-208.5" font-family="SegoeUI" font-size="10.00">+ RandomizeClipPitch</text>
<text text-anchor="start" x="111" y="-197.5" font-family="SegoeUI" font-size="10.00">+ this[int index]</text>
<polyline fill="none" stroke="black" points="103,-190.5 226,-190.5 "/>
<text text-anchor="start" x="111" y="-178.5" font-family="SegoeUI" font-size="10.00">+ Random()</text>
</a>
</g>
</g>
<!-- Node2 -->
<g id="node3" class="node"><title>Node2</title>
<g id="a_node3"><a xlink:href="../../df/d3a/class_juniper_1_1_sound_1_1_audio_clip_collection.html" target="_top" xlink:title="A collection of related audio clips. For example, one might have many different gunshot sounds to hav...">
<polygon fill="white" stroke="black" points="0,-6 0,-129 161,-129 161,-6 0,-6"/>
<text text-anchor="middle" x="80.5" y="-117" font-family="SegoeUI" font-size="10.00">Juniper.Sound.AudioClipCollection</text>
<polyline fill="none" stroke="black" points="0,-110 161,-110 "/>
<text text-anchor="start" x="8" y="-98" font-family="SegoeUI" font-size="10.00">+ randomizePitch</text>
<text text-anchor="start" x="8" y="-87" font-family="SegoeUI" font-size="10.00">+ clips</text>
<text text-anchor="start" x="8" y="-76" font-family="SegoeUI" font-size="10.00">+ Length</text>
<text text-anchor="start" x="8" y="-65" font-family="SegoeUI" font-size="10.00">+ RandomizeClipPitch</text>
<text text-anchor="start" x="8" y="-54" font-family="SegoeUI" font-size="10.00">+ this[int index]</text>
<polyline fill="none" stroke="black" points="0,-47 161,-47 "/>
<text text-anchor="start" x="8" y="-35" font-family="SegoeUI" font-size="10.00">+ Random()</text>
<text text-anchor="start" x="8" y="-24" font-family="SegoeUI" font-size="10.00">+ GetEnumerator()</text>
<text text-anchor="start" x="8" y="-13" font-family="SegoeUI" font-size="10.00">&#45; GetEnumerator()</text>
</a>
</g>
</g>
<!-- Node0&#45;&gt;Node2 -->
<g id="edge2" class="edge"><title>Node0&#45;&gt;Node2</title>
<path fill="none" stroke="midnightblue" d="M134.206,-162.485C128.026,-151.67 121.478,-140.212 115.16,-129.154"/>
<polygon fill="none" stroke="midnightblue" points="131.297,-164.449 139.297,-171.395 137.375,-160.976 131.297,-164.449"/>
</g>
<!-- Node3 -->
<g id="node4" class="node"><title>Node3</title>
<g id="a_node4"><a xlink:href="../../df/dda/class_juniper_1_1_sound_1_1_single_audio_clip_collection.html" target="_top" xlink:title="Wraps around a single audio clip to make it interface with code that handles full collections of audi...">
<polygon fill="white" stroke="black" points="179.5,-0.5 179.5,-134.5 319.5,-134.5 319.5,-0.5 179.5,-0.5"/>
<text text-anchor="start" x="187.5" y="-122.5" font-family="SegoeUI" font-size="10.00">Juniper.Sound.SingleAudio</text>
<text text-anchor="middle" x="249.5" y="-111.5" font-family="SegoeUI" font-size="10.00">ClipCollection</text>
<polyline fill="none" stroke="black" points="179.5,-104.5 319.5,-104.5 "/>
<text text-anchor="start" x="187.5" y="-92.5" font-family="SegoeUI" font-size="10.00">+ Length</text>
<text text-anchor="start" x="187.5" y="-81.5" font-family="SegoeUI" font-size="10.00">+ RandomizeClipPitch</text>
<text text-anchor="start" x="187.5" y="-70.5" font-family="SegoeUI" font-size="10.00">+ this[int index]</text>
<text text-anchor="start" x="187.5" y="-59.5" font-family="SegoeUI" font-size="10.00">&#45; clip</text>
<polyline fill="none" stroke="black" points="179.5,-52.5 319.5,-52.5 "/>
<text text-anchor="start" x="187.5" y="-40.5" font-family="SegoeUI" font-size="10.00">+ SingleAudioClipCollection()</text>
<text text-anchor="start" x="187.5" y="-29.5" font-family="SegoeUI" font-size="10.00">+ Random()</text>
<text text-anchor="start" x="187.5" y="-18.5" font-family="SegoeUI" font-size="10.00">+ GetEnumerator()</text>
<text text-anchor="start" x="187.5" y="-7.5" font-family="SegoeUI" font-size="10.00">&#45; GetEnumerator()</text>
</a>
</g>
</g>
<!-- Node0&#45;&gt;Node3 -->
<g id="edge3" class="edge"><title>Node0&#45;&gt;Node3</title>
<path fill="none" stroke="midnightblue" d="M195.141,-162.51C200.379,-153.451 205.878,-143.94 211.284,-134.591"/>
<polygon fill="none" stroke="midnightblue" points="191.979,-160.986 190.003,-171.395 198.039,-164.49 191.979,-160.986"/>
</g>
<!-- Node1 -->
<g id="node2" class="node"><title>Node1</title>
<g id="a_node2"><a xlink:title=" ">
<polygon fill="white" stroke="#bfbfbf" points="99.5,-298.5 99.5,-355.5 229.5,-355.5 229.5,-298.5 99.5,-298.5"/>
<text text-anchor="middle" x="164.5" y="-343.5" font-family="SegoeUI" font-size="10.00">IEnumerable&lt; AudioClip &gt;</text>
<polyline fill="none" stroke="#bfbfbf" points="99.5,-336.5 229.5,-336.5 "/>
<text text-anchor="middle" x="164.5" y="-324.5" font-family="SegoeUI" font-size="10.00"> </text>
<polyline fill="none" stroke="#bfbfbf" points="99.5,-317.5 229.5,-317.5 "/>
<text text-anchor="middle" x="164.5" y="-305.5" font-family="SegoeUI" font-size="10.00"> </text>
</a>
</g>
</g>
<!-- Node1&#45;&gt;Node0 -->
<g id="edge1" class="edge"><title>Node1&#45;&gt;Node0</title>
<path fill="none" stroke="midnightblue" d="M164.5,-288.214C164.5,-279.609 164.5,-270.394 164.5,-261.554"/>
<polygon fill="none" stroke="midnightblue" points="161,-288.34 164.5,-298.34 168,-288.34 161,-288.34"/>
</g>
</g>
</svg>
