<?xml version="1.0" encoding="UTF-8" standalone="no"?>
<!DOCTYPE svg PUBLIC "-//W3C//DTD SVG 1.1//EN"
 "http://www.w3.org/Graphics/SVG/1.1/DTD/svg11.dtd">
<!-- Generated by graphviz version 2.38.0 (20140413.2041)
 -->
<!-- Title: Juniper.Widgets.Rotatable Pages: 1 -->
<svg width="1398pt" height="1169pt"
 viewBox="0.00 0.00 1397.50 1169.00" xmlns="http://www.w3.org/2000/svg" xmlns:xlink="http://www.w3.org/1999/xlink">
<g id="graph0" class="graph" transform="scale(1 1) rotate(0) translate(4 1165)">
<title>Juniper.Widgets.Rotatable</title>
<polygon fill="white" stroke="none" points="-4,4 -4,-1165 1393.5,-1165 1393.5,4 -4,4"/>
<!-- Node16 -->
<g id="node1" class="node"><title>Node16</title>
<g id="a_node1"><a xlink:title="A control that is rotatable in a single axis at a time.">
<polygon fill="#bfbfbf" stroke="black" points="1082,-0.5 1082,-167.5 1210,-167.5 1210,-0.5 1082,-0.5"/>
<text text-anchor="middle" x="1146" y="-155.5" font-family="SegoeUI" font-size="10.00">Juniper.Widgets.Rotatable</text>
<polyline fill="none" stroke="black" points="1082,-148.5 1210,-148.5 "/>
<text text-anchor="start" x="1090" y="-136.5" font-family="SegoeUI" font-size="10.00">+ rotationAxis</text>
<text text-anchor="start" x="1090" y="-125.5" font-family="SegoeUI" font-size="10.00">+ InterpolationScale</text>
<text text-anchor="start" x="1090" y="-114.5" font-family="SegoeUI" font-size="10.00">+ ConstraintRange</text>
<text text-anchor="start" x="1090" y="-103.5" font-family="SegoeUI" font-size="10.00">&#45; amount</text>
<text text-anchor="start" x="1090" y="-92.5" font-family="SegoeUI" font-size="10.00">&#45; startValue</text>
<text text-anchor="start" x="1090" y="-81.5" font-family="SegoeUI" font-size="10.00">&#45; endValue</text>
<polyline fill="none" stroke="black" points="1082,-74.5 1210,-74.5 "/>
<text text-anchor="start" x="1090" y="-62.5" font-family="SegoeUI" font-size="10.00">+ OnEnable()</text>
<text text-anchor="start" x="1090" y="-51.5" font-family="SegoeUI" font-size="10.00">+ OnDisable()</text>
<text text-anchor="start" x="1090" y="-40.5" font-family="SegoeUI" font-size="10.00">+ OnBeginDrag()</text>
<text text-anchor="start" x="1090" y="-29.5" font-family="SegoeUI" font-size="10.00">+ OnDrag()</text>
<text text-anchor="start" x="1090" y="-18.5" font-family="SegoeUI" font-size="10.00">+ Awake()</text>
<text text-anchor="start" x="1090" y="-7.5" font-family="SegoeUI" font-size="10.00">+ Update()</text>
</a>
</g>
</g>
<!-- Node17 -->
<g id="node2" class="node"><title>Node17</title>
<g id="a_node2"><a xlink:href="../../dd/d30/class_juniper_1_1_widgets_1_1_abstract_valued.html" target="_top" xlink:title="The Valued component adds a float field and range of valid values for that field to a Touchable objec...">
<polygon fill="white" stroke="black" points="521.5,-232 521.5,-575 658.5,-575 658.5,-232 521.5,-232"/>
<text text-anchor="middle" x="590" y="-563" font-family="SegoeUI" font-size="10.00">AbstractValued</text>
<polyline fill="none" stroke="black" points="521.5,-556 658.5,-556 "/>
<text text-anchor="start" x="529.5" y="-544" font-family="SegoeUI" font-size="10.00">+ Display</text>
<text text-anchor="start" x="529.5" y="-533" font-family="SegoeUI" font-size="10.00">+ SigFigs</text>
<text text-anchor="start" x="529.5" y="-522" font-family="SegoeUI" font-size="10.00">+ minValue</text>
<text text-anchor="start" x="529.5" y="-511" font-family="SegoeUI" font-size="10.00">+ maxValue</text>
<text text-anchor="start" x="529.5" y="-500" font-family="SegoeUI" font-size="10.00">+ _value</text>
<text text-anchor="start" x="529.5" y="-489" font-family="SegoeUI" font-size="10.00">+ Dragged</text>
<text text-anchor="start" x="529.5" y="-478" font-family="SegoeUI" font-size="10.00">+ value</text>
<text text-anchor="start" x="529.5" y="-467" font-family="SegoeUI" font-size="10.00">+ Delta</text>
<text text-anchor="start" x="529.5" y="-456" font-family="SegoeUI" font-size="10.00">+ DraggedChanged</text>
<text text-anchor="start" x="529.5" y="-445" font-family="SegoeUI" font-size="10.00">+ DraggedDown</text>
<text text-anchor="start" x="529.5" y="-434" font-family="SegoeUI" font-size="10.00">+ DraggedUp</text>
<text text-anchor="start" x="529.5" y="-423" font-family="SegoeUI" font-size="10.00">+ ValueChanged</text>
<text text-anchor="start" x="529.5" y="-412" font-family="SegoeUI" font-size="10.00">+ ConstraintRange</text>
<text text-anchor="start" x="529.5" y="-401" font-family="SegoeUI" font-size="10.00"># dragDistance</text>
<text text-anchor="start" x="529.5" y="-390" font-family="SegoeUI" font-size="10.00"># camT</text>
<text text-anchor="start" x="529.5" y="-379" font-family="SegoeUI" font-size="10.00"># internalValue</text>
<text text-anchor="start" x="529.5" y="-368" font-family="SegoeUI" font-size="10.00">&#45; wasDragged</text>
<text text-anchor="start" x="529.5" y="-357" font-family="SegoeUI" font-size="10.00">&#45; lastValue</text>
<text text-anchor="start" x="529.5" y="-346" font-family="SegoeUI" font-size="10.00">&#45; lastTickValue</text>
<polyline fill="none" stroke="black" points="521.5,-339 658.5,-339 "/>
<text text-anchor="start" x="529.5" y="-327" font-family="SegoeUI" font-size="10.00">+ SetValue()</text>
<text text-anchor="start" x="529.5" y="-316" font-family="SegoeUI" font-size="10.00">+ OnInitializePotentialDrag()</text>
<text text-anchor="start" x="529.5" y="-305" font-family="SegoeUI" font-size="10.00">+ OnBeginDrag()</text>
<text text-anchor="start" x="529.5" y="-294" font-family="SegoeUI" font-size="10.00">+ OnDrag()</text>
<text text-anchor="start" x="529.5" y="-283" font-family="SegoeUI" font-size="10.00">+ OnDrop()</text>
<text text-anchor="start" x="529.5" y="-272" font-family="SegoeUI" font-size="10.00">+ OnEndDrag()</text>
<text text-anchor="start" x="529.5" y="-261" font-family="SegoeUI" font-size="10.00"># LateUpdate()</text>
<text text-anchor="start" x="529.5" y="-250" font-family="SegoeUI" font-size="10.00"># UpdateInternalValue()</text>
<text text-anchor="start" x="529.5" y="-239" font-family="SegoeUI" font-size="10.00"># ResetInternalValue()</text>
</a>
</g>
</g>
<!-- Node17&#45;&gt;Node16 -->
<g id="edge1" class="edge"><title>Node17&#45;&gt;Node16</title>
<path fill="none" stroke="midnightblue" d="M667.513,-358.237C778.061,-295.109 978.969,-180.382 1081.72,-121.705"/>
<polygon fill="none" stroke="midnightblue" points="665.682,-355.252 658.734,-363.25 669.154,-361.33 665.682,-355.252"/>
</g>
<!-- Node18 -->
<g id="node3" class="node"><title>Node18</title>
<g id="a_node3"><a xlink:href="../../d7/d8c/class_juniper_1_1_widgets_1_1_abstract_touchable.html" target="_top" xlink:title="The base class for all interactive, AR&#45;compatible, GUI controls /// This class is abstract to avoid i...">
<polygon fill="white" stroke="black" points="645,-639.5 645,-894.5 771,-894.5 771,-639.5 645,-639.5"/>
<text text-anchor="middle" x="708" y="-882.5" font-family="SegoeUI" font-size="10.00">AbstractTouchable</text>
<polyline fill="none" stroke="black" points="645,-875.5 771,-875.5 "/>
<text text-anchor="start" x="653" y="-863.5" font-family="SegoeUI" font-size="10.00">+ disabled</text>
<text text-anchor="start" x="653" y="-852.5" font-family="SegoeUI" font-size="10.00">+ DisabledChanged</text>
<text text-anchor="start" x="653" y="-841.5" font-family="SegoeUI" font-size="10.00">+ DisabledDown</text>
<text text-anchor="start" x="653" y="-830.5" font-family="SegoeUI" font-size="10.00">+ DisabledUp</text>
<text text-anchor="start" x="653" y="-819.5" font-family="SegoeUI" font-size="10.00">+ IsDisabled</text>
<text text-anchor="start" x="653" y="-808.5" font-family="SegoeUI" font-size="10.00">+ PointerPositionChanged</text>
<text text-anchor="start" x="653" y="-797.5" font-family="SegoeUI" font-size="10.00">&#45; wasDisabled</text>
<polyline fill="none" stroke="black" points="645,-790.5 771,-790.5 "/>
<text text-anchor="start" x="653" y="-778.5" font-family="SegoeUI" font-size="10.00">+ IsInteractable()</text>
<text text-anchor="start" x="653" y="-767.5" font-family="SegoeUI" font-size="10.00">+ SetDisabled()</text>
<text text-anchor="start" x="653" y="-756.5" font-family="SegoeUI" font-size="10.00">+ ToggleEnabled()</text>
<text text-anchor="start" x="653" y="-745.5" font-family="SegoeUI" font-size="10.00">+ Update()</text>
<text text-anchor="start" x="653" y="-734.5" font-family="SegoeUI" font-size="10.00">+ OnPointerEnter()</text>
<text text-anchor="start" x="653" y="-723.5" font-family="SegoeUI" font-size="10.00">+ OnPointerExit()</text>
<text text-anchor="start" x="653" y="-712.5" font-family="SegoeUI" font-size="10.00">+ OnPointerDown()</text>
<text text-anchor="start" x="653" y="-701.5" font-family="SegoeUI" font-size="10.00">+ OnPointerUp()</text>
<text text-anchor="start" x="653" y="-690.5" font-family="SegoeUI" font-size="10.00"># LateUpdate()</text>
<text text-anchor="start" x="653" y="-679.5" font-family="SegoeUI" font-size="10.00"># ShowState()</text>
<text text-anchor="start" x="653" y="-668.5" font-family="SegoeUI" font-size="10.00"># GetPosition()</text>
<text text-anchor="start" x="653" y="-657.5" font-family="SegoeUI" font-size="10.00">&#45; Awake()</text>
<text text-anchor="start" x="653" y="-646.5" font-family="SegoeUI" font-size="10.00">&#45; NormalizePart()</text>
</a>
</g>
</g>
<!-- Node18&#45;&gt;Node17 -->
<g id="edge2" class="edge"><title>Node18&#45;&gt;Node17</title>
<path fill="none" stroke="midnightblue" d="M663.447,-629.508C657.647,-611.741 651.65,-593.367 645.697,-575.13"/>
<polygon fill="none" stroke="midnightblue" points="660.216,-630.891 666.646,-639.311 666.871,-628.718 660.216,-630.891"/>
</g>
<!-- Node19 -->
<g id="node4" class="node"><title>Node19</title>
<g id="a_node4"><a xlink:title=" ">
<polygon fill="white" stroke="#bfbfbf" points="671,-1103.5 671,-1160.5 753,-1160.5 753,-1103.5 671,-1103.5"/>
<text text-anchor="middle" x="712" y="-1148.5" font-family="SegoeUI" font-size="10.00">MonoBehaviour</text>
<polyline fill="none" stroke="#bfbfbf" points="671,-1141.5 753,-1141.5 "/>
<text text-anchor="middle" x="712" y="-1129.5" font-family="SegoeUI" font-size="10.00"> </text>
<polyline fill="none" stroke="#bfbfbf" points="671,-1122.5 753,-1122.5 "/>
<text text-anchor="middle" x="712" y="-1110.5" font-family="SegoeUI" font-size="10.00"> </text>
</a>
</g>
</g>
<!-- Node19&#45;&gt;Node18 -->
<g id="edge3" class="edge"><title>Node19&#45;&gt;Node18</title>
<path fill="none" stroke="midnightblue" d="M695.025,-1093.82C691.703,-1084.89 688.718,-1075.25 687,-1066 676.656,-1010.29 678.965,-947.857 685.012,-894.585"/>
<polygon fill="none" stroke="midnightblue" points="691.793,-1095.16 698.719,-1103.18 698.305,-1092.6 691.793,-1095.16"/>
</g>
<!-- Node25 -->
<g id="node10" class="node"><title>Node25</title>
<g id="a_node10"><a xlink:href="../../d8/dea/class_juniper_1_1_animation_1_1_abstract_animator.html" target="_top" xlink:title="An abstraction layer over different ways of showing UI state. Only one such component is allowed on a...">
<polygon fill="white" stroke="black" points="753.5,-964.5 753.5,-1065.5 884.5,-1065.5 884.5,-964.5 753.5,-964.5"/>
<text text-anchor="start" x="761.5" y="-1053.5" font-family="SegoeUI" font-size="10.00">Juniper.Animation.Abstract</text>
<text text-anchor="middle" x="819" y="-1042.5" font-family="SegoeUI" font-size="10.00">Animator</text>
<polyline fill="none" stroke="black" points="753.5,-1035.5 884.5,-1035.5 "/>
<text text-anchor="middle" x="819" y="-1023.5" font-family="SegoeUI" font-size="10.00"> </text>
<polyline fill="none" stroke="black" points="753.5,-1016.5 884.5,-1016.5 "/>
<text text-anchor="start" x="761.5" y="-1004.5" font-family="SegoeUI" font-size="10.00">+ PlayCoroutine()</text>
<text text-anchor="start" x="761.5" y="-993.5" font-family="SegoeUI" font-size="10.00">+ Play()</text>
<text text-anchor="start" x="761.5" y="-982.5" font-family="SegoeUI" font-size="10.00">+ HasState()</text>
<text text-anchor="start" x="761.5" y="-971.5" font-family="SegoeUI" font-size="10.00">+ GetAnimator()</text>
</a>
</g>
</g>
<!-- Node19&#45;&gt;Node25 -->
<g id="edge10" class="edge"><title>Node19&#45;&gt;Node25</title>
<path fill="none" stroke="midnightblue" d="M744.523,-1096.05C753.392,-1086.51 763.175,-1076 772.653,-1065.81"/>
<polygon fill="none" stroke="midnightblue" points="741.879,-1093.75 737.629,-1103.45 747.003,-1098.52 741.879,-1093.75"/>
</g>
<!-- Node20 -->
<g id="node5" class="node"><title>Node20</title>
<g id="a_node5"><a xlink:title=" ">
<polygon fill="white" stroke="#bfbfbf" points="902.5,-986.5 902.5,-1043.5 1007.5,-1043.5 1007.5,-986.5 902.5,-986.5"/>
<text text-anchor="middle" x="955" y="-1031.5" font-family="SegoeUI" font-size="10.00">IPointerEnterHandler</text>
<polyline fill="none" stroke="#bfbfbf" points="902.5,-1024.5 1007.5,-1024.5 "/>
<text text-anchor="middle" x="955" y="-1012.5" font-family="SegoeUI" font-size="10.00"> </text>
<polyline fill="none" stroke="#bfbfbf" points="902.5,-1005.5 1007.5,-1005.5 "/>
<text text-anchor="middle" x="955" y="-993.5" font-family="SegoeUI" font-size="10.00"> </text>
</a>
</g>
</g>
<!-- Node20&#45;&gt;Node18 -->
<g id="edge4" class="edge"><title>Node20&#45;&gt;Node18</title>
<path fill="none" stroke="midnightblue" d="M912.795,-979.656C900.366,-969.137 886.912,-957.342 875,-946 839.401,-912.105 801.775,-872.38 771.268,-839.068"/>
<polygon fill="none" stroke="midnightblue" points="910.879,-982.617 920.788,-986.367 915.38,-977.256 910.879,-982.617"/>
</g>
<!-- Node21 -->
<g id="node6" class="node"><title>Node21</title>
<g id="a_node6"><a xlink:title=" ">
<polygon fill="white" stroke="#bfbfbf" points="194,-986.5 194,-1043.5 292,-1043.5 292,-986.5 194,-986.5"/>
<text text-anchor="middle" x="243" y="-1031.5" font-family="SegoeUI" font-size="10.00">IPointerExitHandler</text>
<polyline fill="none" stroke="#bfbfbf" points="194,-1024.5 292,-1024.5 "/>
<text text-anchor="middle" x="243" y="-1012.5" font-family="SegoeUI" font-size="10.00"> </text>
<polyline fill="none" stroke="#bfbfbf" points="194,-1005.5 292,-1005.5 "/>
<text text-anchor="middle" x="243" y="-993.5" font-family="SegoeUI" font-size="10.00"> </text>
</a>
</g>
</g>
<!-- Node21&#45;&gt;Node18 -->
<g id="edge5" class="edge"><title>Node21&#45;&gt;Node18</title>
<path fill="none" stroke="midnightblue" d="M278.519,-979.587C285.602,-973.852 293.256,-968.36 301,-964 364.931,-928.006 386.21,-928.13 458,-913 496.686,-904.847 601.826,-916.509 635,-895 638.414,-892.786 641.687,-890.353 644.822,-887.737"/>
<polygon fill="none" stroke="midnightblue" points="275.866,-977.247 270.495,-986.379 280.389,-982.59 275.866,-977.247"/>
</g>
<!-- Node22 -->
<g id="node7" class="node"><title>Node22</title>
<g id="a_node7"><a xlink:title=" ">
<polygon fill="white" stroke="#bfbfbf" points="310.5,-986.5 310.5,-1043.5 417.5,-1043.5 417.5,-986.5 310.5,-986.5"/>
<text text-anchor="middle" x="364" y="-1031.5" font-family="SegoeUI" font-size="10.00">IPointerDownHandler</text>
<polyline fill="none" stroke="#bfbfbf" points="310.5,-1024.5 417.5,-1024.5 "/>
<text text-anchor="middle" x="364" y="-1012.5" font-family="SegoeUI" font-size="10.00"> </text>
<polyline fill="none" stroke="#bfbfbf" points="310.5,-1005.5 417.5,-1005.5 "/>
<text text-anchor="middle" x="364" y="-993.5" font-family="SegoeUI" font-size="10.00"> </text>
</a>
</g>
</g>
<!-- Node22&#45;&gt;Node18 -->
<g id="edge6" class="edge"><title>Node22&#45;&gt;Node18</title>
<path fill="none" stroke="midnightblue" d="M403.066,-979.986C410.711,-974.212 418.884,-968.604 427,-964 482.787,-932.352 500.754,-932.045 562,-913 593.909,-903.078 608.306,-915.101 635,-895 638.454,-892.399 641.771,-889.584 644.954,-886.594"/>
<polygon fill="none" stroke="midnightblue" points="400.735,-977.365 395.004,-986.276 405.041,-982.884 400.735,-977.365"/>
</g>
<!-- Node23 -->
<g id="node8" class="node"><title>Node23</title>
<g id="a_node8"><a xlink:title=" ">
<polygon fill="white" stroke="#bfbfbf" points="436,-986.5 436,-1043.5 530,-1043.5 530,-986.5 436,-986.5"/>
<text text-anchor="middle" x="483" y="-1031.5" font-family="SegoeUI" font-size="10.00">IPointerUpHandler</text>
<polyline fill="none" stroke="#bfbfbf" points="436,-1024.5 530,-1024.5 "/>
<text text-anchor="middle" x="483" y="-1012.5" font-family="SegoeUI" font-size="10.00"> </text>
<polyline fill="none" stroke="#bfbfbf" points="436,-1005.5 530,-1005.5 "/>
<text text-anchor="middle" x="483" y="-993.5" font-family="SegoeUI" font-size="10.00"> </text>
</a>
</g>
</g>
<!-- Node23&#45;&gt;Node18 -->
<g id="edge7" class="edge"><title>Node23&#45;&gt;Node18</title>
<path fill="none" stroke="midnightblue" d="M520.343,-979.682C526.484,-974.323 532.852,-968.931 539,-964 579.988,-931.123 599.779,-933.991 635,-895 638.409,-891.226 641.732,-887.266 644.96,-883.173"/>
<polygon fill="none" stroke="midnightblue" points="517.897,-977.172 512.719,-986.415 522.531,-982.418 517.897,-977.172"/>
</g>
<!-- Node24 -->
<g id="node9" class="node"><title>Node24</title>
<g id="a_node9"><a xlink:href="../../da/d7e/interface_juniper_1_1_events_1_1_i_interactable.html" target="_top" xlink:title="An interface for custom controls to report to the Input.UnifiedInputModule that they are enabled/disa...">
<polygon fill="white" stroke="black" points="548,-986.5 548,-1043.5 640,-1043.5 640,-986.5 548,-986.5"/>
<text text-anchor="middle" x="594" y="-1031.5" font-family="SegoeUI" font-size="10.00">IInteractable</text>
<polyline fill="none" stroke="black" points="548,-1024.5 640,-1024.5 "/>
<text text-anchor="middle" x="594" y="-1012.5" font-family="SegoeUI" font-size="10.00"> </text>
<polyline fill="none" stroke="black" points="548,-1005.5 640,-1005.5 "/>
<text text-anchor="start" x="556" y="-993.5" font-family="SegoeUI" font-size="10.00">+ IsInteractable()</text>
</a>
</g>
</g>
<!-- Node24&#45;&gt;Node18 -->
<g id="edge8" class="edge"><title>Node24&#45;&gt;Node18</title>
<path fill="none" stroke="midnightblue" d="M611.066,-977.174C621.417,-954.836 635.3,-924.879 649.319,-894.628"/>
<polygon fill="none" stroke="midnightblue" points="607.885,-975.714 606.856,-986.259 614.236,-978.657 607.885,-975.714"/>
</g>
<!-- Node25&#45;&gt;Node18 -->
<g id="edge9" class="edge"><title>Node25&#45;&gt;Node18</title>
<path fill="none" stroke="#404040" d="M799.609,-964.417C792.978,-947.96 785.37,-929.606 778,-913 776.917,-910.561 775.818,-908.102 774.705,-905.628"/>
<polygon fill="none" stroke="#404040" points="774.705,-905.628 768.583,-901.818 769.745,-894.701 775.867,-898.511 774.705,-905.628"/>
<text text-anchor="middle" x="814" y="-927" font-family="SegoeUI" font-size="10.00"> &#45;animator</text>
</g>
<!-- Node26 -->
<g id="node11" class="node"><title>Node26</title>
<g id="a_node11"><a xlink:title=" ">
<polygon fill="white" stroke="#bfbfbf" points="1026,-986.5 1026,-1043.5 1092,-1043.5 1092,-986.5 1026,-986.5"/>
<text text-anchor="middle" x="1059" y="-1031.5" font-family="SegoeUI" font-size="10.00">UnityEngine</text>
<polyline fill="none" stroke="#bfbfbf" points="1026,-1024.5 1092,-1024.5 "/>
<text text-anchor="middle" x="1059" y="-1012.5" font-family="SegoeUI" font-size="10.00"> </text>
<polyline fill="none" stroke="#bfbfbf" points="1026,-1005.5 1092,-1005.5 "/>
<text text-anchor="middle" x="1059" y="-993.5" font-family="SegoeUI" font-size="10.00"> </text>
</a>
</g>
</g>
<!-- Node26&#45;&gt;Node16 -->
<g id="edge24" class="edge"><title>Node26&#45;&gt;Node16</title>
<path fill="none" stroke="#404040" d="M1080.06,-986.447C1096.31,-963.4 1117.56,-928.928 1127,-895 1163.68,-763.122 1155.57,-363.587 1149.57,-179.601"/>
<polygon fill="none" stroke="#404040" points="1149.57,-179.526 1145.37,-173.662 1149.17,-167.532 1153.37,-173.396 1149.57,-179.526"/>
<text text-anchor="middle" x="1198.5" y="-613" font-family="SegoeUI" font-size="10.00"> &#45;lastInteractionPoint</text>
</g>
<!-- Node26&#45;&gt;Node17 -->
<g id="edge20" class="edge"><title>Node26&#45;&gt;Node17</title>
<path fill="none" stroke="#404040" d="M1044.93,-986.407C1031.88,-963.486 1010.35,-931.708 983,-913 958.612,-896.317 942.091,-913.436 919,-895 817.824,-814.221 851.944,-746.638 780,-639 745.753,-587.761 702.867,-534.104 666.511,-491.067"/>
<polygon fill="none" stroke="#404040" points="666.385,-490.918 659.452,-488.933 658.619,-481.77 665.551,-483.756 666.385,-490.918"/>
<text text-anchor="middle" x="958" y="-786.5" font-family="SegoeUI" font-size="10.00"> #interactionPoint</text>
<text text-anchor="middle" x="958" y="-775.5" font-family="SegoeUI" font-size="10.00">#interactionOffset</text>
<text text-anchor="middle" x="958" y="-764.5" font-family="SegoeUI" font-size="10.00">#angVel</text>
<text text-anchor="middle" x="958" y="-753.5" font-family="SegoeUI" font-size="10.00">#grabOffset</text>
<text text-anchor="middle" x="958" y="-742.5" font-family="SegoeUI" font-size="10.00">#velocity</text>
</g>
<!-- Node26&#45;&gt;Node18 -->
<g id="edge11" class="edge"><title>Node26&#45;&gt;Node18</title>
<path fill="none" stroke="#404040" d="M1041.1,-986.303C1034.25,-977.842 1025.72,-969.364 1016,-964 968.394,-937.738 941.212,-974.645 895,-946 879.805,-936.581 883.892,-926.349 872,-913 844.398,-882.017 810.508,-851.086 780.716,-825.8"/>
<polygon fill="none" stroke="#404040" points="780.383,-825.52 773.217,-824.719 771.2,-817.795 778.366,-818.597 780.383,-825.52"/>
<text text-anchor="middle" x="939" y="-938" font-family="SegoeUI" font-size="10.00"> #lastPointerPosition</text>
<text text-anchor="middle" x="939" y="-927" font-family="SegoeUI" font-size="10.00">+pointerPosition</text>
<text text-anchor="middle" x="939" y="-916" font-family="SegoeUI" font-size="10.00">+clickButton</text>
</g>
<!-- Node27 -->
<g id="node12" class="node"><title>Node27</title>
<g id="a_node12"><a xlink:title=" ">
<polygon fill="white" stroke="#bfbfbf" points="696.5,-986.5 696.5,-1043.5 735.5,-1043.5 735.5,-986.5 696.5,-986.5"/>
<text text-anchor="middle" x="716" y="-1031.5" font-family="SegoeUI" font-size="10.00">static</text>
<polyline fill="none" stroke="#bfbfbf" points="696.5,-1024.5 735.5,-1024.5 "/>
<text text-anchor="middle" x="716" y="-1012.5" font-family="SegoeUI" font-size="10.00"> </text>
<polyline fill="none" stroke="#bfbfbf" points="696.5,-1005.5 735.5,-1005.5 "/>
<text text-anchor="middle" x="716" y="-993.5" font-family="SegoeUI" font-size="10.00"> </text>
</a>
</g>
</g>
<!-- Node27&#45;&gt;Node18 -->
<g id="edge12" class="edge"><title>Node27&#45;&gt;Node18</title>
<path fill="none" stroke="#404040" d="M712.529,-986.257C711.148,-973.947 709.719,-959.273 709,-946 708.316,-933.36 707.825,-920.208 707.483,-907.032"/>
<polygon fill="none" stroke="#404040" points="707.48,-906.935 703.346,-901.027 707.209,-894.938 711.344,-900.846 707.48,-906.935"/>
<text text-anchor="middle" x="743.5" y="-927" font-family="SegoeUI" font-size="10.00"> +PART_NAMES</text>
</g>
<!-- Node28 -->
<g id="node13" class="node"><title>Node28</title>
<g id="a_node13"><a xlink:title=" ">
<polygon fill="white" stroke="#bfbfbf" points="1006,-733 1006,-801 1118,-801 1118,-733 1006,-733"/>
<text text-anchor="start" x="1014" y="-789" font-family="SegoeUI" font-size="10.00">IInitializePotentialDrag</text>
<text text-anchor="middle" x="1062" y="-778" font-family="SegoeUI" font-size="10.00">Handler</text>
<polyline fill="none" stroke="#bfbfbf" points="1006,-771 1118,-771 "/>
<text text-anchor="middle" x="1062" y="-759" font-family="SegoeUI" font-size="10.00"> </text>
<polyline fill="none" stroke="#bfbfbf" points="1006,-752 1118,-752 "/>
<text text-anchor="middle" x="1062" y="-740" font-family="SegoeUI" font-size="10.00"> </text>
</a>
</g>
</g>
<!-- Node28&#45;&gt;Node17 -->
<g id="edge13" class="edge"><title>Node28&#45;&gt;Node17</title>
<path fill="none" stroke="midnightblue" d="M1045.52,-723.434C1033.65,-696.827 1015.57,-663.15 992,-639 894.37,-538.965 745.107,-467.042 658.583,-430.92"/>
<polygon fill="none" stroke="midnightblue" points="1042.43,-725.101 1049.62,-732.886 1048.85,-722.319 1042.43,-725.101"/>
</g>
<!-- Node29 -->
<g id="node14" class="node"><title>Node29</title>
<g id="a_node14"><a xlink:title=" ">
<polygon fill="white" stroke="#bfbfbf" points="241,-738.5 241,-795.5 337,-795.5 337,-738.5 241,-738.5"/>
<text text-anchor="middle" x="289" y="-783.5" font-family="SegoeUI" font-size="10.00">IBeginDragHandler</text>
<polyline fill="none" stroke="#bfbfbf" points="241,-776.5 337,-776.5 "/>
<text text-anchor="middle" x="289" y="-764.5" font-family="SegoeUI" font-size="10.00"> </text>
<polyline fill="none" stroke="#bfbfbf" points="241,-757.5 337,-757.5 "/>
<text text-anchor="middle" x="289" y="-745.5" font-family="SegoeUI" font-size="10.00"> </text>
</a>
</g>
</g>
<!-- Node29&#45;&gt;Node17 -->
<g id="edge14" class="edge"><title>Node29&#45;&gt;Node17</title>
<path fill="none" stroke="midnightblue" d="M301.39,-728.751C311.18,-702.328 326.443,-666.771 346,-639 395.559,-568.626 468.304,-502.002 521.467,-457.882"/>
<polygon fill="none" stroke="midnightblue" points="298.012,-727.801 297.909,-738.395 304.596,-730.178 298.012,-727.801"/>
</g>
<!-- Node30 -->
<g id="node15" class="node"><title>Node30</title>
<g id="a_node15"><a xlink:title=" ">
<polygon fill="white" stroke="#bfbfbf" points="355.5,-738.5 355.5,-795.5 428.5,-795.5 428.5,-738.5 355.5,-738.5"/>
<text text-anchor="middle" x="392" y="-783.5" font-family="SegoeUI" font-size="10.00">IDragHandler</text>
<polyline fill="none" stroke="#bfbfbf" points="355.5,-776.5 428.5,-776.5 "/>
<text text-anchor="middle" x="392" y="-764.5" font-family="SegoeUI" font-size="10.00"> </text>
<polyline fill="none" stroke="#bfbfbf" points="355.5,-757.5 428.5,-757.5 "/>
<text text-anchor="middle" x="392" y="-745.5" font-family="SegoeUI" font-size="10.00"> </text>
</a>
</g>
</g>
<!-- Node30&#45;&gt;Node17 -->
<g id="edge15" class="edge"><title>Node30&#45;&gt;Node17</title>
<path fill="none" stroke="midnightblue" d="M402.643,-728.706C410.626,-702.881 422.627,-668.061 437,-639 460.921,-590.634 492.863,-540.124 521.372,-498.422"/>
<polygon fill="none" stroke="midnightblue" points="399.231,-727.895 399.68,-738.48 405.93,-729.926 399.231,-727.895"/>
</g>
<!-- Node31 -->
<g id="node16" class="node"><title>Node31</title>
<g id="a_node16"><a xlink:title=" ">
<polygon fill="white" stroke="#bfbfbf" points="446.5,-738.5 446.5,-795.5 535.5,-795.5 535.5,-738.5 446.5,-738.5"/>
<text text-anchor="middle" x="491" y="-783.5" font-family="SegoeUI" font-size="10.00">IEndDragHandler</text>
<polyline fill="none" stroke="#bfbfbf" points="446.5,-776.5 535.5,-776.5 "/>
<text text-anchor="middle" x="491" y="-764.5" font-family="SegoeUI" font-size="10.00"> </text>
<polyline fill="none" stroke="#bfbfbf" points="446.5,-757.5 535.5,-757.5 "/>
<text text-anchor="middle" x="491" y="-745.5" font-family="SegoeUI" font-size="10.00"> </text>
</a>
</g>
</g>
<!-- Node31&#45;&gt;Node17 -->
<g id="edge16" class="edge"><title>Node31&#45;&gt;Node17</title>
<path fill="none" stroke="midnightblue" d="M501.284,-728.447C511.373,-691.607 527.495,-632.739 543.244,-575.228"/>
<polygon fill="none" stroke="midnightblue" points="497.87,-727.665 498.604,-738.234 504.621,-729.514 497.87,-727.665"/>
</g>
<!-- Node32 -->
<g id="node17" class="node"><title>Node32</title>
<g id="a_node17"><a xlink:title=" ">
<polygon fill="white" stroke="#bfbfbf" points="553.5,-738.5 553.5,-795.5 626.5,-795.5 626.5,-738.5 553.5,-738.5"/>
<text text-anchor="middle" x="590" y="-783.5" font-family="SegoeUI" font-size="10.00">IDropHandler</text>
<polyline fill="none" stroke="#bfbfbf" points="553.5,-776.5 626.5,-776.5 "/>
<text text-anchor="middle" x="590" y="-764.5" font-family="SegoeUI" font-size="10.00"> </text>
<polyline fill="none" stroke="#bfbfbf" points="553.5,-757.5 626.5,-757.5 "/>
<text text-anchor="middle" x="590" y="-745.5" font-family="SegoeUI" font-size="10.00"> </text>
</a>
</g>
</g>
<!-- Node32&#45;&gt;Node17 -->
<g id="edge17" class="edge"><title>Node32&#45;&gt;Node17</title>
<path fill="none" stroke="midnightblue" d="M590,-727.973C590,-691.103 590,-632.493 590,-575.228"/>
<polygon fill="none" stroke="midnightblue" points="586.5,-728.234 590,-738.234 593.5,-728.234 586.5,-728.234"/>
</g>
<!-- Node33 -->
<g id="node18" class="node"><title>Node33</title>
<g id="a_node18"><a xlink:href="../../d0/d32/interface_juniper_1_1_widgets_1_1_i_valued_control.html" target="_top" xlink:title=" ">
<polygon fill="white" stroke="black" points="63,-738.5 63,-795.5 181,-795.5 181,-738.5 63,-738.5"/>
<text text-anchor="middle" x="122" y="-783.5" font-family="SegoeUI" font-size="10.00">IValuedControl&lt; float &gt;</text>
<polyline fill="none" stroke="black" points="63,-776.5 181,-776.5 "/>
<text text-anchor="start" x="71" y="-764.5" font-family="SegoeUI" font-size="10.00">+ value</text>
<polyline fill="none" stroke="black" points="63,-757.5 181,-757.5 "/>
<text text-anchor="middle" x="122" y="-745.5" font-family="SegoeUI" font-size="10.00"> </text>
</a>
</g>
</g>
<!-- Node33&#45;&gt;Node17 -->
<g id="edge18" class="edge"><title>Node33&#45;&gt;Node17</title>
<path fill="none" stroke="midnightblue" d="M148.543,-730.273C169.486,-703.423 200.358,-666.666 232,-639 324.292,-558.306 446.334,-484.215 521.437,-441.738"/>
<polygon fill="none" stroke="midnightblue" points="145.712,-728.211 142.372,-738.266 151.253,-732.489 145.712,-728.211"/>
</g>
<!-- Node34 -->
<g id="node19" class="node"><title>Node34</title>
<g id="a_node19"><a xlink:href="../../d0/d32/interface_juniper_1_1_widgets_1_1_i_valued_control.html" target="_top" xlink:title=" ">
<polygon fill="white" stroke="black" points="0,-986.5 0,-1043.5 176,-1043.5 176,-986.5 0,-986.5"/>
<text text-anchor="middle" x="88" y="-1031.5" font-family="SegoeUI" font-size="10.00">Juniper.Widgets.IValuedControl&lt; T &gt;</text>
<polyline fill="none" stroke="black" points="0,-1024.5 176,-1024.5 "/>
<text text-anchor="start" x="8" y="-1012.5" font-family="SegoeUI" font-size="10.00">+ value</text>
<polyline fill="none" stroke="black" points="0,-1005.5 176,-1005.5 "/>
<text text-anchor="middle" x="88" y="-993.5" font-family="SegoeUI" font-size="10.00"> </text>
</a>
</g>
</g>
<!-- Node34&#45;&gt;Node33 -->
<g id="edge19" class="edge"><title>Node34&#45;&gt;Node33</title>
<path fill="none" stroke="orange" d="M93.2234,-976.207C100.113,-926.359 112.076,-839.801 118.18,-795.64"/>
<polygon fill="orange" stroke="orange" points="89.7363,-975.874 91.8341,-986.259 96.6704,-976.832 89.7363,-975.874"/>
<text text-anchor="middle" x="123" y="-927" font-family="SegoeUI" font-size="10.00"> &lt; float &gt;</text>
</g>
<!-- Node35 -->
<g id="node20" class="node"><title>Node35</title>
<g id="a_node20"><a xlink:href="../../db/d82/struct_juniper_1_1_units_1_1_angle.html" target="_top" xlink:title="Represents an angle in degrees that doesn&#39;t wrap around to 0 when iterating past 360 degrees....">
<polygon fill="white" stroke="black" points="1201,-215.5 1201,-591.5 1299,-591.5 1299,-215.5 1201,-215.5"/>
<text text-anchor="middle" x="1250" y="-579.5" font-family="SegoeUI" font-size="10.00">Juniper.Units.Angle</text>
<polyline fill="none" stroke="black" points="1201,-572.5 1299,-572.5 "/>
<text text-anchor="start" x="1209" y="-560.5" font-family="SegoeUI" font-size="10.00">&#45; currentValue</text>
<text text-anchor="start" x="1209" y="-549.5" font-family="SegoeUI" font-size="10.00">&#45; rotations</text>
<polyline fill="none" stroke="black" points="1201,-542.5 1299,-542.5 "/>
<text text-anchor="start" x="1209" y="-530.5" font-family="SegoeUI" font-size="10.00">+ Angle()</text>
<text text-anchor="start" x="1209" y="-519.5" font-family="SegoeUI" font-size="10.00">+ GetObjectData()</text>
<text text-anchor="start" x="1209" y="-508.5" font-family="SegoeUI" font-size="10.00">+ Angle()</text>
<text text-anchor="start" x="1209" y="-497.5" font-family="SegoeUI" font-size="10.00">+ ToSingle()</text>
<text text-anchor="start" x="1209" y="-486.5" font-family="SegoeUI" font-size="10.00">+ Xor()</text>
<text text-anchor="start" x="1209" y="-475.5" font-family="SegoeUI" font-size="10.00">+ Mod()</text>
<text text-anchor="start" x="1209" y="-464.5" font-family="SegoeUI" font-size="10.00">+ Add()</text>
<text text-anchor="start" x="1209" y="-453.5" font-family="SegoeUI" font-size="10.00">+ Subtract()</text>
<text text-anchor="start" x="1209" y="-442.5" font-family="SegoeUI" font-size="10.00">+ Multiply()</text>
<text text-anchor="start" x="1209" y="-431.5" font-family="SegoeUI" font-size="10.00">+ Divide()</text>
<text text-anchor="start" x="1209" y="-420.5" font-family="SegoeUI" font-size="10.00">+ Equals()</text>
<text text-anchor="start" x="1209" y="-409.5" font-family="SegoeUI" font-size="10.00">+ Equals()</text>
<text text-anchor="start" x="1209" y="-398.5" font-family="SegoeUI" font-size="10.00">+ GetHashCode()</text>
<text text-anchor="start" x="1209" y="-387.5" font-family="SegoeUI" font-size="10.00">+ ToString()</text>
<text text-anchor="start" x="1209" y="-376.5" font-family="SegoeUI" font-size="10.00">+ operator float()</text>
<text text-anchor="start" x="1209" y="-365.5" font-family="SegoeUI" font-size="10.00">+ FromSingle()</text>
<text text-anchor="start" x="1209" y="-354.5" font-family="SegoeUI" font-size="10.00">+ operator Angle()</text>
<text text-anchor="start" x="1209" y="-343.5" font-family="SegoeUI" font-size="10.00">+ operator ^()</text>
<text text-anchor="start" x="1209" y="-332.5" font-family="SegoeUI" font-size="10.00">+ operator %()</text>
<text text-anchor="start" x="1209" y="-321.5" font-family="SegoeUI" font-size="10.00">+ operator+()</text>
<text text-anchor="start" x="1209" y="-310.5" font-family="SegoeUI" font-size="10.00">+ operator &#45;()</text>
<text text-anchor="start" x="1209" y="-299.5" font-family="SegoeUI" font-size="10.00">+ operator *()</text>
<text text-anchor="start" x="1209" y="-288.5" font-family="SegoeUI" font-size="10.00">+ operator/()</text>
<text text-anchor="start" x="1209" y="-277.5" font-family="SegoeUI" font-size="10.00">+ operator==()</text>
<text text-anchor="start" x="1209" y="-266.5" font-family="SegoeUI" font-size="10.00">+ operator !=()</text>
<text text-anchor="start" x="1209" y="-255.5" font-family="SegoeUI" font-size="10.00">+ operator string()</text>
<text text-anchor="start" x="1209" y="-244.5" font-family="SegoeUI" font-size="10.00">&#45; Angle()</text>
<text text-anchor="start" x="1209" y="-233.5" font-family="SegoeUI" font-size="10.00">&#45; Update()</text>
<text text-anchor="start" x="1209" y="-222.5" font-family="SegoeUI" font-size="10.00">&#45; Repeat()</text>
</a>
</g>
</g>
<!-- Node35&#45;&gt;Node16 -->
<g id="edge21" class="edge"><title>Node35&#45;&gt;Node16</title>
<path fill="none" stroke="#404040" d="M1200.89,-252.583C1192.7,-227.584 1184.42,-202.292 1176.86,-179.198"/>
<polygon fill="none" stroke="#404040" points="1176.82,-179.096 1171.15,-174.639 1173.09,-167.692 1178.76,-172.149 1176.82,-179.096"/>
<text text-anchor="middle" x="1218.5" y="-189" font-family="SegoeUI" font-size="10.00"> &#45;angleCorrector</text>
</g>
<!-- Node36 -->
<g id="node21" class="node"><title>Node36</title>
<g id="a_node21"><a xlink:title=" ">
<polygon fill="white" stroke="#bfbfbf" points="1320.5,-738.5 1320.5,-795.5 1389.5,-795.5 1389.5,-738.5 1320.5,-738.5"/>
<text text-anchor="middle" x="1355" y="-783.5" font-family="SegoeUI" font-size="10.00">ISerializable</text>
<polyline fill="none" stroke="#bfbfbf" points="1320.5,-776.5 1389.5,-776.5 "/>
<text text-anchor="middle" x="1355" y="-764.5" font-family="SegoeUI" font-size="10.00"> </text>
<polyline fill="none" stroke="#bfbfbf" points="1320.5,-757.5 1389.5,-757.5 "/>
<text text-anchor="middle" x="1355" y="-745.5" font-family="SegoeUI" font-size="10.00"> </text>
</a>
</g>
</g>
<!-- Node36&#45;&gt;Node35 -->
<g id="edge22" class="edge"><title>Node36&#45;&gt;Node35</title>
<path fill="none" stroke="midnightblue" d="M1344.06,-728.35C1333.25,-691.128 1315.93,-631.488 1299.08,-573.473"/>
<polygon fill="none" stroke="midnightblue" points="1340.78,-729.607 1346.94,-738.234 1347.51,-727.655 1340.78,-729.607"/>
</g>
<!-- Node37 -->
<g id="node22" class="node"><title>Node37</title>
<g id="a_node22"><a xlink:title=" ">
<polygon fill="white" stroke="#bfbfbf" points="1197.5,-738.5 1197.5,-795.5 1302.5,-795.5 1302.5,-738.5 1197.5,-738.5"/>
<text text-anchor="middle" x="1250" y="-783.5" font-family="SegoeUI" font-size="10.00">IEquatable&lt; Angle &gt;</text>
<polyline fill="none" stroke="#bfbfbf" points="1197.5,-776.5 1302.5,-776.5 "/>
<text text-anchor="middle" x="1250" y="-764.5" font-family="SegoeUI" font-size="10.00"> </text>
<polyline fill="none" stroke="#bfbfbf" points="1197.5,-757.5 1302.5,-757.5 "/>
<text text-anchor="middle" x="1250" y="-745.5" font-family="SegoeUI" font-size="10.00"> </text>
</a>
</g>
</g>
<!-- Node37&#45;&gt;Node35 -->
<g id="edge23" class="edge"><title>Node37&#45;&gt;Node35</title>
<path fill="none" stroke="midnightblue" d="M1250,-728.072C1250,-694.785 1250,-643.721 1250,-591.926"/>
<polygon fill="none" stroke="midnightblue" points="1246.5,-728.234 1250,-738.234 1253.5,-728.234 1246.5,-728.234"/>
</g>
</g>
</svg>
