<?xml version="1.0" encoding="UTF-8" standalone="no"?>
<!DOCTYPE svg PUBLIC "-//W3C//DTD SVG 1.1//EN"
 "http://www.w3.org/Graphics/SVG/1.1/DTD/svg11.dtd">
<!-- Generated by graphviz version 2.38.0 (20140413.2041)
 -->
<!-- Title: Juniper.Primrose.BasicInterpreter Pages: 1 -->
<svg width="168pt" height="512pt"
 viewBox="0.00 0.00 168.00 512.00" xmlns="http://www.w3.org/2000/svg" xmlns:xlink="http://www.w3.org/1999/xlink">
<g id="graph0" class="graph" transform="scale(1 1) rotate(0) translate(4 508)">
<title>Juniper.Primrose.BasicInterpreter</title>
<polygon fill="white" stroke="none" points="-4,4 -4,-508 164,-508 164,4 -4,4"/>
<!-- Node0 -->
<g id="node1" class="node"><title>Node0</title>
<g id="a_node1"><a xlink:title=" ">
<polygon fill="#bfbfbf" stroke="black" points="0,-0.5 0,-409.5 160,-409.5 160,-0.5 0,-0.5"/>
<text text-anchor="middle" x="80" y="-397.5" font-family="SegoeUI" font-size="10.00">Juniper.Primrose.BasicInterpreter</text>
<polyline fill="none" stroke="black" points="0,-390.5 160,-390.5 "/>
<text text-anchor="start" x="8" y="-378.5" font-family="SegoeUI" font-size="10.00">&#45; commands</text>
<text text-anchor="start" x="8" y="-367.5" font-family="SegoeUI" font-size="10.00">&#45; state</text>
<text text-anchor="start" x="8" y="-356.5" font-family="SegoeUI" font-size="10.00">&#45; source</text>
<text text-anchor="start" x="8" y="-345.5" font-family="SegoeUI" font-size="10.00">&#45; program</text>
<text text-anchor="start" x="8" y="-334.5" font-family="SegoeUI" font-size="10.00">&#45; lineNumbers</text>
<text text-anchor="start" x="8" y="-323.5" font-family="SegoeUI" font-size="10.00">&#45; lines</text>
<text text-anchor="start" x="8" y="-312.5" font-family="SegoeUI" font-size="10.00">&#45; random</text>
<text text-anchor="start" x="8" y="-301.5" font-family="SegoeUI" font-size="10.00">&#45; returnStack</text>
<text text-anchor="start" x="8" y="-290.5" font-family="SegoeUI" font-size="10.00">&#45; forLoopCounters</text>
<text text-anchor="start" x="8" y="-279.5" font-family="SegoeUI" font-size="10.00">&#45; data</text>
<text text-anchor="start" x="8" y="-268.5" font-family="SegoeUI" font-size="10.00">&#45; counter</text>
<text text-anchor="start" x="8" y="-257.5" font-family="SegoeUI" font-size="10.00">&#45; isDone</text>
<text text-anchor="start" x="8" y="-246.5" font-family="SegoeUI" font-size="10.00">&#45; dataCounter</text>
<text text-anchor="start" x="8" y="-235.5" font-family="SegoeUI" font-size="10.00">&#45; FOR_LOOP_DELIMS</text>
<text text-anchor="start" x="8" y="-224.5" font-family="SegoeUI" font-size="10.00">&#45; EQUAL_SIGN</text>
<text text-anchor="start" x="8" y="-213.5" font-family="SegoeUI" font-size="10.00">&#45; EPOCH</text>
<text text-anchor="start" x="8" y="-202.5" font-family="SegoeUI" font-size="10.00">&#45; tokenMap</text>
<polyline fill="none" stroke="black" points="0,-195.5 160,-195.5 "/>
<text text-anchor="start" x="8" y="-183.5" font-family="SegoeUI" font-size="10.00">+ BasicInterpreter()</text>
<text text-anchor="start" x="8" y="-172.5" font-family="SegoeUI" font-size="10.00">+ Interpret()</text>
<text text-anchor="start" x="8" y="-161.5" font-family="SegoeUI" font-size="10.00">+ ConditionalReturn()</text>
<text text-anchor="start" x="8" y="-150.5" font-family="SegoeUI" font-size="10.00">&#45; OnOutput()</text>
<text text-anchor="start" x="8" y="-139.5" font-family="SegoeUI" font-size="10.00">&#45; OnInput()</text>
<text text-anchor="start" x="8" y="-128.5" font-family="SegoeUI" font-size="10.00">&#45; OnError()</text>
<text text-anchor="start" x="8" y="-117.5" font-family="SegoeUI" font-size="10.00">&#45; OnClearScreen()</text>
<text text-anchor="start" x="8" y="-106.5" font-family="SegoeUI" font-size="10.00">&#45; OnClearScreen()</text>
<text text-anchor="start" x="8" y="-95.5" font-family="SegoeUI" font-size="10.00">&#45; OnLoadFile()</text>
<text text-anchor="start" x="8" y="-84.5" font-family="SegoeUI" font-size="10.00">&#45; OnNext()</text>
<text text-anchor="start" x="8" y="-73.5" font-family="SegoeUI" font-size="10.00">&#45; OnDone()</text>
<text text-anchor="start" x="8" y="-62.5" font-family="SegoeUI" font-size="10.00">&#45; IsFunction()</text>
<text text-anchor="start" x="8" y="-51.5" font-family="SegoeUI" font-size="10.00">&#45; Evaluate()</text>
<text text-anchor="start" x="8" y="-40.5" font-family="SegoeUI" font-size="10.00">and 25 more...</text>
<text text-anchor="start" x="8" y="-29.5" font-family="SegoeUI" font-size="10.00">&#45; ToNum()</text>
<text text-anchor="start" x="8" y="-18.5" font-family="SegoeUI" font-size="10.00">&#45; ToStr()</text>
<text text-anchor="start" x="8" y="-7.5" font-family="SegoeUI" font-size="10.00">&#45; Eval()</text>
</a>
</g>
</g>
<!-- Node1 -->
<g id="node2" class="node"><title>Node1</title>
<g id="a_node2"><a xlink:href="../../db/d34/interface_juniper_1_1_primrose_1_1_i_interpreter.html" target="_top" xlink:title=" ">
<polygon fill="white" stroke="black" points="44.5,-446.5 44.5,-503.5 115.5,-503.5 115.5,-446.5 44.5,-446.5"/>
<text text-anchor="middle" x="80" y="-491.5" font-family="SegoeUI" font-size="10.00">IInterpreter</text>
<polyline fill="none" stroke="black" points="44.5,-484.5 115.5,-484.5 "/>
<text text-anchor="middle" x="80" y="-472.5" font-family="SegoeUI" font-size="10.00"> </text>
<polyline fill="none" stroke="black" points="44.5,-465.5 115.5,-465.5 "/>
<text text-anchor="start" x="52.5" y="-453.5" font-family="SegoeUI" font-size="10.00">+ Interpret()</text>
</a>
</g>
</g>
<!-- Node1&#45;&gt;Node0 -->
<g id="edge1" class="edge"><title>Node1&#45;&gt;Node0</title>
<path fill="none" stroke="midnightblue" d="M80,-436.089C80,-428.125 80,-419.206 80,-409.63"/>
<polygon fill="none" stroke="midnightblue" points="76.5001,-436.329 80,-446.329 83.5001,-436.329 76.5001,-436.329"/>
</g>
</g>
</svg>
