<?xml version="1.0" encoding="UTF-8" standalone="no"?>
<!DOCTYPE svg PUBLIC "-//W3C//DTD SVG 1.1//EN"
 "http://www.w3.org/Graphics/SVG/1.1/DTD/svg11.dtd">
<!-- Generated by graphviz version 2.38.0 (20140413.2041)
 -->
<!-- Title: Juniper.Widgets.TeleportPad Pages: 1 -->
<svg width="694pt" height="689pt"
 viewBox="0.00 0.00 693.50 689.00" xmlns="http://www.w3.org/2000/svg" xmlns:xlink="http://www.w3.org/1999/xlink">
<g id="graph0" class="graph" transform="scale(1 1) rotate(0) translate(4 685)">
<title>Juniper.Widgets.TeleportPad</title>
<polygon fill="white" stroke="none" points="-4,4 -4,-685 689.5,-685 689.5,4 -4,4"/>
<!-- Node0 -->
<g id="node1" class="node"><title>Node0</title>
<g id="a_node1"><a xlink:title=" ">
<polygon fill="#bfbfbf" stroke="black" points="371,-0.5 371,-112.5 511,-112.5 511,-0.5 371,-0.5"/>
<text text-anchor="middle" x="441" y="-100.5" font-family="SegoeUI" font-size="10.00">Juniper.Widgets.TeleportPad</text>
<polyline fill="none" stroke="black" points="371,-93.5 511,-93.5 "/>
<text text-anchor="start" x="379" y="-81.5" font-family="SegoeUI" font-size="10.00">&#45; userT</text>
<text text-anchor="start" x="379" y="-70.5" font-family="SegoeUI" font-size="10.00">&#45; user</text>
<text text-anchor="start" x="379" y="-59.5" font-family="SegoeUI" font-size="10.00">&#45; darth</text>
<text text-anchor="start" x="379" y="-48.5" font-family="SegoeUI" font-size="10.00">&#45; running</text>
<polyline fill="none" stroke="black" points="371,-41.5 511,-41.5 "/>
<text text-anchor="start" x="379" y="-29.5" font-family="SegoeUI" font-size="10.00"># OnClick()</text>
<text text-anchor="start" x="379" y="-18.5" font-family="SegoeUI" font-size="10.00">&#45; Start()</text>
<text text-anchor="start" x="379" y="-7.5" font-family="SegoeUI" font-size="10.00">&#45; Darth_Entered()</text>
</a>
</g>
</g>
<!-- Node1 -->
<g id="node2" class="node"><title>Node1</title>
<g id="a_node2"><a xlink:href="../../d2/d70/class_juniper_1_1_widgets_1_1_clickable.html" target="_top" xlink:title="An object that can be Touched on a screen or Clicked with a mouse and fires an event in response.">
<polygon fill="white" stroke="black" points="381.5,-149.5 381.5,-261.5 500.5,-261.5 500.5,-149.5 381.5,-149.5"/>
<text text-anchor="middle" x="441" y="-249.5" font-family="SegoeUI" font-size="10.00">Clickable</text>
<polyline fill="none" stroke="black" points="381.5,-242.5 500.5,-242.5 "/>
<text text-anchor="start" x="389.5" y="-230.5" font-family="SegoeUI" font-size="10.00">+ onClick</text>
<text text-anchor="start" x="389.5" y="-219.5" font-family="SegoeUI" font-size="10.00">+ onLongPress</text>
<polyline fill="none" stroke="black" points="381.5,-212.5 500.5,-212.5 "/>
<text text-anchor="start" x="389.5" y="-200.5" font-family="SegoeUI" font-size="10.00">+ OnPointerClick()</text>
<text text-anchor="start" x="389.5" y="-189.5" font-family="SegoeUI" font-size="10.00">+ OnLongPress()</text>
<text text-anchor="start" x="389.5" y="-178.5" font-family="SegoeUI" font-size="10.00">+ OnLongPressUpdate()</text>
<text text-anchor="start" x="389.5" y="-167.5" font-family="SegoeUI" font-size="10.00"># OnClick()</text>
<text text-anchor="start" x="389.5" y="-156.5" font-family="SegoeUI" font-size="10.00"># OnLongPress()</text>
</a>
</g>
</g>
<!-- Node1&#45;&gt;Node0 -->
<g id="edge1" class="edge"><title>Node1&#45;&gt;Node0</title>
<path fill="none" stroke="midnightblue" d="M441,-139.176C441,-130.427 441,-121.522 441,-112.965"/>
<polygon fill="none" stroke="midnightblue" points="437.5,-139.344 441,-149.344 444.5,-139.344 437.5,-139.344"/>
</g>
<!-- Node2 -->
<g id="node3" class="node"><title>Node2</title>
<g id="a_node3"><a xlink:href="../../d7/d8c/class_juniper_1_1_widgets_1_1_abstract_touchable.html" target="_top" xlink:title="The base class for all interactive, AR&#45;compatible, GUI controls /// This class is abstract to avoid i...">
<polygon fill="white" stroke="black" points="222,-298.5 222,-586.5 348,-586.5 348,-298.5 222,-298.5"/>
<text text-anchor="middle" x="285" y="-574.5" font-family="SegoeUI" font-size="10.00">AbstractTouchable</text>
<polyline fill="none" stroke="black" points="222,-567.5 348,-567.5 "/>
<text text-anchor="start" x="230" y="-555.5" font-family="SegoeUI" font-size="10.00">+ clickButton</text>
<text text-anchor="start" x="230" y="-544.5" font-family="SegoeUI" font-size="10.00">+ disabled</text>
<text text-anchor="start" x="230" y="-533.5" font-family="SegoeUI" font-size="10.00">+ pointerPosition</text>
<text text-anchor="start" x="230" y="-522.5" font-family="SegoeUI" font-size="10.00">+ PART_NAMES</text>
<text text-anchor="start" x="230" y="-511.5" font-family="SegoeUI" font-size="10.00">+ DisabledChanged</text>
<text text-anchor="start" x="230" y="-500.5" font-family="SegoeUI" font-size="10.00">+ DisabledDown</text>
<text text-anchor="start" x="230" y="-489.5" font-family="SegoeUI" font-size="10.00">+ DisabledUp</text>
<text text-anchor="start" x="230" y="-478.5" font-family="SegoeUI" font-size="10.00">+ IsDisabled</text>
<text text-anchor="start" x="230" y="-467.5" font-family="SegoeUI" font-size="10.00">+ PointerPositionChanged</text>
<text text-anchor="start" x="230" y="-456.5" font-family="SegoeUI" font-size="10.00"># lastPointerPosition</text>
<text text-anchor="start" x="230" y="-445.5" font-family="SegoeUI" font-size="10.00">&#45; animator</text>
<text text-anchor="start" x="230" y="-434.5" font-family="SegoeUI" font-size="10.00">&#45; wasDisabled</text>
<polyline fill="none" stroke="black" points="222,-427.5 348,-427.5 "/>
<text text-anchor="start" x="230" y="-415.5" font-family="SegoeUI" font-size="10.00">+ SetDisabled()</text>
<text text-anchor="start" x="230" y="-404.5" font-family="SegoeUI" font-size="10.00">+ ToggleEnabled()</text>
<text text-anchor="start" x="230" y="-393.5" font-family="SegoeUI" font-size="10.00">+ OnPointerEnter()</text>
<text text-anchor="start" x="230" y="-382.5" font-family="SegoeUI" font-size="10.00">+ OnPointerExit()</text>
<text text-anchor="start" x="230" y="-371.5" font-family="SegoeUI" font-size="10.00">+ OnPointerDown()</text>
<text text-anchor="start" x="230" y="-360.5" font-family="SegoeUI" font-size="10.00">+ OnPointerUp()</text>
<text text-anchor="start" x="230" y="-349.5" font-family="SegoeUI" font-size="10.00"># Update()</text>
<text text-anchor="start" x="230" y="-338.5" font-family="SegoeUI" font-size="10.00"># LateUpdate()</text>
<text text-anchor="start" x="230" y="-327.5" font-family="SegoeUI" font-size="10.00"># ShowState()</text>
<text text-anchor="start" x="230" y="-316.5" font-family="SegoeUI" font-size="10.00"># GetPosition()</text>
<text text-anchor="start" x="230" y="-305.5" font-family="SegoeUI" font-size="10.00">&#45; NormalizePart()</text>
</a>
</g>
</g>
<!-- Node2&#45;&gt;Node1 -->
<g id="edge2" class="edge"><title>Node2&#45;&gt;Node1</title>
<path fill="none" stroke="midnightblue" d="M353.657,-338.075C371.158,-311.711 389.295,-284.389 404.476,-261.519"/>
<polygon fill="none" stroke="midnightblue" points="350.616,-336.327 348.002,-346.594 356.448,-340.198 350.616,-336.327"/>
</g>
<!-- Node3 -->
<g id="node4" class="node"><title>Node3</title>
<g id="a_node4"><a xlink:title=" ">
<polygon fill="white" stroke="#bfbfbf" points="0,-623.5 0,-680.5 82,-680.5 82,-623.5 0,-623.5"/>
<text text-anchor="middle" x="41" y="-668.5" font-family="SegoeUI" font-size="10.00">MonoBehaviour</text>
<polyline fill="none" stroke="#bfbfbf" points="0,-661.5 82,-661.5 "/>
<text text-anchor="middle" x="41" y="-649.5" font-family="SegoeUI" font-size="10.00"> </text>
<polyline fill="none" stroke="#bfbfbf" points="0,-642.5 82,-642.5 "/>
<text text-anchor="middle" x="41" y="-630.5" font-family="SegoeUI" font-size="10.00"> </text>
</a>
</g>
</g>
<!-- Node3&#45;&gt;Node2 -->
<g id="edge3" class="edge"><title>Node3&#45;&gt;Node2</title>
<path fill="none" stroke="midnightblue" d="M81.2415,-616.778C119.449,-584.286 177.477,-534.939 221.848,-497.205"/>
<polygon fill="none" stroke="midnightblue" points="78.7518,-614.301 73.4013,-623.446 83.2866,-619.634 78.7518,-614.301"/>
</g>
<!-- Node4 -->
<g id="node5" class="node"><title>Node4</title>
<g id="a_node5"><a xlink:title=" ">
<polygon fill="white" stroke="#bfbfbf" points="100.5,-623.5 100.5,-680.5 205.5,-680.5 205.5,-623.5 100.5,-623.5"/>
<text text-anchor="middle" x="153" y="-668.5" font-family="SegoeUI" font-size="10.00">IPointerEnterHandler</text>
<polyline fill="none" stroke="#bfbfbf" points="100.5,-661.5 205.5,-661.5 "/>
<text text-anchor="middle" x="153" y="-649.5" font-family="SegoeUI" font-size="10.00"> </text>
<polyline fill="none" stroke="#bfbfbf" points="100.5,-642.5 205.5,-642.5 "/>
<text text-anchor="middle" x="153" y="-630.5" font-family="SegoeUI" font-size="10.00"> </text>
</a>
</g>
</g>
<!-- Node4&#45;&gt;Node2 -->
<g id="edge4" class="edge"><title>Node4&#45;&gt;Node2</title>
<path fill="none" stroke="midnightblue" d="M175.961,-614.906C188.798,-594.727 205.486,-568.493 221.931,-542.642"/>
<polygon fill="none" stroke="midnightblue" points="172.943,-613.13 170.529,-623.446 178.849,-616.887 172.943,-613.13"/>
</g>
<!-- Node5 -->
<g id="node6" class="node"><title>Node5</title>
<g id="a_node6"><a xlink:title=" ">
<polygon fill="white" stroke="#bfbfbf" points="224,-623.5 224,-680.5 322,-680.5 322,-623.5 224,-623.5"/>
<text text-anchor="middle" x="273" y="-668.5" font-family="SegoeUI" font-size="10.00">IPointerExitHandler</text>
<polyline fill="none" stroke="#bfbfbf" points="224,-661.5 322,-661.5 "/>
<text text-anchor="middle" x="273" y="-649.5" font-family="SegoeUI" font-size="10.00"> </text>
<polyline fill="none" stroke="#bfbfbf" points="224,-642.5 322,-642.5 "/>
<text text-anchor="middle" x="273" y="-630.5" font-family="SegoeUI" font-size="10.00"> </text>
</a>
</g>
</g>
<!-- Node5&#45;&gt;Node2 -->
<g id="edge5" class="edge"><title>Node5&#45;&gt;Node2</title>
<path fill="none" stroke="midnightblue" d="M275.176,-613.377C275.643,-605.29 276.164,-596.284 276.715,-586.756"/>
<polygon fill="none" stroke="midnightblue" points="271.677,-613.26 274.594,-623.446 278.665,-613.664 271.677,-613.26"/>
</g>
<!-- Node6 -->
<g id="node7" class="node"><title>Node6</title>
<g id="a_node7"><a xlink:title=" ">
<polygon fill="white" stroke="#bfbfbf" points="340.5,-623.5 340.5,-680.5 447.5,-680.5 447.5,-623.5 340.5,-623.5"/>
<text text-anchor="middle" x="394" y="-668.5" font-family="SegoeUI" font-size="10.00">IPointerDownHandler</text>
<polyline fill="none" stroke="#bfbfbf" points="340.5,-661.5 447.5,-661.5 "/>
<text text-anchor="middle" x="394" y="-649.5" font-family="SegoeUI" font-size="10.00"> </text>
<polyline fill="none" stroke="#bfbfbf" points="340.5,-642.5 447.5,-642.5 "/>
<text text-anchor="middle" x="394" y="-630.5" font-family="SegoeUI" font-size="10.00"> </text>
</a>
</g>
</g>
<!-- Node6&#45;&gt;Node2 -->
<g id="edge6" class="edge"><title>Node6&#45;&gt;Node2</title>
<path fill="none" stroke="midnightblue" d="M374.739,-614.333C367.078,-599.749 357.791,-582.07 348.133,-563.684"/>
<polygon fill="none" stroke="midnightblue" points="371.777,-616.22 379.526,-623.446 377.974,-612.965 371.777,-616.22"/>
</g>
<!-- Node7 -->
<g id="node8" class="node"><title>Node7</title>
<g id="a_node8"><a xlink:title=" ">
<polygon fill="white" stroke="#bfbfbf" points="466,-623.5 466,-680.5 560,-680.5 560,-623.5 466,-623.5"/>
<text text-anchor="middle" x="513" y="-668.5" font-family="SegoeUI" font-size="10.00">IPointerUpHandler</text>
<polyline fill="none" stroke="#bfbfbf" points="466,-661.5 560,-661.5 "/>
<text text-anchor="middle" x="513" y="-649.5" font-family="SegoeUI" font-size="10.00"> </text>
<polyline fill="none" stroke="#bfbfbf" points="466,-642.5 560,-642.5 "/>
<text text-anchor="middle" x="513" y="-630.5" font-family="SegoeUI" font-size="10.00"> </text>
</a>
</g>
</g>
<!-- Node7&#45;&gt;Node2 -->
<g id="edge7" class="edge"><title>Node7&#45;&gt;Node2</title>
<path fill="none" stroke="midnightblue" d="M456.596,-623.29C456.397,-623.193 456.198,-623.096 456,-623 422.74,-606.849 408.935,-611.223 381,-587 369.111,-576.691 358.061,-564.575 348.005,-551.826"/>
<polygon fill="none" stroke="midnightblue" points="455.216,-626.51 465.739,-627.743 458.281,-620.217 455.216,-626.51"/>
</g>
<!-- Node8 -->
<g id="node9" class="node"><title>Node8</title>
<g id="a_node9"><a xlink:title=" ">
<polygon fill="white" stroke="#bfbfbf" points="390,-414 390,-471 492,-471 492,-414 390,-414"/>
<text text-anchor="middle" x="441" y="-459" font-family="SegoeUI" font-size="10.00">IPointerClickHandler</text>
<polyline fill="none" stroke="#bfbfbf" points="390,-452 492,-452 "/>
<text text-anchor="middle" x="441" y="-440" font-family="SegoeUI" font-size="10.00"> </text>
<polyline fill="none" stroke="#bfbfbf" points="390,-433 492,-433 "/>
<text text-anchor="middle" x="441" y="-421" font-family="SegoeUI" font-size="10.00"> </text>
</a>
</g>
</g>
<!-- Node8&#45;&gt;Node1 -->
<g id="edge8" class="edge"><title>Node8&#45;&gt;Node1</title>
<path fill="none" stroke="midnightblue" d="M441,-403.37C441,-364.916 441,-305.166 441,-261.572"/>
<polygon fill="none" stroke="midnightblue" points="437.5,-403.62 441,-413.62 444.5,-403.62 437.5,-403.62"/>
</g>
<!-- Node9 -->
<g id="node10" class="node"><title>Node9</title>
<g id="a_node10"><a xlink:href="../../d7/db1/interface_juniper_1_1_events_1_1_i_long_press_handler.html" target="_top" xlink:title=" ">
<polygon fill="white" stroke="black" points="559.5,-408.5 559.5,-476.5 678.5,-476.5 678.5,-408.5 559.5,-408.5"/>
<text text-anchor="middle" x="619" y="-464.5" font-family="SegoeUI" font-size="10.00">ILongPressHandler</text>
<polyline fill="none" stroke="black" points="559.5,-457.5 678.5,-457.5 "/>
<text text-anchor="middle" x="619" y="-445.5" font-family="SegoeUI" font-size="10.00"> </text>
<polyline fill="none" stroke="black" points="559.5,-438.5 678.5,-438.5 "/>
<text text-anchor="start" x="567.5" y="-426.5" font-family="SegoeUI" font-size="10.00">+ OnLongPressUpdate()</text>
<text text-anchor="start" x="567.5" y="-415.5" font-family="SegoeUI" font-size="10.00">+ OnLongPress()</text>
</a>
</g>
</g>
<!-- Node9&#45;&gt;Node1 -->
<g id="edge9" class="edge"><title>Node9&#45;&gt;Node1</title>
<path fill="none" stroke="midnightblue" d="M587.52,-399.94C558.378,-361.465 514.84,-303.986 482.794,-261.677"/>
<polygon fill="none" stroke="midnightblue" points="585.047,-402.471 593.874,-408.329 590.627,-398.244 585.047,-402.471"/>
</g>
<!-- Node10 -->
<g id="node11" class="node"><title>Node10</title>
<g id="a_node11"><a xlink:title=" ">
<polygon fill="white" stroke="#bfbfbf" points="578.5,-623.5 578.5,-680.5 685.5,-680.5 685.5,-623.5 578.5,-623.5"/>
<text text-anchor="middle" x="632" y="-668.5" font-family="SegoeUI" font-size="10.00">IEventSystemHandler</text>
<polyline fill="none" stroke="#bfbfbf" points="578.5,-661.5 685.5,-661.5 "/>
<text text-anchor="middle" x="632" y="-649.5" font-family="SegoeUI" font-size="10.00"> </text>
<polyline fill="none" stroke="#bfbfbf" points="578.5,-642.5 685.5,-642.5 "/>
<text text-anchor="middle" x="632" y="-630.5" font-family="SegoeUI" font-size="10.00"> </text>
</a>
</g>
</g>
<!-- Node10&#45;&gt;Node9 -->
<g id="edge10" class="edge"><title>Node10&#45;&gt;Node9</title>
<path fill="none" stroke="midnightblue" d="M629.621,-613.034C627.176,-574.005 623.406,-513.833 621.077,-476.659"/>
<polygon fill="none" stroke="midnightblue" points="626.155,-613.684 630.274,-623.446 633.141,-613.246 626.155,-613.684"/>
</g>
</g>
</svg>
