<?xml version="1.0" encoding="UTF-8" standalone="no"?>
<!DOCTYPE svg PUBLIC "-//W3C//DTD SVG 1.1//EN"
 "http://www.w3.org/Graphics/SVG/1.1/DTD/svg11.dtd">
<!-- Generated by graphviz version 2.38.0 (20140413.2041)
 -->
<!-- Title: BitMiracle.LibJpeg.BitStream Pages: 1 -->
<svg width="145pt" height="347pt"
 viewBox="0.00 0.00 145.00 347.00" xmlns="http://www.w3.org/2000/svg" xmlns:xlink="http://www.w3.org/1999/xlink">
<g id="graph0" class="graph" transform="scale(1 1) rotate(0) translate(4 343)">
<title>BitMiracle.LibJpeg.BitStream</title>
<polygon fill="white" stroke="none" points="-4,4 -4,-343 141,-343 141,4 -4,4"/>
<!-- Node0 -->
<g id="node1" class="node"><title>Node0</title>
<g id="a_node1"><a xlink:title=" ">
<polygon fill="#bfbfbf" stroke="black" points="0,-0.5 0,-244.5 137,-244.5 137,-0.5 0,-0.5"/>
<text text-anchor="middle" x="68.5" y="-232.5" font-family="SegoeUI" font-size="10.00">BitMiracle.LibJpeg.BitStream</text>
<polyline fill="none" stroke="black" points="0,-225.5 137,-225.5 "/>
<text text-anchor="start" x="8" y="-213.5" font-family="SegoeUI" font-size="10.00">+ UnderlyingStream</text>
<text text-anchor="start" x="8" y="-202.5" font-family="SegoeUI" font-size="10.00">&#45; m_alreadyDisposed</text>
<text text-anchor="start" x="8" y="-191.5" font-family="SegoeUI" font-size="10.00">&#45; bitsInByte</text>
<text text-anchor="start" x="8" y="-180.5" font-family="SegoeUI" font-size="10.00">&#45; m_stream</text>
<text text-anchor="start" x="8" y="-169.5" font-family="SegoeUI" font-size="10.00">&#45; m_positionInByte</text>
<text text-anchor="start" x="8" y="-158.5" font-family="SegoeUI" font-size="10.00">&#45; m_size</text>
<polyline fill="none" stroke="black" points="0,-151.5 137,-151.5 "/>
<text text-anchor="start" x="8" y="-139.5" font-family="SegoeUI" font-size="10.00">+ BitStream()</text>
<text text-anchor="start" x="8" y="-128.5" font-family="SegoeUI" font-size="10.00">+ BitStream()</text>
<text text-anchor="start" x="8" y="-117.5" font-family="SegoeUI" font-size="10.00">+ Dispose()</text>
<text text-anchor="start" x="8" y="-106.5" font-family="SegoeUI" font-size="10.00">+ Size()</text>
<text text-anchor="start" x="8" y="-95.5" font-family="SegoeUI" font-size="10.00">+ Read()</text>
<text text-anchor="start" x="8" y="-84.5" font-family="SegoeUI" font-size="10.00">+ Write()</text>
<text text-anchor="start" x="8" y="-73.5" font-family="SegoeUI" font-size="10.00">+ Seek()</text>
<text text-anchor="start" x="8" y="-62.5" font-family="SegoeUI" font-size="10.00">+ Tell()</text>
<text text-anchor="start" x="8" y="-51.5" font-family="SegoeUI" font-size="10.00"># Dispose()</text>
<text text-anchor="start" x="8" y="-40.5" font-family="SegoeUI" font-size="10.00">&#45; BitsAllocated()</text>
<text text-anchor="start" x="8" y="-29.5" font-family="SegoeUI" font-size="10.00">&#45; WriteBit()</text>
<text text-anchor="start" x="8" y="-18.5" font-family="SegoeUI" font-size="10.00">&#45; SeekSet()</text>
<text text-anchor="start" x="8" y="-7.5" font-family="SegoeUI" font-size="10.00">&#45; SeekCurrent()</text>
</a>
</g>
</g>
<!-- Node1 -->
<g id="node2" class="node"><title>Node1</title>
<g id="a_node2"><a xlink:title=" ">
<polygon fill="white" stroke="#bfbfbf" points="36,-281.5 36,-338.5 101,-338.5 101,-281.5 36,-281.5"/>
<text text-anchor="middle" x="68.5" y="-326.5" font-family="SegoeUI" font-size="10.00">IDisposable</text>
<polyline fill="none" stroke="#bfbfbf" points="36,-319.5 101,-319.5 "/>
<text text-anchor="middle" x="68.5" y="-307.5" font-family="SegoeUI" font-size="10.00"> </text>
<polyline fill="none" stroke="#bfbfbf" points="36,-300.5 101,-300.5 "/>
<text text-anchor="middle" x="68.5" y="-288.5" font-family="SegoeUI" font-size="10.00"> </text>
</a>
</g>
</g>
<!-- Node1&#45;&gt;Node0 -->
<g id="edge1" class="edge"><title>Node1&#45;&gt;Node0</title>
<path fill="none" stroke="midnightblue" d="M68.5,-271.139C68.5,-263.055 68.5,-254.101 68.5,-244.718"/>
<polygon fill="none" stroke="midnightblue" points="65.0001,-271.229 68.5,-281.229 72.0001,-271.229 65.0001,-271.229"/>
</g>
</g>
</svg>
