<?xml version="1.0" encoding="UTF-8" standalone="no"?>
<!DOCTYPE svg PUBLIC "-//W3C//DTD SVG 1.1//EN"
 "http://www.w3.org/Graphics/SVG/1.1/DTD/svg11.dtd">
<!-- Generated by graphviz version 2.38.0 (20140413.2041)
 -->
<!-- Title: Juniper.Widgets.Selectable Pages: 1 -->
<svg width="188pt" height="160pt"
 viewBox="0.00 0.00 187.50 160.00" xmlns="http://www.w3.org/2000/svg" xmlns:xlink="http://www.w3.org/1999/xlink">
<g id="graph0" class="graph" transform="scale(1 1) rotate(0) translate(4 156)">
<title>Juniper.Widgets.Selectable</title>
<polygon fill="white" stroke="none" points="-4,4 -4,-156 183.5,-156 183.5,4 -4,4"/>
<!-- Node3 -->
<g id="node1" class="node"><title>Node3</title>
<g id="a_node1"><a xlink:title=" ">
<polygon fill="#bfbfbf" stroke="black" points="24,-0.5 24,-57.5 156,-57.5 156,-0.5 24,-0.5"/>
<text text-anchor="middle" x="90" y="-45.5" font-family="SegoeUI" font-size="10.00">Juniper.Widgets.Selectable</text>
<polyline fill="none" stroke="black" points="24,-38.5 156,-38.5 "/>
<text text-anchor="start" x="32" y="-26.5" font-family="SegoeUI" font-size="10.00">+ onSelected</text>
<polyline fill="none" stroke="black" points="24,-19.5 156,-19.5 "/>
<text text-anchor="start" x="32" y="-7.5" font-family="SegoeUI" font-size="10.00">+ OnSelect()</text>
</a>
</g>
</g>
<!-- Node4 -->
<g id="node2" class="node"><title>Node4</title>
<g id="a_node2"><a xlink:title=" ">
<polygon fill="white" stroke="#bfbfbf" points="0,-94.5 0,-151.5 82,-151.5 82,-94.5 0,-94.5"/>
<text text-anchor="middle" x="41" y="-139.5" font-family="SegoeUI" font-size="10.00">MonoBehaviour</text>
<polyline fill="none" stroke="#bfbfbf" points="0,-132.5 82,-132.5 "/>
<text text-anchor="middle" x="41" y="-120.5" font-family="SegoeUI" font-size="10.00"> </text>
<polyline fill="none" stroke="#bfbfbf" points="0,-113.5 82,-113.5 "/>
<text text-anchor="middle" x="41" y="-101.5" font-family="SegoeUI" font-size="10.00"> </text>
</a>
</g>
</g>
<!-- Node4&#45;&gt;Node3 -->
<g id="edge1" class="edge"><title>Node4&#45;&gt;Node3</title>
<path fill="none" stroke="midnightblue" d="M60.5096,-85.3697C65.443,-76.107 70.6583,-66.3151 75.3088,-57.5836"/>
<polygon fill="none" stroke="midnightblue" points="57.3134,-83.9254 55.7016,-94.397 63.4917,-87.2161 57.3134,-83.9254"/>
</g>
<!-- Node5 -->
<g id="node3" class="node"><title>Node5</title>
<g id="a_node3"><a xlink:title=" ">
<polygon fill="white" stroke="#bfbfbf" points="100.5,-94.5 100.5,-151.5 179.5,-151.5 179.5,-94.5 100.5,-94.5"/>
<text text-anchor="middle" x="140" y="-139.5" font-family="SegoeUI" font-size="10.00">ISelectHandler</text>
<polyline fill="none" stroke="#bfbfbf" points="100.5,-132.5 179.5,-132.5 "/>
<text text-anchor="middle" x="140" y="-120.5" font-family="SegoeUI" font-size="10.00"> </text>
<polyline fill="none" stroke="#bfbfbf" points="100.5,-113.5 179.5,-113.5 "/>
<text text-anchor="middle" x="140" y="-101.5" font-family="SegoeUI" font-size="10.00"> </text>
</a>
</g>
</g>
<!-- Node5&#45;&gt;Node3 -->
<g id="edge2" class="edge"><title>Node5&#45;&gt;Node3</title>
<path fill="none" stroke="midnightblue" d="M120.092,-85.3697C115.058,-76.107 109.736,-66.3151 104.991,-57.5836"/>
<polygon fill="none" stroke="midnightblue" points="117.148,-87.282 124.998,-94.397 123.298,-83.9394 117.148,-87.282"/>
</g>
</g>
</svg>
