<?xml version="1.0" encoding="UTF-8" standalone="no"?>
<!DOCTYPE svg PUBLIC "-//W3C//DTD SVG 1.1//EN"
 "http://www.w3.org/Graphics/SVG/1.1/DTD/svg11.dtd">
<!-- Generated by graphviz version 2.38.0 (20140413.2041)
 -->
<!-- Title: Juniper.Unity.Haptics.AbstractHapticExpressor Pages: 1 -->
<!--zoomable 700 -->
<svg id="main" version="1.1" xmlns="http://www.w3.org/2000/svg" xmlns:xlink="http://www.w3.org/1999/xlink" xml:space="preserve" onload="init(evt)">
<style type="text/css"><![CDATA[
.edge:hover path { stroke: red; }
.edge:hover polygon { stroke: red; fill: red; }
]]></style>
<script type="text/javascript"><![CDATA[
var edges = document.getElementsByTagName('g');
if (edges && edges.length) {
  for (var i=0;i<edges.length;i++) {
    if (edges[i].id.substr(0,4)=='edge') {
      edges[i].setAttribute('class','edge');
    }
  }
}
]]></script>
        <defs>
                <circle id="rim" cx="0" cy="0" r="7"/>
                <circle id="rim2" cx="0" cy="0" r="3.5"/>
                <g id="zoomPlus">
                        <use xlink:href="#rim" fill="#404040">
                                <set attributeName="fill" to="#808080" begin="zoomplus.mouseover" end="zoomplus.mouseout"/>
                        </use>
                        <path d="M-4,0h8M0,-4v8" fill="none" stroke="white" stroke-width="1.5" pointer-events="none"/>
                </g>
                <g id="zoomMin">
                        <use xlink:href="#rim" fill="#404040">
                                <set attributeName="fill" to="#808080" begin="zoomminus.mouseover" end="zoomminus.mouseout"/>
                        </use>
                        <path d="M-4,0h8" fill="none" stroke="white" stroke-width="1.5" pointer-events="none"/>
                </g>
                <g id="dirArrow">
                        <path fill="none" stroke="white" stroke-width="1.5" d="M0,-3.0v7 M-2.5,-0.5L0,-3.0L2.5,-0.5"/>
                </g>
               <g id="resetDef">
                       <use xlink:href="#rim2" fill="#404040">
                               <set attributeName="fill" to="#808080" begin="reset.mouseover" end="reset.mouseout"/>
                       </use>
               </g>
        </defs>

<script type="text/javascript">
var viewWidth = 475;
var viewHeight = 700;
var sectionId = 'dynsection-0';
</script>
<script xlink:href="../../svgpan.js"/>
<svg id="graph" class="graph">
<g id="viewport">
<title>Juniper.Unity.Haptics.AbstractHapticExpressor</title>
<polygon fill="white" stroke="none" points="-4,4 -4,-696 471,-696 471,4 -4,4"/>
<!-- Node0 -->
<g id="node1" class="node"><title>Node0</title>
<g id="a_node1"><a xlink:title="Non&#45;iOS systems do not have built&#45;in haptic patterns. This class replicates the functionality of the ...">
<polygon fill="#bfbfbf" stroke="black" points="167,-215.5 167,-426.5 310,-426.5 310,-215.5 167,-215.5"/>
<text text-anchor="start" x="175" y="-414.5" font-family="SegoeUI" font-size="10.00">Juniper.Unity.Haptics.Abstract</text>
<text text-anchor="middle" x="238.5" y="-403.5" font-family="SegoeUI" font-size="10.00">HapticExpressor</text>
<polyline fill="none" stroke="black" points="167,-396.5 310,-396.5 "/>
<text text-anchor="middle" x="238.5" y="-384.5" font-family="SegoeUI" font-size="10.00"> </text>
<polyline fill="none" stroke="black" points="167,-377.5 310,-377.5 "/>
<text text-anchor="start" x="175" y="-365.5" font-family="SegoeUI" font-size="10.00">+ Cancel()</text>
<text text-anchor="start" x="175" y="-354.5" font-family="SegoeUI" font-size="10.00">+ Play()</text>
<text text-anchor="start" x="175" y="-343.5" font-family="SegoeUI" font-size="10.00">+ Play()</text>
<text text-anchor="start" x="175" y="-332.5" font-family="SegoeUI" font-size="10.00">+ Vibrate()</text>
<text text-anchor="start" x="175" y="-321.5" font-family="SegoeUI" font-size="10.00">+ Vibrate()</text>
<text text-anchor="start" x="175" y="-310.5" font-family="SegoeUI" font-size="10.00">+ Play()</text>
<text text-anchor="start" x="175" y="-299.5" font-family="SegoeUI" font-size="10.00">+ Play()</text>
<text text-anchor="start" x="175" y="-288.5" font-family="SegoeUI" font-size="10.00">+ Vibrate()</text>
<text text-anchor="start" x="175" y="-277.5" font-family="SegoeUI" font-size="10.00"># VibrateCoroutine()</text>
<text text-anchor="start" x="175" y="-266.5" font-family="SegoeUI" font-size="10.00"># PlayCoroutine()</text>
<text text-anchor="start" x="175" y="-255.5" font-family="SegoeUI" font-size="10.00"># PlayCoroutine()</text>
<text text-anchor="start" x="175" y="-244.5" font-family="SegoeUI" font-size="10.00"># VibrateCoroutine()</text>
<text text-anchor="start" x="175" y="-233.5" font-family="SegoeUI" font-size="10.00">&#45; PlayCoroutine()</text>
<text text-anchor="start" x="175" y="-222.5" font-family="SegoeUI" font-size="10.00">&#45; VibrateCoroutine()</text>
</a>
</g>
</g>
<!-- Node3 -->
<g id="node4" class="node"><title>Node3</title>
<g id="a_node4"><a xlink:href="../../d3/d8d/class_juniper_1_1_unity_1_1_haptics_1_1_default_haptics.html" target="_top" xlink:title="When no specific haptic implementation is available, but we know the system supports haptics,...">
<polygon fill="white" stroke="black" points="0,-28 0,-151 157,-151 157,-28 0,-28"/>
<text text-anchor="start" x="8" y="-139" font-family="SegoeUI" font-size="10.00">Juniper.Unity.Haptics.Default</text>
<text text-anchor="middle" x="78.5" y="-128" font-family="SegoeUI" font-size="10.00">Haptics</text>
<polyline fill="none" stroke="black" points="0,-121 157,-121 "/>
<text text-anchor="start" x="8" y="-109" font-family="SegoeUI" font-size="10.00">&#45; gp</text>
<polyline fill="none" stroke="black" points="0,-102 157,-102 "/>
<text text-anchor="start" x="8" y="-90" font-family="SegoeUI" font-size="10.00">+ Awake()</text>
<text text-anchor="start" x="8" y="-79" font-family="SegoeUI" font-size="10.00">+ Cancel()</text>
<text text-anchor="start" x="8" y="-68" font-family="SegoeUI" font-size="10.00"># VibrateCoroutine()</text>
<text text-anchor="start" x="8" y="-57" font-family="SegoeUI" font-size="10.00">&#45; Gamepad_GamepadAdded()</text>
<text text-anchor="start" x="8" y="-46" font-family="SegoeUI" font-size="10.00">&#45; Gamepad_GamepadRemoved()</text>
<text text-anchor="start" x="8" y="-35" font-family="SegoeUI" font-size="10.00">&#45; SetVibration()</text>
</a>
</g>
</g>
<!-- Node0&#45;&gt;Node3 -->
<g id="edge3" class="edge"><title>Node0&#45;&gt;Node3</title>
<path fill="none" stroke="midnightblue" d="M161.196,-209.117C147.313,-189.203 133.321,-169.134 120.896,-151.312"/>
<polygon fill="none" stroke="midnightblue" points="158.333,-211.131 166.924,-217.333 164.076,-207.128 158.333,-211.131"/>
</g>
<!-- Node4 -->
<g id="node5" class="node"><title>Node4</title>
<g id="a_node5"><a xlink:href="../../d0/ded/class_juniper_1_1_unity_1_1_haptics_1_1_vive_focus_haptics.html" target="_top" xlink:title=" ">
<polygon fill="white" stroke="black" points="175.5,-55.5 175.5,-123.5 301.5,-123.5 301.5,-55.5 175.5,-55.5"/>
<text text-anchor="start" x="183.5" y="-111.5" font-family="SegoeUI" font-size="10.00">Juniper.Unity.Haptics.Vive</text>
<text text-anchor="middle" x="238.5" y="-100.5" font-family="SegoeUI" font-size="10.00">FocusHaptics</text>
<polyline fill="none" stroke="black" points="175.5,-93.5 301.5,-93.5 "/>
<text text-anchor="start" x="183.5" y="-81.5" font-family="SegoeUI" font-size="10.00">+ Controller</text>
<polyline fill="none" stroke="black" points="175.5,-74.5 301.5,-74.5 "/>
<text text-anchor="start" x="183.5" y="-62.5" font-family="SegoeUI" font-size="10.00"># VibrateCoroutine()</text>
</a>
</g>
</g>
<!-- Node0&#45;&gt;Node4 -->
<g id="edge4" class="edge"><title>Node0&#45;&gt;Node4</title>
<path fill="none" stroke="midnightblue" d="M238.5,-205.179C238.5,-175.23 238.5,-145.288 238.5,-123.512"/>
<polygon fill="none" stroke="midnightblue" points="235,-205.324 238.5,-215.324 242,-205.324 235,-205.324"/>
</g>
<!-- Node5 -->
<g id="node6" class="node"><title>Node5</title>
<g id="a_node6"><a xlink:href="../../d2/d06/class_juniper_1_1_unity_1_1_haptics_1_1_windows_m_r_haptics.html" target="_top" xlink:title=" ">
<polygon fill="white" stroke="black" points="320,-0.5 320,-178.5 467,-178.5 467,-0.5 320,-0.5"/>
<text text-anchor="start" x="328" y="-166.5" font-family="SegoeUI" font-size="10.00">Juniper.Unity.Haptics.Windows</text>
<text text-anchor="middle" x="393.5" y="-155.5" font-family="SegoeUI" font-size="10.00">MRHaptics</text>
<polyline fill="none" stroke="black" points="320,-148.5 467,-148.5 "/>
<text text-anchor="start" x="328" y="-136.5" font-family="SegoeUI" font-size="10.00">+ ControllerID</text>
<text text-anchor="start" x="328" y="-125.5" font-family="SegoeUI" font-size="10.00">&#45; controller</text>
<text text-anchor="start" x="328" y="-114.5" font-family="SegoeUI" font-size="10.00">&#45; expressions</text>
<text text-anchor="start" x="328" y="-103.5" font-family="SegoeUI" font-size="10.00">&#45; buzz</text>
<text text-anchor="start" x="328" y="-92.5" font-family="SegoeUI" font-size="10.00">&#45; click</text>
<text text-anchor="start" x="328" y="-81.5" font-family="SegoeUI" font-size="10.00">&#45; press</text>
<text text-anchor="start" x="328" y="-70.5" font-family="SegoeUI" font-size="10.00">&#45; release</text>
<text text-anchor="start" x="328" y="-59.5" font-family="SegoeUI" font-size="10.00">&#45; _controllerID</text>
<polyline fill="none" stroke="black" points="320,-52.5 467,-52.5 "/>
<text text-anchor="start" x="328" y="-40.5" font-family="SegoeUI" font-size="10.00">+ Play()</text>
<text text-anchor="start" x="328" y="-29.5" font-family="SegoeUI" font-size="10.00">+ Cancel()</text>
<text text-anchor="start" x="328" y="-18.5" font-family="SegoeUI" font-size="10.00"># VibrateCoroutine()</text>
<text text-anchor="start" x="328" y="-7.5" font-family="SegoeUI" font-size="10.00">&#45; GetController()</text>
</a>
</g>
</g>
<!-- Node0&#45;&gt;Node5 -->
<g id="edge5" class="edge"><title>Node0&#45;&gt;Node5</title>
<path fill="none" stroke="midnightblue" d="M314.852,-206.95C321.296,-197.409 327.75,-187.852 334.037,-178.544"/>
<polygon fill="none" stroke="midnightblue" points="311.893,-205.078 309.196,-215.324 317.694,-208.996 311.893,-205.078"/>
</g>
<!-- Node1 -->
<g id="node2" class="node"><title>Node1</title>
<g id="a_node2"><a xlink:href="../../dd/d24/class_juniper_1_1_unity_1_1_haptics_1_1_abstract_haptic_device.html" target="_top" xlink:title="An interface for all haptic device subsystems.">
<polygon fill="white" stroke="black" points="185.5,-463.5 185.5,-597.5 291.5,-597.5 291.5,-463.5 185.5,-463.5"/>
<text text-anchor="middle" x="238.5" y="-585.5" font-family="SegoeUI" font-size="10.00">AbstractHapticDevice</text>
<polyline fill="none" stroke="black" points="185.5,-578.5 291.5,-578.5 "/>
<text text-anchor="middle" x="238.5" y="-566.5" font-family="SegoeUI" font-size="10.00"> </text>
<polyline fill="none" stroke="black" points="185.5,-559.5 291.5,-559.5 "/>
<text text-anchor="start" x="193.5" y="-547.5" font-family="SegoeUI" font-size="10.00">+ Cancel()</text>
<text text-anchor="start" x="193.5" y="-536.5" font-family="SegoeUI" font-size="10.00">+ Play()</text>
<text text-anchor="start" x="193.5" y="-525.5" font-family="SegoeUI" font-size="10.00">+ Vibrate()</text>
<text text-anchor="start" x="193.5" y="-514.5" font-family="SegoeUI" font-size="10.00">+ Play()</text>
<text text-anchor="start" x="193.5" y="-503.5" font-family="SegoeUI" font-size="10.00">+ Play()</text>
<text text-anchor="start" x="193.5" y="-492.5" font-family="SegoeUI" font-size="10.00">+ Play()</text>
<text text-anchor="start" x="193.5" y="-481.5" font-family="SegoeUI" font-size="10.00">+ Vibrate()</text>
<text text-anchor="start" x="193.5" y="-470.5" font-family="SegoeUI" font-size="10.00">+ Vibrate()</text>
</a>
</g>
</g>
<!-- Node1&#45;&gt;Node0 -->
<g id="edge1" class="edge"><title>Node1&#45;&gt;Node0</title>
<path fill="none" stroke="midnightblue" d="M238.5,-453.208C238.5,-444.51 238.5,-435.535 238.5,-426.551"/>
<polygon fill="none" stroke="midnightblue" points="235,-453.275 238.5,-463.275 242,-453.275 235,-453.275"/>
</g>
<!-- Node2 -->
<g id="node3" class="node"><title>Node2</title>
<g id="a_node3"><a xlink:title=" ">
<polygon fill="white" stroke="#bfbfbf" points="197.5,-634.5 197.5,-691.5 279.5,-691.5 279.5,-634.5 197.5,-634.5"/>
<text text-anchor="middle" x="238.5" y="-679.5" font-family="SegoeUI" font-size="10.00">MonoBehaviour</text>
<polyline fill="none" stroke="#bfbfbf" points="197.5,-672.5 279.5,-672.5 "/>
<text text-anchor="middle" x="238.5" y="-660.5" font-family="SegoeUI" font-size="10.00"> </text>
<polyline fill="none" stroke="#bfbfbf" points="197.5,-653.5 279.5,-653.5 "/>
<text text-anchor="middle" x="238.5" y="-641.5" font-family="SegoeUI" font-size="10.00"> </text>
</a>
</g>
</g>
<!-- Node2&#45;&gt;Node1 -->
<g id="edge2" class="edge"><title>Node2&#45;&gt;Node1</title>
<path fill="none" stroke="midnightblue" d="M238.5,-624.16C238.5,-615.782 238.5,-606.668 238.5,-597.533"/>
<polygon fill="none" stroke="midnightblue" points="235,-624.324 238.5,-634.324 242,-624.324 235,-624.324"/>
</g>
</g>
</svg>
        <g id="navigator" transform="translate(0 0)" fill="#404254">
                <rect fill="#f2f5e9" fill-opacity="0.5" stroke="#606060" stroke-width=".5" x="0" y="0" width="60" height="60"/>
                <use id="zoomplus" xlink:href="#zoomPlus" x="17" y="9" onmousedown="handleZoom(evt,'in')"/>
                <use id="zoomminus" xlink:href="#zoomMin" x="42" y="9" onmousedown="handleZoom(evt,'out')"/>
                <use id="reset" xlink:href="#resetDef" x="30" y="36" onmousedown="handleReset()"/>
                <g id="arrowUp" xlink:href="#dirArrow" transform="translate(30 24)" onmousedown="handlePan(0,-1)">
                  <use xlink:href="#rim" fill="#404040">
                        <set attributeName="fill" to="#808080" begin="arrowUp.mouseover" end="arrowUp.mouseout"/>
                  </use>
                  <path fill="none" stroke="white" stroke-width="1.5" d="M0,-3.0v7 M-2.5,-0.5L0,-3.0L2.5,-0.5"/>
                </g>
                <g id="arrowRight" xlink:href="#dirArrow" transform="rotate(90) translate(36 -43)" onmousedown="handlePan(1,0)">
                  <use xlink:href="#rim" fill="#404040">
                        <set attributeName="fill" to="#808080" begin="arrowRight.mouseover" end="arrowRight.mouseout"/>
                  </use>
                  <path fill="none" stroke="white" stroke-width="1.5" d="M0,-3.0v7 M-2.5,-0.5L0,-3.0L2.5,-0.5"/>
                </g>
                <g id="arrowDown" xlink:href="#dirArrow" transform="rotate(180) translate(-30 -48)" onmousedown="handlePan(0,1)">
                  <use xlink:href="#rim" fill="#404040">
                        <set attributeName="fill" to="#808080" begin="arrowDown.mouseover" end="arrowDown.mouseout"/>
                  </use>
                  <path fill="none" stroke="white" stroke-width="1.5" d="M0,-3.0v7 M-2.5,-0.5L0,-3.0L2.5,-0.5"/>
                </g>
                <g id="arrowLeft" xlink:href="#dirArrow" transform="rotate(270) translate(-36 17)" onmousedown="handlePan(-1,0)">
                  <use xlink:href="#rim" fill="#404040">
                        <set attributeName="fill" to="#808080" begin="arrowLeft.mouseover" end="arrowLeft.mouseout"/>
                  </use>
                  <path fill="none" stroke="white" stroke-width="1.5" d="M0,-3.0v7 M-2.5,-0.5L0,-3.0L2.5,-0.5"/>
                </g>
        </g>
        <svg viewBox="0 0 15 15" width="100%" height="30px" preserveAspectRatio="xMaxYMin meet">
         <g id="arrow_out" transform="scale(0.3 0.3)">
          <a xlink:href="class_juniper_1_1_unity_1_1_haptics_1_1_abstract_haptic_expressor__inherit__graph_org.svg" target="_base">
           <rect id="button" ry="5" rx="5" y="6" x="6" height="38" width="38"
                fill="#f2f5e9" fill-opacity="0.5" stroke="#606060" stroke-width="1.0"/>
           <path id="arrow"
             d="M 11.500037,31.436501 C 11.940474,20.09759 22.043105,11.32322 32.158766,21.979434 L 37.068811,17.246167 C 37.068811,17.246167 37.088388,32 37.088388,32 L 22.160133,31.978069 C 22.160133,31.978069 26.997745,27.140456 26.997745,27.140456 C 18.528582,18.264221 13.291696,25.230495 11.500037,31.436501 z"
             style="fill:#404040;"/>
          </a>
         </g>
        </svg>
</svg>
