<?xml version="1.0" encoding="UTF-8" standalone="no"?>
<!DOCTYPE svg PUBLIC "-//W3C//DTD SVG 1.1//EN"
 "http://www.w3.org/Graphics/SVG/1.1/DTD/svg11.dtd">
<!-- Generated by graphviz version 2.38.0 (20140413.2041)
 -->
<!-- Title: Hjg.Pngcs.Chunks.PngChunkHIST Pages: 1 -->
<svg width="217pt" height="756pt"
 viewBox="0.00 0.00 217.00 756.00" xmlns="http://www.w3.org/2000/svg" xmlns:xlink="http://www.w3.org/1999/xlink">
<g id="graph0" class="graph" transform="scale(1 1) rotate(0) translate(4 752)">
<title>Hjg.Pngcs.Chunks.PngChunkHIST</title>
<polygon fill="white" stroke="none" points="-4,4 -4,-752 213,-752 213,4 -4,4"/>
<!-- Node3 -->
<g id="node1" class="node"><title>Node3</title>
<g id="a_node1"><a xlink:title="hIST chunk, see http://www.w3.org/TR/PNG/#11hIST Only for palette images">
<polygon fill="#bfbfbf" stroke="black" points="0,-0.5 0,-134.5 158,-134.5 158,-0.5 0,-0.5"/>
<text text-anchor="middle" x="79" y="-122.5" font-family="SegoeUI" font-size="10.00">Hjg.Pngcs.Chunks.PngChunkHIST</text>
<polyline fill="none" stroke="black" points="0,-115.5 158,-115.5 "/>
<text text-anchor="start" x="8" y="-103.5" font-family="SegoeUI" font-size="10.00">&#45; hist</text>
<polyline fill="none" stroke="black" points="0,-96.5 158,-96.5 "/>
<text text-anchor="start" x="8" y="-84.5" font-family="SegoeUI" font-size="10.00">+ PngChunkHIST()</text>
<text text-anchor="start" x="8" y="-73.5" font-family="SegoeUI" font-size="10.00">+ GetOrderingConstraint()</text>
<text text-anchor="start" x="8" y="-62.5" font-family="SegoeUI" font-size="10.00">+ CreateRawChunk()</text>
<text text-anchor="start" x="8" y="-51.5" font-family="SegoeUI" font-size="10.00">+ ParseFromRaw()</text>
<text text-anchor="start" x="8" y="-40.5" font-family="SegoeUI" font-size="10.00">+ CloneDataFromRead()</text>
<text text-anchor="start" x="8" y="-29.5" font-family="SegoeUI" font-size="10.00">+ GetHist()</text>
<text text-anchor="start" x="8" y="-18.5" font-family="SegoeUI" font-size="10.00">+ SetHist()</text>
<text text-anchor="start" x="8" y="-7.5" font-family="SegoeUI" font-size="10.00">&#45; CloneData()</text>
</a>
</g>
</g>
<!-- Node4 -->
<g id="node2" class="node"><title>Node4</title>
<g id="a_node2"><a xlink:href="../../d2/dc1/class_hjg_1_1_pngcs_1_1_chunks_1_1_png_chunk_single.html" target="_top" xlink:title="A Chunk type that does not allow duplicate in an image">
<polygon fill="white" stroke="black" points="87,-172.5 87,-262.5 189,-262.5 189,-172.5 87,-172.5"/>
<text text-anchor="middle" x="138" y="-250.5" font-family="SegoeUI" font-size="10.00">PngChunkSingle</text>
<polyline fill="none" stroke="black" points="87,-243.5 189,-243.5 "/>
<text text-anchor="middle" x="138" y="-231.5" font-family="SegoeUI" font-size="10.00"> </text>
<polyline fill="none" stroke="black" points="87,-224.5 189,-224.5 "/>
<text text-anchor="start" x="95" y="-212.5" font-family="SegoeUI" font-size="10.00">+ AllowsMultiple()</text>
<text text-anchor="start" x="95" y="-201.5" font-family="SegoeUI" font-size="10.00">+ GetHashCode()</text>
<text text-anchor="start" x="95" y="-190.5" font-family="SegoeUI" font-size="10.00">+ Equals()</text>
<text text-anchor="start" x="95" y="-179.5" font-family="SegoeUI" font-size="10.00"># PngChunkSingle()</text>
</a>
</g>
</g>
<!-- Node4&#45;&gt;Node3 -->
<g id="edge1" class="edge"><title>Node4&#45;&gt;Node3</title>
<path fill="none" stroke="midnightblue" d="M116.691,-163.047C113.002,-153.792 109.126,-144.071 105.323,-134.53"/>
<polygon fill="none" stroke="midnightblue" points="113.503,-164.503 120.458,-172.496 120.006,-161.911 113.503,-164.503"/>
</g>
<!-- Node5 -->
<g id="node3" class="node"><title>Node5</title>
<g id="a_node3"><a xlink:href="../../d8/dd4/class_hjg_1_1_pngcs_1_1_chunks_1_1_abstract_png_chunk.html" target="_top" xlink:title="Represents a instance of a PNG chunk">
<polygon fill="white" stroke="black" points="81,-310.5 81,-642.5 209,-642.5 209,-310.5 81,-310.5"/>
<text text-anchor="middle" x="145" y="-630.5" font-family="SegoeUI" font-size="10.00">AbstractPngChunk</text>
<polyline fill="none" stroke="black" points="81,-623.5 209,-623.5 "/>
<text text-anchor="start" x="89" y="-611.5" font-family="SegoeUI" font-size="10.00">+ Id</text>
<text text-anchor="start" x="89" y="-600.5" font-family="SegoeUI" font-size="10.00">+ Crit</text>
<text text-anchor="start" x="89" y="-589.5" font-family="SegoeUI" font-size="10.00">+ Pub</text>
<text text-anchor="start" x="89" y="-578.5" font-family="SegoeUI" font-size="10.00">+ Safe</text>
<text text-anchor="start" x="89" y="-567.5" font-family="SegoeUI" font-size="10.00">+ ImgInfo</text>
<text text-anchor="start" x="89" y="-556.5" font-family="SegoeUI" font-size="10.00">+ Priority</text>
<text text-anchor="start" x="89" y="-545.5" font-family="SegoeUI" font-size="10.00">+ ChunkGroup</text>
<text text-anchor="start" x="89" y="-534.5" font-family="SegoeUI" font-size="10.00">+ Length</text>
<text text-anchor="start" x="89" y="-523.5" font-family="SegoeUI" font-size="10.00">+ Offset</text>
<polyline fill="none" stroke="black" points="81,-516.5 209,-516.5 "/>
<text text-anchor="start" x="89" y="-504.5" font-family="SegoeUI" font-size="10.00">+ CreateEmptyChunk()</text>
<text text-anchor="start" x="89" y="-493.5" font-family="SegoeUI" font-size="10.00">+ ToString()</text>
<text text-anchor="start" x="89" y="-482.5" font-family="SegoeUI" font-size="10.00">+ CreateRawChunk()</text>
<text text-anchor="start" x="89" y="-471.5" font-family="SegoeUI" font-size="10.00">+ ParseFromRaw()</text>
<text text-anchor="start" x="89" y="-460.5" font-family="SegoeUI" font-size="10.00">+ CloneDataFromRead()</text>
<text text-anchor="start" x="89" y="-449.5" font-family="SegoeUI" font-size="10.00">+ AllowsMultiple()</text>
<text text-anchor="start" x="89" y="-438.5" font-family="SegoeUI" font-size="10.00">+ GetOrderingConstraint()</text>
<text text-anchor="start" x="89" y="-427.5" font-family="SegoeUI" font-size="10.00">+ FactoryRegister()</text>
<text text-anchor="start" x="89" y="-416.5" font-family="SegoeUI" font-size="10.00">+ CloneChunk&lt; T &gt;()</text>
<text text-anchor="start" x="89" y="-405.5" font-family="SegoeUI" font-size="10.00"># AbstractPngChunk()</text>
<text text-anchor="start" x="89" y="-394.5" font-family="SegoeUI" font-size="10.00">&#45; MustGoBeforePLTE()</text>
<text text-anchor="start" x="89" y="-383.5" font-family="SegoeUI" font-size="10.00">&#45; MustGoBeforeIDAT()</text>
<text text-anchor="start" x="89" y="-372.5" font-family="SegoeUI" font-size="10.00">&#45; MustGoAfterPLTE()</text>
<text text-anchor="start" x="89" y="-361.5" font-family="SegoeUI" font-size="10.00">&#45; Write()</text>
<text text-anchor="start" x="89" y="-350.5" font-family="SegoeUI" font-size="10.00">&#45; InitFactory()</text>
<text text-anchor="start" x="89" y="-339.5" font-family="SegoeUI" font-size="10.00">&#45; IsKnown()</text>
<text text-anchor="start" x="89" y="-328.5" font-family="SegoeUI" font-size="10.00">&#45; Factory()</text>
<text text-anchor="start" x="89" y="-317.5" font-family="SegoeUI" font-size="10.00">&#45; FactoryFromId()</text>
</a>
</g>
</g>
<!-- Node5&#45;&gt;Node4 -->
<g id="edge2" class="edge"><title>Node5&#45;&gt;Node4</title>
<path fill="none" stroke="midnightblue" d="M140.224,-300.154C139.853,-286.548 139.505,-273.754 139.199,-262.51"/>
<polygon fill="none" stroke="midnightblue" points="136.726,-300.293 140.498,-310.194 143.724,-300.103 136.726,-300.293"/>
</g>
<!-- Node6 -->
<g id="node4" class="node"><title>Node6</title>
<g id="a_node4"><a xlink:title=" ">
<polygon fill="white" stroke="#bfbfbf" points="64.5,-690.5 64.5,-747.5 103.5,-747.5 103.5,-690.5 64.5,-690.5"/>
<text text-anchor="middle" x="84" y="-735.5" font-family="SegoeUI" font-size="10.00">static</text>
<polyline fill="none" stroke="#bfbfbf" points="64.5,-728.5 103.5,-728.5 "/>
<text text-anchor="middle" x="84" y="-716.5" font-family="SegoeUI" font-size="10.00"> </text>
<polyline fill="none" stroke="#bfbfbf" points="64.5,-709.5 103.5,-709.5 "/>
<text text-anchor="middle" x="84" y="-697.5" font-family="SegoeUI" font-size="10.00"> </text>
</a>
</g>
</g>
<!-- Node6&#45;&gt;Node3 -->
<g id="edge4" class="edge"><title>Node6&#45;&gt;Node3</title>
<path fill="none" stroke="#404040" d="M78.4999,-690.344C75.969,-676.239 73.2539,-658.774 72,-643 57.9243,-465.935 66.8179,-257.224 73.5364,-146.569"/>
<polygon fill="none" stroke="#404040" points="73.5392,-146.521 69.918,-140.285 74.2815,-134.544 77.9027,-140.78 73.5392,-146.521"/>
<text text-anchor="middle" x="76.5" y="-284" font-family="SegoeUI" font-size="10.00"> +ID</text>
</g>
<!-- Node6&#45;&gt;Node5 -->
<g id="edge3" class="edge"><title>Node6&#45;&gt;Node5</title>
<path fill="none" stroke="#404040" d="M90.9975,-690.412C93.5646,-680.29 96.6953,-667.947 100.143,-654.353"/>
<polygon fill="none" stroke="#404040" points="100.158,-654.294 97.7562,-647.494 103.109,-642.662 105.511,-649.461 100.158,-654.294"/>
<text text-anchor="middle" x="124.5" y="-664" font-family="SegoeUI" font-size="10.00"> &#45;factoryMap</text>
</g>
</g>
</svg>
