<?xml version="1.0" encoding="UTF-8" standalone="no"?>
<!DOCTYPE svg PUBLIC "-//W3C//DTD SVG 1.1//EN"
 "http://www.w3.org/Graphics/SVG/1.1/DTD/svg11.dtd">
<!-- Generated by graphviz version 2.38.0 (20140413.2041)
 -->
<!-- Title: Juniper.Speech.Azure.AbstractAzureRequest&lt; MediaTypeT &gt; Pages: 1 -->
<svg width="560pt" height="1532pt"
 viewBox="0.00 0.00 560.00 1532.00" xmlns="http://www.w3.org/2000/svg" xmlns:xlink="http://www.w3.org/1999/xlink">
<g id="graph0" class="graph" transform="scale(1 1) rotate(0) translate(4 1528)">
<title>Juniper.Speech.Azure.AbstractAzureRequest&lt; MediaTypeT &gt;</title>
<polygon fill="white" stroke="none" points="-4,4 -4,-1528 556,-1528 556,4 -4,4"/>
<!-- Node0 -->
<g id="node1" class="node"><title>Node0</title>
<g id="a_node1"><a xlink:title=" ">
<polygon fill="#bfbfbf" stroke="black" points="261,-624.5 261,-703.5 409,-703.5 409,-624.5 261,-624.5"/>
<text text-anchor="start" x="269" y="-691.5" font-family="SegoeUI" font-size="10.00">Juniper.Speech.Azure.Abstract</text>
<text text-anchor="middle" x="335" y="-680.5" font-family="SegoeUI" font-size="10.00">AzureRequest&lt; MediaTypeT &gt;</text>
<polyline fill="none" stroke="black" points="261,-673.5 409,-673.5 "/>
<text text-anchor="middle" x="335" y="-661.5" font-family="SegoeUI" font-size="10.00"> </text>
<polyline fill="none" stroke="black" points="261,-654.5 409,-654.5 "/>
<text text-anchor="start" x="269" y="-642.5" font-family="SegoeUI" font-size="10.00"># AbstractAzureRequest()</text>
<text text-anchor="start" x="269" y="-631.5" font-family="SegoeUI" font-size="10.00">&#45; MakeURI()</text>
</a>
</g>
</g>
<!-- Node5 -->
<g id="node6" class="node"><title>Node5</title>
<g id="a_node6"><a xlink:href="../../d4/dd9/class_juniper_1_1_speech_1_1_azure_1_1_cognitive_services_1_1_abstract_azure_speech_request.html" target="_top" xlink:title=" ">
<polygon fill="white" stroke="black" points="190.5,-486.5 190.5,-576.5 369.5,-576.5 369.5,-486.5 190.5,-486.5"/>
<text text-anchor="start" x="198.5" y="-564.5" font-family="SegoeUI" font-size="10.00">Juniper::Speech::Azure</text>
<text text-anchor="start" x="198.5" y="-553.5" font-family="SegoeUI" font-size="10.00">::CognitiveServices::Abstract</text>
<text text-anchor="middle" x="280" y="-542.5" font-family="SegoeUI" font-size="10.00">AzureSpeechRequest&lt; MediaTypeT &gt;</text>
<polyline fill="none" stroke="black" points="190.5,-535.5 369.5,-535.5 "/>
<text text-anchor="start" x="198.5" y="-523.5" font-family="SegoeUI" font-size="10.00">+ AuthToken</text>
<polyline fill="none" stroke="black" points="190.5,-516.5 369.5,-516.5 "/>
<text text-anchor="start" x="198.5" y="-504.5" font-family="SegoeUI" font-size="10.00"># AbstractAzureSpeechRequest()</text>
<text text-anchor="start" x="198.5" y="-493.5" font-family="SegoeUI" font-size="10.00"># ModifyRequest()</text>
</a>
</g>
</g>
<!-- Node0&#45;&gt;Node5 -->
<g id="edge5" class="edge"><title>Node0&#45;&gt;Node5</title>
<path fill="none" stroke="midnightblue" d="M314.725,-614.893C309.482,-602.454 303.862,-589.119 298.704,-576.879"/>
<polygon fill="none" stroke="midnightblue" points="311.538,-616.343 318.647,-624.199 317.989,-613.625 311.538,-616.343"/>
</g>
<!-- Node10 -->
<g id="node11" class="node"><title>Node10</title>
<g id="a_node11"><a xlink:href="../../d0/dd1/class_juniper_1_1_speech_1_1_azure_1_1_abstract_azure_request.html" target="_top" xlink:title=" ">
<polygon fill="white" stroke="black" points="388,-492 388,-571 552,-571 552,-492 388,-492"/>
<text text-anchor="start" x="396" y="-559" font-family="SegoeUI" font-size="10.00">Juniper.Speech.Azure.Abstract</text>
<text text-anchor="middle" x="470" y="-548" font-family="SegoeUI" font-size="10.00">AzureRequest&lt; MediaType.Text &gt;</text>
<polyline fill="none" stroke="black" points="388,-541 552,-541 "/>
<text text-anchor="middle" x="470" y="-529" font-family="SegoeUI" font-size="10.00"> </text>
<polyline fill="none" stroke="black" points="388,-522 552,-522 "/>
<text text-anchor="start" x="396" y="-510" font-family="SegoeUI" font-size="10.00"># AbstractAzureRequest()</text>
<text text-anchor="start" x="396" y="-499" font-family="SegoeUI" font-size="10.00">&#45; MakeURI()</text>
</a>
</g>
</g>
<!-- Node0&#45;&gt;Node10 -->
<g id="edge10" class="edge"><title>Node0&#45;&gt;Node10</title>
<path fill="none" stroke="orange" d="M382.573,-617.013C397.997,-602.103 414.947,-585.718 429.783,-571.377"/>
<polygon fill="orange" stroke="orange" points="379.896,-614.732 375.139,-624.199 384.761,-619.765 379.896,-614.732"/>
<text text-anchor="middle" x="448.5" y="-598" font-family="SegoeUI" font-size="10.00"> &lt; MediaType.Text &gt;</text>
</g>
<!-- Node1 -->
<g id="node2" class="node"><title>Node1</title>
<g id="a_node2"><a xlink:href="../../db/d68/class_juniper_1_1_h_t_t_p_1_1_r_e_s_t_1_1_abstract_request.html" target="_top" xlink:title=" ">
<polygon fill="white" stroke="black" points="256,-741.5 256,-1051.5 414,-1051.5 414,-741.5 256,-741.5"/>
<text text-anchor="middle" x="335" y="-1039.5" font-family="SegoeUI" font-size="10.00">AbstractRequest&lt; MediaTypeT &gt;</text>
<polyline fill="none" stroke="black" points="256,-1032.5 414,-1032.5 "/>
<text text-anchor="start" x="264" y="-1020.5" font-family="SegoeUI" font-size="10.00">+ ContentType</text>
<text text-anchor="start" x="264" y="-1009.5" font-family="SegoeUI" font-size="10.00">+ MediaType</text>
<text text-anchor="start" x="264" y="-998.5" font-family="SegoeUI" font-size="10.00">+ BaseURI</text>
<text text-anchor="start" x="264" y="-987.5" font-family="SegoeUI" font-size="10.00">+ StandardRequestCacheID</text>
<text text-anchor="start" x="264" y="-976.5" font-family="SegoeUI" font-size="10.00"># AuthenticatedURI</text>
<text text-anchor="start" x="264" y="-965.5" font-family="SegoeUI" font-size="10.00">&#45; method</text>
<text text-anchor="start" x="264" y="-954.5" font-family="SegoeUI" font-size="10.00">&#45; serviceURI</text>
<text text-anchor="start" x="264" y="-943.5" font-family="SegoeUI" font-size="10.00">&#45; hasRequestBody</text>
<text text-anchor="start" x="264" y="-932.5" font-family="SegoeUI" font-size="10.00">&#45; queryParams</text>
<polyline fill="none" stroke="black" points="256,-925.5 414,-925.5 "/>
<text text-anchor="start" x="264" y="-913.5" font-family="SegoeUI" font-size="10.00">+ Equals()</text>
<text text-anchor="start" x="264" y="-902.5" font-family="SegoeUI" font-size="10.00">+ GetStreamAsync()</text>
<text text-anchor="start" x="264" y="-891.5" font-family="SegoeUI" font-size="10.00">+ GetHashCode()</text>
<text text-anchor="start" x="264" y="-880.5" font-family="SegoeUI" font-size="10.00"># AbstractRequest()</text>
<text text-anchor="start" x="264" y="-869.5" font-family="SegoeUI" font-size="10.00"># SetQuery()</text>
<text text-anchor="start" x="264" y="-858.5" font-family="SegoeUI" font-size="10.00"># SetQuery&lt; U &gt;()</text>
<text text-anchor="start" x="264" y="-847.5" font-family="SegoeUI" font-size="10.00"># AddQuery()</text>
<text text-anchor="start" x="264" y="-836.5" font-family="SegoeUI" font-size="10.00"># AddQuery&lt; U &gt;()</text>
<text text-anchor="start" x="264" y="-825.5" font-family="SegoeUI" font-size="10.00"># RemoveQuery()</text>
<text text-anchor="start" x="264" y="-814.5" font-family="SegoeUI" font-size="10.00"># RemoveQuery()</text>
<text text-anchor="start" x="264" y="-803.5" font-family="SegoeUI" font-size="10.00"># RemoveQuery&lt; U &gt;()</text>
<text text-anchor="start" x="264" y="-792.5" font-family="SegoeUI" font-size="10.00"># ModifyRequest()</text>
<text text-anchor="start" x="264" y="-781.5" font-family="SegoeUI" font-size="10.00"># GetBodyInfo()</text>
<text text-anchor="start" x="264" y="-770.5" font-family="SegoeUI" font-size="10.00"># WriteBody()</text>
<text text-anchor="start" x="264" y="-759.5" font-family="SegoeUI" font-size="10.00"># AddPath()</text>
<text text-anchor="start" x="264" y="-748.5" font-family="SegoeUI" font-size="10.00">&#45; SetQuery()</text>
</a>
</g>
</g>
<!-- Node1&#45;&gt;Node0 -->
<g id="edge1" class="edge"><title>Node1&#45;&gt;Node0</title>
<path fill="none" stroke="midnightblue" d="M335,-731.356C335,-721.461 335,-712.157 335,-703.823"/>
<polygon fill="none" stroke="midnightblue" points="331.5,-731.433 335,-741.433 338.5,-731.433 331.5,-731.433"/>
</g>
<!-- Node2 -->
<g id="node3" class="node"><title>Node2</title>
<g id="a_node3"><a xlink:href="../../d4/d35/class_juniper_1_1_i_o_1_1_abstract_stream_source.html" target="_top" xlink:title=" ">
<polygon fill="white" stroke="black" points="269.5,-1089.5 269.5,-1190.5 400.5,-1190.5 400.5,-1089.5 269.5,-1089.5"/>
<text text-anchor="middle" x="335" y="-1178.5" font-family="SegoeUI" font-size="10.00">AbstractStreamSource</text>
<polyline fill="none" stroke="black" points="269.5,-1171.5 400.5,-1171.5 "/>
<text text-anchor="start" x="277.5" y="-1159.5" font-family="SegoeUI" font-size="10.00">+ CacheID</text>
<text text-anchor="start" x="277.5" y="-1148.5" font-family="SegoeUI" font-size="10.00">+ DoNotCache</text>
<text text-anchor="start" x="277.5" y="-1137.5" font-family="SegoeUI" font-size="10.00">+ InternalCacheID</text>
<polyline fill="none" stroke="black" points="269.5,-1130.5 400.5,-1130.5 "/>
<text text-anchor="start" x="277.5" y="-1118.5" font-family="SegoeUI" font-size="10.00">+ GetStreamAsync()</text>
<text text-anchor="start" x="277.5" y="-1107.5" font-family="SegoeUI" font-size="10.00"># AbstractStreamSource()</text>
<text text-anchor="start" x="277.5" y="-1096.5" font-family="SegoeUI" font-size="10.00"># AbstractStreamSource()</text>
</a>
</g>
</g>
<!-- Node2&#45;&gt;Node1 -->
<g id="edge2" class="edge"><title>Node2&#45;&gt;Node1</title>
<path fill="none" stroke="midnightblue" d="M335,-1079C335,-1070.35 335,-1061.14 335,-1051.63"/>
<polygon fill="none" stroke="midnightblue" points="331.5,-1079.25 335,-1089.25 338.5,-1079.25 331.5,-1079.25"/>
</g>
<!-- Node3 -->
<g id="node4" class="node"><title>Node3</title>
<g id="a_node4"><a xlink:href="../../de/db8/class_juniper_1_1_i_o_1_1_content_reference.html" target="_top" xlink:title=" ">
<polygon fill="white" stroke="black" points="280,-1228.5 280,-1428.5 390,-1428.5 390,-1228.5 280,-1228.5"/>
<text text-anchor="middle" x="335" y="-1416.5" font-family="SegoeUI" font-size="10.00">ContentReference</text>
<polyline fill="none" stroke="black" points="280,-1409.5 390,-1409.5 "/>
<text text-anchor="start" x="288" y="-1397.5" font-family="SegoeUI" font-size="10.00">+ CacheID</text>
<text text-anchor="start" x="288" y="-1386.5" font-family="SegoeUI" font-size="10.00">+ ContentType</text>
<text text-anchor="start" x="288" y="-1375.5" font-family="SegoeUI" font-size="10.00">+ DoNotCache</text>
<text text-anchor="start" x="288" y="-1364.5" font-family="SegoeUI" font-size="10.00">+ FileName</text>
<polyline fill="none" stroke="black" points="280,-1357.5 390,-1357.5 "/>
<text text-anchor="start" x="288" y="-1345.5" font-family="SegoeUI" font-size="10.00">+ ContentReference()</text>
<text text-anchor="start" x="288" y="-1334.5" font-family="SegoeUI" font-size="10.00">+ Equals()</text>
<text text-anchor="start" x="288" y="-1323.5" font-family="SegoeUI" font-size="10.00">+ Equals()</text>
<text text-anchor="start" x="288" y="-1312.5" font-family="SegoeUI" font-size="10.00">+ ToString()</text>
<text text-anchor="start" x="288" y="-1301.5" font-family="SegoeUI" font-size="10.00">+ GetHashCode()</text>
<text text-anchor="start" x="288" y="-1290.5" font-family="SegoeUI" font-size="10.00">+ operator==()</text>
<text text-anchor="start" x="288" y="-1279.5" font-family="SegoeUI" font-size="10.00">+ operator !=()</text>
<text text-anchor="start" x="288" y="-1268.5" font-family="SegoeUI" font-size="10.00">+ operator string()</text>
<text text-anchor="start" x="288" y="-1257.5" font-family="SegoeUI" font-size="10.00">+ operator+()</text>
<text text-anchor="start" x="288" y="-1246.5" font-family="SegoeUI" font-size="10.00">+ operator+()</text>
<text text-anchor="start" x="288" y="-1235.5" font-family="SegoeUI" font-size="10.00"># ContentReference()</text>
</a>
</g>
</g>
<!-- Node3&#45;&gt;Node2 -->
<g id="edge3" class="edge"><title>Node3&#45;&gt;Node2</title>
<path fill="none" stroke="midnightblue" d="M335,-1218.2C335,-1208.63 335,-1199.29 335,-1190.6"/>
<polygon fill="none" stroke="midnightblue" points="331.5,-1218.24 335,-1228.24 338.5,-1218.24 331.5,-1218.24"/>
</g>
<!-- Node4 -->
<g id="node5" class="node"><title>Node4</title>
<g id="a_node5"><a xlink:title=" ">
<polygon fill="white" stroke="#bfbfbf" points="256,-1466.5 256,-1523.5 414,-1523.5 414,-1466.5 256,-1466.5"/>
<text text-anchor="middle" x="335" y="-1511.5" font-family="SegoeUI" font-size="10.00">IEquatable&lt; ContentReference &gt;</text>
<polyline fill="none" stroke="#bfbfbf" points="256,-1504.5 414,-1504.5 "/>
<text text-anchor="middle" x="335" y="-1492.5" font-family="SegoeUI" font-size="10.00"> </text>
<polyline fill="none" stroke="#bfbfbf" points="256,-1485.5 414,-1485.5 "/>
<text text-anchor="middle" x="335" y="-1473.5" font-family="SegoeUI" font-size="10.00"> </text>
</a>
</g>
</g>
<!-- Node4&#45;&gt;Node3 -->
<g id="edge4" class="edge"><title>Node4&#45;&gt;Node3</title>
<path fill="none" stroke="midnightblue" d="M335,-1456.29C335,-1447.84 335,-1438.5 335,-1428.82"/>
<polygon fill="none" stroke="midnightblue" points="331.5,-1456.47 335,-1466.47 338.5,-1456.47 331.5,-1456.47"/>
</g>
<!-- Node6 -->
<g id="node7" class="node"><title>Node6</title>
<g id="a_node7"><a xlink:href="../../d4/dd9/class_juniper_1_1_speech_1_1_azure_1_1_cognitive_services_1_1_abstract_azure_speech_request.html" target="_top" xlink:title=" ">
<polygon fill="white" stroke="black" points="0,-343 0,-433 182,-433 182,-343 0,-343"/>
<text text-anchor="start" x="8" y="-421" font-family="SegoeUI" font-size="10.00">Juniper.Speech.Azure.Cognitive</text>
<text text-anchor="start" x="8" y="-410" font-family="SegoeUI" font-size="10.00">Services.AbstractAzureSpeechRequest</text>
<text text-anchor="middle" x="91" y="-399" font-family="SegoeUI" font-size="10.00">&lt; MediaType.Audio &gt;</text>
<polyline fill="none" stroke="black" points="0,-392 182,-392 "/>
<text text-anchor="start" x="8" y="-380" font-family="SegoeUI" font-size="10.00">+ AuthToken</text>
<polyline fill="none" stroke="black" points="0,-373 182,-373 "/>
<text text-anchor="start" x="8" y="-361" font-family="SegoeUI" font-size="10.00"># AbstractAzureSpeechRequest()</text>
<text text-anchor="start" x="8" y="-350" font-family="SegoeUI" font-size="10.00"># ModifyRequest()</text>
</a>
</g>
</g>
<!-- Node5&#45;&gt;Node6 -->
<g id="edge6" class="edge"><title>Node5&#45;&gt;Node6</title>
<path fill="none" stroke="orange" d="M202.608,-480.681C196.591,-476.475 190.659,-472.217 185,-468 170.471,-457.173 155.227,-444.826 141.344,-433.163"/>
<polygon fill="orange" stroke="orange" points="200.632,-483.57 210.849,-486.374 204.611,-477.811 200.632,-483.57"/>
<text text-anchor="middle" x="233.5" y="-460" font-family="SegoeUI" font-size="10.00"> &lt; MediaType.Audio &gt;</text>
</g>
<!-- Node8 -->
<g id="node9" class="node"><title>Node8</title>
<g id="a_node9"><a xlink:href="../../d4/dd9/class_juniper_1_1_speech_1_1_azure_1_1_cognitive_services_1_1_abstract_azure_speech_request.html" target="_top" xlink:title=" ">
<polygon fill="white" stroke="black" points="200,-343 200,-433 382,-433 382,-343 200,-343"/>
<text text-anchor="start" x="208" y="-421" font-family="SegoeUI" font-size="10.00">Juniper.Speech.Azure.Cognitive</text>
<text text-anchor="start" x="208" y="-410" font-family="SegoeUI" font-size="10.00">Services.AbstractAzureSpeechRequest</text>
<text text-anchor="middle" x="291" y="-399" font-family="SegoeUI" font-size="10.00">&lt; MediaType.Application &gt;</text>
<polyline fill="none" stroke="black" points="200,-392 382,-392 "/>
<text text-anchor="start" x="208" y="-380" font-family="SegoeUI" font-size="10.00">+ AuthToken</text>
<polyline fill="none" stroke="black" points="200,-373 382,-373 "/>
<text text-anchor="start" x="208" y="-361" font-family="SegoeUI" font-size="10.00"># AbstractAzureSpeechRequest()</text>
<text text-anchor="start" x="208" y="-350" font-family="SegoeUI" font-size="10.00"># ModifyRequest()</text>
</a>
</g>
</g>
<!-- Node5&#45;&gt;Node8 -->
<g id="edge8" class="edge"><title>Node5&#45;&gt;Node8</title>
<path fill="none" stroke="orange" d="M284.236,-476.007C285.337,-461.852 286.508,-446.78 287.562,-433.226"/>
<polygon fill="orange" stroke="orange" points="280.736,-475.876 283.45,-486.117 287.715,-476.418 280.736,-475.876"/>
<text text-anchor="middle" x="345.5" y="-460" font-family="SegoeUI" font-size="10.00"> &lt; MediaType.Application &gt;</text>
</g>
<!-- Node7 -->
<g id="node8" class="node"><title>Node7</title>
<g id="a_node8"><a xlink:href="../../d1/d18/class_juniper_1_1_speech_1_1_azure_1_1_cognitive_services_1_1_text_to_speech_request.html" target="_top" xlink:title=" ">
<polygon fill="white" stroke="black" points="15,-0.5 15,-299.5 167,-299.5 167,-0.5 15,-0.5"/>
<text text-anchor="start" x="23" y="-287.5" font-family="SegoeUI" font-size="10.00">Juniper.Speech.Azure.Cognitive</text>
<text text-anchor="middle" x="91" y="-276.5" font-family="SegoeUI" font-size="10.00">Services.TextToSpeechRequest</text>
<polyline fill="none" stroke="black" points="15,-269.5 167,-269.5 "/>
<text text-anchor="start" x="23" y="-257.5" font-family="SegoeUI" font-size="10.00">+ OutputFormat</text>
<text text-anchor="start" x="23" y="-246.5" font-family="SegoeUI" font-size="10.00">+ Text</text>
<text text-anchor="start" x="23" y="-235.5" font-family="SegoeUI" font-size="10.00">+ VoiceName</text>
<text text-anchor="start" x="23" y="-224.5" font-family="SegoeUI" font-size="10.00">+ Style</text>
<text text-anchor="start" x="23" y="-213.5" font-family="SegoeUI" font-size="10.00">+ PitchChange</text>
<text text-anchor="start" x="23" y="-202.5" font-family="SegoeUI" font-size="10.00">+ RateChange</text>
<text text-anchor="start" x="23" y="-191.5" font-family="SegoeUI" font-size="10.00">+ VolumeChange</text>
<text text-anchor="start" x="23" y="-180.5" font-family="SegoeUI" font-size="10.00">+ UseStyle</text>
<text text-anchor="start" x="23" y="-169.5" font-family="SegoeUI" font-size="10.00">+ UseProsody</text>
<text text-anchor="start" x="23" y="-158.5" font-family="SegoeUI" font-size="10.00">+ InternalCacheID</text>
<text text-anchor="start" x="23" y="-147.5" font-family="SegoeUI" font-size="10.00">&#45; STYLE_SUPPORTED_VOICE</text>
<text text-anchor="start" x="23" y="-136.5" font-family="SegoeUI" font-size="10.00">&#45; resourceName</text>
<text text-anchor="start" x="23" y="-125.5" font-family="SegoeUI" font-size="10.00">&#45; ssmlText</text>
<text text-anchor="start" x="23" y="-114.5" font-family="SegoeUI" font-size="10.00">&#45; ssmlTextLength</text>
<text text-anchor="start" x="23" y="-103.5" font-family="SegoeUI" font-size="10.00">&#45; StyleString</text>
<text text-anchor="start" x="23" y="-92.5" font-family="SegoeUI" font-size="10.00">&#45; HasPitchChange</text>
<text text-anchor="start" x="23" y="-81.5" font-family="SegoeUI" font-size="10.00">&#45; HasRateChange</text>
<text text-anchor="start" x="23" y="-70.5" font-family="SegoeUI" font-size="10.00">&#45; HasVolumeChange</text>
<polyline fill="none" stroke="black" points="15,-63.5 167,-63.5 "/>
<text text-anchor="start" x="23" y="-51.5" font-family="SegoeUI" font-size="10.00">+ TextToSpeechRequest???()</text>
<text text-anchor="start" x="23" y="-40.5" font-family="SegoeUI" font-size="10.00"># GetBodyInfo()</text>
<text text-anchor="start" x="23" y="-29.5" font-family="SegoeUI" font-size="10.00"># WriteBody()</text>
<text text-anchor="start" x="23" y="-18.5" font-family="SegoeUI" font-size="10.00"># ModifyRequest()</text>
<text text-anchor="start" x="23" y="-7.5" font-family="SegoeUI" font-size="10.00">&#45; AddPercentField()</text>
</a>
</g>
</g>
<!-- Node6&#45;&gt;Node7 -->
<g id="edge7" class="edge"><title>Node6&#45;&gt;Node7</title>
<path fill="none" stroke="midnightblue" d="M91,-332.614C91,-322.423 91,-311.329 91,-299.814"/>
<polygon fill="none" stroke="midnightblue" points="87.5001,-332.887 91,-342.887 94.5001,-332.887 87.5001,-332.887"/>
</g>
<!-- Node9 -->
<g id="node10" class="node"><title>Node9</title>
<g id="a_node10"><a xlink:href="../../df/d44/class_juniper_1_1_speech_1_1_azure_1_1_cognitive_services_1_1_voice_list_request.html" target="_top" xlink:title=" ">
<polygon fill="white" stroke="black" points="215,-116 215,-184 367,-184 367,-116 215,-116"/>
<text text-anchor="start" x="223" y="-172" font-family="SegoeUI" font-size="10.00">Juniper.Speech.Azure.Cognitive</text>
<text text-anchor="middle" x="291" y="-161" font-family="SegoeUI" font-size="10.00">Services.VoiceListRequest</text>
<polyline fill="none" stroke="black" points="215,-154 367,-154 "/>
<text text-anchor="start" x="223" y="-142" font-family="SegoeUI" font-size="10.00"># InternalCacheID</text>
<polyline fill="none" stroke="black" points="215,-135 367,-135 "/>
<text text-anchor="start" x="223" y="-123" font-family="SegoeUI" font-size="10.00">+ VoiceListRequest()</text>
</a>
</g>
</g>
<!-- Node8&#45;&gt;Node9 -->
<g id="edge9" class="edge"><title>Node8&#45;&gt;Node9</title>
<path fill="none" stroke="midnightblue" d="M291,-332.825C291,-287.005 291,-222.818 291,-184.236"/>
<polygon fill="none" stroke="midnightblue" points="287.5,-332.887 291,-342.887 294.5,-332.887 287.5,-332.887"/>
</g>
<!-- Node11 -->
<g id="node12" class="node"><title>Node11</title>
<g id="a_node12"><a xlink:href="../../d5/de2/class_juniper_1_1_speech_1_1_azure_1_1_auth_token_request.html" target="_top" xlink:title=" ">
<polygon fill="white" stroke="black" points="404,-337.5 404,-438.5 536,-438.5 536,-337.5 404,-337.5"/>
<text text-anchor="start" x="412" y="-426.5" font-family="SegoeUI" font-size="10.00">Juniper.Speech.Azure.Auth</text>
<text text-anchor="middle" x="470" y="-415.5" font-family="SegoeUI" font-size="10.00">TokenRequest</text>
<polyline fill="none" stroke="black" points="404,-408.5 536,-408.5 "/>
<text text-anchor="start" x="412" y="-396.5" font-family="SegoeUI" font-size="10.00"># InternalCacheID</text>
<text text-anchor="start" x="412" y="-385.5" font-family="SegoeUI" font-size="10.00">&#45; subscriptionKey</text>
<polyline fill="none" stroke="black" points="404,-378.5 536,-378.5 "/>
<text text-anchor="start" x="412" y="-366.5" font-family="SegoeUI" font-size="10.00">+ AuthTokenRequest()</text>
<text text-anchor="start" x="412" y="-355.5" font-family="SegoeUI" font-size="10.00"># ModifyRequest()</text>
<text text-anchor="start" x="412" y="-344.5" font-family="SegoeUI" font-size="10.00"># GetBodyInfo()</text>
</a>
</g>
</g>
<!-- Node10&#45;&gt;Node11 -->
<g id="edge11" class="edge"><title>Node10&#45;&gt;Node11</title>
<path fill="none" stroke="midnightblue" d="M470,-481.489C470,-467.592 470,-452.455 470,-438.527"/>
<polygon fill="none" stroke="midnightblue" points="466.5,-481.834 470,-491.835 473.5,-481.835 466.5,-481.834"/>
</g>
</g>
</svg>
