<?xml version="1.0" encoding="UTF-8" standalone="no"?>
<!DOCTYPE svg PUBLIC "-//W3C//DTD SVG 1.1//EN"
 "http://www.w3.org/Graphics/SVG/1.1/DTD/svg11.dtd">
<!-- Generated by graphviz version 2.38.0 (20140413.2041)
 -->
<!-- Title: Juniper.Unity.Haptics.AndroidAPI26Haptics Pages: 1 -->
<!--zoomable 772 -->
<svg id="main" version="1.1" xmlns="http://www.w3.org/2000/svg" xmlns:xlink="http://www.w3.org/1999/xlink" xml:space="preserve" onload="init(evt)">
<style type="text/css"><![CDATA[
.edge:hover path { stroke: red; }
.edge:hover polygon { stroke: red; fill: red; }
]]></style>
<script type="text/javascript"><![CDATA[
var edges = document.getElementsByTagName('g');
if (edges && edges.length) {
  for (var i=0;i<edges.length;i++) {
    if (edges[i].id.substr(0,4)=='edge') {
      edges[i].setAttribute('class','edge');
    }
  }
}
]]></script>
        <defs>
                <circle id="rim" cx="0" cy="0" r="7"/>
                <circle id="rim2" cx="0" cy="0" r="3.5"/>
                <g id="zoomPlus">
                        <use xlink:href="#rim" fill="#404040">
                                <set attributeName="fill" to="#808080" begin="zoomplus.mouseover" end="zoomplus.mouseout"/>
                        </use>
                        <path d="M-4,0h8M0,-4v8" fill="none" stroke="white" stroke-width="1.5" pointer-events="none"/>
                </g>
                <g id="zoomMin">
                        <use xlink:href="#rim" fill="#404040">
                                <set attributeName="fill" to="#808080" begin="zoomminus.mouseover" end="zoomminus.mouseout"/>
                        </use>
                        <path d="M-4,0h8" fill="none" stroke="white" stroke-width="1.5" pointer-events="none"/>
                </g>
                <g id="dirArrow">
                        <path fill="none" stroke="white" stroke-width="1.5" d="M0,-3.0v7 M-2.5,-0.5L0,-3.0L2.5,-0.5"/>
                </g>
               <g id="resetDef">
                       <use xlink:href="#rim2" fill="#404040">
                               <set attributeName="fill" to="#808080" begin="reset.mouseover" end="reset.mouseout"/>
                       </use>
               </g>
        </defs>

<script type="text/javascript">
var viewWidth = 149;
var viewHeight = 772;
var sectionId = 'dynsection-0';
</script>
<script xlink:href="../../svgpan.js"/>
<svg id="graph" class="graph">
<g id="viewport">
<title>Juniper.Unity.Haptics.AndroidAPI26Haptics</title>
<polygon fill="white" stroke="none" points="-4,4 -4,-768 145,-768 145,4 -4,4"/>
<!-- Node0 -->
<g id="node1" class="node"><title>Node0</title>
<g id="a_node1"><a xlink:title="Haptic system that implements the latest Android API version (26), which enables vibrations of differ...">
<polygon fill="#bfbfbf" stroke="black" points="0,-0.5 0,-134.5 141,-134.5 141,-0.5 0,-0.5"/>
<text text-anchor="start" x="8" y="-122.5" font-family="SegoeUI" font-size="10.00">Juniper.Unity.Haptics.Android</text>
<text text-anchor="middle" x="70.5" y="-111.5" font-family="SegoeUI" font-size="10.00">API26Haptics</text>
<polyline fill="none" stroke="black" points="0,-104.5 141,-104.5 "/>
<text text-anchor="start" x="8" y="-92.5" font-family="SegoeUI" font-size="10.00">&#45; VibrationEffect</text>
<text text-anchor="start" x="8" y="-81.5" font-family="SegoeUI" font-size="10.00">&#45; DefaultAmplitude</text>
<polyline fill="none" stroke="black" points="0,-74.5 141,-74.5 "/>
<text text-anchor="start" x="8" y="-62.5" font-family="SegoeUI" font-size="10.00"># Awake()</text>
<text text-anchor="start" x="8" y="-51.5" font-family="SegoeUI" font-size="10.00"># VibrateCoroutine()</text>
<text text-anchor="start" x="8" y="-40.5" font-family="SegoeUI" font-size="10.00"># VibrateCoroutine()</text>
<text text-anchor="start" x="8" y="-29.5" font-family="SegoeUI" font-size="10.00"># PlayCoroutine()</text>
<text text-anchor="start" x="8" y="-18.5" font-family="SegoeUI" font-size="10.00"># PlayCoroutine()</text>
<text text-anchor="start" x="8" y="-7.5" font-family="SegoeUI" font-size="10.00">&#45; CreateVibrationEffect()</text>
</a>
</g>
</g>
<!-- Node1 -->
<g id="node2" class="node"><title>Node1</title>
<g id="a_node2"><a xlink:href="../../d0/db8/class_juniper_1_1_unity_1_1_haptics_1_1_abstract_android_a_p_i_haptics.html" target="_top" xlink:title="Android has two APIs for haptic feedback, but they all pump through the Vibrator system service....">
<polygon fill="white" stroke="black" points="5.5,-171.5 5.5,-261.5 135.5,-261.5 135.5,-171.5 5.5,-171.5"/>
<text text-anchor="middle" x="70.5" y="-249.5" font-family="SegoeUI" font-size="10.00">AbstractAndroidAPIHaptics</text>
<polyline fill="none" stroke="black" points="5.5,-242.5 135.5,-242.5 "/>
<text text-anchor="start" x="13.5" y="-230.5" font-family="SegoeUI" font-size="10.00"># vibrator</text>
<polyline fill="none" stroke="black" points="5.5,-223.5 135.5,-223.5 "/>
<text text-anchor="start" x="13.5" y="-211.5" font-family="SegoeUI" font-size="10.00">+ Cancel()</text>
<text text-anchor="start" x="13.5" y="-200.5" font-family="SegoeUI" font-size="10.00"># Awake()</text>
<text text-anchor="start" x="13.5" y="-189.5" font-family="SegoeUI" font-size="10.00"># VibrateCoroutine()</text>
<text text-anchor="start" x="13.5" y="-178.5" font-family="SegoeUI" font-size="10.00"># PlayCoroutine()</text>
</a>
</g>
</g>
<!-- Node1&#45;&gt;Node0 -->
<g id="edge1" class="edge"><title>Node1&#45;&gt;Node0</title>
<path fill="none" stroke="midnightblue" d="M70.5,-161.375C70.5,-152.658 70.5,-143.55 70.5,-134.591"/>
<polygon fill="none" stroke="midnightblue" points="67.0001,-161.395 70.5,-171.395 74.0001,-161.395 67.0001,-161.395"/>
</g>
<!-- Node2 -->
<g id="node3" class="node"><title>Node2</title>
<g id="a_node3"><a xlink:href="../../de/d85/class_juniper_1_1_unity_1_1_haptics_1_1_abstract_haptic_expressor.html" target="_top" xlink:title="Non&#45;iOS systems do not have built&#45;in haptic patterns. This class replicates the functionality of the ...">
<polygon fill="white" stroke="black" points="10.5,-298.5 10.5,-498.5 130.5,-498.5 130.5,-298.5 10.5,-298.5"/>
<text text-anchor="middle" x="70.5" y="-486.5" font-family="SegoeUI" font-size="10.00">AbstractHapticExpressor</text>
<polyline fill="none" stroke="black" points="10.5,-479.5 130.5,-479.5 "/>
<text text-anchor="middle" x="70.5" y="-467.5" font-family="SegoeUI" font-size="10.00"> </text>
<polyline fill="none" stroke="black" points="10.5,-460.5 130.5,-460.5 "/>
<text text-anchor="start" x="18.5" y="-448.5" font-family="SegoeUI" font-size="10.00">+ Cancel()</text>
<text text-anchor="start" x="18.5" y="-437.5" font-family="SegoeUI" font-size="10.00">+ Play()</text>
<text text-anchor="start" x="18.5" y="-426.5" font-family="SegoeUI" font-size="10.00">+ Play()</text>
<text text-anchor="start" x="18.5" y="-415.5" font-family="SegoeUI" font-size="10.00">+ Vibrate()</text>
<text text-anchor="start" x="18.5" y="-404.5" font-family="SegoeUI" font-size="10.00">+ Vibrate()</text>
<text text-anchor="start" x="18.5" y="-393.5" font-family="SegoeUI" font-size="10.00">+ Play()</text>
<text text-anchor="start" x="18.5" y="-382.5" font-family="SegoeUI" font-size="10.00">+ Play()</text>
<text text-anchor="start" x="18.5" y="-371.5" font-family="SegoeUI" font-size="10.00">+ Vibrate()</text>
<text text-anchor="start" x="18.5" y="-360.5" font-family="SegoeUI" font-size="10.00"># VibrateCoroutine()</text>
<text text-anchor="start" x="18.5" y="-349.5" font-family="SegoeUI" font-size="10.00"># PlayCoroutine()</text>
<text text-anchor="start" x="18.5" y="-338.5" font-family="SegoeUI" font-size="10.00"># PlayCoroutine()</text>
<text text-anchor="start" x="18.5" y="-327.5" font-family="SegoeUI" font-size="10.00"># VibrateCoroutine()</text>
<text text-anchor="start" x="18.5" y="-316.5" font-family="SegoeUI" font-size="10.00">&#45; PlayCoroutine()</text>
<text text-anchor="start" x="18.5" y="-305.5" font-family="SegoeUI" font-size="10.00">&#45; VibrateCoroutine()</text>
</a>
</g>
</g>
<!-- Node2&#45;&gt;Node1 -->
<g id="edge2" class="edge"><title>Node2&#45;&gt;Node1</title>
<path fill="none" stroke="midnightblue" d="M70.5,-288.226C70.5,-279.039 70.5,-270.134 70.5,-261.917"/>
<polygon fill="none" stroke="midnightblue" points="67.0001,-288.286 70.5,-298.286 74.0001,-288.286 67.0001,-288.286"/>
</g>
<!-- Node3 -->
<g id="node4" class="node"><title>Node3</title>
<g id="a_node4"><a xlink:href="../../dd/d24/class_juniper_1_1_unity_1_1_haptics_1_1_abstract_haptic_device.html" target="_top" xlink:title="An interface for all haptic device subsystems.">
<polygon fill="white" stroke="black" points="17.5,-535.5 17.5,-669.5 123.5,-669.5 123.5,-535.5 17.5,-535.5"/>
<text text-anchor="middle" x="70.5" y="-657.5" font-family="SegoeUI" font-size="10.00">AbstractHapticDevice</text>
<polyline fill="none" stroke="black" points="17.5,-650.5 123.5,-650.5 "/>
<text text-anchor="middle" x="70.5" y="-638.5" font-family="SegoeUI" font-size="10.00"> </text>
<polyline fill="none" stroke="black" points="17.5,-631.5 123.5,-631.5 "/>
<text text-anchor="start" x="25.5" y="-619.5" font-family="SegoeUI" font-size="10.00">+ Cancel()</text>
<text text-anchor="start" x="25.5" y="-608.5" font-family="SegoeUI" font-size="10.00">+ Play()</text>
<text text-anchor="start" x="25.5" y="-597.5" font-family="SegoeUI" font-size="10.00">+ Vibrate()</text>
<text text-anchor="start" x="25.5" y="-586.5" font-family="SegoeUI" font-size="10.00">+ Play()</text>
<text text-anchor="start" x="25.5" y="-575.5" font-family="SegoeUI" font-size="10.00">+ Play()</text>
<text text-anchor="start" x="25.5" y="-564.5" font-family="SegoeUI" font-size="10.00">+ Play()</text>
<text text-anchor="start" x="25.5" y="-553.5" font-family="SegoeUI" font-size="10.00">+ Vibrate()</text>
<text text-anchor="start" x="25.5" y="-542.5" font-family="SegoeUI" font-size="10.00">+ Vibrate()</text>
</a>
</g>
</g>
<!-- Node3&#45;&gt;Node2 -->
<g id="edge3" class="edge"><title>Node3&#45;&gt;Node2</title>
<path fill="none" stroke="midnightblue" d="M70.5,-525.302C70.5,-516.62 70.5,-507.677 70.5,-498.752"/>
<polygon fill="none" stroke="midnightblue" points="67.0001,-525.358 70.5,-535.358 74.0001,-525.358 67.0001,-525.358"/>
</g>
<!-- Node4 -->
<g id="node5" class="node"><title>Node4</title>
<g id="a_node5"><a xlink:title=" ">
<polygon fill="white" stroke="#bfbfbf" points="29.5,-706.5 29.5,-763.5 111.5,-763.5 111.5,-706.5 29.5,-706.5"/>
<text text-anchor="middle" x="70.5" y="-751.5" font-family="SegoeUI" font-size="10.00">MonoBehaviour</text>
<polyline fill="none" stroke="#bfbfbf" points="29.5,-744.5 111.5,-744.5 "/>
<text text-anchor="middle" x="70.5" y="-732.5" font-family="SegoeUI" font-size="10.00"> </text>
<polyline fill="none" stroke="#bfbfbf" points="29.5,-725.5 111.5,-725.5 "/>
<text text-anchor="middle" x="70.5" y="-713.5" font-family="SegoeUI" font-size="10.00"> </text>
</a>
</g>
</g>
<!-- Node4&#45;&gt;Node3 -->
<g id="edge4" class="edge"><title>Node4&#45;&gt;Node3</title>
<path fill="none" stroke="midnightblue" d="M70.5,-696.16C70.5,-687.782 70.5,-678.668 70.5,-669.533"/>
<polygon fill="none" stroke="midnightblue" points="67.0001,-696.324 70.5,-706.324 74.0001,-696.324 67.0001,-696.324"/>
</g>
</g>
</svg>
        <g id="navigator" transform="translate(0 0)" fill="#404254">
                <rect fill="#f2f5e9" fill-opacity="0.5" stroke="#606060" stroke-width=".5" x="0" y="0" width="60" height="60"/>
                <use id="zoomplus" xlink:href="#zoomPlus" x="17" y="9" onmousedown="handleZoom(evt,'in')"/>
                <use id="zoomminus" xlink:href="#zoomMin" x="42" y="9" onmousedown="handleZoom(evt,'out')"/>
                <use id="reset" xlink:href="#resetDef" x="30" y="36" onmousedown="handleReset()"/>
                <g id="arrowUp" xlink:href="#dirArrow" transform="translate(30 24)" onmousedown="handlePan(0,-1)">
                  <use xlink:href="#rim" fill="#404040">
                        <set attributeName="fill" to="#808080" begin="arrowUp.mouseover" end="arrowUp.mouseout"/>
                  </use>
                  <path fill="none" stroke="white" stroke-width="1.5" d="M0,-3.0v7 M-2.5,-0.5L0,-3.0L2.5,-0.5"/>
                </g>
                <g id="arrowRight" xlink:href="#dirArrow" transform="rotate(90) translate(36 -43)" onmousedown="handlePan(1,0)">
                  <use xlink:href="#rim" fill="#404040">
                        <set attributeName="fill" to="#808080" begin="arrowRight.mouseover" end="arrowRight.mouseout"/>
                  </use>
                  <path fill="none" stroke="white" stroke-width="1.5" d="M0,-3.0v7 M-2.5,-0.5L0,-3.0L2.5,-0.5"/>
                </g>
                <g id="arrowDown" xlink:href="#dirArrow" transform="rotate(180) translate(-30 -48)" onmousedown="handlePan(0,1)">
                  <use xlink:href="#rim" fill="#404040">
                        <set attributeName="fill" to="#808080" begin="arrowDown.mouseover" end="arrowDown.mouseout"/>
                  </use>
                  <path fill="none" stroke="white" stroke-width="1.5" d="M0,-3.0v7 M-2.5,-0.5L0,-3.0L2.5,-0.5"/>
                </g>
                <g id="arrowLeft" xlink:href="#dirArrow" transform="rotate(270) translate(-36 17)" onmousedown="handlePan(-1,0)">
                  <use xlink:href="#rim" fill="#404040">
                        <set attributeName="fill" to="#808080" begin="arrowLeft.mouseover" end="arrowLeft.mouseout"/>
                  </use>
                  <path fill="none" stroke="white" stroke-width="1.5" d="M0,-3.0v7 M-2.5,-0.5L0,-3.0L2.5,-0.5"/>
                </g>
        </g>
        <svg viewBox="0 0 15 15" width="100%" height="30px" preserveAspectRatio="xMaxYMin meet">
         <g id="arrow_out" transform="scale(0.3 0.3)">
          <a xlink:href="class_juniper_1_1_unity_1_1_haptics_1_1_android_a_p_i26_haptics__inherit__graph_org.svg" target="_base">
           <rect id="button" ry="5" rx="5" y="6" x="6" height="38" width="38"
                fill="#f2f5e9" fill-opacity="0.5" stroke="#606060" stroke-width="1.0"/>
           <path id="arrow"
             d="M 11.500037,31.436501 C 11.940474,20.09759 22.043105,11.32322 32.158766,21.979434 L 37.068811,17.246167 C 37.068811,17.246167 37.088388,32 37.088388,32 L 22.160133,31.978069 C 22.160133,31.978069 26.997745,27.140456 26.997745,27.140456 C 18.528582,18.264221 13.291696,25.230495 11.500037,31.436501 z"
             style="fill:#404040;"/>
          </a>
         </g>
        </svg>
</svg>
