<?xml version="1.0" encoding="UTF-8" standalone="no"?>
<!DOCTYPE svg PUBLIC "-//W3C//DTD SVG 1.1//EN"
 "http://www.w3.org/Graphics/SVG/1.1/DTD/svg11.dtd">
<!-- Generated by graphviz version 2.38.0 (20140413.2041)
 -->
<!-- Title: Juniper.UnityEditor.Events.ButtonEventEditor Pages: 1 -->
<svg width="138pt" height="259pt"
 viewBox="0.00 0.00 138.00 259.00" xmlns="http://www.w3.org/2000/svg" xmlns:xlink="http://www.w3.org/1999/xlink">
<g id="graph0" class="graph" transform="scale(1 1) rotate(0) translate(4 255)">
<title>Juniper.UnityEditor.Events.ButtonEventEditor</title>
<polygon fill="white" stroke="none" points="-4,4 -4,-255 134,-255 134,4 -4,4"/>
<!-- Node0 -->
<g id="node1" class="node"><title>Node0</title>
<g id="a_node1"><a xlink:title=" ">
<polygon fill="#bfbfbf" stroke="black" points="0,-0.5 0,-156.5 130,-156.5 130,-0.5 0,-0.5"/>
<text text-anchor="start" x="8" y="-144.5" font-family="SegoeUI" font-size="10.00">Juniper.UnityEditor.Events.</text>
<text text-anchor="middle" x="65" y="-133.5" font-family="SegoeUI" font-size="10.00">ButtonEventEditor</text>
<polyline fill="none" stroke="black" points="0,-126.5 130,-126.5 "/>
<text text-anchor="start" x="8" y="-114.5" font-family="SegoeUI" font-size="10.00">&#45; FIELD_ONCLICK</text>
<text text-anchor="start" x="8" y="-103.5" font-family="SegoeUI" font-size="10.00">&#45; FIELD_ONDOUBLECLICK</text>
<text text-anchor="start" x="8" y="-92.5" font-family="SegoeUI" font-size="10.00">&#45; FIELD_ONLONGPRESS</text>
<text text-anchor="start" x="8" y="-81.5" font-family="SegoeUI" font-size="10.00">&#45; FIELD_ONDOWN</text>
<text text-anchor="start" x="8" y="-70.5" font-family="SegoeUI" font-size="10.00">&#45; FIELD_ONUP</text>
<text text-anchor="start" x="8" y="-59.5" font-family="SegoeUI" font-size="10.00">&#45; _</text>
<text text-anchor="start" x="8" y="-48.5" font-family="SegoeUI" font-size="10.00">&#45; ButtonTypeLabel</text>
<text text-anchor="start" x="8" y="-37.5" font-family="SegoeUI" font-size="10.00">&#45; ButtonValueLabel</text>
<text text-anchor="start" x="8" y="-26.5" font-family="SegoeUI" font-size="10.00">&#45; InputButtonLabel</text>
<polyline fill="none" stroke="black" points="0,-19.5 130,-19.5 "/>
<text text-anchor="start" x="8" y="-7.5" font-family="SegoeUI" font-size="10.00">+ OnInspectorGUI()</text>
</a>
</g>
</g>
<!-- Node1 -->
<g id="node2" class="node"><title>Node1</title>
<g id="a_node2"><a xlink:title=" ">
<polygon fill="white" stroke="#bfbfbf" points="44.5,-193.5 44.5,-250.5 85.5,-250.5 85.5,-193.5 44.5,-193.5"/>
<text text-anchor="middle" x="65" y="-238.5" font-family="SegoeUI" font-size="10.00">Editor</text>
<polyline fill="none" stroke="#bfbfbf" points="44.5,-231.5 85.5,-231.5 "/>
<text text-anchor="middle" x="65" y="-219.5" font-family="SegoeUI" font-size="10.00"> </text>
<polyline fill="none" stroke="#bfbfbf" points="44.5,-212.5 85.5,-212.5 "/>
<text text-anchor="middle" x="65" y="-200.5" font-family="SegoeUI" font-size="10.00"> </text>
</a>
</g>
</g>
<!-- Node1&#45;&gt;Node0 -->
<g id="edge1" class="edge"><title>Node1&#45;&gt;Node0</title>
<path fill="none" stroke="midnightblue" d="M65,-183.34C65,-175.044 65,-165.964 65,-156.736"/>
<polygon fill="none" stroke="midnightblue" points="61.5001,-183.381 65,-193.381 68.5001,-183.382 61.5001,-183.381"/>
</g>
</g>
</svg>
