<?xml version="1.0" encoding="UTF-8" standalone="no"?>
<!DOCTYPE svg PUBLIC "-//W3C//DTD SVG 1.1//EN"
 "http://www.w3.org/Graphics/SVG/1.1/DTD/svg11.dtd">
<!-- Generated by graphviz version 2.38.0 (20140413.2041)
 -->
<!-- Title: Juniper.Unity.Editor.JuniperEditorWindow Pages: 1 -->
<svg width="197pt" height="534pt"
 viewBox="0.00 0.00 196.50 534.00" xmlns="http://www.w3.org/2000/svg" xmlns:xlink="http://www.w3.org/1999/xlink">
<g id="graph0" class="graph" transform="scale(1 1) rotate(0) translate(4 530)">
<title>Juniper.Unity.Editor.JuniperEditorWindow</title>
<polygon fill="white" stroke="none" points="-4,4 -4,-530 192.5,-530 192.5,4 -4,4"/>
<!-- Node2 -->
<g id="node1" class="node"><title>Node2</title>
<g id="a_node1"><a xlink:title=" ">
<polygon fill="#bfbfbf" stroke="black" points="0,-0.5 0,-365.5 155,-365.5 155,-0.5 0,-0.5"/>
<text text-anchor="start" x="8" y="-353.5" font-family="SegoeUI" font-size="10.00">Juniper.Unity.Editor.Juniper</text>
<text text-anchor="middle" x="77.5" y="-342.5" font-family="SegoeUI" font-size="10.00">EditorWindow</text>
<polyline fill="none" stroke="black" points="0,-335.5 155,-335.5 "/>
<text text-anchor="start" x="8" y="-323.5" font-family="SegoeUI" font-size="10.00">+ CurrentError</text>
<text text-anchor="start" x="8" y="-312.5" font-family="SegoeUI" font-size="10.00">&#45; windowTitle</text>
<text text-anchor="start" x="8" y="-301.5" font-family="SegoeUI" font-size="10.00">&#45; mainThread</text>
<text text-anchor="start" x="8" y="-290.5" font-family="SegoeUI" font-size="10.00">&#45; startWatcher</text>
<text text-anchor="start" x="8" y="-279.5" font-family="SegoeUI" font-size="10.00">&#45; tokenSource</text>
<text text-anchor="start" x="8" y="-268.5" font-family="SegoeUI" font-size="10.00">&#45; cancelToken</text>
<text text-anchor="start" x="8" y="-257.5" font-family="SegoeUI" font-size="10.00">&#45; watcherTask</text>
<text text-anchor="start" x="8" y="-246.5" font-family="SegoeUI" font-size="10.00">&#45; curError</text>
<polyline fill="none" stroke="black" points="0,-239.5 155,-239.5 "/>
<text text-anchor="start" x="8" y="-227.5" font-family="SegoeUI" font-size="10.00"># RepaintAsync()</text>
<text text-anchor="start" x="8" y="-216.5" font-family="SegoeUI" font-size="10.00"># JuniperEditorWindow()</text>
<text text-anchor="start" x="8" y="-205.5" font-family="SegoeUI" font-size="10.00"># OnEditorUpdate()</text>
<text text-anchor="start" x="8" y="-194.5" font-family="SegoeUI" font-size="10.00"># OnBackgroundUpdate()</text>
<text text-anchor="start" x="8" y="-183.5" font-family="SegoeUI" font-size="10.00"># OnSelectionChanged()</text>
<text text-anchor="start" x="8" y="-172.5" font-family="SegoeUI" font-size="10.00"># OnPaint()</text>
<text text-anchor="start" x="8" y="-161.5" font-family="SegoeUI" font-size="10.00"># OnReset()</text>
<text text-anchor="start" x="8" y="-150.5" font-family="SegoeUI" font-size="10.00"># Button()</text>
<text text-anchor="start" x="8" y="-139.5" font-family="SegoeUI" font-size="10.00"># Button()</text>
<text text-anchor="start" x="8" y="-128.5" font-family="SegoeUI" font-size="10.00"># Button()</text>
<text text-anchor="start" x="8" y="-117.5" font-family="SegoeUI" font-size="10.00">&#45; OnEditorUpdateInternal()</text>
<text text-anchor="start" x="8" y="-106.5" font-family="SegoeUI" font-size="10.00">&#45; OnBackgroundUpdateInternal()</text>
<text text-anchor="start" x="8" y="-95.5" font-family="SegoeUI" font-size="10.00">&#45; OnSelectionChangedInternal()</text>
<text text-anchor="start" x="8" y="-84.5" font-family="SegoeUI" font-size="10.00">&#45; OnPaintInternal()</text>
<text text-anchor="start" x="8" y="-73.5" font-family="SegoeUI" font-size="10.00">&#45; OnResetInternal()</text>
<text text-anchor="start" x="8" y="-62.5" font-family="SegoeUI" font-size="10.00">&#45; OnGUI()</text>
<text text-anchor="start" x="8" y="-51.5" font-family="SegoeUI" font-size="10.00">&#45; Init()</text>
<text text-anchor="start" x="8" y="-40.5" font-family="SegoeUI" font-size="10.00">&#45; ClearError()</text>
<text text-anchor="start" x="8" y="-29.5" font-family="SegoeUI" font-size="10.00">&#45; StartWatcher()</text>
<text text-anchor="start" x="8" y="-18.5" font-family="SegoeUI" font-size="10.00">&#45; StopWatcher()</text>
<text text-anchor="start" x="8" y="-7.5" font-family="SegoeUI" font-size="10.00">&#45; BackgroundThread()</text>
</a>
</g>
</g>
<!-- Node3 -->
<g id="node2" class="node"><title>Node3</title>
<g id="a_node2"><a xlink:title=" ">
<polygon fill="white" stroke="#bfbfbf" points="1.5,-468.5 1.5,-525.5 77.5,-525.5 77.5,-468.5 1.5,-468.5"/>
<text text-anchor="middle" x="39.5" y="-513.5" font-family="SegoeUI" font-size="10.00">EditorWindow</text>
<polyline fill="none" stroke="#bfbfbf" points="1.5,-506.5 77.5,-506.5 "/>
<text text-anchor="middle" x="39.5" y="-494.5" font-family="SegoeUI" font-size="10.00"> </text>
<polyline fill="none" stroke="#bfbfbf" points="1.5,-487.5 77.5,-487.5 "/>
<text text-anchor="middle" x="39.5" y="-475.5" font-family="SegoeUI" font-size="10.00"> </text>
</a>
</g>
</g>
<!-- Node3&#45;&gt;Node2 -->
<g id="edge1" class="edge"><title>Node3&#45;&gt;Node2</title>
<path fill="none" stroke="midnightblue" d="M44.1033,-458.204C47.0479,-434.028 51.1073,-400.698 55.3832,-365.59"/>
<polygon fill="none" stroke="midnightblue" points="40.607,-457.962 42.8722,-468.312 47.5557,-458.809 40.607,-457.962"/>
</g>
<!-- Node4 -->
<g id="node3" class="node"><title>Node4</title>
<g id="a_node3"><a xlink:title=" ">
<polygon fill="white" stroke="#bfbfbf" points="96,-468.5 96,-525.5 135,-525.5 135,-468.5 96,-468.5"/>
<text text-anchor="middle" x="115.5" y="-513.5" font-family="SegoeUI" font-size="10.00">static</text>
<polyline fill="none" stroke="#bfbfbf" points="96,-506.5 135,-506.5 "/>
<text text-anchor="middle" x="115.5" y="-494.5" font-family="SegoeUI" font-size="10.00"> </text>
<polyline fill="none" stroke="#bfbfbf" points="96,-487.5 135,-487.5 "/>
<text text-anchor="middle" x="115.5" y="-475.5" font-family="SegoeUI" font-size="10.00"> </text>
</a>
</g>
</g>
<!-- Node4&#45;&gt;Node2 -->
<g id="edge2" class="edge"><title>Node4&#45;&gt;Node2</title>
<path fill="none" stroke="#404040" d="M112.128,-468.312C109.451,-446.338 105.448,-413.465 101.102,-377.786"/>
<polygon fill="none" stroke="#404040" points="101.068,-377.502 96.3716,-372.03 99.6168,-365.59 104.313,-371.063 101.068,-377.502"/>
<text text-anchor="middle" x="149" y="-442" font-family="SegoeUI" font-size="10.00"> #shortLabelWidth</text>
<text text-anchor="middle" x="149" y="-431" font-family="SegoeUI" font-size="10.00">#availFieldWidth</text>
<text text-anchor="middle" x="149" y="-420" font-family="SegoeUI" font-size="10.00">#latLngFieldWidth</text>
<text text-anchor="middle" x="149" y="-409" font-family="SegoeUI" font-size="10.00">#panoFieldWidth</text>
<text text-anchor="middle" x="149" y="-398" font-family="SegoeUI" font-size="10.00">#distFieldWidth</text>
<text text-anchor="middle" x="149" y="-387" font-family="SegoeUI" font-size="10.00">&#45;errorView</text>
</g>
</g>
</svg>
