<?xml version="1.0" encoding="UTF-8" standalone="no"?>
<!DOCTYPE svg PUBLIC "-//W3C//DTD SVG 1.1//EN"
 "http://www.w3.org/Graphics/SVG/1.1/DTD/svg11.dtd">
<!-- Generated by graphviz version 2.38.0 (20140413.2041)
 -->
<!-- Title: Juniper.World.GIS.Google.Places.PlaceSearchRequest Pages: 1 -->
<!--zoomable 1328 -->
<svg id="main" version="1.1" xmlns="http://www.w3.org/2000/svg" xmlns:xlink="http://www.w3.org/1999/xlink" xml:space="preserve" onload="init(evt)">
<style type="text/css"><![CDATA[
.edge:hover path { stroke: red; }
.edge:hover polygon { stroke: red; fill: red; }
]]></style>
<script type="text/javascript"><![CDATA[
var edges = document.getElementsByTagName('g');
if (edges && edges.length) {
  for (var i=0;i<edges.length;i++) {
    if (edges[i].id.substr(0,4)=='edge') {
      edges[i].setAttribute('class','edge');
    }
  }
}
]]></script>
        <defs>
                <circle id="rim" cx="0" cy="0" r="7"/>
                <circle id="rim2" cx="0" cy="0" r="3.5"/>
                <g id="zoomPlus">
                        <use xlink:href="#rim" fill="#404040">
                                <set attributeName="fill" to="#808080" begin="zoomplus.mouseover" end="zoomplus.mouseout"/>
                        </use>
                        <path d="M-4,0h8M0,-4v8" fill="none" stroke="white" stroke-width="1.5" pointer-events="none"/>
                </g>
                <g id="zoomMin">
                        <use xlink:href="#rim" fill="#404040">
                                <set attributeName="fill" to="#808080" begin="zoomminus.mouseover" end="zoomminus.mouseout"/>
                        </use>
                        <path d="M-4,0h8" fill="none" stroke="white" stroke-width="1.5" pointer-events="none"/>
                </g>
                <g id="dirArrow">
                        <path fill="none" stroke="white" stroke-width="1.5" d="M0,-3.0v7 M-2.5,-0.5L0,-3.0L2.5,-0.5"/>
                </g>
               <g id="resetDef">
                       <use xlink:href="#rim2" fill="#404040">
                               <set attributeName="fill" to="#808080" begin="reset.mouseover" end="reset.mouseout"/>
                       </use>
               </g>
        </defs>

<script type="text/javascript">
var viewWidth = 318;
var viewHeight = 1328;
var sectionId = 'dynsection-0';
</script>
<script xlink:href="../../svgpan.js"/>
<svg id="graph" class="graph">
<g id="viewport">
<title>Juniper.World.GIS.Google.Places.PlaceSearchRequest</title>
<polygon fill="white" stroke="none" points="-4,4 -4,-1324 314,-1324 314,4 -4,4"/>
<!-- Node0 -->
<g id="node1" class="node"><title>Node0</title>
<g id="a_node1"><a xlink:title=" ">
<polygon fill="#bfbfbf" stroke="black" points="124,-0.5 124,-178.5 258,-178.5 258,-0.5 124,-0.5"/>
<text text-anchor="start" x="132" y="-166.5" font-family="SegoeUI" font-size="10.00">Juniper.World.GIS.Google.</text>
<text text-anchor="middle" x="191" y="-155.5" font-family="SegoeUI" font-size="10.00">Places.PlaceSearchRequest</text>
<polyline fill="none" stroke="black" points="124,-148.5 258,-148.5 "/>
<text text-anchor="start" x="132" y="-136.5" font-family="SegoeUI" font-size="10.00">+ PhoneNumber</text>
<text text-anchor="start" x="132" y="-125.5" font-family="SegoeUI" font-size="10.00">+ TextQuery</text>
<text text-anchor="start" x="132" y="-114.5" font-family="SegoeUI" font-size="10.00">+ BaseURI</text>
<text text-anchor="start" x="132" y="-103.5" font-family="SegoeUI" font-size="10.00">+ Language</text>
<text text-anchor="start" x="132" y="-92.5" font-family="SegoeUI" font-size="10.00">&#45; input</text>
<text text-anchor="start" x="132" y="-81.5" font-family="SegoeUI" font-size="10.00">&#45; inputtype</text>
<text text-anchor="start" x="132" y="-70.5" font-family="SegoeUI" font-size="10.00">&#45; language</text>
<text text-anchor="start" x="132" y="-59.5" font-family="SegoeUI" font-size="10.00">&#45; fields</text>
<polyline fill="none" stroke="black" points="124,-52.5 258,-52.5 "/>
<text text-anchor="start" x="132" y="-40.5" font-family="SegoeUI" font-size="10.00">+ PlaceSearchRequest()</text>
<text text-anchor="start" x="132" y="-29.5" font-family="SegoeUI" font-size="10.00">+ ClearFields()</text>
<text text-anchor="start" x="132" y="-18.5" font-family="SegoeUI" font-size="10.00">+ AddField()</text>
<text text-anchor="start" x="132" y="-7.5" font-family="SegoeUI" font-size="10.00">&#45; SetInput()</text>
</a>
</g>
</g>
<!-- Node1 -->
<g id="node2" class="node"><title>Node1</title>
<g id="a_node2"><a xlink:href="../../d3/d6c/class_juniper_1_1_world_1_1_g_i_s_1_1_google_1_1_abstract_google_maps_request.html" target="_top" xlink:title=" ">
<polygon fill="white" stroke="black" points="113.5,-216.5 113.5,-328.5 268.5,-328.5 268.5,-216.5 113.5,-216.5"/>
<text text-anchor="start" x="121.5" y="-316.5" font-family="SegoeUI" font-size="10.00">AbstractGoogleMapsRequest</text>
<text text-anchor="middle" x="191" y="-305.5" font-family="SegoeUI" font-size="10.00">&lt; MediaType.Application &gt;</text>
<polyline fill="none" stroke="black" points="113.5,-298.5 268.5,-298.5 "/>
<text text-anchor="start" x="121.5" y="-286.5" font-family="SegoeUI" font-size="10.00">+ AuthenticatedURI</text>
<text text-anchor="start" x="121.5" y="-275.5" font-family="SegoeUI" font-size="10.00"># InternalCacheID</text>
<text text-anchor="start" x="121.5" y="-264.5" font-family="SegoeUI" font-size="10.00">&#45; apiKey</text>
<text text-anchor="start" x="121.5" y="-253.5" font-family="SegoeUI" font-size="10.00">&#45; signingKey</text>
<text text-anchor="start" x="121.5" y="-242.5" font-family="SegoeUI" font-size="10.00">&#45; gmaps</text>
<polyline fill="none" stroke="black" points="113.5,-235.5 268.5,-235.5 "/>
<text text-anchor="start" x="121.5" y="-223.5" font-family="SegoeUI" font-size="10.00"># AbstractGoogleMapsRequest()</text>
</a>
</g>
</g>
<!-- Node1&#45;&gt;Node0 -->
<g id="edge1" class="edge"><title>Node1&#45;&gt;Node0</title>
<path fill="none" stroke="midnightblue" d="M191,-206.007C191,-197.16 191,-187.967 191,-178.805"/>
<polygon fill="none" stroke="midnightblue" points="187.5,-206.211 191,-216.211 194.5,-206.211 187.5,-206.211"/>
</g>
<!-- Node2 -->
<g id="node3" class="node"><title>Node2</title>
<g id="a_node3"><a xlink:href="../../d3/d6c/class_juniper_1_1_world_1_1_g_i_s_1_1_google_1_1_abstract_google_maps_request.html" target="_top" xlink:title=" ">
<polygon fill="white" stroke="black" points="113.5,-376.5 113.5,-499.5 268.5,-499.5 268.5,-376.5 113.5,-376.5"/>
<text text-anchor="start" x="121.5" y="-487.5" font-family="SegoeUI" font-size="10.00">Juniper.World.GIS.Google.</text>
<text text-anchor="start" x="121.5" y="-476.5" font-family="SegoeUI" font-size="10.00">AbstractGoogleMapsRequest</text>
<text text-anchor="middle" x="191" y="-465.5" font-family="SegoeUI" font-size="10.00">&lt; MediaTypeT &gt;</text>
<polyline fill="none" stroke="black" points="113.5,-458.5 268.5,-458.5 "/>
<text text-anchor="start" x="121.5" y="-446.5" font-family="SegoeUI" font-size="10.00">+ AuthenticatedURI</text>
<text text-anchor="start" x="121.5" y="-435.5" font-family="SegoeUI" font-size="10.00"># InternalCacheID</text>
<text text-anchor="start" x="121.5" y="-424.5" font-family="SegoeUI" font-size="10.00">&#45; apiKey</text>
<text text-anchor="start" x="121.5" y="-413.5" font-family="SegoeUI" font-size="10.00">&#45; signingKey</text>
<text text-anchor="start" x="121.5" y="-402.5" font-family="SegoeUI" font-size="10.00">&#45; gmaps</text>
<polyline fill="none" stroke="black" points="113.5,-395.5 268.5,-395.5 "/>
<text text-anchor="start" x="121.5" y="-383.5" font-family="SegoeUI" font-size="10.00"># AbstractGoogleMapsRequest()</text>
</a>
</g>
</g>
<!-- Node2&#45;&gt;Node1 -->
<g id="edge2" class="edge"><title>Node2&#45;&gt;Node1</title>
<path fill="none" stroke="orange" d="M191,-365.801C191,-353.396 191,-340.661 191,-328.765"/>
<polygon fill="orange" stroke="orange" points="187.5,-366.119 191,-376.119 194.5,-366.119 187.5,-366.119"/>
<text text-anchor="middle" x="250.5" y="-350" font-family="SegoeUI" font-size="10.00"> &lt; MediaType.Application &gt;</text>
</g>
<!-- Node3 -->
<g id="node4" class="node"><title>Node3</title>
<g id="a_node4"><a xlink:href="../../db/d68/class_juniper_1_1_h_t_t_p_1_1_r_e_s_t_1_1_abstract_request.html" target="_top" xlink:title=" ">
<polygon fill="white" stroke="black" points="0,-537.5 0,-847.5 158,-847.5 158,-537.5 0,-537.5"/>
<text text-anchor="middle" x="79" y="-835.5" font-family="SegoeUI" font-size="10.00">AbstractRequest&lt; MediaTypeT &gt;</text>
<polyline fill="none" stroke="black" points="0,-828.5 158,-828.5 "/>
<text text-anchor="start" x="8" y="-816.5" font-family="SegoeUI" font-size="10.00">+ ContentType</text>
<text text-anchor="start" x="8" y="-805.5" font-family="SegoeUI" font-size="10.00">+ MediaType</text>
<text text-anchor="start" x="8" y="-794.5" font-family="SegoeUI" font-size="10.00">+ BaseURI</text>
<text text-anchor="start" x="8" y="-783.5" font-family="SegoeUI" font-size="10.00">+ StandardRequestCacheID</text>
<text text-anchor="start" x="8" y="-772.5" font-family="SegoeUI" font-size="10.00"># AuthenticatedURI</text>
<text text-anchor="start" x="8" y="-761.5" font-family="SegoeUI" font-size="10.00">&#45; method</text>
<text text-anchor="start" x="8" y="-750.5" font-family="SegoeUI" font-size="10.00">&#45; serviceURI</text>
<text text-anchor="start" x="8" y="-739.5" font-family="SegoeUI" font-size="10.00">&#45; hasRequestBody</text>
<text text-anchor="start" x="8" y="-728.5" font-family="SegoeUI" font-size="10.00">&#45; queryParams</text>
<polyline fill="none" stroke="black" points="0,-721.5 158,-721.5 "/>
<text text-anchor="start" x="8" y="-709.5" font-family="SegoeUI" font-size="10.00">+ Equals()</text>
<text text-anchor="start" x="8" y="-698.5" font-family="SegoeUI" font-size="10.00">+ GetStreamAsync()</text>
<text text-anchor="start" x="8" y="-687.5" font-family="SegoeUI" font-size="10.00">+ GetHashCode()</text>
<text text-anchor="start" x="8" y="-676.5" font-family="SegoeUI" font-size="10.00"># AbstractRequest()</text>
<text text-anchor="start" x="8" y="-665.5" font-family="SegoeUI" font-size="10.00"># SetQuery()</text>
<text text-anchor="start" x="8" y="-654.5" font-family="SegoeUI" font-size="10.00"># SetQuery&lt; U &gt;()</text>
<text text-anchor="start" x="8" y="-643.5" font-family="SegoeUI" font-size="10.00"># AddQuery()</text>
<text text-anchor="start" x="8" y="-632.5" font-family="SegoeUI" font-size="10.00"># AddQuery&lt; U &gt;()</text>
<text text-anchor="start" x="8" y="-621.5" font-family="SegoeUI" font-size="10.00"># RemoveQuery()</text>
<text text-anchor="start" x="8" y="-610.5" font-family="SegoeUI" font-size="10.00"># RemoveQuery()</text>
<text text-anchor="start" x="8" y="-599.5" font-family="SegoeUI" font-size="10.00"># RemoveQuery&lt; U &gt;()</text>
<text text-anchor="start" x="8" y="-588.5" font-family="SegoeUI" font-size="10.00"># ModifyRequest()</text>
<text text-anchor="start" x="8" y="-577.5" font-family="SegoeUI" font-size="10.00"># GetBodyInfo()</text>
<text text-anchor="start" x="8" y="-566.5" font-family="SegoeUI" font-size="10.00"># WriteBody()</text>
<text text-anchor="start" x="8" y="-555.5" font-family="SegoeUI" font-size="10.00"># AddPath()</text>
<text text-anchor="start" x="8" y="-544.5" font-family="SegoeUI" font-size="10.00">&#45; SetQuery()</text>
</a>
</g>
</g>
<!-- Node3&#45;&gt;Node2 -->
<g id="edge3" class="edge"><title>Node3&#45;&gt;Node2</title>
<path fill="none" stroke="midnightblue" d="M151.473,-528.112C155.891,-518.152 160.159,-508.531 164.152,-499.528"/>
<polygon fill="none" stroke="midnightblue" points="148.233,-526.786 147.377,-537.346 154.631,-529.624 148.233,-526.786"/>
</g>
<!-- Node4 -->
<g id="node5" class="node"><title>Node4</title>
<g id="a_node5"><a xlink:href="../../d4/d35/class_juniper_1_1_i_o_1_1_abstract_stream_source.html" target="_top" xlink:title=" ">
<polygon fill="white" stroke="black" points="13.5,-885.5 13.5,-986.5 144.5,-986.5 144.5,-885.5 13.5,-885.5"/>
<text text-anchor="middle" x="79" y="-974.5" font-family="SegoeUI" font-size="10.00">AbstractStreamSource</text>
<polyline fill="none" stroke="black" points="13.5,-967.5 144.5,-967.5 "/>
<text text-anchor="start" x="21.5" y="-955.5" font-family="SegoeUI" font-size="10.00">+ CacheID</text>
<text text-anchor="start" x="21.5" y="-944.5" font-family="SegoeUI" font-size="10.00">+ DoNotCache</text>
<text text-anchor="start" x="21.5" y="-933.5" font-family="SegoeUI" font-size="10.00">+ InternalCacheID</text>
<polyline fill="none" stroke="black" points="13.5,-926.5 144.5,-926.5 "/>
<text text-anchor="start" x="21.5" y="-914.5" font-family="SegoeUI" font-size="10.00">+ GetStreamAsync()</text>
<text text-anchor="start" x="21.5" y="-903.5" font-family="SegoeUI" font-size="10.00"># AbstractStreamSource()</text>
<text text-anchor="start" x="21.5" y="-892.5" font-family="SegoeUI" font-size="10.00"># AbstractStreamSource()</text>
</a>
</g>
</g>
<!-- Node4&#45;&gt;Node3 -->
<g id="edge4" class="edge"><title>Node4&#45;&gt;Node3</title>
<path fill="none" stroke="midnightblue" d="M79,-875.001C79,-866.353 79,-857.143 79,-847.632"/>
<polygon fill="none" stroke="midnightblue" points="75.5001,-875.254 79,-885.254 82.5001,-875.254 75.5001,-875.254"/>
</g>
<!-- Node5 -->
<g id="node6" class="node"><title>Node5</title>
<g id="a_node6"><a xlink:href="../../de/db8/class_juniper_1_1_i_o_1_1_content_reference.html" target="_top" xlink:title=" ">
<polygon fill="white" stroke="black" points="24,-1024.5 24,-1224.5 134,-1224.5 134,-1024.5 24,-1024.5"/>
<text text-anchor="middle" x="79" y="-1212.5" font-family="SegoeUI" font-size="10.00">ContentReference</text>
<polyline fill="none" stroke="black" points="24,-1205.5 134,-1205.5 "/>
<text text-anchor="start" x="32" y="-1193.5" font-family="SegoeUI" font-size="10.00">+ CacheID</text>
<text text-anchor="start" x="32" y="-1182.5" font-family="SegoeUI" font-size="10.00">+ ContentType</text>
<text text-anchor="start" x="32" y="-1171.5" font-family="SegoeUI" font-size="10.00">+ DoNotCache</text>
<text text-anchor="start" x="32" y="-1160.5" font-family="SegoeUI" font-size="10.00">+ FileName</text>
<polyline fill="none" stroke="black" points="24,-1153.5 134,-1153.5 "/>
<text text-anchor="start" x="32" y="-1141.5" font-family="SegoeUI" font-size="10.00">+ ContentReference()</text>
<text text-anchor="start" x="32" y="-1130.5" font-family="SegoeUI" font-size="10.00">+ Equals()</text>
<text text-anchor="start" x="32" y="-1119.5" font-family="SegoeUI" font-size="10.00">+ Equals()</text>
<text text-anchor="start" x="32" y="-1108.5" font-family="SegoeUI" font-size="10.00">+ ToString()</text>
<text text-anchor="start" x="32" y="-1097.5" font-family="SegoeUI" font-size="10.00">+ GetHashCode()</text>
<text text-anchor="start" x="32" y="-1086.5" font-family="SegoeUI" font-size="10.00">+ operator==()</text>
<text text-anchor="start" x="32" y="-1075.5" font-family="SegoeUI" font-size="10.00">+ operator !=()</text>
<text text-anchor="start" x="32" y="-1064.5" font-family="SegoeUI" font-size="10.00">+ operator string()</text>
<text text-anchor="start" x="32" y="-1053.5" font-family="SegoeUI" font-size="10.00">+ operator+()</text>
<text text-anchor="start" x="32" y="-1042.5" font-family="SegoeUI" font-size="10.00">+ operator+()</text>
<text text-anchor="start" x="32" y="-1031.5" font-family="SegoeUI" font-size="10.00"># ContentReference()</text>
</a>
</g>
</g>
<!-- Node5&#45;&gt;Node4 -->
<g id="edge5" class="edge"><title>Node5&#45;&gt;Node4</title>
<path fill="none" stroke="midnightblue" d="M79,-1014.2C79,-1004.63 79,-995.286 79,-986.598"/>
<polygon fill="none" stroke="midnightblue" points="75.5001,-1014.24 79,-1024.24 82.5001,-1014.24 75.5001,-1014.24"/>
</g>
<!-- Node6 -->
<g id="node7" class="node"><title>Node6</title>
<g id="a_node7"><a xlink:title=" ">
<polygon fill="white" stroke="#bfbfbf" points="0,-1262.5 0,-1319.5 158,-1319.5 158,-1262.5 0,-1262.5"/>
<text text-anchor="middle" x="79" y="-1307.5" font-family="SegoeUI" font-size="10.00">IEquatable&lt; ContentReference &gt;</text>
<polyline fill="none" stroke="#bfbfbf" points="0,-1300.5 158,-1300.5 "/>
<text text-anchor="middle" x="79" y="-1288.5" font-family="SegoeUI" font-size="10.00"> </text>
<polyline fill="none" stroke="#bfbfbf" points="0,-1281.5 158,-1281.5 "/>
<text text-anchor="middle" x="79" y="-1269.5" font-family="SegoeUI" font-size="10.00"> </text>
</a>
</g>
</g>
<!-- Node6&#45;&gt;Node5 -->
<g id="edge6" class="edge"><title>Node6&#45;&gt;Node5</title>
<path fill="none" stroke="midnightblue" d="M79,-1252.29C79,-1243.84 79,-1234.5 79,-1224.82"/>
<polygon fill="none" stroke="midnightblue" points="75.5001,-1252.47 79,-1262.47 82.5001,-1252.47 75.5001,-1252.47"/>
</g>
<!-- Node7 -->
<g id="node8" class="node"><title>Node7</title>
<g id="a_node8"><a xlink:href="../../d3/db4/interface_juniper_1_1_world_1_1_g_i_s_1_1_google_1_1_i_google_maps_request.html" target="_top" xlink:title=" ">
<polygon fill="white" stroke="black" points="176,-664 176,-721 282,-721 282,-664 176,-664"/>
<text text-anchor="middle" x="229" y="-709" font-family="SegoeUI" font-size="10.00">IGoogleMapsRequest</text>
<polyline fill="none" stroke="black" points="176,-702 282,-702 "/>
<text text-anchor="middle" x="229" y="-690" font-family="SegoeUI" font-size="10.00"> </text>
<polyline fill="none" stroke="black" points="176,-683 282,-683 "/>
<text text-anchor="middle" x="229" y="-671" font-family="SegoeUI" font-size="10.00"> </text>
</a>
</g>
</g>
<!-- Node7&#45;&gt;Node2 -->
<g id="edge7" class="edge"><title>Node7&#45;&gt;Node2</title>
<path fill="none" stroke="midnightblue" d="M223.351,-653.965C217.228,-613.278 207.365,-547.738 200.136,-499.709"/>
<polygon fill="none" stroke="midnightblue" points="219.912,-654.63 224.861,-663.997 226.834,-653.588 219.912,-654.63"/>
</g>
</g>
</svg>
        <g id="navigator" transform="translate(0 0)" fill="#404254">
                <rect fill="#f2f5e9" fill-opacity="0.5" stroke="#606060" stroke-width=".5" x="0" y="0" width="60" height="60"/>
                <use id="zoomplus" xlink:href="#zoomPlus" x="17" y="9" onmousedown="handleZoom(evt,'in')"/>
                <use id="zoomminus" xlink:href="#zoomMin" x="42" y="9" onmousedown="handleZoom(evt,'out')"/>
                <use id="reset" xlink:href="#resetDef" x="30" y="36" onmousedown="handleReset()"/>
                <g id="arrowUp" xlink:href="#dirArrow" transform="translate(30 24)" onmousedown="handlePan(0,-1)">
                  <use xlink:href="#rim" fill="#404040">
                        <set attributeName="fill" to="#808080" begin="arrowUp.mouseover" end="arrowUp.mouseout"/>
                  </use>
                  <path fill="none" stroke="white" stroke-width="1.5" d="M0,-3.0v7 M-2.5,-0.5L0,-3.0L2.5,-0.5"/>
                </g>
                <g id="arrowRight" xlink:href="#dirArrow" transform="rotate(90) translate(36 -43)" onmousedown="handlePan(1,0)">
                  <use xlink:href="#rim" fill="#404040">
                        <set attributeName="fill" to="#808080" begin="arrowRight.mouseover" end="arrowRight.mouseout"/>
                  </use>
                  <path fill="none" stroke="white" stroke-width="1.5" d="M0,-3.0v7 M-2.5,-0.5L0,-3.0L2.5,-0.5"/>
                </g>
                <g id="arrowDown" xlink:href="#dirArrow" transform="rotate(180) translate(-30 -48)" onmousedown="handlePan(0,1)">
                  <use xlink:href="#rim" fill="#404040">
                        <set attributeName="fill" to="#808080" begin="arrowDown.mouseover" end="arrowDown.mouseout"/>
                  </use>
                  <path fill="none" stroke="white" stroke-width="1.5" d="M0,-3.0v7 M-2.5,-0.5L0,-3.0L2.5,-0.5"/>
                </g>
                <g id="arrowLeft" xlink:href="#dirArrow" transform="rotate(270) translate(-36 17)" onmousedown="handlePan(-1,0)">
                  <use xlink:href="#rim" fill="#404040">
                        <set attributeName="fill" to="#808080" begin="arrowLeft.mouseover" end="arrowLeft.mouseout"/>
                  </use>
                  <path fill="none" stroke="white" stroke-width="1.5" d="M0,-3.0v7 M-2.5,-0.5L0,-3.0L2.5,-0.5"/>
                </g>
        </g>
        <svg viewBox="0 0 15 15" width="100%" height="30px" preserveAspectRatio="xMaxYMin meet">
         <g id="arrow_out" transform="scale(0.3 0.3)">
          <a xlink:href="class_juniper_1_1_world_1_1_g_i_s_1_1_google_1_1_places_1_1_place_search_request__inherit__graph_org.svg" target="_base">
           <rect id="button" ry="5" rx="5" y="6" x="6" height="38" width="38"
                fill="#f2f5e9" fill-opacity="0.5" stroke="#606060" stroke-width="1.0"/>
           <path id="arrow"
             d="M 11.500037,31.436501 C 11.940474,20.09759 22.043105,11.32322 32.158766,21.979434 L 37.068811,17.246167 C 37.068811,17.246167 37.088388,32 37.088388,32 L 22.160133,31.978069 C 22.160133,31.978069 26.997745,27.140456 26.997745,27.140456 C 18.528582,18.264221 13.291696,25.230495 11.500037,31.436501 z"
             style="fill:#404040;"/>
          </a>
         </g>
        </svg>
</svg>
