<?xml version="1.0" encoding="UTF-8" standalone="no"?>
<!DOCTYPE svg PUBLIC "-//W3C//DTD SVG 1.1//EN"
 "http://www.w3.org/Graphics/SVG/1.1/DTD/svg11.dtd">
<!-- Generated by graphviz version 2.38.0 (20140413.2041)
 -->
<!-- Title: Juniper.ConfigurationManagement.PlatformConfiguration Pages: 1 -->
<svg width="204pt" height="402pt"
 viewBox="0.00 0.00 204.00 402.00" xmlns="http://www.w3.org/2000/svg" xmlns:xlink="http://www.w3.org/1999/xlink">
<g id="graph0" class="graph" transform="scale(1 1) rotate(0) translate(4 398)">
<title>Juniper.ConfigurationManagement.PlatformConfiguration</title>
<polygon fill="white" stroke="none" points="-4,4 -4,-398 200,-398 200,4 -4,4"/>
<!-- Node2 -->
<g id="node1" class="node"><title>Node2</title>
<g id="a_node1"><a xlink:title=" ">
<polygon fill="#bfbfbf" stroke="black" points="0,-0.5 0,-288.5 166,-288.5 166,-0.5 0,-0.5"/>
<text text-anchor="start" x="8" y="-276.5" font-family="SegoeUI" font-size="10.00">Juniper.ConfigurationManagement.</text>
<text text-anchor="middle" x="83" y="-265.5" font-family="SegoeUI" font-size="10.00">PlatformConfiguration</text>
<polyline fill="none" stroke="black" points="0,-258.5 166,-258.5 "/>
<text text-anchor="start" x="8" y="-246.5" font-family="SegoeUI" font-size="10.00">+ Current</text>
<text text-anchor="start" x="8" y="-235.5" font-family="SegoeUI" font-size="10.00">+ Name</text>
<text text-anchor="start" x="8" y="-224.5" font-family="SegoeUI" font-size="10.00">+ CompilerDefine</text>
<text text-anchor="start" x="8" y="-213.5" font-family="SegoeUI" font-size="10.00">+ BuildTargetName</text>
<text text-anchor="start" x="8" y="-202.5" font-family="SegoeUI" font-size="10.00">+ Spatializer</text>
<text text-anchor="start" x="8" y="-191.5" font-family="SegoeUI" font-size="10.00">+ AndroidSdkVersion</text>
<text text-anchor="start" x="8" y="-180.5" font-family="SegoeUI" font-size="10.00">+ IOSVersion</text>
<text text-anchor="start" x="8" y="-169.5" font-family="SegoeUI" font-size="10.00">+ WsaSubtarget</text>
<text text-anchor="start" x="8" y="-158.5" font-family="SegoeUI" font-size="10.00">+ Packages</text>
<text text-anchor="start" x="8" y="-147.5" font-family="SegoeUI" font-size="10.00">+ VrSystems</text>
<text text-anchor="start" x="8" y="-136.5" font-family="SegoeUI" font-size="10.00">+ XRPlatforms</text>
<polyline fill="none" stroke="black" points="0,-129.5 166,-129.5 "/>
<text text-anchor="start" x="8" y="-117.5" font-family="SegoeUI" font-size="10.00">+ GetObjectData()</text>
<text text-anchor="start" x="8" y="-106.5" font-family="SegoeUI" font-size="10.00">+ GetBuildTarget()</text>
<text text-anchor="start" x="8" y="-95.5" font-family="SegoeUI" font-size="10.00">+ GetTargetGroup()</text>
<text text-anchor="start" x="8" y="-84.5" font-family="SegoeUI" font-size="10.00">+ IsSupported()</text>
<text text-anchor="start" x="8" y="-73.5" font-family="SegoeUI" font-size="10.00">+ IsActivated()</text>
<text text-anchor="start" x="8" y="-62.5" font-family="SegoeUI" font-size="10.00">+ SwitchTarget()</text>
<text text-anchor="start" x="8" y="-51.5" font-family="SegoeUI" font-size="10.00">+ IsTargetSwitchNeeded()</text>
<text text-anchor="start" x="8" y="-40.5" font-family="SegoeUI" font-size="10.00">+ GetCompilerDefines()</text>
<text text-anchor="start" x="8" y="-29.5" font-family="SegoeUI" font-size="10.00">+ Activate()</text>
<text text-anchor="start" x="8" y="-18.5" font-family="SegoeUI" font-size="10.00">+ Deactivate()</text>
<text text-anchor="start" x="8" y="-7.5" font-family="SegoeUI" font-size="10.00">&#45; PlatformConfiguration()</text>
</a>
</g>
</g>
<!-- Node3 -->
<g id="node2" class="node"><title>Node3</title>
<g id="a_node2"><a xlink:title=" ">
<polygon fill="white" stroke="#bfbfbf" points="12.5,-336.5 12.5,-393.5 81.5,-393.5 81.5,-336.5 12.5,-336.5"/>
<text text-anchor="middle" x="47" y="-381.5" font-family="SegoeUI" font-size="10.00">ISerializable</text>
<polyline fill="none" stroke="#bfbfbf" points="12.5,-374.5 81.5,-374.5 "/>
<text text-anchor="middle" x="47" y="-362.5" font-family="SegoeUI" font-size="10.00"> </text>
<polyline fill="none" stroke="#bfbfbf" points="12.5,-355.5 81.5,-355.5 "/>
<text text-anchor="middle" x="47" y="-343.5" font-family="SegoeUI" font-size="10.00"> </text>
</a>
</g>
</g>
<!-- Node3&#45;&gt;Node2 -->
<g id="edge1" class="edge"><title>Node3&#45;&gt;Node2</title>
<path fill="none" stroke="midnightblue" d="M53.2111,-326.302C55.0308,-315.257 57.1376,-302.471 59.373,-288.903"/>
<polygon fill="none" stroke="midnightblue" points="49.7317,-325.891 51.5594,-336.327 56.6386,-327.029 49.7317,-325.891"/>
</g>
<!-- Node4 -->
<g id="node3" class="node"><title>Node4</title>
<g id="a_node3"><a xlink:title=" ">
<polygon fill="white" stroke="#bfbfbf" points="99.5,-336.5 99.5,-393.5 138.5,-393.5 138.5,-336.5 99.5,-336.5"/>
<text text-anchor="middle" x="119" y="-381.5" font-family="SegoeUI" font-size="10.00">static</text>
<polyline fill="none" stroke="#bfbfbf" points="99.5,-374.5 138.5,-374.5 "/>
<text text-anchor="middle" x="119" y="-362.5" font-family="SegoeUI" font-size="10.00"> </text>
<polyline fill="none" stroke="#bfbfbf" points="99.5,-355.5 138.5,-355.5 "/>
<text text-anchor="middle" x="119" y="-343.5" font-family="SegoeUI" font-size="10.00"> </text>
</a>
</g>
</g>
<!-- Node4&#45;&gt;Node2 -->
<g id="edge2" class="edge"><title>Node4&#45;&gt;Node2</title>
<path fill="none" stroke="#404040" d="M114.441,-336.327C112.787,-326.29 110.782,-314.12 108.593,-300.837"/>
<polygon fill="none" stroke="#404040" points="108.578,-300.743 103.656,-295.473 106.627,-288.903 111.549,-294.173 108.578,-300.743"/>
<text text-anchor="middle" x="153.5" y="-310" font-family="SegoeUI" font-size="10.00"> &#45;NO_VR_SYSTEMS</text>
</g>
</g>
</svg>
