<?xml version="1.0" encoding="UTF-8" standalone="no"?>
<!DOCTYPE svg PUBLIC "-//W3C//DTD SVG 1.1//EN"
 "http://www.w3.org/Graphics/SVG/1.1/DTD/svg11.dtd">
<!-- Generated by graphviz version 2.38.0 (20140413.2041)
 -->
<!-- Title: Juniper.Unity.Input.HoverCraft Pages: 1 -->
<!--zoomable 832 -->
<svg id="main" version="1.1" xmlns="http://www.w3.org/2000/svg" xmlns:xlink="http://www.w3.org/1999/xlink" xml:space="preserve" onload="init(evt)">
<style type="text/css"><![CDATA[
.edge:hover path { stroke: red; }
.edge:hover polygon { stroke: red; fill: red; }
]]></style>
<script type="text/javascript"><![CDATA[
var edges = document.getElementsByTagName('g');
if (edges && edges.length) {
  for (var i=0;i<edges.length;i++) {
    if (edges[i].id.substr(0,4)=='edge') {
      edges[i].setAttribute('class','edge');
    }
  }
}
]]></script>
        <defs>
                <circle id="rim" cx="0" cy="0" r="7"/>
                <circle id="rim2" cx="0" cy="0" r="3.5"/>
                <g id="zoomPlus">
                        <use xlink:href="#rim" fill="#404040">
                                <set attributeName="fill" to="#808080" begin="zoomplus.mouseover" end="zoomplus.mouseout"/>
                        </use>
                        <path d="M-4,0h8M0,-4v8" fill="none" stroke="white" stroke-width="1.5" pointer-events="none"/>
                </g>
                <g id="zoomMin">
                        <use xlink:href="#rim" fill="#404040">
                                <set attributeName="fill" to="#808080" begin="zoomminus.mouseover" end="zoomminus.mouseout"/>
                        </use>
                        <path d="M-4,0h8" fill="none" stroke="white" stroke-width="1.5" pointer-events="none"/>
                </g>
                <g id="dirArrow">
                        <path fill="none" stroke="white" stroke-width="1.5" d="M0,-3.0v7 M-2.5,-0.5L0,-3.0L2.5,-0.5"/>
                </g>
               <g id="resetDef">
                       <use xlink:href="#rim2" fill="#404040">
                               <set attributeName="fill" to="#808080" begin="reset.mouseover" end="reset.mouseout"/>
                       </use>
               </g>
        </defs>

<script type="text/javascript">
var viewWidth = 369;
var viewHeight = 832;
var sectionId = 'dynsection-1';
</script>
<script xlink:href="../../svgpan.js"/>
<svg id="graph" class="graph">
<g id="viewport">
<title>Juniper.Unity.Input.HoverCraft</title>
<polygon fill="white" stroke="none" points="-4,4 -4,-828 364.5,-828 364.5,4 -4,4"/>
<!-- Node3 -->
<g id="node1" class="node"><title>Node3</title>
<g id="a_node1"><a xlink:title=" ">
<polygon fill="#bfbfbf" stroke="black" points="191,-0.5 191,-90.5 315,-90.5 315,-0.5 191,-0.5"/>
<text text-anchor="start" x="199" y="-78.5" font-family="SegoeUI" font-size="10.00">Juniper.Unity.Input.Hover</text>
<text text-anchor="middle" x="253" y="-67.5" font-family="SegoeUI" font-size="10.00">Craft</text>
<polyline fill="none" stroke="black" points="191,-60.5 315,-60.5 "/>
<text text-anchor="start" x="199" y="-48.5" font-family="SegoeUI" font-size="10.00">+ ForwardPressed</text>
<text text-anchor="start" x="199" y="-37.5" font-family="SegoeUI" font-size="10.00">+ BackPressed</text>
<polyline fill="none" stroke="black" points="191,-30.5 315,-30.5 "/>
<text text-anchor="start" x="199" y="-18.5" font-family="SegoeUI" font-size="10.00">+ Awake()</text>
<text text-anchor="start" x="199" y="-7.5" font-family="SegoeUI" font-size="10.00">+ Update()</text>
</a>
</g>
</g>
<!-- Node4 -->
<g id="node2" class="node"><title>Node4</title>
<g id="a_node2"><a xlink:href="../../d5/d28/class_juniper_1_1_unity_1_1_input_1_1_abstract_velocity_locomotion.html" target="_top" xlink:title=" ">
<polygon fill="white" stroke="black" points="71,-237.5 71,-327.5 205,-327.5 205,-237.5 71,-237.5"/>
<text text-anchor="middle" x="138" y="-315.5" font-family="SegoeUI" font-size="10.00">AbstractVelocityLocomotion</text>
<polyline fill="none" stroke="black" points="71,-308.5 205,-308.5 "/>
<text text-anchor="start" x="79" y="-296.5" font-family="SegoeUI" font-size="10.00">+ moveSpeed</text>
<text text-anchor="start" x="79" y="-285.5" font-family="SegoeUI" font-size="10.00">+ jink</text>
<text text-anchor="start" x="79" y="-274.5" font-family="SegoeUI" font-size="10.00"># MOVEMENT_SCALE</text>
<polyline fill="none" stroke="black" points="71,-267.5 205,-267.5 "/>
<text text-anchor="start" x="79" y="-255.5" font-family="SegoeUI" font-size="10.00">+ Awake()</text>
<text text-anchor="start" x="79" y="-244.5" font-family="SegoeUI" font-size="10.00">+ Update()</text>
</a>
</g>
</g>
<!-- Node4&#45;&gt;Node3 -->
<g id="edge1" class="edge"><title>Node4&#45;&gt;Node3</title>
<path fill="none" stroke="midnightblue" d="M164.112,-228.142C184.464,-186.552 212.382,-129.503 231.466,-90.5035"/>
<polygon fill="none" stroke="midnightblue" points="160.882,-226.778 159.631,-237.298 167.17,-229.855 160.882,-226.778"/>
</g>
<!-- Node5 -->
<g id="node3" class="node"><title>Node5</title>
<g id="a_node3"><a xlink:title=" ">
<polygon fill="white" stroke="#bfbfbf" points="0,-755.5 0,-812.5 82,-812.5 82,-755.5 0,-755.5"/>
<text text-anchor="middle" x="41" y="-800.5" font-family="SegoeUI" font-size="10.00">MonoBehaviour</text>
<polyline fill="none" stroke="#bfbfbf" points="0,-793.5 82,-793.5 "/>
<text text-anchor="middle" x="41" y="-781.5" font-family="SegoeUI" font-size="10.00"> </text>
<polyline fill="none" stroke="#bfbfbf" points="0,-774.5 82,-774.5 "/>
<text text-anchor="middle" x="41" y="-762.5" font-family="SegoeUI" font-size="10.00"> </text>
</a>
</g>
</g>
<!-- Node5&#45;&gt;Node4 -->
<g id="edge2" class="edge"><title>Node5&#45;&gt;Node4</title>
<path fill="none" stroke="midnightblue" d="M38.7515,-744.963C36.2076,-686.058 34.9316,-569.592 57,-474 69.0858,-421.649 94.6798,-365.475 113.883,-327.796"/>
<polygon fill="none" stroke="midnightblue" points="35.2704,-745.449 39.2359,-755.274 42.2627,-745.12 35.2704,-745.449"/>
</g>
<!-- Node6 -->
<g id="node4" class="node"><title>Node6</title>
<g id="a_node4"><a xlink:href="../../dd/db6/class_juniper_1_1_unity_1_1_stage_extensions.html" target="_top" xlink:title=" ">
<polygon fill="white" stroke="black" points="66,-474.5 66,-696.5 210,-696.5 210,-474.5 66,-474.5"/>
<text text-anchor="middle" x="138" y="-684.5" font-family="SegoeUI" font-size="10.00">Juniper.Unity.StageExtensions</text>
<polyline fill="none" stroke="black" points="66,-677.5 210,-677.5 "/>
<text text-anchor="start" x="74" y="-665.5" font-family="SegoeUI" font-size="10.00">+ defaultAvatarHeight</text>
<text text-anchor="start" x="74" y="-654.5" font-family="SegoeUI" font-size="10.00">+ usePhysicsBasedMovement</text>
<text text-anchor="start" x="74" y="-643.5" font-family="SegoeUI" font-size="10.00">+ shoes</text>
<text text-anchor="start" x="74" y="-632.5" font-family="SegoeUI" font-size="10.00">+ BodyPhysics</text>
<text text-anchor="start" x="74" y="-621.5" font-family="SegoeUI" font-size="10.00">+ useGravity</text>
<text text-anchor="start" x="74" y="-610.5" font-family="SegoeUI" font-size="10.00">+ Head</text>
<text text-anchor="start" x="74" y="-599.5" font-family="SegoeUI" font-size="10.00">+ Hands</text>
<text text-anchor="start" x="74" y="-588.5" font-family="SegoeUI" font-size="10.00">+ Body</text>
<text text-anchor="start" x="74" y="-577.5" font-family="SegoeUI" font-size="10.00">&#45; BodyShape</text>
<polyline fill="none" stroke="black" points="66,-570.5 210,-570.5 "/>
<text text-anchor="start" x="74" y="-558.5" font-family="SegoeUI" font-size="10.00">+ Awake()</text>
<text text-anchor="start" x="74" y="-547.5" font-family="SegoeUI" font-size="10.00">+ Reinstall()</text>
<text text-anchor="start" x="74" y="-536.5" font-family="SegoeUI" font-size="10.00">+ Install()</text>
<text text-anchor="start" x="74" y="-525.5" font-family="SegoeUI" font-size="10.00">+ Uninstall()</text>
<text text-anchor="start" x="74" y="-514.5" font-family="SegoeUI" font-size="10.00">+ RotateView()</text>
<text text-anchor="start" x="74" y="-503.5" font-family="SegoeUI" font-size="10.00">+ SetVelocity()</text>
<text text-anchor="start" x="74" y="-492.5" font-family="SegoeUI" font-size="10.00">+ FixedUpdate()</text>
<text text-anchor="start" x="74" y="-481.5" font-family="SegoeUI" font-size="10.00">&#45; MakeShadowCaster()</text>
</a>
</g>
</g>
<!-- Node5&#45;&gt;Node6 -->
<g id="edge4" class="edge"><title>Node5&#45;&gt;Node6</title>
<path fill="none" stroke="midnightblue" d="M59.1189,-746.295C66.1903,-731.97 74.7044,-714.723 83.4855,-696.934"/>
<polygon fill="none" stroke="midnightblue" points="55.9801,-744.747 54.692,-755.263 62.2569,-747.845 55.9801,-744.747"/>
</g>
<!-- Node6&#45;&gt;Node4 -->
<g id="edge3" class="edge"><title>Node6&#45;&gt;Node4</title>
<path fill="none" stroke="#404040" d="M138,-474.128C138,-428.603 138,-377.794 138,-340.087"/>
<polygon fill="none" stroke="#404040" points="138,-339.828 134,-333.828 138,-327.828 142,-333.828 138,-339.828"/>
<text text-anchor="middle" x="153.5" y="-448" font-family="SegoeUI" font-size="10.00"> &#45;stage</text>
</g>
<!-- Node7 -->
<g id="node5" class="node"><title>Node7</title>
<g id="a_node5"><a xlink:href="../../db/d28/interface_juniper_1_1_i_installable.html" target="_top" xlink:title="Defines an interface for objects that can be installed and have their installation progress tracked.">
<polygon fill="white" stroke="black" points="103.5,-744.5 103.5,-823.5 172.5,-823.5 172.5,-744.5 103.5,-744.5"/>
<text text-anchor="middle" x="138" y="-811.5" font-family="SegoeUI" font-size="10.00">IInstallable</text>
<polyline fill="none" stroke="black" points="103.5,-804.5 172.5,-804.5 "/>
<text text-anchor="middle" x="138" y="-792.5" font-family="SegoeUI" font-size="10.00"> </text>
<polyline fill="none" stroke="black" points="103.5,-785.5 172.5,-785.5 "/>
<text text-anchor="start" x="111.5" y="-773.5" font-family="SegoeUI" font-size="10.00">+ Install()</text>
<text text-anchor="start" x="111.5" y="-762.5" font-family="SegoeUI" font-size="10.00">+ Reinstall()</text>
<text text-anchor="start" x="111.5" y="-751.5" font-family="SegoeUI" font-size="10.00">+ Uninstall()</text>
</a>
</g>
</g>
<!-- Node7&#45;&gt;Node6 -->
<g id="edge5" class="edge"><title>Node7&#45;&gt;Node6</title>
<path fill="none" stroke="midnightblue" d="M138,-733.951C138,-722.411 138,-709.652 138,-696.609"/>
<polygon fill="none" stroke="midnightblue" points="134.5,-734.178 138,-744.178 141.5,-734.178 134.5,-734.178"/>
</g>
<!-- Node8 -->
<g id="node6" class="node"><title>Node8</title>
<g id="a_node6"><a xlink:title=" ">
<polygon fill="white" stroke="#bfbfbf" points="202,-755.5 202,-812.5 268,-812.5 268,-755.5 202,-755.5"/>
<text text-anchor="middle" x="235" y="-800.5" font-family="SegoeUI" font-size="10.00">UnityEngine</text>
<polyline fill="none" stroke="#bfbfbf" points="202,-793.5 268,-793.5 "/>
<text text-anchor="middle" x="235" y="-781.5" font-family="SegoeUI" font-size="10.00"> </text>
<polyline fill="none" stroke="#bfbfbf" points="202,-774.5 268,-774.5 "/>
<text text-anchor="middle" x="235" y="-762.5" font-family="SegoeUI" font-size="10.00"> </text>
</a>
</g>
</g>
<!-- Node8&#45;&gt;Node4 -->
<g id="edge7" class="edge"><title>Node8&#45;&gt;Node4</title>
<path fill="none" stroke="#404040" d="M236.783,-755.269C239.596,-700.624 242.551,-575.516 219,-474 207.996,-426.569 185.952,-375.985 167.636,-338.87"/>
<polygon fill="none" stroke="#404040" points="167.465,-338.53 161.201,-334.959 162.088,-327.803 168.352,-331.374 167.465,-338.53"/>
<text text-anchor="middle" x="260" y="-583" font-family="SegoeUI" font-size="10.00"> #velocity</text>
</g>
<!-- Node8&#45;&gt;Node6 -->
<g id="edge6" class="edge"><title>Node8&#45;&gt;Node6</title>
<path fill="none" stroke="#404040" d="M212.332,-755.268C205.59,-746.261 198.534,-736.003 193,-726 189.771,-720.163 186.637,-714.096 183.612,-707.905"/>
<polygon fill="none" stroke="#404040" points="183.419,-707.496 177.237,-703.783 178.287,-696.649 184.469,-700.362 183.419,-707.496"/>
<text text-anchor="middle" x="212.5" y="-718" font-family="SegoeUI" font-size="10.00"> &#45;velocity</text>
</g>
<!-- Node9 -->
<g id="node7" class="node"><title>Node9</title>
<g id="a_node7"><a xlink:href="../../d4/d43/interface_juniper_1_1_unity_1_1_input_1_1_pointers_1_1_i_pointer_device.html" target="_top" xlink:title=" ">
<polygon fill="white" stroke="black" points="223.5,-138.5 223.5,-426.5 360.5,-426.5 360.5,-138.5 223.5,-138.5"/>
<text text-anchor="start" x="231.5" y="-414.5" font-family="SegoeUI" font-size="10.00">Juniper.Unity.Input.Pointers.</text>
<text text-anchor="middle" x="292" y="-403.5" font-family="SegoeUI" font-size="10.00">IPointerDevice</text>
<polyline fill="none" stroke="black" points="223.5,-396.5 360.5,-396.5 "/>
<text text-anchor="start" x="231.5" y="-384.5" font-family="SegoeUI" font-size="10.00">+ EventTarget</text>
<text text-anchor="start" x="231.5" y="-373.5" font-family="SegoeUI" font-size="10.00">+ InputModule</text>
<text text-anchor="start" x="231.5" y="-362.5" font-family="SegoeUI" font-size="10.00">+ PointerDataID</text>
<text text-anchor="start" x="231.5" y="-351.5" font-family="SegoeUI" font-size="10.00">+ ProbeName</text>
<text text-anchor="start" x="231.5" y="-340.5" font-family="SegoeUI" font-size="10.00">+ ButtonType</text>
<text text-anchor="start" x="231.5" y="-329.5" font-family="SegoeUI" font-size="10.00">+ isActiveAndEnabled</text>
<text text-anchor="start" x="231.5" y="-318.5" font-family="SegoeUI" font-size="10.00">+ IsConnected</text>
<text text-anchor="start" x="231.5" y="-307.5" font-family="SegoeUI" font-size="10.00">+ IsDisabled</text>
<text text-anchor="start" x="231.5" y="-296.5" font-family="SegoeUI" font-size="10.00">+ IsEnabled</text>
<text text-anchor="start" x="231.5" y="-285.5" font-family="SegoeUI" font-size="10.00">+ IsDragging</text>
<text text-anchor="start" x="231.5" y="-274.5" font-family="SegoeUI" font-size="10.00">and 22 more...</text>
<polyline fill="none" stroke="black" points="223.5,-267.5 360.5,-267.5 "/>
<text text-anchor="start" x="231.5" y="-255.5" font-family="SegoeUI" font-size="10.00">+ ViewportFromWorld()</text>
<text text-anchor="start" x="231.5" y="-244.5" font-family="SegoeUI" font-size="10.00">+ ViewportFromScreen()</text>
<text text-anchor="start" x="231.5" y="-233.5" font-family="SegoeUI" font-size="10.00">+ ScreenFromWorld()</text>
<text text-anchor="start" x="231.5" y="-222.5" font-family="SegoeUI" font-size="10.00">+ ScreenFromViewport()</text>
<text text-anchor="start" x="231.5" y="-211.5" font-family="SegoeUI" font-size="10.00">+ WorldFromScreen()</text>
<text text-anchor="start" x="231.5" y="-200.5" font-family="SegoeUI" font-size="10.00">+ WorldFromViewport()</text>
<text text-anchor="start" x="231.5" y="-189.5" font-family="SegoeUI" font-size="10.00">+ IsButtonDown()</text>
<text text-anchor="start" x="231.5" y="-178.5" font-family="SegoeUI" font-size="10.00">+ IsButtonPressed()</text>
<text text-anchor="start" x="231.5" y="-167.5" font-family="SegoeUI" font-size="10.00">+ IsButtonUp()</text>
<text text-anchor="start" x="231.5" y="-156.5" font-family="SegoeUI" font-size="10.00">+ Process()</text>
<text text-anchor="start" x="231.5" y="-145.5" font-family="SegoeUI" font-size="10.00">+ SetProbe()</text>
</a>
</g>
</g>
<!-- Node9&#45;&gt;Node3 -->
<g id="edge8" class="edge"><title>Node9&#45;&gt;Node3</title>
<path fill="none" stroke="#404040" d="M268.246,-138.367C266.166,-125.833 264.154,-113.709 262.311,-102.602"/>
<polygon fill="none" stroke="#404040" points="262.271,-102.365 257.343,-97.1011 260.307,-90.5272 265.235,-95.7913 262.271,-102.365"/>
<text text-anchor="middle" x="285" y="-112" font-family="SegoeUI" font-size="10.00"> +Pointer</text>
</g>
</g>
</svg>
        <g id="navigator" transform="translate(0 0)" fill="#404254">
                <rect fill="#f2f5e9" fill-opacity="0.5" stroke="#606060" stroke-width=".5" x="0" y="0" width="60" height="60"/>
                <use id="zoomplus" xlink:href="#zoomPlus" x="17" y="9" onmousedown="handleZoom(evt,'in')"/>
                <use id="zoomminus" xlink:href="#zoomMin" x="42" y="9" onmousedown="handleZoom(evt,'out')"/>
                <use id="reset" xlink:href="#resetDef" x="30" y="36" onmousedown="handleReset()"/>
                <g id="arrowUp" xlink:href="#dirArrow" transform="translate(30 24)" onmousedown="handlePan(0,-1)">
                  <use xlink:href="#rim" fill="#404040">
                        <set attributeName="fill" to="#808080" begin="arrowUp.mouseover" end="arrowUp.mouseout"/>
                  </use>
                  <path fill="none" stroke="white" stroke-width="1.5" d="M0,-3.0v7 M-2.5,-0.5L0,-3.0L2.5,-0.5"/>
                </g>
                <g id="arrowRight" xlink:href="#dirArrow" transform="rotate(90) translate(36 -43)" onmousedown="handlePan(1,0)">
                  <use xlink:href="#rim" fill="#404040">
                        <set attributeName="fill" to="#808080" begin="arrowRight.mouseover" end="arrowRight.mouseout"/>
                  </use>
                  <path fill="none" stroke="white" stroke-width="1.5" d="M0,-3.0v7 M-2.5,-0.5L0,-3.0L2.5,-0.5"/>
                </g>
                <g id="arrowDown" xlink:href="#dirArrow" transform="rotate(180) translate(-30 -48)" onmousedown="handlePan(0,1)">
                  <use xlink:href="#rim" fill="#404040">
                        <set attributeName="fill" to="#808080" begin="arrowDown.mouseover" end="arrowDown.mouseout"/>
                  </use>
                  <path fill="none" stroke="white" stroke-width="1.5" d="M0,-3.0v7 M-2.5,-0.5L0,-3.0L2.5,-0.5"/>
                </g>
                <g id="arrowLeft" xlink:href="#dirArrow" transform="rotate(270) translate(-36 17)" onmousedown="handlePan(-1,0)">
                  <use xlink:href="#rim" fill="#404040">
                        <set attributeName="fill" to="#808080" begin="arrowLeft.mouseover" end="arrowLeft.mouseout"/>
                  </use>
                  <path fill="none" stroke="white" stroke-width="1.5" d="M0,-3.0v7 M-2.5,-0.5L0,-3.0L2.5,-0.5"/>
                </g>
        </g>
        <svg viewBox="0 0 15 15" width="100%" height="30px" preserveAspectRatio="xMaxYMin meet">
         <g id="arrow_out" transform="scale(0.3 0.3)">
          <a xlink:href="class_juniper_1_1_unity_1_1_input_1_1_hover_craft__coll__graph_org.svg" target="_base">
           <rect id="button" ry="5" rx="5" y="6" x="6" height="38" width="38"
                fill="#f2f5e9" fill-opacity="0.5" stroke="#606060" stroke-width="1.0"/>
           <path id="arrow"
             d="M 11.500037,31.436501 C 11.940474,20.09759 22.043105,11.32322 32.158766,21.979434 L 37.068811,17.246167 C 37.068811,17.246167 37.088388,32 37.088388,32 L 22.160133,31.978069 C 22.160133,31.978069 26.997745,27.140456 26.997745,27.140456 C 18.528582,18.264221 13.291696,25.230495 11.500037,31.436501 z"
             style="fill:#404040;"/>
          </a>
         </g>
        </svg>
</svg>
