<?xml version="1.0" encoding="UTF-8" standalone="no"?>
<!DOCTYPE svg PUBLIC "-//W3C//DTD SVG 1.1//EN"
 "http://www.w3.org/Graphics/SVG/1.1/DTD/svg11.dtd">
<!-- Generated by graphviz version 2.38.0 (20140413.2041)
 -->
<!-- Title: Juniper.Unity.Events.ILongPressHandler Pages: 1 -->
<!--zoomable 535 -->
<svg id="main" version="1.1" xmlns="http://www.w3.org/2000/svg" xmlns:xlink="http://www.w3.org/1999/xlink" xml:space="preserve" onload="init(evt)">
<style type="text/css"><![CDATA[
.edge:hover path { stroke: red; }
.edge:hover polygon { stroke: red; fill: red; }
]]></style>
<script type="text/javascript"><![CDATA[
var edges = document.getElementsByTagName('g');
if (edges && edges.length) {
  for (var i=0;i<edges.length;i++) {
    if (edges[i].id.substr(0,4)=='edge') {
      edges[i].setAttribute('class','edge');
    }
  }
}
]]></script>
        <defs>
                <circle id="rim" cx="0" cy="0" r="7"/>
                <circle id="rim2" cx="0" cy="0" r="3.5"/>
                <g id="zoomPlus">
                        <use xlink:href="#rim" fill="#404040">
                                <set attributeName="fill" to="#808080" begin="zoomplus.mouseover" end="zoomplus.mouseout"/>
                        </use>
                        <path d="M-4,0h8M0,-4v8" fill="none" stroke="white" stroke-width="1.5" pointer-events="none"/>
                </g>
                <g id="zoomMin">
                        <use xlink:href="#rim" fill="#404040">
                                <set attributeName="fill" to="#808080" begin="zoomminus.mouseover" end="zoomminus.mouseout"/>
                        </use>
                        <path d="M-4,0h8" fill="none" stroke="white" stroke-width="1.5" pointer-events="none"/>
                </g>
                <g id="dirArrow">
                        <path fill="none" stroke="white" stroke-width="1.5" d="M0,-3.0v7 M-2.5,-0.5L0,-3.0L2.5,-0.5"/>
                </g>
               <g id="resetDef">
                       <use xlink:href="#rim2" fill="#404040">
                               <set attributeName="fill" to="#808080" begin="reset.mouseover" end="reset.mouseout"/>
                       </use>
               </g>
        </defs>

<script type="text/javascript">
var viewWidth = 342;
var viewHeight = 535;
var sectionId = 'dynsection-0';
</script>
<script xlink:href="../../svgpan.js"/>
<svg id="graph" class="graph">
<g id="viewport">
<title>Juniper.Unity.Events.ILongPressHandler</title>
<polygon fill="white" stroke="none" points="-4,4 -4,-531 338,-531 338,4 -4,4"/>
<!-- Node0 -->
<g id="node1" class="node"><title>Node0</title>
<g id="a_node1"><a xlink:title=" ">
<polygon fill="#bfbfbf" stroke="black" points="100,-353.5 100,-432.5 228,-432.5 228,-353.5 100,-353.5"/>
<text text-anchor="start" x="108" y="-420.5" font-family="SegoeUI" font-size="10.00">Juniper.Unity.Events.ILong</text>
<text text-anchor="middle" x="164" y="-409.5" font-family="SegoeUI" font-size="10.00">PressHandler</text>
<polyline fill="none" stroke="black" points="100,-402.5 228,-402.5 "/>
<text text-anchor="middle" x="164" y="-390.5" font-family="SegoeUI" font-size="10.00"> </text>
<polyline fill="none" stroke="black" points="100,-383.5 228,-383.5 "/>
<text text-anchor="start" x="108" y="-371.5" font-family="SegoeUI" font-size="10.00">+ OnLongPressUpdate()</text>
<text text-anchor="start" x="108" y="-360.5" font-family="SegoeUI" font-size="10.00">+ OnLongPress()</text>
</a>
</g>
</g>
<!-- Node2 -->
<g id="node3" class="node"><title>Node2</title>
<g id="a_node3"><a xlink:href="../../df/de4/class_juniper_1_1_unity_1_1_widgets_1_1_clickable.html" target="_top" xlink:title="An object that can be Touched on a screen or Clicked with a mouse and fires an event in response.">
<polygon fill="white" stroke="black" points="89.5,-204.5 89.5,-316.5 238.5,-316.5 238.5,-204.5 89.5,-204.5"/>
<text text-anchor="middle" x="164" y="-304.5" font-family="SegoeUI" font-size="10.00">Juniper.Unity.Widgets.Clickable</text>
<polyline fill="none" stroke="black" points="89.5,-297.5 238.5,-297.5 "/>
<text text-anchor="start" x="97.5" y="-285.5" font-family="SegoeUI" font-size="10.00">+ onClick</text>
<text text-anchor="start" x="97.5" y="-274.5" font-family="SegoeUI" font-size="10.00">+ onLongPress</text>
<polyline fill="none" stroke="black" points="89.5,-267.5 238.5,-267.5 "/>
<text text-anchor="start" x="97.5" y="-255.5" font-family="SegoeUI" font-size="10.00">+ OnPointerClick()</text>
<text text-anchor="start" x="97.5" y="-244.5" font-family="SegoeUI" font-size="10.00">+ OnLongPress()</text>
<text text-anchor="start" x="97.5" y="-233.5" font-family="SegoeUI" font-size="10.00">+ OnLongPressUpdate()</text>
<text text-anchor="start" x="97.5" y="-222.5" font-family="SegoeUI" font-size="10.00"># OnClick()</text>
<text text-anchor="start" x="97.5" y="-211.5" font-family="SegoeUI" font-size="10.00"># OnLongPress()</text>
</a>
</g>
</g>
<!-- Node0&#45;&gt;Node2 -->
<g id="edge2" class="edge"><title>Node0&#45;&gt;Node2</title>
<path fill="none" stroke="midnightblue" d="M164,-343.012C164,-334.464 164,-325.518 164,-316.814"/>
<polygon fill="none" stroke="midnightblue" points="160.5,-343.199 164,-353.199 167.5,-343.199 160.5,-343.199"/>
</g>
<!-- Node1 -->
<g id="node2" class="node"><title>Node1</title>
<g id="a_node2"><a xlink:title=" ">
<polygon fill="white" stroke="#bfbfbf" points="110.5,-469.5 110.5,-526.5 217.5,-526.5 217.5,-469.5 110.5,-469.5"/>
<text text-anchor="middle" x="164" y="-514.5" font-family="SegoeUI" font-size="10.00">IEventSystemHandler</text>
<polyline fill="none" stroke="#bfbfbf" points="110.5,-507.5 217.5,-507.5 "/>
<text text-anchor="middle" x="164" y="-495.5" font-family="SegoeUI" font-size="10.00"> </text>
<polyline fill="none" stroke="#bfbfbf" points="110.5,-488.5 217.5,-488.5 "/>
<text text-anchor="middle" x="164" y="-476.5" font-family="SegoeUI" font-size="10.00"> </text>
</a>
</g>
</g>
<!-- Node1&#45;&gt;Node0 -->
<g id="edge1" class="edge"><title>Node1&#45;&gt;Node0</title>
<path fill="none" stroke="midnightblue" d="M164,-459.156C164,-450.473 164,-441.232 164,-432.52"/>
<polygon fill="none" stroke="midnightblue" points="160.5,-459.398 164,-469.398 167.5,-459.398 160.5,-459.398"/>
</g>
<!-- Node3 -->
<g id="node4" class="node"><title>Node3</title>
<g id="a_node4"><a xlink:href="../../db/d0d/class_juniper_1_1_unity_1_1_widgets_1_1_openable.html" target="_top" xlink:title="A control that is a container of other controls that are hidden until the control is clicked.">
<polygon fill="white" stroke="black" points="0,-0.5 0,-167.5 152,-167.5 152,-0.5 0,-0.5"/>
<text text-anchor="middle" x="76" y="-155.5" font-family="SegoeUI" font-size="10.00">Juniper.Unity.Widgets.Openable</text>
<polyline fill="none" stroke="black" points="0,-148.5 152,-148.5 "/>
<text text-anchor="start" x="8" y="-136.5" font-family="SegoeUI" font-size="10.00">+ payload</text>
<text text-anchor="start" x="8" y="-125.5" font-family="SegoeUI" font-size="10.00">+ Open</text>
<text text-anchor="start" x="8" y="-114.5" font-family="SegoeUI" font-size="10.00">+ OpenChanged</text>
<text text-anchor="start" x="8" y="-103.5" font-family="SegoeUI" font-size="10.00">+ Opened</text>
<text text-anchor="start" x="8" y="-92.5" font-family="SegoeUI" font-size="10.00">+ Closed</text>
<text text-anchor="start" x="8" y="-81.5" font-family="SegoeUI" font-size="10.00">&#45; stater</text>
<text text-anchor="start" x="8" y="-70.5" font-family="SegoeUI" font-size="10.00">&#45; wasOpen</text>
<polyline fill="none" stroke="black" points="0,-63.5 152,-63.5 "/>
<text text-anchor="start" x="8" y="-51.5" font-family="SegoeUI" font-size="10.00">+ SetOpen()</text>
<text text-anchor="start" x="8" y="-40.5" font-family="SegoeUI" font-size="10.00">+ ToggleOpen()</text>
<text text-anchor="start" x="8" y="-29.5" font-family="SegoeUI" font-size="10.00">+ OnPointerClick()</text>
<text text-anchor="start" x="8" y="-18.5" font-family="SegoeUI" font-size="10.00"># Update()</text>
<text text-anchor="start" x="8" y="-7.5" font-family="SegoeUI" font-size="10.00"># LateUpdate()</text>
</a>
</g>
</g>
<!-- Node2&#45;&gt;Node3 -->
<g id="edge3" class="edge"><title>Node2&#45;&gt;Node3</title>
<path fill="none" stroke="midnightblue" d="M131.519,-195.091C127,-186.131 122.307,-176.824 117.648,-167.587"/>
<polygon fill="none" stroke="midnightblue" points="128.528,-196.934 136.156,-204.287 134.778,-193.782 128.528,-196.934"/>
</g>
<!-- Node4 -->
<g id="node5" class="node"><title>Node4</title>
<g id="a_node5"><a xlink:href="../../d3/d4d/class_juniper_1_1_unity_1_1_widgets_1_1_teleport_pad.html" target="_top" xlink:title=" ">
<polygon fill="white" stroke="black" points="170,-28 170,-140 334,-140 334,-28 170,-28"/>
<text text-anchor="middle" x="252" y="-128" font-family="SegoeUI" font-size="10.00">Juniper.Unity.Widgets.TeleportPad</text>
<polyline fill="none" stroke="black" points="170,-121 334,-121 "/>
<text text-anchor="start" x="178" y="-109" font-family="SegoeUI" font-size="10.00">&#45; userT</text>
<text text-anchor="start" x="178" y="-98" font-family="SegoeUI" font-size="10.00">&#45; user</text>
<text text-anchor="start" x="178" y="-87" font-family="SegoeUI" font-size="10.00">&#45; darth</text>
<text text-anchor="start" x="178" y="-76" font-family="SegoeUI" font-size="10.00">&#45; running</text>
<polyline fill="none" stroke="black" points="170,-69 334,-69 "/>
<text text-anchor="start" x="178" y="-57" font-family="SegoeUI" font-size="10.00"># OnClick()</text>
<text text-anchor="start" x="178" y="-46" font-family="SegoeUI" font-size="10.00">&#45; Start()</text>
<text text-anchor="start" x="178" y="-35" font-family="SegoeUI" font-size="10.00">&#45; Darth_Entered()</text>
</a>
</g>
</g>
<!-- Node2&#45;&gt;Node4 -->
<g id="edge4" class="edge"><title>Node2&#45;&gt;Node4</title>
<path fill="none" stroke="midnightblue" d="M196.523,-195.009C205.609,-176.99 215.398,-157.579 224.186,-140.153"/>
<polygon fill="none" stroke="midnightblue" points="193.222,-193.782 191.844,-204.287 199.472,-196.934 193.222,-193.782"/>
</g>
</g>
</svg>
        <g id="navigator" transform="translate(0 0)" fill="#404254">
                <rect fill="#f2f5e9" fill-opacity="0.5" stroke="#606060" stroke-width=".5" x="0" y="0" width="60" height="60"/>
                <use id="zoomplus" xlink:href="#zoomPlus" x="17" y="9" onmousedown="handleZoom(evt,'in')"/>
                <use id="zoomminus" xlink:href="#zoomMin" x="42" y="9" onmousedown="handleZoom(evt,'out')"/>
                <use id="reset" xlink:href="#resetDef" x="30" y="36" onmousedown="handleReset()"/>
                <g id="arrowUp" xlink:href="#dirArrow" transform="translate(30 24)" onmousedown="handlePan(0,-1)">
                  <use xlink:href="#rim" fill="#404040">
                        <set attributeName="fill" to="#808080" begin="arrowUp.mouseover" end="arrowUp.mouseout"/>
                  </use>
                  <path fill="none" stroke="white" stroke-width="1.5" d="M0,-3.0v7 M-2.5,-0.5L0,-3.0L2.5,-0.5"/>
                </g>
                <g id="arrowRight" xlink:href="#dirArrow" transform="rotate(90) translate(36 -43)" onmousedown="handlePan(1,0)">
                  <use xlink:href="#rim" fill="#404040">
                        <set attributeName="fill" to="#808080" begin="arrowRight.mouseover" end="arrowRight.mouseout"/>
                  </use>
                  <path fill="none" stroke="white" stroke-width="1.5" d="M0,-3.0v7 M-2.5,-0.5L0,-3.0L2.5,-0.5"/>
                </g>
                <g id="arrowDown" xlink:href="#dirArrow" transform="rotate(180) translate(-30 -48)" onmousedown="handlePan(0,1)">
                  <use xlink:href="#rim" fill="#404040">
                        <set attributeName="fill" to="#808080" begin="arrowDown.mouseover" end="arrowDown.mouseout"/>
                  </use>
                  <path fill="none" stroke="white" stroke-width="1.5" d="M0,-3.0v7 M-2.5,-0.5L0,-3.0L2.5,-0.5"/>
                </g>
                <g id="arrowLeft" xlink:href="#dirArrow" transform="rotate(270) translate(-36 17)" onmousedown="handlePan(-1,0)">
                  <use xlink:href="#rim" fill="#404040">
                        <set attributeName="fill" to="#808080" begin="arrowLeft.mouseover" end="arrowLeft.mouseout"/>
                  </use>
                  <path fill="none" stroke="white" stroke-width="1.5" d="M0,-3.0v7 M-2.5,-0.5L0,-3.0L2.5,-0.5"/>
                </g>
        </g>
        <svg viewBox="0 0 15 15" width="100%" height="30px" preserveAspectRatio="xMaxYMin meet">
         <g id="arrow_out" transform="scale(0.3 0.3)">
          <a xlink:href="interface_juniper_1_1_unity_1_1_events_1_1_i_long_press_handler__inherit__graph_org.svg" target="_base">
           <rect id="button" ry="5" rx="5" y="6" x="6" height="38" width="38"
                fill="#f2f5e9" fill-opacity="0.5" stroke="#606060" stroke-width="1.0"/>
           <path id="arrow"
             d="M 11.500037,31.436501 C 11.940474,20.09759 22.043105,11.32322 32.158766,21.979434 L 37.068811,17.246167 C 37.068811,17.246167 37.088388,32 37.088388,32 L 22.160133,31.978069 C 22.160133,31.978069 26.997745,27.140456 26.997745,27.140456 C 18.528582,18.264221 13.291696,25.230495 11.500037,31.436501 z"
             style="fill:#404040;"/>
          </a>
         </g>
        </svg>
</svg>
