<?xml version="1.0" encoding="UTF-8" standalone="no"?>
<!DOCTYPE svg PUBLIC "-//W3C//DTD SVG 1.1//EN"
 "http://www.w3.org/Graphics/SVG/1.1/DTD/svg11.dtd">
<!-- Generated by graphviz version 2.38.0 (20140413.2041)
 -->
<!-- Title: Juniper.Unity.Input.WindowsMRInputModule Pages: 1 -->
<svg width="323pt" height="903pt"
 viewBox="0.00 0.00 323.00 903.00" xmlns="http://www.w3.org/2000/svg" xmlns:xlink="http://www.w3.org/1999/xlink">
<g id="graph0" class="graph" transform="scale(1 1) rotate(0) translate(4 899)">
<title>Juniper.Unity.Input.WindowsMRInputModule</title>
<polygon fill="white" stroke="none" points="-4,4 -4,-899 319,-899 319,4 -4,4"/>
<!-- Node0 -->
<g id="node1" class="node"><title>Node0</title>
<g id="a_node1"><a xlink:title=" ">
<polygon fill="#bfbfbf" stroke="black" points="82.5,-0.5 82.5,-79.5 220.5,-79.5 220.5,-0.5 82.5,-0.5"/>
<text text-anchor="start" x="90.5" y="-67.5" font-family="SegoeUI" font-size="10.00">Juniper.Unity.Input.Windows</text>
<text text-anchor="middle" x="151.5" y="-56.5" font-family="SegoeUI" font-size="10.00">MRInputModule</text>
<polyline fill="none" stroke="black" points="82.5,-49.5 220.5,-49.5 "/>
<text text-anchor="middle" x="151.5" y="-37.5" font-family="SegoeUI" font-size="10.00"> </text>
<polyline fill="none" stroke="black" points="82.5,-30.5 220.5,-30.5 "/>
<text text-anchor="start" x="90.5" y="-18.5" font-family="SegoeUI" font-size="10.00">+ Install()</text>
<text text-anchor="start" x="90.5" y="-7.5" font-family="SegoeUI" font-size="10.00">+ UpdateModule()</text>
</a>
</g>
</g>
<!-- Node1 -->
<g id="node2" class="node"><title>Node1</title>
<g id="a_node2"><a xlink:href="../../d6/dd6/class_juniper_1_1_unity_1_1_input_1_1_abstract_unified_input_module.html" target="_top" xlink:title="Finds all of the IPointerDevice s and fires raycaster events for all of them.">
<polygon fill="white" stroke="black" points="78.5,-116.5 78.5,-712.5 224.5,-712.5 224.5,-116.5 78.5,-116.5"/>
<text text-anchor="middle" x="151.5" y="-700.5" font-family="SegoeUI" font-size="10.00">AbstractUnifiedInputModule</text>
<polyline fill="none" stroke="black" points="78.5,-693.5 224.5,-693.5 "/>
<text text-anchor="start" x="86.5" y="-681.5" font-family="SegoeUI" font-size="10.00">+ Devices</text>
<text text-anchor="start" x="86.5" y="-670.5" font-family="SegoeUI" font-size="10.00">+ PrimaryPointer</text>
<text text-anchor="start" x="86.5" y="-659.5" font-family="SegoeUI" font-size="10.00">+ mode</text>
<text text-anchor="start" x="86.5" y="-648.5" font-family="SegoeUI" font-size="10.00">+ pointerPrefab</text>
<text text-anchor="start" x="86.5" y="-637.5" font-family="SegoeUI" font-size="10.00">+ enableControllersToggle</text>
<text text-anchor="start" x="86.5" y="-626.5" font-family="SegoeUI" font-size="10.00">+ enableMouseToggle</text>
<text text-anchor="start" x="86.5" y="-615.5" font-family="SegoeUI" font-size="10.00">+ enableTouchToggle</text>
<text text-anchor="start" x="86.5" y="-604.5" font-family="SegoeUI" font-size="10.00">+ enableHandsToggle</text>
<text text-anchor="start" x="86.5" y="-593.5" font-family="SegoeUI" font-size="10.00">+ enableGazeToggle</text>
<text text-anchor="start" x="86.5" y="-582.5" font-family="SegoeUI" font-size="10.00">+ gazePointer</text>
<text text-anchor="start" x="86.5" y="-571.5" font-family="SegoeUI" font-size="10.00">and 6 more...</text>
<text text-anchor="start" x="86.5" y="-560.5" font-family="SegoeUI" font-size="10.00">+ AnyPointerDragging</text>
<text text-anchor="start" x="86.5" y="-549.5" font-family="SegoeUI" font-size="10.00">+ TouchConnected</text>
<text text-anchor="start" x="86.5" y="-538.5" font-family="SegoeUI" font-size="10.00">+ MotionConnected</text>
<text text-anchor="start" x="86.5" y="-527.5" font-family="SegoeUI" font-size="10.00">+ HandsConnected</text>
<text text-anchor="start" x="86.5" y="-516.5" font-family="SegoeUI" font-size="10.00"># stage</text>
<text text-anchor="start" x="86.5" y="-505.5" font-family="SegoeUI" font-size="10.00">&#45; newDevices</text>
<text text-anchor="start" x="86.5" y="-494.5" font-family="SegoeUI" font-size="10.00">&#45; ENABLE_GAZE_KEY</text>
<text text-anchor="start" x="86.5" y="-483.5" font-family="SegoeUI" font-size="10.00">&#45; ENABLE_MOUSE_KEY</text>
<text text-anchor="start" x="86.5" y="-472.5" font-family="SegoeUI" font-size="10.00">&#45; ENABLE_TOUCH_KEY</text>
<text text-anchor="start" x="86.5" y="-461.5" font-family="SegoeUI" font-size="10.00">&#45; ENABLE_HANDS_KEY</text>
<text text-anchor="start" x="86.5" y="-450.5" font-family="SegoeUI" font-size="10.00">&#45; ENABLE_CONTROLLERS_KEY</text>
<text text-anchor="start" x="86.5" y="-439.5" font-family="SegoeUI" font-size="10.00">&#45; enableControllersObject</text>
<text text-anchor="start" x="86.5" y="-428.5" font-family="SegoeUI" font-size="10.00">&#45; enableMouseObject</text>
<text text-anchor="start" x="86.5" y="-417.5" font-family="SegoeUI" font-size="10.00">&#45; enableTouchObject</text>
<text text-anchor="start" x="86.5" y="-406.5" font-family="SegoeUI" font-size="10.00">&#45; enableHandsObject</text>
<text text-anchor="start" x="86.5" y="-395.5" font-family="SegoeUI" font-size="10.00">&#45; enableGazeObject</text>
<text text-anchor="start" x="86.5" y="-384.5" font-family="SegoeUI" font-size="10.00">&#45; wasTouchAvailable</text>
<polyline fill="none" stroke="black" points="78.5,-377.5 224.5,-377.5 "/>
<text text-anchor="start" x="86.5" y="-365.5" font-family="SegoeUI" font-size="10.00">+ AddPointer()</text>
<text text-anchor="start" x="86.5" y="-354.5" font-family="SegoeUI" font-size="10.00">+ Reinstall()</text>
<text text-anchor="start" x="86.5" y="-343.5" font-family="SegoeUI" font-size="10.00">+ Install()</text>
<text text-anchor="start" x="86.5" y="-332.5" font-family="SegoeUI" font-size="10.00">+ MakePointer&lt; T &gt;()</text>
<text text-anchor="start" x="86.5" y="-321.5" font-family="SegoeUI" font-size="10.00">+ Uninstall()</text>
<text text-anchor="start" x="86.5" y="-310.5" font-family="SegoeUI" font-size="10.00">+ Clone()</text>
<text text-anchor="start" x="86.5" y="-299.5" font-family="SegoeUI" font-size="10.00">+ Process()</text>
<text text-anchor="start" x="86.5" y="-288.5" font-family="SegoeUI" font-size="10.00">+ EnableMouse()</text>
<text text-anchor="start" x="86.5" y="-277.5" font-family="SegoeUI" font-size="10.00">+ EnableGaze()</text>
<text text-anchor="start" x="86.5" y="-266.5" font-family="SegoeUI" font-size="10.00">+ EnableTouch()</text>
<text text-anchor="start" x="86.5" y="-255.5" font-family="SegoeUI" font-size="10.00">+ EnableHands()</text>
<text text-anchor="start" x="86.5" y="-244.5" font-family="SegoeUI" font-size="10.00">+ EnableControllers()</text>
<text text-anchor="start" x="86.5" y="-233.5" font-family="SegoeUI" font-size="10.00"># Awake()</text>
<text text-anchor="start" x="86.5" y="-222.5" font-family="SegoeUI" font-size="10.00">&#45; SetupDevice()</text>
<text text-anchor="start" x="86.5" y="-211.5" font-family="SegoeUI" font-size="10.00">&#45; UpdateRay()</text>
<text text-anchor="start" x="86.5" y="-200.5" font-family="SegoeUI" font-size="10.00">&#45; RaycastAll()</text>
<text text-anchor="start" x="86.5" y="-189.5" font-family="SegoeUI" font-size="10.00">&#45; GetBool()</text>
<text text-anchor="start" x="86.5" y="-178.5" font-family="SegoeUI" font-size="10.00">&#45; SetBool()</text>
<text text-anchor="start" x="86.5" y="-167.5" font-family="SegoeUI" font-size="10.00">&#45; EnableDevice()</text>
<text text-anchor="start" x="86.5" y="-156.5" font-family="SegoeUI" font-size="10.00">&#45; EnableDevice()</text>
<text text-anchor="start" x="86.5" y="-145.5" font-family="SegoeUI" font-size="10.00">&#45; EnableTouches()</text>
<text text-anchor="start" x="86.5" y="-134.5" font-family="SegoeUI" font-size="10.00">&#45; EnableHands()</text>
<text text-anchor="start" x="86.5" y="-123.5" font-family="SegoeUI" font-size="10.00">&#45; EnableControllers()</text>
</a>
</g>
</g>
<!-- Node1&#45;&gt;Node0 -->
<g id="edge1" class="edge"><title>Node1&#45;&gt;Node0</title>
<path fill="none" stroke="midnightblue" d="M151.5,-106.381C151.5,-96.6317 151.5,-87.6604 151.5,-79.6898"/>
<polygon fill="none" stroke="midnightblue" points="148,-106.381 151.5,-116.381 155,-106.381 148,-106.381"/>
</g>
<!-- Node2 -->
<g id="node3" class="node"><title>Node2</title>
<g id="a_node3"><a xlink:title=" ">
<polygon fill="white" stroke="#bfbfbf" points="0,-793.5 0,-850.5 99,-850.5 99,-793.5 0,-793.5"/>
<text text-anchor="middle" x="49.5" y="-838.5" font-family="SegoeUI" font-size="10.00">PointerInputModule</text>
<polyline fill="none" stroke="#bfbfbf" points="0,-831.5 99,-831.5 "/>
<text text-anchor="middle" x="49.5" y="-819.5" font-family="SegoeUI" font-size="10.00"> </text>
<polyline fill="none" stroke="#bfbfbf" points="0,-812.5 99,-812.5 "/>
<text text-anchor="middle" x="49.5" y="-800.5" font-family="SegoeUI" font-size="10.00"> </text>
</a>
</g>
</g>
<!-- Node2&#45;&gt;Node1 -->
<g id="edge2" class="edge"><title>Node2&#45;&gt;Node1</title>
<path fill="none" stroke="midnightblue" d="M58.9318,-783.504C64.021,-763.272 70.8157,-736.26 78.4225,-706.019"/>
<polygon fill="none" stroke="midnightblue" points="55.4759,-782.895 56.4307,-793.447 62.2644,-784.603 55.4759,-782.895"/>
</g>
<!-- Node3 -->
<g id="node4" class="node"><title>Node3</title>
<g id="a_node4"><a xlink:href="../../db/d28/interface_juniper_1_1_i_installable.html" target="_top" xlink:title="Defines an interface for objects that can be installed and have their installation progress tracked.">
<polygon fill="white" stroke="black" points="117,-782.5 117,-861.5 186,-861.5 186,-782.5 117,-782.5"/>
<text text-anchor="middle" x="151.5" y="-849.5" font-family="SegoeUI" font-size="10.00">IInstallable</text>
<polyline fill="none" stroke="black" points="117,-842.5 186,-842.5 "/>
<text text-anchor="middle" x="151.5" y="-830.5" font-family="SegoeUI" font-size="10.00"> </text>
<polyline fill="none" stroke="black" points="117,-823.5 186,-823.5 "/>
<text text-anchor="start" x="125" y="-811.5" font-family="SegoeUI" font-size="10.00">+ Install()</text>
<text text-anchor="start" x="125" y="-800.5" font-family="SegoeUI" font-size="10.00">+ Reinstall()</text>
<text text-anchor="start" x="125" y="-789.5" font-family="SegoeUI" font-size="10.00">+ Uninstall()</text>
</a>
</g>
</g>
<!-- Node3&#45;&gt;Node1 -->
<g id="edge3" class="edge"><title>Node3&#45;&gt;Node1</title>
<path fill="none" stroke="midnightblue" d="M151.5,-772.426C151.5,-755.523 151.5,-735.13 151.5,-712.76"/>
<polygon fill="none" stroke="midnightblue" points="148,-772.486 151.5,-782.486 155,-772.486 148,-772.486"/>
</g>
<!-- Node4 -->
<g id="node5" class="node"><title>Node4</title>
<g id="a_node5"><a xlink:href="../../d5/da1/interface_juniper_1_1_unity_1_1_input_1_1_i_input_module.html" target="_top" xlink:title=" ">
<polygon fill="white" stroke="black" points="204,-749.5 204,-894.5 315,-894.5 315,-749.5 204,-749.5"/>
<text text-anchor="middle" x="259.5" y="-882.5" font-family="SegoeUI" font-size="10.00">IInputModule</text>
<polyline fill="none" stroke="black" points="204,-875.5 315,-875.5 "/>
<text text-anchor="start" x="212" y="-863.5" font-family="SegoeUI" font-size="10.00">+ AnyPointerDragging</text>
<polyline fill="none" stroke="black" points="204,-856.5 315,-856.5 "/>
<text text-anchor="start" x="212" y="-844.5" font-family="SegoeUI" font-size="10.00">+ AddPointer()</text>
<text text-anchor="start" x="212" y="-833.5" font-family="SegoeUI" font-size="10.00">+ Clone()</text>
<text text-anchor="start" x="212" y="-822.5" font-family="SegoeUI" font-size="10.00">+ EnableControllers()</text>
<text text-anchor="start" x="212" y="-811.5" font-family="SegoeUI" font-size="10.00">+ EnableGaze()</text>
<text text-anchor="start" x="212" y="-800.5" font-family="SegoeUI" font-size="10.00">+ EnableHands()</text>
<text text-anchor="start" x="212" y="-789.5" font-family="SegoeUI" font-size="10.00">+ EnableMouse()</text>
<text text-anchor="start" x="212" y="-778.5" font-family="SegoeUI" font-size="10.00">+ EnableTouch()</text>
<text text-anchor="start" x="212" y="-767.5" font-family="SegoeUI" font-size="10.00">+ MakePointer&lt; T &gt;()</text>
<text text-anchor="start" x="212" y="-756.5" font-family="SegoeUI" font-size="10.00">+ Process()</text>
</a>
</g>
</g>
<!-- Node4&#45;&gt;Node1 -->
<g id="edge4" class="edge"><title>Node4&#45;&gt;Node1</title>
<path fill="none" stroke="midnightblue" d="M237.818,-739.593C233.74,-724.282 229.273,-707.51 224.586,-689.911"/>
<polygon fill="none" stroke="midnightblue" points="234.485,-740.676 240.44,-749.438 241.249,-738.874 234.485,-740.676"/>
</g>
</g>
</svg>
