<?xml version="1.0" encoding="UTF-8" standalone="no"?>
<!DOCTYPE svg PUBLIC "-//W3C//DTD SVG 1.1//EN"
 "http://www.w3.org/Graphics/SVG/1.1/DTD/svg11.dtd">
<!-- Generated by graphviz version 2.38.0 (20140413.2041)
 -->
<!-- Title: Juniper.Sound.NAudioAudioDataDecoder Pages: 1 -->
<svg width="658pt" height="744pt"
 viewBox="0.00 0.00 657.50 744.00" xmlns="http://www.w3.org/2000/svg" xmlns:xlink="http://www.w3.org/1999/xlink">
<g id="graph0" class="graph" transform="scale(1 1) rotate(0) translate(4 740)">
<title>Juniper.Sound.NAudioAudioDataDecoder</title>
<polygon fill="white" stroke="none" points="-4,4 -4,-740 653.5,-740 653.5,4 -4,4"/>
<!-- Node6 -->
<g id="node1" class="node"><title>Node6</title>
<g id="a_node1"><a xlink:title=" ">
<polygon fill="#bfbfbf" stroke="black" points="316,-0.5 316,-145.5 483,-145.5 483,-0.5 316,-0.5"/>
<text text-anchor="start" x="324" y="-133.5" font-family="SegoeUI" font-size="10.00">Juniper.Sound.NAudioAudio</text>
<text text-anchor="middle" x="399.5" y="-122.5" font-family="SegoeUI" font-size="10.00">DataDecoder</text>
<polyline fill="none" stroke="black" points="316,-115.5 483,-115.5 "/>
<text text-anchor="start" x="324" y="-103.5" font-family="SegoeUI" font-size="10.00">+ Format</text>
<text text-anchor="start" x="324" y="-92.5" font-family="SegoeUI" font-size="10.00">+ ContentType</text>
<polyline fill="none" stroke="black" points="316,-85.5 483,-85.5 "/>
<text text-anchor="start" x="324" y="-73.5" font-family="SegoeUI" font-size="10.00">+ NAudioAudioDataDecoder()</text>
<text text-anchor="start" x="324" y="-62.5" font-family="SegoeUI" font-size="10.00">+ SupportsFormat()</text>
<text text-anchor="start" x="324" y="-51.5" font-family="SegoeUI" font-size="10.00">+ MakeDecodingStream()</text>
<text text-anchor="start" x="324" y="-40.5" font-family="SegoeUI" font-size="10.00">+ Deserialize()</text>
<text text-anchor="start" x="324" y="-29.5" font-family="SegoeUI" font-size="10.00">&#45; CreateMp3FrameDecompressor()</text>
<text text-anchor="start" x="324" y="-18.5" font-family="SegoeUI" font-size="10.00">&#45; ValidateFormat()</text>
<text text-anchor="start" x="324" y="-7.5" font-family="SegoeUI" font-size="10.00">&#45; MakeAudioFormat()</text>
</a>
</g>
</g>
<!-- Node7 -->
<g id="node2" class="node"><title>Node7</title>
<g id="a_node2"><a xlink:href="../../db/d85/interface_juniper_1_1_sound_1_1_i_audio_decoder.html" target="_top" xlink:title=" ">
<polygon fill="white" stroke="black" points="172.5,-259.5 172.5,-316.5 274.5,-316.5 274.5,-259.5 172.5,-259.5"/>
<text text-anchor="middle" x="223.5" y="-304.5" font-family="SegoeUI" font-size="10.00">IAudioDecoder</text>
<polyline fill="none" stroke="black" points="172.5,-297.5 274.5,-297.5 "/>
<text text-anchor="start" x="180.5" y="-285.5" font-family="SegoeUI" font-size="10.00">+ Format</text>
<polyline fill="none" stroke="black" points="172.5,-278.5 274.5,-278.5 "/>
<text text-anchor="start" x="180.5" y="-266.5" font-family="SegoeUI" font-size="10.00">+ SupportsFormat()</text>
</a>
</g>
</g>
<!-- Node7&#45;&gt;Node6 -->
<g id="edge1" class="edge"><title>Node7&#45;&gt;Node6</title>
<path fill="none" stroke="midnightblue" d="M252.912,-251.405C276.637,-222.692 310.774,-181.379 340.137,-145.843"/>
<polygon fill="none" stroke="midnightblue" points="250.181,-249.216 246.509,-259.154 255.577,-253.675 250.181,-249.216"/>
</g>
<!-- Node8 -->
<g id="node3" class="node"><title>Node8</title>
<g id="a_node3"><a xlink:href="../../d1/d4d/interface_juniper_1_1_i_o_1_1_i_deserializer.html" target="_top" xlink:title=" ">
<polygon fill="white" stroke="black" points="0,-557 0,-614 133,-614 133,-557 0,-557"/>
<text text-anchor="middle" x="66.5" y="-602" font-family="SegoeUI" font-size="10.00">IDeserializer&lt; AudioData &gt;</text>
<polyline fill="none" stroke="black" points="0,-595 133,-595 "/>
<text text-anchor="middle" x="66.5" y="-583" font-family="SegoeUI" font-size="10.00"> </text>
<polyline fill="none" stroke="black" points="0,-576 133,-576 "/>
<text text-anchor="start" x="8" y="-564" font-family="SegoeUI" font-size="10.00">+ Deserialize()</text>
</a>
</g>
</g>
<!-- Node8&#45;&gt;Node7 -->
<g id="edge2" class="edge"><title>Node8&#45;&gt;Node7</title>
<path fill="none" stroke="midnightblue" d="M85.9705,-547.853C117.841,-487.868 180.437,-370.051 208.851,-316.572"/>
<polygon fill="none" stroke="midnightblue" points="82.7303,-546.492 81.1292,-556.965 88.912,-549.777 82.7303,-546.492"/>
</g>
<!-- Node9 -->
<g id="node4" class="node"><title>Node9</title>
<g id="a_node4"><a xlink:href="../../d1/d4d/interface_juniper_1_1_i_o_1_1_i_deserializer.html" target="_top" xlink:title=" ">
<polygon fill="white" stroke="black" points="8.5,-667.5 8.5,-735.5 124.5,-735.5 124.5,-667.5 8.5,-667.5"/>
<text text-anchor="start" x="16.5" y="-723.5" font-family="SegoeUI" font-size="10.00">Juniper.IO.IDeserializer</text>
<text text-anchor="middle" x="66.5" y="-712.5" font-family="SegoeUI" font-size="10.00">&lt; out out ResultT &gt;</text>
<polyline fill="none" stroke="black" points="8.5,-705.5 124.5,-705.5 "/>
<text text-anchor="middle" x="66.5" y="-693.5" font-family="SegoeUI" font-size="10.00"> </text>
<polyline fill="none" stroke="black" points="8.5,-686.5 124.5,-686.5 "/>
<text text-anchor="start" x="16.5" y="-674.5" font-family="SegoeUI" font-size="10.00">+ Deserialize()</text>
</a>
</g>
</g>
<!-- Node9&#45;&gt;Node8 -->
<g id="edge3" class="edge"><title>Node9&#45;&gt;Node8</title>
<path fill="none" stroke="orange" d="M66.5,-657.034C66.5,-642.673 66.5,-627.096 66.5,-614.242"/>
<polygon fill="orange" stroke="orange" points="63.0001,-657.22 66.5,-667.22 70.0001,-657.22 63.0001,-657.22"/>
<text text-anchor="middle" x="100" y="-641" font-family="SegoeUI" font-size="10.00"> &lt; AudioData &gt;</text>
</g>
<!-- Node10 -->
<g id="node5" class="node"><title>Node10</title>
<g id="a_node5"><a xlink:href="../../da/d97/interface_juniper_1_1_i_o_1_1_i_content_handler.html" target="_top" xlink:title=" ">
<polygon fill="white" stroke="black" points="151,-551.5 151,-619.5 296,-619.5 296,-551.5 151,-551.5"/>
<text text-anchor="start" x="159" y="-607.5" font-family="SegoeUI" font-size="10.00">IContentHandler&lt; MediaType.</text>
<text text-anchor="middle" x="223.5" y="-596.5" font-family="SegoeUI" font-size="10.00">Audio &gt;</text>
<polyline fill="none" stroke="black" points="151,-589.5 296,-589.5 "/>
<text text-anchor="middle" x="223.5" y="-577.5" font-family="SegoeUI" font-size="10.00"> </text>
<polyline fill="none" stroke="black" points="151,-570.5 296,-570.5 "/>
<text text-anchor="middle" x="223.5" y="-558.5" font-family="SegoeUI" font-size="10.00"> </text>
</a>
</g>
</g>
<!-- Node10&#45;&gt;Node7 -->
<g id="edge4" class="edge"><title>Node10&#45;&gt;Node7</title>
<path fill="none" stroke="midnightblue" d="M223.5,-541.284C223.5,-479.633 223.5,-368.201 223.5,-316.6"/>
<polygon fill="none" stroke="midnightblue" points="220,-541.463 223.5,-551.463 227,-541.463 220,-541.463"/>
</g>
<!-- Node11 -->
<g id="node6" class="node"><title>Node11</title>
<g id="a_node6"><a xlink:href="../../da/d97/interface_juniper_1_1_i_o_1_1_i_content_handler.html" target="_top" xlink:title=" ">
<polygon fill="white" stroke="black" points="157.5,-673 157.5,-730 289.5,-730 289.5,-673 157.5,-673"/>
<text text-anchor="middle" x="223.5" y="-718" font-family="SegoeUI" font-size="10.00">Juniper.IO.IContentHandler</text>
<polyline fill="none" stroke="black" points="157.5,-711 289.5,-711 "/>
<text text-anchor="middle" x="223.5" y="-699" font-family="SegoeUI" font-size="10.00"> </text>
<polyline fill="none" stroke="black" points="157.5,-692 289.5,-692 "/>
<text text-anchor="middle" x="223.5" y="-680" font-family="SegoeUI" font-size="10.00"> </text>
</a>
</g>
</g>
<!-- Node11&#45;&gt;Node10 -->
<g id="edge5" class="edge"><title>Node11&#45;&gt;Node10</title>
<path fill="none" stroke="orange" d="M223.5,-662.639C223.5,-648.689 223.5,-633.01 223.5,-619.521"/>
<polygon fill="orange" stroke="orange" points="220,-662.904 223.5,-672.904 227,-662.904 220,-662.904"/>
<text text-anchor="middle" x="272" y="-641" font-family="SegoeUI" font-size="10.00"> &lt; MediaType.Audio &gt;</text>
</g>
<!-- Node12 -->
<g id="node7" class="node"><title>Node12</title>
<g id="a_node7"><a xlink:href="../../d9/d26/class_juniper_1_1_sound_1_1_audio_format.html" target="_top" xlink:title=" ">
<polygon fill="white" stroke="black" points="316.5,-193.5 316.5,-382.5 482.5,-382.5 482.5,-193.5 316.5,-193.5"/>
<text text-anchor="middle" x="399.5" y="-370.5" font-family="SegoeUI" font-size="10.00">Juniper.Sound.AudioFormat</text>
<polyline fill="none" stroke="black" points="316.5,-363.5 482.5,-363.5 "/>
<text text-anchor="start" x="324.5" y="-351.5" font-family="SegoeUI" font-size="10.00">+ Raw24KHz16BitMonoPCM</text>
<text text-anchor="start" x="324.5" y="-340.5" font-family="SegoeUI" font-size="10.00">+ Riff16KHz16BitMonoPCM</text>
<text text-anchor="start" x="324.5" y="-329.5" font-family="SegoeUI" font-size="10.00">+ Audio24KHz160KbitrateMonoMP3</text>
<text text-anchor="start" x="324.5" y="-318.5" font-family="SegoeUI" font-size="10.00">+ Name</text>
<text text-anchor="start" x="324.5" y="-307.5" font-family="SegoeUI" font-size="10.00">+ ContentType</text>
<text text-anchor="start" x="324.5" y="-296.5" font-family="SegoeUI" font-size="10.00">+ SampleRate</text>
<text text-anchor="start" x="324.5" y="-285.5" font-family="SegoeUI" font-size="10.00">+ BitsPerSample</text>
<text text-anchor="start" x="324.5" y="-274.5" font-family="SegoeUI" font-size="10.00">+ Channels</text>
<polyline fill="none" stroke="black" points="316.5,-267.5 482.5,-267.5 "/>
<text text-anchor="start" x="324.5" y="-255.5" font-family="SegoeUI" font-size="10.00">+ AudioFormat()</text>
<text text-anchor="start" x="324.5" y="-244.5" font-family="SegoeUI" font-size="10.00">+ Equals()</text>
<text text-anchor="start" x="324.5" y="-233.5" font-family="SegoeUI" font-size="10.00">+ Equals()</text>
<text text-anchor="start" x="324.5" y="-222.5" font-family="SegoeUI" font-size="10.00">+ GetHashCode()</text>
<text text-anchor="start" x="324.5" y="-211.5" font-family="SegoeUI" font-size="10.00">+ operator==()</text>
<text text-anchor="start" x="324.5" y="-200.5" font-family="SegoeUI" font-size="10.00">+ operator !=()</text>
</a>
</g>
</g>
<!-- Node12&#45;&gt;Node6 -->
<g id="edge6" class="edge"><title>Node12&#45;&gt;Node6</title>
<path fill="none" stroke="#404040" d="M399.5,-193.265C399.5,-181.419 399.5,-169.36 399.5,-157.684"/>
<polygon fill="none" stroke="#404040" points="399.5,-157.681 395.5,-151.681 399.5,-145.681 403.5,-151.681 399.5,-157.681"/>
<text text-anchor="middle" x="417.5" y="-167" font-family="SegoeUI" font-size="10.00"> &#45;format</text>
</g>
<!-- Node13 -->
<g id="node8" class="node"><title>Node13</title>
<g id="a_node8"><a xlink:title=" ">
<polygon fill="white" stroke="#bfbfbf" points="314.5,-557 314.5,-614 450.5,-614 450.5,-557 314.5,-557"/>
<text text-anchor="middle" x="382.5" y="-602" font-family="SegoeUI" font-size="10.00">IEquatable&lt; AudioFormat &gt;</text>
<polyline fill="none" stroke="#bfbfbf" points="314.5,-595 450.5,-595 "/>
<text text-anchor="middle" x="382.5" y="-583" font-family="SegoeUI" font-size="10.00"> </text>
<polyline fill="none" stroke="#bfbfbf" points="314.5,-576 450.5,-576 "/>
<text text-anchor="middle" x="382.5" y="-564" font-family="SegoeUI" font-size="10.00"> </text>
</a>
</g>
</g>
<!-- Node13&#45;&gt;Node12 -->
<g id="edge7" class="edge"><title>Node13&#45;&gt;Node12</title>
<path fill="none" stroke="midnightblue" d="M384.666,-546.852C387.031,-505.741 390.908,-438.346 394.106,-382.767"/>
<polygon fill="none" stroke="midnightblue" points="381.164,-546.781 384.084,-556.965 388.153,-547.183 381.164,-546.781"/>
</g>
<!-- Node14 -->
<g id="node9" class="node"><title>Node14</title>
<g id="a_node9"><a xlink:title=" ">
<polygon fill="white" stroke="#bfbfbf" points="513,-557 513,-614 552,-614 552,-557 513,-557"/>
<text text-anchor="middle" x="532.5" y="-602" font-family="SegoeUI" font-size="10.00">static</text>
<polyline fill="none" stroke="#bfbfbf" points="513,-595 552,-595 "/>
<text text-anchor="middle" x="532.5" y="-583" font-family="SegoeUI" font-size="10.00"> </text>
<polyline fill="none" stroke="#bfbfbf" points="513,-576 552,-576 "/>
<text text-anchor="middle" x="532.5" y="-564" font-family="SegoeUI" font-size="10.00"> </text>
</a>
</g>
</g>
<!-- Node14&#45;&gt;Node6 -->
<g id="edge9" class="edge"><title>Node14&#45;&gt;Node6</title>
<path fill="none" stroke="#404040" d="M552.016,-558.238C556.712,-550.498 561.07,-541.748 563.5,-533 579.2,-476.473 573.23,-458.854 563.5,-401 547.275,-304.529 538.03,-279.052 491.5,-193 484.707,-180.438 476.619,-167.812 468.097,-155.724"/>
<polygon fill="none" stroke="#404040" points="467.887,-155.433 461.13,-152.915 460.857,-145.709 467.613,-148.227 467.887,-155.433"/>
<text text-anchor="middle" x="605" y="-285.5" font-family="SegoeUI" font-size="10.00"> +SupportedFormats</text>
</g>
<!-- Node14&#45;&gt;Node12 -->
<g id="edge8" class="edge"><title>Node14&#45;&gt;Node12</title>
<path fill="none" stroke="#404040" d="M512.752,-575.219C498.111,-568.391 477.633,-558.953 459.5,-551 440.527,-542.678 428.571,-549.838 416.5,-533 400.682,-510.935 396.425,-450.038 396.125,-394.606"/>
<polygon fill="none" stroke="#404040" points="396.126,-394.51 392.123,-388.512 396.12,-382.51 400.123,-388.508 396.126,-394.51"/>
<text text-anchor="start" x="416.5" y="-525" font-family="SegoeUI" font-size="10.00"> +Audio16KHz32KbitrateMono</text>
<text text-anchor="middle" x="490" y="-514" font-family="SegoeUI" font-size="10.00">MP3</text>
<text text-anchor="middle" x="490" y="-503" font-family="SegoeUI" font-size="10.00">+Riff24KHz16BitMonoPCM</text>
<text text-anchor="middle" x="490" y="-492" font-family="SegoeUI" font-size="10.00">+Audio24KHz94KbitrateMonoMP3</text>
<text text-anchor="middle" x="490" y="-481" font-family="SegoeUI" font-size="10.00">+Audio16KHz64KbitrateMonoMP3</text>
<text text-anchor="middle" x="490" y="-470" font-family="SegoeUI" font-size="10.00">+Riff8KHz8BitMonoALAW</text>
<text text-anchor="middle" x="490" y="-459" font-family="SegoeUI" font-size="10.00">+Audio24KHz48KbitrateMonoMP3</text>
<text text-anchor="middle" x="490" y="-448" font-family="SegoeUI" font-size="10.00">+Raw16KHz16BitMonoPCM</text>
<text text-anchor="middle" x="490" y="-437" font-family="SegoeUI" font-size="10.00">+Audio16KHz128KbitrateMonoMP3</text>
<text text-anchor="middle" x="490" y="-426" font-family="SegoeUI" font-size="10.00">+Riff8KHz8BitMonoMULAW</text>
<text text-anchor="middle" x="490" y="-415" font-family="SegoeUI" font-size="10.00">+Raw8KHz8BitMonoMULAW</text>
<text text-anchor="middle" x="490" y="-404" font-family="SegoeUI" font-size="10.00">...</text>
</g>
</g>
</svg>
