<?xml version="1.0" encoding="UTF-8" standalone="no"?>
<!DOCTYPE svg PUBLIC "-//W3C//DTD SVG 1.1//EN"
 "http://www.w3.org/Graphics/SVG/1.1/DTD/svg11.dtd">
<!-- Generated by graphviz version 2.38.0 (20140413.2041)
 -->
<!-- Title: Juniper.Unity.LightMapping.LightMapSwitcher Pages: 1 -->
<svg width="310pt" height="364pt"
 viewBox="0.00 0.00 310.00 364.00" xmlns="http://www.w3.org/2000/svg" xmlns:xlink="http://www.w3.org/1999/xlink">
<g id="graph0" class="graph" transform="scale(1 1) rotate(0) translate(4 360)">
<title>Juniper.Unity.LightMapping.LightMapSwitcher</title>
<polygon fill="white" stroke="none" points="-4,4 -4,-360 306,-360 306,4 -4,4"/>
<!-- Node2 -->
<g id="node1" class="node"><title>Node2</title>
<g id="a_node1"><a xlink:title="The LightMapSwitcher takes different sets of static light map sets and switches between them at runti...">
<polygon fill="#bfbfbf" stroke="black" points="13,-0.5 13,-101.5 147,-101.5 147,-0.5 13,-0.5"/>
<text text-anchor="start" x="21" y="-89.5" font-family="SegoeUI" font-size="10.00">Juniper.Unity.LightMapping.</text>
<text text-anchor="middle" x="80" y="-78.5" font-family="SegoeUI" font-size="10.00">LightMapSwitcher</text>
<polyline fill="none" stroke="black" points="13,-71.5 147,-71.5 "/>
<text text-anchor="start" x="21" y="-59.5" font-family="SegoeUI" font-size="10.00">+ Index</text>
<text text-anchor="start" x="21" y="-48.5" font-family="SegoeUI" font-size="10.00">+ Sun</text>
<text text-anchor="start" x="21" y="-37.5" font-family="SegoeUI" font-size="10.00">&#45; prevIndex</text>
<polyline fill="none" stroke="black" points="13,-30.5 147,-30.5 "/>
<text text-anchor="start" x="21" y="-18.5" font-family="SegoeUI" font-size="10.00">+ Update()</text>
<text text-anchor="start" x="21" y="-7.5" font-family="SegoeUI" font-size="10.00">+ Next()</text>
</a>
</g>
</g>
<!-- Node3 -->
<g id="node2" class="node"><title>Node3</title>
<g id="a_node2"><a xlink:title=" ">
<polygon fill="white" stroke="#bfbfbf" points="0,-171.5 0,-228.5 82,-228.5 82,-171.5 0,-171.5"/>
<text text-anchor="middle" x="41" y="-216.5" font-family="SegoeUI" font-size="10.00">MonoBehaviour</text>
<polyline fill="none" stroke="#bfbfbf" points="0,-209.5 82,-209.5 "/>
<text text-anchor="middle" x="41" y="-197.5" font-family="SegoeUI" font-size="10.00"> </text>
<polyline fill="none" stroke="#bfbfbf" points="0,-190.5 82,-190.5 "/>
<text text-anchor="middle" x="41" y="-178.5" font-family="SegoeUI" font-size="10.00"> </text>
</a>
</g>
</g>
<!-- Node3&#45;&gt;Node2 -->
<g id="edge1" class="edge"><title>Node3&#45;&gt;Node2</title>
<path fill="none" stroke="midnightblue" d="M50.9067,-161.659C55.7491,-143.407 61.6427,-121.193 66.8558,-101.543"/>
<polygon fill="none" stroke="midnightblue" points="47.5171,-160.787 48.3356,-171.35 54.283,-162.582 47.5171,-160.787"/>
</g>
<!-- Node4 -->
<g id="node3" class="node"><title>Node4</title>
<g id="a_node3"><a xlink:href="../../d0/dbf/class_juniper_1_1_unity_1_1_light_mapping_1_1_light_map_set.html" target="_top" xlink:title="A set of Directional, Light, and Shadow maps, for being able to switch between light maps at runtime ...">
<polygon fill="white" stroke="black" points="100,-149.5 100,-250.5 234,-250.5 234,-149.5 100,-149.5"/>
<text text-anchor="start" x="108" y="-238.5" font-family="SegoeUI" font-size="10.00">Juniper.Unity.LightMapping.</text>
<text text-anchor="middle" x="167" y="-227.5" font-family="SegoeUI" font-size="10.00">LightMapSet</text>
<polyline fill="none" stroke="black" points="100,-220.5 234,-220.5 "/>
<text text-anchor="start" x="108" y="-208.5" font-family="SegoeUI" font-size="10.00">+ direction</text>
<text text-anchor="start" x="108" y="-197.5" font-family="SegoeUI" font-size="10.00">+ light</text>
<text text-anchor="start" x="108" y="-186.5" font-family="SegoeUI" font-size="10.00">+ shadowMask</text>
<text text-anchor="start" x="108" y="-175.5" font-family="SegoeUI" font-size="10.00">+ LightMaps</text>
<polyline fill="none" stroke="black" points="100,-168.5 234,-168.5 "/>
<text text-anchor="start" x="108" y="-156.5" font-family="SegoeUI" font-size="10.00">+ Sort()</text>
</a>
</g>
</g>
<!-- Node4&#45;&gt;Node2 -->
<g id="edge2" class="edge"><title>Node4&#45;&gt;Node2</title>
<path fill="none" stroke="#404040" d="M137.546,-149.233C130.53,-137.379 122.969,-124.603 115.707,-112.333"/>
<polygon fill="none" stroke="#404040" points="115.536,-112.043 109.038,-108.917 109.424,-101.716 115.922,-104.842 115.536,-112.043"/>
<text text-anchor="middle" x="160.5" y="-123" font-family="SegoeUI" font-size="10.00"> +LightMapSets</text>
</g>
<!-- Node5 -->
<g id="node4" class="node"><title>Node5</title>
<g id="a_node4"><a xlink:title=" ">
<polygon fill="white" stroke="#bfbfbf" points="28.5,-298.5 28.5,-355.5 115.5,-355.5 115.5,-298.5 28.5,-298.5"/>
<text text-anchor="middle" x="72" y="-343.5" font-family="SegoeUI" font-size="10.00">ScriptableObject</text>
<polyline fill="none" stroke="#bfbfbf" points="28.5,-336.5 115.5,-336.5 "/>
<text text-anchor="middle" x="72" y="-324.5" font-family="SegoeUI" font-size="10.00"> </text>
<polyline fill="none" stroke="#bfbfbf" points="28.5,-317.5 115.5,-317.5 "/>
<text text-anchor="middle" x="72" y="-305.5" font-family="SegoeUI" font-size="10.00"> </text>
</a>
</g>
</g>
<!-- Node5&#45;&gt;Node4 -->
<g id="edge3" class="edge"><title>Node5&#45;&gt;Node4</title>
<path fill="none" stroke="midnightblue" d="M99.2975,-290.082C108.599,-277.843 119.172,-263.932 129.151,-250.802"/>
<polygon fill="none" stroke="midnightblue" points="96.3479,-288.179 93.0836,-298.258 101.921,-292.415 96.3479,-288.179"/>
</g>
<!-- Node6 -->
<g id="node5" class="node"><title>Node6</title>
<g id="a_node5"><a xlink:title=" ">
<polygon fill="white" stroke="#bfbfbf" points="134,-298.5 134,-355.5 200,-355.5 200,-298.5 134,-298.5"/>
<text text-anchor="middle" x="167" y="-343.5" font-family="SegoeUI" font-size="10.00">UnityEngine</text>
<polyline fill="none" stroke="#bfbfbf" points="134,-336.5 200,-336.5 "/>
<text text-anchor="middle" x="167" y="-324.5" font-family="SegoeUI" font-size="10.00"> </text>
<polyline fill="none" stroke="#bfbfbf" points="134,-317.5 200,-317.5 "/>
<text text-anchor="middle" x="167" y="-305.5" font-family="SegoeUI" font-size="10.00"> </text>
</a>
</g>
</g>
<!-- Node6&#45;&gt;Node4 -->
<g id="edge4" class="edge"><title>Node6&#45;&gt;Node4</title>
<path fill="none" stroke="#404040" d="M167,-298.258C167,-287.793 167,-275.422 167,-263.072"/>
<polygon fill="none" stroke="#404040" points="167,-262.802 163,-256.802 167,-250.802 171,-256.802 167,-262.802"/>
<text text-anchor="middle" x="203.5" y="-272" font-family="SegoeUI" font-size="10.00"> +SunOrientation</text>
</g>
<!-- Node7 -->
<g id="node6" class="node"><title>Node7</title>
<g id="a_node6"><a xlink:title=" ">
<polygon fill="white" stroke="#bfbfbf" points="243.5,-298.5 243.5,-355.5 282.5,-355.5 282.5,-298.5 243.5,-298.5"/>
<text text-anchor="middle" x="263" y="-343.5" font-family="SegoeUI" font-size="10.00">static</text>
<polyline fill="none" stroke="#bfbfbf" points="243.5,-336.5 282.5,-336.5 "/>
<text text-anchor="middle" x="263" y="-324.5" font-family="SegoeUI" font-size="10.00"> </text>
<polyline fill="none" stroke="#bfbfbf" points="243.5,-317.5 282.5,-317.5 "/>
<text text-anchor="middle" x="263" y="-305.5" font-family="SegoeUI" font-size="10.00"> </text>
</a>
</g>
</g>
<!-- Node7&#45;&gt;Node4 -->
<g id="edge5" class="edge"><title>Node7&#45;&gt;Node4</title>
<path fill="none" stroke="#404040" d="M255.204,-298.354C251.728,-288.594 247.031,-277.854 241,-269 238.907,-265.927 236.649,-262.894 234.269,-259.916"/>
<polygon fill="none" stroke="#404040" points="234.106,-259.726 227.165,-257.77 226.301,-250.611 233.242,-252.567 234.106,-259.726"/>
<text text-anchor="middle" x="274" y="-272" font-family="SegoeUI" font-size="10.00"> &#45;COMPARER</text>
</g>
</g>
</svg>
