<?xml version="1.0" encoding="UTF-8" standalone="no"?>
<!DOCTYPE svg PUBLIC "-//W3C//DTD SVG 1.1//EN"
 "http://www.w3.org/Graphics/SVG/1.1/DTD/svg11.dtd">
<!-- Generated by graphviz version 2.38.0 (20140413.2041)
 -->
<!-- Title: BitMiracle.LibJpeg.Classic.Internal.MyCCoefController Pages: 1 -->
<svg width="169pt" height="325pt"
 viewBox="0.00 0.00 169.00 325.00" xmlns="http://www.w3.org/2000/svg" xmlns:xlink="http://www.w3.org/1999/xlink">
<g id="graph0" class="graph" transform="scale(1 1) rotate(0) translate(4 321)">
<title>BitMiracle.LibJpeg.Classic.Internal.MyCCoefController</title>
<polygon fill="white" stroke="none" points="-4,4 -4,-321 165,-321 165,4 -4,4"/>
<!-- Node0 -->
<g id="node1" class="node"><title>Node0</title>
<g id="a_node1"><a xlink:title=" ">
<polygon fill="#bfbfbf" stroke="black" points="0,-0.5 0,-211.5 161,-211.5 161,-0.5 0,-0.5"/>
<text text-anchor="start" x="8" y="-199.5" font-family="SegoeUI" font-size="10.00">BitMiracle.LibJpeg.Classic.</text>
<text text-anchor="middle" x="80.5" y="-188.5" font-family="SegoeUI" font-size="10.00">Internal.MyCCoefController</text>
<polyline fill="none" stroke="black" points="0,-181.5 161,-181.5 "/>
<text text-anchor="start" x="8" y="-169.5" font-family="SegoeUI" font-size="10.00">&#45; m_passModeSetByLastStartPass</text>
<text text-anchor="start" x="8" y="-158.5" font-family="SegoeUI" font-size="10.00">&#45; m_cinfo</text>
<text text-anchor="start" x="8" y="-147.5" font-family="SegoeUI" font-size="10.00">&#45; m_iMCU_row_num</text>
<text text-anchor="start" x="8" y="-136.5" font-family="SegoeUI" font-size="10.00">&#45; m_mcu_ctr</text>
<text text-anchor="start" x="8" y="-125.5" font-family="SegoeUI" font-size="10.00">&#45; m_MCU_vert_offset</text>
<text text-anchor="start" x="8" y="-114.5" font-family="SegoeUI" font-size="10.00">&#45; m_MCU_rows_per_iMCU_row</text>
<text text-anchor="start" x="8" y="-103.5" font-family="SegoeUI" font-size="10.00">&#45; m_MCU_buffer</text>
<text text-anchor="start" x="8" y="-92.5" font-family="SegoeUI" font-size="10.00">&#45; m_whole_image</text>
<polyline fill="none" stroke="black" points="0,-85.5 161,-85.5 "/>
<text text-anchor="start" x="8" y="-73.5" font-family="SegoeUI" font-size="10.00">+ MyCCoefController()</text>
<text text-anchor="start" x="8" y="-62.5" font-family="SegoeUI" font-size="10.00">+ StartPass()</text>
<text text-anchor="start" x="8" y="-51.5" font-family="SegoeUI" font-size="10.00">+ CompressData()</text>
<text text-anchor="start" x="8" y="-40.5" font-family="SegoeUI" font-size="10.00">&#45; CompressDataImpl()</text>
<text text-anchor="start" x="8" y="-29.5" font-family="SegoeUI" font-size="10.00">&#45; CompressFirstPass()</text>
<text text-anchor="start" x="8" y="-18.5" font-family="SegoeUI" font-size="10.00">&#45; CompressOutput()</text>
<text text-anchor="start" x="8" y="-7.5" font-family="SegoeUI" font-size="10.00">&#45; StartIMcuRow()</text>
</a>
</g>
</g>
<!-- Node1 -->
<g id="node2" class="node"><title>Node1</title>
<g id="a_node2"><a xlink:href="../../d2/d0f/interface_bit_miracle_1_1_lib_jpeg_1_1_classic_1_1_internal_1_1_jpeg_c_coef_controller.html" target="_top" xlink:title="Coefficient buffer control">
<polygon fill="white" stroke="black" points="28.5,-248.5 28.5,-316.5 132.5,-316.5 132.5,-248.5 28.5,-248.5"/>
<text text-anchor="middle" x="80.5" y="-304.5" font-family="SegoeUI" font-size="10.00">JpegCCoefController</text>
<polyline fill="none" stroke="black" points="28.5,-297.5 132.5,-297.5 "/>
<text text-anchor="middle" x="80.5" y="-285.5" font-family="SegoeUI" font-size="10.00"> </text>
<polyline fill="none" stroke="black" points="28.5,-278.5 132.5,-278.5 "/>
<text text-anchor="start" x="36.5" y="-266.5" font-family="SegoeUI" font-size="10.00">+ StartPass()</text>
<text text-anchor="start" x="36.5" y="-255.5" font-family="SegoeUI" font-size="10.00">+ CompressData()</text>
</a>
</g>
</g>
<!-- Node1&#45;&gt;Node0 -->
<g id="edge1" class="edge"><title>Node1&#45;&gt;Node0</title>
<path fill="none" stroke="midnightblue" d="M80.5,-238.221C80.5,-229.963 80.5,-220.994 80.5,-211.752"/>
<polygon fill="none" stroke="midnightblue" points="77.0001,-238.267 80.5,-248.267 84.0001,-238.267 77.0001,-238.267"/>
</g>
</g>
</svg>
