<?xml version="1.0" encoding="UTF-8" standalone="no"?>
<!DOCTYPE svg PUBLIC "-//W3C//DTD SVG 1.1//EN"
 "http://www.w3.org/Graphics/SVG/1.1/DTD/svg11.dtd">
<!-- Generated by graphviz version 2.38.0 (20140413.2041)
 -->
<!-- Title: Juniper.HTTP.Server.Controllers.StaticFileServer Pages: 1 -->
<!--zoomable 1109 -->
<svg id="main" version="1.1" xmlns="http://www.w3.org/2000/svg" xmlns:xlink="http://www.w3.org/1999/xlink" xml:space="preserve" onload="init(evt)">
<style type="text/css"><![CDATA[
.edge:hover path { stroke: red; }
.edge:hover polygon { stroke: red; fill: red; }
]]></style>
<script type="text/javascript"><![CDATA[
var edges = document.getElementsByTagName('g');
if (edges && edges.length) {
  for (var i=0;i<edges.length;i++) {
    if (edges[i].id.substr(0,4)=='edge') {
      edges[i].setAttribute('class','edge');
    }
  }
}
]]></script>
        <defs>
                <circle id="rim" cx="0" cy="0" r="7"/>
                <circle id="rim2" cx="0" cy="0" r="3.5"/>
                <g id="zoomPlus">
                        <use xlink:href="#rim" fill="#404040">
                                <set attributeName="fill" to="#808080" begin="zoomplus.mouseover" end="zoomplus.mouseout"/>
                        </use>
                        <path d="M-4,0h8M0,-4v8" fill="none" stroke="white" stroke-width="1.5" pointer-events="none"/>
                </g>
                <g id="zoomMin">
                        <use xlink:href="#rim" fill="#404040">
                                <set attributeName="fill" to="#808080" begin="zoomminus.mouseover" end="zoomminus.mouseout"/>
                        </use>
                        <path d="M-4,0h8" fill="none" stroke="white" stroke-width="1.5" pointer-events="none"/>
                </g>
                <g id="dirArrow">
                        <path fill="none" stroke="white" stroke-width="1.5" d="M0,-3.0v7 M-2.5,-0.5L0,-3.0L2.5,-0.5"/>
                </g>
               <g id="resetDef">
                       <use xlink:href="#rim2" fill="#404040">
                               <set attributeName="fill" to="#808080" begin="reset.mouseover" end="reset.mouseout"/>
                       </use>
               </g>
        </defs>

<script type="text/javascript">
var viewWidth = 783;
var viewHeight = 1109;
var sectionId = 'dynsection-1';
</script>
<script xlink:href="../../svgpan.js"/>
<svg id="graph" class="graph">
<g id="viewport">
<title>Juniper.HTTP.Server.Controllers.StaticFileServer</title>
<polygon fill="white" stroke="none" points="-4,4 -4,-1105 779,-1105 779,4 -4,4"/>
<!-- Node10 -->
<g id="node1" class="node"><title>Node10</title>
<g id="a_node1"><a xlink:title=" ">
<polygon fill="#bfbfbf" stroke="black" points="524,-0.5 524,-156.5 682,-156.5 682,-0.5 524,-0.5"/>
<text text-anchor="start" x="532" y="-144.5" font-family="SegoeUI" font-size="10.00">Juniper.HTTP.Server.Controllers.</text>
<text text-anchor="middle" x="603" y="-133.5" font-family="SegoeUI" font-size="10.00">StaticFileServer</text>
<polyline fill="none" stroke="black" points="524,-126.5 682,-126.5 "/>
<text text-anchor="start" x="532" y="-114.5" font-family="SegoeUI" font-size="10.00">&#45; rootDirectory</text>
<polyline fill="none" stroke="black" points="524,-107.5 682,-107.5 "/>
<text text-anchor="start" x="532" y="-95.5" font-family="SegoeUI" font-size="10.00">+ StaticFileServer()</text>
<text text-anchor="start" x="532" y="-84.5" font-family="SegoeUI" font-size="10.00">+ StaticFileServer()</text>
<text text-anchor="start" x="532" y="-73.5" font-family="SegoeUI" font-size="10.00"># InvokeAsync()</text>
<text text-anchor="start" x="532" y="-62.5" font-family="SegoeUI" font-size="10.00">&#45; ListDirectoryAsync()</text>
<text text-anchor="start" x="532" y="-51.5" font-family="SegoeUI" font-size="10.00">&#45; MakeShortName()</text>
<text text-anchor="start" x="532" y="-40.5" font-family="SegoeUI" font-size="10.00">&#45; FindDefaultFile()</text>
<text text-anchor="start" x="532" y="-29.5" font-family="SegoeUI" font-size="10.00">&#45; ValidateDirectoryPath()</text>
<text text-anchor="start" x="532" y="-18.5" font-family="SegoeUI" font-size="10.00">&#45; ValidateAcceptTypes()</text>
<text text-anchor="start" x="532" y="-7.5" font-family="SegoeUI" font-size="10.00">&#45; MassageRequestPath()</text>
</a>
</g>
</g>
<!-- Node11 -->
<g id="node2" class="node"><title>Node11</title>
<g id="a_node2"><a xlink:href="../../d9/d5c/class_juniper_1_1_h_t_t_p_1_1_server_1_1_controllers_1_1_abstract_response.html" target="_top" xlink:title=" ">
<polygon fill="white" stroke="black" points="425.5,-194.5 425.5,-779.5 562.5,-779.5 562.5,-194.5 425.5,-194.5"/>
<text text-anchor="middle" x="494" y="-767.5" font-family="SegoeUI" font-size="10.00">AbstractResponse</text>
<polyline fill="none" stroke="black" points="425.5,-760.5 562.5,-760.5 "/>
<text text-anchor="start" x="433.5" y="-748.5" font-family="SegoeUI" font-size="10.00">+ AllAuthSchemes</text>
<text text-anchor="start" x="433.5" y="-737.5" font-family="SegoeUI" font-size="10.00">+ AllProtocols</text>
<text text-anchor="start" x="433.5" y="-726.5" font-family="SegoeUI" font-size="10.00">+ AllMethods</text>
<text text-anchor="start" x="433.5" y="-715.5" font-family="SegoeUI" font-size="10.00">+ Name</text>
<text text-anchor="start" x="433.5" y="-704.5" font-family="SegoeUI" font-size="10.00">+ Pattern</text>
<text text-anchor="start" x="433.5" y="-693.5" font-family="SegoeUI" font-size="10.00">+ RegexSource</text>
<text text-anchor="start" x="433.5" y="-682.5" font-family="SegoeUI" font-size="10.00">+ ParameterCount</text>
<text text-anchor="start" x="433.5" y="-671.5" font-family="SegoeUI" font-size="10.00">+ Priority</text>
<text text-anchor="start" x="433.5" y="-660.5" font-family="SegoeUI" font-size="10.00">+ Protocols</text>
<text text-anchor="start" x="433.5" y="-649.5" font-family="SegoeUI" font-size="10.00">+ Methods</text>
<text text-anchor="start" x="433.5" y="-638.5" font-family="SegoeUI" font-size="10.00">+ Authentication</text>
<text text-anchor="start" x="433.5" y="-627.5" font-family="SegoeUI" font-size="10.00">+ StatusCodes</text>
<text text-anchor="start" x="433.5" y="-616.5" font-family="SegoeUI" font-size="10.00">+ Accept</text>
<text text-anchor="start" x="433.5" y="-605.5" font-family="SegoeUI" font-size="10.00">+ Headers</text>
<text text-anchor="start" x="433.5" y="-594.5" font-family="SegoeUI" font-size="10.00">+ Enabled</text>
<text text-anchor="start" x="433.5" y="-583.5" font-family="SegoeUI" font-size="10.00">+ Server</text>
<polyline fill="none" stroke="black" points="425.5,-576.5 562.5,-576.5 "/>
<text text-anchor="start" x="433.5" y="-564.5" font-family="SegoeUI" font-size="10.00">+ IsProtocolMatch()</text>
<text text-anchor="start" x="433.5" y="-553.5" font-family="SegoeUI" font-size="10.00">+ IsMethodMatch()</text>
<text text-anchor="start" x="433.5" y="-542.5" font-family="SegoeUI" font-size="10.00">+ IsPatternMatch()</text>
<text text-anchor="start" x="433.5" y="-531.5" font-family="SegoeUI" font-size="10.00">+ IsAcceptable()</text>
<text text-anchor="start" x="433.5" y="-520.5" font-family="SegoeUI" font-size="10.00">+ IsStatusCodeMatch()</text>
<text text-anchor="start" x="433.5" y="-509.5" font-family="SegoeUI" font-size="10.00">+ IsHeaderMatch()</text>
<text text-anchor="start" x="433.5" y="-498.5" font-family="SegoeUI" font-size="10.00">+ IsContextMatch()</text>
<text text-anchor="start" x="433.5" y="-487.5" font-family="SegoeUI" font-size="10.00">+ IsRequestMatch()</text>
<text text-anchor="start" x="433.5" y="-476.5" font-family="SegoeUI" font-size="10.00">+ ExecuteAsync()</text>
<text text-anchor="start" x="433.5" y="-465.5" font-family="SegoeUI" font-size="10.00">+ Equals()</text>
<text text-anchor="start" x="433.5" y="-454.5" font-family="SegoeUI" font-size="10.00">+ Equals()</text>
<text text-anchor="start" x="433.5" y="-443.5" font-family="SegoeUI" font-size="10.00">+ ToString()</text>
<text text-anchor="start" x="433.5" y="-432.5" font-family="SegoeUI" font-size="10.00">+ CompareTo()</text>
<text text-anchor="start" x="433.5" y="-421.5" font-family="SegoeUI" font-size="10.00">+ CompareTo()</text>
<text text-anchor="start" x="433.5" y="-410.5" font-family="SegoeUI" font-size="10.00">+ GetHashCode()</text>
<text text-anchor="start" x="433.5" y="-399.5" font-family="SegoeUI" font-size="10.00">+ operator==()</text>
<text text-anchor="start" x="433.5" y="-388.5" font-family="SegoeUI" font-size="10.00">+ operator !=()</text>
<text text-anchor="start" x="433.5" y="-377.5" font-family="SegoeUI" font-size="10.00">+ operator&lt;()</text>
<text text-anchor="start" x="433.5" y="-366.5" font-family="SegoeUI" font-size="10.00">+ operator &gt;()</text>
<text text-anchor="start" x="433.5" y="-355.5" font-family="SegoeUI" font-size="10.00">+ operator&lt;=()</text>
<text text-anchor="start" x="433.5" y="-344.5" font-family="SegoeUI" font-size="10.00">+ operator &gt;=()</text>
<text text-anchor="start" x="433.5" y="-333.5" font-family="SegoeUI" font-size="10.00"># AbstractResponse()</text>
<text text-anchor="start" x="433.5" y="-322.5" font-family="SegoeUI" font-size="10.00"># AbstractResponse??????()</text>
<text text-anchor="start" x="433.5" y="-311.5" font-family="SegoeUI" font-size="10.00"># AbstractResponse??()</text>
<text text-anchor="start" x="433.5" y="-300.5" font-family="SegoeUI" font-size="10.00"># AbstractResponse??????()</text>
<text text-anchor="start" x="433.5" y="-289.5" font-family="SegoeUI" font-size="10.00"># AbstractResponse????()</text>
<text text-anchor="start" x="433.5" y="-278.5" font-family="SegoeUI" font-size="10.00"># AbstractResponse??????()</text>
<text text-anchor="start" x="433.5" y="-267.5" font-family="SegoeUI" font-size="10.00"># AbstractResponse??()</text>
<text text-anchor="start" x="433.5" y="-256.5" font-family="SegoeUI" font-size="10.00"># AbstractResponse??????()</text>
<text text-anchor="start" x="433.5" y="-245.5" font-family="SegoeUI" font-size="10.00"># AbstractResponse????()</text>
<text text-anchor="start" x="433.5" y="-234.5" font-family="SegoeUI" font-size="10.00"># InvokeAsync()</text>
<text text-anchor="start" x="433.5" y="-223.5" font-family="SegoeUI" font-size="10.00"># OnInfo()</text>
<text text-anchor="start" x="433.5" y="-212.5" font-family="SegoeUI" font-size="10.00"># OnWarning()</text>
<text text-anchor="start" x="433.5" y="-201.5" font-family="SegoeUI" font-size="10.00"># OnError()</text>
</a>
</g>
</g>
<!-- Node11&#45;&gt;Node10 -->
<g id="edge1" class="edge"><title>Node11&#45;&gt;Node10</title>
<path fill="none" stroke="midnightblue" d="M565.205,-220.452C571.317,-197.657 577.119,-176.019 582.26,-156.847"/>
<polygon fill="none" stroke="midnightblue" points="561.777,-219.723 562.567,-230.288 568.538,-221.536 561.777,-219.723"/>
</g>
<!-- Node12 -->
<g id="node3" class="node"><title>Node12</title>
<g id="a_node3"><a xlink:title=" ">
<polygon fill="white" stroke="#bfbfbf" points="0,-910 0,-967 158,-967 158,-910 0,-910"/>
<text text-anchor="middle" x="79" y="-955" font-family="SegoeUI" font-size="10.00">IEquatable&lt; AbstractResponse &gt;</text>
<polyline fill="none" stroke="#bfbfbf" points="0,-948 158,-948 "/>
<text text-anchor="middle" x="79" y="-936" font-family="SegoeUI" font-size="10.00"> </text>
<polyline fill="none" stroke="#bfbfbf" points="0,-929 158,-929 "/>
<text text-anchor="middle" x="79" y="-917" font-family="SegoeUI" font-size="10.00"> </text>
</a>
</g>
</g>
<!-- Node12&#45;&gt;Node11 -->
<g id="edge2" class="edge"><title>Node12&#45;&gt;Node11</title>
<path fill="none" stroke="midnightblue" d="M111.648,-902.138C178.98,-829.209 334.521,-660.737 425.111,-562.616"/>
<polygon fill="none" stroke="midnightblue" points="108.859,-899.999 104.647,-909.721 114.002,-904.748 108.859,-899.999"/>
</g>
<!-- Node13 -->
<g id="node4" class="node"><title>Node13</title>
<g id="a_node4"><a xlink:title=" ">
<polygon fill="white" stroke="#bfbfbf" points="176.5,-910 176.5,-967 247.5,-967 247.5,-910 176.5,-910"/>
<text text-anchor="middle" x="212" y="-955" font-family="SegoeUI" font-size="10.00">IComparable</text>
<polyline fill="none" stroke="#bfbfbf" points="176.5,-948 247.5,-948 "/>
<text text-anchor="middle" x="212" y="-936" font-family="SegoeUI" font-size="10.00"> </text>
<polyline fill="none" stroke="#bfbfbf" points="176.5,-929 247.5,-929 "/>
<text text-anchor="middle" x="212" y="-917" font-family="SegoeUI" font-size="10.00"> </text>
</a>
</g>
</g>
<!-- Node13&#45;&gt;Node11 -->
<g id="edge3" class="edge"><title>Node13&#45;&gt;Node11</title>
<path fill="none" stroke="midnightblue" d="M234.897,-901.003C275.896,-835.651 363.34,-696.269 425.279,-597.54"/>
<polygon fill="none" stroke="midnightblue" points="231.777,-899.39 229.428,-909.721 237.707,-903.11 231.777,-899.39"/>
</g>
<!-- Node14 -->
<g id="node5" class="node"><title>Node14</title>
<g id="a_node5"><a xlink:title=" ">
<polygon fill="white" stroke="#bfbfbf" points="265.5,-910 265.5,-967 432.5,-967 432.5,-910 265.5,-910"/>
<text text-anchor="middle" x="349" y="-955" font-family="SegoeUI" font-size="10.00">IComparable&lt; AbstractResponse &gt;</text>
<polyline fill="none" stroke="#bfbfbf" points="265.5,-948 432.5,-948 "/>
<text text-anchor="middle" x="349" y="-936" font-family="SegoeUI" font-size="10.00"> </text>
<polyline fill="none" stroke="#bfbfbf" points="265.5,-929 432.5,-929 "/>
<text text-anchor="middle" x="349" y="-917" font-family="SegoeUI" font-size="10.00"> </text>
</a>
</g>
</g>
<!-- Node14&#45;&gt;Node11 -->
<g id="edge4" class="edge"><title>Node14&#45;&gt;Node11</title>
<path fill="none" stroke="midnightblue" d="M361.039,-900.178C375.452,-855.5 400.747,-777.085 425.432,-700.561"/>
<polygon fill="none" stroke="midnightblue" points="357.7,-899.129 357.961,-909.721 364.362,-901.278 357.7,-899.129"/>
</g>
<!-- Node15 -->
<g id="node6" class="node"><title>Node15</title>
<g id="a_node6"><a xlink:href="../../d4/d74/interface_juniper_1_1_h_t_t_p_1_1_server_1_1_i_request_handler.html" target="_top" xlink:title=" ">
<polygon fill="white" stroke="black" points="450.5,-871.5 450.5,-1005.5 537.5,-1005.5 537.5,-871.5 450.5,-871.5"/>
<text text-anchor="middle" x="494" y="-993.5" font-family="SegoeUI" font-size="10.00">IRequestHandler</text>
<polyline fill="none" stroke="black" points="450.5,-986.5 537.5,-986.5 "/>
<text text-anchor="start" x="458.5" y="-974.5" font-family="SegoeUI" font-size="10.00">+ Priority</text>
<text text-anchor="start" x="458.5" y="-963.5" font-family="SegoeUI" font-size="10.00">+ Protocols</text>
<text text-anchor="start" x="458.5" y="-952.5" font-family="SegoeUI" font-size="10.00">+ Methods</text>
<text text-anchor="start" x="458.5" y="-941.5" font-family="SegoeUI" font-size="10.00">+ Pattern</text>
<text text-anchor="start" x="458.5" y="-930.5" font-family="SegoeUI" font-size="10.00">+ Authentication</text>
<text text-anchor="start" x="458.5" y="-919.5" font-family="SegoeUI" font-size="10.00">+ Accept</text>
<text text-anchor="start" x="458.5" y="-908.5" font-family="SegoeUI" font-size="10.00">+ StatusCodes</text>
<text text-anchor="start" x="458.5" y="-897.5" font-family="SegoeUI" font-size="10.00">+ Headers</text>
<polyline fill="none" stroke="black" points="450.5,-890.5 537.5,-890.5 "/>
<text text-anchor="middle" x="494" y="-878.5" font-family="SegoeUI" font-size="10.00"> </text>
</a>
</g>
</g>
<!-- Node15&#45;&gt;Node11 -->
<g id="edge5" class="edge"><title>Node15&#45;&gt;Node11</title>
<path fill="none" stroke="midnightblue" d="M494,-860.887C494,-837.107 494,-809.337 494,-779.872"/>
<polygon fill="none" stroke="midnightblue" points="490.5,-861.175 494,-871.175 497.5,-861.175 490.5,-861.175"/>
</g>
<!-- Node16 -->
<g id="node7" class="node"><title>Node16</title>
<g id="a_node7"><a xlink:href="../../df/d21/interface_juniper_1_1_logging_1_1_i_logging_source.html" target="_top" xlink:title=" ">
<polygon fill="white" stroke="black" points="555.5,-910 555.5,-967 638.5,-967 638.5,-910 555.5,-910"/>
<text text-anchor="middle" x="597" y="-955" font-family="SegoeUI" font-size="10.00">ILoggingSource</text>
<polyline fill="none" stroke="black" points="555.5,-948 638.5,-948 "/>
<text text-anchor="middle" x="597" y="-936" font-family="SegoeUI" font-size="10.00"> </text>
<polyline fill="none" stroke="black" points="555.5,-929 638.5,-929 "/>
<text text-anchor="middle" x="597" y="-917" font-family="SegoeUI" font-size="10.00"> </text>
</a>
</g>
</g>
<!-- Node16&#45;&gt;Node11 -->
<g id="edge6" class="edge"><title>Node16&#45;&gt;Node11</title>
<path fill="none" stroke="midnightblue" d="M576.865,-900.602C569.676,-886.115 562.102,-869.121 557,-853 549.53,-829.397 542.881,-804.637 536.977,-779.604"/>
<polygon fill="none" stroke="midnightblue" points="573.852,-902.398 581.504,-909.725 580.091,-899.225 573.852,-902.398"/>
</g>
<!-- Node17 -->
<g id="node8" class="node"><title>Node17</title>
<g id="a_node8"><a xlink:href="../../de/dad/interface_juniper_1_1_logging_1_1_i_info_source.html" target="_top" xlink:title=" ">
<polygon fill="white" stroke="black" points="470,-1043.5 470,-1100.5 536,-1100.5 536,-1043.5 470,-1043.5"/>
<text text-anchor="middle" x="503" y="-1088.5" font-family="SegoeUI" font-size="10.00">IInfoSource</text>
<polyline fill="none" stroke="black" points="470,-1081.5 536,-1081.5 "/>
<text text-anchor="middle" x="503" y="-1069.5" font-family="SegoeUI" font-size="10.00"> </text>
<polyline fill="none" stroke="black" points="470,-1062.5 536,-1062.5 "/>
<text text-anchor="middle" x="503" y="-1050.5" font-family="SegoeUI" font-size="10.00"> </text>
</a>
</g>
</g>
<!-- Node17&#45;&gt;Node16 -->
<g id="edge7" class="edge"><title>Node17&#45;&gt;Node16</title>
<path fill="none" stroke="midnightblue" d="M528.592,-1035.2C543.941,-1013.73 563.164,-986.835 577.32,-967.03"/>
<polygon fill="none" stroke="midnightblue" points="525.673,-1033.26 522.705,-1043.43 531.368,-1037.33 525.673,-1033.26"/>
</g>
<!-- Node18 -->
<g id="node9" class="node"><title>Node18</title>
<g id="a_node9"><a xlink:href="../../d6/d23/interface_juniper_1_1_logging_1_1_i_warning_source.html" target="_top" xlink:title=" ">
<polygon fill="white" stroke="black" points="554,-1043.5 554,-1100.5 640,-1100.5 640,-1043.5 554,-1043.5"/>
<text text-anchor="middle" x="597" y="-1088.5" font-family="SegoeUI" font-size="10.00">IWarningSource</text>
<polyline fill="none" stroke="black" points="554,-1081.5 640,-1081.5 "/>
<text text-anchor="middle" x="597" y="-1069.5" font-family="SegoeUI" font-size="10.00"> </text>
<polyline fill="none" stroke="black" points="554,-1062.5 640,-1062.5 "/>
<text text-anchor="middle" x="597" y="-1050.5" font-family="SegoeUI" font-size="10.00"> </text>
</a>
</g>
</g>
<!-- Node18&#45;&gt;Node16 -->
<g id="edge8" class="edge"><title>Node18&#45;&gt;Node16</title>
<path fill="none" stroke="midnightblue" d="M597,-1033.19C597,-1012.07 597,-986.221 597,-967.03"/>
<polygon fill="none" stroke="midnightblue" points="593.5,-1033.43 597,-1043.43 600.5,-1033.43 593.5,-1033.43"/>
</g>
<!-- Node19 -->
<g id="node10" class="node"><title>Node19</title>
<g id="a_node10"><a xlink:href="../../d4/d12/interface_juniper_1_1_logging_1_1_i_error_source.html" target="_top" xlink:title=" ">
<polygon fill="white" stroke="black" points="658.5,-1043.5 658.5,-1100.5 729.5,-1100.5 729.5,-1043.5 658.5,-1043.5"/>
<text text-anchor="middle" x="694" y="-1088.5" font-family="SegoeUI" font-size="10.00">IErrorSource</text>
<polyline fill="none" stroke="black" points="658.5,-1081.5 729.5,-1081.5 "/>
<text text-anchor="middle" x="694" y="-1069.5" font-family="SegoeUI" font-size="10.00"> </text>
<polyline fill="none" stroke="black" points="658.5,-1062.5 729.5,-1062.5 "/>
<text text-anchor="middle" x="694" y="-1050.5" font-family="SegoeUI" font-size="10.00"> </text>
</a>
</g>
</g>
<!-- Node19&#45;&gt;Node16 -->
<g id="edge9" class="edge"><title>Node19&#45;&gt;Node16</title>
<path fill="none" stroke="midnightblue" d="M667.591,-1035.2C651.752,-1013.73 631.916,-986.835 617.308,-967.03"/>
<polygon fill="none" stroke="midnightblue" points="664.913,-1037.46 673.666,-1043.43 670.546,-1033.31 664.913,-1037.46"/>
</g>
<!-- Node20 -->
<g id="node11" class="node"><title>Node20</title>
<g id="a_node11"><a xlink:title=" ">
<polygon fill="white" stroke="#bfbfbf" points="656.5,-910 656.5,-967 695.5,-967 695.5,-910 656.5,-910"/>
<text text-anchor="middle" x="676" y="-955" font-family="SegoeUI" font-size="10.00">static</text>
<polyline fill="none" stroke="#bfbfbf" points="656.5,-948 695.5,-948 "/>
<text text-anchor="middle" x="676" y="-936" font-family="SegoeUI" font-size="10.00"> </text>
<polyline fill="none" stroke="#bfbfbf" points="656.5,-929 695.5,-929 "/>
<text text-anchor="middle" x="676" y="-917" font-family="SegoeUI" font-size="10.00"> </text>
</a>
</g>
</g>
<!-- Node20&#45;&gt;Node10 -->
<g id="edge11" class="edge"><title>Node20&#45;&gt;Node10</title>
<path fill="none" stroke="#404040" d="M673.654,-909.925C663.959,-795.971 626.77,-358.884 610.592,-168.73"/>
<polygon fill="none" stroke="#404040" points="610.574,-168.525 606.08,-162.886 609.557,-156.568 614.051,-162.208 610.574,-168.525"/>
<text text-anchor="middle" x="719" y="-490" font-family="SegoeUI" font-size="10.00"> &#45;DEFAULT_MEDIA_TYPES</text>
<text text-anchor="middle" x="719" y="-479" font-family="SegoeUI" font-size="10.00">&#45;INDEX_FILES</text>
</g>
<!-- Node20&#45;&gt;Node11 -->
<g id="edge10" class="edge"><title>Node20&#45;&gt;Node11</title>
<path fill="none" stroke="#404040" d="M669.879,-909.899C665.574,-896.442 658.468,-881.037 647,-871 625.087,-851.822 604.212,-873.964 584,-853 577.343,-846.095 568.998,-823.118 560.092,-791.812"/>
<polygon fill="none" stroke="#404040" points="559.999,-791.478 554.539,-786.768 556.787,-779.916 562.247,-784.627 559.999,-791.478"/>
<text text-anchor="middle" x="620.5" y="-845" font-family="SegoeUI" font-size="10.00"> +AllRoutes</text>
<text text-anchor="middle" x="620.5" y="-834" font-family="SegoeUI" font-size="10.00">+AllStatusCodes</text>
<text text-anchor="middle" x="620.5" y="-823" font-family="SegoeUI" font-size="10.00">+DefaultCode</text>
<text text-anchor="middle" x="620.5" y="-812" font-family="SegoeUI" font-size="10.00">+NoHeaders</text>
<text text-anchor="middle" x="620.5" y="-801" font-family="SegoeUI" font-size="10.00">+AnyMediaTypes</text>
</g>
</g>
</svg>
        <g id="navigator" transform="translate(0 0)" fill="#404254">
                <rect fill="#f2f5e9" fill-opacity="0.5" stroke="#606060" stroke-width=".5" x="0" y="0" width="60" height="60"/>
                <use id="zoomplus" xlink:href="#zoomPlus" x="17" y="9" onmousedown="handleZoom(evt,'in')"/>
                <use id="zoomminus" xlink:href="#zoomMin" x="42" y="9" onmousedown="handleZoom(evt,'out')"/>
                <use id="reset" xlink:href="#resetDef" x="30" y="36" onmousedown="handleReset()"/>
                <g id="arrowUp" xlink:href="#dirArrow" transform="translate(30 24)" onmousedown="handlePan(0,-1)">
                  <use xlink:href="#rim" fill="#404040">
                        <set attributeName="fill" to="#808080" begin="arrowUp.mouseover" end="arrowUp.mouseout"/>
                  </use>
                  <path fill="none" stroke="white" stroke-width="1.5" d="M0,-3.0v7 M-2.5,-0.5L0,-3.0L2.5,-0.5"/>
                </g>
                <g id="arrowRight" xlink:href="#dirArrow" transform="rotate(90) translate(36 -43)" onmousedown="handlePan(1,0)">
                  <use xlink:href="#rim" fill="#404040">
                        <set attributeName="fill" to="#808080" begin="arrowRight.mouseover" end="arrowRight.mouseout"/>
                  </use>
                  <path fill="none" stroke="white" stroke-width="1.5" d="M0,-3.0v7 M-2.5,-0.5L0,-3.0L2.5,-0.5"/>
                </g>
                <g id="arrowDown" xlink:href="#dirArrow" transform="rotate(180) translate(-30 -48)" onmousedown="handlePan(0,1)">
                  <use xlink:href="#rim" fill="#404040">
                        <set attributeName="fill" to="#808080" begin="arrowDown.mouseover" end="arrowDown.mouseout"/>
                  </use>
                  <path fill="none" stroke="white" stroke-width="1.5" d="M0,-3.0v7 M-2.5,-0.5L0,-3.0L2.5,-0.5"/>
                </g>
                <g id="arrowLeft" xlink:href="#dirArrow" transform="rotate(270) translate(-36 17)" onmousedown="handlePan(-1,0)">
                  <use xlink:href="#rim" fill="#404040">
                        <set attributeName="fill" to="#808080" begin="arrowLeft.mouseover" end="arrowLeft.mouseout"/>
                  </use>
                  <path fill="none" stroke="white" stroke-width="1.5" d="M0,-3.0v7 M-2.5,-0.5L0,-3.0L2.5,-0.5"/>
                </g>
        </g>
        <svg viewBox="0 0 15 15" width="100%" height="30px" preserveAspectRatio="xMaxYMin meet">
         <g id="arrow_out" transform="scale(0.3 0.3)">
          <a xlink:href="class_juniper_1_1_h_t_t_p_1_1_server_1_1_controllers_1_1_static_file_server__coll__graph_org.svg" target="_base">
           <rect id="button" ry="5" rx="5" y="6" x="6" height="38" width="38"
                fill="#f2f5e9" fill-opacity="0.5" stroke="#606060" stroke-width="1.0"/>
           <path id="arrow"
             d="M 11.500037,31.436501 C 11.940474,20.09759 22.043105,11.32322 32.158766,21.979434 L 37.068811,17.246167 C 37.068811,17.246167 37.088388,32 37.088388,32 L 22.160133,31.978069 C 22.160133,31.978069 26.997745,27.140456 26.997745,27.140456 C 18.528582,18.264221 13.291696,25.230495 11.500037,31.436501 z"
             style="fill:#404040;"/>
          </a>
         </g>
        </svg>
</svg>
