<?xml version="1.0" encoding="UTF-8" standalone="no"?>
<!DOCTYPE svg PUBLIC "-//W3C//DTD SVG 1.1//EN"
 "http://www.w3.org/Graphics/SVG/1.1/DTD/svg11.dtd">
<!-- Generated by graphviz version 2.38.0 (20140413.2041)
 -->
<!-- Title: Juniper.Unity.JuniperPlatform Pages: 1 -->
<svg width="295pt" height="336pt"
 viewBox="0.00 0.00 295.00 336.00" xmlns="http://www.w3.org/2000/svg" xmlns:xlink="http://www.w3.org/1999/xlink">
<g id="graph0" class="graph" transform="scale(1 1) rotate(0) translate(4 332)">
<title>Juniper.Unity.JuniperPlatform</title>
<polygon fill="white" stroke="none" points="-4,4 -4,-332 291,-332 291,4 -4,4"/>
<!-- Node3 -->
<g id="node1" class="node"><title>Node3</title>
<g id="a_node1"><a xlink:title=" ">
<polygon fill="#bfbfbf" stroke="black" points="64,-0.5 64,-200.5 206,-200.5 206,-0.5 64,-0.5"/>
<text text-anchor="middle" x="135" y="-188.5" font-family="SegoeUI" font-size="10.00">Juniper.Unity.JuniperPlatform</text>
<polyline fill="none" stroke="black" points="64,-181.5 206,-181.5 "/>
<text text-anchor="start" x="72" y="-169.5" font-family="SegoeUI" font-size="10.00">+ CurrentPlatform</text>
<text text-anchor="start" x="72" y="-158.5" font-family="SegoeUI" font-size="10.00">+ System</text>
<text text-anchor="start" x="72" y="-147.5" font-family="SegoeUI" font-size="10.00">+ DisplayType</text>
<text text-anchor="start" x="72" y="-136.5" font-family="SegoeUI" font-size="10.00">+ SupportedDisplayType</text>
<text text-anchor="start" x="72" y="-125.5" font-family="SegoeUI" font-size="10.00">+ ARMode</text>
<text text-anchor="start" x="72" y="-114.5" font-family="SegoeUI" font-size="10.00">+ SupportedARMode</text>
<text text-anchor="start" x="72" y="-103.5" font-family="SegoeUI" font-size="10.00">+ Option</text>
<text text-anchor="start" x="72" y="-92.5" font-family="SegoeUI" font-size="10.00">+ VRPlatformHasPassthrough</text>
<text text-anchor="start" x="72" y="-81.5" font-family="SegoeUI" font-size="10.00">+ IsARCapablePlatform</text>
<polyline fill="none" stroke="black" points="64,-74.5 206,-74.5 "/>
<text text-anchor="start" x="72" y="-62.5" font-family="SegoeUI" font-size="10.00">+ Awake()</text>
<text text-anchor="start" x="72" y="-51.5" font-family="SegoeUI" font-size="10.00">+ Reinstall()</text>
<text text-anchor="start" x="72" y="-40.5" font-family="SegoeUI" font-size="10.00">+ Install()</text>
<text text-anchor="start" x="72" y="-29.5" font-family="SegoeUI" font-size="10.00">+ Uninstall()</text>
<text text-anchor="start" x="72" y="-18.5" font-family="SegoeUI" font-size="10.00">+ GetInstallables()</text>
<text text-anchor="start" x="72" y="-7.5" font-family="SegoeUI" font-size="10.00">+ Ensure()</text>
</a>
</g>
</g>
<!-- Node4 -->
<g id="node2" class="node"><title>Node4</title>
<g id="a_node2"><a xlink:title=" ">
<polygon fill="white" stroke="#bfbfbf" points="0,-259.5 0,-316.5 82,-316.5 82,-259.5 0,-259.5"/>
<text text-anchor="middle" x="41" y="-304.5" font-family="SegoeUI" font-size="10.00">MonoBehaviour</text>
<polyline fill="none" stroke="#bfbfbf" points="0,-297.5 82,-297.5 "/>
<text text-anchor="middle" x="41" y="-285.5" font-family="SegoeUI" font-size="10.00"> </text>
<polyline fill="none" stroke="#bfbfbf" points="0,-278.5 82,-278.5 "/>
<text text-anchor="middle" x="41" y="-266.5" font-family="SegoeUI" font-size="10.00"> </text>
</a>
</g>
</g>
<!-- Node4&#45;&gt;Node3 -->
<g id="edge1" class="edge"><title>Node4&#45;&gt;Node3</title>
<path fill="none" stroke="midnightblue" d="M59.6746,-250.147C67.0211,-235.65 75.8401,-218.246 84.8147,-200.536"/>
<polygon fill="none" stroke="midnightblue" points="56.4709,-248.727 55.0727,-259.229 62.715,-251.891 56.4709,-248.727"/>
</g>
<!-- Node5 -->
<g id="node3" class="node"><title>Node5</title>
<g id="a_node3"><a xlink:href="../../db/d28/interface_juniper_1_1_i_installable.html" target="_top" xlink:title="Defines an interface for objects that can be installed and have their installation progress tracked.">
<polygon fill="white" stroke="black" points="100.5,-248.5 100.5,-327.5 169.5,-327.5 169.5,-248.5 100.5,-248.5"/>
<text text-anchor="middle" x="135" y="-315.5" font-family="SegoeUI" font-size="10.00">IInstallable</text>
<polyline fill="none" stroke="black" points="100.5,-308.5 169.5,-308.5 "/>
<text text-anchor="middle" x="135" y="-296.5" font-family="SegoeUI" font-size="10.00"> </text>
<polyline fill="none" stroke="black" points="100.5,-289.5 169.5,-289.5 "/>
<text text-anchor="start" x="108.5" y="-277.5" font-family="SegoeUI" font-size="10.00">+ Install()</text>
<text text-anchor="start" x="108.5" y="-266.5" font-family="SegoeUI" font-size="10.00">+ Reinstall()</text>
<text text-anchor="start" x="108.5" y="-255.5" font-family="SegoeUI" font-size="10.00">+ Uninstall()</text>
</a>
</g>
</g>
<!-- Node5&#45;&gt;Node3 -->
<g id="edge2" class="edge"><title>Node5&#45;&gt;Node3</title>
<path fill="none" stroke="midnightblue" d="M135,-237.867C135,-226.322 135,-213.609 135,-200.729"/>
<polygon fill="none" stroke="midnightblue" points="131.5,-238.113 135,-248.113 138.5,-238.113 131.5,-238.113"/>
</g>
<!-- Node6 -->
<g id="node4" class="node"><title>Node6</title>
<g id="a_node4"><a xlink:title=" ">
<polygon fill="white" stroke="#bfbfbf" points="187.5,-259.5 187.5,-316.5 226.5,-316.5 226.5,-259.5 187.5,-259.5"/>
<text text-anchor="middle" x="207" y="-304.5" font-family="SegoeUI" font-size="10.00">static</text>
<polyline fill="none" stroke="#bfbfbf" points="187.5,-297.5 226.5,-297.5 "/>
<text text-anchor="middle" x="207" y="-285.5" font-family="SegoeUI" font-size="10.00"> </text>
<polyline fill="none" stroke="#bfbfbf" points="187.5,-278.5 226.5,-278.5 "/>
<text text-anchor="middle" x="207" y="-266.5" font-family="SegoeUI" font-size="10.00"> </text>
</a>
</g>
</g>
<!-- Node6&#45;&gt;Node3 -->
<g id="edge3" class="edge"><title>Node6&#45;&gt;Node3</title>
<path fill="none" stroke="#404040" d="M196.221,-259.229C191.136,-246.129 184.703,-229.554 177.929,-212.103"/>
<polygon fill="none" stroke="#404040" points="177.782,-211.723 171.882,-207.577 173.44,-200.536 179.34,-204.682 177.782,-211.723"/>
<text text-anchor="middle" x="235.5" y="-222" font-family="SegoeUI" font-size="10.00"> +CURRENT_PLATFORM</text>
</g>
</g>
</svg>
