<?xml version="1.0" encoding="UTF-8" standalone="no"?>
<!DOCTYPE svg PUBLIC "-//W3C//DTD SVG 1.1//EN"
 "http://www.w3.org/Graphics/SVG/1.1/DTD/svg11.dtd">
<!-- Generated by graphviz version 2.38.0 (20140413.2041)
 -->
<!-- Title: Juniper.Widgets.FollowObject Pages: 1 -->
<!--zoomable 486 -->
<svg id="main" version="1.1" xmlns="http://www.w3.org/2000/svg" xmlns:xlink="http://www.w3.org/1999/xlink" xml:space="preserve" onload="init(evt)">
<style type="text/css"><![CDATA[
.edge:hover path { stroke: red; }
.edge:hover polygon { stroke: red; fill: red; }
]]></style>
<script type="text/javascript"><![CDATA[
var edges = document.getElementsByTagName('g');
if (edges && edges.length) {
  for (var i=0;i<edges.length;i++) {
    if (edges[i].id.substr(0,4)=='edge') {
      edges[i].setAttribute('class','edge');
    }
  }
}
]]></script>
        <defs>
                <circle id="rim" cx="0" cy="0" r="7"/>
                <circle id="rim2" cx="0" cy="0" r="3.5"/>
                <g id="zoomPlus">
                        <use xlink:href="#rim" fill="#404040">
                                <set attributeName="fill" to="#808080" begin="zoomplus.mouseover" end="zoomplus.mouseout"/>
                        </use>
                        <path d="M-4,0h8M0,-4v8" fill="none" stroke="white" stroke-width="1.5" pointer-events="none"/>
                </g>
                <g id="zoomMin">
                        <use xlink:href="#rim" fill="#404040">
                                <set attributeName="fill" to="#808080" begin="zoomminus.mouseover" end="zoomminus.mouseout"/>
                        </use>
                        <path d="M-4,0h8" fill="none" stroke="white" stroke-width="1.5" pointer-events="none"/>
                </g>
                <g id="dirArrow">
                        <path fill="none" stroke="white" stroke-width="1.5" d="M0,-3.0v7 M-2.5,-0.5L0,-3.0L2.5,-0.5"/>
                </g>
               <g id="resetDef">
                       <use xlink:href="#rim2" fill="#404040">
                               <set attributeName="fill" to="#808080" begin="reset.mouseover" end="reset.mouseout"/>
                       </use>
               </g>
        </defs>

<script type="text/javascript">
var viewWidth = 286;
var viewHeight = 486;
var sectionId = 'dynsection-1';
</script>
<script xlink:href="../../svgpan.js"/>
<svg id="graph" class="graph">
<g id="viewport">
<title>Juniper.Widgets.FollowObject</title>
<polygon fill="white" stroke="none" points="-4,4 -4,-482 282,-482 282,4 -4,4"/>
<!-- Node3 -->
<g id="node1" class="node"><title>Node3</title>
<g id="a_node1"><a xlink:title="Make one object&#39;s pose follow the pose of another object.">
<polygon fill="#bfbfbf" stroke="black" points="99.5,-0.5 99.5,-200.5 242.5,-200.5 242.5,-0.5 99.5,-0.5"/>
<text text-anchor="middle" x="171" y="-188.5" font-family="SegoeUI" font-size="10.00">Juniper.Widgets.FollowObject</text>
<polyline fill="none" stroke="black" points="99.5,-181.5 242.5,-181.5 "/>
<text text-anchor="start" x="107.5" y="-169.5" font-family="SegoeUI" font-size="10.00">+ followObject</text>
<text text-anchor="start" x="107.5" y="-158.5" font-family="SegoeUI" font-size="10.00">&#45; CLOSE_THRESHOLD</text>
<text text-anchor="start" x="107.5" y="-147.5" font-family="SegoeUI" font-size="10.00">&#45; MAX_TIME</text>
<polyline fill="none" stroke="black" points="99.5,-140.5 242.5,-140.5 "/>
<text text-anchor="start" x="107.5" y="-128.5" font-family="SegoeUI" font-size="10.00">+ SetTarget()</text>
<text text-anchor="start" x="107.5" y="-117.5" font-family="SegoeUI" font-size="10.00">+ Reparent()</text>
<text text-anchor="start" x="107.5" y="-106.5" font-family="SegoeUI" font-size="10.00">+ Update()</text>
<text text-anchor="start" x="107.5" y="-95.5" font-family="SegoeUI" font-size="10.00">+ LateUpdate()</text>
<text text-anchor="start" x="107.5" y="-84.5" font-family="SegoeUI" font-size="10.00">+ Skip()</text>
<text text-anchor="start" x="107.5" y="-73.5" font-family="SegoeUI" font-size="10.00">&#45; SetRate()</text>
<text text-anchor="start" x="107.5" y="-62.5" font-family="SegoeUI" font-size="10.00">&#45; NextPosition()</text>
<text text-anchor="start" x="107.5" y="-51.5" font-family="SegoeUI" font-size="10.00">&#45; NextRotation()</text>
<text text-anchor="start" x="107.5" y="-40.5" font-family="SegoeUI" font-size="10.00">&#45; SkipToRotation()</text>
<text text-anchor="start" x="107.5" y="-29.5" font-family="SegoeUI" font-size="10.00">&#45; SkipToPosition()</text>
<text text-anchor="start" x="107.5" y="-18.5" font-family="SegoeUI" font-size="10.00">&#45; GetEndPosition()</text>
<text text-anchor="start" x="107.5" y="-7.5" font-family="SegoeUI" font-size="10.00">&#45; GetEndRotationEuler()</text>
</a>
</g>
</g>
<!-- Node4 -->
<g id="node2" class="node"><title>Node4</title>
<g id="a_node2"><a xlink:href="../../d6/d22/class_juniper_1_1_widgets_1_1_abstract_follow_settings.html" target="_top" xlink:title="Make one object&#39;s pose follow the pose of another object.">
<polygon fill="white" stroke="black" points="9.5,-238.5 9.5,-372.5 138.5,-372.5 138.5,-238.5 9.5,-238.5"/>
<text text-anchor="middle" x="74" y="-360.5" font-family="SegoeUI" font-size="10.00">AbstractFollowSettings</text>
<polyline fill="none" stroke="black" points="9.5,-353.5 138.5,-353.5 "/>
<text text-anchor="start" x="17.5" y="-341.5" font-family="SegoeUI" font-size="10.00">+ FollowPosition</text>
<text text-anchor="start" x="17.5" y="-330.5" font-family="SegoeUI" font-size="10.00">+ interpolatePosition</text>
<text text-anchor="start" x="17.5" y="-319.5" font-family="SegoeUI" font-size="10.00">+ FollowPositionThreshold</text>
<text text-anchor="start" x="17.5" y="-308.5" font-family="SegoeUI" font-size="10.00">+ maxSpeed</text>
<text text-anchor="start" x="17.5" y="-297.5" font-family="SegoeUI" font-size="10.00">+ Distance</text>
<text text-anchor="start" x="17.5" y="-286.5" font-family="SegoeUI" font-size="10.00">+ FollowRotation</text>
<text text-anchor="start" x="17.5" y="-275.5" font-family="SegoeUI" font-size="10.00">+ interpolateRotation</text>
<text text-anchor="start" x="17.5" y="-264.5" font-family="SegoeUI" font-size="10.00">+ maxRotationRate</text>
<polyline fill="none" stroke="black" points="9.5,-257.5 138.5,-257.5 "/>
<text text-anchor="start" x="17.5" y="-245.5" font-family="SegoeUI" font-size="10.00">+ Copy()</text>
</a>
</g>
</g>
<!-- Node4&#45;&gt;Node3 -->
<g id="edge1" class="edge"><title>Node4&#45;&gt;Node3</title>
<path fill="none" stroke="midnightblue" d="M110.001,-229.157C114.431,-219.886 119.01,-210.303 123.577,-200.747"/>
<polygon fill="none" stroke="midnightblue" points="106.781,-227.779 105.627,-238.311 113.097,-230.797 106.781,-227.779"/>
</g>
<!-- Node5 -->
<g id="node3" class="node"><title>Node5</title>
<g id="a_node3"><a xlink:title=" ">
<polygon fill="white" stroke="#bfbfbf" points="0,-420.5 0,-477.5 82,-477.5 82,-420.5 0,-420.5"/>
<text text-anchor="middle" x="41" y="-465.5" font-family="SegoeUI" font-size="10.00">MonoBehaviour</text>
<polyline fill="none" stroke="#bfbfbf" points="0,-458.5 82,-458.5 "/>
<text text-anchor="middle" x="41" y="-446.5" font-family="SegoeUI" font-size="10.00"> </text>
<polyline fill="none" stroke="#bfbfbf" points="0,-439.5 82,-439.5 "/>
<text text-anchor="middle" x="41" y="-427.5" font-family="SegoeUI" font-size="10.00"> </text>
</a>
</g>
</g>
<!-- Node5&#45;&gt;Node4 -->
<g id="edge2" class="edge"><title>Node5&#45;&gt;Node4</title>
<path fill="none" stroke="midnightblue" d="M49.7228,-410.597C52.4378,-398.956 55.5171,-385.753 58.5489,-372.753"/>
<polygon fill="none" stroke="midnightblue" points="46.3038,-409.848 47.4411,-420.381 53.1209,-411.438 46.3038,-409.848"/>
</g>
<!-- Node6 -->
<g id="node4" class="node"><title>Node6</title>
<g id="a_node4"><a xlink:title=" ">
<polygon fill="white" stroke="#bfbfbf" points="135,-420.5 135,-477.5 201,-477.5 201,-420.5 135,-420.5"/>
<text text-anchor="middle" x="168" y="-465.5" font-family="SegoeUI" font-size="10.00">UnityEngine</text>
<polyline fill="none" stroke="#bfbfbf" points="135,-458.5 201,-458.5 "/>
<text text-anchor="middle" x="168" y="-446.5" font-family="SegoeUI" font-size="10.00"> </text>
<polyline fill="none" stroke="#bfbfbf" points="135,-439.5 201,-439.5 "/>
<text text-anchor="middle" x="168" y="-427.5" font-family="SegoeUI" font-size="10.00"> </text>
</a>
</g>
</g>
<!-- Node6&#45;&gt;Node3 -->
<g id="edge4" class="edge"><title>Node6&#45;&gt;Node3</title>
<path fill="none" stroke="#404040" d="M183.794,-420.008C186.363,-414.221 188.629,-408.043 190,-402 191.081,-397.232 190.16,-395.886 190,-391 188.067,-332.03 183.925,-266.411 180,-212.576"/>
<polygon fill="none" stroke="#404040" points="179.997,-212.539 175.566,-206.849 179.114,-200.571 183.545,-206.261 179.997,-212.539"/>
<text text-anchor="middle" x="234" y="-319.5" font-family="SegoeUI" font-size="10.00"> &#45;targetRotationRate</text>
<text text-anchor="middle" x="234" y="-308.5" font-family="SegoeUI" font-size="10.00">&#45;targetVelocity</text>
<text text-anchor="middle" x="234" y="-297.5" font-family="SegoeUI" font-size="10.00">&#45;rotationRate</text>
<text text-anchor="middle" x="234" y="-286.5" font-family="SegoeUI" font-size="10.00">&#45;velocity</text>
</g>
<!-- Node6&#45;&gt;Node4 -->
<g id="edge3" class="edge"><title>Node6&#45;&gt;Node4</title>
<path fill="none" stroke="#404040" d="M134.907,-440.967C113.84,-434.6 88.1286,-422.896 75,-402 71.6673,-396.696 69.2965,-390.877 67.6763,-384.811"/>
<polygon fill="none" stroke="#404040" points="67.6562,-384.704 62.6126,-379.55 65.4302,-372.912 70.4737,-378.066 67.6562,-384.704"/>
<text text-anchor="middle" x="132.5" y="-394" font-family="SegoeUI" font-size="10.00"> +FollowRotationThreshold</text>
</g>
</g>
</svg>
        <g id="navigator" transform="translate(0 0)" fill="#404254">
                <rect fill="#f2f5e9" fill-opacity="0.5" stroke="#606060" stroke-width=".5" x="0" y="0" width="60" height="60"/>
                <use id="zoomplus" xlink:href="#zoomPlus" x="17" y="9" onmousedown="handleZoom(evt,'in')"/>
                <use id="zoomminus" xlink:href="#zoomMin" x="42" y="9" onmousedown="handleZoom(evt,'out')"/>
                <use id="reset" xlink:href="#resetDef" x="30" y="36" onmousedown="handleReset()"/>
                <g id="arrowUp" xlink:href="#dirArrow" transform="translate(30 24)" onmousedown="handlePan(0,-1)">
                  <use xlink:href="#rim" fill="#404040">
                        <set attributeName="fill" to="#808080" begin="arrowUp.mouseover" end="arrowUp.mouseout"/>
                  </use>
                  <path fill="none" stroke="white" stroke-width="1.5" d="M0,-3.0v7 M-2.5,-0.5L0,-3.0L2.5,-0.5"/>
                </g>
                <g id="arrowRight" xlink:href="#dirArrow" transform="rotate(90) translate(36 -43)" onmousedown="handlePan(1,0)">
                  <use xlink:href="#rim" fill="#404040">
                        <set attributeName="fill" to="#808080" begin="arrowRight.mouseover" end="arrowRight.mouseout"/>
                  </use>
                  <path fill="none" stroke="white" stroke-width="1.5" d="M0,-3.0v7 M-2.5,-0.5L0,-3.0L2.5,-0.5"/>
                </g>
                <g id="arrowDown" xlink:href="#dirArrow" transform="rotate(180) translate(-30 -48)" onmousedown="handlePan(0,1)">
                  <use xlink:href="#rim" fill="#404040">
                        <set attributeName="fill" to="#808080" begin="arrowDown.mouseover" end="arrowDown.mouseout"/>
                  </use>
                  <path fill="none" stroke="white" stroke-width="1.5" d="M0,-3.0v7 M-2.5,-0.5L0,-3.0L2.5,-0.5"/>
                </g>
                <g id="arrowLeft" xlink:href="#dirArrow" transform="rotate(270) translate(-36 17)" onmousedown="handlePan(-1,0)">
                  <use xlink:href="#rim" fill="#404040">
                        <set attributeName="fill" to="#808080" begin="arrowLeft.mouseover" end="arrowLeft.mouseout"/>
                  </use>
                  <path fill="none" stroke="white" stroke-width="1.5" d="M0,-3.0v7 M-2.5,-0.5L0,-3.0L2.5,-0.5"/>
                </g>
        </g>
        <svg viewBox="0 0 15 15" width="100%" height="30px" preserveAspectRatio="xMaxYMin meet">
         <g id="arrow_out" transform="scale(0.3 0.3)">
          <a xlink:href="class_juniper_1_1_widgets_1_1_follow_object__coll__graph_org.svg" target="_base">
           <rect id="button" ry="5" rx="5" y="6" x="6" height="38" width="38"
                fill="#f2f5e9" fill-opacity="0.5" stroke="#606060" stroke-width="1.0"/>
           <path id="arrow"
             d="M 11.500037,31.436501 C 11.940474,20.09759 22.043105,11.32322 32.158766,21.979434 L 37.068811,17.246167 C 37.068811,17.246167 37.088388,32 37.088388,32 L 22.160133,31.978069 C 22.160133,31.978069 26.997745,27.140456 26.997745,27.140456 C 18.528582,18.264221 13.291696,25.230495 11.500037,31.436501 z"
             style="fill:#404040;"/>
          </a>
         </g>
        </svg>
</svg>
