<?xml version="1.0" encoding="UTF-8" standalone="no"?>
<!DOCTYPE svg PUBLIC "-//W3C//DTD SVG 1.1//EN"
 "http://www.w3.org/Graphics/SVG/1.1/DTD/svg11.dtd">
<!-- Generated by graphviz version 2.38.0 (20140413.2041)
 -->
<!-- Title: Juniper.Input.DefaultLocomotion Pages: 1 -->
<svg width="162pt" height="298pt"
 viewBox="0.00 0.00 162.00 298.00" xmlns="http://www.w3.org/2000/svg" xmlns:xlink="http://www.w3.org/1999/xlink">
<g id="graph0" class="graph" transform="scale(1 1) rotate(0) translate(4 294)">
<title>Juniper.Input.DefaultLocomotion</title>
<polygon fill="white" stroke="none" points="-4,4 -4,-294 158,-294 158,4 -4,4"/>
<!-- Node0 -->
<g id="node1" class="node"><title>Node0</title>
<g id="a_node1"><a xlink:title=" ">
<polygon fill="#bfbfbf" stroke="black" points="0,-0.5 0,-57.5 154,-57.5 154,-0.5 0,-0.5"/>
<text text-anchor="middle" x="77" y="-45.5" font-family="SegoeUI" font-size="10.00">Juniper.Input.DefaultLocomotion</text>
<polyline fill="none" stroke="black" points="0,-38.5 154,-38.5 "/>
<text text-anchor="middle" x="77" y="-26.5" font-family="SegoeUI" font-size="10.00"> </text>
<polyline fill="none" stroke="black" points="0,-19.5 154,-19.5 "/>
<text text-anchor="middle" x="77" y="-7.5" font-family="SegoeUI" font-size="10.00"> </text>
</a>
</g>
</g>
<!-- Node1 -->
<g id="node2" class="node"><title>Node1</title>
<g id="a_node2"><a xlink:href="../../d0/dcb/class_juniper_1_1_input_1_1_abstract_velocity_locomotion.html" target="_top" xlink:title=" ">
<polygon fill="white" stroke="black" points="10,-94.5 10,-195.5 144,-195.5 144,-94.5 10,-94.5"/>
<text text-anchor="middle" x="77" y="-183.5" font-family="SegoeUI" font-size="10.00">AbstractVelocityLocomotion</text>
<polyline fill="none" stroke="black" points="10,-176.5 144,-176.5 "/>
<text text-anchor="start" x="18" y="-164.5" font-family="SegoeUI" font-size="10.00">+ moveSpeed</text>
<text text-anchor="start" x="18" y="-153.5" font-family="SegoeUI" font-size="10.00">+ jink</text>
<text text-anchor="start" x="18" y="-142.5" font-family="SegoeUI" font-size="10.00"># MOVEMENT_SCALE</text>
<text text-anchor="start" x="18" y="-131.5" font-family="SegoeUI" font-size="10.00"># stage</text>
<text text-anchor="start" x="18" y="-120.5" font-family="SegoeUI" font-size="10.00"># input</text>
<polyline fill="none" stroke="black" points="10,-113.5 144,-113.5 "/>
<text text-anchor="start" x="18" y="-101.5" font-family="SegoeUI" font-size="10.00">+ Awake()</text>
</a>
</g>
</g>
<!-- Node1&#45;&gt;Node0 -->
<g id="edge1" class="edge"><title>Node1&#45;&gt;Node0</title>
<path fill="none" stroke="midnightblue" d="M77,-84.2331C77,-74.9207 77,-65.707 77,-57.5894"/>
<polygon fill="none" stroke="midnightblue" points="73.5001,-84.3295 77,-94.3296 80.5001,-84.3296 73.5001,-84.3295"/>
</g>
<!-- Node2 -->
<g id="node3" class="node"><title>Node2</title>
<g id="a_node3"><a xlink:title=" ">
<polygon fill="white" stroke="#bfbfbf" points="36,-232.5 36,-289.5 118,-289.5 118,-232.5 36,-232.5"/>
<text text-anchor="middle" x="77" y="-277.5" font-family="SegoeUI" font-size="10.00">MonoBehaviour</text>
<polyline fill="none" stroke="#bfbfbf" points="36,-270.5 118,-270.5 "/>
<text text-anchor="middle" x="77" y="-258.5" font-family="SegoeUI" font-size="10.00"> </text>
<polyline fill="none" stroke="#bfbfbf" points="36,-251.5 118,-251.5 "/>
<text text-anchor="middle" x="77" y="-239.5" font-family="SegoeUI" font-size="10.00"> </text>
</a>
</g>
</g>
<!-- Node2&#45;&gt;Node1 -->
<g id="edge2" class="edge"><title>Node2&#45;&gt;Node1</title>
<path fill="none" stroke="midnightblue" d="M77,-222.354C77,-213.796 77,-204.578 77,-195.608"/>
<polygon fill="none" stroke="midnightblue" points="73.5001,-222.404 77,-232.404 80.5001,-222.404 73.5001,-222.404"/>
</g>
</g>
</svg>
