<?xml version="1.0" encoding="UTF-8" standalone="no"?>
<!DOCTYPE svg PUBLIC "-//W3C//DTD SVG 1.1//EN"
 "http://www.w3.org/Graphics/SVG/1.1/DTD/svg11.dtd">
<!-- Generated by graphviz version 2.38.0 (20140413.2041)
 -->
<!-- Title: Juniper.Avatar Pages: 1 -->
<!--zoomable 512 -->
<svg id="main" version="1.1" xmlns="http://www.w3.org/2000/svg" xmlns:xlink="http://www.w3.org/1999/xlink" xml:space="preserve" onload="init(evt)">
<style type="text/css"><![CDATA[
.edge:hover path { stroke: red; }
.edge:hover polygon { stroke: red; fill: red; }
]]></style>
<script type="text/javascript"><![CDATA[
var edges = document.getElementsByTagName('g');
if (edges && edges.length) {
  for (var i=0;i<edges.length;i++) {
    if (edges[i].id.substr(0,4)=='edge') {
      edges[i].setAttribute('class','edge');
    }
  }
}
]]></script>
        <defs>
                <circle id="rim" cx="0" cy="0" r="7"/>
                <circle id="rim2" cx="0" cy="0" r="3.5"/>
                <g id="zoomPlus">
                        <use xlink:href="#rim" fill="#404040">
                                <set attributeName="fill" to="#808080" begin="zoomplus.mouseover" end="zoomplus.mouseout"/>
                        </use>
                        <path d="M-4,0h8M0,-4v8" fill="none" stroke="white" stroke-width="1.5" pointer-events="none"/>
                </g>
                <g id="zoomMin">
                        <use xlink:href="#rim" fill="#404040">
                                <set attributeName="fill" to="#808080" begin="zoomminus.mouseover" end="zoomminus.mouseout"/>
                        </use>
                        <path d="M-4,0h8" fill="none" stroke="white" stroke-width="1.5" pointer-events="none"/>
                </g>
                <g id="dirArrow">
                        <path fill="none" stroke="white" stroke-width="1.5" d="M0,-3.0v7 M-2.5,-0.5L0,-3.0L2.5,-0.5"/>
                </g>
               <g id="resetDef">
                       <use xlink:href="#rim2" fill="#404040">
                               <set attributeName="fill" to="#808080" begin="reset.mouseover" end="reset.mouseout"/>
                       </use>
               </g>
        </defs>

<script type="text/javascript">
var viewWidth = 178;
var viewHeight = 512;
var sectionId = 'dynsection-0';
</script>
<script xlink:href="../../svgpan.js"/>
<svg id="graph" class="graph">
<g id="viewport">
<title>Juniper.Avatar</title>
<polygon fill="white" stroke="none" points="-4,4 -4,-508 173.5,-508 173.5,4 -4,4"/>
<!-- Node0 -->
<g id="node1" class="node"><title>Node0</title>
<g id="a_node1"><a xlink:title=" ">
<polygon fill="#bfbfbf" stroke="black" points="17,-0.5 17,-387.5 159,-387.5 159,-0.5 17,-0.5"/>
<text text-anchor="middle" x="88" y="-375.5" font-family="SegoeUI" font-size="10.00">Juniper.Avatar</text>
<polyline fill="none" stroke="black" points="17,-368.5 159,-368.5 "/>
<text text-anchor="start" x="25" y="-356.5" font-family="SegoeUI" font-size="10.00">+ defaultAvatarHeight</text>
<text text-anchor="start" x="25" y="-345.5" font-family="SegoeUI" font-size="10.00">+ shoes</text>
<text text-anchor="start" x="25" y="-334.5" font-family="SegoeUI" font-size="10.00">+ BodyPhysics</text>
<text text-anchor="start" x="25" y="-323.5" font-family="SegoeUI" font-size="10.00">+ UserTop</text>
<text text-anchor="start" x="25" y="-312.5" font-family="SegoeUI" font-size="10.00">+ LocalUserTop</text>
<text text-anchor="start" x="25" y="-301.5" font-family="SegoeUI" font-size="10.00">+ AvatarHeight</text>
<text text-anchor="start" x="25" y="-290.5" font-family="SegoeUI" font-size="10.00">+ HalfHeight</text>
<text text-anchor="start" x="25" y="-279.5" font-family="SegoeUI" font-size="10.00">+ HalfUp</text>
<text text-anchor="start" x="25" y="-268.5" font-family="SegoeUI" font-size="10.00">+ LocalUserCenter</text>
<text text-anchor="start" x="25" y="-257.5" font-family="SegoeUI" font-size="10.00">+ UserCenter</text>
<text text-anchor="start" x="25" y="-246.5" font-family="SegoeUI" font-size="10.00">+ Head</text>
<text text-anchor="start" x="25" y="-235.5" font-family="SegoeUI" font-size="10.00">+ Hands</text>
<text text-anchor="start" x="25" y="-224.5" font-family="SegoeUI" font-size="10.00">+ IndependentHead</text>
<text text-anchor="start" x="25" y="-213.5" font-family="SegoeUI" font-size="10.00">&#45; bodyShape</text>
<text text-anchor="start" x="25" y="-202.5" font-family="SegoeUI" font-size="10.00">&#45; shoulders</text>
<text text-anchor="start" x="25" y="-191.5" font-family="SegoeUI" font-size="10.00">&#45; neck</text>
<text text-anchor="start" x="25" y="-180.5" font-family="SegoeUI" font-size="10.00">&#45; pivot</text>
<text text-anchor="start" x="25" y="-169.5" font-family="SegoeUI" font-size="10.00">&#45; headShadow</text>
<text text-anchor="start" x="25" y="-158.5" font-family="SegoeUI" font-size="10.00">&#45; body</text>
<text text-anchor="start" x="25" y="-147.5" font-family="SegoeUI" font-size="10.00">&#45; isIndependentHead</text>
<text text-anchor="start" x="25" y="-136.5" font-family="SegoeUI" font-size="10.00">&#45; grounder</text>
<text text-anchor="start" x="25" y="-125.5" font-family="SegoeUI" font-size="10.00">&#45; velocity</text>
<polyline fill="none" stroke="black" points="17,-118.5 159,-118.5 "/>
<text text-anchor="start" x="25" y="-106.5" font-family="SegoeUI" font-size="10.00">+ Awake()</text>
<text text-anchor="start" x="25" y="-95.5" font-family="SegoeUI" font-size="10.00">+ Reinstall()</text>
<text text-anchor="start" x="25" y="-84.5" font-family="SegoeUI" font-size="10.00">+ Install()</text>
<text text-anchor="start" x="25" y="-73.5" font-family="SegoeUI" font-size="10.00">+ Uninstall()</text>
<text text-anchor="start" x="25" y="-62.5" font-family="SegoeUI" font-size="10.00">+ RotateView()</text>
<text text-anchor="start" x="25" y="-51.5" font-family="SegoeUI" font-size="10.00">+ SetVelocity()</text>
<text text-anchor="start" x="25" y="-40.5" font-family="SegoeUI" font-size="10.00">+ FixedUpdate()</text>
<text text-anchor="start" x="25" y="-29.5" font-family="SegoeUI" font-size="10.00">+ Ensure()</text>
<text text-anchor="start" x="25" y="-18.5" font-family="SegoeUI" font-size="10.00">&#45; SetBodyPositionAndShape()</text>
<text text-anchor="start" x="25" y="-7.5" font-family="SegoeUI" font-size="10.00">&#45; MakeShadowCaster()</text>
</a>
</g>
</g>
<!-- Node1 -->
<g id="node2" class="node"><title>Node1</title>
<g id="a_node2"><a xlink:title=" ">
<polygon fill="white" stroke="#bfbfbf" points="0,-435.5 0,-492.5 82,-492.5 82,-435.5 0,-435.5"/>
<text text-anchor="middle" x="41" y="-480.5" font-family="SegoeUI" font-size="10.00">MonoBehaviour</text>
<polyline fill="none" stroke="#bfbfbf" points="0,-473.5 82,-473.5 "/>
<text text-anchor="middle" x="41" y="-461.5" font-family="SegoeUI" font-size="10.00"> </text>
<polyline fill="none" stroke="#bfbfbf" points="0,-454.5 82,-454.5 "/>
<text text-anchor="middle" x="41" y="-442.5" font-family="SegoeUI" font-size="10.00"> </text>
</a>
</g>
</g>
<!-- Node1&#45;&gt;Node0 -->
<g id="edge1" class="edge"><title>Node1&#45;&gt;Node0</title>
<path fill="none" stroke="midnightblue" d="M47.5964,-425.387C49.5225,-414.404 51.7703,-401.586 54.2015,-387.723"/>
<polygon fill="none" stroke="midnightblue" points="44.1329,-424.874 45.8528,-435.329 51.0276,-426.084 44.1329,-424.874"/>
</g>
<!-- Node2 -->
<g id="node3" class="node"><title>Node2</title>
<g id="a_node3"><a xlink:href="../../db/d28/interface_juniper_1_1_i_installable.html" target="_top" xlink:title="Defines an interface for objects that can be installed and have their installation progress tracked.">
<polygon fill="white" stroke="black" points="100.5,-424.5 100.5,-503.5 169.5,-503.5 169.5,-424.5 100.5,-424.5"/>
<text text-anchor="middle" x="135" y="-491.5" font-family="SegoeUI" font-size="10.00">IInstallable</text>
<polyline fill="none" stroke="black" points="100.5,-484.5 169.5,-484.5 "/>
<text text-anchor="middle" x="135" y="-472.5" font-family="SegoeUI" font-size="10.00"> </text>
<polyline fill="none" stroke="black" points="100.5,-465.5 169.5,-465.5 "/>
<text text-anchor="start" x="108.5" y="-453.5" font-family="SegoeUI" font-size="10.00">+ Install()</text>
<text text-anchor="start" x="108.5" y="-442.5" font-family="SegoeUI" font-size="10.00">+ Reinstall()</text>
<text text-anchor="start" x="108.5" y="-431.5" font-family="SegoeUI" font-size="10.00">+ Uninstall()</text>
</a>
</g>
</g>
<!-- Node2&#45;&gt;Node0 -->
<g id="edge2" class="edge"><title>Node2&#45;&gt;Node0</title>
<path fill="none" stroke="midnightblue" d="M126.453,-414.265C125.004,-406.002 123.425,-396.999 121.761,-387.509"/>
<polygon fill="none" stroke="midnightblue" points="123.041,-415.072 128.216,-424.317 129.936,-413.862 123.041,-415.072"/>
</g>
</g>
</svg>
        <g id="navigator" transform="translate(0 0)" fill="#404254">
                <rect fill="#f2f5e9" fill-opacity="0.5" stroke="#606060" stroke-width=".5" x="0" y="0" width="60" height="60"/>
                <use id="zoomplus" xlink:href="#zoomPlus" x="17" y="9" onmousedown="handleZoom(evt,'in')"/>
                <use id="zoomminus" xlink:href="#zoomMin" x="42" y="9" onmousedown="handleZoom(evt,'out')"/>
                <use id="reset" xlink:href="#resetDef" x="30" y="36" onmousedown="handleReset()"/>
                <g id="arrowUp" xlink:href="#dirArrow" transform="translate(30 24)" onmousedown="handlePan(0,-1)">
                  <use xlink:href="#rim" fill="#404040">
                        <set attributeName="fill" to="#808080" begin="arrowUp.mouseover" end="arrowUp.mouseout"/>
                  </use>
                  <path fill="none" stroke="white" stroke-width="1.5" d="M0,-3.0v7 M-2.5,-0.5L0,-3.0L2.5,-0.5"/>
                </g>
                <g id="arrowRight" xlink:href="#dirArrow" transform="rotate(90) translate(36 -43)" onmousedown="handlePan(1,0)">
                  <use xlink:href="#rim" fill="#404040">
                        <set attributeName="fill" to="#808080" begin="arrowRight.mouseover" end="arrowRight.mouseout"/>
                  </use>
                  <path fill="none" stroke="white" stroke-width="1.5" d="M0,-3.0v7 M-2.5,-0.5L0,-3.0L2.5,-0.5"/>
                </g>
                <g id="arrowDown" xlink:href="#dirArrow" transform="rotate(180) translate(-30 -48)" onmousedown="handlePan(0,1)">
                  <use xlink:href="#rim" fill="#404040">
                        <set attributeName="fill" to="#808080" begin="arrowDown.mouseover" end="arrowDown.mouseout"/>
                  </use>
                  <path fill="none" stroke="white" stroke-width="1.5" d="M0,-3.0v7 M-2.5,-0.5L0,-3.0L2.5,-0.5"/>
                </g>
                <g id="arrowLeft" xlink:href="#dirArrow" transform="rotate(270) translate(-36 17)" onmousedown="handlePan(-1,0)">
                  <use xlink:href="#rim" fill="#404040">
                        <set attributeName="fill" to="#808080" begin="arrowLeft.mouseover" end="arrowLeft.mouseout"/>
                  </use>
                  <path fill="none" stroke="white" stroke-width="1.5" d="M0,-3.0v7 M-2.5,-0.5L0,-3.0L2.5,-0.5"/>
                </g>
        </g>
        <svg viewBox="0 0 15 15" width="100%" height="30px" preserveAspectRatio="xMaxYMin meet">
         <g id="arrow_out" transform="scale(0.3 0.3)">
          <a xlink:href="class_juniper_1_1_avatar__inherit__graph_org.svg" target="_base">
           <rect id="button" ry="5" rx="5" y="6" x="6" height="38" width="38"
                fill="#f2f5e9" fill-opacity="0.5" stroke="#606060" stroke-width="1.0"/>
           <path id="arrow"
             d="M 11.500037,31.436501 C 11.940474,20.09759 22.043105,11.32322 32.158766,21.979434 L 37.068811,17.246167 C 37.068811,17.246167 37.088388,32 37.088388,32 L 22.160133,31.978069 C 22.160133,31.978069 26.997745,27.140456 26.997745,27.140456 C 18.528582,18.264221 13.291696,25.230495 11.500037,31.436501 z"
             style="fill:#404040;"/>
          </a>
         </g>
        </svg>
</svg>
