<?xml version="1.0" encoding="UTF-8" standalone="no"?>
<!DOCTYPE svg PUBLIC "-//W3C//DTD SVG 1.1//EN"
 "http://www.w3.org/Graphics/SVG/1.1/DTD/svg11.dtd">
<!-- Generated by graphviz version 2.38.0 (20140413.2041)
 -->
<!-- Title: Hjg.Pngcs.Chunks.PngChunkTRNS Pages: 1 -->
<!--zoomable 856 -->
<svg id="main" version="1.1" xmlns="http://www.w3.org/2000/svg" xmlns:xlink="http://www.w3.org/1999/xlink" xml:space="preserve" onload="init(evt)">
<style type="text/css"><![CDATA[
.edge:hover path { stroke: red; }
.edge:hover polygon { stroke: red; fill: red; }
]]></style>
<script type="text/javascript"><![CDATA[
var edges = document.getElementsByTagName('g');
if (edges && edges.length) {
  for (var i=0;i<edges.length;i++) {
    if (edges[i].id.substr(0,4)=='edge') {
      edges[i].setAttribute('class','edge');
    }
  }
}
]]></script>
        <defs>
                <circle id="rim" cx="0" cy="0" r="7"/>
                <circle id="rim2" cx="0" cy="0" r="3.5"/>
                <g id="zoomPlus">
                        <use xlink:href="#rim" fill="#404040">
                                <set attributeName="fill" to="#808080" begin="zoomplus.mouseover" end="zoomplus.mouseout"/>
                        </use>
                        <path d="M-4,0h8M0,-4v8" fill="none" stroke="white" stroke-width="1.5" pointer-events="none"/>
                </g>
                <g id="zoomMin">
                        <use xlink:href="#rim" fill="#404040">
                                <set attributeName="fill" to="#808080" begin="zoomminus.mouseover" end="zoomminus.mouseout"/>
                        </use>
                        <path d="M-4,0h8" fill="none" stroke="white" stroke-width="1.5" pointer-events="none"/>
                </g>
                <g id="dirArrow">
                        <path fill="none" stroke="white" stroke-width="1.5" d="M0,-3.0v7 M-2.5,-0.5L0,-3.0L2.5,-0.5"/>
                </g>
               <g id="resetDef">
                       <use xlink:href="#rim2" fill="#404040">
                               <set attributeName="fill" to="#808080" begin="reset.mouseover" end="reset.mouseout"/>
                       </use>
               </g>
        </defs>

<script type="text/javascript">
var viewWidth = 169;
var viewHeight = 856;
var sectionId = 'dynsection-1';
</script>
<script xlink:href="../../svgpan.js"/>
<svg id="graph" class="graph">
<g id="viewport">
<title>Hjg.Pngcs.Chunks.PngChunkTRNS</title>
<polygon fill="white" stroke="none" points="-4,4 -4,-852 165,-852 165,4 -4,4"/>
<!-- Node3 -->
<g id="node1" class="node"><title>Node3</title>
<g id="a_node1"><a xlink:title="tRNS chunk: http://www.w3.org/TR/PNG/#11tRNS">
<polygon fill="#bfbfbf" stroke="black" points="0,-0.5 0,-244.5 161,-244.5 161,-0.5 0,-0.5"/>
<text text-anchor="middle" x="80.5" y="-232.5" font-family="SegoeUI" font-size="10.00">Hjg.Pngcs.Chunks.PngChunkTRNS</text>
<polyline fill="none" stroke="black" points="0,-225.5 161,-225.5 "/>
<text text-anchor="start" x="8" y="-213.5" font-family="SegoeUI" font-size="10.00">+ ID</text>
<text text-anchor="start" x="8" y="-202.5" font-family="SegoeUI" font-size="10.00">&#45; gray</text>
<text text-anchor="start" x="8" y="-191.5" font-family="SegoeUI" font-size="10.00">&#45; red</text>
<text text-anchor="start" x="8" y="-180.5" font-family="SegoeUI" font-size="10.00">&#45; green</text>
<text text-anchor="start" x="8" y="-169.5" font-family="SegoeUI" font-size="10.00">&#45; blue</text>
<text text-anchor="start" x="8" y="-158.5" font-family="SegoeUI" font-size="10.00">&#45; paletteAlpha</text>
<polyline fill="none" stroke="black" points="0,-151.5 161,-151.5 "/>
<text text-anchor="start" x="8" y="-139.5" font-family="SegoeUI" font-size="10.00">+ PngChunkTRNS()</text>
<text text-anchor="start" x="8" y="-128.5" font-family="SegoeUI" font-size="10.00">+ GetOrderingConstraint()</text>
<text text-anchor="start" x="8" y="-117.5" font-family="SegoeUI" font-size="10.00">+ CreateRawChunk()</text>
<text text-anchor="start" x="8" y="-106.5" font-family="SegoeUI" font-size="10.00">+ ParseFromRaw()</text>
<text text-anchor="start" x="8" y="-95.5" font-family="SegoeUI" font-size="10.00">+ CloneDataFromRead()</text>
<text text-anchor="start" x="8" y="-84.5" font-family="SegoeUI" font-size="10.00">+ SetRGB()</text>
<text text-anchor="start" x="8" y="-73.5" font-family="SegoeUI" font-size="10.00">+ GetRGB()</text>
<text text-anchor="start" x="8" y="-62.5" font-family="SegoeUI" font-size="10.00">+ SetGray()</text>
<text text-anchor="start" x="8" y="-51.5" font-family="SegoeUI" font-size="10.00">+ GetGray()</text>
<text text-anchor="start" x="8" y="-40.5" font-family="SegoeUI" font-size="10.00">+ SetPalletteAlpha()</text>
<text text-anchor="start" x="8" y="-29.5" font-family="SegoeUI" font-size="10.00">+ SetIndexEntryAsTransparent()</text>
<text text-anchor="start" x="8" y="-18.5" font-family="SegoeUI" font-size="10.00">+ GetPalletteAlpha()</text>
<text text-anchor="start" x="8" y="-7.5" font-family="SegoeUI" font-size="10.00">&#45; CloneData()</text>
</a>
</g>
</g>
<!-- Node4 -->
<g id="node2" class="node"><title>Node4</title>
<g id="a_node2"><a xlink:href="../../d2/dc1/class_hjg_1_1_pngcs_1_1_chunks_1_1_png_chunk_single.html" target="_top" xlink:title="A Chunk type that does not allow duplicate in an image">
<polygon fill="white" stroke="black" points="29.5,-282.5 29.5,-372.5 131.5,-372.5 131.5,-282.5 29.5,-282.5"/>
<text text-anchor="middle" x="80.5" y="-360.5" font-family="SegoeUI" font-size="10.00">PngChunkSingle</text>
<polyline fill="none" stroke="black" points="29.5,-353.5 131.5,-353.5 "/>
<text text-anchor="middle" x="80.5" y="-341.5" font-family="SegoeUI" font-size="10.00"> </text>
<polyline fill="none" stroke="black" points="29.5,-334.5 131.5,-334.5 "/>
<text text-anchor="start" x="37.5" y="-322.5" font-family="SegoeUI" font-size="10.00">+ AllowsMultiple()</text>
<text text-anchor="start" x="37.5" y="-311.5" font-family="SegoeUI" font-size="10.00">+ GetHashCode()</text>
<text text-anchor="start" x="37.5" y="-300.5" font-family="SegoeUI" font-size="10.00">+ Equals()</text>
<text text-anchor="start" x="37.5" y="-289.5" font-family="SegoeUI" font-size="10.00"># PngChunkSingle()</text>
</a>
</g>
</g>
<!-- Node4&#45;&gt;Node3 -->
<g id="edge1" class="edge"><title>Node4&#45;&gt;Node3</title>
<path fill="none" stroke="midnightblue" d="M80.5,-272.202C80.5,-263.54 80.5,-254.288 80.5,-244.796"/>
<polygon fill="none" stroke="midnightblue" points="77.0001,-272.452 80.5,-282.452 84.0001,-272.452 77.0001,-272.452"/>
</g>
<!-- Node5 -->
<g id="node3" class="node"><title>Node5</title>
<g id="a_node3"><a xlink:href="../../d8/dd4/class_hjg_1_1_pngcs_1_1_chunks_1_1_abstract_png_chunk.html" target="_top" xlink:title="Represents a instance of a PNG chunk">
<polygon fill="white" stroke="black" points="16.5,-410.5 16.5,-742.5 144.5,-742.5 144.5,-410.5 16.5,-410.5"/>
<text text-anchor="middle" x="80.5" y="-730.5" font-family="SegoeUI" font-size="10.00">AbstractPngChunk</text>
<polyline fill="none" stroke="black" points="16.5,-723.5 144.5,-723.5 "/>
<text text-anchor="start" x="24.5" y="-711.5" font-family="SegoeUI" font-size="10.00">+ Id</text>
<text text-anchor="start" x="24.5" y="-700.5" font-family="SegoeUI" font-size="10.00">+ Crit</text>
<text text-anchor="start" x="24.5" y="-689.5" font-family="SegoeUI" font-size="10.00">+ Pub</text>
<text text-anchor="start" x="24.5" y="-678.5" font-family="SegoeUI" font-size="10.00">+ Safe</text>
<text text-anchor="start" x="24.5" y="-667.5" font-family="SegoeUI" font-size="10.00">+ ImgInfo</text>
<text text-anchor="start" x="24.5" y="-656.5" font-family="SegoeUI" font-size="10.00">+ Priority</text>
<text text-anchor="start" x="24.5" y="-645.5" font-family="SegoeUI" font-size="10.00">+ ChunkGroup</text>
<text text-anchor="start" x="24.5" y="-634.5" font-family="SegoeUI" font-size="10.00">+ Length</text>
<text text-anchor="start" x="24.5" y="-623.5" font-family="SegoeUI" font-size="10.00">+ Offset</text>
<polyline fill="none" stroke="black" points="16.5,-616.5 144.5,-616.5 "/>
<text text-anchor="start" x="24.5" y="-604.5" font-family="SegoeUI" font-size="10.00">+ CreateEmptyChunk()</text>
<text text-anchor="start" x="24.5" y="-593.5" font-family="SegoeUI" font-size="10.00">+ ToString()</text>
<text text-anchor="start" x="24.5" y="-582.5" font-family="SegoeUI" font-size="10.00">+ CreateRawChunk()</text>
<text text-anchor="start" x="24.5" y="-571.5" font-family="SegoeUI" font-size="10.00">+ ParseFromRaw()</text>
<text text-anchor="start" x="24.5" y="-560.5" font-family="SegoeUI" font-size="10.00">+ CloneDataFromRead()</text>
<text text-anchor="start" x="24.5" y="-549.5" font-family="SegoeUI" font-size="10.00">+ AllowsMultiple()</text>
<text text-anchor="start" x="24.5" y="-538.5" font-family="SegoeUI" font-size="10.00">+ GetOrderingConstraint()</text>
<text text-anchor="start" x="24.5" y="-527.5" font-family="SegoeUI" font-size="10.00">+ FactoryRegister()</text>
<text text-anchor="start" x="24.5" y="-516.5" font-family="SegoeUI" font-size="10.00">+ CloneChunk&lt; T &gt;()</text>
<text text-anchor="start" x="24.5" y="-505.5" font-family="SegoeUI" font-size="10.00"># AbstractPngChunk()</text>
<text text-anchor="start" x="24.5" y="-494.5" font-family="SegoeUI" font-size="10.00">&#45; MustGoBeforePLTE()</text>
<text text-anchor="start" x="24.5" y="-483.5" font-family="SegoeUI" font-size="10.00">&#45; MustGoBeforeIDAT()</text>
<text text-anchor="start" x="24.5" y="-472.5" font-family="SegoeUI" font-size="10.00">&#45; MustGoAfterPLTE()</text>
<text text-anchor="start" x="24.5" y="-461.5" font-family="SegoeUI" font-size="10.00">&#45; Write()</text>
<text text-anchor="start" x="24.5" y="-450.5" font-family="SegoeUI" font-size="10.00">&#45; InitFactory()</text>
<text text-anchor="start" x="24.5" y="-439.5" font-family="SegoeUI" font-size="10.00">&#45; IsKnown()</text>
<text text-anchor="start" x="24.5" y="-428.5" font-family="SegoeUI" font-size="10.00">&#45; Factory()</text>
<text text-anchor="start" x="24.5" y="-417.5" font-family="SegoeUI" font-size="10.00">&#45; FactoryFromId()</text>
</a>
</g>
</g>
<!-- Node5&#45;&gt;Node4 -->
<g id="edge2" class="edge"><title>Node5&#45;&gt;Node4</title>
<path fill="none" stroke="midnightblue" d="M80.5,-400.373C80.5,-390.509 80.5,-381.18 80.5,-372.713"/>
<polygon fill="none" stroke="midnightblue" points="77.0001,-400.404 80.5,-410.404 84.0001,-400.404 77.0001,-400.404"/>
</g>
<!-- Node6 -->
<g id="node4" class="node"><title>Node6</title>
<g id="a_node4"><a xlink:title=" ">
<polygon fill="white" stroke="#bfbfbf" points="61,-790.5 61,-847.5 100,-847.5 100,-790.5 61,-790.5"/>
<text text-anchor="middle" x="80.5" y="-835.5" font-family="SegoeUI" font-size="10.00">static</text>
<polyline fill="none" stroke="#bfbfbf" points="61,-828.5 100,-828.5 "/>
<text text-anchor="middle" x="80.5" y="-816.5" font-family="SegoeUI" font-size="10.00"> </text>
<polyline fill="none" stroke="#bfbfbf" points="61,-809.5 100,-809.5 "/>
<text text-anchor="middle" x="80.5" y="-797.5" font-family="SegoeUI" font-size="10.00"> </text>
</a>
</g>
</g>
<!-- Node6&#45;&gt;Node5 -->
<g id="edge3" class="edge"><title>Node6&#45;&gt;Node5</title>
<path fill="none" stroke="#404040" d="M80.5,-790.412C80.5,-780.392 80.5,-768.194 80.5,-754.761"/>
<polygon fill="none" stroke="#404040" points="80.5001,-754.662 76.5,-748.662 80.5,-742.662 84.5,-748.662 80.5001,-754.662"/>
<text text-anchor="middle" x="108" y="-764" font-family="SegoeUI" font-size="10.00"> &#45;factoryMap</text>
</g>
</g>
</svg>
        <g id="navigator" transform="translate(0 0)" fill="#404254">
                <rect fill="#f2f5e9" fill-opacity="0.5" stroke="#606060" stroke-width=".5" x="0" y="0" width="60" height="60"/>
                <use id="zoomplus" xlink:href="#zoomPlus" x="17" y="9" onmousedown="handleZoom(evt,'in')"/>
                <use id="zoomminus" xlink:href="#zoomMin" x="42" y="9" onmousedown="handleZoom(evt,'out')"/>
                <use id="reset" xlink:href="#resetDef" x="30" y="36" onmousedown="handleReset()"/>
                <g id="arrowUp" xlink:href="#dirArrow" transform="translate(30 24)" onmousedown="handlePan(0,-1)">
                  <use xlink:href="#rim" fill="#404040">
                        <set attributeName="fill" to="#808080" begin="arrowUp.mouseover" end="arrowUp.mouseout"/>
                  </use>
                  <path fill="none" stroke="white" stroke-width="1.5" d="M0,-3.0v7 M-2.5,-0.5L0,-3.0L2.5,-0.5"/>
                </g>
                <g id="arrowRight" xlink:href="#dirArrow" transform="rotate(90) translate(36 -43)" onmousedown="handlePan(1,0)">
                  <use xlink:href="#rim" fill="#404040">
                        <set attributeName="fill" to="#808080" begin="arrowRight.mouseover" end="arrowRight.mouseout"/>
                  </use>
                  <path fill="none" stroke="white" stroke-width="1.5" d="M0,-3.0v7 M-2.5,-0.5L0,-3.0L2.5,-0.5"/>
                </g>
                <g id="arrowDown" xlink:href="#dirArrow" transform="rotate(180) translate(-30 -48)" onmousedown="handlePan(0,1)">
                  <use xlink:href="#rim" fill="#404040">
                        <set attributeName="fill" to="#808080" begin="arrowDown.mouseover" end="arrowDown.mouseout"/>
                  </use>
                  <path fill="none" stroke="white" stroke-width="1.5" d="M0,-3.0v7 M-2.5,-0.5L0,-3.0L2.5,-0.5"/>
                </g>
                <g id="arrowLeft" xlink:href="#dirArrow" transform="rotate(270) translate(-36 17)" onmousedown="handlePan(-1,0)">
                  <use xlink:href="#rim" fill="#404040">
                        <set attributeName="fill" to="#808080" begin="arrowLeft.mouseover" end="arrowLeft.mouseout"/>
                  </use>
                  <path fill="none" stroke="white" stroke-width="1.5" d="M0,-3.0v7 M-2.5,-0.5L0,-3.0L2.5,-0.5"/>
                </g>
        </g>
        <svg viewBox="0 0 15 15" width="100%" height="30px" preserveAspectRatio="xMaxYMin meet">
         <g id="arrow_out" transform="scale(0.3 0.3)">
          <a xlink:href="class_hjg_1_1_pngcs_1_1_chunks_1_1_png_chunk_t_r_n_s__coll__graph_org.svg" target="_base">
           <rect id="button" ry="5" rx="5" y="6" x="6" height="38" width="38"
                fill="#f2f5e9" fill-opacity="0.5" stroke="#606060" stroke-width="1.0"/>
           <path id="arrow"
             d="M 11.500037,31.436501 C 11.940474,20.09759 22.043105,11.32322 32.158766,21.979434 L 37.068811,17.246167 C 37.068811,17.246167 37.088388,32 37.088388,32 L 22.160133,31.978069 C 22.160133,31.978069 26.997745,27.140456 26.997745,27.140456 C 18.528582,18.264221 13.291696,25.230495 11.500037,31.436501 z"
             style="fill:#404040;"/>
          </a>
         </g>
        </svg>
</svg>
