<?xml version="1.0" encoding="UTF-8" standalone="no"?>
<!DOCTYPE svg PUBLIC "-//W3C//DTD SVG 1.1//EN"
 "http://www.w3.org/Graphics/SVG/1.1/DTD/svg11.dtd">
<!-- Generated by graphviz version 2.38.0 (20140413.2041)
 -->
<!-- Title: Juniper.Widgets.DebugObject Pages: 1 -->
<svg width="151pt" height="160pt"
 viewBox="0.00 0.00 151.00 160.00" xmlns="http://www.w3.org/2000/svg" xmlns:xlink="http://www.w3.org/1999/xlink">
<g id="graph0" class="graph" transform="scale(1 1) rotate(0) translate(4 156)">
<title>Juniper.Widgets.DebugObject</title>
<polygon fill="white" stroke="none" points="-4,4 -4,-156 147,-156 147,4 -4,4"/>
<!-- Node0 -->
<g id="node1" class="node"><title>Node0</title>
<g id="a_node1"><a xlink:title="GameObjects with this component will be hidden in the live application view, only appearing in the Un...">
<polygon fill="#bfbfbf" stroke="black" points="0,-0.5 0,-57.5 143,-57.5 143,-0.5 0,-0.5"/>
<text text-anchor="middle" x="71.5" y="-45.5" font-family="SegoeUI" font-size="10.00">Juniper.Widgets.DebugObject</text>
<polyline fill="none" stroke="black" points="0,-38.5 143,-38.5 "/>
<text text-anchor="middle" x="71.5" y="-26.5" font-family="SegoeUI" font-size="10.00"> </text>
<polyline fill="none" stroke="black" points="0,-19.5 143,-19.5 "/>
<text text-anchor="start" x="8" y="-7.5" font-family="SegoeUI" font-size="10.00">&#45; Awake()</text>
</a>
</g>
</g>
<!-- Node1 -->
<g id="node2" class="node"><title>Node1</title>
<g id="a_node2"><a xlink:title=" ">
<polygon fill="white" stroke="#bfbfbf" points="30.5,-94.5 30.5,-151.5 112.5,-151.5 112.5,-94.5 30.5,-94.5"/>
<text text-anchor="middle" x="71.5" y="-139.5" font-family="SegoeUI" font-size="10.00">MonoBehaviour</text>
<polyline fill="none" stroke="#bfbfbf" points="30.5,-132.5 112.5,-132.5 "/>
<text text-anchor="middle" x="71.5" y="-120.5" font-family="SegoeUI" font-size="10.00"> </text>
<polyline fill="none" stroke="#bfbfbf" points="30.5,-113.5 112.5,-113.5 "/>
<text text-anchor="middle" x="71.5" y="-101.5" font-family="SegoeUI" font-size="10.00"> </text>
</a>
</g>
</g>
<!-- Node1&#45;&gt;Node0 -->
<g id="edge1" class="edge"><title>Node1&#45;&gt;Node0</title>
<path fill="none" stroke="midnightblue" d="M71.5,-84.2092C71.5,-75.2929 71.5,-65.9513 71.5,-57.5836"/>
<polygon fill="none" stroke="midnightblue" points="68.0001,-84.3969 71.5,-94.397 75.0001,-84.397 68.0001,-84.3969"/>
</g>
</g>
</svg>
