<?xml version="1.0" encoding="UTF-8" standalone="no"?>
<!DOCTYPE svg PUBLIC "-//W3C//DTD SVG 1.1//EN"
 "http://www.w3.org/Graphics/SVG/1.1/DTD/svg11.dtd">
<!-- Generated by graphviz version 2.38.0 (20140413.2041)
 -->
<!-- Title: Juniper.Unity.EditorTextInput Pages: 1 -->
<svg width="234pt" height="288pt"
 viewBox="0.00 0.00 233.50 288.00" xmlns="http://www.w3.org/2000/svg" xmlns:xlink="http://www.w3.org/1999/xlink">
<g id="graph0" class="graph" transform="scale(1 1) rotate(0) translate(4 284)">
<title>Juniper.Unity.EditorTextInput</title>
<polygon fill="white" stroke="none" points="-4,4 -4,-284 229.5,-284 229.5,4 -4,4"/>
<!-- Node2 -->
<g id="node1" class="node"><title>Node2</title>
<g id="a_node1"><a xlink:title=" ">
<polygon fill="#bfbfbf" stroke="black" points="20,-0.5 20,-68.5 138,-68.5 138,-0.5 20,-0.5"/>
<text text-anchor="start" x="28" y="-56.5" font-family="SegoeUI" font-size="10.00">Juniper.Unity.EditorText</text>
<text text-anchor="middle" x="79" y="-45.5" font-family="SegoeUI" font-size="10.00">Input</text>
<polyline fill="none" stroke="black" points="20,-38.5 138,-38.5 "/>
<text text-anchor="start" x="28" y="-26.5" font-family="SegoeUI" font-size="10.00">+ value</text>
<polyline fill="none" stroke="black" points="20,-19.5 138,-19.5 "/>
<text text-anchor="start" x="28" y="-7.5" font-family="SegoeUI" font-size="10.00">+ Submit()</text>
</a>
</g>
</g>
<!-- Node3 -->
<g id="node2" class="node"><title>Node3</title>
<g id="a_node2"><a xlink:title=" ">
<polygon fill="white" stroke="#bfbfbf" points="0,-122 0,-179 82,-179 82,-122 0,-122"/>
<text text-anchor="middle" x="41" y="-167" font-family="SegoeUI" font-size="10.00">MonoBehaviour</text>
<polyline fill="none" stroke="#bfbfbf" points="0,-160 82,-160 "/>
<text text-anchor="middle" x="41" y="-148" font-family="SegoeUI" font-size="10.00"> </text>
<polyline fill="none" stroke="#bfbfbf" points="0,-141 82,-141 "/>
<text text-anchor="middle" x="41" y="-129" font-family="SegoeUI" font-size="10.00"> </text>
</a>
</g>
</g>
<!-- Node3&#45;&gt;Node2 -->
<g id="edge1" class="edge"><title>Node3&#45;&gt;Node2</title>
<path fill="none" stroke="midnightblue" d="M53.4838,-112.049C58.1676,-97.9971 63.4526,-82.1422 67.9929,-68.5214"/>
<polygon fill="none" stroke="midnightblue" points="50.0407,-111.31 50.1987,-121.904 56.6815,-113.524 50.0407,-111.31"/>
</g>
<!-- Node4 -->
<g id="node3" class="node"><title>Node4</title>
<g id="a_node3"><a xlink:href="../../d9/d59/class_unity_engine_1_1_events_1_1_string_event.html" target="_top" xlink:title="An event that passes a string value as an argument.">
<polygon fill="white" stroke="black" points="100.5,-116.5 100.5,-184.5 225.5,-184.5 225.5,-116.5 100.5,-116.5"/>
<text text-anchor="start" x="108.5" y="-172.5" font-family="SegoeUI" font-size="10.00">UnityEngine.Events.String</text>
<text text-anchor="middle" x="163" y="-161.5" font-family="SegoeUI" font-size="10.00">Event</text>
<polyline fill="none" stroke="black" points="100.5,-154.5 225.5,-154.5 "/>
<text text-anchor="middle" x="163" y="-142.5" font-family="SegoeUI" font-size="10.00"> </text>
<polyline fill="none" stroke="black" points="100.5,-135.5 225.5,-135.5 "/>
<text text-anchor="middle" x="163" y="-123.5" font-family="SegoeUI" font-size="10.00"> </text>
</a>
</g>
</g>
<!-- Node4&#45;&gt;Node2 -->
<g id="edge2" class="edge"><title>Node4&#45;&gt;Node2</title>
<path fill="none" stroke="#404040" d="M138.478,-116.22C129.766,-104.397 119.833,-90.9159 110.612,-78.4024"/>
<polygon fill="none" stroke="#404040" points="110.526,-78.285 103.746,-75.8274 103.407,-68.6243 110.187,-71.0818 110.526,-78.285"/>
<text text-anchor="middle" x="149" y="-90" font-family="SegoeUI" font-size="10.00"> +OnSubmit</text>
</g>
<!-- Node5 -->
<g id="node4" class="node"><title>Node5</title>
<g id="a_node4"><a xlink:title=" ">
<polygon fill="white" stroke="#bfbfbf" points="111,-222.5 111,-279.5 215,-279.5 215,-222.5 111,-222.5"/>
<text text-anchor="middle" x="163" y="-267.5" font-family="SegoeUI" font-size="10.00">UnityEvent&lt; string &gt;</text>
<polyline fill="none" stroke="#bfbfbf" points="111,-260.5 215,-260.5 "/>
<text text-anchor="middle" x="163" y="-248.5" font-family="SegoeUI" font-size="10.00"> </text>
<polyline fill="none" stroke="#bfbfbf" points="111,-241.5 215,-241.5 "/>
<text text-anchor="middle" x="163" y="-229.5" font-family="SegoeUI" font-size="10.00"> </text>
</a>
</g>
</g>
<!-- Node5&#45;&gt;Node4 -->
<g id="edge3" class="edge"><title>Node5&#45;&gt;Node4</title>
<path fill="none" stroke="midnightblue" d="M163,-212.007C163,-202.962 163,-193.383 163,-184.578"/>
<polygon fill="none" stroke="midnightblue" points="159.5,-212.3 163,-222.3 166.5,-212.3 159.5,-212.3"/>
</g>
</g>
</svg>
