<?xml version="1.0" encoding="UTF-8" standalone="no"?>
<!DOCTYPE svg PUBLIC "-//W3C//DTD SVG 1.1//EN"
 "http://www.w3.org/Graphics/SVG/1.1/DTD/svg11.dtd">
<!-- Generated by graphviz version 2.38.0 (20140413.2041)
 -->
<!-- Title: Juniper.World.GIS.UTMPoint Pages: 1 -->
<svg width="145pt" height="248pt"
 viewBox="0.00 0.00 145.00 248.00" xmlns="http://www.w3.org/2000/svg" xmlns:xlink="http://www.w3.org/1999/xlink">
<g id="graph0" class="graph" transform="scale(1 1) rotate(0) translate(4 244)">
<title>Juniper.World.GIS.UTMPoint</title>
<polygon fill="white" stroke="none" points="-4,4 -4,-244 141,-244 141,4 -4,4"/>
<!-- Node2 -->
<g id="node1" class="node"><title>Node2</title>
<g id="a_node1"><a xlink:title="The Universal Transverse Mercator (UTM) conformal projection uses a 2&#45;dimensional Cartesian coordinat...">
<polygon fill="#bfbfbf" stroke="black" points="0,-0.5 0,-145.5 137,-145.5 137,-0.5 0,-0.5"/>
<text text-anchor="middle" x="68.5" y="-133.5" font-family="SegoeUI" font-size="10.00">Juniper.World.GIS.UTMPoint</text>
<polyline fill="none" stroke="black" points="0,-126.5 137,-126.5 "/>
<text text-anchor="start" x="8" y="-114.5" font-family="SegoeUI" font-size="10.00">+ X</text>
<text text-anchor="start" x="8" y="-103.5" font-family="SegoeUI" font-size="10.00">+ Y</text>
<text text-anchor="start" x="8" y="-92.5" font-family="SegoeUI" font-size="10.00">+ Z</text>
<text text-anchor="start" x="8" y="-81.5" font-family="SegoeUI" font-size="10.00">+ Zone</text>
<text text-anchor="start" x="8" y="-70.5" font-family="SegoeUI" font-size="10.00">+ Hemisphere</text>
<polyline fill="none" stroke="black" points="0,-63.5 137,-63.5 "/>
<text text-anchor="start" x="8" y="-51.5" font-family="SegoeUI" font-size="10.00">+ UTMPoint()</text>
<text text-anchor="start" x="8" y="-40.5" font-family="SegoeUI" font-size="10.00">+ GetObjectData()</text>
<text text-anchor="start" x="8" y="-29.5" font-family="SegoeUI" font-size="10.00">+ ToLatLng()</text>
<text text-anchor="start" x="8" y="-18.5" font-family="SegoeUI" font-size="10.00">+ ToString()</text>
<text text-anchor="start" x="8" y="-7.5" font-family="SegoeUI" font-size="10.00">&#45; UTMPoint()</text>
</a>
</g>
</g>
<!-- Node3 -->
<g id="node2" class="node"><title>Node3</title>
<g id="a_node2"><a xlink:title=" ">
<polygon fill="white" stroke="#bfbfbf" points="34,-182.5 34,-239.5 103,-239.5 103,-182.5 34,-182.5"/>
<text text-anchor="middle" x="68.5" y="-227.5" font-family="SegoeUI" font-size="10.00">ISerializable</text>
<polyline fill="none" stroke="#bfbfbf" points="34,-220.5 103,-220.5 "/>
<text text-anchor="middle" x="68.5" y="-208.5" font-family="SegoeUI" font-size="10.00"> </text>
<polyline fill="none" stroke="#bfbfbf" points="34,-201.5 103,-201.5 "/>
<text text-anchor="middle" x="68.5" y="-189.5" font-family="SegoeUI" font-size="10.00"> </text>
</a>
</g>
</g>
<!-- Node3&#45;&gt;Node2 -->
<g id="edge1" class="edge"><title>Node3&#45;&gt;Node2</title>
<path fill="none" stroke="midnightblue" d="M68.5,-172.356C68.5,-163.999 68.5,-154.872 68.5,-145.656"/>
<polygon fill="none" stroke="midnightblue" points="65.0001,-172.478 68.5,-182.478 72.0001,-172.478 65.0001,-172.478"/>
</g>
</g>
</svg>
