<?xml version="1.0" encoding="UTF-8" standalone="no"?>
<!DOCTYPE svg PUBLIC "-//W3C//DTD SVG 1.1//EN"
 "http://www.w3.org/Graphics/SVG/1.1/DTD/svg11.dtd">
<!-- Generated by graphviz version 2.38.0 (20140413.2041)
 -->
<!-- Title: Juniper.Unity.Input.Pointers.Motion.AbstractMotionControllerConfiguration&lt; HandIDType, ButtonIDType &gt; Pages: 1 -->
<svg width="219pt" height="397pt"
 viewBox="0.00 0.00 219.00 397.00" xmlns="http://www.w3.org/2000/svg" xmlns:xlink="http://www.w3.org/1999/xlink">
<g id="graph0" class="graph" transform="scale(1 1) rotate(0) translate(4 393)">
<title>Juniper.Unity.Input.Pointers.Motion.AbstractMotionControllerConfiguration&lt; HandIDType, ButtonIDType &gt;</title>
<polygon fill="white" stroke="none" points="-4,4 -4,-393 215,-393 215,4 -4,4"/>
<!-- Node5 -->
<g id="node1" class="node"><title>Node5</title>
<g id="a_node1"><a xlink:title=" ">
<polygon fill="#bfbfbf" stroke="black" points="0,-0.5 0,-134.5 211,-134.5 211,-0.5 0,-0.5"/>
<text text-anchor="start" x="8" y="-122.5" font-family="SegoeUI" font-size="10.00">Juniper.Unity.Input.Pointers.</text>
<text text-anchor="start" x="8" y="-111.5" font-family="SegoeUI" font-size="10.00">Motion.AbstractMotionControllerConfiguration</text>
<text text-anchor="middle" x="105.5" y="-100.5" font-family="SegoeUI" font-size="10.00">&lt; HandIDType, ButtonIDType &gt;</text>
<polyline fill="none" stroke="black" points="0,-93.5 211,-93.5 "/>
<text text-anchor="start" x="8" y="-81.5" font-family="SegoeUI" font-size="10.00">+ PointerNameStub</text>
<text text-anchor="start" x="8" y="-70.5" font-family="SegoeUI" font-size="10.00">&#45; touchPadButtons</text>
<text text-anchor="start" x="8" y="-59.5" font-family="SegoeUI" font-size="10.00">&#45; triggerButtons</text>
<polyline fill="none" stroke="black" points="0,-52.5 211,-52.5 "/>
<text text-anchor="start" x="8" y="-40.5" font-family="SegoeUI" font-size="10.00">+ Install()</text>
<text text-anchor="start" x="8" y="-29.5" font-family="SegoeUI" font-size="10.00">+ Install()</text>
<text text-anchor="start" x="8" y="-18.5" font-family="SegoeUI" font-size="10.00"># AddButton()</text>
<text text-anchor="start" x="8" y="-7.5" font-family="SegoeUI" font-size="10.00"># AddButton()</text>
</a>
</g>
</g>
<!-- Node6 -->
<g id="node2" class="node"><title>Node6</title>
<g id="a_node2"><a xlink:href="../../d0/da7/class_juniper_1_1_unity_1_1_input_1_1_pointers_1_1_motion_1_1_abstract_handed_pointer_configuration.html" target="_top" xlink:title=" ">
<polygon fill="white" stroke="black" points="20,-171.5 20,-261.5 191,-261.5 191,-171.5 20,-171.5"/>
<text text-anchor="start" x="28" y="-249.5" font-family="SegoeUI" font-size="10.00">AbstractHandedPointerConfiguration</text>
<text text-anchor="middle" x="105.5" y="-238.5" font-family="SegoeUI" font-size="10.00">&lt; HandIDType, ButtonIDType &gt;</text>
<polyline fill="none" stroke="black" points="20,-231.5 191,-231.5 "/>
<text text-anchor="start" x="28" y="-219.5" font-family="SegoeUI" font-size="10.00">+ HandType</text>
<text text-anchor="start" x="28" y="-208.5" font-family="SegoeUI" font-size="10.00">+ PointerNameStub</text>
<text text-anchor="start" x="28" y="-197.5" font-family="SegoeUI" font-size="10.00">+ this[Hands hand]</text>
<polyline fill="none" stroke="black" points="20,-190.5 191,-190.5 "/>
<text text-anchor="start" x="28" y="-178.5" font-family="SegoeUI" font-size="10.00">+ MakePointerName()</text>
</a>
</g>
</g>
<!-- Node6&#45;&gt;Node5 -->
<g id="edge1" class="edge"><title>Node6&#45;&gt;Node5</title>
<path fill="none" stroke="midnightblue" d="M105.5,-161.375C105.5,-152.658 105.5,-143.55 105.5,-134.591"/>
<polygon fill="none" stroke="midnightblue" points="102,-161.395 105.5,-171.395 109,-161.395 102,-161.395"/>
</g>
<!-- Node7 -->
<g id="node3" class="node"><title>Node7</title>
<g id="a_node3"><a xlink:href="../../db/d8b/class_juniper_1_1_unity_1_1_input_1_1_pointers_1_1_abstract_pointer_configuration.html" target="_top" xlink:title=" ">
<polygon fill="white" stroke="black" points="36,-298.5 36,-388.5 175,-388.5 175,-298.5 36,-298.5"/>
<text text-anchor="start" x="44" y="-376.5" font-family="SegoeUI" font-size="10.00">AbstractPointerConfiguration</text>
<text text-anchor="middle" x="105.5" y="-365.5" font-family="SegoeUI" font-size="10.00">&lt; ButtonIDType &gt;</text>
<polyline fill="none" stroke="black" points="36,-358.5 175,-358.5 "/>
<text text-anchor="start" x="44" y="-346.5" font-family="SegoeUI" font-size="10.00">&#45; nativeButtons</text>
<polyline fill="none" stroke="black" points="36,-339.5 175,-339.5 "/>
<text text-anchor="start" x="44" y="-327.5" font-family="SegoeUI" font-size="10.00">+ Install()</text>
<text text-anchor="start" x="44" y="-316.5" font-family="SegoeUI" font-size="10.00">+ Uninstall()</text>
<text text-anchor="start" x="44" y="-305.5" font-family="SegoeUI" font-size="10.00"># AddButton()</text>
</a>
</g>
</g>
<!-- Node7&#45;&gt;Node6 -->
<g id="edge2" class="edge"><title>Node7&#45;&gt;Node6</title>
<path fill="none" stroke="midnightblue" d="M105.5,-288.157C105.5,-279.282 105.5,-270.183 105.5,-261.594"/>
<polygon fill="none" stroke="midnightblue" points="102,-288.43 105.5,-298.43 109,-288.43 102,-288.43"/>
</g>
</g>
</svg>
