<?xml version="1.0" encoding="UTF-8" standalone="no"?>
<!DOCTYPE svg PUBLIC "-//W3C//DTD SVG 1.1//EN"
 "http://www.w3.org/Graphics/SVG/1.1/DTD/svg11.dtd">
<!-- Generated by graphviz version 2.38.0 (20140413.2041)
 -->
<!-- Title: Juniper.Widgets.ScaleHandle Pages: 1 -->
<!--zoomable 1436 -->
<svg id="main" version="1.1" xmlns="http://www.w3.org/2000/svg" xmlns:xlink="http://www.w3.org/1999/xlink" xml:space="preserve" onload="init(evt)">
<style type="text/css"><![CDATA[
.edge:hover path { stroke: red; }
.edge:hover polygon { stroke: red; fill: red; }
]]></style>
<script type="text/javascript"><![CDATA[
var edges = document.getElementsByTagName('g');
if (edges && edges.length) {
  for (var i=0;i<edges.length;i++) {
    if (edges[i].id.substr(0,4)=='edge') {
      edges[i].setAttribute('class','edge');
    }
  }
}
]]></script>
        <defs>
                <circle id="rim" cx="0" cy="0" r="7"/>
                <circle id="rim2" cx="0" cy="0" r="3.5"/>
                <g id="zoomPlus">
                        <use xlink:href="#rim" fill="#404040">
                                <set attributeName="fill" to="#808080" begin="zoomplus.mouseover" end="zoomplus.mouseout"/>
                        </use>
                        <path d="M-4,0h8M0,-4v8" fill="none" stroke="white" stroke-width="1.5" pointer-events="none"/>
                </g>
                <g id="zoomMin">
                        <use xlink:href="#rim" fill="#404040">
                                <set attributeName="fill" to="#808080" begin="zoomminus.mouseover" end="zoomminus.mouseout"/>
                        </use>
                        <path d="M-4,0h8" fill="none" stroke="white" stroke-width="1.5" pointer-events="none"/>
                </g>
                <g id="dirArrow">
                        <path fill="none" stroke="white" stroke-width="1.5" d="M0,-3.0v7 M-2.5,-0.5L0,-3.0L2.5,-0.5"/>
                </g>
               <g id="resetDef">
                       <use xlink:href="#rim2" fill="#404040">
                               <set attributeName="fill" to="#808080" begin="reset.mouseover" end="reset.mouseout"/>
                       </use>
               </g>
        </defs>

<script type="text/javascript">
var viewWidth = 1375;
var viewHeight = 1436;
var sectionId = 'dynsection-1';
</script>
<script xlink:href="../../svgpan.js"/>
<svg id="graph" class="graph">
<g id="viewport">
<title>Juniper.Widgets.ScaleHandle</title>
<polygon fill="white" stroke="none" points="-4,4 -4,-1432 1371,-1432 1371,4 -4,4"/>
<!-- Node3 -->
<g id="node1" class="node"><title>Node3</title>
<g id="a_node1"><a xlink:title="A constraint handle that is used to scale the size of a target object.">
<polygon fill="#bfbfbf" stroke="black" points="0,-0.5 0,-68.5 140,-68.5 140,-0.5 0,-0.5"/>
<text text-anchor="middle" x="70" y="-56.5" font-family="SegoeUI" font-size="10.00">Juniper.Widgets.ScaleHandle</text>
<polyline fill="none" stroke="black" points="0,-49.5 140,-49.5 "/>
<text text-anchor="middle" x="70" y="-37.5" font-family="SegoeUI" font-size="10.00"> </text>
<polyline fill="none" stroke="black" points="0,-30.5 140,-30.5 "/>
<text text-anchor="start" x="8" y="-18.5" font-family="SegoeUI" font-size="10.00"># GetChange()</text>
<text text-anchor="start" x="8" y="-7.5" font-family="SegoeUI" font-size="10.00"># ApplyChange()</text>
</a>
</g>
</g>
<!-- Node4 -->
<g id="node2" class="node"><title>Node4</title>
<g id="a_node2"><a xlink:href="../../d3/d3f/class_juniper_1_1_widgets_1_1_abstract_constraint_handle.html" target="_top" xlink:title="An abstract class that manages reading the movement of a control handle and constraining that movemen...">
<polygon fill="white" stroke="black" points="7.5,-106.5 7.5,-251.5 132.5,-251.5 132.5,-106.5 7.5,-106.5"/>
<text text-anchor="middle" x="70" y="-239.5" font-family="SegoeUI" font-size="10.00">AbstractConstraintHandle</text>
<polyline fill="none" stroke="black" points="7.5,-232.5 132.5,-232.5 "/>
<text text-anchor="start" x="15.5" y="-220.5" font-family="SegoeUI" font-size="10.00">+ target</text>
<text text-anchor="start" x="15.5" y="-209.5" font-family="SegoeUI" font-size="10.00">+ axis</text>
<text text-anchor="start" x="15.5" y="-198.5" font-family="SegoeUI" font-size="10.00">+ speed</text>
<text text-anchor="start" x="15.5" y="-187.5" font-family="SegoeUI" font-size="10.00">&#45; hadTarget</text>
<polyline fill="none" stroke="black" points="7.5,-180.5 132.5,-180.5 "/>
<text text-anchor="start" x="15.5" y="-168.5" font-family="SegoeUI" font-size="10.00">+ Awake()</text>
<text text-anchor="start" x="15.5" y="-157.5" font-family="SegoeUI" font-size="10.00">+ Update()</text>
<text text-anchor="start" x="15.5" y="-146.5" font-family="SegoeUI" font-size="10.00">+ Setup()</text>
<text text-anchor="start" x="15.5" y="-135.5" font-family="SegoeUI" font-size="10.00"># ConstrainChange()</text>
<text text-anchor="start" x="15.5" y="-124.5" font-family="SegoeUI" font-size="10.00"># GetChange()</text>
<text text-anchor="start" x="15.5" y="-113.5" font-family="SegoeUI" font-size="10.00"># ApplyChange()</text>
</a>
</g>
</g>
<!-- Node4&#45;&gt;Node3 -->
<g id="edge1" class="edge"><title>Node4&#45;&gt;Node3</title>
<path fill="none" stroke="midnightblue" d="M70,-96.1822C70,-86.5049 70,-77.0935 70,-68.6838"/>
<polygon fill="none" stroke="midnightblue" points="66.5001,-96.3325 70,-106.333 73.5001,-96.3326 66.5001,-96.3325"/>
</g>
<!-- Node5 -->
<g id="node3" class="node"><title>Node5</title>
<g id="a_node3"><a xlink:title=" ">
<polygon fill="white" stroke="#bfbfbf" points="972,-1370.5 972,-1427.5 1054,-1427.5 1054,-1370.5 972,-1370.5"/>
<text text-anchor="middle" x="1013" y="-1415.5" font-family="SegoeUI" font-size="10.00">MonoBehaviour</text>
<polyline fill="none" stroke="#bfbfbf" points="972,-1408.5 1054,-1408.5 "/>
<text text-anchor="middle" x="1013" y="-1396.5" font-family="SegoeUI" font-size="10.00"> </text>
<polyline fill="none" stroke="#bfbfbf" points="972,-1389.5 1054,-1389.5 "/>
<text text-anchor="middle" x="1013" y="-1377.5" font-family="SegoeUI" font-size="10.00"> </text>
</a>
</g>
</g>
<!-- Node5&#45;&gt;Node4 -->
<g id="edge2" class="edge"><title>Node5&#45;&gt;Node4</title>
<path fill="none" stroke="midnightblue" d="M961.671,-1397.48C758.813,-1394.77 24,-1378.36 24,-1283 24,-1283 24,-1283 24,-387.5 24,-341.561 34.8797,-291.228 46.0569,-251.64"/>
<polygon fill="none" stroke="midnightblue" points="961.719,-1400.98 971.763,-1397.61 961.809,-1393.98 961.719,-1400.98"/>
</g>
<!-- Node9 -->
<g id="node7" class="node"><title>Node9</title>
<g id="a_node7"><a xlink:href="../../d7/d8c/class_juniper_1_1_widgets_1_1_abstract_touchable.html" target="_top" xlink:title="The base class for all interactive, AR&#45;compatible, GUI controls /// This class is abstract to avoid i...">
<polygon fill="white" stroke="black" points="707,-906.5 707,-1161.5 833,-1161.5 833,-906.5 707,-906.5"/>
<text text-anchor="middle" x="770" y="-1149.5" font-family="SegoeUI" font-size="10.00">AbstractTouchable</text>
<polyline fill="none" stroke="black" points="707,-1142.5 833,-1142.5 "/>
<text text-anchor="start" x="715" y="-1130.5" font-family="SegoeUI" font-size="10.00">+ disabled</text>
<text text-anchor="start" x="715" y="-1119.5" font-family="SegoeUI" font-size="10.00">+ DisabledChanged</text>
<text text-anchor="start" x="715" y="-1108.5" font-family="SegoeUI" font-size="10.00">+ DisabledDown</text>
<text text-anchor="start" x="715" y="-1097.5" font-family="SegoeUI" font-size="10.00">+ DisabledUp</text>
<text text-anchor="start" x="715" y="-1086.5" font-family="SegoeUI" font-size="10.00">+ IsDisabled</text>
<text text-anchor="start" x="715" y="-1075.5" font-family="SegoeUI" font-size="10.00">+ PointerPositionChanged</text>
<text text-anchor="start" x="715" y="-1064.5" font-family="SegoeUI" font-size="10.00">&#45; wasDisabled</text>
<polyline fill="none" stroke="black" points="707,-1057.5 833,-1057.5 "/>
<text text-anchor="start" x="715" y="-1045.5" font-family="SegoeUI" font-size="10.00">+ IsInteractable()</text>
<text text-anchor="start" x="715" y="-1034.5" font-family="SegoeUI" font-size="10.00">+ SetDisabled()</text>
<text text-anchor="start" x="715" y="-1023.5" font-family="SegoeUI" font-size="10.00">+ ToggleEnabled()</text>
<text text-anchor="start" x="715" y="-1012.5" font-family="SegoeUI" font-size="10.00">+ Update()</text>
<text text-anchor="start" x="715" y="-1001.5" font-family="SegoeUI" font-size="10.00">+ OnPointerEnter()</text>
<text text-anchor="start" x="715" y="-990.5" font-family="SegoeUI" font-size="10.00">+ OnPointerExit()</text>
<text text-anchor="start" x="715" y="-979.5" font-family="SegoeUI" font-size="10.00">+ OnPointerDown()</text>
<text text-anchor="start" x="715" y="-968.5" font-family="SegoeUI" font-size="10.00">+ OnPointerUp()</text>
<text text-anchor="start" x="715" y="-957.5" font-family="SegoeUI" font-size="10.00"># LateUpdate()</text>
<text text-anchor="start" x="715" y="-946.5" font-family="SegoeUI" font-size="10.00"># ShowState()</text>
<text text-anchor="start" x="715" y="-935.5" font-family="SegoeUI" font-size="10.00"># GetPosition()</text>
<text text-anchor="start" x="715" y="-924.5" font-family="SegoeUI" font-size="10.00">&#45; Awake()</text>
<text text-anchor="start" x="715" y="-913.5" font-family="SegoeUI" font-size="10.00">&#45; NormalizePart()</text>
</a>
</g>
</g>
<!-- Node5&#45;&gt;Node9 -->
<g id="edge7" class="edge"><title>Node5&#45;&gt;Node9</title>
<path fill="none" stroke="midnightblue" d="M1021.63,-1360.33C1030.33,-1311.6 1036.63,-1227.38 990,-1180 943.52,-1132.77 897.132,-1198.76 842,-1162 838.942,-1159.96 836,-1157.75 833.17,-1155.38"/>
<polygon fill="none" stroke="midnightblue" points="1018.13,-1359.97 1019.69,-1370.45 1025.01,-1361.29 1018.13,-1359.97"/>
</g>
<!-- Node15 -->
<g id="node13" class="node"><title>Node15</title>
<g id="a_node13"><a xlink:href="../../d8/dea/class_juniper_1_1_animation_1_1_abstract_animator.html" target="_top" xlink:title="An abstraction layer over different ways of showing UI state. Only one such component is allowed on a...">
<polygon fill="white" stroke="black" points="1041.5,-1231.5 1041.5,-1332.5 1172.5,-1332.5 1172.5,-1231.5 1041.5,-1231.5"/>
<text text-anchor="start" x="1049.5" y="-1320.5" font-family="SegoeUI" font-size="10.00">Juniper.Animation.Abstract</text>
<text text-anchor="middle" x="1107" y="-1309.5" font-family="SegoeUI" font-size="10.00">Animator</text>
<polyline fill="none" stroke="black" points="1041.5,-1302.5 1172.5,-1302.5 "/>
<text text-anchor="middle" x="1107" y="-1290.5" font-family="SegoeUI" font-size="10.00"> </text>
<polyline fill="none" stroke="black" points="1041.5,-1283.5 1172.5,-1283.5 "/>
<text text-anchor="start" x="1049.5" y="-1271.5" font-family="SegoeUI" font-size="10.00">+ PlayCoroutine()</text>
<text text-anchor="start" x="1049.5" y="-1260.5" font-family="SegoeUI" font-size="10.00">+ Play()</text>
<text text-anchor="start" x="1049.5" y="-1249.5" font-family="SegoeUI" font-size="10.00">+ HasState()</text>
<text text-anchor="start" x="1049.5" y="-1238.5" font-family="SegoeUI" font-size="10.00">+ GetAnimator()</text>
</a>
</g>
</g>
<!-- Node5&#45;&gt;Node15 -->
<g id="edge14" class="edge"><title>Node5&#45;&gt;Node15</title>
<path fill="none" stroke="midnightblue" d="M1042.04,-1362.48C1049.7,-1353.1 1058.12,-1342.8 1066.28,-1332.81"/>
<polygon fill="none" stroke="midnightblue" points="1039.13,-1360.5 1035.52,-1370.45 1044.55,-1364.93 1039.13,-1360.5"/>
</g>
<!-- Node6 -->
<g id="node4" class="node"><title>Node6</title>
<g id="a_node4"><a xlink:title=" ">
<polygon fill="white" stroke="#bfbfbf" points="201,-1253.5 201,-1310.5 267,-1310.5 267,-1253.5 201,-1253.5"/>
<text text-anchor="middle" x="234" y="-1298.5" font-family="SegoeUI" font-size="10.00">UnityEngine</text>
<polyline fill="none" stroke="#bfbfbf" points="201,-1291.5 267,-1291.5 "/>
<text text-anchor="middle" x="234" y="-1279.5" font-family="SegoeUI" font-size="10.00"> </text>
<polyline fill="none" stroke="#bfbfbf" points="201,-1272.5 267,-1272.5 "/>
<text text-anchor="middle" x="234" y="-1260.5" font-family="SegoeUI" font-size="10.00"> </text>
</a>
</g>
</g>
<!-- Node6&#45;&gt;Node4 -->
<g id="edge3" class="edge"><title>Node6&#45;&gt;Node4</title>
<path fill="none" stroke="#404040" d="M200.812,-1254.64C152.891,-1213.34 70,-1128.42 70,-1035 70,-1035 70,-1035 70,-387.5 70,-346.705 70,-301.398 70,-263.553"/>
<polygon fill="none" stroke="#404040" points="70.0001,-263.544 66,-257.544 70,-251.544 74,-257.544 70.0001,-263.544"/>
<text text-anchor="middle" x="101.5" y="-690" font-family="SegoeUI" font-size="10.00"> #startPosition</text>
<text text-anchor="middle" x="101.5" y="-679" font-family="SegoeUI" font-size="10.00">#lastPosition</text>
</g>
<!-- Node7 -->
<g id="node5" class="node"><title>Node7</title>
<g id="a_node5"><a xlink:href="../../d9/d93/class_juniper_1_1_widgets_1_1_draggable.html" target="_top" xlink:title="An object that can be picked up and put down in a new location.">
<polygon fill="white" stroke="black" points="98.5,-299.5 98.5,-477.5 239.5,-477.5 239.5,-299.5 98.5,-299.5"/>
<text text-anchor="middle" x="169" y="-465.5" font-family="SegoeUI" font-size="10.00">Juniper.Widgets.Draggable</text>
<polyline fill="none" stroke="black" points="98.5,-458.5 239.5,-458.5 "/>
<text text-anchor="start" x="106.5" y="-446.5" font-family="SegoeUI" font-size="10.00">+ constrainMotion</text>
<text text-anchor="start" x="106.5" y="-435.5" font-family="SegoeUI" font-size="10.00">+ rotateWhileDragging</text>
<text text-anchor="start" x="106.5" y="-424.5" font-family="SegoeUI" font-size="10.00">+ TrackStart</text>
<text text-anchor="start" x="106.5" y="-413.5" font-family="SegoeUI" font-size="10.00">+ TrackEnd</text>
<text text-anchor="start" x="106.5" y="-402.5" font-family="SegoeUI" font-size="10.00">&#45; MotionConstraintStartName</text>
<text text-anchor="start" x="106.5" y="-391.5" font-family="SegoeUI" font-size="10.00">&#45; MotionConstraintEndName</text>
<text text-anchor="start" x="106.5" y="-380.5" font-family="SegoeUI" font-size="10.00">&#45; motionConstraintStart</text>
<text text-anchor="start" x="106.5" y="-369.5" font-family="SegoeUI" font-size="10.00">&#45; motionConstraintEnd</text>
<polyline fill="none" stroke="black" points="98.5,-362.5 239.5,-362.5 "/>
<text text-anchor="start" x="106.5" y="-350.5" font-family="SegoeUI" font-size="10.00">+ OnValidate()</text>
<text text-anchor="start" x="106.5" y="-339.5" font-family="SegoeUI" font-size="10.00">+ OnDrag()</text>
<text text-anchor="start" x="106.5" y="-328.5" font-family="SegoeUI" font-size="10.00"># LateUpdate()</text>
<text text-anchor="start" x="106.5" y="-317.5" font-family="SegoeUI" font-size="10.00">&#45; ResolveConstraint()</text>
<text text-anchor="start" x="106.5" y="-306.5" font-family="SegoeUI" font-size="10.00">&#45; DestroyConstraint()</text>
</a>
</g>
</g>
<!-- Node6&#45;&gt;Node7 -->
<g id="edge25" class="edge"><title>Node6&#45;&gt;Node7</title>
<path fill="none" stroke="#404040" d="M217.453,-1253.3C204.463,-1229.89 187.381,-1194.99 180,-1162 127.16,-925.835 143.339,-638.837 157.496,-489.971"/>
<polygon fill="none" stroke="#404040" points="157.523,-489.692 154.122,-483.333 158.683,-477.748 162.084,-484.107 157.523,-489.692"/>
<text text-anchor="middle" x="184.5" y="-880" font-family="SegoeUI" font-size="10.00"> &#45;lastCamPosition</text>
</g>
<!-- Node8 -->
<g id="node6" class="node"><title>Node8</title>
<g id="a_node6"><a xlink:href="../../dd/d30/class_juniper_1_1_widgets_1_1_abstract_valued.html" target="_top" xlink:title="The Valued component adds a float field and range of valid values for that field to a Touchable objec...">
<polygon fill="white" stroke="black" points="469.5,-515.5 469.5,-858.5 606.5,-858.5 606.5,-515.5 469.5,-515.5"/>
<text text-anchor="middle" x="538" y="-846.5" font-family="SegoeUI" font-size="10.00">AbstractValued</text>
<polyline fill="none" stroke="black" points="469.5,-839.5 606.5,-839.5 "/>
<text text-anchor="start" x="477.5" y="-827.5" font-family="SegoeUI" font-size="10.00">+ Display</text>
<text text-anchor="start" x="477.5" y="-816.5" font-family="SegoeUI" font-size="10.00">+ SigFigs</text>
<text text-anchor="start" x="477.5" y="-805.5" font-family="SegoeUI" font-size="10.00">+ minValue</text>
<text text-anchor="start" x="477.5" y="-794.5" font-family="SegoeUI" font-size="10.00">+ maxValue</text>
<text text-anchor="start" x="477.5" y="-783.5" font-family="SegoeUI" font-size="10.00">+ _value</text>
<text text-anchor="start" x="477.5" y="-772.5" font-family="SegoeUI" font-size="10.00">+ Dragged</text>
<text text-anchor="start" x="477.5" y="-761.5" font-family="SegoeUI" font-size="10.00">+ value</text>
<text text-anchor="start" x="477.5" y="-750.5" font-family="SegoeUI" font-size="10.00">+ Delta</text>
<text text-anchor="start" x="477.5" y="-739.5" font-family="SegoeUI" font-size="10.00">+ DraggedChanged</text>
<text text-anchor="start" x="477.5" y="-728.5" font-family="SegoeUI" font-size="10.00">+ DraggedDown</text>
<text text-anchor="start" x="477.5" y="-717.5" font-family="SegoeUI" font-size="10.00">+ DraggedUp</text>
<text text-anchor="start" x="477.5" y="-706.5" font-family="SegoeUI" font-size="10.00">+ ValueChanged</text>
<text text-anchor="start" x="477.5" y="-695.5" font-family="SegoeUI" font-size="10.00">+ ConstraintRange</text>
<text text-anchor="start" x="477.5" y="-684.5" font-family="SegoeUI" font-size="10.00"># dragDistance</text>
<text text-anchor="start" x="477.5" y="-673.5" font-family="SegoeUI" font-size="10.00"># camT</text>
<text text-anchor="start" x="477.5" y="-662.5" font-family="SegoeUI" font-size="10.00"># internalValue</text>
<text text-anchor="start" x="477.5" y="-651.5" font-family="SegoeUI" font-size="10.00">&#45; wasDragged</text>
<text text-anchor="start" x="477.5" y="-640.5" font-family="SegoeUI" font-size="10.00">&#45; lastValue</text>
<text text-anchor="start" x="477.5" y="-629.5" font-family="SegoeUI" font-size="10.00">&#45; lastTickValue</text>
<polyline fill="none" stroke="black" points="469.5,-622.5 606.5,-622.5 "/>
<text text-anchor="start" x="477.5" y="-610.5" font-family="SegoeUI" font-size="10.00">+ SetValue()</text>
<text text-anchor="start" x="477.5" y="-599.5" font-family="SegoeUI" font-size="10.00">+ OnInitializePotentialDrag()</text>
<text text-anchor="start" x="477.5" y="-588.5" font-family="SegoeUI" font-size="10.00">+ OnBeginDrag()</text>
<text text-anchor="start" x="477.5" y="-577.5" font-family="SegoeUI" font-size="10.00">+ OnDrag()</text>
<text text-anchor="start" x="477.5" y="-566.5" font-family="SegoeUI" font-size="10.00">+ OnDrop()</text>
<text text-anchor="start" x="477.5" y="-555.5" font-family="SegoeUI" font-size="10.00">+ OnEndDrag()</text>
<text text-anchor="start" x="477.5" y="-544.5" font-family="SegoeUI" font-size="10.00"># LateUpdate()</text>
<text text-anchor="start" x="477.5" y="-533.5" font-family="SegoeUI" font-size="10.00"># UpdateInternalValue()</text>
<text text-anchor="start" x="477.5" y="-522.5" font-family="SegoeUI" font-size="10.00"># ResetInternalValue()</text>
</a>
</g>
</g>
<!-- Node6&#45;&gt;Node8 -->
<g id="edge24" class="edge"><title>Node6&#45;&gt;Node8</title>
<path fill="none" stroke="#404040" d="M267.46,-1264.97C289.937,-1254.55 320.385,-1241.06 348,-1231 351.196,-1229.84 580.961,-1164.72 583,-1162 616.94,-1116.66 601.654,-984.058 580.116,-870.597"/>
<polygon fill="none" stroke="#404040" points="580.08,-870.411 575.016,-865.277 577.807,-858.628 582.871,-863.762 580.08,-870.411"/>
<text text-anchor="middle" x="642" y="-1053.5" font-family="SegoeUI" font-size="10.00"> #interactionPoint</text>
<text text-anchor="middle" x="642" y="-1042.5" font-family="SegoeUI" font-size="10.00">#interactionOffset</text>
<text text-anchor="middle" x="642" y="-1031.5" font-family="SegoeUI" font-size="10.00">#angVel</text>
<text text-anchor="middle" x="642" y="-1020.5" font-family="SegoeUI" font-size="10.00">#grabOffset</text>
<text text-anchor="middle" x="642" y="-1009.5" font-family="SegoeUI" font-size="10.00">#velocity</text>
</g>
<!-- Node6&#45;&gt;Node9 -->
<g id="edge15" class="edge"><title>Node6&#45;&gt;Node9</title>
<path fill="none" stroke="#404040" d="M267.422,-1263.04C289.63,-1251.94 319.789,-1238.44 348,-1231 385.801,-1221.03 490.202,-1234.28 523,-1213 537.198,-1203.79 527.876,-1189.32 542,-1180 598.403,-1142.76 636.18,-1198.6 693,-1162 694.524,-1161.02 696.023,-1159.99 697.496,-1158.93"/>
<polygon fill="none" stroke="#404040" points="697.511,-1158.92 699.671,-1152.04 706.853,-1151.39 704.692,-1158.27 697.511,-1158.92"/>
<text text-anchor="middle" x="586" y="-1205" font-family="SegoeUI" font-size="10.00"> #lastPointerPosition</text>
<text text-anchor="middle" x="586" y="-1194" font-family="SegoeUI" font-size="10.00">+pointerPosition</text>
<text text-anchor="middle" x="586" y="-1183" font-family="SegoeUI" font-size="10.00">+clickButton</text>
</g>
<!-- Node7&#45;&gt;Node4 -->
<g id="edge4" class="edge"><title>Node7&#45;&gt;Node4</title>
<path fill="none" stroke="#404040" d="M126.872,-299.2C121.069,-287.039 115.129,-274.588 109.379,-262.537"/>
<polygon fill="none" stroke="#404040" points="109.329,-262.431 103.135,-258.738 104.161,-251.6 110.355,-255.293 109.329,-262.431"/>
<text text-anchor="middle" x="135" y="-273" font-family="SegoeUI" font-size="10.00"> &#45;handle</text>
</g>
<!-- Node8&#45;&gt;Node7 -->
<g id="edge5" class="edge"><title>Node8&#45;&gt;Node7</title>
<path fill="none" stroke="midnightblue" d="M461.643,-624.646C396.393,-572.215 303.251,-497.374 239.686,-446.298"/>
<polygon fill="none" stroke="midnightblue" points="459.471,-627.39 469.459,-630.925 463.856,-621.933 459.471,-627.39"/>
</g>
<!-- Node9&#45;&gt;Node8 -->
<g id="edge6" class="edge"><title>Node9&#45;&gt;Node8</title>
<path fill="none" stroke="midnightblue" d="M701.475,-919.06C698.637,-914.634 695.805,-910.267 693,-906 665.704,-864.479 634.148,-819.583 606.661,-781.387"/>
<polygon fill="none" stroke="midnightblue" points="698.611,-921.078 706.934,-927.633 704.515,-917.318 698.611,-921.078"/>
</g>
<!-- Node10 -->
<g id="node8" class="node"><title>Node10</title>
<g id="a_node8"><a xlink:title=" ">
<polygon fill="white" stroke="#bfbfbf" points="357.5,-1253.5 357.5,-1310.5 462.5,-1310.5 462.5,-1253.5 357.5,-1253.5"/>
<text text-anchor="middle" x="410" y="-1298.5" font-family="SegoeUI" font-size="10.00">IPointerEnterHandler</text>
<polyline fill="none" stroke="#bfbfbf" points="357.5,-1291.5 462.5,-1291.5 "/>
<text text-anchor="middle" x="410" y="-1279.5" font-family="SegoeUI" font-size="10.00"> </text>
<polyline fill="none" stroke="#bfbfbf" points="357.5,-1272.5 462.5,-1272.5 "/>
<text text-anchor="middle" x="410" y="-1260.5" font-family="SegoeUI" font-size="10.00"> </text>
</a>
</g>
</g>
<!-- Node10&#45;&gt;Node9 -->
<g id="edge8" class="edge"><title>Node10&#45;&gt;Node9</title>
<path fill="none" stroke="midnightblue" d="M445.298,-1246.96C453.512,-1240.69 462.618,-1234.91 472,-1231 538.874,-1203.15 570.044,-1247.02 634,-1213 650.981,-1203.97 647.247,-1192.34 662,-1180 674.22,-1169.78 681.628,-1173.16 693,-1162 697.785,-1157.3 702.393,-1152.25 706.809,-1146.97"/>
<polygon fill="none" stroke="midnightblue" points="442.988,-1244.32 437.403,-1253.33 447.384,-1249.77 442.988,-1244.32"/>
</g>
<!-- Node11 -->
<g id="node9" class="node"><title>Node11</title>
<g id="a_node9"><a xlink:title=" ">
<polygon fill="white" stroke="#bfbfbf" points="481,-1253.5 481,-1310.5 579,-1310.5 579,-1253.5 481,-1253.5"/>
<text text-anchor="middle" x="530" y="-1298.5" font-family="SegoeUI" font-size="10.00">IPointerExitHandler</text>
<polyline fill="none" stroke="#bfbfbf" points="481,-1291.5 579,-1291.5 "/>
<text text-anchor="middle" x="530" y="-1279.5" font-family="SegoeUI" font-size="10.00"> </text>
<polyline fill="none" stroke="#bfbfbf" points="481,-1272.5 579,-1272.5 "/>
<text text-anchor="middle" x="530" y="-1260.5" font-family="SegoeUI" font-size="10.00"> </text>
</a>
</g>
</g>
<!-- Node11&#45;&gt;Node9 -->
<g id="edge9" class="edge"><title>Node11&#45;&gt;Node9</title>
<path fill="none" stroke="midnightblue" d="M564.363,-1246.91C571.722,-1240.94 579.773,-1235.28 588,-1231 616.877,-1215.97 632.421,-1231.8 659,-1213 666.694,-1207.56 686.31,-1177.42 706.951,-1143.45"/>
<polygon fill="none" stroke="midnightblue" points="562.016,-1244.32 556.673,-1253.46 566.555,-1249.64 562.016,-1244.32"/>
</g>
<!-- Node12 -->
<g id="node10" class="node"><title>Node12</title>
<g id="a_node10"><a xlink:title=" ">
<polygon fill="white" stroke="#bfbfbf" points="597.5,-1253.5 597.5,-1310.5 704.5,-1310.5 704.5,-1253.5 597.5,-1253.5"/>
<text text-anchor="middle" x="651" y="-1298.5" font-family="SegoeUI" font-size="10.00">IPointerDownHandler</text>
<polyline fill="none" stroke="#bfbfbf" points="597.5,-1291.5 704.5,-1291.5 "/>
<text text-anchor="middle" x="651" y="-1279.5" font-family="SegoeUI" font-size="10.00"> </text>
<polyline fill="none" stroke="#bfbfbf" points="597.5,-1272.5 704.5,-1272.5 "/>
<text text-anchor="middle" x="651" y="-1260.5" font-family="SegoeUI" font-size="10.00"> </text>
</a>
</g>
</g>
<!-- Node12&#45;&gt;Node9 -->
<g id="edge10" class="edge"><title>Node12&#45;&gt;Node9</title>
<path fill="none" stroke="midnightblue" d="M668.866,-1244.21C673.775,-1234.1 679.096,-1223.13 684,-1213 692.002,-1196.47 700.416,-1179.08 708.719,-1161.91"/>
<polygon fill="none" stroke="midnightblue" points="665.716,-1242.69 664.498,-1253.21 672.013,-1245.75 665.716,-1242.69"/>
</g>
<!-- Node13 -->
<g id="node11" class="node"><title>Node13</title>
<g id="a_node11"><a xlink:title=" ">
<polygon fill="white" stroke="#bfbfbf" points="723,-1253.5 723,-1310.5 817,-1310.5 817,-1253.5 723,-1253.5"/>
<text text-anchor="middle" x="770" y="-1298.5" font-family="SegoeUI" font-size="10.00">IPointerUpHandler</text>
<polyline fill="none" stroke="#bfbfbf" points="723,-1291.5 817,-1291.5 "/>
<text text-anchor="middle" x="770" y="-1279.5" font-family="SegoeUI" font-size="10.00"> </text>
<polyline fill="none" stroke="#bfbfbf" points="723,-1272.5 817,-1272.5 "/>
<text text-anchor="middle" x="770" y="-1260.5" font-family="SegoeUI" font-size="10.00"> </text>
</a>
</g>
</g>
<!-- Node13&#45;&gt;Node9 -->
<g id="edge11" class="edge"><title>Node13&#45;&gt;Node9</title>
<path fill="none" stroke="midnightblue" d="M770,-1242.97C770,-1220.77 770,-1191.34 770,-1161.63"/>
<polygon fill="none" stroke="midnightblue" points="766.5,-1243.26 770,-1253.26 773.5,-1243.26 766.5,-1243.26"/>
</g>
<!-- Node14 -->
<g id="node12" class="node"><title>Node14</title>
<g id="a_node12"><a xlink:href="../../da/d7e/interface_juniper_1_1_events_1_1_i_interactable.html" target="_top" xlink:title="An interface for custom controls to report to the Input.UnifiedInputModule that they are enabled/disa...">
<polygon fill="white" stroke="black" points="835,-1253.5 835,-1310.5 927,-1310.5 927,-1253.5 835,-1253.5"/>
<text text-anchor="middle" x="881" y="-1298.5" font-family="SegoeUI" font-size="10.00">IInteractable</text>
<polyline fill="none" stroke="black" points="835,-1291.5 927,-1291.5 "/>
<text text-anchor="middle" x="881" y="-1279.5" font-family="SegoeUI" font-size="10.00"> </text>
<polyline fill="none" stroke="black" points="835,-1272.5 927,-1272.5 "/>
<text text-anchor="start" x="843" y="-1260.5" font-family="SegoeUI" font-size="10.00">+ IsInteractable()</text>
</a>
</g>
</g>
<!-- Node14&#45;&gt;Node9 -->
<g id="edge12" class="edge"><title>Node14&#45;&gt;Node9</title>
<path fill="none" stroke="midnightblue" d="M864.248,-1243.87C854.184,-1221.57 840.726,-1191.74 827.137,-1161.63"/>
<polygon fill="none" stroke="midnightblue" points="861.179,-1245.58 868.483,-1253.26 867.56,-1242.7 861.179,-1245.58"/>
</g>
<!-- Node15&#45;&gt;Node9 -->
<g id="edge13" class="edge"><title>Node15&#45;&gt;Node9</title>
<path fill="none" stroke="#404040" d="M1079.7,-1231.41C1066.41,-1212.08 1048.61,-1191.77 1027,-1180 957.719,-1142.25 915.219,-1201.23 843.434,-1161.73"/>
<polygon fill="none" stroke="#404040" points="843.372,-1161.69 836.168,-1162.01 833.105,-1155.48 840.309,-1155.16 843.372,-1161.69"/>
<text text-anchor="middle" x="1088" y="-1194" font-family="SegoeUI" font-size="10.00"> &#45;animator</text>
</g>
<!-- Node16 -->
<g id="node14" class="node"><title>Node16</title>
<g id="a_node14"><a xlink:title=" ">
<polygon fill="white" stroke="#bfbfbf" points="945.5,-1253.5 945.5,-1310.5 984.5,-1310.5 984.5,-1253.5 945.5,-1253.5"/>
<text text-anchor="middle" x="965" y="-1298.5" font-family="SegoeUI" font-size="10.00">static</text>
<polyline fill="none" stroke="#bfbfbf" points="945.5,-1291.5 984.5,-1291.5 "/>
<text text-anchor="middle" x="965" y="-1279.5" font-family="SegoeUI" font-size="10.00"> </text>
<polyline fill="none" stroke="#bfbfbf" points="945.5,-1272.5 984.5,-1272.5 "/>
<text text-anchor="middle" x="965" y="-1260.5" font-family="SegoeUI" font-size="10.00"> </text>
</a>
</g>
</g>
<!-- Node16&#45;&gt;Node9 -->
<g id="edge16" class="edge"><title>Node16&#45;&gt;Node9</title>
<path fill="none" stroke="#404040" d="M951.695,-1253.41C947.289,-1245.71 941.966,-1237.65 936,-1231 901.378,-1192.44 876.432,-1200.73 842,-1162 841.621,-1161.57 841.243,-1161.15 840.867,-1160.71"/>
<polygon fill="none" stroke="#404040" points="840.777,-1160.61 833.869,-1158.54 833.123,-1151.36 840.031,-1153.43 840.777,-1160.61"/>
<text text-anchor="middle" x="951.5" y="-1194" font-family="SegoeUI" font-size="10.00"> +PART_NAMES</text>
</g>
<!-- Node17 -->
<g id="node15" class="node"><title>Node17</title>
<g id="a_node15"><a xlink:title=" ">
<polygon fill="white" stroke="#bfbfbf" points="987,-1000 987,-1068 1099,-1068 1099,-1000 987,-1000"/>
<text text-anchor="start" x="995" y="-1056" font-family="SegoeUI" font-size="10.00">IInitializePotentialDrag</text>
<text text-anchor="middle" x="1043" y="-1045" font-family="SegoeUI" font-size="10.00">Handler</text>
<polyline fill="none" stroke="#bfbfbf" points="987,-1038 1099,-1038 "/>
<text text-anchor="middle" x="1043" y="-1026" font-family="SegoeUI" font-size="10.00"> </text>
<polyline fill="none" stroke="#bfbfbf" points="987,-1019 1099,-1019 "/>
<text text-anchor="middle" x="1043" y="-1007" font-family="SegoeUI" font-size="10.00"> </text>
</a>
</g>
</g>
<!-- Node17&#45;&gt;Node8 -->
<g id="edge17" class="edge"><title>Node17&#45;&gt;Node8</title>
<path fill="none" stroke="midnightblue" d="M1029.1,-990.405C1018.55,-963.487 1001.79,-929.477 978,-906 870.457,-799.851 700.902,-736.185 606.763,-707.061"/>
<polygon fill="none" stroke="midnightblue" points="1025.9,-991.844 1032.7,-999.968 1032.45,-989.376 1025.9,-991.844"/>
</g>
<!-- Node18 -->
<g id="node16" class="node"><title>Node18</title>
<g id="a_node16"><a xlink:title=" ">
<polygon fill="white" stroke="#bfbfbf" points="189,-1005.5 189,-1062.5 285,-1062.5 285,-1005.5 189,-1005.5"/>
<text text-anchor="middle" x="237" y="-1050.5" font-family="SegoeUI" font-size="10.00">IBeginDragHandler</text>
<polyline fill="none" stroke="#bfbfbf" points="189,-1043.5 285,-1043.5 "/>
<text text-anchor="middle" x="237" y="-1031.5" font-family="SegoeUI" font-size="10.00"> </text>
<polyline fill="none" stroke="#bfbfbf" points="189,-1024.5 285,-1024.5 "/>
<text text-anchor="middle" x="237" y="-1012.5" font-family="SegoeUI" font-size="10.00"> </text>
</a>
</g>
</g>
<!-- Node18&#45;&gt;Node8 -->
<g id="edge18" class="edge"><title>Node18&#45;&gt;Node8</title>
<path fill="none" stroke="midnightblue" d="M248.993,-995.782C258.631,-969.227 273.878,-933.497 294,-906 343.146,-838.841 415.95,-777.156 469.24,-736.672"/>
<polygon fill="none" stroke="midnightblue" points="245.6,-994.879 245.575,-1005.47 252.202,-997.207 245.6,-994.879"/>
</g>
<!-- Node19 -->
<g id="node17" class="node"><title>Node19</title>
<g id="a_node17"><a xlink:title=" ">
<polygon fill="white" stroke="#bfbfbf" points="303.5,-1005.5 303.5,-1062.5 376.5,-1062.5 376.5,-1005.5 303.5,-1005.5"/>
<text text-anchor="middle" x="340" y="-1050.5" font-family="SegoeUI" font-size="10.00">IDragHandler</text>
<polyline fill="none" stroke="#bfbfbf" points="303.5,-1043.5 376.5,-1043.5 "/>
<text text-anchor="middle" x="340" y="-1031.5" font-family="SegoeUI" font-size="10.00"> </text>
<polyline fill="none" stroke="#bfbfbf" points="303.5,-1024.5 376.5,-1024.5 "/>
<text text-anchor="middle" x="340" y="-1012.5" font-family="SegoeUI" font-size="10.00"> </text>
</a>
</g>
</g>
<!-- Node19&#45;&gt;Node8 -->
<g id="edge19" class="edge"><title>Node19&#45;&gt;Node8</title>
<path fill="none" stroke="midnightblue" d="M350.334,-995.55C358.177,-969.654 370.137,-934.814 385,-906 408.635,-860.181 440.706,-812.92 469.381,-774.165"/>
<polygon fill="none" stroke="midnightblue" points="346.914,-994.772 347.431,-1005.35 353.626,-996.759 346.914,-994.772"/>
</g>
<!-- Node20 -->
<g id="node18" class="node"><title>Node20</title>
<g id="a_node18"><a xlink:title=" ">
<polygon fill="white" stroke="#bfbfbf" points="394.5,-1005.5 394.5,-1062.5 483.5,-1062.5 483.5,-1005.5 394.5,-1005.5"/>
<text text-anchor="middle" x="439" y="-1050.5" font-family="SegoeUI" font-size="10.00">IEndDragHandler</text>
<polyline fill="none" stroke="#bfbfbf" points="394.5,-1043.5 483.5,-1043.5 "/>
<text text-anchor="middle" x="439" y="-1031.5" font-family="SegoeUI" font-size="10.00"> </text>
<polyline fill="none" stroke="#bfbfbf" points="394.5,-1024.5 483.5,-1024.5 "/>
<text text-anchor="middle" x="439" y="-1012.5" font-family="SegoeUI" font-size="10.00"> </text>
</a>
</g>
</g>
<!-- Node20&#45;&gt;Node8 -->
<g id="edge20" class="edge"><title>Node20&#45;&gt;Node8</title>
<path fill="none" stroke="midnightblue" d="M449.753,-995.528C459.395,-961.928 474.264,-910.11 489.066,-858.527"/>
<polygon fill="none" stroke="midnightblue" points="446.328,-994.773 446.934,-1005.35 453.057,-996.704 446.328,-994.773"/>
</g>
<!-- Node21 -->
<g id="node19" class="node"><title>Node21</title>
<g id="a_node19"><a xlink:title=" ">
<polygon fill="white" stroke="#bfbfbf" points="501.5,-1005.5 501.5,-1062.5 574.5,-1062.5 574.5,-1005.5 501.5,-1005.5"/>
<text text-anchor="middle" x="538" y="-1050.5" font-family="SegoeUI" font-size="10.00">IDropHandler</text>
<polyline fill="none" stroke="#bfbfbf" points="501.5,-1043.5 574.5,-1043.5 "/>
<text text-anchor="middle" x="538" y="-1031.5" font-family="SegoeUI" font-size="10.00"> </text>
<polyline fill="none" stroke="#bfbfbf" points="501.5,-1024.5 574.5,-1024.5 "/>
<text text-anchor="middle" x="538" y="-1012.5" font-family="SegoeUI" font-size="10.00"> </text>
</a>
</g>
</g>
<!-- Node21&#45;&gt;Node8 -->
<g id="edge21" class="edge"><title>Node21&#45;&gt;Node8</title>
<path fill="none" stroke="midnightblue" d="M538,-995.093C538,-961.481 538,-909.887 538,-858.527"/>
<polygon fill="none" stroke="midnightblue" points="534.5,-995.35 538,-1005.35 541.5,-995.35 534.5,-995.35"/>
</g>
<!-- Node22 -->
<g id="node20" class="node"><title>Node22</title>
<g id="a_node20"><a xlink:href="../../d0/d32/interface_juniper_1_1_widgets_1_1_i_valued_control.html" target="_top" xlink:title=" ">
<polygon fill="white" stroke="black" points="851,-1005.5 851,-1062.5 969,-1062.5 969,-1005.5 851,-1005.5"/>
<text text-anchor="middle" x="910" y="-1050.5" font-family="SegoeUI" font-size="10.00">IValuedControl&lt; float &gt;</text>
<polyline fill="none" stroke="black" points="851,-1043.5 969,-1043.5 "/>
<text text-anchor="start" x="859" y="-1031.5" font-family="SegoeUI" font-size="10.00">+ value</text>
<polyline fill="none" stroke="black" points="851,-1024.5 969,-1024.5 "/>
<text text-anchor="middle" x="910" y="-1012.5" font-family="SegoeUI" font-size="10.00"> </text>
</a>
</g>
</g>
<!-- Node22&#45;&gt;Node8 -->
<g id="edge22" class="edge"><title>Node22&#45;&gt;Node8</title>
<path fill="none" stroke="midnightblue" d="M895.503,-995.79C883.796,-968.88 865.43,-932.707 842,-906 773.899,-828.375 673.122,-763.08 606.529,-724.743"/>
<polygon fill="none" stroke="midnightblue" points="892.388,-997.408 899.512,-1005.25 898.833,-994.677 892.388,-997.408"/>
</g>
<!-- Node23 -->
<g id="node21" class="node"><title>Node23</title>
<g id="a_node21"><a xlink:href="../../d0/d32/interface_juniper_1_1_widgets_1_1_i_valued_control.html" target="_top" xlink:title=" ">
<polygon fill="white" stroke="black" points="1191,-1253.5 1191,-1310.5 1367,-1310.5 1367,-1253.5 1191,-1253.5"/>
<text text-anchor="middle" x="1279" y="-1298.5" font-family="SegoeUI" font-size="10.00">Juniper.Widgets.IValuedControl&lt; T &gt;</text>
<polyline fill="none" stroke="black" points="1191,-1291.5 1367,-1291.5 "/>
<text text-anchor="start" x="1199" y="-1279.5" font-family="SegoeUI" font-size="10.00">+ value</text>
<polyline fill="none" stroke="black" points="1191,-1272.5 1367,-1272.5 "/>
<text text-anchor="middle" x="1279" y="-1260.5" font-family="SegoeUI" font-size="10.00"> </text>
</a>
</g>
</g>
<!-- Node23&#45;&gt;Node22 -->
<g id="edge23" class="edge"><title>Node23&#45;&gt;Node22</title>
<path fill="none" stroke="orange" d="M1235.97,-1247.45C1204.31,-1224.59 1159.25,-1195.72 1115,-1180 1057.13,-1159.44 1028.51,-1196.92 978,-1162 943.953,-1138.46 925.508,-1092.28 916.721,-1062.57"/>
<polygon fill="orange" stroke="orange" points="1233.99,-1250.34 1244.13,-1253.42 1238.13,-1244.69 1233.99,-1250.34"/>
<text text-anchor="middle" x="1202" y="-1194" font-family="SegoeUI" font-size="10.00"> &lt; float &gt;</text>
</g>
</g>
</svg>
        <g id="navigator" transform="translate(0 0)" fill="#404254">
                <rect fill="#f2f5e9" fill-opacity="0.5" stroke="#606060" stroke-width=".5" x="0" y="0" width="60" height="60"/>
                <use id="zoomplus" xlink:href="#zoomPlus" x="17" y="9" onmousedown="handleZoom(evt,'in')"/>
                <use id="zoomminus" xlink:href="#zoomMin" x="42" y="9" onmousedown="handleZoom(evt,'out')"/>
                <use id="reset" xlink:href="#resetDef" x="30" y="36" onmousedown="handleReset()"/>
                <g id="arrowUp" xlink:href="#dirArrow" transform="translate(30 24)" onmousedown="handlePan(0,-1)">
                  <use xlink:href="#rim" fill="#404040">
                        <set attributeName="fill" to="#808080" begin="arrowUp.mouseover" end="arrowUp.mouseout"/>
                  </use>
                  <path fill="none" stroke="white" stroke-width="1.5" d="M0,-3.0v7 M-2.5,-0.5L0,-3.0L2.5,-0.5"/>
                </g>
                <g id="arrowRight" xlink:href="#dirArrow" transform="rotate(90) translate(36 -43)" onmousedown="handlePan(1,0)">
                  <use xlink:href="#rim" fill="#404040">
                        <set attributeName="fill" to="#808080" begin="arrowRight.mouseover" end="arrowRight.mouseout"/>
                  </use>
                  <path fill="none" stroke="white" stroke-width="1.5" d="M0,-3.0v7 M-2.5,-0.5L0,-3.0L2.5,-0.5"/>
                </g>
                <g id="arrowDown" xlink:href="#dirArrow" transform="rotate(180) translate(-30 -48)" onmousedown="handlePan(0,1)">
                  <use xlink:href="#rim" fill="#404040">
                        <set attributeName="fill" to="#808080" begin="arrowDown.mouseover" end="arrowDown.mouseout"/>
                  </use>
                  <path fill="none" stroke="white" stroke-width="1.5" d="M0,-3.0v7 M-2.5,-0.5L0,-3.0L2.5,-0.5"/>
                </g>
                <g id="arrowLeft" xlink:href="#dirArrow" transform="rotate(270) translate(-36 17)" onmousedown="handlePan(-1,0)">
                  <use xlink:href="#rim" fill="#404040">
                        <set attributeName="fill" to="#808080" begin="arrowLeft.mouseover" end="arrowLeft.mouseout"/>
                  </use>
                  <path fill="none" stroke="white" stroke-width="1.5" d="M0,-3.0v7 M-2.5,-0.5L0,-3.0L2.5,-0.5"/>
                </g>
        </g>
        <svg viewBox="0 0 15 15" width="100%" height="30px" preserveAspectRatio="xMaxYMin meet">
         <g id="arrow_out" transform="scale(0.3 0.3)">
          <a xlink:href="class_juniper_1_1_widgets_1_1_scale_handle__coll__graph_org.svg" target="_base">
           <rect id="button" ry="5" rx="5" y="6" x="6" height="38" width="38"
                fill="#f2f5e9" fill-opacity="0.5" stroke="#606060" stroke-width="1.0"/>
           <path id="arrow"
             d="M 11.500037,31.436501 C 11.940474,20.09759 22.043105,11.32322 32.158766,21.979434 L 37.068811,17.246167 C 37.068811,17.246167 37.088388,32 37.088388,32 L 22.160133,31.978069 C 22.160133,31.978069 26.997745,27.140456 26.997745,27.140456 C 18.528582,18.264221 13.291696,25.230495 11.500037,31.436501 z"
             style="fill:#404040;"/>
          </a>
         </g>
        </svg>
</svg>
