<?xml version="1.0" encoding="UTF-8" standalone="no"?>
<!DOCTYPE svg PUBLIC "-//W3C//DTD SVG 1.1//EN"
 "http://www.w3.org/Graphics/SVG/1.1/DTD/svg11.dtd">
<!-- Generated by graphviz version 2.38.0 (20140413.2041)
 -->
<!-- Title: Juniper.HTTP.Server.Administration.NetSH.GetFirewallRule Pages: 1 -->
<svg width="268pt" height="789pt"
 viewBox="0.00 0.00 267.50 789.00" xmlns="http://www.w3.org/2000/svg" xmlns:xlink="http://www.w3.org/1999/xlink">
<g id="graph0" class="graph" transform="scale(1 1) rotate(0) translate(4 785)">
<title>Juniper.HTTP.Server.Administration.NetSH.GetFirewallRule</title>
<polygon fill="white" stroke="none" points="-4,4 -4,-785 263.5,-785 263.5,4 -4,4"/>
<!-- Node0 -->
<g id="node1" class="node"><title>Node0</title>
<g id="a_node1"><a xlink:title=" ">
<polygon fill="#bfbfbf" stroke="black" points="40.5,-0.5 40.5,-134.5 213.5,-134.5 213.5,-0.5 40.5,-0.5"/>
<text text-anchor="start" x="48.5" y="-122.5" font-family="SegoeUI" font-size="10.00">Juniper.HTTP.Server.Administration.</text>
<text text-anchor="middle" x="127" y="-111.5" font-family="SegoeUI" font-size="10.00">NetSH.GetFirewallRule</text>
<polyline fill="none" stroke="black" points="40.5,-104.5 213.5,-104.5 "/>
<text text-anchor="start" x="48.5" y="-92.5" font-family="SegoeUI" font-size="10.00">+ Verbose</text>
<text text-anchor="start" x="48.5" y="-81.5" font-family="SegoeUI" font-size="10.00">+ Arguments</text>
<text text-anchor="start" x="48.5" y="-70.5" font-family="SegoeUI" font-size="10.00">&#45; remoteIPRangePattern</text>
<polyline fill="none" stroke="black" points="40.5,-63.5 213.5,-63.5 "/>
<text text-anchor="start" x="48.5" y="-51.5" font-family="SegoeUI" font-size="10.00">+ GetFirewallRule()</text>
<text text-anchor="start" x="48.5" y="-40.5" font-family="SegoeUI" font-size="10.00">+ GetRangesAsync()</text>
<text text-anchor="start" x="48.5" y="-29.5" font-family="SegoeUI" font-size="10.00">+ ExistsAsync()</text>
<text text-anchor="start" x="48.5" y="-18.5" font-family="SegoeUI" font-size="10.00"># RunAsync()</text>
<text text-anchor="start" x="48.5" y="-7.5" font-family="SegoeUI" font-size="10.00">&#45; FindBlocks()</text>
</a>
</g>
</g>
<!-- Node1 -->
<g id="node2" class="node"><title>Node1</title>
<g id="a_node2"><a xlink:href="../../d9/de1/class_juniper_1_1_h_t_t_p_1_1_server_1_1_administration_1_1_net_s_h_1_1_abstract_firewall_rule_command.html" target="_top" xlink:title=" ">
<polygon fill="white" stroke="black" points="44.5,-171.5 44.5,-250.5 209.5,-250.5 209.5,-171.5 44.5,-171.5"/>
<text text-anchor="middle" x="127" y="-238.5" font-family="SegoeUI" font-size="10.00">AbstractFirewallRuleCommand</text>
<polyline fill="none" stroke="black" points="44.5,-231.5 209.5,-231.5 "/>
<text text-anchor="start" x="52.5" y="-219.5" font-family="SegoeUI" font-size="10.00">+ Arguments</text>
<text text-anchor="start" x="52.5" y="-208.5" font-family="SegoeUI" font-size="10.00">&#45; name</text>
<text text-anchor="start" x="52.5" y="-197.5" font-family="SegoeUI" font-size="10.00">&#45; command</text>
<polyline fill="none" stroke="black" points="44.5,-190.5 209.5,-190.5 "/>
<text text-anchor="start" x="52.5" y="-178.5" font-family="SegoeUI" font-size="10.00"># AbstractFirewallRuleCommand()</text>
</a>
</g>
</g>
<!-- Node1&#45;&gt;Node0 -->
<g id="edge1" class="edge"><title>Node1&#45;&gt;Node0</title>
<path fill="none" stroke="midnightblue" d="M127,-161.158C127,-152.59 127,-143.546 127,-134.602"/>
<polygon fill="none" stroke="midnightblue" points="123.5,-161.334 127,-171.335 130.5,-161.335 123.5,-161.334"/>
</g>
<!-- Node2 -->
<g id="node3" class="node"><title>Node2</title>
<g id="a_node3"><a xlink:href="../../de/dc3/class_juniper_1_1_h_t_t_p_1_1_server_1_1_administration_1_1_net_s_h_1_1_abstract_net_sh_command.html" target="_top" xlink:title=" ">
<polygon fill="white" stroke="black" points="58,-287.5 58,-344.5 196,-344.5 196,-287.5 58,-287.5"/>
<text text-anchor="middle" x="127" y="-332.5" font-family="SegoeUI" font-size="10.00">AbstractNetShCommand</text>
<polyline fill="none" stroke="black" points="58,-325.5 196,-325.5 "/>
<text text-anchor="middle" x="127" y="-313.5" font-family="SegoeUI" font-size="10.00"> </text>
<polyline fill="none" stroke="black" points="58,-306.5 196,-306.5 "/>
<text text-anchor="start" x="66" y="-294.5" font-family="SegoeUI" font-size="10.00"># AbstractNetShCommand()</text>
</a>
</g>
</g>
<!-- Node2&#45;&gt;Node1 -->
<g id="edge2" class="edge"><title>Node2&#45;&gt;Node1</title>
<path fill="none" stroke="midnightblue" d="M127,-277.156C127,-268.473 127,-259.232 127,-250.52"/>
<polygon fill="none" stroke="midnightblue" points="123.5,-277.398 127,-287.398 130.5,-277.398 123.5,-277.398"/>
</g>
<!-- Node3 -->
<g id="node4" class="node"><title>Node3</title>
<g id="a_node4"><a xlink:href="../../db/d6e/class_juniper_1_1_processes_1_1_abstract_shell_command.html" target="_top" xlink:title=" ">
<polygon fill="white" stroke="black" points="56.5,-381.5 56.5,-592.5 197.5,-592.5 197.5,-381.5 56.5,-381.5"/>
<text text-anchor="middle" x="127" y="-580.5" font-family="SegoeUI" font-size="10.00">AbstractShellCommand</text>
<polyline fill="none" stroke="black" points="56.5,-573.5 197.5,-573.5 "/>
<text text-anchor="start" x="64.5" y="-561.5" font-family="SegoeUI" font-size="10.00">+ UseShellExecute</text>
<text text-anchor="start" x="64.5" y="-550.5" font-family="SegoeUI" font-size="10.00">+ LoadUserProfile</text>
<text text-anchor="start" x="64.5" y="-539.5" font-family="SegoeUI" font-size="10.00">+ Encoding</text>
<text text-anchor="start" x="64.5" y="-528.5" font-family="SegoeUI" font-size="10.00">+ TotalStandardOutput</text>
<text text-anchor="start" x="64.5" y="-517.5" font-family="SegoeUI" font-size="10.00">+ TotalStandardError</text>
<text text-anchor="start" x="64.5" y="-506.5" font-family="SegoeUI" font-size="10.00">+ Arguments</text>
<text text-anchor="start" x="64.5" y="-495.5" font-family="SegoeUI" font-size="10.00">&#45; command</text>
<polyline fill="none" stroke="black" points="56.5,-488.5 197.5,-488.5 "/>
<text text-anchor="start" x="64.5" y="-476.5" font-family="SegoeUI" font-size="10.00">+ RunAsync()</text>
<text text-anchor="start" x="64.5" y="-465.5" font-family="SegoeUI" font-size="10.00">+ Run()</text>
<text text-anchor="start" x="64.5" y="-454.5" font-family="SegoeUI" font-size="10.00"># AbstractShellCommand()</text>
<text text-anchor="start" x="64.5" y="-443.5" font-family="SegoeUI" font-size="10.00"># RunAsync()</text>
<text text-anchor="start" x="64.5" y="-432.5" font-family="SegoeUI" font-size="10.00">&#45; Proc_OutputDataReceived()</text>
<text text-anchor="start" x="64.5" y="-421.5" font-family="SegoeUI" font-size="10.00">&#45; Proc_ErrorDataReceived()</text>
<text text-anchor="start" x="64.5" y="-410.5" font-family="SegoeUI" font-size="10.00">&#45; OnInfo()</text>
<text text-anchor="start" x="64.5" y="-399.5" font-family="SegoeUI" font-size="10.00">&#45; OnWarning()</text>
<text text-anchor="start" x="64.5" y="-388.5" font-family="SegoeUI" font-size="10.00">&#45; OnError()</text>
</a>
</g>
</g>
<!-- Node3&#45;&gt;Node2 -->
<g id="edge3" class="edge"><title>Node3&#45;&gt;Node2</title>
<path fill="none" stroke="midnightblue" d="M127,-371.099C127,-361.428 127,-352.37 127,-344.535"/>
<polygon fill="none" stroke="midnightblue" points="123.5,-371.374 127,-381.374 130.5,-371.374 123.5,-371.374"/>
</g>
<!-- Node4 -->
<g id="node5" class="node"><title>Node4</title>
<g id="a_node5"><a xlink:href="../../df/d21/interface_juniper_1_1_logging_1_1_i_logging_source.html" target="_top" xlink:title=" ">
<polygon fill="white" stroke="black" points="85.5,-629.5 85.5,-686.5 168.5,-686.5 168.5,-629.5 85.5,-629.5"/>
<text text-anchor="middle" x="127" y="-674.5" font-family="SegoeUI" font-size="10.00">ILoggingSource</text>
<polyline fill="none" stroke="black" points="85.5,-667.5 168.5,-667.5 "/>
<text text-anchor="middle" x="127" y="-655.5" font-family="SegoeUI" font-size="10.00"> </text>
<polyline fill="none" stroke="black" points="85.5,-648.5 168.5,-648.5 "/>
<text text-anchor="middle" x="127" y="-636.5" font-family="SegoeUI" font-size="10.00"> </text>
</a>
</g>
</g>
<!-- Node4&#45;&gt;Node3 -->
<g id="edge4" class="edge"><title>Node4&#45;&gt;Node3</title>
<path fill="none" stroke="midnightblue" d="M127,-619.233C127,-611.038 127,-601.987 127,-592.584"/>
<polygon fill="none" stroke="midnightblue" points="123.5,-619.471 127,-629.471 130.5,-619.471 123.5,-619.471"/>
</g>
<!-- Node5 -->
<g id="node6" class="node"><title>Node5</title>
<g id="a_node6"><a xlink:href="../../de/dad/interface_juniper_1_1_logging_1_1_i_info_source.html" target="_top" xlink:title=" ">
<polygon fill="white" stroke="black" points="0,-723.5 0,-780.5 66,-780.5 66,-723.5 0,-723.5"/>
<text text-anchor="middle" x="33" y="-768.5" font-family="SegoeUI" font-size="10.00">IInfoSource</text>
<polyline fill="none" stroke="black" points="0,-761.5 66,-761.5 "/>
<text text-anchor="middle" x="33" y="-749.5" font-family="SegoeUI" font-size="10.00"> </text>
<polyline fill="none" stroke="black" points="0,-742.5 66,-742.5 "/>
<text text-anchor="middle" x="33" y="-730.5" font-family="SegoeUI" font-size="10.00"> </text>
</a>
</g>
</g>
<!-- Node5&#45;&gt;Node4 -->
<g id="edge5" class="edge"><title>Node5&#45;&gt;Node4</title>
<path fill="none" stroke="midnightblue" d="M68.3657,-716.387C78.4259,-706.541 89.2449,-695.952 98.8168,-686.584"/>
<polygon fill="none" stroke="midnightblue" points="65.9017,-713.901 61.2031,-723.397 70.7979,-718.904 65.9017,-713.901"/>
</g>
<!-- Node6 -->
<g id="node7" class="node"><title>Node6</title>
<g id="a_node7"><a xlink:href="../../d6/d23/interface_juniper_1_1_logging_1_1_i_warning_source.html" target="_top" xlink:title=" ">
<polygon fill="white" stroke="black" points="84,-723.5 84,-780.5 170,-780.5 170,-723.5 84,-723.5"/>
<text text-anchor="middle" x="127" y="-768.5" font-family="SegoeUI" font-size="10.00">IWarningSource</text>
<polyline fill="none" stroke="black" points="84,-761.5 170,-761.5 "/>
<text text-anchor="middle" x="127" y="-749.5" font-family="SegoeUI" font-size="10.00"> </text>
<polyline fill="none" stroke="black" points="84,-742.5 170,-742.5 "/>
<text text-anchor="middle" x="127" y="-730.5" font-family="SegoeUI" font-size="10.00"> </text>
</a>
</g>
</g>
<!-- Node6&#45;&gt;Node4 -->
<g id="edge6" class="edge"><title>Node6&#45;&gt;Node4</title>
<path fill="none" stroke="midnightblue" d="M127,-713.209C127,-704.293 127,-694.951 127,-686.584"/>
<polygon fill="none" stroke="midnightblue" points="123.5,-713.397 127,-723.397 130.5,-713.397 123.5,-713.397"/>
</g>
<!-- Node7 -->
<g id="node8" class="node"><title>Node7</title>
<g id="a_node8"><a xlink:href="../../d4/d12/interface_juniper_1_1_logging_1_1_i_error_source.html" target="_top" xlink:title=" ">
<polygon fill="white" stroke="black" points="188.5,-723.5 188.5,-780.5 259.5,-780.5 259.5,-723.5 188.5,-723.5"/>
<text text-anchor="middle" x="224" y="-768.5" font-family="SegoeUI" font-size="10.00">IErrorSource</text>
<polyline fill="none" stroke="black" points="188.5,-761.5 259.5,-761.5 "/>
<text text-anchor="middle" x="224" y="-749.5" font-family="SegoeUI" font-size="10.00"> </text>
<polyline fill="none" stroke="black" points="188.5,-742.5 259.5,-742.5 "/>
<text text-anchor="middle" x="224" y="-730.5" font-family="SegoeUI" font-size="10.00"> </text>
</a>
</g>
</g>
<!-- Node7&#45;&gt;Node4 -->
<g id="edge7" class="edge"><title>Node7&#45;&gt;Node4</title>
<path fill="none" stroke="midnightblue" d="M187.506,-716.387C177.124,-706.541 165.96,-695.952 156.083,-686.584"/>
<polygon fill="none" stroke="midnightblue" points="185.233,-719.055 194.897,-723.397 190.05,-713.976 185.233,-719.055"/>
</g>
</g>
</svg>
