<?xml version="1.0" encoding="UTF-8" standalone="no"?>
<!DOCTYPE svg PUBLIC "-//W3C//DTD SVG 1.1//EN"
 "http://www.w3.org/Graphics/SVG/1.1/DTD/svg11.dtd">
<!-- Generated by graphviz version 2.38.0 (20140413.2041)
 -->
<!-- Title: Juniper.Unity.ImageTracking.AbstractTrackerKeeper Pages: 1 -->
<svg width="337pt" height="1524pt"
 viewBox="0.00 0.00 336.50 1524.00" xmlns="http://www.w3.org/2000/svg" xmlns:xlink="http://www.w3.org/1999/xlink">
<g id="graph0" class="graph" transform="scale(1 1) rotate(0) translate(4 1520)">
<title>Juniper.Unity.ImageTracking.AbstractTrackerKeeper</title>
<polygon fill="white" stroke="none" points="-4,4 -4,-1520 332.5,-1520 332.5,4 -4,4"/>
<!-- Node7 -->
<g id="node1" class="node"><title>Node7</title>
<g id="a_node1"><a xlink:title=" ">
<polygon fill="#bfbfbf" stroke="black" points="152,-0.5 152,-442.5 299,-442.5 299,-0.5 152,-0.5"/>
<text text-anchor="start" x="160" y="-430.5" font-family="SegoeUI" font-size="10.00">Juniper.Unity.ImageTracking.</text>
<text text-anchor="middle" x="225.5" y="-419.5" font-family="SegoeUI" font-size="10.00">AbstractTrackerKeeper</text>
<polyline fill="none" stroke="black" points="152,-412.5 299,-412.5 "/>
<text text-anchor="start" x="160" y="-400.5" font-family="SegoeUI" font-size="10.00">+ DebugReport</text>
<text text-anchor="start" x="160" y="-389.5" font-family="SegoeUI" font-size="10.00">+ onTrackingStarting</text>
<text text-anchor="start" x="160" y="-378.5" font-family="SegoeUI" font-size="10.00">+ onTrackingStarted</text>
<text text-anchor="start" x="160" y="-367.5" font-family="SegoeUI" font-size="10.00">+ onTrackingStopping</text>
<text text-anchor="start" x="160" y="-356.5" font-family="SegoeUI" font-size="10.00">+ onTrackingStopped</text>
<text text-anchor="start" x="160" y="-345.5" font-family="SegoeUI" font-size="10.00">+ onAnyTargetFound</text>
<text text-anchor="start" x="160" y="-334.5" font-family="SegoeUI" font-size="10.00">+ onAllTargetsLost</text>
<text text-anchor="start" x="160" y="-323.5" font-family="SegoeUI" font-size="10.00">+ Tracking</text>
<text text-anchor="start" x="160" y="-312.5" font-family="SegoeUI" font-size="10.00">+ TargetFound</text>
<text text-anchor="start" x="160" y="-301.5" font-family="SegoeUI" font-size="10.00">+ FirstTargets</text>
<text text-anchor="start" x="160" y="-290.5" font-family="SegoeUI" font-size="10.00">+ HasTargets</text>
<text text-anchor="start" x="160" y="-279.5" font-family="SegoeUI" font-size="10.00">+ Safe</text>
<text text-anchor="start" x="160" y="-268.5" font-family="SegoeUI" font-size="10.00"># targets</text>
<text text-anchor="start" x="160" y="-257.5" font-family="SegoeUI" font-size="10.00">&#45; hadAnyTargets</text>
<text text-anchor="start" x="160" y="-246.5" font-family="SegoeUI" font-size="10.00">&#45; wasTracking</text>
<text text-anchor="start" x="160" y="-235.5" font-family="SegoeUI" font-size="10.00">&#45; done</text>
<polyline fill="none" stroke="black" points="152,-228.5 299,-228.5 "/>
<text text-anchor="start" x="160" y="-216.5" font-family="SegoeUI" font-size="10.00">+ Register()</text>
<text text-anchor="start" x="160" y="-205.5" font-family="SegoeUI" font-size="10.00">+ Update()</text>
<text text-anchor="start" x="160" y="-194.5" font-family="SegoeUI" font-size="10.00">+ OnDestroy()</text>
<text text-anchor="start" x="160" y="-183.5" font-family="SegoeUI" font-size="10.00">+ StartTracker()</text>
<text text-anchor="start" x="160" y="-172.5" font-family="SegoeUI" font-size="10.00">+ StartTrackerWithDataSet()</text>
<text text-anchor="start" x="160" y="-161.5" font-family="SegoeUI" font-size="10.00">+ StartTrackerWithDataSetFor</text>
<text text-anchor="start" x="160" y="-150.5" font-family="SegoeUI" font-size="10.00">Target()</text>
<text text-anchor="start" x="160" y="-139.5" font-family="SegoeUI" font-size="10.00">+ Reset()</text>
<text text-anchor="start" x="160" y="-128.5" font-family="SegoeUI" font-size="10.00"># Start()</text>
<text text-anchor="start" x="160" y="-117.5" font-family="SegoeUI" font-size="10.00"># OnTrackingStarting()</text>
<text text-anchor="start" x="160" y="-106.5" font-family="SegoeUI" font-size="10.00"># OnTrackingStarted()</text>
<text text-anchor="start" x="160" y="-95.5" font-family="SegoeUI" font-size="10.00"># OnTrackingStopping()</text>
<text text-anchor="start" x="160" y="-84.5" font-family="SegoeUI" font-size="10.00"># OnTrackingStopped()</text>
<text text-anchor="start" x="160" y="-73.5" font-family="SegoeUI" font-size="10.00"># PrintDebugReport()</text>
<text text-anchor="start" x="160" y="-62.5" font-family="SegoeUI" font-size="10.00">&#45; TargetFinder()</text>
<text text-anchor="start" x="160" y="-51.5" font-family="SegoeUI" font-size="10.00">&#45; TargetProximity()</text>
<text text-anchor="start" x="160" y="-40.5" font-family="SegoeUI" font-size="10.00">&#45; TargetSafe()</text>
<text text-anchor="start" x="160" y="-29.5" font-family="SegoeUI" font-size="10.00">&#45; TargetLoser()</text>
<text text-anchor="start" x="160" y="-18.5" font-family="SegoeUI" font-size="10.00">&#45; OnAllTargetsLost()</text>
<text text-anchor="start" x="160" y="-7.5" font-family="SegoeUI" font-size="10.00">&#45; StartTrackerDelayed()</text>
</a>
</g>
</g>
<!-- Node8 -->
<g id="node2" class="node"><title>Node8</title>
<g id="a_node2"><a xlink:title=" ">
<polygon fill="white" stroke="#bfbfbf" points="246.5,-1447.5 246.5,-1504.5 328.5,-1504.5 328.5,-1447.5 246.5,-1447.5"/>
<text text-anchor="middle" x="287.5" y="-1492.5" font-family="SegoeUI" font-size="10.00">MonoBehaviour</text>
<polyline fill="none" stroke="#bfbfbf" points="246.5,-1485.5 328.5,-1485.5 "/>
<text text-anchor="middle" x="287.5" y="-1473.5" font-family="SegoeUI" font-size="10.00"> </text>
<polyline fill="none" stroke="#bfbfbf" points="246.5,-1466.5 328.5,-1466.5 "/>
<text text-anchor="middle" x="287.5" y="-1454.5" font-family="SegoeUI" font-size="10.00"> </text>
</a>
</g>
</g>
<!-- Node8&#45;&gt;Node7 -->
<g id="edge1" class="edge"><title>Node8&#45;&gt;Node7</title>
<path fill="none" stroke="midnightblue" d="M303.196,-1437.94C305.572,-1431.38 307.795,-1424.55 309.5,-1418 324.65,-1359.79 328.5,-1344.15 328.5,-1284 328.5,-1284 328.5,-1284 328.5,-556.5 328.5,-501.736 315.699,-444.074 299.122,-392.363"/>
<polygon fill="none" stroke="midnightblue" points="299.922,-1436.7 299.648,-1447.29 306.467,-1439.19 299.922,-1436.7"/>
</g>
<!-- Node14 -->
<g id="node8" class="node"><title>Node14</title>
<g id="a_node8"><a xlink:href="../../da/da5/class_juniper_1_1_unity_1_1_display_1_1_abstract_display_manager.html" target="_top" xlink:title=" ">
<polygon fill="white" stroke="black" points="68,-863.5 68,-1129.5 187,-1129.5 187,-863.5 68,-863.5"/>
<text text-anchor="middle" x="127.5" y="-1117.5" font-family="SegoeUI" font-size="10.00">AbstractDisplayManager</text>
<polyline fill="none" stroke="black" points="68,-1110.5 187,-1110.5 "/>
<text text-anchor="start" x="76" y="-1098.5" font-family="SegoeUI" font-size="10.00">+ MainCamera</text>
<text text-anchor="start" x="76" y="-1087.5" font-family="SegoeUI" font-size="10.00">+ DEFAULT_FOV</text>
<text text-anchor="start" x="76" y="-1076.5" font-family="SegoeUI" font-size="10.00">+ VerticalFieldOfView</text>
<text text-anchor="start" x="76" y="-1065.5" font-family="SegoeUI" font-size="10.00">&#45; lastSystem</text>
<text text-anchor="start" x="76" y="-1054.5" font-family="SegoeUI" font-size="10.00">&#45; lastDisplayType</text>
<text text-anchor="start" x="76" y="-1043.5" font-family="SegoeUI" font-size="10.00">&#45; lastARMode</text>
<text text-anchor="start" x="76" y="-1032.5" font-family="SegoeUI" font-size="10.00">&#45; lastOption</text>
<polyline fill="none" stroke="black" points="68,-1025.5 187,-1025.5 "/>
<text text-anchor="start" x="76" y="-1013.5" font-family="SegoeUI" font-size="10.00">+ StartXRDisplay()</text>
<text text-anchor="start" x="76" y="-1002.5" font-family="SegoeUI" font-size="10.00">+ StopXRDisplay()</text>
<text text-anchor="start" x="76" y="-991.5" font-family="SegoeUI" font-size="10.00">+ DisableDisplay()</text>
<text text-anchor="start" x="76" y="-980.5" font-family="SegoeUI" font-size="10.00">+ StartAR()</text>
<text text-anchor="start" x="76" y="-969.5" font-family="SegoeUI" font-size="10.00">+ StopAR()</text>
<text text-anchor="start" x="76" y="-958.5" font-family="SegoeUI" font-size="10.00">+ ToggleAR()</text>
<text text-anchor="start" x="76" y="-947.5" font-family="SegoeUI" font-size="10.00">+ Awake()</text>
<text text-anchor="start" x="76" y="-936.5" font-family="SegoeUI" font-size="10.00">+ Reinstall()</text>
<text text-anchor="start" x="76" y="-925.5" font-family="SegoeUI" font-size="10.00">+ Reset()</text>
<text text-anchor="start" x="76" y="-914.5" font-family="SegoeUI" font-size="10.00">+ Install()</text>
<text text-anchor="start" x="76" y="-903.5" font-family="SegoeUI" font-size="10.00">+ Uninstall()</text>
<text text-anchor="start" x="76" y="-892.5" font-family="SegoeUI" font-size="10.00">+ Update()</text>
<text text-anchor="start" x="76" y="-881.5" font-family="SegoeUI" font-size="10.00">&#45; ChangeDisplayType()</text>
<text text-anchor="start" x="76" y="-870.5" font-family="SegoeUI" font-size="10.00">&#45; ChangeARMode()</text>
</a>
</g>
</g>
<!-- Node8&#45;&gt;Node14 -->
<g id="edge8" class="edge"><title>Node8&#45;&gt;Node14</title>
<path fill="none" stroke="midnightblue" d="M292.479,-1436.94C298.537,-1378.76 304.181,-1265.18 270.5,-1177 252.659,-1130.29 217.943,-1086.24 187.186,-1053.46"/>
<polygon fill="none" stroke="midnightblue" points="288.971,-1436.81 291.352,-1447.14 295.929,-1437.58 288.971,-1436.81"/>
</g>
<!-- Node16 -->
<g id="node10" class="node"><title>Node16</title>
<g id="a_node10"><a xlink:href="../../d5/d97/class_juniper_1_1_unity_1_1_juniper_platform.html" target="_top" xlink:title=" ">
<polygon fill="white" stroke="black" points="56.5,-1177.5 56.5,-1388.5 198.5,-1388.5 198.5,-1177.5 56.5,-1177.5"/>
<text text-anchor="middle" x="127.5" y="-1376.5" font-family="SegoeUI" font-size="10.00">Juniper.Unity.JuniperPlatform</text>
<polyline fill="none" stroke="black" points="56.5,-1369.5 198.5,-1369.5 "/>
<text text-anchor="start" x="64.5" y="-1357.5" font-family="SegoeUI" font-size="10.00">+ CurrentPlatform</text>
<text text-anchor="start" x="64.5" y="-1346.5" font-family="SegoeUI" font-size="10.00">+ System</text>
<text text-anchor="start" x="64.5" y="-1335.5" font-family="SegoeUI" font-size="10.00">+ DisplayType</text>
<text text-anchor="start" x="64.5" y="-1324.5" font-family="SegoeUI" font-size="10.00">+ SupportedDisplayType</text>
<text text-anchor="start" x="64.5" y="-1313.5" font-family="SegoeUI" font-size="10.00">+ ARMode</text>
<text text-anchor="start" x="64.5" y="-1302.5" font-family="SegoeUI" font-size="10.00">+ SupportedARMode</text>
<text text-anchor="start" x="64.5" y="-1291.5" font-family="SegoeUI" font-size="10.00">+ Option</text>
<text text-anchor="start" x="64.5" y="-1280.5" font-family="SegoeUI" font-size="10.00">+ VRPlatformHasPassthrough</text>
<text text-anchor="start" x="64.5" y="-1269.5" font-family="SegoeUI" font-size="10.00">+ IsARCapablePlatform</text>
<polyline fill="none" stroke="black" points="56.5,-1262.5 198.5,-1262.5 "/>
<text text-anchor="start" x="64.5" y="-1250.5" font-family="SegoeUI" font-size="10.00">+ Awake()</text>
<text text-anchor="start" x="64.5" y="-1239.5" font-family="SegoeUI" font-size="10.00">+ Reinstall()</text>
<text text-anchor="start" x="64.5" y="-1228.5" font-family="SegoeUI" font-size="10.00">+ Reset()</text>
<text text-anchor="start" x="64.5" y="-1217.5" font-family="SegoeUI" font-size="10.00">+ OnValidate()</text>
<text text-anchor="start" x="64.5" y="-1206.5" font-family="SegoeUI" font-size="10.00">+ Install()</text>
<text text-anchor="start" x="64.5" y="-1195.5" font-family="SegoeUI" font-size="10.00">+ Uninstall()</text>
<text text-anchor="start" x="64.5" y="-1184.5" font-family="SegoeUI" font-size="10.00">+ Ensure()</text>
</a>
</g>
</g>
<!-- Node8&#45;&gt;Node16 -->
<g id="edge11" class="edge"><title>Node8&#45;&gt;Node16</title>
<path fill="none" stroke="midnightblue" d="M256.08,-1439.56C242.541,-1424.14 226.609,-1405.79 212.5,-1389 207.973,-1383.61 203.34,-1378.05 198.688,-1372.42"/>
<polygon fill="none" stroke="midnightblue" points="253.687,-1442.14 262.92,-1447.34 258.942,-1437.52 253.687,-1442.14"/>
</g>
<!-- Node9 -->
<g id="node3" class="node"><title>Node9</title>
<g id="a_node3"><a xlink:href="../../d1/d11/class_unity_engine_1_1_events_1_1_transform_event.html" target="_top" xlink:title="An event that passes a Transform value as an argument.">
<polygon fill="white" stroke="black" points="155,-523.5 155,-591.5 300,-591.5 300,-523.5 155,-523.5"/>
<text text-anchor="start" x="163" y="-579.5" font-family="SegoeUI" font-size="10.00">UnityEngine.Events.Transform</text>
<text text-anchor="middle" x="227.5" y="-568.5" font-family="SegoeUI" font-size="10.00">Event</text>
<polyline fill="none" stroke="black" points="155,-561.5 300,-561.5 "/>
<text text-anchor="middle" x="227.5" y="-549.5" font-family="SegoeUI" font-size="10.00"> </text>
<polyline fill="none" stroke="black" points="155,-542.5 300,-542.5 "/>
<text text-anchor="middle" x="227.5" y="-530.5" font-family="SegoeUI" font-size="10.00"> </text>
</a>
</g>
</g>
<!-- Node9&#45;&gt;Node7 -->
<g id="edge2" class="edge"><title>Node9&#45;&gt;Node7</title>
<path fill="none" stroke="#404040" d="M226.777,-523.257C226.667,-517.183 226.568,-510.902 226.5,-505 226.313,-488.721 226.158,-471.915 226.029,-454.99"/>
<polygon fill="none" stroke="#404040" points="226.027,-454.652 221.984,-448.681 225.94,-442.652 229.984,-448.623 226.027,-454.652"/>
<text text-anchor="middle" x="270.5" y="-497" font-family="SegoeUI" font-size="10.00"> +onTargetProximity</text>
<text text-anchor="middle" x="270.5" y="-486" font-family="SegoeUI" font-size="10.00">+onTargetFound</text>
<text text-anchor="middle" x="270.5" y="-475" font-family="SegoeUI" font-size="10.00">+onTargetSafe</text>
<text text-anchor="middle" x="270.5" y="-464" font-family="SegoeUI" font-size="10.00">+onTargetLost</text>
</g>
<!-- Node10 -->
<g id="node4" class="node"><title>Node10</title>
<g id="a_node4"><a xlink:title=" ">
<polygon fill="white" stroke="#bfbfbf" points="165,-640.5 165,-697.5 290,-697.5 290,-640.5 165,-640.5"/>
<text text-anchor="middle" x="227.5" y="-685.5" font-family="SegoeUI" font-size="10.00">UnityEvent&lt; Transform &gt;</text>
<polyline fill="none" stroke="#bfbfbf" points="165,-678.5 290,-678.5 "/>
<text text-anchor="middle" x="227.5" y="-666.5" font-family="SegoeUI" font-size="10.00"> </text>
<polyline fill="none" stroke="#bfbfbf" points="165,-659.5 290,-659.5 "/>
<text text-anchor="middle" x="227.5" y="-647.5" font-family="SegoeUI" font-size="10.00"> </text>
</a>
</g>
</g>
<!-- Node10&#45;&gt;Node9 -->
<g id="edge3" class="edge"><title>Node10&#45;&gt;Node9</title>
<path fill="none" stroke="midnightblue" d="M227.5,-630.196C227.5,-617.638 227.5,-603.76 227.5,-591.586"/>
<polygon fill="none" stroke="midnightblue" points="224,-630.368 227.5,-640.369 231,-630.369 224,-630.368"/>
</g>
<!-- Node11 -->
<g id="node5" class="node"><title>Node11</title>
<g id="a_node5"><a xlink:href="../../d9/de4/class_juniper_1_1_unity_1_1_display_1_1_display_manager.html" target="_top" xlink:title="Manages the camera FOV in the editor so that it matches the target system, or on desktop makes sure t...">
<polygon fill="white" stroke="black" points="0,-523.5 0,-591.5 137,-591.5 137,-523.5 0,-523.5"/>
<text text-anchor="start" x="8" y="-579.5" font-family="SegoeUI" font-size="10.00">Juniper.Unity.Display.Display</text>
<text text-anchor="middle" x="68.5" y="-568.5" font-family="SegoeUI" font-size="10.00">Manager</text>
<polyline fill="none" stroke="black" points="0,-561.5 137,-561.5 "/>
<text text-anchor="middle" x="68.5" y="-549.5" font-family="SegoeUI" font-size="10.00"> </text>
<polyline fill="none" stroke="black" points="0,-542.5 137,-542.5 "/>
<text text-anchor="middle" x="68.5" y="-530.5" font-family="SegoeUI" font-size="10.00"> </text>
</a>
</g>
</g>
<!-- Node11&#45;&gt;Node7 -->
<g id="edge4" class="edge"><title>Node11&#45;&gt;Node7</title>
<path fill="none" stroke="#404040" d="M84.1277,-523.254C99.0854,-491.433 122.832,-440.915 146.625,-390.299"/>
<polygon fill="none" stroke="#404040" points="146.754,-390.023 145.687,-382.891 151.859,-379.163 152.927,-386.294 146.754,-390.023"/>
<text text-anchor="middle" x="119.5" y="-480.5" font-family="SegoeUI" font-size="10.00"> &#45;xr</text>
</g>
<!-- Node12 -->
<g id="node6" class="node"><title>Node12</title>
<g id="a_node6"><a xlink:href="../../d6/d5d/class_juniper_1_1_unity_1_1_display_1_1_a_r_core_display_manager.html" target="_top" xlink:title=" ">
<polygon fill="white" stroke="black" points="20.5,-629.5 20.5,-708.5 136.5,-708.5 136.5,-629.5 20.5,-629.5"/>
<text text-anchor="middle" x="78.5" y="-696.5" font-family="SegoeUI" font-size="10.00">ARCoreDisplayManager</text>
<polyline fill="none" stroke="black" points="20.5,-689.5 136.5,-689.5 "/>
<text text-anchor="start" x="28.5" y="-677.5" font-family="SegoeUI" font-size="10.00">&#45; isQuitting</text>
<polyline fill="none" stroke="black" points="20.5,-670.5 136.5,-670.5 "/>
<text text-anchor="start" x="28.5" y="-658.5" font-family="SegoeUI" font-size="10.00">+ Install()</text>
<text text-anchor="start" x="28.5" y="-647.5" font-family="SegoeUI" font-size="10.00">+ Uninstall()</text>
<text text-anchor="start" x="28.5" y="-636.5" font-family="SegoeUI" font-size="10.00">+ Update()</text>
</a>
</g>
</g>
<!-- Node12&#45;&gt;Node11 -->
<g id="edge5" class="edge"><title>Node12&#45;&gt;Node11</title>
<path fill="none" stroke="midnightblue" d="M74.0599,-619.381C73.2046,-610.016 72.3273,-600.409 71.5296,-591.674"/>
<polygon fill="none" stroke="midnightblue" points="70.5793,-619.754 74.9744,-629.394 77.5503,-619.117 70.5793,-619.754"/>
</g>
<!-- Node13 -->
<g id="node7" class="node"><title>Node13</title>
<g id="a_node7"><a xlink:href="../../de/dad/class_juniper_1_1_unity_1_1_display_1_1_abstract_passthrough_display_manager.html" target="_top" xlink:title=" ">
<polygon fill="white" stroke="black" points="41.5,-746.5 41.5,-825.5 175.5,-825.5 175.5,-746.5 41.5,-746.5"/>
<text text-anchor="start" x="49.5" y="-813.5" font-family="SegoeUI" font-size="10.00">AbstractPassthroughDisplay</text>
<text text-anchor="middle" x="108.5" y="-802.5" font-family="SegoeUI" font-size="10.00">Manager</text>
<polyline fill="none" stroke="black" points="41.5,-795.5 175.5,-795.5 "/>
<text text-anchor="start" x="49.5" y="-783.5" font-family="SegoeUI" font-size="10.00">+ ARBackgroundMaterial</text>
<text text-anchor="start" x="49.5" y="-772.5" font-family="SegoeUI" font-size="10.00">+ enablePointCloud</text>
<polyline fill="none" stroke="black" points="41.5,-765.5 175.5,-765.5 "/>
<text text-anchor="middle" x="108.5" y="-753.5" font-family="SegoeUI" font-size="10.00"> </text>
</a>
</g>
</g>
<!-- Node13&#45;&gt;Node12 -->
<g id="edge6" class="edge"><title>Node13&#45;&gt;Node12</title>
<path fill="none" stroke="midnightblue" d="M95.8466,-736.495C93.427,-727.22 90.9239,-717.625 88.5975,-708.707"/>
<polygon fill="none" stroke="midnightblue" points="92.516,-737.594 98.427,-746.387 99.2893,-735.827 92.516,-737.594"/>
</g>
<!-- Node14&#45;&gt;Node13 -->
<g id="edge7" class="edge"><title>Node14&#45;&gt;Node13</title>
<path fill="none" stroke="midnightblue" d="M114.552,-853.414C113.652,-843.533 112.799,-834.177 112.033,-825.774"/>
<polygon fill="none" stroke="midnightblue" points="111.074,-853.813 115.467,-863.454 118.045,-853.177 111.074,-853.813"/>
</g>
<!-- Node15 -->
<g id="node9" class="node"><title>Node15</title>
<g id="a_node9"><a xlink:href="../../db/d28/interface_juniper_1_1_i_installable.html" target="_top" xlink:title=" ">
<polygon fill="white" stroke="black" points="14,-1436.5 14,-1515.5 83,-1515.5 83,-1436.5 14,-1436.5"/>
<text text-anchor="middle" x="48.5" y="-1503.5" font-family="SegoeUI" font-size="10.00">IInstallable</text>
<polyline fill="none" stroke="black" points="14,-1496.5 83,-1496.5 "/>
<text text-anchor="middle" x="48.5" y="-1484.5" font-family="SegoeUI" font-size="10.00"> </text>
<polyline fill="none" stroke="black" points="14,-1477.5 83,-1477.5 "/>
<text text-anchor="start" x="22" y="-1465.5" font-family="SegoeUI" font-size="10.00">+ Install()</text>
<text text-anchor="start" x="22" y="-1454.5" font-family="SegoeUI" font-size="10.00">+ Reinstall()</text>
<text text-anchor="start" x="22" y="-1443.5" font-family="SegoeUI" font-size="10.00">+ Uninstall()</text>
</a>
</g>
</g>
<!-- Node15&#45;&gt;Node14 -->
<g id="edge9" class="edge"><title>Node15&#45;&gt;Node14</title>
<path fill="none" stroke="midnightblue" d="M42.0719,-1426.12C35.665,-1366.55 29.1677,-1263.17 47.5,-1177 52.0794,-1155.48 59.4297,-1133.4 67.8638,-1112.42"/>
<polygon fill="none" stroke="midnightblue" points="38.6279,-1426.82 43.2196,-1436.36 45.5843,-1426.04 38.6279,-1426.82"/>
</g>
<!-- Node15&#45;&gt;Node16 -->
<g id="edge12" class="edge"><title>Node15&#45;&gt;Node16</title>
<path fill="none" stroke="midnightblue" d="M68.4476,-1426.77C73.323,-1414.98 78.7298,-1401.91 84.2351,-1388.6"/>
<polygon fill="none" stroke="midnightblue" points="65.0747,-1425.77 64.4868,-1436.35 71.5432,-1428.45 65.0747,-1425.77"/>
</g>
<!-- Node16&#45;&gt;Node14 -->
<g id="edge10" class="edge"><title>Node16&#45;&gt;Node14</title>
<path fill="none" stroke="#404040" d="M127.5,-1177.27C127.5,-1165.63 127.5,-1153.62 127.5,-1141.6"/>
<polygon fill="none" stroke="#404040" points="127.5,-1141.58 123.5,-1135.58 127.5,-1129.58 131.5,-1135.58 127.5,-1141.58"/>
<text text-anchor="middle" x="137" y="-1151" font-family="SegoeUI" font-size="10.00"> #jp</text>
</g>
<!-- Node17 -->
<g id="node11" class="node"><title>Node17</title>
<g id="a_node11"><a xlink:title=" ">
<polygon fill="white" stroke="#bfbfbf" points="145,-1447.5 145,-1504.5 184,-1504.5 184,-1447.5 145,-1447.5"/>
<text text-anchor="middle" x="164.5" y="-1492.5" font-family="SegoeUI" font-size="10.00">static</text>
<polyline fill="none" stroke="#bfbfbf" points="145,-1485.5 184,-1485.5 "/>
<text text-anchor="middle" x="164.5" y="-1473.5" font-family="SegoeUI" font-size="10.00"> </text>
<polyline fill="none" stroke="#bfbfbf" points="145,-1466.5 184,-1466.5 "/>
<text text-anchor="middle" x="164.5" y="-1454.5" font-family="SegoeUI" font-size="10.00"> </text>
</a>
</g>
</g>
<!-- Node17&#45;&gt;Node14 -->
<g id="edge14" class="edge"><title>Node17&#45;&gt;Node14</title>
<path fill="none" stroke="#404040" d="M184.045,-1461.57C197.088,-1451.34 213.147,-1435.98 220.5,-1418 261.11,-1318.72 232.775,-1281.25 207.5,-1177 203.45,-1160.3 197.897,-1143.22 191.588,-1126.56"/>
<polygon fill="none" stroke="#404040" points="191.478,-1126.27 185.568,-1122.14 187.109,-1115.1 193.019,-1119.23 191.478,-1126.27"/>
<text text-anchor="middle" x="254" y="-1280.5" font-family="SegoeUI" font-size="10.00"> &#45;cam</text>
</g>
<!-- Node17&#45;&gt;Node16 -->
<g id="edge13" class="edge"><title>Node17&#45;&gt;Node16</title>
<path fill="none" stroke="#404040" d="M144.675,-1457.6C134.433,-1447.26 122.962,-1433.21 117.5,-1418 115.51,-1412.46 114.01,-1406.71 112.922,-1400.84"/>
<polygon fill="none" stroke="#404040" points="112.883,-1400.56 108.101,-1395.17 111.243,-1388.68 116.026,-1394.07 112.883,-1400.56"/>
<text text-anchor="middle" x="169" y="-1410" font-family="SegoeUI" font-size="10.00"> +CURRENT_PLATFORM</text>
</g>
</g>
</svg>
