<?xml version="1.0" encoding="UTF-8" standalone="no"?>
<!DOCTYPE svg PUBLIC "-//W3C//DTD SVG 1.1//EN"
 "http://www.w3.org/Graphics/SVG/1.1/DTD/svg11.dtd">
<!-- Generated by graphviz version 2.38.0 (20140413.2041)
 -->
<!-- Title: Juniper.Imaging.LibJpegNETCodec Pages: 1 -->
<!--zoomable 1149 -->
<svg id="main" version="1.1" xmlns="http://www.w3.org/2000/svg" xmlns:xlink="http://www.w3.org/1999/xlink" xml:space="preserve" onload="init(evt)">
<style type="text/css"><![CDATA[
.edge:hover path { stroke: red; }
.edge:hover polygon { stroke: red; fill: red; }
]]></style>
<script type="text/javascript"><![CDATA[
var edges = document.getElementsByTagName('g');
if (edges && edges.length) {
  for (var i=0;i<edges.length;i++) {
    if (edges[i].id.substr(0,4)=='edge') {
      edges[i].setAttribute('class','edge');
    }
  }
}
]]></script>
        <defs>
                <circle id="rim" cx="0" cy="0" r="7"/>
                <circle id="rim2" cx="0" cy="0" r="3.5"/>
                <g id="zoomPlus">
                        <use xlink:href="#rim" fill="#404040">
                                <set attributeName="fill" to="#808080" begin="zoomplus.mouseover" end="zoomplus.mouseout"/>
                        </use>
                        <path d="M-4,0h8M0,-4v8" fill="none" stroke="white" stroke-width="1.5" pointer-events="none"/>
                </g>
                <g id="zoomMin">
                        <use xlink:href="#rim" fill="#404040">
                                <set attributeName="fill" to="#808080" begin="zoomminus.mouseover" end="zoomminus.mouseout"/>
                        </use>
                        <path d="M-4,0h8" fill="none" stroke="white" stroke-width="1.5" pointer-events="none"/>
                </g>
                <g id="dirArrow">
                        <path fill="none" stroke="white" stroke-width="1.5" d="M0,-3.0v7 M-2.5,-0.5L0,-3.0L2.5,-0.5"/>
                </g>
               <g id="resetDef">
                       <use xlink:href="#rim2" fill="#404040">
                               <set attributeName="fill" to="#808080" begin="reset.mouseover" end="reset.mouseout"/>
                       </use>
               </g>
        </defs>

<script type="text/javascript">
var viewWidth = 635;
var viewHeight = 1149;
var sectionId = 'dynsection-1';
</script>
<script xlink:href="../../svgpan.js"/>
<svg id="graph" class="graph">
<g id="viewport">
<title>Juniper.Imaging.LibJpegNETCodec</title>
<polygon fill="white" stroke="none" points="-4,4 -4,-1145 631,-1145 631,4 -4,4"/>
<!-- Node11 -->
<g id="node1" class="node"><title>Node11</title>
<g id="a_node1"><a xlink:title=" ">
<polygon fill="#bfbfbf" stroke="black" points="303.5,-0.5 303.5,-79.5 466.5,-79.5 466.5,-0.5 303.5,-0.5"/>
<text text-anchor="middle" x="385" y="-67.5" font-family="SegoeUI" font-size="10.00">Juniper.Imaging.LibJpegNETCodec</text>
<polyline fill="none" stroke="black" points="303.5,-60.5 466.5,-60.5 "/>
<text text-anchor="start" x="311.5" y="-48.5" font-family="SegoeUI" font-size="10.00">&#45; compressionParams</text>
<polyline fill="none" stroke="black" points="303.5,-41.5 466.5,-41.5 "/>
<text text-anchor="start" x="311.5" y="-29.5" font-family="SegoeUI" font-size="10.00">+ LibJpegNETCodec()</text>
<text text-anchor="start" x="311.5" y="-18.5" font-family="SegoeUI" font-size="10.00">+ Deserialize()</text>
<text text-anchor="start" x="311.5" y="-7.5" font-family="SegoeUI" font-size="10.00">+ Serialize()</text>
</a>
</g>
</g>
<!-- Node12 -->
<g id="node2" class="node"><title>Node12</title>
<g id="a_node2"><a xlink:href="../../d8/d64/interface_juniper_1_1_imaging_1_1_i_image_codec.html" target="_top" xlink:title=" ">
<polygon fill="white" stroke="black" points="180.5,-314.5 180.5,-371.5 319.5,-371.5 319.5,-314.5 180.5,-314.5"/>
<text text-anchor="middle" x="250" y="-359.5" font-family="SegoeUI" font-size="10.00">IImageCodec&lt; JpegImage &gt;</text>
<polyline fill="none" stroke="black" points="180.5,-352.5 319.5,-352.5 "/>
<text text-anchor="middle" x="250" y="-340.5" font-family="SegoeUI" font-size="10.00"> </text>
<polyline fill="none" stroke="black" points="180.5,-333.5 319.5,-333.5 "/>
<text text-anchor="middle" x="250" y="-321.5" font-family="SegoeUI" font-size="10.00"> </text>
</a>
</g>
</g>
<!-- Node12&#45;&gt;Node11 -->
<g id="edge1" class="edge"><title>Node12&#45;&gt;Node11</title>
<path fill="none" stroke="midnightblue" d="M266.555,-305.089C292.267,-247.76 341.556,-137.863 367.71,-79.5503"/>
<polygon fill="none" stroke="midnightblue" points="263.237,-303.934 262.338,-314.49 269.624,-306.798 263.237,-303.934"/>
</g>
<!-- Node13 -->
<g id="node3" class="node"><title>Node13</title>
<g id="a_node3"><a xlink:href="../../d8/d64/interface_juniper_1_1_imaging_1_1_i_image_codec.html" target="_top" xlink:title=" ">
<polygon fill="white" stroke="black" points="106,-661.5 106,-718.5 276,-718.5 276,-661.5 106,-661.5"/>
<text text-anchor="middle" x="191" y="-706.5" font-family="SegoeUI" font-size="10.00">Juniper.Imaging.IImageCodec&lt; T &gt;</text>
<polyline fill="none" stroke="black" points="106,-699.5 276,-699.5 "/>
<text text-anchor="middle" x="191" y="-687.5" font-family="SegoeUI" font-size="10.00"> </text>
<polyline fill="none" stroke="black" points="106,-680.5 276,-680.5 "/>
<text text-anchor="middle" x="191" y="-668.5" font-family="SegoeUI" font-size="10.00"> </text>
</a>
</g>
</g>
<!-- Node13&#45;&gt;Node12 -->
<g id="edge2" class="edge"><title>Node13&#45;&gt;Node12</title>
<path fill="none" stroke="orange" d="M197.46,-651.226C209.413,-581.331 234.72,-433.349 245.249,-371.781"/>
<polygon fill="orange" stroke="orange" points="193.964,-650.903 195.728,-661.35 200.864,-652.084 193.964,-650.903"/>
<text text-anchor="middle" x="246" y="-607.5" font-family="SegoeUI" font-size="10.00"> &lt; JpegImage &gt;</text>
</g>
<!-- Node14 -->
<g id="node4" class="node"><title>Node14</title>
<g id="a_node4"><a xlink:href="../../da/df2/interface_juniper_1_1_i_o_1_1_i_factory.html" target="_top" xlink:title=" ">
<polygon fill="white" stroke="black" points="111.5,-756.5 111.5,-813.5 270.5,-813.5 270.5,-756.5 111.5,-756.5"/>
<text text-anchor="middle" x="191" y="-801.5" font-family="SegoeUI" font-size="10.00">IFactory&lt; T, MediaType.Image &gt;</text>
<polyline fill="none" stroke="black" points="111.5,-794.5 270.5,-794.5 "/>
<text text-anchor="middle" x="191" y="-782.5" font-family="SegoeUI" font-size="10.00"> </text>
<polyline fill="none" stroke="black" points="111.5,-775.5 270.5,-775.5 "/>
<text text-anchor="middle" x="191" y="-763.5" font-family="SegoeUI" font-size="10.00"> </text>
</a>
</g>
</g>
<!-- Node14&#45;&gt;Node13 -->
<g id="edge3" class="edge"><title>Node14&#45;&gt;Node13</title>
<path fill="none" stroke="midnightblue" d="M191,-746.235C191,-737.028 191,-727.346 191,-718.705"/>
<polygon fill="none" stroke="midnightblue" points="187.5,-746.349 191,-756.349 194.5,-746.349 187.5,-746.349"/>
</g>
<!-- Node15 -->
<g id="node5" class="node"><title>Node15</title>
<g id="a_node5"><a xlink:href="../../da/df2/interface_juniper_1_1_i_o_1_1_i_factory.html" target="_top" xlink:title=" ">
<polygon fill="white" stroke="black" points="111,-861.5 111,-929.5 271,-929.5 271,-861.5 111,-861.5"/>
<text text-anchor="start" x="119" y="-917.5" font-family="SegoeUI" font-size="10.00">Juniper.IO.IFactory</text>
<text text-anchor="middle" x="191" y="-906.5" font-family="SegoeUI" font-size="10.00">&lt; ResultT, out out MediaTypeT &gt;</text>
<polyline fill="none" stroke="black" points="111,-899.5 271,-899.5 "/>
<text text-anchor="middle" x="191" y="-887.5" font-family="SegoeUI" font-size="10.00"> </text>
<polyline fill="none" stroke="black" points="111,-880.5 271,-880.5 "/>
<text text-anchor="middle" x="191" y="-868.5" font-family="SegoeUI" font-size="10.00"> </text>
</a>
</g>
</g>
<!-- Node15&#45;&gt;Node14 -->
<g id="edge4" class="edge"><title>Node15&#45;&gt;Node14</title>
<path fill="none" stroke="orange" d="M191,-851.064C191,-838.511 191,-825.152 191,-813.827"/>
<polygon fill="orange" stroke="orange" points="187.5,-851.357 191,-861.357 194.5,-851.357 187.5,-851.357"/>
<text text-anchor="middle" x="247" y="-835" font-family="SegoeUI" font-size="10.00"> &lt; T, MediaType.Image &gt;</text>
</g>
<!-- Node16 -->
<g id="node6" class="node"><title>Node16</title>
<g id="a_node6"><a xlink:href="../../de/d17/interface_juniper_1_1_i_o_1_1_i_serializer.html" target="_top" xlink:title=" ">
<polygon fill="white" stroke="black" points="0,-967.5 0,-1024.5 112,-1024.5 112,-967.5 0,-967.5"/>
<text text-anchor="middle" x="56" y="-1012.5" font-family="SegoeUI" font-size="10.00">ISerializer&lt; ResultT &gt;</text>
<polyline fill="none" stroke="black" points="0,-1005.5 112,-1005.5 "/>
<text text-anchor="middle" x="56" y="-993.5" font-family="SegoeUI" font-size="10.00"> </text>
<polyline fill="none" stroke="black" points="0,-986.5 112,-986.5 "/>
<text text-anchor="start" x="8" y="-974.5" font-family="SegoeUI" font-size="10.00">+ Serialize()</text>
</a>
</g>
</g>
<!-- Node16&#45;&gt;Node15 -->
<g id="edge5" class="edge"><title>Node16&#45;&gt;Node15</title>
<path fill="none" stroke="midnightblue" d="M102.075,-961.383C116.158,-951.107 131.63,-939.818 145.664,-929.578"/>
<polygon fill="none" stroke="midnightblue" points="99.9796,-958.579 93.9643,-967.3 104.106,-964.233 99.9796,-958.579"/>
</g>
<!-- Node17 -->
<g id="node7" class="node"><title>Node17</title>
<g id="a_node7"><a xlink:href="../../de/d17/interface_juniper_1_1_i_o_1_1_i_serializer.html" target="_top" xlink:title=" ">
<polygon fill="white" stroke="black" points="2.5,-1072.5 2.5,-1140.5 109.5,-1140.5 109.5,-1072.5 2.5,-1072.5"/>
<text text-anchor="start" x="10.5" y="-1128.5" font-family="SegoeUI" font-size="10.00">Juniper.IO.ISerializer</text>
<text text-anchor="middle" x="56" y="-1117.5" font-family="SegoeUI" font-size="10.00">&lt; in in T &gt;</text>
<polyline fill="none" stroke="black" points="2.5,-1110.5 109.5,-1110.5 "/>
<text text-anchor="middle" x="56" y="-1098.5" font-family="SegoeUI" font-size="10.00"> </text>
<polyline fill="none" stroke="black" points="2.5,-1091.5 109.5,-1091.5 "/>
<text text-anchor="start" x="10.5" y="-1079.5" font-family="SegoeUI" font-size="10.00">+ Serialize()</text>
</a>
</g>
</g>
<!-- Node17&#45;&gt;Node16 -->
<g id="edge6" class="edge"><title>Node17&#45;&gt;Node16</title>
<path fill="none" stroke="orange" d="M56,-1062.06C56,-1049.51 56,-1036.15 56,-1024.83"/>
<polygon fill="orange" stroke="orange" points="52.5001,-1062.36 56,-1072.36 59.5001,-1062.36 52.5001,-1062.36"/>
<text text-anchor="middle" x="83.5" y="-1046" font-family="SegoeUI" font-size="10.00"> &lt; ResultT &gt;</text>
</g>
<!-- Node18 -->
<g id="node8" class="node"><title>Node18</title>
<g id="a_node8"><a xlink:href="../../d1/d4d/interface_juniper_1_1_i_o_1_1_i_deserializer.html" target="_top" xlink:title=" ">
<polygon fill="white" stroke="black" points="130,-967.5 130,-1024.5 252,-1024.5 252,-967.5 130,-967.5"/>
<text text-anchor="middle" x="191" y="-1012.5" font-family="SegoeUI" font-size="10.00">IDeserializer&lt; ResultT &gt;</text>
<polyline fill="none" stroke="black" points="130,-1005.5 252,-1005.5 "/>
<text text-anchor="middle" x="191" y="-993.5" font-family="SegoeUI" font-size="10.00"> </text>
<polyline fill="none" stroke="black" points="130,-986.5 252,-986.5 "/>
<text text-anchor="start" x="138" y="-974.5" font-family="SegoeUI" font-size="10.00">+ Deserialize()</text>
</a>
</g>
</g>
<!-- Node18&#45;&gt;Node15 -->
<g id="edge7" class="edge"><title>Node18&#45;&gt;Node15</title>
<path fill="none" stroke="midnightblue" d="M191,-957.007C191,-947.962 191,-938.383 191,-929.578"/>
<polygon fill="none" stroke="midnightblue" points="187.5,-957.3 191,-967.3 194.5,-957.3 187.5,-957.3"/>
</g>
<!-- Node19 -->
<g id="node9" class="node"><title>Node19</title>
<g id="a_node9"><a xlink:href="../../d1/d4d/interface_juniper_1_1_i_o_1_1_i_deserializer.html" target="_top" xlink:title=" ">
<polygon fill="white" stroke="black" points="133,-1072.5 133,-1140.5 249,-1140.5 249,-1072.5 133,-1072.5"/>
<text text-anchor="start" x="141" y="-1128.5" font-family="SegoeUI" font-size="10.00">Juniper.IO.IDeserializer</text>
<text text-anchor="middle" x="191" y="-1117.5" font-family="SegoeUI" font-size="10.00">&lt; out out ResultT &gt;</text>
<polyline fill="none" stroke="black" points="133,-1110.5 249,-1110.5 "/>
<text text-anchor="middle" x="191" y="-1098.5" font-family="SegoeUI" font-size="10.00"> </text>
<polyline fill="none" stroke="black" points="133,-1091.5 249,-1091.5 "/>
<text text-anchor="start" x="141" y="-1079.5" font-family="SegoeUI" font-size="10.00">+ Deserialize()</text>
</a>
</g>
</g>
<!-- Node19&#45;&gt;Node18 -->
<g id="edge8" class="edge"><title>Node19&#45;&gt;Node18</title>
<path fill="none" stroke="orange" d="M191,-1062.06C191,-1049.51 191,-1036.15 191,-1024.83"/>
<polygon fill="orange" stroke="orange" points="187.5,-1062.36 191,-1072.36 194.5,-1062.36 187.5,-1062.36"/>
<text text-anchor="middle" x="218.5" y="-1046" font-family="SegoeUI" font-size="10.00"> &lt; ResultT &gt;</text>
</g>
<!-- Node20 -->
<g id="node10" class="node"><title>Node20</title>
<g id="a_node10"><a xlink:href="../../da/d97/interface_juniper_1_1_i_o_1_1_i_content_handler.html" target="_top" xlink:title=" ">
<polygon fill="white" stroke="black" points="270,-967.5 270,-1024.5 428,-1024.5 428,-967.5 270,-967.5"/>
<text text-anchor="middle" x="349" y="-1012.5" font-family="SegoeUI" font-size="10.00">IContentHandler&lt; MediaTypeT &gt;</text>
<polyline fill="none" stroke="black" points="270,-1005.5 428,-1005.5 "/>
<text text-anchor="middle" x="349" y="-993.5" font-family="SegoeUI" font-size="10.00"> </text>
<polyline fill="none" stroke="black" points="270,-986.5 428,-986.5 "/>
<text text-anchor="middle" x="349" y="-974.5" font-family="SegoeUI" font-size="10.00"> </text>
</a>
</g>
</g>
<!-- Node20&#45;&gt;Node15 -->
<g id="edge9" class="edge"><title>Node20&#45;&gt;Node15</title>
<path fill="none" stroke="midnightblue" d="M295.998,-961.958C279.27,-951.529 260.792,-940.009 244.06,-929.578"/>
<polygon fill="none" stroke="midnightblue" points="294.23,-964.98 304.568,-967.3 297.933,-959.04 294.23,-964.98"/>
</g>
<!-- Node21 -->
<g id="node11" class="node"><title>Node21</title>
<g id="a_node11"><a xlink:href="../../da/d97/interface_juniper_1_1_i_o_1_1_i_content_handler.html" target="_top" xlink:title=" ">
<polygon fill="white" stroke="black" points="283,-1078 283,-1135 415,-1135 415,-1078 283,-1078"/>
<text text-anchor="middle" x="349" y="-1123" font-family="SegoeUI" font-size="10.00">Juniper.IO.IContentHandler</text>
<polyline fill="none" stroke="black" points="283,-1116 415,-1116 "/>
<text text-anchor="middle" x="349" y="-1104" font-family="SegoeUI" font-size="10.00"> </text>
<polyline fill="none" stroke="black" points="283,-1097 415,-1097 "/>
<text text-anchor="middle" x="349" y="-1085" font-family="SegoeUI" font-size="10.00"> </text>
</a>
</g>
</g>
<!-- Node21&#45;&gt;Node20 -->
<g id="edge10" class="edge"><title>Node21&#45;&gt;Node20</title>
<path fill="none" stroke="orange" d="M349,-1067.44C349,-1053.33 349,-1037.61 349,-1024.61"/>
<polygon fill="orange" stroke="orange" points="345.5,-1067.84 349,-1077.84 352.5,-1067.84 345.5,-1067.84"/>
<text text-anchor="middle" x="387" y="-1046" font-family="SegoeUI" font-size="10.00"> &lt; MediaTypeT &gt;</text>
</g>
<!-- Node22 -->
<g id="node12" class="node"><title>Node22</title>
<g id="a_node12"><a xlink:href="../../d4/d56/class_juniper_1_1_media_type.html" target="_top" xlink:title=" ">
<polygon fill="white" stroke="black" points="414.5,-127.5 414.5,-558.5 533.5,-558.5 533.5,-127.5 414.5,-127.5"/>
<text text-anchor="middle" x="474" y="-546.5" font-family="SegoeUI" font-size="10.00">Juniper.MediaType</text>
<polyline fill="none" stroke="black" points="414.5,-539.5 533.5,-539.5 "/>
<text text-anchor="start" x="422.5" y="-527.5" font-family="SegoeUI" font-size="10.00">+ TYPE_PATTERN</text>
<text text-anchor="start" x="422.5" y="-516.5" font-family="SegoeUI" font-size="10.00">+ Value</text>
<text text-anchor="start" x="422.5" y="-505.5" font-family="SegoeUI" font-size="10.00">+ TypeName</text>
<text text-anchor="start" x="422.5" y="-494.5" font-family="SegoeUI" font-size="10.00">+ SubTypeName</text>
<text text-anchor="start" x="422.5" y="-483.5" font-family="SegoeUI" font-size="10.00">+ Weight</text>
<text text-anchor="start" x="422.5" y="-472.5" font-family="SegoeUI" font-size="10.00">+ Extensions</text>
<text text-anchor="start" x="422.5" y="-461.5" font-family="SegoeUI" font-size="10.00">+ PrimaryExtension</text>
<text text-anchor="start" x="422.5" y="-450.5" font-family="SegoeUI" font-size="10.00">&#45; weightedValue</text>
<polyline fill="none" stroke="black" points="414.5,-443.5 533.5,-443.5 "/>
<text text-anchor="start" x="422.5" y="-431.5" font-family="SegoeUI" font-size="10.00">+ Matches()</text>
<text text-anchor="start" x="422.5" y="-420.5" font-family="SegoeUI" font-size="10.00">+ Matches()</text>
<text text-anchor="start" x="422.5" y="-409.5" font-family="SegoeUI" font-size="10.00">+ AddExtension()</text>
<text text-anchor="start" x="422.5" y="-398.5" font-family="SegoeUI" font-size="10.00">+ Equals()</text>
<text text-anchor="start" x="422.5" y="-387.5" font-family="SegoeUI" font-size="10.00">+ Equals()</text>
<text text-anchor="start" x="422.5" y="-376.5" font-family="SegoeUI" font-size="10.00">+ Equals()</text>
<text text-anchor="start" x="422.5" y="-365.5" font-family="SegoeUI" font-size="10.00">+ ToString()</text>
<text text-anchor="start" x="422.5" y="-354.5" font-family="SegoeUI" font-size="10.00">+ GetHashCode()</text>
<text text-anchor="start" x="422.5" y="-343.5" font-family="SegoeUI" font-size="10.00">+ Parse()</text>
<text text-anchor="start" x="422.5" y="-332.5" font-family="SegoeUI" font-size="10.00">+ ParseAll()</text>
<text text-anchor="start" x="422.5" y="-321.5" font-family="SegoeUI" font-size="10.00">+ TryParse()</text>
<text text-anchor="start" x="422.5" y="-310.5" font-family="SegoeUI" font-size="10.00">+ GuessByFileName()</text>
<text text-anchor="start" x="422.5" y="-299.5" font-family="SegoeUI" font-size="10.00">+ GuessByFile()</text>
<text text-anchor="start" x="422.5" y="-288.5" font-family="SegoeUI" font-size="10.00">+ Lookup()</text>
<text text-anchor="start" x="422.5" y="-277.5" font-family="SegoeUI" font-size="10.00">+ operator+()</text>
<text text-anchor="start" x="422.5" y="-266.5" font-family="SegoeUI" font-size="10.00">+ operator string()</text>
<text text-anchor="start" x="422.5" y="-255.5" font-family="SegoeUI" font-size="10.00">+ operator==()</text>
<text text-anchor="start" x="422.5" y="-244.5" font-family="SegoeUI" font-size="10.00">+ operator !=()</text>
<text text-anchor="start" x="422.5" y="-233.5" font-family="SegoeUI" font-size="10.00">+ operator==()</text>
<text text-anchor="start" x="422.5" y="-222.5" font-family="SegoeUI" font-size="10.00">+ operator !=()</text>
<text text-anchor="start" x="422.5" y="-211.5" font-family="SegoeUI" font-size="10.00">+ operator==()</text>
<text text-anchor="start" x="422.5" y="-200.5" font-family="SegoeUI" font-size="10.00">+ operator !=()</text>
<text text-anchor="start" x="422.5" y="-189.5" font-family="SegoeUI" font-size="10.00"># MediaType()</text>
<text text-anchor="start" x="422.5" y="-178.5" font-family="SegoeUI" font-size="10.00">&#45; MediaType()</text>
<text text-anchor="start" x="422.5" y="-167.5" font-family="SegoeUI" font-size="10.00">&#45; MediaType()</text>
<text text-anchor="start" x="422.5" y="-156.5" font-family="SegoeUI" font-size="10.00">&#45; UpdateLookupTables()</text>
<text text-anchor="start" x="422.5" y="-145.5" font-family="SegoeUI" font-size="10.00">&#45; InternalParseAll()</text>
<text text-anchor="start" x="422.5" y="-134.5" font-family="SegoeUI" font-size="10.00">&#45; GuessByExtension()</text>
</a>
</g>
</g>
<!-- Node22&#45;&gt;Node11 -->
<g id="edge11" class="edge"><title>Node22&#45;&gt;Node11</title>
<path fill="none" stroke="#404040" d="M414.389,-140.393C409.095,-122.488 404.124,-105.679 399.831,-91.1583"/>
<polygon fill="none" stroke="#404040" points="399.794,-91.0332 394.257,-86.4137 396.391,-79.5257 401.928,-84.1453 399.794,-91.0332"/>
<text text-anchor="middle" x="437" y="-101" font-family="SegoeUI" font-size="10.00"> +ContentType</text>
</g>
<!-- Node23 -->
<g id="node13" class="node"><title>Node23</title>
<g id="a_node13"><a xlink:title=" ">
<polygon fill="white" stroke="#bfbfbf" points="294,-661.5 294,-718.5 422,-718.5 422,-661.5 294,-661.5"/>
<text text-anchor="middle" x="358" y="-706.5" font-family="SegoeUI" font-size="10.00">IEquatable&lt; MediaType &gt;</text>
<polyline fill="none" stroke="#bfbfbf" points="294,-699.5 422,-699.5 "/>
<text text-anchor="middle" x="358" y="-687.5" font-family="SegoeUI" font-size="10.00"> </text>
<polyline fill="none" stroke="#bfbfbf" points="294,-680.5 422,-680.5 "/>
<text text-anchor="middle" x="358" y="-668.5" font-family="SegoeUI" font-size="10.00"> </text>
</a>
</g>
</g>
<!-- Node23&#45;&gt;Node22 -->
<g id="edge12" class="edge"><title>Node23&#45;&gt;Node22</title>
<path fill="none" stroke="midnightblue" d="M370.602,-651.519C381.412,-619.369 397.828,-570.545 414.417,-521.207"/>
<polygon fill="none" stroke="midnightblue" points="367.166,-650.756 367.297,-661.35 373.801,-652.987 367.166,-650.756"/>
</g>
<!-- Node24 -->
<g id="node14" class="node"><title>Node24</title>
<g id="a_node14"><a xlink:title=" ">
<polygon fill="white" stroke="#bfbfbf" points="440.5,-661.5 440.5,-718.5 545.5,-718.5 545.5,-661.5 440.5,-661.5"/>
<text text-anchor="middle" x="493" y="-706.5" font-family="SegoeUI" font-size="10.00">IEquatable&lt; string &gt;</text>
<polyline fill="none" stroke="#bfbfbf" points="440.5,-699.5 545.5,-699.5 "/>
<text text-anchor="middle" x="493" y="-687.5" font-family="SegoeUI" font-size="10.00"> </text>
<polyline fill="none" stroke="#bfbfbf" points="440.5,-680.5 545.5,-680.5 "/>
<text text-anchor="middle" x="493" y="-668.5" font-family="SegoeUI" font-size="10.00"> </text>
</a>
</g>
</g>
<!-- Node24&#45;&gt;Node22 -->
<g id="edge13" class="edge"><title>Node24&#45;&gt;Node22</title>
<path fill="none" stroke="midnightblue" d="M490.91,-651.047C489.596,-627.184 487.783,-594.27 485.83,-558.814"/>
<polygon fill="none" stroke="midnightblue" points="487.433,-651.558 491.477,-661.35 494.422,-651.173 487.433,-651.558"/>
</g>
<!-- Node25 -->
<g id="node15" class="node"><title>Node25</title>
<g id="a_node15"><a xlink:title=" ">
<polygon fill="white" stroke="#bfbfbf" points="563.5,-661.5 563.5,-718.5 602.5,-718.5 602.5,-661.5 563.5,-661.5"/>
<text text-anchor="middle" x="583" y="-706.5" font-family="SegoeUI" font-size="10.00">static</text>
<polyline fill="none" stroke="#bfbfbf" points="563.5,-699.5 602.5,-699.5 "/>
<text text-anchor="middle" x="583" y="-687.5" font-family="SegoeUI" font-size="10.00"> </text>
<polyline fill="none" stroke="#bfbfbf" points="563.5,-680.5 602.5,-680.5 "/>
<text text-anchor="middle" x="583" y="-668.5" font-family="SegoeUI" font-size="10.00"> </text>
</a>
</g>
</g>
<!-- Node25&#45;&gt;Node22 -->
<g id="edge14" class="edge"><title>Node25&#45;&gt;Node22</title>
<path fill="none" stroke="#404040" d="M574.264,-661.35C565.724,-634.318 551.891,-590.537 537.193,-544.016"/>
<polygon fill="none" stroke="#404040" points="537.158,-543.903 531.536,-539.386 533.542,-532.46 539.164,-536.976 537.158,-543.903"/>
<text text-anchor="middle" x="597.5" y="-635" font-family="SegoeUI" font-size="10.00"> +All</text>
<text text-anchor="middle" x="597.5" y="-624" font-family="SegoeUI" font-size="10.00">+Values</text>
<text text-anchor="middle" x="597.5" y="-613" font-family="SegoeUI" font-size="10.00">&#45;typePattern</text>
<text text-anchor="middle" x="597.5" y="-602" font-family="SegoeUI" font-size="10.00">&#45;byValue</text>
<text text-anchor="middle" x="597.5" y="-591" font-family="SegoeUI" font-size="10.00">+Any</text>
<text text-anchor="middle" x="597.5" y="-580" font-family="SegoeUI" font-size="10.00">&#45;byExtensions</text>
</g>
</g>
</svg>
        <g id="navigator" transform="translate(0 0)" fill="#404254">
                <rect fill="#f2f5e9" fill-opacity="0.5" stroke="#606060" stroke-width=".5" x="0" y="0" width="60" height="60"/>
                <use id="zoomplus" xlink:href="#zoomPlus" x="17" y="9" onmousedown="handleZoom(evt,'in')"/>
                <use id="zoomminus" xlink:href="#zoomMin" x="42" y="9" onmousedown="handleZoom(evt,'out')"/>
                <use id="reset" xlink:href="#resetDef" x="30" y="36" onmousedown="handleReset()"/>
                <g id="arrowUp" xlink:href="#dirArrow" transform="translate(30 24)" onmousedown="handlePan(0,-1)">
                  <use xlink:href="#rim" fill="#404040">
                        <set attributeName="fill" to="#808080" begin="arrowUp.mouseover" end="arrowUp.mouseout"/>
                  </use>
                  <path fill="none" stroke="white" stroke-width="1.5" d="M0,-3.0v7 M-2.5,-0.5L0,-3.0L2.5,-0.5"/>
                </g>
                <g id="arrowRight" xlink:href="#dirArrow" transform="rotate(90) translate(36 -43)" onmousedown="handlePan(1,0)">
                  <use xlink:href="#rim" fill="#404040">
                        <set attributeName="fill" to="#808080" begin="arrowRight.mouseover" end="arrowRight.mouseout"/>
                  </use>
                  <path fill="none" stroke="white" stroke-width="1.5" d="M0,-3.0v7 M-2.5,-0.5L0,-3.0L2.5,-0.5"/>
                </g>
                <g id="arrowDown" xlink:href="#dirArrow" transform="rotate(180) translate(-30 -48)" onmousedown="handlePan(0,1)">
                  <use xlink:href="#rim" fill="#404040">
                        <set attributeName="fill" to="#808080" begin="arrowDown.mouseover" end="arrowDown.mouseout"/>
                  </use>
                  <path fill="none" stroke="white" stroke-width="1.5" d="M0,-3.0v7 M-2.5,-0.5L0,-3.0L2.5,-0.5"/>
                </g>
                <g id="arrowLeft" xlink:href="#dirArrow" transform="rotate(270) translate(-36 17)" onmousedown="handlePan(-1,0)">
                  <use xlink:href="#rim" fill="#404040">
                        <set attributeName="fill" to="#808080" begin="arrowLeft.mouseover" end="arrowLeft.mouseout"/>
                  </use>
                  <path fill="none" stroke="white" stroke-width="1.5" d="M0,-3.0v7 M-2.5,-0.5L0,-3.0L2.5,-0.5"/>
                </g>
        </g>
        <svg viewBox="0 0 15 15" width="100%" height="30px" preserveAspectRatio="xMaxYMin meet">
         <g id="arrow_out" transform="scale(0.3 0.3)">
          <a xlink:href="class_juniper_1_1_imaging_1_1_lib_jpeg_n_e_t_codec__coll__graph_org.svg" target="_base">
           <rect id="button" ry="5" rx="5" y="6" x="6" height="38" width="38"
                fill="#f2f5e9" fill-opacity="0.5" stroke="#606060" stroke-width="1.0"/>
           <path id="arrow"
             d="M 11.500037,31.436501 C 11.940474,20.09759 22.043105,11.32322 32.158766,21.979434 L 37.068811,17.246167 C 37.068811,17.246167 37.088388,32 37.088388,32 L 22.160133,31.978069 C 22.160133,31.978069 26.997745,27.140456 26.997745,27.140456 C 18.528582,18.264221 13.291696,25.230495 11.500037,31.436501 z"
             style="fill:#404040;"/>
          </a>
         </g>
        </svg>
</svg>
