<?xml version="1.0" encoding="UTF-8" standalone="no"?>
<!DOCTYPE svg PUBLIC "-//W3C//DTD SVG 1.1//EN"
 "http://www.w3.org/Graphics/SVG/1.1/DTD/svg11.dtd">
<!-- Generated by graphviz version 2.38.0 (20140413.2041)
 -->
<!-- Title: Juniper.Console.VirtualKeyState Pages: 1 -->
<svg width="185pt" height="402pt"
 viewBox="0.00 0.00 185.00 402.00" xmlns="http://www.w3.org/2000/svg" xmlns:xlink="http://www.w3.org/1999/xlink">
<g id="graph0" class="graph" transform="scale(1 1) rotate(0) translate(4 398)">
<title>Juniper.Console.VirtualKeyState</title>
<polygon fill="white" stroke="none" points="-4,4 -4,-398 181,-398 181,4 -4,4"/>
<!-- Node1 -->
<g id="node1" class="node"><title>Node1</title>
<g id="a_node1"><a xlink:title=" ">
<polygon fill="#bfbfbf" stroke="black" points="0,-0.5 0,-178.5 130,-178.5 130,-0.5 0,-0.5"/>
<text text-anchor="start" x="8" y="-166.5" font-family="SegoeUI" font-size="10.00">Juniper.Console.VirtualKey</text>
<text text-anchor="middle" x="65" y="-155.5" font-family="SegoeUI" font-size="10.00">State</text>
<polyline fill="none" stroke="black" points="0,-148.5 130,-148.5 "/>
<text text-anchor="start" x="8" y="-136.5" font-family="SegoeUI" font-size="10.00">+ VK_LBUTTON</text>
<text text-anchor="start" x="8" y="-125.5" font-family="SegoeUI" font-size="10.00">+ VK_RBUTTON</text>
<text text-anchor="start" x="8" y="-114.5" font-family="SegoeUI" font-size="10.00">+ VK_CANCEL</text>
<text text-anchor="start" x="8" y="-103.5" font-family="SegoeUI" font-size="10.00">+ VK_MBUTTON</text>
<text text-anchor="start" x="8" y="-92.5" font-family="SegoeUI" font-size="10.00">+ VK_XBUTTON1</text>
<text text-anchor="start" x="8" y="-81.5" font-family="SegoeUI" font-size="10.00">+ VK_TAB</text>
<text text-anchor="start" x="8" y="-70.5" font-family="SegoeUI" font-size="10.00">+ VK_CLEAR</text>
<text text-anchor="start" x="8" y="-59.5" font-family="SegoeUI" font-size="10.00">+ VK_RETURN</text>
<text text-anchor="start" x="8" y="-48.5" font-family="SegoeUI" font-size="10.00">+ VK_SHIFT</text>
<text text-anchor="start" x="8" y="-37.5" font-family="SegoeUI" font-size="10.00">+ VK_CONTROL</text>
<text text-anchor="start" x="8" y="-26.5" font-family="SegoeUI" font-size="10.00">and 140 more...</text>
<polyline fill="none" stroke="black" points="0,-19.5 130,-19.5 "/>
<text text-anchor="middle" x="65" y="-7.5" font-family="SegoeUI" font-size="10.00"> </text>
</a>
</g>
</g>
<!-- Node2 -->
<g id="node2" class="node"><title>Node2</title>
<g id="a_node2"><a xlink:title=" ">
<polygon fill="white" stroke="#bfbfbf" points="45.5,-336.5 45.5,-393.5 84.5,-393.5 84.5,-336.5 45.5,-336.5"/>
<text text-anchor="middle" x="65" y="-381.5" font-family="SegoeUI" font-size="10.00">static</text>
<polyline fill="none" stroke="#bfbfbf" points="45.5,-374.5 84.5,-374.5 "/>
<text text-anchor="middle" x="65" y="-362.5" font-family="SegoeUI" font-size="10.00"> </text>
<polyline fill="none" stroke="#bfbfbf" points="45.5,-355.5 84.5,-355.5 "/>
<text text-anchor="middle" x="65" y="-343.5" font-family="SegoeUI" font-size="10.00"> </text>
</a>
</g>
</g>
<!-- Node2&#45;&gt;Node1 -->
<g id="edge1" class="edge"><title>Node2&#45;&gt;Node1</title>
<path fill="none" stroke="#404040" d="M65,-336.27C65,-302.325 65,-242.946 65,-191.058"/>
<polygon fill="none" stroke="#404040" points="65.0001,-190.74 61,-184.74 65,-178.74 69,-184.74 65.0001,-190.74"/>
<text text-anchor="middle" x="121" y="-310" font-family="SegoeUI" font-size="10.00"> +VK_OEM_BACKTAB</text>
<text text-anchor="middle" x="121" y="-299" font-family="SegoeUI" font-size="10.00">+VK_BROWSER_REFRESH</text>
<text text-anchor="middle" x="121" y="-288" font-family="SegoeUI" font-size="10.00">+VK_DIVIDE</text>
<text text-anchor="middle" x="121" y="-277" font-family="SegoeUI" font-size="10.00">+VK_NUMPAD3</text>
<text text-anchor="middle" x="121" y="-266" font-family="SegoeUI" font-size="10.00">+VK_LEFT</text>
<text text-anchor="middle" x="121" y="-255" font-family="SegoeUI" font-size="10.00">+VK_END</text>
<text text-anchor="middle" x="121" y="-244" font-family="SegoeUI" font-size="10.00">+VK_MODECHANGE</text>
<text text-anchor="middle" x="121" y="-233" font-family="SegoeUI" font-size="10.00">+VK_JUNJA</text>
<text text-anchor="middle" x="121" y="-222" font-family="SegoeUI" font-size="10.00">+VK_BACK</text>
<text text-anchor="middle" x="121" y="-211" font-family="SegoeUI" font-size="10.00">+VK_XBUTTON2</text>
<text text-anchor="middle" x="121" y="-200" font-family="SegoeUI" font-size="10.00">...</text>
</g>
</g>
</svg>
