<?xml version="1.0" encoding="UTF-8" standalone="no"?>
<!DOCTYPE svg PUBLIC "-//W3C//DTD SVG 1.1//EN"
 "http://www.w3.org/Graphics/SVG/1.1/DTD/svg11.dtd">
<!-- Generated by graphviz version 2.38.0 (20140413.2041)
 -->
<!-- Title: Juniper.Unity.Input.UnifiedInputModule Pages: 1 -->
<!--zoomable 975 -->
<svg id="main" version="1.1" xmlns="http://www.w3.org/2000/svg" xmlns:xlink="http://www.w3.org/1999/xlink" xml:space="preserve" onload="init(evt)">
<style type="text/css"><![CDATA[
.edge:hover path { stroke: red; }
.edge:hover polygon { stroke: red; fill: red; }
]]></style>
<script type="text/javascript"><![CDATA[
var edges = document.getElementsByTagName('g');
if (edges && edges.length) {
  for (var i=0;i<edges.length;i++) {
    if (edges[i].id.substr(0,4)=='edge') {
      edges[i].setAttribute('class','edge');
    }
  }
}
]]></script>
        <defs>
                <circle id="rim" cx="0" cy="0" r="7"/>
                <circle id="rim2" cx="0" cy="0" r="3.5"/>
                <g id="zoomPlus">
                        <use xlink:href="#rim" fill="#404040">
                                <set attributeName="fill" to="#808080" begin="zoomplus.mouseover" end="zoomplus.mouseout"/>
                        </use>
                        <path d="M-4,0h8M0,-4v8" fill="none" stroke="white" stroke-width="1.5" pointer-events="none"/>
                </g>
                <g id="zoomMin">
                        <use xlink:href="#rim" fill="#404040">
                                <set attributeName="fill" to="#808080" begin="zoomminus.mouseover" end="zoomminus.mouseout"/>
                        </use>
                        <path d="M-4,0h8" fill="none" stroke="white" stroke-width="1.5" pointer-events="none"/>
                </g>
                <g id="dirArrow">
                        <path fill="none" stroke="white" stroke-width="1.5" d="M0,-3.0v7 M-2.5,-0.5L0,-3.0L2.5,-0.5"/>
                </g>
               <g id="resetDef">
                       <use xlink:href="#rim2" fill="#404040">
                               <set attributeName="fill" to="#808080" begin="reset.mouseover" end="reset.mouseout"/>
                       </use>
               </g>
        </defs>

<script type="text/javascript">
var viewWidth = 323;
var viewHeight = 975;
var sectionId = 'dynsection-0';
</script>
<script xlink:href="../../svgpan.js"/>
<svg id="graph" class="graph">
<g id="viewport">
<title>Juniper.Unity.Input.UnifiedInputModule</title>
<polygon fill="white" stroke="none" points="-4,4 -4,-971 319,-971 319,4 -4,4"/>
<!-- Node0 -->
<g id="node1" class="node"><title>Node0</title>
<g id="a_node1"><a xlink:title=" ">
<polygon fill="#bfbfbf" stroke="black" points="87.5,-0.5 87.5,-68.5 215.5,-68.5 215.5,-0.5 87.5,-0.5"/>
<text text-anchor="start" x="95.5" y="-56.5" font-family="SegoeUI" font-size="10.00">Juniper.Unity.Input.Unified</text>
<text text-anchor="middle" x="151.5" y="-45.5" font-family="SegoeUI" font-size="10.00">InputModule</text>
<polyline fill="none" stroke="black" points="87.5,-38.5 215.5,-38.5 "/>
<text text-anchor="middle" x="151.5" y="-26.5" font-family="SegoeUI" font-size="10.00"> </text>
<polyline fill="none" stroke="black" points="87.5,-19.5 215.5,-19.5 "/>
<text text-anchor="middle" x="151.5" y="-7.5" font-family="SegoeUI" font-size="10.00"> </text>
</a>
</g>
</g>
<!-- Node1 -->
<g id="node2" class="node"><title>Node1</title>
<g id="a_node2"><a xlink:href="../../d7/d3e/class_juniper_1_1_unity_1_1_input_1_1_daydream_input_module.html" target="_top" xlink:title=" ">
<polygon fill="white" stroke="black" points="95,-105.5 95,-184.5 208,-184.5 208,-105.5 95,-105.5"/>
<text text-anchor="middle" x="151.5" y="-172.5" font-family="SegoeUI" font-size="10.00">DaydreamInputModule</text>
<polyline fill="none" stroke="black" points="95,-165.5 208,-165.5 "/>
<text text-anchor="middle" x="151.5" y="-153.5" font-family="SegoeUI" font-size="10.00"> </text>
<polyline fill="none" stroke="black" points="95,-146.5 208,-146.5 "/>
<text text-anchor="start" x="103" y="-134.5" font-family="SegoeUI" font-size="10.00">+ Install()</text>
<text text-anchor="start" x="103" y="-123.5" font-family="SegoeUI" font-size="10.00">+ Uninstall()</text>
<text text-anchor="start" x="103" y="-112.5" font-family="SegoeUI" font-size="10.00"># Awake()</text>
</a>
</g>
</g>
<!-- Node1&#45;&gt;Node0 -->
<g id="edge1" class="edge"><title>Node1&#45;&gt;Node0</title>
<path fill="none" stroke="midnightblue" d="M151.5,-95.3492C151.5,-86.2824 151.5,-77.0048 151.5,-68.5439"/>
<polygon fill="none" stroke="midnightblue" points="148,-95.4414 151.5,-105.441 155,-95.4415 148,-95.4414"/>
</g>
<!-- Node2 -->
<g id="node3" class="node"><title>Node2</title>
<g id="a_node3"><a xlink:href="../../d6/dd6/class_juniper_1_1_unity_1_1_input_1_1_abstract_unified_input_module.html" target="_top" xlink:title="Finds all of the IPointerDevice s and fires raycaster events for all of them.">
<polygon fill="white" stroke="black" points="78.5,-221.5 78.5,-784.5 224.5,-784.5 224.5,-221.5 78.5,-221.5"/>
<text text-anchor="middle" x="151.5" y="-772.5" font-family="SegoeUI" font-size="10.00">AbstractUnifiedInputModule</text>
<polyline fill="none" stroke="black" points="78.5,-765.5 224.5,-765.5 "/>
<text text-anchor="start" x="86.5" y="-753.5" font-family="SegoeUI" font-size="10.00">+ Devices</text>
<text text-anchor="start" x="86.5" y="-742.5" font-family="SegoeUI" font-size="10.00">+ mode</text>
<text text-anchor="start" x="86.5" y="-731.5" font-family="SegoeUI" font-size="10.00">+ pointerPrefab</text>
<text text-anchor="start" x="86.5" y="-720.5" font-family="SegoeUI" font-size="10.00">+ enableControllersToggle</text>
<text text-anchor="start" x="86.5" y="-709.5" font-family="SegoeUI" font-size="10.00">+ enableMouseToggle</text>
<text text-anchor="start" x="86.5" y="-698.5" font-family="SegoeUI" font-size="10.00">+ enableTouchToggle</text>
<text text-anchor="start" x="86.5" y="-687.5" font-family="SegoeUI" font-size="10.00">+ enableHandsToggle</text>
<text text-anchor="start" x="86.5" y="-676.5" font-family="SegoeUI" font-size="10.00">+ enableGazeToggle</text>
<text text-anchor="start" x="86.5" y="-665.5" font-family="SegoeUI" font-size="10.00">+ gazePointer</text>
<text text-anchor="start" x="86.5" y="-654.5" font-family="SegoeUI" font-size="10.00">+ mouse</text>
<text text-anchor="start" x="86.5" y="-643.5" font-family="SegoeUI" font-size="10.00">+ touches</text>
<text text-anchor="start" x="86.5" y="-632.5" font-family="SegoeUI" font-size="10.00">+ motionControllers</text>
<text text-anchor="start" x="86.5" y="-621.5" font-family="SegoeUI" font-size="10.00">+ handTrackers</text>
<text text-anchor="start" x="86.5" y="-610.5" font-family="SegoeUI" font-size="10.00">+ AnyPointerDragging</text>
<text text-anchor="start" x="86.5" y="-599.5" font-family="SegoeUI" font-size="10.00">+ TouchConnected</text>
<text text-anchor="start" x="86.5" y="-588.5" font-family="SegoeUI" font-size="10.00">+ MotionConnected</text>
<text text-anchor="start" x="86.5" y="-577.5" font-family="SegoeUI" font-size="10.00"># stage</text>
<text text-anchor="start" x="86.5" y="-566.5" font-family="SegoeUI" font-size="10.00">&#45; newDevices</text>
<text text-anchor="start" x="86.5" y="-555.5" font-family="SegoeUI" font-size="10.00">&#45; ENABLE_GAZE_KEY</text>
<text text-anchor="start" x="86.5" y="-544.5" font-family="SegoeUI" font-size="10.00">&#45; ENABLE_MOUSE_KEY</text>
<text text-anchor="start" x="86.5" y="-533.5" font-family="SegoeUI" font-size="10.00">&#45; ENABLE_TOUCH_KEY</text>
<text text-anchor="start" x="86.5" y="-522.5" font-family="SegoeUI" font-size="10.00">&#45; ENABLE_HANDS_KEY</text>
<text text-anchor="start" x="86.5" y="-511.5" font-family="SegoeUI" font-size="10.00">&#45; ENABLE_CONTROLLERS_KEY</text>
<text text-anchor="start" x="86.5" y="-500.5" font-family="SegoeUI" font-size="10.00">&#45; wasTouchConnected</text>
<text text-anchor="start" x="86.5" y="-489.5" font-family="SegoeUI" font-size="10.00">&#45; CanvasOffset</text>
<polyline fill="none" stroke="black" points="78.5,-482.5 224.5,-482.5 "/>
<text text-anchor="start" x="86.5" y="-470.5" font-family="SegoeUI" font-size="10.00">+ AddPointer()</text>
<text text-anchor="start" x="86.5" y="-459.5" font-family="SegoeUI" font-size="10.00">+ Reinstall()</text>
<text text-anchor="start" x="86.5" y="-448.5" font-family="SegoeUI" font-size="10.00">+ Install()</text>
<text text-anchor="start" x="86.5" y="-437.5" font-family="SegoeUI" font-size="10.00">+ MakePointer&lt; T &gt;()</text>
<text text-anchor="start" x="86.5" y="-426.5" font-family="SegoeUI" font-size="10.00">+ Uninstall()</text>
<text text-anchor="start" x="86.5" y="-415.5" font-family="SegoeUI" font-size="10.00">+ Process()</text>
<text text-anchor="start" x="86.5" y="-404.5" font-family="SegoeUI" font-size="10.00">+ Clone()</text>
<text text-anchor="start" x="86.5" y="-393.5" font-family="SegoeUI" font-size="10.00">+ EnableMouse()</text>
<text text-anchor="start" x="86.5" y="-382.5" font-family="SegoeUI" font-size="10.00">+ EnableGaze()</text>
<text text-anchor="start" x="86.5" y="-371.5" font-family="SegoeUI" font-size="10.00">+ EnableTouch()</text>
<text text-anchor="start" x="86.5" y="-360.5" font-family="SegoeUI" font-size="10.00">+ EnableHands()</text>
<text text-anchor="start" x="86.5" y="-349.5" font-family="SegoeUI" font-size="10.00">+ EnableControllers()</text>
<text text-anchor="start" x="86.5" y="-338.5" font-family="SegoeUI" font-size="10.00"># Awake()</text>
<text text-anchor="start" x="86.5" y="-327.5" font-family="SegoeUI" font-size="10.00">&#45; SetupDevice()</text>
<text text-anchor="start" x="86.5" y="-316.5" font-family="SegoeUI" font-size="10.00">&#45; UpdateRay()</text>
<text text-anchor="start" x="86.5" y="-305.5" font-family="SegoeUI" font-size="10.00">&#45; RaycastAll()</text>
<text text-anchor="start" x="86.5" y="-294.5" font-family="SegoeUI" font-size="10.00">&#45; GetBool()</text>
<text text-anchor="start" x="86.5" y="-283.5" font-family="SegoeUI" font-size="10.00">&#45; SetBool()</text>
<text text-anchor="start" x="86.5" y="-272.5" font-family="SegoeUI" font-size="10.00">&#45; EnableDevice()</text>
<text text-anchor="start" x="86.5" y="-261.5" font-family="SegoeUI" font-size="10.00">&#45; EnableTouches()</text>
<text text-anchor="start" x="86.5" y="-250.5" font-family="SegoeUI" font-size="10.00">&#45; EnableHands()</text>
<text text-anchor="start" x="86.5" y="-239.5" font-family="SegoeUI" font-size="10.00">&#45; EnableControllers()</text>
<text text-anchor="start" x="86.5" y="-228.5" font-family="SegoeUI" font-size="10.00">&#45; RaycastComparer()</text>
</a>
</g>
</g>
<!-- Node2&#45;&gt;Node1 -->
<g id="edge2" class="edge"><title>Node2&#45;&gt;Node1</title>
<path fill="none" stroke="midnightblue" d="M151.5,-211.219C151.5,-201.605 151.5,-192.737 151.5,-184.84"/>
<polygon fill="none" stroke="midnightblue" points="148,-211.498 151.5,-221.498 155,-211.498 148,-211.498"/>
</g>
<!-- Node3 -->
<g id="node4" class="node"><title>Node3</title>
<g id="a_node4"><a xlink:title=" ">
<polygon fill="white" stroke="#bfbfbf" points="0,-865.5 0,-922.5 99,-922.5 99,-865.5 0,-865.5"/>
<text text-anchor="middle" x="49.5" y="-910.5" font-family="SegoeUI" font-size="10.00">PointerInputModule</text>
<polyline fill="none" stroke="#bfbfbf" points="0,-903.5 99,-903.5 "/>
<text text-anchor="middle" x="49.5" y="-891.5" font-family="SegoeUI" font-size="10.00"> </text>
<polyline fill="none" stroke="#bfbfbf" points="0,-884.5 99,-884.5 "/>
<text text-anchor="middle" x="49.5" y="-872.5" font-family="SegoeUI" font-size="10.00"> </text>
</a>
</g>
</g>
<!-- Node3&#45;&gt;Node2 -->
<g id="edge3" class="edge"><title>Node3&#45;&gt;Node2</title>
<path fill="none" stroke="midnightblue" d="M59.3102,-855.586C64.3475,-836.376 70.9815,-811.076 78.3868,-782.834"/>
<polygon fill="none" stroke="midnightblue" points="55.9047,-854.775 56.7538,-865.336 62.6758,-856.551 55.9047,-854.775"/>
</g>
<!-- Node4 -->
<g id="node5" class="node"><title>Node4</title>
<g id="a_node5"><a xlink:href="../../db/d28/interface_juniper_1_1_i_installable.html" target="_top" xlink:title="Defines an interface for objects that can be installed and have their installation progress tracked.">
<polygon fill="white" stroke="black" points="117,-854.5 117,-933.5 186,-933.5 186,-854.5 117,-854.5"/>
<text text-anchor="middle" x="151.5" y="-921.5" font-family="SegoeUI" font-size="10.00">IInstallable</text>
<polyline fill="none" stroke="black" points="117,-914.5 186,-914.5 "/>
<text text-anchor="middle" x="151.5" y="-902.5" font-family="SegoeUI" font-size="10.00"> </text>
<polyline fill="none" stroke="black" points="117,-895.5 186,-895.5 "/>
<text text-anchor="start" x="125" y="-883.5" font-family="SegoeUI" font-size="10.00">+ Install()</text>
<text text-anchor="start" x="125" y="-872.5" font-family="SegoeUI" font-size="10.00">+ Reinstall()</text>
<text text-anchor="start" x="125" y="-861.5" font-family="SegoeUI" font-size="10.00">+ Uninstall()</text>
</a>
</g>
</g>
<!-- Node4&#45;&gt;Node2 -->
<g id="edge4" class="edge"><title>Node4&#45;&gt;Node2</title>
<path fill="none" stroke="midnightblue" d="M151.5,-844.193C151.5,-827.255 151.5,-806.864 151.5,-784.585"/>
<polygon fill="none" stroke="midnightblue" points="148,-844.279 151.5,-854.279 155,-844.279 148,-844.279"/>
</g>
<!-- Node5 -->
<g id="node6" class="node"><title>Node5</title>
<g id="a_node6"><a xlink:href="../../d5/da1/interface_juniper_1_1_unity_1_1_input_1_1_i_input_module.html" target="_top" xlink:title=" ">
<polygon fill="white" stroke="black" points="204,-821.5 204,-966.5 315,-966.5 315,-821.5 204,-821.5"/>
<text text-anchor="middle" x="259.5" y="-954.5" font-family="SegoeUI" font-size="10.00">IInputModule</text>
<polyline fill="none" stroke="black" points="204,-947.5 315,-947.5 "/>
<text text-anchor="start" x="212" y="-935.5" font-family="SegoeUI" font-size="10.00">+ AnyPointerDragging</text>
<polyline fill="none" stroke="black" points="204,-928.5 315,-928.5 "/>
<text text-anchor="start" x="212" y="-916.5" font-family="SegoeUI" font-size="10.00">+ AddPointer()</text>
<text text-anchor="start" x="212" y="-905.5" font-family="SegoeUI" font-size="10.00">+ Clone()</text>
<text text-anchor="start" x="212" y="-894.5" font-family="SegoeUI" font-size="10.00">+ EnableControllers()</text>
<text text-anchor="start" x="212" y="-883.5" font-family="SegoeUI" font-size="10.00">+ EnableGaze()</text>
<text text-anchor="start" x="212" y="-872.5" font-family="SegoeUI" font-size="10.00">+ EnableHands()</text>
<text text-anchor="start" x="212" y="-861.5" font-family="SegoeUI" font-size="10.00">+ EnableMouse()</text>
<text text-anchor="start" x="212" y="-850.5" font-family="SegoeUI" font-size="10.00">+ EnableTouch()</text>
<text text-anchor="start" x="212" y="-839.5" font-family="SegoeUI" font-size="10.00">+ MakePointer&lt; T &gt;()</text>
<text text-anchor="start" x="212" y="-828.5" font-family="SegoeUI" font-size="10.00">+ Process()</text>
</a>
</g>
</g>
<!-- Node5&#45;&gt;Node2 -->
<g id="edge5" class="edge"><title>Node5&#45;&gt;Node2</title>
<path fill="none" stroke="midnightblue" d="M236.844,-811.398C233.028,-797.651 228.891,-782.752 224.568,-767.18"/>
<polygon fill="none" stroke="midnightblue" points="233.518,-812.499 239.565,-821.198 240.262,-810.626 233.518,-812.499"/>
</g>
</g>
</svg>
        <g id="navigator" transform="translate(0 0)" fill="#404254">
                <rect fill="#f2f5e9" fill-opacity="0.5" stroke="#606060" stroke-width=".5" x="0" y="0" width="60" height="60"/>
                <use id="zoomplus" xlink:href="#zoomPlus" x="17" y="9" onmousedown="handleZoom(evt,'in')"/>
                <use id="zoomminus" xlink:href="#zoomMin" x="42" y="9" onmousedown="handleZoom(evt,'out')"/>
                <use id="reset" xlink:href="#resetDef" x="30" y="36" onmousedown="handleReset()"/>
                <g id="arrowUp" xlink:href="#dirArrow" transform="translate(30 24)" onmousedown="handlePan(0,-1)">
                  <use xlink:href="#rim" fill="#404040">
                        <set attributeName="fill" to="#808080" begin="arrowUp.mouseover" end="arrowUp.mouseout"/>
                  </use>
                  <path fill="none" stroke="white" stroke-width="1.5" d="M0,-3.0v7 M-2.5,-0.5L0,-3.0L2.5,-0.5"/>
                </g>
                <g id="arrowRight" xlink:href="#dirArrow" transform="rotate(90) translate(36 -43)" onmousedown="handlePan(1,0)">
                  <use xlink:href="#rim" fill="#404040">
                        <set attributeName="fill" to="#808080" begin="arrowRight.mouseover" end="arrowRight.mouseout"/>
                  </use>
                  <path fill="none" stroke="white" stroke-width="1.5" d="M0,-3.0v7 M-2.5,-0.5L0,-3.0L2.5,-0.5"/>
                </g>
                <g id="arrowDown" xlink:href="#dirArrow" transform="rotate(180) translate(-30 -48)" onmousedown="handlePan(0,1)">
                  <use xlink:href="#rim" fill="#404040">
                        <set attributeName="fill" to="#808080" begin="arrowDown.mouseover" end="arrowDown.mouseout"/>
                  </use>
                  <path fill="none" stroke="white" stroke-width="1.5" d="M0,-3.0v7 M-2.5,-0.5L0,-3.0L2.5,-0.5"/>
                </g>
                <g id="arrowLeft" xlink:href="#dirArrow" transform="rotate(270) translate(-36 17)" onmousedown="handlePan(-1,0)">
                  <use xlink:href="#rim" fill="#404040">
                        <set attributeName="fill" to="#808080" begin="arrowLeft.mouseover" end="arrowLeft.mouseout"/>
                  </use>
                  <path fill="none" stroke="white" stroke-width="1.5" d="M0,-3.0v7 M-2.5,-0.5L0,-3.0L2.5,-0.5"/>
                </g>
        </g>
        <svg viewBox="0 0 15 15" width="100%" height="30px" preserveAspectRatio="xMaxYMin meet">
         <g id="arrow_out" transform="scale(0.3 0.3)">
          <a xlink:href="class_juniper_1_1_unity_1_1_input_1_1_unified_input_module__inherit__graph_org.svg" target="_base">
           <rect id="button" ry="5" rx="5" y="6" x="6" height="38" width="38"
                fill="#f2f5e9" fill-opacity="0.5" stroke="#606060" stroke-width="1.0"/>
           <path id="arrow"
             d="M 11.500037,31.436501 C 11.940474,20.09759 22.043105,11.32322 32.158766,21.979434 L 37.068811,17.246167 C 37.068811,17.246167 37.088388,32 37.088388,32 L 22.160133,31.978069 C 22.160133,31.978069 26.997745,27.140456 26.997745,27.140456 C 18.528582,18.264221 13.291696,25.230495 11.500037,31.436501 z"
             style="fill:#404040;"/>
          </a>
         </g>
        </svg>
</svg>
