<?xml version="1.0" encoding="UTF-8" standalone="no"?>
<!DOCTYPE svg PUBLIC "-//W3C//DTD SVG 1.1//EN"
 "http://www.w3.org/Graphics/SVG/1.1/DTD/svg11.dtd">
<!-- Generated by graphviz version 2.38.0 (20140413.2041)
 -->
<!-- Title: Juniper.Anchoring.ARKitAnchorStore Pages: 1 -->
<svg width="228pt" height="552pt"
 viewBox="0.00 0.00 228.00 552.00" xmlns="http://www.w3.org/2000/svg" xmlns:xlink="http://www.w3.org/1999/xlink">
<g id="graph0" class="graph" transform="scale(1 1) rotate(0) translate(4 548)">
<title>Juniper.Anchoring.ARKitAnchorStore</title>
<polygon fill="white" stroke="none" points="-4,4 -4,-548 224,-548 224,4 -4,4"/>
<!-- Node4 -->
<g id="node1" class="node"><title>Node4</title>
<g id="a_node1"><a xlink:title=" ">
<polygon fill="#bfbfbf" stroke="black" points="5.5,-0.5 5.5,-145.5 154.5,-145.5 154.5,-0.5 5.5,-0.5"/>
<text text-anchor="start" x="13.5" y="-133.5" font-family="SegoeUI" font-size="10.00">Juniper.Anchoring.ARKitAnchor</text>
<text text-anchor="middle" x="80" y="-122.5" font-family="SegoeUI" font-size="10.00">Store</text>
<polyline fill="none" stroke="black" points="5.5,-115.5 154.5,-115.5 "/>
<text text-anchor="start" x="13.5" y="-103.5" font-family="SegoeUI" font-size="10.00">&#45; anchorStore</text>
<polyline fill="none" stroke="black" points="5.5,-96.5 154.5,-96.5 "/>
<text text-anchor="start" x="13.5" y="-84.5" font-family="SegoeUI" font-size="10.00">+ Awake()</text>
<text text-anchor="start" x="13.5" y="-73.5" font-family="SegoeUI" font-size="10.00">+ HasAnchor()</text>
<text text-anchor="start" x="13.5" y="-62.5" font-family="SegoeUI" font-size="10.00">+ ResetData()</text>
<text text-anchor="start" x="13.5" y="-51.5" font-family="SegoeUI" font-size="10.00"># FindAnchor()</text>
<text text-anchor="start" x="13.5" y="-40.5" font-family="SegoeUI" font-size="10.00"># LoadAnchor()</text>
<text text-anchor="start" x="13.5" y="-29.5" font-family="SegoeUI" font-size="10.00"># CreateAnchor()</text>
<text text-anchor="start" x="13.5" y="-18.5" font-family="SegoeUI" font-size="10.00"># SynchronizeAnchor()</text>
<text text-anchor="start" x="13.5" y="-7.5" font-family="SegoeUI" font-size="10.00"># DeleteAnchor()</text>
</a>
</g>
</g>
<!-- Node5 -->
<g id="node2" class="node"><title>Node5</title>
<g id="a_node2"><a xlink:href="../../da/daf/class_juniper_1_1_anchoring_1_1_abstract_anchor_store.html" target="_top" xlink:title="A store for points in space that the system will restore on second&#45;run. By default,...">
<polygon fill="white" stroke="black" points="22,-183.5 22,-427.5 138,-427.5 138,-183.5 22,-183.5"/>
<text text-anchor="start" x="30" y="-415.5" font-family="SegoeUI" font-size="10.00">AbstractAnchorStore</text>
<text text-anchor="middle" x="80" y="-404.5" font-family="SegoeUI" font-size="10.00">&lt; AnchorType &gt;</text>
<polyline fill="none" stroke="black" points="22,-397.5 138,-397.5 "/>
<text text-anchor="start" x="30" y="-385.5" font-family="SegoeUI" font-size="10.00">+ NameList</text>
<text text-anchor="start" x="30" y="-374.5" font-family="SegoeUI" font-size="10.00">&#45; KEY_LIST_KEY</text>
<polyline fill="none" stroke="black" points="22,-367.5 138,-367.5 "/>
<text text-anchor="start" x="30" y="-355.5" font-family="SegoeUI" font-size="10.00">+ ResetData()</text>
<text text-anchor="start" x="30" y="-344.5" font-family="SegoeUI" font-size="10.00">+ DropAnchor()</text>
<text text-anchor="start" x="30" y="-333.5" font-family="SegoeUI" font-size="10.00">+ WeighAnchor()</text>
<text text-anchor="start" x="30" y="-322.5" font-family="SegoeUI" font-size="10.00">+ HasAnchor()</text>
<text text-anchor="start" x="30" y="-311.5" font-family="SegoeUI" font-size="10.00"># SynchronizeAnchor()</text>
<text text-anchor="start" x="30" y="-300.5" font-family="SegoeUI" font-size="10.00"># IsGood()</text>
<text text-anchor="start" x="30" y="-289.5" font-family="SegoeUI" font-size="10.00"># DeleteAnchor()</text>
<text text-anchor="start" x="30" y="-278.5" font-family="SegoeUI" font-size="10.00"># FindAnchor()</text>
<text text-anchor="start" x="30" y="-267.5" font-family="SegoeUI" font-size="10.00"># IsSaved()</text>
<text text-anchor="start" x="30" y="-256.5" font-family="SegoeUI" font-size="10.00"># CreateAnchor()</text>
<text text-anchor="start" x="30" y="-245.5" font-family="SegoeUI" font-size="10.00"># LoadAnchor()</text>
<text text-anchor="start" x="30" y="-234.5" font-family="SegoeUI" font-size="10.00"># MakeID()</text>
<text text-anchor="start" x="30" y="-223.5" font-family="SegoeUI" font-size="10.00"># HasValue()</text>
<text text-anchor="start" x="30" y="-212.5" font-family="SegoeUI" font-size="10.00"># SaveValue&lt; T &gt;()</text>
<text text-anchor="start" x="30" y="-201.5" font-family="SegoeUI" font-size="10.00"># LoadValue&lt; T &gt;()</text>
<text text-anchor="start" x="30" y="-190.5" font-family="SegoeUI" font-size="10.00"># DeleteValue()</text>
</a>
</g>
</g>
<!-- Node5&#45;&gt;Node4 -->
<g id="edge1" class="edge"><title>Node5&#45;&gt;Node4</title>
<path fill="none" stroke="midnightblue" d="M80,-173.01C80,-163.683 80,-154.501 80,-145.715"/>
<polygon fill="none" stroke="midnightblue" points="76.5001,-173.175 80,-183.175 83.5001,-173.175 76.5001,-173.175"/>
</g>
<!-- Node6 -->
<g id="node3" class="node"><title>Node6</title>
<g id="a_node3"><a xlink:title=" ">
<polygon fill="white" stroke="#bfbfbf" points="0,-486.5 0,-543.5 82,-543.5 82,-486.5 0,-486.5"/>
<text text-anchor="middle" x="41" y="-531.5" font-family="SegoeUI" font-size="10.00">MonoBehaviour</text>
<polyline fill="none" stroke="#bfbfbf" points="0,-524.5 82,-524.5 "/>
<text text-anchor="middle" x="41" y="-512.5" font-family="SegoeUI" font-size="10.00"> </text>
<polyline fill="none" stroke="#bfbfbf" points="0,-505.5 82,-505.5 "/>
<text text-anchor="middle" x="41" y="-493.5" font-family="SegoeUI" font-size="10.00"> </text>
</a>
</g>
</g>
<!-- Node6&#45;&gt;Node5 -->
<g id="edge2" class="edge"><title>Node6&#45;&gt;Node5</title>
<path fill="none" stroke="midnightblue" d="M48.0996,-476.226C50.7534,-462.107 53.9308,-445.201 57.2371,-427.611"/>
<polygon fill="none" stroke="midnightblue" points="44.5864,-475.971 46.1789,-486.446 51.4659,-477.264 44.5864,-475.971"/>
</g>
<!-- Node7 -->
<g id="node4" class="node"><title>Node7</title>
<g id="a_node4"><a xlink:title=" ">
<polygon fill="white" stroke="#bfbfbf" points="100.5,-486.5 100.5,-543.5 139.5,-543.5 139.5,-486.5 100.5,-486.5"/>
<text text-anchor="middle" x="120" y="-531.5" font-family="SegoeUI" font-size="10.00">static</text>
<polyline fill="none" stroke="#bfbfbf" points="100.5,-524.5 139.5,-524.5 "/>
<text text-anchor="middle" x="120" y="-512.5" font-family="SegoeUI" font-size="10.00"> </text>
<polyline fill="none" stroke="#bfbfbf" points="100.5,-505.5 139.5,-505.5 "/>
<text text-anchor="middle" x="120" y="-493.5" font-family="SegoeUI" font-size="10.00"> </text>
</a>
</g>
</g>
<!-- Node7&#45;&gt;Node5 -->
<g id="edge3" class="edge"><title>Node7&#45;&gt;Node5</title>
<path fill="none" stroke="#404040" d="M114.688,-486.446C112.207,-473.575 109.054,-457.218 105.664,-439.634"/>
<polygon fill="none" stroke="#404040" points="105.618,-439.394 100.555,-434.259 103.347,-427.611 108.41,-432.745 105.618,-439.394"/>
<text text-anchor="middle" x="165.5" y="-460" font-family="SegoeUI" font-size="10.00"> &#45;EMPTY_STRING_ARRAY</text>
<text text-anchor="middle" x="165.5" y="-449" font-family="SegoeUI" font-size="10.00">&#45;ID_PREFIX</text>
</g>
</g>
</svg>
