<?xml version="1.0" encoding="UTF-8" standalone="no"?>
<!DOCTYPE svg PUBLIC "-//W3C//DTD SVG 1.1//EN"
 "http://www.w3.org/Graphics/SVG/1.1/DTD/svg11.dtd">
<!-- Generated by graphviz version 2.38.0 (20140413.2041)
 -->
<!-- Title: Juniper.ConfigurationManagement.JuniperPackage Pages: 1 -->
<!--zoomable 1025 -->
<svg id="main" version="1.1" xmlns="http://www.w3.org/2000/svg" xmlns:xlink="http://www.w3.org/1999/xlink" xml:space="preserve" onload="init(evt)">
<style type="text/css"><![CDATA[
.edge:hover path { stroke: red; }
.edge:hover polygon { stroke: red; fill: red; }
]]></style>
<script type="text/javascript"><![CDATA[
var edges = document.getElementsByTagName('g');
if (edges && edges.length) {
  for (var i=0;i<edges.length;i++) {
    if (edges[i].id.substr(0,4)=='edge') {
      edges[i].setAttribute('class','edge');
    }
  }
}
]]></script>
        <defs>
                <circle id="rim" cx="0" cy="0" r="7"/>
                <circle id="rim2" cx="0" cy="0" r="3.5"/>
                <g id="zoomPlus">
                        <use xlink:href="#rim" fill="#404040">
                                <set attributeName="fill" to="#808080" begin="zoomplus.mouseover" end="zoomplus.mouseout"/>
                        </use>
                        <path d="M-4,0h8M0,-4v8" fill="none" stroke="white" stroke-width="1.5" pointer-events="none"/>
                </g>
                <g id="zoomMin">
                        <use xlink:href="#rim" fill="#404040">
                                <set attributeName="fill" to="#808080" begin="zoomminus.mouseover" end="zoomminus.mouseout"/>
                        </use>
                        <path d="M-4,0h8" fill="none" stroke="white" stroke-width="1.5" pointer-events="none"/>
                </g>
                <g id="dirArrow">
                        <path fill="none" stroke="white" stroke-width="1.5" d="M0,-3.0v7 M-2.5,-0.5L0,-3.0L2.5,-0.5"/>
                </g>
               <g id="resetDef">
                       <use xlink:href="#rim2" fill="#404040">
                               <set attributeName="fill" to="#808080" begin="reset.mouseover" end="reset.mouseout"/>
                       </use>
               </g>
        </defs>

<script type="text/javascript">
var viewWidth = 356;
var viewHeight = 1025;
var sectionId = 'dynsection-0';
</script>
<script xlink:href="../../svgpan.js"/>
<svg id="graph" class="graph">
<g id="viewport">
<title>Juniper.ConfigurationManagement.JuniperPackage</title>
<polygon fill="white" stroke="none" points="-4,4 -4,-1021 352,-1021 352,4 -4,4"/>
<!-- Node0 -->
<g id="node1" class="node"><title>Node0</title>
<g id="a_node1"><a xlink:title=" ">
<polygon fill="#bfbfbf" stroke="black" points="88,-0.5 88,-112.5 254,-112.5 254,-0.5 88,-0.5"/>
<text text-anchor="start" x="96" y="-100.5" font-family="SegoeUI" font-size="10.00">Juniper.ConfigurationManagement.</text>
<text text-anchor="middle" x="171" y="-89.5" font-family="SegoeUI" font-size="10.00">JuniperPackage</text>
<polyline fill="none" stroke="black" points="88,-82.5 254,-82.5 "/>
<text text-anchor="start" x="96" y="-70.5" font-family="SegoeUI" font-size="10.00"># InstallDirectory</text>
<polyline fill="none" stroke="black" points="88,-63.5 254,-63.5 "/>
<text text-anchor="start" x="96" y="-51.5" font-family="SegoeUI" font-size="10.00">+ JuniperPackage()</text>
<text text-anchor="start" x="96" y="-40.5" font-family="SegoeUI" font-size="10.00">+ Install()</text>
<text text-anchor="start" x="96" y="-29.5" font-family="SegoeUI" font-size="10.00">+ Activate()</text>
<text text-anchor="start" x="96" y="-18.5" font-family="SegoeUI" font-size="10.00">+ Load()</text>
<text text-anchor="start" x="96" y="-7.5" font-family="SegoeUI" font-size="10.00"># GetContentFiles()</text>
</a>
</g>
</g>
<!-- Node1 -->
<g id="node2" class="node"><title>Node1</title>
<g id="a_node2"><a xlink:href="../../d2/daa/class_juniper_1_1_configuration_management_1_1_abstract_compressed_package.html" target="_top" xlink:title=" ">
<polygon fill="white" stroke="black" points="87.5,-149.5 87.5,-360.5 254.5,-360.5 254.5,-149.5 87.5,-149.5"/>
<text text-anchor="middle" x="171" y="-348.5" font-family="SegoeUI" font-size="10.00">AbstractCompressedPackage</text>
<polyline fill="none" stroke="black" points="87.5,-341.5 254.5,-341.5 "/>
<text text-anchor="start" x="95.5" y="-329.5" font-family="SegoeUI" font-size="10.00">+ Available</text>
<text text-anchor="start" x="95.5" y="-318.5" font-family="SegoeUI" font-size="10.00">+ Cached</text>
<text text-anchor="start" x="95.5" y="-307.5" font-family="SegoeUI" font-size="10.00">+ IsInstalled</text>
<text text-anchor="start" x="95.5" y="-296.5" font-family="SegoeUI" font-size="10.00">+ CanUpdate</text>
<text text-anchor="start" x="95.5" y="-285.5" font-family="SegoeUI" font-size="10.00">+ CompilerDefineSymbols</text>
<text text-anchor="start" x="95.5" y="-274.5" font-family="SegoeUI" font-size="10.00">+ InstallPercentage</text>
<text text-anchor="start" x="95.5" y="-263.5" font-family="SegoeUI" font-size="10.00">+ InstallDirectory</text>
<text text-anchor="start" x="95.5" y="-252.5" font-family="SegoeUI" font-size="10.00">&#45; scanningTask</text>
<text text-anchor="start" x="95.5" y="-241.5" font-family="SegoeUI" font-size="10.00">&#45; installPercent</text>
<text text-anchor="start" x="95.5" y="-230.5" font-family="SegoeUI" font-size="10.00">&#45; compilerDefines</text>
<text text-anchor="start" x="95.5" y="-219.5" font-family="SegoeUI" font-size="10.00">&#45; NameNormalizer</text>
<text text-anchor="start" x="95.5" y="-208.5" font-family="SegoeUI" font-size="10.00">&#45; SpaceNormalizer</text>
<polyline fill="none" stroke="black" points="87.5,-201.5 254.5,-201.5 "/>
<text text-anchor="start" x="95.5" y="-189.5" font-family="SegoeUI" font-size="10.00"># AbstractCompressedPackage??()</text>
<text text-anchor="start" x="95.5" y="-178.5" font-family="SegoeUI" font-size="10.00"># GetContentFiles()</text>
<text text-anchor="start" x="95.5" y="-167.5" font-family="SegoeUI" font-size="10.00">&#45; Scan()</text>
<text text-anchor="start" x="95.5" y="-156.5" font-family="SegoeUI" font-size="10.00">&#45; GetCompilerDefineSymbol()</text>
</a>
</g>
</g>
<!-- Node1&#45;&gt;Node0 -->
<g id="edge1" class="edge"><title>Node1&#45;&gt;Node0</title>
<path fill="none" stroke="midnightblue" d="M171,-139.388C171,-130.198 171,-121.204 171,-112.741"/>
<polygon fill="none" stroke="midnightblue" points="167.5,-139.421 171,-149.421 174.5,-139.421 167.5,-139.421"/>
</g>
<!-- Node2 -->
<g id="node3" class="node"><title>Node2</title>
<g id="a_node3"><a xlink:href="../../dc/d6b/class_juniper_1_1_configuration_management_1_1_abstract_package.html" target="_top" xlink:title=" ">
<polygon fill="white" stroke="black" points="116,-397.5 116,-608.5 226,-608.5 226,-397.5 116,-397.5"/>
<text text-anchor="middle" x="171" y="-596.5" font-family="SegoeUI" font-size="10.00">AbstractPackage</text>
<polyline fill="none" stroke="black" points="116,-589.5 226,-589.5 "/>
<text text-anchor="start" x="124" y="-577.5" font-family="SegoeUI" font-size="10.00">+ Name</text>
<text text-anchor="start" x="124" y="-566.5" font-family="SegoeUI" font-size="10.00">+ ContentPath</text>
<text text-anchor="start" x="124" y="-555.5" font-family="SegoeUI" font-size="10.00">+ CompilerDefine</text>
<text text-anchor="start" x="124" y="-544.5" font-family="SegoeUI" font-size="10.00">+ Available</text>
<text text-anchor="start" x="124" y="-533.5" font-family="SegoeUI" font-size="10.00">+ Cached</text>
<text text-anchor="start" x="124" y="-522.5" font-family="SegoeUI" font-size="10.00">+ InstallPercentage</text>
<text text-anchor="start" x="124" y="-511.5" font-family="SegoeUI" font-size="10.00">+ IsInstalled</text>
<text text-anchor="start" x="124" y="-500.5" font-family="SegoeUI" font-size="10.00">+ CanUpdate</text>
<text text-anchor="start" x="124" y="-489.5" font-family="SegoeUI" font-size="10.00">&#45; packageDB</text>
<polyline fill="none" stroke="black" points="116,-482.5 226,-482.5 "/>
<text text-anchor="start" x="124" y="-470.5" font-family="SegoeUI" font-size="10.00">+ ToString()</text>
<text text-anchor="start" x="124" y="-459.5" font-family="SegoeUI" font-size="10.00">+ Install()</text>
<text text-anchor="start" x="124" y="-448.5" font-family="SegoeUI" font-size="10.00">+ GetHashCode()</text>
<text text-anchor="start" x="124" y="-437.5" font-family="SegoeUI" font-size="10.00">+ Activate()</text>
<text text-anchor="start" x="124" y="-426.5" font-family="SegoeUI" font-size="10.00">+ Load()</text>
<text text-anchor="start" x="124" y="-415.5" font-family="SegoeUI" font-size="10.00"># AbstractPackage()</text>
<text text-anchor="start" x="124" y="-404.5" font-family="SegoeUI" font-size="10.00">&#45; MakePackageSpec()</text>
</a>
</g>
</g>
<!-- Node2&#45;&gt;Node1 -->
<g id="edge2" class="edge"><title>Node2&#45;&gt;Node1</title>
<path fill="none" stroke="midnightblue" d="M171,-387.296C171,-378.389 171,-369.424 171,-360.589"/>
<polygon fill="none" stroke="midnightblue" points="167.5,-387.317 171,-397.317 174.5,-387.317 167.5,-387.317"/>
</g>
<!-- Node3 -->
<g id="node4" class="node"><title>Node3</title>
<g id="a_node4"><a xlink:href="../../dd/d4b/class_juniper_1_1_configuration_management_1_1_package_reference.html" target="_top" xlink:title=" ">
<polygon fill="white" stroke="black" points="81.5,-645.5 81.5,-922.5 260.5,-922.5 260.5,-645.5 81.5,-645.5"/>
<text text-anchor="middle" x="171" y="-910.5" font-family="SegoeUI" font-size="10.00">PackageReference</text>
<polyline fill="none" stroke="black" points="81.5,-903.5 260.5,-903.5 "/>
<text text-anchor="start" x="89.5" y="-891.5" font-family="SegoeUI" font-size="10.00">+ Name</text>
<text text-anchor="start" x="89.5" y="-880.5" font-family="SegoeUI" font-size="10.00">+ ForRemoval</text>
<text text-anchor="start" x="89.5" y="-869.5" font-family="SegoeUI" font-size="10.00">+ Source</text>
<text text-anchor="start" x="89.5" y="-858.5" font-family="SegoeUI" font-size="10.00">+ PackageID</text>
<text text-anchor="start" x="89.5" y="-847.5" font-family="SegoeUI" font-size="10.00">+ VersionSpec</text>
<text text-anchor="start" x="89.5" y="-836.5" font-family="SegoeUI" font-size="10.00">+ Version</text>
<text text-anchor="start" x="89.5" y="-825.5" font-family="SegoeUI" font-size="10.00">+ PackageSpec</text>
<polyline fill="none" stroke="black" points="81.5,-818.5 260.5,-818.5 "/>
<text text-anchor="start" x="89.5" y="-806.5" font-family="SegoeUI" font-size="10.00">+ PackageReference()</text>
<text text-anchor="start" x="89.5" y="-795.5" font-family="SegoeUI" font-size="10.00">+ Equals()</text>
<text text-anchor="start" x="89.5" y="-784.5" font-family="SegoeUI" font-size="10.00">+ Equals()</text>
<text text-anchor="start" x="89.5" y="-773.5" font-family="SegoeUI" font-size="10.00">+ GetHashCode()</text>
<text text-anchor="start" x="89.5" y="-762.5" font-family="SegoeUI" font-size="10.00">+ ToString()</text>
<text text-anchor="start" x="89.5" y="-751.5" font-family="SegoeUI" font-size="10.00">+ CompareTo()</text>
<text text-anchor="start" x="89.5" y="-740.5" font-family="SegoeUI" font-size="10.00">+ FormatUnityPackageManagerSpec()</text>
<text text-anchor="start" x="89.5" y="-729.5" font-family="SegoeUI" font-size="10.00">+ operator==()</text>
<text text-anchor="start" x="89.5" y="-718.5" font-family="SegoeUI" font-size="10.00">+ operator !=()</text>
<text text-anchor="start" x="89.5" y="-707.5" font-family="SegoeUI" font-size="10.00">+ operator&lt;()</text>
<text text-anchor="start" x="89.5" y="-696.5" font-family="SegoeUI" font-size="10.00">+ operator&lt;=()</text>
<text text-anchor="start" x="89.5" y="-685.5" font-family="SegoeUI" font-size="10.00">+ operator &gt;()</text>
<text text-anchor="start" x="89.5" y="-674.5" font-family="SegoeUI" font-size="10.00">+ operator &gt;=()</text>
<text text-anchor="start" x="89.5" y="-663.5" font-family="SegoeUI" font-size="10.00"># PackageReference()</text>
<text text-anchor="start" x="89.5" y="-652.5" font-family="SegoeUI" font-size="10.00">&#45; InferSource()</text>
</a>
</g>
</g>
<!-- Node3&#45;&gt;Node2 -->
<g id="edge3" class="edge"><title>Node3&#45;&gt;Node2</title>
<path fill="none" stroke="midnightblue" d="M171,-635.116C171,-626.252 171,-617.433 171,-608.804"/>
<polygon fill="none" stroke="midnightblue" points="167.5,-635.135 171,-645.135 174.5,-635.135 167.5,-635.135"/>
</g>
<!-- Node4 -->
<g id="node5" class="node"><title>Node4</title>
<g id="a_node5"><a xlink:title=" ">
<polygon fill="white" stroke="#bfbfbf" points="0,-959.5 0,-1016.5 160,-1016.5 160,-959.5 0,-959.5"/>
<text text-anchor="middle" x="80" y="-1004.5" font-family="SegoeUI" font-size="10.00">IEquatable&lt; PackageReference &gt;</text>
<polyline fill="none" stroke="#bfbfbf" points="0,-997.5 160,-997.5 "/>
<text text-anchor="middle" x="80" y="-985.5" font-family="SegoeUI" font-size="10.00"> </text>
<polyline fill="none" stroke="#bfbfbf" points="0,-978.5 160,-978.5 "/>
<text text-anchor="middle" x="80" y="-966.5" font-family="SegoeUI" font-size="10.00"> </text>
</a>
</g>
</g>
<!-- Node4&#45;&gt;Node3 -->
<g id="edge4" class="edge"><title>Node4&#45;&gt;Node3</title>
<path fill="none" stroke="midnightblue" d="M96.6325,-950.08C100.368,-941.787 104.546,-932.513 108.965,-922.704"/>
<polygon fill="none" stroke="midnightblue" points="93.3787,-948.781 92.4624,-959.336 99.761,-951.656 93.3787,-948.781"/>
</g>
<!-- Node5 -->
<g id="node6" class="node"><title>Node5</title>
<g id="a_node6"><a xlink:title=" ">
<polygon fill="white" stroke="#bfbfbf" points="178,-959.5 178,-1016.5 348,-1016.5 348,-959.5 178,-959.5"/>
<text text-anchor="middle" x="263" y="-1004.5" font-family="SegoeUI" font-size="10.00">IComparable&lt; PackageReference &gt;</text>
<polyline fill="none" stroke="#bfbfbf" points="178,-997.5 348,-997.5 "/>
<text text-anchor="middle" x="263" y="-985.5" font-family="SegoeUI" font-size="10.00"> </text>
<polyline fill="none" stroke="#bfbfbf" points="178,-978.5 348,-978.5 "/>
<text text-anchor="middle" x="263" y="-966.5" font-family="SegoeUI" font-size="10.00"> </text>
</a>
</g>
</g>
<!-- Node5&#45;&gt;Node3 -->
<g id="edge5" class="edge"><title>Node5&#45;&gt;Node3</title>
<path fill="none" stroke="midnightblue" d="M246.185,-950.08C242.408,-941.787 238.184,-932.513 233.717,-922.704"/>
<polygon fill="none" stroke="midnightblue" points="243.071,-951.686 250.401,-959.336 249.441,-948.785 243.071,-951.686"/>
</g>
</g>
</svg>
        <g id="navigator" transform="translate(0 0)" fill="#404254">
                <rect fill="#f2f5e9" fill-opacity="0.5" stroke="#606060" stroke-width=".5" x="0" y="0" width="60" height="60"/>
                <use id="zoomplus" xlink:href="#zoomPlus" x="17" y="9" onmousedown="handleZoom(evt,'in')"/>
                <use id="zoomminus" xlink:href="#zoomMin" x="42" y="9" onmousedown="handleZoom(evt,'out')"/>
                <use id="reset" xlink:href="#resetDef" x="30" y="36" onmousedown="handleReset()"/>
                <g id="arrowUp" xlink:href="#dirArrow" transform="translate(30 24)" onmousedown="handlePan(0,-1)">
                  <use xlink:href="#rim" fill="#404040">
                        <set attributeName="fill" to="#808080" begin="arrowUp.mouseover" end="arrowUp.mouseout"/>
                  </use>
                  <path fill="none" stroke="white" stroke-width="1.5" d="M0,-3.0v7 M-2.5,-0.5L0,-3.0L2.5,-0.5"/>
                </g>
                <g id="arrowRight" xlink:href="#dirArrow" transform="rotate(90) translate(36 -43)" onmousedown="handlePan(1,0)">
                  <use xlink:href="#rim" fill="#404040">
                        <set attributeName="fill" to="#808080" begin="arrowRight.mouseover" end="arrowRight.mouseout"/>
                  </use>
                  <path fill="none" stroke="white" stroke-width="1.5" d="M0,-3.0v7 M-2.5,-0.5L0,-3.0L2.5,-0.5"/>
                </g>
                <g id="arrowDown" xlink:href="#dirArrow" transform="rotate(180) translate(-30 -48)" onmousedown="handlePan(0,1)">
                  <use xlink:href="#rim" fill="#404040">
                        <set attributeName="fill" to="#808080" begin="arrowDown.mouseover" end="arrowDown.mouseout"/>
                  </use>
                  <path fill="none" stroke="white" stroke-width="1.5" d="M0,-3.0v7 M-2.5,-0.5L0,-3.0L2.5,-0.5"/>
                </g>
                <g id="arrowLeft" xlink:href="#dirArrow" transform="rotate(270) translate(-36 17)" onmousedown="handlePan(-1,0)">
                  <use xlink:href="#rim" fill="#404040">
                        <set attributeName="fill" to="#808080" begin="arrowLeft.mouseover" end="arrowLeft.mouseout"/>
                  </use>
                  <path fill="none" stroke="white" stroke-width="1.5" d="M0,-3.0v7 M-2.5,-0.5L0,-3.0L2.5,-0.5"/>
                </g>
        </g>
        <svg viewBox="0 0 15 15" width="100%" height="30px" preserveAspectRatio="xMaxYMin meet">
         <g id="arrow_out" transform="scale(0.3 0.3)">
          <a xlink:href="class_juniper_1_1_configuration_management_1_1_juniper_package__inherit__graph_org.svg" target="_base">
           <rect id="button" ry="5" rx="5" y="6" x="6" height="38" width="38"
                fill="#f2f5e9" fill-opacity="0.5" stroke="#606060" stroke-width="1.0"/>
           <path id="arrow"
             d="M 11.500037,31.436501 C 11.940474,20.09759 22.043105,11.32322 32.158766,21.979434 L 37.068811,17.246167 C 37.068811,17.246167 37.088388,32 37.088388,32 L 22.160133,31.978069 C 22.160133,31.978069 26.997745,27.140456 26.997745,27.140456 C 18.528582,18.264221 13.291696,25.230495 11.500037,31.436501 z"
             style="fill:#404040;"/>
          </a>
         </g>
        </svg>
</svg>
