<?xml version="1.0" encoding="UTF-8" standalone="no"?>
<!DOCTYPE svg PUBLIC "-//W3C//DTD SVG 1.1//EN"
 "http://www.w3.org/Graphics/SVG/1.1/DTD/svg11.dtd">
<!-- Generated by graphviz version 2.38.0 (20140413.2041)
 -->
<!-- Title: Juniper.ConfigurationManagement.AbstractPackage Pages: 1 -->
<svg width="357pt" height="640pt"
 viewBox="0.00 0.00 357.00 640.00" xmlns="http://www.w3.org/2000/svg" xmlns:xlink="http://www.w3.org/1999/xlink">
<g id="graph0" class="graph" transform="scale(1 1) rotate(0) translate(4 636)">
<title>Juniper.ConfigurationManagement.AbstractPackage</title>
<polygon fill="white" stroke="none" points="-4,4 -4,-636 353,-636 353,4 -4,4"/>
<!-- Node8 -->
<g id="node1" class="node"><title>Node8</title>
<g id="a_node1"><a xlink:title=" ">
<polygon fill="#bfbfbf" stroke="black" points="183,-0.5 183,-211.5 349,-211.5 349,-0.5 183,-0.5"/>
<text text-anchor="start" x="191" y="-199.5" font-family="SegoeUI" font-size="10.00">Juniper.ConfigurationManagement.</text>
<text text-anchor="middle" x="266" y="-188.5" font-family="SegoeUI" font-size="10.00">AbstractPackage</text>
<polyline fill="none" stroke="black" points="183,-181.5 349,-181.5 "/>
<text text-anchor="start" x="191" y="-169.5" font-family="SegoeUI" font-size="10.00">+ Name</text>
<text text-anchor="start" x="191" y="-158.5" font-family="SegoeUI" font-size="10.00">+ ContentPath</text>
<text text-anchor="start" x="191" y="-147.5" font-family="SegoeUI" font-size="10.00">+ CompilerDefine</text>
<text text-anchor="start" x="191" y="-136.5" font-family="SegoeUI" font-size="10.00">+ Available</text>
<text text-anchor="start" x="191" y="-125.5" font-family="SegoeUI" font-size="10.00">+ Cached</text>
<text text-anchor="start" x="191" y="-114.5" font-family="SegoeUI" font-size="10.00">+ InstallPercentage</text>
<text text-anchor="start" x="191" y="-103.5" font-family="SegoeUI" font-size="10.00">+ IsInstalled</text>
<text text-anchor="start" x="191" y="-92.5" font-family="SegoeUI" font-size="10.00">+ CanUpdate</text>
<polyline fill="none" stroke="black" points="183,-85.5 349,-85.5 "/>
<text text-anchor="start" x="191" y="-73.5" font-family="SegoeUI" font-size="10.00">+ ToString()</text>
<text text-anchor="start" x="191" y="-62.5" font-family="SegoeUI" font-size="10.00">+ Install()</text>
<text text-anchor="start" x="191" y="-51.5" font-family="SegoeUI" font-size="10.00">+ GetHashCode()</text>
<text text-anchor="start" x="191" y="-40.5" font-family="SegoeUI" font-size="10.00">+ Activate()</text>
<text text-anchor="start" x="191" y="-29.5" font-family="SegoeUI" font-size="10.00">+ Load()</text>
<text text-anchor="start" x="191" y="-18.5" font-family="SegoeUI" font-size="10.00"># AbstractPackage()</text>
<text text-anchor="start" x="191" y="-7.5" font-family="SegoeUI" font-size="10.00">&#45; MakePackageSpec()</text>
</a>
</g>
</g>
<!-- Node9 -->
<g id="node2" class="node"><title>Node9</title>
<g id="a_node2"><a xlink:href="../../dd/d4b/class_juniper_1_1_configuration_management_1_1_package_reference.html" target="_top" xlink:title=" ">
<polygon fill="white" stroke="black" points="81.5,-259.5 81.5,-536.5 260.5,-536.5 260.5,-259.5 81.5,-259.5"/>
<text text-anchor="middle" x="171" y="-524.5" font-family="SegoeUI" font-size="10.00">PackageReference</text>
<polyline fill="none" stroke="black" points="81.5,-517.5 260.5,-517.5 "/>
<text text-anchor="start" x="89.5" y="-505.5" font-family="SegoeUI" font-size="10.00">+ Name</text>
<text text-anchor="start" x="89.5" y="-494.5" font-family="SegoeUI" font-size="10.00">+ ForRemoval</text>
<text text-anchor="start" x="89.5" y="-483.5" font-family="SegoeUI" font-size="10.00">+ Source</text>
<text text-anchor="start" x="89.5" y="-472.5" font-family="SegoeUI" font-size="10.00">+ PackageID</text>
<text text-anchor="start" x="89.5" y="-461.5" font-family="SegoeUI" font-size="10.00">+ VersionSpec</text>
<text text-anchor="start" x="89.5" y="-450.5" font-family="SegoeUI" font-size="10.00">+ Version</text>
<text text-anchor="start" x="89.5" y="-439.5" font-family="SegoeUI" font-size="10.00">+ PackageSpec</text>
<polyline fill="none" stroke="black" points="81.5,-432.5 260.5,-432.5 "/>
<text text-anchor="start" x="89.5" y="-420.5" font-family="SegoeUI" font-size="10.00">+ PackageReference()</text>
<text text-anchor="start" x="89.5" y="-409.5" font-family="SegoeUI" font-size="10.00">+ Equals()</text>
<text text-anchor="start" x="89.5" y="-398.5" font-family="SegoeUI" font-size="10.00">+ Equals()</text>
<text text-anchor="start" x="89.5" y="-387.5" font-family="SegoeUI" font-size="10.00">+ GetHashCode()</text>
<text text-anchor="start" x="89.5" y="-376.5" font-family="SegoeUI" font-size="10.00">+ ToString()</text>
<text text-anchor="start" x="89.5" y="-365.5" font-family="SegoeUI" font-size="10.00">+ CompareTo()</text>
<text text-anchor="start" x="89.5" y="-354.5" font-family="SegoeUI" font-size="10.00">+ FormatUnityPackageManagerSpec()</text>
<text text-anchor="start" x="89.5" y="-343.5" font-family="SegoeUI" font-size="10.00">+ operator==()</text>
<text text-anchor="start" x="89.5" y="-332.5" font-family="SegoeUI" font-size="10.00">+ operator !=()</text>
<text text-anchor="start" x="89.5" y="-321.5" font-family="SegoeUI" font-size="10.00">+ operator&lt;()</text>
<text text-anchor="start" x="89.5" y="-310.5" font-family="SegoeUI" font-size="10.00">+ operator&lt;=()</text>
<text text-anchor="start" x="89.5" y="-299.5" font-family="SegoeUI" font-size="10.00">+ operator &gt;()</text>
<text text-anchor="start" x="89.5" y="-288.5" font-family="SegoeUI" font-size="10.00">+ operator &gt;=()</text>
<text text-anchor="start" x="89.5" y="-277.5" font-family="SegoeUI" font-size="10.00"># PackageReference()</text>
<text text-anchor="start" x="89.5" y="-266.5" font-family="SegoeUI" font-size="10.00">&#45; InferSource()</text>
</a>
</g>
</g>
<!-- Node9&#45;&gt;Node8 -->
<g id="edge1" class="edge"><title>Node9&#45;&gt;Node8</title>
<path fill="none" stroke="midnightblue" d="M219.318,-249.504C223.48,-236.798 227.634,-224.117 231.652,-211.853"/>
<polygon fill="none" stroke="midnightblue" points="215.922,-248.626 216.135,-259.219 222.574,-250.806 215.922,-248.626"/>
</g>
<!-- Node10 -->
<g id="node3" class="node"><title>Node10</title>
<g id="a_node3"><a xlink:title=" ">
<polygon fill="white" stroke="#bfbfbf" points="0,-574.5 0,-631.5 160,-631.5 160,-574.5 0,-574.5"/>
<text text-anchor="middle" x="80" y="-619.5" font-family="SegoeUI" font-size="10.00">IEquatable&lt; PackageReference &gt;</text>
<polyline fill="none" stroke="#bfbfbf" points="0,-612.5 160,-612.5 "/>
<text text-anchor="middle" x="80" y="-600.5" font-family="SegoeUI" font-size="10.00"> </text>
<polyline fill="none" stroke="#bfbfbf" points="0,-593.5 160,-593.5 "/>
<text text-anchor="middle" x="80" y="-581.5" font-family="SegoeUI" font-size="10.00"> </text>
</a>
</g>
</g>
<!-- Node10&#45;&gt;Node9 -->
<g id="edge2" class="edge"><title>Node10&#45;&gt;Node9</title>
<path fill="none" stroke="midnightblue" d="M96.5995,-564.97C100.452,-556.377 104.776,-546.731 109.35,-536.527"/>
<polygon fill="none" stroke="midnightblue" points="93.3592,-563.643 92.4624,-574.199 99.7468,-566.506 93.3592,-563.643"/>
</g>
<!-- Node11 -->
<g id="node4" class="node"><title>Node11</title>
<g id="a_node4"><a xlink:title=" ">
<polygon fill="white" stroke="#bfbfbf" points="178,-574.5 178,-631.5 348,-631.5 348,-574.5 178,-574.5"/>
<text text-anchor="middle" x="263" y="-619.5" font-family="SegoeUI" font-size="10.00">IComparable&lt; PackageReference &gt;</text>
<polyline fill="none" stroke="#bfbfbf" points="178,-612.5 348,-612.5 "/>
<text text-anchor="middle" x="263" y="-600.5" font-family="SegoeUI" font-size="10.00"> </text>
<polyline fill="none" stroke="#bfbfbf" points="178,-593.5 348,-593.5 "/>
<text text-anchor="middle" x="263" y="-581.5" font-family="SegoeUI" font-size="10.00"> </text>
</a>
</g>
</g>
<!-- Node11&#45;&gt;Node9 -->
<g id="edge3" class="edge"><title>Node11&#45;&gt;Node9</title>
<path fill="none" stroke="midnightblue" d="M246.218,-564.97C242.323,-556.377 237.952,-546.731 233.328,-536.527"/>
<polygon fill="none" stroke="midnightblue" points="243.085,-566.536 250.401,-574.199 249.461,-563.646 243.085,-566.536"/>
</g>
<!-- Node12 -->
<g id="node5" class="node"><title>Node12</title>
<g id="a_node5"><a xlink:title=" ">
<polygon fill="white" stroke="#bfbfbf" points="278.5,-369.5 278.5,-426.5 317.5,-426.5 317.5,-369.5 278.5,-369.5"/>
<text text-anchor="middle" x="298" y="-414.5" font-family="SegoeUI" font-size="10.00">static</text>
<polyline fill="none" stroke="#bfbfbf" points="278.5,-407.5 317.5,-407.5 "/>
<text text-anchor="middle" x="298" y="-395.5" font-family="SegoeUI" font-size="10.00"> </text>
<polyline fill="none" stroke="#bfbfbf" points="278.5,-388.5 317.5,-388.5 "/>
<text text-anchor="middle" x="298" y="-376.5" font-family="SegoeUI" font-size="10.00"> </text>
</a>
</g>
</g>
<!-- Node12&#45;&gt;Node8 -->
<g id="edge4" class="edge"><title>Node12&#45;&gt;Node8</title>
<path fill="none" stroke="#404040" d="M294.961,-369.456C291.262,-335.938 284.78,-277.19 278.884,-223.763"/>
<polygon fill="none" stroke="#404040" points="278.874,-223.673 274.24,-218.148 277.558,-211.745 282.192,-217.271 278.874,-223.673"/>
<text text-anchor="middle" x="307" y="-233" font-family="SegoeUI" font-size="10.00"> &#45;packageDB</text>
</g>
</g>
</svg>
