<?xml version="1.0" encoding="UTF-8" standalone="no"?>
<!DOCTYPE svg PUBLIC "-//W3C//DTD SVG 1.1//EN"
 "http://www.w3.org/Graphics/SVG/1.1/DTD/svg11.dtd">
<!-- Generated by graphviz version 2.38.0 (20140413.2041)
 -->
<!-- Title: Juniper.Unity.Input.Pointers.Motion.ViveFocusProbeConfiguration Pages: 1 -->
<svg width="181pt" height="182pt"
 viewBox="0.00 0.00 181.00 182.00" xmlns="http://www.w3.org/2000/svg" xmlns:xlink="http://www.w3.org/1999/xlink">
<g id="graph0" class="graph" transform="scale(1 1) rotate(0) translate(4 178)">
<title>Juniper.Unity.Input.Pointers.Motion.ViveFocusProbeConfiguration</title>
<polygon fill="white" stroke="none" points="-4,4 -4,-178 177,-178 177,4 -4,4"/>
<!-- Node0 -->
<g id="node1" class="node"><title>Node0</title>
<g id="a_node1"><a xlink:title=" ">
<polygon fill="#bfbfbf" stroke="black" points="0,-0.5 0,-68.5 173,-68.5 173,-0.5 0,-0.5"/>
<text text-anchor="start" x="8" y="-56.5" font-family="SegoeUI" font-size="10.00">Juniper.Unity.Input.Pointers.</text>
<text text-anchor="middle" x="86.5" y="-45.5" font-family="SegoeUI" font-size="10.00">Motion.ViveFocusProbeConfiguration</text>
<polyline fill="none" stroke="black" points="0,-38.5 173,-38.5 "/>
<text text-anchor="middle" x="86.5" y="-26.5" font-family="SegoeUI" font-size="10.00"> </text>
<polyline fill="none" stroke="black" points="0,-19.5 173,-19.5 "/>
<text text-anchor="start" x="8" y="-7.5" font-family="SegoeUI" font-size="10.00">+ ViveFocusProbeConfiguration()</text>
</a>
</g>
</g>
<!-- Node1 -->
<g id="node2" class="node"><title>Node1</title>
<g id="a_node2"><a xlink:title=" ">
<polygon fill="white" stroke="#bfbfbf" points="7.5,-105.5 7.5,-173.5 165.5,-173.5 165.5,-105.5 7.5,-105.5"/>
<text text-anchor="start" x="15.5" y="-161.5" font-family="SegoeUI" font-size="10.00">AbstractProbeNameConfiguration</text>
<text text-anchor="middle" x="86.5" y="-150.5" font-family="SegoeUI" font-size="10.00">&lt; WVR_DeviceType &gt;</text>
<polyline fill="none" stroke="#bfbfbf" points="7.5,-143.5 165.5,-143.5 "/>
<text text-anchor="middle" x="86.5" y="-131.5" font-family="SegoeUI" font-size="10.00"> </text>
<polyline fill="none" stroke="#bfbfbf" points="7.5,-124.5 165.5,-124.5 "/>
<text text-anchor="middle" x="86.5" y="-112.5" font-family="SegoeUI" font-size="10.00"> </text>
</a>
</g>
</g>
<!-- Node1&#45;&gt;Node0 -->
<g id="edge1" class="edge"><title>Node1&#45;&gt;Node0</title>
<path fill="none" stroke="midnightblue" d="M86.5,-95.1362C86.5,-86.256 86.5,-77.0447 86.5,-68.5947"/>
<polygon fill="none" stroke="midnightblue" points="83.0001,-95.3432 86.5,-105.343 90.0001,-95.3432 83.0001,-95.3432"/>
</g>
</g>
</svg>
