<?xml version="1.0" encoding="UTF-8" standalone="no"?>
<!DOCTYPE svg PUBLIC "-//W3C//DTD SVG 1.1//EN"
 "http://www.w3.org/Graphics/SVG/1.1/DTD/svg11.dtd">
<!-- Generated by graphviz version 2.38.0 (20140413.2041)
 -->
<!-- Title: Juniper.Unity.Widgets.ScaleHandle Pages: 1 -->
<!--zoomable 1425 -->
<svg id="main" version="1.1" xmlns="http://www.w3.org/2000/svg" xmlns:xlink="http://www.w3.org/1999/xlink" xml:space="preserve" onload="init(evt)">
<style type="text/css"><![CDATA[
.edge:hover path { stroke: red; }
.edge:hover polygon { stroke: red; fill: red; }
]]></style>
<script type="text/javascript"><![CDATA[
var edges = document.getElementsByTagName('g');
if (edges && edges.length) {
  for (var i=0;i<edges.length;i++) {
    if (edges[i].id.substr(0,4)=='edge') {
      edges[i].setAttribute('class','edge');
    }
  }
}
]]></script>
        <defs>
                <circle id="rim" cx="0" cy="0" r="7"/>
                <circle id="rim2" cx="0" cy="0" r="3.5"/>
                <g id="zoomPlus">
                        <use xlink:href="#rim" fill="#404040">
                                <set attributeName="fill" to="#808080" begin="zoomplus.mouseover" end="zoomplus.mouseout"/>
                        </use>
                        <path d="M-4,0h8M0,-4v8" fill="none" stroke="white" stroke-width="1.5" pointer-events="none"/>
                </g>
                <g id="zoomMin">
                        <use xlink:href="#rim" fill="#404040">
                                <set attributeName="fill" to="#808080" begin="zoomminus.mouseover" end="zoomminus.mouseout"/>
                        </use>
                        <path d="M-4,0h8" fill="none" stroke="white" stroke-width="1.5" pointer-events="none"/>
                </g>
                <g id="dirArrow">
                        <path fill="none" stroke="white" stroke-width="1.5" d="M0,-3.0v7 M-2.5,-0.5L0,-3.0L2.5,-0.5"/>
                </g>
               <g id="resetDef">
                       <use xlink:href="#rim2" fill="#404040">
                               <set attributeName="fill" to="#808080" begin="reset.mouseover" end="reset.mouseout"/>
                       </use>
               </g>
        </defs>

<script type="text/javascript">
var viewWidth = 1255;
var viewHeight = 1425;
var sectionId = 'dynsection-1';
</script>
<script xlink:href="../../svgpan.js"/>
<svg id="graph" class="graph">
<g id="viewport">
<title>Juniper.Unity.Widgets.ScaleHandle</title>
<polygon fill="white" stroke="none" points="-4,4 -4,-1421 1250.5,-1421 1250.5,4 -4,4"/>
<!-- Node3 -->
<g id="node1" class="node"><title>Node3</title>
<g id="a_node1"><a xlink:title="A constraint handle that is used to scale the size of a target object.">
<polygon fill="#bfbfbf" stroke="black" points="0,-0.5 0,-79.5 135,-79.5 135,-0.5 0,-0.5"/>
<text text-anchor="start" x="8" y="-67.5" font-family="SegoeUI" font-size="10.00">Juniper.Unity.Widgets.Scale</text>
<text text-anchor="middle" x="67.5" y="-56.5" font-family="SegoeUI" font-size="10.00">Handle</text>
<polyline fill="none" stroke="black" points="0,-49.5 135,-49.5 "/>
<text text-anchor="middle" x="67.5" y="-37.5" font-family="SegoeUI" font-size="10.00"> </text>
<polyline fill="none" stroke="black" points="0,-30.5 135,-30.5 "/>
<text text-anchor="start" x="8" y="-18.5" font-family="SegoeUI" font-size="10.00"># GetChange()</text>
<text text-anchor="start" x="8" y="-7.5" font-family="SegoeUI" font-size="10.00"># ApplyChange()</text>
</a>
</g>
</g>
<!-- Node4 -->
<g id="node2" class="node"><title>Node4</title>
<g id="a_node2"><a xlink:href="../../d6/d6a/class_juniper_1_1_unity_1_1_widgets_1_1_abstract_constraint_handle.html" target="_top" xlink:title="An abstract class that manages reading the movement of a control handle and constraining that movemen...">
<polygon fill="white" stroke="black" points="5,-117.5 5,-262.5 130,-262.5 130,-117.5 5,-117.5"/>
<text text-anchor="middle" x="67.5" y="-250.5" font-family="SegoeUI" font-size="10.00">AbstractConstraintHandle</text>
<polyline fill="none" stroke="black" points="5,-243.5 130,-243.5 "/>
<text text-anchor="start" x="13" y="-231.5" font-family="SegoeUI" font-size="10.00">+ target</text>
<text text-anchor="start" x="13" y="-220.5" font-family="SegoeUI" font-size="10.00">+ axis</text>
<text text-anchor="start" x="13" y="-209.5" font-family="SegoeUI" font-size="10.00">+ speed</text>
<text text-anchor="start" x="13" y="-198.5" font-family="SegoeUI" font-size="10.00">&#45; hadTarget</text>
<polyline fill="none" stroke="black" points="5,-191.5 130,-191.5 "/>
<text text-anchor="start" x="13" y="-179.5" font-family="SegoeUI" font-size="10.00">+ Awake()</text>
<text text-anchor="start" x="13" y="-168.5" font-family="SegoeUI" font-size="10.00">+ Update()</text>
<text text-anchor="start" x="13" y="-157.5" font-family="SegoeUI" font-size="10.00">+ Setup()</text>
<text text-anchor="start" x="13" y="-146.5" font-family="SegoeUI" font-size="10.00"># ConstrainChange()</text>
<text text-anchor="start" x="13" y="-135.5" font-family="SegoeUI" font-size="10.00"># GetChange()</text>
<text text-anchor="start" x="13" y="-124.5" font-family="SegoeUI" font-size="10.00"># ApplyChange()</text>
</a>
</g>
</g>
<!-- Node4&#45;&gt;Node3 -->
<g id="edge1" class="edge"><title>Node4&#45;&gt;Node3</title>
<path fill="none" stroke="midnightblue" d="M67.5,-107.152C67.5,-97.576 67.5,-88.1775 67.5,-79.6075"/>
<polygon fill="none" stroke="midnightblue" points="64.0001,-107.168 67.5,-117.168 71.0001,-107.168 64.0001,-107.168"/>
</g>
<!-- Node5 -->
<g id="node3" class="node"><title>Node5</title>
<g id="a_node3"><a xlink:title=" ">
<polygon fill="white" stroke="#bfbfbf" points="895.5,-1359.5 895.5,-1416.5 977.5,-1416.5 977.5,-1359.5 895.5,-1359.5"/>
<text text-anchor="middle" x="936.5" y="-1404.5" font-family="SegoeUI" font-size="10.00">MonoBehaviour</text>
<polyline fill="none" stroke="#bfbfbf" points="895.5,-1397.5 977.5,-1397.5 "/>
<text text-anchor="middle" x="936.5" y="-1385.5" font-family="SegoeUI" font-size="10.00"> </text>
<polyline fill="none" stroke="#bfbfbf" points="895.5,-1378.5 977.5,-1378.5 "/>
<text text-anchor="middle" x="936.5" y="-1366.5" font-family="SegoeUI" font-size="10.00"> </text>
</a>
</g>
</g>
<!-- Node5&#45;&gt;Node4 -->
<g id="edge2" class="edge"><title>Node5&#45;&gt;Node4</title>
<path fill="none" stroke="midnightblue" d="M885.257,-1385.99C692.447,-1381.54 21.5,-1359.74 21.5,-1272 21.5,-1272 21.5,-1272 21.5,-398.5 21.5,-352.561 32.3797,-302.228 43.5569,-262.64"/>
<polygon fill="none" stroke="midnightblue" points="885.331,-1389.5 895.407,-1386.22 885.488,-1382.5 885.331,-1389.5"/>
</g>
<!-- Node9 -->
<g id="node7" class="node"><title>Node9</title>
<g id="a_node7"><a xlink:href="../../dc/dad/class_juniper_1_1_unity_1_1_widgets_1_1_abstract_touchable.html" target="_top" xlink:title="The base class for all interactive, AR&#45;compatible, GUI controls /// This class is abstract to avoid i...">
<polygon fill="white" stroke="black" points="704.5,-917.5 704.5,-1150.5 830.5,-1150.5 830.5,-917.5 704.5,-917.5"/>
<text text-anchor="middle" x="767.5" y="-1138.5" font-family="SegoeUI" font-size="10.00">AbstractTouchable</text>
<polyline fill="none" stroke="black" points="704.5,-1131.5 830.5,-1131.5 "/>
<text text-anchor="start" x="712.5" y="-1119.5" font-family="SegoeUI" font-size="10.00">+ disabled</text>
<text text-anchor="start" x="712.5" y="-1108.5" font-family="SegoeUI" font-size="10.00">+ DisabledChanged</text>
<text text-anchor="start" x="712.5" y="-1097.5" font-family="SegoeUI" font-size="10.00">+ DisabledDown</text>
<text text-anchor="start" x="712.5" y="-1086.5" font-family="SegoeUI" font-size="10.00">+ DisabledUp</text>
<text text-anchor="start" x="712.5" y="-1075.5" font-family="SegoeUI" font-size="10.00">+ IsDisabled</text>
<text text-anchor="start" x="712.5" y="-1064.5" font-family="SegoeUI" font-size="10.00">+ PointerPositionChanged</text>
<text text-anchor="start" x="712.5" y="-1053.5" font-family="SegoeUI" font-size="10.00">&#45; wasDisabled</text>
<polyline fill="none" stroke="black" points="704.5,-1046.5 830.5,-1046.5 "/>
<text text-anchor="start" x="712.5" y="-1034.5" font-family="SegoeUI" font-size="10.00">+ SetDisabled()</text>
<text text-anchor="start" x="712.5" y="-1023.5" font-family="SegoeUI" font-size="10.00">+ ToggleEnabled()</text>
<text text-anchor="start" x="712.5" y="-1012.5" font-family="SegoeUI" font-size="10.00">+ OnPointerEnter()</text>
<text text-anchor="start" x="712.5" y="-1001.5" font-family="SegoeUI" font-size="10.00">+ OnPointerExit()</text>
<text text-anchor="start" x="712.5" y="-990.5" font-family="SegoeUI" font-size="10.00">+ OnPointerDown()</text>
<text text-anchor="start" x="712.5" y="-979.5" font-family="SegoeUI" font-size="10.00">+ OnPointerUp()</text>
<text text-anchor="start" x="712.5" y="-968.5" font-family="SegoeUI" font-size="10.00"># Update()</text>
<text text-anchor="start" x="712.5" y="-957.5" font-family="SegoeUI" font-size="10.00"># LateUpdate()</text>
<text text-anchor="start" x="712.5" y="-946.5" font-family="SegoeUI" font-size="10.00"># ShowState()</text>
<text text-anchor="start" x="712.5" y="-935.5" font-family="SegoeUI" font-size="10.00"># GetPosition()</text>
<text text-anchor="start" x="712.5" y="-924.5" font-family="SegoeUI" font-size="10.00">&#45; NormalizePart()</text>
</a>
</g>
</g>
<!-- Node5&#45;&gt;Node9 -->
<g id="edge7" class="edge"><title>Node5&#45;&gt;Node9</title>
<path fill="none" stroke="midnightblue" d="M946.405,-1349.42C956.571,-1301.51 965.487,-1218.94 922.5,-1169 897.876,-1140.39 870.343,-1172.76 839.5,-1151 836.401,-1148.81 833.408,-1146.45 830.521,-1143.93"/>
<polygon fill="none" stroke="midnightblue" points="942.945,-1348.85 944.167,-1359.38 949.775,-1350.39 942.945,-1348.85"/>
</g>
<!-- Node14 -->
<g id="node12" class="node"><title>Node14</title>
<g id="a_node12"><a xlink:href="../../dd/d2d/class_juniper_1_1_unity_1_1_animation_1_1_abstract_animator.html" target="_top" xlink:title="An abstraction layer over different ways of showing UI state. Only one such component is allowed on a...">
<polygon fill="white" stroke="black" points="964.5,-1220.5 964.5,-1321.5 1084.5,-1321.5 1084.5,-1220.5 964.5,-1220.5"/>
<text text-anchor="start" x="972.5" y="-1309.5" font-family="SegoeUI" font-size="10.00">Juniper.Unity.Animation.</text>
<text text-anchor="middle" x="1024.5" y="-1298.5" font-family="SegoeUI" font-size="10.00">AbstractAnimator</text>
<polyline fill="none" stroke="black" points="964.5,-1291.5 1084.5,-1291.5 "/>
<text text-anchor="middle" x="1024.5" y="-1279.5" font-family="SegoeUI" font-size="10.00"> </text>
<polyline fill="none" stroke="black" points="964.5,-1272.5 1084.5,-1272.5 "/>
<text text-anchor="start" x="972.5" y="-1260.5" font-family="SegoeUI" font-size="10.00">+ PlayCoroutine()</text>
<text text-anchor="start" x="972.5" y="-1249.5" font-family="SegoeUI" font-size="10.00">+ Play()</text>
<text text-anchor="start" x="972.5" y="-1238.5" font-family="SegoeUI" font-size="10.00">+ HasState()</text>
<text text-anchor="start" x="972.5" y="-1227.5" font-family="SegoeUI" font-size="10.00">+ GetAnimator()</text>
</a>
</g>
</g>
<!-- Node5&#45;&gt;Node14 -->
<g id="edge13" class="edge"><title>Node5&#45;&gt;Node14</title>
<path fill="none" stroke="midnightblue" d="M963.682,-1351.48C970.86,-1342.1 978.742,-1331.8 986.383,-1321.81"/>
<polygon fill="none" stroke="midnightblue" points="960.876,-1349.39 957.578,-1359.45 966.435,-1353.64 960.876,-1349.39"/>
</g>
<!-- Node6 -->
<g id="node4" class="node"><title>Node6</title>
<g id="a_node4"><a xlink:title=" ">
<polygon fill="white" stroke="#bfbfbf" points="234.5,-1242.5 234.5,-1299.5 300.5,-1299.5 300.5,-1242.5 234.5,-1242.5"/>
<text text-anchor="middle" x="267.5" y="-1287.5" font-family="SegoeUI" font-size="10.00">UnityEngine</text>
<polyline fill="none" stroke="#bfbfbf" points="234.5,-1280.5 300.5,-1280.5 "/>
<text text-anchor="middle" x="267.5" y="-1268.5" font-family="SegoeUI" font-size="10.00"> </text>
<polyline fill="none" stroke="#bfbfbf" points="234.5,-1261.5 300.5,-1261.5 "/>
<text text-anchor="middle" x="267.5" y="-1249.5" font-family="SegoeUI" font-size="10.00"> </text>
</a>
</g>
</g>
<!-- Node6&#45;&gt;Node4 -->
<g id="edge3" class="edge"><title>Node6&#45;&gt;Node4</title>
<path fill="none" stroke="#404040" d="M234.474,-1251.49C177.668,-1216.93 67.5,-1136.79 67.5,-1035 67.5,-1035 67.5,-1035 67.5,-398.5 67.5,-357.705 67.5,-312.398 67.5,-274.553"/>
<polygon fill="none" stroke="#404040" points="67.5001,-274.544 63.5,-268.544 67.5,-262.544 71.5,-268.544 67.5001,-274.544"/>
<text text-anchor="middle" x="99" y="-701" font-family="SegoeUI" font-size="10.00"> #startPosition</text>
<text text-anchor="middle" x="99" y="-690" font-family="SegoeUI" font-size="10.00">#lastPosition</text>
</g>
<!-- Node7 -->
<g id="node5" class="node"><title>Node7</title>
<g id="a_node5"><a xlink:href="../../dc/da5/class_juniper_1_1_unity_1_1_widgets_1_1_draggable.html" target="_top" xlink:title="An object that can be picked up and put down in a new location.">
<polygon fill="white" stroke="black" points="96,-310.5 96,-488.5 251,-488.5 251,-310.5 96,-310.5"/>
<text text-anchor="middle" x="173.5" y="-476.5" font-family="SegoeUI" font-size="10.00">Juniper.Unity.Widgets.Draggable</text>
<polyline fill="none" stroke="black" points="96,-469.5 251,-469.5 "/>
<text text-anchor="start" x="104" y="-457.5" font-family="SegoeUI" font-size="10.00">+ constrainMotion</text>
<text text-anchor="start" x="104" y="-446.5" font-family="SegoeUI" font-size="10.00">+ rotateWhileDragging</text>
<text text-anchor="start" x="104" y="-435.5" font-family="SegoeUI" font-size="10.00">+ TrackStart</text>
<text text-anchor="start" x="104" y="-424.5" font-family="SegoeUI" font-size="10.00">+ TrackEnd</text>
<text text-anchor="start" x="104" y="-413.5" font-family="SegoeUI" font-size="10.00">&#45; MotionConstraintStartName</text>
<text text-anchor="start" x="104" y="-402.5" font-family="SegoeUI" font-size="10.00">&#45; MotionConstraintEndName</text>
<text text-anchor="start" x="104" y="-391.5" font-family="SegoeUI" font-size="10.00">&#45; motionConstraintStart</text>
<text text-anchor="start" x="104" y="-380.5" font-family="SegoeUI" font-size="10.00">&#45; motionConstraintEnd</text>
<polyline fill="none" stroke="black" points="96,-373.5 251,-373.5 "/>
<text text-anchor="start" x="104" y="-361.5" font-family="SegoeUI" font-size="10.00">+ OnValidate()</text>
<text text-anchor="start" x="104" y="-350.5" font-family="SegoeUI" font-size="10.00">+ OnDrag()</text>
<text text-anchor="start" x="104" y="-339.5" font-family="SegoeUI" font-size="10.00"># LateUpdate()</text>
<text text-anchor="start" x="104" y="-328.5" font-family="SegoeUI" font-size="10.00">&#45; ResolveConstraint()</text>
<text text-anchor="start" x="104" y="-317.5" font-family="SegoeUI" font-size="10.00">&#45; DestroyConstraint()</text>
</a>
</g>
</g>
<!-- Node6&#45;&gt;Node7 -->
<g id="edge24" class="edge"><title>Node6&#45;&gt;Node7</title>
<path fill="none" stroke="#404040" d="M238.205,-1242.35C216.818,-1220.03 189.544,-1186.58 177.5,-1151 137.775,-1033.66 154.859,-676.543 166.274,-500.61"/>
<polygon fill="none" stroke="#404040" points="166.282,-500.493 162.684,-494.244 167.069,-488.519 170.667,-494.768 166.282,-500.493"/>
<text text-anchor="middle" x="191" y="-891" font-family="SegoeUI" font-size="10.00"> &#45;lastCamPosition</text>
</g>
<!-- Node8 -->
<g id="node6" class="node"><title>Node8</title>
<g id="a_node6"><a xlink:href="../../d2/d57/class_juniper_1_1_unity_1_1_widgets_1_1_abstract_valued.html" target="_top" xlink:title="The Valued component adds a float field and range of valid values for that field to a Touchable objec...">
<polygon fill="white" stroke="black" points="467,-526.5 467,-869.5 604,-869.5 604,-526.5 467,-526.5"/>
<text text-anchor="middle" x="535.5" y="-857.5" font-family="SegoeUI" font-size="10.00">AbstractValued</text>
<polyline fill="none" stroke="black" points="467,-850.5 604,-850.5 "/>
<text text-anchor="start" x="475" y="-838.5" font-family="SegoeUI" font-size="10.00">+ Display</text>
<text text-anchor="start" x="475" y="-827.5" font-family="SegoeUI" font-size="10.00">+ SigFigs</text>
<text text-anchor="start" x="475" y="-816.5" font-family="SegoeUI" font-size="10.00">+ minValue</text>
<text text-anchor="start" x="475" y="-805.5" font-family="SegoeUI" font-size="10.00">+ maxValue</text>
<text text-anchor="start" x="475" y="-794.5" font-family="SegoeUI" font-size="10.00">+ _value</text>
<text text-anchor="start" x="475" y="-783.5" font-family="SegoeUI" font-size="10.00">+ Dragged</text>
<text text-anchor="start" x="475" y="-772.5" font-family="SegoeUI" font-size="10.00">+ value</text>
<text text-anchor="start" x="475" y="-761.5" font-family="SegoeUI" font-size="10.00">+ Delta</text>
<text text-anchor="start" x="475" y="-750.5" font-family="SegoeUI" font-size="10.00">+ DraggedChanged</text>
<text text-anchor="start" x="475" y="-739.5" font-family="SegoeUI" font-size="10.00">+ DraggedDown</text>
<text text-anchor="start" x="475" y="-728.5" font-family="SegoeUI" font-size="10.00">+ DraggedUp</text>
<text text-anchor="start" x="475" y="-717.5" font-family="SegoeUI" font-size="10.00">+ ValueChanged</text>
<text text-anchor="start" x="475" y="-706.5" font-family="SegoeUI" font-size="10.00">+ ConstraintRange</text>
<text text-anchor="start" x="475" y="-695.5" font-family="SegoeUI" font-size="10.00"># dragDistance</text>
<text text-anchor="start" x="475" y="-684.5" font-family="SegoeUI" font-size="10.00"># camT</text>
<text text-anchor="start" x="475" y="-673.5" font-family="SegoeUI" font-size="10.00"># internalValue</text>
<text text-anchor="start" x="475" y="-662.5" font-family="SegoeUI" font-size="10.00">&#45; wasDragged</text>
<text text-anchor="start" x="475" y="-651.5" font-family="SegoeUI" font-size="10.00">&#45; lastValue</text>
<text text-anchor="start" x="475" y="-640.5" font-family="SegoeUI" font-size="10.00">&#45; lastTickValue</text>
<polyline fill="none" stroke="black" points="467,-633.5 604,-633.5 "/>
<text text-anchor="start" x="475" y="-621.5" font-family="SegoeUI" font-size="10.00">+ SetValue()</text>
<text text-anchor="start" x="475" y="-610.5" font-family="SegoeUI" font-size="10.00">+ OnInitializePotentialDrag()</text>
<text text-anchor="start" x="475" y="-599.5" font-family="SegoeUI" font-size="10.00">+ OnBeginDrag()</text>
<text text-anchor="start" x="475" y="-588.5" font-family="SegoeUI" font-size="10.00">+ OnDrag()</text>
<text text-anchor="start" x="475" y="-577.5" font-family="SegoeUI" font-size="10.00">+ OnDrop()</text>
<text text-anchor="start" x="475" y="-566.5" font-family="SegoeUI" font-size="10.00">+ OnEndDrag()</text>
<text text-anchor="start" x="475" y="-555.5" font-family="SegoeUI" font-size="10.00"># LateUpdate()</text>
<text text-anchor="start" x="475" y="-544.5" font-family="SegoeUI" font-size="10.00"># UpdateInternalValue()</text>
<text text-anchor="start" x="475" y="-533.5" font-family="SegoeUI" font-size="10.00"># ResetInternalValue()</text>
</a>
</g>
</g>
<!-- Node6&#45;&gt;Node8 -->
<g id="edge23" class="edge"><title>Node6&#45;&gt;Node8</title>
<path fill="none" stroke="#404040" d="M300.629,-1254.64C323.223,-1244.36 353.934,-1230.8 381.5,-1220 425.077,-1202.92 553.361,-1189.13 580.5,-1151 610.966,-1108.19 597.522,-987.481 577.627,-881.567"/>
<polygon fill="none" stroke="#404040" points="577.616,-881.51 572.561,-876.367 575.364,-869.723 580.419,-874.866 577.616,-881.51"/>
<text text-anchor="middle" x="637.5" y="-1053.5" font-family="SegoeUI" font-size="10.00"> #interactionPoint</text>
<text text-anchor="middle" x="637.5" y="-1042.5" font-family="SegoeUI" font-size="10.00">#interactionOffset</text>
<text text-anchor="middle" x="637.5" y="-1031.5" font-family="SegoeUI" font-size="10.00">#angVel</text>
<text text-anchor="middle" x="637.5" y="-1020.5" font-family="SegoeUI" font-size="10.00">#grabOffset</text>
<text text-anchor="middle" x="637.5" y="-1009.5" font-family="SegoeUI" font-size="10.00">#velocity</text>
</g>
<!-- Node6&#45;&gt;Node9 -->
<g id="edge14" class="edge"><title>Node6&#45;&gt;Node9</title>
<path fill="none" stroke="#404040" d="M300.922,-1252.04C323.13,-1240.94 353.289,-1227.44 381.5,-1220 419.301,-1210.03 523.702,-1223.28 556.5,-1202 570.698,-1192.79 561.55,-1178.58 575.5,-1169 618.144,-1139.71 646.946,-1178.92 690.5,-1151 692.026,-1150.02 693.529,-1149 695.009,-1147.94"/>
<polygon fill="none" stroke="#404040" points="695.057,-1147.9 697.252,-1141.03 704.437,-1140.42 702.242,-1147.29 695.057,-1147.9"/>
<text text-anchor="middle" x="619.5" y="-1194" font-family="SegoeUI" font-size="10.00"> #lastPointerPosition</text>
<text text-anchor="middle" x="619.5" y="-1183" font-family="SegoeUI" font-size="10.00">+pointerPosition</text>
<text text-anchor="middle" x="619.5" y="-1172" font-family="SegoeUI" font-size="10.00">+clickButton</text>
</g>
<!-- Node7&#45;&gt;Node4 -->
<g id="edge4" class="edge"><title>Node7&#45;&gt;Node4</title>
<path fill="none" stroke="#404040" d="M128.393,-310.2C122.18,-298.039 115.82,-285.588 109.663,-273.537"/>
<polygon fill="none" stroke="#404040" points="109.536,-273.287 103.244,-269.763 104.077,-262.6 110.368,-266.124 109.536,-273.287"/>
<text text-anchor="middle" x="135.5" y="-284" font-family="SegoeUI" font-size="10.00"> &#45;handle</text>
</g>
<!-- Node8&#45;&gt;Node7 -->
<g id="edge5" class="edge"><title>Node8&#45;&gt;Node7</title>
<path fill="none" stroke="midnightblue" d="M458.904,-634.263C397.79,-584.207 312.545,-514.386 251.155,-464.104"/>
<polygon fill="none" stroke="midnightblue" points="457.031,-637.253 466.985,-640.882 461.466,-631.838 457.031,-637.253"/>
</g>
<!-- Node9&#45;&gt;Node8 -->
<g id="edge6" class="edge"><title>Node9&#45;&gt;Node8</title>
<path fill="none" stroke="midnightblue" d="M698.646,-928.921C695.905,-924.889 693.182,-920.903 690.5,-917 662.623,-876.43 631.257,-832.081 604.071,-794.039"/>
<polygon fill="none" stroke="midnightblue" points="695.785,-930.937 704.292,-937.251 701.579,-927.01 695.785,-930.937"/>
</g>
<!-- Node10 -->
<g id="node8" class="node"><title>Node10</title>
<g id="a_node8"><a xlink:title=" ">
<polygon fill="white" stroke="#bfbfbf" points="391,-1242.5 391,-1299.5 496,-1299.5 496,-1242.5 391,-1242.5"/>
<text text-anchor="middle" x="443.5" y="-1287.5" font-family="SegoeUI" font-size="10.00">IPointerEnterHandler</text>
<polyline fill="none" stroke="#bfbfbf" points="391,-1280.5 496,-1280.5 "/>
<text text-anchor="middle" x="443.5" y="-1268.5" font-family="SegoeUI" font-size="10.00"> </text>
<polyline fill="none" stroke="#bfbfbf" points="391,-1261.5 496,-1261.5 "/>
<text text-anchor="middle" x="443.5" y="-1249.5" font-family="SegoeUI" font-size="10.00"> </text>
</a>
</g>
</g>
<!-- Node10&#45;&gt;Node9 -->
<g id="edge8" class="edge"><title>Node10&#45;&gt;Node9</title>
<path fill="none" stroke="midnightblue" d="M478.798,-1235.96C487.012,-1229.69 496.118,-1223.91 505.5,-1220 572.374,-1192.15 606.548,-1241.15 667.5,-1202 673.969,-1197.85 688.474,-1175.54 704.486,-1148.52"/>
<polygon fill="none" stroke="midnightblue" points="476.488,-1233.32 470.903,-1242.33 480.884,-1238.77 476.488,-1233.32"/>
</g>
<!-- Node11 -->
<g id="node9" class="node"><title>Node11</title>
<g id="a_node9"><a xlink:title=" ">
<polygon fill="white" stroke="#bfbfbf" points="514.5,-1242.5 514.5,-1299.5 612.5,-1299.5 612.5,-1242.5 514.5,-1242.5"/>
<text text-anchor="middle" x="563.5" y="-1287.5" font-family="SegoeUI" font-size="10.00">IPointerExitHandler</text>
<polyline fill="none" stroke="#bfbfbf" points="514.5,-1280.5 612.5,-1280.5 "/>
<text text-anchor="middle" x="563.5" y="-1268.5" font-family="SegoeUI" font-size="10.00"> </text>
<polyline fill="none" stroke="#bfbfbf" points="514.5,-1261.5 612.5,-1261.5 "/>
<text text-anchor="middle" x="563.5" y="-1249.5" font-family="SegoeUI" font-size="10.00"> </text>
</a>
</g>
</g>
<!-- Node11&#45;&gt;Node9 -->
<g id="edge9" class="edge"><title>Node11&#45;&gt;Node9</title>
<path fill="none" stroke="midnightblue" d="M597.863,-1235.91C605.222,-1229.94 613.273,-1224.28 621.5,-1220 650.377,-1204.97 667.57,-1222.93 692.5,-1202 702.358,-1193.72 713.486,-1173.96 724.093,-1150.82"/>
<polygon fill="none" stroke="midnightblue" points="595.516,-1233.32 590.173,-1242.46 600.055,-1238.64 595.516,-1233.32"/>
</g>
<!-- Node12 -->
<g id="node10" class="node"><title>Node12</title>
<g id="a_node10"><a xlink:title=" ">
<polygon fill="white" stroke="#bfbfbf" points="631,-1242.5 631,-1299.5 738,-1299.5 738,-1242.5 631,-1242.5"/>
<text text-anchor="middle" x="684.5" y="-1287.5" font-family="SegoeUI" font-size="10.00">IPointerDownHandler</text>
<polyline fill="none" stroke="#bfbfbf" points="631,-1280.5 738,-1280.5 "/>
<text text-anchor="middle" x="684.5" y="-1268.5" font-family="SegoeUI" font-size="10.00"> </text>
<polyline fill="none" stroke="#bfbfbf" points="631,-1261.5 738,-1261.5 "/>
<text text-anchor="middle" x="684.5" y="-1249.5" font-family="SegoeUI" font-size="10.00"> </text>
</a>
</g>
</g>
<!-- Node12&#45;&gt;Node9 -->
<g id="edge10" class="edge"><title>Node12&#45;&gt;Node9</title>
<path fill="none" stroke="midnightblue" d="M703.736,-1233.11C708.558,-1223.15 713.494,-1212.29 717.5,-1202 723.87,-1185.64 729.92,-1168.13 735.468,-1150.81"/>
<polygon fill="none" stroke="midnightblue" points="700.473,-1231.81 699.181,-1242.33 706.748,-1234.91 700.473,-1231.81"/>
</g>
<!-- Node13 -->
<g id="node11" class="node"><title>Node13</title>
<g id="a_node11"><a xlink:title=" ">
<polygon fill="white" stroke="#bfbfbf" points="756.5,-1242.5 756.5,-1299.5 850.5,-1299.5 850.5,-1242.5 756.5,-1242.5"/>
<text text-anchor="middle" x="803.5" y="-1287.5" font-family="SegoeUI" font-size="10.00">IPointerUpHandler</text>
<polyline fill="none" stroke="#bfbfbf" points="756.5,-1280.5 850.5,-1280.5 "/>
<text text-anchor="middle" x="803.5" y="-1268.5" font-family="SegoeUI" font-size="10.00"> </text>
<polyline fill="none" stroke="#bfbfbf" points="756.5,-1261.5 850.5,-1261.5 "/>
<text text-anchor="middle" x="803.5" y="-1249.5" font-family="SegoeUI" font-size="10.00"> </text>
</a>
</g>
</g>
<!-- Node13&#45;&gt;Node9 -->
<g id="edge11" class="edge"><title>Node13&#45;&gt;Node9</title>
<path fill="none" stroke="midnightblue" d="M797.689,-1232.06C794.261,-1209.69 789.721,-1180.05 785.206,-1150.58"/>
<polygon fill="none" stroke="midnightblue" points="794.255,-1232.76 799.229,-1242.12 801.174,-1231.7 794.255,-1232.76"/>
</g>
<!-- Node14&#45;&gt;Node9 -->
<g id="edge12" class="edge"><title>Node14&#45;&gt;Node9</title>
<path fill="none" stroke="#404040" d="M999.14,-1220.32C986.968,-1201.34 970.612,-1181.32 950.5,-1169 910.879,-1144.73 884.93,-1173.99 840.949,-1150.63"/>
<polygon fill="none" stroke="#404040" points="840.906,-1150.6 833.702,-1150.91 830.646,-1144.38 837.851,-1144.07 840.906,-1150.6"/>
<text text-anchor="middle" x="1008.5" y="-1183" font-family="SegoeUI" font-size="10.00"> &#45;animator</text>
</g>
<!-- Node15 -->
<g id="node13" class="node"><title>Node15</title>
<g id="a_node13"><a xlink:title=" ">
<polygon fill="white" stroke="#bfbfbf" points="869,-1242.5 869,-1299.5 908,-1299.5 908,-1242.5 869,-1242.5"/>
<text text-anchor="middle" x="888.5" y="-1287.5" font-family="SegoeUI" font-size="10.00">static</text>
<polyline fill="none" stroke="#bfbfbf" points="869,-1280.5 908,-1280.5 "/>
<text text-anchor="middle" x="888.5" y="-1268.5" font-family="SegoeUI" font-size="10.00"> </text>
<polyline fill="none" stroke="#bfbfbf" points="869,-1261.5 908,-1261.5 "/>
<text text-anchor="middle" x="888.5" y="-1249.5" font-family="SegoeUI" font-size="10.00"> </text>
</a>
</g>
</g>
<!-- Node15&#45;&gt;Node9 -->
<g id="edge15" class="edge"><title>Node15&#45;&gt;Node9</title>
<path fill="none" stroke="#404040" d="M874.145,-1242.12C863.533,-1221.51 848.258,-1191.84 832.571,-1161.38"/>
<polygon fill="none" stroke="#404040" points="832.505,-1161.25 826.202,-1157.75 827.012,-1150.58 833.315,-1154.08 832.505,-1161.25"/>
<text text-anchor="middle" x="888" y="-1183" font-family="SegoeUI" font-size="10.00"> +PART_NAMES</text>
</g>
<!-- Node16 -->
<g id="node14" class="node"><title>Node16</title>
<g id="a_node14"><a xlink:title=" ">
<polygon fill="white" stroke="#bfbfbf" points="984.5,-1000 984.5,-1068 1096.5,-1068 1096.5,-1000 984.5,-1000"/>
<text text-anchor="start" x="992.5" y="-1056" font-family="SegoeUI" font-size="10.00">IInitializePotentialDrag</text>
<text text-anchor="middle" x="1040.5" y="-1045" font-family="SegoeUI" font-size="10.00">Handler</text>
<polyline fill="none" stroke="#bfbfbf" points="984.5,-1038 1096.5,-1038 "/>
<text text-anchor="middle" x="1040.5" y="-1026" font-family="SegoeUI" font-size="10.00"> </text>
<polyline fill="none" stroke="#bfbfbf" points="984.5,-1019 1096.5,-1019 "/>
<text text-anchor="middle" x="1040.5" y="-1007" font-family="SegoeUI" font-size="10.00"> </text>
</a>
</g>
</g>
<!-- Node16&#45;&gt;Node8 -->
<g id="edge16" class="edge"><title>Node16&#45;&gt;Node8</title>
<path fill="none" stroke="midnightblue" d="M1024.18,-990.52C1013.28,-966.561 996.993,-937.429 975.5,-917 866.129,-813.043 697.659,-748.626 604.097,-718.768"/>
<polygon fill="none" stroke="midnightblue" points="1021.01,-992.005 1028.23,-999.755 1027.42,-989.191 1021.01,-992.005"/>
</g>
<!-- Node17 -->
<g id="node15" class="node"><title>Node17</title>
<g id="a_node15"><a xlink:title=" ">
<polygon fill="white" stroke="#bfbfbf" points="186.5,-1005.5 186.5,-1062.5 282.5,-1062.5 282.5,-1005.5 186.5,-1005.5"/>
<text text-anchor="middle" x="234.5" y="-1050.5" font-family="SegoeUI" font-size="10.00">IBeginDragHandler</text>
<polyline fill="none" stroke="#bfbfbf" points="186.5,-1043.5 282.5,-1043.5 "/>
<text text-anchor="middle" x="234.5" y="-1031.5" font-family="SegoeUI" font-size="10.00"> </text>
<polyline fill="none" stroke="#bfbfbf" points="186.5,-1024.5 282.5,-1024.5 "/>
<text text-anchor="middle" x="234.5" y="-1012.5" font-family="SegoeUI" font-size="10.00"> </text>
</a>
</g>
</g>
<!-- Node17&#45;&gt;Node8 -->
<g id="edge17" class="edge"><title>Node17&#45;&gt;Node8</title>
<path fill="none" stroke="midnightblue" d="M248.508,-995.646C258.454,-971.828 273.259,-941.036 291.5,-917 341.637,-850.934 413.949,-789.319 466.835,-748.566"/>
<polygon fill="none" stroke="midnightblue" points="245.205,-994.476 244.677,-1005.06 251.689,-997.115 245.205,-994.476"/>
</g>
<!-- Node18 -->
<g id="node16" class="node"><title>Node18</title>
<g id="a_node16"><a xlink:title=" ">
<polygon fill="white" stroke="#bfbfbf" points="301,-1005.5 301,-1062.5 374,-1062.5 374,-1005.5 301,-1005.5"/>
<text text-anchor="middle" x="337.5" y="-1050.5" font-family="SegoeUI" font-size="10.00">IDragHandler</text>
<polyline fill="none" stroke="#bfbfbf" points="301,-1043.5 374,-1043.5 "/>
<text text-anchor="middle" x="337.5" y="-1031.5" font-family="SegoeUI" font-size="10.00"> </text>
<polyline fill="none" stroke="#bfbfbf" points="301,-1024.5 374,-1024.5 "/>
<text text-anchor="middle" x="337.5" y="-1012.5" font-family="SegoeUI" font-size="10.00"> </text>
</a>
</g>
</g>
<!-- Node18&#45;&gt;Node8 -->
<g id="edge18" class="edge"><title>Node18&#45;&gt;Node8</title>
<path fill="none" stroke="midnightblue" d="M349.301,-995.943C357.337,-972.656 368.954,-942.335 382.5,-917 406.646,-871.841 438.535,-824.955 466.949,-786.288"/>
<polygon fill="none" stroke="midnightblue" points="345.971,-994.863 346.081,-1005.46 352.602,-997.107 345.971,-994.863"/>
</g>
<!-- Node19 -->
<g id="node17" class="node"><title>Node19</title>
<g id="a_node17"><a xlink:title=" ">
<polygon fill="white" stroke="#bfbfbf" points="392,-1005.5 392,-1062.5 481,-1062.5 481,-1005.5 392,-1005.5"/>
<text text-anchor="middle" x="436.5" y="-1050.5" font-family="SegoeUI" font-size="10.00">IEndDragHandler</text>
<polyline fill="none" stroke="#bfbfbf" points="392,-1043.5 481,-1043.5 "/>
<text text-anchor="middle" x="436.5" y="-1031.5" font-family="SegoeUI" font-size="10.00"> </text>
<polyline fill="none" stroke="#bfbfbf" points="392,-1024.5 481,-1024.5 "/>
<text text-anchor="middle" x="436.5" y="-1012.5" font-family="SegoeUI" font-size="10.00"> </text>
</a>
</g>
</g>
<!-- Node19&#45;&gt;Node8 -->
<g id="edge19" class="edge"><title>Node19&#45;&gt;Node8</title>
<path fill="none" stroke="midnightblue" d="M447.53,-995.789C456.816,-964.459 470.808,-917.253 484.917,-869.652"/>
<polygon fill="none" stroke="midnightblue" points="444.172,-994.801 444.686,-1005.38 450.883,-996.79 444.172,-994.801"/>
</g>
<!-- Node20 -->
<g id="node18" class="node"><title>Node20</title>
<g id="a_node18"><a xlink:title=" ">
<polygon fill="white" stroke="#bfbfbf" points="499,-1005.5 499,-1062.5 572,-1062.5 572,-1005.5 499,-1005.5"/>
<text text-anchor="middle" x="535.5" y="-1050.5" font-family="SegoeUI" font-size="10.00">IDropHandler</text>
<polyline fill="none" stroke="#bfbfbf" points="499,-1043.5 572,-1043.5 "/>
<text text-anchor="middle" x="535.5" y="-1031.5" font-family="SegoeUI" font-size="10.00"> </text>
<polyline fill="none" stroke="#bfbfbf" points="499,-1024.5 572,-1024.5 "/>
<text text-anchor="middle" x="535.5" y="-1012.5" font-family="SegoeUI" font-size="10.00"> </text>
</a>
</g>
</g>
<!-- Node20&#45;&gt;Node8 -->
<g id="edge20" class="edge"><title>Node20&#45;&gt;Node8</title>
<path fill="none" stroke="midnightblue" d="M535.5,-995.381C535.5,-964.05 535.5,-917.047 535.5,-869.652"/>
<polygon fill="none" stroke="midnightblue" points="532,-995.383 535.5,-1005.38 539,-995.383 532,-995.383"/>
</g>
<!-- Node21 -->
<g id="node19" class="node"><title>Node21</title>
<g id="a_node19"><a xlink:href="../../dd/d6e/interface_juniper_1_1_unity_1_1_widgets_1_1_i_valued_control.html" target="_top" xlink:title=" ">
<polygon fill="white" stroke="black" points="848.5,-1005.5 848.5,-1062.5 966.5,-1062.5 966.5,-1005.5 848.5,-1005.5"/>
<text text-anchor="middle" x="907.5" y="-1050.5" font-family="SegoeUI" font-size="10.00">IValuedControl&lt; float &gt;</text>
<polyline fill="none" stroke="black" points="848.5,-1043.5 966.5,-1043.5 "/>
<text text-anchor="start" x="856.5" y="-1031.5" font-family="SegoeUI" font-size="10.00">+ value</text>
<polyline fill="none" stroke="black" points="848.5,-1024.5 966.5,-1024.5 "/>
<text text-anchor="middle" x="907.5" y="-1012.5" font-family="SegoeUI" font-size="10.00"> </text>
</a>
</g>
</g>
<!-- Node21&#45;&gt;Node8 -->
<g id="edge21" class="edge"><title>Node21&#45;&gt;Node8</title>
<path fill="none" stroke="midnightblue" d="M890.774,-995.868C878.736,-971.707 860.887,-940.449 839.5,-917 770.132,-840.945 670.127,-775.5 604.014,-736.682"/>
<polygon fill="none" stroke="midnightblue" points="887.733,-997.618 895.255,-1005.08 894.027,-994.555 887.733,-997.618"/>
</g>
<!-- Node22 -->
<g id="node20" class="node"><title>Node22</title>
<g id="a_node20"><a xlink:href="../../dd/d6e/interface_juniper_1_1_unity_1_1_widgets_1_1_i_valued_control.html" target="_top" xlink:title=" ">
<polygon fill="white" stroke="black" points="1102.5,-1237 1102.5,-1305 1246.5,-1305 1246.5,-1237 1102.5,-1237"/>
<text text-anchor="start" x="1110.5" y="-1293" font-family="SegoeUI" font-size="10.00">Juniper.Unity.Widgets.IValued</text>
<text text-anchor="middle" x="1174.5" y="-1282" font-family="SegoeUI" font-size="10.00">Control&lt; T &gt;</text>
<polyline fill="none" stroke="black" points="1102.5,-1275 1246.5,-1275 "/>
<text text-anchor="start" x="1110.5" y="-1263" font-family="SegoeUI" font-size="10.00">+ value</text>
<polyline fill="none" stroke="black" points="1102.5,-1256 1246.5,-1256 "/>
<text text-anchor="middle" x="1174.5" y="-1244" font-family="SegoeUI" font-size="10.00"> </text>
</a>
</g>
</g>
<!-- Node22&#45;&gt;Node21 -->
<g id="edge22" class="edge"><title>Node22&#45;&gt;Node21</title>
<path fill="none" stroke="orange" d="M1128.56,-1230.53C1102.62,-1209.87 1068.81,-1185.5 1035.5,-1169 1010.55,-1156.64 997.391,-1168.2 975.5,-1151 946.499,-1128.21 927.393,-1089.37 917.016,-1062.96"/>
<polygon fill="orange" stroke="orange" points="1126.37,-1233.26 1136.35,-1236.81 1130.76,-1227.81 1126.37,-1233.26"/>
<text text-anchor="middle" x="1108.5" y="-1183" font-family="SegoeUI" font-size="10.00"> &lt; float &gt;</text>
</g>
</g>
</svg>
        <g id="navigator" transform="translate(0 0)" fill="#404254">
                <rect fill="#f2f5e9" fill-opacity="0.5" stroke="#606060" stroke-width=".5" x="0" y="0" width="60" height="60"/>
                <use id="zoomplus" xlink:href="#zoomPlus" x="17" y="9" onmousedown="handleZoom(evt,'in')"/>
                <use id="zoomminus" xlink:href="#zoomMin" x="42" y="9" onmousedown="handleZoom(evt,'out')"/>
                <use id="reset" xlink:href="#resetDef" x="30" y="36" onmousedown="handleReset()"/>
                <g id="arrowUp" xlink:href="#dirArrow" transform="translate(30 24)" onmousedown="handlePan(0,-1)">
                  <use xlink:href="#rim" fill="#404040">
                        <set attributeName="fill" to="#808080" begin="arrowUp.mouseover" end="arrowUp.mouseout"/>
                  </use>
                  <path fill="none" stroke="white" stroke-width="1.5" d="M0,-3.0v7 M-2.5,-0.5L0,-3.0L2.5,-0.5"/>
                </g>
                <g id="arrowRight" xlink:href="#dirArrow" transform="rotate(90) translate(36 -43)" onmousedown="handlePan(1,0)">
                  <use xlink:href="#rim" fill="#404040">
                        <set attributeName="fill" to="#808080" begin="arrowRight.mouseover" end="arrowRight.mouseout"/>
                  </use>
                  <path fill="none" stroke="white" stroke-width="1.5" d="M0,-3.0v7 M-2.5,-0.5L0,-3.0L2.5,-0.5"/>
                </g>
                <g id="arrowDown" xlink:href="#dirArrow" transform="rotate(180) translate(-30 -48)" onmousedown="handlePan(0,1)">
                  <use xlink:href="#rim" fill="#404040">
                        <set attributeName="fill" to="#808080" begin="arrowDown.mouseover" end="arrowDown.mouseout"/>
                  </use>
                  <path fill="none" stroke="white" stroke-width="1.5" d="M0,-3.0v7 M-2.5,-0.5L0,-3.0L2.5,-0.5"/>
                </g>
                <g id="arrowLeft" xlink:href="#dirArrow" transform="rotate(270) translate(-36 17)" onmousedown="handlePan(-1,0)">
                  <use xlink:href="#rim" fill="#404040">
                        <set attributeName="fill" to="#808080" begin="arrowLeft.mouseover" end="arrowLeft.mouseout"/>
                  </use>
                  <path fill="none" stroke="white" stroke-width="1.5" d="M0,-3.0v7 M-2.5,-0.5L0,-3.0L2.5,-0.5"/>
                </g>
        </g>
        <svg viewBox="0 0 15 15" width="100%" height="30px" preserveAspectRatio="xMaxYMin meet">
         <g id="arrow_out" transform="scale(0.3 0.3)">
          <a xlink:href="class_juniper_1_1_unity_1_1_widgets_1_1_scale_handle__coll__graph_org.svg" target="_base">
           <rect id="button" ry="5" rx="5" y="6" x="6" height="38" width="38"
                fill="#f2f5e9" fill-opacity="0.5" stroke="#606060" stroke-width="1.0"/>
           <path id="arrow"
             d="M 11.500037,31.436501 C 11.940474,20.09759 22.043105,11.32322 32.158766,21.979434 L 37.068811,17.246167 C 37.068811,17.246167 37.088388,32 37.088388,32 L 22.160133,31.978069 C 22.160133,31.978069 26.997745,27.140456 26.997745,27.140456 C 18.528582,18.264221 13.291696,25.230495 11.500037,31.436501 z"
             style="fill:#404040;"/>
          </a>
         </g>
        </svg>
</svg>
