<?xml version="1.0" encoding="UTF-8" standalone="no"?>
<!DOCTYPE svg PUBLIC "-//W3C//DTD SVG 1.1//EN"
 "http://www.w3.org/Graphics/SVG/1.1/DTD/svg11.dtd">
<!-- Generated by graphviz version 2.38.0 (20140413.2041)
 -->
<!-- Title: Juniper.Compression.Tar.TarArchive Pages: 1 -->
<svg width="136pt" height="358pt"
 viewBox="0.00 0.00 136.00 358.00" xmlns="http://www.w3.org/2000/svg" xmlns:xlink="http://www.w3.org/1999/xlink">
<g id="graph0" class="graph" transform="scale(1 1) rotate(0) translate(4 354)">
<title>Juniper.Compression.Tar.TarArchive</title>
<polygon fill="white" stroke="none" points="-4,4 -4,-354 132,-354 132,4 -4,4"/>
<!-- Node0 -->
<g id="node1" class="node"><title>Node0</title>
<g id="a_node1"><a xlink:title=" ">
<polygon fill="#bfbfbf" stroke="black" points="0,-0.5 0,-255.5 128,-255.5 128,-0.5 0,-0.5"/>
<text text-anchor="start" x="8" y="-243.5" font-family="SegoeUI" font-size="10.00">Juniper.Compression.Tar.</text>
<text text-anchor="middle" x="64" y="-232.5" font-family="SegoeUI" font-size="10.00">TarArchive</text>
<polyline fill="none" stroke="black" points="0,-225.5 128,-225.5 "/>
<text text-anchor="start" x="8" y="-213.5" font-family="SegoeUI" font-size="10.00">+ Entries</text>
<text text-anchor="start" x="8" y="-202.5" font-family="SegoeUI" font-size="10.00">&#45; entries</text>
<text text-anchor="start" x="8" y="-191.5" font-family="SegoeUI" font-size="10.00">&#45; disposedValue</text>
<text text-anchor="start" x="8" y="-180.5" font-family="SegoeUI" font-size="10.00">&#45; Epoch</text>
<polyline fill="none" stroke="black" points="0,-173.5 128,-173.5 "/>
<text text-anchor="start" x="8" y="-161.5" font-family="SegoeUI" font-size="10.00">+ TarArchive()</text>
<text text-anchor="start" x="8" y="-150.5" font-family="SegoeUI" font-size="10.00">+ GetEntry()</text>
<text text-anchor="start" x="8" y="-139.5" font-family="SegoeUI" font-size="10.00">+ Decompress()</text>
<text text-anchor="start" x="8" y="-128.5" font-family="SegoeUI" font-size="10.00">+ Decompress()</text>
<text text-anchor="start" x="8" y="-117.5" font-family="SegoeUI" font-size="10.00">+ Dispose()</text>
<text text-anchor="start" x="8" y="-106.5" font-family="SegoeUI" font-size="10.00">&#45; Dispose()</text>
<text text-anchor="start" x="8" y="-95.5" font-family="SegoeUI" font-size="10.00">&#45; SeekToNextEntry()</text>
<text text-anchor="start" x="8" y="-84.5" font-family="SegoeUI" font-size="10.00">&#45; IsAllZeros()</text>
<text text-anchor="start" x="8" y="-73.5" font-family="SegoeUI" font-size="10.00">&#45; IsFileType()</text>
<text text-anchor="start" x="8" y="-62.5" font-family="SegoeUI" font-size="10.00">&#45; AddFilePrefix()</text>
<text text-anchor="start" x="8" y="-51.5" font-family="SegoeUI" font-size="10.00">&#45; ReadLastModifiedTime()</text>
<text text-anchor="start" x="8" y="-40.5" font-family="SegoeUI" font-size="10.00">&#45; ReadFileSize()</text>
<text text-anchor="start" x="8" y="-29.5" font-family="SegoeUI" font-size="10.00">&#45; ValidateChecksum()</text>
<text text-anchor="start" x="8" y="-18.5" font-family="SegoeUI" font-size="10.00">&#45; GetString()</text>
<text text-anchor="start" x="8" y="-7.5" font-family="SegoeUI" font-size="10.00">&#45; ReadOctal()</text>
</a>
</g>
</g>
<!-- Node1 -->
<g id="node2" class="node"><title>Node1</title>
<g id="a_node2"><a xlink:title=" ">
<polygon fill="white" stroke="#bfbfbf" points="31.5,-292.5 31.5,-349.5 96.5,-349.5 96.5,-292.5 31.5,-292.5"/>
<text text-anchor="middle" x="64" y="-337.5" font-family="SegoeUI" font-size="10.00">IDisposable</text>
<polyline fill="none" stroke="#bfbfbf" points="31.5,-330.5 96.5,-330.5 "/>
<text text-anchor="middle" x="64" y="-318.5" font-family="SegoeUI" font-size="10.00"> </text>
<polyline fill="none" stroke="#bfbfbf" points="31.5,-311.5 96.5,-311.5 "/>
<text text-anchor="middle" x="64" y="-299.5" font-family="SegoeUI" font-size="10.00"> </text>
</a>
</g>
</g>
<!-- Node1&#45;&gt;Node0 -->
<g id="edge1" class="edge"><title>Node1&#45;&gt;Node0</title>
<path fill="none" stroke="midnightblue" d="M64,-282.196C64,-274.157 64,-265.246 64,-255.881"/>
<polygon fill="none" stroke="midnightblue" points="60.5001,-282.227 64,-292.227 67.5001,-282.227 60.5001,-282.227"/>
</g>
</g>
</svg>
