<?xml version="1.0" encoding="UTF-8" standalone="no"?>
<!DOCTYPE svg PUBLIC "-//W3C//DTD SVG 1.1//EN"
 "http://www.w3.org/Graphics/SVG/1.1/DTD/svg11.dtd">
<!-- Generated by graphviz version 2.38.0 (20140413.2041)
 -->
<!-- Title: Juniper.Unity.Audio.DefaultInteractionAudio Pages: 1 -->
<svg width="178pt" height="848pt"
 viewBox="0.00 0.00 177.50 848.00" xmlns="http://www.w3.org/2000/svg" xmlns:xlink="http://www.w3.org/1999/xlink">
<g id="graph0" class="graph" transform="scale(1 1) rotate(0) translate(4 844)">
<title>Juniper.Unity.Audio.DefaultInteractionAudio</title>
<polygon fill="white" stroke="none" points="-4,4 -4,-844 173.5,-844 173.5,4 -4,4"/>
<!-- Node0 -->
<g id="node1" class="node"><title>Node0</title>
<g id="a_node1"><a xlink:title=" ">
<polygon fill="#bfbfbf" stroke="black" points="22.5,-0.5 22.5,-68.5 153.5,-68.5 153.5,-0.5 22.5,-0.5"/>
<text text-anchor="start" x="30.5" y="-56.5" font-family="SegoeUI" font-size="10.00">Juniper.Unity.Audio.Default</text>
<text text-anchor="middle" x="88" y="-45.5" font-family="SegoeUI" font-size="10.00">InteractionAudio</text>
<polyline fill="none" stroke="black" points="22.5,-38.5 153.5,-38.5 "/>
<text text-anchor="middle" x="88" y="-26.5" font-family="SegoeUI" font-size="10.00"> </text>
<polyline fill="none" stroke="black" points="22.5,-19.5 153.5,-19.5 "/>
<text text-anchor="middle" x="88" y="-7.5" font-family="SegoeUI" font-size="10.00"> </text>
</a>
</g>
</g>
<!-- Node1 -->
<g id="node2" class="node"><title>Node1</title>
<g id="a_node2"><a xlink:href="../../d2/dab/class_juniper_1_1_unity_1_1_audio_1_1_abstract_interaction_audio.html" target="_top" xlink:title="The audio portion of the interaction system.">
<polygon fill="white" stroke="black" points="22,-105.5 22,-723.5 154,-723.5 154,-105.5 22,-105.5"/>
<text text-anchor="middle" x="88" y="-711.5" font-family="SegoeUI" font-size="10.00">AbstractInteractionAudio</text>
<polyline fill="none" stroke="black" points="22,-704.5 154,-704.5 "/>
<text text-anchor="start" x="30" y="-692.5" font-family="SegoeUI" font-size="10.00">+ defaultMixerGroup</text>
<text text-anchor="start" x="30" y="-681.5" font-family="SegoeUI" font-size="10.00">+ volumeSlider</text>
<text text-anchor="start" x="30" y="-670.5" font-family="SegoeUI" font-size="10.00">+ soundOnClosed</text>
<text text-anchor="start" x="30" y="-659.5" font-family="SegoeUI" font-size="10.00">+ soundOnDisabled</text>
<text text-anchor="start" x="30" y="-648.5" font-family="SegoeUI" font-size="10.00">+ soundOnDragged</text>
<text text-anchor="start" x="30" y="-637.5" font-family="SegoeUI" font-size="10.00">+ soundOnEntered</text>
<text text-anchor="start" x="30" y="-626.5" font-family="SegoeUI" font-size="10.00">+ soundOnError</text>
<text text-anchor="start" x="30" y="-615.5" font-family="SegoeUI" font-size="10.00">+ soundOnExited</text>
<text text-anchor="start" x="30" y="-604.5" font-family="SegoeUI" font-size="10.00">+ soundOnOpened</text>
<text text-anchor="start" x="30" y="-593.5" font-family="SegoeUI" font-size="10.00">+ soundOnReleased</text>
<text text-anchor="start" x="30" y="-582.5" font-family="SegoeUI" font-size="10.00">+ soundOnScrolled</text>
<text text-anchor="start" x="30" y="-571.5" font-family="SegoeUI" font-size="10.00">+ soundOnSelected</text>
<text text-anchor="start" x="30" y="-560.5" font-family="SegoeUI" font-size="10.00">+ soundOnSuccess</text>
<text text-anchor="start" x="30" y="-549.5" font-family="SegoeUI" font-size="10.00">+ soundOnStartUp</text>
<text text-anchor="start" x="30" y="-538.5" font-family="SegoeUI" font-size="10.00">+ soundOnShutDown</text>
<text text-anchor="start" x="30" y="-527.5" font-family="SegoeUI" font-size="10.00">+ DefaultAudioMixer</text>
<text text-anchor="start" x="30" y="-516.5" font-family="SegoeUI" font-size="10.00">+ Volume</text>
<text text-anchor="start" x="30" y="-505.5" font-family="SegoeUI" font-size="10.00"># listener</text>
<text text-anchor="start" x="30" y="-494.5" font-family="SegoeUI" font-size="10.00">&#45; MASTER_VOLUME_KEY</text>
<text text-anchor="start" x="30" y="-483.5" font-family="SegoeUI" font-size="10.00">&#45; volume</text>
<text text-anchor="start" x="30" y="-472.5" font-family="SegoeUI" font-size="10.00">&#45; startUp</text>
<text text-anchor="start" x="30" y="-461.5" font-family="SegoeUI" font-size="10.00">&#45; shutDown</text>
<text text-anchor="start" x="30" y="-450.5" font-family="SegoeUI" font-size="10.00">&#45; audioSources</text>
<text text-anchor="start" x="30" y="-439.5" font-family="SegoeUI" font-size="10.00">&#45; camT</text>
<text text-anchor="start" x="30" y="-428.5" font-family="SegoeUI" font-size="10.00">&#45; E</text>
<text text-anchor="start" x="30" y="-417.5" font-family="SegoeUI" font-size="10.00">&#45; instance</text>
<polyline fill="none" stroke="black" points="22,-410.5 154,-410.5 "/>
<text text-anchor="start" x="30" y="-398.5" font-family="SegoeUI" font-size="10.00">+ Spatialize()</text>
<text text-anchor="start" x="30" y="-387.5" font-family="SegoeUI" font-size="10.00">+ Spatialize()</text>
<text text-anchor="start" x="30" y="-376.5" font-family="SegoeUI" font-size="10.00">+ Spatialize()</text>
<text text-anchor="start" x="30" y="-365.5" font-family="SegoeUI" font-size="10.00">+ Spatialize()</text>
<text text-anchor="start" x="30" y="-354.5" font-family="SegoeUI" font-size="10.00">+ Install()</text>
<text text-anchor="start" x="30" y="-343.5" font-family="SegoeUI" font-size="10.00">+ Reinstall()</text>
<text text-anchor="start" x="30" y="-332.5" font-family="SegoeUI" font-size="10.00">+ Uninstall()</text>
<text text-anchor="start" x="30" y="-321.5" font-family="SegoeUI" font-size="10.00">+ Awake()</text>
<text text-anchor="start" x="30" y="-310.5" font-family="SegoeUI" font-size="10.00">+ Start()</text>
<text text-anchor="start" x="30" y="-299.5" font-family="SegoeUI" font-size="10.00">+ OnValidate()</text>
<text text-anchor="start" x="30" y="-288.5" font-family="SegoeUI" font-size="10.00">+ GetHapticExpressions()</text>
<text text-anchor="start" x="30" y="-277.5" font-family="SegoeUI" font-size="10.00">+ Play()</text>
<text text-anchor="start" x="30" y="-266.5" font-family="SegoeUI" font-size="10.00">+ Play()</text>
<text text-anchor="start" x="30" y="-255.5" font-family="SegoeUI" font-size="10.00">+ Play()</text>
<text text-anchor="start" x="30" y="-244.5" font-family="SegoeUI" font-size="10.00">+ Play()</text>
<text text-anchor="start" x="30" y="-233.5" font-family="SegoeUI" font-size="10.00"># InternalSpatialize()</text>
<text text-anchor="start" x="30" y="-222.5" font-family="SegoeUI" font-size="10.00">&#45; Volume_ValueChange()</text>
<text text-anchor="start" x="30" y="-211.5" font-family="SegoeUI" font-size="10.00">&#45; GetClipCollection()</text>
<text text-anchor="start" x="30" y="-200.5" font-family="SegoeUI" font-size="10.00">&#45; Wait()</text>
<text text-anchor="start" x="30" y="-189.5" font-family="SegoeUI" font-size="10.00">&#45; Play_Internal()</text>
<text text-anchor="start" x="30" y="-178.5" font-family="SegoeUI" font-size="10.00">&#45; Play_Internal()</text>
<text text-anchor="start" x="30" y="-167.5" font-family="SegoeUI" font-size="10.00">&#45; Play_Internal()</text>
<text text-anchor="start" x="30" y="-156.5" font-family="SegoeUI" font-size="10.00">&#45; Play_Internal()</text>
<text text-anchor="start" x="30" y="-145.5" font-family="SegoeUI" font-size="10.00">&#45; PlayHaptics()</text>
<text text-anchor="start" x="30" y="-134.5" font-family="SegoeUI" font-size="10.00">&#45; PlayClip()</text>
<text text-anchor="start" x="30" y="-123.5" font-family="SegoeUI" font-size="10.00">&#45; GetAudioSource()</text>
<text text-anchor="start" x="30" y="-112.5" font-family="SegoeUI" font-size="10.00">&#45; CreateNewAudioSource()</text>
</a>
</g>
</g>
<!-- Node1&#45;&gt;Node0 -->
<g id="edge1" class="edge"><title>Node1&#45;&gt;Node0</title>
<path fill="none" stroke="midnightblue" d="M88,-95.1451C88,-85.309 88,-76.3713 88,-68.5821"/>
<polygon fill="none" stroke="midnightblue" points="84.5001,-95.2715 88,-105.272 91.5001,-95.2716 84.5001,-95.2715"/>
</g>
<!-- Node2 -->
<g id="node3" class="node"><title>Node2</title>
<g id="a_node3"><a xlink:title=" ">
<polygon fill="white" stroke="#bfbfbf" points="0,-771.5 0,-828.5 82,-828.5 82,-771.5 0,-771.5"/>
<text text-anchor="middle" x="41" y="-816.5" font-family="SegoeUI" font-size="10.00">MonoBehaviour</text>
<polyline fill="none" stroke="#bfbfbf" points="0,-809.5 82,-809.5 "/>
<text text-anchor="middle" x="41" y="-797.5" font-family="SegoeUI" font-size="10.00"> </text>
<polyline fill="none" stroke="#bfbfbf" points="0,-790.5 82,-790.5 "/>
<text text-anchor="middle" x="41" y="-778.5" font-family="SegoeUI" font-size="10.00"> </text>
</a>
</g>
</g>
<!-- Node2&#45;&gt;Node1 -->
<g id="edge2" class="edge"><title>Node2&#45;&gt;Node1</title>
<path fill="none" stroke="midnightblue" d="M45.6231,-761.277C46.9463,-750.48 48.5025,-737.783 50.223,-723.744"/>
<polygon fill="none" stroke="midnightblue" points="42.1227,-761.068 44.3801,-771.42 49.0707,-761.92 42.1227,-761.068"/>
</g>
<!-- Node3 -->
<g id="node4" class="node"><title>Node3</title>
<g id="a_node4"><a xlink:href="../../db/d28/interface_juniper_1_1_i_installable.html" target="_top" xlink:title="Defines an interface for objects that can be installed and have their installation progress tracked.">
<polygon fill="white" stroke="black" points="100.5,-760.5 100.5,-839.5 169.5,-839.5 169.5,-760.5 100.5,-760.5"/>
<text text-anchor="middle" x="135" y="-827.5" font-family="SegoeUI" font-size="10.00">IInstallable</text>
<polyline fill="none" stroke="black" points="100.5,-820.5 169.5,-820.5 "/>
<text text-anchor="middle" x="135" y="-808.5" font-family="SegoeUI" font-size="10.00"> </text>
<polyline fill="none" stroke="black" points="100.5,-801.5 169.5,-801.5 "/>
<text text-anchor="start" x="108.5" y="-789.5" font-family="SegoeUI" font-size="10.00">+ Install()</text>
<text text-anchor="start" x="108.5" y="-778.5" font-family="SegoeUI" font-size="10.00">+ Reinstall()</text>
<text text-anchor="start" x="108.5" y="-767.5" font-family="SegoeUI" font-size="10.00">+ Uninstall()</text>
</a>
</g>
</g>
<!-- Node3&#45;&gt;Node1 -->
<g id="edge3" class="edge"><title>Node3&#45;&gt;Node1</title>
<path fill="none" stroke="midnightblue" d="M129.061,-750.537C128.056,-742.339 126.951,-733.327 125.77,-723.683"/>
<polygon fill="none" stroke="midnightblue" points="125.588,-750.973 130.278,-760.473 132.536,-750.121 125.588,-750.973"/>
</g>
</g>
</svg>
