<?xml version="1.0" encoding="UTF-8" standalone="no"?>
<!DOCTYPE svg PUBLIC "-//W3C//DTD SVG 1.1//EN"
 "http://www.w3.org/Graphics/SVG/1.1/DTD/svg11.dtd">
<!-- Generated by graphviz version 2.38.0 (20140413.2041)
 -->
<!-- Title: Juniper.Unity.Anchoring.ARKitAnchorStore Pages: 1 -->
<!--zoomable 552 -->
<svg id="main" version="1.1" xmlns="http://www.w3.org/2000/svg" xmlns:xlink="http://www.w3.org/1999/xlink" xml:space="preserve" onload="init(evt)">
<style type="text/css"><![CDATA[
.edge:hover path { stroke: red; }
.edge:hover polygon { stroke: red; fill: red; }
]]></style>
<script type="text/javascript"><![CDATA[
var edges = document.getElementsByTagName('g');
if (edges && edges.length) {
  for (var i=0;i<edges.length;i++) {
    if (edges[i].id.substr(0,4)=='edge') {
      edges[i].setAttribute('class','edge');
    }
  }
}
]]></script>
        <defs>
                <circle id="rim" cx="0" cy="0" r="7"/>
                <circle id="rim2" cx="0" cy="0" r="3.5"/>
                <g id="zoomPlus">
                        <use xlink:href="#rim" fill="#404040">
                                <set attributeName="fill" to="#808080" begin="zoomplus.mouseover" end="zoomplus.mouseout"/>
                        </use>
                        <path d="M-4,0h8M0,-4v8" fill="none" stroke="white" stroke-width="1.5" pointer-events="none"/>
                </g>
                <g id="zoomMin">
                        <use xlink:href="#rim" fill="#404040">
                                <set attributeName="fill" to="#808080" begin="zoomminus.mouseover" end="zoomminus.mouseout"/>
                        </use>
                        <path d="M-4,0h8" fill="none" stroke="white" stroke-width="1.5" pointer-events="none"/>
                </g>
                <g id="dirArrow">
                        <path fill="none" stroke="white" stroke-width="1.5" d="M0,-3.0v7 M-2.5,-0.5L0,-3.0L2.5,-0.5"/>
                </g>
               <g id="resetDef">
                       <use xlink:href="#rim2" fill="#404040">
                               <set attributeName="fill" to="#808080" begin="reset.mouseover" end="reset.mouseout"/>
                       </use>
               </g>
        </defs>

<script type="text/javascript">
var viewWidth = 229;
var viewHeight = 552;
var sectionId = 'dynsection-1';
</script>
<script xlink:href="../../svgpan.js"/>
<svg id="graph" class="graph">
<g id="viewport">
<title>Juniper.Unity.Anchoring.ARKitAnchorStore</title>
<polygon fill="white" stroke="none" points="-4,4 -4,-548 225,-548 225,4 -4,4"/>
<!-- Node3 -->
<g id="node1" class="node"><title>Node3</title>
<g id="a_node1"><a xlink:title=" ">
<polygon fill="#bfbfbf" stroke="black" points="20,-0.5 20,-145.5 140,-145.5 140,-0.5 20,-0.5"/>
<text text-anchor="start" x="28" y="-133.5" font-family="SegoeUI" font-size="10.00">Juniper.Unity.Anchoring.</text>
<text text-anchor="middle" x="80" y="-122.5" font-family="SegoeUI" font-size="10.00">ARKitAnchorStore</text>
<polyline fill="none" stroke="black" points="20,-115.5 140,-115.5 "/>
<text text-anchor="start" x="28" y="-103.5" font-family="SegoeUI" font-size="10.00">&#45; anchorStore</text>
<polyline fill="none" stroke="black" points="20,-96.5 140,-96.5 "/>
<text text-anchor="start" x="28" y="-84.5" font-family="SegoeUI" font-size="10.00">+ Awake()</text>
<text text-anchor="start" x="28" y="-73.5" font-family="SegoeUI" font-size="10.00">+ HasAnchor()</text>
<text text-anchor="start" x="28" y="-62.5" font-family="SegoeUI" font-size="10.00">+ ResetData()</text>
<text text-anchor="start" x="28" y="-51.5" font-family="SegoeUI" font-size="10.00"># FindAnchor()</text>
<text text-anchor="start" x="28" y="-40.5" font-family="SegoeUI" font-size="10.00"># LoadAnchor()</text>
<text text-anchor="start" x="28" y="-29.5" font-family="SegoeUI" font-size="10.00"># CreateAnchor()</text>
<text text-anchor="start" x="28" y="-18.5" font-family="SegoeUI" font-size="10.00"># SaveAnchor()</text>
<text text-anchor="start" x="28" y="-7.5" font-family="SegoeUI" font-size="10.00"># DeleteAnchor()</text>
</a>
</g>
</g>
<!-- Node4 -->
<g id="node2" class="node"><title>Node4</title>
<g id="a_node2"><a xlink:href="../../dd/dac/class_juniper_1_1_unity_1_1_anchoring_1_1_abstract_anchor_store.html" target="_top" xlink:title="A store for points in space that the system will restore on second&#45;run.">
<polygon fill="white" stroke="black" points="27.5,-183.5 27.5,-416.5 132.5,-416.5 132.5,-183.5 27.5,-183.5"/>
<text text-anchor="start" x="35.5" y="-404.5" font-family="SegoeUI" font-size="10.00">AbstractAnchorStore</text>
<text text-anchor="middle" x="80" y="-393.5" font-family="SegoeUI" font-size="10.00">&lt; AnchorType &gt;</text>
<polyline fill="none" stroke="black" points="27.5,-386.5 132.5,-386.5 "/>
<text text-anchor="start" x="35.5" y="-374.5" font-family="SegoeUI" font-size="10.00">+ NameList</text>
<polyline fill="none" stroke="black" points="27.5,-367.5 132.5,-367.5 "/>
<text text-anchor="start" x="35.5" y="-355.5" font-family="SegoeUI" font-size="10.00">+ ResetData()</text>
<text text-anchor="start" x="35.5" y="-344.5" font-family="SegoeUI" font-size="10.00">+ DropAnchor()</text>
<text text-anchor="start" x="35.5" y="-333.5" font-family="SegoeUI" font-size="10.00">+ WeighAnchor()</text>
<text text-anchor="start" x="35.5" y="-322.5" font-family="SegoeUI" font-size="10.00">+ HasAnchor()</text>
<text text-anchor="start" x="35.5" y="-311.5" font-family="SegoeUI" font-size="10.00"># SaveAnchor()</text>
<text text-anchor="start" x="35.5" y="-300.5" font-family="SegoeUI" font-size="10.00"># IsGood()</text>
<text text-anchor="start" x="35.5" y="-289.5" font-family="SegoeUI" font-size="10.00"># DeleteAnchor()</text>
<text text-anchor="start" x="35.5" y="-278.5" font-family="SegoeUI" font-size="10.00"># FindAnchor()</text>
<text text-anchor="start" x="35.5" y="-267.5" font-family="SegoeUI" font-size="10.00"># IsSaved()</text>
<text text-anchor="start" x="35.5" y="-256.5" font-family="SegoeUI" font-size="10.00"># CreateAnchor()</text>
<text text-anchor="start" x="35.5" y="-245.5" font-family="SegoeUI" font-size="10.00"># LoadAnchor()</text>
<text text-anchor="start" x="35.5" y="-234.5" font-family="SegoeUI" font-size="10.00"># MakeID()</text>
<text text-anchor="start" x="35.5" y="-223.5" font-family="SegoeUI" font-size="10.00"># HasValue()</text>
<text text-anchor="start" x="35.5" y="-212.5" font-family="SegoeUI" font-size="10.00"># SaveValue()</text>
<text text-anchor="start" x="35.5" y="-201.5" font-family="SegoeUI" font-size="10.00"># LoadValue&lt; T &gt;()</text>
<text text-anchor="start" x="35.5" y="-190.5" font-family="SegoeUI" font-size="10.00"># DeleteValue()</text>
</a>
</g>
</g>
<!-- Node4&#45;&gt;Node3 -->
<g id="edge1" class="edge"><title>Node4&#45;&gt;Node3</title>
<path fill="none" stroke="midnightblue" d="M80,-173.018C80,-163.665 80,-154.438 80,-145.601"/>
<polygon fill="none" stroke="midnightblue" points="76.5001,-173.204 80,-183.205 83.5001,-173.205 76.5001,-173.204"/>
</g>
<!-- Node5 -->
<g id="node3" class="node"><title>Node5</title>
<g id="a_node3"><a xlink:title=" ">
<polygon fill="white" stroke="#bfbfbf" points="0,-486.5 0,-543.5 82,-543.5 82,-486.5 0,-486.5"/>
<text text-anchor="middle" x="41" y="-531.5" font-family="SegoeUI" font-size="10.00">MonoBehaviour</text>
<polyline fill="none" stroke="#bfbfbf" points="0,-524.5 82,-524.5 "/>
<text text-anchor="middle" x="41" y="-512.5" font-family="SegoeUI" font-size="10.00"> </text>
<polyline fill="none" stroke="#bfbfbf" points="0,-505.5 82,-505.5 "/>
<text text-anchor="middle" x="41" y="-493.5" font-family="SegoeUI" font-size="10.00"> </text>
</a>
</g>
</g>
<!-- Node5&#45;&gt;Node4 -->
<g id="edge2" class="edge"><title>Node5&#45;&gt;Node4</title>
<path fill="none" stroke="midnightblue" d="M47.9307,-476.148C51.0363,-459.187 54.8831,-438.177 58.8219,-416.665"/>
<polygon fill="none" stroke="midnightblue" points="44.4569,-475.687 46.0986,-486.154 51.3425,-476.948 44.4569,-475.687"/>
</g>
<!-- Node6 -->
<g id="node4" class="node"><title>Node6</title>
<g id="a_node4"><a xlink:title=" ">
<polygon fill="white" stroke="#bfbfbf" points="100.5,-486.5 100.5,-543.5 139.5,-543.5 139.5,-486.5 100.5,-486.5"/>
<text text-anchor="middle" x="120" y="-531.5" font-family="SegoeUI" font-size="10.00">static</text>
<polyline fill="none" stroke="#bfbfbf" points="100.5,-524.5 139.5,-524.5 "/>
<text text-anchor="middle" x="120" y="-512.5" font-family="SegoeUI" font-size="10.00"> </text>
<polyline fill="none" stroke="#bfbfbf" points="100.5,-505.5 139.5,-505.5 "/>
<text text-anchor="middle" x="120" y="-493.5" font-family="SegoeUI" font-size="10.00"> </text>
</a>
</g>
</g>
<!-- Node6&#45;&gt;Node4 -->
<g id="edge3" class="edge"><title>Node6&#45;&gt;Node4</title>
<path fill="none" stroke="#404040" d="M114.771,-486.154C111.863,-470.669 108.013,-450.171 103.937,-428.464"/>
<polygon fill="none" stroke="#404040" points="103.936,-428.459 98.8973,-423.3 101.721,-416.665 106.76,-421.824 103.936,-428.459"/>
<text text-anchor="middle" x="166.5" y="-460" font-family="SegoeUI" font-size="10.00"> &#45;EMPTY_STRING_ARRAY</text>
<text text-anchor="middle" x="166.5" y="-449" font-family="SegoeUI" font-size="10.00">&#45;ID_PREFIX</text>
<text text-anchor="middle" x="166.5" y="-438" font-family="SegoeUI" font-size="10.00">&#45;KEY_LIST_KEY</text>
</g>
</g>
</svg>
        <g id="navigator" transform="translate(0 0)" fill="#404254">
                <rect fill="#f2f5e9" fill-opacity="0.5" stroke="#606060" stroke-width=".5" x="0" y="0" width="60" height="60"/>
                <use id="zoomplus" xlink:href="#zoomPlus" x="17" y="9" onmousedown="handleZoom(evt,'in')"/>
                <use id="zoomminus" xlink:href="#zoomMin" x="42" y="9" onmousedown="handleZoom(evt,'out')"/>
                <use id="reset" xlink:href="#resetDef" x="30" y="36" onmousedown="handleReset()"/>
                <g id="arrowUp" xlink:href="#dirArrow" transform="translate(30 24)" onmousedown="handlePan(0,-1)">
                  <use xlink:href="#rim" fill="#404040">
                        <set attributeName="fill" to="#808080" begin="arrowUp.mouseover" end="arrowUp.mouseout"/>
                  </use>
                  <path fill="none" stroke="white" stroke-width="1.5" d="M0,-3.0v7 M-2.5,-0.5L0,-3.0L2.5,-0.5"/>
                </g>
                <g id="arrowRight" xlink:href="#dirArrow" transform="rotate(90) translate(36 -43)" onmousedown="handlePan(1,0)">
                  <use xlink:href="#rim" fill="#404040">
                        <set attributeName="fill" to="#808080" begin="arrowRight.mouseover" end="arrowRight.mouseout"/>
                  </use>
                  <path fill="none" stroke="white" stroke-width="1.5" d="M0,-3.0v7 M-2.5,-0.5L0,-3.0L2.5,-0.5"/>
                </g>
                <g id="arrowDown" xlink:href="#dirArrow" transform="rotate(180) translate(-30 -48)" onmousedown="handlePan(0,1)">
                  <use xlink:href="#rim" fill="#404040">
                        <set attributeName="fill" to="#808080" begin="arrowDown.mouseover" end="arrowDown.mouseout"/>
                  </use>
                  <path fill="none" stroke="white" stroke-width="1.5" d="M0,-3.0v7 M-2.5,-0.5L0,-3.0L2.5,-0.5"/>
                </g>
                <g id="arrowLeft" xlink:href="#dirArrow" transform="rotate(270) translate(-36 17)" onmousedown="handlePan(-1,0)">
                  <use xlink:href="#rim" fill="#404040">
                        <set attributeName="fill" to="#808080" begin="arrowLeft.mouseover" end="arrowLeft.mouseout"/>
                  </use>
                  <path fill="none" stroke="white" stroke-width="1.5" d="M0,-3.0v7 M-2.5,-0.5L0,-3.0L2.5,-0.5"/>
                </g>
        </g>
        <svg viewBox="0 0 15 15" width="100%" height="30px" preserveAspectRatio="xMaxYMin meet">
         <g id="arrow_out" transform="scale(0.3 0.3)">
          <a xlink:href="class_juniper_1_1_unity_1_1_anchoring_1_1_a_r_kit_anchor_store__coll__graph_org.svg" target="_base">
           <rect id="button" ry="5" rx="5" y="6" x="6" height="38" width="38"
                fill="#f2f5e9" fill-opacity="0.5" stroke="#606060" stroke-width="1.0"/>
           <path id="arrow"
             d="M 11.500037,31.436501 C 11.940474,20.09759 22.043105,11.32322 32.158766,21.979434 L 37.068811,17.246167 C 37.068811,17.246167 37.088388,32 37.088388,32 L 22.160133,31.978069 C 22.160133,31.978069 26.997745,27.140456 26.997745,27.140456 C 18.528582,18.264221 13.291696,25.230495 11.500037,31.436501 z"
             style="fill:#404040;"/>
          </a>
         </g>
        </svg>
</svg>
