<?xml version="1.0" encoding="UTF-8" standalone="no"?>
<!DOCTYPE svg PUBLIC "-//W3C//DTD SVG 1.1//EN"
 "http://www.w3.org/Graphics/SVG/1.1/DTD/svg11.dtd">
<!-- Generated by graphviz version 2.38.0 (20140413.2041)
 -->
<!-- Title: Juniper.Data.AbstractBackgroundRepeatingThread Pages: 1 -->
<svg width="166pt" height="292pt"
 viewBox="0.00 0.00 166.00 292.00" xmlns="http://www.w3.org/2000/svg" xmlns:xlink="http://www.w3.org/1999/xlink">
<g id="graph0" class="graph" transform="scale(1 1) rotate(0) translate(4 288)">
<title>Juniper.Data.AbstractBackgroundRepeatingThread</title>
<polygon fill="white" stroke="none" points="-4,4 -4,-288 162,-288 162,4 -4,4"/>
<!-- Node4 -->
<g id="node1" class="node"><title>Node4</title>
<g id="a_node1"><a xlink:title="Performs an operation in a loop on a background thread.">
<polygon fill="#bfbfbf" stroke="black" points="0,-0.5 0,-123.5 158,-123.5 158,-0.5 0,-0.5"/>
<text text-anchor="start" x="8" y="-111.5" font-family="SegoeUI" font-size="10.00">Juniper.Data.AbstractBackground</text>
<text text-anchor="middle" x="79" y="-100.5" font-family="SegoeUI" font-size="10.00">RepeatingThread</text>
<polyline fill="none" stroke="black" points="0,-93.5 158,-93.5 "/>
<text text-anchor="start" x="8" y="-81.5" font-family="SegoeUI" font-size="10.00">+ Running</text>
<text text-anchor="start" x="8" y="-70.5" font-family="SegoeUI" font-size="10.00">&#45; stopping</text>
<polyline fill="none" stroke="black" points="0,-63.5 158,-63.5 "/>
<text text-anchor="start" x="8" y="-51.5" font-family="SegoeUI" font-size="10.00">+ Stop()</text>
<text text-anchor="start" x="8" y="-40.5" font-family="SegoeUI" font-size="10.00"># Awake()</text>
<text text-anchor="start" x="8" y="-29.5" font-family="SegoeUI" font-size="10.00"># OnBegin()</text>
<text text-anchor="start" x="8" y="-18.5" font-family="SegoeUI" font-size="10.00"># Execute()</text>
<text text-anchor="start" x="8" y="-7.5" font-family="SegoeUI" font-size="10.00"># Loop()</text>
</a>
</g>
</g>
<!-- Node5 -->
<g id="node2" class="node"><title>Node5</title>
<g id="a_node2"><a xlink:href="../../dd/da7/class_juniper_1_1_data_1_1_abstract_background_thread.html" target="_top" xlink:title="An abstract class for performing an operation on a background thread.">
<polygon fill="white" stroke="black" points="13,-160.5 13,-283.5 145,-283.5 145,-160.5 13,-160.5"/>
<text text-anchor="middle" x="79" y="-271.5" font-family="SegoeUI" font-size="10.00">AbstractBackgroundThread</text>
<polyline fill="none" stroke="black" points="13,-264.5 145,-264.5 "/>
<text text-anchor="start" x="21" y="-252.5" font-family="SegoeUI" font-size="10.00">+ Running</text>
<text text-anchor="start" x="21" y="-241.5" font-family="SegoeUI" font-size="10.00">&#45; running</text>
<polyline fill="none" stroke="black" points="13,-234.5 145,-234.5 "/>
<text text-anchor="start" x="21" y="-222.5" font-family="SegoeUI" font-size="10.00"># OnError()</text>
<text text-anchor="start" x="21" y="-211.5" font-family="SegoeUI" font-size="10.00"># Awake()</text>
<text text-anchor="start" x="21" y="-200.5" font-family="SegoeUI" font-size="10.00"># Begin()</text>
<text text-anchor="start" x="21" y="-189.5" font-family="SegoeUI" font-size="10.00"># OnBegin()</text>
<text text-anchor="start" x="21" y="-178.5" font-family="SegoeUI" font-size="10.00"># Execute()</text>
<text text-anchor="start" x="21" y="-167.5" font-family="SegoeUI" font-size="10.00">&#45; Run()</text>
</a>
</g>
</g>
<!-- Node5&#45;&gt;Node4 -->
<g id="edge1" class="edge"><title>Node5&#45;&gt;Node4</title>
<path fill="none" stroke="midnightblue" d="M79,-150.116C79,-141.31 79,-132.368 79,-123.734"/>
<polygon fill="none" stroke="midnightblue" points="75.5001,-150.365 79,-160.365 82.5001,-150.365 75.5001,-150.365"/>
</g>
</g>
</svg>
