<?xml version="1.0" encoding="UTF-8" standalone="no"?>
<!DOCTYPE svg PUBLIC "-//W3C//DTD SVG 1.1//EN"
 "http://www.w3.org/Graphics/SVG/1.1/DTD/svg11.dtd">
<!-- Generated by graphviz version 2.38.0 (20140413.2041)
 -->
<!-- Title: Hjg.Pngcs.Chunks.PngChunkSTER Pages: 1 -->
<!--zoomable 735 -->
<svg id="main" version="1.1" xmlns="http://www.w3.org/2000/svg" xmlns:xlink="http://www.w3.org/1999/xlink" xml:space="preserve" onload="init(evt)">
<style type="text/css"><![CDATA[
.edge:hover path { stroke: red; }
.edge:hover polygon { stroke: red; fill: red; }
]]></style>
<script type="text/javascript"><![CDATA[
var edges = document.getElementsByTagName('g');
if (edges && edges.length) {
  for (var i=0;i<edges.length;i++) {
    if (edges[i].id.substr(0,4)=='edge') {
      edges[i].setAttribute('class','edge');
    }
  }
}
]]></script>
        <defs>
                <circle id="rim" cx="0" cy="0" r="7"/>
                <circle id="rim2" cx="0" cy="0" r="3.5"/>
                <g id="zoomPlus">
                        <use xlink:href="#rim" fill="#404040">
                                <set attributeName="fill" to="#808080" begin="zoomplus.mouseover" end="zoomplus.mouseout"/>
                        </use>
                        <path d="M-4,0h8M0,-4v8" fill="none" stroke="white" stroke-width="1.5" pointer-events="none"/>
                </g>
                <g id="zoomMin">
                        <use xlink:href="#rim" fill="#404040">
                                <set attributeName="fill" to="#808080" begin="zoomminus.mouseover" end="zoomminus.mouseout"/>
                        </use>
                        <path d="M-4,0h8" fill="none" stroke="white" stroke-width="1.5" pointer-events="none"/>
                </g>
                <g id="dirArrow">
                        <path fill="none" stroke="white" stroke-width="1.5" d="M0,-3.0v7 M-2.5,-0.5L0,-3.0L2.5,-0.5"/>
                </g>
               <g id="resetDef">
                       <use xlink:href="#rim2" fill="#404040">
                               <set attributeName="fill" to="#808080" begin="reset.mouseover" end="reset.mouseout"/>
                       </use>
               </g>
        </defs>

<script type="text/javascript">
var viewWidth = 169;
var viewHeight = 735;
var sectionId = 'dynsection-1';
</script>
<script xlink:href="../../svgpan.js"/>
<svg id="graph" class="graph">
<g id="viewport">
<title>Hjg.Pngcs.Chunks.PngChunkSTER</title>
<polygon fill="white" stroke="none" points="-4,4 -4,-731 165,-731 165,4 -4,4"/>
<!-- Node3 -->
<g id="node1" class="node"><title>Node3</title>
<g id="a_node1"><a xlink:title="sTER chunk: http://www.libpng.org/pub/png/spec/register/pngext&#45;1.3.0&#45;pdg.html#C.sTER">
<polygon fill="#bfbfbf" stroke="black" points="0,-0.5 0,-123.5 161,-123.5 161,-0.5 0,-0.5"/>
<text text-anchor="middle" x="80.5" y="-111.5" font-family="SegoeUI" font-size="10.00">Hjg.Pngcs.Chunks.PngChunkSTER</text>
<polyline fill="none" stroke="black" points="0,-104.5 161,-104.5 "/>
<text text-anchor="start" x="8" y="-92.5" font-family="SegoeUI" font-size="10.00">+ ID</text>
<text text-anchor="start" x="8" y="-81.5" font-family="SegoeUI" font-size="10.00">+ Mode</text>
<polyline fill="none" stroke="black" points="0,-74.5 161,-74.5 "/>
<text text-anchor="start" x="8" y="-62.5" font-family="SegoeUI" font-size="10.00">+ PngChunkSTER()</text>
<text text-anchor="start" x="8" y="-51.5" font-family="SegoeUI" font-size="10.00">+ GetOrderingConstraint()</text>
<text text-anchor="start" x="8" y="-40.5" font-family="SegoeUI" font-size="10.00">+ CreateRawChunk()</text>
<text text-anchor="start" x="8" y="-29.5" font-family="SegoeUI" font-size="10.00">+ ParseFromRaw()</text>
<text text-anchor="start" x="8" y="-18.5" font-family="SegoeUI" font-size="10.00">+ CloneDataFromRead()</text>
<text text-anchor="start" x="8" y="-7.5" font-family="SegoeUI" font-size="10.00">&#45; CloneData()</text>
</a>
</g>
</g>
<!-- Node4 -->
<g id="node2" class="node"><title>Node4</title>
<g id="a_node2"><a xlink:href="../../d2/dc1/class_hjg_1_1_pngcs_1_1_chunks_1_1_png_chunk_single.html" target="_top" xlink:title="A Chunk type that does not allow duplicate in an image">
<polygon fill="white" stroke="black" points="29.5,-161.5 29.5,-251.5 131.5,-251.5 131.5,-161.5 29.5,-161.5"/>
<text text-anchor="middle" x="80.5" y="-239.5" font-family="SegoeUI" font-size="10.00">PngChunkSingle</text>
<polyline fill="none" stroke="black" points="29.5,-232.5 131.5,-232.5 "/>
<text text-anchor="middle" x="80.5" y="-220.5" font-family="SegoeUI" font-size="10.00"> </text>
<polyline fill="none" stroke="black" points="29.5,-213.5 131.5,-213.5 "/>
<text text-anchor="start" x="37.5" y="-201.5" font-family="SegoeUI" font-size="10.00">+ AllowsMultiple()</text>
<text text-anchor="start" x="37.5" y="-190.5" font-family="SegoeUI" font-size="10.00">+ GetHashCode()</text>
<text text-anchor="start" x="37.5" y="-179.5" font-family="SegoeUI" font-size="10.00">+ Equals()</text>
<text text-anchor="start" x="37.5" y="-168.5" font-family="SegoeUI" font-size="10.00"># PngChunkSingle()</text>
</a>
</g>
</g>
<!-- Node4&#45;&gt;Node3 -->
<g id="edge1" class="edge"><title>Node4&#45;&gt;Node3</title>
<path fill="none" stroke="midnightblue" d="M80.5,-151.177C80.5,-142.13 80.5,-132.696 80.5,-123.507"/>
<polygon fill="none" stroke="midnightblue" points="77.0001,-151.193 80.5,-161.193 84.0001,-151.193 77.0001,-151.193"/>
</g>
<!-- Node5 -->
<g id="node3" class="node"><title>Node5</title>
<g id="a_node3"><a xlink:href="../../d8/dd4/class_hjg_1_1_pngcs_1_1_chunks_1_1_abstract_png_chunk.html" target="_top" xlink:title="Represents a instance of a PNG chunk">
<polygon fill="white" stroke="black" points="16.5,-289.5 16.5,-621.5 144.5,-621.5 144.5,-289.5 16.5,-289.5"/>
<text text-anchor="middle" x="80.5" y="-609.5" font-family="SegoeUI" font-size="10.00">AbstractPngChunk</text>
<polyline fill="none" stroke="black" points="16.5,-602.5 144.5,-602.5 "/>
<text text-anchor="start" x="24.5" y="-590.5" font-family="SegoeUI" font-size="10.00">+ Id</text>
<text text-anchor="start" x="24.5" y="-579.5" font-family="SegoeUI" font-size="10.00">+ Crit</text>
<text text-anchor="start" x="24.5" y="-568.5" font-family="SegoeUI" font-size="10.00">+ Pub</text>
<text text-anchor="start" x="24.5" y="-557.5" font-family="SegoeUI" font-size="10.00">+ Safe</text>
<text text-anchor="start" x="24.5" y="-546.5" font-family="SegoeUI" font-size="10.00">+ ImgInfo</text>
<text text-anchor="start" x="24.5" y="-535.5" font-family="SegoeUI" font-size="10.00">+ Priority</text>
<text text-anchor="start" x="24.5" y="-524.5" font-family="SegoeUI" font-size="10.00">+ ChunkGroup</text>
<text text-anchor="start" x="24.5" y="-513.5" font-family="SegoeUI" font-size="10.00">+ Length</text>
<text text-anchor="start" x="24.5" y="-502.5" font-family="SegoeUI" font-size="10.00">+ Offset</text>
<polyline fill="none" stroke="black" points="16.5,-495.5 144.5,-495.5 "/>
<text text-anchor="start" x="24.5" y="-483.5" font-family="SegoeUI" font-size="10.00">+ CreateEmptyChunk()</text>
<text text-anchor="start" x="24.5" y="-472.5" font-family="SegoeUI" font-size="10.00">+ ToString()</text>
<text text-anchor="start" x="24.5" y="-461.5" font-family="SegoeUI" font-size="10.00">+ CreateRawChunk()</text>
<text text-anchor="start" x="24.5" y="-450.5" font-family="SegoeUI" font-size="10.00">+ ParseFromRaw()</text>
<text text-anchor="start" x="24.5" y="-439.5" font-family="SegoeUI" font-size="10.00">+ CloneDataFromRead()</text>
<text text-anchor="start" x="24.5" y="-428.5" font-family="SegoeUI" font-size="10.00">+ AllowsMultiple()</text>
<text text-anchor="start" x="24.5" y="-417.5" font-family="SegoeUI" font-size="10.00">+ GetOrderingConstraint()</text>
<text text-anchor="start" x="24.5" y="-406.5" font-family="SegoeUI" font-size="10.00">+ FactoryRegister()</text>
<text text-anchor="start" x="24.5" y="-395.5" font-family="SegoeUI" font-size="10.00">+ CloneChunk&lt; T &gt;()</text>
<text text-anchor="start" x="24.5" y="-384.5" font-family="SegoeUI" font-size="10.00"># AbstractPngChunk()</text>
<text text-anchor="start" x="24.5" y="-373.5" font-family="SegoeUI" font-size="10.00">&#45; MustGoBeforePLTE()</text>
<text text-anchor="start" x="24.5" y="-362.5" font-family="SegoeUI" font-size="10.00">&#45; MustGoBeforeIDAT()</text>
<text text-anchor="start" x="24.5" y="-351.5" font-family="SegoeUI" font-size="10.00">&#45; MustGoAfterPLTE()</text>
<text text-anchor="start" x="24.5" y="-340.5" font-family="SegoeUI" font-size="10.00">&#45; Write()</text>
<text text-anchor="start" x="24.5" y="-329.5" font-family="SegoeUI" font-size="10.00">&#45; InitFactory()</text>
<text text-anchor="start" x="24.5" y="-318.5" font-family="SegoeUI" font-size="10.00">&#45; IsKnown()</text>
<text text-anchor="start" x="24.5" y="-307.5" font-family="SegoeUI" font-size="10.00">&#45; Factory()</text>
<text text-anchor="start" x="24.5" y="-296.5" font-family="SegoeUI" font-size="10.00">&#45; FactoryFromId()</text>
</a>
</g>
</g>
<!-- Node5&#45;&gt;Node4 -->
<g id="edge2" class="edge"><title>Node5&#45;&gt;Node4</title>
<path fill="none" stroke="midnightblue" d="M80.5,-279.373C80.5,-269.509 80.5,-260.18 80.5,-251.713"/>
<polygon fill="none" stroke="midnightblue" points="77.0001,-279.404 80.5,-289.404 84.0001,-279.404 77.0001,-279.404"/>
</g>
<!-- Node6 -->
<g id="node4" class="node"><title>Node6</title>
<g id="a_node4"><a xlink:title=" ">
<polygon fill="white" stroke="#bfbfbf" points="61,-669.5 61,-726.5 100,-726.5 100,-669.5 61,-669.5"/>
<text text-anchor="middle" x="80.5" y="-714.5" font-family="SegoeUI" font-size="10.00">static</text>
<polyline fill="none" stroke="#bfbfbf" points="61,-707.5 100,-707.5 "/>
<text text-anchor="middle" x="80.5" y="-695.5" font-family="SegoeUI" font-size="10.00"> </text>
<polyline fill="none" stroke="#bfbfbf" points="61,-688.5 100,-688.5 "/>
<text text-anchor="middle" x="80.5" y="-676.5" font-family="SegoeUI" font-size="10.00"> </text>
</a>
</g>
</g>
<!-- Node6&#45;&gt;Node5 -->
<g id="edge3" class="edge"><title>Node6&#45;&gt;Node5</title>
<path fill="none" stroke="#404040" d="M80.5,-669.412C80.5,-659.392 80.5,-647.194 80.5,-633.761"/>
<polygon fill="none" stroke="#404040" points="80.5001,-633.662 76.5,-627.662 80.5,-621.662 84.5,-627.662 80.5001,-633.662"/>
<text text-anchor="middle" x="108" y="-643" font-family="SegoeUI" font-size="10.00"> &#45;factoryMap</text>
</g>
</g>
</svg>
        <g id="navigator" transform="translate(0 0)" fill="#404254">
                <rect fill="#f2f5e9" fill-opacity="0.5" stroke="#606060" stroke-width=".5" x="0" y="0" width="60" height="60"/>
                <use id="zoomplus" xlink:href="#zoomPlus" x="17" y="9" onmousedown="handleZoom(evt,'in')"/>
                <use id="zoomminus" xlink:href="#zoomMin" x="42" y="9" onmousedown="handleZoom(evt,'out')"/>
                <use id="reset" xlink:href="#resetDef" x="30" y="36" onmousedown="handleReset()"/>
                <g id="arrowUp" xlink:href="#dirArrow" transform="translate(30 24)" onmousedown="handlePan(0,-1)">
                  <use xlink:href="#rim" fill="#404040">
                        <set attributeName="fill" to="#808080" begin="arrowUp.mouseover" end="arrowUp.mouseout"/>
                  </use>
                  <path fill="none" stroke="white" stroke-width="1.5" d="M0,-3.0v7 M-2.5,-0.5L0,-3.0L2.5,-0.5"/>
                </g>
                <g id="arrowRight" xlink:href="#dirArrow" transform="rotate(90) translate(36 -43)" onmousedown="handlePan(1,0)">
                  <use xlink:href="#rim" fill="#404040">
                        <set attributeName="fill" to="#808080" begin="arrowRight.mouseover" end="arrowRight.mouseout"/>
                  </use>
                  <path fill="none" stroke="white" stroke-width="1.5" d="M0,-3.0v7 M-2.5,-0.5L0,-3.0L2.5,-0.5"/>
                </g>
                <g id="arrowDown" xlink:href="#dirArrow" transform="rotate(180) translate(-30 -48)" onmousedown="handlePan(0,1)">
                  <use xlink:href="#rim" fill="#404040">
                        <set attributeName="fill" to="#808080" begin="arrowDown.mouseover" end="arrowDown.mouseout"/>
                  </use>
                  <path fill="none" stroke="white" stroke-width="1.5" d="M0,-3.0v7 M-2.5,-0.5L0,-3.0L2.5,-0.5"/>
                </g>
                <g id="arrowLeft" xlink:href="#dirArrow" transform="rotate(270) translate(-36 17)" onmousedown="handlePan(-1,0)">
                  <use xlink:href="#rim" fill="#404040">
                        <set attributeName="fill" to="#808080" begin="arrowLeft.mouseover" end="arrowLeft.mouseout"/>
                  </use>
                  <path fill="none" stroke="white" stroke-width="1.5" d="M0,-3.0v7 M-2.5,-0.5L0,-3.0L2.5,-0.5"/>
                </g>
        </g>
        <svg viewBox="0 0 15 15" width="100%" height="30px" preserveAspectRatio="xMaxYMin meet">
         <g id="arrow_out" transform="scale(0.3 0.3)">
          <a xlink:href="class_hjg_1_1_pngcs_1_1_chunks_1_1_png_chunk_s_t_e_r__coll__graph_org.svg" target="_base">
           <rect id="button" ry="5" rx="5" y="6" x="6" height="38" width="38"
                fill="#f2f5e9" fill-opacity="0.5" stroke="#606060" stroke-width="1.0"/>
           <path id="arrow"
             d="M 11.500037,31.436501 C 11.940474,20.09759 22.043105,11.32322 32.158766,21.979434 L 37.068811,17.246167 C 37.068811,17.246167 37.088388,32 37.088388,32 L 22.160133,31.978069 C 22.160133,31.978069 26.997745,27.140456 26.997745,27.140456 C 18.528582,18.264221 13.291696,25.230495 11.500037,31.436501 z"
             style="fill:#404040;"/>
          </a>
         </g>
        </svg>
</svg>
