<?xml version="1.0" encoding="UTF-8" standalone="no"?>
<!DOCTYPE svg PUBLIC "-//W3C//DTD SVG 1.1//EN"
 "http://www.w3.org/Graphics/SVG/1.1/DTD/svg11.dtd">
<!-- Generated by graphviz version 2.38.0 (20140413.2041)
 -->
<!-- Title: Juniper.Anchoring.ARKitAnchorStore Pages: 1 -->
<svg width="157pt" height="656pt"
 viewBox="0.00 0.00 157.00 656.00" xmlns="http://www.w3.org/2000/svg" xmlns:xlink="http://www.w3.org/1999/xlink">
<g id="graph0" class="graph" transform="scale(1 1) rotate(0) translate(4 652)">
<title>Juniper.Anchoring.ARKitAnchorStore</title>
<polygon fill="white" stroke="none" points="-4,4 -4,-652 153,-652 153,4 -4,4"/>
<!-- Node0 -->
<g id="node1" class="node"><title>Node0</title>
<g id="a_node1"><a xlink:title=" ">
<polygon fill="#bfbfbf" stroke="black" points="0,-105.5 0,-250.5 149,-250.5 149,-105.5 0,-105.5"/>
<text text-anchor="start" x="8" y="-238.5" font-family="SegoeUI" font-size="10.00">Juniper.Anchoring.ARKitAnchor</text>
<text text-anchor="middle" x="74.5" y="-227.5" font-family="SegoeUI" font-size="10.00">Store</text>
<polyline fill="none" stroke="black" points="0,-220.5 149,-220.5 "/>
<text text-anchor="start" x="8" y="-208.5" font-family="SegoeUI" font-size="10.00">&#45; anchorStore</text>
<polyline fill="none" stroke="black" points="0,-201.5 149,-201.5 "/>
<text text-anchor="start" x="8" y="-189.5" font-family="SegoeUI" font-size="10.00">+ Awake()</text>
<text text-anchor="start" x="8" y="-178.5" font-family="SegoeUI" font-size="10.00">+ HasAnchor()</text>
<text text-anchor="start" x="8" y="-167.5" font-family="SegoeUI" font-size="10.00">+ ResetData()</text>
<text text-anchor="start" x="8" y="-156.5" font-family="SegoeUI" font-size="10.00"># FindAnchor()</text>
<text text-anchor="start" x="8" y="-145.5" font-family="SegoeUI" font-size="10.00"># LoadAnchor()</text>
<text text-anchor="start" x="8" y="-134.5" font-family="SegoeUI" font-size="10.00"># CreateAnchor()</text>
<text text-anchor="start" x="8" y="-123.5" font-family="SegoeUI" font-size="10.00"># SynchronizeAnchor()</text>
<text text-anchor="start" x="8" y="-112.5" font-family="SegoeUI" font-size="10.00"># DeleteAnchor()</text>
</a>
</g>
</g>
<!-- Node3 -->
<g id="node4" class="node"><title>Node3</title>
<g id="a_node4"><a xlink:href="../../df/d66/class_juniper_1_1_anchoring_1_1_anchor_store.html" target="_top" xlink:title="Anchors provide a means to restore the position of objects between sessions. In some AR systems,...">
<polygon fill="white" stroke="black" points="11.5,-0.5 11.5,-68.5 137.5,-68.5 137.5,-0.5 11.5,-0.5"/>
<text text-anchor="start" x="19.5" y="-56.5" font-family="SegoeUI" font-size="10.00">Juniper.Anchoring.Anchor</text>
<text text-anchor="middle" x="74.5" y="-45.5" font-family="SegoeUI" font-size="10.00">Store</text>
<polyline fill="none" stroke="black" points="11.5,-38.5 137.5,-38.5 "/>
<text text-anchor="middle" x="74.5" y="-26.5" font-family="SegoeUI" font-size="10.00"> </text>
<polyline fill="none" stroke="black" points="11.5,-19.5 137.5,-19.5 "/>
<text text-anchor="middle" x="74.5" y="-7.5" font-family="SegoeUI" font-size="10.00"> </text>
</a>
</g>
</g>
<!-- Node0&#45;&gt;Node3 -->
<g id="edge3" class="edge"><title>Node0&#45;&gt;Node3</title>
<path fill="none" stroke="midnightblue" d="M74.5,-95.1914C74.5,-85.8305 74.5,-76.7344 74.5,-68.5806"/>
<polygon fill="none" stroke="midnightblue" points="71.0001,-95.4209 74.5,-105.421 78.0001,-95.4209 71.0001,-95.4209"/>
</g>
<!-- Node1 -->
<g id="node2" class="node"><title>Node1</title>
<g id="a_node2"><a xlink:href="../../da/daf/class_juniper_1_1_anchoring_1_1_abstract_anchor_store.html" target="_top" xlink:title="A store for points in space that the system will restore on second&#45;run. By default,...">
<polygon fill="white" stroke="black" points="12,-287.5 12,-553.5 137,-553.5 137,-287.5 12,-287.5"/>
<text text-anchor="start" x="20" y="-541.5" font-family="SegoeUI" font-size="10.00">AbstractAnchorStore</text>
<text text-anchor="middle" x="74.5" y="-530.5" font-family="SegoeUI" font-size="10.00">&lt; AnchorType &gt;</text>
<polyline fill="none" stroke="black" points="12,-523.5 137,-523.5 "/>
<text text-anchor="start" x="20" y="-511.5" font-family="SegoeUI" font-size="10.00">+ NameList</text>
<text text-anchor="start" x="20" y="-500.5" font-family="SegoeUI" font-size="10.00">&#45; KEY_LIST_KEY</text>
<text text-anchor="start" x="20" y="-489.5" font-family="SegoeUI" font-size="10.00">&#45; ID_PREFIX</text>
<text text-anchor="start" x="20" y="-478.5" font-family="SegoeUI" font-size="10.00">&#45; EMPTY_STRING_ARRAY</text>
<polyline fill="none" stroke="black" points="12,-471.5 137,-471.5 "/>
<text text-anchor="start" x="20" y="-459.5" font-family="SegoeUI" font-size="10.00">+ ResetData()</text>
<text text-anchor="start" x="20" y="-448.5" font-family="SegoeUI" font-size="10.00">+ DropAnchor()</text>
<text text-anchor="start" x="20" y="-437.5" font-family="SegoeUI" font-size="10.00">+ WeighAnchor()</text>
<text text-anchor="start" x="20" y="-426.5" font-family="SegoeUI" font-size="10.00">+ HasAnchor()</text>
<text text-anchor="start" x="20" y="-415.5" font-family="SegoeUI" font-size="10.00"># SynchronizeAnchor()</text>
<text text-anchor="start" x="20" y="-404.5" font-family="SegoeUI" font-size="10.00"># IsGood()</text>
<text text-anchor="start" x="20" y="-393.5" font-family="SegoeUI" font-size="10.00"># DeleteAnchor()</text>
<text text-anchor="start" x="20" y="-382.5" font-family="SegoeUI" font-size="10.00"># FindAnchor()</text>
<text text-anchor="start" x="20" y="-371.5" font-family="SegoeUI" font-size="10.00"># IsSaved()</text>
<text text-anchor="start" x="20" y="-360.5" font-family="SegoeUI" font-size="10.00"># CreateAnchor()</text>
<text text-anchor="start" x="20" y="-349.5" font-family="SegoeUI" font-size="10.00"># LoadAnchor()</text>
<text text-anchor="start" x="20" y="-338.5" font-family="SegoeUI" font-size="10.00"># MakeID()</text>
<text text-anchor="start" x="20" y="-327.5" font-family="SegoeUI" font-size="10.00"># HasValue()</text>
<text text-anchor="start" x="20" y="-316.5" font-family="SegoeUI" font-size="10.00"># SaveValue&lt; T &gt;()</text>
<text text-anchor="start" x="20" y="-305.5" font-family="SegoeUI" font-size="10.00"># LoadValue&lt; T &gt;()</text>
<text text-anchor="start" x="20" y="-294.5" font-family="SegoeUI" font-size="10.00"># DeleteValue()</text>
</a>
</g>
</g>
<!-- Node1&#45;&gt;Node0 -->
<g id="edge1" class="edge"><title>Node1&#45;&gt;Node0</title>
<path fill="none" stroke="midnightblue" d="M74.5,-277.044C74.5,-268.023 74.5,-259.176 74.5,-250.714"/>
<polygon fill="none" stroke="midnightblue" points="71.0001,-277.29 74.5,-287.29 78.0001,-277.29 71.0001,-277.29"/>
</g>
<!-- Node2 -->
<g id="node3" class="node"><title>Node2</title>
<g id="a_node3"><a xlink:title=" ">
<polygon fill="white" stroke="#bfbfbf" points="33.5,-590.5 33.5,-647.5 115.5,-647.5 115.5,-590.5 33.5,-590.5"/>
<text text-anchor="middle" x="74.5" y="-635.5" font-family="SegoeUI" font-size="10.00">MonoBehaviour</text>
<polyline fill="none" stroke="#bfbfbf" points="33.5,-628.5 115.5,-628.5 "/>
<text text-anchor="middle" x="74.5" y="-616.5" font-family="SegoeUI" font-size="10.00"> </text>
<polyline fill="none" stroke="#bfbfbf" points="33.5,-609.5 115.5,-609.5 "/>
<text text-anchor="middle" x="74.5" y="-597.5" font-family="SegoeUI" font-size="10.00"> </text>
</a>
</g>
</g>
<!-- Node2&#45;&gt;Node1 -->
<g id="edge2" class="edge"><title>Node2&#45;&gt;Node1</title>
<path fill="none" stroke="midnightblue" d="M74.5,-580.205C74.5,-572.137 74.5,-563.18 74.5,-553.746"/>
<polygon fill="none" stroke="midnightblue" points="71.0001,-580.263 74.5,-590.263 78.0001,-580.263 71.0001,-580.263"/>
</g>
</g>
</svg>
