<?xml version="1.0" encoding="UTF-8" standalone="no"?>
<!DOCTYPE svg PUBLIC "-//W3C//DTD SVG 1.1//EN"
 "http://www.w3.org/Graphics/SVG/1.1/DTD/svg11.dtd">
<!-- Generated by graphviz version 2.38.0 (20140413.2041)
 -->
<!-- Title: Juniper.Unity.Widgets.JibberJabber Pages: 1 -->
<svg width="317pt" height="537pt"
 viewBox="0.00 0.00 317.00 537.00" xmlns="http://www.w3.org/2000/svg" xmlns:xlink="http://www.w3.org/1999/xlink">
<g id="graph0" class="graph" transform="scale(1 1) rotate(0) translate(4 533)">
<title>Juniper.Unity.Widgets.JibberJabber</title>
<polygon fill="white" stroke="none" points="-4,4 -4,-533 313,-533 313,4 -4,4"/>
<!-- Node2 -->
<g id="node1" class="node"><title>Node2</title>
<g id="a_node1"><a xlink:title="Plays clips out of an AudioClipCollection at set intervals, making for a point source of ambient soun...">
<polygon fill="#bfbfbf" stroke="black" points="10.5,-0.5 10.5,-134.5 147.5,-134.5 147.5,-0.5 10.5,-0.5"/>
<text text-anchor="start" x="18.5" y="-122.5" font-family="SegoeUI" font-size="10.00">Juniper.Unity.Widgets.Jibber</text>
<text text-anchor="middle" x="79" y="-111.5" font-family="SegoeUI" font-size="10.00">Jabber</text>
<polyline fill="none" stroke="black" points="10.5,-104.5 147.5,-104.5 "/>
<text text-anchor="start" x="18.5" y="-92.5" font-family="SegoeUI" font-size="10.00">+ timeBetweenClips</text>
<text text-anchor="start" x="18.5" y="-81.5" font-family="SegoeUI" font-size="10.00">&#45; time</text>
<text text-anchor="start" x="18.5" y="-70.5" font-family="SegoeUI" font-size="10.00">&#45; playing</text>
<text text-anchor="start" x="18.5" y="-59.5" font-family="SegoeUI" font-size="10.00">&#45; audioSource</text>
<polyline fill="none" stroke="black" points="10.5,-52.5 147.5,-52.5 "/>
<text text-anchor="start" x="18.5" y="-40.5" font-family="SegoeUI" font-size="10.00">+ Awake()</text>
<text text-anchor="start" x="18.5" y="-29.5" font-family="SegoeUI" font-size="10.00">+ Update()</text>
<text text-anchor="start" x="18.5" y="-18.5" font-family="SegoeUI" font-size="10.00">+ Play()</text>
<text text-anchor="start" x="18.5" y="-7.5" font-family="SegoeUI" font-size="10.00">+ Stop()</text>
</a>
</g>
</g>
<!-- Node3 -->
<g id="node2" class="node"><title>Node3</title>
<g id="a_node2"><a xlink:title=" ">
<polygon fill="white" stroke="#bfbfbf" points="0,-221 0,-278 82,-278 82,-221 0,-221"/>
<text text-anchor="middle" x="41" y="-266" font-family="SegoeUI" font-size="10.00">MonoBehaviour</text>
<polyline fill="none" stroke="#bfbfbf" points="0,-259 82,-259 "/>
<text text-anchor="middle" x="41" y="-247" font-family="SegoeUI" font-size="10.00"> </text>
<polyline fill="none" stroke="#bfbfbf" points="0,-240 82,-240 "/>
<text text-anchor="middle" x="41" y="-228" font-family="SegoeUI" font-size="10.00"> </text>
</a>
</g>
</g>
<!-- Node3&#45;&gt;Node2 -->
<g id="edge1" class="edge"><title>Node3&#45;&gt;Node2</title>
<path fill="none" stroke="midnightblue" d="M48.9523,-210.831C53.5981,-188.825 59.5945,-160.421 65.007,-134.782"/>
<polygon fill="none" stroke="midnightblue" points="45.4954,-210.262 46.8542,-220.769 52.3444,-211.708 45.4954,-210.262"/>
</g>
<!-- Node4 -->
<g id="node3" class="node"><title>Node4</title>
<g id="a_node3"><a xlink:href="../../d3/d6d/class_juniper_1_1_unity_1_1_audio_1_1_audio_clip_collection.html" target="_top" xlink:title="A collection of related audio clips. For example, one might have many different gunshot sounds to hav...">
<polygon fill="white" stroke="black" points="100.5,-182.5 100.5,-316.5 225.5,-316.5 225.5,-182.5 100.5,-182.5"/>
<text text-anchor="start" x="108.5" y="-304.5" font-family="SegoeUI" font-size="10.00">Juniper.Unity.Audio.Audio</text>
<text text-anchor="middle" x="163" y="-293.5" font-family="SegoeUI" font-size="10.00">ClipCollection</text>
<polyline fill="none" stroke="black" points="100.5,-286.5 225.5,-286.5 "/>
<text text-anchor="start" x="108.5" y="-274.5" font-family="SegoeUI" font-size="10.00">+ randomizePitch</text>
<text text-anchor="start" x="108.5" y="-263.5" font-family="SegoeUI" font-size="10.00">+ clips</text>
<text text-anchor="start" x="108.5" y="-252.5" font-family="SegoeUI" font-size="10.00">+ Length</text>
<text text-anchor="start" x="108.5" y="-241.5" font-family="SegoeUI" font-size="10.00">+ RandomizeClipPitch</text>
<text text-anchor="start" x="108.5" y="-230.5" font-family="SegoeUI" font-size="10.00">+ this[int index]</text>
<polyline fill="none" stroke="black" points="100.5,-223.5 225.5,-223.5 "/>
<text text-anchor="start" x="108.5" y="-211.5" font-family="SegoeUI" font-size="10.00">+ Random()</text>
<text text-anchor="start" x="108.5" y="-200.5" font-family="SegoeUI" font-size="10.00">+ GetEnumerator()</text>
<text text-anchor="start" x="108.5" y="-189.5" font-family="SegoeUI" font-size="10.00">&#45; GetEnumerator()</text>
</a>
</g>
</g>
<!-- Node4&#45;&gt;Node2 -->
<g id="edge2" class="edge"><title>Node4&#45;&gt;Node2</title>
<path fill="none" stroke="#404040" d="M132.198,-182.497C126.642,-170.59 120.803,-158.078 115.112,-145.882"/>
<polygon fill="none" stroke="#404040" points="115.013,-145.671 108.851,-141.925 109.938,-134.796 116.1,-138.542 115.013,-145.671"/>
<text text-anchor="middle" x="137" y="-156" font-family="SegoeUI" font-size="10.00"> +clips</text>
</g>
<!-- Node5 -->
<g id="node4" class="node"><title>Node5</title>
<g id="a_node4"><a xlink:title=" ">
<polygon fill="white" stroke="#bfbfbf" points="84.5,-365.5 84.5,-422.5 171.5,-422.5 171.5,-365.5 84.5,-365.5"/>
<text text-anchor="middle" x="128" y="-410.5" font-family="SegoeUI" font-size="10.00">ScriptableObject</text>
<polyline fill="none" stroke="#bfbfbf" points="84.5,-403.5 171.5,-403.5 "/>
<text text-anchor="middle" x="128" y="-391.5" font-family="SegoeUI" font-size="10.00"> </text>
<polyline fill="none" stroke="#bfbfbf" points="84.5,-384.5 171.5,-384.5 "/>
<text text-anchor="middle" x="128" y="-372.5" font-family="SegoeUI" font-size="10.00"> </text>
</a>
</g>
</g>
<!-- Node5&#45;&gt;Node4 -->
<g id="edge3" class="edge"><title>Node5&#45;&gt;Node4</title>
<path fill="none" stroke="midnightblue" d="M137.281,-355.212C140.197,-343.339 143.507,-329.863 146.759,-316.623"/>
<polygon fill="none" stroke="midnightblue" points="133.818,-354.64 134.831,-365.186 140.616,-356.31 133.818,-354.64"/>
</g>
<!-- Node6 -->
<g id="node5" class="node"><title>Node6</title>
<g id="a_node5"><a xlink:href="../../da/d46/interface_juniper_1_1_unity_1_1_audio_1_1_i_audio_clip_collection.html" target="_top" xlink:title="The IAudioClipCollection interface is implemented by two classes. One is a savable collection of audi...">
<polygon fill="white" stroke="black" points="189.5,-354.5 189.5,-433.5 298.5,-433.5 298.5,-354.5 189.5,-354.5"/>
<text text-anchor="middle" x="244" y="-421.5" font-family="SegoeUI" font-size="10.00">IAudioClipCollection</text>
<polyline fill="none" stroke="black" points="189.5,-414.5 298.5,-414.5 "/>
<text text-anchor="start" x="197.5" y="-402.5" font-family="SegoeUI" font-size="10.00">+ Length</text>
<text text-anchor="start" x="197.5" y="-391.5" font-family="SegoeUI" font-size="10.00">+ RandomizeClipPitch</text>
<text text-anchor="start" x="197.5" y="-380.5" font-family="SegoeUI" font-size="10.00">+ this[int index]</text>
<polyline fill="none" stroke="black" points="189.5,-373.5 298.5,-373.5 "/>
<text text-anchor="start" x="197.5" y="-361.5" font-family="SegoeUI" font-size="10.00">+ Random()</text>
</a>
</g>
</g>
<!-- Node6&#45;&gt;Node4 -->
<g id="edge4" class="edge"><title>Node6&#45;&gt;Node4</title>
<path fill="none" stroke="midnightblue" d="M217.11,-345.694C211.799,-336.349 206.134,-326.383 200.544,-316.55"/>
<polygon fill="none" stroke="midnightblue" points="214.096,-347.473 222.08,-354.437 220.181,-344.014 214.096,-347.473"/>
</g>
<!-- Node7 -->
<g id="node6" class="node"><title>Node7</title>
<g id="a_node6"><a xlink:title=" ">
<polygon fill="white" stroke="#bfbfbf" points="179,-471.5 179,-528.5 309,-528.5 309,-471.5 179,-471.5"/>
<text text-anchor="middle" x="244" y="-516.5" font-family="SegoeUI" font-size="10.00">IEnumerable&lt; AudioClip &gt;</text>
<polyline fill="none" stroke="#bfbfbf" points="179,-509.5 309,-509.5 "/>
<text text-anchor="middle" x="244" y="-497.5" font-family="SegoeUI" font-size="10.00"> </text>
<polyline fill="none" stroke="#bfbfbf" points="179,-490.5 309,-490.5 "/>
<text text-anchor="middle" x="244" y="-478.5" font-family="SegoeUI" font-size="10.00"> </text>
</a>
</g>
</g>
<!-- Node7&#45;&gt;Node6 -->
<g id="edge5" class="edge"><title>Node7&#45;&gt;Node6</title>
<path fill="none" stroke="midnightblue" d="M244,-461.232C244,-452.268 244,-442.693 244,-433.689"/>
<polygon fill="none" stroke="midnightblue" points="240.5,-461.403 244,-471.403 247.5,-461.403 240.5,-461.403"/>
</g>
</g>
</svg>
