<?xml version="1.0" encoding="UTF-8" standalone="no"?>
<!DOCTYPE svg PUBLIC "-//W3C//DTD SVG 1.1//EN"
 "http://www.w3.org/Graphics/SVG/1.1/DTD/svg11.dtd">
<!-- Generated by graphviz version 2.38.0 (20140413.2041)
 -->
<!-- Title: Juniper.Animation.AlphaTransition Pages: 1 -->
<!--zoomable 843 -->
<svg id="main" version="1.1" xmlns="http://www.w3.org/2000/svg" xmlns:xlink="http://www.w3.org/1999/xlink" xml:space="preserve" onload="init(evt)">
<style type="text/css"><![CDATA[
.edge:hover path { stroke: red; }
.edge:hover polygon { stroke: red; fill: red; }
]]></style>
<script type="text/javascript"><![CDATA[
var edges = document.getElementsByTagName('g');
if (edges && edges.length) {
  for (var i=0;i<edges.length;i++) {
    if (edges[i].id.substr(0,4)=='edge') {
      edges[i].setAttribute('class','edge');
    }
  }
}
]]></script>
        <defs>
                <circle id="rim" cx="0" cy="0" r="7"/>
                <circle id="rim2" cx="0" cy="0" r="3.5"/>
                <g id="zoomPlus">
                        <use xlink:href="#rim" fill="#404040">
                                <set attributeName="fill" to="#808080" begin="zoomplus.mouseover" end="zoomplus.mouseout"/>
                        </use>
                        <path d="M-4,0h8M0,-4v8" fill="none" stroke="white" stroke-width="1.5" pointer-events="none"/>
                </g>
                <g id="zoomMin">
                        <use xlink:href="#rim" fill="#404040">
                                <set attributeName="fill" to="#808080" begin="zoomminus.mouseover" end="zoomminus.mouseout"/>
                        </use>
                        <path d="M-4,0h8" fill="none" stroke="white" stroke-width="1.5" pointer-events="none"/>
                </g>
                <g id="dirArrow">
                        <path fill="none" stroke="white" stroke-width="1.5" d="M0,-3.0v7 M-2.5,-0.5L0,-3.0L2.5,-0.5"/>
                </g>
               <g id="resetDef">
                       <use xlink:href="#rim2" fill="#404040">
                               <set attributeName="fill" to="#808080" begin="reset.mouseover" end="reset.mouseout"/>
                       </use>
               </g>
        </defs>

<script type="text/javascript">
var viewWidth = 171;
var viewHeight = 843;
var sectionId = 'dynsection-1';
</script>
<script xlink:href="../../svgpan.js"/>
<svg id="graph" class="graph">
<g id="viewport">
<title>Juniper.Animation.AlphaTransition</title>
<polygon fill="white" stroke="none" points="-4,4 -4,-839 167,-839 167,4 -4,4"/>
<!-- Node5 -->
<g id="node1" class="node"><title>Node5</title>
<g id="a_node1"><a xlink:title="Performs a shrinking/growing animation on scene transitions.">
<polygon fill="#bfbfbf" stroke="black" points="0,-0.5 0,-112.5 163,-112.5 163,-0.5 0,-0.5"/>
<text text-anchor="middle" x="81.5" y="-100.5" font-family="SegoeUI" font-size="10.00">Juniper.Animation.AlphaTransition</text>
<polyline fill="none" stroke="black" points="0,-93.5 163,-93.5 "/>
<text text-anchor="start" x="8" y="-81.5" font-family="SegoeUI" font-size="10.00">+ minAlpha</text>
<text text-anchor="start" x="8" y="-70.5" font-family="SegoeUI" font-size="10.00">+ maxAlpha</text>
<text text-anchor="start" x="8" y="-59.5" font-family="SegoeUI" font-size="10.00">+ length</text>
<text text-anchor="start" x="8" y="-48.5" font-family="SegoeUI" font-size="10.00">+ TransitionLength</text>
<text text-anchor="start" x="8" y="-37.5" font-family="SegoeUI" font-size="10.00">+ DeltaAlpha</text>
<text text-anchor="start" x="8" y="-26.5" font-family="SegoeUI" font-size="10.00">&#45; transitionMaterial</text>
<polyline fill="none" stroke="black" points="0,-19.5 163,-19.5 "/>
<text text-anchor="start" x="8" y="-7.5" font-family="SegoeUI" font-size="10.00"># RenderValue()</text>
</a>
</g>
</g>
<!-- Node6 -->
<g id="node2" class="node"><title>Node6</title>
<g id="a_node2"><a xlink:href="../../d6/d38/class_juniper_1_1_animation_1_1_abstract_transition_controller.html" target="_top" xlink:title="Child classes of this class are able to animate transitions between program states.">
<polygon fill="white" stroke="black" points="13,-149.5 13,-393.5 150,-393.5 150,-149.5 13,-149.5"/>
<text text-anchor="middle" x="81.5" y="-381.5" font-family="SegoeUI" font-size="10.00">AbstractTransitionController</text>
<polyline fill="none" stroke="black" points="13,-374.5 150,-374.5 "/>
<text text-anchor="start" x="21" y="-362.5" font-family="SegoeUI" font-size="10.00">+ attackTime</text>
<text text-anchor="start" x="21" y="-351.5" font-family="SegoeUI" font-size="10.00">+ releaseTime</text>
<text text-anchor="start" x="21" y="-340.5" font-family="SegoeUI" font-size="10.00">+ onValueChanged</text>
<text text-anchor="start" x="21" y="-329.5" font-family="SegoeUI" font-size="10.00">+ tween</text>
<text text-anchor="start" x="21" y="-318.5" font-family="SegoeUI" font-size="10.00">+ tweenK</text>
<text text-anchor="start" x="21" y="-307.5" font-family="SegoeUI" font-size="10.00">+ TransitionLength</text>
<text text-anchor="start" x="21" y="-296.5" font-family="SegoeUI" font-size="10.00">&#45; tweenFunc</text>
<text text-anchor="start" x="21" y="-285.5" font-family="SegoeUI" font-size="10.00">&#45; attack</text>
<text text-anchor="start" x="21" y="-274.5" font-family="SegoeUI" font-size="10.00">&#45; release</text>
<text text-anchor="start" x="21" y="-263.5" font-family="SegoeUI" font-size="10.00">&#45; progress</text>
<text text-anchor="start" x="21" y="-252.5" font-family="SegoeUI" font-size="10.00">&#45; tweenedValue</text>
<polyline fill="none" stroke="black" points="13,-245.5 150,-245.5 "/>
<text text-anchor="start" x="21" y="-233.5" font-family="SegoeUI" font-size="10.00">+ Enter()</text>
<text text-anchor="start" x="21" y="-222.5" font-family="SegoeUI" font-size="10.00">+ SkipEnter()</text>
<text text-anchor="start" x="21" y="-211.5" font-family="SegoeUI" font-size="10.00">+ Exit()</text>
<text text-anchor="start" x="21" y="-200.5" font-family="SegoeUI" font-size="10.00">+ Update()</text>
<text text-anchor="start" x="21" y="-189.5" font-family="SegoeUI" font-size="10.00"># RenderValue()</text>
<text text-anchor="start" x="21" y="-178.5" font-family="SegoeUI" font-size="10.00">&#45; OnValueChanged()</text>
<text text-anchor="start" x="21" y="-167.5" font-family="SegoeUI" font-size="10.00">&#45; SetProgress()</text>
<text text-anchor="start" x="21" y="-156.5" font-family="SegoeUI" font-size="10.00">&#45; StartTransition()</text>
</a>
</g>
</g>
<!-- Node6&#45;&gt;Node5 -->
<g id="edge1" class="edge"><title>Node6&#45;&gt;Node5</title>
<path fill="none" stroke="midnightblue" d="M81.5,-139.227C81.5,-129.956 81.5,-120.95 81.5,-112.512"/>
<polygon fill="none" stroke="midnightblue" points="78.0001,-139.377 81.5,-149.377 85.0001,-139.377 78.0001,-139.377"/>
</g>
<!-- Node7 -->
<g id="node3" class="node"><title>Node7</title>
<g id="a_node3"><a xlink:href="../../d9/d7e/class_juniper_1_1_abstract_state_controller.html" target="_top" xlink:title="A subscene is a game object loaded from another scene. The scenes all get loaded at runtime and then ...">
<polygon fill="white" stroke="black" points="23.5,-430.5 23.5,-740.5 139.5,-740.5 139.5,-430.5 23.5,-430.5"/>
<text text-anchor="middle" x="81.5" y="-728.5" font-family="SegoeUI" font-size="10.00">AbstractStateController</text>
<polyline fill="none" stroke="black" points="23.5,-721.5 139.5,-721.5 "/>
<text text-anchor="start" x="31.5" y="-709.5" font-family="SegoeUI" font-size="10.00">+ onEntering</text>
<text text-anchor="start" x="31.5" y="-698.5" font-family="SegoeUI" font-size="10.00">+ onEntered</text>
<text text-anchor="start" x="31.5" y="-687.5" font-family="SegoeUI" font-size="10.00">+ onExiting</text>
<text text-anchor="start" x="31.5" y="-676.5" font-family="SegoeUI" font-size="10.00">+ onExited</text>
<text text-anchor="start" x="31.5" y="-665.5" font-family="SegoeUI" font-size="10.00">+ state</text>
<text text-anchor="start" x="31.5" y="-654.5" font-family="SegoeUI" font-size="10.00">+ IsComplete</text>
<text text-anchor="start" x="31.5" y="-643.5" font-family="SegoeUI" font-size="10.00">+ IsRunning</text>
<text text-anchor="start" x="31.5" y="-632.5" font-family="SegoeUI" font-size="10.00">+ IsEntered</text>
<text text-anchor="start" x="31.5" y="-621.5" font-family="SegoeUI" font-size="10.00">+ IsExited</text>
<text text-anchor="start" x="31.5" y="-610.5" font-family="SegoeUI" font-size="10.00">+ Waiter</text>
<text text-anchor="start" x="31.5" y="-599.5" font-family="SegoeUI" font-size="10.00">&#45; lastState</text>
<text text-anchor="start" x="31.5" y="-588.5" font-family="SegoeUI" font-size="10.00">&#45; skipEvents</text>
<text text-anchor="start" x="31.5" y="-577.5" font-family="SegoeUI" font-size="10.00">&#45; _waiter</text>
<polyline fill="none" stroke="black" points="23.5,-570.5 139.5,-570.5 "/>
<text text-anchor="start" x="31.5" y="-558.5" font-family="SegoeUI" font-size="10.00">+ HasCompleted()</text>
<text text-anchor="start" x="31.5" y="-547.5" font-family="SegoeUI" font-size="10.00">+ SkipEnter()</text>
<text text-anchor="start" x="31.5" y="-536.5" font-family="SegoeUI" font-size="10.00">+ Enter()</text>
<text text-anchor="start" x="31.5" y="-525.5" font-family="SegoeUI" font-size="10.00">+ OnEnable()</text>
<text text-anchor="start" x="31.5" y="-514.5" font-family="SegoeUI" font-size="10.00">+ Update()</text>
<text text-anchor="start" x="31.5" y="-503.5" font-family="SegoeUI" font-size="10.00">+ SkipExit()</text>
<text text-anchor="start" x="31.5" y="-492.5" font-family="SegoeUI" font-size="10.00">+ Exit()</text>
<text text-anchor="start" x="31.5" y="-481.5" font-family="SegoeUI" font-size="10.00">+ OnDisable()</text>
<text text-anchor="start" x="31.5" y="-470.5" font-family="SegoeUI" font-size="10.00"># OnEntering()</text>
<text text-anchor="start" x="31.5" y="-459.5" font-family="SegoeUI" font-size="10.00"># OnEntered()</text>
<text text-anchor="start" x="31.5" y="-448.5" font-family="SegoeUI" font-size="10.00"># OnExiting()</text>
<text text-anchor="start" x="31.5" y="-437.5" font-family="SegoeUI" font-size="10.00"># OnExited()</text>
</a>
</g>
</g>
<!-- Node7&#45;&gt;Node6 -->
<g id="edge2" class="edge"><title>Node7&#45;&gt;Node6</title>
<path fill="none" stroke="midnightblue" d="M81.5,-420.256C81.5,-411.343 81.5,-402.466 81.5,-393.741"/>
<polygon fill="none" stroke="midnightblue" points="78.0001,-420.328 81.5,-430.328 85.0001,-420.328 78.0001,-420.328"/>
</g>
<!-- Node8 -->
<g id="node4" class="node"><title>Node8</title>
<g id="a_node4"><a xlink:title=" ">
<polygon fill="white" stroke="#bfbfbf" points="40.5,-777.5 40.5,-834.5 122.5,-834.5 122.5,-777.5 40.5,-777.5"/>
<text text-anchor="middle" x="81.5" y="-822.5" font-family="SegoeUI" font-size="10.00">MonoBehaviour</text>
<polyline fill="none" stroke="#bfbfbf" points="40.5,-815.5 122.5,-815.5 "/>
<text text-anchor="middle" x="81.5" y="-803.5" font-family="SegoeUI" font-size="10.00"> </text>
<polyline fill="none" stroke="#bfbfbf" points="40.5,-796.5 122.5,-796.5 "/>
<text text-anchor="middle" x="81.5" y="-784.5" font-family="SegoeUI" font-size="10.00"> </text>
</a>
</g>
</g>
<!-- Node8&#45;&gt;Node7 -->
<g id="edge3" class="edge"><title>Node8&#45;&gt;Node7</title>
<path fill="none" stroke="midnightblue" d="M81.5,-767.281C81.5,-759.208 81.5,-750.205 81.5,-740.648"/>
<polygon fill="none" stroke="midnightblue" points="78.0001,-767.327 81.5,-777.327 85.0001,-767.327 78.0001,-767.327"/>
</g>
</g>
</svg>
        <g id="navigator" transform="translate(0 0)" fill="#404254">
                <rect fill="#f2f5e9" fill-opacity="0.5" stroke="#606060" stroke-width=".5" x="0" y="0" width="60" height="60"/>
                <use id="zoomplus" xlink:href="#zoomPlus" x="17" y="9" onmousedown="handleZoom(evt,'in')"/>
                <use id="zoomminus" xlink:href="#zoomMin" x="42" y="9" onmousedown="handleZoom(evt,'out')"/>
                <use id="reset" xlink:href="#resetDef" x="30" y="36" onmousedown="handleReset()"/>
                <g id="arrowUp" xlink:href="#dirArrow" transform="translate(30 24)" onmousedown="handlePan(0,-1)">
                  <use xlink:href="#rim" fill="#404040">
                        <set attributeName="fill" to="#808080" begin="arrowUp.mouseover" end="arrowUp.mouseout"/>
                  </use>
                  <path fill="none" stroke="white" stroke-width="1.5" d="M0,-3.0v7 M-2.5,-0.5L0,-3.0L2.5,-0.5"/>
                </g>
                <g id="arrowRight" xlink:href="#dirArrow" transform="rotate(90) translate(36 -43)" onmousedown="handlePan(1,0)">
                  <use xlink:href="#rim" fill="#404040">
                        <set attributeName="fill" to="#808080" begin="arrowRight.mouseover" end="arrowRight.mouseout"/>
                  </use>
                  <path fill="none" stroke="white" stroke-width="1.5" d="M0,-3.0v7 M-2.5,-0.5L0,-3.0L2.5,-0.5"/>
                </g>
                <g id="arrowDown" xlink:href="#dirArrow" transform="rotate(180) translate(-30 -48)" onmousedown="handlePan(0,1)">
                  <use xlink:href="#rim" fill="#404040">
                        <set attributeName="fill" to="#808080" begin="arrowDown.mouseover" end="arrowDown.mouseout"/>
                  </use>
                  <path fill="none" stroke="white" stroke-width="1.5" d="M0,-3.0v7 M-2.5,-0.5L0,-3.0L2.5,-0.5"/>
                </g>
                <g id="arrowLeft" xlink:href="#dirArrow" transform="rotate(270) translate(-36 17)" onmousedown="handlePan(-1,0)">
                  <use xlink:href="#rim" fill="#404040">
                        <set attributeName="fill" to="#808080" begin="arrowLeft.mouseover" end="arrowLeft.mouseout"/>
                  </use>
                  <path fill="none" stroke="white" stroke-width="1.5" d="M0,-3.0v7 M-2.5,-0.5L0,-3.0L2.5,-0.5"/>
                </g>
        </g>
        <svg viewBox="0 0 15 15" width="100%" height="30px" preserveAspectRatio="xMaxYMin meet">
         <g id="arrow_out" transform="scale(0.3 0.3)">
          <a xlink:href="class_juniper_1_1_animation_1_1_alpha_transition__coll__graph_org.svg" target="_base">
           <rect id="button" ry="5" rx="5" y="6" x="6" height="38" width="38"
                fill="#f2f5e9" fill-opacity="0.5" stroke="#606060" stroke-width="1.0"/>
           <path id="arrow"
             d="M 11.500037,31.436501 C 11.940474,20.09759 22.043105,11.32322 32.158766,21.979434 L 37.068811,17.246167 C 37.068811,17.246167 37.088388,32 37.088388,32 L 22.160133,31.978069 C 22.160133,31.978069 26.997745,27.140456 26.997745,27.140456 C 18.528582,18.264221 13.291696,25.230495 11.500037,31.436501 z"
             style="fill:#404040;"/>
          </a>
         </g>
        </svg>
</svg>
