<?xml version="1.0" encoding="UTF-8" standalone="no"?>
<!DOCTYPE svg PUBLIC "-//W3C//DTD SVG 1.1//EN"
 "http://www.w3.org/Graphics/SVG/1.1/DTD/svg11.dtd">
<!-- Generated by graphviz version 2.38.0 (20140413.2041)
 -->
<!-- Title: System.DateTimeExt Pages: 1 -->
<svg width="160pt" height="193pt"
 viewBox="0.00 0.00 160.00 193.00" xmlns="http://www.w3.org/2000/svg" xmlns:xlink="http://www.w3.org/1999/xlink">
<g id="graph0" class="graph" transform="scale(1 1) rotate(0) translate(4 189)">
<title>System.DateTimeExt</title>
<polygon fill="white" stroke="none" points="-4,4 -4,-189 156,-189 156,4 -4,4"/>
<!-- Node1 -->
<g id="node1" class="node"><title>Node1</title>
<g id="a_node1"><a xlink:title=" ">
<polygon fill="#bfbfbf" stroke="black" points="0,-0.5 0,-79.5 152,-79.5 152,-0.5 0,-0.5"/>
<text text-anchor="middle" x="76" y="-67.5" font-family="SegoeUI" font-size="10.00">System.DateTimeExt</text>
<polyline fill="none" stroke="black" points="0,-60.5 152,-60.5 "/>
<text text-anchor="middle" x="76" y="-48.5" font-family="SegoeUI" font-size="10.00"> </text>
<polyline fill="none" stroke="black" points="0,-41.5 152,-41.5 "/>
<text text-anchor="start" x="8" y="-29.5" font-family="SegoeUI" font-size="10.00">+ UnixTimestampToDateTime()</text>
<text text-anchor="start" x="8" y="-18.5" font-family="SegoeUI" font-size="10.00">+ UnixTimestampToDateTime()</text>
<text text-anchor="start" x="8" y="-7.5" font-family="SegoeUI" font-size="10.00">+ ToJulianDays()</text>
</a>
</g>
</g>
<!-- Node2 -->
<g id="node2" class="node"><title>Node2</title>
<g id="a_node2"><a xlink:title=" ">
<polygon fill="white" stroke="#bfbfbf" points="56.5,-127.5 56.5,-184.5 95.5,-184.5 95.5,-127.5 56.5,-127.5"/>
<text text-anchor="middle" x="76" y="-172.5" font-family="SegoeUI" font-size="10.00">static</text>
<polyline fill="none" stroke="#bfbfbf" points="56.5,-165.5 95.5,-165.5 "/>
<text text-anchor="middle" x="76" y="-153.5" font-family="SegoeUI" font-size="10.00"> </text>
<polyline fill="none" stroke="#bfbfbf" points="56.5,-146.5 95.5,-146.5 "/>
<text text-anchor="middle" x="76" y="-134.5" font-family="SegoeUI" font-size="10.00"> </text>
</a>
</g>
</g>
<!-- Node2&#45;&gt;Node1 -->
<g id="edge1" class="edge"><title>Node2&#45;&gt;Node1</title>
<path fill="none" stroke="#404040" d="M76,-127.404C76,-116.63 76,-103.926 76,-91.6231"/>
<polygon fill="none" stroke="#404040" points="76.0001,-91.5406 72,-85.5406 76,-79.5406 80,-85.5405 76.0001,-91.5406"/>
<text text-anchor="middle" x="92.5" y="-101" font-family="SegoeUI" font-size="10.00"> &#45;epoch</text>
</g>
</g>
</svg>
