<?xml version="1.0" encoding="UTF-8" standalone="no"?>
<!DOCTYPE svg PUBLIC "-//W3C//DTD SVG 1.1//EN"
 "http://www.w3.org/Graphics/SVG/1.1/DTD/svg11.dtd">
<!-- Generated by graphviz version 2.38.0 (20140413.2041)
 -->
<!-- Title: Juniper.Unity.Input.Pointers.Motion.MotionController Pages: 1 -->
<svg width="512pt" height="2483pt"
 viewBox="0.00 0.00 511.50 2483.00" xmlns="http://www.w3.org/2000/svg" xmlns:xlink="http://www.w3.org/1999/xlink">
<g id="graph0" class="graph" transform="scale(1 1) rotate(0) translate(4 2479)">
<title>Juniper.Unity.Input.Pointers.Motion.MotionController</title>
<polygon fill="white" stroke="none" points="-4,4 -4,-2479 507.5,-2479 507.5,4 -4,4"/>
<!-- Node0 -->
<g id="node1" class="node"><title>Node0</title>
<g id="a_node1"><a xlink:title=" ">
<polygon fill="#bfbfbf" stroke="black" points="291,-0.5 291,-68.5 428,-68.5 428,-0.5 291,-0.5"/>
<text text-anchor="start" x="299" y="-56.5" font-family="SegoeUI" font-size="10.00">Juniper.Unity.Input.Pointers.</text>
<text text-anchor="middle" x="359.5" y="-45.5" font-family="SegoeUI" font-size="10.00">Motion.MotionController</text>
<polyline fill="none" stroke="black" points="291,-38.5 428,-38.5 "/>
<text text-anchor="middle" x="359.5" y="-26.5" font-family="SegoeUI" font-size="10.00"> </text>
<polyline fill="none" stroke="black" points="291,-19.5 428,-19.5 "/>
<text text-anchor="start" x="299" y="-7.5" font-family="SegoeUI" font-size="10.00">+ Reinstall()</text>
</a>
</g>
</g>
<!-- Node1 -->
<g id="node2" class="node"><title>Node1</title>
<g id="a_node2"><a xlink:href="../../d1/d9f/class_juniper_1_1_unity_1_1_input_1_1_pointers_1_1_motion_1_1_daydream_motion_controller.html" target="_top" xlink:title=" ">
<polygon fill="white" stroke="black" points="294,-106.5 294,-361.5 425,-361.5 425,-106.5 294,-106.5"/>
<text text-anchor="middle" x="359.5" y="-349.5" font-family="SegoeUI" font-size="10.00">DaydreamMotionController</text>
<polyline fill="none" stroke="black" points="294,-342.5 425,-342.5 "/>
<text text-anchor="start" x="302" y="-330.5" font-family="SegoeUI" font-size="10.00">+ IsConnected</text>
<text text-anchor="start" x="302" y="-319.5" font-family="SegoeUI" font-size="10.00">+ NativeHandID</text>
<text text-anchor="start" x="302" y="-308.5" font-family="SegoeUI" font-size="10.00">+ Device</text>
<text text-anchor="start" x="302" y="-297.5" font-family="SegoeUI" font-size="10.00">+ RoundTouchPoint</text>
<text text-anchor="start" x="302" y="-286.5" font-family="SegoeUI" font-size="10.00">+ SquareTouchPoint</text>
<text text-anchor="start" x="302" y="-275.5" font-family="SegoeUI" font-size="10.00">+ IsDominantHand</text>
<text text-anchor="start" x="302" y="-264.5" font-family="SegoeUI" font-size="10.00">+ Trigger</text>
<text text-anchor="start" x="302" y="-253.5" font-family="SegoeUI" font-size="10.00">+ TouchPadTouched</text>
<text text-anchor="start" x="302" y="-242.5" font-family="SegoeUI" font-size="10.00">+ TouchPadTouchedDown</text>
<text text-anchor="start" x="302" y="-231.5" font-family="SegoeUI" font-size="10.00">+ TouchPadTouchedUp</text>
<text text-anchor="start" x="302" y="-220.5" font-family="SegoeUI" font-size="10.00">+ TouchPadPressed</text>
<text text-anchor="start" x="302" y="-209.5" font-family="SegoeUI" font-size="10.00">+ TouchPadPressedDown</text>
<text text-anchor="start" x="302" y="-198.5" font-family="SegoeUI" font-size="10.00">+ TouchPadPressedUp</text>
<text text-anchor="start" x="302" y="-187.5" font-family="SegoeUI" font-size="10.00">&#45; controller</text>
<polyline fill="none" stroke="black" points="294,-180.5 425,-180.5 "/>
<text text-anchor="start" x="302" y="-168.5" font-family="SegoeUI" font-size="10.00">+ Awake()</text>
<text text-anchor="start" x="302" y="-157.5" font-family="SegoeUI" font-size="10.00">+ Uninstall()</text>
<text text-anchor="start" x="302" y="-146.5" font-family="SegoeUI" font-size="10.00">+ IsButtonPressed()</text>
<text text-anchor="start" x="302" y="-135.5" font-family="SegoeUI" font-size="10.00">+ IsButtonUp()</text>
<text text-anchor="start" x="302" y="-124.5" font-family="SegoeUI" font-size="10.00">+ IsButtonDown()</text>
<text text-anchor="start" x="302" y="-113.5" font-family="SegoeUI" font-size="10.00"># MakeHapticsDevice()</text>
</a>
</g>
</g>
<!-- Node1&#45;&gt;Node0 -->
<g id="edge1" class="edge"><title>Node1&#45;&gt;Node0</title>
<path fill="none" stroke="midnightblue" d="M359.5,-96.155C359.5,-86.2488 359.5,-76.9467 359.5,-68.7433"/>
<polygon fill="none" stroke="midnightblue" points="356,-96.2442 359.5,-106.244 363,-96.2442 356,-96.2442"/>
</g>
<!-- Node2 -->
<g id="node3" class="node"><title>Node2</title>
<g id="a_node3"><a xlink:href="../../d7/ddb/class_juniper_1_1_unity_1_1_input_1_1_pointers_1_1_motion_1_1_abstract_motion_controller.html" target="_top" xlink:title=" ">
<polygon fill="white" stroke="black" points="264.5,-399.5 264.5,-874.5 454.5,-874.5 454.5,-399.5 264.5,-399.5"/>
<text text-anchor="start" x="272.5" y="-862.5" font-family="SegoeUI" font-size="10.00">AbstractMotionController</text>
<text text-anchor="start" x="272.5" y="-851.5" font-family="SegoeUI" font-size="10.00">&lt; GvrControllerHand, GvrController</text>
<text text-anchor="middle" x="359.5" y="-840.5" font-family="SegoeUI" font-size="10.00">Button, DaydreamPointerConfiguration &gt;</text>
<polyline fill="none" stroke="black" points="264.5,-833.5 454.5,-833.5 "/>
<text text-anchor="start" x="272.5" y="-821.5" font-family="SegoeUI" font-size="10.00">+ IsDragging</text>
<text text-anchor="start" x="272.5" y="-810.5" font-family="SegoeUI" font-size="10.00">+ Trigger</text>
<text text-anchor="start" x="272.5" y="-799.5" font-family="SegoeUI" font-size="10.00">+ SquareTouchPoint</text>
<text text-anchor="start" x="272.5" y="-788.5" font-family="SegoeUI" font-size="10.00">+ RoundTouchPoint</text>
<text text-anchor="start" x="272.5" y="-777.5" font-family="SegoeUI" font-size="10.00">+ AnyButtonPressed</text>
<text text-anchor="start" x="272.5" y="-766.5" font-family="SegoeUI" font-size="10.00">+ TouchPadTouched</text>
<text text-anchor="start" x="272.5" y="-755.5" font-family="SegoeUI" font-size="10.00">+ TouchPadTouchedDown</text>
<text text-anchor="start" x="272.5" y="-744.5" font-family="SegoeUI" font-size="10.00">+ TouchPadTouchedUp</text>
<text text-anchor="start" x="272.5" y="-733.5" font-family="SegoeUI" font-size="10.00">+ TouchPadPressed</text>
<text text-anchor="start" x="272.5" y="-722.5" font-family="SegoeUI" font-size="10.00">+ TouchPadPressedDown</text>
<text text-anchor="start" x="272.5" y="-711.5" font-family="SegoeUI" font-size="10.00">+ TouchPadPressedUp</text>
<text text-anchor="start" x="272.5" y="-700.5" font-family="SegoeUI" font-size="10.00"># touchPadButtons</text>
<text text-anchor="start" x="272.5" y="-689.5" font-family="SegoeUI" font-size="10.00"># triggerButtons</text>
<text text-anchor="start" x="272.5" y="-678.5" font-family="SegoeUI" font-size="10.00">&#45; BUTTON_RADIUS</text>
<text text-anchor="start" x="272.5" y="-667.5" font-family="SegoeUI" font-size="10.00">&#45; DIM</text>
<text text-anchor="start" x="272.5" y="-656.5" font-family="SegoeUI" font-size="10.00">&#45; lastTrigger</text>
<text text-anchor="start" x="272.5" y="-645.5" font-family="SegoeUI" font-size="10.00">&#45; lastTouchPosition</text>
<text text-anchor="start" x="272.5" y="-634.5" font-family="SegoeUI" font-size="10.00">&#45; BUTTON_CENTERS</text>
<text text-anchor="start" x="272.5" y="-623.5" font-family="SegoeUI" font-size="10.00">&#45; TRIGGER_THRESHOLDS</text>
<polyline fill="none" stroke="black" points="264.5,-616.5 454.5,-616.5 "/>
<text text-anchor="start" x="272.5" y="-604.5" font-family="SegoeUI" font-size="10.00">+ AddButton()</text>
<text text-anchor="start" x="272.5" y="-593.5" font-family="SegoeUI" font-size="10.00">+ AddButton()</text>
<text text-anchor="start" x="272.5" y="-582.5" font-family="SegoeUI" font-size="10.00">+ RemoveButton()</text>
<text text-anchor="start" x="272.5" y="-571.5" font-family="SegoeUI" font-size="10.00">+ RemoveButton()</text>
<text text-anchor="start" x="272.5" y="-560.5" font-family="SegoeUI" font-size="10.00">+ Awake()</text>
<text text-anchor="start" x="272.5" y="-549.5" font-family="SegoeUI" font-size="10.00">+ Install()</text>
<text text-anchor="start" x="272.5" y="-538.5" font-family="SegoeUI" font-size="10.00">+ IsButtonPressed()</text>
<text text-anchor="start" x="272.5" y="-527.5" font-family="SegoeUI" font-size="10.00">+ IsButtonPressed()</text>
<text text-anchor="start" x="272.5" y="-516.5" font-family="SegoeUI" font-size="10.00">+ IsButtonPressed()</text>
<text text-anchor="start" x="272.5" y="-505.5" font-family="SegoeUI" font-size="10.00">+ IsButtonDown()</text>
<text text-anchor="start" x="272.5" y="-494.5" font-family="SegoeUI" font-size="10.00">+ IsButtonDown()</text>
<text text-anchor="start" x="272.5" y="-483.5" font-family="SegoeUI" font-size="10.00">+ IsButtonDown()</text>
<text text-anchor="start" x="272.5" y="-472.5" font-family="SegoeUI" font-size="10.00">+ IsButtonUp()</text>
<text text-anchor="start" x="272.5" y="-461.5" font-family="SegoeUI" font-size="10.00">+ IsButtonUp()</text>
<text text-anchor="start" x="272.5" y="-450.5" font-family="SegoeUI" font-size="10.00">+ IsButtonUp()</text>
<text text-anchor="start" x="272.5" y="-439.5" font-family="SegoeUI" font-size="10.00"># InternalUpdate()</text>
<text text-anchor="start" x="272.5" y="-428.5" font-family="SegoeUI" font-size="10.00"># ProcessButtons()</text>
<text text-anchor="start" x="272.5" y="-417.5" font-family="SegoeUI" font-size="10.00">&#45; VirtualButtonInBounds()</text>
<text text-anchor="start" x="272.5" y="-406.5" font-family="SegoeUI" font-size="10.00">&#45; VirtualTriggerButtonThreshold()</text>
</a>
</g>
</g>
<!-- Node2&#45;&gt;Node1 -->
<g id="edge2" class="edge"><title>Node2&#45;&gt;Node1</title>
<path fill="none" stroke="midnightblue" d="M359.5,-389.171C359.5,-379.922 359.5,-370.811 359.5,-361.924"/>
<polygon fill="none" stroke="midnightblue" points="356,-389.259 359.5,-399.259 363,-389.259 356,-389.259"/>
</g>
<!-- Node3 -->
<g id="node4" class="node"><title>Node3</title>
<g id="a_node4"><a xlink:href="../../d7/ddb/class_juniper_1_1_unity_1_1_input_1_1_pointers_1_1_motion_1_1_abstract_motion_controller.html" target="_top" xlink:title=" ">
<polygon fill="white" stroke="black" points="257,-944.5 257,-1419.5 462,-1419.5 462,-944.5 257,-944.5"/>
<text text-anchor="start" x="265" y="-1407.5" font-family="SegoeUI" font-size="10.00">Juniper.Unity.Input.Pointers.</text>
<text text-anchor="start" x="265" y="-1396.5" font-family="SegoeUI" font-size="10.00">Motion.AbstractMotionController</text>
<text text-anchor="middle" x="359.5" y="-1385.5" font-family="SegoeUI" font-size="10.00">&lt; HandIDType, ButtonIDType, ConfigType &gt;</text>
<polyline fill="none" stroke="black" points="257,-1378.5 462,-1378.5 "/>
<text text-anchor="start" x="265" y="-1366.5" font-family="SegoeUI" font-size="10.00">+ IsDragging</text>
<text text-anchor="start" x="265" y="-1355.5" font-family="SegoeUI" font-size="10.00">+ Trigger</text>
<text text-anchor="start" x="265" y="-1344.5" font-family="SegoeUI" font-size="10.00">+ SquareTouchPoint</text>
<text text-anchor="start" x="265" y="-1333.5" font-family="SegoeUI" font-size="10.00">+ RoundTouchPoint</text>
<text text-anchor="start" x="265" y="-1322.5" font-family="SegoeUI" font-size="10.00">+ AnyButtonPressed</text>
<text text-anchor="start" x="265" y="-1311.5" font-family="SegoeUI" font-size="10.00">+ TouchPadTouched</text>
<text text-anchor="start" x="265" y="-1300.5" font-family="SegoeUI" font-size="10.00">+ TouchPadTouchedDown</text>
<text text-anchor="start" x="265" y="-1289.5" font-family="SegoeUI" font-size="10.00">+ TouchPadTouchedUp</text>
<text text-anchor="start" x="265" y="-1278.5" font-family="SegoeUI" font-size="10.00">+ TouchPadPressed</text>
<text text-anchor="start" x="265" y="-1267.5" font-family="SegoeUI" font-size="10.00">+ TouchPadPressedDown</text>
<text text-anchor="start" x="265" y="-1256.5" font-family="SegoeUI" font-size="10.00">+ TouchPadPressedUp</text>
<text text-anchor="start" x="265" y="-1245.5" font-family="SegoeUI" font-size="10.00"># touchPadButtons</text>
<text text-anchor="start" x="265" y="-1234.5" font-family="SegoeUI" font-size="10.00"># triggerButtons</text>
<text text-anchor="start" x="265" y="-1223.5" font-family="SegoeUI" font-size="10.00">&#45; BUTTON_RADIUS</text>
<text text-anchor="start" x="265" y="-1212.5" font-family="SegoeUI" font-size="10.00">&#45; DIM</text>
<text text-anchor="start" x="265" y="-1201.5" font-family="SegoeUI" font-size="10.00">&#45; lastTrigger</text>
<text text-anchor="start" x="265" y="-1190.5" font-family="SegoeUI" font-size="10.00">&#45; lastTouchPosition</text>
<text text-anchor="start" x="265" y="-1179.5" font-family="SegoeUI" font-size="10.00">&#45; BUTTON_CENTERS</text>
<text text-anchor="start" x="265" y="-1168.5" font-family="SegoeUI" font-size="10.00">&#45; TRIGGER_THRESHOLDS</text>
<polyline fill="none" stroke="black" points="257,-1161.5 462,-1161.5 "/>
<text text-anchor="start" x="265" y="-1149.5" font-family="SegoeUI" font-size="10.00">+ AddButton()</text>
<text text-anchor="start" x="265" y="-1138.5" font-family="SegoeUI" font-size="10.00">+ RemoveButton()</text>
<text text-anchor="start" x="265" y="-1127.5" font-family="SegoeUI" font-size="10.00">+ AddButton()</text>
<text text-anchor="start" x="265" y="-1116.5" font-family="SegoeUI" font-size="10.00">+ RemoveButton()</text>
<text text-anchor="start" x="265" y="-1105.5" font-family="SegoeUI" font-size="10.00">+ Awake()</text>
<text text-anchor="start" x="265" y="-1094.5" font-family="SegoeUI" font-size="10.00">+ Install()</text>
<text text-anchor="start" x="265" y="-1083.5" font-family="SegoeUI" font-size="10.00">+ IsButtonPressed()</text>
<text text-anchor="start" x="265" y="-1072.5" font-family="SegoeUI" font-size="10.00">+ IsButtonDown()</text>
<text text-anchor="start" x="265" y="-1061.5" font-family="SegoeUI" font-size="10.00">+ IsButtonUp()</text>
<text text-anchor="start" x="265" y="-1050.5" font-family="SegoeUI" font-size="10.00">+ IsButtonPressed()</text>
<text text-anchor="start" x="265" y="-1039.5" font-family="SegoeUI" font-size="10.00">+ IsButtonDown()</text>
<text text-anchor="start" x="265" y="-1028.5" font-family="SegoeUI" font-size="10.00">+ IsButtonUp()</text>
<text text-anchor="start" x="265" y="-1017.5" font-family="SegoeUI" font-size="10.00">+ IsButtonPressed()</text>
<text text-anchor="start" x="265" y="-1006.5" font-family="SegoeUI" font-size="10.00">+ IsButtonUp()</text>
<text text-anchor="start" x="265" y="-995.5" font-family="SegoeUI" font-size="10.00">+ IsButtonDown()</text>
<text text-anchor="start" x="265" y="-984.5" font-family="SegoeUI" font-size="10.00"># InternalUpdate()</text>
<text text-anchor="start" x="265" y="-973.5" font-family="SegoeUI" font-size="10.00"># ProcessButtons()</text>
<text text-anchor="start" x="265" y="-962.5" font-family="SegoeUI" font-size="10.00">&#45; VirtualButtonInBounds()</text>
<text text-anchor="start" x="265" y="-951.5" font-family="SegoeUI" font-size="10.00">&#45; VirtualTriggerButtonThreshold()</text>
</a>
</g>
</g>
<!-- Node3&#45;&gt;Node2 -->
<g id="edge3" class="edge"><title>Node3&#45;&gt;Node2</title>
<path fill="none" stroke="orange" d="M359.5,-934.355C359.5,-914.478 359.5,-894.423 359.5,-874.619"/>
<polygon fill="orange" stroke="orange" points="356,-934.412 359.5,-944.412 363,-934.412 356,-934.412"/>
<text text-anchor="start" x="359.5" y="-918" font-family="SegoeUI" font-size="10.00"> &lt; GvrControllerHand,</text>
<text text-anchor="start" x="359.5" y="-907" font-family="SegoeUI" font-size="10.00"> GvrControllerButton,</text>
<text text-anchor="middle" x="431.5" y="-896" font-family="SegoeUI" font-size="10.00"> DaydreamPointerConfiguration &gt;</text>
</g>
<!-- Node4 -->
<g id="node5" class="node"><title>Node4</title>
<g id="a_node5"><a xlink:href="../../d7/d77/class_juniper_1_1_unity_1_1_input_1_1_pointers_1_1_motion_1_1_abstract_handed_pointer.html" target="_top" xlink:title=" ">
<polygon fill="white" stroke="black" points="198,-1457.5 198,-1624.5 347,-1624.5 347,-1457.5 198,-1457.5"/>
<text text-anchor="start" x="206" y="-1612.5" font-family="SegoeUI" font-size="10.00">AbstractHandedPointer</text>
<text text-anchor="start" x="206" y="-1601.5" font-family="SegoeUI" font-size="10.00">&lt; HandIDType, ButtonIDType,</text>
<text text-anchor="middle" x="272.5" y="-1590.5" font-family="SegoeUI" font-size="10.00"> ConfigType &gt;</text>
<polyline fill="none" stroke="black" points="198,-1583.5 347,-1583.5 "/>
<text text-anchor="start" x="206" y="-1571.5" font-family="SegoeUI" font-size="10.00">+ _hand</text>
<text text-anchor="start" x="206" y="-1560.5" font-family="SegoeUI" font-size="10.00">+ Hand</text>
<text text-anchor="start" x="206" y="-1549.5" font-family="SegoeUI" font-size="10.00">+ NativeHandID</text>
<text text-anchor="start" x="206" y="-1538.5" font-family="SegoeUI" font-size="10.00">+ IsLeftHand</text>
<text text-anchor="start" x="206" y="-1527.5" font-family="SegoeUI" font-size="10.00">+ IsRightHand</text>
<text text-anchor="start" x="206" y="-1516.5" font-family="SegoeUI" font-size="10.00">+ IsDominantHand</text>
<text text-anchor="start" x="206" y="-1505.5" font-family="SegoeUI" font-size="10.00">+ IsNonDominantHand</text>
<text text-anchor="start" x="206" y="-1494.5" font-family="SegoeUI" font-size="10.00">+ WorldPoint</text>
<polyline fill="none" stroke="black" points="198,-1487.5 347,-1487.5 "/>
<text text-anchor="start" x="206" y="-1475.5" font-family="SegoeUI" font-size="10.00">+ MakeControllers&lt; T &gt;()</text>
<text text-anchor="start" x="206" y="-1464.5" font-family="SegoeUI" font-size="10.00">&#45; MakeMotionController&lt; T &gt;()</text>
</a>
</g>
</g>
<!-- Node4&#45;&gt;Node3 -->
<g id="edge4" class="edge"><title>Node4&#45;&gt;Node3</title>
<path fill="none" stroke="midnightblue" d="M295.088,-1447.31C297.258,-1438.41 299.519,-1429.13 301.841,-1419.6"/>
<polygon fill="none" stroke="midnightblue" points="291.645,-1446.66 292.678,-1457.2 298.446,-1448.31 291.645,-1446.66"/>
</g>
<!-- Node5 -->
<g id="node6" class="node"><title>Node5</title>
<g id="a_node6"><a xlink:href="../../d7/d05/class_juniper_1_1_unity_1_1_input_1_1_pointers_1_1_abstract_pointer_device.html" target="_top" xlink:title=" ">
<polygon fill="white" stroke="black" points="193,-1662.5 193,-2159.5 340,-2159.5 340,-1662.5 193,-1662.5"/>
<text text-anchor="start" x="201" y="-2147.5" font-family="SegoeUI" font-size="10.00">AbstractPointerDevice</text>
<text text-anchor="middle" x="266.5" y="-2136.5" font-family="SegoeUI" font-size="10.00">&lt; ButtonIDType, ConfigType &gt;</text>
<polyline fill="none" stroke="black" points="193,-2129.5 340,-2129.5 "/>
<text text-anchor="start" x="201" y="-2117.5" font-family="SegoeUI" font-size="10.00">+ Connected</text>
<text text-anchor="start" x="201" y="-2106.5" font-family="SegoeUI" font-size="10.00">+ LaserPointerMaterial</text>
<text text-anchor="start" x="201" y="-2095.5" font-family="SegoeUI" font-size="10.00">+ showProbe</text>
<text text-anchor="start" x="201" y="-2084.5" font-family="SegoeUI" font-size="10.00">+ motionFilter</text>
<text text-anchor="start" x="201" y="-2073.5" font-family="SegoeUI" font-size="10.00">+ ButtonType</text>
<text text-anchor="start" x="201" y="-2062.5" font-family="SegoeUI" font-size="10.00">+ PointerDataID</text>
<text text-anchor="start" x="201" y="-2051.5" font-family="SegoeUI" font-size="10.00">+ MinimumPointerDistance</text>
<text text-anchor="start" x="201" y="-2040.5" font-family="SegoeUI" font-size="10.00">+ MaximumPointerDistance</text>
<text text-anchor="start" x="201" y="-2029.5" font-family="SegoeUI" font-size="10.00">+ Layer</text>
<text text-anchor="start" x="201" y="-2018.5" font-family="SegoeUI" font-size="10.00">+ LockedOnTarget</text>
<text text-anchor="start" x="201" y="-2007.5" font-family="SegoeUI" font-size="10.00">+ EventTarget</text>
<text text-anchor="start" x="201" y="-1996.5" font-family="SegoeUI" font-size="10.00">+ IsConnected</text>
<text text-anchor="start" x="201" y="-1985.5" font-family="SegoeUI" font-size="10.00">+ IsEnabled</text>
<text text-anchor="start" x="201" y="-1974.5" font-family="SegoeUI" font-size="10.00">+ IsDisabled</text>
<text text-anchor="start" x="201" y="-1963.5" font-family="SegoeUI" font-size="10.00">and 24 more...</text>
<text text-anchor="start" x="201" y="-1952.5" font-family="SegoeUI" font-size="10.00"># nativeButtons</text>
<text text-anchor="start" x="201" y="-1941.5" font-family="SegoeUI" font-size="10.00"># pointerOffset</text>
<text text-anchor="start" x="201" y="-1930.5" font-family="SegoeUI" font-size="10.00"># probe</text>
<text text-anchor="start" x="201" y="-1919.5" font-family="SegoeUI" font-size="10.00"># eventManager</text>
<text text-anchor="start" x="201" y="-1908.5" font-family="SegoeUI" font-size="10.00"># stage</text>
<text text-anchor="start" x="201" y="-1897.5" font-family="SegoeUI" font-size="10.00"># VIEWPORT_MIDPOINT</text>
<text text-anchor="start" x="201" y="-1886.5" font-family="SegoeUI" font-size="10.00"># PointerConfig</text>
<text text-anchor="start" x="201" y="-1875.5" font-family="SegoeUI" font-size="10.00">&#45; lastMotionFilter</text>
<text text-anchor="start" x="201" y="-1864.5" font-family="SegoeUI" font-size="10.00">&#45; finishTime</text>
<text text-anchor="start" x="201" y="-1853.5" font-family="SegoeUI" font-size="10.00">&#45; lastAction</text>
<polyline fill="none" stroke="black" points="193,-1846.5 340,-1846.5 "/>
<text text-anchor="start" x="201" y="-1834.5" font-family="SegoeUI" font-size="10.00">+ AddButton()</text>
<text text-anchor="start" x="201" y="-1823.5" font-family="SegoeUI" font-size="10.00">+ RemoveButton()</text>
<text text-anchor="start" x="201" y="-1812.5" font-family="SegoeUI" font-size="10.00">+ Awake()</text>
<text text-anchor="start" x="201" y="-1801.5" font-family="SegoeUI" font-size="10.00">+ Start()</text>
<text text-anchor="start" x="201" y="-1790.5" font-family="SegoeUI" font-size="10.00">+ Install()</text>
<text text-anchor="start" x="201" y="-1779.5" font-family="SegoeUI" font-size="10.00">+ Uninstall()</text>
<text text-anchor="start" x="201" y="-1768.5" font-family="SegoeUI" font-size="10.00">+ Reinstall()</text>
<text text-anchor="start" x="201" y="-1757.5" font-family="SegoeUI" font-size="10.00">+ OnProbeFound()</text>
<text text-anchor="start" x="201" y="-1746.5" font-family="SegoeUI" font-size="10.00">+ ScreenFromWorld()</text>
<text text-anchor="start" x="201" y="-1735.5" font-family="SegoeUI" font-size="10.00">+ ScreenFromViewport()</text>
<text text-anchor="start" x="201" y="-1724.5" font-family="SegoeUI" font-size="10.00">and 13 more...</text>
<text text-anchor="start" x="201" y="-1713.5" font-family="SegoeUI" font-size="10.00"># Clone()</text>
<text text-anchor="start" x="201" y="-1702.5" font-family="SegoeUI" font-size="10.00"># ProcessButtons()</text>
<text text-anchor="start" x="201" y="-1691.5" font-family="SegoeUI" font-size="10.00"># InternalUpdate()</text>
<text text-anchor="start" x="201" y="-1680.5" font-family="SegoeUI" font-size="10.00"># MakeHapticsDevice()</text>
<text text-anchor="start" x="201" y="-1669.5" font-family="SegoeUI" font-size="10.00">&#45; TestEnterExit()</text>
</a>
</g>
</g>
<!-- Node5&#45;&gt;Node4 -->
<g id="edge5" class="edge"><title>Node5&#45;&gt;Node4</title>
<path fill="none" stroke="midnightblue" d="M270.701,-1652.35C270.858,-1642.71 271.01,-1633.4 271.154,-1624.54"/>
<polygon fill="none" stroke="midnightblue" points="267.199,-1652.44 270.535,-1662.5 274.198,-1652.56 267.199,-1652.44"/>
</g>
<!-- Node6 -->
<g id="node7" class="node"><title>Node6</title>
<g id="a_node7"><a xlink:title=" ">
<polygon fill="white" stroke="#bfbfbf" points="87.5,-2307.5 87.5,-2364.5 169.5,-2364.5 169.5,-2307.5 87.5,-2307.5"/>
<text text-anchor="middle" x="128.5" y="-2352.5" font-family="SegoeUI" font-size="10.00">MonoBehaviour</text>
<polyline fill="none" stroke="#bfbfbf" points="87.5,-2345.5 169.5,-2345.5 "/>
<text text-anchor="middle" x="128.5" y="-2333.5" font-family="SegoeUI" font-size="10.00"> </text>
<polyline fill="none" stroke="#bfbfbf" points="87.5,-2326.5 169.5,-2326.5 "/>
<text text-anchor="middle" x="128.5" y="-2314.5" font-family="SegoeUI" font-size="10.00"> </text>
</a>
</g>
</g>
<!-- Node6&#45;&gt;Node5 -->
<g id="edge6" class="edge"><title>Node6&#45;&gt;Node5</title>
<path fill="none" stroke="midnightblue" d="M140.785,-2297.34C152.968,-2260 172.697,-2199.53 192.951,-2137.44"/>
<polygon fill="none" stroke="midnightblue" points="137.329,-2296.65 137.555,-2307.25 143.984,-2298.82 137.329,-2296.65"/>
</g>
<!-- Node7 -->
<g id="node8" class="node"><title>Node7</title>
<g id="a_node8"><a xlink:href="../../db/d28/interface_juniper_1_1_i_installable.html" target="_top" xlink:title="Defines an interface for objects that can be installed and have their installation progress tracked.">
<polygon fill="white" stroke="black" points="0,-2296.5 0,-2375.5 69,-2375.5 69,-2296.5 0,-2296.5"/>
<text text-anchor="middle" x="34.5" y="-2363.5" font-family="SegoeUI" font-size="10.00">IInstallable</text>
<polyline fill="none" stroke="black" points="0,-2356.5 69,-2356.5 "/>
<text text-anchor="middle" x="34.5" y="-2344.5" font-family="SegoeUI" font-size="10.00"> </text>
<polyline fill="none" stroke="black" points="0,-2337.5 69,-2337.5 "/>
<text text-anchor="start" x="8" y="-2325.5" font-family="SegoeUI" font-size="10.00">+ Install()</text>
<text text-anchor="start" x="8" y="-2314.5" font-family="SegoeUI" font-size="10.00">+ Reinstall()</text>
<text text-anchor="start" x="8" y="-2303.5" font-family="SegoeUI" font-size="10.00">+ Uninstall()</text>
</a>
</g>
</g>
<!-- Node7&#45;&gt;Node5 -->
<g id="edge7" class="edge"><title>Node7&#45;&gt;Node5</title>
<path fill="none" stroke="midnightblue" d="M46.4599,-2286.44C53.978,-2259.42 64.8449,-2225.57 78.5,-2197 110.07,-2130.95 154.933,-2062.3 192.917,-2008.93"/>
<polygon fill="none" stroke="midnightblue" points="42.9878,-2285.87 43.7437,-2296.44 49.743,-2287.71 42.9878,-2285.87"/>
</g>
<!-- Node8 -->
<g id="node9" class="node"><title>Node8</title>
<g id="a_node9"><a xlink:href="../../d4/d43/interface_juniper_1_1_unity_1_1_input_1_1_pointers_1_1_i_pointer_device.html" target="_top" xlink:title=" ">
<polygon fill="white" stroke="black" points="363.5,-2197.5 363.5,-2474.5 487.5,-2474.5 487.5,-2197.5 363.5,-2197.5"/>
<text text-anchor="middle" x="425.5" y="-2462.5" font-family="SegoeUI" font-size="10.00">IPointerDevice</text>
<polyline fill="none" stroke="black" points="363.5,-2455.5 487.5,-2455.5 "/>
<text text-anchor="start" x="371.5" y="-2443.5" font-family="SegoeUI" font-size="10.00">+ transform</text>
<text text-anchor="start" x="371.5" y="-2432.5" font-family="SegoeUI" font-size="10.00">+ EventTarget</text>
<text text-anchor="start" x="371.5" y="-2421.5" font-family="SegoeUI" font-size="10.00">+ InputModule</text>
<text text-anchor="start" x="371.5" y="-2410.5" font-family="SegoeUI" font-size="10.00">+ PointerDataID</text>
<text text-anchor="start" x="371.5" y="-2399.5" font-family="SegoeUI" font-size="10.00">+ ProbeName</text>
<text text-anchor="start" x="371.5" y="-2388.5" font-family="SegoeUI" font-size="10.00">+ ButtonType</text>
<text text-anchor="start" x="371.5" y="-2377.5" font-family="SegoeUI" font-size="10.00">+ isActiveAndEnabled</text>
<text text-anchor="start" x="371.5" y="-2366.5" font-family="SegoeUI" font-size="10.00">+ IsConnected</text>
<text text-anchor="start" x="371.5" y="-2355.5" font-family="SegoeUI" font-size="10.00">+ IsDisabled</text>
<text text-anchor="start" x="371.5" y="-2344.5" font-family="SegoeUI" font-size="10.00">+ IsEnabled</text>
<text text-anchor="start" x="371.5" y="-2333.5" font-family="SegoeUI" font-size="10.00">and 23 more...</text>
<polyline fill="none" stroke="black" points="363.5,-2326.5 487.5,-2326.5 "/>
<text text-anchor="start" x="371.5" y="-2314.5" font-family="SegoeUI" font-size="10.00">+ ViewportFromWorld()</text>
<text text-anchor="start" x="371.5" y="-2303.5" font-family="SegoeUI" font-size="10.00">+ ViewportFromScreen()</text>
<text text-anchor="start" x="371.5" y="-2292.5" font-family="SegoeUI" font-size="10.00">+ ScreenFromWorld()</text>
<text text-anchor="start" x="371.5" y="-2281.5" font-family="SegoeUI" font-size="10.00">+ ScreenFromViewport()</text>
<text text-anchor="start" x="371.5" y="-2270.5" font-family="SegoeUI" font-size="10.00">+ WorldFromScreen()</text>
<text text-anchor="start" x="371.5" y="-2259.5" font-family="SegoeUI" font-size="10.00">+ WorldFromViewport()</text>
<text text-anchor="start" x="371.5" y="-2248.5" font-family="SegoeUI" font-size="10.00">+ IsButtonDown()</text>
<text text-anchor="start" x="371.5" y="-2237.5" font-family="SegoeUI" font-size="10.00">+ IsButtonPressed()</text>
<text text-anchor="start" x="371.5" y="-2226.5" font-family="SegoeUI" font-size="10.00">+ IsButtonUp()</text>
<text text-anchor="start" x="371.5" y="-2215.5" font-family="SegoeUI" font-size="10.00">+ Process()</text>
<text text-anchor="start" x="371.5" y="-2204.5" font-family="SegoeUI" font-size="10.00">+ OnProbeFound()</text>
</a>
</g>
</g>
<!-- Node8&#45;&gt;Node5 -->
<g id="edge8" class="edge"><title>Node8&#45;&gt;Node5</title>
<path fill="none" stroke="midnightblue" d="M363.362,-2187.86C359.626,-2178.46 355.977,-2169.11 352.5,-2160 348.358,-2149.14 344.187,-2137.99 340.035,-2126.7"/>
<polygon fill="none" stroke="midnightblue" points="360.164,-2189.29 367.123,-2197.28 366.664,-2186.7 360.164,-2189.29"/>
</g>
<!-- Node10 -->
<g id="node11" class="node"><title>Node10</title>
<g id="a_node11"><a xlink:href="../../dc/d7c/interface_juniper_1_1_unity_1_1_input_1_1_pointers_1_1_motion_1_1_i_handed_pointer.html" target="_top" xlink:title=" ">
<polygon fill="white" stroke="black" points="361.5,-1860.5 361.5,-1961.5 473.5,-1961.5 473.5,-1860.5 361.5,-1860.5"/>
<text text-anchor="middle" x="417.5" y="-1949.5" font-family="SegoeUI" font-size="10.00">IHandedPointer</text>
<polyline fill="none" stroke="black" points="361.5,-1942.5 473.5,-1942.5 "/>
<text text-anchor="start" x="369.5" y="-1930.5" font-family="SegoeUI" font-size="10.00">+ Hand</text>
<text text-anchor="start" x="369.5" y="-1919.5" font-family="SegoeUI" font-size="10.00">+ IsDominantHand</text>
<text text-anchor="start" x="369.5" y="-1908.5" font-family="SegoeUI" font-size="10.00">+ IsLeftHand</text>
<text text-anchor="start" x="369.5" y="-1897.5" font-family="SegoeUI" font-size="10.00">+ IsNonDominantHand</text>
<text text-anchor="start" x="369.5" y="-1886.5" font-family="SegoeUI" font-size="10.00">+ IsRightHand</text>
<polyline fill="none" stroke="black" points="361.5,-1879.5 473.5,-1879.5 "/>
<text text-anchor="middle" x="417.5" y="-1867.5" font-family="SegoeUI" font-size="10.00"> </text>
</a>
</g>
</g>
<!-- Node8&#45;&gt;Node10 -->
<g id="edge11" class="edge"><title>Node8&#45;&gt;Node10</title>
<path fill="none" stroke="midnightblue" d="M422.707,-2187.34C421.217,-2108.54 419.48,-2016.69 418.436,-1961.51"/>
<polygon fill="none" stroke="midnightblue" points="419.209,-2187.44 422.897,-2197.37 426.207,-2187.31 419.209,-2187.44"/>
</g>
<!-- Node9 -->
<g id="node10" class="node"><title>Node9</title>
<g id="a_node10"><a xlink:href="../../dc/dc8/interface_juniper_1_1_input_1_1_pointers_1_1_i_pointer_buttons.html" target="_top" xlink:title="An interface for specifying how devices with buttons should behave.">
<polygon fill="white" stroke="black" points="187.5,-2280 187.5,-2392 345.5,-2392 345.5,-2280 187.5,-2280"/>
<text text-anchor="middle" x="266.5" y="-2380" font-family="SegoeUI" font-size="10.00">IPointerButtons&lt; ButtonIDType &gt;</text>
<polyline fill="none" stroke="black" points="187.5,-2373 345.5,-2373 "/>
<text text-anchor="start" x="195.5" y="-2361" font-family="SegoeUI" font-size="10.00">+ IsConnected</text>
<text text-anchor="start" x="195.5" y="-2350" font-family="SegoeUI" font-size="10.00">+ AnyButtonPressed</text>
<polyline fill="none" stroke="black" points="187.5,-2343 345.5,-2343 "/>
<text text-anchor="start" x="195.5" y="-2331" font-family="SegoeUI" font-size="10.00">+ IsButtonDown()</text>
<text text-anchor="start" x="195.5" y="-2320" font-family="SegoeUI" font-size="10.00">+ IsButtonPressed()</text>
<text text-anchor="start" x="195.5" y="-2309" font-family="SegoeUI" font-size="10.00">+ IsButtonUp()</text>
<text text-anchor="start" x="195.5" y="-2298" font-family="SegoeUI" font-size="10.00">+ AddButton()</text>
<text text-anchor="start" x="195.5" y="-2287" font-family="SegoeUI" font-size="10.00">+ RemoveButton()</text>
</a>
</g>
</g>
<!-- Node9&#45;&gt;Node5 -->
<g id="edge9" class="edge"><title>Node9&#45;&gt;Node5</title>
<path fill="none" stroke="midnightblue" d="M266.5,-2269.62C266.5,-2238.96 266.5,-2200.28 266.5,-2159.77"/>
<polygon fill="none" stroke="midnightblue" points="263,-2269.7 266.5,-2279.7 270,-2269.7 263,-2269.7"/>
</g>
<!-- Node10&#45;&gt;Node4 -->
<g id="edge10" class="edge"><title>Node10&#45;&gt;Node4</title>
<path fill="none" stroke="midnightblue" d="M406.496,-1850.55C395.761,-1799.2 377.004,-1723.75 349.5,-1662 343.96,-1649.56 337.247,-1636.93 330.12,-1624.76"/>
<polygon fill="none" stroke="midnightblue" points="403.096,-1851.4 408.536,-1860.49 409.953,-1849.99 403.096,-1851.4"/>
</g>
<!-- Node11 -->
<g id="node12" class="node"><title>Node11</title>
<g id="a_node12"><a xlink:href="../../d0/dc2/interface_juniper_1_1_unity_1_1_input_1_1_pointers_1_1_motion_1_1_i_motion_controller.html" target="_top" xlink:title=" ">
<polygon fill="white" stroke="black" points="365.5,-1474 365.5,-1608 469.5,-1608 469.5,-1474 365.5,-1474"/>
<text text-anchor="middle" x="417.5" y="-1596" font-family="SegoeUI" font-size="10.00">IMotionController</text>
<polyline fill="none" stroke="black" points="365.5,-1589 469.5,-1589 "/>
<text text-anchor="start" x="373.5" y="-1577" font-family="SegoeUI" font-size="10.00">+ Trigger</text>
<text text-anchor="start" x="373.5" y="-1566" font-family="SegoeUI" font-size="10.00">+ RoundTouchPoint</text>
<text text-anchor="start" x="373.5" y="-1555" font-family="SegoeUI" font-size="10.00">+ SquareTouchPoint</text>
<polyline fill="none" stroke="black" points="365.5,-1548 469.5,-1548 "/>
<text text-anchor="start" x="373.5" y="-1536" font-family="SegoeUI" font-size="10.00">+ IsButtonPressed()</text>
<text text-anchor="start" x="373.5" y="-1525" font-family="SegoeUI" font-size="10.00">+ IsButtonDown()</text>
<text text-anchor="start" x="373.5" y="-1514" font-family="SegoeUI" font-size="10.00">+ IsButtonUp()</text>
<text text-anchor="start" x="373.5" y="-1503" font-family="SegoeUI" font-size="10.00">+ IsButtonDown()</text>
<text text-anchor="start" x="373.5" y="-1492" font-family="SegoeUI" font-size="10.00">+ IsButtonPressed()</text>
<text text-anchor="start" x="373.5" y="-1481" font-family="SegoeUI" font-size="10.00">+ IsButtonUp()</text>
</a>
</g>
</g>
<!-- Node10&#45;&gt;Node11 -->
<g id="edge13" class="edge"><title>Node10&#45;&gt;Node11</title>
<path fill="none" stroke="midnightblue" d="M417.5,-1850.08C417.5,-1783.71 417.5,-1677.03 417.5,-1608.23"/>
<polygon fill="none" stroke="midnightblue" points="414,-1850.37 417.5,-1860.37 421,-1850.37 414,-1850.37"/>
</g>
<!-- Node11&#45;&gt;Node3 -->
<g id="edge12" class="edge"><title>Node11&#45;&gt;Node3</title>
<path fill="none" stroke="midnightblue" d="M405.079,-1463.55C402.874,-1449.97 400.476,-1435.21 397.972,-1419.8"/>
<polygon fill="none" stroke="midnightblue" points="401.668,-1464.38 406.727,-1473.69 408.578,-1463.26 401.668,-1464.38"/>
</g>
</g>
</svg>
