<?xml version="1.0" encoding="UTF-8" standalone="no"?>
<!DOCTYPE svg PUBLIC "-//W3C//DTD SVG 1.1//EN"
 "http://www.w3.org/Graphics/SVG/1.1/DTD/svg11.dtd">
<!-- Generated by graphviz version 2.38.0 (20140413.2041)
 -->
<!-- Title: Juniper.Mathematics.PlaneSerializable Pages: 1 -->
<svg width="250pt" height="281pt"
 viewBox="0.00 0.00 249.50 281.00" xmlns="http://www.w3.org/2000/svg" xmlns:xlink="http://www.w3.org/1999/xlink">
<g id="graph0" class="graph" transform="scale(1 1) rotate(0) translate(4 277)">
<title>Juniper.Mathematics.PlaneSerializable</title>
<polygon fill="white" stroke="none" points="-4,4 -4,-277 245.5,-277 245.5,4 -4,4"/>
<!-- Node3 -->
<g id="node1" class="node"><title>Node3</title>
<g id="a_node1"><a xlink:title=" ">
<polygon fill="#bfbfbf" stroke="black" points="34,-0.5 34,-178.5 165,-178.5 165,-0.5 34,-0.5"/>
<text text-anchor="start" x="42" y="-166.5" font-family="SegoeUI" font-size="10.00">Juniper.Mathematics.Plane</text>
<text text-anchor="middle" x="99.5" y="-155.5" font-family="SegoeUI" font-size="10.00">Serializable</text>
<polyline fill="none" stroke="black" points="34,-148.5 165,-148.5 "/>
<text text-anchor="start" x="42" y="-136.5" font-family="SegoeUI" font-size="10.00">+ X</text>
<text text-anchor="start" x="42" y="-125.5" font-family="SegoeUI" font-size="10.00">+ Y</text>
<text text-anchor="start" x="42" y="-114.5" font-family="SegoeUI" font-size="10.00">+ Z</text>
<text text-anchor="start" x="42" y="-103.5" font-family="SegoeUI" font-size="10.00">+ D</text>
<polyline fill="none" stroke="black" points="34,-96.5 165,-96.5 "/>
<text text-anchor="start" x="42" y="-84.5" font-family="SegoeUI" font-size="10.00">+ PlaneSerializable()</text>
<text text-anchor="start" x="42" y="-73.5" font-family="SegoeUI" font-size="10.00">+ GetObjectData()</text>
<text text-anchor="start" x="42" y="-62.5" font-family="SegoeUI" font-size="10.00">+ Equals()</text>
<text text-anchor="start" x="42" y="-51.5" font-family="SegoeUI" font-size="10.00">+ Equals()</text>
<text text-anchor="start" x="42" y="-40.5" font-family="SegoeUI" font-size="10.00">+ GetHashCode()</text>
<text text-anchor="start" x="42" y="-29.5" font-family="SegoeUI" font-size="10.00">+ operator==()</text>
<text text-anchor="start" x="42" y="-18.5" font-family="SegoeUI" font-size="10.00">+ operator !=()</text>
<text text-anchor="start" x="42" y="-7.5" font-family="SegoeUI" font-size="10.00">&#45; PlaneSerializable()</text>
</a>
</g>
</g>
<!-- Node4 -->
<g id="node2" class="node"><title>Node4</title>
<g id="a_node2"><a xlink:title=" ">
<polygon fill="white" stroke="#bfbfbf" points="0,-215.5 0,-272.5 69,-272.5 69,-215.5 0,-215.5"/>
<text text-anchor="middle" x="34.5" y="-260.5" font-family="SegoeUI" font-size="10.00">ISerializable</text>
<polyline fill="none" stroke="#bfbfbf" points="0,-253.5 69,-253.5 "/>
<text text-anchor="middle" x="34.5" y="-241.5" font-family="SegoeUI" font-size="10.00"> </text>
<polyline fill="none" stroke="#bfbfbf" points="0,-234.5 69,-234.5 "/>
<text text-anchor="middle" x="34.5" y="-222.5" font-family="SegoeUI" font-size="10.00"> </text>
</a>
</g>
</g>
<!-- Node4&#45;&gt;Node3 -->
<g id="edge1" class="edge"><title>Node4&#45;&gt;Node3</title>
<path fill="none" stroke="midnightblue" d="M50.3022,-205.926C53.8961,-197.494 57.864,-188.185 61.9407,-178.62"/>
<polygon fill="none" stroke="midnightblue" points="46.9723,-204.812 46.271,-215.383 53.4118,-207.557 46.9723,-204.812"/>
</g>
<!-- Node5 -->
<g id="node3" class="node"><title>Node5</title>
<g id="a_node3"><a xlink:title=" ">
<polygon fill="white" stroke="#bfbfbf" points="87.5,-215.5 87.5,-272.5 241.5,-272.5 241.5,-215.5 87.5,-215.5"/>
<text text-anchor="middle" x="164.5" y="-260.5" font-family="SegoeUI" font-size="10.00">IEquatable&lt; PlaneSerializable &gt;</text>
<polyline fill="none" stroke="#bfbfbf" points="87.5,-253.5 241.5,-253.5 "/>
<text text-anchor="middle" x="164.5" y="-241.5" font-family="SegoeUI" font-size="10.00"> </text>
<polyline fill="none" stroke="#bfbfbf" points="87.5,-234.5 241.5,-234.5 "/>
<text text-anchor="middle" x="164.5" y="-222.5" font-family="SegoeUI" font-size="10.00"> </text>
</a>
</g>
</g>
<!-- Node5&#45;&gt;Node3 -->
<g id="edge2" class="edge"><title>Node5&#45;&gt;Node3</title>
<path fill="none" stroke="midnightblue" d="M148.698,-205.926C145.104,-197.494 141.136,-188.185 137.059,-178.62"/>
<polygon fill="none" stroke="midnightblue" points="145.588,-207.557 152.729,-215.383 152.028,-204.812 145.588,-207.557"/>
</g>
</g>
</svg>
