<?xml version="1.0" encoding="UTF-8" standalone="no"?>
<!DOCTYPE svg PUBLIC "-//W3C//DTD SVG 1.1//EN"
 "http://www.w3.org/Graphics/SVG/1.1/DTD/svg11.dtd">
<!-- Generated by graphviz version 2.38.0 (20140413.2041)
 -->
<!-- Title: Juniper.Unity.iOSPermissionHandler Pages: 1 -->
<svg width="178pt" height="436pt"
 viewBox="0.00 0.00 177.50 436.00" xmlns="http://www.w3.org/2000/svg" xmlns:xlink="http://www.w3.org/1999/xlink">
<g id="graph0" class="graph" transform="scale(1 1) rotate(0) translate(4 432)">
<title>Juniper.Unity.iOSPermissionHandler</title>
<polygon fill="white" stroke="none" points="-4,4 -4,-432 173.5,-432 173.5,4 -4,4"/>
<!-- Node0 -->
<g id="node1" class="node"><title>Node0</title>
<g id="a_node1"><a xlink:title=" ">
<polygon fill="#bfbfbf" stroke="black" points="20,-105.5 20,-173.5 156,-173.5 156,-105.5 20,-105.5"/>
<text text-anchor="start" x="28" y="-161.5" font-family="SegoeUI" font-size="10.00">Juniper.Unity.iOSPermission</text>
<text text-anchor="middle" x="88" y="-150.5" font-family="SegoeUI" font-size="10.00">Handler</text>
<polyline fill="none" stroke="black" points="20,-143.5 156,-143.5 "/>
<text text-anchor="middle" x="88" y="-131.5" font-family="SegoeUI" font-size="10.00"> </text>
<polyline fill="none" stroke="black" points="20,-124.5 156,-124.5 "/>
<text text-anchor="start" x="28" y="-112.5" font-family="SegoeUI" font-size="10.00">+ Install()</text>
</a>
</g>
</g>
<!-- Node4 -->
<g id="node5" class="node"><title>Node4</title>
<g id="a_node5"><a xlink:href="../../db/ddd/class_juniper_1_1_unity_1_1_permission_handler.html" target="_top" xlink:title=" ">
<polygon fill="white" stroke="black" points="27.5,-0.5 27.5,-68.5 148.5,-68.5 148.5,-0.5 27.5,-0.5"/>
<text text-anchor="start" x="35.5" y="-56.5" font-family="SegoeUI" font-size="10.00">Juniper.Unity.Permission</text>
<text text-anchor="middle" x="88" y="-45.5" font-family="SegoeUI" font-size="10.00">Handler</text>
<polyline fill="none" stroke="black" points="27.5,-38.5 148.5,-38.5 "/>
<text text-anchor="middle" x="88" y="-26.5" font-family="SegoeUI" font-size="10.00"> </text>
<polyline fill="none" stroke="black" points="27.5,-19.5 148.5,-19.5 "/>
<text text-anchor="middle" x="88" y="-7.5" font-family="SegoeUI" font-size="10.00"> </text>
</a>
</g>
</g>
<!-- Node0&#45;&gt;Node4 -->
<g id="edge4" class="edge"><title>Node0&#45;&gt;Node4</title>
<path fill="none" stroke="midnightblue" d="M88,-95.1362C88,-86.256 88,-77.0447 88,-68.5947"/>
<polygon fill="none" stroke="midnightblue" points="84.5001,-95.3432 88,-105.343 91.5001,-95.3432 84.5001,-95.3432"/>
</g>
<!-- Node1 -->
<g id="node2" class="node"><title>Node1</title>
<g id="a_node2"><a xlink:href="../../d8/d0d/class_juniper_1_1_unity_1_1_abstract_permission_handler.html" target="_top" xlink:title="Perform system&#45;specific authorization requests, such as GPS on Android, or Microphone on iOS.">
<polygon fill="white" stroke="black" points="22.5,-210.5 22.5,-311.5 153.5,-311.5 153.5,-210.5 22.5,-210.5"/>
<text text-anchor="middle" x="88" y="-299.5" font-family="SegoeUI" font-size="10.00">AbstractPermissionHandler</text>
<polyline fill="none" stroke="black" points="22.5,-292.5 153.5,-292.5 "/>
<text text-anchor="middle" x="88" y="-280.5" font-family="SegoeUI" font-size="10.00"> </text>
<polyline fill="none" stroke="black" points="22.5,-273.5 153.5,-273.5 "/>
<text text-anchor="start" x="30.5" y="-261.5" font-family="SegoeUI" font-size="10.00">+ Awake()</text>
<text text-anchor="start" x="30.5" y="-250.5" font-family="SegoeUI" font-size="10.00">+ Reinstall()</text>
<text text-anchor="start" x="30.5" y="-239.5" font-family="SegoeUI" font-size="10.00">+ Reset()</text>
<text text-anchor="start" x="30.5" y="-228.5" font-family="SegoeUI" font-size="10.00">+ Install()</text>
<text text-anchor="start" x="30.5" y="-217.5" font-family="SegoeUI" font-size="10.00">+ Uninstall()</text>
</a>
</g>
</g>
<!-- Node1&#45;&gt;Node0 -->
<g id="edge1" class="edge"><title>Node1&#45;&gt;Node0</title>
<path fill="none" stroke="midnightblue" d="M88,-200.172C88,-191.11 88,-182.05 88,-173.827"/>
<polygon fill="none" stroke="midnightblue" points="84.5001,-200.359 88,-210.359 91.5001,-200.359 84.5001,-200.359"/>
</g>
<!-- Node2 -->
<g id="node3" class="node"><title>Node2</title>
<g id="a_node3"><a xlink:title=" ">
<polygon fill="white" stroke="#bfbfbf" points="0,-359.5 0,-416.5 82,-416.5 82,-359.5 0,-359.5"/>
<text text-anchor="middle" x="41" y="-404.5" font-family="SegoeUI" font-size="10.00">MonoBehaviour</text>
<polyline fill="none" stroke="#bfbfbf" points="0,-397.5 82,-397.5 "/>
<text text-anchor="middle" x="41" y="-385.5" font-family="SegoeUI" font-size="10.00"> </text>
<polyline fill="none" stroke="#bfbfbf" points="0,-378.5 82,-378.5 "/>
<text text-anchor="middle" x="41" y="-366.5" font-family="SegoeUI" font-size="10.00"> </text>
</a>
</g>
</g>
<!-- Node2&#45;&gt;Node1 -->
<g id="edge2" class="edge"><title>Node2&#45;&gt;Node1</title>
<path fill="none" stroke="midnightblue" d="M55.0388,-349.663C59.509,-337.774 64.5274,-324.427 69.2745,-311.802"/>
<polygon fill="none" stroke="midnightblue" points="51.6742,-348.666 51.4308,-359.258 58.2264,-351.13 51.6742,-348.666"/>
</g>
<!-- Node3 -->
<g id="node4" class="node"><title>Node3</title>
<g id="a_node4"><a xlink:href="../../db/d28/interface_juniper_1_1_i_installable.html" target="_top" xlink:title=" ">
<polygon fill="white" stroke="black" points="100.5,-348.5 100.5,-427.5 169.5,-427.5 169.5,-348.5 100.5,-348.5"/>
<text text-anchor="middle" x="135" y="-415.5" font-family="SegoeUI" font-size="10.00">IInstallable</text>
<polyline fill="none" stroke="black" points="100.5,-408.5 169.5,-408.5 "/>
<text text-anchor="middle" x="135" y="-396.5" font-family="SegoeUI" font-size="10.00"> </text>
<polyline fill="none" stroke="black" points="100.5,-389.5 169.5,-389.5 "/>
<text text-anchor="start" x="108.5" y="-377.5" font-family="SegoeUI" font-size="10.00">+ Install()</text>
<text text-anchor="start" x="108.5" y="-366.5" font-family="SegoeUI" font-size="10.00">+ Reinstall()</text>
<text text-anchor="start" x="108.5" y="-355.5" font-family="SegoeUI" font-size="10.00">+ Uninstall()</text>
</a>
</g>
</g>
<!-- Node3&#45;&gt;Node1 -->
<g id="edge3" class="edge"><title>Node3&#45;&gt;Node1</title>
<path fill="none" stroke="midnightblue" d="M116.943,-338.977C113.582,-330.037 110.063,-320.679 106.684,-311.691"/>
<polygon fill="none" stroke="midnightblue" points="113.719,-340.348 120.515,-348.476 120.272,-337.884 113.719,-340.348"/>
</g>
</g>
</svg>
