<?xml version="1.0" encoding="UTF-8" standalone="no"?>
<!DOCTYPE svg PUBLIC "-//W3C//DTD SVG 1.1//EN"
 "http://www.w3.org/Graphics/SVG/1.1/DTD/svg11.dtd">
<!-- Generated by graphviz version 2.38.0 (20140413.2041)
 -->
<!-- Title: Juniper.Unity.SubSceneController Pages: 1 -->
<svg width="221pt" height="922pt"
 viewBox="0.00 0.00 221.00 922.00" xmlns="http://www.w3.org/2000/svg" xmlns:xlink="http://www.w3.org/1999/xlink">
<g id="graph0" class="graph" transform="scale(1 1) rotate(0) translate(4 918)">
<title>Juniper.Unity.SubSceneController</title>
<polygon fill="white" stroke="none" points="-4,4 -4,-918 217,-918 217,4 -4,4"/>
<!-- Node4 -->
<g id="node1" class="node"><title>Node4</title>
<g id="a_node1"><a xlink:title="SubSceneControllers are used by the MasterSceneController to manage workflow through an application....">
<polygon fill="#bfbfbf" stroke="black" points="0,-0.5 0,-167.5 159,-167.5 159,-0.5 0,-0.5"/>
<text text-anchor="middle" x="79.5" y="-155.5" font-family="SegoeUI" font-size="10.00">Juniper.Unity.SubSceneController</text>
<polyline fill="none" stroke="black" points="0,-148.5 159,-148.5 "/>
<text text-anchor="start" x="8" y="-136.5" font-family="SegoeUI" font-size="10.00">+ Enterable</text>
<text text-anchor="start" x="8" y="-125.5" font-family="SegoeUI" font-size="10.00">+ Exitable</text>
<text text-anchor="start" x="8" y="-114.5" font-family="SegoeUI" font-size="10.00">+ CurrentSubScenes</text>
<text text-anchor="start" x="8" y="-103.5" font-family="SegoeUI" font-size="10.00"># deactivateOnExit</text>
<text text-anchor="start" x="8" y="-92.5" font-family="SegoeUI" font-size="10.00">&#45; isExitingPreviousScene</text>
<polyline fill="none" stroke="black" points="0,-85.5 159,-85.5 "/>
<text text-anchor="start" x="8" y="-73.5" font-family="SegoeUI" font-size="10.00">+ Awake()</text>
<text text-anchor="start" x="8" y="-62.5" font-family="SegoeUI" font-size="10.00">+ Load()</text>
<text text-anchor="start" x="8" y="-51.5" font-family="SegoeUI" font-size="10.00">+ Enter()</text>
<text text-anchor="start" x="8" y="-40.5" font-family="SegoeUI" font-size="10.00">+ Exit()</text>
<text text-anchor="start" x="8" y="-29.5" font-family="SegoeUI" font-size="10.00">+ Update()</text>
<text text-anchor="start" x="8" y="-18.5" font-family="SegoeUI" font-size="10.00"># OnExited()</text>
<text text-anchor="start" x="8" y="-7.5" font-family="SegoeUI" font-size="10.00">&#45; AllComplete()</text>
</a>
</g>
</g>
<!-- Node5 -->
<g id="node2" class="node"><title>Node5</title>
<g id="a_node2"><a xlink:href="../../dd/d90/class_juniper_1_1_unity_1_1_abstract_state_controller.html" target="_top" xlink:title="A subscene is a game object loaded from another scene. The scenes all get loaded at runtime and then ...">
<polygon fill="white" stroke="black" points="1.5,-508.5 1.5,-818.5 117.5,-818.5 117.5,-508.5 1.5,-508.5"/>
<text text-anchor="middle" x="59.5" y="-806.5" font-family="SegoeUI" font-size="10.00">AbstractStateController</text>
<polyline fill="none" stroke="black" points="1.5,-799.5 117.5,-799.5 "/>
<text text-anchor="start" x="9.5" y="-787.5" font-family="SegoeUI" font-size="10.00">+ onEntering</text>
<text text-anchor="start" x="9.5" y="-776.5" font-family="SegoeUI" font-size="10.00">+ onEntered</text>
<text text-anchor="start" x="9.5" y="-765.5" font-family="SegoeUI" font-size="10.00">+ onExiting</text>
<text text-anchor="start" x="9.5" y="-754.5" font-family="SegoeUI" font-size="10.00">+ onExited</text>
<text text-anchor="start" x="9.5" y="-743.5" font-family="SegoeUI" font-size="10.00">+ state</text>
<text text-anchor="start" x="9.5" y="-732.5" font-family="SegoeUI" font-size="10.00">+ IsComplete</text>
<text text-anchor="start" x="9.5" y="-721.5" font-family="SegoeUI" font-size="10.00">+ IsRunning</text>
<text text-anchor="start" x="9.5" y="-710.5" font-family="SegoeUI" font-size="10.00">+ IsEntered</text>
<text text-anchor="start" x="9.5" y="-699.5" font-family="SegoeUI" font-size="10.00">+ IsExited</text>
<text text-anchor="start" x="9.5" y="-688.5" font-family="SegoeUI" font-size="10.00">+ Waiter</text>
<text text-anchor="start" x="9.5" y="-677.5" font-family="SegoeUI" font-size="10.00">&#45; lastState</text>
<text text-anchor="start" x="9.5" y="-666.5" font-family="SegoeUI" font-size="10.00">&#45; skipEvents</text>
<text text-anchor="start" x="9.5" y="-655.5" font-family="SegoeUI" font-size="10.00">&#45; _waiter</text>
<polyline fill="none" stroke="black" points="1.5,-648.5 117.5,-648.5 "/>
<text text-anchor="start" x="9.5" y="-636.5" font-family="SegoeUI" font-size="10.00">+ HasCompleted()</text>
<text text-anchor="start" x="9.5" y="-625.5" font-family="SegoeUI" font-size="10.00">+ SkipEnter()</text>
<text text-anchor="start" x="9.5" y="-614.5" font-family="SegoeUI" font-size="10.00">+ Enter()</text>
<text text-anchor="start" x="9.5" y="-603.5" font-family="SegoeUI" font-size="10.00">+ OnEnable()</text>
<text text-anchor="start" x="9.5" y="-592.5" font-family="SegoeUI" font-size="10.00">+ Update()</text>
<text text-anchor="start" x="9.5" y="-581.5" font-family="SegoeUI" font-size="10.00">+ SkipExit()</text>
<text text-anchor="start" x="9.5" y="-570.5" font-family="SegoeUI" font-size="10.00">+ Exit()</text>
<text text-anchor="start" x="9.5" y="-559.5" font-family="SegoeUI" font-size="10.00">+ OnDisable()</text>
<text text-anchor="start" x="9.5" y="-548.5" font-family="SegoeUI" font-size="10.00"># OnEntering()</text>
<text text-anchor="start" x="9.5" y="-537.5" font-family="SegoeUI" font-size="10.00"># OnEntered()</text>
<text text-anchor="start" x="9.5" y="-526.5" font-family="SegoeUI" font-size="10.00"># OnExiting()</text>
<text text-anchor="start" x="9.5" y="-515.5" font-family="SegoeUI" font-size="10.00"># OnExited()</text>
</a>
</g>
</g>
<!-- Node5&#45;&gt;Node4 -->
<g id="edge1" class="edge"><title>Node5&#45;&gt;Node4</title>
<path fill="none" stroke="midnightblue" d="M58.7703,-498.127C59.231,-413.477 61.0951,-308.642 66.5,-215 67.3822,-199.715 68.703,-183.453 70.1698,-167.791"/>
<polygon fill="none" stroke="midnightblue" points="55.2694,-498.331 58.7209,-508.347 62.2693,-498.364 55.2694,-498.331"/>
</g>
<!-- Node7 -->
<g id="node4" class="node"><title>Node7</title>
<g id="a_node4"><a xlink:href="../../de/d7d/class_juniper_1_1_unity_1_1_animation_1_1_abstract_transition_controller.html" target="_top" xlink:title="Child classes of this class are able to animate transitions between program states.">
<polygon fill="white" stroke="black" points="76,-215.5 76,-470.5 213,-470.5 213,-215.5 76,-215.5"/>
<text text-anchor="start" x="84" y="-458.5" font-family="SegoeUI" font-size="10.00">Juniper.Unity.Animation.</text>
<text text-anchor="middle" x="144.5" y="-447.5" font-family="SegoeUI" font-size="10.00">AbstractTransitionController</text>
<polyline fill="none" stroke="black" points="76,-440.5 213,-440.5 "/>
<text text-anchor="start" x="84" y="-428.5" font-family="SegoeUI" font-size="10.00">+ attackTime</text>
<text text-anchor="start" x="84" y="-417.5" font-family="SegoeUI" font-size="10.00">+ releaseTime</text>
<text text-anchor="start" x="84" y="-406.5" font-family="SegoeUI" font-size="10.00">+ onValueChanged</text>
<text text-anchor="start" x="84" y="-395.5" font-family="SegoeUI" font-size="10.00">+ tween</text>
<text text-anchor="start" x="84" y="-384.5" font-family="SegoeUI" font-size="10.00">+ tweenK</text>
<text text-anchor="start" x="84" y="-373.5" font-family="SegoeUI" font-size="10.00">+ TransitionLength</text>
<text text-anchor="start" x="84" y="-362.5" font-family="SegoeUI" font-size="10.00">&#45; tweenFunc</text>
<text text-anchor="start" x="84" y="-351.5" font-family="SegoeUI" font-size="10.00">&#45; attack</text>
<text text-anchor="start" x="84" y="-340.5" font-family="SegoeUI" font-size="10.00">&#45; release</text>
<text text-anchor="start" x="84" y="-329.5" font-family="SegoeUI" font-size="10.00">&#45; progress</text>
<text text-anchor="start" x="84" y="-318.5" font-family="SegoeUI" font-size="10.00">&#45; tweenedValue</text>
<polyline fill="none" stroke="black" points="76,-311.5 213,-311.5 "/>
<text text-anchor="start" x="84" y="-299.5" font-family="SegoeUI" font-size="10.00">+ Enter()</text>
<text text-anchor="start" x="84" y="-288.5" font-family="SegoeUI" font-size="10.00">+ SkipEnter()</text>
<text text-anchor="start" x="84" y="-277.5" font-family="SegoeUI" font-size="10.00">+ Exit()</text>
<text text-anchor="start" x="84" y="-266.5" font-family="SegoeUI" font-size="10.00">+ Update()</text>
<text text-anchor="start" x="84" y="-255.5" font-family="SegoeUI" font-size="10.00"># RenderValue()</text>
<text text-anchor="start" x="84" y="-244.5" font-family="SegoeUI" font-size="10.00">&#45; OnValueChanged()</text>
<text text-anchor="start" x="84" y="-233.5" font-family="SegoeUI" font-size="10.00">&#45; SetProgress()</text>
<text text-anchor="start" x="84" y="-222.5" font-family="SegoeUI" font-size="10.00">&#45; StartTransition()</text>
</a>
</g>
</g>
<!-- Node5&#45;&gt;Node7 -->
<g id="edge4" class="edge"><title>Node5&#45;&gt;Node7</title>
<path fill="none" stroke="midnightblue" d="M103.221,-498.676C105.706,-489.365 108.185,-480.075 110.625,-470.933"/>
<polygon fill="none" stroke="midnightblue" points="99.8275,-497.817 100.631,-508.381 106.591,-499.622 99.8275,-497.817"/>
</g>
<!-- Node6 -->
<g id="node3" class="node"><title>Node6</title>
<g id="a_node3"><a xlink:title=" ">
<polygon fill="white" stroke="#bfbfbf" points="18.5,-856.5 18.5,-913.5 100.5,-913.5 100.5,-856.5 18.5,-856.5"/>
<text text-anchor="middle" x="59.5" y="-901.5" font-family="SegoeUI" font-size="10.00">MonoBehaviour</text>
<polyline fill="none" stroke="#bfbfbf" points="18.5,-894.5 100.5,-894.5 "/>
<text text-anchor="middle" x="59.5" y="-882.5" font-family="SegoeUI" font-size="10.00"> </text>
<polyline fill="none" stroke="#bfbfbf" points="18.5,-875.5 100.5,-875.5 "/>
<text text-anchor="middle" x="59.5" y="-863.5" font-family="SegoeUI" font-size="10.00"> </text>
</a>
</g>
</g>
<!-- Node6&#45;&gt;Node5 -->
<g id="edge2" class="edge"><title>Node6&#45;&gt;Node5</title>
<path fill="none" stroke="midnightblue" d="M59.5,-845.99C59.5,-837.781 59.5,-828.619 59.5,-818.892"/>
<polygon fill="none" stroke="midnightblue" points="56.0001,-846.2 59.5,-856.2 63.0001,-846.2 56.0001,-846.2"/>
</g>
<!-- Node7&#45;&gt;Node4 -->
<g id="edge3" class="edge"><title>Node7&#45;&gt;Node4</title>
<path fill="none" stroke="#404040" d="M112.476,-215.382C109.432,-203.346 106.382,-191.287 103.433,-179.629"/>
<polygon fill="none" stroke="#404040" points="103.344,-179.276 97.9951,-174.44 100.402,-167.642 105.751,-172.479 103.344,-179.276"/>
<text text-anchor="middle" x="142.5" y="-189" font-family="SegoeUI" font-size="10.00"> &#45;childTransitions</text>
</g>
</g>
</svg>
