<?xml version="1.0" encoding="UTF-8" standalone="no"?>
<!DOCTYPE svg PUBLIC "-//W3C//DTD SVG 1.1//EN"
 "http://www.w3.org/Graphics/SVG/1.1/DTD/svg11.dtd">
<!-- Generated by graphviz version 2.38.0 (20140413.2041)
 -->
<!-- Title: Juniper.Imaging.Size Pages: 1 -->
<svg width="279pt" height="336pt"
 viewBox="0.00 0.00 278.50 336.00" xmlns="http://www.w3.org/2000/svg" xmlns:xlink="http://www.w3.org/1999/xlink">
<g id="graph0" class="graph" transform="scale(1 1) rotate(0) translate(4 332)">
<title>Juniper.Imaging.Size</title>
<polygon fill="white" stroke="none" points="-4,4 -4,-332 274.5,-332 274.5,4 -4,4"/>
<!-- Node3 -->
<g id="node1" class="node"><title>Node3</title>
<g id="a_node1"><a xlink:title=" ">
<polygon fill="#bfbfbf" stroke="black" points="83.5,-0.5 83.5,-200.5 189.5,-200.5 189.5,-0.5 83.5,-0.5"/>
<text text-anchor="middle" x="136.5" y="-188.5" font-family="SegoeUI" font-size="10.00">Juniper.Imaging.Size</text>
<polyline fill="none" stroke="black" points="83.5,-181.5 189.5,-181.5 "/>
<text text-anchor="start" x="91.5" y="-169.5" font-family="SegoeUI" font-size="10.00">+ Width</text>
<text text-anchor="start" x="91.5" y="-158.5" font-family="SegoeUI" font-size="10.00">+ Height</text>
<polyline fill="none" stroke="black" points="83.5,-151.5 189.5,-151.5 "/>
<text text-anchor="start" x="91.5" y="-139.5" font-family="SegoeUI" font-size="10.00">+ Size()</text>
<text text-anchor="start" x="91.5" y="-128.5" font-family="SegoeUI" font-size="10.00">+ GetObjectData()</text>
<text text-anchor="start" x="91.5" y="-117.5" font-family="SegoeUI" font-size="10.00">+ Equals()</text>
<text text-anchor="start" x="91.5" y="-106.5" font-family="SegoeUI" font-size="10.00">+ Equals()</text>
<text text-anchor="start" x="91.5" y="-95.5" font-family="SegoeUI" font-size="10.00">+ ToString()</text>
<text text-anchor="start" x="91.5" y="-84.5" font-family="SegoeUI" font-size="10.00">+ GetHashCode()</text>
<text text-anchor="start" x="91.5" y="-73.5" font-family="SegoeUI" font-size="10.00">+ ToString()</text>
<text text-anchor="start" x="91.5" y="-62.5" font-family="SegoeUI" font-size="10.00">+ TryParse()</text>
<text text-anchor="start" x="91.5" y="-51.5" font-family="SegoeUI" font-size="10.00">+ Parse()</text>
<text text-anchor="start" x="91.5" y="-40.5" font-family="SegoeUI" font-size="10.00">+ operator==()</text>
<text text-anchor="start" x="91.5" y="-29.5" font-family="SegoeUI" font-size="10.00">+ operator !=()</text>
<text text-anchor="start" x="91.5" y="-18.5" font-family="SegoeUI" font-size="10.00">+ operator string()</text>
<text text-anchor="start" x="91.5" y="-7.5" font-family="SegoeUI" font-size="10.00">&#45; Size()</text>
</a>
</g>
</g>
<!-- Node4 -->
<g id="node2" class="node"><title>Node4</title>
<g id="a_node2"><a xlink:title=" ">
<polygon fill="white" stroke="#bfbfbf" points="0,-270.5 0,-327.5 69,-327.5 69,-270.5 0,-270.5"/>
<text text-anchor="middle" x="34.5" y="-315.5" font-family="SegoeUI" font-size="10.00">ISerializable</text>
<polyline fill="none" stroke="#bfbfbf" points="0,-308.5 69,-308.5 "/>
<text text-anchor="middle" x="34.5" y="-296.5" font-family="SegoeUI" font-size="10.00"> </text>
<polyline fill="none" stroke="#bfbfbf" points="0,-289.5 69,-289.5 "/>
<text text-anchor="middle" x="34.5" y="-277.5" font-family="SegoeUI" font-size="10.00"> </text>
</a>
</g>
</g>
<!-- Node4&#45;&gt;Node3 -->
<g id="edge1" class="edge"><title>Node4&#45;&gt;Node3</title>
<path fill="none" stroke="midnightblue" d="M53.6571,-261.094C62.6571,-243.756 73.8626,-222.169 85.0944,-200.531"/>
<polygon fill="none" stroke="midnightblue" points="50.3985,-259.775 48.8978,-270.263 56.6114,-263 50.3985,-259.775"/>
</g>
<!-- Node5 -->
<g id="node3" class="node"><title>Node5</title>
<g id="a_node3"><a xlink:title=" ">
<polygon fill="white" stroke="#bfbfbf" points="87,-270.5 87,-327.5 186,-327.5 186,-270.5 87,-270.5"/>
<text text-anchor="middle" x="136.5" y="-315.5" font-family="SegoeUI" font-size="10.00">IEquatable&lt; Size &gt;</text>
<polyline fill="none" stroke="#bfbfbf" points="87,-308.5 186,-308.5 "/>
<text text-anchor="middle" x="136.5" y="-296.5" font-family="SegoeUI" font-size="10.00"> </text>
<polyline fill="none" stroke="#bfbfbf" points="87,-289.5 186,-289.5 "/>
<text text-anchor="middle" x="136.5" y="-277.5" font-family="SegoeUI" font-size="10.00"> </text>
</a>
</g>
</g>
<!-- Node5&#45;&gt;Node3 -->
<g id="edge2" class="edge"><title>Node5&#45;&gt;Node3</title>
<path fill="none" stroke="midnightblue" d="M136.5,-260.127C136.5,-242.957 136.5,-221.768 136.5,-200.531"/>
<polygon fill="none" stroke="midnightblue" points="133,-260.263 136.5,-270.263 140,-260.263 133,-260.263"/>
</g>
<!-- Node6 -->
<g id="node4" class="node"><title>Node6</title>
<g id="a_node4"><a xlink:title=" ">
<polygon fill="white" stroke="#bfbfbf" points="204,-270.5 204,-327.5 243,-327.5 243,-270.5 204,-270.5"/>
<text text-anchor="middle" x="223.5" y="-315.5" font-family="SegoeUI" font-size="10.00">static</text>
<polyline fill="none" stroke="#bfbfbf" points="204,-308.5 243,-308.5 "/>
<text text-anchor="middle" x="223.5" y="-296.5" font-family="SegoeUI" font-size="10.00"> </text>
<polyline fill="none" stroke="#bfbfbf" points="204,-289.5 243,-289.5 "/>
<text text-anchor="middle" x="223.5" y="-277.5" font-family="SegoeUI" font-size="10.00"> </text>
</a>
</g>
</g>
<!-- Node6&#45;&gt;Node3 -->
<g id="edge3" class="edge"><title>Node6&#45;&gt;Node3</title>
<path fill="none" stroke="#404040" d="M211.22,-270.263C204.207,-254.425 194.908,-233.421 185.258,-211.625"/>
<polygon fill="none" stroke="#404040" points="185.204,-211.504 179.118,-207.637 180.346,-200.531 186.433,-204.398 185.204,-211.504"/>
<text text-anchor="middle" x="236" y="-244" font-family="SegoeUI" font-size="10.00"> &#45;HEIGHT_FIELD</text>
<text text-anchor="middle" x="236" y="-233" font-family="SegoeUI" font-size="10.00">&#45;SizePattern</text>
<text text-anchor="middle" x="236" y="-222" font-family="SegoeUI" font-size="10.00">&#45;WIDTH_FIELD</text>
</g>
</g>
</svg>
