<?xml version="1.0" encoding="UTF-8" standalone="no"?>
<!DOCTYPE svg PUBLIC "-//W3C//DTD SVG 1.1//EN"
 "http://www.w3.org/Graphics/SVG/1.1/DTD/svg11.dtd">
<!-- Generated by graphviz version 2.38.0 (20140413.2041)
 -->
<!-- Title: Juniper.Unity.Input.Pointers.Probe Pages: 1 -->
<svg width="296pt" height="556pt"
 viewBox="0.00 0.00 296.00 556.00" xmlns="http://www.w3.org/2000/svg" xmlns:xlink="http://www.w3.org/1999/xlink">
<g id="graph0" class="graph" transform="scale(1 1) rotate(0) translate(4 552)">
<title>Juniper.Unity.Input.Pointers.Probe</title>
<polygon fill="white" stroke="none" points="-4,4 -4,-552 292,-552 292,4 -4,4"/>
<!-- Node3 -->
<g id="node1" class="node"><title>Node3</title>
<g id="a_node1"><a xlink:title="AKA a Cursor, but I don&#39;t like the word Cursor (reminds me too much of SQL).">
<polygon fill="#bfbfbf" stroke="black" points="66.5,-0.5 66.5,-387.5 203.5,-387.5 203.5,-0.5 66.5,-0.5"/>
<text text-anchor="start" x="74.5" y="-375.5" font-family="SegoeUI" font-size="10.00">Juniper.Unity.Input.Pointers.</text>
<text text-anchor="middle" x="135" y="-364.5" font-family="SegoeUI" font-size="10.00">Probe</text>
<polyline fill="none" stroke="black" points="66.5,-357.5 203.5,-357.5 "/>
<text text-anchor="start" x="74.5" y="-345.5" font-family="SegoeUI" font-size="10.00">+ SizeOnNone</text>
<text text-anchor="start" x="74.5" y="-334.5" font-family="SegoeUI" font-size="10.00">+ SizeOnHit</text>
<text text-anchor="start" x="74.5" y="-323.5" font-family="SegoeUI" font-size="10.00">+ SizeOnPress</text>
<text text-anchor="start" x="74.5" y="-312.5" font-family="SegoeUI" font-size="10.00">+ TransitionSeconds</text>
<text text-anchor="start" x="74.5" y="-301.5" font-family="SegoeUI" font-size="10.00">+ canPress</text>
<text text-anchor="start" x="74.5" y="-290.5" font-family="SegoeUI" font-size="10.00">+ canGaze</text>
<text text-anchor="start" x="74.5" y="-279.5" font-family="SegoeUI" font-size="10.00">+ LaserPointerMaterial</text>
<text text-anchor="start" x="74.5" y="-268.5" font-family="SegoeUI" font-size="10.00">+ Cursor</text>
<text text-anchor="start" x="74.5" y="-257.5" font-family="SegoeUI" font-size="10.00">+ Raycaster</text>
<text text-anchor="start" x="74.5" y="-246.5" font-family="SegoeUI" font-size="10.00">+ EventCamera</text>
<text text-anchor="start" x="74.5" y="-235.5" font-family="SegoeUI" font-size="10.00">+ TouchPoint</text>
<text text-anchor="start" x="74.5" y="-224.5" font-family="SegoeUI" font-size="10.00">&#45; State</text>
<text text-anchor="start" x="74.5" y="-213.5" font-family="SegoeUI" font-size="10.00">&#45; lastState</text>
<text text-anchor="start" x="74.5" y="-202.5" font-family="SegoeUI" font-size="10.00">&#45; targetScale</text>
<text text-anchor="start" x="74.5" y="-191.5" font-family="SegoeUI" font-size="10.00">&#45; timeLeft</text>
<text text-anchor="start" x="74.5" y="-180.5" font-family="SegoeUI" font-size="10.00">&#45; ring</text>
<text text-anchor="start" x="74.5" y="-169.5" font-family="SegoeUI" font-size="10.00">&#45; center</text>
<text text-anchor="start" x="74.5" y="-158.5" font-family="SegoeUI" font-size="10.00">&#45; pips</text>
<text text-anchor="start" x="74.5" y="-147.5" font-family="SegoeUI" font-size="10.00">&#45; line</text>
<text text-anchor="start" x="74.5" y="-136.5" font-family="SegoeUI" font-size="10.00">&#45; lastLaserPointerMaterial</text>
<text text-anchor="start" x="74.5" y="-125.5" font-family="SegoeUI" font-size="10.00">&#45; touchpoint</text>
<polyline fill="none" stroke="black" points="66.5,-118.5 203.5,-118.5 "/>
<text text-anchor="start" x="74.5" y="-106.5" font-family="SegoeUI" font-size="10.00">+ Awake()</text>
<text text-anchor="start" x="74.5" y="-95.5" font-family="SegoeUI" font-size="10.00">+ Reinstall()</text>
<text text-anchor="start" x="74.5" y="-84.5" font-family="SegoeUI" font-size="10.00">+ Reset()</text>
<text text-anchor="start" x="74.5" y="-73.5" font-family="SegoeUI" font-size="10.00">+ Install()</text>
<text text-anchor="start" x="74.5" y="-62.5" font-family="SegoeUI" font-size="10.00">+ Start()</text>
<text text-anchor="start" x="74.5" y="-51.5" font-family="SegoeUI" font-size="10.00">+ Uninstall()</text>
<text text-anchor="start" x="74.5" y="-40.5" font-family="SegoeUI" font-size="10.00">+ AlignProbe()</text>
<text text-anchor="start" x="74.5" y="-29.5" font-family="SegoeUI" font-size="10.00">+ SetCursor()</text>
<text text-anchor="start" x="74.5" y="-18.5" font-family="SegoeUI" font-size="10.00">+ SetGaze()</text>
<text text-anchor="start" x="74.5" y="-7.5" font-family="SegoeUI" font-size="10.00">+ Ensure()</text>
</a>
</g>
</g>
<!-- Node4 -->
<g id="node2" class="node"><title>Node4</title>
<g id="a_node2"><a xlink:title=" ">
<polygon fill="white" stroke="#bfbfbf" points="0,-479.5 0,-536.5 82,-536.5 82,-479.5 0,-479.5"/>
<text text-anchor="middle" x="41" y="-524.5" font-family="SegoeUI" font-size="10.00">MonoBehaviour</text>
<polyline fill="none" stroke="#bfbfbf" points="0,-517.5 82,-517.5 "/>
<text text-anchor="middle" x="41" y="-505.5" font-family="SegoeUI" font-size="10.00"> </text>
<polyline fill="none" stroke="#bfbfbf" points="0,-498.5 82,-498.5 "/>
<text text-anchor="middle" x="41" y="-486.5" font-family="SegoeUI" font-size="10.00"> </text>
</a>
</g>
</g>
<!-- Node4&#45;&gt;Node3 -->
<g id="edge1" class="edge"><title>Node4&#45;&gt;Node3</title>
<path fill="none" stroke="midnightblue" d="M52.2697,-469.594C58.8012,-447.915 67.5782,-418.783 76.9785,-387.582"/>
<polygon fill="none" stroke="midnightblue" points="48.8755,-468.728 49.3419,-479.312 55.5779,-470.747 48.8755,-468.728"/>
</g>
<!-- Node5 -->
<g id="node3" class="node"><title>Node5</title>
<g id="a_node3"><a xlink:href="../../db/d28/interface_juniper_1_1_i_installable.html" target="_top" xlink:title=" ">
<polygon fill="white" stroke="black" points="100.5,-468.5 100.5,-547.5 169.5,-547.5 169.5,-468.5 100.5,-468.5"/>
<text text-anchor="middle" x="135" y="-535.5" font-family="SegoeUI" font-size="10.00">IInstallable</text>
<polyline fill="none" stroke="black" points="100.5,-528.5 169.5,-528.5 "/>
<text text-anchor="middle" x="135" y="-516.5" font-family="SegoeUI" font-size="10.00"> </text>
<polyline fill="none" stroke="black" points="100.5,-509.5 169.5,-509.5 "/>
<text text-anchor="start" x="108.5" y="-497.5" font-family="SegoeUI" font-size="10.00">+ Install()</text>
<text text-anchor="start" x="108.5" y="-486.5" font-family="SegoeUI" font-size="10.00">+ Reinstall()</text>
<text text-anchor="start" x="108.5" y="-475.5" font-family="SegoeUI" font-size="10.00">+ Uninstall()</text>
</a>
</g>
</g>
<!-- Node5&#45;&gt;Node3 -->
<g id="edge2" class="edge"><title>Node5&#45;&gt;Node3</title>
<path fill="none" stroke="midnightblue" d="M135,-458.395C135,-438.374 135,-413.769 135,-387.714"/>
<polygon fill="none" stroke="midnightblue" points="131.5,-458.43 135,-468.43 138.5,-458.43 131.5,-458.43"/>
</g>
<!-- Node6 -->
<g id="node4" class="node"><title>Node6</title>
<g id="a_node4"><a xlink:title=" ">
<polygon fill="white" stroke="#bfbfbf" points="188,-479.5 188,-536.5 254,-536.5 254,-479.5 188,-479.5"/>
<text text-anchor="middle" x="221" y="-524.5" font-family="SegoeUI" font-size="10.00">UnityEngine</text>
<polyline fill="none" stroke="#bfbfbf" points="188,-517.5 254,-517.5 "/>
<text text-anchor="middle" x="221" y="-505.5" font-family="SegoeUI" font-size="10.00"> </text>
<polyline fill="none" stroke="#bfbfbf" points="188,-498.5 254,-498.5 "/>
<text text-anchor="middle" x="221" y="-486.5" font-family="SegoeUI" font-size="10.00"> </text>
</a>
</g>
</g>
<!-- Node6&#45;&gt;Node3 -->
<g id="edge3" class="edge"><title>Node6&#45;&gt;Node3</title>
<path fill="none" stroke="#404040" d="M213.368,-479.312C207.913,-459.521 200.021,-430.89 191.322,-399.331"/>
<polygon fill="none" stroke="#404040" points="191.272,-399.15 185.822,-394.429 188.083,-387.582 193.534,-392.303 191.272,-399.15"/>
<text text-anchor="middle" x="246.5" y="-442" font-family="SegoeUI" font-size="10.00"> +ringStartScale</text>
<text text-anchor="middle" x="246.5" y="-431" font-family="SegoeUI" font-size="10.00">+centerStartScale</text>
<text text-anchor="middle" x="246.5" y="-420" font-family="SegoeUI" font-size="10.00">&#45;ringTargetScale</text>
<text text-anchor="middle" x="246.5" y="-409" font-family="SegoeUI" font-size="10.00">&#45;centerTargetScale</text>
</g>
</g>
</svg>
