<?xml version="1.0" encoding="UTF-8" standalone="no"?>
<!DOCTYPE svg PUBLIC "-//W3C//DTD SVG 1.1//EN"
 "http://www.w3.org/Graphics/SVG/1.1/DTD/svg11.dtd">
<!-- Generated by graphviz version 2.38.0 (20140413.2041)
 -->
<!-- Title: Juniper.Audio.AbstractInteractionAudio Pages: 1 -->
<svg width="544pt" height="1008pt"
 viewBox="0.00 0.00 543.50 1008.00" xmlns="http://www.w3.org/2000/svg" xmlns:xlink="http://www.w3.org/1999/xlink">
<g id="graph0" class="graph" transform="scale(1 1) rotate(0) translate(4 1004)">
<title>Juniper.Audio.AbstractInteractionAudio</title>
<polygon fill="white" stroke="none" points="-4,4 -4,-1004 539.5,-1004 539.5,4 -4,4"/>
<!-- Node0 -->
<g id="node1" class="node"><title>Node0</title>
<g id="a_node1"><a xlink:title="The audio portion of the interaction system.">
<polygon fill="#bfbfbf" stroke="black" points="177.5,-254.5 177.5,-883.5 335.5,-883.5 335.5,-254.5 177.5,-254.5"/>
<text text-anchor="start" x="185.5" y="-871.5" font-family="SegoeUI" font-size="10.00">Juniper.Audio.AbstractInteraction</text>
<text text-anchor="middle" x="256.5" y="-860.5" font-family="SegoeUI" font-size="10.00">Audio</text>
<polyline fill="none" stroke="black" points="177.5,-853.5 335.5,-853.5 "/>
<text text-anchor="start" x="185.5" y="-841.5" font-family="SegoeUI" font-size="10.00">+ defaultMixerGroup</text>
<text text-anchor="start" x="185.5" y="-830.5" font-family="SegoeUI" font-size="10.00">+ volumeSlider</text>
<text text-anchor="start" x="185.5" y="-819.5" font-family="SegoeUI" font-size="10.00">+ soundOnClosed</text>
<text text-anchor="start" x="185.5" y="-808.5" font-family="SegoeUI" font-size="10.00">+ soundOnDisabled</text>
<text text-anchor="start" x="185.5" y="-797.5" font-family="SegoeUI" font-size="10.00">+ soundOnDragged</text>
<text text-anchor="start" x="185.5" y="-786.5" font-family="SegoeUI" font-size="10.00">+ soundOnEntered</text>
<text text-anchor="start" x="185.5" y="-775.5" font-family="SegoeUI" font-size="10.00">+ soundOnError</text>
<text text-anchor="start" x="185.5" y="-764.5" font-family="SegoeUI" font-size="10.00">+ soundOnExited</text>
<text text-anchor="start" x="185.5" y="-753.5" font-family="SegoeUI" font-size="10.00">+ soundOnOpened</text>
<text text-anchor="start" x="185.5" y="-742.5" font-family="SegoeUI" font-size="10.00">+ soundOnReleased</text>
<text text-anchor="start" x="185.5" y="-731.5" font-family="SegoeUI" font-size="10.00">+ soundOnScrolled</text>
<text text-anchor="start" x="185.5" y="-720.5" font-family="SegoeUI" font-size="10.00">+ soundOnSelected</text>
<text text-anchor="start" x="185.5" y="-709.5" font-family="SegoeUI" font-size="10.00">+ soundOnSuccess</text>
<text text-anchor="start" x="185.5" y="-698.5" font-family="SegoeUI" font-size="10.00">+ soundOnStartUp</text>
<text text-anchor="start" x="185.5" y="-687.5" font-family="SegoeUI" font-size="10.00">+ soundOnShutDown</text>
<text text-anchor="start" x="185.5" y="-676.5" font-family="SegoeUI" font-size="10.00">+ DefaultAudioMixer</text>
<text text-anchor="start" x="185.5" y="-665.5" font-family="SegoeUI" font-size="10.00">+ Volume</text>
<text text-anchor="start" x="185.5" y="-654.5" font-family="SegoeUI" font-size="10.00"># listener</text>
<text text-anchor="start" x="185.5" y="-643.5" font-family="SegoeUI" font-size="10.00">&#45; MASTER_VOLUME_KEY</text>
<text text-anchor="start" x="185.5" y="-632.5" font-family="SegoeUI" font-size="10.00">&#45; volume</text>
<text text-anchor="start" x="185.5" y="-621.5" font-family="SegoeUI" font-size="10.00">&#45; startUp</text>
<text text-anchor="start" x="185.5" y="-610.5" font-family="SegoeUI" font-size="10.00">&#45; shutDown</text>
<text text-anchor="start" x="185.5" y="-599.5" font-family="SegoeUI" font-size="10.00">&#45; audioSources</text>
<text text-anchor="start" x="185.5" y="-588.5" font-family="SegoeUI" font-size="10.00">&#45; camT</text>
<text text-anchor="start" x="185.5" y="-577.5" font-family="SegoeUI" font-size="10.00">&#45; E</text>
<text text-anchor="start" x="185.5" y="-566.5" font-family="SegoeUI" font-size="10.00">&#45; instance</text>
<polyline fill="none" stroke="black" points="177.5,-559.5 335.5,-559.5 "/>
<text text-anchor="start" x="185.5" y="-547.5" font-family="SegoeUI" font-size="10.00">+ Spatialize()</text>
<text text-anchor="start" x="185.5" y="-536.5" font-family="SegoeUI" font-size="10.00">+ Spatialize()</text>
<text text-anchor="start" x="185.5" y="-525.5" font-family="SegoeUI" font-size="10.00">+ Spatialize()</text>
<text text-anchor="start" x="185.5" y="-514.5" font-family="SegoeUI" font-size="10.00">+ Spatialize()</text>
<text text-anchor="start" x="185.5" y="-503.5" font-family="SegoeUI" font-size="10.00">+ Install()</text>
<text text-anchor="start" x="185.5" y="-492.5" font-family="SegoeUI" font-size="10.00">+ Reinstall()</text>
<text text-anchor="start" x="185.5" y="-481.5" font-family="SegoeUI" font-size="10.00">+ Uninstall()</text>
<text text-anchor="start" x="185.5" y="-470.5" font-family="SegoeUI" font-size="10.00">+ Awake()</text>
<text text-anchor="start" x="185.5" y="-459.5" font-family="SegoeUI" font-size="10.00">+ Start()</text>
<text text-anchor="start" x="185.5" y="-448.5" font-family="SegoeUI" font-size="10.00">+ OnValidate()</text>
<text text-anchor="start" x="185.5" y="-437.5" font-family="SegoeUI" font-size="10.00">+ GetHapticExpressions()</text>
<text text-anchor="start" x="185.5" y="-426.5" font-family="SegoeUI" font-size="10.00">+ Play()</text>
<text text-anchor="start" x="185.5" y="-415.5" font-family="SegoeUI" font-size="10.00">+ Play()</text>
<text text-anchor="start" x="185.5" y="-404.5" font-family="SegoeUI" font-size="10.00">+ Play()</text>
<text text-anchor="start" x="185.5" y="-393.5" font-family="SegoeUI" font-size="10.00">+ Play()</text>
<text text-anchor="start" x="185.5" y="-382.5" font-family="SegoeUI" font-size="10.00"># InternalSpatialize()</text>
<text text-anchor="start" x="185.5" y="-371.5" font-family="SegoeUI" font-size="10.00">&#45; Volume_ValueChange()</text>
<text text-anchor="start" x="185.5" y="-360.5" font-family="SegoeUI" font-size="10.00">&#45; GetClipCollection()</text>
<text text-anchor="start" x="185.5" y="-349.5" font-family="SegoeUI" font-size="10.00">&#45; Wait()</text>
<text text-anchor="start" x="185.5" y="-338.5" font-family="SegoeUI" font-size="10.00">&#45; Play_Internal()</text>
<text text-anchor="start" x="185.5" y="-327.5" font-family="SegoeUI" font-size="10.00">&#45; Play_Internal()</text>
<text text-anchor="start" x="185.5" y="-316.5" font-family="SegoeUI" font-size="10.00">&#45; Play_Internal()</text>
<text text-anchor="start" x="185.5" y="-305.5" font-family="SegoeUI" font-size="10.00">&#45; Play_Internal()</text>
<text text-anchor="start" x="185.5" y="-294.5" font-family="SegoeUI" font-size="10.00">&#45; PlayHaptics()</text>
<text text-anchor="start" x="185.5" y="-283.5" font-family="SegoeUI" font-size="10.00">&#45; PlayClip()</text>
<text text-anchor="start" x="185.5" y="-272.5" font-family="SegoeUI" font-size="10.00">&#45; GetAudioSource()</text>
<text text-anchor="start" x="185.5" y="-261.5" font-family="SegoeUI" font-size="10.00">&#45; CreateNewAudioSource()</text>
</a>
</g>
</g>
<!-- Node3 -->
<g id="node4" class="node"><title>Node3</title>
<g id="a_node4"><a xlink:href="../../dc/d19/class_juniper_1_1_audio_1_1_default_interaction_audio.html" target="_top" xlink:title=" ">
<polygon fill="white" stroke="black" points="0,-127.5 0,-195.5 153,-195.5 153,-127.5 0,-127.5"/>
<text text-anchor="start" x="8" y="-183.5" font-family="SegoeUI" font-size="10.00">Juniper.Audio.DefaultInteraction</text>
<text text-anchor="middle" x="76.5" y="-172.5" font-family="SegoeUI" font-size="10.00">Audio</text>
<polyline fill="none" stroke="black" points="0,-165.5 153,-165.5 "/>
<text text-anchor="middle" x="76.5" y="-153.5" font-family="SegoeUI" font-size="10.00"> </text>
<polyline fill="none" stroke="black" points="0,-146.5 153,-146.5 "/>
<text text-anchor="middle" x="76.5" y="-134.5" font-family="SegoeUI" font-size="10.00"> </text>
</a>
</g>
</g>
<!-- Node0&#45;&gt;Node3 -->
<g id="edge3" class="edge"><title>Node0&#45;&gt;Node3</title>
<path fill="none" stroke="midnightblue" d="M173.211,-380.369C141.917,-309.871 109.535,-236.922 91.3122,-195.869"/>
<polygon fill="none" stroke="midnightblue" points="170.162,-382.127 177.418,-389.847 176.56,-379.287 170.162,-382.127"/>
</g>
<!-- Node4 -->
<g id="node5" class="node"><title>Node4</title>
<g id="a_node5"><a xlink:href="../../d6/dce/class_juniper_1_1_audio_1_1_resonance_interaction_audio.html" target="_top" xlink:title=" ">
<polygon fill="white" stroke="black" points="171.5,-105.5 171.5,-217.5 341.5,-217.5 341.5,-105.5 171.5,-105.5"/>
<text text-anchor="start" x="179.5" y="-205.5" font-family="SegoeUI" font-size="10.00">Juniper.Audio.ResonanceInteraction</text>
<text text-anchor="middle" x="256.5" y="-194.5" font-family="SegoeUI" font-size="10.00">Audio</text>
<polyline fill="none" stroke="black" points="171.5,-187.5 341.5,-187.5 "/>
<text text-anchor="start" x="179.5" y="-175.5" font-family="SegoeUI" font-size="10.00">+ DefaultAudioMixer</text>
<text text-anchor="start" x="179.5" y="-164.5" font-family="SegoeUI" font-size="10.00"># resListener</text>
<polyline fill="none" stroke="black" points="171.5,-157.5 341.5,-157.5 "/>
<text text-anchor="start" x="179.5" y="-145.5" font-family="SegoeUI" font-size="10.00">+ Install()</text>
<text text-anchor="start" x="179.5" y="-134.5" font-family="SegoeUI" font-size="10.00">+ Uninstall()</text>
<text text-anchor="start" x="179.5" y="-123.5" font-family="SegoeUI" font-size="10.00"># InternalSpatialize()</text>
<text text-anchor="start" x="179.5" y="-112.5" font-family="SegoeUI" font-size="10.00">&#45; OnDisplayTypeChange()</text>
</a>
</g>
</g>
<!-- Node0&#45;&gt;Node4 -->
<g id="edge4" class="edge"><title>Node0&#45;&gt;Node4</title>
<path fill="none" stroke="midnightblue" d="M256.5,-244.229C256.5,-234.788 256.5,-225.9 256.5,-217.712"/>
<polygon fill="none" stroke="midnightblue" points="253,-244.261 256.5,-254.261 260,-244.261 253,-244.261"/>
</g>
<!-- Node6 -->
<g id="node7" class="node"><title>Node6</title>
<g id="a_node7"><a xlink:href="../../d7/dbf/class_juniper_1_1_audio_1_1_windows_m_r_interaction_audio.html" target="_top" xlink:title=" ">
<polygon fill="white" stroke="black" points="359.5,-127.5 359.5,-195.5 535.5,-195.5 535.5,-127.5 359.5,-127.5"/>
<text text-anchor="start" x="367.5" y="-183.5" font-family="SegoeUI" font-size="10.00">Juniper.Audio.WindowsMRInteraction</text>
<text text-anchor="middle" x="447.5" y="-172.5" font-family="SegoeUI" font-size="10.00">Audio</text>
<polyline fill="none" stroke="black" points="359.5,-165.5 535.5,-165.5 "/>
<text text-anchor="middle" x="447.5" y="-153.5" font-family="SegoeUI" font-size="10.00"> </text>
<polyline fill="none" stroke="black" points="359.5,-146.5 535.5,-146.5 "/>
<text text-anchor="start" x="367.5" y="-134.5" font-family="SegoeUI" font-size="10.00"># InternalSpatialize()</text>
</a>
</g>
</g>
<!-- Node0&#45;&gt;Node6 -->
<g id="edge6" class="edge"><title>Node0&#45;&gt;Node6</title>
<path fill="none" stroke="midnightblue" d="M340.013,-390.699C374.776,-316.895 411.693,-238.52 431.942,-195.53"/>
<polygon fill="none" stroke="midnightblue" points="336.661,-389.602 335.566,-400.141 342.993,-392.585 336.661,-389.602"/>
</g>
<!-- Node1 -->
<g id="node2" class="node"><title>Node1</title>
<g id="a_node2"><a xlink:title=" ">
<polygon fill="white" stroke="#bfbfbf" points="168.5,-931.5 168.5,-988.5 250.5,-988.5 250.5,-931.5 168.5,-931.5"/>
<text text-anchor="middle" x="209.5" y="-976.5" font-family="SegoeUI" font-size="10.00">MonoBehaviour</text>
<polyline fill="none" stroke="#bfbfbf" points="168.5,-969.5 250.5,-969.5 "/>
<text text-anchor="middle" x="209.5" y="-957.5" font-family="SegoeUI" font-size="10.00"> </text>
<polyline fill="none" stroke="#bfbfbf" points="168.5,-950.5 250.5,-950.5 "/>
<text text-anchor="middle" x="209.5" y="-938.5" font-family="SegoeUI" font-size="10.00"> </text>
</a>
</g>
</g>
<!-- Node1&#45;&gt;Node0 -->
<g id="edge1" class="edge"><title>Node1&#45;&gt;Node0</title>
<path fill="none" stroke="midnightblue" d="M214.064,-921.228C215.364,-910.47 216.892,-897.823 218.582,-883.834"/>
<polygon fill="none" stroke="midnightblue" points="210.567,-920.988 212.842,-931.336 217.517,-921.828 210.567,-920.988"/>
</g>
<!-- Node2 -->
<g id="node3" class="node"><title>Node2</title>
<g id="a_node3"><a xlink:href="../../db/d28/interface_juniper_1_1_i_installable.html" target="_top" xlink:title="Defines an interface for objects that can be installed and have their installation progress tracked.">
<polygon fill="white" stroke="black" points="269,-920.5 269,-999.5 338,-999.5 338,-920.5 269,-920.5"/>
<text text-anchor="middle" x="303.5" y="-987.5" font-family="SegoeUI" font-size="10.00">IInstallable</text>
<polyline fill="none" stroke="black" points="269,-980.5 338,-980.5 "/>
<text text-anchor="middle" x="303.5" y="-968.5" font-family="SegoeUI" font-size="10.00"> </text>
<polyline fill="none" stroke="black" points="269,-961.5 338,-961.5 "/>
<text text-anchor="start" x="277" y="-949.5" font-family="SegoeUI" font-size="10.00">+ Install()</text>
<text text-anchor="start" x="277" y="-938.5" font-family="SegoeUI" font-size="10.00">+ Reinstall()</text>
<text text-anchor="start" x="277" y="-927.5" font-family="SegoeUI" font-size="10.00">+ Uninstall()</text>
</a>
</g>
</g>
<!-- Node2&#45;&gt;Node0 -->
<g id="edge2" class="edge"><title>Node2&#45;&gt;Node0</title>
<path fill="none" stroke="midnightblue" d="M297.596,-910.139C296.622,-902.072 295.553,-893.222 294.409,-883.759"/>
<polygon fill="none" stroke="midnightblue" points="294.147,-910.771 298.822,-920.279 301.097,-909.931 294.147,-910.771"/>
</g>
<!-- Node5 -->
<g id="node6" class="node"><title>Node5</title>
<g id="a_node6"><a xlink:href="../../d6/d01/class_juniper_1_1_audio_1_1_interaction_audio.html" target="_top" xlink:title="The audio portion of the interaction system.">
<polygon fill="white" stroke="black" points="195,-0.5 195,-68.5 318,-68.5 318,-0.5 195,-0.5"/>
<text text-anchor="start" x="203" y="-56.5" font-family="SegoeUI" font-size="10.00">Juniper.Audio.Interaction</text>
<text text-anchor="middle" x="256.5" y="-45.5" font-family="SegoeUI" font-size="10.00">Audio</text>
<polyline fill="none" stroke="black" points="195,-38.5 318,-38.5 "/>
<text text-anchor="middle" x="256.5" y="-26.5" font-family="SegoeUI" font-size="10.00"> </text>
<polyline fill="none" stroke="black" points="195,-19.5 318,-19.5 "/>
<text text-anchor="middle" x="256.5" y="-7.5" font-family="SegoeUI" font-size="10.00"> </text>
</a>
</g>
</g>
<!-- Node4&#45;&gt;Node5 -->
<g id="edge5" class="edge"><title>Node4&#45;&gt;Node5</title>
<path fill="none" stroke="midnightblue" d="M256.5,-95.2571C256.5,-85.9867 256.5,-76.797 256.5,-68.5058"/>
<polygon fill="none" stroke="midnightblue" points="253,-95.3093 256.5,-105.309 260,-95.3094 253,-95.3093"/>
</g>
</g>
</svg>
