<?xml version="1.0" encoding="UTF-8" standalone="no"?>
<!DOCTYPE svg PUBLIC "-//W3C//DTD SVG 1.1//EN"
 "http://www.w3.org/Graphics/SVG/1.1/DTD/svg11.dtd">
<!-- Generated by graphviz version 2.38.0 (20140413.2041)
 -->
<!-- Title: Juniper.Unity.Anchoring.AnchorStore Pages: 1 -->
<svg width="228pt" height="647pt"
 viewBox="0.00 0.00 228.00 647.00" xmlns="http://www.w3.org/2000/svg" xmlns:xlink="http://www.w3.org/1999/xlink">
<g id="graph0" class="graph" transform="scale(1 1) rotate(0) translate(4 643)">
<title>Juniper.Unity.Anchoring.AnchorStore</title>
<polygon fill="white" stroke="none" points="-4,4 -4,-643 224,-643 224,4 -4,4"/>
<!-- Node4 -->
<g id="node1" class="node"><title>Node4</title>
<g id="a_node1"><a xlink:title="Anchors provide a means to restore the position of objects between sessions. In some AR systems,...">
<polygon fill="#bfbfbf" stroke="black" points="20,-0.5 20,-68.5 140,-68.5 140,-0.5 20,-0.5"/>
<text text-anchor="start" x="28" y="-56.5" font-family="SegoeUI" font-size="10.00">Juniper.Unity.Anchoring.</text>
<text text-anchor="middle" x="80" y="-45.5" font-family="SegoeUI" font-size="10.00">AnchorStore</text>
<polyline fill="none" stroke="black" points="20,-38.5 140,-38.5 "/>
<text text-anchor="middle" x="80" y="-26.5" font-family="SegoeUI" font-size="10.00"> </text>
<polyline fill="none" stroke="black" points="20,-19.5 140,-19.5 "/>
<text text-anchor="middle" x="80" y="-7.5" font-family="SegoeUI" font-size="10.00"> </text>
</a>
</g>
</g>
<!-- Node5 -->
<g id="node2" class="node"><title>Node5</title>
<g id="a_node2"><a xlink:href="../../de/d3f/class_juniper_1_1_unity_1_1_anchoring_1_1_a_r_kit_anchor_store.html" target="_top" xlink:title=" ">
<polygon fill="white" stroke="black" points="22,-106.5 22,-240.5 138,-240.5 138,-106.5 22,-106.5"/>
<text text-anchor="middle" x="80" y="-228.5" font-family="SegoeUI" font-size="10.00">ARKitAnchorStore</text>
<polyline fill="none" stroke="black" points="22,-221.5 138,-221.5 "/>
<text text-anchor="start" x="30" y="-209.5" font-family="SegoeUI" font-size="10.00">&#45; anchorStore</text>
<polyline fill="none" stroke="black" points="22,-202.5 138,-202.5 "/>
<text text-anchor="start" x="30" y="-190.5" font-family="SegoeUI" font-size="10.00">+ Awake()</text>
<text text-anchor="start" x="30" y="-179.5" font-family="SegoeUI" font-size="10.00">+ HasAnchor()</text>
<text text-anchor="start" x="30" y="-168.5" font-family="SegoeUI" font-size="10.00">+ ResetData()</text>
<text text-anchor="start" x="30" y="-157.5" font-family="SegoeUI" font-size="10.00"># FindAnchor()</text>
<text text-anchor="start" x="30" y="-146.5" font-family="SegoeUI" font-size="10.00"># LoadAnchor()</text>
<text text-anchor="start" x="30" y="-135.5" font-family="SegoeUI" font-size="10.00"># CreateAnchor()</text>
<text text-anchor="start" x="30" y="-124.5" font-family="SegoeUI" font-size="10.00"># SynchronizeAnchor()</text>
<text text-anchor="start" x="30" y="-113.5" font-family="SegoeUI" font-size="10.00"># DeleteAnchor()</text>
</a>
</g>
</g>
<!-- Node5&#45;&gt;Node4 -->
<g id="edge1" class="edge"><title>Node5&#45;&gt;Node4</title>
<path fill="none" stroke="midnightblue" d="M80,-96.2563C80,-86.556 80,-77.0656 80,-68.5765"/>
<polygon fill="none" stroke="midnightblue" points="76.5001,-96.4077 80,-106.408 83.5001,-96.4078 76.5001,-96.4077"/>
</g>
<!-- Node6 -->
<g id="node3" class="node"><title>Node6</title>
<g id="a_node3"><a xlink:href="../../dd/dac/class_juniper_1_1_unity_1_1_anchoring_1_1_abstract_anchor_store.html" target="_top" xlink:title="A store for points in space that the system will restore on second&#45;run. By default,...">
<polygon fill="white" stroke="black" points="22,-278.5 22,-522.5 138,-522.5 138,-278.5 22,-278.5"/>
<text text-anchor="start" x="30" y="-510.5" font-family="SegoeUI" font-size="10.00">AbstractAnchorStore</text>
<text text-anchor="middle" x="80" y="-499.5" font-family="SegoeUI" font-size="10.00">&lt; AnchorType &gt;</text>
<polyline fill="none" stroke="black" points="22,-492.5 138,-492.5 "/>
<text text-anchor="start" x="30" y="-480.5" font-family="SegoeUI" font-size="10.00">+ NameList</text>
<text text-anchor="start" x="30" y="-469.5" font-family="SegoeUI" font-size="10.00">&#45; KEY_LIST_KEY</text>
<polyline fill="none" stroke="black" points="22,-462.5 138,-462.5 "/>
<text text-anchor="start" x="30" y="-450.5" font-family="SegoeUI" font-size="10.00">+ ResetData()</text>
<text text-anchor="start" x="30" y="-439.5" font-family="SegoeUI" font-size="10.00">+ DropAnchor()</text>
<text text-anchor="start" x="30" y="-428.5" font-family="SegoeUI" font-size="10.00">+ WeighAnchor()</text>
<text text-anchor="start" x="30" y="-417.5" font-family="SegoeUI" font-size="10.00">+ HasAnchor()</text>
<text text-anchor="start" x="30" y="-406.5" font-family="SegoeUI" font-size="10.00"># SynchronizeAnchor()</text>
<text text-anchor="start" x="30" y="-395.5" font-family="SegoeUI" font-size="10.00"># IsGood()</text>
<text text-anchor="start" x="30" y="-384.5" font-family="SegoeUI" font-size="10.00"># DeleteAnchor()</text>
<text text-anchor="start" x="30" y="-373.5" font-family="SegoeUI" font-size="10.00"># FindAnchor()</text>
<text text-anchor="start" x="30" y="-362.5" font-family="SegoeUI" font-size="10.00"># IsSaved()</text>
<text text-anchor="start" x="30" y="-351.5" font-family="SegoeUI" font-size="10.00"># CreateAnchor()</text>
<text text-anchor="start" x="30" y="-340.5" font-family="SegoeUI" font-size="10.00"># LoadAnchor()</text>
<text text-anchor="start" x="30" y="-329.5" font-family="SegoeUI" font-size="10.00"># MakeID()</text>
<text text-anchor="start" x="30" y="-318.5" font-family="SegoeUI" font-size="10.00"># HasValue()</text>
<text text-anchor="start" x="30" y="-307.5" font-family="SegoeUI" font-size="10.00"># SaveValue&lt; T &gt;()</text>
<text text-anchor="start" x="30" y="-296.5" font-family="SegoeUI" font-size="10.00"># LoadValue&lt; T &gt;()</text>
<text text-anchor="start" x="30" y="-285.5" font-family="SegoeUI" font-size="10.00"># DeleteValue()</text>
</a>
</g>
</g>
<!-- Node6&#45;&gt;Node5 -->
<g id="edge2" class="edge"><title>Node6&#45;&gt;Node5</title>
<path fill="none" stroke="midnightblue" d="M80,-268.424C80,-258.868 80,-249.495 80,-240.593"/>
<polygon fill="none" stroke="midnightblue" points="76.5001,-268.438 80,-278.438 83.5001,-268.438 76.5001,-268.438"/>
</g>
<!-- Node7 -->
<g id="node4" class="node"><title>Node7</title>
<g id="a_node4"><a xlink:title=" ">
<polygon fill="white" stroke="#bfbfbf" points="0,-581.5 0,-638.5 82,-638.5 82,-581.5 0,-581.5"/>
<text text-anchor="middle" x="41" y="-626.5" font-family="SegoeUI" font-size="10.00">MonoBehaviour</text>
<polyline fill="none" stroke="#bfbfbf" points="0,-619.5 82,-619.5 "/>
<text text-anchor="middle" x="41" y="-607.5" font-family="SegoeUI" font-size="10.00"> </text>
<polyline fill="none" stroke="#bfbfbf" points="0,-600.5 82,-600.5 "/>
<text text-anchor="middle" x="41" y="-588.5" font-family="SegoeUI" font-size="10.00"> </text>
</a>
</g>
</g>
<!-- Node7&#45;&gt;Node6 -->
<g id="edge3" class="edge"><title>Node7&#45;&gt;Node6</title>
<path fill="none" stroke="midnightblue" d="M48.0996,-571.226C50.7534,-557.107 53.9308,-540.201 57.2371,-522.611"/>
<polygon fill="none" stroke="midnightblue" points="44.5864,-570.971 46.1789,-581.446 51.4659,-572.264 44.5864,-570.971"/>
</g>
<!-- Node8 -->
<g id="node5" class="node"><title>Node8</title>
<g id="a_node5"><a xlink:title=" ">
<polygon fill="white" stroke="#bfbfbf" points="100.5,-581.5 100.5,-638.5 139.5,-638.5 139.5,-581.5 100.5,-581.5"/>
<text text-anchor="middle" x="120" y="-626.5" font-family="SegoeUI" font-size="10.00">static</text>
<polyline fill="none" stroke="#bfbfbf" points="100.5,-619.5 139.5,-619.5 "/>
<text text-anchor="middle" x="120" y="-607.5" font-family="SegoeUI" font-size="10.00"> </text>
<polyline fill="none" stroke="#bfbfbf" points="100.5,-600.5 139.5,-600.5 "/>
<text text-anchor="middle" x="120" y="-588.5" font-family="SegoeUI" font-size="10.00"> </text>
</a>
</g>
</g>
<!-- Node8&#45;&gt;Node6 -->
<g id="edge4" class="edge"><title>Node8&#45;&gt;Node6</title>
<path fill="none" stroke="#404040" d="M114.688,-581.446C112.207,-568.575 109.054,-552.218 105.664,-534.634"/>
<polygon fill="none" stroke="#404040" points="105.618,-534.394 100.555,-529.259 103.347,-522.611 108.41,-527.745 105.618,-534.394"/>
<text text-anchor="middle" x="165.5" y="-555" font-family="SegoeUI" font-size="10.00"> &#45;EMPTY_STRING_ARRAY</text>
<text text-anchor="middle" x="165.5" y="-544" font-family="SegoeUI" font-size="10.00">&#45;ID_PREFIX</text>
</g>
</g>
</svg>
