<?xml version="1.0" encoding="UTF-8" standalone="no"?>
<!DOCTYPE svg PUBLIC "-//W3C//DTD SVG 1.1//EN"
 "http://www.w3.org/Graphics/SVG/1.1/DTD/svg11.dtd">
<!-- Generated by graphviz version 2.38.0 (20140413.2041)
 -->
<!-- Title: Juniper.Audio.IAudioClipCollection Pages: 1 -->
<svg width="324pt" height="364pt"
 viewBox="0.00 0.00 324.00 364.00" xmlns="http://www.w3.org/2000/svg" xmlns:xlink="http://www.w3.org/1999/xlink">
<g id="graph0" class="graph" transform="scale(1 1) rotate(0) translate(4 360)">
<title>Juniper.Audio.IAudioClipCollection</title>
<polygon fill="white" stroke="none" points="-4,4 -4,-360 320,-360 320,4 -4,4"/>
<!-- Node0 -->
<g id="node1" class="node"><title>Node0</title>
<g id="a_node1"><a xlink:title="The IAudioClipCollection interface is implemented by two classes. One is a savable collection of audi...">
<polygon fill="#bfbfbf" stroke="black" points="102,-171.5 102,-261.5 222,-261.5 222,-171.5 102,-171.5"/>
<text text-anchor="start" x="110" y="-249.5" font-family="SegoeUI" font-size="10.00">Juniper.Audio.IAudioClip</text>
<text text-anchor="middle" x="162" y="-238.5" font-family="SegoeUI" font-size="10.00">Collection</text>
<polyline fill="none" stroke="black" points="102,-231.5 222,-231.5 "/>
<text text-anchor="start" x="110" y="-219.5" font-family="SegoeUI" font-size="10.00">+ Length</text>
<text text-anchor="start" x="110" y="-208.5" font-family="SegoeUI" font-size="10.00">+ RandomizeClipPitch</text>
<text text-anchor="start" x="110" y="-197.5" font-family="SegoeUI" font-size="10.00">+ this[int index]</text>
<polyline fill="none" stroke="black" points="102,-190.5 222,-190.5 "/>
<text text-anchor="start" x="110" y="-178.5" font-family="SegoeUI" font-size="10.00">+ Random()</text>
</a>
</g>
</g>
<!-- Node2 -->
<g id="node3" class="node"><title>Node2</title>
<g id="a_node3"><a xlink:href="../../db/de2/class_juniper_1_1_audio_1_1_audio_clip_collection.html" target="_top" xlink:title="A collection of related audio clips. For example, one might have many different gunshot sounds to hav...">
<polygon fill="white" stroke="black" points="0,-6 0,-129 158,-129 158,-6 0,-6"/>
<text text-anchor="middle" x="79" y="-117" font-family="SegoeUI" font-size="10.00">Juniper.Audio.AudioClipCollection</text>
<polyline fill="none" stroke="black" points="0,-110 158,-110 "/>
<text text-anchor="start" x="8" y="-98" font-family="SegoeUI" font-size="10.00">+ randomizePitch</text>
<text text-anchor="start" x="8" y="-87" font-family="SegoeUI" font-size="10.00">+ clips</text>
<text text-anchor="start" x="8" y="-76" font-family="SegoeUI" font-size="10.00">+ Length</text>
<text text-anchor="start" x="8" y="-65" font-family="SegoeUI" font-size="10.00">+ RandomizeClipPitch</text>
<text text-anchor="start" x="8" y="-54" font-family="SegoeUI" font-size="10.00">+ this[int index]</text>
<polyline fill="none" stroke="black" points="0,-47 158,-47 "/>
<text text-anchor="start" x="8" y="-35" font-family="SegoeUI" font-size="10.00">+ Random()</text>
<text text-anchor="start" x="8" y="-24" font-family="SegoeUI" font-size="10.00">+ GetEnumerator()</text>
<text text-anchor="start" x="8" y="-13" font-family="SegoeUI" font-size="10.00">&#45; GetEnumerator()</text>
</a>
</g>
</g>
<!-- Node0&#45;&gt;Node2 -->
<g id="edge2" class="edge"><title>Node0&#45;&gt;Node2</title>
<path fill="none" stroke="midnightblue" d="M132.066,-162.485C125.96,-151.67 119.49,-140.212 113.247,-129.154"/>
<polygon fill="none" stroke="midnightblue" points="129.133,-164.408 137.097,-171.395 135.228,-160.966 129.133,-164.408"/>
</g>
<!-- Node3 -->
<g id="node4" class="node"><title>Node3</title>
<g id="a_node4"><a xlink:href="../../d7/d8b/class_juniper_1_1_audio_1_1_single_audio_clip_collection.html" target="_top" xlink:title="Wraps around a single audio clip to make it interface with code that handles full collections of audi...">
<polygon fill="white" stroke="black" points="176,-0.5 176,-134.5 316,-134.5 316,-0.5 176,-0.5"/>
<text text-anchor="start" x="184" y="-122.5" font-family="SegoeUI" font-size="10.00">Juniper.Audio.SingleAudio</text>
<text text-anchor="middle" x="246" y="-111.5" font-family="SegoeUI" font-size="10.00">ClipCollection</text>
<polyline fill="none" stroke="black" points="176,-104.5 316,-104.5 "/>
<text text-anchor="start" x="184" y="-92.5" font-family="SegoeUI" font-size="10.00">+ Length</text>
<text text-anchor="start" x="184" y="-81.5" font-family="SegoeUI" font-size="10.00">+ RandomizeClipPitch</text>
<text text-anchor="start" x="184" y="-70.5" font-family="SegoeUI" font-size="10.00">+ this[int index]</text>
<text text-anchor="start" x="184" y="-59.5" font-family="SegoeUI" font-size="10.00">&#45; clip</text>
<polyline fill="none" stroke="black" points="176,-52.5 316,-52.5 "/>
<text text-anchor="start" x="184" y="-40.5" font-family="SegoeUI" font-size="10.00">+ SingleAudioClipCollection()</text>
<text text-anchor="start" x="184" y="-29.5" font-family="SegoeUI" font-size="10.00">+ Random()</text>
<text text-anchor="start" x="184" y="-18.5" font-family="SegoeUI" font-size="10.00">+ GetEnumerator()</text>
<text text-anchor="start" x="184" y="-7.5" font-family="SegoeUI" font-size="10.00">&#45; GetEnumerator()</text>
</a>
</g>
</g>
<!-- Node0&#45;&gt;Node3 -->
<g id="edge3" class="edge"><title>Node0&#45;&gt;Node3</title>
<path fill="none" stroke="midnightblue" d="M192.28,-162.51C197.457,-153.451 202.892,-143.94 208.234,-134.591"/>
<polygon fill="none" stroke="midnightblue" points="189.125,-160.976 187.203,-171.395 195.203,-164.449 189.125,-160.976"/>
</g>
<!-- Node1 -->
<g id="node2" class="node"><title>Node1</title>
<g id="a_node2"><a xlink:title=" ">
<polygon fill="white" stroke="#bfbfbf" points="97,-298.5 97,-355.5 227,-355.5 227,-298.5 97,-298.5"/>
<text text-anchor="middle" x="162" y="-343.5" font-family="SegoeUI" font-size="10.00">IEnumerable&lt; AudioClip &gt;</text>
<polyline fill="none" stroke="#bfbfbf" points="97,-336.5 227,-336.5 "/>
<text text-anchor="middle" x="162" y="-324.5" font-family="SegoeUI" font-size="10.00"> </text>
<polyline fill="none" stroke="#bfbfbf" points="97,-317.5 227,-317.5 "/>
<text text-anchor="middle" x="162" y="-305.5" font-family="SegoeUI" font-size="10.00"> </text>
</a>
</g>
</g>
<!-- Node1&#45;&gt;Node0 -->
<g id="edge1" class="edge"><title>Node1&#45;&gt;Node0</title>
<path fill="none" stroke="midnightblue" d="M162,-288.214C162,-279.609 162,-270.394 162,-261.554"/>
<polygon fill="none" stroke="midnightblue" points="158.5,-288.34 162,-298.34 165.5,-288.34 158.5,-288.34"/>
</g>
</g>
</svg>
