<?xml version="1.0" encoding="UTF-8" standalone="no"?>
<!DOCTYPE svg PUBLIC "-//W3C//DTD SVG 1.1//EN"
 "http://www.w3.org/Graphics/SVG/1.1/DTD/svg11.dtd">
<!-- Generated by graphviz version 2.38.0 (20140413.2041)
 -->
<!-- Title: Juniper.MediaType.Font Pages: 1 -->
<svg width="260pt" height="793pt"
 viewBox="0.00 0.00 259.50 793.00" xmlns="http://www.w3.org/2000/svg" xmlns:xlink="http://www.w3.org/1999/xlink">
<g id="graph0" class="graph" transform="scale(1 1) rotate(0) translate(4 789)">
<title>Juniper.MediaType.Font</title>
<polygon fill="white" stroke="none" points="-4,4 -4,-789 255.5,-789 255.5,4 -4,4"/>
<!-- Node0 -->
<g id="node1" class="node"><title>Node0</title>
<g id="a_node1"><a xlink:title=" ">
<polygon fill="#bfbfbf" stroke="black" points="71.5,-0.5 71.5,-156.5 190.5,-156.5 190.5,-0.5 71.5,-0.5"/>
<text text-anchor="middle" x="131" y="-144.5" font-family="SegoeUI" font-size="10.00">Juniper.MediaType.Font</text>
<polyline fill="none" stroke="black" points="71.5,-137.5 190.5,-137.5 "/>
<text text-anchor="start" x="79.5" y="-125.5" font-family="SegoeUI" font-size="10.00">+ AnyFont</text>
<text text-anchor="start" x="79.5" y="-114.5" font-family="SegoeUI" font-size="10.00">+ Collection</text>
<text text-anchor="start" x="79.5" y="-103.5" font-family="SegoeUI" font-size="10.00">+ Otf</text>
<text text-anchor="start" x="79.5" y="-92.5" font-family="SegoeUI" font-size="10.00">+ Sfnt</text>
<text text-anchor="start" x="79.5" y="-81.5" font-family="SegoeUI" font-size="10.00">+ Ttf</text>
<text text-anchor="start" x="79.5" y="-70.5" font-family="SegoeUI" font-size="10.00">+ Woff</text>
<text text-anchor="start" x="79.5" y="-59.5" font-family="SegoeUI" font-size="10.00">+ Woff2</text>
<text text-anchor="start" x="79.5" y="-48.5" font-family="SegoeUI" font-size="10.00">+ Values</text>
<polyline fill="none" stroke="black" points="71.5,-41.5 190.5,-41.5 "/>
<text text-anchor="start" x="79.5" y="-29.5" font-family="SegoeUI" font-size="10.00">+ Matches()</text>
<text text-anchor="start" x="79.5" y="-18.5" font-family="SegoeUI" font-size="10.00">&#45; Font()</text>
<text text-anchor="start" x="79.5" y="-7.5" font-family="SegoeUI" font-size="10.00">&#45; Font()</text>
</a>
</g>
</g>
<!-- Node1 -->
<g id="node2" class="node"><title>Node1</title>
<g id="a_node2"><a xlink:href="../../d4/d56/class_juniper_1_1_media_type.html" target="_top" xlink:title=" ">
<polygon fill="white" stroke="black" points="71.5,-193.5 71.5,-690.5 190.5,-690.5 190.5,-193.5 71.5,-193.5"/>
<text text-anchor="middle" x="131" y="-678.5" font-family="SegoeUI" font-size="10.00">MediaType</text>
<polyline fill="none" stroke="black" points="71.5,-671.5 190.5,-671.5 "/>
<text text-anchor="start" x="79.5" y="-659.5" font-family="SegoeUI" font-size="10.00">+ Any</text>
<text text-anchor="start" x="79.5" y="-648.5" font-family="SegoeUI" font-size="10.00">+ All</text>
<text text-anchor="start" x="79.5" y="-637.5" font-family="SegoeUI" font-size="10.00">+ Values</text>
<text text-anchor="start" x="79.5" y="-626.5" font-family="SegoeUI" font-size="10.00">+ TYPE_PATTERN</text>
<text text-anchor="start" x="79.5" y="-615.5" font-family="SegoeUI" font-size="10.00">+ Value</text>
<text text-anchor="start" x="79.5" y="-604.5" font-family="SegoeUI" font-size="10.00">+ TypeName</text>
<text text-anchor="start" x="79.5" y="-593.5" font-family="SegoeUI" font-size="10.00">+ SubTypeName</text>
<text text-anchor="start" x="79.5" y="-582.5" font-family="SegoeUI" font-size="10.00">+ Weight</text>
<text text-anchor="start" x="79.5" y="-571.5" font-family="SegoeUI" font-size="10.00">+ Extensions</text>
<text text-anchor="start" x="79.5" y="-560.5" font-family="SegoeUI" font-size="10.00">+ PrimaryExtension</text>
<text text-anchor="start" x="79.5" y="-549.5" font-family="SegoeUI" font-size="10.00">&#45; weightedValue</text>
<text text-anchor="start" x="79.5" y="-538.5" font-family="SegoeUI" font-size="10.00">&#45; byExtensions</text>
<text text-anchor="start" x="79.5" y="-527.5" font-family="SegoeUI" font-size="10.00">&#45; byValue</text>
<text text-anchor="start" x="79.5" y="-516.5" font-family="SegoeUI" font-size="10.00">&#45; typePattern</text>
<polyline fill="none" stroke="black" points="71.5,-509.5 190.5,-509.5 "/>
<text text-anchor="start" x="79.5" y="-497.5" font-family="SegoeUI" font-size="10.00">+ Matches()</text>
<text text-anchor="start" x="79.5" y="-486.5" font-family="SegoeUI" font-size="10.00">+ Matches()</text>
<text text-anchor="start" x="79.5" y="-475.5" font-family="SegoeUI" font-size="10.00">+ AddExtension()</text>
<text text-anchor="start" x="79.5" y="-464.5" font-family="SegoeUI" font-size="10.00">+ Equals()</text>
<text text-anchor="start" x="79.5" y="-453.5" font-family="SegoeUI" font-size="10.00">+ Equals()</text>
<text text-anchor="start" x="79.5" y="-442.5" font-family="SegoeUI" font-size="10.00">+ Equals()</text>
<text text-anchor="start" x="79.5" y="-431.5" font-family="SegoeUI" font-size="10.00">+ ToString()</text>
<text text-anchor="start" x="79.5" y="-420.5" font-family="SegoeUI" font-size="10.00">+ GetHashCode()</text>
<text text-anchor="start" x="79.5" y="-409.5" font-family="SegoeUI" font-size="10.00">+ Parse()</text>
<text text-anchor="start" x="79.5" y="-398.5" font-family="SegoeUI" font-size="10.00">+ ParseAll()</text>
<text text-anchor="start" x="79.5" y="-387.5" font-family="SegoeUI" font-size="10.00">+ TryParse()</text>
<text text-anchor="start" x="79.5" y="-376.5" font-family="SegoeUI" font-size="10.00">+ GuessByFileName()</text>
<text text-anchor="start" x="79.5" y="-365.5" font-family="SegoeUI" font-size="10.00">+ GuessByFile()</text>
<text text-anchor="start" x="79.5" y="-354.5" font-family="SegoeUI" font-size="10.00">+ Lookup()</text>
<text text-anchor="start" x="79.5" y="-343.5" font-family="SegoeUI" font-size="10.00">+ operator+()</text>
<text text-anchor="start" x="79.5" y="-332.5" font-family="SegoeUI" font-size="10.00">+ operator string()</text>
<text text-anchor="start" x="79.5" y="-321.5" font-family="SegoeUI" font-size="10.00">+ operator==()</text>
<text text-anchor="start" x="79.5" y="-310.5" font-family="SegoeUI" font-size="10.00">+ operator !=()</text>
<text text-anchor="start" x="79.5" y="-299.5" font-family="SegoeUI" font-size="10.00">+ operator==()</text>
<text text-anchor="start" x="79.5" y="-288.5" font-family="SegoeUI" font-size="10.00">+ operator !=()</text>
<text text-anchor="start" x="79.5" y="-277.5" font-family="SegoeUI" font-size="10.00">+ operator==()</text>
<text text-anchor="start" x="79.5" y="-266.5" font-family="SegoeUI" font-size="10.00">+ operator !=()</text>
<text text-anchor="start" x="79.5" y="-255.5" font-family="SegoeUI" font-size="10.00"># MediaType()</text>
<text text-anchor="start" x="79.5" y="-244.5" font-family="SegoeUI" font-size="10.00">&#45; MediaType()</text>
<text text-anchor="start" x="79.5" y="-233.5" font-family="SegoeUI" font-size="10.00">&#45; MediaType()</text>
<text text-anchor="start" x="79.5" y="-222.5" font-family="SegoeUI" font-size="10.00">&#45; UpdateLookupTables()</text>
<text text-anchor="start" x="79.5" y="-211.5" font-family="SegoeUI" font-size="10.00">&#45; InternalParseAll()</text>
<text text-anchor="start" x="79.5" y="-200.5" font-family="SegoeUI" font-size="10.00">&#45; GuessByExtension()</text>
</a>
</g>
</g>
<!-- Node1&#45;&gt;Node0 -->
<g id="edge1" class="edge"><title>Node1&#45;&gt;Node0</title>
<path fill="none" stroke="midnightblue" d="M124.827,-183.254C124.974,-174.031 125.148,-165.137 125.351,-156.697"/>
<polygon fill="none" stroke="midnightblue" points="121.325,-183.334 124.678,-193.385 128.325,-183.437 121.325,-183.334"/>
</g>
<!-- Node1&#45;&gt;Node0 -->
<g id="edge4" class="edge"><title>Node1&#45;&gt;Node0</title>
<path fill="none" stroke="midnightblue" d="M137.173,-183.254C137.026,-174.031 136.852,-165.137 136.649,-156.697"/>
<polygon fill="none" stroke="midnightblue" points="133.675,-183.437 137.322,-193.385 140.675,-183.334 133.675,-183.437"/>
</g>
<!-- Node2 -->
<g id="node3" class="node"><title>Node2</title>
<g id="a_node3"><a xlink:title=" ">
<polygon fill="white" stroke="#bfbfbf" points="0,-727.5 0,-784.5 128,-784.5 128,-727.5 0,-727.5"/>
<text text-anchor="middle" x="64" y="-772.5" font-family="SegoeUI" font-size="10.00">IEquatable&lt; MediaType &gt;</text>
<polyline fill="none" stroke="#bfbfbf" points="0,-765.5 128,-765.5 "/>
<text text-anchor="middle" x="64" y="-753.5" font-family="SegoeUI" font-size="10.00"> </text>
<polyline fill="none" stroke="#bfbfbf" points="0,-746.5 128,-746.5 "/>
<text text-anchor="middle" x="64" y="-734.5" font-family="SegoeUI" font-size="10.00"> </text>
</a>
</g>
</g>
<!-- Node2&#45;&gt;Node1 -->
<g id="edge2" class="edge"><title>Node2&#45;&gt;Node1</title>
<path fill="none" stroke="midnightblue" d="M72.0704,-717.418C73.7848,-709.435 75.7151,-700.446 77.8037,-690.72"/>
<polygon fill="none" stroke="midnightblue" points="68.6235,-716.8 69.9458,-727.312 75.4674,-718.27 68.6235,-716.8"/>
</g>
<!-- Node3 -->
<g id="node4" class="node"><title>Node3</title>
<g id="a_node4"><a xlink:title=" ">
<polygon fill="white" stroke="#bfbfbf" points="146.5,-727.5 146.5,-784.5 251.5,-784.5 251.5,-727.5 146.5,-727.5"/>
<text text-anchor="middle" x="199" y="-772.5" font-family="SegoeUI" font-size="10.00">IEquatable&lt; string &gt;</text>
<polyline fill="none" stroke="#bfbfbf" points="146.5,-765.5 251.5,-765.5 "/>
<text text-anchor="middle" x="199" y="-753.5" font-family="SegoeUI" font-size="10.00"> </text>
<polyline fill="none" stroke="#bfbfbf" points="146.5,-746.5 251.5,-746.5 "/>
<text text-anchor="middle" x="199" y="-734.5" font-family="SegoeUI" font-size="10.00"> </text>
</a>
</g>
</g>
<!-- Node3&#45;&gt;Node1 -->
<g id="edge3" class="edge"><title>Node3&#45;&gt;Node1</title>
<path fill="none" stroke="midnightblue" d="M190.809,-717.418C189.069,-709.435 187.11,-700.446 184.99,-690.72"/>
<polygon fill="none" stroke="midnightblue" points="187.416,-718.287 192.965,-727.312 194.256,-716.796 187.416,-718.287"/>
</g>
</g>
</svg>
