<?xml version="1.0" encoding="UTF-8" standalone="no"?>
<!DOCTYPE svg PUBLIC "-//W3C//DTD SVG 1.1//EN"
 "http://www.w3.org/Graphics/SVG/1.1/DTD/svg11.dtd">
<!-- Generated by graphviz version 2.38.0 (20140413.2041)
 -->
<!-- Title: Juniper.Unity.Audio.AmbientAudio Pages: 1 -->
<svg width="145pt" height="777pt"
 viewBox="0.00 0.00 145.00 777.00" xmlns="http://www.w3.org/2000/svg" xmlns:xlink="http://www.w3.org/1999/xlink">
<g id="graph0" class="graph" transform="scale(1 1) rotate(0) translate(4 773)">
<title>Juniper.Unity.Audio.AmbientAudio</title>
<polygon fill="white" stroke="none" points="-4,4 -4,-773 141,-773 141,4 -4,4"/>
<!-- Node0 -->
<g id="node1" class="node"><title>Node0</title>
<g id="a_node1"><a xlink:title=" ">
<polygon fill="#bfbfbf" stroke="black" points="0,-0.5 0,-112.5 137,-112.5 137,-0.5 0,-0.5"/>
<text text-anchor="start" x="8" y="-100.5" font-family="SegoeUI" font-size="10.00">Juniper.Unity.Audio.Ambient</text>
<text text-anchor="middle" x="68.5" y="-89.5" font-family="SegoeUI" font-size="10.00">Audio</text>
<polyline fill="none" stroke="black" points="0,-82.5 137,-82.5 "/>
<text text-anchor="start" x="8" y="-70.5" font-family="SegoeUI" font-size="10.00">+ audioClip</text>
<text text-anchor="start" x="8" y="-59.5" font-family="SegoeUI" font-size="10.00">+ spatialize</text>
<text text-anchor="start" x="8" y="-48.5" font-family="SegoeUI" font-size="10.00">+ spatialBlend</text>
<text text-anchor="start" x="8" y="-37.5" font-family="SegoeUI" font-size="10.00">&#45; player</text>
<polyline fill="none" stroke="black" points="0,-30.5 137,-30.5 "/>
<text text-anchor="start" x="8" y="-18.5" font-family="SegoeUI" font-size="10.00">+ Awake()</text>
<text text-anchor="start" x="8" y="-7.5" font-family="SegoeUI" font-size="10.00">+ Load()</text>
</a>
</g>
</g>
<!-- Node1 -->
<g id="node2" class="node"><title>Node1</title>
<g id="a_node2"><a xlink:href="../../d7/d3c/class_juniper_1_1_unity_1_1_sub_scene_controller.html" target="_top" xlink:title="SubSceneControllers are used by the MasterSceneController to manage workflow through an application....">
<polygon fill="white" stroke="black" points="8.5,-149.5 8.5,-327.5 128.5,-327.5 128.5,-149.5 8.5,-149.5"/>
<text text-anchor="middle" x="68.5" y="-315.5" font-family="SegoeUI" font-size="10.00">SubSceneController</text>
<polyline fill="none" stroke="black" points="8.5,-308.5 128.5,-308.5 "/>
<text text-anchor="start" x="16.5" y="-296.5" font-family="SegoeUI" font-size="10.00">+ Enterable</text>
<text text-anchor="start" x="16.5" y="-285.5" font-family="SegoeUI" font-size="10.00">+ Exitable</text>
<text text-anchor="start" x="16.5" y="-274.5" font-family="SegoeUI" font-size="10.00">+ CurrentSubScenes</text>
<text text-anchor="start" x="16.5" y="-263.5" font-family="SegoeUI" font-size="10.00"># deactivateOnExit</text>
<text text-anchor="start" x="16.5" y="-252.5" font-family="SegoeUI" font-size="10.00">&#45; childTransitions</text>
<text text-anchor="start" x="16.5" y="-241.5" font-family="SegoeUI" font-size="10.00">&#45; isExitingPreviousScene</text>
<polyline fill="none" stroke="black" points="8.5,-234.5 128.5,-234.5 "/>
<text text-anchor="start" x="16.5" y="-222.5" font-family="SegoeUI" font-size="10.00">+ Awake()</text>
<text text-anchor="start" x="16.5" y="-211.5" font-family="SegoeUI" font-size="10.00">+ Load()</text>
<text text-anchor="start" x="16.5" y="-200.5" font-family="SegoeUI" font-size="10.00">+ Enter()</text>
<text text-anchor="start" x="16.5" y="-189.5" font-family="SegoeUI" font-size="10.00">+ Exit()</text>
<text text-anchor="start" x="16.5" y="-178.5" font-family="SegoeUI" font-size="10.00">+ Update()</text>
<text text-anchor="start" x="16.5" y="-167.5" font-family="SegoeUI" font-size="10.00"># OnExited()</text>
<text text-anchor="start" x="16.5" y="-156.5" font-family="SegoeUI" font-size="10.00">&#45; AllComplete()</text>
</a>
</g>
</g>
<!-- Node1&#45;&gt;Node0 -->
<g id="edge1" class="edge"><title>Node1&#45;&gt;Node0</title>
<path fill="none" stroke="midnightblue" d="M68.5,-139.125C68.5,-130.097 68.5,-121.183 68.5,-112.75"/>
<polygon fill="none" stroke="midnightblue" points="65.0001,-139.346 68.5,-149.346 72.0001,-139.346 65.0001,-139.346"/>
</g>
<!-- Node2 -->
<g id="node3" class="node"><title>Node2</title>
<g id="a_node3"><a xlink:href="../../dd/d90/class_juniper_1_1_unity_1_1_abstract_state_controller.html" target="_top" xlink:title="A subscene is a game object loaded from another scene. The scenes all get loaded at runtime and then ...">
<polygon fill="white" stroke="black" points="10.5,-364.5 10.5,-674.5 126.5,-674.5 126.5,-364.5 10.5,-364.5"/>
<text text-anchor="middle" x="68.5" y="-662.5" font-family="SegoeUI" font-size="10.00">AbstractStateController</text>
<polyline fill="none" stroke="black" points="10.5,-655.5 126.5,-655.5 "/>
<text text-anchor="start" x="18.5" y="-643.5" font-family="SegoeUI" font-size="10.00">+ onEntering</text>
<text text-anchor="start" x="18.5" y="-632.5" font-family="SegoeUI" font-size="10.00">+ onEntered</text>
<text text-anchor="start" x="18.5" y="-621.5" font-family="SegoeUI" font-size="10.00">+ onExiting</text>
<text text-anchor="start" x="18.5" y="-610.5" font-family="SegoeUI" font-size="10.00">+ onExited</text>
<text text-anchor="start" x="18.5" y="-599.5" font-family="SegoeUI" font-size="10.00">+ state</text>
<text text-anchor="start" x="18.5" y="-588.5" font-family="SegoeUI" font-size="10.00">+ IsComplete</text>
<text text-anchor="start" x="18.5" y="-577.5" font-family="SegoeUI" font-size="10.00">+ IsRunning</text>
<text text-anchor="start" x="18.5" y="-566.5" font-family="SegoeUI" font-size="10.00">+ IsEntered</text>
<text text-anchor="start" x="18.5" y="-555.5" font-family="SegoeUI" font-size="10.00">+ IsExited</text>
<text text-anchor="start" x="18.5" y="-544.5" font-family="SegoeUI" font-size="10.00">+ Waiter</text>
<text text-anchor="start" x="18.5" y="-533.5" font-family="SegoeUI" font-size="10.00">&#45; lastState</text>
<text text-anchor="start" x="18.5" y="-522.5" font-family="SegoeUI" font-size="10.00">&#45; skipEvents</text>
<text text-anchor="start" x="18.5" y="-511.5" font-family="SegoeUI" font-size="10.00">&#45; _waiter</text>
<polyline fill="none" stroke="black" points="10.5,-504.5 126.5,-504.5 "/>
<text text-anchor="start" x="18.5" y="-492.5" font-family="SegoeUI" font-size="10.00">+ HasCompleted()</text>
<text text-anchor="start" x="18.5" y="-481.5" font-family="SegoeUI" font-size="10.00">+ SkipEnter()</text>
<text text-anchor="start" x="18.5" y="-470.5" font-family="SegoeUI" font-size="10.00">+ Enter()</text>
<text text-anchor="start" x="18.5" y="-459.5" font-family="SegoeUI" font-size="10.00">+ OnEnable()</text>
<text text-anchor="start" x="18.5" y="-448.5" font-family="SegoeUI" font-size="10.00">+ Update()</text>
<text text-anchor="start" x="18.5" y="-437.5" font-family="SegoeUI" font-size="10.00">+ SkipExit()</text>
<text text-anchor="start" x="18.5" y="-426.5" font-family="SegoeUI" font-size="10.00">+ Exit()</text>
<text text-anchor="start" x="18.5" y="-415.5" font-family="SegoeUI" font-size="10.00">+ OnDisable()</text>
<text text-anchor="start" x="18.5" y="-404.5" font-family="SegoeUI" font-size="10.00"># OnEntering()</text>
<text text-anchor="start" x="18.5" y="-393.5" font-family="SegoeUI" font-size="10.00"># OnEntered()</text>
<text text-anchor="start" x="18.5" y="-382.5" font-family="SegoeUI" font-size="10.00"># OnExiting()</text>
<text text-anchor="start" x="18.5" y="-371.5" font-family="SegoeUI" font-size="10.00"># OnExited()</text>
</a>
</g>
</g>
<!-- Node2&#45;&gt;Node1 -->
<g id="edge2" class="edge"><title>Node2&#45;&gt;Node1</title>
<path fill="none" stroke="midnightblue" d="M68.5,-354.121C68.5,-345.141 68.5,-336.303 68.5,-327.762"/>
<polygon fill="none" stroke="midnightblue" points="65.0001,-354.311 68.5,-364.311 72.0001,-354.311 65.0001,-354.311"/>
</g>
<!-- Node3 -->
<g id="node4" class="node"><title>Node3</title>
<g id="a_node4"><a xlink:title=" ">
<polygon fill="white" stroke="#bfbfbf" points="27.5,-711.5 27.5,-768.5 109.5,-768.5 109.5,-711.5 27.5,-711.5"/>
<text text-anchor="middle" x="68.5" y="-756.5" font-family="SegoeUI" font-size="10.00">MonoBehaviour</text>
<polyline fill="none" stroke="#bfbfbf" points="27.5,-749.5 109.5,-749.5 "/>
<text text-anchor="middle" x="68.5" y="-737.5" font-family="SegoeUI" font-size="10.00"> </text>
<polyline fill="none" stroke="#bfbfbf" points="27.5,-730.5 109.5,-730.5 "/>
<text text-anchor="middle" x="68.5" y="-718.5" font-family="SegoeUI" font-size="10.00"> </text>
</a>
</g>
</g>
<!-- Node3&#45;&gt;Node2 -->
<g id="edge3" class="edge"><title>Node3&#45;&gt;Node2</title>
<path fill="none" stroke="midnightblue" d="M68.5,-701.281C68.5,-693.208 68.5,-684.205 68.5,-674.648"/>
<polygon fill="none" stroke="midnightblue" points="65.0001,-701.327 68.5,-711.327 72.0001,-701.327 65.0001,-701.327"/>
</g>
</g>
</svg>
