<?xml version="1.0" encoding="UTF-8" standalone="no"?>
<!DOCTYPE svg PUBLIC "-//W3C//DTD SVG 1.1//EN"
 "http://www.w3.org/Graphics/SVG/1.1/DTD/svg11.dtd">
<!-- Generated by graphviz version 2.38.0 (20140413.2041)
 -->
<!-- Title: Juniper.World.GIS.Google.StreetView.MetadataRequest Pages: 1 -->
<!--zoomable 1434 -->
<svg id="main" version="1.1" xmlns="http://www.w3.org/2000/svg" xmlns:xlink="http://www.w3.org/1999/xlink" xml:space="preserve" onload="init(evt)">
<style type="text/css"><![CDATA[
.edge:hover path { stroke: red; }
.edge:hover polygon { stroke: red; fill: red; }
]]></style>
<script type="text/javascript"><![CDATA[
var edges = document.getElementsByTagName('g');
if (edges && edges.length) {
  for (var i=0;i<edges.length;i++) {
    if (edges[i].id.substr(0,4)=='edge') {
      edges[i].setAttribute('class','edge');
    }
  }
}
]]></script>
        <defs>
                <circle id="rim" cx="0" cy="0" r="7"/>
                <circle id="rim2" cx="0" cy="0" r="3.5"/>
                <g id="zoomPlus">
                        <use xlink:href="#rim" fill="#404040">
                                <set attributeName="fill" to="#808080" begin="zoomplus.mouseover" end="zoomplus.mouseout"/>
                        </use>
                        <path d="M-4,0h8M0,-4v8" fill="none" stroke="white" stroke-width="1.5" pointer-events="none"/>
                </g>
                <g id="zoomMin">
                        <use xlink:href="#rim" fill="#404040">
                                <set attributeName="fill" to="#808080" begin="zoomminus.mouseover" end="zoomminus.mouseout"/>
                        </use>
                        <path d="M-4,0h8" fill="none" stroke="white" stroke-width="1.5" pointer-events="none"/>
                </g>
                <g id="dirArrow">
                        <path fill="none" stroke="white" stroke-width="1.5" d="M0,-3.0v7 M-2.5,-0.5L0,-3.0L2.5,-0.5"/>
                </g>
               <g id="resetDef">
                       <use xlink:href="#rim2" fill="#404040">
                               <set attributeName="fill" to="#808080" begin="reset.mouseover" end="reset.mouseout"/>
                       </use>
               </g>
        </defs>

<script type="text/javascript">
var viewWidth = 318;
var viewHeight = 1434;
var sectionId = 'dynsection-0';
</script>
<script xlink:href="../../svgpan.js"/>
<svg id="graph" class="graph">
<g id="viewport">
<title>Juniper.World.GIS.Google.StreetView.MetadataRequest</title>
<polygon fill="white" stroke="none" points="-4,4 -4,-1430 314,-1430 314,4 -4,4"/>
<!-- Node0 -->
<g id="node1" class="node"><title>Node0</title>
<g id="a_node1"><a xlink:title=" ">
<polygon fill="#bfbfbf" stroke="black" points="120.5,-0.5 120.5,-68.5 261.5,-68.5 261.5,-0.5 120.5,-0.5"/>
<text text-anchor="start" x="128.5" y="-56.5" font-family="SegoeUI" font-size="10.00">Juniper.World.GIS.Google.</text>
<text text-anchor="middle" x="191" y="-45.5" font-family="SegoeUI" font-size="10.00">StreetView.MetadataRequest</text>
<polyline fill="none" stroke="black" points="120.5,-38.5 261.5,-38.5 "/>
<text text-anchor="middle" x="191" y="-26.5" font-family="SegoeUI" font-size="10.00"> </text>
<polyline fill="none" stroke="black" points="120.5,-19.5 261.5,-19.5 "/>
<text text-anchor="start" x="128.5" y="-7.5" font-family="SegoeUI" font-size="10.00">+ MetadataRequest()</text>
</a>
</g>
</g>
<!-- Node1 -->
<g id="node2" class="node"><title>Node1</title>
<g id="a_node2"><a xlink:href="../../d1/dc1/class_juniper_1_1_world_1_1_g_i_s_1_1_google_1_1_street_view_1_1_abstract_street_view_request.html" target="_top" xlink:title=" ">
<polygon fill="white" stroke="black" points="115.5,-106.5 115.5,-251.5 266.5,-251.5 266.5,-106.5 115.5,-106.5"/>
<text text-anchor="start" x="123.5" y="-239.5" font-family="SegoeUI" font-size="10.00">AbstractStreetViewRequest</text>
<text text-anchor="middle" x="191" y="-228.5" font-family="SegoeUI" font-size="10.00">&lt; MediaType.Application &gt;</text>
<polyline fill="none" stroke="black" points="115.5,-221.5 266.5,-221.5 "/>
<text text-anchor="start" x="123.5" y="-209.5" font-family="SegoeUI" font-size="10.00">+ Pano</text>
<text text-anchor="start" x="123.5" y="-198.5" font-family="SegoeUI" font-size="10.00">+ Place</text>
<text text-anchor="start" x="123.5" y="-187.5" font-family="SegoeUI" font-size="10.00">+ Location</text>
<text text-anchor="start" x="123.5" y="-176.5" font-family="SegoeUI" font-size="10.00">+ Radius</text>
<text text-anchor="start" x="123.5" y="-165.5" font-family="SegoeUI" font-size="10.00">&#45; pano</text>
<text text-anchor="start" x="123.5" y="-154.5" font-family="SegoeUI" font-size="10.00">&#45; placeName</text>
<text text-anchor="start" x="123.5" y="-143.5" font-family="SegoeUI" font-size="10.00">&#45; location</text>
<text text-anchor="start" x="123.5" y="-132.5" font-family="SegoeUI" font-size="10.00">&#45; radius</text>
<polyline fill="none" stroke="black" points="115.5,-125.5 266.5,-125.5 "/>
<text text-anchor="start" x="123.5" y="-113.5" font-family="SegoeUI" font-size="10.00"># AbstractStreetViewRequest()</text>
</a>
</g>
</g>
<!-- Node1&#45;&gt;Node0 -->
<g id="edge1" class="edge"><title>Node1&#45;&gt;Node0</title>
<path fill="none" stroke="midnightblue" d="M191,-96.1822C191,-86.5049 191,-77.0935 191,-68.6838"/>
<polygon fill="none" stroke="midnightblue" points="187.5,-96.3325 191,-106.333 194.5,-96.3326 187.5,-96.3325"/>
</g>
<!-- Node2 -->
<g id="node3" class="node"><title>Node2</title>
<g id="a_node3"><a xlink:href="../../d1/dc1/class_juniper_1_1_world_1_1_g_i_s_1_1_google_1_1_street_view_1_1_abstract_street_view_request.html" target="_top" xlink:title=" ">
<polygon fill="white" stroke="black" points="99,-299.5 99,-455.5 283,-455.5 283,-299.5 99,-299.5"/>
<text text-anchor="start" x="107" y="-443.5" font-family="SegoeUI" font-size="10.00">Juniper.World.GIS.Google.</text>
<text text-anchor="start" x="107" y="-432.5" font-family="SegoeUI" font-size="10.00">StreetView.AbstractStreetViewRequest</text>
<text text-anchor="middle" x="191" y="-421.5" font-family="SegoeUI" font-size="10.00">&lt; MediaTypeT &gt;</text>
<polyline fill="none" stroke="black" points="99,-414.5 283,-414.5 "/>
<text text-anchor="start" x="107" y="-402.5" font-family="SegoeUI" font-size="10.00">+ Pano</text>
<text text-anchor="start" x="107" y="-391.5" font-family="SegoeUI" font-size="10.00">+ Place</text>
<text text-anchor="start" x="107" y="-380.5" font-family="SegoeUI" font-size="10.00">+ Location</text>
<text text-anchor="start" x="107" y="-369.5" font-family="SegoeUI" font-size="10.00">+ Radius</text>
<text text-anchor="start" x="107" y="-358.5" font-family="SegoeUI" font-size="10.00">&#45; pano</text>
<text text-anchor="start" x="107" y="-347.5" font-family="SegoeUI" font-size="10.00">&#45; placeName</text>
<text text-anchor="start" x="107" y="-336.5" font-family="SegoeUI" font-size="10.00">&#45; location</text>
<text text-anchor="start" x="107" y="-325.5" font-family="SegoeUI" font-size="10.00">&#45; radius</text>
<polyline fill="none" stroke="black" points="99,-318.5 283,-318.5 "/>
<text text-anchor="start" x="107" y="-306.5" font-family="SegoeUI" font-size="10.00"># AbstractStreetViewRequest()</text>
</a>
</g>
</g>
<!-- Node2&#45;&gt;Node1 -->
<g id="edge2" class="edge"><title>Node2&#45;&gt;Node1</title>
<path fill="none" stroke="orange" d="M191,-289.383C191,-276.805 191,-263.98 191,-251.747"/>
<polygon fill="orange" stroke="orange" points="187.5,-289.402 191,-299.402 194.5,-289.402 187.5,-289.402"/>
<text text-anchor="middle" x="250.5" y="-273" font-family="SegoeUI" font-size="10.00"> &lt; MediaType.Application &gt;</text>
</g>
<!-- Node3 -->
<g id="node4" class="node"><title>Node3</title>
<g id="a_node4"><a xlink:href="../../d3/d6c/class_juniper_1_1_world_1_1_g_i_s_1_1_google_1_1_abstract_google_maps_request.html" target="_top" xlink:title=" ">
<polygon fill="white" stroke="black" points="113.5,-493.5 113.5,-605.5 268.5,-605.5 268.5,-493.5 113.5,-493.5"/>
<text text-anchor="start" x="121.5" y="-593.5" font-family="SegoeUI" font-size="10.00">AbstractGoogleMapsRequest</text>
<text text-anchor="middle" x="191" y="-582.5" font-family="SegoeUI" font-size="10.00">&lt; MediaTypeT &gt;</text>
<polyline fill="none" stroke="black" points="113.5,-575.5 268.5,-575.5 "/>
<text text-anchor="start" x="121.5" y="-563.5" font-family="SegoeUI" font-size="10.00">+ AuthenticatedURI</text>
<text text-anchor="start" x="121.5" y="-552.5" font-family="SegoeUI" font-size="10.00"># InternalCacheID</text>
<text text-anchor="start" x="121.5" y="-541.5" font-family="SegoeUI" font-size="10.00">&#45; apiKey</text>
<text text-anchor="start" x="121.5" y="-530.5" font-family="SegoeUI" font-size="10.00">&#45; signingKey</text>
<text text-anchor="start" x="121.5" y="-519.5" font-family="SegoeUI" font-size="10.00">&#45; gmaps</text>
<polyline fill="none" stroke="black" points="113.5,-512.5 268.5,-512.5 "/>
<text text-anchor="start" x="121.5" y="-500.5" font-family="SegoeUI" font-size="10.00"># AbstractGoogleMapsRequest()</text>
</a>
</g>
</g>
<!-- Node3&#45;&gt;Node2 -->
<g id="edge3" class="edge"><title>Node3&#45;&gt;Node2</title>
<path fill="none" stroke="midnightblue" d="M191,-483.263C191,-474.229 191,-464.879 191,-455.654"/>
<polygon fill="none" stroke="midnightblue" points="187.5,-483.306 191,-493.306 194.5,-483.306 187.5,-483.306"/>
</g>
<!-- Node4 -->
<g id="node5" class="node"><title>Node4</title>
<g id="a_node5"><a xlink:href="../../db/d68/class_juniper_1_1_h_t_t_p_1_1_r_e_s_t_1_1_abstract_request.html" target="_top" xlink:title=" ">
<polygon fill="white" stroke="black" points="0,-643.5 0,-953.5 158,-953.5 158,-643.5 0,-643.5"/>
<text text-anchor="middle" x="79" y="-941.5" font-family="SegoeUI" font-size="10.00">AbstractRequest&lt; MediaTypeT &gt;</text>
<polyline fill="none" stroke="black" points="0,-934.5 158,-934.5 "/>
<text text-anchor="start" x="8" y="-922.5" font-family="SegoeUI" font-size="10.00">+ ContentType</text>
<text text-anchor="start" x="8" y="-911.5" font-family="SegoeUI" font-size="10.00">+ MediaType</text>
<text text-anchor="start" x="8" y="-900.5" font-family="SegoeUI" font-size="10.00">+ BaseURI</text>
<text text-anchor="start" x="8" y="-889.5" font-family="SegoeUI" font-size="10.00">+ StandardRequestCacheID</text>
<text text-anchor="start" x="8" y="-878.5" font-family="SegoeUI" font-size="10.00"># AuthenticatedURI</text>
<text text-anchor="start" x="8" y="-867.5" font-family="SegoeUI" font-size="10.00">&#45; method</text>
<text text-anchor="start" x="8" y="-856.5" font-family="SegoeUI" font-size="10.00">&#45; serviceURI</text>
<text text-anchor="start" x="8" y="-845.5" font-family="SegoeUI" font-size="10.00">&#45; hasRequestBody</text>
<text text-anchor="start" x="8" y="-834.5" font-family="SegoeUI" font-size="10.00">&#45; queryParams</text>
<polyline fill="none" stroke="black" points="0,-827.5 158,-827.5 "/>
<text text-anchor="start" x="8" y="-815.5" font-family="SegoeUI" font-size="10.00">+ Equals()</text>
<text text-anchor="start" x="8" y="-804.5" font-family="SegoeUI" font-size="10.00">+ GetStreamAsync()</text>
<text text-anchor="start" x="8" y="-793.5" font-family="SegoeUI" font-size="10.00">+ GetHashCode()</text>
<text text-anchor="start" x="8" y="-782.5" font-family="SegoeUI" font-size="10.00"># AbstractRequest()</text>
<text text-anchor="start" x="8" y="-771.5" font-family="SegoeUI" font-size="10.00"># SetQuery()</text>
<text text-anchor="start" x="8" y="-760.5" font-family="SegoeUI" font-size="10.00"># SetQuery&lt; U &gt;()</text>
<text text-anchor="start" x="8" y="-749.5" font-family="SegoeUI" font-size="10.00"># AddQuery()</text>
<text text-anchor="start" x="8" y="-738.5" font-family="SegoeUI" font-size="10.00"># AddQuery&lt; U &gt;()</text>
<text text-anchor="start" x="8" y="-727.5" font-family="SegoeUI" font-size="10.00"># RemoveQuery()</text>
<text text-anchor="start" x="8" y="-716.5" font-family="SegoeUI" font-size="10.00"># RemoveQuery()</text>
<text text-anchor="start" x="8" y="-705.5" font-family="SegoeUI" font-size="10.00"># RemoveQuery&lt; U &gt;()</text>
<text text-anchor="start" x="8" y="-694.5" font-family="SegoeUI" font-size="10.00"># ModifyRequest()</text>
<text text-anchor="start" x="8" y="-683.5" font-family="SegoeUI" font-size="10.00"># GetBodyInfo()</text>
<text text-anchor="start" x="8" y="-672.5" font-family="SegoeUI" font-size="10.00"># WriteBody()</text>
<text text-anchor="start" x="8" y="-661.5" font-family="SegoeUI" font-size="10.00"># AddPath()</text>
<text text-anchor="start" x="8" y="-650.5" font-family="SegoeUI" font-size="10.00">&#45; SetQuery()</text>
</a>
</g>
</g>
<!-- Node4&#45;&gt;Node3 -->
<g id="edge4" class="edge"><title>Node4&#45;&gt;Node3</title>
<path fill="none" stroke="midnightblue" d="M153.163,-633.943C157.672,-623.999 162.005,-614.444 166.026,-605.576"/>
<polygon fill="none" stroke="midnightblue" points="149.919,-632.624 148.977,-643.176 156.294,-635.514 149.919,-632.624"/>
</g>
<!-- Node5 -->
<g id="node6" class="node"><title>Node5</title>
<g id="a_node6"><a xlink:href="../../d4/d35/class_juniper_1_1_i_o_1_1_abstract_stream_source.html" target="_top" xlink:title=" ">
<polygon fill="white" stroke="black" points="13.5,-991.5 13.5,-1092.5 144.5,-1092.5 144.5,-991.5 13.5,-991.5"/>
<text text-anchor="middle" x="79" y="-1080.5" font-family="SegoeUI" font-size="10.00">AbstractStreamSource</text>
<polyline fill="none" stroke="black" points="13.5,-1073.5 144.5,-1073.5 "/>
<text text-anchor="start" x="21.5" y="-1061.5" font-family="SegoeUI" font-size="10.00">+ CacheID</text>
<text text-anchor="start" x="21.5" y="-1050.5" font-family="SegoeUI" font-size="10.00">+ DoNotCache</text>
<text text-anchor="start" x="21.5" y="-1039.5" font-family="SegoeUI" font-size="10.00">+ InternalCacheID</text>
<polyline fill="none" stroke="black" points="13.5,-1032.5 144.5,-1032.5 "/>
<text text-anchor="start" x="21.5" y="-1020.5" font-family="SegoeUI" font-size="10.00">+ GetStreamAsync()</text>
<text text-anchor="start" x="21.5" y="-1009.5" font-family="SegoeUI" font-size="10.00"># AbstractStreamSource()</text>
<text text-anchor="start" x="21.5" y="-998.5" font-family="SegoeUI" font-size="10.00"># AbstractStreamSource()</text>
</a>
</g>
</g>
<!-- Node5&#45;&gt;Node4 -->
<g id="edge5" class="edge"><title>Node5&#45;&gt;Node4</title>
<path fill="none" stroke="midnightblue" d="M79,-981.001C79,-972.353 79,-963.143 79,-953.632"/>
<polygon fill="none" stroke="midnightblue" points="75.5001,-981.254 79,-991.254 82.5001,-981.254 75.5001,-981.254"/>
</g>
<!-- Node6 -->
<g id="node7" class="node"><title>Node6</title>
<g id="a_node7"><a xlink:href="../../de/db8/class_juniper_1_1_i_o_1_1_content_reference.html" target="_top" xlink:title=" ">
<polygon fill="white" stroke="black" points="24,-1130.5 24,-1330.5 134,-1330.5 134,-1130.5 24,-1130.5"/>
<text text-anchor="middle" x="79" y="-1318.5" font-family="SegoeUI" font-size="10.00">ContentReference</text>
<polyline fill="none" stroke="black" points="24,-1311.5 134,-1311.5 "/>
<text text-anchor="start" x="32" y="-1299.5" font-family="SegoeUI" font-size="10.00">+ CacheID</text>
<text text-anchor="start" x="32" y="-1288.5" font-family="SegoeUI" font-size="10.00">+ ContentType</text>
<text text-anchor="start" x="32" y="-1277.5" font-family="SegoeUI" font-size="10.00">+ DoNotCache</text>
<text text-anchor="start" x="32" y="-1266.5" font-family="SegoeUI" font-size="10.00">+ FileName</text>
<polyline fill="none" stroke="black" points="24,-1259.5 134,-1259.5 "/>
<text text-anchor="start" x="32" y="-1247.5" font-family="SegoeUI" font-size="10.00">+ ContentReference()</text>
<text text-anchor="start" x="32" y="-1236.5" font-family="SegoeUI" font-size="10.00">+ Equals()</text>
<text text-anchor="start" x="32" y="-1225.5" font-family="SegoeUI" font-size="10.00">+ Equals()</text>
<text text-anchor="start" x="32" y="-1214.5" font-family="SegoeUI" font-size="10.00">+ ToString()</text>
<text text-anchor="start" x="32" y="-1203.5" font-family="SegoeUI" font-size="10.00">+ GetHashCode()</text>
<text text-anchor="start" x="32" y="-1192.5" font-family="SegoeUI" font-size="10.00">+ operator==()</text>
<text text-anchor="start" x="32" y="-1181.5" font-family="SegoeUI" font-size="10.00">+ operator !=()</text>
<text text-anchor="start" x="32" y="-1170.5" font-family="SegoeUI" font-size="10.00">+ operator string()</text>
<text text-anchor="start" x="32" y="-1159.5" font-family="SegoeUI" font-size="10.00">+ operator+()</text>
<text text-anchor="start" x="32" y="-1148.5" font-family="SegoeUI" font-size="10.00">+ operator+()</text>
<text text-anchor="start" x="32" y="-1137.5" font-family="SegoeUI" font-size="10.00"># ContentReference()</text>
</a>
</g>
</g>
<!-- Node6&#45;&gt;Node5 -->
<g id="edge6" class="edge"><title>Node6&#45;&gt;Node5</title>
<path fill="none" stroke="midnightblue" d="M79,-1120.2C79,-1110.63 79,-1101.29 79,-1092.6"/>
<polygon fill="none" stroke="midnightblue" points="75.5001,-1120.24 79,-1130.24 82.5001,-1120.24 75.5001,-1120.24"/>
</g>
<!-- Node7 -->
<g id="node8" class="node"><title>Node7</title>
<g id="a_node8"><a xlink:title=" ">
<polygon fill="white" stroke="#bfbfbf" points="0,-1368.5 0,-1425.5 158,-1425.5 158,-1368.5 0,-1368.5"/>
<text text-anchor="middle" x="79" y="-1413.5" font-family="SegoeUI" font-size="10.00">IEquatable&lt; ContentReference &gt;</text>
<polyline fill="none" stroke="#bfbfbf" points="0,-1406.5 158,-1406.5 "/>
<text text-anchor="middle" x="79" y="-1394.5" font-family="SegoeUI" font-size="10.00"> </text>
<polyline fill="none" stroke="#bfbfbf" points="0,-1387.5 158,-1387.5 "/>
<text text-anchor="middle" x="79" y="-1375.5" font-family="SegoeUI" font-size="10.00"> </text>
</a>
</g>
</g>
<!-- Node7&#45;&gt;Node6 -->
<g id="edge7" class="edge"><title>Node7&#45;&gt;Node6</title>
<path fill="none" stroke="midnightblue" d="M79,-1358.29C79,-1349.84 79,-1340.5 79,-1330.82"/>
<polygon fill="none" stroke="midnightblue" points="75.5001,-1358.47 79,-1368.47 82.5001,-1358.47 75.5001,-1358.47"/>
</g>
<!-- Node8 -->
<g id="node9" class="node"><title>Node8</title>
<g id="a_node9"><a xlink:href="../../d3/db4/interface_juniper_1_1_world_1_1_g_i_s_1_1_google_1_1_i_google_maps_request.html" target="_top" xlink:title=" ">
<polygon fill="white" stroke="black" points="176,-770 176,-827 282,-827 282,-770 176,-770"/>
<text text-anchor="middle" x="229" y="-815" font-family="SegoeUI" font-size="10.00">IGoogleMapsRequest</text>
<polyline fill="none" stroke="black" points="176,-808 282,-808 "/>
<text text-anchor="middle" x="229" y="-796" font-family="SegoeUI" font-size="10.00"> </text>
<polyline fill="none" stroke="black" points="176,-789 282,-789 "/>
<text text-anchor="middle" x="229" y="-777" font-family="SegoeUI" font-size="10.00"> </text>
</a>
</g>
</g>
<!-- Node8&#45;&gt;Node3 -->
<g id="edge8" class="edge"><title>Node8&#45;&gt;Node3</title>
<path fill="none" stroke="midnightblue" d="M223.155,-759.507C216.833,-718.412 206.693,-652.507 199.492,-605.699"/>
<polygon fill="none" stroke="midnightblue" points="219.735,-760.295 224.715,-769.646 226.653,-759.23 219.735,-760.295"/>
</g>
</g>
</svg>
        <g id="navigator" transform="translate(0 0)" fill="#404254">
                <rect fill="#f2f5e9" fill-opacity="0.5" stroke="#606060" stroke-width=".5" x="0" y="0" width="60" height="60"/>
                <use id="zoomplus" xlink:href="#zoomPlus" x="17" y="9" onmousedown="handleZoom(evt,'in')"/>
                <use id="zoomminus" xlink:href="#zoomMin" x="42" y="9" onmousedown="handleZoom(evt,'out')"/>
                <use id="reset" xlink:href="#resetDef" x="30" y="36" onmousedown="handleReset()"/>
                <g id="arrowUp" xlink:href="#dirArrow" transform="translate(30 24)" onmousedown="handlePan(0,-1)">
                  <use xlink:href="#rim" fill="#404040">
                        <set attributeName="fill" to="#808080" begin="arrowUp.mouseover" end="arrowUp.mouseout"/>
                  </use>
                  <path fill="none" stroke="white" stroke-width="1.5" d="M0,-3.0v7 M-2.5,-0.5L0,-3.0L2.5,-0.5"/>
                </g>
                <g id="arrowRight" xlink:href="#dirArrow" transform="rotate(90) translate(36 -43)" onmousedown="handlePan(1,0)">
                  <use xlink:href="#rim" fill="#404040">
                        <set attributeName="fill" to="#808080" begin="arrowRight.mouseover" end="arrowRight.mouseout"/>
                  </use>
                  <path fill="none" stroke="white" stroke-width="1.5" d="M0,-3.0v7 M-2.5,-0.5L0,-3.0L2.5,-0.5"/>
                </g>
                <g id="arrowDown" xlink:href="#dirArrow" transform="rotate(180) translate(-30 -48)" onmousedown="handlePan(0,1)">
                  <use xlink:href="#rim" fill="#404040">
                        <set attributeName="fill" to="#808080" begin="arrowDown.mouseover" end="arrowDown.mouseout"/>
                  </use>
                  <path fill="none" stroke="white" stroke-width="1.5" d="M0,-3.0v7 M-2.5,-0.5L0,-3.0L2.5,-0.5"/>
                </g>
                <g id="arrowLeft" xlink:href="#dirArrow" transform="rotate(270) translate(-36 17)" onmousedown="handlePan(-1,0)">
                  <use xlink:href="#rim" fill="#404040">
                        <set attributeName="fill" to="#808080" begin="arrowLeft.mouseover" end="arrowLeft.mouseout"/>
                  </use>
                  <path fill="none" stroke="white" stroke-width="1.5" d="M0,-3.0v7 M-2.5,-0.5L0,-3.0L2.5,-0.5"/>
                </g>
        </g>
        <svg viewBox="0 0 15 15" width="100%" height="30px" preserveAspectRatio="xMaxYMin meet">
         <g id="arrow_out" transform="scale(0.3 0.3)">
          <a xlink:href="class_juniper_1_1_world_1_1_g_i_s_1_1_google_1_1_street_view_1_1_metadata_request__inherit__graph_org.svg" target="_base">
           <rect id="button" ry="5" rx="5" y="6" x="6" height="38" width="38"
                fill="#f2f5e9" fill-opacity="0.5" stroke="#606060" stroke-width="1.0"/>
           <path id="arrow"
             d="M 11.500037,31.436501 C 11.940474,20.09759 22.043105,11.32322 32.158766,21.979434 L 37.068811,17.246167 C 37.068811,17.246167 37.088388,32 37.088388,32 L 22.160133,31.978069 C 22.160133,31.978069 26.997745,27.140456 26.997745,27.140456 C 18.528582,18.264221 13.291696,25.230495 11.500037,31.436501 z"
             style="fill:#404040;"/>
          </a>
         </g>
        </svg>
</svg>
