<?xml version="1.0" encoding="UTF-8" standalone="no"?>
<!DOCTYPE svg PUBLIC "-//W3C//DTD SVG 1.1//EN"
 "http://www.w3.org/Graphics/SVG/1.1/DTD/svg11.dtd">
<!-- Generated by graphviz version 2.38.0 (20140413.2041)
 -->
<!-- Title: Juniper.Haptics.AbstractHapticDevice Pages: 1 -->
<svg width="495pt" height="700pt"
 viewBox="0.00 0.00 495.00 700.00" xmlns="http://www.w3.org/2000/svg" xmlns:xlink="http://www.w3.org/1999/xlink">
<g id="graph0" class="graph" transform="scale(1 1) rotate(0) translate(4 696)">
<title>Juniper.Haptics.AbstractHapticDevice</title>
<polygon fill="white" stroke="none" points="-4,4 -4,-696 491,-696 491,4 -4,4"/>
<!-- Node0 -->
<g id="node1" class="node"><title>Node0</title>
<g id="a_node1"><a xlink:title="An interface for all haptic device subsystems.">
<polygon fill="#bfbfbf" stroke="black" points="249,-452.5 249,-597.5 368,-597.5 368,-452.5 249,-452.5"/>
<text text-anchor="start" x="257" y="-585.5" font-family="SegoeUI" font-size="10.00">Juniper.Haptics.Abstract</text>
<text text-anchor="middle" x="308.5" y="-574.5" font-family="SegoeUI" font-size="10.00">HapticDevice</text>
<polyline fill="none" stroke="black" points="249,-567.5 368,-567.5 "/>
<text text-anchor="middle" x="308.5" y="-555.5" font-family="SegoeUI" font-size="10.00"> </text>
<polyline fill="none" stroke="black" points="249,-548.5 368,-548.5 "/>
<text text-anchor="start" x="257" y="-536.5" font-family="SegoeUI" font-size="10.00">+ Cancel()</text>
<text text-anchor="start" x="257" y="-525.5" font-family="SegoeUI" font-size="10.00">+ Play()</text>
<text text-anchor="start" x="257" y="-514.5" font-family="SegoeUI" font-size="10.00">+ Vibrate()</text>
<text text-anchor="start" x="257" y="-503.5" font-family="SegoeUI" font-size="10.00">+ Play()</text>
<text text-anchor="start" x="257" y="-492.5" font-family="SegoeUI" font-size="10.00">+ Play()</text>
<text text-anchor="start" x="257" y="-481.5" font-family="SegoeUI" font-size="10.00">+ Play()</text>
<text text-anchor="start" x="257" y="-470.5" font-family="SegoeUI" font-size="10.00">+ Vibrate()</text>
<text text-anchor="start" x="257" y="-459.5" font-family="SegoeUI" font-size="10.00">+ Vibrate()</text>
</a>
</g>
</g>
<!-- Node2 -->
<g id="node3" class="node"><title>Node2</title>
<g id="a_node3"><a xlink:href="../../d7/d8b/class_juniper_1_1_haptics_1_1_abstract_haptic_expressor.html" target="_top" xlink:title="Non&#45;iOS systems do not have built&#45;in haptic patterns. This class replicates the functionality of the ...">
<polygon fill="white" stroke="black" points="179,-204.5 179,-415.5 298,-415.5 298,-204.5 179,-204.5"/>
<text text-anchor="start" x="187" y="-403.5" font-family="SegoeUI" font-size="10.00">Juniper.Haptics.Abstract</text>
<text text-anchor="middle" x="238.5" y="-392.5" font-family="SegoeUI" font-size="10.00">HapticExpressor</text>
<polyline fill="none" stroke="black" points="179,-385.5 298,-385.5 "/>
<text text-anchor="middle" x="238.5" y="-373.5" font-family="SegoeUI" font-size="10.00"> </text>
<polyline fill="none" stroke="black" points="179,-366.5 298,-366.5 "/>
<text text-anchor="start" x="187" y="-354.5" font-family="SegoeUI" font-size="10.00">+ Cancel()</text>
<text text-anchor="start" x="187" y="-343.5" font-family="SegoeUI" font-size="10.00">+ Play()</text>
<text text-anchor="start" x="187" y="-332.5" font-family="SegoeUI" font-size="10.00">+ Play()</text>
<text text-anchor="start" x="187" y="-321.5" font-family="SegoeUI" font-size="10.00">+ Vibrate()</text>
<text text-anchor="start" x="187" y="-310.5" font-family="SegoeUI" font-size="10.00">+ Vibrate()</text>
<text text-anchor="start" x="187" y="-299.5" font-family="SegoeUI" font-size="10.00">+ Play()</text>
<text text-anchor="start" x="187" y="-288.5" font-family="SegoeUI" font-size="10.00">+ Play()</text>
<text text-anchor="start" x="187" y="-277.5" font-family="SegoeUI" font-size="10.00">+ Vibrate()</text>
<text text-anchor="start" x="187" y="-266.5" font-family="SegoeUI" font-size="10.00"># VibrateCoroutine()</text>
<text text-anchor="start" x="187" y="-255.5" font-family="SegoeUI" font-size="10.00"># PlayCoroutine()</text>
<text text-anchor="start" x="187" y="-244.5" font-family="SegoeUI" font-size="10.00"># PlayCoroutine()</text>
<text text-anchor="start" x="187" y="-233.5" font-family="SegoeUI" font-size="10.00"># VibrateCoroutine()</text>
<text text-anchor="start" x="187" y="-222.5" font-family="SegoeUI" font-size="10.00">&#45; PlayCoroutine()</text>
<text text-anchor="start" x="187" y="-211.5" font-family="SegoeUI" font-size="10.00">&#45; VibrateCoroutine()</text>
</a>
</g>
</g>
<!-- Node0&#45;&gt;Node2 -->
<g id="edge2" class="edge"><title>Node0&#45;&gt;Node2</title>
<path fill="none" stroke="midnightblue" d="M281.854,-442.919C278.923,-434.003 275.91,-424.835 272.903,-415.684"/>
<polygon fill="none" stroke="midnightblue" points="278.549,-444.074 284.996,-452.482 285.199,-441.889 278.549,-444.074"/>
</g>
<!-- Node6 -->
<g id="node7" class="node"><title>Node6</title>
<g id="a_node7"><a xlink:href="../../d3/df6/class_juniper_1_1_haptics_1_1_no_haptics.html" target="_top" xlink:title="When we are on a system that we know for a fact does not have haptics, we can initialize the haptic s...">
<polygon fill="white" stroke="black" points="316.5,-243 316.5,-377 442.5,-377 442.5,-243 316.5,-243"/>
<text text-anchor="middle" x="379.5" y="-365" font-family="SegoeUI" font-size="10.00">Juniper.Haptics.NoHaptics</text>
<polyline fill="none" stroke="black" points="316.5,-358 442.5,-358 "/>
<text text-anchor="middle" x="379.5" y="-346" font-family="SegoeUI" font-size="10.00"> </text>
<polyline fill="none" stroke="black" points="316.5,-339 442.5,-339 "/>
<text text-anchor="start" x="324.5" y="-327" font-family="SegoeUI" font-size="10.00">+ Cancel()</text>
<text text-anchor="start" x="324.5" y="-316" font-family="SegoeUI" font-size="10.00">+ Play()</text>
<text text-anchor="start" x="324.5" y="-305" font-family="SegoeUI" font-size="10.00">+ Play()</text>
<text text-anchor="start" x="324.5" y="-294" font-family="SegoeUI" font-size="10.00">+ Play()</text>
<text text-anchor="start" x="324.5" y="-283" font-family="SegoeUI" font-size="10.00">+ Play()</text>
<text text-anchor="start" x="324.5" y="-272" font-family="SegoeUI" font-size="10.00">+ Vibrate()</text>
<text text-anchor="start" x="324.5" y="-261" font-family="SegoeUI" font-size="10.00">+ Vibrate()</text>
<text text-anchor="start" x="324.5" y="-250" font-family="SegoeUI" font-size="10.00">+ Vibrate()</text>
</a>
</g>
</g>
<!-- Node0&#45;&gt;Node6 -->
<g id="edge6" class="edge"><title>Node0&#45;&gt;Node6</title>
<path fill="none" stroke="midnightblue" d="M335.512,-442.964C342.742,-421.275 350.47,-398.089 357.4,-377.299"/>
<polygon fill="none" stroke="midnightblue" points="332.181,-441.888 332.339,-452.482 338.822,-444.102 332.181,-441.888"/>
</g>
<!-- Node1 -->
<g id="node2" class="node"><title>Node1</title>
<g id="a_node2"><a xlink:title=" ">
<polygon fill="white" stroke="#bfbfbf" points="267.5,-634.5 267.5,-691.5 349.5,-691.5 349.5,-634.5 267.5,-634.5"/>
<text text-anchor="middle" x="308.5" y="-679.5" font-family="SegoeUI" font-size="10.00">MonoBehaviour</text>
<polyline fill="none" stroke="#bfbfbf" points="267.5,-672.5 349.5,-672.5 "/>
<text text-anchor="middle" x="308.5" y="-660.5" font-family="SegoeUI" font-size="10.00"> </text>
<polyline fill="none" stroke="#bfbfbf" points="267.5,-653.5 349.5,-653.5 "/>
<text text-anchor="middle" x="308.5" y="-641.5" font-family="SegoeUI" font-size="10.00"> </text>
</a>
</g>
</g>
<!-- Node1&#45;&gt;Node0 -->
<g id="edge1" class="edge"><title>Node1&#45;&gt;Node0</title>
<path fill="none" stroke="midnightblue" d="M308.5,-624.356C308.5,-615.999 308.5,-606.872 308.5,-597.656"/>
<polygon fill="none" stroke="midnightblue" points="305,-624.478 308.5,-634.478 312,-624.478 305,-624.478"/>
</g>
<!-- Node3 -->
<g id="node4" class="node"><title>Node3</title>
<g id="a_node4"><a xlink:href="../../d8/d2c/class_juniper_1_1_haptics_1_1_default_haptics.html" target="_top" xlink:title="When no specific haptic implementation is available, but we know the system supports haptics,...">
<polygon fill="white" stroke="black" points="0,-28 0,-140 157,-140 157,-28 0,-28"/>
<text text-anchor="middle" x="78.5" y="-128" font-family="SegoeUI" font-size="10.00">Juniper.Haptics.DefaultHaptics</text>
<polyline fill="none" stroke="black" points="0,-121 157,-121 "/>
<text text-anchor="start" x="8" y="-109" font-family="SegoeUI" font-size="10.00">&#45; gp</text>
<polyline fill="none" stroke="black" points="0,-102 157,-102 "/>
<text text-anchor="start" x="8" y="-90" font-family="SegoeUI" font-size="10.00">+ Awake()</text>
<text text-anchor="start" x="8" y="-79" font-family="SegoeUI" font-size="10.00">+ Cancel()</text>
<text text-anchor="start" x="8" y="-68" font-family="SegoeUI" font-size="10.00"># VibrateCoroutine()</text>
<text text-anchor="start" x="8" y="-57" font-family="SegoeUI" font-size="10.00">&#45; Gamepad_GamepadAdded()</text>
<text text-anchor="start" x="8" y="-46" font-family="SegoeUI" font-size="10.00">&#45; Gamepad_GamepadRemoved()</text>
<text text-anchor="start" x="8" y="-35" font-family="SegoeUI" font-size="10.00">&#45; SetVibration()</text>
</a>
</g>
</g>
<!-- Node2&#45;&gt;Node3 -->
<g id="edge3" class="edge"><title>Node2&#45;&gt;Node3</title>
<path fill="none" stroke="midnightblue" d="M172.912,-217.177C154.27,-191.078 134.547,-163.466 117.977,-140.267"/>
<polygon fill="none" stroke="midnightblue" points="170.261,-219.488 178.922,-225.591 175.958,-215.419 170.261,-219.488"/>
</g>
<!-- Node4 -->
<g id="node5" class="node"><title>Node4</title>
<g id="a_node5"><a xlink:href="../../db/da0/class_juniper_1_1_haptics_1_1_vive_focus_haptics.html" target="_top" xlink:title=" ">
<polygon fill="white" stroke="black" points="175,-50 175,-118 302,-118 302,-50 175,-50"/>
<text text-anchor="start" x="183" y="-106" font-family="SegoeUI" font-size="10.00">Juniper.Haptics.ViveFocus</text>
<text text-anchor="middle" x="238.5" y="-95" font-family="SegoeUI" font-size="10.00">Haptics</text>
<polyline fill="none" stroke="black" points="175,-88 302,-88 "/>
<text text-anchor="start" x="183" y="-76" font-family="SegoeUI" font-size="10.00">+ Controller</text>
<polyline fill="none" stroke="black" points="175,-69 302,-69 "/>
<text text-anchor="start" x="183" y="-57" font-family="SegoeUI" font-size="10.00"># VibrateCoroutine()</text>
</a>
</g>
</g>
<!-- Node2&#45;&gt;Node4 -->
<g id="edge4" class="edge"><title>Node2&#45;&gt;Node4</title>
<path fill="none" stroke="midnightblue" d="M238.5,-193.963C238.5,-166.134 238.5,-138.556 238.5,-118.107"/>
<polygon fill="none" stroke="midnightblue" points="235,-194.214 238.5,-204.214 242,-194.214 235,-194.214"/>
</g>
<!-- Node5 -->
<g id="node6" class="node"><title>Node5</title>
<g id="a_node6"><a xlink:href="../../d4/d07/class_juniper_1_1_haptics_1_1_windows_m_r_haptics.html" target="_top" xlink:title=" ">
<polygon fill="white" stroke="black" points="320,-0.5 320,-167.5 487,-167.5 487,-0.5 320,-0.5"/>
<text text-anchor="middle" x="403.5" y="-155.5" font-family="SegoeUI" font-size="10.00">Juniper.Haptics.WindowsMRHaptics</text>
<polyline fill="none" stroke="black" points="320,-148.5 487,-148.5 "/>
<text text-anchor="start" x="328" y="-136.5" font-family="SegoeUI" font-size="10.00">+ ControllerID</text>
<text text-anchor="start" x="328" y="-125.5" font-family="SegoeUI" font-size="10.00">&#45; controller</text>
<text text-anchor="start" x="328" y="-114.5" font-family="SegoeUI" font-size="10.00">&#45; expressions</text>
<text text-anchor="start" x="328" y="-103.5" font-family="SegoeUI" font-size="10.00">&#45; buzz</text>
<text text-anchor="start" x="328" y="-92.5" font-family="SegoeUI" font-size="10.00">&#45; click</text>
<text text-anchor="start" x="328" y="-81.5" font-family="SegoeUI" font-size="10.00">&#45; press</text>
<text text-anchor="start" x="328" y="-70.5" font-family="SegoeUI" font-size="10.00">&#45; release</text>
<text text-anchor="start" x="328" y="-59.5" font-family="SegoeUI" font-size="10.00">&#45; _controllerID</text>
<polyline fill="none" stroke="black" points="320,-52.5 487,-52.5 "/>
<text text-anchor="start" x="328" y="-40.5" font-family="SegoeUI" font-size="10.00">+ Play()</text>
<text text-anchor="start" x="328" y="-29.5" font-family="SegoeUI" font-size="10.00">+ Cancel()</text>
<text text-anchor="start" x="328" y="-18.5" font-family="SegoeUI" font-size="10.00"># VibrateCoroutine()</text>
<text text-anchor="start" x="328" y="-7.5" font-family="SegoeUI" font-size="10.00">&#45; GetController()</text>
</a>
</g>
</g>
<!-- Node2&#45;&gt;Node5 -->
<g id="edge5" class="edge"><title>Node2&#45;&gt;Node5</title>
<path fill="none" stroke="midnightblue" d="M304.02,-208.81C305.183,-207.191 306.343,-205.586 307.5,-204 316.181,-192.097 325.609,-179.762 335.054,-167.742"/>
<polygon fill="none" stroke="midnightblue" points="301.128,-206.837 298.194,-217.017 306.836,-210.888 301.128,-206.837"/>
</g>
</g>
</svg>
