<?xml version="1.0" encoding="UTF-8" standalone="no"?>
<!DOCTYPE svg PUBLIC "-//W3C//DTD SVG 1.1//EN"
 "http://www.w3.org/Graphics/SVG/1.1/DTD/svg11.dtd">
<!-- Generated by graphviz version 2.38.0 (20140413.2041)
 -->
<!-- Title: Juniper.Unity.Input.Pointers.Screen.Mouse Pages: 1 -->
<!--zoomable 1347 -->
<svg id="main" version="1.1" xmlns="http://www.w3.org/2000/svg" xmlns:xlink="http://www.w3.org/1999/xlink" xml:space="preserve" onload="init(evt)">
<style type="text/css"><![CDATA[
.edge:hover path { stroke: red; }
.edge:hover polygon { stroke: red; fill: red; }
]]></style>
<script type="text/javascript"><![CDATA[
var edges = document.getElementsByTagName('g');
if (edges && edges.length) {
  for (var i=0;i<edges.length;i++) {
    if (edges[i].id.substr(0,4)=='edge') {
      edges[i].setAttribute('class','edge');
    }
  }
}
]]></script>
        <defs>
                <circle id="rim" cx="0" cy="0" r="7"/>
                <circle id="rim2" cx="0" cy="0" r="3.5"/>
                <g id="zoomPlus">
                        <use xlink:href="#rim" fill="#404040">
                                <set attributeName="fill" to="#808080" begin="zoomplus.mouseover" end="zoomplus.mouseout"/>
                        </use>
                        <path d="M-4,0h8M0,-4v8" fill="none" stroke="white" stroke-width="1.5" pointer-events="none"/>
                </g>
                <g id="zoomMin">
                        <use xlink:href="#rim" fill="#404040">
                                <set attributeName="fill" to="#808080" begin="zoomminus.mouseover" end="zoomminus.mouseout"/>
                        </use>
                        <path d="M-4,0h8" fill="none" stroke="white" stroke-width="1.5" pointer-events="none"/>
                </g>
                <g id="dirArrow">
                        <path fill="none" stroke="white" stroke-width="1.5" d="M0,-3.0v7 M-2.5,-0.5L0,-3.0L2.5,-0.5"/>
                </g>
               <g id="resetDef">
                       <use xlink:href="#rim2" fill="#404040">
                               <set attributeName="fill" to="#808080" begin="reset.mouseover" end="reset.mouseout"/>
                       </use>
               </g>
        </defs>

<script type="text/javascript">
var viewWidth = 496;
var viewHeight = 1347;
var sectionId = 'dynsection-0';
</script>
<script xlink:href="../../svgpan.js"/>
<svg id="graph" class="graph">
<g id="viewport">
<title>Juniper.Unity.Input.Pointers.Screen.Mouse</title>
<polygon fill="white" stroke="none" points="-4,4 -4,-1343 491.5,-1343 491.5,4 -4,4"/>
<!-- Node0 -->
<g id="node1" class="node"><title>Node0</title>
<g id="a_node1"><a xlink:title="A AbstractScreenDevice pointer for thet standard mouse connected to a desktop system.">
<polygon fill="#bfbfbf" stroke="black" points="289,-0.5 289,-167.5 426,-167.5 426,-0.5 289,-0.5"/>
<text text-anchor="start" x="297" y="-155.5" font-family="SegoeUI" font-size="10.00">Juniper.Unity.Input.Pointers.</text>
<text text-anchor="middle" x="357.5" y="-144.5" font-family="SegoeUI" font-size="10.00">Screen.Mouse</text>
<polyline fill="none" stroke="black" points="289,-137.5 426,-137.5 "/>
<text text-anchor="start" x="297" y="-125.5" font-family="SegoeUI" font-size="10.00">+ MoveDelta</text>
<text text-anchor="start" x="297" y="-114.5" font-family="SegoeUI" font-size="10.00">+ IsConnected</text>
<text text-anchor="start" x="297" y="-103.5" font-family="SegoeUI" font-size="10.00">+ ActiveThisFrame</text>
<text text-anchor="start" x="297" y="-92.5" font-family="SegoeUI" font-size="10.00">+ WorldPoint</text>
<text text-anchor="start" x="297" y="-81.5" font-family="SegoeUI" font-size="10.00">&#45; mouseActive</text>
<polyline fill="none" stroke="black" points="289,-74.5 426,-74.5 "/>
<text text-anchor="start" x="297" y="-62.5" font-family="SegoeUI" font-size="10.00">+ Reinstall()</text>
<text text-anchor="start" x="297" y="-51.5" font-family="SegoeUI" font-size="10.00">+ SetProbe()</text>
<text text-anchor="start" x="297" y="-40.5" font-family="SegoeUI" font-size="10.00">+ IsButtonPressed()</text>
<text text-anchor="start" x="297" y="-29.5" font-family="SegoeUI" font-size="10.00">+ IsButtonDown()</text>
<text text-anchor="start" x="297" y="-18.5" font-family="SegoeUI" font-size="10.00">+ IsButtonUp()</text>
<text text-anchor="start" x="297" y="-7.5" font-family="SegoeUI" font-size="10.00"># InternalUpdate()</text>
</a>
</g>
</g>
<!-- Node1 -->
<g id="node2" class="node"><title>Node1</title>
<g id="a_node2"><a xlink:href="../../dc/db8/class_juniper_1_1_unity_1_1_input_1_1_pointers_1_1_screen_1_1_abstract_screen_device.html" target="_top" xlink:title=" ">
<polygon fill="white" stroke="black" points="297.5,-205.5 297.5,-295.5 417.5,-295.5 417.5,-205.5 297.5,-205.5"/>
<text text-anchor="start" x="305.5" y="-283.5" font-family="SegoeUI" font-size="10.00">AbstractScreenDevice</text>
<text text-anchor="start" x="305.5" y="-272.5" font-family="SegoeUI" font-size="10.00">&lt; KeyCode, NoHaptics,</text>
<text text-anchor="middle" x="357.5" y="-261.5" font-family="SegoeUI" font-size="10.00"> MouseConfiguration &gt;</text>
<polyline fill="none" stroke="black" points="297.5,-254.5 417.5,-254.5 "/>
<text text-anchor="start" x="305.5" y="-242.5" font-family="SegoeUI" font-size="10.00">+ CameraPositionOffset</text>
<text text-anchor="start" x="305.5" y="-231.5" font-family="SegoeUI" font-size="10.00">+ CameraRotationOffset</text>
<polyline fill="none" stroke="black" points="297.5,-224.5 417.5,-224.5 "/>
<text text-anchor="start" x="305.5" y="-212.5" font-family="SegoeUI" font-size="10.00"># InternalUpdate()</text>
</a>
</g>
</g>
<!-- Node1&#45;&gt;Node0 -->
<g id="edge1" class="edge"><title>Node1&#45;&gt;Node0</title>
<path fill="none" stroke="midnightblue" d="M357.5,-195.255C357.5,-186.38 357.5,-177.011 357.5,-167.636"/>
<polygon fill="none" stroke="midnightblue" points="354,-195.417 357.5,-205.417 361,-195.417 354,-195.417"/>
</g>
<!-- Node2 -->
<g id="node3" class="node"><title>Node2</title>
<g id="a_node3"><a xlink:href="../../dc/db8/class_juniper_1_1_unity_1_1_input_1_1_pointers_1_1_screen_1_1_abstract_screen_device.html" target="_top" xlink:title="A ScreenDevice is a AbstractPointerDevice&lt;ButtonIDType, HapticsType&gt; that has its primary pointer int...">
<polygon fill="white" stroke="black" points="285.5,-354.5 285.5,-455.5 429.5,-455.5 429.5,-354.5 285.5,-354.5"/>
<text text-anchor="start" x="293.5" y="-443.5" font-family="SegoeUI" font-size="10.00">Juniper.Unity.Input.Pointers.</text>
<text text-anchor="start" x="293.5" y="-432.5" font-family="SegoeUI" font-size="10.00">Screen.AbstractScreenDevice</text>
<text text-anchor="start" x="293.5" y="-421.5" font-family="SegoeUI" font-size="10.00">&lt; ButtonIDType, HapticsType,</text>
<text text-anchor="middle" x="357.5" y="-410.5" font-family="SegoeUI" font-size="10.00"> ConfigType &gt;</text>
<polyline fill="none" stroke="black" points="285.5,-403.5 429.5,-403.5 "/>
<text text-anchor="start" x="293.5" y="-391.5" font-family="SegoeUI" font-size="10.00">+ CameraPositionOffset</text>
<text text-anchor="start" x="293.5" y="-380.5" font-family="SegoeUI" font-size="10.00">+ CameraRotationOffset</text>
<polyline fill="none" stroke="black" points="285.5,-373.5 429.5,-373.5 "/>
<text text-anchor="start" x="293.5" y="-361.5" font-family="SegoeUI" font-size="10.00"># InternalUpdate()</text>
</a>
</g>
</g>
<!-- Node2&#45;&gt;Node1 -->
<g id="edge2" class="edge"><title>Node2&#45;&gt;Node1</title>
<path fill="none" stroke="orange" d="M357.5,-344.055C357.5,-327.906 357.5,-310.733 357.5,-295.621"/>
<polygon fill="orange" stroke="orange" points="354,-344.488 357.5,-354.488 361,-344.488 354,-344.488"/>
<text text-anchor="start" x="357.5" y="-328" font-family="SegoeUI" font-size="10.00"> &lt; KeyCode, NoHaptics,</text>
<text text-anchor="middle" x="408" y="-317" font-family="SegoeUI" font-size="10.00"> MouseConfiguration &gt;</text>
</g>
<!-- Node3 -->
<g id="node4" class="node"><title>Node3</title>
<g id="a_node4"><a xlink:href="../../d7/d05/class_juniper_1_1_unity_1_1_input_1_1_pointers_1_1_abstract_pointer_device.html" target="_top" xlink:title=" ">
<polygon fill="white" stroke="black" points="194.5,-493.5 194.5,-1023.5 338.5,-1023.5 338.5,-493.5 194.5,-493.5"/>
<text text-anchor="start" x="202.5" y="-1011.5" font-family="SegoeUI" font-size="10.00">AbstractPointerDevice</text>
<text text-anchor="start" x="202.5" y="-1000.5" font-family="SegoeUI" font-size="10.00">&lt; ButtonIDType, HapticsType,</text>
<text text-anchor="middle" x="266.5" y="-989.5" font-family="SegoeUI" font-size="10.00"> ConfigType &gt;</text>
<polyline fill="none" stroke="black" points="194.5,-982.5 338.5,-982.5 "/>
<text text-anchor="start" x="202.5" y="-970.5" font-family="SegoeUI" font-size="10.00">+ Connected</text>
<text text-anchor="start" x="202.5" y="-959.5" font-family="SegoeUI" font-size="10.00">+ LaserPointerMaterial</text>
<text text-anchor="start" x="202.5" y="-948.5" font-family="SegoeUI" font-size="10.00">+ showProbe</text>
<text text-anchor="start" x="202.5" y="-937.5" font-family="SegoeUI" font-size="10.00">+ motionFilter</text>
<text text-anchor="start" x="202.5" y="-926.5" font-family="SegoeUI" font-size="10.00">+ ButtonType</text>
<text text-anchor="start" x="202.5" y="-915.5" font-family="SegoeUI" font-size="10.00">+ MinimumPointerDistance</text>
<text text-anchor="start" x="202.5" y="-904.5" font-family="SegoeUI" font-size="10.00">+ MaximumPointerDistance</text>
<text text-anchor="start" x="202.5" y="-893.5" font-family="SegoeUI" font-size="10.00">+ LockedOnTarget</text>
<text text-anchor="start" x="202.5" y="-882.5" font-family="SegoeUI" font-size="10.00">+ EventTarget</text>
<text text-anchor="start" x="202.5" y="-871.5" font-family="SegoeUI" font-size="10.00">+ IsConnected</text>
<text text-anchor="start" x="202.5" y="-860.5" font-family="SegoeUI" font-size="10.00">+ IsEnabled</text>
<text text-anchor="start" x="202.5" y="-849.5" font-family="SegoeUI" font-size="10.00">+ IsDisabled</text>
<text text-anchor="start" x="202.5" y="-838.5" font-family="SegoeUI" font-size="10.00">+ Raycaster</text>
<text text-anchor="start" x="202.5" y="-827.5" font-family="SegoeUI" font-size="10.00">+ EventCamera</text>
<text text-anchor="start" x="202.5" y="-816.5" font-family="SegoeUI" font-size="10.00">and 24 more...</text>
<text text-anchor="start" x="202.5" y="-805.5" font-family="SegoeUI" font-size="10.00"># nativeButtons</text>
<text text-anchor="start" x="202.5" y="-794.5" font-family="SegoeUI" font-size="10.00"># pointerOffset</text>
<text text-anchor="start" x="202.5" y="-783.5" font-family="SegoeUI" font-size="10.00"># probe</text>
<text text-anchor="start" x="202.5" y="-772.5" font-family="SegoeUI" font-size="10.00"># eventManager</text>
<text text-anchor="start" x="202.5" y="-761.5" font-family="SegoeUI" font-size="10.00"># stage</text>
<text text-anchor="start" x="202.5" y="-750.5" font-family="SegoeUI" font-size="10.00"># VIEWPORT_MIDPOINT</text>
<text text-anchor="start" x="202.5" y="-739.5" font-family="SegoeUI" font-size="10.00"># PointerConfig</text>
<text text-anchor="start" x="202.5" y="-728.5" font-family="SegoeUI" font-size="10.00">&#45; _probeName</text>
<text text-anchor="start" x="202.5" y="-717.5" font-family="SegoeUI" font-size="10.00">&#45; lastMotionFilter</text>
<text text-anchor="start" x="202.5" y="-706.5" font-family="SegoeUI" font-size="10.00">&#45; finishTime</text>
<text text-anchor="start" x="202.5" y="-695.5" font-family="SegoeUI" font-size="10.00">&#45; lastAction</text>
<polyline fill="none" stroke="black" points="194.5,-688.5 338.5,-688.5 "/>
<text text-anchor="start" x="202.5" y="-676.5" font-family="SegoeUI" font-size="10.00">+ Awake()</text>
<text text-anchor="start" x="202.5" y="-665.5" font-family="SegoeUI" font-size="10.00">+ Start()</text>
<text text-anchor="start" x="202.5" y="-654.5" font-family="SegoeUI" font-size="10.00">+ Install()</text>
<text text-anchor="start" x="202.5" y="-643.5" font-family="SegoeUI" font-size="10.00">+ Uninstall()</text>
<text text-anchor="start" x="202.5" y="-632.5" font-family="SegoeUI" font-size="10.00">+ Reinstall()</text>
<text text-anchor="start" x="202.5" y="-621.5" font-family="SegoeUI" font-size="10.00">+ SetProbe()</text>
<text text-anchor="start" x="202.5" y="-610.5" font-family="SegoeUI" font-size="10.00">+ ScreenFromWorld()</text>
<text text-anchor="start" x="202.5" y="-599.5" font-family="SegoeUI" font-size="10.00">+ ScreenFromViewport()</text>
<text text-anchor="start" x="202.5" y="-588.5" font-family="SegoeUI" font-size="10.00">+ ViewportFromWorld()</text>
<text text-anchor="start" x="202.5" y="-577.5" font-family="SegoeUI" font-size="10.00">+ ViewportFromScreen()</text>
<text text-anchor="start" x="202.5" y="-566.5" font-family="SegoeUI" font-size="10.00">and 11 more...</text>
<text text-anchor="start" x="202.5" y="-555.5" font-family="SegoeUI" font-size="10.00"># DraggableChanged()</text>
<text text-anchor="start" x="202.5" y="-544.5" font-family="SegoeUI" font-size="10.00"># ProcessButtons()</text>
<text text-anchor="start" x="202.5" y="-533.5" font-family="SegoeUI" font-size="10.00"># InternalUpdate()</text>
<text text-anchor="start" x="202.5" y="-522.5" font-family="SegoeUI" font-size="10.00">&#45; FindProbe()</text>
<text text-anchor="start" x="202.5" y="-511.5" font-family="SegoeUI" font-size="10.00">&#45; Clone()</text>
<text text-anchor="start" x="202.5" y="-500.5" font-family="SegoeUI" font-size="10.00">&#45; TestEnterExit()</text>
</a>
</g>
</g>
<!-- Node3&#45;&gt;Node2 -->
<g id="edge3" class="edge"><title>Node3&#45;&gt;Node2</title>
<path fill="none" stroke="midnightblue" d="M337.423,-483.551C340.016,-473.534 342.447,-464.144 344.66,-455.596"/>
<polygon fill="none" stroke="midnightblue" points="334.007,-482.781 334.889,-493.339 340.783,-484.536 334.007,-482.781"/>
</g>
<!-- Node4 -->
<g id="node5" class="node"><title>Node4</title>
<g id="a_node5"><a xlink:title=" ">
<polygon fill="white" stroke="#bfbfbf" points="87.5,-1171.5 87.5,-1228.5 169.5,-1228.5 169.5,-1171.5 87.5,-1171.5"/>
<text text-anchor="middle" x="128.5" y="-1216.5" font-family="SegoeUI" font-size="10.00">MonoBehaviour</text>
<polyline fill="none" stroke="#bfbfbf" points="87.5,-1209.5 169.5,-1209.5 "/>
<text text-anchor="middle" x="128.5" y="-1197.5" font-family="SegoeUI" font-size="10.00"> </text>
<polyline fill="none" stroke="#bfbfbf" points="87.5,-1190.5 169.5,-1190.5 "/>
<text text-anchor="middle" x="128.5" y="-1178.5" font-family="SegoeUI" font-size="10.00"> </text>
</a>
</g>
</g>
<!-- Node4&#45;&gt;Node3 -->
<g id="edge4" class="edge"><title>Node4&#45;&gt;Node3</title>
<path fill="none" stroke="midnightblue" d="M140.292,-1161.44C152.728,-1121.84 173.403,-1055.99 194.457,-988.942"/>
<polygon fill="none" stroke="midnightblue" points="136.894,-1160.58 137.237,-1171.17 143.572,-1162.68 136.894,-1160.58"/>
</g>
<!-- Node5 -->
<g id="node6" class="node"><title>Node5</title>
<g id="a_node6"><a xlink:href="../../db/d28/interface_juniper_1_1_i_installable.html" target="_top" xlink:title=" ">
<polygon fill="white" stroke="black" points="0,-1160.5 0,-1239.5 69,-1239.5 69,-1160.5 0,-1160.5"/>
<text text-anchor="middle" x="34.5" y="-1227.5" font-family="SegoeUI" font-size="10.00">IInstallable</text>
<polyline fill="none" stroke="black" points="0,-1220.5 69,-1220.5 "/>
<text text-anchor="middle" x="34.5" y="-1208.5" font-family="SegoeUI" font-size="10.00"> </text>
<polyline fill="none" stroke="black" points="0,-1201.5 69,-1201.5 "/>
<text text-anchor="start" x="8" y="-1189.5" font-family="SegoeUI" font-size="10.00">+ Install()</text>
<text text-anchor="start" x="8" y="-1178.5" font-family="SegoeUI" font-size="10.00">+ Reinstall()</text>
<text text-anchor="start" x="8" y="-1167.5" font-family="SegoeUI" font-size="10.00">+ Uninstall()</text>
</a>
</g>
</g>
<!-- Node5&#45;&gt;Node3 -->
<g id="edge5" class="edge"><title>Node5&#45;&gt;Node3</title>
<path fill="none" stroke="midnightblue" d="M46.8242,-1150.29C54.4269,-1123.35 65.2581,-1089.64 78.5,-1061 110.796,-991.152 156.26,-917.783 194.389,-860.91"/>
<polygon fill="none" stroke="midnightblue" points="43.36,-1149.69 44.0702,-1160.26 50.1071,-1151.55 43.36,-1149.69"/>
</g>
<!-- Node6 -->
<g id="node7" class="node"><title>Node6</title>
<g id="a_node7"><a xlink:href="../../d4/d43/interface_juniper_1_1_unity_1_1_input_1_1_pointers_1_1_i_pointer_device.html" target="_top" xlink:title=" ">
<polygon fill="white" stroke="black" points="363.5,-1061.5 363.5,-1338.5 487.5,-1338.5 487.5,-1061.5 363.5,-1061.5"/>
<text text-anchor="middle" x="425.5" y="-1326.5" font-family="SegoeUI" font-size="10.00">IPointerDevice</text>
<polyline fill="none" stroke="black" points="363.5,-1319.5 487.5,-1319.5 "/>
<text text-anchor="start" x="371.5" y="-1307.5" font-family="SegoeUI" font-size="10.00">+ EventTarget</text>
<text text-anchor="start" x="371.5" y="-1296.5" font-family="SegoeUI" font-size="10.00">+ InputModule</text>
<text text-anchor="start" x="371.5" y="-1285.5" font-family="SegoeUI" font-size="10.00">+ PointerID</text>
<text text-anchor="start" x="371.5" y="-1274.5" font-family="SegoeUI" font-size="10.00">+ name</text>
<text text-anchor="start" x="371.5" y="-1263.5" font-family="SegoeUI" font-size="10.00">+ ProbeName</text>
<text text-anchor="start" x="371.5" y="-1252.5" font-family="SegoeUI" font-size="10.00">+ ButtonType</text>
<text text-anchor="start" x="371.5" y="-1241.5" font-family="SegoeUI" font-size="10.00">+ isActiveAndEnabled</text>
<text text-anchor="start" x="371.5" y="-1230.5" font-family="SegoeUI" font-size="10.00">+ IsConnected</text>
<text text-anchor="start" x="371.5" y="-1219.5" font-family="SegoeUI" font-size="10.00">+ IsDisabled</text>
<text text-anchor="start" x="371.5" y="-1208.5" font-family="SegoeUI" font-size="10.00">+ IsEnabled</text>
<text text-anchor="start" x="371.5" y="-1197.5" font-family="SegoeUI" font-size="10.00">and 23 more...</text>
<polyline fill="none" stroke="black" points="363.5,-1190.5 487.5,-1190.5 "/>
<text text-anchor="start" x="371.5" y="-1178.5" font-family="SegoeUI" font-size="10.00">+ ViewportFromWorld()</text>
<text text-anchor="start" x="371.5" y="-1167.5" font-family="SegoeUI" font-size="10.00">+ ViewportFromScreen()</text>
<text text-anchor="start" x="371.5" y="-1156.5" font-family="SegoeUI" font-size="10.00">+ ScreenFromWorld()</text>
<text text-anchor="start" x="371.5" y="-1145.5" font-family="SegoeUI" font-size="10.00">+ ScreenFromViewport()</text>
<text text-anchor="start" x="371.5" y="-1134.5" font-family="SegoeUI" font-size="10.00">+ WorldFromScreen()</text>
<text text-anchor="start" x="371.5" y="-1123.5" font-family="SegoeUI" font-size="10.00">+ WorldFromViewport()</text>
<text text-anchor="start" x="371.5" y="-1112.5" font-family="SegoeUI" font-size="10.00">+ IsButtonDown()</text>
<text text-anchor="start" x="371.5" y="-1101.5" font-family="SegoeUI" font-size="10.00">+ IsButtonPressed()</text>
<text text-anchor="start" x="371.5" y="-1090.5" font-family="SegoeUI" font-size="10.00">+ IsButtonUp()</text>
<text text-anchor="start" x="371.5" y="-1079.5" font-family="SegoeUI" font-size="10.00">+ Process()</text>
<text text-anchor="start" x="371.5" y="-1068.5" font-family="SegoeUI" font-size="10.00">+ SetProbe()</text>
</a>
</g>
</g>
<!-- Node6&#45;&gt;Node3 -->
<g id="edge6" class="edge"><title>Node6&#45;&gt;Node3</title>
<path fill="none" stroke="midnightblue" d="M360.216,-1051.7C356.488,-1042.37 352.885,-1033.08 349.5,-1024 345.843,-1014.19 342.208,-1004.14 338.618,-993.959"/>
<polygon fill="none" stroke="midnightblue" points="356.997,-1053.07 363.982,-1061.04 363.489,-1050.45 356.997,-1053.07"/>
</g>
<!-- Node8 -->
<g id="node9" class="node"><title>Node8</title>
<g id="a_node9"><a xlink:href="../../df/dcd/interface_juniper_1_1_unity_1_1_input_1_1_pointers_1_1_screen_1_1_i_screen_device.html" target="_top" xlink:title=" ">
<polygon fill="white" stroke="black" points="358.5,-724.5 358.5,-792.5 478.5,-792.5 478.5,-724.5 358.5,-724.5"/>
<text text-anchor="middle" x="418.5" y="-780.5" font-family="SegoeUI" font-size="10.00">IScreenDevice</text>
<polyline fill="none" stroke="black" points="358.5,-773.5 478.5,-773.5 "/>
<text text-anchor="start" x="366.5" y="-761.5" font-family="SegoeUI" font-size="10.00">+ CameraPositionOffset</text>
<text text-anchor="start" x="366.5" y="-750.5" font-family="SegoeUI" font-size="10.00">+ CameraRotationOffset</text>
<polyline fill="none" stroke="black" points="358.5,-743.5 478.5,-743.5 "/>
<text text-anchor="middle" x="418.5" y="-731.5" font-family="SegoeUI" font-size="10.00"> </text>
</a>
</g>
</g>
<!-- Node6&#45;&gt;Node8 -->
<g id="edge9" class="edge"><title>Node6&#45;&gt;Node8</title>
<path fill="none" stroke="midnightblue" d="M423.149,-1051.4C421.674,-958.794 419.893,-846.953 419.026,-792.505"/>
<polygon fill="none" stroke="midnightblue" points="419.65,-1051.5 423.309,-1061.45 426.649,-1051.39 419.65,-1051.5"/>
</g>
<!-- Node7 -->
<g id="node8" class="node"><title>Node7</title>
<g id="a_node8"><a xlink:href="../../dc/dc8/interface_juniper_1_1_input_1_1_pointers_1_1_i_pointer_buttons.html" target="_top" xlink:title=" ">
<polygon fill="white" stroke="black" points="187.5,-1149.5 187.5,-1250.5 345.5,-1250.5 345.5,-1149.5 187.5,-1149.5"/>
<text text-anchor="middle" x="266.5" y="-1238.5" font-family="SegoeUI" font-size="10.00">IPointerButtons&lt; ButtonIDType &gt;</text>
<polyline fill="none" stroke="black" points="187.5,-1231.5 345.5,-1231.5 "/>
<text text-anchor="start" x="195.5" y="-1219.5" font-family="SegoeUI" font-size="10.00">+ name</text>
<text text-anchor="start" x="195.5" y="-1208.5" font-family="SegoeUI" font-size="10.00">+ IsConnected</text>
<text text-anchor="start" x="195.5" y="-1197.5" font-family="SegoeUI" font-size="10.00">+ AnyButtonPressed</text>
<polyline fill="none" stroke="black" points="187.5,-1190.5 345.5,-1190.5 "/>
<text text-anchor="start" x="195.5" y="-1178.5" font-family="SegoeUI" font-size="10.00">+ IsButtonDown()</text>
<text text-anchor="start" x="195.5" y="-1167.5" font-family="SegoeUI" font-size="10.00">+ IsButtonPressed()</text>
<text text-anchor="start" x="195.5" y="-1156.5" font-family="SegoeUI" font-size="10.00">+ IsButtonUp()</text>
</a>
</g>
</g>
<!-- Node7&#45;&gt;Node3 -->
<g id="edge7" class="edge"><title>Node7&#45;&gt;Node3</title>
<path fill="none" stroke="midnightblue" d="M266.5,-1139.17C266.5,-1107.79 266.5,-1066.92 266.5,-1023.65"/>
<polygon fill="none" stroke="midnightblue" points="263,-1139.44 266.5,-1149.44 270,-1139.44 263,-1139.44"/>
</g>
<!-- Node8&#45;&gt;Node2 -->
<g id="edge8" class="edge"><title>Node8&#45;&gt;Node2</title>
<path fill="none" stroke="midnightblue" d="M411.03,-714.455C399.678,-649.043 378.139,-524.93 366.133,-455.747"/>
<polygon fill="none" stroke="midnightblue" points="407.603,-715.177 412.761,-724.432 414.5,-713.981 407.603,-715.177"/>
</g>
</g>
</svg>
        <g id="navigator" transform="translate(0 0)" fill="#404254">
                <rect fill="#f2f5e9" fill-opacity="0.5" stroke="#606060" stroke-width=".5" x="0" y="0" width="60" height="60"/>
                <use id="zoomplus" xlink:href="#zoomPlus" x="17" y="9" onmousedown="handleZoom(evt,'in')"/>
                <use id="zoomminus" xlink:href="#zoomMin" x="42" y="9" onmousedown="handleZoom(evt,'out')"/>
                <use id="reset" xlink:href="#resetDef" x="30" y="36" onmousedown="handleReset()"/>
                <g id="arrowUp" xlink:href="#dirArrow" transform="translate(30 24)" onmousedown="handlePan(0,-1)">
                  <use xlink:href="#rim" fill="#404040">
                        <set attributeName="fill" to="#808080" begin="arrowUp.mouseover" end="arrowUp.mouseout"/>
                  </use>
                  <path fill="none" stroke="white" stroke-width="1.5" d="M0,-3.0v7 M-2.5,-0.5L0,-3.0L2.5,-0.5"/>
                </g>
                <g id="arrowRight" xlink:href="#dirArrow" transform="rotate(90) translate(36 -43)" onmousedown="handlePan(1,0)">
                  <use xlink:href="#rim" fill="#404040">
                        <set attributeName="fill" to="#808080" begin="arrowRight.mouseover" end="arrowRight.mouseout"/>
                  </use>
                  <path fill="none" stroke="white" stroke-width="1.5" d="M0,-3.0v7 M-2.5,-0.5L0,-3.0L2.5,-0.5"/>
                </g>
                <g id="arrowDown" xlink:href="#dirArrow" transform="rotate(180) translate(-30 -48)" onmousedown="handlePan(0,1)">
                  <use xlink:href="#rim" fill="#404040">
                        <set attributeName="fill" to="#808080" begin="arrowDown.mouseover" end="arrowDown.mouseout"/>
                  </use>
                  <path fill="none" stroke="white" stroke-width="1.5" d="M0,-3.0v7 M-2.5,-0.5L0,-3.0L2.5,-0.5"/>
                </g>
                <g id="arrowLeft" xlink:href="#dirArrow" transform="rotate(270) translate(-36 17)" onmousedown="handlePan(-1,0)">
                  <use xlink:href="#rim" fill="#404040">
                        <set attributeName="fill" to="#808080" begin="arrowLeft.mouseover" end="arrowLeft.mouseout"/>
                  </use>
                  <path fill="none" stroke="white" stroke-width="1.5" d="M0,-3.0v7 M-2.5,-0.5L0,-3.0L2.5,-0.5"/>
                </g>
        </g>
        <svg viewBox="0 0 15 15" width="100%" height="30px" preserveAspectRatio="xMaxYMin meet">
         <g id="arrow_out" transform="scale(0.3 0.3)">
          <a xlink:href="class_juniper_1_1_unity_1_1_input_1_1_pointers_1_1_screen_1_1_mouse__inherit__graph_org.svg" target="_base">
           <rect id="button" ry="5" rx="5" y="6" x="6" height="38" width="38"
                fill="#f2f5e9" fill-opacity="0.5" stroke="#606060" stroke-width="1.0"/>
           <path id="arrow"
             d="M 11.500037,31.436501 C 11.940474,20.09759 22.043105,11.32322 32.158766,21.979434 L 37.068811,17.246167 C 37.068811,17.246167 37.088388,32 37.088388,32 L 22.160133,31.978069 C 22.160133,31.978069 26.997745,27.140456 26.997745,27.140456 C 18.528582,18.264221 13.291696,25.230495 11.500037,31.436501 z"
             style="fill:#404040;"/>
          </a>
         </g>
        </svg>
</svg>
