<?xml version="1.0" encoding="UTF-8" standalone="no"?>
<!DOCTYPE svg PUBLIC "-//W3C//DTD SVG 1.1//EN"
 "http://www.w3.org/Graphics/SVG/1.1/DTD/svg11.dtd">
<!-- Generated by graphviz version 2.38.0 (20140413.2041)
 -->
<!-- Title: Juniper.Unity.Input.Pointers.Screen.Mouse Pages: 1 -->
<svg width="512pt" height="1431pt"
 viewBox="0.00 0.00 511.50 1431.00" xmlns="http://www.w3.org/2000/svg" xmlns:xlink="http://www.w3.org/1999/xlink">
<g id="graph0" class="graph" transform="scale(1 1) rotate(0) translate(4 1427)">
<title>Juniper.Unity.Input.Pointers.Screen.Mouse</title>
<polygon fill="white" stroke="none" points="-4,4 -4,-1427 507.5,-1427 507.5,4 -4,4"/>
<!-- Node0 -->
<g id="node1" class="node"><title>Node0</title>
<g id="a_node1"><a xlink:title="A AbstractScreenDevice pointer for thet standard mouse connected to a desktop system.">
<polygon fill="#bfbfbf" stroke="black" points="305,-0.5 305,-167.5 442,-167.5 442,-0.5 305,-0.5"/>
<text text-anchor="start" x="313" y="-155.5" font-family="SegoeUI" font-size="10.00">Juniper.Unity.Input.Pointers.</text>
<text text-anchor="middle" x="373.5" y="-144.5" font-family="SegoeUI" font-size="10.00">Screen.Mouse</text>
<polyline fill="none" stroke="black" points="305,-137.5 442,-137.5 "/>
<text text-anchor="start" x="313" y="-125.5" font-family="SegoeUI" font-size="10.00">+ MoveDelta</text>
<text text-anchor="start" x="313" y="-114.5" font-family="SegoeUI" font-size="10.00">+ IsConnected</text>
<text text-anchor="start" x="313" y="-103.5" font-family="SegoeUI" font-size="10.00">+ ActiveThisFrame</text>
<text text-anchor="start" x="313" y="-92.5" font-family="SegoeUI" font-size="10.00">+ WorldPoint</text>
<text text-anchor="start" x="313" y="-81.5" font-family="SegoeUI" font-size="10.00">&#45; mouseActive</text>
<polyline fill="none" stroke="black" points="305,-74.5 442,-74.5 "/>
<text text-anchor="start" x="313" y="-62.5" font-family="SegoeUI" font-size="10.00">+ Reinstall()</text>
<text text-anchor="start" x="313" y="-51.5" font-family="SegoeUI" font-size="10.00">+ SetProbe()</text>
<text text-anchor="start" x="313" y="-40.5" font-family="SegoeUI" font-size="10.00">+ IsButtonPressed()</text>
<text text-anchor="start" x="313" y="-29.5" font-family="SegoeUI" font-size="10.00">+ IsButtonDown()</text>
<text text-anchor="start" x="313" y="-18.5" font-family="SegoeUI" font-size="10.00">+ IsButtonUp()</text>
<text text-anchor="start" x="313" y="-7.5" font-family="SegoeUI" font-size="10.00"># InternalUpdate()</text>
</a>
</g>
</g>
<!-- Node1 -->
<g id="node2" class="node"><title>Node1</title>
<g id="a_node2"><a xlink:href="../../dc/db8/class_juniper_1_1_unity_1_1_input_1_1_pointers_1_1_screen_1_1_abstract_screen_device.html" target="_top" xlink:title=" ">
<polygon fill="white" stroke="black" points="313.5,-205.5 313.5,-295.5 433.5,-295.5 433.5,-205.5 313.5,-205.5"/>
<text text-anchor="start" x="321.5" y="-283.5" font-family="SegoeUI" font-size="10.00">AbstractScreenDevice</text>
<text text-anchor="start" x="321.5" y="-272.5" font-family="SegoeUI" font-size="10.00">&lt; KeyCode, NoHaptics,</text>
<text text-anchor="middle" x="373.5" y="-261.5" font-family="SegoeUI" font-size="10.00"> MouseConfiguration &gt;</text>
<polyline fill="none" stroke="black" points="313.5,-254.5 433.5,-254.5 "/>
<text text-anchor="start" x="321.5" y="-242.5" font-family="SegoeUI" font-size="10.00">+ CameraPositionOffset</text>
<text text-anchor="start" x="321.5" y="-231.5" font-family="SegoeUI" font-size="10.00">+ CameraRotationOffset</text>
<polyline fill="none" stroke="black" points="313.5,-224.5 433.5,-224.5 "/>
<text text-anchor="start" x="321.5" y="-212.5" font-family="SegoeUI" font-size="10.00"># InternalUpdate()</text>
</a>
</g>
</g>
<!-- Node1&#45;&gt;Node0 -->
<g id="edge1" class="edge"><title>Node1&#45;&gt;Node0</title>
<path fill="none" stroke="midnightblue" d="M373.5,-195.255C373.5,-186.38 373.5,-177.011 373.5,-167.636"/>
<polygon fill="none" stroke="midnightblue" points="370,-195.417 373.5,-205.417 377,-195.417 370,-195.417"/>
</g>
<!-- Node2 -->
<g id="node3" class="node"><title>Node2</title>
<g id="a_node3"><a xlink:href="../../dc/db8/class_juniper_1_1_unity_1_1_input_1_1_pointers_1_1_screen_1_1_abstract_screen_device.html" target="_top" xlink:title="A ScreenDevice is a AbstractPointerDevice&lt;ButtonIDType, HapticsType&gt; that has its primary pointer int...">
<polygon fill="white" stroke="black" points="301.5,-354.5 301.5,-455.5 445.5,-455.5 445.5,-354.5 301.5,-354.5"/>
<text text-anchor="start" x="309.5" y="-443.5" font-family="SegoeUI" font-size="10.00">Juniper.Unity.Input.Pointers.</text>
<text text-anchor="start" x="309.5" y="-432.5" font-family="SegoeUI" font-size="10.00">Screen.AbstractScreenDevice</text>
<text text-anchor="start" x="309.5" y="-421.5" font-family="SegoeUI" font-size="10.00">&lt; ButtonIDType, HapticsType,</text>
<text text-anchor="middle" x="373.5" y="-410.5" font-family="SegoeUI" font-size="10.00"> ConfigType &gt;</text>
<polyline fill="none" stroke="black" points="301.5,-403.5 445.5,-403.5 "/>
<text text-anchor="start" x="309.5" y="-391.5" font-family="SegoeUI" font-size="10.00">+ CameraPositionOffset</text>
<text text-anchor="start" x="309.5" y="-380.5" font-family="SegoeUI" font-size="10.00">+ CameraRotationOffset</text>
<polyline fill="none" stroke="black" points="301.5,-373.5 445.5,-373.5 "/>
<text text-anchor="start" x="309.5" y="-361.5" font-family="SegoeUI" font-size="10.00"># InternalUpdate()</text>
</a>
</g>
</g>
<!-- Node2&#45;&gt;Node1 -->
<g id="edge2" class="edge"><title>Node2&#45;&gt;Node1</title>
<path fill="none" stroke="orange" d="M373.5,-344.055C373.5,-327.906 373.5,-310.733 373.5,-295.621"/>
<polygon fill="orange" stroke="orange" points="370,-344.488 373.5,-354.488 377,-344.488 370,-344.488"/>
<text text-anchor="start" x="373.5" y="-328" font-family="SegoeUI" font-size="10.00"> &lt; KeyCode, NoHaptics,</text>
<text text-anchor="middle" x="424" y="-317" font-family="SegoeUI" font-size="10.00"> MouseConfiguration &gt;</text>
</g>
<!-- Node3 -->
<g id="node4" class="node"><title>Node3</title>
<g id="a_node4"><a xlink:href="../../d7/d05/class_juniper_1_1_unity_1_1_input_1_1_pointers_1_1_abstract_pointer_device.html" target="_top" xlink:title=" ">
<polygon fill="white" stroke="black" points="210.5,-493.5 210.5,-1012.5 354.5,-1012.5 354.5,-493.5 210.5,-493.5"/>
<text text-anchor="start" x="218.5" y="-1000.5" font-family="SegoeUI" font-size="10.00">AbstractPointerDevice</text>
<text text-anchor="start" x="218.5" y="-989.5" font-family="SegoeUI" font-size="10.00">&lt; ButtonIDType, HapticsType,</text>
<text text-anchor="middle" x="282.5" y="-978.5" font-family="SegoeUI" font-size="10.00"> ConfigType &gt;</text>
<polyline fill="none" stroke="black" points="210.5,-971.5 354.5,-971.5 "/>
<text text-anchor="start" x="218.5" y="-959.5" font-family="SegoeUI" font-size="10.00">+ Connected</text>
<text text-anchor="start" x="218.5" y="-948.5" font-family="SegoeUI" font-size="10.00">+ LaserPointerMaterial</text>
<text text-anchor="start" x="218.5" y="-937.5" font-family="SegoeUI" font-size="10.00">+ showProbe</text>
<text text-anchor="start" x="218.5" y="-926.5" font-family="SegoeUI" font-size="10.00">+ motionFilter</text>
<text text-anchor="start" x="218.5" y="-915.5" font-family="SegoeUI" font-size="10.00">+ ButtonType</text>
<text text-anchor="start" x="218.5" y="-904.5" font-family="SegoeUI" font-size="10.00">+ MinimumPointerDistance</text>
<text text-anchor="start" x="218.5" y="-893.5" font-family="SegoeUI" font-size="10.00">+ MaximumPointerDistance</text>
<text text-anchor="start" x="218.5" y="-882.5" font-family="SegoeUI" font-size="10.00">+ LockedOnTarget</text>
<text text-anchor="start" x="218.5" y="-871.5" font-family="SegoeUI" font-size="10.00">+ EventTarget</text>
<text text-anchor="start" x="218.5" y="-860.5" font-family="SegoeUI" font-size="10.00">+ IsConnected</text>
<text text-anchor="start" x="218.5" y="-849.5" font-family="SegoeUI" font-size="10.00">+ IsEnabled</text>
<text text-anchor="start" x="218.5" y="-838.5" font-family="SegoeUI" font-size="10.00">+ IsDisabled</text>
<text text-anchor="start" x="218.5" y="-827.5" font-family="SegoeUI" font-size="10.00">+ Raycaster</text>
<text text-anchor="start" x="218.5" y="-816.5" font-family="SegoeUI" font-size="10.00">+ EventCamera</text>
<text text-anchor="start" x="218.5" y="-805.5" font-family="SegoeUI" font-size="10.00">and 23 more...</text>
<text text-anchor="start" x="218.5" y="-794.5" font-family="SegoeUI" font-size="10.00"># nativeButtons</text>
<text text-anchor="start" x="218.5" y="-783.5" font-family="SegoeUI" font-size="10.00"># pointerOffset</text>
<text text-anchor="start" x="218.5" y="-772.5" font-family="SegoeUI" font-size="10.00"># probe</text>
<text text-anchor="start" x="218.5" y="-761.5" font-family="SegoeUI" font-size="10.00"># eventManager</text>
<text text-anchor="start" x="218.5" y="-750.5" font-family="SegoeUI" font-size="10.00"># stage</text>
<text text-anchor="start" x="218.5" y="-739.5" font-family="SegoeUI" font-size="10.00"># VIEWPORT_MIDPOINT</text>
<text text-anchor="start" x="218.5" y="-728.5" font-family="SegoeUI" font-size="10.00"># PointerConfig</text>
<text text-anchor="start" x="218.5" y="-717.5" font-family="SegoeUI" font-size="10.00">&#45; _probeName</text>
<text text-anchor="start" x="218.5" y="-706.5" font-family="SegoeUI" font-size="10.00">&#45; lastMotionFilter</text>
<text text-anchor="start" x="218.5" y="-695.5" font-family="SegoeUI" font-size="10.00">&#45; finishTime</text>
<text text-anchor="start" x="218.5" y="-684.5" font-family="SegoeUI" font-size="10.00">&#45; lastAction</text>
<polyline fill="none" stroke="black" points="210.5,-677.5 354.5,-677.5 "/>
<text text-anchor="start" x="218.5" y="-665.5" font-family="SegoeUI" font-size="10.00">+ Awake()</text>
<text text-anchor="start" x="218.5" y="-654.5" font-family="SegoeUI" font-size="10.00">+ Start()</text>
<text text-anchor="start" x="218.5" y="-643.5" font-family="SegoeUI" font-size="10.00">+ Install()</text>
<text text-anchor="start" x="218.5" y="-632.5" font-family="SegoeUI" font-size="10.00">+ Uninstall()</text>
<text text-anchor="start" x="218.5" y="-621.5" font-family="SegoeUI" font-size="10.00">+ Reinstall()</text>
<text text-anchor="start" x="218.5" y="-610.5" font-family="SegoeUI" font-size="10.00">+ SetProbe()</text>
<text text-anchor="start" x="218.5" y="-599.5" font-family="SegoeUI" font-size="10.00">+ ScreenFromWorld()</text>
<text text-anchor="start" x="218.5" y="-588.5" font-family="SegoeUI" font-size="10.00">+ ScreenFromViewport()</text>
<text text-anchor="start" x="218.5" y="-577.5" font-family="SegoeUI" font-size="10.00">+ ViewportFromWorld()</text>
<text text-anchor="start" x="218.5" y="-566.5" font-family="SegoeUI" font-size="10.00">+ ViewportFromScreen()</text>
<text text-anchor="start" x="218.5" y="-555.5" font-family="SegoeUI" font-size="10.00">and 11 more...</text>
<text text-anchor="start" x="218.5" y="-544.5" font-family="SegoeUI" font-size="10.00"># Clone()</text>
<text text-anchor="start" x="218.5" y="-533.5" font-family="SegoeUI" font-size="10.00"># ProcessButtons()</text>
<text text-anchor="start" x="218.5" y="-522.5" font-family="SegoeUI" font-size="10.00"># InternalUpdate()</text>
<text text-anchor="start" x="218.5" y="-511.5" font-family="SegoeUI" font-size="10.00">&#45; FindProbe()</text>
<text text-anchor="start" x="218.5" y="-500.5" font-family="SegoeUI" font-size="10.00">&#45; TestEnterExit()</text>
</a>
</g>
</g>
<!-- Node3&#45;&gt;Node2 -->
<g id="edge3" class="edge"><title>Node3&#45;&gt;Node2</title>
<path fill="none" stroke="midnightblue" d="M353.106,-483.541C355.736,-473.542 358.203,-464.162 360.45,-455.619"/>
<polygon fill="none" stroke="midnightblue" points="349.696,-482.749 350.537,-493.31 356.465,-484.53 349.696,-482.749"/>
</g>
<!-- Node4 -->
<g id="node5" class="node"><title>Node4</title>
<g id="a_node5"><a xlink:href="../../db/ded/class_juniper_1_1_unity_1_1_input_1_1_pointers_1_1_pointer_data_creator.html" target="_top" xlink:title=" ">
<polygon fill="white" stroke="black" points="87.5,-1155 87.5,-1223 185.5,-1223 185.5,-1155 87.5,-1155"/>
<text text-anchor="middle" x="136.5" y="-1211" font-family="SegoeUI" font-size="10.00">PointerDataCreator</text>
<polyline fill="none" stroke="black" points="87.5,-1204 185.5,-1204 "/>
<text text-anchor="start" x="95.5" y="-1192" font-family="SegoeUI" font-size="10.00">+ PointerDataID</text>
<text text-anchor="start" x="95.5" y="-1181" font-family="SegoeUI" font-size="10.00">&#45; COUNTER</text>
<polyline fill="none" stroke="black" points="87.5,-1174 185.5,-1174 "/>
<text text-anchor="start" x="95.5" y="-1162" font-family="SegoeUI" font-size="10.00">+ Awake()</text>
</a>
</g>
</g>
<!-- Node4&#45;&gt;Node3 -->
<g id="edge4" class="edge"><title>Node4&#45;&gt;Node3</title>
<path fill="none" stroke="midnightblue" d="M150.954,-1145.03C165.129,-1102.9 187.846,-1035.37 210.443,-968.198"/>
<polygon fill="none" stroke="midnightblue" points="147.585,-1144.07 147.714,-1154.67 154.22,-1146.3 147.585,-1144.07"/>
</g>
<!-- Node5 -->
<g id="node6" class="node"><title>Node5</title>
<g id="a_node6"><a xlink:title=" ">
<polygon fill="white" stroke="#bfbfbf" points="95.5,-1365.5 95.5,-1422.5 177.5,-1422.5 177.5,-1365.5 95.5,-1365.5"/>
<text text-anchor="middle" x="136.5" y="-1410.5" font-family="SegoeUI" font-size="10.00">MonoBehaviour</text>
<polyline fill="none" stroke="#bfbfbf" points="95.5,-1403.5 177.5,-1403.5 "/>
<text text-anchor="middle" x="136.5" y="-1391.5" font-family="SegoeUI" font-size="10.00"> </text>
<polyline fill="none" stroke="#bfbfbf" points="95.5,-1384.5 177.5,-1384.5 "/>
<text text-anchor="middle" x="136.5" y="-1372.5" font-family="SegoeUI" font-size="10.00"> </text>
</a>
</g>
</g>
<!-- Node5&#45;&gt;Node4 -->
<g id="edge5" class="edge"><title>Node5&#45;&gt;Node4</title>
<path fill="none" stroke="midnightblue" d="M136.5,-1355.06C136.5,-1317.12 136.5,-1259.35 136.5,-1223.18"/>
<polygon fill="none" stroke="midnightblue" points="133,-1355.2 136.5,-1365.2 140,-1355.2 133,-1355.2"/>
</g>
<!-- Node6 -->
<g id="node7" class="node"><title>Node6</title>
<g id="a_node7"><a xlink:href="../../db/d28/interface_juniper_1_1_i_installable.html" target="_top" xlink:title="Defines an interface for objects that can be installed and have their installation progress tracked.">
<polygon fill="white" stroke="black" points="0,-1149.5 0,-1228.5 69,-1228.5 69,-1149.5 0,-1149.5"/>
<text text-anchor="middle" x="34.5" y="-1216.5" font-family="SegoeUI" font-size="10.00">IInstallable</text>
<polyline fill="none" stroke="black" points="0,-1209.5 69,-1209.5 "/>
<text text-anchor="middle" x="34.5" y="-1197.5" font-family="SegoeUI" font-size="10.00"> </text>
<polyline fill="none" stroke="black" points="0,-1190.5 69,-1190.5 "/>
<text text-anchor="start" x="8" y="-1178.5" font-family="SegoeUI" font-size="10.00">+ Install()</text>
<text text-anchor="start" x="8" y="-1167.5" font-family="SegoeUI" font-size="10.00">+ Reinstall()</text>
<text text-anchor="start" x="8" y="-1156.5" font-family="SegoeUI" font-size="10.00">+ Uninstall()</text>
</a>
</g>
</g>
<!-- Node6&#45;&gt;Node3 -->
<g id="edge6" class="edge"><title>Node6&#45;&gt;Node3</title>
<path fill="none" stroke="midnightblue" d="M46.2358,-1139.33C53.6839,-1112.28 64.5556,-1078.43 78.5,-1050 114.644,-976.317 167.483,-900.229 210.328,-843.65"/>
<polygon fill="none" stroke="midnightblue" points="42.7603,-1138.78 43.5496,-1149.35 49.5212,-1140.6 42.7603,-1138.78"/>
</g>
<!-- Node7 -->
<g id="node8" class="node"><title>Node7</title>
<g id="a_node8"><a xlink:href="../../d4/d43/interface_juniper_1_1_unity_1_1_input_1_1_pointers_1_1_i_pointer_device.html" target="_top" xlink:title=" ">
<polygon fill="white" stroke="black" points="379.5,-1050.5 379.5,-1327.5 503.5,-1327.5 503.5,-1050.5 379.5,-1050.5"/>
<text text-anchor="middle" x="441.5" y="-1315.5" font-family="SegoeUI" font-size="10.00">IPointerDevice</text>
<polyline fill="none" stroke="black" points="379.5,-1308.5 503.5,-1308.5 "/>
<text text-anchor="start" x="387.5" y="-1296.5" font-family="SegoeUI" font-size="10.00">+ EventTarget</text>
<text text-anchor="start" x="387.5" y="-1285.5" font-family="SegoeUI" font-size="10.00">+ InputModule</text>
<text text-anchor="start" x="387.5" y="-1274.5" font-family="SegoeUI" font-size="10.00">+ PointerDataID</text>
<text text-anchor="start" x="387.5" y="-1263.5" font-family="SegoeUI" font-size="10.00">+ ProbeName</text>
<text text-anchor="start" x="387.5" y="-1252.5" font-family="SegoeUI" font-size="10.00">+ ButtonType</text>
<text text-anchor="start" x="387.5" y="-1241.5" font-family="SegoeUI" font-size="10.00">+ isActiveAndEnabled</text>
<text text-anchor="start" x="387.5" y="-1230.5" font-family="SegoeUI" font-size="10.00">+ IsConnected</text>
<text text-anchor="start" x="387.5" y="-1219.5" font-family="SegoeUI" font-size="10.00">+ IsDisabled</text>
<text text-anchor="start" x="387.5" y="-1208.5" font-family="SegoeUI" font-size="10.00">+ IsEnabled</text>
<text text-anchor="start" x="387.5" y="-1197.5" font-family="SegoeUI" font-size="10.00">+ IsDragging</text>
<text text-anchor="start" x="387.5" y="-1186.5" font-family="SegoeUI" font-size="10.00">and 22 more...</text>
<polyline fill="none" stroke="black" points="379.5,-1179.5 503.5,-1179.5 "/>
<text text-anchor="start" x="387.5" y="-1167.5" font-family="SegoeUI" font-size="10.00">+ ViewportFromWorld()</text>
<text text-anchor="start" x="387.5" y="-1156.5" font-family="SegoeUI" font-size="10.00">+ ViewportFromScreen()</text>
<text text-anchor="start" x="387.5" y="-1145.5" font-family="SegoeUI" font-size="10.00">+ ScreenFromWorld()</text>
<text text-anchor="start" x="387.5" y="-1134.5" font-family="SegoeUI" font-size="10.00">+ ScreenFromViewport()</text>
<text text-anchor="start" x="387.5" y="-1123.5" font-family="SegoeUI" font-size="10.00">+ WorldFromScreen()</text>
<text text-anchor="start" x="387.5" y="-1112.5" font-family="SegoeUI" font-size="10.00">+ WorldFromViewport()</text>
<text text-anchor="start" x="387.5" y="-1101.5" font-family="SegoeUI" font-size="10.00">+ IsButtonDown()</text>
<text text-anchor="start" x="387.5" y="-1090.5" font-family="SegoeUI" font-size="10.00">+ IsButtonPressed()</text>
<text text-anchor="start" x="387.5" y="-1079.5" font-family="SegoeUI" font-size="10.00">+ IsButtonUp()</text>
<text text-anchor="start" x="387.5" y="-1068.5" font-family="SegoeUI" font-size="10.00">+ Process()</text>
<text text-anchor="start" x="387.5" y="-1057.5" font-family="SegoeUI" font-size="10.00">+ SetProbe()</text>
</a>
</g>
</g>
<!-- Node7&#45;&gt;Node3 -->
<g id="edge7" class="edge"><title>Node7&#45;&gt;Node3</title>
<path fill="none" stroke="midnightblue" d="M376.425,-1041.03C372.63,-1031.59 368.956,-1022.18 365.5,-1013 361.841,-1003.28 358.199,-993.314 354.596,-983.221"/>
<polygon fill="none" stroke="midnightblue" points="373.257,-1042.53 380.257,-1050.49 379.745,-1039.91 373.257,-1042.53"/>
</g>
<!-- Node9 -->
<g id="node10" class="node"><title>Node9</title>
<g id="a_node10"><a xlink:href="../../df/dcd/interface_juniper_1_1_unity_1_1_input_1_1_pointers_1_1_screen_1_1_i_screen_device.html" target="_top" xlink:title=" ">
<polygon fill="white" stroke="black" points="374.5,-719 374.5,-787 494.5,-787 494.5,-719 374.5,-719"/>
<text text-anchor="middle" x="434.5" y="-775" font-family="SegoeUI" font-size="10.00">IScreenDevice</text>
<polyline fill="none" stroke="black" points="374.5,-768 494.5,-768 "/>
<text text-anchor="start" x="382.5" y="-756" font-family="SegoeUI" font-size="10.00">+ CameraPositionOffset</text>
<text text-anchor="start" x="382.5" y="-745" font-family="SegoeUI" font-size="10.00">+ CameraRotationOffset</text>
<polyline fill="none" stroke="black" points="374.5,-738 494.5,-738 "/>
<text text-anchor="middle" x="434.5" y="-726" font-family="SegoeUI" font-size="10.00"> </text>
</a>
</g>
</g>
<!-- Node7&#45;&gt;Node9 -->
<g id="edge10" class="edge"><title>Node7&#45;&gt;Node9</title>
<path fill="none" stroke="midnightblue" d="M439.117,-1040.26C437.654,-949.545 435.9,-840.791 435.035,-787.196"/>
<polygon fill="none" stroke="midnightblue" points="435.619,-1040.44 439.28,-1050.38 442.619,-1040.33 435.619,-1040.44"/>
</g>
<!-- Node8 -->
<g id="node9" class="node"><title>Node8</title>
<g id="a_node9"><a xlink:href="../../dc/dc8/interface_juniper_1_1_input_1_1_pointers_1_1_i_pointer_buttons.html" target="_top" xlink:title="An interface for specifying how devices with buttons should behave.">
<polygon fill="white" stroke="black" points="203.5,-1144 203.5,-1234 361.5,-1234 361.5,-1144 203.5,-1144"/>
<text text-anchor="middle" x="282.5" y="-1222" font-family="SegoeUI" font-size="10.00">IPointerButtons&lt; ButtonIDType &gt;</text>
<polyline fill="none" stroke="black" points="203.5,-1215 361.5,-1215 "/>
<text text-anchor="start" x="211.5" y="-1203" font-family="SegoeUI" font-size="10.00">+ IsConnected</text>
<text text-anchor="start" x="211.5" y="-1192" font-family="SegoeUI" font-size="10.00">+ AnyButtonPressed</text>
<polyline fill="none" stroke="black" points="203.5,-1185 361.5,-1185 "/>
<text text-anchor="start" x="211.5" y="-1173" font-family="SegoeUI" font-size="10.00">+ IsButtonDown()</text>
<text text-anchor="start" x="211.5" y="-1162" font-family="SegoeUI" font-size="10.00">+ IsButtonPressed()</text>
<text text-anchor="start" x="211.5" y="-1151" font-family="SegoeUI" font-size="10.00">+ IsButtonUp()</text>
</a>
</g>
</g>
<!-- Node8&#45;&gt;Node3 -->
<g id="edge8" class="edge"><title>Node8&#45;&gt;Node3</title>
<path fill="none" stroke="midnightblue" d="M282.5,-1133.98C282.5,-1101.9 282.5,-1058.6 282.5,-1012.71"/>
<polygon fill="none" stroke="midnightblue" points="279,-1134 282.5,-1144 286,-1134 279,-1134"/>
</g>
<!-- Node9&#45;&gt;Node2 -->
<g id="edge9" class="edge"><title>Node9&#45;&gt;Node2</title>
<path fill="none" stroke="midnightblue" d="M426.849,-708.604C415.489,-644.167 394.218,-523.514 382.252,-455.645"/>
<polygon fill="none" stroke="midnightblue" points="423.468,-709.584 428.651,-718.824 430.362,-708.368 423.468,-709.584"/>
</g>
</g>
</svg>
