<?xml version="1.0" encoding="UTF-8" standalone="no"?>
<!DOCTYPE svg PUBLIC "-//W3C//DTD SVG 1.1//EN"
 "http://www.w3.org/Graphics/SVG/1.1/DTD/svg11.dtd">
<!-- Generated by graphviz version 2.38.0 (20140413.2041)
 -->
<!-- Title: Juniper.UnityEditor.Events.ButtonEventEditor Pages: 1 -->
<svg width="171pt" height="259pt"
 viewBox="0.00 0.00 171.00 259.00" xmlns="http://www.w3.org/2000/svg" xmlns:xlink="http://www.w3.org/1999/xlink">
<g id="graph0" class="graph" transform="scale(1 1) rotate(0) translate(4 255)">
<title>Juniper.UnityEditor.Events.ButtonEventEditor</title>
<polygon fill="white" stroke="none" points="-4,4 -4,-255 167,-255 167,4 -4,4"/>
<!-- Node2 -->
<g id="node1" class="node"><title>Node2</title>
<g id="a_node1"><a xlink:title=" ">
<polygon fill="#bfbfbf" stroke="black" points="0,-0.5 0,-112.5 130,-112.5 130,-0.5 0,-0.5"/>
<text text-anchor="start" x="8" y="-100.5" font-family="SegoeUI" font-size="10.00">Juniper.UnityEditor.Events.</text>
<text text-anchor="middle" x="65" y="-89.5" font-family="SegoeUI" font-size="10.00">ButtonEventEditor</text>
<polyline fill="none" stroke="black" points="0,-82.5 130,-82.5 "/>
<text text-anchor="start" x="8" y="-70.5" font-family="SegoeUI" font-size="10.00">&#45; FIELD_ONCLICK</text>
<text text-anchor="start" x="8" y="-59.5" font-family="SegoeUI" font-size="10.00">&#45; FIELD_ONDOUBLECLICK</text>
<text text-anchor="start" x="8" y="-48.5" font-family="SegoeUI" font-size="10.00">&#45; FIELD_ONLONGPRESS</text>
<text text-anchor="start" x="8" y="-37.5" font-family="SegoeUI" font-size="10.00">&#45; FIELD_ONDOWN</text>
<text text-anchor="start" x="8" y="-26.5" font-family="SegoeUI" font-size="10.00">&#45; FIELD_ONUP</text>
<polyline fill="none" stroke="black" points="0,-19.5 130,-19.5 "/>
<text text-anchor="start" x="8" y="-7.5" font-family="SegoeUI" font-size="10.00">+ OnInspectorGUI()</text>
</a>
</g>
</g>
<!-- Node3 -->
<g id="node2" class="node"><title>Node3</title>
<g id="a_node2"><a xlink:title=" ">
<polygon fill="white" stroke="#bfbfbf" points="15.5,-193.5 15.5,-250.5 56.5,-250.5 56.5,-193.5 15.5,-193.5"/>
<text text-anchor="middle" x="36" y="-238.5" font-family="SegoeUI" font-size="10.00">Editor</text>
<polyline fill="none" stroke="#bfbfbf" points="15.5,-231.5 56.5,-231.5 "/>
<text text-anchor="middle" x="36" y="-219.5" font-family="SegoeUI" font-size="10.00"> </text>
<polyline fill="none" stroke="#bfbfbf" points="15.5,-212.5 56.5,-212.5 "/>
<text text-anchor="middle" x="36" y="-200.5" font-family="SegoeUI" font-size="10.00"> </text>
</a>
</g>
</g>
<!-- Node3&#45;&gt;Node2 -->
<g id="edge1" class="edge"><title>Node3&#45;&gt;Node2</title>
<path fill="none" stroke="midnightblue" d="M42.7131,-183.152C46.4307,-162.192 51.1192,-135.759 55.2356,-112.551"/>
<polygon fill="none" stroke="midnightblue" points="39.2198,-182.807 40.9195,-193.264 46.1122,-184.029 39.2198,-182.807"/>
</g>
<!-- Node4 -->
<g id="node3" class="node"><title>Node4</title>
<g id="a_node3"><a xlink:title=" ">
<polygon fill="white" stroke="#bfbfbf" points="74.5,-193.5 74.5,-250.5 113.5,-250.5 113.5,-193.5 74.5,-193.5"/>
<text text-anchor="middle" x="94" y="-238.5" font-family="SegoeUI" font-size="10.00">static</text>
<polyline fill="none" stroke="#bfbfbf" points="74.5,-231.5 113.5,-231.5 "/>
<text text-anchor="middle" x="94" y="-219.5" font-family="SegoeUI" font-size="10.00"> </text>
<polyline fill="none" stroke="#bfbfbf" points="74.5,-212.5 113.5,-212.5 "/>
<text text-anchor="middle" x="94" y="-200.5" font-family="SegoeUI" font-size="10.00"> </text>
</a>
</g>
</g>
<!-- Node4&#45;&gt;Node2 -->
<g id="edge2" class="edge"><title>Node4&#45;&gt;Node2</title>
<path fill="none" stroke="#404040" d="M89.0805,-193.264C85.7351,-174.403 81.158,-148.598 76.8924,-124.548"/>
<polygon fill="none" stroke="#404040" points="76.8602,-124.367 71.8738,-119.157 74.7644,-112.551 79.7508,-117.76 76.8602,-124.367"/>
<text text-anchor="middle" x="124" y="-167" font-family="SegoeUI" font-size="10.00"> &#45;ButtonTypeLabel</text>
<text text-anchor="middle" x="124" y="-156" font-family="SegoeUI" font-size="10.00">&#45;InputButtonLabel</text>
<text text-anchor="middle" x="124" y="-145" font-family="SegoeUI" font-size="10.00">&#45;ButtonValueLabel</text>
<text text-anchor="middle" x="124" y="-134" font-family="SegoeUI" font-size="10.00">&#45;_</text>
</g>
</g>
</svg>
