<?xml version="1.0" encoding="UTF-8" standalone="no"?>
<!DOCTYPE svg PUBLIC "-//W3C//DTD SVG 1.1//EN"
 "http://www.w3.org/Graphics/SVG/1.1/DTD/svg11.dtd">
<!-- Generated by graphviz version 2.38.0 (20140413.2041)
 -->
<!-- Title: Juniper.World.Climate.OpenWeatherMap.API Pages: 1 -->
<svg width="180pt" height="303pt"
 viewBox="0.00 0.00 180.00 303.00" xmlns="http://www.w3.org/2000/svg" xmlns:xlink="http://www.w3.org/1999/xlink">
<g id="graph0" class="graph" transform="scale(1 1) rotate(0) translate(4 299)">
<title>Juniper.World.Climate.OpenWeatherMap.API</title>
<polygon fill="white" stroke="none" points="-4,4 -4,-299 176,-299 176,4 -4,4"/>
<!-- Node2 -->
<g id="node1" class="node"><title>Node2</title>
<g id="a_node1"><a xlink:title="An implementation of OpenWeatherMap&#39;s REST API.">
<polygon fill="#bfbfbf" stroke="black" points="34.5,-0.5 34.5,-167.5 171.5,-167.5 171.5,-0.5 34.5,-0.5"/>
<text text-anchor="start" x="42.5" y="-155.5" font-family="SegoeUI" font-size="10.00">Juniper.World.Climate.Open</text>
<text text-anchor="middle" x="103" y="-144.5" font-family="SegoeUI" font-size="10.00">WeatherMap.API</text>
<polyline fill="none" stroke="black" points="34.5,-137.5 171.5,-137.5 "/>
<text text-anchor="start" x="42.5" y="-125.5" font-family="SegoeUI" font-size="10.00">+ LastReport</text>
<text text-anchor="start" x="42.5" y="-114.5" font-family="SegoeUI" font-size="10.00">+ ReportTTLMinutes</text>
<text text-anchor="start" x="42.5" y="-103.5" font-family="SegoeUI" font-size="10.00">+ ReportRadiusMeters</text>
<text text-anchor="start" x="42.5" y="-92.5" font-family="SegoeUI" font-size="10.00">&#45; serverURI</text>
<text text-anchor="start" x="42.5" y="-81.5" font-family="SegoeUI" font-size="10.00">&#45; operation</text>
<text text-anchor="start" x="42.5" y="-70.5" font-family="SegoeUI" font-size="10.00">&#45; units</text>
<text text-anchor="start" x="42.5" y="-59.5" font-family="SegoeUI" font-size="10.00">&#45; apiKey</text>
<text text-anchor="start" x="42.5" y="-48.5" font-family="SegoeUI" font-size="10.00">&#45; lastReportJSON</text>
<polyline fill="none" stroke="black" points="34.5,-41.5 171.5,-41.5 "/>
<text text-anchor="start" x="42.5" y="-29.5" font-family="SegoeUI" font-size="10.00">+ API()</text>
<text text-anchor="start" x="42.5" y="-18.5" font-family="SegoeUI" font-size="10.00">+ Request()</text>
<text text-anchor="start" x="42.5" y="-7.5" font-family="SegoeUI" font-size="10.00">&#45; NeedsNewReport()</text>
</a>
</g>
</g>
<!-- Node3 -->
<g id="node2" class="node"><title>Node3</title>
<g id="a_node2"><a xlink:href="../../d9/d1c/interface_juniper_1_1_world_1_1_climate_1_1_i_weather_a_p_i.html" target="_top" xlink:title=" ">
<polygon fill="white" stroke="black" points="0,-215.5 0,-294.5 112,-294.5 112,-215.5 0,-215.5"/>
<text text-anchor="middle" x="56" y="-282.5" font-family="SegoeUI" font-size="10.00">IWeatherAPI</text>
<polyline fill="none" stroke="black" points="0,-275.5 112,-275.5 "/>
<text text-anchor="start" x="8" y="-263.5" font-family="SegoeUI" font-size="10.00">+ ReportTTLMinutes</text>
<text text-anchor="start" x="8" y="-252.5" font-family="SegoeUI" font-size="10.00">+ ReportRadiusMeters</text>
<text text-anchor="start" x="8" y="-241.5" font-family="SegoeUI" font-size="10.00">+ LastReport</text>
<polyline fill="none" stroke="black" points="0,-234.5 112,-234.5 "/>
<text text-anchor="start" x="8" y="-222.5" font-family="SegoeUI" font-size="10.00">+ Request()</text>
</a>
</g>
</g>
<!-- Node3&#45;&gt;Node2 -->
<g id="edge1" class="edge"><title>Node3&#45;&gt;Node2</title>
<path fill="none" stroke="midnightblue" d="M69.4708,-205.563C72.7706,-193.697 76.3952,-180.664 80.004,-167.688"/>
<polygon fill="none" stroke="midnightblue" points="66.0902,-204.656 66.7827,-215.228 72.8342,-206.531 66.0902,-204.656"/>
</g>
<!-- Node4 -->
<g id="node3" class="node"><title>Node4</title>
<g id="a_node3"><a xlink:title=" ">
<polygon fill="white" stroke="#bfbfbf" points="130.5,-226.5 130.5,-283.5 169.5,-283.5 169.5,-226.5 130.5,-226.5"/>
<text text-anchor="middle" x="150" y="-271.5" font-family="SegoeUI" font-size="10.00">static</text>
<polyline fill="none" stroke="#bfbfbf" points="130.5,-264.5 169.5,-264.5 "/>
<text text-anchor="middle" x="150" y="-252.5" font-family="SegoeUI" font-size="10.00"> </text>
<polyline fill="none" stroke="#bfbfbf" points="130.5,-245.5 169.5,-245.5 "/>
<text text-anchor="middle" x="150" y="-233.5" font-family="SegoeUI" font-size="10.00"> </text>
</a>
</g>
</g>
<!-- Node4&#45;&gt;Node2 -->
<g id="edge2" class="edge"><title>Node4&#45;&gt;Node2</title>
<path fill="none" stroke="#404040" d="M142.344,-226.471C138.688,-213.324 134.074,-196.733 129.303,-179.58"/>
<polygon fill="none" stroke="#404040" points="129.201,-179.211 123.739,-174.503 125.986,-167.65 131.447,-172.359 129.201,-179.211"/>
<text text-anchor="middle" x="153" y="-189" font-family="SegoeUI" font-size="10.00"> &#45;version</text>
</g>
</g>
</svg>
