<?xml version="1.0" encoding="UTF-8" standalone="no"?>
<!DOCTYPE svg PUBLIC "-//W3C//DTD SVG 1.1//EN"
 "http://www.w3.org/Graphics/SVG/1.1/DTD/svg11.dtd">
<!-- Generated by graphviz version 2.38.0 (20140413.2041)
 -->
<!-- Title: Juniper.Sound.DefaultInteractionAudio Pages: 1 -->
<svg width="178pt" height="749pt"
 viewBox="0.00 0.00 177.50 749.00" xmlns="http://www.w3.org/2000/svg" xmlns:xlink="http://www.w3.org/1999/xlink">
<g id="graph0" class="graph" transform="scale(1 1) rotate(0) translate(4 745)">
<title>Juniper.Sound.DefaultInteractionAudio</title>
<polygon fill="white" stroke="none" points="-4,4 -4,-745 173.5,-745 173.5,4 -4,4"/>
<!-- Node0 -->
<g id="node1" class="node"><title>Node0</title>
<g id="a_node1"><a xlink:title=" ">
<polygon fill="#bfbfbf" stroke="black" points="10,-0.5 10,-68.5 166,-68.5 166,-0.5 10,-0.5"/>
<text text-anchor="start" x="18" y="-56.5" font-family="SegoeUI" font-size="10.00">Juniper.Sound.DefaultInteraction</text>
<text text-anchor="middle" x="88" y="-45.5" font-family="SegoeUI" font-size="10.00">Audio</text>
<polyline fill="none" stroke="black" points="10,-38.5 166,-38.5 "/>
<text text-anchor="middle" x="88" y="-26.5" font-family="SegoeUI" font-size="10.00"> </text>
<polyline fill="none" stroke="black" points="10,-19.5 166,-19.5 "/>
<text text-anchor="middle" x="88" y="-7.5" font-family="SegoeUI" font-size="10.00"> </text>
</a>
</g>
</g>
<!-- Node1 -->
<g id="node2" class="node"><title>Node1</title>
<g id="a_node2"><a xlink:href="../../d5/d17/class_juniper_1_1_sound_1_1_abstract_interaction_audio.html" target="_top" xlink:title="The audio portion of the interaction system.">
<polygon fill="white" stroke="black" points="16.5,-105.5 16.5,-624.5 159.5,-624.5 159.5,-105.5 16.5,-105.5"/>
<text text-anchor="middle" x="88" y="-612.5" font-family="SegoeUI" font-size="10.00">AbstractInteractionAudio</text>
<polyline fill="none" stroke="black" points="16.5,-605.5 159.5,-605.5 "/>
<text text-anchor="start" x="24.5" y="-593.5" font-family="SegoeUI" font-size="10.00">+ CachePrefix</text>
<text text-anchor="start" x="24.5" y="-582.5" font-family="SegoeUI" font-size="10.00">+ soundOnClosed</text>
<text text-anchor="start" x="24.5" y="-571.5" font-family="SegoeUI" font-size="10.00">+ soundOnDisabled</text>
<text text-anchor="start" x="24.5" y="-560.5" font-family="SegoeUI" font-size="10.00">+ soundOnDragged</text>
<text text-anchor="start" x="24.5" y="-549.5" font-family="SegoeUI" font-size="10.00">+ soundOnEntered</text>
<text text-anchor="start" x="24.5" y="-538.5" font-family="SegoeUI" font-size="10.00">+ soundOnError</text>
<text text-anchor="start" x="24.5" y="-527.5" font-family="SegoeUI" font-size="10.00">+ soundOnExited</text>
<text text-anchor="start" x="24.5" y="-516.5" font-family="SegoeUI" font-size="10.00">+ soundOnOpened</text>
<text text-anchor="start" x="24.5" y="-505.5" font-family="SegoeUI" font-size="10.00">+ soundOnReleased</text>
<text text-anchor="start" x="24.5" y="-494.5" font-family="SegoeUI" font-size="10.00">+ soundOnScrolled</text>
<text text-anchor="start" x="24.5" y="-483.5" font-family="SegoeUI" font-size="10.00">and 6 more...</text>
<text text-anchor="start" x="24.5" y="-472.5" font-family="SegoeUI" font-size="10.00">+ IsTextToSpeechAvailable</text>
<text text-anchor="start" x="24.5" y="-461.5" font-family="SegoeUI" font-size="10.00"># listener</text>
<text text-anchor="start" x="24.5" y="-450.5" font-family="SegoeUI" font-size="10.00"># DefaultAudioMixer</text>
<text text-anchor="start" x="24.5" y="-439.5" font-family="SegoeUI" font-size="10.00">&#45; INTERACTION_SOUND_TAG</text>
<text text-anchor="start" x="24.5" y="-428.5" font-family="SegoeUI" font-size="10.00">&#45; azureApiKey</text>
<text text-anchor="start" x="24.5" y="-417.5" font-family="SegoeUI" font-size="10.00">&#45; azureRegion</text>
<text text-anchor="start" x="24.5" y="-406.5" font-family="SegoeUI" font-size="10.00">&#45; azureResourceName</text>
<text text-anchor="start" x="24.5" y="-395.5" font-family="SegoeUI" font-size="10.00">&#45; tts</text>
<text text-anchor="start" x="24.5" y="-384.5" font-family="SegoeUI" font-size="10.00">&#45; camT</text>
<text text-anchor="start" x="24.5" y="-373.5" font-family="SegoeUI" font-size="10.00">&#45; startUp</text>
<text text-anchor="start" x="24.5" y="-362.5" font-family="SegoeUI" font-size="10.00">&#45; shutDown</text>
<text text-anchor="start" x="24.5" y="-351.5" font-family="SegoeUI" font-size="10.00">&#45; audioSources</text>
<text text-anchor="start" x="24.5" y="-340.5" font-family="SegoeUI" font-size="10.00">&#45; hasInteractionSoundTag</text>
<polyline fill="none" stroke="black" points="16.5,-333.5 159.5,-333.5 "/>
<text text-anchor="start" x="24.5" y="-321.5" font-family="SegoeUI" font-size="10.00">+ Install()</text>
<text text-anchor="start" x="24.5" y="-310.5" font-family="SegoeUI" font-size="10.00">+ Reinstall()</text>
<text text-anchor="start" x="24.5" y="-299.5" font-family="SegoeUI" font-size="10.00">+ Uninstall()</text>
<text text-anchor="start" x="24.5" y="-288.5" font-family="SegoeUI" font-size="10.00">+ Awake()</text>
<text text-anchor="start" x="24.5" y="-277.5" font-family="SegoeUI" font-size="10.00">+ GetCachingStrategy()</text>
<text text-anchor="start" x="24.5" y="-266.5" font-family="SegoeUI" font-size="10.00">+ PreloadSpeech()</text>
<text text-anchor="start" x="24.5" y="-255.5" font-family="SegoeUI" font-size="10.00">+ PlayAction()</text>
<text text-anchor="start" x="24.5" y="-244.5" font-family="SegoeUI" font-size="10.00">+ PlayAction()</text>
<text text-anchor="start" x="24.5" y="-233.5" font-family="SegoeUI" font-size="10.00">+ PlayAction()</text>
<text text-anchor="start" x="24.5" y="-222.5" font-family="SegoeUI" font-size="10.00">+ PlayAction()</text>
<text text-anchor="start" x="24.5" y="-211.5" font-family="SegoeUI" font-size="10.00">and 15 more...</text>
<text text-anchor="start" x="24.5" y="-200.5" font-family="SegoeUI" font-size="10.00">+ GetHapticExpressions()</text>
<text text-anchor="start" x="24.5" y="-189.5" font-family="SegoeUI" font-size="10.00"># UninstallSpatialization()</text>
<text text-anchor="start" x="24.5" y="-178.5" font-family="SegoeUI" font-size="10.00"># InternalSpatialize()</text>
<text text-anchor="start" x="24.5" y="-167.5" font-family="SegoeUI" font-size="10.00">&#45; GetClipCollection()</text>
<text text-anchor="start" x="24.5" y="-156.5" font-family="SegoeUI" font-size="10.00">&#45; InitializeInteractionAudio</text>
<text text-anchor="start" x="24.5" y="-145.5" font-family="SegoeUI" font-size="10.00">Sources()</text>
<text text-anchor="start" x="24.5" y="-134.5" font-family="SegoeUI" font-size="10.00">&#45; FindAudioSources()</text>
<text text-anchor="start" x="24.5" y="-123.5" font-family="SegoeUI" font-size="10.00">&#45; GetAudioSource()</text>
<text text-anchor="start" x="24.5" y="-112.5" font-family="SegoeUI" font-size="10.00">&#45; CreateNewAudioSource()</text>
</a>
</g>
</g>
<!-- Node1&#45;&gt;Node0 -->
<g id="edge1" class="edge"><title>Node1&#45;&gt;Node0</title>
<path fill="none" stroke="midnightblue" d="M88,-94.8636C88,-85.2526 88,-76.4652 88,-68.768"/>
<polygon fill="none" stroke="midnightblue" points="84.5001,-95.1664 88,-105.166 91.5001,-95.1664 84.5001,-95.1664"/>
</g>
<!-- Node2 -->
<g id="node3" class="node"><title>Node2</title>
<g id="a_node3"><a xlink:title=" ">
<polygon fill="white" stroke="#bfbfbf" points="0,-672.5 0,-729.5 82,-729.5 82,-672.5 0,-672.5"/>
<text text-anchor="middle" x="41" y="-717.5" font-family="SegoeUI" font-size="10.00">MonoBehaviour</text>
<polyline fill="none" stroke="#bfbfbf" points="0,-710.5 82,-710.5 "/>
<text text-anchor="middle" x="41" y="-698.5" font-family="SegoeUI" font-size="10.00"> </text>
<polyline fill="none" stroke="#bfbfbf" points="0,-691.5 82,-691.5 "/>
<text text-anchor="middle" x="41" y="-679.5" font-family="SegoeUI" font-size="10.00"> </text>
</a>
</g>
</g>
<!-- Node2&#45;&gt;Node1 -->
<g id="edge2" class="edge"><title>Node2&#45;&gt;Node1</title>
<path fill="none" stroke="midnightblue" d="M46.3251,-662.158C47.8552,-651.285 49.649,-638.537 51.6174,-624.549"/>
<polygon fill="none" stroke="midnightblue" points="42.8139,-661.993 44.8862,-672.383 49.7456,-662.969 42.8139,-661.993"/>
</g>
<!-- Node3 -->
<g id="node4" class="node"><title>Node3</title>
<g id="a_node4"><a xlink:href="../../d7/dbe/interface_juniper_1_1_i_o_1_1_i_installable.html" target="_top" xlink:title="Defines an interface for objects that can be installed and have their installation progress tracked.">
<polygon fill="white" stroke="black" points="100.5,-661.5 100.5,-740.5 169.5,-740.5 169.5,-661.5 100.5,-661.5"/>
<text text-anchor="middle" x="135" y="-728.5" font-family="SegoeUI" font-size="10.00">IInstallable</text>
<polyline fill="none" stroke="black" points="100.5,-721.5 169.5,-721.5 "/>
<text text-anchor="middle" x="135" y="-709.5" font-family="SegoeUI" font-size="10.00"> </text>
<polyline fill="none" stroke="black" points="100.5,-702.5 169.5,-702.5 "/>
<text text-anchor="start" x="108.5" y="-690.5" font-family="SegoeUI" font-size="10.00">+ Install()</text>
<text text-anchor="start" x="108.5" y="-679.5" font-family="SegoeUI" font-size="10.00">+ Reinstall()</text>
<text text-anchor="start" x="108.5" y="-668.5" font-family="SegoeUI" font-size="10.00">+ Uninstall()</text>
</a>
</g>
</g>
<!-- Node3&#45;&gt;Node1 -->
<g id="edge3" class="edge"><title>Node3&#45;&gt;Node1</title>
<path fill="none" stroke="midnightblue" d="M128.165,-651.429C127.014,-643.248 125.753,-634.285 124.41,-624.743"/>
<polygon fill="none" stroke="midnightblue" points="124.703,-651.945 129.563,-661.36 131.635,-650.969 124.703,-651.945"/>
</g>
</g>
</svg>
