<?xml version="1.0" encoding="UTF-8" standalone="no"?>
<!DOCTYPE svg PUBLIC "-//W3C//DTD SVG 1.1//EN"
 "http://www.w3.org/Graphics/SVG/1.1/DTD/svg11.dtd">
<!-- Generated by graphviz version 2.38.0 (20140413.2041)
 -->
<!-- Title: Juniper.Unity.Anchoring.HoloLensAnchorStore Pages: 1 -->
<!--zoomable 529 -->
<svg id="main" version="1.1" xmlns="http://www.w3.org/2000/svg" xmlns:xlink="http://www.w3.org/1999/xlink" xml:space="preserve" onload="init(evt)">
<style type="text/css"><![CDATA[
.edge:hover path { stroke: red; }
.edge:hover polygon { stroke: red; fill: red; }
]]></style>
<script type="text/javascript"><![CDATA[
var edges = document.getElementsByTagName('g');
if (edges && edges.length) {
  for (var i=0;i<edges.length;i++) {
    if (edges[i].id.substr(0,4)=='edge') {
      edges[i].setAttribute('class','edge');
    }
  }
}
]]></script>
        <defs>
                <circle id="rim" cx="0" cy="0" r="7"/>
                <circle id="rim2" cx="0" cy="0" r="3.5"/>
                <g id="zoomPlus">
                        <use xlink:href="#rim" fill="#404040">
                                <set attributeName="fill" to="#808080" begin="zoomplus.mouseover" end="zoomplus.mouseout"/>
                        </use>
                        <path d="M-4,0h8M0,-4v8" fill="none" stroke="white" stroke-width="1.5" pointer-events="none"/>
                </g>
                <g id="zoomMin">
                        <use xlink:href="#rim" fill="#404040">
                                <set attributeName="fill" to="#808080" begin="zoomminus.mouseover" end="zoomminus.mouseout"/>
                        </use>
                        <path d="M-4,0h8" fill="none" stroke="white" stroke-width="1.5" pointer-events="none"/>
                </g>
                <g id="dirArrow">
                        <path fill="none" stroke="white" stroke-width="1.5" d="M0,-3.0v7 M-2.5,-0.5L0,-3.0L2.5,-0.5"/>
                </g>
               <g id="resetDef">
                       <use xlink:href="#rim2" fill="#404040">
                               <set attributeName="fill" to="#808080" begin="reset.mouseover" end="reset.mouseout"/>
                       </use>
               </g>
        </defs>

<script type="text/javascript">
var viewWidth = 133;
var viewHeight = 529;
var sectionId = 'dynsection-0';
</script>
<script xlink:href="../../svgpan.js"/>
<svg id="graph" class="graph">
<g id="viewport">
<title>Juniper.Unity.Anchoring.HoloLensAnchorStore</title>
<polygon fill="white" stroke="none" points="-4,4 -4,-525 129,-525 129,4 -4,4"/>
<!-- Node0 -->
<g id="node1" class="node"><title>Node0</title>
<g id="a_node1"><a xlink:title=" ">
<polygon fill="#bfbfbf" stroke="black" points="2.5,-0.5 2.5,-123.5 122.5,-123.5 122.5,-0.5 2.5,-0.5"/>
<text text-anchor="start" x="10.5" y="-111.5" font-family="SegoeUI" font-size="10.00">Juniper.Unity.Anchoring.</text>
<text text-anchor="middle" x="62.5" y="-100.5" font-family="SegoeUI" font-size="10.00">HoloLensAnchorStore</text>
<polyline fill="none" stroke="black" points="2.5,-93.5 122.5,-93.5 "/>
<text text-anchor="start" x="10.5" y="-81.5" font-family="SegoeUI" font-size="10.00">&#45; anchorStore</text>
<polyline fill="none" stroke="black" points="2.5,-74.5 122.5,-74.5 "/>
<text text-anchor="start" x="10.5" y="-62.5" font-family="SegoeUI" font-size="10.00">+ Awake()</text>
<text text-anchor="start" x="10.5" y="-51.5" font-family="SegoeUI" font-size="10.00">+ HasAnchor()</text>
<text text-anchor="start" x="10.5" y="-40.5" font-family="SegoeUI" font-size="10.00"># IsSaved()</text>
<text text-anchor="start" x="10.5" y="-29.5" font-family="SegoeUI" font-size="10.00"># LoadAnchor()</text>
<text text-anchor="start" x="10.5" y="-18.5" font-family="SegoeUI" font-size="10.00"># IsGood()</text>
<text text-anchor="start" x="10.5" y="-7.5" font-family="SegoeUI" font-size="10.00"># DeleteAnchor()</text>
</a>
</g>
</g>
<!-- Node1 -->
<g id="node2" class="node"><title>Node1</title>
<g id="a_node2"><a xlink:href="../../dd/dac/class_juniper_1_1_unity_1_1_anchoring_1_1_abstract_anchor_store.html" target="_top" xlink:title="A store for points in space that the system will restore on second&#45;run. By default,...">
<polygon fill="white" stroke="black" points="0,-160.5 0,-426.5 125,-426.5 125,-160.5 0,-160.5"/>
<text text-anchor="start" x="8" y="-414.5" font-family="SegoeUI" font-size="10.00">AbstractAnchorStore</text>
<text text-anchor="middle" x="62.5" y="-403.5" font-family="SegoeUI" font-size="10.00">&lt; AnchorType &gt;</text>
<polyline fill="none" stroke="black" points="0,-396.5 125,-396.5 "/>
<text text-anchor="start" x="8" y="-384.5" font-family="SegoeUI" font-size="10.00">+ NameList</text>
<text text-anchor="start" x="8" y="-373.5" font-family="SegoeUI" font-size="10.00">&#45; KEY_LIST_KEY</text>
<text text-anchor="start" x="8" y="-362.5" font-family="SegoeUI" font-size="10.00">&#45; ID_PREFIX</text>
<text text-anchor="start" x="8" y="-351.5" font-family="SegoeUI" font-size="10.00">&#45; EMPTY_STRING_ARRAY</text>
<polyline fill="none" stroke="black" points="0,-344.5 125,-344.5 "/>
<text text-anchor="start" x="8" y="-332.5" font-family="SegoeUI" font-size="10.00">+ ResetData()</text>
<text text-anchor="start" x="8" y="-321.5" font-family="SegoeUI" font-size="10.00">+ DropAnchor()</text>
<text text-anchor="start" x="8" y="-310.5" font-family="SegoeUI" font-size="10.00">+ WeighAnchor()</text>
<text text-anchor="start" x="8" y="-299.5" font-family="SegoeUI" font-size="10.00">+ HasAnchor()</text>
<text text-anchor="start" x="8" y="-288.5" font-family="SegoeUI" font-size="10.00"># SynchronizeAnchor()</text>
<text text-anchor="start" x="8" y="-277.5" font-family="SegoeUI" font-size="10.00"># IsGood()</text>
<text text-anchor="start" x="8" y="-266.5" font-family="SegoeUI" font-size="10.00"># DeleteAnchor()</text>
<text text-anchor="start" x="8" y="-255.5" font-family="SegoeUI" font-size="10.00"># FindAnchor()</text>
<text text-anchor="start" x="8" y="-244.5" font-family="SegoeUI" font-size="10.00"># IsSaved()</text>
<text text-anchor="start" x="8" y="-233.5" font-family="SegoeUI" font-size="10.00"># CreateAnchor()</text>
<text text-anchor="start" x="8" y="-222.5" font-family="SegoeUI" font-size="10.00"># LoadAnchor()</text>
<text text-anchor="start" x="8" y="-211.5" font-family="SegoeUI" font-size="10.00"># MakeID()</text>
<text text-anchor="start" x="8" y="-200.5" font-family="SegoeUI" font-size="10.00"># HasValue()</text>
<text text-anchor="start" x="8" y="-189.5" font-family="SegoeUI" font-size="10.00"># SaveValue&lt; T &gt;()</text>
<text text-anchor="start" x="8" y="-178.5" font-family="SegoeUI" font-size="10.00"># LoadValue&lt; T &gt;()</text>
<text text-anchor="start" x="8" y="-167.5" font-family="SegoeUI" font-size="10.00"># DeleteValue()</text>
</a>
</g>
</g>
<!-- Node1&#45;&gt;Node0 -->
<g id="edge1" class="edge"><title>Node1&#45;&gt;Node0</title>
<path fill="none" stroke="midnightblue" d="M62.5,-150.24C62.5,-141.022 62.5,-132.056 62.5,-123.599"/>
<polygon fill="none" stroke="midnightblue" points="59.0001,-150.329 62.5,-160.329 66.0001,-150.329 59.0001,-150.329"/>
</g>
<!-- Node2 -->
<g id="node3" class="node"><title>Node2</title>
<g id="a_node3"><a xlink:title=" ">
<polygon fill="white" stroke="#bfbfbf" points="21.5,-463.5 21.5,-520.5 103.5,-520.5 103.5,-463.5 21.5,-463.5"/>
<text text-anchor="middle" x="62.5" y="-508.5" font-family="SegoeUI" font-size="10.00">MonoBehaviour</text>
<polyline fill="none" stroke="#bfbfbf" points="21.5,-501.5 103.5,-501.5 "/>
<text text-anchor="middle" x="62.5" y="-489.5" font-family="SegoeUI" font-size="10.00"> </text>
<polyline fill="none" stroke="#bfbfbf" points="21.5,-482.5 103.5,-482.5 "/>
<text text-anchor="middle" x="62.5" y="-470.5" font-family="SegoeUI" font-size="10.00"> </text>
</a>
</g>
</g>
<!-- Node2&#45;&gt;Node1 -->
<g id="edge2" class="edge"><title>Node2&#45;&gt;Node1</title>
<path fill="none" stroke="midnightblue" d="M62.5,-453.205C62.5,-445.137 62.5,-436.18 62.5,-426.746"/>
<polygon fill="none" stroke="midnightblue" points="59.0001,-453.263 62.5,-463.263 66.0001,-453.263 59.0001,-453.263"/>
</g>
</g>
</svg>
        <g id="navigator" transform="translate(0 0)" fill="#404254">
                <rect fill="#f2f5e9" fill-opacity="0.5" stroke="#606060" stroke-width=".5" x="0" y="0" width="60" height="60"/>
                <use id="zoomplus" xlink:href="#zoomPlus" x="17" y="9" onmousedown="handleZoom(evt,'in')"/>
                <use id="zoomminus" xlink:href="#zoomMin" x="42" y="9" onmousedown="handleZoom(evt,'out')"/>
                <use id="reset" xlink:href="#resetDef" x="30" y="36" onmousedown="handleReset()"/>
                <g id="arrowUp" xlink:href="#dirArrow" transform="translate(30 24)" onmousedown="handlePan(0,-1)">
                  <use xlink:href="#rim" fill="#404040">
                        <set attributeName="fill" to="#808080" begin="arrowUp.mouseover" end="arrowUp.mouseout"/>
                  </use>
                  <path fill="none" stroke="white" stroke-width="1.5" d="M0,-3.0v7 M-2.5,-0.5L0,-3.0L2.5,-0.5"/>
                </g>
                <g id="arrowRight" xlink:href="#dirArrow" transform="rotate(90) translate(36 -43)" onmousedown="handlePan(1,0)">
                  <use xlink:href="#rim" fill="#404040">
                        <set attributeName="fill" to="#808080" begin="arrowRight.mouseover" end="arrowRight.mouseout"/>
                  </use>
                  <path fill="none" stroke="white" stroke-width="1.5" d="M0,-3.0v7 M-2.5,-0.5L0,-3.0L2.5,-0.5"/>
                </g>
                <g id="arrowDown" xlink:href="#dirArrow" transform="rotate(180) translate(-30 -48)" onmousedown="handlePan(0,1)">
                  <use xlink:href="#rim" fill="#404040">
                        <set attributeName="fill" to="#808080" begin="arrowDown.mouseover" end="arrowDown.mouseout"/>
                  </use>
                  <path fill="none" stroke="white" stroke-width="1.5" d="M0,-3.0v7 M-2.5,-0.5L0,-3.0L2.5,-0.5"/>
                </g>
                <g id="arrowLeft" xlink:href="#dirArrow" transform="rotate(270) translate(-36 17)" onmousedown="handlePan(-1,0)">
                  <use xlink:href="#rim" fill="#404040">
                        <set attributeName="fill" to="#808080" begin="arrowLeft.mouseover" end="arrowLeft.mouseout"/>
                  </use>
                  <path fill="none" stroke="white" stroke-width="1.5" d="M0,-3.0v7 M-2.5,-0.5L0,-3.0L2.5,-0.5"/>
                </g>
        </g>
        <svg viewBox="0 0 15 15" width="100%" height="30px" preserveAspectRatio="xMaxYMin meet">
         <g id="arrow_out" transform="scale(0.3 0.3)">
          <a xlink:href="class_juniper_1_1_unity_1_1_anchoring_1_1_holo_lens_anchor_store__inherit__graph_org.svg" target="_base">
           <rect id="button" ry="5" rx="5" y="6" x="6" height="38" width="38"
                fill="#f2f5e9" fill-opacity="0.5" stroke="#606060" stroke-width="1.0"/>
           <path id="arrow"
             d="M 11.500037,31.436501 C 11.940474,20.09759 22.043105,11.32322 32.158766,21.979434 L 37.068811,17.246167 C 37.068811,17.246167 37.088388,32 37.088388,32 L 22.160133,31.978069 C 22.160133,31.978069 26.997745,27.140456 26.997745,27.140456 C 18.528582,18.264221 13.291696,25.230495 11.500037,31.436501 z"
             style="fill:#404040;"/>
          </a>
         </g>
        </svg>
</svg>
