<?xml version="1.0" encoding="UTF-8" standalone="no"?>
<!DOCTYPE svg PUBLIC "-//W3C//DTD SVG 1.1//EN"
 "http://www.w3.org/Graphics/SVG/1.1/DTD/svg11.dtd">
<!-- Generated by graphviz version 2.38.0 (20140413.2041)
 -->
<!-- Title: Juniper.Unity.Speech.IKeywordRecognizer Pages: 1 -->
<svg width="157pt" height="469pt"
 viewBox="0.00 0.00 157.00 469.00" xmlns="http://www.w3.org/2000/svg" xmlns:xlink="http://www.w3.org/1999/xlink">
<g id="graph0" class="graph" transform="scale(1 1) rotate(0) translate(4 465)">
<title>Juniper.Unity.Speech.IKeywordRecognizer</title>
<polygon fill="white" stroke="none" points="-4,4 -4,-465 153,-465 153,4 -4,4"/>
<!-- Node0 -->
<g id="node1" class="node"><title>Node0</title>
<g id="a_node1"><a xlink:title=" ">
<polygon fill="#bfbfbf" stroke="black" points="0,-392.5 0,-460.5 149,-460.5 149,-392.5 0,-392.5"/>
<text text-anchor="start" x="8" y="-448.5" font-family="SegoeUI" font-size="10.00">Juniper.Unity.Speech.IKeyword</text>
<text text-anchor="middle" x="74.5" y="-437.5" font-family="SegoeUI" font-size="10.00">Recognizer</text>
<polyline fill="none" stroke="black" points="0,-430.5 149,-430.5 "/>
<text text-anchor="middle" x="74.5" y="-418.5" font-family="SegoeUI" font-size="10.00"> </text>
<polyline fill="none" stroke="black" points="0,-411.5 149,-411.5 "/>
<text text-anchor="start" x="8" y="-399.5" font-family="SegoeUI" font-size="10.00">+ RefreshKeywords()</text>
</a>
</g>
</g>
<!-- Node1 -->
<g id="node2" class="node"><title>Node1</title>
<g id="a_node2"><a xlink:href="../../dc/d89/class_juniper_1_1_unity_1_1_input_1_1_speech_1_1_abstract_keyword_recognizer.html" target="_top" xlink:title="A class that implements basic functionality for systems that manage speech recognition and route out ...">
<polygon fill="white" stroke="black" points="6.5,-221.5 6.5,-355.5 142.5,-355.5 142.5,-221.5 6.5,-221.5"/>
<text text-anchor="start" x="14.5" y="-343.5" font-family="SegoeUI" font-size="10.00">Juniper.Unity.Input.Speech.</text>
<text text-anchor="middle" x="74.5" y="-332.5" font-family="SegoeUI" font-size="10.00">AbstractKeywordRecognizer</text>
<polyline fill="none" stroke="black" points="6.5,-325.5 142.5,-325.5 "/>
<text text-anchor="start" x="14.5" y="-313.5" font-family="SegoeUI" font-size="10.00">+ onKeywordRecognized</text>
<text text-anchor="start" x="14.5" y="-302.5" font-family="SegoeUI" font-size="10.00"># keywords</text>
<polyline fill="none" stroke="black" points="6.5,-295.5 142.5,-295.5 "/>
<text text-anchor="start" x="14.5" y="-283.5" font-family="SegoeUI" font-size="10.00">+ RefreshKeywords()</text>
<text text-anchor="start" x="14.5" y="-272.5" font-family="SegoeUI" font-size="10.00">+ OnEnable()</text>
<text text-anchor="start" x="14.5" y="-261.5" font-family="SegoeUI" font-size="10.00">+ OnDisable()</text>
<text text-anchor="start" x="14.5" y="-250.5" font-family="SegoeUI" font-size="10.00"># OnKeywordRecognized()</text>
<text text-anchor="start" x="14.5" y="-239.5" font-family="SegoeUI" font-size="10.00"># Setup()</text>
<text text-anchor="start" x="14.5" y="-228.5" font-family="SegoeUI" font-size="10.00"># TearDown()</text>
</a>
</g>
</g>
<!-- Node0&#45;&gt;Node1 -->
<g id="edge1" class="edge"><title>Node0&#45;&gt;Node1</title>
<path fill="none" stroke="midnightblue" d="M74.5,-381.956C74.5,-373.567 74.5,-364.604 74.5,-355.683"/>
<polygon fill="none" stroke="midnightblue" points="71.0001,-382.231 74.5,-392.231 78.0001,-382.231 71.0001,-382.231"/>
</g>
<!-- Node2 -->
<g id="node3" class="node"><title>Node2</title>
<g id="a_node3"><a xlink:href="../../d4/d57/class_juniper_1_1_unity_1_1_input_1_1_speech_1_1_no_keyword_recognizer.html" target="_top" xlink:title=" ">
<polygon fill="white" stroke="black" points="7.5,-105.5 7.5,-184.5 141.5,-184.5 141.5,-105.5 7.5,-105.5"/>
<text text-anchor="start" x="15.5" y="-172.5" font-family="SegoeUI" font-size="10.00">Juniper.Unity.Input.Speech.</text>
<text text-anchor="middle" x="74.5" y="-161.5" font-family="SegoeUI" font-size="10.00">NoKeywordRecognizer</text>
<polyline fill="none" stroke="black" points="7.5,-154.5 141.5,-154.5 "/>
<text text-anchor="start" x="15.5" y="-142.5" font-family="SegoeUI" font-size="10.00">+ IsAvailable</text>
<polyline fill="none" stroke="black" points="7.5,-135.5 141.5,-135.5 "/>
<text text-anchor="start" x="15.5" y="-123.5" font-family="SegoeUI" font-size="10.00"># Setup()</text>
<text text-anchor="start" x="15.5" y="-112.5" font-family="SegoeUI" font-size="10.00"># TearDown()</text>
</a>
</g>
</g>
<!-- Node1&#45;&gt;Node2 -->
<g id="edge2" class="edge"><title>Node1&#45;&gt;Node2</title>
<path fill="none" stroke="midnightblue" d="M74.5,-211.03C74.5,-201.947 74.5,-192.99 74.5,-184.763"/>
<polygon fill="none" stroke="midnightblue" points="71.0001,-211.307 74.5,-221.307 78.0001,-211.307 71.0001,-211.307"/>
</g>
<!-- Node3 -->
<g id="node4" class="node"><title>Node3</title>
<g id="a_node4"><a xlink:href="../../da/d31/class_juniper_1_1_unity_1_1_input_1_1_speech_1_1_keyword_recognizer.html" target="_top" xlink:title=" ">
<polygon fill="white" stroke="black" points="7.5,-0.5 7.5,-68.5 141.5,-68.5 141.5,-0.5 7.5,-0.5"/>
<text text-anchor="start" x="15.5" y="-56.5" font-family="SegoeUI" font-size="10.00">Juniper.Unity.Input.Speech.</text>
<text text-anchor="middle" x="74.5" y="-45.5" font-family="SegoeUI" font-size="10.00">KeywordRecognizer</text>
<polyline fill="none" stroke="black" points="7.5,-38.5 141.5,-38.5 "/>
<text text-anchor="middle" x="74.5" y="-26.5" font-family="SegoeUI" font-size="10.00"> </text>
<polyline fill="none" stroke="black" points="7.5,-19.5 141.5,-19.5 "/>
<text text-anchor="middle" x="74.5" y="-7.5" font-family="SegoeUI" font-size="10.00"> </text>
</a>
</g>
</g>
<!-- Node2&#45;&gt;Node3 -->
<g id="edge3" class="edge"><title>Node2&#45;&gt;Node3</title>
<path fill="none" stroke="midnightblue" d="M74.5,-95.3492C74.5,-86.2824 74.5,-77.0048 74.5,-68.5439"/>
<polygon fill="none" stroke="midnightblue" points="71.0001,-95.4414 74.5,-105.441 78.0001,-95.4415 71.0001,-95.4414"/>
</g>
</g>
</svg>
