<?xml version="1.0" encoding="UTF-8" standalone="no"?>
<!DOCTYPE svg PUBLIC "-//W3C//DTD SVG 1.1//EN"
 "http://www.w3.org/Graphics/SVG/1.1/DTD/svg11.dtd">
<!-- Generated by graphviz version 2.38.0 (20140413.2041)
 -->
<!-- Title: Juniper.Sound.IAudioClipCollection Pages: 1 -->
<svg width="138pt" height="193pt"
 viewBox="0.00 0.00 138.00 193.00" xmlns="http://www.w3.org/2000/svg" xmlns:xlink="http://www.w3.org/1999/xlink">
<g id="graph0" class="graph" transform="scale(1 1) rotate(0) translate(4 189)">
<title>Juniper.Sound.IAudioClipCollection</title>
<polygon fill="white" stroke="none" points="-4,4 -4,-189 134,-189 134,4 -4,4"/>
<!-- Node4 -->
<g id="node1" class="node"><title>Node4</title>
<g id="a_node1"><a xlink:title="The IAudioClipCollection interface is implemented by two classes. One is a savable collection of audi...">
<polygon fill="#bfbfbf" stroke="black" points="3.5,-0.5 3.5,-90.5 126.5,-90.5 126.5,-0.5 3.5,-0.5"/>
<text text-anchor="start" x="11.5" y="-78.5" font-family="SegoeUI" font-size="10.00">Juniper.Sound.IAudioClip</text>
<text text-anchor="middle" x="65" y="-67.5" font-family="SegoeUI" font-size="10.00">Collection</text>
<polyline fill="none" stroke="black" points="3.5,-60.5 126.5,-60.5 "/>
<text text-anchor="start" x="11.5" y="-48.5" font-family="SegoeUI" font-size="10.00">+ Length</text>
<text text-anchor="start" x="11.5" y="-37.5" font-family="SegoeUI" font-size="10.00">+ RandomizeClipPitch</text>
<text text-anchor="start" x="11.5" y="-26.5" font-family="SegoeUI" font-size="10.00">+ this[int index]</text>
<polyline fill="none" stroke="black" points="3.5,-19.5 126.5,-19.5 "/>
<text text-anchor="start" x="11.5" y="-7.5" font-family="SegoeUI" font-size="10.00">+ Random()</text>
</a>
</g>
</g>
<!-- Node5 -->
<g id="node2" class="node"><title>Node5</title>
<g id="a_node2"><a xlink:title=" ">
<polygon fill="white" stroke="#bfbfbf" points="0,-127.5 0,-184.5 130,-184.5 130,-127.5 0,-127.5"/>
<text text-anchor="middle" x="65" y="-172.5" font-family="SegoeUI" font-size="10.00">IEnumerable&lt; AudioClip &gt;</text>
<polyline fill="none" stroke="#bfbfbf" points="0,-165.5 130,-165.5 "/>
<text text-anchor="middle" x="65" y="-153.5" font-family="SegoeUI" font-size="10.00"> </text>
<polyline fill="none" stroke="#bfbfbf" points="0,-146.5 130,-146.5 "/>
<text text-anchor="middle" x="65" y="-134.5" font-family="SegoeUI" font-size="10.00"> </text>
</a>
</g>
</g>
<!-- Node5&#45;&gt;Node4 -->
<g id="edge1" class="edge"><title>Node5&#45;&gt;Node4</title>
<path fill="none" stroke="midnightblue" d="M65,-117.214C65,-108.609 65,-99.3943 65,-90.5541"/>
<polygon fill="none" stroke="midnightblue" points="61.5001,-117.34 65,-127.34 68.5001,-117.34 61.5001,-117.34"/>
</g>
</g>
</svg>
