<?xml version="1.0" encoding="UTF-8" standalone="no"?>
<!DOCTYPE svg PUBLIC "-//W3C//DTD SVG 1.1//EN"
 "http://www.w3.org/Graphics/SVG/1.1/DTD/svg11.dtd">
<!-- Generated by graphviz version 2.38.0 (20140413.2041)
 -->
<!-- Title: Juniper.HTTP.Server.Administration.NetSH.ShowSslCert Pages: 1 -->
<!--zoomable 684 -->
<svg id="main" version="1.1" xmlns="http://www.w3.org/2000/svg" xmlns:xlink="http://www.w3.org/1999/xlink" xml:space="preserve" onload="init(evt)">
<style type="text/css"><![CDATA[
.edge:hover path { stroke: red; }
.edge:hover polygon { stroke: red; fill: red; }
]]></style>
<script type="text/javascript"><![CDATA[
var edges = document.getElementsByTagName('g');
if (edges && edges.length) {
  for (var i=0;i<edges.length;i++) {
    if (edges[i].id.substr(0,4)=='edge') {
      edges[i].setAttribute('class','edge');
    }
  }
}
]]></script>
        <defs>
                <circle id="rim" cx="0" cy="0" r="7"/>
                <circle id="rim2" cx="0" cy="0" r="3.5"/>
                <g id="zoomPlus">
                        <use xlink:href="#rim" fill="#404040">
                                <set attributeName="fill" to="#808080" begin="zoomplus.mouseover" end="zoomplus.mouseout"/>
                        </use>
                        <path d="M-4,0h8M0,-4v8" fill="none" stroke="white" stroke-width="1.5" pointer-events="none"/>
                </g>
                <g id="zoomMin">
                        <use xlink:href="#rim" fill="#404040">
                                <set attributeName="fill" to="#808080" begin="zoomminus.mouseover" end="zoomminus.mouseout"/>
                        </use>
                        <path d="M-4,0h8" fill="none" stroke="white" stroke-width="1.5" pointer-events="none"/>
                </g>
                <g id="dirArrow">
                        <path fill="none" stroke="white" stroke-width="1.5" d="M0,-3.0v7 M-2.5,-0.5L0,-3.0L2.5,-0.5"/>
                </g>
               <g id="resetDef">
                       <use xlink:href="#rim2" fill="#404040">
                               <set attributeName="fill" to="#808080" begin="reset.mouseover" end="reset.mouseout"/>
                       </use>
               </g>
        </defs>

<script type="text/javascript">
var viewWidth = 268;
var viewHeight = 684;
var sectionId = 'dynsection-1';
</script>
<script xlink:href="../../svgpan.js"/>
<svg id="graph" class="graph">
<g id="viewport">
<title>Juniper.HTTP.Server.Administration.NetSH.ShowSslCert</title>
<polygon fill="white" stroke="none" points="-4,4 -4,-680 263.5,-680 263.5,4 -4,4"/>
<!-- Node7 -->
<g id="node1" class="node"><title>Node7</title>
<g id="a_node1"><a xlink:title=" ">
<polygon fill="#bfbfbf" stroke="black" points="40.5,-0.5 40.5,-90.5 213.5,-90.5 213.5,-0.5 40.5,-0.5"/>
<text text-anchor="start" x="48.5" y="-78.5" font-family="SegoeUI" font-size="10.00">Juniper.HTTP.Server.Administration.</text>
<text text-anchor="middle" x="127" y="-67.5" font-family="SegoeUI" font-size="10.00">NetSH.ShowSslCert</text>
<polyline fill="none" stroke="black" points="40.5,-60.5 213.5,-60.5 "/>
<text text-anchor="middle" x="127" y="-48.5" font-family="SegoeUI" font-size="10.00"> </text>
<polyline fill="none" stroke="black" points="40.5,-41.5 213.5,-41.5 "/>
<text text-anchor="start" x="48.5" y="-29.5" font-family="SegoeUI" font-size="10.00">+ ShowSslCert()</text>
<text text-anchor="start" x="48.5" y="-18.5" font-family="SegoeUI" font-size="10.00">+ ShowSslCert()</text>
<text text-anchor="start" x="48.5" y="-7.5" font-family="SegoeUI" font-size="10.00">+ ShowSslCert()</text>
</a>
</g>
</g>
<!-- Node8 -->
<g id="node2" class="node"><title>Node8</title>
<g id="a_node2"><a xlink:href="../../dc/d53/class_juniper_1_1_h_t_t_p_1_1_server_1_1_administration_1_1_net_s_h_1_1_abstract_ssl_cert_command.html" target="_top" xlink:title=" ">
<polygon fill="white" stroke="black" points="55.5,-127.5 55.5,-239.5 198.5,-239.5 198.5,-127.5 55.5,-127.5"/>
<text text-anchor="middle" x="127" y="-227.5" font-family="SegoeUI" font-size="10.00">AbstractSslCertCommand</text>
<polyline fill="none" stroke="black" points="55.5,-220.5 198.5,-220.5 "/>
<text text-anchor="start" x="63.5" y="-208.5" font-family="SegoeUI" font-size="10.00">+ EndPoint</text>
<text text-anchor="start" x="63.5" y="-197.5" font-family="SegoeUI" font-size="10.00">+ Arguments</text>
<text text-anchor="start" x="63.5" y="-186.5" font-family="SegoeUI" font-size="10.00">&#45; endPoint</text>
<text text-anchor="start" x="63.5" y="-175.5" font-family="SegoeUI" font-size="10.00">&#45; command</text>
<polyline fill="none" stroke="black" points="55.5,-168.5 198.5,-168.5 "/>
<text text-anchor="start" x="63.5" y="-156.5" font-family="SegoeUI" font-size="10.00"># AbstractSslCertCommand()</text>
<text text-anchor="start" x="63.5" y="-145.5" font-family="SegoeUI" font-size="10.00"># ValidateAddress()</text>
<text text-anchor="start" x="63.5" y="-134.5" font-family="SegoeUI" font-size="10.00"># ValidateAddress()</text>
</a>
</g>
</g>
<!-- Node8&#45;&gt;Node7 -->
<g id="edge1" class="edge"><title>Node8&#45;&gt;Node7</title>
<path fill="none" stroke="midnightblue" d="M127,-117.076C127,-108.072 127,-99.0069 127,-90.5144"/>
<polygon fill="none" stroke="midnightblue" points="123.5,-117.184 127,-127.184 130.5,-117.184 123.5,-117.184"/>
</g>
<!-- Node9 -->
<g id="node3" class="node"><title>Node9</title>
<g id="a_node3"><a xlink:href="../../db/d6e/class_juniper_1_1_processes_1_1_abstract_shell_command.html" target="_top" xlink:title=" ">
<polygon fill="white" stroke="black" points="56.5,-276.5 56.5,-487.5 197.5,-487.5 197.5,-276.5 56.5,-276.5"/>
<text text-anchor="middle" x="127" y="-475.5" font-family="SegoeUI" font-size="10.00">AbstractShellCommand</text>
<polyline fill="none" stroke="black" points="56.5,-468.5 197.5,-468.5 "/>
<text text-anchor="start" x="64.5" y="-456.5" font-family="SegoeUI" font-size="10.00">+ UseShellExecute</text>
<text text-anchor="start" x="64.5" y="-445.5" font-family="SegoeUI" font-size="10.00">+ LoadUserProfile</text>
<text text-anchor="start" x="64.5" y="-434.5" font-family="SegoeUI" font-size="10.00">+ Encoding</text>
<text text-anchor="start" x="64.5" y="-423.5" font-family="SegoeUI" font-size="10.00">+ TotalStandardOutput</text>
<text text-anchor="start" x="64.5" y="-412.5" font-family="SegoeUI" font-size="10.00">+ TotalStandardError</text>
<text text-anchor="start" x="64.5" y="-401.5" font-family="SegoeUI" font-size="10.00">+ Arguments</text>
<text text-anchor="start" x="64.5" y="-390.5" font-family="SegoeUI" font-size="10.00">&#45; command</text>
<polyline fill="none" stroke="black" points="56.5,-383.5 197.5,-383.5 "/>
<text text-anchor="start" x="64.5" y="-371.5" font-family="SegoeUI" font-size="10.00">+ RunAsync()</text>
<text text-anchor="start" x="64.5" y="-360.5" font-family="SegoeUI" font-size="10.00">+ Run()</text>
<text text-anchor="start" x="64.5" y="-349.5" font-family="SegoeUI" font-size="10.00"># AbstractShellCommand()</text>
<text text-anchor="start" x="64.5" y="-338.5" font-family="SegoeUI" font-size="10.00"># RunAsync()</text>
<text text-anchor="start" x="64.5" y="-327.5" font-family="SegoeUI" font-size="10.00">&#45; Proc_OutputDataReceived()</text>
<text text-anchor="start" x="64.5" y="-316.5" font-family="SegoeUI" font-size="10.00">&#45; Proc_ErrorDataReceived()</text>
<text text-anchor="start" x="64.5" y="-305.5" font-family="SegoeUI" font-size="10.00">&#45; OnInfo()</text>
<text text-anchor="start" x="64.5" y="-294.5" font-family="SegoeUI" font-size="10.00">&#45; OnWarning()</text>
<text text-anchor="start" x="64.5" y="-283.5" font-family="SegoeUI" font-size="10.00">&#45; OnError()</text>
</a>
</g>
</g>
<!-- Node9&#45;&gt;Node8 -->
<g id="edge2" class="edge"><title>Node9&#45;&gt;Node8</title>
<path fill="none" stroke="midnightblue" d="M127,-266.388C127,-257.198 127,-248.204 127,-239.741"/>
<polygon fill="none" stroke="midnightblue" points="123.5,-266.421 127,-276.421 130.5,-266.421 123.5,-266.421"/>
</g>
<!-- Node10 -->
<g id="node4" class="node"><title>Node10</title>
<g id="a_node4"><a xlink:href="../../df/d21/interface_juniper_1_1_logging_1_1_i_logging_source.html" target="_top" xlink:title=" ">
<polygon fill="white" stroke="black" points="85.5,-524.5 85.5,-581.5 168.5,-581.5 168.5,-524.5 85.5,-524.5"/>
<text text-anchor="middle" x="127" y="-569.5" font-family="SegoeUI" font-size="10.00">ILoggingSource</text>
<polyline fill="none" stroke="black" points="85.5,-562.5 168.5,-562.5 "/>
<text text-anchor="middle" x="127" y="-550.5" font-family="SegoeUI" font-size="10.00"> </text>
<polyline fill="none" stroke="black" points="85.5,-543.5 168.5,-543.5 "/>
<text text-anchor="middle" x="127" y="-531.5" font-family="SegoeUI" font-size="10.00"> </text>
</a>
</g>
</g>
<!-- Node10&#45;&gt;Node9 -->
<g id="edge3" class="edge"><title>Node10&#45;&gt;Node9</title>
<path fill="none" stroke="midnightblue" d="M127,-514.233C127,-506.038 127,-496.987 127,-487.584"/>
<polygon fill="none" stroke="midnightblue" points="123.5,-514.471 127,-524.471 130.5,-514.471 123.5,-514.471"/>
</g>
<!-- Node11 -->
<g id="node5" class="node"><title>Node11</title>
<g id="a_node5"><a xlink:href="../../de/dad/interface_juniper_1_1_logging_1_1_i_info_source.html" target="_top" xlink:title=" ">
<polygon fill="white" stroke="black" points="0,-618.5 0,-675.5 66,-675.5 66,-618.5 0,-618.5"/>
<text text-anchor="middle" x="33" y="-663.5" font-family="SegoeUI" font-size="10.00">IInfoSource</text>
<polyline fill="none" stroke="black" points="0,-656.5 66,-656.5 "/>
<text text-anchor="middle" x="33" y="-644.5" font-family="SegoeUI" font-size="10.00"> </text>
<polyline fill="none" stroke="black" points="0,-637.5 66,-637.5 "/>
<text text-anchor="middle" x="33" y="-625.5" font-family="SegoeUI" font-size="10.00"> </text>
</a>
</g>
</g>
<!-- Node11&#45;&gt;Node10 -->
<g id="edge4" class="edge"><title>Node11&#45;&gt;Node10</title>
<path fill="none" stroke="midnightblue" d="M68.3657,-611.387C78.4259,-601.541 89.2449,-590.952 98.8168,-581.584"/>
<polygon fill="none" stroke="midnightblue" points="65.9017,-608.901 61.2031,-618.397 70.7979,-613.904 65.9017,-608.901"/>
</g>
<!-- Node12 -->
<g id="node6" class="node"><title>Node12</title>
<g id="a_node6"><a xlink:href="../../d6/d23/interface_juniper_1_1_logging_1_1_i_warning_source.html" target="_top" xlink:title=" ">
<polygon fill="white" stroke="black" points="84,-618.5 84,-675.5 170,-675.5 170,-618.5 84,-618.5"/>
<text text-anchor="middle" x="127" y="-663.5" font-family="SegoeUI" font-size="10.00">IWarningSource</text>
<polyline fill="none" stroke="black" points="84,-656.5 170,-656.5 "/>
<text text-anchor="middle" x="127" y="-644.5" font-family="SegoeUI" font-size="10.00"> </text>
<polyline fill="none" stroke="black" points="84,-637.5 170,-637.5 "/>
<text text-anchor="middle" x="127" y="-625.5" font-family="SegoeUI" font-size="10.00"> </text>
</a>
</g>
</g>
<!-- Node12&#45;&gt;Node10 -->
<g id="edge5" class="edge"><title>Node12&#45;&gt;Node10</title>
<path fill="none" stroke="midnightblue" d="M127,-608.209C127,-599.293 127,-589.951 127,-581.584"/>
<polygon fill="none" stroke="midnightblue" points="123.5,-608.397 127,-618.397 130.5,-608.397 123.5,-608.397"/>
</g>
<!-- Node13 -->
<g id="node7" class="node"><title>Node13</title>
<g id="a_node7"><a xlink:href="../../d4/d12/interface_juniper_1_1_logging_1_1_i_error_source.html" target="_top" xlink:title=" ">
<polygon fill="white" stroke="black" points="188.5,-618.5 188.5,-675.5 259.5,-675.5 259.5,-618.5 188.5,-618.5"/>
<text text-anchor="middle" x="224" y="-663.5" font-family="SegoeUI" font-size="10.00">IErrorSource</text>
<polyline fill="none" stroke="black" points="188.5,-656.5 259.5,-656.5 "/>
<text text-anchor="middle" x="224" y="-644.5" font-family="SegoeUI" font-size="10.00"> </text>
<polyline fill="none" stroke="black" points="188.5,-637.5 259.5,-637.5 "/>
<text text-anchor="middle" x="224" y="-625.5" font-family="SegoeUI" font-size="10.00"> </text>
</a>
</g>
</g>
<!-- Node13&#45;&gt;Node10 -->
<g id="edge6" class="edge"><title>Node13&#45;&gt;Node10</title>
<path fill="none" stroke="midnightblue" d="M187.506,-611.387C177.124,-601.541 165.96,-590.952 156.083,-581.584"/>
<polygon fill="none" stroke="midnightblue" points="185.233,-614.055 194.897,-618.397 190.05,-608.976 185.233,-614.055"/>
</g>
</g>
</svg>
        <g id="navigator" transform="translate(0 0)" fill="#404254">
                <rect fill="#f2f5e9" fill-opacity="0.5" stroke="#606060" stroke-width=".5" x="0" y="0" width="60" height="60"/>
                <use id="zoomplus" xlink:href="#zoomPlus" x="17" y="9" onmousedown="handleZoom(evt,'in')"/>
                <use id="zoomminus" xlink:href="#zoomMin" x="42" y="9" onmousedown="handleZoom(evt,'out')"/>
                <use id="reset" xlink:href="#resetDef" x="30" y="36" onmousedown="handleReset()"/>
                <g id="arrowUp" xlink:href="#dirArrow" transform="translate(30 24)" onmousedown="handlePan(0,-1)">
                  <use xlink:href="#rim" fill="#404040">
                        <set attributeName="fill" to="#808080" begin="arrowUp.mouseover" end="arrowUp.mouseout"/>
                  </use>
                  <path fill="none" stroke="white" stroke-width="1.5" d="M0,-3.0v7 M-2.5,-0.5L0,-3.0L2.5,-0.5"/>
                </g>
                <g id="arrowRight" xlink:href="#dirArrow" transform="rotate(90) translate(36 -43)" onmousedown="handlePan(1,0)">
                  <use xlink:href="#rim" fill="#404040">
                        <set attributeName="fill" to="#808080" begin="arrowRight.mouseover" end="arrowRight.mouseout"/>
                  </use>
                  <path fill="none" stroke="white" stroke-width="1.5" d="M0,-3.0v7 M-2.5,-0.5L0,-3.0L2.5,-0.5"/>
                </g>
                <g id="arrowDown" xlink:href="#dirArrow" transform="rotate(180) translate(-30 -48)" onmousedown="handlePan(0,1)">
                  <use xlink:href="#rim" fill="#404040">
                        <set attributeName="fill" to="#808080" begin="arrowDown.mouseover" end="arrowDown.mouseout"/>
                  </use>
                  <path fill="none" stroke="white" stroke-width="1.5" d="M0,-3.0v7 M-2.5,-0.5L0,-3.0L2.5,-0.5"/>
                </g>
                <g id="arrowLeft" xlink:href="#dirArrow" transform="rotate(270) translate(-36 17)" onmousedown="handlePan(-1,0)">
                  <use xlink:href="#rim" fill="#404040">
                        <set attributeName="fill" to="#808080" begin="arrowLeft.mouseover" end="arrowLeft.mouseout"/>
                  </use>
                  <path fill="none" stroke="white" stroke-width="1.5" d="M0,-3.0v7 M-2.5,-0.5L0,-3.0L2.5,-0.5"/>
                </g>
        </g>
        <svg viewBox="0 0 15 15" width="100%" height="30px" preserveAspectRatio="xMaxYMin meet">
         <g id="arrow_out" transform="scale(0.3 0.3)">
          <a xlink:href="class_juniper_1_1_h_t_t_p_1_1_server_1_1_administration_1_1_net_s_h_1_1_show_ssl_cert__coll__graph_org.svg" target="_base">
           <rect id="button" ry="5" rx="5" y="6" x="6" height="38" width="38"
                fill="#f2f5e9" fill-opacity="0.5" stroke="#606060" stroke-width="1.0"/>
           <path id="arrow"
             d="M 11.500037,31.436501 C 11.940474,20.09759 22.043105,11.32322 32.158766,21.979434 L 37.068811,17.246167 C 37.068811,17.246167 37.088388,32 37.088388,32 L 22.160133,31.978069 C 22.160133,31.978069 26.997745,27.140456 26.997745,27.140456 C 18.528582,18.264221 13.291696,25.230495 11.500037,31.436501 z"
             style="fill:#404040;"/>
          </a>
         </g>
        </svg>
</svg>
