<?xml version="1.0" encoding="UTF-8" standalone="no"?>
<!DOCTYPE svg PUBLIC "-//W3C//DTD SVG 1.1//EN"
 "http://www.w3.org/Graphics/SVG/1.1/DTD/svg11.dtd">
<!-- Generated by graphviz version 2.38.0 (20140413.2041)
 -->
<!-- Title: Juniper.Unity.Widgets.IValuedControl&lt; T &gt; Pages: 1 -->
<!--zoomable 867 -->
<svg id="main" version="1.1" xmlns="http://www.w3.org/2000/svg" xmlns:xlink="http://www.w3.org/1999/xlink" xml:space="preserve" onload="init(evt)">
<style type="text/css"><![CDATA[
.edge:hover path { stroke: red; }
.edge:hover polygon { stroke: red; fill: red; }
]]></style>
<script type="text/javascript"><![CDATA[
var edges = document.getElementsByTagName('g');
if (edges && edges.length) {
  for (var i=0;i<edges.length;i++) {
    if (edges[i].id.substr(0,4)=='edge') {
      edges[i].setAttribute('class','edge');
    }
  }
}
]]></script>
        <defs>
                <circle id="rim" cx="0" cy="0" r="7"/>
                <circle id="rim2" cx="0" cy="0" r="3.5"/>
                <g id="zoomPlus">
                        <use xlink:href="#rim" fill="#404040">
                                <set attributeName="fill" to="#808080" begin="zoomplus.mouseover" end="zoomplus.mouseout"/>
                        </use>
                        <path d="M-4,0h8M0,-4v8" fill="none" stroke="white" stroke-width="1.5" pointer-events="none"/>
                </g>
                <g id="zoomMin">
                        <use xlink:href="#rim" fill="#404040">
                                <set attributeName="fill" to="#808080" begin="zoomminus.mouseover" end="zoomminus.mouseout"/>
                        </use>
                        <path d="M-4,0h8" fill="none" stroke="white" stroke-width="1.5" pointer-events="none"/>
                </g>
                <g id="dirArrow">
                        <path fill="none" stroke="white" stroke-width="1.5" d="M0,-3.0v7 M-2.5,-0.5L0,-3.0L2.5,-0.5"/>
                </g>
               <g id="resetDef">
                       <use xlink:href="#rim2" fill="#404040">
                               <set attributeName="fill" to="#808080" begin="reset.mouseover" end="reset.mouseout"/>
                       </use>
               </g>
        </defs>

<script type="text/javascript">
var viewWidth = 416;
var viewHeight = 867;
var sectionId = 'dynsection-0';
</script>
<script xlink:href="../../svgpan.js"/>
<svg id="graph" class="graph">
<g id="viewport">
<title>Juniper.Unity.Widgets.IValuedControl&lt; T &gt;</title>
<polygon fill="white" stroke="none" points="-4,4 -4,-863 411.5,-863 411.5,4 -4,4"/>
<!-- Node0 -->
<g id="node1" class="node"><title>Node0</title>
<g id="a_node1"><a xlink:title=" ">
<polygon fill="#bfbfbf" stroke="black" points="217.5,-790.5 217.5,-858.5 361.5,-858.5 361.5,-790.5 217.5,-790.5"/>
<text text-anchor="start" x="225.5" y="-846.5" font-family="SegoeUI" font-size="10.00">Juniper.Unity.Widgets.IValued</text>
<text text-anchor="middle" x="289.5" y="-835.5" font-family="SegoeUI" font-size="10.00">Control&lt; T &gt;</text>
<polyline fill="none" stroke="black" points="217.5,-828.5 361.5,-828.5 "/>
<text text-anchor="start" x="225.5" y="-816.5" font-family="SegoeUI" font-size="10.00">+ value</text>
<polyline fill="none" stroke="black" points="217.5,-809.5 361.5,-809.5 "/>
<text text-anchor="middle" x="289.5" y="-797.5" font-family="SegoeUI" font-size="10.00"> </text>
</a>
</g>
</g>
<!-- Node1 -->
<g id="node2" class="node"><title>Node1</title>
<g id="a_node2"><a xlink:href="../../dd/d6e/interface_juniper_1_1_unity_1_1_widgets_1_1_i_valued_control.html" target="_top" xlink:title=" ">
<polygon fill="white" stroke="black" points="217.5,-674.5 217.5,-742.5 361.5,-742.5 361.5,-674.5 217.5,-674.5"/>
<text text-anchor="start" x="225.5" y="-730.5" font-family="SegoeUI" font-size="10.00">Juniper.Unity.Widgets.IValued</text>
<text text-anchor="middle" x="289.5" y="-719.5" font-family="SegoeUI" font-size="10.00">Control&lt; float &gt;</text>
<polyline fill="none" stroke="black" points="217.5,-712.5 361.5,-712.5 "/>
<text text-anchor="start" x="225.5" y="-700.5" font-family="SegoeUI" font-size="10.00">+ value</text>
<polyline fill="none" stroke="black" points="217.5,-693.5 361.5,-693.5 "/>
<text text-anchor="middle" x="289.5" y="-681.5" font-family="SegoeUI" font-size="10.00"> </text>
</a>
</g>
</g>
<!-- Node0&#45;&gt;Node1 -->
<g id="edge1" class="edge"><title>Node0&#45;&gt;Node1</title>
<path fill="none" stroke="orange" d="M289.5,-780.06C289.5,-767.644 289.5,-754.316 289.5,-742.624"/>
<polygon fill="orange" stroke="orange" points="286,-780.22 289.5,-790.22 293,-780.22 286,-780.22"/>
<text text-anchor="middle" x="310.5" y="-764" font-family="SegoeUI" font-size="10.00"> &lt; float &gt;</text>
</g>
<!-- Node2 -->
<g id="node3" class="node"><title>Node2</title>
<g id="a_node3"><a xlink:href="../../d2/d57/class_juniper_1_1_unity_1_1_widgets_1_1_abstract_valued.html" target="_top" xlink:title="The Valued component adds a float field and range of valid values for that field to a Touchable objec...">
<polygon fill="white" stroke="black" points="90,-227.5 90,-636.5 237,-636.5 237,-227.5 90,-227.5"/>
<text text-anchor="start" x="98" y="-624.5" font-family="SegoeUI" font-size="10.00">Juniper.Unity.Widgets.Abstract</text>
<text text-anchor="middle" x="163.5" y="-613.5" font-family="SegoeUI" font-size="10.00">Valued</text>
<polyline fill="none" stroke="black" points="90,-606.5 237,-606.5 "/>
<text text-anchor="start" x="98" y="-594.5" font-family="SegoeUI" font-size="10.00">+ Display</text>
<text text-anchor="start" x="98" y="-583.5" font-family="SegoeUI" font-size="10.00">+ SigFigs</text>
<text text-anchor="start" x="98" y="-572.5" font-family="SegoeUI" font-size="10.00">+ minValue</text>
<text text-anchor="start" x="98" y="-561.5" font-family="SegoeUI" font-size="10.00">+ maxValue</text>
<text text-anchor="start" x="98" y="-550.5" font-family="SegoeUI" font-size="10.00">+ _value</text>
<text text-anchor="start" x="98" y="-539.5" font-family="SegoeUI" font-size="10.00">+ Dragged</text>
<text text-anchor="start" x="98" y="-528.5" font-family="SegoeUI" font-size="10.00">+ value</text>
<text text-anchor="start" x="98" y="-517.5" font-family="SegoeUI" font-size="10.00">+ Delta</text>
<text text-anchor="start" x="98" y="-506.5" font-family="SegoeUI" font-size="10.00">+ DraggedChanged</text>
<text text-anchor="start" x="98" y="-495.5" font-family="SegoeUI" font-size="10.00">+ DraggedDown</text>
<text text-anchor="start" x="98" y="-484.5" font-family="SegoeUI" font-size="10.00">+ DraggedUp</text>
<text text-anchor="start" x="98" y="-473.5" font-family="SegoeUI" font-size="10.00">+ ValueChanged</text>
<text text-anchor="start" x="98" y="-462.5" font-family="SegoeUI" font-size="10.00">+ ConstraintRange</text>
<text text-anchor="start" x="98" y="-451.5" font-family="SegoeUI" font-size="10.00"># dragDistance</text>
<text text-anchor="start" x="98" y="-440.5" font-family="SegoeUI" font-size="10.00"># interactionPoint</text>
<text text-anchor="start" x="98" y="-429.5" font-family="SegoeUI" font-size="10.00"># interactionOffset</text>
<text text-anchor="start" x="98" y="-418.5" font-family="SegoeUI" font-size="10.00"># velocity</text>
<text text-anchor="start" x="98" y="-407.5" font-family="SegoeUI" font-size="10.00"># angVel</text>
<text text-anchor="start" x="98" y="-396.5" font-family="SegoeUI" font-size="10.00"># camT</text>
<text text-anchor="start" x="98" y="-385.5" font-family="SegoeUI" font-size="10.00"># grabOffset</text>
<text text-anchor="start" x="98" y="-374.5" font-family="SegoeUI" font-size="10.00"># internalValue</text>
<text text-anchor="start" x="98" y="-363.5" font-family="SegoeUI" font-size="10.00">&#45; wasDragged</text>
<text text-anchor="start" x="98" y="-352.5" font-family="SegoeUI" font-size="10.00">&#45; lastValue</text>
<text text-anchor="start" x="98" y="-341.5" font-family="SegoeUI" font-size="10.00">&#45; lastTickValue</text>
<polyline fill="none" stroke="black" points="90,-334.5 237,-334.5 "/>
<text text-anchor="start" x="98" y="-322.5" font-family="SegoeUI" font-size="10.00">+ SetValue()</text>
<text text-anchor="start" x="98" y="-311.5" font-family="SegoeUI" font-size="10.00">+ OnInitializePotentialDrag()</text>
<text text-anchor="start" x="98" y="-300.5" font-family="SegoeUI" font-size="10.00">+ OnBeginDrag()</text>
<text text-anchor="start" x="98" y="-289.5" font-family="SegoeUI" font-size="10.00">+ OnDrag()</text>
<text text-anchor="start" x="98" y="-278.5" font-family="SegoeUI" font-size="10.00">+ OnDrop()</text>
<text text-anchor="start" x="98" y="-267.5" font-family="SegoeUI" font-size="10.00">+ OnEndDrag()</text>
<text text-anchor="start" x="98" y="-256.5" font-family="SegoeUI" font-size="10.00"># LateUpdate()</text>
<text text-anchor="start" x="98" y="-245.5" font-family="SegoeUI" font-size="10.00"># UpdateInternalValue()</text>
<text text-anchor="start" x="98" y="-234.5" font-family="SegoeUI" font-size="10.00"># ResetInternalValue()</text>
</a>
</g>
</g>
<!-- Node1&#45;&gt;Node2 -->
<g id="edge2" class="edge"><title>Node1&#45;&gt;Node2</title>
<path fill="none" stroke="midnightblue" d="M262.505,-665.73C256.925,-656.431 251.294,-646.507 246.5,-637 243.315,-630.684 240.157,-624.215 237.039,-617.649"/>
<polygon fill="none" stroke="midnightblue" points="259.611,-667.708 267.809,-674.42 265.586,-664.061 259.611,-667.708"/>
</g>
<!-- Node5 -->
<g id="node6" class="node"><title>Node5</title>
<g id="a_node6"><a xlink:href="../../d3/d58/class_juniper_1_1_unity_1_1_widgets_1_1_unity_slider_adapter.html" target="_top" xlink:title=" ">
<polygon fill="white" stroke="black" points="255.5,-387 255.5,-477 407.5,-477 407.5,-387 255.5,-387"/>
<text text-anchor="start" x="263.5" y="-465" font-family="SegoeUI" font-size="10.00">Juniper.Unity.Widgets.Unity</text>
<text text-anchor="middle" x="331.5" y="-454" font-family="SegoeUI" font-size="10.00">SliderAdapter</text>
<polyline fill="none" stroke="black" points="255.5,-447 407.5,-447 "/>
<text text-anchor="start" x="263.5" y="-435" font-family="SegoeUI" font-size="10.00">+ value</text>
<text text-anchor="start" x="263.5" y="-424" font-family="SegoeUI" font-size="10.00">&#45; element</text>
<polyline fill="none" stroke="black" points="255.5,-417 407.5,-417 "/>
<text text-anchor="start" x="263.5" y="-405" font-family="SegoeUI" font-size="10.00">+ operator UnitySliderAdapter()</text>
<text text-anchor="start" x="263.5" y="-394" font-family="SegoeUI" font-size="10.00">&#45; UnitySliderAdapter()</text>
</a>
</g>
</g>
<!-- Node1&#45;&gt;Node5 -->
<g id="edge5" class="edge"><title>Node1&#45;&gt;Node5</title>
<path fill="none" stroke="midnightblue" d="M296.106,-664.328C303.923,-613.234 316.871,-528.611 324.751,-477.11"/>
<polygon fill="none" stroke="midnightblue" points="292.619,-663.975 294.566,-674.389 299.538,-665.033 292.619,-663.975"/>
</g>
<!-- Node3 -->
<g id="node4" class="node"><title>Node3</title>
<g id="a_node4"><a xlink:href="../../dc/da5/class_juniper_1_1_unity_1_1_widgets_1_1_draggable.html" target="_top" xlink:title="An object that can be picked up and put down in a new location.">
<polygon fill="white" stroke="black" points="0,-0.5 0,-189.5 155,-189.5 155,-0.5 0,-0.5"/>
<text text-anchor="middle" x="77.5" y="-177.5" font-family="SegoeUI" font-size="10.00">Juniper.Unity.Widgets.Draggable</text>
<polyline fill="none" stroke="black" points="0,-170.5 155,-170.5 "/>
<text text-anchor="start" x="8" y="-158.5" font-family="SegoeUI" font-size="10.00">+ constrainMotion</text>
<text text-anchor="start" x="8" y="-147.5" font-family="SegoeUI" font-size="10.00">+ rotateWhileDragging</text>
<text text-anchor="start" x="8" y="-136.5" font-family="SegoeUI" font-size="10.00">+ TrackStart</text>
<text text-anchor="start" x="8" y="-125.5" font-family="SegoeUI" font-size="10.00">+ TrackEnd</text>
<text text-anchor="start" x="8" y="-114.5" font-family="SegoeUI" font-size="10.00">&#45; MotionConstraintStartName</text>
<text text-anchor="start" x="8" y="-103.5" font-family="SegoeUI" font-size="10.00">&#45; MotionConstraintEndName</text>
<text text-anchor="start" x="8" y="-92.5" font-family="SegoeUI" font-size="10.00">&#45; motionConstraintStart</text>
<text text-anchor="start" x="8" y="-81.5" font-family="SegoeUI" font-size="10.00">&#45; motionConstraintEnd</text>
<text text-anchor="start" x="8" y="-70.5" font-family="SegoeUI" font-size="10.00">&#45; lastCamPosition</text>
<polyline fill="none" stroke="black" points="0,-63.5 155,-63.5 "/>
<text text-anchor="start" x="8" y="-51.5" font-family="SegoeUI" font-size="10.00">+ OnValidate()</text>
<text text-anchor="start" x="8" y="-40.5" font-family="SegoeUI" font-size="10.00">+ OnDrag()</text>
<text text-anchor="start" x="8" y="-29.5" font-family="SegoeUI" font-size="10.00"># LateUpdate()</text>
<text text-anchor="start" x="8" y="-18.5" font-family="SegoeUI" font-size="10.00">&#45; ResolveConstraint()</text>
<text text-anchor="start" x="8" y="-7.5" font-family="SegoeUI" font-size="10.00">&#45; DestroyConstraint()</text>
</a>
</g>
</g>
<!-- Node2&#45;&gt;Node3 -->
<g id="edge3" class="edge"><title>Node2&#45;&gt;Node3</title>
<path fill="none" stroke="midnightblue" d="M108.753,-217.74C106.28,-208.108 103.863,-198.695 101.539,-189.642"/>
<polygon fill="none" stroke="midnightblue" points="105.366,-218.624 111.243,-227.439 112.146,-216.883 105.366,-218.624"/>
</g>
<!-- Node4 -->
<g id="node5" class="node"><title>Node4</title>
<g id="a_node5"><a xlink:href="../../d3/d60/class_juniper_1_1_unity_1_1_widgets_1_1_rotatable.html" target="_top" xlink:title="A control that is rotatable in a single axis at a time.">
<polygon fill="white" stroke="black" points="173.5,-0.5 173.5,-189.5 325.5,-189.5 325.5,-0.5 173.5,-0.5"/>
<text text-anchor="middle" x="249.5" y="-177.5" font-family="SegoeUI" font-size="10.00">Juniper.Unity.Widgets.Rotatable</text>
<polyline fill="none" stroke="black" points="173.5,-170.5 325.5,-170.5 "/>
<text text-anchor="start" x="181.5" y="-158.5" font-family="SegoeUI" font-size="10.00">+ rotationAxis</text>
<text text-anchor="start" x="181.5" y="-147.5" font-family="SegoeUI" font-size="10.00">+ InterpolationScale</text>
<text text-anchor="start" x="181.5" y="-136.5" font-family="SegoeUI" font-size="10.00">+ ConstraintRange</text>
<text text-anchor="start" x="181.5" y="-125.5" font-family="SegoeUI" font-size="10.00">&#45; lastInteractionPoint</text>
<text text-anchor="start" x="181.5" y="-114.5" font-family="SegoeUI" font-size="10.00">&#45; amount</text>
<text text-anchor="start" x="181.5" y="-103.5" font-family="SegoeUI" font-size="10.00">&#45; angleCorrector</text>
<text text-anchor="start" x="181.5" y="-92.5" font-family="SegoeUI" font-size="10.00">&#45; startValue</text>
<text text-anchor="start" x="181.5" y="-81.5" font-family="SegoeUI" font-size="10.00">&#45; endValue</text>
<polyline fill="none" stroke="black" points="173.5,-74.5 325.5,-74.5 "/>
<text text-anchor="start" x="181.5" y="-62.5" font-family="SegoeUI" font-size="10.00">+ OnEnable()</text>
<text text-anchor="start" x="181.5" y="-51.5" font-family="SegoeUI" font-size="10.00">+ OnDisable()</text>
<text text-anchor="start" x="181.5" y="-40.5" font-family="SegoeUI" font-size="10.00">+ OnBeginDrag()</text>
<text text-anchor="start" x="181.5" y="-29.5" font-family="SegoeUI" font-size="10.00">+ OnDrag()</text>
<text text-anchor="start" x="181.5" y="-18.5" font-family="SegoeUI" font-size="10.00">+ Awake()</text>
<text text-anchor="start" x="181.5" y="-7.5" font-family="SegoeUI" font-size="10.00"># Update()</text>
</a>
</g>
</g>
<!-- Node2&#45;&gt;Node4 -->
<g id="edge4" class="edge"><title>Node2&#45;&gt;Node4</title>
<path fill="none" stroke="midnightblue" d="M218.247,-217.74C220.72,-208.108 223.137,-198.695 225.461,-189.642"/>
<polygon fill="none" stroke="midnightblue" points="214.854,-216.883 215.757,-227.439 221.634,-218.624 214.854,-216.883"/>
</g>
</g>
</svg>
        <g id="navigator" transform="translate(0 0)" fill="#404254">
                <rect fill="#f2f5e9" fill-opacity="0.5" stroke="#606060" stroke-width=".5" x="0" y="0" width="60" height="60"/>
                <use id="zoomplus" xlink:href="#zoomPlus" x="17" y="9" onmousedown="handleZoom(evt,'in')"/>
                <use id="zoomminus" xlink:href="#zoomMin" x="42" y="9" onmousedown="handleZoom(evt,'out')"/>
                <use id="reset" xlink:href="#resetDef" x="30" y="36" onmousedown="handleReset()"/>
                <g id="arrowUp" xlink:href="#dirArrow" transform="translate(30 24)" onmousedown="handlePan(0,-1)">
                  <use xlink:href="#rim" fill="#404040">
                        <set attributeName="fill" to="#808080" begin="arrowUp.mouseover" end="arrowUp.mouseout"/>
                  </use>
                  <path fill="none" stroke="white" stroke-width="1.5" d="M0,-3.0v7 M-2.5,-0.5L0,-3.0L2.5,-0.5"/>
                </g>
                <g id="arrowRight" xlink:href="#dirArrow" transform="rotate(90) translate(36 -43)" onmousedown="handlePan(1,0)">
                  <use xlink:href="#rim" fill="#404040">
                        <set attributeName="fill" to="#808080" begin="arrowRight.mouseover" end="arrowRight.mouseout"/>
                  </use>
                  <path fill="none" stroke="white" stroke-width="1.5" d="M0,-3.0v7 M-2.5,-0.5L0,-3.0L2.5,-0.5"/>
                </g>
                <g id="arrowDown" xlink:href="#dirArrow" transform="rotate(180) translate(-30 -48)" onmousedown="handlePan(0,1)">
                  <use xlink:href="#rim" fill="#404040">
                        <set attributeName="fill" to="#808080" begin="arrowDown.mouseover" end="arrowDown.mouseout"/>
                  </use>
                  <path fill="none" stroke="white" stroke-width="1.5" d="M0,-3.0v7 M-2.5,-0.5L0,-3.0L2.5,-0.5"/>
                </g>
                <g id="arrowLeft" xlink:href="#dirArrow" transform="rotate(270) translate(-36 17)" onmousedown="handlePan(-1,0)">
                  <use xlink:href="#rim" fill="#404040">
                        <set attributeName="fill" to="#808080" begin="arrowLeft.mouseover" end="arrowLeft.mouseout"/>
                  </use>
                  <path fill="none" stroke="white" stroke-width="1.5" d="M0,-3.0v7 M-2.5,-0.5L0,-3.0L2.5,-0.5"/>
                </g>
        </g>
        <svg viewBox="0 0 15 15" width="100%" height="30px" preserveAspectRatio="xMaxYMin meet">
         <g id="arrow_out" transform="scale(0.3 0.3)">
          <a xlink:href="interface_juniper_1_1_unity_1_1_widgets_1_1_i_valued_control__inherit__graph_org.svg" target="_base">
           <rect id="button" ry="5" rx="5" y="6" x="6" height="38" width="38"
                fill="#f2f5e9" fill-opacity="0.5" stroke="#606060" stroke-width="1.0"/>
           <path id="arrow"
             d="M 11.500037,31.436501 C 11.940474,20.09759 22.043105,11.32322 32.158766,21.979434 L 37.068811,17.246167 C 37.068811,17.246167 37.088388,32 37.088388,32 L 22.160133,31.978069 C 22.160133,31.978069 26.997745,27.140456 26.997745,27.140456 C 18.528582,18.264221 13.291696,25.230495 11.500037,31.436501 z"
             style="fill:#404040;"/>
          </a>
         </g>
        </svg>
</svg>
