<?xml version="1.0" encoding="UTF-8" standalone="no"?>
<!DOCTYPE svg PUBLIC "-//W3C//DTD SVG 1.1//EN"
 "http://www.w3.org/Graphics/SVG/1.1/DTD/svg11.dtd">
<!-- Generated by graphviz version 2.38.0 (20140413.2041)
 -->
<!-- Title: Juniper.Unity.Widgets.IValuedControl&lt; T &gt; Pages: 1 -->
<svg width="416pt" height="889pt"
 viewBox="0.00 0.00 415.50 889.00" xmlns="http://www.w3.org/2000/svg" xmlns:xlink="http://www.w3.org/1999/xlink">
<g id="graph0" class="graph" transform="scale(1 1) rotate(0) translate(4 885)">
<title>Juniper.Unity.Widgets.IValuedControl&lt; T &gt;</title>
<polygon fill="white" stroke="none" points="-4,4 -4,-885 411.5,-885 411.5,4 -4,4"/>
<!-- Node0 -->
<g id="node1" class="node"><title>Node0</title>
<g id="a_node1"><a xlink:title=" ">
<polygon fill="#bfbfbf" stroke="black" points="217.5,-812.5 217.5,-880.5 361.5,-880.5 361.5,-812.5 217.5,-812.5"/>
<text text-anchor="start" x="225.5" y="-868.5" font-family="SegoeUI" font-size="10.00">Juniper.Unity.Widgets.IValued</text>
<text text-anchor="middle" x="289.5" y="-857.5" font-family="SegoeUI" font-size="10.00">Control&lt; T &gt;</text>
<polyline fill="none" stroke="black" points="217.5,-850.5 361.5,-850.5 "/>
<text text-anchor="start" x="225.5" y="-838.5" font-family="SegoeUI" font-size="10.00">+ value</text>
<polyline fill="none" stroke="black" points="217.5,-831.5 361.5,-831.5 "/>
<text text-anchor="middle" x="289.5" y="-819.5" font-family="SegoeUI" font-size="10.00"> </text>
</a>
</g>
</g>
<!-- Node1 -->
<g id="node2" class="node"><title>Node1</title>
<g id="a_node2"><a xlink:href="../../dd/d6e/interface_juniper_1_1_unity_1_1_widgets_1_1_i_valued_control.html" target="_top" xlink:title=" ">
<polygon fill="white" stroke="black" points="217.5,-696.5 217.5,-764.5 361.5,-764.5 361.5,-696.5 217.5,-696.5"/>
<text text-anchor="start" x="225.5" y="-752.5" font-family="SegoeUI" font-size="10.00">Juniper.Unity.Widgets.IValued</text>
<text text-anchor="middle" x="289.5" y="-741.5" font-family="SegoeUI" font-size="10.00">Control&lt; float &gt;</text>
<polyline fill="none" stroke="black" points="217.5,-734.5 361.5,-734.5 "/>
<text text-anchor="start" x="225.5" y="-722.5" font-family="SegoeUI" font-size="10.00">+ value</text>
<polyline fill="none" stroke="black" points="217.5,-715.5 361.5,-715.5 "/>
<text text-anchor="middle" x="289.5" y="-703.5" font-family="SegoeUI" font-size="10.00"> </text>
</a>
</g>
</g>
<!-- Node0&#45;&gt;Node1 -->
<g id="edge1" class="edge"><title>Node0&#45;&gt;Node1</title>
<path fill="none" stroke="orange" d="M289.5,-802.06C289.5,-789.644 289.5,-776.316 289.5,-764.624"/>
<polygon fill="orange" stroke="orange" points="286,-802.22 289.5,-812.22 293,-802.22 286,-802.22"/>
<text text-anchor="middle" x="310.5" y="-786" font-family="SegoeUI" font-size="10.00"> &lt; float &gt;</text>
</g>
<!-- Node2 -->
<g id="node3" class="node"><title>Node2</title>
<g id="a_node3"><a xlink:href="../../d2/d57/class_juniper_1_1_unity_1_1_widgets_1_1_abstract_valued.html" target="_top" xlink:title="The Valued component adds a float field and range of valid values for that field to a Touchable objec...">
<polygon fill="white" stroke="black" points="90,-238.5 90,-658.5 237,-658.5 237,-238.5 90,-238.5"/>
<text text-anchor="start" x="98" y="-646.5" font-family="SegoeUI" font-size="10.00">Juniper.Unity.Widgets.Abstract</text>
<text text-anchor="middle" x="163.5" y="-635.5" font-family="SegoeUI" font-size="10.00">Valued</text>
<polyline fill="none" stroke="black" points="90,-628.5 237,-628.5 "/>
<text text-anchor="start" x="98" y="-616.5" font-family="SegoeUI" font-size="10.00">+ Display</text>
<text text-anchor="start" x="98" y="-605.5" font-family="SegoeUI" font-size="10.00">+ SigFigs</text>
<text text-anchor="start" x="98" y="-594.5" font-family="SegoeUI" font-size="10.00">+ minValue</text>
<text text-anchor="start" x="98" y="-583.5" font-family="SegoeUI" font-size="10.00">+ maxValue</text>
<text text-anchor="start" x="98" y="-572.5" font-family="SegoeUI" font-size="10.00">+ _value</text>
<text text-anchor="start" x="98" y="-561.5" font-family="SegoeUI" font-size="10.00">+ Dragged</text>
<text text-anchor="start" x="98" y="-550.5" font-family="SegoeUI" font-size="10.00">+ value</text>
<text text-anchor="start" x="98" y="-539.5" font-family="SegoeUI" font-size="10.00">+ Delta</text>
<text text-anchor="start" x="98" y="-528.5" font-family="SegoeUI" font-size="10.00">+ DraggedChanged</text>
<text text-anchor="start" x="98" y="-517.5" font-family="SegoeUI" font-size="10.00">+ DraggedDown</text>
<text text-anchor="start" x="98" y="-506.5" font-family="SegoeUI" font-size="10.00">+ DraggedUp</text>
<text text-anchor="start" x="98" y="-495.5" font-family="SegoeUI" font-size="10.00">+ ValueChanged</text>
<text text-anchor="start" x="98" y="-484.5" font-family="SegoeUI" font-size="10.00">+ ConstraintRange</text>
<text text-anchor="start" x="98" y="-473.5" font-family="SegoeUI" font-size="10.00"># dragDistance</text>
<text text-anchor="start" x="98" y="-462.5" font-family="SegoeUI" font-size="10.00"># interactionPoint</text>
<text text-anchor="start" x="98" y="-451.5" font-family="SegoeUI" font-size="10.00"># interactionOffset</text>
<text text-anchor="start" x="98" y="-440.5" font-family="SegoeUI" font-size="10.00"># velocity</text>
<text text-anchor="start" x="98" y="-429.5" font-family="SegoeUI" font-size="10.00"># angVel</text>
<text text-anchor="start" x="98" y="-418.5" font-family="SegoeUI" font-size="10.00"># camT</text>
<text text-anchor="start" x="98" y="-407.5" font-family="SegoeUI" font-size="10.00"># grabOffset</text>
<text text-anchor="start" x="98" y="-396.5" font-family="SegoeUI" font-size="10.00"># internalValue</text>
<text text-anchor="start" x="98" y="-385.5" font-family="SegoeUI" font-size="10.00">&#45; wasDragged</text>
<text text-anchor="start" x="98" y="-374.5" font-family="SegoeUI" font-size="10.00">&#45; lastValue</text>
<text text-anchor="start" x="98" y="-363.5" font-family="SegoeUI" font-size="10.00">&#45; lastTickValue</text>
<polyline fill="none" stroke="black" points="90,-356.5 237,-356.5 "/>
<text text-anchor="start" x="98" y="-344.5" font-family="SegoeUI" font-size="10.00">+ SetValue()</text>
<text text-anchor="start" x="98" y="-333.5" font-family="SegoeUI" font-size="10.00">+ OnInitializePotentialDrag()</text>
<text text-anchor="start" x="98" y="-322.5" font-family="SegoeUI" font-size="10.00">+ OnBeginDrag()</text>
<text text-anchor="start" x="98" y="-311.5" font-family="SegoeUI" font-size="10.00">+ OnDrag()</text>
<text text-anchor="start" x="98" y="-300.5" font-family="SegoeUI" font-size="10.00">+ OnDrop()</text>
<text text-anchor="start" x="98" y="-289.5" font-family="SegoeUI" font-size="10.00">+ OnEndDrag()</text>
<text text-anchor="start" x="98" y="-278.5" font-family="SegoeUI" font-size="10.00"># Awake()</text>
<text text-anchor="start" x="98" y="-267.5" font-family="SegoeUI" font-size="10.00"># LateUpdate()</text>
<text text-anchor="start" x="98" y="-256.5" font-family="SegoeUI" font-size="10.00"># UpdateInternalValue()</text>
<text text-anchor="start" x="98" y="-245.5" font-family="SegoeUI" font-size="10.00"># ResetInternalValue()</text>
</a>
</g>
</g>
<!-- Node1&#45;&gt;Node2 -->
<g id="edge2" class="edge"><title>Node1&#45;&gt;Node2</title>
<path fill="none" stroke="midnightblue" d="M262.438,-687.763C256.863,-678.462 251.25,-668.529 246.5,-659 243.315,-652.61 240.162,-646.067 237.053,-639.424"/>
<polygon fill="none" stroke="midnightblue" points="259.545,-689.742 267.743,-696.454 265.52,-686.094 259.545,-689.742"/>
</g>
<!-- Node5 -->
<g id="node6" class="node"><title>Node5</title>
<g id="a_node6"><a xlink:href="../../d3/d58/class_juniper_1_1_unity_1_1_widgets_1_1_unity_slider_adapter.html" target="_top" xlink:title=" ">
<polygon fill="white" stroke="black" points="255.5,-403.5 255.5,-493.5 407.5,-493.5 407.5,-403.5 255.5,-403.5"/>
<text text-anchor="start" x="263.5" y="-481.5" font-family="SegoeUI" font-size="10.00">Juniper.Unity.Widgets.Unity</text>
<text text-anchor="middle" x="331.5" y="-470.5" font-family="SegoeUI" font-size="10.00">SliderAdapter</text>
<polyline fill="none" stroke="black" points="255.5,-463.5 407.5,-463.5 "/>
<text text-anchor="start" x="263.5" y="-451.5" font-family="SegoeUI" font-size="10.00">+ value</text>
<text text-anchor="start" x="263.5" y="-440.5" font-family="SegoeUI" font-size="10.00">&#45; element</text>
<polyline fill="none" stroke="black" points="255.5,-433.5 407.5,-433.5 "/>
<text text-anchor="start" x="263.5" y="-421.5" font-family="SegoeUI" font-size="10.00">+ operator UnitySliderAdapter()</text>
<text text-anchor="start" x="263.5" y="-410.5" font-family="SegoeUI" font-size="10.00">&#45; UnitySliderAdapter()</text>
</a>
</g>
</g>
<!-- Node1&#45;&gt;Node5 -->
<g id="edge5" class="edge"><title>Node1&#45;&gt;Node5</title>
<path fill="none" stroke="midnightblue" d="M295.978,-686.316C303.819,-634.038 316.956,-546.463 324.867,-493.722"/>
<polygon fill="none" stroke="midnightblue" points="292.505,-685.872 294.483,-696.281 299.428,-686.911 292.505,-685.872"/>
</g>
<!-- Node3 -->
<g id="node4" class="node"><title>Node3</title>
<g id="a_node4"><a xlink:href="../../dc/da5/class_juniper_1_1_unity_1_1_widgets_1_1_draggable.html" target="_top" xlink:title="An object that can be picked up and put down in a new location.">
<polygon fill="white" stroke="black" points="0,-0.5 0,-200.5 155,-200.5 155,-0.5 0,-0.5"/>
<text text-anchor="middle" x="77.5" y="-188.5" font-family="SegoeUI" font-size="10.00">Juniper.Unity.Widgets.Draggable</text>
<polyline fill="none" stroke="black" points="0,-181.5 155,-181.5 "/>
<text text-anchor="start" x="8" y="-169.5" font-family="SegoeUI" font-size="10.00">+ constrainMotion</text>
<text text-anchor="start" x="8" y="-158.5" font-family="SegoeUI" font-size="10.00">+ rotateWhileDragging</text>
<text text-anchor="start" x="8" y="-147.5" font-family="SegoeUI" font-size="10.00">+ TrackStart</text>
<text text-anchor="start" x="8" y="-136.5" font-family="SegoeUI" font-size="10.00">+ TrackEnd</text>
<text text-anchor="start" x="8" y="-125.5" font-family="SegoeUI" font-size="10.00">&#45; MotionConstraintStartName</text>
<text text-anchor="start" x="8" y="-114.5" font-family="SegoeUI" font-size="10.00">&#45; MotionConstraintEndName</text>
<text text-anchor="start" x="8" y="-103.5" font-family="SegoeUI" font-size="10.00">&#45; motionConstraintStart</text>
<text text-anchor="start" x="8" y="-92.5" font-family="SegoeUI" font-size="10.00">&#45; motionConstraintEnd</text>
<text text-anchor="start" x="8" y="-81.5" font-family="SegoeUI" font-size="10.00">&#45; lastCamPosition</text>
<polyline fill="none" stroke="black" points="0,-74.5 155,-74.5 "/>
<text text-anchor="start" x="8" y="-62.5" font-family="SegoeUI" font-size="10.00">+ OnValidate()</text>
<text text-anchor="start" x="8" y="-51.5" font-family="SegoeUI" font-size="10.00">+ OnDrag()</text>
<text text-anchor="start" x="8" y="-40.5" font-family="SegoeUI" font-size="10.00"># LateUpdate()</text>
<text text-anchor="start" x="8" y="-29.5" font-family="SegoeUI" font-size="10.00">&#45; OnDrawGizmos()</text>
<text text-anchor="start" x="8" y="-18.5" font-family="SegoeUI" font-size="10.00">&#45; ResolveConstraint()</text>
<text text-anchor="start" x="8" y="-7.5" font-family="SegoeUI" font-size="10.00">&#45; DestroyConstraint()</text>
</a>
</g>
</g>
<!-- Node2&#45;&gt;Node3 -->
<g id="edge3" class="edge"><title>Node2&#45;&gt;Node3</title>
<path fill="none" stroke="midnightblue" d="M109.015,-228.294C106.657,-218.806 104.348,-209.518 102.121,-200.556"/>
<polygon fill="none" stroke="midnightblue" points="105.681,-229.388 111.489,-238.248 112.474,-227.699 105.681,-229.388"/>
</g>
<!-- Node4 -->
<g id="node5" class="node"><title>Node4</title>
<g id="a_node5"><a xlink:href="../../d3/d60/class_juniper_1_1_unity_1_1_widgets_1_1_rotatable.html" target="_top" xlink:title="A control that is rotatable in a single axis at a time.">
<polygon fill="white" stroke="black" points="173.5,-6 173.5,-195 325.5,-195 325.5,-6 173.5,-6"/>
<text text-anchor="middle" x="249.5" y="-183" font-family="SegoeUI" font-size="10.00">Juniper.Unity.Widgets.Rotatable</text>
<polyline fill="none" stroke="black" points="173.5,-176 325.5,-176 "/>
<text text-anchor="start" x="181.5" y="-164" font-family="SegoeUI" font-size="10.00">+ rotationAxis</text>
<text text-anchor="start" x="181.5" y="-153" font-family="SegoeUI" font-size="10.00">+ InterpolationScale</text>
<text text-anchor="start" x="181.5" y="-142" font-family="SegoeUI" font-size="10.00">+ ConstraintRange</text>
<text text-anchor="start" x="181.5" y="-131" font-family="SegoeUI" font-size="10.00">&#45; lastInteractionPoint</text>
<text text-anchor="start" x="181.5" y="-120" font-family="SegoeUI" font-size="10.00">&#45; amount</text>
<text text-anchor="start" x="181.5" y="-109" font-family="SegoeUI" font-size="10.00">&#45; angleCorrector</text>
<text text-anchor="start" x="181.5" y="-98" font-family="SegoeUI" font-size="10.00">&#45; startValue</text>
<text text-anchor="start" x="181.5" y="-87" font-family="SegoeUI" font-size="10.00">&#45; endValue</text>
<polyline fill="none" stroke="black" points="173.5,-80 325.5,-80 "/>
<text text-anchor="start" x="181.5" y="-68" font-family="SegoeUI" font-size="10.00">+ OnEnable()</text>
<text text-anchor="start" x="181.5" y="-57" font-family="SegoeUI" font-size="10.00">+ OnDisable()</text>
<text text-anchor="start" x="181.5" y="-46" font-family="SegoeUI" font-size="10.00">+ OnBeginDrag()</text>
<text text-anchor="start" x="181.5" y="-35" font-family="SegoeUI" font-size="10.00">+ OnDrag()</text>
<text text-anchor="start" x="181.5" y="-24" font-family="SegoeUI" font-size="10.00"># Awake()</text>
<text text-anchor="start" x="181.5" y="-13" font-family="SegoeUI" font-size="10.00"># Update()</text>
</a>
</g>
</g>
<!-- Node2&#45;&gt;Node4 -->
<g id="edge4" class="edge"><title>Node2&#45;&gt;Node4</title>
<path fill="none" stroke="midnightblue" d="M217.933,-228.501C220.798,-216.974 223.591,-205.74 226.254,-195.026"/>
<polygon fill="none" stroke="midnightblue" points="214.526,-227.699 215.511,-238.248 221.319,-229.388 214.526,-227.699"/>
</g>
</g>
</svg>
