<?xml version="1.0" encoding="UTF-8" standalone="no"?>
<!DOCTYPE svg PUBLIC "-//W3C//DTD SVG 1.1//EN"
 "http://www.w3.org/Graphics/SVG/1.1/DTD/svg11.dtd">
<!-- Generated by graphviz version 2.38.0 (20140413.2041)
 -->
<!-- Title: Juniper.Unity.ImageTracking.VuforiaTrackableFoundEventHandler Pages: 1 -->
<!--zoomable 595 -->
<svg id="main" version="1.1" xmlns="http://www.w3.org/2000/svg" xmlns:xlink="http://www.w3.org/1999/xlink" xml:space="preserve" onload="init(evt)">
<style type="text/css"><![CDATA[
.edge:hover path { stroke: red; }
.edge:hover polygon { stroke: red; fill: red; }
]]></style>
<script type="text/javascript"><![CDATA[
var edges = document.getElementsByTagName('g');
if (edges && edges.length) {
  for (var i=0;i<edges.length;i++) {
    if (edges[i].id.substr(0,4)=='edge') {
      edges[i].setAttribute('class','edge');
    }
  }
}
]]></script>
        <defs>
                <circle id="rim" cx="0" cy="0" r="7"/>
                <circle id="rim2" cx="0" cy="0" r="3.5"/>
                <g id="zoomPlus">
                        <use xlink:href="#rim" fill="#404040">
                                <set attributeName="fill" to="#808080" begin="zoomplus.mouseover" end="zoomplus.mouseout"/>
                        </use>
                        <path d="M-4,0h8M0,-4v8" fill="none" stroke="white" stroke-width="1.5" pointer-events="none"/>
                </g>
                <g id="zoomMin">
                        <use xlink:href="#rim" fill="#404040">
                                <set attributeName="fill" to="#808080" begin="zoomminus.mouseover" end="zoomminus.mouseout"/>
                        </use>
                        <path d="M-4,0h8" fill="none" stroke="white" stroke-width="1.5" pointer-events="none"/>
                </g>
                <g id="dirArrow">
                        <path fill="none" stroke="white" stroke-width="1.5" d="M0,-3.0v7 M-2.5,-0.5L0,-3.0L2.5,-0.5"/>
                </g>
               <g id="resetDef">
                       <use xlink:href="#rim2" fill="#404040">
                               <set attributeName="fill" to="#808080" begin="reset.mouseover" end="reset.mouseout"/>
                       </use>
               </g>
        </defs>

<script type="text/javascript">
var viewWidth = 288;
var viewHeight = 595;
var sectionId = 'dynsection-0';
</script>
<script xlink:href="../../svgpan.js"/>
<svg id="graph" class="graph">
<g id="viewport">
<title>Juniper.Unity.ImageTracking.VuforiaTrackableFoundEventHandler</title>
<polygon fill="white" stroke="none" points="-4,4 -4,-591 283.5,-591 283.5,4 -4,4"/>
<!-- Node0 -->
<g id="node1" class="node"><title>Node0</title>
<g id="a_node1"><a xlink:title=" ">
<polygon fill="#bfbfbf" stroke="black" points="59.5,-0.5 59.5,-123.5 231.5,-123.5 231.5,-0.5 59.5,-0.5"/>
<text text-anchor="start" x="67.5" y="-111.5" font-family="SegoeUI" font-size="10.00">Juniper.Unity.ImageTracking.</text>
<text text-anchor="middle" x="145.5" y="-100.5" font-family="SegoeUI" font-size="10.00">VuforiaTrackableFoundEventHandler</text>
<polyline fill="none" stroke="black" points="59.5,-93.5 231.5,-93.5 "/>
<text text-anchor="start" x="67.5" y="-81.5" font-family="SegoeUI" font-size="10.00">+ DebugReport</text>
<text text-anchor="start" x="67.5" y="-70.5" font-family="SegoeUI" font-size="10.00">&#45; trackable</text>
<polyline fill="none" stroke="black" points="59.5,-63.5 231.5,-63.5 "/>
<text text-anchor="start" x="67.5" y="-51.5" font-family="SegoeUI" font-size="10.00">+ Awake()</text>
<text text-anchor="start" x="67.5" y="-40.5" font-family="SegoeUI" font-size="10.00">+ Update()</text>
<text text-anchor="start" x="67.5" y="-29.5" font-family="SegoeUI" font-size="10.00">+ OnTrackableStateChanged()</text>
<text text-anchor="start" x="67.5" y="-18.5" font-family="SegoeUI" font-size="10.00">&#45; OnDestroy()</text>
<text text-anchor="start" x="67.5" y="-7.5" font-family="SegoeUI" font-size="10.00">&#45; PrintDebugReport()</text>
</a>
</g>
</g>
<!-- Node1 -->
<g id="node2" class="node"><title>Node1</title>
<g id="a_node2"><a xlink:href="../../d9/d49/class_juniper_1_1_unity_1_1_image_tracking_1_1_abstract_trackable_found_event_handler.html" target="_top" xlink:title=" ">
<polygon fill="white" stroke="black" points="0,-160.5 0,-492.5 143,-492.5 143,-160.5 0,-160.5"/>
<text text-anchor="start" x="8" y="-480.5" font-family="SegoeUI" font-size="10.00">AbstractTrackableFoundEvent</text>
<text text-anchor="middle" x="71.5" y="-469.5" font-family="SegoeUI" font-size="10.00">Handler</text>
<polyline fill="none" stroke="black" points="0,-462.5 143,-462.5 "/>
<text text-anchor="start" x="8" y="-450.5" font-family="SegoeUI" font-size="10.00">+ Found</text>
<text text-anchor="start" x="8" y="-439.5" font-family="SegoeUI" font-size="10.00">+ Safe</text>
<text text-anchor="start" x="8" y="-428.5" font-family="SegoeUI" font-size="10.00">+ Extended</text>
<text text-anchor="start" x="8" y="-417.5" font-family="SegoeUI" font-size="10.00">+ attachmentPoint</text>
<text text-anchor="start" x="8" y="-406.5" font-family="SegoeUI" font-size="10.00">+ safeDistance</text>
<text text-anchor="start" x="8" y="-395.5" font-family="SegoeUI" font-size="10.00">+ onTrackingStateChange</text>
<text text-anchor="start" x="8" y="-384.5" font-family="SegoeUI" font-size="10.00">+ onFound</text>
<text text-anchor="start" x="8" y="-373.5" font-family="SegoeUI" font-size="10.00">+ onLost</text>
<text text-anchor="start" x="8" y="-362.5" font-family="SegoeUI" font-size="10.00">+ onProximity</text>
<text text-anchor="start" x="8" y="-351.5" font-family="SegoeUI" font-size="10.00">+ onSafe</text>
<text text-anchor="start" x="8" y="-340.5" font-family="SegoeUI" font-size="10.00">&#45; wasFound</text>
<text text-anchor="start" x="8" y="-329.5" font-family="SegoeUI" font-size="10.00">&#45; wasSafe</text>
<text text-anchor="start" x="8" y="-318.5" font-family="SegoeUI" font-size="10.00">&#45; TAG_NAME</text>
<text text-anchor="start" x="8" y="-307.5" font-family="SegoeUI" font-size="10.00">&#45; TRANSFORM_NAME</text>
<polyline fill="none" stroke="black" points="0,-300.5 143,-300.5 "/>
<text text-anchor="start" x="8" y="-288.5" font-family="SegoeUI" font-size="10.00">+ OnValidate()</text>
<text text-anchor="start" x="8" y="-277.5" font-family="SegoeUI" font-size="10.00">+ OnEnable()</text>
<text text-anchor="start" x="8" y="-266.5" font-family="SegoeUI" font-size="10.00">+ Update()</text>
<text text-anchor="start" x="8" y="-255.5" font-family="SegoeUI" font-size="10.00">+ ForceFound()</text>
<text text-anchor="start" x="8" y="-244.5" font-family="SegoeUI" font-size="10.00">+ ForceLost()</text>
<text text-anchor="start" x="8" y="-233.5" font-family="SegoeUI" font-size="10.00">+ OnDisable()</text>
<text text-anchor="start" x="8" y="-222.5" font-family="SegoeUI" font-size="10.00">+ Awake()</text>
<text text-anchor="start" x="8" y="-211.5" font-family="SegoeUI" font-size="10.00">&#45; SafetyCheck()</text>
<text text-anchor="start" x="8" y="-200.5" font-family="SegoeUI" font-size="10.00">&#45; OnSafeOrProximity()</text>
<text text-anchor="start" x="8" y="-189.5" font-family="SegoeUI" font-size="10.00">&#45; OnFoundChanged()</text>
<text text-anchor="start" x="8" y="-178.5" font-family="SegoeUI" font-size="10.00">&#45; OnLostOrFound()</text>
<text text-anchor="start" x="8" y="-167.5" font-family="SegoeUI" font-size="10.00">&#45; OnTrackingStateChanged()</text>
</a>
</g>
</g>
<!-- Node1&#45;&gt;Node0 -->
<g id="edge1" class="edge"><title>Node1&#45;&gt;Node0</title>
<path fill="none" stroke="midnightblue" d="M120.842,-150.468C123.491,-141.072 126.045,-132.014 128.439,-123.52"/>
<polygon fill="none" stroke="midnightblue" points="117.395,-149.798 118.05,-160.372 124.132,-151.697 117.395,-149.798"/>
</g>
<!-- Node2 -->
<g id="node3" class="node"><title>Node2</title>
<g id="a_node3"><a xlink:title=" ">
<polygon fill="white" stroke="#bfbfbf" points="30.5,-529.5 30.5,-586.5 112.5,-586.5 112.5,-529.5 30.5,-529.5"/>
<text text-anchor="middle" x="71.5" y="-574.5" font-family="SegoeUI" font-size="10.00">MonoBehaviour</text>
<polyline fill="none" stroke="#bfbfbf" points="30.5,-567.5 112.5,-567.5 "/>
<text text-anchor="middle" x="71.5" y="-555.5" font-family="SegoeUI" font-size="10.00"> </text>
<polyline fill="none" stroke="#bfbfbf" points="30.5,-548.5 112.5,-548.5 "/>
<text text-anchor="middle" x="71.5" y="-536.5" font-family="SegoeUI" font-size="10.00"> </text>
</a>
</g>
</g>
<!-- Node2&#45;&gt;Node1 -->
<g id="edge2" class="edge"><title>Node2&#45;&gt;Node1</title>
<path fill="none" stroke="midnightblue" d="M71.5,-519.078C71.5,-511.132 71.5,-502.278 71.5,-492.855"/>
<polygon fill="none" stroke="midnightblue" points="68.0001,-519.317 71.5,-529.317 75.0001,-519.317 68.0001,-519.317"/>
</g>
<!-- Node3 -->
<g id="node4" class="node"><title>Node3</title>
<g id="a_node4"><a xlink:title=" ">
<polygon fill="white" stroke="#bfbfbf" points="161.5,-298 161.5,-355 279.5,-355 279.5,-298 161.5,-298"/>
<text text-anchor="middle" x="220.5" y="-343" font-family="SegoeUI" font-size="10.00">ITrackableEventHandler</text>
<polyline fill="none" stroke="#bfbfbf" points="161.5,-336 279.5,-336 "/>
<text text-anchor="middle" x="220.5" y="-324" font-family="SegoeUI" font-size="10.00"> </text>
<polyline fill="none" stroke="#bfbfbf" points="161.5,-317 279.5,-317 "/>
<text text-anchor="middle" x="220.5" y="-305" font-family="SegoeUI" font-size="10.00"> </text>
</a>
</g>
</g>
<!-- Node3&#45;&gt;Node0 -->
<g id="edge3" class="edge"><title>Node3&#45;&gt;Node0</title>
<path fill="none" stroke="midnightblue" d="M209.834,-288.17C197.6,-245.349 177.362,-174.518 162.851,-123.728"/>
<polygon fill="none" stroke="midnightblue" points="206.503,-289.25 212.615,-297.904 213.233,-287.327 206.503,-289.25"/>
</g>
</g>
</svg>
        <g id="navigator" transform="translate(0 0)" fill="#404254">
                <rect fill="#f2f5e9" fill-opacity="0.5" stroke="#606060" stroke-width=".5" x="0" y="0" width="60" height="60"/>
                <use id="zoomplus" xlink:href="#zoomPlus" x="17" y="9" onmousedown="handleZoom(evt,'in')"/>
                <use id="zoomminus" xlink:href="#zoomMin" x="42" y="9" onmousedown="handleZoom(evt,'out')"/>
                <use id="reset" xlink:href="#resetDef" x="30" y="36" onmousedown="handleReset()"/>
                <g id="arrowUp" xlink:href="#dirArrow" transform="translate(30 24)" onmousedown="handlePan(0,-1)">
                  <use xlink:href="#rim" fill="#404040">
                        <set attributeName="fill" to="#808080" begin="arrowUp.mouseover" end="arrowUp.mouseout"/>
                  </use>
                  <path fill="none" stroke="white" stroke-width="1.5" d="M0,-3.0v7 M-2.5,-0.5L0,-3.0L2.5,-0.5"/>
                </g>
                <g id="arrowRight" xlink:href="#dirArrow" transform="rotate(90) translate(36 -43)" onmousedown="handlePan(1,0)">
                  <use xlink:href="#rim" fill="#404040">
                        <set attributeName="fill" to="#808080" begin="arrowRight.mouseover" end="arrowRight.mouseout"/>
                  </use>
                  <path fill="none" stroke="white" stroke-width="1.5" d="M0,-3.0v7 M-2.5,-0.5L0,-3.0L2.5,-0.5"/>
                </g>
                <g id="arrowDown" xlink:href="#dirArrow" transform="rotate(180) translate(-30 -48)" onmousedown="handlePan(0,1)">
                  <use xlink:href="#rim" fill="#404040">
                        <set attributeName="fill" to="#808080" begin="arrowDown.mouseover" end="arrowDown.mouseout"/>
                  </use>
                  <path fill="none" stroke="white" stroke-width="1.5" d="M0,-3.0v7 M-2.5,-0.5L0,-3.0L2.5,-0.5"/>
                </g>
                <g id="arrowLeft" xlink:href="#dirArrow" transform="rotate(270) translate(-36 17)" onmousedown="handlePan(-1,0)">
                  <use xlink:href="#rim" fill="#404040">
                        <set attributeName="fill" to="#808080" begin="arrowLeft.mouseover" end="arrowLeft.mouseout"/>
                  </use>
                  <path fill="none" stroke="white" stroke-width="1.5" d="M0,-3.0v7 M-2.5,-0.5L0,-3.0L2.5,-0.5"/>
                </g>
        </g>
        <svg viewBox="0 0 15 15" width="100%" height="30px" preserveAspectRatio="xMaxYMin meet">
         <g id="arrow_out" transform="scale(0.3 0.3)">
          <a xlink:href="class_juniper_1_1_unity_1_1_image_tracking_1_1_vuforia_trackable_found_event_handler__inherit__graph_org.svg" target="_base">
           <rect id="button" ry="5" rx="5" y="6" x="6" height="38" width="38"
                fill="#f2f5e9" fill-opacity="0.5" stroke="#606060" stroke-width="1.0"/>
           <path id="arrow"
             d="M 11.500037,31.436501 C 11.940474,20.09759 22.043105,11.32322 32.158766,21.979434 L 37.068811,17.246167 C 37.068811,17.246167 37.088388,32 37.088388,32 L 22.160133,31.978069 C 22.160133,31.978069 26.997745,27.140456 26.997745,27.140456 C 18.528582,18.264221 13.291696,25.230495 11.500037,31.436501 z"
             style="fill:#404040;"/>
          </a>
         </g>
        </svg>
</svg>
