<?xml version="1.0" encoding="UTF-8" standalone="no"?>
<!DOCTYPE svg PUBLIC "-//W3C//DTD SVG 1.1//EN"
 "http://www.w3.org/Graphics/SVG/1.1/DTD/svg11.dtd">
<!-- Generated by graphviz version 2.38.0 (20140413.2041)
 -->
<!-- Title: Juniper.Anchoring.Anchored Pages: 1 -->
<!--zoomable 895 -->
<svg id="main" version="1.1" xmlns="http://www.w3.org/2000/svg" xmlns:xlink="http://www.w3.org/1999/xlink" xml:space="preserve" onload="init(evt)">
<style type="text/css"><![CDATA[
.edge:hover path { stroke: red; }
.edge:hover polygon { stroke: red; fill: red; }
]]></style>
<script type="text/javascript"><![CDATA[
var edges = document.getElementsByTagName('g');
if (edges && edges.length) {
  for (var i=0;i<edges.length;i++) {
    if (edges[i].id.substr(0,4)=='edge') {
      edges[i].setAttribute('class','edge');
    }
  }
}
]]></script>
        <defs>
                <circle id="rim" cx="0" cy="0" r="7"/>
                <circle id="rim2" cx="0" cy="0" r="3.5"/>
                <g id="zoomPlus">
                        <use xlink:href="#rim" fill="#404040">
                                <set attributeName="fill" to="#808080" begin="zoomplus.mouseover" end="zoomplus.mouseout"/>
                        </use>
                        <path d="M-4,0h8M0,-4v8" fill="none" stroke="white" stroke-width="1.5" pointer-events="none"/>
                </g>
                <g id="zoomMin">
                        <use xlink:href="#rim" fill="#404040">
                                <set attributeName="fill" to="#808080" begin="zoomminus.mouseover" end="zoomminus.mouseout"/>
                        </use>
                        <path d="M-4,0h8" fill="none" stroke="white" stroke-width="1.5" pointer-events="none"/>
                </g>
                <g id="dirArrow">
                        <path fill="none" stroke="white" stroke-width="1.5" d="M0,-3.0v7 M-2.5,-0.5L0,-3.0L2.5,-0.5"/>
                </g>
               <g id="resetDef">
                       <use xlink:href="#rim2" fill="#404040">
                               <set attributeName="fill" to="#808080" begin="reset.mouseover" end="reset.mouseout"/>
                       </use>
               </g>
        </defs>

<script type="text/javascript">
var viewWidth = 283;
var viewHeight = 895;
var sectionId = 'dynsection-1';
</script>
<script xlink:href="../../svgpan.js"/>
<svg id="graph" class="graph">
<g id="viewport">
<title>Juniper.Anchoring.Anchored</title>
<polygon fill="white" stroke="none" points="-4,4 -4,-891 279,-891 279,4 -4,4"/>
<!-- Node2 -->
<g id="node1" class="node"><title>Node2</title>
<g id="a_node1"><a xlink:title="Creates a fixed point of reference in space. Some AR subsystems are able to prioritize the tracking o...">
<polygon fill="#bfbfbf" stroke="black" points="59.5,-0.5 59.5,-189.5 196.5,-189.5 196.5,-0.5 59.5,-0.5"/>
<text text-anchor="middle" x="128" y="-177.5" font-family="SegoeUI" font-size="10.00">Juniper.Anchoring.Anchored</text>
<polyline fill="none" stroke="black" points="59.5,-170.5 196.5,-170.5 "/>
<text text-anchor="start" x="67.5" y="-158.5" font-family="SegoeUI" font-size="10.00">+ anchorID</text>
<text text-anchor="start" x="67.5" y="-147.5" font-family="SegoeUI" font-size="10.00">+ HasAnchor</text>
<text text-anchor="start" x="67.5" y="-136.5" font-family="SegoeUI" font-size="10.00">&#45; startRotation</text>
<text text-anchor="start" x="67.5" y="-125.5" font-family="SegoeUI" font-size="10.00">&#45; shouldAnchor</text>
<text text-anchor="start" x="67.5" y="-114.5" font-family="SegoeUI" font-size="10.00">&#45; isAnchored</text>
<text text-anchor="start" x="67.5" y="-103.5" font-family="SegoeUI" font-size="10.00">&#45; wasAnchored</text>
<text text-anchor="start" x="67.5" y="-92.5" font-family="SegoeUI" font-size="10.00">&#45; q</text>
<polyline fill="none" stroke="black" points="59.5,-85.5 196.5,-85.5 "/>
<text text-anchor="start" x="67.5" y="-73.5" font-family="SegoeUI" font-size="10.00">+ Awake()</text>
<text text-anchor="start" x="67.5" y="-62.5" font-family="SegoeUI" font-size="10.00">+ Update()</text>
<text text-anchor="start" x="67.5" y="-51.5" font-family="SegoeUI" font-size="10.00">+ WhenAnchored()</text>
<text text-anchor="start" x="67.5" y="-40.5" font-family="SegoeUI" font-size="10.00">+ ResetAnchor()</text>
<text text-anchor="start" x="67.5" y="-29.5" font-family="SegoeUI" font-size="10.00">+ WeighAnchor()</text>
<text text-anchor="start" x="67.5" y="-18.5" font-family="SegoeUI" font-size="10.00">+ DropAnchor()</text>
<text text-anchor="start" x="67.5" y="-7.5" font-family="SegoeUI" font-size="10.00">+ Start()</text>
</a>
</g>
</g>
<!-- Node3 -->
<g id="node2" class="node"><title>Node3</title>
<g id="a_node2"><a xlink:title=" ">
<polygon fill="white" stroke="#bfbfbf" points="0,-829.5 0,-886.5 82,-886.5 82,-829.5 0,-829.5"/>
<text text-anchor="middle" x="41" y="-874.5" font-family="SegoeUI" font-size="10.00">MonoBehaviour</text>
<polyline fill="none" stroke="#bfbfbf" points="0,-867.5 82,-867.5 "/>
<text text-anchor="middle" x="41" y="-855.5" font-family="SegoeUI" font-size="10.00"> </text>
<polyline fill="none" stroke="#bfbfbf" points="0,-848.5 82,-848.5 "/>
<text text-anchor="middle" x="41" y="-836.5" font-family="SegoeUI" font-size="10.00"> </text>
</a>
</g>
</g>
<!-- Node3&#45;&gt;Node2 -->
<g id="edge1" class="edge"><title>Node3&#45;&gt;Node2</title>
<path fill="none" stroke="midnightblue" d="M39.8359,-819.266C38.655,-777.686 37,-708.831 37,-649.5 37,-649.5 37,-649.5 37,-281.5 37,-249.754 47.8755,-217.788 62.107,-189.548"/>
<polygon fill="none" stroke="midnightblue" points="36.3436,-819.586 40.1321,-829.48 43.3406,-819.383 36.3436,-819.586"/>
</g>
<!-- Node7 -->
<g id="node6" class="node"><title>Node7</title>
<g id="a_node6"><a xlink:href="../../da/daf/class_juniper_1_1_anchoring_1_1_abstract_anchor_store.html" target="_top" xlink:title="A store for points in space that the system will restore on second&#45;run. By default,...">
<polygon fill="white" stroke="black" points="65,-526.5 65,-770.5 181,-770.5 181,-526.5 65,-526.5"/>
<text text-anchor="start" x="73" y="-758.5" font-family="SegoeUI" font-size="10.00">AbstractAnchorStore</text>
<text text-anchor="middle" x="123" y="-747.5" font-family="SegoeUI" font-size="10.00">&lt; AnchorType &gt;</text>
<polyline fill="none" stroke="black" points="65,-740.5 181,-740.5 "/>
<text text-anchor="start" x="73" y="-728.5" font-family="SegoeUI" font-size="10.00">+ NameList</text>
<text text-anchor="start" x="73" y="-717.5" font-family="SegoeUI" font-size="10.00">&#45; KEY_LIST_KEY</text>
<polyline fill="none" stroke="black" points="65,-710.5 181,-710.5 "/>
<text text-anchor="start" x="73" y="-698.5" font-family="SegoeUI" font-size="10.00">+ ResetData()</text>
<text text-anchor="start" x="73" y="-687.5" font-family="SegoeUI" font-size="10.00">+ DropAnchor()</text>
<text text-anchor="start" x="73" y="-676.5" font-family="SegoeUI" font-size="10.00">+ WeighAnchor()</text>
<text text-anchor="start" x="73" y="-665.5" font-family="SegoeUI" font-size="10.00">+ HasAnchor()</text>
<text text-anchor="start" x="73" y="-654.5" font-family="SegoeUI" font-size="10.00"># SynchronizeAnchor()</text>
<text text-anchor="start" x="73" y="-643.5" font-family="SegoeUI" font-size="10.00"># IsGood()</text>
<text text-anchor="start" x="73" y="-632.5" font-family="SegoeUI" font-size="10.00"># DeleteAnchor()</text>
<text text-anchor="start" x="73" y="-621.5" font-family="SegoeUI" font-size="10.00"># FindAnchor()</text>
<text text-anchor="start" x="73" y="-610.5" font-family="SegoeUI" font-size="10.00"># IsSaved()</text>
<text text-anchor="start" x="73" y="-599.5" font-family="SegoeUI" font-size="10.00"># CreateAnchor()</text>
<text text-anchor="start" x="73" y="-588.5" font-family="SegoeUI" font-size="10.00"># LoadAnchor()</text>
<text text-anchor="start" x="73" y="-577.5" font-family="SegoeUI" font-size="10.00"># MakeID()</text>
<text text-anchor="start" x="73" y="-566.5" font-family="SegoeUI" font-size="10.00"># HasValue()</text>
<text text-anchor="start" x="73" y="-555.5" font-family="SegoeUI" font-size="10.00"># SaveValue&lt; T &gt;()</text>
<text text-anchor="start" x="73" y="-544.5" font-family="SegoeUI" font-size="10.00"># LoadValue&lt; T &gt;()</text>
<text text-anchor="start" x="73" y="-533.5" font-family="SegoeUI" font-size="10.00"># DeleteValue()</text>
</a>
</g>
</g>
<!-- Node3&#45;&gt;Node7 -->
<g id="edge6" class="edge"><title>Node3&#45;&gt;Node7</title>
<path fill="none" stroke="midnightblue" d="M55.6005,-820.054C61.2452,-805.77 68.0516,-788.546 75.1394,-770.611"/>
<polygon fill="none" stroke="midnightblue" points="52.3092,-818.859 51.889,-829.446 58.8193,-821.432 52.3092,-818.859"/>
</g>
<!-- Node4 -->
<g id="node3" class="node"><title>Node4</title>
<g id="a_node3"><a xlink:title=" ">
<polygon fill="white" stroke="#bfbfbf" points="209,-254 209,-311 275,-311 275,-254 209,-254"/>
<text text-anchor="middle" x="242" y="-299" font-family="SegoeUI" font-size="10.00">UnityEngine</text>
<polyline fill="none" stroke="#bfbfbf" points="209,-292 275,-292 "/>
<text text-anchor="middle" x="242" y="-280" font-family="SegoeUI" font-size="10.00"> </text>
<polyline fill="none" stroke="#bfbfbf" points="209,-273 275,-273 "/>
<text text-anchor="middle" x="242" y="-261" font-family="SegoeUI" font-size="10.00"> </text>
</a>
</g>
</g>
<!-- Node4&#45;&gt;Node2 -->
<g id="edge2" class="edge"><title>Node4&#45;&gt;Node2</title>
<path fill="none" stroke="#404040" d="M224.933,-253.729C215.888,-239.011 204.148,-219.907 191.976,-200.101"/>
<polygon fill="none" stroke="#404040" points="191.867,-199.924 185.317,-196.906 185.584,-189.7 192.133,-192.717 191.867,-199.924"/>
<text text-anchor="middle" x="237.5" y="-222" font-family="SegoeUI" font-size="10.00"> &#45;startScale</text>
<text text-anchor="middle" x="237.5" y="-211" font-family="SegoeUI" font-size="10.00">&#45;startPosition</text>
</g>
<!-- Node5 -->
<g id="node4" class="node"><title>Node5</title>
<g id="a_node4"><a xlink:href="../../df/d66/class_juniper_1_1_anchoring_1_1_anchor_store.html" target="_top" xlink:title="Anchors provide a means to restore the position of objects between sessions. In some AR systems,...">
<polygon fill="white" stroke="black" points="65,-248.5 65,-316.5 191,-316.5 191,-248.5 65,-248.5"/>
<text text-anchor="start" x="73" y="-304.5" font-family="SegoeUI" font-size="10.00">Juniper.Anchoring.Anchor</text>
<text text-anchor="middle" x="128" y="-293.5" font-family="SegoeUI" font-size="10.00">Store</text>
<polyline fill="none" stroke="black" points="65,-286.5 191,-286.5 "/>
<text text-anchor="middle" x="128" y="-274.5" font-family="SegoeUI" font-size="10.00"> </text>
<polyline fill="none" stroke="black" points="65,-267.5 191,-267.5 "/>
<text text-anchor="middle" x="128" y="-255.5" font-family="SegoeUI" font-size="10.00"> </text>
</a>
</g>
</g>
<!-- Node5&#45;&gt;Node2 -->
<g id="edge3" class="edge"><title>Node5&#45;&gt;Node2</title>
<path fill="none" stroke="#404040" d="M128,-248.336C128,-235.003 128,-218.82 128,-202.046"/>
<polygon fill="none" stroke="#404040" points="128,-201.758 124,-195.758 128,-189.758 132,-195.758 128,-201.758"/>
<text text-anchor="middle" x="141" y="-216.5" font-family="SegoeUI" font-size="10.00"> &#45;nkar</text>
</g>
<!-- Node6 -->
<g id="node5" class="node"><title>Node6</title>
<g id="a_node5"><a xlink:href="../../d4/d2a/class_juniper_1_1_anchoring_1_1_a_r_kit_anchor_store.html" target="_top" xlink:title=" ">
<polygon fill="white" stroke="black" points="66,-354.5 66,-488.5 182,-488.5 182,-354.5 66,-354.5"/>
<text text-anchor="middle" x="124" y="-476.5" font-family="SegoeUI" font-size="10.00">ARKitAnchorStore</text>
<polyline fill="none" stroke="black" points="66,-469.5 182,-469.5 "/>
<text text-anchor="start" x="74" y="-457.5" font-family="SegoeUI" font-size="10.00">&#45; anchorStore</text>
<polyline fill="none" stroke="black" points="66,-450.5 182,-450.5 "/>
<text text-anchor="start" x="74" y="-438.5" font-family="SegoeUI" font-size="10.00">+ Awake()</text>
<text text-anchor="start" x="74" y="-427.5" font-family="SegoeUI" font-size="10.00">+ HasAnchor()</text>
<text text-anchor="start" x="74" y="-416.5" font-family="SegoeUI" font-size="10.00">+ ResetData()</text>
<text text-anchor="start" x="74" y="-405.5" font-family="SegoeUI" font-size="10.00"># FindAnchor()</text>
<text text-anchor="start" x="74" y="-394.5" font-family="SegoeUI" font-size="10.00"># LoadAnchor()</text>
<text text-anchor="start" x="74" y="-383.5" font-family="SegoeUI" font-size="10.00"># CreateAnchor()</text>
<text text-anchor="start" x="74" y="-372.5" font-family="SegoeUI" font-size="10.00"># SynchronizeAnchor()</text>
<text text-anchor="start" x="74" y="-361.5" font-family="SegoeUI" font-size="10.00"># DeleteAnchor()</text>
</a>
</g>
</g>
<!-- Node6&#45;&gt;Node5 -->
<g id="edge4" class="edge"><title>Node6&#45;&gt;Node5</title>
<path fill="none" stroke="midnightblue" d="M126.226,-344.256C126.509,-334.556 126.786,-325.066 127.034,-316.577"/>
<polygon fill="none" stroke="midnightblue" points="122.723,-344.31 125.93,-354.408 129.72,-344.514 122.723,-344.31"/>
</g>
<!-- Node7&#45;&gt;Node6 -->
<g id="edge5" class="edge"><title>Node7&#45;&gt;Node6</title>
<path fill="none" stroke="midnightblue" d="M123.583,-516.424C123.625,-506.868 123.667,-497.495 123.706,-488.593"/>
<polygon fill="none" stroke="midnightblue" points="120.083,-516.423 123.538,-526.438 127.083,-516.454 120.083,-516.423"/>
</g>
<!-- Node8 -->
<g id="node7" class="node"><title>Node8</title>
<g id="a_node7"><a xlink:title=" ">
<polygon fill="white" stroke="#bfbfbf" points="103.5,-829.5 103.5,-886.5 142.5,-886.5 142.5,-829.5 103.5,-829.5"/>
<text text-anchor="middle" x="123" y="-874.5" font-family="SegoeUI" font-size="10.00">static</text>
<polyline fill="none" stroke="#bfbfbf" points="103.5,-867.5 142.5,-867.5 "/>
<text text-anchor="middle" x="123" y="-855.5" font-family="SegoeUI" font-size="10.00"> </text>
<polyline fill="none" stroke="#bfbfbf" points="103.5,-848.5 142.5,-848.5 "/>
<text text-anchor="middle" x="123" y="-836.5" font-family="SegoeUI" font-size="10.00"> </text>
</a>
</g>
</g>
<!-- Node8&#45;&gt;Node7 -->
<g id="edge7" class="edge"><title>Node8&#45;&gt;Node7</title>
<path fill="none" stroke="#404040" d="M123,-829.446C123,-816.575 123,-800.218 123,-782.634"/>
<polygon fill="none" stroke="#404040" points="123,-782.611 119,-776.611 123,-770.611 127,-776.611 123,-782.611"/>
<text text-anchor="middle" x="177.5" y="-803" font-family="SegoeUI" font-size="10.00"> &#45;EMPTY_STRING_ARRAY</text>
<text text-anchor="middle" x="177.5" y="-792" font-family="SegoeUI" font-size="10.00">&#45;ID_PREFIX</text>
</g>
</g>
</svg>
        <g id="navigator" transform="translate(0 0)" fill="#404254">
                <rect fill="#f2f5e9" fill-opacity="0.5" stroke="#606060" stroke-width=".5" x="0" y="0" width="60" height="60"/>
                <use id="zoomplus" xlink:href="#zoomPlus" x="17" y="9" onmousedown="handleZoom(evt,'in')"/>
                <use id="zoomminus" xlink:href="#zoomMin" x="42" y="9" onmousedown="handleZoom(evt,'out')"/>
                <use id="reset" xlink:href="#resetDef" x="30" y="36" onmousedown="handleReset()"/>
                <g id="arrowUp" xlink:href="#dirArrow" transform="translate(30 24)" onmousedown="handlePan(0,-1)">
                  <use xlink:href="#rim" fill="#404040">
                        <set attributeName="fill" to="#808080" begin="arrowUp.mouseover" end="arrowUp.mouseout"/>
                  </use>
                  <path fill="none" stroke="white" stroke-width="1.5" d="M0,-3.0v7 M-2.5,-0.5L0,-3.0L2.5,-0.5"/>
                </g>
                <g id="arrowRight" xlink:href="#dirArrow" transform="rotate(90) translate(36 -43)" onmousedown="handlePan(1,0)">
                  <use xlink:href="#rim" fill="#404040">
                        <set attributeName="fill" to="#808080" begin="arrowRight.mouseover" end="arrowRight.mouseout"/>
                  </use>
                  <path fill="none" stroke="white" stroke-width="1.5" d="M0,-3.0v7 M-2.5,-0.5L0,-3.0L2.5,-0.5"/>
                </g>
                <g id="arrowDown" xlink:href="#dirArrow" transform="rotate(180) translate(-30 -48)" onmousedown="handlePan(0,1)">
                  <use xlink:href="#rim" fill="#404040">
                        <set attributeName="fill" to="#808080" begin="arrowDown.mouseover" end="arrowDown.mouseout"/>
                  </use>
                  <path fill="none" stroke="white" stroke-width="1.5" d="M0,-3.0v7 M-2.5,-0.5L0,-3.0L2.5,-0.5"/>
                </g>
                <g id="arrowLeft" xlink:href="#dirArrow" transform="rotate(270) translate(-36 17)" onmousedown="handlePan(-1,0)">
                  <use xlink:href="#rim" fill="#404040">
                        <set attributeName="fill" to="#808080" begin="arrowLeft.mouseover" end="arrowLeft.mouseout"/>
                  </use>
                  <path fill="none" stroke="white" stroke-width="1.5" d="M0,-3.0v7 M-2.5,-0.5L0,-3.0L2.5,-0.5"/>
                </g>
        </g>
        <svg viewBox="0 0 15 15" width="100%" height="30px" preserveAspectRatio="xMaxYMin meet">
         <g id="arrow_out" transform="scale(0.3 0.3)">
          <a xlink:href="class_juniper_1_1_anchoring_1_1_anchored__coll__graph_org.svg" target="_base">
           <rect id="button" ry="5" rx="5" y="6" x="6" height="38" width="38"
                fill="#f2f5e9" fill-opacity="0.5" stroke="#606060" stroke-width="1.0"/>
           <path id="arrow"
             d="M 11.500037,31.436501 C 11.940474,20.09759 22.043105,11.32322 32.158766,21.979434 L 37.068811,17.246167 C 37.068811,17.246167 37.088388,32 37.088388,32 L 22.160133,31.978069 C 22.160133,31.978069 26.997745,27.140456 26.997745,27.140456 C 18.528582,18.264221 13.291696,25.230495 11.500037,31.436501 z"
             style="fill:#404040;"/>
          </a>
         </g>
        </svg>
</svg>
