<?xml version="1.0" encoding="UTF-8" standalone="no"?>
<!DOCTYPE svg PUBLIC "-//W3C//DTD SVG 1.1//EN"
 "http://www.w3.org/Graphics/SVG/1.1/DTD/svg11.dtd">
<!-- Generated by graphviz version 2.38.0 (20140413.2041)
 -->
<!-- Title: Juniper.HTTP.Server.Controllers.AbstractResponse Pages: 1 -->
<svg width="738pt" height="926pt"
 viewBox="0.00 0.00 737.50 926.00" xmlns="http://www.w3.org/2000/svg" xmlns:xlink="http://www.w3.org/1999/xlink">
<g id="graph0" class="graph" transform="scale(1 1) rotate(0) translate(4 922)">
<title>Juniper.HTTP.Server.Controllers.AbstractResponse</title>
<polygon fill="white" stroke="none" points="-4,4 -4,-922 733.5,-922 733.5,4 -4,4"/>
<!-- Node17 -->
<g id="node1" class="node"><title>Node17</title>
<g id="a_node1"><a xlink:title=" ">
<polygon fill="#bfbfbf" stroke="black" points="342,-0.5 342,-596.5 500,-596.5 500,-0.5 342,-0.5"/>
<text text-anchor="start" x="350" y="-584.5" font-family="SegoeUI" font-size="10.00">Juniper.HTTP.Server.Controllers.</text>
<text text-anchor="middle" x="421" y="-573.5" font-family="SegoeUI" font-size="10.00">AbstractResponse</text>
<polyline fill="none" stroke="black" points="342,-566.5 500,-566.5 "/>
<text text-anchor="start" x="350" y="-554.5" font-family="SegoeUI" font-size="10.00">+ AllAuthSchemes</text>
<text text-anchor="start" x="350" y="-543.5" font-family="SegoeUI" font-size="10.00">+ AllProtocols</text>
<text text-anchor="start" x="350" y="-532.5" font-family="SegoeUI" font-size="10.00">+ AllMethods</text>
<text text-anchor="start" x="350" y="-521.5" font-family="SegoeUI" font-size="10.00">+ Name</text>
<text text-anchor="start" x="350" y="-510.5" font-family="SegoeUI" font-size="10.00">+ Pattern</text>
<text text-anchor="start" x="350" y="-499.5" font-family="SegoeUI" font-size="10.00">+ RegexSource</text>
<text text-anchor="start" x="350" y="-488.5" font-family="SegoeUI" font-size="10.00">+ ParameterCount</text>
<text text-anchor="start" x="350" y="-477.5" font-family="SegoeUI" font-size="10.00">+ Priority</text>
<text text-anchor="start" x="350" y="-466.5" font-family="SegoeUI" font-size="10.00">+ Protocols</text>
<text text-anchor="start" x="350" y="-455.5" font-family="SegoeUI" font-size="10.00">+ Methods</text>
<text text-anchor="start" x="350" y="-444.5" font-family="SegoeUI" font-size="10.00">+ Authentication</text>
<text text-anchor="start" x="350" y="-433.5" font-family="SegoeUI" font-size="10.00">+ StatusCodes</text>
<text text-anchor="start" x="350" y="-422.5" font-family="SegoeUI" font-size="10.00">+ Accept</text>
<text text-anchor="start" x="350" y="-411.5" font-family="SegoeUI" font-size="10.00">+ Headers</text>
<text text-anchor="start" x="350" y="-400.5" font-family="SegoeUI" font-size="10.00">+ Enabled</text>
<text text-anchor="start" x="350" y="-389.5" font-family="SegoeUI" font-size="10.00">+ Server</text>
<polyline fill="none" stroke="black" points="342,-382.5 500,-382.5 "/>
<text text-anchor="start" x="350" y="-370.5" font-family="SegoeUI" font-size="10.00">+ IsProtocolMatch()</text>
<text text-anchor="start" x="350" y="-359.5" font-family="SegoeUI" font-size="10.00">+ IsMethodMatch()</text>
<text text-anchor="start" x="350" y="-348.5" font-family="SegoeUI" font-size="10.00">+ IsPatternMatch()</text>
<text text-anchor="start" x="350" y="-337.5" font-family="SegoeUI" font-size="10.00">+ IsAcceptable()</text>
<text text-anchor="start" x="350" y="-326.5" font-family="SegoeUI" font-size="10.00">+ IsStatusCodeMatch()</text>
<text text-anchor="start" x="350" y="-315.5" font-family="SegoeUI" font-size="10.00">+ IsHeaderMatch()</text>
<text text-anchor="start" x="350" y="-304.5" font-family="SegoeUI" font-size="10.00">+ IsContextMatch()</text>
<text text-anchor="start" x="350" y="-293.5" font-family="SegoeUI" font-size="10.00">+ IsRequestMatch()</text>
<text text-anchor="start" x="350" y="-282.5" font-family="SegoeUI" font-size="10.00">+ ExecuteAsync()</text>
<text text-anchor="start" x="350" y="-271.5" font-family="SegoeUI" font-size="10.00">+ Equals()</text>
<text text-anchor="start" x="350" y="-260.5" font-family="SegoeUI" font-size="10.00">+ Equals()</text>
<text text-anchor="start" x="350" y="-249.5" font-family="SegoeUI" font-size="10.00">+ ToString()</text>
<text text-anchor="start" x="350" y="-238.5" font-family="SegoeUI" font-size="10.00">+ CompareTo()</text>
<text text-anchor="start" x="350" y="-227.5" font-family="SegoeUI" font-size="10.00">+ CompareTo()</text>
<text text-anchor="start" x="350" y="-216.5" font-family="SegoeUI" font-size="10.00">+ GetHashCode()</text>
<text text-anchor="start" x="350" y="-205.5" font-family="SegoeUI" font-size="10.00">+ operator==()</text>
<text text-anchor="start" x="350" y="-194.5" font-family="SegoeUI" font-size="10.00">+ operator !=()</text>
<text text-anchor="start" x="350" y="-183.5" font-family="SegoeUI" font-size="10.00">+ operator&lt;()</text>
<text text-anchor="start" x="350" y="-172.5" font-family="SegoeUI" font-size="10.00">+ operator &gt;()</text>
<text text-anchor="start" x="350" y="-161.5" font-family="SegoeUI" font-size="10.00">+ operator&lt;=()</text>
<text text-anchor="start" x="350" y="-150.5" font-family="SegoeUI" font-size="10.00">+ operator &gt;=()</text>
<text text-anchor="start" x="350" y="-139.5" font-family="SegoeUI" font-size="10.00"># AbstractResponse()</text>
<text text-anchor="start" x="350" y="-128.5" font-family="SegoeUI" font-size="10.00"># AbstractResponse??????()</text>
<text text-anchor="start" x="350" y="-117.5" font-family="SegoeUI" font-size="10.00"># AbstractResponse??()</text>
<text text-anchor="start" x="350" y="-106.5" font-family="SegoeUI" font-size="10.00"># AbstractResponse??????()</text>
<text text-anchor="start" x="350" y="-95.5" font-family="SegoeUI" font-size="10.00"># AbstractResponse????()</text>
<text text-anchor="start" x="350" y="-84.5" font-family="SegoeUI" font-size="10.00"># AbstractResponse??????()</text>
<text text-anchor="start" x="350" y="-73.5" font-family="SegoeUI" font-size="10.00"># AbstractResponse??()</text>
<text text-anchor="start" x="350" y="-62.5" font-family="SegoeUI" font-size="10.00"># AbstractResponse??????()</text>
<text text-anchor="start" x="350" y="-51.5" font-family="SegoeUI" font-size="10.00"># AbstractResponse????()</text>
<text text-anchor="start" x="350" y="-40.5" font-family="SegoeUI" font-size="10.00"># InvokeAsync()</text>
<text text-anchor="start" x="350" y="-29.5" font-family="SegoeUI" font-size="10.00"># OnInfo()</text>
<text text-anchor="start" x="350" y="-18.5" font-family="SegoeUI" font-size="10.00"># OnWarning()</text>
<text text-anchor="start" x="350" y="-7.5" font-family="SegoeUI" font-size="10.00"># OnError()</text>
</a>
</g>
</g>
<!-- Node18 -->
<g id="node2" class="node"><title>Node18</title>
<g id="a_node2"><a xlink:title=" ">
<polygon fill="white" stroke="#bfbfbf" points="0,-727 0,-784 158,-784 158,-727 0,-727"/>
<text text-anchor="middle" x="79" y="-772" font-family="SegoeUI" font-size="10.00">IEquatable&lt; AbstractResponse &gt;</text>
<polyline fill="none" stroke="#bfbfbf" points="0,-765 158,-765 "/>
<text text-anchor="middle" x="79" y="-753" font-family="SegoeUI" font-size="10.00"> </text>
<polyline fill="none" stroke="#bfbfbf" points="0,-746 158,-746 "/>
<text text-anchor="middle" x="79" y="-734" font-family="SegoeUI" font-size="10.00"> </text>
</a>
</g>
</g>
<!-- Node18&#45;&gt;Node17 -->
<g id="edge1" class="edge"><title>Node18&#45;&gt;Node17</title>
<path fill="none" stroke="midnightblue" d="M106.002,-718.576C156.329,-651.62 266.217,-505.425 341.914,-404.717"/>
<polygon fill="none" stroke="midnightblue" points="103.089,-716.626 99.8788,-726.723 108.685,-720.832 103.089,-716.626"/>
</g>
<!-- Node19 -->
<g id="node3" class="node"><title>Node19</title>
<g id="a_node3"><a xlink:title=" ">
<polygon fill="white" stroke="#bfbfbf" points="176.5,-727 176.5,-784 247.5,-784 247.5,-727 176.5,-727"/>
<text text-anchor="middle" x="212" y="-772" font-family="SegoeUI" font-size="10.00">IComparable</text>
<polyline fill="none" stroke="#bfbfbf" points="176.5,-765 247.5,-765 "/>
<text text-anchor="middle" x="212" y="-753" font-family="SegoeUI" font-size="10.00"> </text>
<polyline fill="none" stroke="#bfbfbf" points="176.5,-746 247.5,-746 "/>
<text text-anchor="middle" x="212" y="-734" font-family="SegoeUI" font-size="10.00"> </text>
</a>
</g>
</g>
<!-- Node19&#45;&gt;Node17 -->
<g id="edge2" class="edge"><title>Node19&#45;&gt;Node17</title>
<path fill="none" stroke="midnightblue" d="M229.083,-717.309C253.669,-663.786 300.618,-561.575 341.926,-471.648"/>
<polygon fill="none" stroke="midnightblue" points="225.753,-716.174 224.759,-726.723 232.114,-719.096 225.753,-716.174"/>
</g>
<!-- Node20 -->
<g id="node4" class="node"><title>Node20</title>
<g id="a_node4"><a xlink:title=" ">
<polygon fill="white" stroke="#bfbfbf" points="265.5,-727 265.5,-784 432.5,-784 432.5,-727 265.5,-727"/>
<text text-anchor="middle" x="349" y="-772" font-family="SegoeUI" font-size="10.00">IComparable&lt; AbstractResponse &gt;</text>
<polyline fill="none" stroke="#bfbfbf" points="265.5,-765 432.5,-765 "/>
<text text-anchor="middle" x="349" y="-753" font-family="SegoeUI" font-size="10.00"> </text>
<polyline fill="none" stroke="#bfbfbf" points="265.5,-746 432.5,-746 "/>
<text text-anchor="middle" x="349" y="-734" font-family="SegoeUI" font-size="10.00"> </text>
</a>
</g>
</g>
<!-- Node20&#45;&gt;Node17 -->
<g id="edge3" class="edge"><title>Node20&#45;&gt;Node17</title>
<path fill="none" stroke="midnightblue" d="M354.987,-716.664C359.589,-687.582 366.422,-644.403 373.971,-596.698"/>
<polygon fill="none" stroke="midnightblue" points="351.502,-716.298 353.396,-726.723 358.416,-717.393 351.502,-716.298"/>
</g>
<!-- Node21 -->
<g id="node5" class="node"><title>Node21</title>
<g id="a_node5"><a xlink:href="../../d4/d74/interface_juniper_1_1_h_t_t_p_1_1_server_1_1_i_request_handler.html" target="_top" xlink:title=" ">
<polygon fill="white" stroke="black" points="450.5,-688.5 450.5,-822.5 537.5,-822.5 537.5,-688.5 450.5,-688.5"/>
<text text-anchor="middle" x="494" y="-810.5" font-family="SegoeUI" font-size="10.00">IRequestHandler</text>
<polyline fill="none" stroke="black" points="450.5,-803.5 537.5,-803.5 "/>
<text text-anchor="start" x="458.5" y="-791.5" font-family="SegoeUI" font-size="10.00">+ Priority</text>
<text text-anchor="start" x="458.5" y="-780.5" font-family="SegoeUI" font-size="10.00">+ Protocols</text>
<text text-anchor="start" x="458.5" y="-769.5" font-family="SegoeUI" font-size="10.00">+ Methods</text>
<text text-anchor="start" x="458.5" y="-758.5" font-family="SegoeUI" font-size="10.00">+ Pattern</text>
<text text-anchor="start" x="458.5" y="-747.5" font-family="SegoeUI" font-size="10.00">+ Authentication</text>
<text text-anchor="start" x="458.5" y="-736.5" font-family="SegoeUI" font-size="10.00">+ Accept</text>
<text text-anchor="start" x="458.5" y="-725.5" font-family="SegoeUI" font-size="10.00">+ StatusCodes</text>
<text text-anchor="start" x="458.5" y="-714.5" font-family="SegoeUI" font-size="10.00">+ Headers</text>
<polyline fill="none" stroke="black" points="450.5,-707.5 537.5,-707.5 "/>
<text text-anchor="middle" x="494" y="-695.5" font-family="SegoeUI" font-size="10.00"> </text>
</a>
</g>
</g>
<!-- Node21&#45;&gt;Node17 -->
<g id="edge4" class="edge"><title>Node21&#45;&gt;Node17</title>
<path fill="none" stroke="midnightblue" d="M481.786,-678.372C477.959,-654.519 473.48,-626.602 468.719,-596.927"/>
<polygon fill="none" stroke="midnightblue" points="478.345,-679.02 483.385,-688.339 485.257,-677.911 478.345,-679.02"/>
</g>
<!-- Node22 -->
<g id="node6" class="node"><title>Node22</title>
<g id="a_node6"><a xlink:href="../../df/d21/interface_juniper_1_1_logging_1_1_i_logging_source.html" target="_top" xlink:title=" ">
<polygon fill="white" stroke="black" points="555.5,-727 555.5,-784 638.5,-784 638.5,-727 555.5,-727"/>
<text text-anchor="middle" x="597" y="-772" font-family="SegoeUI" font-size="10.00">ILoggingSource</text>
<polyline fill="none" stroke="black" points="555.5,-765 638.5,-765 "/>
<text text-anchor="middle" x="597" y="-753" font-family="SegoeUI" font-size="10.00"> </text>
<polyline fill="none" stroke="black" points="555.5,-746 638.5,-746 "/>
<text text-anchor="middle" x="597" y="-734" font-family="SegoeUI" font-size="10.00"> </text>
</a>
</g>
</g>
<!-- Node22&#45;&gt;Node17 -->
<g id="edge5" class="edge"><title>Node22&#45;&gt;Node17</title>
<path fill="none" stroke="midnightblue" d="M582.583,-717.229C564.305,-669.977 531.384,-584.868 500.005,-503.746"/>
<polygon fill="none" stroke="midnightblue" points="579.383,-718.659 586.255,-726.723 585.912,-716.133 579.383,-718.659"/>
</g>
<!-- Node23 -->
<g id="node7" class="node"><title>Node23</title>
<g id="a_node7"><a xlink:href="../../de/dad/interface_juniper_1_1_logging_1_1_i_info_source.html" target="_top" xlink:title=" ">
<polygon fill="white" stroke="black" points="470,-860.5 470,-917.5 536,-917.5 536,-860.5 470,-860.5"/>
<text text-anchor="middle" x="503" y="-905.5" font-family="SegoeUI" font-size="10.00">IInfoSource</text>
<polyline fill="none" stroke="black" points="470,-898.5 536,-898.5 "/>
<text text-anchor="middle" x="503" y="-886.5" font-family="SegoeUI" font-size="10.00"> </text>
<polyline fill="none" stroke="black" points="470,-879.5 536,-879.5 "/>
<text text-anchor="middle" x="503" y="-867.5" font-family="SegoeUI" font-size="10.00"> </text>
</a>
</g>
</g>
<!-- Node23&#45;&gt;Node22 -->
<g id="edge6" class="edge"><title>Node23&#45;&gt;Node22</title>
<path fill="none" stroke="midnightblue" d="M528.592,-852.198C543.941,-830.726 563.164,-803.835 577.32,-784.03"/>
<polygon fill="none" stroke="midnightblue" points="525.673,-850.263 522.705,-860.433 531.368,-854.333 525.673,-850.263"/>
</g>
<!-- Node24 -->
<g id="node8" class="node"><title>Node24</title>
<g id="a_node8"><a xlink:href="../../d6/d23/interface_juniper_1_1_logging_1_1_i_warning_source.html" target="_top" xlink:title=" ">
<polygon fill="white" stroke="black" points="554,-860.5 554,-917.5 640,-917.5 640,-860.5 554,-860.5"/>
<text text-anchor="middle" x="597" y="-905.5" font-family="SegoeUI" font-size="10.00">IWarningSource</text>
<polyline fill="none" stroke="black" points="554,-898.5 640,-898.5 "/>
<text text-anchor="middle" x="597" y="-886.5" font-family="SegoeUI" font-size="10.00"> </text>
<polyline fill="none" stroke="black" points="554,-879.5 640,-879.5 "/>
<text text-anchor="middle" x="597" y="-867.5" font-family="SegoeUI" font-size="10.00"> </text>
</a>
</g>
</g>
<!-- Node24&#45;&gt;Node22 -->
<g id="edge7" class="edge"><title>Node24&#45;&gt;Node22</title>
<path fill="none" stroke="midnightblue" d="M597,-850.188C597,-829.067 597,-803.221 597,-784.03"/>
<polygon fill="none" stroke="midnightblue" points="593.5,-850.433 597,-860.433 600.5,-850.433 593.5,-850.433"/>
</g>
<!-- Node25 -->
<g id="node9" class="node"><title>Node25</title>
<g id="a_node9"><a xlink:href="../../d4/d12/interface_juniper_1_1_logging_1_1_i_error_source.html" target="_top" xlink:title=" ">
<polygon fill="white" stroke="black" points="658.5,-860.5 658.5,-917.5 729.5,-917.5 729.5,-860.5 658.5,-860.5"/>
<text text-anchor="middle" x="694" y="-905.5" font-family="SegoeUI" font-size="10.00">IErrorSource</text>
<polyline fill="none" stroke="black" points="658.5,-898.5 729.5,-898.5 "/>
<text text-anchor="middle" x="694" y="-886.5" font-family="SegoeUI" font-size="10.00"> </text>
<polyline fill="none" stroke="black" points="658.5,-879.5 729.5,-879.5 "/>
<text text-anchor="middle" x="694" y="-867.5" font-family="SegoeUI" font-size="10.00"> </text>
</a>
</g>
</g>
<!-- Node25&#45;&gt;Node22 -->
<g id="edge8" class="edge"><title>Node25&#45;&gt;Node22</title>
<path fill="none" stroke="midnightblue" d="M667.591,-852.198C651.752,-830.726 631.916,-803.835 617.308,-784.03"/>
<polygon fill="none" stroke="midnightblue" points="664.913,-854.463 673.666,-860.433 670.546,-850.308 664.913,-854.463"/>
</g>
<!-- Node26 -->
<g id="node10" class="node"><title>Node26</title>
<g id="a_node10"><a xlink:title=" ">
<polygon fill="white" stroke="#bfbfbf" points="656.5,-727 656.5,-784 695.5,-784 695.5,-727 656.5,-727"/>
<text text-anchor="middle" x="676" y="-772" font-family="SegoeUI" font-size="10.00">static</text>
<polyline fill="none" stroke="#bfbfbf" points="656.5,-765 695.5,-765 "/>
<text text-anchor="middle" x="676" y="-753" font-family="SegoeUI" font-size="10.00"> </text>
<polyline fill="none" stroke="#bfbfbf" points="656.5,-746 695.5,-746 "/>
<text text-anchor="middle" x="676" y="-734" font-family="SegoeUI" font-size="10.00"> </text>
</a>
</g>
</g>
<!-- Node26&#45;&gt;Node17 -->
<g id="edge9" class="edge"><title>Node26&#45;&gt;Node17</title>
<path fill="none" stroke="#404040" d="M664.848,-726.992C659.725,-714.884 653.377,-700.583 647,-688 603.967,-603.085 550.623,-510.871 506.568,-437.601"/>
<polygon fill="none" stroke="#404040" points="506.332,-437.209 499.809,-434.135 500.138,-426.931 506.661,-430.006 506.332,-437.209"/>
<text text-anchor="middle" x="672.5" y="-662" font-family="SegoeUI" font-size="10.00"> +AllRoutes</text>
<text text-anchor="middle" x="672.5" y="-651" font-family="SegoeUI" font-size="10.00">+AllStatusCodes</text>
<text text-anchor="middle" x="672.5" y="-640" font-family="SegoeUI" font-size="10.00">+DefaultCode</text>
<text text-anchor="middle" x="672.5" y="-629" font-family="SegoeUI" font-size="10.00">+NoHeaders</text>
<text text-anchor="middle" x="672.5" y="-618" font-family="SegoeUI" font-size="10.00">+AnyMediaTypes</text>
</g>
</g>
</svg>
