<?xml version="1.0" encoding="UTF-8" standalone="no"?>
<!DOCTYPE svg PUBLIC "-//W3C//DTD SVG 1.1//EN"
 "http://www.w3.org/Graphics/SVG/1.1/DTD/svg11.dtd">
<!-- Generated by graphviz version 2.38.0 (20140413.2041)
 -->
<!-- Title: Juniper.Unity.Input.Pointers.Motion.AbstractHandedPointerConfiguration&lt; HandIDType, ButtonIDType &gt; Pages: 1 -->
<!--zoomable 742 -->
<svg id="main" version="1.1" xmlns="http://www.w3.org/2000/svg" xmlns:xlink="http://www.w3.org/1999/xlink" xml:space="preserve" onload="init(evt)">
<style type="text/css"><![CDATA[
.edge:hover path { stroke: red; }
.edge:hover polygon { stroke: red; fill: red; }
]]></style>
<script type="text/javascript"><![CDATA[
var edges = document.getElementsByTagName('g');
if (edges && edges.length) {
  for (var i=0;i<edges.length;i++) {
    if (edges[i].id.substr(0,4)=='edge') {
      edges[i].setAttribute('class','edge');
    }
  }
}
]]></script>
        <defs>
                <circle id="rim" cx="0" cy="0" r="7"/>
                <circle id="rim2" cx="0" cy="0" r="3.5"/>
                <g id="zoomPlus">
                        <use xlink:href="#rim" fill="#404040">
                                <set attributeName="fill" to="#808080" begin="zoomplus.mouseover" end="zoomplus.mouseout"/>
                        </use>
                        <path d="M-4,0h8M0,-4v8" fill="none" stroke="white" stroke-width="1.5" pointer-events="none"/>
                </g>
                <g id="zoomMin">
                        <use xlink:href="#rim" fill="#404040">
                                <set attributeName="fill" to="#808080" begin="zoomminus.mouseover" end="zoomminus.mouseout"/>
                        </use>
                        <path d="M-4,0h8" fill="none" stroke="white" stroke-width="1.5" pointer-events="none"/>
                </g>
                <g id="dirArrow">
                        <path fill="none" stroke="white" stroke-width="1.5" d="M0,-3.0v7 M-2.5,-0.5L0,-3.0L2.5,-0.5"/>
                </g>
               <g id="resetDef">
                       <use xlink:href="#rim2" fill="#404040">
                               <set attributeName="fill" to="#808080" begin="reset.mouseover" end="reset.mouseout"/>
                       </use>
               </g>
        </defs>

<script type="text/javascript">
var viewWidth = 1163;
var viewHeight = 742;
var sectionId = 'dynsection-0';
</script>
<script xlink:href="../../svgpan.js"/>
<svg id="graph" class="graph">
<g id="viewport">
<title>Juniper.Unity.Input.Pointers.Motion.AbstractHandedPointerConfiguration&lt; HandIDType, ButtonIDType &gt;</title>
<polygon fill="white" stroke="none" points="-4,4 -4,-738 1158.5,-738 1158.5,4 -4,4"/>
<!-- Node0 -->
<g id="node1" class="node"><title>Node0</title>
<g id="a_node1"><a xlink:title=" ">
<polygon fill="#bfbfbf" stroke="black" points="226,-504.5 226,-605.5 429,-605.5 429,-504.5 226,-504.5"/>
<text text-anchor="start" x="234" y="-593.5" font-family="SegoeUI" font-size="10.00">Juniper.Unity.Input.Pointers.</text>
<text text-anchor="start" x="234" y="-582.5" font-family="SegoeUI" font-size="10.00">Motion.AbstractHandedPointerConfiguration</text>
<text text-anchor="middle" x="327.5" y="-571.5" font-family="SegoeUI" font-size="10.00">&lt; HandIDType, ButtonIDType &gt;</text>
<polyline fill="none" stroke="black" points="226,-564.5 429,-564.5 "/>
<text text-anchor="start" x="234" y="-552.5" font-family="SegoeUI" font-size="10.00">+ HandType</text>
<text text-anchor="start" x="234" y="-541.5" font-family="SegoeUI" font-size="10.00">+ PointerNameStub</text>
<text text-anchor="start" x="234" y="-530.5" font-family="SegoeUI" font-size="10.00">+ this[Hands hand]</text>
<polyline fill="none" stroke="black" points="226,-523.5 429,-523.5 "/>
<text text-anchor="start" x="234" y="-511.5" font-family="SegoeUI" font-size="10.00">+ MakePointerName()</text>
</a>
</g>
</g>
<!-- Node2 -->
<g id="node3" class="node"><title>Node2</title>
<g id="a_node3"><a xlink:href="../../da/dee/class_juniper_1_1_unity_1_1_input_1_1_pointers_1_1_motion_1_1_abstract_hand_tracker_configuration.html" target="_top" xlink:title=" ">
<polygon fill="white" stroke="black" points="161,-349 161,-439 312,-439 312,-349 161,-349"/>
<text text-anchor="start" x="169" y="-427" font-family="SegoeUI" font-size="10.00">Juniper::Unity::Input</text>
<text text-anchor="start" x="169" y="-416" font-family="SegoeUI" font-size="10.00">::Pointers::Motion::Abstract</text>
<text text-anchor="start" x="169" y="-405" font-family="SegoeUI" font-size="10.00">HandTrackerConfiguration</text>
<text text-anchor="middle" x="236.5" y="-394" font-family="SegoeUI" font-size="10.00">&lt; HandIDType, ButtonIDType &gt;</text>
<polyline fill="none" stroke="black" points="161,-387 312,-387 "/>
<text text-anchor="start" x="169" y="-375" font-family="SegoeUI" font-size="10.00">+ PointerNameStub</text>
<polyline fill="none" stroke="black" points="161,-368 312,-368 "/>
<text text-anchor="middle" x="236.5" y="-356" font-family="SegoeUI" font-size="10.00"> </text>
</a>
</g>
</g>
<!-- Node0&#45;&gt;Node2 -->
<g id="edge2" class="edge"><title>Node0&#45;&gt;Node2</title>
<path fill="none" stroke="midnightblue" d="M293.969,-495.413C283.301,-476.773 271.687,-456.481 261.71,-439.049"/>
<polygon fill="none" stroke="midnightblue" points="290.952,-497.187 298.957,-504.128 297.027,-493.71 290.952,-497.187"/>
</g>
<!-- Node5 -->
<g id="node6" class="node"><title>Node5</title>
<g id="a_node6"><a xlink:href="../../d6/d27/class_juniper_1_1_unity_1_1_input_1_1_pointers_1_1_motion_1_1_abstract_motion_controller_configuration.html" target="_top" xlink:title=" ">
<polygon fill="white" stroke="black" points="472,-321.5 472,-466.5 623,-466.5 623,-321.5 472,-321.5"/>
<text text-anchor="start" x="480" y="-454.5" font-family="SegoeUI" font-size="10.00">Juniper::Unity::Input</text>
<text text-anchor="start" x="480" y="-443.5" font-family="SegoeUI" font-size="10.00">::Pointers::Motion::Abstract</text>
<text text-anchor="start" x="480" y="-432.5" font-family="SegoeUI" font-size="10.00">MotionControllerConfiguration</text>
<text text-anchor="middle" x="547.5" y="-421.5" font-family="SegoeUI" font-size="10.00">&lt; HandIDType, ButtonIDType &gt;</text>
<polyline fill="none" stroke="black" points="472,-414.5 623,-414.5 "/>
<text text-anchor="start" x="480" y="-402.5" font-family="SegoeUI" font-size="10.00">+ PointerNameStub</text>
<text text-anchor="start" x="480" y="-391.5" font-family="SegoeUI" font-size="10.00">&#45; touchPadButtons</text>
<text text-anchor="start" x="480" y="-380.5" font-family="SegoeUI" font-size="10.00">&#45; triggerButtons</text>
<polyline fill="none" stroke="black" points="472,-373.5 623,-373.5 "/>
<text text-anchor="start" x="480" y="-361.5" font-family="SegoeUI" font-size="10.00">+ Install()</text>
<text text-anchor="start" x="480" y="-350.5" font-family="SegoeUI" font-size="10.00">+ Install()</text>
<text text-anchor="start" x="480" y="-339.5" font-family="SegoeUI" font-size="10.00"># AddButton()</text>
<text text-anchor="start" x="480" y="-328.5" font-family="SegoeUI" font-size="10.00"># AddButton()</text>
</a>
</g>
</g>
<!-- Node0&#45;&gt;Node5 -->
<g id="edge5" class="edge"><title>Node0&#45;&gt;Node5</title>
<path fill="none" stroke="midnightblue" d="M404.455,-498.383C426.246,-482.633 449.945,-465.506 471.669,-449.805"/>
<polygon fill="none" stroke="midnightblue" points="402.259,-495.651 396.204,-504.345 406.359,-501.325 402.259,-495.651"/>
</g>
<!-- Node1 -->
<g id="node2" class="node"><title>Node1</title>
<g id="a_node2"><a xlink:href="../../db/d8b/class_juniper_1_1_unity_1_1_input_1_1_pointers_1_1_abstract_pointer_configuration.html" target="_top" xlink:title=" ">
<polygon fill="white" stroke="black" points="258,-643.5 258,-733.5 397,-733.5 397,-643.5 258,-643.5"/>
<text text-anchor="start" x="266" y="-721.5" font-family="SegoeUI" font-size="10.00">AbstractPointerConfiguration</text>
<text text-anchor="middle" x="327.5" y="-710.5" font-family="SegoeUI" font-size="10.00">&lt; ButtonIDType &gt;</text>
<polyline fill="none" stroke="black" points="258,-703.5 397,-703.5 "/>
<text text-anchor="start" x="266" y="-691.5" font-family="SegoeUI" font-size="10.00">&#45; nativeButtons</text>
<polyline fill="none" stroke="black" points="258,-684.5 397,-684.5 "/>
<text text-anchor="start" x="266" y="-672.5" font-family="SegoeUI" font-size="10.00">+ Install()</text>
<text text-anchor="start" x="266" y="-661.5" font-family="SegoeUI" font-size="10.00">+ Uninstall()</text>
<text text-anchor="start" x="266" y="-650.5" font-family="SegoeUI" font-size="10.00"># AddButton()</text>
</a>
</g>
</g>
<!-- Node1&#45;&gt;Node0 -->
<g id="edge1" class="edge"><title>Node1&#45;&gt;Node0</title>
<path fill="none" stroke="midnightblue" d="M327.5,-633.224C327.5,-624.11 327.5,-614.693 327.5,-605.701"/>
<polygon fill="none" stroke="midnightblue" points="324,-633.347 327.5,-643.347 331,-633.347 324,-633.347"/>
</g>
<!-- Node3 -->
<g id="node4" class="node"><title>Node3</title>
<g id="a_node4"><a xlink:href="../../da/dee/class_juniper_1_1_unity_1_1_input_1_1_pointers_1_1_motion_1_1_abstract_hand_tracker_configuration.html" target="_top" xlink:title=" ">
<polygon fill="white" stroke="black" points="0,-156 0,-235 195,-235 195,-156 0,-156"/>
<text text-anchor="start" x="8" y="-223" font-family="SegoeUI" font-size="10.00">Juniper.Unity.Input.Pointers.</text>
<text text-anchor="start" x="8" y="-212" font-family="SegoeUI" font-size="10.00">Motion.AbstractHandTrackerConfiguration</text>
<text text-anchor="middle" x="97.5" y="-201" font-family="SegoeUI" font-size="10.00">&lt; Unary, KeyCode &gt;</text>
<polyline fill="none" stroke="black" points="0,-194 195,-194 "/>
<text text-anchor="start" x="8" y="-182" font-family="SegoeUI" font-size="10.00">+ PointerNameStub</text>
<polyline fill="none" stroke="black" points="0,-175 195,-175 "/>
<text text-anchor="middle" x="97.5" y="-163" font-family="SegoeUI" font-size="10.00"> </text>
</a>
</g>
</g>
<!-- Node2&#45;&gt;Node3 -->
<g id="edge3" class="edge"><title>Node2&#45;&gt;Node3</title>
<path fill="none" stroke="orange" d="M199.485,-340.672C176.012,-307.49 146.161,-265.291 124.831,-235.137"/>
<polygon fill="orange" stroke="orange" points="196.673,-342.759 205.306,-348.902 202.388,-338.716 196.673,-342.759"/>
<text text-anchor="middle" x="217" y="-289.5" font-family="SegoeUI" font-size="10.00"> &lt; Unary, KeyCode &gt;</text>
</g>
<!-- Node4 -->
<g id="node5" class="node"><title>Node4</title>
<g id="a_node5"><a xlink:href="../../db/d79/class_juniper_1_1_unity_1_1_input_1_1_pointers_1_1_motion_1_1_no_hand_tracker_configuration.html" target="_top" xlink:title=" ">
<polygon fill="white" stroke="black" points="12,-11.5 12,-79.5 183,-79.5 183,-11.5 12,-11.5"/>
<text text-anchor="start" x="20" y="-67.5" font-family="SegoeUI" font-size="10.00">Juniper.Unity.Input.Pointers.</text>
<text text-anchor="middle" x="97.5" y="-56.5" font-family="SegoeUI" font-size="10.00">Motion.NoHandTrackerConfiguration</text>
<polyline fill="none" stroke="black" points="12,-49.5 183,-49.5 "/>
<text text-anchor="start" x="20" y="-37.5" font-family="SegoeUI" font-size="10.00">+ this[Hands hand]</text>
<polyline fill="none" stroke="black" points="12,-30.5 183,-30.5 "/>
<text text-anchor="middle" x="97.5" y="-18.5" font-family="SegoeUI" font-size="10.00"> </text>
</a>
</g>
</g>
<!-- Node3&#45;&gt;Node4 -->
<g id="edge4" class="edge"><title>Node3&#45;&gt;Node4</title>
<path fill="none" stroke="midnightblue" d="M97.5,-145.605C97.5,-123.949 97.5,-99.0392 97.5,-79.6104"/>
<polygon fill="none" stroke="midnightblue" points="94.0001,-145.615 97.5,-155.615 101,-145.615 94.0001,-145.615"/>
</g>
<!-- Node6 -->
<g id="node7" class="node"><title>Node6</title>
<g id="a_node7"><a xlink:href="../../d6/d27/class_juniper_1_1_unity_1_1_input_1_1_pointers_1_1_motion_1_1_abstract_motion_controller_configuration.html" target="_top" xlink:title=" ">
<polygon fill="white" stroke="black" points="213,-128.5 213,-262.5 424,-262.5 424,-128.5 213,-128.5"/>
<text text-anchor="start" x="221" y="-250.5" font-family="SegoeUI" font-size="10.00">Juniper.Unity.Input.Pointers.</text>
<text text-anchor="start" x="221" y="-239.5" font-family="SegoeUI" font-size="10.00">Motion.AbstractMotionControllerConfiguration</text>
<text text-anchor="middle" x="318.5" y="-228.5" font-family="SegoeUI" font-size="10.00">&lt; WVR_DeviceType, WVR_InputId &gt;</text>
<polyline fill="none" stroke="black" points="213,-221.5 424,-221.5 "/>
<text text-anchor="start" x="221" y="-209.5" font-family="SegoeUI" font-size="10.00">+ PointerNameStub</text>
<text text-anchor="start" x="221" y="-198.5" font-family="SegoeUI" font-size="10.00">&#45; touchPadButtons</text>
<text text-anchor="start" x="221" y="-187.5" font-family="SegoeUI" font-size="10.00">&#45; triggerButtons</text>
<polyline fill="none" stroke="black" points="213,-180.5 424,-180.5 "/>
<text text-anchor="start" x="221" y="-168.5" font-family="SegoeUI" font-size="10.00">+ Install()</text>
<text text-anchor="start" x="221" y="-157.5" font-family="SegoeUI" font-size="10.00">+ Install()</text>
<text text-anchor="start" x="221" y="-146.5" font-family="SegoeUI" font-size="10.00"># AddButton()</text>
<text text-anchor="start" x="221" y="-135.5" font-family="SegoeUI" font-size="10.00"># AddButton()</text>
</a>
</g>
</g>
<!-- Node5&#45;&gt;Node6 -->
<g id="edge6" class="edge"><title>Node5&#45;&gt;Node6</title>
<path fill="none" stroke="orange" d="M463.905,-331.818C451.837,-322.4 439.715,-312.608 428.5,-303 413.764,-290.375 398.488,-276.291 384.177,-262.606"/>
<polygon fill="orange" stroke="orange" points="461.769,-334.59 471.818,-337.947 466.055,-329.056 461.769,-334.59"/>
<text text-anchor="start" x="428.5" y="-295" font-family="SegoeUI" font-size="10.00"> &lt; WVR_DeviceType, WVR</text>
<text text-anchor="middle" x="486" y="-284" font-family="SegoeUI" font-size="10.00">_InputId &gt;</text>
</g>
<!-- Node8 -->
<g id="node9" class="node"><title>Node8</title>
<g id="a_node9"><a xlink:href="../../d6/d27/class_juniper_1_1_unity_1_1_input_1_1_pointers_1_1_motion_1_1_abstract_motion_controller_configuration.html" target="_top" xlink:title=" ">
<polygon fill="white" stroke="black" points="442,-128.5 442,-262.5 653,-262.5 653,-128.5 442,-128.5"/>
<text text-anchor="start" x="450" y="-250.5" font-family="SegoeUI" font-size="10.00">Juniper.Unity.Input.Pointers.</text>
<text text-anchor="start" x="450" y="-239.5" font-family="SegoeUI" font-size="10.00">Motion.AbstractMotionControllerConfiguration</text>
<text text-anchor="middle" x="547.5" y="-228.5" font-family="SegoeUI" font-size="10.00">&lt; GvrControllerHand, GvrControllerButton &gt;</text>
<polyline fill="none" stroke="black" points="442,-221.5 653,-221.5 "/>
<text text-anchor="start" x="450" y="-209.5" font-family="SegoeUI" font-size="10.00">+ PointerNameStub</text>
<text text-anchor="start" x="450" y="-198.5" font-family="SegoeUI" font-size="10.00">&#45; touchPadButtons</text>
<text text-anchor="start" x="450" y="-187.5" font-family="SegoeUI" font-size="10.00">&#45; triggerButtons</text>
<polyline fill="none" stroke="black" points="442,-180.5 653,-180.5 "/>
<text text-anchor="start" x="450" y="-168.5" font-family="SegoeUI" font-size="10.00">+ Install()</text>
<text text-anchor="start" x="450" y="-157.5" font-family="SegoeUI" font-size="10.00">+ Install()</text>
<text text-anchor="start" x="450" y="-146.5" font-family="SegoeUI" font-size="10.00"># AddButton()</text>
<text text-anchor="start" x="450" y="-135.5" font-family="SegoeUI" font-size="10.00"># AddButton()</text>
</a>
</g>
</g>
<!-- Node5&#45;&gt;Node8 -->
<g id="edge8" class="edge"><title>Node5&#45;&gt;Node8</title>
<path fill="none" stroke="orange" d="M547.5,-311.22C547.5,-294.996 547.5,-278.156 547.5,-262.537"/>
<polygon fill="orange" stroke="orange" points="544,-311.225 547.5,-321.225 551,-311.225 544,-311.225"/>
<text text-anchor="start" x="547.5" y="-295" font-family="SegoeUI" font-size="10.00"> &lt; GvrControllerHand,</text>
<text text-anchor="middle" x="596" y="-284" font-family="SegoeUI" font-size="10.00"> GvrControllerButton &gt;</text>
</g>
<!-- Node10 -->
<g id="node11" class="node"><title>Node10</title>
<g id="a_node11"><a xlink:href="../../d6/d27/class_juniper_1_1_unity_1_1_input_1_1_pointers_1_1_motion_1_1_abstract_motion_controller_configuration.html" target="_top" xlink:title=" ">
<polygon fill="white" stroke="black" points="671,-128.5 671,-262.5 882,-262.5 882,-128.5 671,-128.5"/>
<text text-anchor="start" x="679" y="-250.5" font-family="SegoeUI" font-size="10.00">Juniper.Unity.Input.Pointers.</text>
<text text-anchor="start" x="679" y="-239.5" font-family="SegoeUI" font-size="10.00">Motion.AbstractMotionControllerConfiguration</text>
<text text-anchor="middle" x="776.5" y="-228.5" font-family="SegoeUI" font-size="10.00">&lt; Unary, KeyCode &gt;</text>
<polyline fill="none" stroke="black" points="671,-221.5 882,-221.5 "/>
<text text-anchor="start" x="679" y="-209.5" font-family="SegoeUI" font-size="10.00">+ PointerNameStub</text>
<text text-anchor="start" x="679" y="-198.5" font-family="SegoeUI" font-size="10.00">&#45; touchPadButtons</text>
<text text-anchor="start" x="679" y="-187.5" font-family="SegoeUI" font-size="10.00">&#45; triggerButtons</text>
<polyline fill="none" stroke="black" points="671,-180.5 882,-180.5 "/>
<text text-anchor="start" x="679" y="-168.5" font-family="SegoeUI" font-size="10.00">+ Install()</text>
<text text-anchor="start" x="679" y="-157.5" font-family="SegoeUI" font-size="10.00">+ Install()</text>
<text text-anchor="start" x="679" y="-146.5" font-family="SegoeUI" font-size="10.00"># AddButton()</text>
<text text-anchor="start" x="679" y="-135.5" font-family="SegoeUI" font-size="10.00"># AddButton()</text>
</a>
</g>
</g>
<!-- Node5&#45;&gt;Node10 -->
<g id="edge10" class="edge"><title>Node5&#45;&gt;Node10</title>
<path fill="none" stroke="orange" d="M630.951,-321.392C653.316,-302.202 677.39,-281.544 699.395,-262.662"/>
<polygon fill="orange" stroke="orange" points="628.428,-318.946 623.118,-328.114 632.986,-324.258 628.428,-318.946"/>
<text text-anchor="middle" x="722" y="-289.5" font-family="SegoeUI" font-size="10.00"> &lt; Unary, KeyCode &gt;</text>
</g>
<!-- Node12 -->
<g id="node13" class="node"><title>Node12</title>
<g id="a_node13"><a xlink:href="../../d6/d27/class_juniper_1_1_unity_1_1_input_1_1_pointers_1_1_motion_1_1_abstract_motion_controller_configuration.html" target="_top" xlink:title=" ">
<polygon fill="white" stroke="black" points="900.5,-128.5 900.5,-262.5 1154.5,-262.5 1154.5,-128.5 900.5,-128.5"/>
<text text-anchor="start" x="908.5" y="-250.5" font-family="SegoeUI" font-size="10.00">Juniper.Unity.Input.Pointers.</text>
<text text-anchor="start" x="908.5" y="-239.5" font-family="SegoeUI" font-size="10.00">Motion.AbstractMotionControllerConfiguration</text>
<text text-anchor="middle" x="1027.5" y="-228.5" font-family="SegoeUI" font-size="10.00">&lt; InteractionSourceHandedness, WindowsMRButtons &gt;</text>
<polyline fill="none" stroke="black" points="900.5,-221.5 1154.5,-221.5 "/>
<text text-anchor="start" x="908.5" y="-209.5" font-family="SegoeUI" font-size="10.00">+ PointerNameStub</text>
<text text-anchor="start" x="908.5" y="-198.5" font-family="SegoeUI" font-size="10.00">&#45; touchPadButtons</text>
<text text-anchor="start" x="908.5" y="-187.5" font-family="SegoeUI" font-size="10.00">&#45; triggerButtons</text>
<polyline fill="none" stroke="black" points="900.5,-180.5 1154.5,-180.5 "/>
<text text-anchor="start" x="908.5" y="-168.5" font-family="SegoeUI" font-size="10.00">+ Install()</text>
<text text-anchor="start" x="908.5" y="-157.5" font-family="SegoeUI" font-size="10.00">+ Install()</text>
<text text-anchor="start" x="908.5" y="-146.5" font-family="SegoeUI" font-size="10.00"># AddButton()</text>
<text text-anchor="start" x="908.5" y="-135.5" font-family="SegoeUI" font-size="10.00"># AddButton()</text>
</a>
</g>
</g>
<!-- Node5&#45;&gt;Node12 -->
<g id="edge12" class="edge"><title>Node5&#45;&gt;Node12</title>
<path fill="none" stroke="orange" d="M632.814,-363.271C702.967,-338.227 804.606,-300.565 891.5,-263 894.395,-261.748 897.317,-260.468 900.258,-259.164"/>
<polygon fill="orange" stroke="orange" points="631.376,-360.067 623.129,-366.719 633.724,-366.662 631.376,-360.067"/>
<text text-anchor="start" x="844.5" y="-295" font-family="SegoeUI" font-size="10.00"> &lt; InteractionSourceHandedness,</text>
<text text-anchor="middle" x="916.5" y="-284" font-family="SegoeUI" font-size="10.00"> WindowsMRButtons &gt;</text>
</g>
<!-- Node7 -->
<g id="node8" class="node"><title>Node7</title>
<g id="a_node8"><a xlink:href="../../d4/d8f/class_juniper_1_1_unity_1_1_input_1_1_pointers_1_1_motion_1_1_vive_focus_motion_controller_configuration.html" target="_top" xlink:title=" ">
<polygon fill="white" stroke="black" points="238,-0.5 238,-90.5 399,-90.5 399,-0.5 238,-0.5"/>
<text text-anchor="start" x="246" y="-78.5" font-family="SegoeUI" font-size="10.00">Juniper.Unity.Input.Pointers.</text>
<text text-anchor="start" x="246" y="-67.5" font-family="SegoeUI" font-size="10.00">Motion.ViveFocusMotionController</text>
<text text-anchor="middle" x="318.5" y="-56.5" font-family="SegoeUI" font-size="10.00">Configuration</text>
<polyline fill="none" stroke="black" points="238,-49.5 399,-49.5 "/>
<text text-anchor="start" x="246" y="-37.5" font-family="SegoeUI" font-size="10.00">+ this[Hands hand]</text>
<polyline fill="none" stroke="black" points="238,-30.5 399,-30.5 "/>
<text text-anchor="start" x="246" y="-18.5" font-family="SegoeUI" font-size="10.00">+ ViveFocusMotionController</text>
<text text-anchor="start" x="246" y="-7.5" font-family="SegoeUI" font-size="10.00">Configuration()</text>
</a>
</g>
</g>
<!-- Node6&#45;&gt;Node7 -->
<g id="edge7" class="edge"><title>Node6&#45;&gt;Node7</title>
<path fill="none" stroke="midnightblue" d="M318.5,-118.074C318.5,-108.649 318.5,-99.277 318.5,-90.5698"/>
<polygon fill="none" stroke="midnightblue" points="315,-118.292 318.5,-128.292 322,-118.292 315,-118.292"/>
</g>
<!-- Node9 -->
<g id="node10" class="node"><title>Node9</title>
<g id="a_node10"><a xlink:href="../../df/da9/class_juniper_1_1_unity_1_1_input_1_1_pointers_1_1_motion_1_1_daydream_pointer_configuration.html" target="_top" xlink:title=" ">
<polygon fill="white" stroke="black" points="458,-11.5 458,-79.5 637,-79.5 637,-11.5 458,-11.5"/>
<text text-anchor="start" x="466" y="-67.5" font-family="SegoeUI" font-size="10.00">Juniper.Unity.Input.Pointers.</text>
<text text-anchor="middle" x="547.5" y="-56.5" font-family="SegoeUI" font-size="10.00">Motion.DaydreamPointerConfiguration</text>
<polyline fill="none" stroke="black" points="458,-49.5 637,-49.5 "/>
<text text-anchor="start" x="466" y="-37.5" font-family="SegoeUI" font-size="10.00">+ this[Hands hand]</text>
<polyline fill="none" stroke="black" points="458,-30.5 637,-30.5 "/>
<text text-anchor="start" x="466" y="-18.5" font-family="SegoeUI" font-size="10.00">+ DaydreamPointerConfiguration()</text>
</a>
</g>
</g>
<!-- Node8&#45;&gt;Node9 -->
<g id="edge9" class="edge"><title>Node8&#45;&gt;Node9</title>
<path fill="none" stroke="midnightblue" d="M547.5,-118.03C547.5,-104.6 547.5,-91.2788 547.5,-79.838"/>
<polygon fill="none" stroke="midnightblue" points="544,-118.292 547.5,-128.292 551,-118.292 544,-118.292"/>
</g>
<!-- Node11 -->
<g id="node12" class="node"><title>Node11</title>
<g id="a_node12"><a xlink:href="../../d8/d2e/class_juniper_1_1_unity_1_1_input_1_1_pointers_1_1_motion_1_1_no_motion_controller_configuration.html" target="_top" xlink:title=" ">
<polygon fill="white" stroke="black" points="683,-11.5 683,-79.5 870,-79.5 870,-11.5 683,-11.5"/>
<text text-anchor="start" x="691" y="-67.5" font-family="SegoeUI" font-size="10.00">Juniper.Unity.Input.Pointers.</text>
<text text-anchor="middle" x="776.5" y="-56.5" font-family="SegoeUI" font-size="10.00">Motion.NoMotionControllerConfiguration</text>
<polyline fill="none" stroke="black" points="683,-49.5 870,-49.5 "/>
<text text-anchor="start" x="691" y="-37.5" font-family="SegoeUI" font-size="10.00">+ this[Hands hand]</text>
<polyline fill="none" stroke="black" points="683,-30.5 870,-30.5 "/>
<text text-anchor="middle" x="776.5" y="-18.5" font-family="SegoeUI" font-size="10.00"> </text>
</a>
</g>
</g>
<!-- Node10&#45;&gt;Node11 -->
<g id="edge11" class="edge"><title>Node10&#45;&gt;Node11</title>
<path fill="none" stroke="midnightblue" d="M776.5,-118.03C776.5,-104.6 776.5,-91.2788 776.5,-79.838"/>
<polygon fill="none" stroke="midnightblue" points="773,-118.292 776.5,-128.292 780,-118.292 773,-118.292"/>
</g>
<!-- Node13 -->
<g id="node14" class="node"><title>Node13</title>
<g id="a_node14"><a xlink:href="../../dd/d5e/class_juniper_1_1_unity_1_1_input_1_1_pointers_1_1_motion_1_1_windows_m_r_motion_controller_configuration.html" target="_top" xlink:title=" ">
<polygon fill="white" stroke="black" points="942,-0.5 942,-90.5 1113,-90.5 1113,-0.5 942,-0.5"/>
<text text-anchor="start" x="950" y="-78.5" font-family="SegoeUI" font-size="10.00">Juniper.Unity.Input.Pointers.</text>
<text text-anchor="start" x="950" y="-67.5" font-family="SegoeUI" font-size="10.00">Motion.WindowsMRMotionController</text>
<text text-anchor="middle" x="1027.5" y="-56.5" font-family="SegoeUI" font-size="10.00">Configuration</text>
<polyline fill="none" stroke="black" points="942,-49.5 1113,-49.5 "/>
<text text-anchor="start" x="950" y="-37.5" font-family="SegoeUI" font-size="10.00">+ this[Hands hand]</text>
<polyline fill="none" stroke="black" points="942,-30.5 1113,-30.5 "/>
<text text-anchor="start" x="950" y="-18.5" font-family="SegoeUI" font-size="10.00">+ WindowsMRMotionController</text>
<text text-anchor="start" x="950" y="-7.5" font-family="SegoeUI" font-size="10.00">Configuration()</text>
</a>
</g>
</g>
<!-- Node12&#45;&gt;Node13 -->
<g id="edge13" class="edge"><title>Node12&#45;&gt;Node13</title>
<path fill="none" stroke="midnightblue" d="M1027.5,-118.074C1027.5,-108.649 1027.5,-99.277 1027.5,-90.5698"/>
<polygon fill="none" stroke="midnightblue" points="1024,-118.292 1027.5,-128.292 1031,-118.292 1024,-118.292"/>
</g>
</g>
</svg>
        <g id="navigator" transform="translate(0 0)" fill="#404254">
                <rect fill="#f2f5e9" fill-opacity="0.5" stroke="#606060" stroke-width=".5" x="0" y="0" width="60" height="60"/>
                <use id="zoomplus" xlink:href="#zoomPlus" x="17" y="9" onmousedown="handleZoom(evt,'in')"/>
                <use id="zoomminus" xlink:href="#zoomMin" x="42" y="9" onmousedown="handleZoom(evt,'out')"/>
                <use id="reset" xlink:href="#resetDef" x="30" y="36" onmousedown="handleReset()"/>
                <g id="arrowUp" xlink:href="#dirArrow" transform="translate(30 24)" onmousedown="handlePan(0,-1)">
                  <use xlink:href="#rim" fill="#404040">
                        <set attributeName="fill" to="#808080" begin="arrowUp.mouseover" end="arrowUp.mouseout"/>
                  </use>
                  <path fill="none" stroke="white" stroke-width="1.5" d="M0,-3.0v7 M-2.5,-0.5L0,-3.0L2.5,-0.5"/>
                </g>
                <g id="arrowRight" xlink:href="#dirArrow" transform="rotate(90) translate(36 -43)" onmousedown="handlePan(1,0)">
                  <use xlink:href="#rim" fill="#404040">
                        <set attributeName="fill" to="#808080" begin="arrowRight.mouseover" end="arrowRight.mouseout"/>
                  </use>
                  <path fill="none" stroke="white" stroke-width="1.5" d="M0,-3.0v7 M-2.5,-0.5L0,-3.0L2.5,-0.5"/>
                </g>
                <g id="arrowDown" xlink:href="#dirArrow" transform="rotate(180) translate(-30 -48)" onmousedown="handlePan(0,1)">
                  <use xlink:href="#rim" fill="#404040">
                        <set attributeName="fill" to="#808080" begin="arrowDown.mouseover" end="arrowDown.mouseout"/>
                  </use>
                  <path fill="none" stroke="white" stroke-width="1.5" d="M0,-3.0v7 M-2.5,-0.5L0,-3.0L2.5,-0.5"/>
                </g>
                <g id="arrowLeft" xlink:href="#dirArrow" transform="rotate(270) translate(-36 17)" onmousedown="handlePan(-1,0)">
                  <use xlink:href="#rim" fill="#404040">
                        <set attributeName="fill" to="#808080" begin="arrowLeft.mouseover" end="arrowLeft.mouseout"/>
                  </use>
                  <path fill="none" stroke="white" stroke-width="1.5" d="M0,-3.0v7 M-2.5,-0.5L0,-3.0L2.5,-0.5"/>
                </g>
        </g>
        <svg viewBox="0 0 15 15" width="100%" height="30px" preserveAspectRatio="xMaxYMin meet">
         <g id="arrow_out" transform="scale(0.3 0.3)">
          <a xlink:href="class_juniper_1_1_unity_1_1_input_1_1_pointers_1_1_motion_1_1_abstract_handed_pointer_configuration__inherit__graph_org.svg" target="_base">
           <rect id="button" ry="5" rx="5" y="6" x="6" height="38" width="38"
                fill="#f2f5e9" fill-opacity="0.5" stroke="#606060" stroke-width="1.0"/>
           <path id="arrow"
             d="M 11.500037,31.436501 C 11.940474,20.09759 22.043105,11.32322 32.158766,21.979434 L 37.068811,17.246167 C 37.068811,17.246167 37.088388,32 37.088388,32 L 22.160133,31.978069 C 22.160133,31.978069 26.997745,27.140456 26.997745,27.140456 C 18.528582,18.264221 13.291696,25.230495 11.500037,31.436501 z"
             style="fill:#404040;"/>
          </a>
         </g>
        </svg>
</svg>
