<?xml version="1.0" encoding="UTF-8" standalone="no"?>
<!DOCTYPE svg PUBLIC "-//W3C//DTD SVG 1.1//EN"
 "http://www.w3.org/Graphics/SVG/1.1/DTD/svg11.dtd">
<!-- Generated by graphviz version 2.38.0 (20140413.2041)
 -->
<!-- Title: Juniper.World.LightEstimation.LightMeasurement Pages: 1 -->
<!--zoomable 568 -->
<svg id="main" version="1.1" xmlns="http://www.w3.org/2000/svg" xmlns:xlink="http://www.w3.org/1999/xlink" xml:space="preserve" onload="init(evt)">
<style type="text/css"><![CDATA[
.edge:hover path { stroke: red; }
.edge:hover polygon { stroke: red; fill: red; }
]]></style>
<script type="text/javascript"><![CDATA[
var edges = document.getElementsByTagName('g');
if (edges && edges.length) {
  for (var i=0;i<edges.length;i++) {
    if (edges[i].id.substr(0,4)=='edge') {
      edges[i].setAttribute('class','edge');
    }
  }
}
]]></script>
        <defs>
                <circle id="rim" cx="0" cy="0" r="7"/>
                <circle id="rim2" cx="0" cy="0" r="3.5"/>
                <g id="zoomPlus">
                        <use xlink:href="#rim" fill="#404040">
                                <set attributeName="fill" to="#808080" begin="zoomplus.mouseover" end="zoomplus.mouseout"/>
                        </use>
                        <path d="M-4,0h8M0,-4v8" fill="none" stroke="white" stroke-width="1.5" pointer-events="none"/>
                </g>
                <g id="zoomMin">
                        <use xlink:href="#rim" fill="#404040">
                                <set attributeName="fill" to="#808080" begin="zoomminus.mouseover" end="zoomminus.mouseout"/>
                        </use>
                        <path d="M-4,0h8" fill="none" stroke="white" stroke-width="1.5" pointer-events="none"/>
                </g>
                <g id="dirArrow">
                        <path fill="none" stroke="white" stroke-width="1.5" d="M0,-3.0v7 M-2.5,-0.5L0,-3.0L2.5,-0.5"/>
                </g>
               <g id="resetDef">
                       <use xlink:href="#rim2" fill="#404040">
                               <set attributeName="fill" to="#808080" begin="reset.mouseover" end="reset.mouseout"/>
                       </use>
               </g>
        </defs>

<script type="text/javascript">
var viewWidth = 178;
var viewHeight = 568;
var sectionId = 'dynsection-1';
</script>
<script xlink:href="../../svgpan.js"/>
<svg id="graph" class="graph">
<g id="viewport">
<title>Juniper.World.LightEstimation.LightMeasurement</title>
<polygon fill="white" stroke="none" points="-4,4 -4,-564 173.5,-564 173.5,4 -4,4"/>
<!-- Node5 -->
<g id="node1" class="node"><title>Node5</title>
<g id="a_node1"><a xlink:title="Abstracts the measurement of light intensity from camera frames for Augmented Reality Light Estimatio...">
<polygon fill="#bfbfbf" stroke="black" points="15,-0.5 15,-68.5 161,-68.5 161,-0.5 15,-0.5"/>
<text text-anchor="start" x="23" y="-56.5" font-family="SegoeUI" font-size="10.00">Juniper.World.LightEstimation.</text>
<text text-anchor="middle" x="88" y="-45.5" font-family="SegoeUI" font-size="10.00">LightMeasurement</text>
<polyline fill="none" stroke="black" points="15,-38.5 161,-38.5 "/>
<text text-anchor="middle" x="88" y="-26.5" font-family="SegoeUI" font-size="10.00"> </text>
<polyline fill="none" stroke="black" points="15,-19.5 161,-19.5 "/>
<text text-anchor="middle" x="88" y="-7.5" font-family="SegoeUI" font-size="10.00"> </text>
</a>
</g>
</g>
<!-- Node6 -->
<g id="node2" class="node"><title>Node6</title>
<g id="a_node2"><a xlink:href="../../d6/d83/class_juniper_1_1_world_1_1_light_estimation_1_1_a_r_kit_light_measurement.html" target="_top" xlink:title=" ">
<polygon fill="white" stroke="black" points="11,-105.5 11,-184.5 165,-184.5 165,-105.5 11,-105.5"/>
<text text-anchor="middle" x="88" y="-172.5" font-family="SegoeUI" font-size="10.00">ARKitLightMeasurement</text>
<polyline fill="none" stroke="black" points="11,-165.5 165,-165.5 "/>
<text text-anchor="middle" x="88" y="-153.5" font-family="SegoeUI" font-size="10.00"> </text>
<polyline fill="none" stroke="black" points="11,-146.5 165,-146.5 "/>
<text text-anchor="start" x="19" y="-134.5" font-family="SegoeUI" font-size="10.00">&#45; Start()</text>
<text text-anchor="start" x="19" y="-123.5" font-family="SegoeUI" font-size="10.00">&#45; UnityARSessionNativeInterface</text>
<text text-anchor="start" x="19" y="-112.5" font-family="SegoeUI" font-size="10.00">_ARFrameUpdatedEvent()</text>
</a>
</g>
</g>
<!-- Node6&#45;&gt;Node5 -->
<g id="edge1" class="edge"><title>Node6&#45;&gt;Node5</title>
<path fill="none" stroke="midnightblue" d="M88,-95.3492C88,-86.2824 88,-77.0048 88,-68.5439"/>
<polygon fill="none" stroke="midnightblue" points="84.5001,-95.4414 88,-105.441 91.5001,-95.4415 84.5001,-95.4414"/>
</g>
<!-- Node7 -->
<g id="node3" class="node"><title>Node7</title>
<g id="a_node3"><a xlink:href="../../d0/d88/class_juniper_1_1_world_1_1_light_estimation_1_1_abstract_light_measurement.html" target="_top" xlink:title=" ">
<polygon fill="white" stroke="black" points="22.5,-221.5 22.5,-443.5 153.5,-443.5 153.5,-221.5 22.5,-221.5"/>
<text text-anchor="middle" x="88" y="-431.5" font-family="SegoeUI" font-size="10.00">AbstractLightMeasurement</text>
<polyline fill="none" stroke="black" points="22.5,-424.5 153.5,-424.5 "/>
<text text-anchor="start" x="30.5" y="-412.5" font-family="SegoeUI" font-size="10.00">+ useFake</text>
<text text-anchor="start" x="30.5" y="-401.5" font-family="SegoeUI" font-size="10.00">+ Intensity</text>
<text text-anchor="start" x="30.5" y="-390.5" font-family="SegoeUI" font-size="10.00">+ Color</text>
<text text-anchor="start" x="30.5" y="-379.5" font-family="SegoeUI" font-size="10.00">+ DebugReport</text>
<text text-anchor="start" x="30.5" y="-368.5" font-family="SegoeUI" font-size="10.00">+ UseFakeIntensity</text>
<text text-anchor="start" x="30.5" y="-357.5" font-family="SegoeUI" font-size="10.00">+ ColorEstimate</text>
<text text-anchor="start" x="30.5" y="-346.5" font-family="SegoeUI" font-size="10.00">+ IntensityEstimate</text>
<text text-anchor="start" x="30.5" y="-335.5" font-family="SegoeUI" font-size="10.00"># lastIntensity</text>
<text text-anchor="start" x="30.5" y="-324.5" font-family="SegoeUI" font-size="10.00"># lastColor</text>
<polyline fill="none" stroke="black" points="22.5,-317.5 153.5,-317.5 "/>
<text text-anchor="start" x="30.5" y="-305.5" font-family="SegoeUI" font-size="10.00">+ Awake()</text>
<text text-anchor="start" x="30.5" y="-294.5" font-family="SegoeUI" font-size="10.00">+ Reinstall()</text>
<text text-anchor="start" x="30.5" y="-283.5" font-family="SegoeUI" font-size="10.00">+ Install()</text>
<text text-anchor="start" x="30.5" y="-272.5" font-family="SegoeUI" font-size="10.00">+ Uninstall()</text>
<text text-anchor="start" x="30.5" y="-261.5" font-family="SegoeUI" font-size="10.00">+ Update()</text>
<text text-anchor="start" x="30.5" y="-250.5" font-family="SegoeUI" font-size="10.00"># UpdateMeasurement()</text>
<text text-anchor="start" x="30.5" y="-239.5" font-family="SegoeUI" font-size="10.00"># PrintDebugReport()</text>
<text text-anchor="start" x="30.5" y="-228.5" font-family="SegoeUI" font-size="10.00">&#45; SetFakeValues()</text>
</a>
</g>
</g>
<!-- Node7&#45;&gt;Node6 -->
<g id="edge2" class="edge"><title>Node7&#45;&gt;Node6</title>
<path fill="none" stroke="midnightblue" d="M88,-211.427C88,-201.936 88,-192.865 88,-184.661"/>
<polygon fill="none" stroke="midnightblue" points="84.5001,-211.45 88,-221.45 91.5001,-211.45 84.5001,-211.45"/>
</g>
<!-- Node8 -->
<g id="node4" class="node"><title>Node8</title>
<g id="a_node4"><a xlink:title=" ">
<polygon fill="white" stroke="#bfbfbf" points="0,-491.5 0,-548.5 82,-548.5 82,-491.5 0,-491.5"/>
<text text-anchor="middle" x="41" y="-536.5" font-family="SegoeUI" font-size="10.00">MonoBehaviour</text>
<polyline fill="none" stroke="#bfbfbf" points="0,-529.5 82,-529.5 "/>
<text text-anchor="middle" x="41" y="-517.5" font-family="SegoeUI" font-size="10.00"> </text>
<polyline fill="none" stroke="#bfbfbf" points="0,-510.5 82,-510.5 "/>
<text text-anchor="middle" x="41" y="-498.5" font-family="SegoeUI" font-size="10.00"> </text>
</a>
</g>
</g>
<!-- Node8&#45;&gt;Node7 -->
<g id="edge3" class="edge"><title>Node8&#45;&gt;Node7</title>
<path fill="none" stroke="midnightblue" d="M50.5346,-481.369C53.3973,-470.07 56.6938,-457.06 60.1191,-443.541"/>
<polygon fill="none" stroke="midnightblue" points="47.0997,-480.675 48.0364,-491.229 53.8853,-482.395 47.0997,-480.675"/>
</g>
<!-- Node9 -->
<g id="node5" class="node"><title>Node9</title>
<g id="a_node5"><a xlink:href="../../db/d28/interface_juniper_1_1_i_installable.html" target="_top" xlink:title="Defines an interface for objects that can be installed and have their installation progress tracked.">
<polygon fill="white" stroke="black" points="100.5,-480.5 100.5,-559.5 169.5,-559.5 169.5,-480.5 100.5,-480.5"/>
<text text-anchor="middle" x="135" y="-547.5" font-family="SegoeUI" font-size="10.00">IInstallable</text>
<polyline fill="none" stroke="black" points="100.5,-540.5 169.5,-540.5 "/>
<text text-anchor="middle" x="135" y="-528.5" font-family="SegoeUI" font-size="10.00"> </text>
<polyline fill="none" stroke="black" points="100.5,-521.5 169.5,-521.5 "/>
<text text-anchor="start" x="108.5" y="-509.5" font-family="SegoeUI" font-size="10.00">+ Install()</text>
<text text-anchor="start" x="108.5" y="-498.5" font-family="SegoeUI" font-size="10.00">+ Reinstall()</text>
<text text-anchor="start" x="108.5" y="-487.5" font-family="SegoeUI" font-size="10.00">+ Uninstall()</text>
</a>
</g>
</g>
<!-- Node9&#45;&gt;Node7 -->
<g id="edge4" class="edge"><title>Node9&#45;&gt;Node7</title>
<path fill="none" stroke="midnightblue" d="M122.652,-470.266C120.538,-461.92 118.266,-452.955 115.934,-443.752"/>
<polygon fill="none" stroke="midnightblue" points="119.298,-471.279 125.147,-480.113 126.084,-469.56 119.298,-471.279"/>
</g>
</g>
</svg>
        <g id="navigator" transform="translate(0 0)" fill="#404254">
                <rect fill="#f2f5e9" fill-opacity="0.5" stroke="#606060" stroke-width=".5" x="0" y="0" width="60" height="60"/>
                <use id="zoomplus" xlink:href="#zoomPlus" x="17" y="9" onmousedown="handleZoom(evt,'in')"/>
                <use id="zoomminus" xlink:href="#zoomMin" x="42" y="9" onmousedown="handleZoom(evt,'out')"/>
                <use id="reset" xlink:href="#resetDef" x="30" y="36" onmousedown="handleReset()"/>
                <g id="arrowUp" xlink:href="#dirArrow" transform="translate(30 24)" onmousedown="handlePan(0,-1)">
                  <use xlink:href="#rim" fill="#404040">
                        <set attributeName="fill" to="#808080" begin="arrowUp.mouseover" end="arrowUp.mouseout"/>
                  </use>
                  <path fill="none" stroke="white" stroke-width="1.5" d="M0,-3.0v7 M-2.5,-0.5L0,-3.0L2.5,-0.5"/>
                </g>
                <g id="arrowRight" xlink:href="#dirArrow" transform="rotate(90) translate(36 -43)" onmousedown="handlePan(1,0)">
                  <use xlink:href="#rim" fill="#404040">
                        <set attributeName="fill" to="#808080" begin="arrowRight.mouseover" end="arrowRight.mouseout"/>
                  </use>
                  <path fill="none" stroke="white" stroke-width="1.5" d="M0,-3.0v7 M-2.5,-0.5L0,-3.0L2.5,-0.5"/>
                </g>
                <g id="arrowDown" xlink:href="#dirArrow" transform="rotate(180) translate(-30 -48)" onmousedown="handlePan(0,1)">
                  <use xlink:href="#rim" fill="#404040">
                        <set attributeName="fill" to="#808080" begin="arrowDown.mouseover" end="arrowDown.mouseout"/>
                  </use>
                  <path fill="none" stroke="white" stroke-width="1.5" d="M0,-3.0v7 M-2.5,-0.5L0,-3.0L2.5,-0.5"/>
                </g>
                <g id="arrowLeft" xlink:href="#dirArrow" transform="rotate(270) translate(-36 17)" onmousedown="handlePan(-1,0)">
                  <use xlink:href="#rim" fill="#404040">
                        <set attributeName="fill" to="#808080" begin="arrowLeft.mouseover" end="arrowLeft.mouseout"/>
                  </use>
                  <path fill="none" stroke="white" stroke-width="1.5" d="M0,-3.0v7 M-2.5,-0.5L0,-3.0L2.5,-0.5"/>
                </g>
        </g>
        <svg viewBox="0 0 15 15" width="100%" height="30px" preserveAspectRatio="xMaxYMin meet">
         <g id="arrow_out" transform="scale(0.3 0.3)">
          <a xlink:href="class_juniper_1_1_world_1_1_light_estimation_1_1_light_measurement__coll__graph_org.svg" target="_base">
           <rect id="button" ry="5" rx="5" y="6" x="6" height="38" width="38"
                fill="#f2f5e9" fill-opacity="0.5" stroke="#606060" stroke-width="1.0"/>
           <path id="arrow"
             d="M 11.500037,31.436501 C 11.940474,20.09759 22.043105,11.32322 32.158766,21.979434 L 37.068811,17.246167 C 37.068811,17.246167 37.088388,32 37.088388,32 L 22.160133,31.978069 C 22.160133,31.978069 26.997745,27.140456 26.997745,27.140456 C 18.528582,18.264221 13.291696,25.230495 11.500037,31.436501 z"
             style="fill:#404040;"/>
          </a>
         </g>
        </svg>
</svg>
