<?xml version="1.0" encoding="UTF-8" standalone="no"?>
<!DOCTYPE svg PUBLIC "-//W3C//DTD SVG 1.1//EN"
 "http://www.w3.org/Graphics/SVG/1.1/DTD/svg11.dtd">
<!-- Generated by graphviz version 2.38.0 (20140413.2041)
 -->
<!-- Title: Juniper.Widgets.ListViewItem Pages: 1 -->
<svg width="151pt" height="314pt"
 viewBox="0.00 0.00 151.00 314.00" xmlns="http://www.w3.org/2000/svg" xmlns:xlink="http://www.w3.org/1999/xlink">
<g id="graph0" class="graph" transform="scale(1 1) rotate(0) translate(4 310)">
<title>Juniper.Widgets.ListViewItem</title>
<polygon fill="white" stroke="none" points="-4,4 -4,-310 147,-310 147,4 -4,4"/>
<!-- Node0 -->
<g id="node1" class="node"><title>Node0</title>
<g id="a_node1"><a xlink:title=" ">
<polygon fill="#bfbfbf" stroke="black" points="0,-0.5 0,-211.5 143,-211.5 143,-0.5 0,-0.5"/>
<text text-anchor="middle" x="71.5" y="-199.5" font-family="SegoeUI" font-size="10.00">Juniper.Widgets.ListViewItem</text>
<polyline fill="none" stroke="black" points="0,-192.5 143,-192.5 "/>
<text text-anchor="start" x="8" y="-180.5" font-family="SegoeUI" font-size="10.00">+ interactable</text>
<text text-anchor="start" x="8" y="-169.5" font-family="SegoeUI" font-size="10.00">+ normalColor</text>
<text text-anchor="start" x="8" y="-158.5" font-family="SegoeUI" font-size="10.00">+ disabledColor</text>
<text text-anchor="start" x="8" y="-147.5" font-family="SegoeUI" font-size="10.00">+ BackgroundColor</text>
<text text-anchor="start" x="8" y="-136.5" font-family="SegoeUI" font-size="10.00">+ Font</text>
<text text-anchor="start" x="8" y="-125.5" font-family="SegoeUI" font-size="10.00">+ FontSize</text>
<text text-anchor="start" x="8" y="-114.5" font-family="SegoeUI" font-size="10.00">+ Text</text>
<text text-anchor="start" x="8" y="-103.5" font-family="SegoeUI" font-size="10.00">+ Key</text>
<text text-anchor="start" x="8" y="-92.5" font-family="SegoeUI" font-size="10.00">+ DataItem</text>
<text text-anchor="start" x="8" y="-81.5" font-family="SegoeUI" font-size="10.00">&#45; img</text>
<text text-anchor="start" x="8" y="-70.5" font-family="SegoeUI" font-size="10.00">&#45; btn</text>
<text text-anchor="start" x="8" y="-59.5" font-family="SegoeUI" font-size="10.00">&#45; text</text>
<polyline fill="none" stroke="black" points="0,-52.5 143,-52.5 "/>
<text text-anchor="start" x="8" y="-40.5" font-family="SegoeUI" font-size="10.00">+ Update()</text>
<text text-anchor="start" x="8" y="-29.5" font-family="SegoeUI" font-size="10.00">+ Awake()</text>
<text text-anchor="start" x="8" y="-18.5" font-family="SegoeUI" font-size="10.00">+ RemoveAllListeners()</text>
<text text-anchor="start" x="8" y="-7.5" font-family="SegoeUI" font-size="10.00">+ AddListener()</text>
</a>
</g>
</g>
<!-- Node1 -->
<g id="node2" class="node"><title>Node1</title>
<g id="a_node2"><a xlink:title=" ">
<polygon fill="white" stroke="#bfbfbf" points="30.5,-248.5 30.5,-305.5 112.5,-305.5 112.5,-248.5 30.5,-248.5"/>
<text text-anchor="middle" x="71.5" y="-293.5" font-family="SegoeUI" font-size="10.00">MonoBehaviour</text>
<polyline fill="none" stroke="#bfbfbf" points="30.5,-286.5 112.5,-286.5 "/>
<text text-anchor="middle" x="71.5" y="-274.5" font-family="SegoeUI" font-size="10.00"> </text>
<polyline fill="none" stroke="#bfbfbf" points="30.5,-267.5 112.5,-267.5 "/>
<text text-anchor="middle" x="71.5" y="-255.5" font-family="SegoeUI" font-size="10.00"> </text>
</a>
</g>
</g>
<!-- Node1&#45;&gt;Node0 -->
<g id="edge1" class="edge"><title>Node1&#45;&gt;Node0</title>
<path fill="none" stroke="midnightblue" d="M71.5,-238.233C71.5,-230.038 71.5,-220.987 71.5,-211.584"/>
<polygon fill="none" stroke="midnightblue" points="68.0001,-238.471 71.5,-248.471 75.0001,-238.471 68.0001,-238.471"/>
</g>
</g>
</svg>
