<?xml version="1.0" encoding="UTF-8" standalone="no"?>
<!DOCTYPE svg PUBLIC "-//W3C//DTD SVG 1.1//EN"
 "http://www.w3.org/Graphics/SVG/1.1/DTD/svg11.dtd">
<!-- Generated by graphviz version 2.38.0 (20140413.2041)
 -->
<!-- Title: Juniper.World.LightEstimation.AbstractLightEstimate Pages: 1 -->
<svg width="318pt" height="606pt"
 viewBox="0.00 0.00 318.00 606.00" xmlns="http://www.w3.org/2000/svg" xmlns:xlink="http://www.w3.org/1999/xlink">
<g id="graph0" class="graph" transform="scale(1 1) rotate(0) translate(4 602)">
<title>Juniper.World.LightEstimation.AbstractLightEstimate</title>
<polygon fill="white" stroke="none" points="-4,4 -4,-602 314,-602 314,4 -4,4"/>
<!-- Node0 -->
<g id="node1" class="node"><title>Node0</title>
<g id="a_node1"><a xlink:title=" ">
<polygon fill="#bfbfbf" stroke="black" points="82,-215.5 82,-481.5 228,-481.5 228,-215.5 82,-215.5"/>
<text text-anchor="start" x="90" y="-469.5" font-family="SegoeUI" font-size="10.00">Juniper.World.LightEstimation.</text>
<text text-anchor="middle" x="155" y="-458.5" font-family="SegoeUI" font-size="10.00">AbstractLightEstimate</text>
<polyline fill="none" stroke="black" points="82,-451.5 228,-451.5 "/>
<text text-anchor="start" x="90" y="-439.5" font-family="SegoeUI" font-size="10.00">+ SetAmbientLight</text>
<text text-anchor="start" x="90" y="-428.5" font-family="SegoeUI" font-size="10.00">+ ambientScale</text>
<text text-anchor="start" x="90" y="-417.5" font-family="SegoeUI" font-size="10.00">+ SetDirectionalLight</text>
<text text-anchor="start" x="90" y="-406.5" font-family="SegoeUI" font-size="10.00">+ directionalScale</text>
<text text-anchor="start" x="90" y="-395.5" font-family="SegoeUI" font-size="10.00">+ shadowScale</text>
<text text-anchor="start" x="90" y="-384.5" font-family="SegoeUI" font-size="10.00">+ CloudCoverScale</text>
<text text-anchor="start" x="90" y="-373.5" font-family="SegoeUI" font-size="10.00">+ DebugReport</text>
<text text-anchor="start" x="90" y="-362.5" font-family="SegoeUI" font-size="10.00">+ CloudCover</text>
<text text-anchor="start" x="90" y="-351.5" font-family="SegoeUI" font-size="10.00">+ HasSunRotation</text>
<text text-anchor="start" x="90" y="-340.5" font-family="SegoeUI" font-size="10.00">+ SunRotation</text>
<text text-anchor="start" x="90" y="-329.5" font-family="SegoeUI" font-size="10.00"># sun</text>
<text text-anchor="start" x="90" y="-318.5" font-family="SegoeUI" font-size="10.00"># measurement</text>
<text text-anchor="start" x="90" y="-307.5" font-family="SegoeUI" font-size="10.00"># overhead</text>
<polyline fill="none" stroke="black" points="82,-300.5 228,-300.5 "/>
<text text-anchor="start" x="90" y="-288.5" font-family="SegoeUI" font-size="10.00">+ Awake()</text>
<text text-anchor="start" x="90" y="-277.5" font-family="SegoeUI" font-size="10.00">+ Reinstall()</text>
<text text-anchor="start" x="90" y="-266.5" font-family="SegoeUI" font-size="10.00">+ Install()</text>
<text text-anchor="start" x="90" y="-255.5" font-family="SegoeUI" font-size="10.00">+ Uninstall()</text>
<text text-anchor="start" x="90" y="-244.5" font-family="SegoeUI" font-size="10.00"># RampIntensity()</text>
<text text-anchor="start" x="90" y="-233.5" font-family="SegoeUI" font-size="10.00"># Update()</text>
<text text-anchor="start" x="90" y="-222.5" font-family="SegoeUI" font-size="10.00">&#45; PrintDebugReport()</text>
</a>
</g>
</g>
<!-- Node3 -->
<g id="node4" class="node"><title>Node3</title>
<g id="a_node4"><a xlink:href="../../d3/d32/class_juniper_1_1_world_1_1_light_estimation_1_1_indoor_light_estimate.html" target="_top" xlink:title="Uses the AR subsystem&#39;s light estimation values to modify the current ambient and directional light s...">
<polygon fill="white" stroke="black" points="0,-44.5 0,-134.5 146,-134.5 146,-44.5 0,-44.5"/>
<text text-anchor="start" x="8" y="-122.5" font-family="SegoeUI" font-size="10.00">Juniper.World.LightEstimation.</text>
<text text-anchor="middle" x="73" y="-111.5" font-family="SegoeUI" font-size="10.00">IndoorLightEstimate</text>
<polyline fill="none" stroke="black" points="0,-104.5 146,-104.5 "/>
<text text-anchor="start" x="8" y="-92.5" font-family="SegoeUI" font-size="10.00">+ CloudCover</text>
<text text-anchor="start" x="8" y="-81.5" font-family="SegoeUI" font-size="10.00">+ HasSunRotation</text>
<text text-anchor="start" x="8" y="-70.5" font-family="SegoeUI" font-size="10.00">+ SunRotation</text>
<polyline fill="none" stroke="black" points="0,-63.5 146,-63.5 "/>
<text text-anchor="middle" x="73" y="-51.5" font-family="SegoeUI" font-size="10.00"> </text>
</a>
</g>
</g>
<!-- Node0&#45;&gt;Node3 -->
<g id="edge3" class="edge"><title>Node0&#45;&gt;Node3</title>
<path fill="none" stroke="midnightblue" d="M109.753,-205.689C101.506,-179.842 93.4911,-154.722 87.0617,-134.571"/>
<polygon fill="none" stroke="midnightblue" points="106.425,-206.773 112.799,-215.236 113.094,-204.645 106.425,-206.773"/>
</g>
<!-- Node4 -->
<g id="node5" class="node"><title>Node4</title>
<g id="a_node5"><a xlink:href="../../d6/df6/class_juniper_1_1_world_1_1_light_estimation_1_1_outdoor_light_estimate.html" target="_top" xlink:title="Modifies the base light estimate to include cloud cover values retrieved from a weather reporting ser...">
<polygon fill="white" stroke="black" points="164,-0.5 164,-178.5 310,-178.5 310,-0.5 164,-0.5"/>
<text text-anchor="start" x="172" y="-166.5" font-family="SegoeUI" font-size="10.00">Juniper.World.LightEstimation.</text>
<text text-anchor="middle" x="237" y="-155.5" font-family="SegoeUI" font-size="10.00">OutdoorLightEstimate</text>
<polyline fill="none" stroke="black" points="164,-148.5 310,-148.5 "/>
<text text-anchor="start" x="172" y="-136.5" font-family="SegoeUI" font-size="10.00">+ weather</text>
<text text-anchor="start" x="172" y="-125.5" font-family="SegoeUI" font-size="10.00">+ CloudCover</text>
<text text-anchor="start" x="172" y="-114.5" font-family="SegoeUI" font-size="10.00">+ HasCloudCover</text>
<text text-anchor="start" x="172" y="-103.5" font-family="SegoeUI" font-size="10.00">+ HasSunRotation</text>
<text text-anchor="start" x="172" y="-92.5" font-family="SegoeUI" font-size="10.00">+ SunRotation</text>
<text text-anchor="start" x="172" y="-81.5" font-family="SegoeUI" font-size="10.00">+ IsNight</text>
<text text-anchor="start" x="172" y="-70.5" font-family="SegoeUI" font-size="10.00">&#45; isNight</text>
<text text-anchor="start" x="172" y="-59.5" font-family="SegoeUI" font-size="10.00">&#45; sunPosition</text>
<polyline fill="none" stroke="black" points="164,-52.5 310,-52.5 "/>
<text text-anchor="start" x="172" y="-40.5" font-family="SegoeUI" font-size="10.00">+ Install()</text>
<text text-anchor="start" x="172" y="-29.5" font-family="SegoeUI" font-size="10.00">+ Awake()</text>
<text text-anchor="start" x="172" y="-18.5" font-family="SegoeUI" font-size="10.00"># Update()</text>
<text text-anchor="start" x="172" y="-7.5" font-family="SegoeUI" font-size="10.00">&#45; PrintDebugReport()</text>
</a>
</g>
</g>
<!-- Node0&#45;&gt;Node4 -->
<g id="edge4" class="edge"><title>Node0&#45;&gt;Node4</title>
<path fill="none" stroke="midnightblue" d="M200.261,-205.645C203.19,-196.467 206.089,-187.38 208.898,-178.575"/>
<polygon fill="none" stroke="midnightblue" points="196.906,-204.645 197.201,-215.236 203.575,-206.773 196.906,-204.645"/>
</g>
<!-- Node1 -->
<g id="node2" class="node"><title>Node1</title>
<g id="a_node2"><a xlink:title=" ">
<polygon fill="white" stroke="#bfbfbf" points="67,-529.5 67,-586.5 149,-586.5 149,-529.5 67,-529.5"/>
<text text-anchor="middle" x="108" y="-574.5" font-family="SegoeUI" font-size="10.00">MonoBehaviour</text>
<polyline fill="none" stroke="#bfbfbf" points="67,-567.5 149,-567.5 "/>
<text text-anchor="middle" x="108" y="-555.5" font-family="SegoeUI" font-size="10.00"> </text>
<polyline fill="none" stroke="#bfbfbf" points="67,-548.5 149,-548.5 "/>
<text text-anchor="middle" x="108" y="-536.5" font-family="SegoeUI" font-size="10.00"> </text>
</a>
</g>
</g>
<!-- Node1&#45;&gt;Node0 -->
<g id="edge1" class="edge"><title>Node1&#45;&gt;Node0</title>
<path fill="none" stroke="midnightblue" d="M116.459,-519.655C119.006,-508.412 121.959,-495.373 125.075,-481.614"/>
<polygon fill="none" stroke="midnightblue" points="113.037,-518.919 114.241,-529.446 119.864,-520.466 113.037,-518.919"/>
</g>
<!-- Node2 -->
<g id="node3" class="node"><title>Node2</title>
<g id="a_node3"><a xlink:href="../../d7/dbe/interface_juniper_1_1_i_o_1_1_i_installable.html" target="_top" xlink:title="Defines an interface for objects that can be installed and have their installation progress tracked.">
<polygon fill="white" stroke="black" points="167.5,-518.5 167.5,-597.5 236.5,-597.5 236.5,-518.5 167.5,-518.5"/>
<text text-anchor="middle" x="202" y="-585.5" font-family="SegoeUI" font-size="10.00">IInstallable</text>
<polyline fill="none" stroke="black" points="167.5,-578.5 236.5,-578.5 "/>
<text text-anchor="middle" x="202" y="-566.5" font-family="SegoeUI" font-size="10.00"> </text>
<polyline fill="none" stroke="black" points="167.5,-559.5 236.5,-559.5 "/>
<text text-anchor="start" x="175.5" y="-547.5" font-family="SegoeUI" font-size="10.00">+ Install()</text>
<text text-anchor="start" x="175.5" y="-536.5" font-family="SegoeUI" font-size="10.00">+ Reinstall()</text>
<text text-anchor="start" x="175.5" y="-525.5" font-family="SegoeUI" font-size="10.00">+ Uninstall()</text>
</a>
</g>
</g>
<!-- Node2&#45;&gt;Node0 -->
<g id="edge2" class="edge"><title>Node2&#45;&gt;Node0</title>
<path fill="none" stroke="midnightblue" d="M191.042,-508.623C189.15,-500.267 187.103,-491.232 184.98,-481.86"/>
<polygon fill="none" stroke="midnightblue" points="187.647,-509.477 193.27,-518.457 194.474,-507.931 187.647,-509.477"/>
</g>
</g>
</svg>
