<?xml version="1.0" encoding="UTF-8" standalone="no"?>
<!DOCTYPE svg PUBLIC "-//W3C//DTD SVG 1.1//EN"
 "http://www.w3.org/Graphics/SVG/1.1/DTD/svg11.dtd">
<!-- Generated by graphviz version 2.38.0 (20140413.2041)
 -->
<!-- Title: Hjg.Pngcs.Chunks.PngChunkTIME Pages: 1 -->
<svg width="167pt" height="779pt"
 viewBox="0.00 0.00 167.00 779.00" xmlns="http://www.w3.org/2000/svg" xmlns:xlink="http://www.w3.org/1999/xlink">
<g id="graph0" class="graph" transform="scale(1 1) rotate(0) translate(4 775)">
<title>Hjg.Pngcs.Chunks.PngChunkTIME</title>
<polygon fill="white" stroke="none" points="-4,4 -4,-775 163,-775 163,4 -4,4"/>
<!-- Node3 -->
<g id="node1" class="node"><title>Node3</title>
<g id="a_node1"><a xlink:title="tIME chunk: http://www.w3.org/TR/PNG/#11tIME">
<polygon fill="#bfbfbf" stroke="black" points="0,-0.5 0,-167.5 159,-167.5 159,-0.5 0,-0.5"/>
<text text-anchor="middle" x="79.5" y="-155.5" font-family="SegoeUI" font-size="10.00">Hjg.Pngcs.Chunks.PngChunkTIME</text>
<polyline fill="none" stroke="black" points="0,-148.5 159,-148.5 "/>
<text text-anchor="start" x="8" y="-136.5" font-family="SegoeUI" font-size="10.00">+ ID</text>
<text text-anchor="start" x="8" y="-125.5" font-family="SegoeUI" font-size="10.00">&#45; timestamp</text>
<polyline fill="none" stroke="black" points="0,-118.5 159,-118.5 "/>
<text text-anchor="start" x="8" y="-106.5" font-family="SegoeUI" font-size="10.00">+ PngChunkTIME()</text>
<text text-anchor="start" x="8" y="-95.5" font-family="SegoeUI" font-size="10.00">+ GetOrderingConstraint()</text>
<text text-anchor="start" x="8" y="-84.5" font-family="SegoeUI" font-size="10.00">+ CreateRawChunk()</text>
<text text-anchor="start" x="8" y="-73.5" font-family="SegoeUI" font-size="10.00">+ ParseFromRaw()</text>
<text text-anchor="start" x="8" y="-62.5" font-family="SegoeUI" font-size="10.00">+ CloneDataFromRead()</text>
<text text-anchor="start" x="8" y="-51.5" font-family="SegoeUI" font-size="10.00">+ SetNow()</text>
<text text-anchor="start" x="8" y="-40.5" font-family="SegoeUI" font-size="10.00">+ GetYMDHMS()</text>
<text text-anchor="start" x="8" y="-29.5" font-family="SegoeUI" font-size="10.00">+ GetAsString()</text>
<text text-anchor="start" x="8" y="-18.5" font-family="SegoeUI" font-size="10.00">&#45; CloneData()</text>
<text text-anchor="start" x="8" y="-7.5" font-family="SegoeUI" font-size="10.00">&#45; SetYMDHMS()</text>
</a>
</g>
</g>
<!-- Node4 -->
<g id="node2" class="node"><title>Node4</title>
<g id="a_node2"><a xlink:href="../../d2/dc1/class_hjg_1_1_pngcs_1_1_chunks_1_1_png_chunk_single.html" target="_top" xlink:title="A Chunk type that does not allow duplicate in an image">
<polygon fill="white" stroke="black" points="28.5,-205.5 28.5,-295.5 130.5,-295.5 130.5,-205.5 28.5,-205.5"/>
<text text-anchor="middle" x="79.5" y="-283.5" font-family="SegoeUI" font-size="10.00">PngChunkSingle</text>
<polyline fill="none" stroke="black" points="28.5,-276.5 130.5,-276.5 "/>
<text text-anchor="middle" x="79.5" y="-264.5" font-family="SegoeUI" font-size="10.00"> </text>
<polyline fill="none" stroke="black" points="28.5,-257.5 130.5,-257.5 "/>
<text text-anchor="start" x="36.5" y="-245.5" font-family="SegoeUI" font-size="10.00">+ AllowsMultiple()</text>
<text text-anchor="start" x="36.5" y="-234.5" font-family="SegoeUI" font-size="10.00">+ GetHashCode()</text>
<text text-anchor="start" x="36.5" y="-223.5" font-family="SegoeUI" font-size="10.00">+ Equals()</text>
<text text-anchor="start" x="36.5" y="-212.5" font-family="SegoeUI" font-size="10.00"># PngChunkSingle()</text>
</a>
</g>
</g>
<!-- Node4&#45;&gt;Node3 -->
<g id="edge1" class="edge"><title>Node4&#45;&gt;Node3</title>
<path fill="none" stroke="midnightblue" d="M79.5,-195.255C79.5,-186.38 79.5,-177.011 79.5,-167.636"/>
<polygon fill="none" stroke="midnightblue" points="76.0001,-195.417 79.5,-205.417 83.0001,-195.417 76.0001,-195.417"/>
</g>
<!-- Node5 -->
<g id="node3" class="node"><title>Node5</title>
<g id="a_node3"><a xlink:href="../../d8/dd4/class_hjg_1_1_pngcs_1_1_chunks_1_1_abstract_png_chunk.html" target="_top" xlink:title="Represents a instance of a PNG chunk">
<polygon fill="white" stroke="black" points="15.5,-333.5 15.5,-665.5 143.5,-665.5 143.5,-333.5 15.5,-333.5"/>
<text text-anchor="middle" x="79.5" y="-653.5" font-family="SegoeUI" font-size="10.00">AbstractPngChunk</text>
<polyline fill="none" stroke="black" points="15.5,-646.5 143.5,-646.5 "/>
<text text-anchor="start" x="23.5" y="-634.5" font-family="SegoeUI" font-size="10.00">+ Id</text>
<text text-anchor="start" x="23.5" y="-623.5" font-family="SegoeUI" font-size="10.00">+ Crit</text>
<text text-anchor="start" x="23.5" y="-612.5" font-family="SegoeUI" font-size="10.00">+ Pub</text>
<text text-anchor="start" x="23.5" y="-601.5" font-family="SegoeUI" font-size="10.00">+ Safe</text>
<text text-anchor="start" x="23.5" y="-590.5" font-family="SegoeUI" font-size="10.00">+ ImgInfo</text>
<text text-anchor="start" x="23.5" y="-579.5" font-family="SegoeUI" font-size="10.00">+ Priority</text>
<text text-anchor="start" x="23.5" y="-568.5" font-family="SegoeUI" font-size="10.00">+ ChunkGroup</text>
<text text-anchor="start" x="23.5" y="-557.5" font-family="SegoeUI" font-size="10.00">+ Length</text>
<text text-anchor="start" x="23.5" y="-546.5" font-family="SegoeUI" font-size="10.00">+ Offset</text>
<polyline fill="none" stroke="black" points="15.5,-539.5 143.5,-539.5 "/>
<text text-anchor="start" x="23.5" y="-527.5" font-family="SegoeUI" font-size="10.00">+ CreateEmptyChunk()</text>
<text text-anchor="start" x="23.5" y="-516.5" font-family="SegoeUI" font-size="10.00">+ ToString()</text>
<text text-anchor="start" x="23.5" y="-505.5" font-family="SegoeUI" font-size="10.00">+ CreateRawChunk()</text>
<text text-anchor="start" x="23.5" y="-494.5" font-family="SegoeUI" font-size="10.00">+ ParseFromRaw()</text>
<text text-anchor="start" x="23.5" y="-483.5" font-family="SegoeUI" font-size="10.00">+ CloneDataFromRead()</text>
<text text-anchor="start" x="23.5" y="-472.5" font-family="SegoeUI" font-size="10.00">+ AllowsMultiple()</text>
<text text-anchor="start" x="23.5" y="-461.5" font-family="SegoeUI" font-size="10.00">+ GetOrderingConstraint()</text>
<text text-anchor="start" x="23.5" y="-450.5" font-family="SegoeUI" font-size="10.00">+ FactoryRegister()</text>
<text text-anchor="start" x="23.5" y="-439.5" font-family="SegoeUI" font-size="10.00">+ CloneChunk&lt; T &gt;()</text>
<text text-anchor="start" x="23.5" y="-428.5" font-family="SegoeUI" font-size="10.00"># AbstractPngChunk()</text>
<text text-anchor="start" x="23.5" y="-417.5" font-family="SegoeUI" font-size="10.00">&#45; MustGoBeforePLTE()</text>
<text text-anchor="start" x="23.5" y="-406.5" font-family="SegoeUI" font-size="10.00">&#45; MustGoBeforeIDAT()</text>
<text text-anchor="start" x="23.5" y="-395.5" font-family="SegoeUI" font-size="10.00">&#45; MustGoAfterPLTE()</text>
<text text-anchor="start" x="23.5" y="-384.5" font-family="SegoeUI" font-size="10.00">&#45; Write()</text>
<text text-anchor="start" x="23.5" y="-373.5" font-family="SegoeUI" font-size="10.00">&#45; InitFactory()</text>
<text text-anchor="start" x="23.5" y="-362.5" font-family="SegoeUI" font-size="10.00">&#45; IsKnown()</text>
<text text-anchor="start" x="23.5" y="-351.5" font-family="SegoeUI" font-size="10.00">&#45; Factory()</text>
<text text-anchor="start" x="23.5" y="-340.5" font-family="SegoeUI" font-size="10.00">&#45; FactoryFromId()</text>
</a>
</g>
</g>
<!-- Node5&#45;&gt;Node4 -->
<g id="edge2" class="edge"><title>Node5&#45;&gt;Node4</title>
<path fill="none" stroke="midnightblue" d="M79.5,-323.373C79.5,-313.509 79.5,-304.18 79.5,-295.713"/>
<polygon fill="none" stroke="midnightblue" points="76.0001,-323.404 79.5,-333.404 83.0001,-323.404 76.0001,-323.404"/>
</g>
<!-- Node6 -->
<g id="node4" class="node"><title>Node6</title>
<g id="a_node4"><a xlink:title=" ">
<polygon fill="white" stroke="#bfbfbf" points="60,-713.5 60,-770.5 99,-770.5 99,-713.5 60,-713.5"/>
<text text-anchor="middle" x="79.5" y="-758.5" font-family="SegoeUI" font-size="10.00">static</text>
<polyline fill="none" stroke="#bfbfbf" points="60,-751.5 99,-751.5 "/>
<text text-anchor="middle" x="79.5" y="-739.5" font-family="SegoeUI" font-size="10.00"> </text>
<polyline fill="none" stroke="#bfbfbf" points="60,-732.5 99,-732.5 "/>
<text text-anchor="middle" x="79.5" y="-720.5" font-family="SegoeUI" font-size="10.00"> </text>
</a>
</g>
</g>
<!-- Node6&#45;&gt;Node5 -->
<g id="edge3" class="edge"><title>Node6&#45;&gt;Node5</title>
<path fill="none" stroke="#404040" d="M79.5,-713.412C79.5,-703.392 79.5,-691.194 79.5,-677.761"/>
<polygon fill="none" stroke="#404040" points="79.5001,-677.662 75.5,-671.662 79.5,-665.662 83.5,-671.662 79.5001,-677.662"/>
<text text-anchor="middle" x="107" y="-687" font-family="SegoeUI" font-size="10.00"> &#45;factoryMap</text>
</g>
</g>
</svg>
