<?xml version="1.0" encoding="UTF-8" standalone="no"?>
<!DOCTYPE svg PUBLIC "-//W3C//DTD SVG 1.1//EN"
 "http://www.w3.org/Graphics/SVG/1.1/DTD/svg11.dtd">
<!-- Generated by graphviz version 2.38.0 (20140413.2041)
 -->
<!-- Title: Juniper.Primrose.Token Pages: 1 -->
<svg width="126pt" height="248pt"
 viewBox="0.00 0.00 126.00 248.00" xmlns="http://www.w3.org/2000/svg" xmlns:xlink="http://www.w3.org/1999/xlink">
<g id="graph0" class="graph" transform="scale(1 1) rotate(0) translate(4 244)">
<title>Juniper.Primrose.Token</title>
<polygon fill="white" stroke="none" points="-4,4 -4,-244 122,-244 122,4 -4,4"/>
<!-- Node0 -->
<g id="node1" class="node"><title>Node0</title>
<g id="a_node1"><a xlink:title=" ">
<polygon fill="#bfbfbf" stroke="black" points="0,-0.5 0,-145.5 118,-145.5 118,-0.5 0,-0.5"/>
<text text-anchor="middle" x="59" y="-133.5" font-family="SegoeUI" font-size="10.00">Juniper.Primrose.Token</text>
<polyline fill="none" stroke="black" points="0,-126.5 118,-126.5 "/>
<text text-anchor="start" x="8" y="-114.5" font-family="SegoeUI" font-size="10.00">+ Value</text>
<text text-anchor="start" x="8" y="-103.5" font-family="SegoeUI" font-size="10.00">+ Type</text>
<text text-anchor="start" x="8" y="-92.5" font-family="SegoeUI" font-size="10.00">+ Index</text>
<text text-anchor="start" x="8" y="-81.5" font-family="SegoeUI" font-size="10.00">+ Line</text>
<polyline fill="none" stroke="black" points="0,-74.5 118,-74.5 "/>
<text text-anchor="start" x="8" y="-62.5" font-family="SegoeUI" font-size="10.00">+ Token()</text>
<text text-anchor="start" x="8" y="-51.5" font-family="SegoeUI" font-size="10.00">+ Token()</text>
<text text-anchor="start" x="8" y="-40.5" font-family="SegoeUI" font-size="10.00">+ Clone()</text>
<text text-anchor="start" x="8" y="-29.5" font-family="SegoeUI" font-size="10.00">+ SplitAt()</text>
<text text-anchor="start" x="8" y="-18.5" font-family="SegoeUI" font-size="10.00">+ ToString()</text>
<text text-anchor="start" x="8" y="-7.5" font-family="SegoeUI" font-size="10.00">&#45; Clone()</text>
</a>
</g>
</g>
<!-- Node1 -->
<g id="node2" class="node"><title>Node1</title>
<g id="a_node2"><a xlink:title=" ">
<polygon fill="white" stroke="#bfbfbf" points="28,-182.5 28,-239.5 90,-239.5 90,-182.5 28,-182.5"/>
<text text-anchor="middle" x="59" y="-227.5" font-family="SegoeUI" font-size="10.00">ICloneable</text>
<polyline fill="none" stroke="#bfbfbf" points="28,-220.5 90,-220.5 "/>
<text text-anchor="middle" x="59" y="-208.5" font-family="SegoeUI" font-size="10.00"> </text>
<polyline fill="none" stroke="#bfbfbf" points="28,-201.5 90,-201.5 "/>
<text text-anchor="middle" x="59" y="-189.5" font-family="SegoeUI" font-size="10.00"> </text>
</a>
</g>
</g>
<!-- Node1&#45;&gt;Node0 -->
<g id="edge1" class="edge"><title>Node1&#45;&gt;Node0</title>
<path fill="none" stroke="midnightblue" d="M59,-172.356C59,-163.999 59,-154.872 59,-145.656"/>
<polygon fill="none" stroke="midnightblue" points="55.5001,-172.478 59,-182.478 62.5001,-172.478 55.5001,-172.478"/>
</g>
</g>
</svg>
