<?xml version="1.0" encoding="UTF-8" standalone="no"?>
<!DOCTYPE svg PUBLIC "-//W3C//DTD SVG 1.1//EN"
 "http://www.w3.org/Graphics/SVG/1.1/DTD/svg11.dtd">
<!-- Generated by graphviz version 2.38.0 (20140413.2041)
 -->
<!-- Title: Juniper.Unity.Display.NoDisplayManager Pages: 1 -->
<svg width="178pt" height="518pt"
 viewBox="0.00 0.00 177.50 518.00" xmlns="http://www.w3.org/2000/svg" xmlns:xlink="http://www.w3.org/1999/xlink">
<g id="graph0" class="graph" transform="scale(1 1) rotate(0) translate(4 514)">
<title>Juniper.Unity.Display.NoDisplayManager</title>
<polygon fill="white" stroke="none" points="-4,4 -4,-514 173.5,-514 173.5,4 -4,4"/>
<!-- Node0 -->
<g id="node1" class="node"><title>Node0</title>
<g id="a_node1"><a xlink:title=" ">
<polygon fill="#bfbfbf" stroke="black" points="28.5,-0.5 28.5,-68.5 147.5,-68.5 147.5,-0.5 28.5,-0.5"/>
<text text-anchor="start" x="36.5" y="-56.5" font-family="SegoeUI" font-size="10.00">Juniper.Unity.Display.No</text>
<text text-anchor="middle" x="88" y="-45.5" font-family="SegoeUI" font-size="10.00">DisplayManager</text>
<polyline fill="none" stroke="black" points="28.5,-38.5 147.5,-38.5 "/>
<text text-anchor="start" x="36.5" y="-26.5" font-family="SegoeUI" font-size="10.00">+ DEFAULT_FOV</text>
<polyline fill="none" stroke="black" points="28.5,-19.5 147.5,-19.5 "/>
<text text-anchor="middle" x="88" y="-7.5" font-family="SegoeUI" font-size="10.00"> </text>
</a>
</g>
</g>
<!-- Node1 -->
<g id="node2" class="node"><title>Node1</title>
<g id="a_node2"><a xlink:href="../../da/da5/class_juniper_1_1_unity_1_1_display_1_1_abstract_display_manager.html" target="_top" xlink:title=" ">
<polygon fill="white" stroke="black" points="28.5,-105.5 28.5,-393.5 147.5,-393.5 147.5,-105.5 28.5,-105.5"/>
<text text-anchor="middle" x="88" y="-381.5" font-family="SegoeUI" font-size="10.00">AbstractDisplayManager</text>
<polyline fill="none" stroke="black" points="28.5,-374.5 147.5,-374.5 "/>
<text text-anchor="start" x="36.5" y="-362.5" font-family="SegoeUI" font-size="10.00">+ MainCamera</text>
<text text-anchor="start" x="36.5" y="-351.5" font-family="SegoeUI" font-size="10.00">+ DEFAULT_FOV</text>
<text text-anchor="start" x="36.5" y="-340.5" font-family="SegoeUI" font-size="10.00">+ VerticalFieldOfView</text>
<text text-anchor="start" x="36.5" y="-329.5" font-family="SegoeUI" font-size="10.00"># jp</text>
<text text-anchor="start" x="36.5" y="-318.5" font-family="SegoeUI" font-size="10.00">&#45; lastSystem</text>
<text text-anchor="start" x="36.5" y="-307.5" font-family="SegoeUI" font-size="10.00">&#45; lastDisplayType</text>
<text text-anchor="start" x="36.5" y="-296.5" font-family="SegoeUI" font-size="10.00">&#45; lastARMode</text>
<text text-anchor="start" x="36.5" y="-285.5" font-family="SegoeUI" font-size="10.00">&#45; lastOption</text>
<text text-anchor="start" x="36.5" y="-274.5" font-family="SegoeUI" font-size="10.00">&#45; cam</text>
<polyline fill="none" stroke="black" points="28.5,-267.5 147.5,-267.5 "/>
<text text-anchor="start" x="36.5" y="-255.5" font-family="SegoeUI" font-size="10.00">+ StartXRDisplay()</text>
<text text-anchor="start" x="36.5" y="-244.5" font-family="SegoeUI" font-size="10.00">+ StopXRDisplay()</text>
<text text-anchor="start" x="36.5" y="-233.5" font-family="SegoeUI" font-size="10.00">+ DisableDisplay()</text>
<text text-anchor="start" x="36.5" y="-222.5" font-family="SegoeUI" font-size="10.00">+ StartAR()</text>
<text text-anchor="start" x="36.5" y="-211.5" font-family="SegoeUI" font-size="10.00">+ StopAR()</text>
<text text-anchor="start" x="36.5" y="-200.5" font-family="SegoeUI" font-size="10.00">+ ToggleAR()</text>
<text text-anchor="start" x="36.5" y="-189.5" font-family="SegoeUI" font-size="10.00">+ Awake()</text>
<text text-anchor="start" x="36.5" y="-178.5" font-family="SegoeUI" font-size="10.00">+ Reinstall()</text>
<text text-anchor="start" x="36.5" y="-167.5" font-family="SegoeUI" font-size="10.00">+ Reset()</text>
<text text-anchor="start" x="36.5" y="-156.5" font-family="SegoeUI" font-size="10.00">+ Install()</text>
<text text-anchor="start" x="36.5" y="-145.5" font-family="SegoeUI" font-size="10.00">+ Uninstall()</text>
<text text-anchor="start" x="36.5" y="-134.5" font-family="SegoeUI" font-size="10.00">+ Update()</text>
<text text-anchor="start" x="36.5" y="-123.5" font-family="SegoeUI" font-size="10.00">&#45; ChangeDisplayType()</text>
<text text-anchor="start" x="36.5" y="-112.5" font-family="SegoeUI" font-size="10.00">&#45; ChangeARMode()</text>
</a>
</g>
</g>
<!-- Node1&#45;&gt;Node0 -->
<g id="edge1" class="edge"><title>Node1&#45;&gt;Node0</title>
<path fill="none" stroke="midnightblue" d="M88,-95.0773C88,-85.5235 88,-76.5994 88,-68.7155"/>
<polygon fill="none" stroke="midnightblue" points="84.5001,-95.2441 88,-105.244 91.5001,-95.2442 84.5001,-95.2441"/>
</g>
<!-- Node2 -->
<g id="node3" class="node"><title>Node2</title>
<g id="a_node3"><a xlink:title=" ">
<polygon fill="white" stroke="#bfbfbf" points="0,-441.5 0,-498.5 82,-498.5 82,-441.5 0,-441.5"/>
<text text-anchor="middle" x="41" y="-486.5" font-family="SegoeUI" font-size="10.00">MonoBehaviour</text>
<polyline fill="none" stroke="#bfbfbf" points="0,-479.5 82,-479.5 "/>
<text text-anchor="middle" x="41" y="-467.5" font-family="SegoeUI" font-size="10.00"> </text>
<polyline fill="none" stroke="#bfbfbf" points="0,-460.5 82,-460.5 "/>
<text text-anchor="middle" x="41" y="-448.5" font-family="SegoeUI" font-size="10.00"> </text>
</a>
</g>
</g>
<!-- Node2&#45;&gt;Node1 -->
<g id="edge2" class="edge"><title>Node2&#45;&gt;Node1</title>
<path fill="none" stroke="midnightblue" d="M49.1089,-431.302C51.4847,-420.257 54.2351,-407.471 57.1537,-393.903"/>
<polygon fill="none" stroke="midnightblue" points="45.6339,-430.814 46.9526,-441.327 52.4773,-432.286 45.6339,-430.814"/>
</g>
<!-- Node3 -->
<g id="node4" class="node"><title>Node3</title>
<g id="a_node4"><a xlink:href="../../db/d28/interface_juniper_1_1_i_installable.html" target="_top" xlink:title=" ">
<polygon fill="white" stroke="black" points="100.5,-430.5 100.5,-509.5 169.5,-509.5 169.5,-430.5 100.5,-430.5"/>
<text text-anchor="middle" x="135" y="-497.5" font-family="SegoeUI" font-size="10.00">IInstallable</text>
<polyline fill="none" stroke="black" points="100.5,-490.5 169.5,-490.5 "/>
<text text-anchor="middle" x="135" y="-478.5" font-family="SegoeUI" font-size="10.00"> </text>
<polyline fill="none" stroke="black" points="100.5,-471.5 169.5,-471.5 "/>
<text text-anchor="start" x="108.5" y="-459.5" font-family="SegoeUI" font-size="10.00">+ Install()</text>
<text text-anchor="start" x="108.5" y="-448.5" font-family="SegoeUI" font-size="10.00">+ Reinstall()</text>
<text text-anchor="start" x="108.5" y="-437.5" font-family="SegoeUI" font-size="10.00">+ Uninstall()</text>
</a>
</g>
</g>
<!-- Node3&#45;&gt;Node1 -->
<g id="edge3" class="edge"><title>Node3&#45;&gt;Node1</title>
<path fill="none" stroke="midnightblue" d="M124.588,-420.593C122.786,-412.218 120.834,-403.143 118.801,-393.691"/>
<polygon fill="none" stroke="midnightblue" points="121.181,-421.399 126.706,-430.44 128.024,-419.927 121.181,-421.399"/>
</g>
</g>
</svg>
