<?xml version="1.0" encoding="UTF-8" standalone="no"?>
<!DOCTYPE svg PUBLIC "-//W3C//DTD SVG 1.1//EN"
 "http://www.w3.org/Graphics/SVG/1.1/DTD/svg11.dtd">
<!-- Generated by graphviz version 2.38.0 (20140413.2041)
 -->
<!-- Title: Juniper.HTTP.Server.Administration.NetSH.GetFirewallRule Pages: 1 -->
<svg width="347pt" height="793pt"
 viewBox="0.00 0.00 347.00 793.00" xmlns="http://www.w3.org/2000/svg" xmlns:xlink="http://www.w3.org/1999/xlink">
<g id="graph0" class="graph" transform="scale(1 1) rotate(0) translate(4 789)">
<title>Juniper.HTTP.Server.Administration.NetSH.GetFirewallRule</title>
<polygon fill="white" stroke="none" points="-4,4 -4,-789 343,-789 343,4 -4,4"/>
<!-- Node8 -->
<g id="node1" class="node"><title>Node8</title>
<g id="a_node1"><a xlink:title=" ">
<polygon fill="#bfbfbf" stroke="black" points="130.5,-0.5 130.5,-123.5 303.5,-123.5 303.5,-0.5 130.5,-0.5"/>
<text text-anchor="start" x="138.5" y="-111.5" font-family="SegoeUI" font-size="10.00">Juniper.HTTP.Server.Administration.</text>
<text text-anchor="middle" x="217" y="-100.5" font-family="SegoeUI" font-size="10.00">NetSH.GetFirewallRule</text>
<polyline fill="none" stroke="black" points="130.5,-93.5 303.5,-93.5 "/>
<text text-anchor="start" x="138.5" y="-81.5" font-family="SegoeUI" font-size="10.00">+ Verbose</text>
<text text-anchor="start" x="138.5" y="-70.5" font-family="SegoeUI" font-size="10.00">+ Arguments</text>
<polyline fill="none" stroke="black" points="130.5,-63.5 303.5,-63.5 "/>
<text text-anchor="start" x="138.5" y="-51.5" font-family="SegoeUI" font-size="10.00">+ GetFirewallRule()</text>
<text text-anchor="start" x="138.5" y="-40.5" font-family="SegoeUI" font-size="10.00">+ GetRangesAsync()</text>
<text text-anchor="start" x="138.5" y="-29.5" font-family="SegoeUI" font-size="10.00">+ ExistsAsync()</text>
<text text-anchor="start" x="138.5" y="-18.5" font-family="SegoeUI" font-size="10.00"># RunAsync()</text>
<text text-anchor="start" x="138.5" y="-7.5" font-family="SegoeUI" font-size="10.00">&#45; FindBlocks()</text>
</a>
</g>
</g>
<!-- Node9 -->
<g id="node2" class="node"><title>Node9</title>
<g id="a_node2"><a xlink:href="../../d9/de1/class_juniper_1_1_h_t_t_p_1_1_server_1_1_administration_1_1_net_s_h_1_1_abstract_firewall_rule_command.html" target="_top" xlink:title=" ">
<polygon fill="white" stroke="black" points="44.5,-171.5 44.5,-250.5 209.5,-250.5 209.5,-171.5 44.5,-171.5"/>
<text text-anchor="middle" x="127" y="-238.5" font-family="SegoeUI" font-size="10.00">AbstractFirewallRuleCommand</text>
<polyline fill="none" stroke="black" points="44.5,-231.5 209.5,-231.5 "/>
<text text-anchor="start" x="52.5" y="-219.5" font-family="SegoeUI" font-size="10.00">+ Arguments</text>
<text text-anchor="start" x="52.5" y="-208.5" font-family="SegoeUI" font-size="10.00">&#45; name</text>
<text text-anchor="start" x="52.5" y="-197.5" font-family="SegoeUI" font-size="10.00">&#45; command</text>
<polyline fill="none" stroke="black" points="44.5,-190.5 209.5,-190.5 "/>
<text text-anchor="start" x="52.5" y="-178.5" font-family="SegoeUI" font-size="10.00"># AbstractFirewallRuleCommand()</text>
</a>
</g>
</g>
<!-- Node9&#45;&gt;Node8 -->
<g id="edge1" class="edge"><title>Node9&#45;&gt;Node8</title>
<path fill="none" stroke="midnightblue" d="M156.049,-162.554C163.657,-150.126 171.965,-136.557 179.931,-123.546"/>
<polygon fill="none" stroke="midnightblue" points="152.883,-161.021 150.646,-171.377 158.853,-164.677 152.883,-161.021"/>
</g>
<!-- Node10 -->
<g id="node3" class="node"><title>Node10</title>
<g id="a_node3"><a xlink:href="../../de/dc3/class_juniper_1_1_h_t_t_p_1_1_server_1_1_administration_1_1_net_s_h_1_1_abstract_net_sh_command.html" target="_top" xlink:title=" ">
<polygon fill="white" stroke="black" points="58,-288.5 58,-345.5 196,-345.5 196,-288.5 58,-288.5"/>
<text text-anchor="middle" x="127" y="-333.5" font-family="SegoeUI" font-size="10.00">AbstractNetShCommand</text>
<polyline fill="none" stroke="black" points="58,-326.5 196,-326.5 "/>
<text text-anchor="middle" x="127" y="-314.5" font-family="SegoeUI" font-size="10.00"> </text>
<polyline fill="none" stroke="black" points="58,-307.5 196,-307.5 "/>
<text text-anchor="start" x="66" y="-295.5" font-family="SegoeUI" font-size="10.00"># AbstractNetShCommand()</text>
</a>
</g>
</g>
<!-- Node10&#45;&gt;Node9 -->
<g id="edge2" class="edge"><title>Node10&#45;&gt;Node9</title>
<path fill="none" stroke="midnightblue" d="M127,-278.232C127,-269.268 127,-259.693 127,-250.689"/>
<polygon fill="none" stroke="midnightblue" points="123.5,-278.403 127,-288.403 130.5,-278.403 123.5,-278.403"/>
</g>
<!-- Node11 -->
<g id="node4" class="node"><title>Node11</title>
<g id="a_node4"><a xlink:href="../../db/d6e/class_juniper_1_1_processes_1_1_abstract_shell_command.html" target="_top" xlink:title=" ">
<polygon fill="white" stroke="black" points="56.5,-383.5 56.5,-594.5 197.5,-594.5 197.5,-383.5 56.5,-383.5"/>
<text text-anchor="middle" x="127" y="-582.5" font-family="SegoeUI" font-size="10.00">AbstractShellCommand</text>
<polyline fill="none" stroke="black" points="56.5,-575.5 197.5,-575.5 "/>
<text text-anchor="start" x="64.5" y="-563.5" font-family="SegoeUI" font-size="10.00">+ UseShellExecute</text>
<text text-anchor="start" x="64.5" y="-552.5" font-family="SegoeUI" font-size="10.00">+ LoadUserProfile</text>
<text text-anchor="start" x="64.5" y="-541.5" font-family="SegoeUI" font-size="10.00">+ Encoding</text>
<text text-anchor="start" x="64.5" y="-530.5" font-family="SegoeUI" font-size="10.00">+ TotalStandardOutput</text>
<text text-anchor="start" x="64.5" y="-519.5" font-family="SegoeUI" font-size="10.00">+ TotalStandardError</text>
<text text-anchor="start" x="64.5" y="-508.5" font-family="SegoeUI" font-size="10.00">+ Arguments</text>
<text text-anchor="start" x="64.5" y="-497.5" font-family="SegoeUI" font-size="10.00">&#45; command</text>
<polyline fill="none" stroke="black" points="56.5,-490.5 197.5,-490.5 "/>
<text text-anchor="start" x="64.5" y="-478.5" font-family="SegoeUI" font-size="10.00">+ RunAsync()</text>
<text text-anchor="start" x="64.5" y="-467.5" font-family="SegoeUI" font-size="10.00">+ Run()</text>
<text text-anchor="start" x="64.5" y="-456.5" font-family="SegoeUI" font-size="10.00"># AbstractShellCommand()</text>
<text text-anchor="start" x="64.5" y="-445.5" font-family="SegoeUI" font-size="10.00"># RunAsync()</text>
<text text-anchor="start" x="64.5" y="-434.5" font-family="SegoeUI" font-size="10.00">&#45; Proc_OutputDataReceived()</text>
<text text-anchor="start" x="64.5" y="-423.5" font-family="SegoeUI" font-size="10.00">&#45; Proc_ErrorDataReceived()</text>
<text text-anchor="start" x="64.5" y="-412.5" font-family="SegoeUI" font-size="10.00">&#45; OnInfo()</text>
<text text-anchor="start" x="64.5" y="-401.5" font-family="SegoeUI" font-size="10.00">&#45; OnWarning()</text>
<text text-anchor="start" x="64.5" y="-390.5" font-family="SegoeUI" font-size="10.00">&#45; OnError()</text>
</a>
</g>
</g>
<!-- Node11&#45;&gt;Node10 -->
<g id="edge3" class="edge"><title>Node11&#45;&gt;Node10</title>
<path fill="none" stroke="midnightblue" d="M127,-373.051C127,-363.049 127,-353.681 127,-345.609"/>
<polygon fill="none" stroke="midnightblue" points="123.5,-373.24 127,-383.24 130.5,-373.24 123.5,-373.24"/>
</g>
<!-- Node12 -->
<g id="node5" class="node"><title>Node12</title>
<g id="a_node5"><a xlink:href="../../df/d21/interface_juniper_1_1_logging_1_1_i_logging_source.html" target="_top" xlink:title=" ">
<polygon fill="white" stroke="black" points="85.5,-632.5 85.5,-689.5 168.5,-689.5 168.5,-632.5 85.5,-632.5"/>
<text text-anchor="middle" x="127" y="-677.5" font-family="SegoeUI" font-size="10.00">ILoggingSource</text>
<polyline fill="none" stroke="black" points="85.5,-670.5 168.5,-670.5 "/>
<text text-anchor="middle" x="127" y="-658.5" font-family="SegoeUI" font-size="10.00"> </text>
<polyline fill="none" stroke="black" points="85.5,-651.5 168.5,-651.5 "/>
<text text-anchor="middle" x="127" y="-639.5" font-family="SegoeUI" font-size="10.00"> </text>
</a>
</g>
</g>
<!-- Node12&#45;&gt;Node11 -->
<g id="edge4" class="edge"><title>Node12&#45;&gt;Node11</title>
<path fill="none" stroke="midnightblue" d="M127,-622.194C127,-613.797 127,-604.5 127,-594.841"/>
<polygon fill="none" stroke="midnightblue" points="123.5,-622.308 127,-632.308 130.5,-622.308 123.5,-622.308"/>
</g>
<!-- Node13 -->
<g id="node6" class="node"><title>Node13</title>
<g id="a_node6"><a xlink:href="../../de/dad/interface_juniper_1_1_logging_1_1_i_info_source.html" target="_top" xlink:title=" ">
<polygon fill="white" stroke="black" points="0,-727.5 0,-784.5 66,-784.5 66,-727.5 0,-727.5"/>
<text text-anchor="middle" x="33" y="-772.5" font-family="SegoeUI" font-size="10.00">IInfoSource</text>
<polyline fill="none" stroke="black" points="0,-765.5 66,-765.5 "/>
<text text-anchor="middle" x="33" y="-753.5" font-family="SegoeUI" font-size="10.00"> </text>
<polyline fill="none" stroke="black" points="0,-746.5 66,-746.5 "/>
<text text-anchor="middle" x="33" y="-734.5" font-family="SegoeUI" font-size="10.00"> </text>
</a>
</g>
</g>
<!-- Node13&#45;&gt;Node12 -->
<g id="edge5" class="edge"><title>Node13&#45;&gt;Node12</title>
<path fill="none" stroke="midnightblue" d="M68.1873,-720.187C78.3609,-710.122 89.3242,-699.275 98.9968,-689.705"/>
<polygon fill="none" stroke="midnightblue" points="65.5958,-717.827 60.9486,-727.349 70.519,-722.804 65.5958,-717.827"/>
</g>
<!-- Node14 -->
<g id="node7" class="node"><title>Node14</title>
<g id="a_node7"><a xlink:href="../../d6/d23/interface_juniper_1_1_logging_1_1_i_warning_source.html" target="_top" xlink:title=" ">
<polygon fill="white" stroke="black" points="84,-727.5 84,-784.5 170,-784.5 170,-727.5 84,-727.5"/>
<text text-anchor="middle" x="127" y="-772.5" font-family="SegoeUI" font-size="10.00">IWarningSource</text>
<polyline fill="none" stroke="black" points="84,-765.5 170,-765.5 "/>
<text text-anchor="middle" x="127" y="-753.5" font-family="SegoeUI" font-size="10.00"> </text>
<polyline fill="none" stroke="black" points="84,-746.5 170,-746.5 "/>
<text text-anchor="middle" x="127" y="-734.5" font-family="SegoeUI" font-size="10.00"> </text>
</a>
</g>
</g>
<!-- Node14&#45;&gt;Node12 -->
<g id="edge6" class="edge"><title>Node14&#45;&gt;Node12</title>
<path fill="none" stroke="midnightblue" d="M127,-717.235C127,-708.028 127,-698.346 127,-689.705"/>
<polygon fill="none" stroke="midnightblue" points="123.5,-717.349 127,-727.349 130.5,-717.349 123.5,-717.349"/>
</g>
<!-- Node15 -->
<g id="node8" class="node"><title>Node15</title>
<g id="a_node8"><a xlink:href="../../d4/d12/interface_juniper_1_1_logging_1_1_i_error_source.html" target="_top" xlink:title=" ">
<polygon fill="white" stroke="black" points="188.5,-727.5 188.5,-784.5 259.5,-784.5 259.5,-727.5 188.5,-727.5"/>
<text text-anchor="middle" x="224" y="-772.5" font-family="SegoeUI" font-size="10.00">IErrorSource</text>
<polyline fill="none" stroke="black" points="188.5,-765.5 259.5,-765.5 "/>
<text text-anchor="middle" x="224" y="-753.5" font-family="SegoeUI" font-size="10.00"> </text>
<polyline fill="none" stroke="black" points="188.5,-746.5 259.5,-746.5 "/>
<text text-anchor="middle" x="224" y="-734.5" font-family="SegoeUI" font-size="10.00"> </text>
</a>
</g>
</g>
<!-- Node15&#45;&gt;Node12 -->
<g id="edge7" class="edge"><title>Node15&#45;&gt;Node12</title>
<path fill="none" stroke="midnightblue" d="M187.69,-720.187C177.191,-710.122 165.878,-699.275 155.897,-689.705"/>
<polygon fill="none" stroke="midnightblue" points="185.519,-722.954 195.159,-727.349 190.363,-717.902 185.519,-722.954"/>
</g>
<!-- Node16 -->
<g id="node9" class="node"><title>Node16</title>
<g id="a_node9"><a xlink:title=" ">
<polygon fill="white" stroke="#bfbfbf" points="227.5,-182.5 227.5,-239.5 266.5,-239.5 266.5,-182.5 227.5,-182.5"/>
<text text-anchor="middle" x="247" y="-227.5" font-family="SegoeUI" font-size="10.00">static</text>
<polyline fill="none" stroke="#bfbfbf" points="227.5,-220.5 266.5,-220.5 "/>
<text text-anchor="middle" x="247" y="-208.5" font-family="SegoeUI" font-size="10.00"> </text>
<polyline fill="none" stroke="#bfbfbf" points="227.5,-201.5 266.5,-201.5 "/>
<text text-anchor="middle" x="247" y="-189.5" font-family="SegoeUI" font-size="10.00"> </text>
</a>
</g>
</g>
<!-- Node16&#45;&gt;Node8 -->
<g id="edge8" class="edge"><title>Node16&#45;&gt;Node8</title>
<path fill="none" stroke="#404040" d="M241.357,-182.35C238.639,-169.032 235.239,-152.37 231.849,-135.759"/>
<polygon fill="none" stroke="#404040" points="231.792,-135.478 226.673,-130.399 229.392,-123.721 234.511,-128.799 231.792,-135.478"/>
<text text-anchor="middle" x="287" y="-145" font-family="SegoeUI" font-size="10.00"> &#45;remoteIPRangePattern</text>
</g>
</g>
</svg>
