<?xml version="1.0" encoding="UTF-8" standalone="no"?>
<!DOCTYPE svg PUBLIC "-//W3C//DTD SVG 1.1//EN"
 "http://www.w3.org/Graphics/SVG/1.1/DTD/svg11.dtd">
<!-- Generated by graphviz version 2.38.0 (20140413.2041)
 -->
<!-- Title: Juniper.Unity.Video.Video360 Pages: 1 -->
<svg width="149pt" height="997pt"
 viewBox="0.00 0.00 149.00 997.00" xmlns="http://www.w3.org/2000/svg" xmlns:xlink="http://www.w3.org/1999/xlink">
<g id="graph0" class="graph" transform="scale(1 1) rotate(0) translate(4 993)">
<title>Juniper.Unity.Video.Video360</title>
<polygon fill="white" stroke="none" points="-4,4 -4,-993 145,-993 145,4 -4,4"/>
<!-- Node0 -->
<g id="node1" class="node"><title>Node0</title>
<g id="a_node1"><a xlink:title=" ">
<polygon fill="#bfbfbf" stroke="black" points="0,-0.5 0,-332.5 141,-332.5 141,-0.5 0,-0.5"/>
<text text-anchor="middle" x="70.5" y="-320.5" font-family="SegoeUI" font-size="10.00">Juniper.Unity.Video.Video360</text>
<polyline fill="none" stroke="black" points="0,-313.5 141,-313.5 "/>
<text text-anchor="start" x="8" y="-301.5" font-family="SegoeUI" font-size="10.00">+ videoClip</text>
<text text-anchor="start" x="8" y="-290.5" font-family="SegoeUI" font-size="10.00">+ textureFormat</text>
<text text-anchor="start" x="8" y="-279.5" font-family="SegoeUI" font-size="10.00">+ tint</text>
<text text-anchor="start" x="8" y="-268.5" font-family="SegoeUI" font-size="10.00">+ exposure</text>
<text text-anchor="start" x="8" y="-257.5" font-family="SegoeUI" font-size="10.00">+ rotation</text>
<text text-anchor="start" x="8" y="-246.5" font-family="SegoeUI" font-size="10.00">+ useMipMap</text>
<text text-anchor="start" x="8" y="-235.5" font-family="SegoeUI" font-size="10.00">+ layout</text>
<text text-anchor="start" x="8" y="-224.5" font-family="SegoeUI" font-size="10.00">+ imageType</text>
<text text-anchor="start" x="8" y="-213.5" font-family="SegoeUI" font-size="10.00">+ mirror180OnBack</text>
<text text-anchor="start" x="8" y="-202.5" font-family="SegoeUI" font-size="10.00">+ stereoLayout</text>
<text text-anchor="start" x="8" y="-191.5" font-family="SegoeUI" font-size="10.00">+ onLoop</text>
<text text-anchor="start" x="8" y="-180.5" font-family="SegoeUI" font-size="10.00">+ Loop</text>
<text text-anchor="start" x="8" y="-169.5" font-family="SegoeUI" font-size="10.00">+ secondsToCache</text>
<text text-anchor="start" x="8" y="-158.5" font-family="SegoeUI" font-size="10.00">&#45; LAT_LON</text>
<text text-anchor="start" x="8" y="-147.5" font-family="SegoeUI" font-size="10.00">&#45; SIDES_6</text>
<text text-anchor="start" x="8" y="-136.5" font-family="SegoeUI" font-size="10.00">&#45; width</text>
<text text-anchor="start" x="8" y="-125.5" font-family="SegoeUI" font-size="10.00">&#45; height</text>
<text text-anchor="start" x="8" y="-114.5" font-family="SegoeUI" font-size="10.00">&#45; player</text>
<text text-anchor="start" x="8" y="-103.5" font-family="SegoeUI" font-size="10.00">&#45; audioTracks</text>
<text text-anchor="start" x="8" y="-92.5" font-family="SegoeUI" font-size="10.00">&#45; renderTexture</text>
<text text-anchor="start" x="8" y="-81.5" font-family="SegoeUI" font-size="10.00">&#45; skyboxMaterial</text>
<polyline fill="none" stroke="black" points="0,-74.5 141,-74.5 "/>
<text text-anchor="start" x="8" y="-62.5" font-family="SegoeUI" font-size="10.00">+ Awake()</text>
<text text-anchor="start" x="8" y="-51.5" font-family="SegoeUI" font-size="10.00">+ Load()</text>
<text text-anchor="start" x="8" y="-40.5" font-family="SegoeUI" font-size="10.00">+ Play()</text>
<text text-anchor="start" x="8" y="-29.5" font-family="SegoeUI" font-size="10.00">+ Update()</text>
<text text-anchor="start" x="8" y="-18.5" font-family="SegoeUI" font-size="10.00"># OnLoop()</text>
<text text-anchor="start" x="8" y="-7.5" font-family="SegoeUI" font-size="10.00">&#45; CreateAudioTracks()</text>
</a>
</g>
</g>
<!-- Node1 -->
<g id="node2" class="node"><title>Node1</title>
<g id="a_node2"><a xlink:href="../../d7/d3c/class_juniper_1_1_unity_1_1_sub_scene_controller.html" target="_top" xlink:title="SubSceneControllers are used by the MasterSceneController to manage workflow through an application....">
<polygon fill="white" stroke="black" points="10.5,-369.5 10.5,-547.5 130.5,-547.5 130.5,-369.5 10.5,-369.5"/>
<text text-anchor="middle" x="70.5" y="-535.5" font-family="SegoeUI" font-size="10.00">SubSceneController</text>
<polyline fill="none" stroke="black" points="10.5,-528.5 130.5,-528.5 "/>
<text text-anchor="start" x="18.5" y="-516.5" font-family="SegoeUI" font-size="10.00">+ Enterable</text>
<text text-anchor="start" x="18.5" y="-505.5" font-family="SegoeUI" font-size="10.00">+ Exitable</text>
<text text-anchor="start" x="18.5" y="-494.5" font-family="SegoeUI" font-size="10.00">+ CurrentSubScenes</text>
<text text-anchor="start" x="18.5" y="-483.5" font-family="SegoeUI" font-size="10.00"># deactivateOnExit</text>
<text text-anchor="start" x="18.5" y="-472.5" font-family="SegoeUI" font-size="10.00">&#45; childTransitions</text>
<text text-anchor="start" x="18.5" y="-461.5" font-family="SegoeUI" font-size="10.00">&#45; isExitingPreviousScene</text>
<polyline fill="none" stroke="black" points="10.5,-454.5 130.5,-454.5 "/>
<text text-anchor="start" x="18.5" y="-442.5" font-family="SegoeUI" font-size="10.00">+ Awake()</text>
<text text-anchor="start" x="18.5" y="-431.5" font-family="SegoeUI" font-size="10.00">+ Load()</text>
<text text-anchor="start" x="18.5" y="-420.5" font-family="SegoeUI" font-size="10.00">+ Enter()</text>
<text text-anchor="start" x="18.5" y="-409.5" font-family="SegoeUI" font-size="10.00">+ Exit()</text>
<text text-anchor="start" x="18.5" y="-398.5" font-family="SegoeUI" font-size="10.00">+ Update()</text>
<text text-anchor="start" x="18.5" y="-387.5" font-family="SegoeUI" font-size="10.00"># OnExited()</text>
<text text-anchor="start" x="18.5" y="-376.5" font-family="SegoeUI" font-size="10.00">&#45; AllComplete()</text>
</a>
</g>
</g>
<!-- Node1&#45;&gt;Node0 -->
<g id="edge1" class="edge"><title>Node1&#45;&gt;Node0</title>
<path fill="none" stroke="midnightblue" d="M70.5,-359.265C70.5,-350.604 70.5,-341.694 70.5,-332.677"/>
<polygon fill="none" stroke="midnightblue" points="67.0001,-359.309 70.5,-369.309 74.0001,-359.309 67.0001,-359.309"/>
</g>
<!-- Node2 -->
<g id="node3" class="node"><title>Node2</title>
<g id="a_node3"><a xlink:href="../../dd/d90/class_juniper_1_1_unity_1_1_abstract_state_controller.html" target="_top" xlink:title="A subscene is a game object loaded from another scene. The scenes all get loaded at runtime and then ...">
<polygon fill="white" stroke="black" points="12.5,-584.5 12.5,-894.5 128.5,-894.5 128.5,-584.5 12.5,-584.5"/>
<text text-anchor="middle" x="70.5" y="-882.5" font-family="SegoeUI" font-size="10.00">AbstractStateController</text>
<polyline fill="none" stroke="black" points="12.5,-875.5 128.5,-875.5 "/>
<text text-anchor="start" x="20.5" y="-863.5" font-family="SegoeUI" font-size="10.00">+ onEntering</text>
<text text-anchor="start" x="20.5" y="-852.5" font-family="SegoeUI" font-size="10.00">+ onEntered</text>
<text text-anchor="start" x="20.5" y="-841.5" font-family="SegoeUI" font-size="10.00">+ onExiting</text>
<text text-anchor="start" x="20.5" y="-830.5" font-family="SegoeUI" font-size="10.00">+ onExited</text>
<text text-anchor="start" x="20.5" y="-819.5" font-family="SegoeUI" font-size="10.00">+ state</text>
<text text-anchor="start" x="20.5" y="-808.5" font-family="SegoeUI" font-size="10.00">+ IsComplete</text>
<text text-anchor="start" x="20.5" y="-797.5" font-family="SegoeUI" font-size="10.00">+ IsRunning</text>
<text text-anchor="start" x="20.5" y="-786.5" font-family="SegoeUI" font-size="10.00">+ IsEntered</text>
<text text-anchor="start" x="20.5" y="-775.5" font-family="SegoeUI" font-size="10.00">+ IsExited</text>
<text text-anchor="start" x="20.5" y="-764.5" font-family="SegoeUI" font-size="10.00">+ Waiter</text>
<text text-anchor="start" x="20.5" y="-753.5" font-family="SegoeUI" font-size="10.00">&#45; lastState</text>
<text text-anchor="start" x="20.5" y="-742.5" font-family="SegoeUI" font-size="10.00">&#45; skipEvents</text>
<text text-anchor="start" x="20.5" y="-731.5" font-family="SegoeUI" font-size="10.00">&#45; _waiter</text>
<polyline fill="none" stroke="black" points="12.5,-724.5 128.5,-724.5 "/>
<text text-anchor="start" x="20.5" y="-712.5" font-family="SegoeUI" font-size="10.00">+ HasCompleted()</text>
<text text-anchor="start" x="20.5" y="-701.5" font-family="SegoeUI" font-size="10.00">+ SkipEnter()</text>
<text text-anchor="start" x="20.5" y="-690.5" font-family="SegoeUI" font-size="10.00">+ Enter()</text>
<text text-anchor="start" x="20.5" y="-679.5" font-family="SegoeUI" font-size="10.00">+ OnEnable()</text>
<text text-anchor="start" x="20.5" y="-668.5" font-family="SegoeUI" font-size="10.00">+ Update()</text>
<text text-anchor="start" x="20.5" y="-657.5" font-family="SegoeUI" font-size="10.00">+ SkipExit()</text>
<text text-anchor="start" x="20.5" y="-646.5" font-family="SegoeUI" font-size="10.00">+ Exit()</text>
<text text-anchor="start" x="20.5" y="-635.5" font-family="SegoeUI" font-size="10.00">+ OnDisable()</text>
<text text-anchor="start" x="20.5" y="-624.5" font-family="SegoeUI" font-size="10.00"># OnEntering()</text>
<text text-anchor="start" x="20.5" y="-613.5" font-family="SegoeUI" font-size="10.00"># OnEntered()</text>
<text text-anchor="start" x="20.5" y="-602.5" font-family="SegoeUI" font-size="10.00"># OnExiting()</text>
<text text-anchor="start" x="20.5" y="-591.5" font-family="SegoeUI" font-size="10.00"># OnExited()</text>
</a>
</g>
</g>
<!-- Node2&#45;&gt;Node1 -->
<g id="edge2" class="edge"><title>Node2&#45;&gt;Node1</title>
<path fill="none" stroke="midnightblue" d="M70.5,-574.121C70.5,-565.141 70.5,-556.303 70.5,-547.762"/>
<polygon fill="none" stroke="midnightblue" points="67.0001,-574.311 70.5,-584.311 74.0001,-574.311 67.0001,-574.311"/>
</g>
<!-- Node3 -->
<g id="node4" class="node"><title>Node3</title>
<g id="a_node4"><a xlink:title=" ">
<polygon fill="white" stroke="#bfbfbf" points="29.5,-931.5 29.5,-988.5 111.5,-988.5 111.5,-931.5 29.5,-931.5"/>
<text text-anchor="middle" x="70.5" y="-976.5" font-family="SegoeUI" font-size="10.00">MonoBehaviour</text>
<polyline fill="none" stroke="#bfbfbf" points="29.5,-969.5 111.5,-969.5 "/>
<text text-anchor="middle" x="70.5" y="-957.5" font-family="SegoeUI" font-size="10.00"> </text>
<polyline fill="none" stroke="#bfbfbf" points="29.5,-950.5 111.5,-950.5 "/>
<text text-anchor="middle" x="70.5" y="-938.5" font-family="SegoeUI" font-size="10.00"> </text>
</a>
</g>
</g>
<!-- Node3&#45;&gt;Node2 -->
<g id="edge3" class="edge"><title>Node3&#45;&gt;Node2</title>
<path fill="none" stroke="midnightblue" d="M70.5,-921.281C70.5,-913.208 70.5,-904.205 70.5,-894.648"/>
<polygon fill="none" stroke="midnightblue" points="67.0001,-921.327 70.5,-931.327 74.0001,-921.327 67.0001,-921.327"/>
</g>
</g>
</svg>
