<?xml version="1.0" encoding="UTF-8" standalone="no"?>
<!DOCTYPE svg PUBLIC "-//W3C//DTD SVG 1.1//EN"
 "http://www.w3.org/Graphics/SVG/1.1/DTD/svg11.dtd">
<!-- Generated by graphviz version 2.38.0 (20140413.2041)
 -->
<!-- Title: Juniper.Unity.Display.ARCoreDisplayManager Pages: 1 -->
<svg width="178pt" height="761pt"
 viewBox="0.00 0.00 177.50 761.00" xmlns="http://www.w3.org/2000/svg" xmlns:xlink="http://www.w3.org/1999/xlink">
<g id="graph0" class="graph" transform="scale(1 1) rotate(0) translate(4 757)">
<title>Juniper.Unity.Display.ARCoreDisplayManager</title>
<polygon fill="white" stroke="none" points="-4,4 -4,-757 173.5,-757 173.5,4 -4,4"/>
<!-- Node0 -->
<g id="node1" class="node"><title>Node0</title>
<g id="a_node1"><a xlink:title=" ">
<polygon fill="#bfbfbf" stroke="black" points="18,-105.5 18,-195.5 158,-195.5 158,-105.5 18,-105.5"/>
<text text-anchor="start" x="26" y="-183.5" font-family="SegoeUI" font-size="10.00">Juniper.Unity.Display.ARCore</text>
<text text-anchor="middle" x="88" y="-172.5" font-family="SegoeUI" font-size="10.00">DisplayManager</text>
<polyline fill="none" stroke="black" points="18,-165.5 158,-165.5 "/>
<text text-anchor="start" x="26" y="-153.5" font-family="SegoeUI" font-size="10.00">&#45; isQuitting</text>
<polyline fill="none" stroke="black" points="18,-146.5 158,-146.5 "/>
<text text-anchor="start" x="26" y="-134.5" font-family="SegoeUI" font-size="10.00">+ Install()</text>
<text text-anchor="start" x="26" y="-123.5" font-family="SegoeUI" font-size="10.00">+ Uninstall()</text>
<text text-anchor="start" x="26" y="-112.5" font-family="SegoeUI" font-size="10.00">+ Update()</text>
</a>
</g>
</g>
<!-- Node5 -->
<g id="node6" class="node"><title>Node5</title>
<g id="a_node6"><a xlink:href="../../d9/de4/class_juniper_1_1_unity_1_1_display_1_1_display_manager.html" target="_top" xlink:title="Manages the camera FOV in the editor so that it matches the target system, or on desktop makes sure t...">
<polygon fill="white" stroke="black" points="19.5,-0.5 19.5,-68.5 156.5,-68.5 156.5,-0.5 19.5,-0.5"/>
<text text-anchor="start" x="27.5" y="-56.5" font-family="SegoeUI" font-size="10.00">Juniper.Unity.Display.Display</text>
<text text-anchor="middle" x="88" y="-45.5" font-family="SegoeUI" font-size="10.00">Manager</text>
<polyline fill="none" stroke="black" points="19.5,-38.5 156.5,-38.5 "/>
<text text-anchor="middle" x="88" y="-26.5" font-family="SegoeUI" font-size="10.00"> </text>
<polyline fill="none" stroke="black" points="19.5,-19.5 156.5,-19.5 "/>
<text text-anchor="middle" x="88" y="-7.5" font-family="SegoeUI" font-size="10.00"> </text>
</a>
</g>
</g>
<!-- Node0&#45;&gt;Node5 -->
<g id="edge5" class="edge"><title>Node0&#45;&gt;Node5</title>
<path fill="none" stroke="midnightblue" d="M88,-95.3164C88,-86.2849 88,-77.1589 88,-68.8483"/>
<polygon fill="none" stroke="midnightblue" points="84.5001,-95.4246 88,-105.425 91.5001,-95.4247 84.5001,-95.4246"/>
</g>
<!-- Node1 -->
<g id="node2" class="node"><title>Node1</title>
<g id="a_node2"><a xlink:href="../../de/dad/class_juniper_1_1_unity_1_1_display_1_1_abstract_passthrough_display_manager.html" target="_top" xlink:title=" ">
<polygon fill="white" stroke="black" points="21,-232.5 21,-311.5 155,-311.5 155,-232.5 21,-232.5"/>
<text text-anchor="start" x="29" y="-299.5" font-family="SegoeUI" font-size="10.00">AbstractPassthroughDisplay</text>
<text text-anchor="middle" x="88" y="-288.5" font-family="SegoeUI" font-size="10.00">Manager</text>
<polyline fill="none" stroke="black" points="21,-281.5 155,-281.5 "/>
<text text-anchor="start" x="29" y="-269.5" font-family="SegoeUI" font-size="10.00">+ ARBackgroundMaterial</text>
<text text-anchor="start" x="29" y="-258.5" font-family="SegoeUI" font-size="10.00">+ enablePointCloud</text>
<polyline fill="none" stroke="black" points="21,-251.5 155,-251.5 "/>
<text text-anchor="middle" x="88" y="-239.5" font-family="SegoeUI" font-size="10.00"> </text>
</a>
</g>
</g>
<!-- Node1&#45;&gt;Node0 -->
<g id="edge1" class="edge"><title>Node1&#45;&gt;Node0</title>
<path fill="none" stroke="midnightblue" d="M88,-222.187C88,-213.491 88,-204.476 88,-195.911"/>
<polygon fill="none" stroke="midnightblue" points="84.5001,-222.202 88,-232.202 91.5001,-222.202 84.5001,-222.202"/>
</g>
<!-- Node2 -->
<g id="node3" class="node"><title>Node2</title>
<g id="a_node3"><a xlink:href="../../da/da5/class_juniper_1_1_unity_1_1_display_1_1_abstract_display_manager.html" target="_top" xlink:title=" ">
<polygon fill="white" stroke="black" points="28.5,-348.5 28.5,-636.5 147.5,-636.5 147.5,-348.5 28.5,-348.5"/>
<text text-anchor="middle" x="88" y="-624.5" font-family="SegoeUI" font-size="10.00">AbstractDisplayManager</text>
<polyline fill="none" stroke="black" points="28.5,-617.5 147.5,-617.5 "/>
<text text-anchor="start" x="36.5" y="-605.5" font-family="SegoeUI" font-size="10.00">+ MainCamera</text>
<text text-anchor="start" x="36.5" y="-594.5" font-family="SegoeUI" font-size="10.00">+ DEFAULT_FOV</text>
<text text-anchor="start" x="36.5" y="-583.5" font-family="SegoeUI" font-size="10.00">+ VerticalFieldOfView</text>
<text text-anchor="start" x="36.5" y="-572.5" font-family="SegoeUI" font-size="10.00"># jp</text>
<text text-anchor="start" x="36.5" y="-561.5" font-family="SegoeUI" font-size="10.00">&#45; lastSystem</text>
<text text-anchor="start" x="36.5" y="-550.5" font-family="SegoeUI" font-size="10.00">&#45; lastDisplayType</text>
<text text-anchor="start" x="36.5" y="-539.5" font-family="SegoeUI" font-size="10.00">&#45; lastARMode</text>
<text text-anchor="start" x="36.5" y="-528.5" font-family="SegoeUI" font-size="10.00">&#45; lastOption</text>
<text text-anchor="start" x="36.5" y="-517.5" font-family="SegoeUI" font-size="10.00">&#45; cam</text>
<polyline fill="none" stroke="black" points="28.5,-510.5 147.5,-510.5 "/>
<text text-anchor="start" x="36.5" y="-498.5" font-family="SegoeUI" font-size="10.00">+ StartXRDisplay()</text>
<text text-anchor="start" x="36.5" y="-487.5" font-family="SegoeUI" font-size="10.00">+ StopXRDisplay()</text>
<text text-anchor="start" x="36.5" y="-476.5" font-family="SegoeUI" font-size="10.00">+ DisableDisplay()</text>
<text text-anchor="start" x="36.5" y="-465.5" font-family="SegoeUI" font-size="10.00">+ StartAR()</text>
<text text-anchor="start" x="36.5" y="-454.5" font-family="SegoeUI" font-size="10.00">+ StopAR()</text>
<text text-anchor="start" x="36.5" y="-443.5" font-family="SegoeUI" font-size="10.00">+ ToggleAR()</text>
<text text-anchor="start" x="36.5" y="-432.5" font-family="SegoeUI" font-size="10.00">+ Awake()</text>
<text text-anchor="start" x="36.5" y="-421.5" font-family="SegoeUI" font-size="10.00">+ Reinstall()</text>
<text text-anchor="start" x="36.5" y="-410.5" font-family="SegoeUI" font-size="10.00">+ Reset()</text>
<text text-anchor="start" x="36.5" y="-399.5" font-family="SegoeUI" font-size="10.00">+ Install()</text>
<text text-anchor="start" x="36.5" y="-388.5" font-family="SegoeUI" font-size="10.00">+ Uninstall()</text>
<text text-anchor="start" x="36.5" y="-377.5" font-family="SegoeUI" font-size="10.00">+ Update()</text>
<text text-anchor="start" x="36.5" y="-366.5" font-family="SegoeUI" font-size="10.00">&#45; ChangeDisplayType()</text>
<text text-anchor="start" x="36.5" y="-355.5" font-family="SegoeUI" font-size="10.00">&#45; ChangeARMode()</text>
</a>
</g>
</g>
<!-- Node2&#45;&gt;Node1 -->
<g id="edge2" class="edge"><title>Node2&#45;&gt;Node1</title>
<path fill="none" stroke="midnightblue" d="M88,-338.154C88,-328.688 88,-319.753 88,-311.71"/>
<polygon fill="none" stroke="midnightblue" points="84.5001,-338.195 88,-348.195 91.5001,-338.195 84.5001,-338.195"/>
</g>
<!-- Node3 -->
<g id="node4" class="node"><title>Node3</title>
<g id="a_node4"><a xlink:title=" ">
<polygon fill="white" stroke="#bfbfbf" points="0,-684.5 0,-741.5 82,-741.5 82,-684.5 0,-684.5"/>
<text text-anchor="middle" x="41" y="-729.5" font-family="SegoeUI" font-size="10.00">MonoBehaviour</text>
<polyline fill="none" stroke="#bfbfbf" points="0,-722.5 82,-722.5 "/>
<text text-anchor="middle" x="41" y="-710.5" font-family="SegoeUI" font-size="10.00"> </text>
<polyline fill="none" stroke="#bfbfbf" points="0,-703.5 82,-703.5 "/>
<text text-anchor="middle" x="41" y="-691.5" font-family="SegoeUI" font-size="10.00"> </text>
</a>
</g>
</g>
<!-- Node3&#45;&gt;Node2 -->
<g id="edge3" class="edge"><title>Node3&#45;&gt;Node2</title>
<path fill="none" stroke="midnightblue" d="M49.1089,-674.302C51.4847,-663.257 54.2351,-650.471 57.1537,-636.903"/>
<polygon fill="none" stroke="midnightblue" points="45.6339,-673.814 46.9526,-684.327 52.4773,-675.286 45.6339,-673.814"/>
</g>
<!-- Node4 -->
<g id="node5" class="node"><title>Node4</title>
<g id="a_node5"><a xlink:href="../../db/d28/interface_juniper_1_1_i_installable.html" target="_top" xlink:title=" ">
<polygon fill="white" stroke="black" points="100.5,-673.5 100.5,-752.5 169.5,-752.5 169.5,-673.5 100.5,-673.5"/>
<text text-anchor="middle" x="135" y="-740.5" font-family="SegoeUI" font-size="10.00">IInstallable</text>
<polyline fill="none" stroke="black" points="100.5,-733.5 169.5,-733.5 "/>
<text text-anchor="middle" x="135" y="-721.5" font-family="SegoeUI" font-size="10.00"> </text>
<polyline fill="none" stroke="black" points="100.5,-714.5 169.5,-714.5 "/>
<text text-anchor="start" x="108.5" y="-702.5" font-family="SegoeUI" font-size="10.00">+ Install()</text>
<text text-anchor="start" x="108.5" y="-691.5" font-family="SegoeUI" font-size="10.00">+ Reinstall()</text>
<text text-anchor="start" x="108.5" y="-680.5" font-family="SegoeUI" font-size="10.00">+ Uninstall()</text>
</a>
</g>
</g>
<!-- Node4&#45;&gt;Node2 -->
<g id="edge4" class="edge"><title>Node4&#45;&gt;Node2</title>
<path fill="none" stroke="midnightblue" d="M124.588,-663.593C122.786,-655.218 120.834,-646.143 118.801,-636.691"/>
<polygon fill="none" stroke="midnightblue" points="121.181,-664.399 126.706,-673.44 128.024,-662.927 121.181,-664.399"/>
</g>
</g>
</svg>
