<?xml version="1.0" encoding="UTF-8" standalone="no"?>
<!DOCTYPE svg PUBLIC "-//W3C//DTD SVG 1.1//EN"
 "http://www.w3.org/Graphics/SVG/1.1/DTD/svg11.dtd">
<!-- Generated by graphviz version 2.38.0 (20140413.2041)
 -->
<!-- Title: BitMiracle.LibJpeg.BitmapDestination Pages: 1 -->
<svg width="272pt" height="512pt"
 viewBox="0.00 0.00 271.50 512.00" xmlns="http://www.w3.org/2000/svg" xmlns:xlink="http://www.w3.org/1999/xlink">
<g id="graph0" class="graph" transform="scale(1 1) rotate(0) translate(4 508)">
<title>BitMiracle.LibJpeg.BitmapDestination</title>
<polygon fill="white" stroke="none" points="-4,4 -4,-508 267.5,-508 267.5,4 -4,4"/>
<!-- Node2 -->
<g id="node1" class="node"><title>Node2</title>
<g id="a_node1"><a xlink:title=" ">
<polygon fill="#bfbfbf" stroke="black" points="56,-0.5 56,-277.5 203,-277.5 203,-0.5 56,-0.5"/>
<text text-anchor="start" x="64" y="-265.5" font-family="SegoeUI" font-size="10.00">BitMiracle.LibJpeg.Bitmap</text>
<text text-anchor="middle" x="129.5" y="-254.5" font-family="SegoeUI" font-size="10.00">Destination</text>
<polyline fill="none" stroke="black" points="56,-247.5 203,-247.5 "/>
<text text-anchor="start" x="64" y="-235.5" font-family="SegoeUI" font-size="10.00">+ Output</text>
<text text-anchor="start" x="64" y="-224.5" font-family="SegoeUI" font-size="10.00">&#45; m_pixels</text>
<text text-anchor="start" x="64" y="-213.5" font-family="SegoeUI" font-size="10.00">&#45; m_rowWidth</text>
<text text-anchor="start" x="64" y="-202.5" font-family="SegoeUI" font-size="10.00">&#45; m_currentRow</text>
<polyline fill="none" stroke="black" points="56,-195.5 203,-195.5 "/>
<text text-anchor="start" x="64" y="-183.5" font-family="SegoeUI" font-size="10.00">+ BitmapDestination()</text>
<text text-anchor="start" x="64" y="-172.5" font-family="SegoeUI" font-size="10.00">+ SetImageAttributes()</text>
<text text-anchor="start" x="64" y="-161.5" font-family="SegoeUI" font-size="10.00">+ BeginWrite()</text>
<text text-anchor="start" x="64" y="-150.5" font-family="SegoeUI" font-size="10.00">+ ProcessPixelsRow()</text>
<text text-anchor="start" x="64" y="-139.5" font-family="SegoeUI" font-size="10.00">+ EndWrite()</text>
<text text-anchor="start" x="64" y="-128.5" font-family="SegoeUI" font-size="10.00">&#45; PutGrayRow()</text>
<text text-anchor="start" x="64" y="-117.5" font-family="SegoeUI" font-size="10.00">&#45; PutRgbRow()</text>
<text text-anchor="start" x="64" y="-106.5" font-family="SegoeUI" font-size="10.00">&#45; PutCmykRow()</text>
<text text-anchor="start" x="64" y="-95.5" font-family="SegoeUI" font-size="10.00">&#45; WriteHeader()</text>
<text text-anchor="start" x="64" y="-84.5" font-family="SegoeUI" font-size="10.00">&#45; CreateBitmapInfoHeader()</text>
<text text-anchor="start" x="64" y="-73.5" font-family="SegoeUI" font-size="10.00">&#45; FillBitmapInfoHeader()</text>
<text text-anchor="start" x="64" y="-62.5" font-family="SegoeUI" font-size="10.00">&#45; CreateBitmapV4InfoHeader()</text>
<text text-anchor="start" x="64" y="-51.5" font-family="SegoeUI" font-size="10.00">&#45; WriteColormap()</text>
<text text-anchor="start" x="64" y="-40.5" font-family="SegoeUI" font-size="10.00">&#45; WritePixels()</text>
<text text-anchor="start" x="64" y="-29.5" font-family="SegoeUI" font-size="10.00">&#45; CreateBitmapFileHeader()</text>
<text text-anchor="start" x="64" y="-18.5" font-family="SegoeUI" font-size="10.00">&#45; PUT_2B()</text>
<text text-anchor="start" x="64" y="-7.5" font-family="SegoeUI" font-size="10.00">&#45; PUT_4B()</text>
</a>
</g>
</g>
<!-- Node3 -->
<g id="node2" class="node"><title>Node3</title>
<g id="a_node2"><a xlink:href="../../de/d44/interface_bit_miracle_1_1_lib_jpeg_1_1_i_decompress_destination.html" target="_top" xlink:title="Common interface for processing of decompression.">
<polygon fill="white" stroke="black" points="0,-369.5 0,-459.5 119,-459.5 119,-369.5 0,-369.5"/>
<text text-anchor="middle" x="59.5" y="-447.5" font-family="SegoeUI" font-size="10.00">IDecompressDestination</text>
<polyline fill="none" stroke="black" points="0,-440.5 119,-440.5 "/>
<text text-anchor="start" x="8" y="-428.5" font-family="SegoeUI" font-size="10.00">+ Output</text>
<polyline fill="none" stroke="black" points="0,-421.5 119,-421.5 "/>
<text text-anchor="start" x="8" y="-409.5" font-family="SegoeUI" font-size="10.00">+ SetImageAttributes()</text>
<text text-anchor="start" x="8" y="-398.5" font-family="SegoeUI" font-size="10.00">+ BeginWrite()</text>
<text text-anchor="start" x="8" y="-387.5" font-family="SegoeUI" font-size="10.00">+ ProcessPixelsRow()</text>
<text text-anchor="start" x="8" y="-376.5" font-family="SegoeUI" font-size="10.00">+ EndWrite()</text>
</a>
</g>
</g>
<!-- Node3&#45;&gt;Node2 -->
<g id="edge1" class="edge"><title>Node3&#45;&gt;Node2</title>
<path fill="none" stroke="midnightblue" d="M73.3388,-359.43C79.409,-335.713 86.8386,-306.684 94.2815,-277.604"/>
<polygon fill="none" stroke="midnightblue" points="69.9134,-358.698 70.8245,-369.254 76.6948,-360.434 69.9134,-358.698"/>
</g>
<!-- Node4 -->
<g id="node3" class="node"><title>Node4</title>
<g id="a_node3"><a xlink:href="../../d1/d2e/class_bit_miracle_1_1_lib_jpeg_1_1_loaded_image_attributes.html" target="_top" xlink:title="Holds parameters of image for decompression (IDecomressDesination)">
<polygon fill="white" stroke="black" points="137.5,-325.5 137.5,-503.5 263.5,-503.5 263.5,-325.5 137.5,-325.5"/>
<text text-anchor="start" x="145.5" y="-491.5" font-family="SegoeUI" font-size="10.00">BitMiracle.LibJpeg.Loaded</text>
<text text-anchor="middle" x="200.5" y="-480.5" font-family="SegoeUI" font-size="10.00">ImageAttributes</text>
<polyline fill="none" stroke="black" points="137.5,-473.5 263.5,-473.5 "/>
<text text-anchor="start" x="145.5" y="-461.5" font-family="SegoeUI" font-size="10.00">+ Colorspace</text>
<text text-anchor="start" x="145.5" y="-450.5" font-family="SegoeUI" font-size="10.00">+ QuantizeColors</text>
<text text-anchor="start" x="145.5" y="-439.5" font-family="SegoeUI" font-size="10.00">+ Width</text>
<text text-anchor="start" x="145.5" y="-428.5" font-family="SegoeUI" font-size="10.00">+ Height</text>
<text text-anchor="start" x="145.5" y="-417.5" font-family="SegoeUI" font-size="10.00">+ ComponentsPerSample</text>
<text text-anchor="start" x="145.5" y="-406.5" font-family="SegoeUI" font-size="10.00">+ Components</text>
<text text-anchor="start" x="145.5" y="-395.5" font-family="SegoeUI" font-size="10.00">+ ActualNumberOfColors</text>
<text text-anchor="start" x="145.5" y="-384.5" font-family="SegoeUI" font-size="10.00">+ Colormap</text>
<text text-anchor="start" x="145.5" y="-373.5" font-family="SegoeUI" font-size="10.00">+ DensityUnit</text>
<text text-anchor="start" x="145.5" y="-362.5" font-family="SegoeUI" font-size="10.00">+ DensityX</text>
<text text-anchor="start" x="145.5" y="-351.5" font-family="SegoeUI" font-size="10.00">+ DensityY</text>
<polyline fill="none" stroke="black" points="137.5,-344.5 263.5,-344.5 "/>
<text text-anchor="middle" x="200.5" y="-332.5" font-family="SegoeUI" font-size="10.00"> </text>
</a>
</g>
</g>
<!-- Node4&#45;&gt;Node2 -->
<g id="edge2" class="edge"><title>Node4&#45;&gt;Node2</title>
<path fill="none" stroke="#404040" d="M177.644,-325.457C174.634,-313.86 171.484,-301.726 168.298,-289.453"/>
<polygon fill="none" stroke="#404040" points="168.251,-289.273 162.872,-284.47 165.236,-277.658 170.615,-282.46 168.251,-289.273"/>
<text text-anchor="middle" x="206.5" y="-299" font-family="SegoeUI" font-size="10.00"> &#45;m_parameters</text>
</g>
</g>
</svg>
