<?xml version="1.0" encoding="UTF-8" standalone="no"?>
<!DOCTYPE svg PUBLIC "-//W3C//DTD SVG 1.1//EN"
 "http://www.w3.org/Graphics/SVG/1.1/DTD/svg11.dtd">
<!-- Generated by graphviz version 2.38.0 (20140413.2041)
 -->
<!-- Title: Juniper.IO.IFactory&lt; ResultT, out out MediaTypeT &gt; Pages: 1 -->
<svg width="436pt" height="288pt"
 viewBox="0.00 0.00 436.00 288.00" xmlns="http://www.w3.org/2000/svg" xmlns:xlink="http://www.w3.org/1999/xlink">
<g id="graph0" class="graph" transform="scale(1 1) rotate(0) translate(4 284)">
<title>Juniper.IO.IFactory&lt; ResultT, out out MediaTypeT &gt;</title>
<polygon fill="white" stroke="none" points="-4,4 -4,-284 432,-284 432,4 -4,4"/>
<!-- Node33 -->
<g id="node1" class="node"><title>Node33</title>
<g id="a_node1"><a xlink:title=" ">
<polygon fill="#bfbfbf" stroke="black" points="111,-0.5 111,-68.5 271,-68.5 271,-0.5 111,-0.5"/>
<text text-anchor="start" x="119" y="-56.5" font-family="SegoeUI" font-size="10.00">Juniper.IO.IFactory</text>
<text text-anchor="middle" x="191" y="-45.5" font-family="SegoeUI" font-size="10.00">&lt; ResultT, out out MediaTypeT &gt;</text>
<polyline fill="none" stroke="black" points="111,-38.5 271,-38.5 "/>
<text text-anchor="middle" x="191" y="-26.5" font-family="SegoeUI" font-size="10.00"> </text>
<polyline fill="none" stroke="black" points="111,-19.5 271,-19.5 "/>
<text text-anchor="middle" x="191" y="-7.5" font-family="SegoeUI" font-size="10.00"> </text>
</a>
</g>
</g>
<!-- Node34 -->
<g id="node2" class="node"><title>Node34</title>
<g id="a_node2"><a xlink:href="../../de/d17/interface_juniper_1_1_i_o_1_1_i_serializer.html" target="_top" xlink:title=" ">
<polygon fill="white" stroke="black" points="0,-106.5 0,-163.5 112,-163.5 112,-106.5 0,-106.5"/>
<text text-anchor="middle" x="56" y="-151.5" font-family="SegoeUI" font-size="10.00">ISerializer&lt; ResultT &gt;</text>
<polyline fill="none" stroke="black" points="0,-144.5 112,-144.5 "/>
<text text-anchor="middle" x="56" y="-132.5" font-family="SegoeUI" font-size="10.00"> </text>
<polyline fill="none" stroke="black" points="0,-125.5 112,-125.5 "/>
<text text-anchor="start" x="8" y="-113.5" font-family="SegoeUI" font-size="10.00">+ Serialize()</text>
</a>
</g>
</g>
<!-- Node34&#45;&gt;Node33 -->
<g id="edge1" class="edge"><title>Node34&#45;&gt;Node33</title>
<path fill="none" stroke="midnightblue" d="M102.075,-100.383C116.158,-90.1068 131.63,-78.8181 145.664,-68.5784"/>
<polygon fill="none" stroke="midnightblue" points="99.9796,-97.5785 93.9643,-106.3 104.106,-103.233 99.9796,-97.5785"/>
</g>
<!-- Node35 -->
<g id="node3" class="node"><title>Node35</title>
<g id="a_node3"><a xlink:href="../../de/d17/interface_juniper_1_1_i_o_1_1_i_serializer.html" target="_top" xlink:title=" ">
<polygon fill="white" stroke="black" points="2.5,-211.5 2.5,-279.5 109.5,-279.5 109.5,-211.5 2.5,-211.5"/>
<text text-anchor="start" x="10.5" y="-267.5" font-family="SegoeUI" font-size="10.00">Juniper.IO.ISerializer</text>
<text text-anchor="middle" x="56" y="-256.5" font-family="SegoeUI" font-size="10.00">&lt; in in T &gt;</text>
<polyline fill="none" stroke="black" points="2.5,-249.5 109.5,-249.5 "/>
<text text-anchor="middle" x="56" y="-237.5" font-family="SegoeUI" font-size="10.00"> </text>
<polyline fill="none" stroke="black" points="2.5,-230.5 109.5,-230.5 "/>
<text text-anchor="start" x="10.5" y="-218.5" font-family="SegoeUI" font-size="10.00">+ Serialize()</text>
</a>
</g>
</g>
<!-- Node35&#45;&gt;Node34 -->
<g id="edge2" class="edge"><title>Node35&#45;&gt;Node34</title>
<path fill="none" stroke="orange" d="M56,-201.064C56,-188.511 56,-175.152 56,-163.827"/>
<polygon fill="orange" stroke="orange" points="52.5001,-201.357 56,-211.357 59.5001,-201.357 52.5001,-201.357"/>
<text text-anchor="middle" x="83.5" y="-185" font-family="SegoeUI" font-size="10.00"> &lt; ResultT &gt;</text>
</g>
<!-- Node36 -->
<g id="node4" class="node"><title>Node36</title>
<g id="a_node4"><a xlink:href="../../d1/d4d/interface_juniper_1_1_i_o_1_1_i_deserializer.html" target="_top" xlink:title=" ">
<polygon fill="white" stroke="black" points="130,-106.5 130,-163.5 252,-163.5 252,-106.5 130,-106.5"/>
<text text-anchor="middle" x="191" y="-151.5" font-family="SegoeUI" font-size="10.00">IDeserializer&lt; ResultT &gt;</text>
<polyline fill="none" stroke="black" points="130,-144.5 252,-144.5 "/>
<text text-anchor="middle" x="191" y="-132.5" font-family="SegoeUI" font-size="10.00"> </text>
<polyline fill="none" stroke="black" points="130,-125.5 252,-125.5 "/>
<text text-anchor="start" x="138" y="-113.5" font-family="SegoeUI" font-size="10.00">+ Deserialize()</text>
</a>
</g>
</g>
<!-- Node36&#45;&gt;Node33 -->
<g id="edge3" class="edge"><title>Node36&#45;&gt;Node33</title>
<path fill="none" stroke="midnightblue" d="M191,-96.0069C191,-86.9624 191,-77.3826 191,-68.5784"/>
<polygon fill="none" stroke="midnightblue" points="187.5,-96.3001 191,-106.3 194.5,-96.3002 187.5,-96.3001"/>
</g>
<!-- Node37 -->
<g id="node5" class="node"><title>Node37</title>
<g id="a_node5"><a xlink:href="../../d1/d4d/interface_juniper_1_1_i_o_1_1_i_deserializer.html" target="_top" xlink:title=" ">
<polygon fill="white" stroke="black" points="133,-211.5 133,-279.5 249,-279.5 249,-211.5 133,-211.5"/>
<text text-anchor="start" x="141" y="-267.5" font-family="SegoeUI" font-size="10.00">Juniper.IO.IDeserializer</text>
<text text-anchor="middle" x="191" y="-256.5" font-family="SegoeUI" font-size="10.00">&lt; out out ResultT &gt;</text>
<polyline fill="none" stroke="black" points="133,-249.5 249,-249.5 "/>
<text text-anchor="middle" x="191" y="-237.5" font-family="SegoeUI" font-size="10.00"> </text>
<polyline fill="none" stroke="black" points="133,-230.5 249,-230.5 "/>
<text text-anchor="start" x="141" y="-218.5" font-family="SegoeUI" font-size="10.00">+ Deserialize()</text>
</a>
</g>
</g>
<!-- Node37&#45;&gt;Node36 -->
<g id="edge4" class="edge"><title>Node37&#45;&gt;Node36</title>
<path fill="none" stroke="orange" d="M191,-201.064C191,-188.511 191,-175.152 191,-163.827"/>
<polygon fill="orange" stroke="orange" points="187.5,-201.357 191,-211.357 194.5,-201.357 187.5,-201.357"/>
<text text-anchor="middle" x="218.5" y="-185" font-family="SegoeUI" font-size="10.00"> &lt; ResultT &gt;</text>
</g>
<!-- Node38 -->
<g id="node6" class="node"><title>Node38</title>
<g id="a_node6"><a xlink:href="../../da/d97/interface_juniper_1_1_i_o_1_1_i_content_handler.html" target="_top" xlink:title=" ">
<polygon fill="white" stroke="black" points="270,-106.5 270,-163.5 428,-163.5 428,-106.5 270,-106.5"/>
<text text-anchor="middle" x="349" y="-151.5" font-family="SegoeUI" font-size="10.00">IContentHandler&lt; MediaTypeT &gt;</text>
<polyline fill="none" stroke="black" points="270,-144.5 428,-144.5 "/>
<text text-anchor="middle" x="349" y="-132.5" font-family="SegoeUI" font-size="10.00"> </text>
<polyline fill="none" stroke="black" points="270,-125.5 428,-125.5 "/>
<text text-anchor="middle" x="349" y="-113.5" font-family="SegoeUI" font-size="10.00"> </text>
</a>
</g>
</g>
<!-- Node38&#45;&gt;Node33 -->
<g id="edge5" class="edge"><title>Node38&#45;&gt;Node33</title>
<path fill="none" stroke="midnightblue" d="M295.998,-100.958C279.27,-90.5292 260.792,-79.0095 244.06,-68.5784"/>
<polygon fill="none" stroke="midnightblue" points="294.23,-103.98 304.568,-106.3 297.933,-98.0396 294.23,-103.98"/>
</g>
<!-- Node39 -->
<g id="node7" class="node"><title>Node39</title>
<g id="a_node7"><a xlink:href="../../da/d97/interface_juniper_1_1_i_o_1_1_i_content_handler.html" target="_top" xlink:title=" ">
<polygon fill="white" stroke="black" points="283,-217 283,-274 415,-274 415,-217 283,-217"/>
<text text-anchor="middle" x="349" y="-262" font-family="SegoeUI" font-size="10.00">Juniper.IO.IContentHandler</text>
<polyline fill="none" stroke="black" points="283,-255 415,-255 "/>
<text text-anchor="middle" x="349" y="-243" font-family="SegoeUI" font-size="10.00"> </text>
<polyline fill="none" stroke="black" points="283,-236 415,-236 "/>
<text text-anchor="middle" x="349" y="-224" font-family="SegoeUI" font-size="10.00"> </text>
</a>
</g>
</g>
<!-- Node39&#45;&gt;Node38 -->
<g id="edge6" class="edge"><title>Node39&#45;&gt;Node38</title>
<path fill="none" stroke="orange" d="M349,-206.436C349,-192.327 349,-176.611 349,-163.609"/>
<polygon fill="orange" stroke="orange" points="345.5,-206.84 349,-216.84 352.5,-206.84 345.5,-206.84"/>
<text text-anchor="middle" x="387" y="-185" font-family="SegoeUI" font-size="10.00"> &lt; MediaTypeT &gt;</text>
</g>
</g>
</svg>
