<?xml version="1.0" encoding="UTF-8" standalone="no"?>
<!DOCTYPE svg PUBLIC "-//W3C//DTD SVG 1.1//EN"
 "http://www.w3.org/Graphics/SVG/1.1/DTD/svg11.dtd">
<!-- Generated by graphviz version 2.38.0 (20140413.2041)
 -->
<!-- Title: Juniper.Unity.Anchoring.HoloLensAnchorStore Pages: 1 -->
<svg width="228pt" height="530pt"
 viewBox="0.00 0.00 228.00 530.00" xmlns="http://www.w3.org/2000/svg" xmlns:xlink="http://www.w3.org/1999/xlink">
<g id="graph0" class="graph" transform="scale(1 1) rotate(0) translate(4 526)">
<title>Juniper.Unity.Anchoring.HoloLensAnchorStore</title>
<polygon fill="white" stroke="none" points="-4,4 -4,-526 224,-526 224,4 -4,4"/>
<!-- Node3 -->
<g id="node1" class="node"><title>Node3</title>
<g id="a_node1"><a xlink:title=" ">
<polygon fill="#bfbfbf" stroke="black" points="20,-0.5 20,-123.5 140,-123.5 140,-0.5 20,-0.5"/>
<text text-anchor="start" x="28" y="-111.5" font-family="SegoeUI" font-size="10.00">Juniper.Unity.Anchoring.</text>
<text text-anchor="middle" x="80" y="-100.5" font-family="SegoeUI" font-size="10.00">HoloLensAnchorStore</text>
<polyline fill="none" stroke="black" points="20,-93.5 140,-93.5 "/>
<text text-anchor="start" x="28" y="-81.5" font-family="SegoeUI" font-size="10.00">&#45; anchorStore</text>
<polyline fill="none" stroke="black" points="20,-74.5 140,-74.5 "/>
<text text-anchor="start" x="28" y="-62.5" font-family="SegoeUI" font-size="10.00">+ Awake()</text>
<text text-anchor="start" x="28" y="-51.5" font-family="SegoeUI" font-size="10.00">+ HasAnchor()</text>
<text text-anchor="start" x="28" y="-40.5" font-family="SegoeUI" font-size="10.00"># IsSaved()</text>
<text text-anchor="start" x="28" y="-29.5" font-family="SegoeUI" font-size="10.00"># LoadAnchor()</text>
<text text-anchor="start" x="28" y="-18.5" font-family="SegoeUI" font-size="10.00"># IsGood()</text>
<text text-anchor="start" x="28" y="-7.5" font-family="SegoeUI" font-size="10.00"># DeleteAnchor()</text>
</a>
</g>
</g>
<!-- Node4 -->
<g id="node2" class="node"><title>Node4</title>
<g id="a_node2"><a xlink:href="../../dd/dac/class_juniper_1_1_unity_1_1_anchoring_1_1_abstract_anchor_store.html" target="_top" xlink:title="A store for points in space that the system will restore on second&#45;run. By default,...">
<polygon fill="white" stroke="black" points="22,-161.5 22,-405.5 138,-405.5 138,-161.5 22,-161.5"/>
<text text-anchor="start" x="30" y="-393.5" font-family="SegoeUI" font-size="10.00">AbstractAnchorStore</text>
<text text-anchor="middle" x="80" y="-382.5" font-family="SegoeUI" font-size="10.00">&lt; AnchorType &gt;</text>
<polyline fill="none" stroke="black" points="22,-375.5 138,-375.5 "/>
<text text-anchor="start" x="30" y="-363.5" font-family="SegoeUI" font-size="10.00">+ NameList</text>
<text text-anchor="start" x="30" y="-352.5" font-family="SegoeUI" font-size="10.00">&#45; KEY_LIST_KEY</text>
<polyline fill="none" stroke="black" points="22,-345.5 138,-345.5 "/>
<text text-anchor="start" x="30" y="-333.5" font-family="SegoeUI" font-size="10.00">+ ResetData()</text>
<text text-anchor="start" x="30" y="-322.5" font-family="SegoeUI" font-size="10.00">+ DropAnchor()</text>
<text text-anchor="start" x="30" y="-311.5" font-family="SegoeUI" font-size="10.00">+ WeighAnchor()</text>
<text text-anchor="start" x="30" y="-300.5" font-family="SegoeUI" font-size="10.00">+ HasAnchor()</text>
<text text-anchor="start" x="30" y="-289.5" font-family="SegoeUI" font-size="10.00"># SynchronizeAnchor()</text>
<text text-anchor="start" x="30" y="-278.5" font-family="SegoeUI" font-size="10.00"># IsGood()</text>
<text text-anchor="start" x="30" y="-267.5" font-family="SegoeUI" font-size="10.00"># DeleteAnchor()</text>
<text text-anchor="start" x="30" y="-256.5" font-family="SegoeUI" font-size="10.00"># FindAnchor()</text>
<text text-anchor="start" x="30" y="-245.5" font-family="SegoeUI" font-size="10.00"># IsSaved()</text>
<text text-anchor="start" x="30" y="-234.5" font-family="SegoeUI" font-size="10.00"># CreateAnchor()</text>
<text text-anchor="start" x="30" y="-223.5" font-family="SegoeUI" font-size="10.00"># LoadAnchor()</text>
<text text-anchor="start" x="30" y="-212.5" font-family="SegoeUI" font-size="10.00"># MakeID()</text>
<text text-anchor="start" x="30" y="-201.5" font-family="SegoeUI" font-size="10.00"># HasValue()</text>
<text text-anchor="start" x="30" y="-190.5" font-family="SegoeUI" font-size="10.00"># SaveValue&lt; T &gt;()</text>
<text text-anchor="start" x="30" y="-179.5" font-family="SegoeUI" font-size="10.00"># LoadValue&lt; T &gt;()</text>
<text text-anchor="start" x="30" y="-168.5" font-family="SegoeUI" font-size="10.00"># DeleteValue()</text>
</a>
</g>
</g>
<!-- Node4&#45;&gt;Node3 -->
<g id="edge1" class="edge"><title>Node4&#45;&gt;Node3</title>
<path fill="none" stroke="midnightblue" d="M80,-150.904C80,-141.489 80,-132.297 80,-123.622"/>
<polygon fill="none" stroke="midnightblue" points="76.5001,-151.194 80,-161.194 83.5001,-151.194 76.5001,-151.194"/>
</g>
<!-- Node5 -->
<g id="node3" class="node"><title>Node5</title>
<g id="a_node3"><a xlink:title=" ">
<polygon fill="white" stroke="#bfbfbf" points="0,-464.5 0,-521.5 82,-521.5 82,-464.5 0,-464.5"/>
<text text-anchor="middle" x="41" y="-509.5" font-family="SegoeUI" font-size="10.00">MonoBehaviour</text>
<polyline fill="none" stroke="#bfbfbf" points="0,-502.5 82,-502.5 "/>
<text text-anchor="middle" x="41" y="-490.5" font-family="SegoeUI" font-size="10.00"> </text>
<polyline fill="none" stroke="#bfbfbf" points="0,-483.5 82,-483.5 "/>
<text text-anchor="middle" x="41" y="-471.5" font-family="SegoeUI" font-size="10.00"> </text>
</a>
</g>
</g>
<!-- Node5&#45;&gt;Node4 -->
<g id="edge2" class="edge"><title>Node5&#45;&gt;Node4</title>
<path fill="none" stroke="midnightblue" d="M48.0996,-454.226C50.7534,-440.107 53.9308,-423.201 57.2371,-405.611"/>
<polygon fill="none" stroke="midnightblue" points="44.5864,-453.971 46.1789,-464.446 51.4659,-455.264 44.5864,-453.971"/>
</g>
<!-- Node6 -->
<g id="node4" class="node"><title>Node6</title>
<g id="a_node4"><a xlink:title=" ">
<polygon fill="white" stroke="#bfbfbf" points="100.5,-464.5 100.5,-521.5 139.5,-521.5 139.5,-464.5 100.5,-464.5"/>
<text text-anchor="middle" x="120" y="-509.5" font-family="SegoeUI" font-size="10.00">static</text>
<polyline fill="none" stroke="#bfbfbf" points="100.5,-502.5 139.5,-502.5 "/>
<text text-anchor="middle" x="120" y="-490.5" font-family="SegoeUI" font-size="10.00"> </text>
<polyline fill="none" stroke="#bfbfbf" points="100.5,-483.5 139.5,-483.5 "/>
<text text-anchor="middle" x="120" y="-471.5" font-family="SegoeUI" font-size="10.00"> </text>
</a>
</g>
</g>
<!-- Node6&#45;&gt;Node4 -->
<g id="edge3" class="edge"><title>Node6&#45;&gt;Node4</title>
<path fill="none" stroke="#404040" d="M114.688,-464.446C112.207,-451.575 109.054,-435.218 105.664,-417.634"/>
<polygon fill="none" stroke="#404040" points="105.618,-417.394 100.555,-412.259 103.347,-405.611 108.41,-410.745 105.618,-417.394"/>
<text text-anchor="middle" x="165.5" y="-438" font-family="SegoeUI" font-size="10.00"> &#45;EMPTY_STRING_ARRAY</text>
<text text-anchor="middle" x="165.5" y="-427" font-family="SegoeUI" font-size="10.00">&#45;ID_PREFIX</text>
</g>
</g>
</svg>
