<?xml version="1.0" encoding="UTF-8" standalone="no"?>
<!DOCTYPE svg PUBLIC "-//W3C//DTD SVG 1.1//EN"
 "http://www.w3.org/Graphics/SVG/1.1/DTD/svg11.dtd">
<!-- Generated by graphviz version 2.38.0 (20140413.2041)
 -->
<!-- Title: Juniper.Unity.Audio.ResonanceInteractionAudio Pages: 1 -->
<!--zoomable 1217 -->
<svg id="main" version="1.1" xmlns="http://www.w3.org/2000/svg" xmlns:xlink="http://www.w3.org/1999/xlink" xml:space="preserve" onload="init(evt)">
<style type="text/css"><![CDATA[
.edge:hover path { stroke: red; }
.edge:hover polygon { stroke: red; fill: red; }
]]></style>
<script type="text/javascript"><![CDATA[
var edges = document.getElementsByTagName('g');
if (edges && edges.length) {
  for (var i=0;i<edges.length;i++) {
    if (edges[i].id.substr(0,4)=='edge') {
      edges[i].setAttribute('class','edge');
    }
  }
}
]]></script>
        <defs>
                <circle id="rim" cx="0" cy="0" r="7"/>
                <circle id="rim2" cx="0" cy="0" r="3.5"/>
                <g id="zoomPlus">
                        <use xlink:href="#rim" fill="#404040">
                                <set attributeName="fill" to="#808080" begin="zoomplus.mouseover" end="zoomplus.mouseout"/>
                        </use>
                        <path d="M-4,0h8M0,-4v8" fill="none" stroke="white" stroke-width="1.5" pointer-events="none"/>
                </g>
                <g id="zoomMin">
                        <use xlink:href="#rim" fill="#404040">
                                <set attributeName="fill" to="#808080" begin="zoomminus.mouseover" end="zoomminus.mouseout"/>
                        </use>
                        <path d="M-4,0h8" fill="none" stroke="white" stroke-width="1.5" pointer-events="none"/>
                </g>
                <g id="dirArrow">
                        <path fill="none" stroke="white" stroke-width="1.5" d="M0,-3.0v7 M-2.5,-0.5L0,-3.0L2.5,-0.5"/>
                </g>
               <g id="resetDef">
                       <use xlink:href="#rim2" fill="#404040">
                               <set attributeName="fill" to="#808080" begin="reset.mouseover" end="reset.mouseout"/>
                       </use>
               </g>
        </defs>

<script type="text/javascript">
var viewWidth = 623;
var viewHeight = 1217;
var sectionId = 'dynsection-1';
</script>
<script xlink:href="../../svgpan.js"/>
<svg id="graph" class="graph">
<g id="viewport">
<title>Juniper.Unity.Audio.ResonanceInteractionAudio</title>
<polygon fill="white" stroke="none" points="-4,4 -4,-1213 618.5,-1213 618.5,4 -4,4"/>
<!-- Node5 -->
<g id="node1" class="node"><title>Node5</title>
<g id="a_node1"><a xlink:title=" ">
<polygon fill="#bfbfbf" stroke="black" points="225,-0.5 225,-112.5 373,-112.5 373,-0.5 225,-0.5"/>
<text text-anchor="start" x="233" y="-100.5" font-family="SegoeUI" font-size="10.00">Juniper.Unity.Audio.Resonance</text>
<text text-anchor="middle" x="299" y="-89.5" font-family="SegoeUI" font-size="10.00">InteractionAudio</text>
<polyline fill="none" stroke="black" points="225,-82.5 373,-82.5 "/>
<text text-anchor="start" x="233" y="-70.5" font-family="SegoeUI" font-size="10.00">+ DefaultAudioMixer</text>
<text text-anchor="start" x="233" y="-59.5" font-family="SegoeUI" font-size="10.00"># resListener</text>
<polyline fill="none" stroke="black" points="225,-52.5 373,-52.5 "/>
<text text-anchor="start" x="233" y="-40.5" font-family="SegoeUI" font-size="10.00">+ Install()</text>
<text text-anchor="start" x="233" y="-29.5" font-family="SegoeUI" font-size="10.00">+ Uninstall()</text>
<text text-anchor="start" x="233" y="-18.5" font-family="SegoeUI" font-size="10.00"># InternalSpatialize()</text>
<text text-anchor="start" x="233" y="-7.5" font-family="SegoeUI" font-size="10.00">&#45; OnDisplayTypeChange()</text>
</a>
</g>
</g>
<!-- Node6 -->
<g id="node2" class="node"><title>Node6</title>
<g id="a_node2"><a xlink:href="../../d2/dab/class_juniper_1_1_unity_1_1_audio_1_1_abstract_interaction_audio.html" target="_top" xlink:title="The audio portion of the interaction system.">
<polygon fill="white" stroke="black" points="233,-150.5 233,-614.5 365,-614.5 365,-150.5 233,-150.5"/>
<text text-anchor="middle" x="299" y="-602.5" font-family="SegoeUI" font-size="10.00">AbstractInteractionAudio</text>
<polyline fill="none" stroke="black" points="233,-595.5 365,-595.5 "/>
<text text-anchor="start" x="241" y="-583.5" font-family="SegoeUI" font-size="10.00">+ defaultMixerGroup</text>
<text text-anchor="start" x="241" y="-572.5" font-family="SegoeUI" font-size="10.00">+ volumeSlider</text>
<text text-anchor="start" x="241" y="-561.5" font-family="SegoeUI" font-size="10.00">+ soundOnOpened</text>
<text text-anchor="start" x="241" y="-550.5" font-family="SegoeUI" font-size="10.00">+ soundOnStartUp</text>
<text text-anchor="start" x="241" y="-539.5" font-family="SegoeUI" font-size="10.00">+ soundOnShutDown</text>
<text text-anchor="start" x="241" y="-528.5" font-family="SegoeUI" font-size="10.00">+ DefaultAudioMixer</text>
<text text-anchor="start" x="241" y="-517.5" font-family="SegoeUI" font-size="10.00">+ Volume</text>
<text text-anchor="start" x="241" y="-506.5" font-family="SegoeUI" font-size="10.00"># listener</text>
<text text-anchor="start" x="241" y="-495.5" font-family="SegoeUI" font-size="10.00">&#45; MASTER_VOLUME_KEY</text>
<text text-anchor="start" x="241" y="-484.5" font-family="SegoeUI" font-size="10.00">&#45; audioSources</text>
<text text-anchor="start" x="241" y="-473.5" font-family="SegoeUI" font-size="10.00">&#45; camT</text>
<text text-anchor="start" x="241" y="-462.5" font-family="SegoeUI" font-size="10.00">&#45; E</text>
<polyline fill="none" stroke="black" points="233,-455.5 365,-455.5 "/>
<text text-anchor="start" x="241" y="-443.5" font-family="SegoeUI" font-size="10.00">+ Spatialize()</text>
<text text-anchor="start" x="241" y="-432.5" font-family="SegoeUI" font-size="10.00">+ Spatialize()</text>
<text text-anchor="start" x="241" y="-421.5" font-family="SegoeUI" font-size="10.00">+ Spatialize()</text>
<text text-anchor="start" x="241" y="-410.5" font-family="SegoeUI" font-size="10.00">+ Spatialize()</text>
<text text-anchor="start" x="241" y="-399.5" font-family="SegoeUI" font-size="10.00">+ Install()</text>
<text text-anchor="start" x="241" y="-388.5" font-family="SegoeUI" font-size="10.00">+ Reinstall()</text>
<text text-anchor="start" x="241" y="-377.5" font-family="SegoeUI" font-size="10.00">+ Uninstall()</text>
<text text-anchor="start" x="241" y="-366.5" font-family="SegoeUI" font-size="10.00">+ Awake()</text>
<text text-anchor="start" x="241" y="-355.5" font-family="SegoeUI" font-size="10.00">+ Start()</text>
<text text-anchor="start" x="241" y="-344.5" font-family="SegoeUI" font-size="10.00">+ OnValidate()</text>
<text text-anchor="start" x="241" y="-333.5" font-family="SegoeUI" font-size="10.00">+ GetHapticExpressions()</text>
<text text-anchor="start" x="241" y="-322.5" font-family="SegoeUI" font-size="10.00">+ Play()</text>
<text text-anchor="start" x="241" y="-311.5" font-family="SegoeUI" font-size="10.00">+ Play()</text>
<text text-anchor="start" x="241" y="-300.5" font-family="SegoeUI" font-size="10.00">+ Play()</text>
<text text-anchor="start" x="241" y="-289.5" font-family="SegoeUI" font-size="10.00">+ Play()</text>
<text text-anchor="start" x="241" y="-278.5" font-family="SegoeUI" font-size="10.00"># InternalSpatialize()</text>
<text text-anchor="start" x="241" y="-267.5" font-family="SegoeUI" font-size="10.00">&#45; Volume_ValueChange()</text>
<text text-anchor="start" x="241" y="-256.5" font-family="SegoeUI" font-size="10.00">&#45; GetClipCollection()</text>
<text text-anchor="start" x="241" y="-245.5" font-family="SegoeUI" font-size="10.00">&#45; Wait()</text>
<text text-anchor="start" x="241" y="-234.5" font-family="SegoeUI" font-size="10.00">&#45; Play_Internal()</text>
<text text-anchor="start" x="241" y="-223.5" font-family="SegoeUI" font-size="10.00">&#45; Play_Internal()</text>
<text text-anchor="start" x="241" y="-212.5" font-family="SegoeUI" font-size="10.00">&#45; Play_Internal()</text>
<text text-anchor="start" x="241" y="-201.5" font-family="SegoeUI" font-size="10.00">&#45; Play_Internal()</text>
<text text-anchor="start" x="241" y="-190.5" font-family="SegoeUI" font-size="10.00">&#45; PlayHaptics()</text>
<text text-anchor="start" x="241" y="-179.5" font-family="SegoeUI" font-size="10.00">&#45; PlayClip()</text>
<text text-anchor="start" x="241" y="-168.5" font-family="SegoeUI" font-size="10.00">&#45; GetAudioSource()</text>
<text text-anchor="start" x="241" y="-157.5" font-family="SegoeUI" font-size="10.00">&#45; CreateNewAudioSource()</text>
</a>
</g>
</g>
<!-- Node6&#45;&gt;Node5 -->
<g id="edge1" class="edge"><title>Node6&#45;&gt;Node5</title>
<path fill="none" stroke="midnightblue" d="M299,-140.072C299,-130.38 299,-121.192 299,-112.709"/>
<polygon fill="none" stroke="midnightblue" points="295.5,-140.345 299,-150.345 302.5,-140.345 295.5,-140.345"/>
</g>
<!-- Node7 -->
<g id="node3" class="node"><title>Node7</title>
<g id="a_node3"><a xlink:title=" ">
<polygon fill="white" stroke="#bfbfbf" points="0,-811 0,-868 82,-868 82,-811 0,-811"/>
<text text-anchor="middle" x="41" y="-856" font-family="SegoeUI" font-size="10.00">MonoBehaviour</text>
<polyline fill="none" stroke="#bfbfbf" points="0,-849 82,-849 "/>
<text text-anchor="middle" x="41" y="-837" font-family="SegoeUI" font-size="10.00"> </text>
<polyline fill="none" stroke="#bfbfbf" points="0,-830 82,-830 "/>
<text text-anchor="middle" x="41" y="-818" font-family="SegoeUI" font-size="10.00"> </text>
</a>
</g>
</g>
<!-- Node7&#45;&gt;Node6 -->
<g id="edge2" class="edge"><title>Node7&#45;&gt;Node6</title>
<path fill="none" stroke="midnightblue" d="M61.8709,-801.693C98.6414,-736.846 176.417,-599.684 232.896,-500.079"/>
<polygon fill="none" stroke="midnightblue" points="58.6387,-800.297 56.7507,-810.723 64.7279,-803.75 58.6387,-800.297"/>
</g>
<!-- Node8 -->
<g id="node4" class="node"><title>Node8</title>
<g id="a_node4"><a xlink:href="../../db/d28/interface_juniper_1_1_i_installable.html" target="_top" xlink:title="Defines an interface for objects that can be installed and have their installation progress tracked.">
<polygon fill="white" stroke="black" points="100.5,-800 100.5,-879 169.5,-879 169.5,-800 100.5,-800"/>
<text text-anchor="middle" x="135" y="-867" font-family="SegoeUI" font-size="10.00">IInstallable</text>
<polyline fill="none" stroke="black" points="100.5,-860 169.5,-860 "/>
<text text-anchor="middle" x="135" y="-848" font-family="SegoeUI" font-size="10.00"> </text>
<polyline fill="none" stroke="black" points="100.5,-841 169.5,-841 "/>
<text text-anchor="start" x="108.5" y="-829" font-family="SegoeUI" font-size="10.00">+ Install()</text>
<text text-anchor="start" x="108.5" y="-818" font-family="SegoeUI" font-size="10.00">+ Reinstall()</text>
<text text-anchor="start" x="108.5" y="-807" font-family="SegoeUI" font-size="10.00">+ Uninstall()</text>
</a>
</g>
</g>
<!-- Node8&#45;&gt;Node6 -->
<g id="edge3" class="edge"><title>Node8&#45;&gt;Node6</title>
<path fill="none" stroke="midnightblue" d="M152.418,-790.176C171.637,-736.854 203.733,-647.808 232.999,-566.612"/>
<polygon fill="none" stroke="midnightblue" points="149.081,-789.113 148.983,-799.707 155.666,-791.486 149.081,-789.113"/>
</g>
<!-- Node9 -->
<g id="node5" class="node"><title>Node9</title>
<g id="a_node5"><a xlink:href="../../d3/d6d/class_juniper_1_1_unity_1_1_audio_1_1_audio_clip_collection.html" target="_top" xlink:title="A collection of related audio clips. For example, one might have many different gunshot sounds to hav...">
<polygon fill="white" stroke="black" points="187.5,-772.5 187.5,-906.5 312.5,-906.5 312.5,-772.5 187.5,-772.5"/>
<text text-anchor="start" x="195.5" y="-894.5" font-family="SegoeUI" font-size="10.00">Juniper.Unity.Audio.Audio</text>
<text text-anchor="middle" x="250" y="-883.5" font-family="SegoeUI" font-size="10.00">ClipCollection</text>
<polyline fill="none" stroke="black" points="187.5,-876.5 312.5,-876.5 "/>
<text text-anchor="start" x="195.5" y="-864.5" font-family="SegoeUI" font-size="10.00">+ randomizePitch</text>
<text text-anchor="start" x="195.5" y="-853.5" font-family="SegoeUI" font-size="10.00">+ clips</text>
<text text-anchor="start" x="195.5" y="-842.5" font-family="SegoeUI" font-size="10.00">+ Length</text>
<text text-anchor="start" x="195.5" y="-831.5" font-family="SegoeUI" font-size="10.00">+ RandomizeClipPitch</text>
<text text-anchor="start" x="195.5" y="-820.5" font-family="SegoeUI" font-size="10.00">+ this[int index]</text>
<polyline fill="none" stroke="black" points="187.5,-813.5 312.5,-813.5 "/>
<text text-anchor="start" x="195.5" y="-801.5" font-family="SegoeUI" font-size="10.00">+ Random()</text>
<text text-anchor="start" x="195.5" y="-790.5" font-family="SegoeUI" font-size="10.00">+ GetEnumerator()</text>
<text text-anchor="start" x="195.5" y="-779.5" font-family="SegoeUI" font-size="10.00">&#45; GetEnumerator()</text>
</a>
</g>
</g>
<!-- Node9&#45;&gt;Node6 -->
<g id="edge4" class="edge"><title>Node9&#45;&gt;Node6</title>
<path fill="none" stroke="#404040" d="M247.687,-772.169C247.015,-731.834 247.446,-679.338 252,-633 252.204,-630.927 252.416,-628.845 252.636,-626.755"/>
<polygon fill="none" stroke="#404040" points="252.649,-626.64 249.342,-620.232 253.985,-614.715 257.292,-621.123 252.649,-626.64"/>
<text text-anchor="middle" x="293.5" y="-746" font-family="SegoeUI" font-size="10.00"> +soundOnSuccess</text>
<text text-anchor="middle" x="293.5" y="-735" font-family="SegoeUI" font-size="10.00">+soundOnDragged</text>
<text text-anchor="middle" x="293.5" y="-724" font-family="SegoeUI" font-size="10.00">+soundOnDisabled</text>
<text text-anchor="middle" x="293.5" y="-713" font-family="SegoeUI" font-size="10.00">+soundOnScrolled</text>
<text text-anchor="middle" x="293.5" y="-702" font-family="SegoeUI" font-size="10.00">+soundOnEntered</text>
<text text-anchor="middle" x="293.5" y="-691" font-family="SegoeUI" font-size="10.00">+soundOnExited</text>
<text text-anchor="middle" x="293.5" y="-680" font-family="SegoeUI" font-size="10.00">+soundOnReleased</text>
<text text-anchor="middle" x="293.5" y="-669" font-family="SegoeUI" font-size="10.00">+soundOnSelected</text>
<text text-anchor="middle" x="293.5" y="-658" font-family="SegoeUI" font-size="10.00">+soundOnError</text>
<text text-anchor="middle" x="293.5" y="-647" font-family="SegoeUI" font-size="10.00">+soundOnClosed</text>
<text text-anchor="middle" x="293.5" y="-636" font-family="SegoeUI" font-size="10.00">...</text>
</g>
<!-- Node10 -->
<g id="node6" class="node"><title>Node10</title>
<g id="a_node6"><a xlink:title=" ">
<polygon fill="white" stroke="#bfbfbf" points="106.5,-1045.5 106.5,-1102.5 193.5,-1102.5 193.5,-1045.5 106.5,-1045.5"/>
<text text-anchor="middle" x="150" y="-1090.5" font-family="SegoeUI" font-size="10.00">ScriptableObject</text>
<polyline fill="none" stroke="#bfbfbf" points="106.5,-1083.5 193.5,-1083.5 "/>
<text text-anchor="middle" x="150" y="-1071.5" font-family="SegoeUI" font-size="10.00"> </text>
<polyline fill="none" stroke="#bfbfbf" points="106.5,-1064.5 193.5,-1064.5 "/>
<text text-anchor="middle" x="150" y="-1052.5" font-family="SegoeUI" font-size="10.00"> </text>
</a>
</g>
</g>
<!-- Node10&#45;&gt;Node9 -->
<g id="edge5" class="edge"><title>Node10&#45;&gt;Node9</title>
<path fill="none" stroke="midnightblue" d="M165.851,-1036.15C180.754,-1001.5 203.406,-948.832 221.455,-906.867"/>
<polygon fill="none" stroke="midnightblue" points="162.6,-1034.85 161.864,-1045.42 169.03,-1037.61 162.6,-1034.85"/>
</g>
<!-- Node11 -->
<g id="node7" class="node"><title>Node11</title>
<g id="a_node7"><a xlink:href="../../da/d46/interface_juniper_1_1_unity_1_1_audio_1_1_i_audio_clip_collection.html" target="_top" xlink:title="The IAudioClipCollection interface is implemented by two classes. One is a savable collection of audi...">
<polygon fill="white" stroke="black" points="211.5,-1034.5 211.5,-1113.5 320.5,-1113.5 320.5,-1034.5 211.5,-1034.5"/>
<text text-anchor="middle" x="266" y="-1101.5" font-family="SegoeUI" font-size="10.00">IAudioClipCollection</text>
<polyline fill="none" stroke="black" points="211.5,-1094.5 320.5,-1094.5 "/>
<text text-anchor="start" x="219.5" y="-1082.5" font-family="SegoeUI" font-size="10.00">+ Length</text>
<text text-anchor="start" x="219.5" y="-1071.5" font-family="SegoeUI" font-size="10.00">+ RandomizeClipPitch</text>
<text text-anchor="start" x="219.5" y="-1060.5" font-family="SegoeUI" font-size="10.00">+ this[int index]</text>
<polyline fill="none" stroke="black" points="211.5,-1053.5 320.5,-1053.5 "/>
<text text-anchor="start" x="219.5" y="-1041.5" font-family="SegoeUI" font-size="10.00">+ Random()</text>
</a>
</g>
</g>
<!-- Node11&#45;&gt;Node9 -->
<g id="edge6" class="edge"><title>Node11&#45;&gt;Node9</title>
<path fill="none" stroke="midnightblue" d="M262.638,-1024.15C260.288,-990.001 257.122,-943.996 254.547,-906.574"/>
<polygon fill="none" stroke="midnightblue" points="259.162,-1024.61 263.34,-1034.35 266.145,-1024.13 259.162,-1024.61"/>
</g>
<!-- Node12 -->
<g id="node8" class="node"><title>Node12</title>
<g id="a_node8"><a xlink:title=" ">
<polygon fill="white" stroke="#bfbfbf" points="257,-1151.5 257,-1208.5 387,-1208.5 387,-1151.5 257,-1151.5"/>
<text text-anchor="middle" x="322" y="-1196.5" font-family="SegoeUI" font-size="10.00">IEnumerable&lt; AudioClip &gt;</text>
<polyline fill="none" stroke="#bfbfbf" points="257,-1189.5 387,-1189.5 "/>
<text text-anchor="middle" x="322" y="-1177.5" font-family="SegoeUI" font-size="10.00"> </text>
<polyline fill="none" stroke="#bfbfbf" points="257,-1170.5 387,-1170.5 "/>
<text text-anchor="middle" x="322" y="-1158.5" font-family="SegoeUI" font-size="10.00"> </text>
</a>
</g>
</g>
<!-- Node12&#45;&gt;Node11 -->
<g id="edge7" class="edge"><title>Node12&#45;&gt;Node11</title>
<path fill="none" stroke="midnightblue" d="M302.291,-1142.4C297.286,-1133.1 291.892,-1123.08 286.832,-1113.69"/>
<polygon fill="none" stroke="midnightblue" points="299.317,-1144.26 307.14,-1151.4 305.481,-1140.94 299.317,-1144.26"/>
</g>
<!-- Node15 -->
<g id="node11" class="node"><title>Node15</title>
<g id="a_node11"><a xlink:href="../../da/d46/interface_juniper_1_1_unity_1_1_audio_1_1_i_audio_clip_collection.html" target="_top" xlink:title="The IAudioClipCollection interface is implemented by two classes. One is a savable collection of audi...">
<polygon fill="white" stroke="black" points="285,-925.5 285,-1015.5 413,-1015.5 413,-925.5 285,-925.5"/>
<text text-anchor="start" x="293" y="-1003.5" font-family="SegoeUI" font-size="10.00">Juniper.Unity.Audio.IAudio</text>
<text text-anchor="middle" x="349" y="-992.5" font-family="SegoeUI" font-size="10.00">ClipCollection</text>
<polyline fill="none" stroke="black" points="285,-985.5 413,-985.5 "/>
<text text-anchor="start" x="293" y="-973.5" font-family="SegoeUI" font-size="10.00">+ Length</text>
<text text-anchor="start" x="293" y="-962.5" font-family="SegoeUI" font-size="10.00">+ RandomizeClipPitch</text>
<text text-anchor="start" x="293" y="-951.5" font-family="SegoeUI" font-size="10.00">+ this[int index]</text>
<polyline fill="none" stroke="black" points="285,-944.5 413,-944.5 "/>
<text text-anchor="start" x="293" y="-932.5" font-family="SegoeUI" font-size="10.00">+ Random()</text>
</a>
</g>
</g>
<!-- Node12&#45;&gt;Node15 -->
<g id="edge11" class="edge"><title>Node12&#45;&gt;Node15</title>
<path fill="none" stroke="midnightblue" d="M326.934,-1141.08C331.528,-1105.77 338.377,-1053.14 343.224,-1015.89"/>
<polygon fill="none" stroke="midnightblue" points="323.405,-1141.08 325.585,-1151.45 330.347,-1141.98 323.405,-1141.08"/>
</g>
<!-- Node13 -->
<g id="node9" class="node"><title>Node13</title>
<g id="a_node9"><a xlink:href="../../dd/d6e/interface_juniper_1_1_unity_1_1_widgets_1_1_i_valued_control.html" target="_top" xlink:title=" ">
<polygon fill="white" stroke="black" points="413,-805.5 413,-873.5 557,-873.5 557,-805.5 413,-805.5"/>
<text text-anchor="start" x="421" y="-861.5" font-family="SegoeUI" font-size="10.00">Juniper.Unity.Widgets.IValued</text>
<text text-anchor="middle" x="485" y="-850.5" font-family="SegoeUI" font-size="10.00">Control&lt; float &gt;</text>
<polyline fill="none" stroke="black" points="413,-843.5 557,-843.5 "/>
<text text-anchor="start" x="421" y="-831.5" font-family="SegoeUI" font-size="10.00">+ value</text>
<polyline fill="none" stroke="black" points="413,-824.5 557,-824.5 "/>
<text text-anchor="middle" x="485" y="-812.5" font-family="SegoeUI" font-size="10.00"> </text>
</a>
</g>
</g>
<!-- Node13&#45;&gt;Node6 -->
<g id="edge8" class="edge"><title>Node13&#45;&gt;Node6</title>
<path fill="none" stroke="#404040" d="M471.474,-805.411C450.145,-753.237 407.247,-648.299 369.572,-556.135"/>
<polygon fill="none" stroke="#404040" points="369.546,-556.071 363.573,-552.031 365.005,-544.964 370.978,-549.004 369.546,-556.071"/>
<text text-anchor="middle" x="469" y="-691" font-family="SegoeUI" font-size="10.00"> &#45;volume</text>
</g>
<!-- Node14 -->
<g id="node10" class="node"><title>Node14</title>
<g id="a_node10"><a xlink:href="../../dd/d6e/interface_juniper_1_1_unity_1_1_widgets_1_1_i_valued_control.html" target="_top" xlink:title=" ">
<polygon fill="white" stroke="black" points="413,-1040 413,-1108 557,-1108 557,-1040 413,-1040"/>
<text text-anchor="start" x="421" y="-1096" font-family="SegoeUI" font-size="10.00">Juniper.Unity.Widgets.IValued</text>
<text text-anchor="middle" x="485" y="-1085" font-family="SegoeUI" font-size="10.00">Control&lt; T &gt;</text>
<polyline fill="none" stroke="black" points="413,-1078 557,-1078 "/>
<text text-anchor="start" x="421" y="-1066" font-family="SegoeUI" font-size="10.00">+ value</text>
<polyline fill="none" stroke="black" points="413,-1059 557,-1059 "/>
<text text-anchor="middle" x="485" y="-1047" font-family="SegoeUI" font-size="10.00"> </text>
</a>
</g>
</g>
<!-- Node14&#45;&gt;Node13 -->
<g id="edge9" class="edge"><title>Node14&#45;&gt;Node13</title>
<path fill="none" stroke="orange" d="M485,-1029.61C485,-984.453 485,-914.725 485,-873.75"/>
<polygon fill="orange" stroke="orange" points="481.5,-1029.69 485,-1039.69 488.5,-1029.69 481.5,-1029.69"/>
<text text-anchor="middle" x="506" y="-968" font-family="SegoeUI" font-size="10.00"> &lt; float &gt;</text>
</g>
<!-- Node15&#45;&gt;Node6 -->
<g id="edge10" class="edge"><title>Node15&#45;&gt;Node6</title>
<path fill="none" stroke="#404040" d="M348.592,-925.309C347.673,-860.897 344.688,-737.507 335,-633 334.809,-630.94 334.613,-628.872 334.412,-626.795"/>
<polygon fill="none" stroke="#404040" points="334.408,-626.761 329.828,-621.192 333.207,-614.821 337.788,-620.391 334.408,-626.761"/>
<text text-anchor="middle" x="372" y="-842.5" font-family="SegoeUI" font-size="10.00"> &#45;startUp</text>
<text text-anchor="middle" x="372" y="-831.5" font-family="SegoeUI" font-size="10.00">&#45;shutDown</text>
</g>
<!-- Node16 -->
<g id="node12" class="node"><title>Node16</title>
<g id="a_node12"><a xlink:title=" ">
<polygon fill="white" stroke="#bfbfbf" points="575.5,-811 575.5,-868 614.5,-868 614.5,-811 575.5,-811"/>
<text text-anchor="middle" x="595" y="-856" font-family="SegoeUI" font-size="10.00">static</text>
<polyline fill="none" stroke="#bfbfbf" points="575.5,-849 614.5,-849 "/>
<text text-anchor="middle" x="595" y="-837" font-family="SegoeUI" font-size="10.00"> </text>
<polyline fill="none" stroke="#bfbfbf" points="575.5,-830 614.5,-830 "/>
<text text-anchor="middle" x="595" y="-818" font-family="SegoeUI" font-size="10.00"> </text>
</a>
</g>
</g>
<!-- Node16&#45;&gt;Node6 -->
<g id="edge12" class="edge"><title>Node16&#45;&gt;Node6</title>
<path fill="none" stroke="#404040" d="M583.484,-810.78C578.344,-798.762 572.084,-784.588 566,-772 535.544,-708.987 529.991,-691.778 492,-633 455.846,-577.064 410.483,-517.963 372.822,-471.33"/>
<polygon fill="none" stroke="#404040" points="372.712,-471.194 365.826,-469.054 365.153,-461.874 372.039,-464.015 372.712,-471.194"/>
<text text-anchor="middle" x="578.5" y="-691" font-family="SegoeUI" font-size="10.00"> &#45;instance</text>
</g>
</g>
</svg>
        <g id="navigator" transform="translate(0 0)" fill="#404254">
                <rect fill="#f2f5e9" fill-opacity="0.5" stroke="#606060" stroke-width=".5" x="0" y="0" width="60" height="60"/>
                <use id="zoomplus" xlink:href="#zoomPlus" x="17" y="9" onmousedown="handleZoom(evt,'in')"/>
                <use id="zoomminus" xlink:href="#zoomMin" x="42" y="9" onmousedown="handleZoom(evt,'out')"/>
                <use id="reset" xlink:href="#resetDef" x="30" y="36" onmousedown="handleReset()"/>
                <g id="arrowUp" xlink:href="#dirArrow" transform="translate(30 24)" onmousedown="handlePan(0,-1)">
                  <use xlink:href="#rim" fill="#404040">
                        <set attributeName="fill" to="#808080" begin="arrowUp.mouseover" end="arrowUp.mouseout"/>
                  </use>
                  <path fill="none" stroke="white" stroke-width="1.5" d="M0,-3.0v7 M-2.5,-0.5L0,-3.0L2.5,-0.5"/>
                </g>
                <g id="arrowRight" xlink:href="#dirArrow" transform="rotate(90) translate(36 -43)" onmousedown="handlePan(1,0)">
                  <use xlink:href="#rim" fill="#404040">
                        <set attributeName="fill" to="#808080" begin="arrowRight.mouseover" end="arrowRight.mouseout"/>
                  </use>
                  <path fill="none" stroke="white" stroke-width="1.5" d="M0,-3.0v7 M-2.5,-0.5L0,-3.0L2.5,-0.5"/>
                </g>
                <g id="arrowDown" xlink:href="#dirArrow" transform="rotate(180) translate(-30 -48)" onmousedown="handlePan(0,1)">
                  <use xlink:href="#rim" fill="#404040">
                        <set attributeName="fill" to="#808080" begin="arrowDown.mouseover" end="arrowDown.mouseout"/>
                  </use>
                  <path fill="none" stroke="white" stroke-width="1.5" d="M0,-3.0v7 M-2.5,-0.5L0,-3.0L2.5,-0.5"/>
                </g>
                <g id="arrowLeft" xlink:href="#dirArrow" transform="rotate(270) translate(-36 17)" onmousedown="handlePan(-1,0)">
                  <use xlink:href="#rim" fill="#404040">
                        <set attributeName="fill" to="#808080" begin="arrowLeft.mouseover" end="arrowLeft.mouseout"/>
                  </use>
                  <path fill="none" stroke="white" stroke-width="1.5" d="M0,-3.0v7 M-2.5,-0.5L0,-3.0L2.5,-0.5"/>
                </g>
        </g>
        <svg viewBox="0 0 15 15" width="100%" height="30px" preserveAspectRatio="xMaxYMin meet">
         <g id="arrow_out" transform="scale(0.3 0.3)">
          <a xlink:href="class_juniper_1_1_unity_1_1_audio_1_1_resonance_interaction_audio__coll__graph_org.svg" target="_base">
           <rect id="button" ry="5" rx="5" y="6" x="6" height="38" width="38"
                fill="#f2f5e9" fill-opacity="0.5" stroke="#606060" stroke-width="1.0"/>
           <path id="arrow"
             d="M 11.500037,31.436501 C 11.940474,20.09759 22.043105,11.32322 32.158766,21.979434 L 37.068811,17.246167 C 37.068811,17.246167 37.088388,32 37.088388,32 L 22.160133,31.978069 C 22.160133,31.978069 26.997745,27.140456 26.997745,27.140456 C 18.528582,18.264221 13.291696,25.230495 11.500037,31.436501 z"
             style="fill:#404040;"/>
          </a>
         </g>
        </svg>
</svg>
