<?xml version="1.0" encoding="UTF-8" standalone="no"?>
<!DOCTYPE svg PUBLIC "-//W3C//DTD SVG 1.1//EN"
 "http://www.w3.org/Graphics/SVG/1.1/DTD/svg11.dtd">
<!-- Generated by graphviz version 2.38.0 (20140413.2041)
 -->
<!-- Title: Juniper.Input.Pointers.Motion.AbstractMotionControllerConfiguration&lt; HandIDType, ButtonIDType &gt; Pages: 1 -->
<!--zoomable 709 -->
<svg id="main" version="1.1" xmlns="http://www.w3.org/2000/svg" xmlns:xlink="http://www.w3.org/1999/xlink" xml:space="preserve" onload="init(evt)">
<style type="text/css"><![CDATA[
.edge:hover path { stroke: red; }
.edge:hover polygon { stroke: red; fill: red; }
]]></style>
<script type="text/javascript"><![CDATA[
var edges = document.getElementsByTagName('g');
if (edges && edges.length) {
  for (var i=0;i<edges.length;i++) {
    if (edges[i].id.substr(0,4)=='edge') {
      edges[i].setAttribute('class','edge');
    }
  }
}
]]></script>
        <defs>
                <circle id="rim" cx="0" cy="0" r="7"/>
                <circle id="rim2" cx="0" cy="0" r="3.5"/>
                <g id="zoomPlus">
                        <use xlink:href="#rim" fill="#404040">
                                <set attributeName="fill" to="#808080" begin="zoomplus.mouseover" end="zoomplus.mouseout"/>
                        </use>
                        <path d="M-4,0h8M0,-4v8" fill="none" stroke="white" stroke-width="1.5" pointer-events="none"/>
                </g>
                <g id="zoomMin">
                        <use xlink:href="#rim" fill="#404040">
                                <set attributeName="fill" to="#808080" begin="zoomminus.mouseover" end="zoomminus.mouseout"/>
                        </use>
                        <path d="M-4,0h8" fill="none" stroke="white" stroke-width="1.5" pointer-events="none"/>
                </g>
                <g id="dirArrow">
                        <path fill="none" stroke="white" stroke-width="1.5" d="M0,-3.0v7 M-2.5,-0.5L0,-3.0L2.5,-0.5"/>
                </g>
               <g id="resetDef">
                       <use xlink:href="#rim2" fill="#404040">
                               <set attributeName="fill" to="#808080" begin="reset.mouseover" end="reset.mouseout"/>
                       </use>
               </g>
        </defs>

<script type="text/javascript">
var viewWidth = 657;
var viewHeight = 709;
var sectionId = 'dynsection-0';
</script>
<script xlink:href="../../svgpan.js"/>
<svg id="graph" class="graph">
<g id="viewport">
<title>Juniper.Input.Pointers.Motion.AbstractMotionControllerConfiguration&lt; HandIDType, ButtonIDType &gt;</title>
<polygon fill="white" stroke="none" points="-4,4 -4,-705 652.5,-705 652.5,4 -4,4"/>
<!-- Node0 -->
<g id="node1" class="node"><title>Node0</title>
<g id="a_node1"><a xlink:title=" ">
<polygon fill="#bfbfbf" stroke="black" points="197,-310.5 197,-444.5 376,-444.5 376,-310.5 197,-310.5"/>
<text text-anchor="start" x="205" y="-432.5" font-family="SegoeUI" font-size="10.00">Juniper.Input.Pointers.Motion.</text>
<text text-anchor="start" x="205" y="-421.5" font-family="SegoeUI" font-size="10.00">AbstractMotionControllerConfiguration</text>
<text text-anchor="middle" x="286.5" y="-410.5" font-family="SegoeUI" font-size="10.00">&lt; HandIDType, ButtonIDType &gt;</text>
<polyline fill="none" stroke="black" points="197,-403.5 376,-403.5 "/>
<text text-anchor="start" x="205" y="-391.5" font-family="SegoeUI" font-size="10.00">+ PointerNameStub</text>
<text text-anchor="start" x="205" y="-380.5" font-family="SegoeUI" font-size="10.00">&#45; touchPadKeys</text>
<text text-anchor="start" x="205" y="-369.5" font-family="SegoeUI" font-size="10.00">&#45; triggerKeys</text>
<polyline fill="none" stroke="black" points="197,-362.5 376,-362.5 "/>
<text text-anchor="start" x="205" y="-350.5" font-family="SegoeUI" font-size="10.00">+ Install()</text>
<text text-anchor="start" x="205" y="-339.5" font-family="SegoeUI" font-size="10.00">+ Install()</text>
<text text-anchor="start" x="205" y="-328.5" font-family="SegoeUI" font-size="10.00"># AddButton()</text>
<text text-anchor="start" x="205" y="-317.5" font-family="SegoeUI" font-size="10.00"># AddButton()</text>
</a>
</g>
</g>
<!-- Node3 -->
<g id="node4" class="node"><title>Node3</title>
<g id="a_node4"><a xlink:href="../../da/de2/class_juniper_1_1_input_1_1_pointers_1_1_motion_1_1_abstract_motion_controller_configuration.html" target="_top" xlink:title=" ">
<polygon fill="white" stroke="black" points="0,-117.5 0,-251.5 179,-251.5 179,-117.5 0,-117.5"/>
<text text-anchor="start" x="8" y="-239.5" font-family="SegoeUI" font-size="10.00">Juniper.Input.Pointers.Motion.</text>
<text text-anchor="start" x="8" y="-228.5" font-family="SegoeUI" font-size="10.00">AbstractMotionControllerConfiguration</text>
<text text-anchor="middle" x="89.5" y="-217.5" font-family="SegoeUI" font-size="10.00">&lt; Unary, Unary &gt;</text>
<polyline fill="none" stroke="black" points="0,-210.5 179,-210.5 "/>
<text text-anchor="start" x="8" y="-198.5" font-family="SegoeUI" font-size="10.00">+ PointerNameStub</text>
<text text-anchor="start" x="8" y="-187.5" font-family="SegoeUI" font-size="10.00">&#45; touchPadKeys</text>
<text text-anchor="start" x="8" y="-176.5" font-family="SegoeUI" font-size="10.00">&#45; triggerKeys</text>
<polyline fill="none" stroke="black" points="0,-169.5 179,-169.5 "/>
<text text-anchor="start" x="8" y="-157.5" font-family="SegoeUI" font-size="10.00">+ Install()</text>
<text text-anchor="start" x="8" y="-146.5" font-family="SegoeUI" font-size="10.00">+ Install()</text>
<text text-anchor="start" x="8" y="-135.5" font-family="SegoeUI" font-size="10.00"># AddButton()</text>
<text text-anchor="start" x="8" y="-124.5" font-family="SegoeUI" font-size="10.00"># AddButton()</text>
</a>
</g>
</g>
<!-- Node0&#45;&gt;Node3 -->
<g id="edge3" class="edge"><title>Node0&#45;&gt;Node3</title>
<path fill="none" stroke="orange" d="M210.742,-303.049C193.292,-286.131 174.835,-268.236 157.727,-251.649"/>
<polygon fill="orange" stroke="orange" points="208.536,-305.785 218.152,-310.234 213.409,-300.76 208.536,-305.785"/>
<text text-anchor="middle" x="234" y="-278.5" font-family="SegoeUI" font-size="10.00"> &lt; Unary, Unary &gt;</text>
</g>
<!-- Node5 -->
<g id="node6" class="node"><title>Node5</title>
<g id="a_node6"><a xlink:href="../../da/de2/class_juniper_1_1_input_1_1_pointers_1_1_motion_1_1_abstract_motion_controller_configuration.html" target="_top" xlink:title=" ">
<polygon fill="white" stroke="black" points="197,-117.5 197,-251.5 376,-251.5 376,-117.5 197,-117.5"/>
<text text-anchor="start" x="205" y="-239.5" font-family="SegoeUI" font-size="10.00">Juniper.Input.Pointers.Motion.</text>
<text text-anchor="start" x="205" y="-228.5" font-family="SegoeUI" font-size="10.00">AbstractMotionControllerConfiguration</text>
<text text-anchor="middle" x="286.5" y="-217.5" font-family="SegoeUI" font-size="10.00">&lt; WVR_DeviceType, WVR_InputId &gt;</text>
<polyline fill="none" stroke="black" points="197,-210.5 376,-210.5 "/>
<text text-anchor="start" x="205" y="-198.5" font-family="SegoeUI" font-size="10.00">+ PointerNameStub</text>
<text text-anchor="start" x="205" y="-187.5" font-family="SegoeUI" font-size="10.00">&#45; touchPadKeys</text>
<text text-anchor="start" x="205" y="-176.5" font-family="SegoeUI" font-size="10.00">&#45; triggerKeys</text>
<polyline fill="none" stroke="black" points="197,-169.5 376,-169.5 "/>
<text text-anchor="start" x="205" y="-157.5" font-family="SegoeUI" font-size="10.00">+ Install()</text>
<text text-anchor="start" x="205" y="-146.5" font-family="SegoeUI" font-size="10.00">+ Install()</text>
<text text-anchor="start" x="205" y="-135.5" font-family="SegoeUI" font-size="10.00"># AddButton()</text>
<text text-anchor="start" x="205" y="-124.5" font-family="SegoeUI" font-size="10.00"># AddButton()</text>
</a>
</g>
</g>
<!-- Node0&#45;&gt;Node5 -->
<g id="edge5" class="edge"><title>Node0&#45;&gt;Node5</title>
<path fill="none" stroke="orange" d="M286.5,-299.866C286.5,-283.899 286.5,-267.199 286.5,-251.649"/>
<polygon fill="orange" stroke="orange" points="283,-300.233 286.5,-310.234 290,-300.234 283,-300.233"/>
<text text-anchor="start" x="286.5" y="-284" font-family="SegoeUI" font-size="10.00"> &lt; WVR_DeviceType, WVR</text>
<text text-anchor="middle" x="344" y="-273" font-family="SegoeUI" font-size="10.00">_InputId &gt;</text>
</g>
<!-- Node7 -->
<g id="node8" class="node"><title>Node7</title>
<g id="a_node8"><a xlink:href="../../da/de2/class_juniper_1_1_input_1_1_pointers_1_1_motion_1_1_abstract_motion_controller_configuration.html" target="_top" xlink:title=" ">
<polygon fill="white" stroke="black" points="394.5,-117.5 394.5,-251.5 648.5,-251.5 648.5,-117.5 394.5,-117.5"/>
<text text-anchor="start" x="402.5" y="-239.5" font-family="SegoeUI" font-size="10.00">Juniper.Input.Pointers.Motion.</text>
<text text-anchor="start" x="402.5" y="-228.5" font-family="SegoeUI" font-size="10.00">AbstractMotionControllerConfiguration</text>
<text text-anchor="middle" x="521.5" y="-217.5" font-family="SegoeUI" font-size="10.00">&lt; InteractionSourceHandedness, WindowsMRButtons &gt;</text>
<polyline fill="none" stroke="black" points="394.5,-210.5 648.5,-210.5 "/>
<text text-anchor="start" x="402.5" y="-198.5" font-family="SegoeUI" font-size="10.00">+ PointerNameStub</text>
<text text-anchor="start" x="402.5" y="-187.5" font-family="SegoeUI" font-size="10.00">&#45; touchPadKeys</text>
<text text-anchor="start" x="402.5" y="-176.5" font-family="SegoeUI" font-size="10.00">&#45; triggerKeys</text>
<polyline fill="none" stroke="black" points="394.5,-169.5 648.5,-169.5 "/>
<text text-anchor="start" x="402.5" y="-157.5" font-family="SegoeUI" font-size="10.00">+ Install()</text>
<text text-anchor="start" x="402.5" y="-146.5" font-family="SegoeUI" font-size="10.00">+ Install()</text>
<text text-anchor="start" x="402.5" y="-135.5" font-family="SegoeUI" font-size="10.00"># AddButton()</text>
<text text-anchor="start" x="402.5" y="-124.5" font-family="SegoeUI" font-size="10.00"># AddButton()</text>
</a>
</g>
</g>
<!-- Node0&#45;&gt;Node7 -->
<g id="edge7" class="edge"><title>Node0&#45;&gt;Node7</title>
<path fill="none" stroke="orange" d="M384.56,-308.365C391.725,-302.932 398.774,-297.44 405.5,-292 421.017,-279.449 437.117,-265.396 452.206,-251.719"/>
<polygon fill="orange" stroke="orange" points="382.004,-305.908 376.107,-314.71 386.206,-311.506 382.004,-305.908"/>
<text text-anchor="start" x="429.5" y="-284" font-family="SegoeUI" font-size="10.00"> &lt; InteractionSourceHandedness,</text>
<text text-anchor="middle" x="501.5" y="-273" font-family="SegoeUI" font-size="10.00"> WindowsMRButtons &gt;</text>
</g>
<!-- Node1 -->
<g id="node2" class="node"><title>Node1</title>
<g id="a_node2"><a xlink:href="../../d0/d65/class_juniper_1_1_input_1_1_pointers_1_1_motion_1_1_abstract_handed_pointer_configuration.html" target="_top" xlink:title=" ">
<polygon fill="white" stroke="black" points="201,-482.5 201,-572.5 372,-572.5 372,-482.5 201,-482.5"/>
<text text-anchor="start" x="209" y="-560.5" font-family="SegoeUI" font-size="10.00">AbstractHandedPointerConfiguration</text>
<text text-anchor="middle" x="286.5" y="-549.5" font-family="SegoeUI" font-size="10.00">&lt; HandIDType, ButtonIDType &gt;</text>
<polyline fill="none" stroke="black" points="201,-542.5 372,-542.5 "/>
<text text-anchor="start" x="209" y="-530.5" font-family="SegoeUI" font-size="10.00">+ HandType</text>
<text text-anchor="start" x="209" y="-519.5" font-family="SegoeUI" font-size="10.00">+ PointerNameStub</text>
<text text-anchor="start" x="209" y="-508.5" font-family="SegoeUI" font-size="10.00">+ this[Hand hand]</text>
<polyline fill="none" stroke="black" points="201,-501.5 372,-501.5 "/>
<text text-anchor="start" x="209" y="-489.5" font-family="SegoeUI" font-size="10.00">+ MakePointerName()</text>
</a>
</g>
</g>
<!-- Node1&#45;&gt;Node0 -->
<g id="edge1" class="edge"><title>Node1&#45;&gt;Node0</title>
<path fill="none" stroke="midnightblue" d="M286.5,-472.462C286.5,-463.383 286.5,-453.87 286.5,-444.53"/>
<polygon fill="none" stroke="midnightblue" points="283,-472.496 286.5,-482.496 290,-472.496 283,-472.496"/>
</g>
<!-- Node2 -->
<g id="node3" class="node"><title>Node2</title>
<g id="a_node3"><a xlink:href="../../d0/d7e/class_juniper_1_1_input_1_1_pointers_1_1_abstract_pointer_configuration.html" target="_top" xlink:title=" ">
<polygon fill="white" stroke="black" points="217,-610.5 217,-700.5 356,-700.5 356,-610.5 217,-610.5"/>
<text text-anchor="start" x="225" y="-688.5" font-family="SegoeUI" font-size="10.00">AbstractPointerConfiguration</text>
<text text-anchor="middle" x="286.5" y="-677.5" font-family="SegoeUI" font-size="10.00">&lt; ButtonIDType &gt;</text>
<polyline fill="none" stroke="black" points="217,-670.5 356,-670.5 "/>
<text text-anchor="start" x="225" y="-658.5" font-family="SegoeUI" font-size="10.00">&#45; nativeKeys</text>
<polyline fill="none" stroke="black" points="217,-651.5 356,-651.5 "/>
<text text-anchor="start" x="225" y="-639.5" font-family="SegoeUI" font-size="10.00">+ Install()</text>
<text text-anchor="start" x="225" y="-628.5" font-family="SegoeUI" font-size="10.00">+ Uninstall()</text>
<text text-anchor="start" x="225" y="-617.5" font-family="SegoeUI" font-size="10.00"># AddButton()</text>
</a>
</g>
</g>
<!-- Node2&#45;&gt;Node1 -->
<g id="edge2" class="edge"><title>Node2&#45;&gt;Node1</title>
<path fill="none" stroke="midnightblue" d="M286.5,-600.226C286.5,-591.056 286.5,-581.633 286.5,-572.757"/>
<polygon fill="none" stroke="midnightblue" points="283,-600.431 286.5,-610.431 290,-600.431 283,-600.431"/>
</g>
<!-- Node4 -->
<g id="node5" class="node"><title>Node4</title>
<g id="a_node5"><a xlink:href="../../de/d96/class_juniper_1_1_input_1_1_pointers_1_1_motion_1_1_no_motion_controller_configuration.html" target="_top" xlink:title=" ">
<polygon fill="white" stroke="black" points="12,-6 12,-74 167,-74 167,-6 12,-6"/>
<text text-anchor="start" x="20" y="-62" font-family="SegoeUI" font-size="10.00">Juniper.Input.Pointers.Motion.</text>
<text text-anchor="middle" x="89.5" y="-51" font-family="SegoeUI" font-size="10.00">NoMotionControllerConfiguration</text>
<polyline fill="none" stroke="black" points="12,-44 167,-44 "/>
<text text-anchor="start" x="20" y="-32" font-family="SegoeUI" font-size="10.00">+ this[Hand hand]</text>
<polyline fill="none" stroke="black" points="12,-25 167,-25 "/>
<text text-anchor="middle" x="89.5" y="-13" font-family="SegoeUI" font-size="10.00"> </text>
</a>
</g>
</g>
<!-- Node3&#45;&gt;Node4 -->
<g id="edge4" class="edge"><title>Node3&#45;&gt;Node4</title>
<path fill="none" stroke="midnightblue" d="M89.5,-107.065C89.5,-95.4865 89.5,-84.0917 89.5,-74.1122"/>
<polygon fill="none" stroke="midnightblue" points="86.0001,-107.256 89.5,-117.256 93.0001,-107.256 86.0001,-107.256"/>
</g>
<!-- Node6 -->
<g id="node7" class="node"><title>Node6</title>
<g id="a_node7"><a xlink:href="../../d7/d33/class_juniper_1_1_input_1_1_pointers_1_1_motion_1_1_vive_focus_motion_controller_configuration.html" target="_top" xlink:title=" ">
<polygon fill="white" stroke="black" points="193,-0.5 193,-79.5 380,-79.5 380,-0.5 193,-0.5"/>
<text text-anchor="start" x="201" y="-67.5" font-family="SegoeUI" font-size="10.00">Juniper.Input.Pointers.Motion.</text>
<text text-anchor="middle" x="286.5" y="-56.5" font-family="SegoeUI" font-size="10.00">ViveFocusMotionControllerConfiguration</text>
<polyline fill="none" stroke="black" points="193,-49.5 380,-49.5 "/>
<text text-anchor="start" x="201" y="-37.5" font-family="SegoeUI" font-size="10.00">+ this[Hand hand]</text>
<polyline fill="none" stroke="black" points="193,-30.5 380,-30.5 "/>
<text text-anchor="start" x="201" y="-18.5" font-family="SegoeUI" font-size="10.00">+ ViveFocusMotionController</text>
<text text-anchor="start" x="201" y="-7.5" font-family="SegoeUI" font-size="10.00">Configuration()</text>
</a>
</g>
</g>
<!-- Node5&#45;&gt;Node6 -->
<g id="edge6" class="edge"><title>Node5&#45;&gt;Node6</title>
<path fill="none" stroke="midnightblue" d="M286.5,-107.048C286.5,-97.6554 286.5,-88.3842 286.5,-79.8917"/>
<polygon fill="none" stroke="midnightblue" points="283,-107.256 286.5,-117.256 290,-107.256 283,-107.256"/>
</g>
<!-- Node8 -->
<g id="node9" class="node"><title>Node8</title>
<g id="a_node9"><a xlink:href="../../dd/d07/class_juniper_1_1_input_1_1_pointers_1_1_motion_1_1_windows_m_r_motion_controller_configuration.html" target="_top" xlink:title=" ">
<polygon fill="white" stroke="black" points="423,-0.5 423,-79.5 620,-79.5 620,-0.5 423,-0.5"/>
<text text-anchor="start" x="431" y="-67.5" font-family="SegoeUI" font-size="10.00">Juniper.Input.Pointers.Motion.</text>
<text text-anchor="middle" x="521.5" y="-56.5" font-family="SegoeUI" font-size="10.00">WindowsMRMotionControllerConfiguration</text>
<polyline fill="none" stroke="black" points="423,-49.5 620,-49.5 "/>
<text text-anchor="start" x="431" y="-37.5" font-family="SegoeUI" font-size="10.00">+ this[Hand hand]</text>
<polyline fill="none" stroke="black" points="423,-30.5 620,-30.5 "/>
<text text-anchor="start" x="431" y="-18.5" font-family="SegoeUI" font-size="10.00">+ WindowsMRMotionController</text>
<text text-anchor="start" x="431" y="-7.5" font-family="SegoeUI" font-size="10.00">Configuration()</text>
</a>
</g>
</g>
<!-- Node7&#45;&gt;Node8 -->
<g id="edge8" class="edge"><title>Node7&#45;&gt;Node8</title>
<path fill="none" stroke="midnightblue" d="M521.5,-107.048C521.5,-97.6554 521.5,-88.3842 521.5,-79.8917"/>
<polygon fill="none" stroke="midnightblue" points="518,-107.256 521.5,-117.256 525,-107.256 518,-107.256"/>
</g>
</g>
</svg>
        <g id="navigator" transform="translate(0 0)" fill="#404254">
                <rect fill="#f2f5e9" fill-opacity="0.5" stroke="#606060" stroke-width=".5" x="0" y="0" width="60" height="60"/>
                <use id="zoomplus" xlink:href="#zoomPlus" x="17" y="9" onmousedown="handleZoom(evt,'in')"/>
                <use id="zoomminus" xlink:href="#zoomMin" x="42" y="9" onmousedown="handleZoom(evt,'out')"/>
                <use id="reset" xlink:href="#resetDef" x="30" y="36" onmousedown="handleReset()"/>
                <g id="arrowUp" xlink:href="#dirArrow" transform="translate(30 24)" onmousedown="handlePan(0,-1)">
                  <use xlink:href="#rim" fill="#404040">
                        <set attributeName="fill" to="#808080" begin="arrowUp.mouseover" end="arrowUp.mouseout"/>
                  </use>
                  <path fill="none" stroke="white" stroke-width="1.5" d="M0,-3.0v7 M-2.5,-0.5L0,-3.0L2.5,-0.5"/>
                </g>
                <g id="arrowRight" xlink:href="#dirArrow" transform="rotate(90) translate(36 -43)" onmousedown="handlePan(1,0)">
                  <use xlink:href="#rim" fill="#404040">
                        <set attributeName="fill" to="#808080" begin="arrowRight.mouseover" end="arrowRight.mouseout"/>
                  </use>
                  <path fill="none" stroke="white" stroke-width="1.5" d="M0,-3.0v7 M-2.5,-0.5L0,-3.0L2.5,-0.5"/>
                </g>
                <g id="arrowDown" xlink:href="#dirArrow" transform="rotate(180) translate(-30 -48)" onmousedown="handlePan(0,1)">
                  <use xlink:href="#rim" fill="#404040">
                        <set attributeName="fill" to="#808080" begin="arrowDown.mouseover" end="arrowDown.mouseout"/>
                  </use>
                  <path fill="none" stroke="white" stroke-width="1.5" d="M0,-3.0v7 M-2.5,-0.5L0,-3.0L2.5,-0.5"/>
                </g>
                <g id="arrowLeft" xlink:href="#dirArrow" transform="rotate(270) translate(-36 17)" onmousedown="handlePan(-1,0)">
                  <use xlink:href="#rim" fill="#404040">
                        <set attributeName="fill" to="#808080" begin="arrowLeft.mouseover" end="arrowLeft.mouseout"/>
                  </use>
                  <path fill="none" stroke="white" stroke-width="1.5" d="M0,-3.0v7 M-2.5,-0.5L0,-3.0L2.5,-0.5"/>
                </g>
        </g>
        <svg viewBox="0 0 15 15" width="100%" height="30px" preserveAspectRatio="xMaxYMin meet">
         <g id="arrow_out" transform="scale(0.3 0.3)">
          <a xlink:href="class_juniper_1_1_input_1_1_pointers_1_1_motion_1_1_abstract_motion_controller_configuration__inherit__graph_org.svg" target="_base">
           <rect id="button" ry="5" rx="5" y="6" x="6" height="38" width="38"
                fill="#f2f5e9" fill-opacity="0.5" stroke="#606060" stroke-width="1.0"/>
           <path id="arrow"
             d="M 11.500037,31.436501 C 11.940474,20.09759 22.043105,11.32322 32.158766,21.979434 L 37.068811,17.246167 C 37.068811,17.246167 37.088388,32 37.088388,32 L 22.160133,31.978069 C 22.160133,31.978069 26.997745,27.140456 26.997745,27.140456 C 18.528582,18.264221 13.291696,25.230495 11.500037,31.436501 z"
             style="fill:#404040;"/>
          </a>
         </g>
        </svg>
</svg>
