<?xml version="1.0" encoding="UTF-8" standalone="no"?>
<!DOCTYPE svg PUBLIC "-//W3C//DTD SVG 1.1//EN"
 "http://www.w3.org/Graphics/SVG/1.1/DTD/svg11.dtd">
<!-- Generated by graphviz version 2.38.0 (20140413.2041)
 -->
<!-- Title: Juniper.World.Climate.OpenWeatherMap.WeatherReport.OWMMain Pages: 1 -->
<svg width="194pt" height="248pt"
 viewBox="0.00 0.00 194.00 248.00" xmlns="http://www.w3.org/2000/svg" xmlns:xlink="http://www.w3.org/1999/xlink">
<g id="graph0" class="graph" transform="scale(1 1) rotate(0) translate(4 244)">
<title>Juniper.World.Climate.OpenWeatherMap.WeatherReport.OWMMain</title>
<polygon fill="white" stroke="none" points="-4,4 -4,-244 190,-244 190,4 -4,4"/>
<!-- Node2 -->
<g id="node1" class="node"><title>Node2</title>
<g id="a_node1"><a xlink:title="The main metrics portion of the weather forcast.">
<polygon fill="#bfbfbf" stroke="black" points="0,-0.5 0,-145.5 186,-145.5 186,-0.5 0,-0.5"/>
<text text-anchor="start" x="8" y="-133.5" font-family="SegoeUI" font-size="10.00">Juniper.World.Climate.Open</text>
<text text-anchor="middle" x="93" y="-122.5" font-family="SegoeUI" font-size="10.00">WeatherMap.WeatherReport.OWMMain</text>
<polyline fill="none" stroke="black" points="0,-115.5 186,-115.5 "/>
<text text-anchor="start" x="8" y="-103.5" font-family="SegoeUI" font-size="10.00">+ temp</text>
<text text-anchor="start" x="8" y="-92.5" font-family="SegoeUI" font-size="10.00">+ pressure</text>
<text text-anchor="start" x="8" y="-81.5" font-family="SegoeUI" font-size="10.00">+ humidity</text>
<text text-anchor="start" x="8" y="-70.5" font-family="SegoeUI" font-size="10.00">+ temp_min</text>
<text text-anchor="start" x="8" y="-59.5" font-family="SegoeUI" font-size="10.00">+ temp_max</text>
<text text-anchor="start" x="8" y="-48.5" font-family="SegoeUI" font-size="10.00">+ sea_level</text>
<text text-anchor="start" x="8" y="-37.5" font-family="SegoeUI" font-size="10.00">+ grnd_level</text>
<polyline fill="none" stroke="black" points="0,-30.5 186,-30.5 "/>
<text text-anchor="start" x="8" y="-18.5" font-family="SegoeUI" font-size="10.00">+ GetObjectData()</text>
<text text-anchor="start" x="8" y="-7.5" font-family="SegoeUI" font-size="10.00"># OWMMain()</text>
</a>
</g>
</g>
<!-- Node3 -->
<g id="node2" class="node"><title>Node3</title>
<g id="a_node2"><a xlink:title=" ">
<polygon fill="white" stroke="#bfbfbf" points="58.5,-182.5 58.5,-239.5 127.5,-239.5 127.5,-182.5 58.5,-182.5"/>
<text text-anchor="middle" x="93" y="-227.5" font-family="SegoeUI" font-size="10.00">ISerializable</text>
<polyline fill="none" stroke="#bfbfbf" points="58.5,-220.5 127.5,-220.5 "/>
<text text-anchor="middle" x="93" y="-208.5" font-family="SegoeUI" font-size="10.00"> </text>
<polyline fill="none" stroke="#bfbfbf" points="58.5,-201.5 127.5,-201.5 "/>
<text text-anchor="middle" x="93" y="-189.5" font-family="SegoeUI" font-size="10.00"> </text>
</a>
</g>
</g>
<!-- Node3&#45;&gt;Node2 -->
<g id="edge1" class="edge"><title>Node3&#45;&gt;Node2</title>
<path fill="none" stroke="midnightblue" d="M93,-172.356C93,-163.999 93,-154.872 93,-145.656"/>
<polygon fill="none" stroke="midnightblue" points="89.5001,-172.478 93,-182.478 96.5001,-172.478 89.5001,-172.478"/>
</g>
</g>
</svg>
