<?xml version="1.0" encoding="UTF-8" standalone="no"?>
<!DOCTYPE svg PUBLIC "-//W3C//DTD SVG 1.1//EN"
 "http://www.w3.org/Graphics/SVG/1.1/DTD/svg11.dtd">
<!-- Generated by graphviz version 2.38.0 (20140413.2041)
 -->
<!-- Title: Juniper.Progress.StaticProgress Pages: 1 -->
<svg width="194pt" height="288pt"
 viewBox="0.00 0.00 194.00 288.00" xmlns="http://www.w3.org/2000/svg" xmlns:xlink="http://www.w3.org/1999/xlink">
<g id="graph0" class="graph" transform="scale(1 1) rotate(0) translate(4 284)">
<title>Juniper.Progress.StaticProgress</title>
<polygon fill="white" stroke="none" points="-4,4 -4,-284 190,-284 190,4 -4,4"/>
<!-- Node3 -->
<g id="node1" class="node"><title>Node3</title>
<g id="a_node1"><a xlink:title=" ">
<polygon fill="#bfbfbf" stroke="black" points="34,-0.5 34,-79.5 186,-79.5 186,-0.5 34,-0.5"/>
<text text-anchor="middle" x="110" y="-67.5" font-family="SegoeUI" font-size="10.00">Juniper.Progress.StaticProgress</text>
<polyline fill="none" stroke="black" points="34,-60.5 186,-60.5 "/>
<text text-anchor="start" x="42" y="-48.5" font-family="SegoeUI" font-size="10.00">+ Progress</text>
<polyline fill="none" stroke="black" points="34,-41.5 186,-41.5 "/>
<text text-anchor="start" x="42" y="-29.5" font-family="SegoeUI" font-size="10.00">+ StaticProgress()</text>
<text text-anchor="start" x="42" y="-18.5" font-family="SegoeUI" font-size="10.00">+ SetProgress()</text>
<text text-anchor="start" x="42" y="-7.5" font-family="SegoeUI" font-size="10.00">&#45; StaticProgress()</text>
</a>
</g>
</g>
<!-- Node4 -->
<g id="node2" class="node"><title>Node4</title>
<g id="a_node2"><a xlink:href="../../d3/de9/interface_juniper_1_1_progress_1_1_i_progress_receiver.html" target="_top" xlink:title=" ">
<polygon fill="white" stroke="black" points="0,-127.5 0,-184.5 94,-184.5 94,-127.5 0,-127.5"/>
<text text-anchor="middle" x="47" y="-172.5" font-family="SegoeUI" font-size="10.00">IProgressReceiver</text>
<polyline fill="none" stroke="black" points="0,-165.5 94,-165.5 "/>
<text text-anchor="middle" x="47" y="-153.5" font-family="SegoeUI" font-size="10.00"> </text>
<polyline fill="none" stroke="black" points="0,-146.5 94,-146.5 "/>
<text text-anchor="start" x="8" y="-134.5" font-family="SegoeUI" font-size="10.00">+ SetProgress()</text>
</a>
</g>
</g>
<!-- Node4&#45;&gt;Node3 -->
<g id="edge1" class="edge"><title>Node4&#45;&gt;Node3</title>
<path fill="none" stroke="midnightblue" d="M67.0964,-118.635C73.9868,-106.167 81.7189,-92.1754 88.7013,-79.5406"/>
<polygon fill="none" stroke="midnightblue" points="64.0241,-116.958 62.2505,-127.404 70.1508,-120.344 64.0241,-116.958"/>
</g>
<!-- Node5 -->
<g id="node3" class="node"><title>Node5</title>
<g id="a_node3"><a xlink:href="../../d9/daf/interface_juniper_1_1_progress_1_1_i_progress.html" target="_top" xlink:title=" ">
<polygon fill="white" stroke="black" points="15.5,-222.5 15.5,-279.5 78.5,-279.5 78.5,-222.5 15.5,-222.5"/>
<text text-anchor="middle" x="47" y="-267.5" font-family="SegoeUI" font-size="10.00">IProgress</text>
<polyline fill="none" stroke="black" points="15.5,-260.5 78.5,-260.5 "/>
<text text-anchor="start" x="23.5" y="-248.5" font-family="SegoeUI" font-size="10.00">+ Progress</text>
<polyline fill="none" stroke="black" points="15.5,-241.5 78.5,-241.5 "/>
<text text-anchor="middle" x="47" y="-229.5" font-family="SegoeUI" font-size="10.00"> </text>
</a>
</g>
</g>
<!-- Node5&#45;&gt;Node4 -->
<g id="edge2" class="edge"><title>Node5&#45;&gt;Node4</title>
<path fill="none" stroke="midnightblue" d="M47,-212.235C47,-203.028 47,-193.346 47,-184.705"/>
<polygon fill="none" stroke="midnightblue" points="43.5001,-212.349 47,-222.349 50.5001,-212.349 43.5001,-212.349"/>
</g>
<!-- Node6 -->
<g id="node4" class="node"><title>Node6</title>
<g id="a_node4"><a xlink:title=" ">
<polygon fill="white" stroke="#bfbfbf" points="112.5,-127.5 112.5,-184.5 151.5,-184.5 151.5,-127.5 112.5,-127.5"/>
<text text-anchor="middle" x="132" y="-172.5" font-family="SegoeUI" font-size="10.00">static</text>
<polyline fill="none" stroke="#bfbfbf" points="112.5,-165.5 151.5,-165.5 "/>
<text text-anchor="middle" x="132" y="-153.5" font-family="SegoeUI" font-size="10.00"> </text>
<polyline fill="none" stroke="#bfbfbf" points="112.5,-146.5 151.5,-146.5 "/>
<text text-anchor="middle" x="132" y="-134.5" font-family="SegoeUI" font-size="10.00"> </text>
</a>
</g>
</g>
<!-- Node6&#45;&gt;Node3 -->
<g id="edge3" class="edge"><title>Node6&#45;&gt;Node3</title>
<path fill="none" stroke="#404040" d="M126.674,-127.404C124.595,-116.63 122.144,-103.926 119.769,-91.6231"/>
<polygon fill="none" stroke="#404040" points="119.712,-91.3232 114.647,-86.1898 117.438,-79.5406 122.502,-84.6739 119.712,-91.3232"/>
<text text-anchor="middle" x="151" y="-101" font-family="SegoeUI" font-size="10.00"> +COMPLETE</text>
</g>
</g>
</svg>
