<?xml version="1.0" encoding="UTF-8" standalone="no"?>
<!DOCTYPE svg PUBLIC "-//W3C//DTD SVG 1.1//EN"
 "http://www.w3.org/Graphics/SVG/1.1/DTD/svg11.dtd">
<!-- Generated by graphviz version 2.38.0 (20140413.2041)
 -->
<!-- Title: Hjg.Pngcs.Chunks.ChunkCopyBehaviour Pages: 1 -->
<svg width="185pt" height="270pt"
 viewBox="0.00 0.00 184.50 270.00" xmlns="http://www.w3.org/2000/svg" xmlns:xlink="http://www.w3.org/1999/xlink">
<g id="graph0" class="graph" transform="scale(1 1) rotate(0) translate(4 266)">
<title>Hjg.Pngcs.Chunks.ChunkCopyBehaviour</title>
<polygon fill="white" stroke="none" points="-4,4 -4,-266 180.5,-266 180.5,4 -4,4"/>
<!-- Node1 -->
<g id="node1" class="node"><title>Node1</title>
<g id="a_node1"><a xlink:title="Behaviours for chunks transfer when reading and writing.">
<polygon fill="#bfbfbf" stroke="black" points="0,-0.5 0,-68.5 143,-68.5 143,-0.5 0,-0.5"/>
<text text-anchor="start" x="8" y="-56.5" font-family="SegoeUI" font-size="10.00">Hjg.Pngcs.Chunks.ChunkCopy</text>
<text text-anchor="middle" x="71.5" y="-45.5" font-family="SegoeUI" font-size="10.00">Behaviour</text>
<polyline fill="none" stroke="black" points="0,-38.5 143,-38.5 "/>
<text text-anchor="middle" x="71.5" y="-26.5" font-family="SegoeUI" font-size="10.00"> </text>
<polyline fill="none" stroke="black" points="0,-19.5 143,-19.5 "/>
<text text-anchor="middle" x="71.5" y="-7.5" font-family="SegoeUI" font-size="10.00"> </text>
</a>
</g>
</g>
<!-- Node2 -->
<g id="node2" class="node"><title>Node2</title>
<g id="a_node2"><a xlink:title=" ">
<polygon fill="white" stroke="#bfbfbf" points="52,-204.5 52,-261.5 91,-261.5 91,-204.5 52,-204.5"/>
<text text-anchor="middle" x="71.5" y="-249.5" font-family="SegoeUI" font-size="10.00">static</text>
<polyline fill="none" stroke="#bfbfbf" points="52,-242.5 91,-242.5 "/>
<text text-anchor="middle" x="71.5" y="-230.5" font-family="SegoeUI" font-size="10.00"> </text>
<polyline fill="none" stroke="#bfbfbf" points="52,-223.5 91,-223.5 "/>
<text text-anchor="middle" x="71.5" y="-211.5" font-family="SegoeUI" font-size="10.00"> </text>
</a>
</g>
</g>
<!-- Node2&#45;&gt;Node1 -->
<g id="edge1" class="edge"><title>Node2&#45;&gt;Node1</title>
<path fill="none" stroke="#404040" d="M71.5,-204.263C71.5,-172.232 71.5,-119.068 71.5,-80.9664"/>
<polygon fill="none" stroke="#404040" points="71.5001,-80.6747 67.5,-74.6747 71.5,-68.6747 75.5,-74.6746 71.5001,-80.6747"/>
<text text-anchor="middle" x="124" y="-178" font-family="SegoeUI" font-size="10.00"> +COPY_TEXTUAL</text>
<text text-anchor="middle" x="124" y="-167" font-family="SegoeUI" font-size="10.00">+COPY_PHYS</text>
<text text-anchor="middle" x="124" y="-156" font-family="SegoeUI" font-size="10.00">+COPY_PALETTE</text>
<text text-anchor="middle" x="124" y="-145" font-family="SegoeUI" font-size="10.00">+COPY_ALMOSTALL</text>
<text text-anchor="middle" x="124" y="-134" font-family="SegoeUI" font-size="10.00">+COPY_ALL_SAFE</text>
<text text-anchor="middle" x="124" y="-123" font-family="SegoeUI" font-size="10.00">+COPY_NONE</text>
<text text-anchor="middle" x="124" y="-112" font-family="SegoeUI" font-size="10.00">+COPY_ALL</text>
<text text-anchor="middle" x="124" y="-101" font-family="SegoeUI" font-size="10.00">+COPY_UNKNOWN</text>
<text text-anchor="middle" x="124" y="-90" font-family="SegoeUI" font-size="10.00">+COPY_TRANSPARENCY</text>
</g>
</g>
</svg>
