<?xml version="1.0" encoding="UTF-8" standalone="no"?>
<!DOCTYPE svg PUBLIC "-//W3C//DTD SVG 1.1//EN"
 "http://www.w3.org/Graphics/SVG/1.1/DTD/svg11.dtd">
<!-- Generated by graphviz version 2.38.0 (20140413.2041)
 -->
<!-- Title: Juniper.Console.ConsoleBufferSubdivision Pages: 1 -->
<svg width="270pt" height="358pt"
 viewBox="0.00 0.00 269.50 358.00" xmlns="http://www.w3.org/2000/svg" xmlns:xlink="http://www.w3.org/1999/xlink">
<g id="graph0" class="graph" transform="scale(1 1) rotate(0) translate(4 354)">
<title>Juniper.Console.ConsoleBufferSubdivision</title>
<polygon fill="white" stroke="none" points="-4,4 -4,-354 265.5,-354 265.5,4 -4,4"/>
<!-- Node2 -->
<g id="node1" class="node"><title>Node2</title>
<g id="a_node1"><a xlink:title=" ">
<polygon fill="#bfbfbf" stroke="black" points="56.5,-0.5 56.5,-167.5 202.5,-167.5 202.5,-0.5 56.5,-0.5"/>
<text text-anchor="start" x="64.5" y="-155.5" font-family="SegoeUI" font-size="10.00">Juniper.Console.ConsoleBuffer</text>
<text text-anchor="middle" x="129.5" y="-144.5" font-family="SegoeUI" font-size="10.00">Subdivision</text>
<polyline fill="none" stroke="black" points="56.5,-137.5 202.5,-137.5 "/>
<text text-anchor="start" x="64.5" y="-125.5" font-family="SegoeUI" font-size="10.00">+ AbsoluteLeft</text>
<text text-anchor="start" x="64.5" y="-114.5" font-family="SegoeUI" font-size="10.00">+ AbsoluteRight</text>
<text text-anchor="start" x="64.5" y="-103.5" font-family="SegoeUI" font-size="10.00">+ AbsoluteTop</text>
<text text-anchor="start" x="64.5" y="-92.5" font-family="SegoeUI" font-size="10.00">+ AbsoluteBottom</text>
<text text-anchor="start" x="64.5" y="-81.5" font-family="SegoeUI" font-size="10.00">+ Width</text>
<text text-anchor="start" x="64.5" y="-70.5" font-family="SegoeUI" font-size="10.00">+ Height</text>
<text text-anchor="start" x="64.5" y="-59.5" font-family="SegoeUI" font-size="10.00">&#45; x</text>
<text text-anchor="start" x="64.5" y="-48.5" font-family="SegoeUI" font-size="10.00">&#45; y</text>
<polyline fill="none" stroke="black" points="56.5,-41.5 202.5,-41.5 "/>
<text text-anchor="start" x="64.5" y="-29.5" font-family="SegoeUI" font-size="10.00">+ ConsoleBufferSubdivision()</text>
<text text-anchor="start" x="64.5" y="-18.5" font-family="SegoeUI" font-size="10.00">+ Draw()</text>
<text text-anchor="start" x="64.5" y="-7.5" font-family="SegoeUI" font-size="10.00">+ GetBackgroundColor()</text>
</a>
</g>
</g>
<!-- Node3 -->
<g id="node2" class="node"><title>Node3</title>
<g id="a_node2"><a xlink:href="../../d8/df3/interface_juniper_1_1_console_1_1_i_console_buffer.html" target="_top" xlink:title=" ">
<polygon fill="white" stroke="black" points="0,-221 0,-344 119,-344 119,-221 0,-221"/>
<text text-anchor="middle" x="59.5" y="-332" font-family="SegoeUI" font-size="10.00">IConsoleBuffer</text>
<polyline fill="none" stroke="black" points="0,-325 119,-325 "/>
<text text-anchor="start" x="8" y="-313" font-family="SegoeUI" font-size="10.00">+ AbsoluteLeft</text>
<text text-anchor="start" x="8" y="-302" font-family="SegoeUI" font-size="10.00">+ AbsoluteRight</text>
<text text-anchor="start" x="8" y="-291" font-family="SegoeUI" font-size="10.00">+ AbsoluteTop</text>
<text text-anchor="start" x="8" y="-280" font-family="SegoeUI" font-size="10.00">+ AbsoluteBottom</text>
<text text-anchor="start" x="8" y="-269" font-family="SegoeUI" font-size="10.00">+ Height</text>
<text text-anchor="start" x="8" y="-258" font-family="SegoeUI" font-size="10.00">+ Width</text>
<polyline fill="none" stroke="black" points="0,-251 119,-251 "/>
<text text-anchor="start" x="8" y="-239" font-family="SegoeUI" font-size="10.00">+ Draw()</text>
<text text-anchor="start" x="8" y="-228" font-family="SegoeUI" font-size="10.00">+ GetBackgroundColor()</text>
</a>
</g>
</g>
<!-- Node3&#45;&gt;Node2 -->
<g id="edge1" class="edge"><title>Node3&#45;&gt;Node2</title>
<path fill="none" stroke="midnightblue" d="M84.4998,-211.322C89.5264,-197.212 94.8534,-182.258 100.016,-167.765"/>
<polygon fill="none" stroke="midnightblue" points="81.1323,-210.345 81.0735,-220.94 87.7264,-212.695 81.1323,-210.345"/>
</g>
<!-- Node4 -->
<g id="node3" class="node"><title>Node4</title>
<g id="a_node3"><a xlink:href="../../d8/df3/interface_juniper_1_1_console_1_1_i_console_buffer.html" target="_top" xlink:title=" ">
<polygon fill="white" stroke="black" points="137.5,-215.5 137.5,-349.5 261.5,-349.5 261.5,-215.5 137.5,-215.5"/>
<text text-anchor="start" x="145.5" y="-337.5" font-family="SegoeUI" font-size="10.00">Juniper.Console.IConsole</text>
<text text-anchor="middle" x="199.5" y="-326.5" font-family="SegoeUI" font-size="10.00">Buffer</text>
<polyline fill="none" stroke="black" points="137.5,-319.5 261.5,-319.5 "/>
<text text-anchor="start" x="145.5" y="-307.5" font-family="SegoeUI" font-size="10.00">+ AbsoluteLeft</text>
<text text-anchor="start" x="145.5" y="-296.5" font-family="SegoeUI" font-size="10.00">+ AbsoluteRight</text>
<text text-anchor="start" x="145.5" y="-285.5" font-family="SegoeUI" font-size="10.00">+ AbsoluteTop</text>
<text text-anchor="start" x="145.5" y="-274.5" font-family="SegoeUI" font-size="10.00">+ AbsoluteBottom</text>
<text text-anchor="start" x="145.5" y="-263.5" font-family="SegoeUI" font-size="10.00">+ Height</text>
<text text-anchor="start" x="145.5" y="-252.5" font-family="SegoeUI" font-size="10.00">+ Width</text>
<polyline fill="none" stroke="black" points="137.5,-245.5 261.5,-245.5 "/>
<text text-anchor="start" x="145.5" y="-233.5" font-family="SegoeUI" font-size="10.00">+ Draw()</text>
<text text-anchor="start" x="145.5" y="-222.5" font-family="SegoeUI" font-size="10.00">+ GetBackgroundColor()</text>
</a>
</g>
</g>
<!-- Node4&#45;&gt;Node2 -->
<g id="edge2" class="edge"><title>Node4&#45;&gt;Node2</title>
<path fill="none" stroke="#404040" d="M175.899,-215.248C171.778,-203.681 167.421,-191.449 163.092,-179.298"/>
<polygon fill="none" stroke="#404040" points="162.986,-179.001 157.205,-174.691 158.959,-167.697 164.741,-172.007 162.986,-179.001"/>
<text text-anchor="middle" x="187" y="-189" font-family="SegoeUI" font-size="10.00"> &#45;parent</text>
</g>
</g>
</svg>
