<?xml version="1.0" encoding="UTF-8" standalone="no"?>
<!DOCTYPE svg PUBLIC "-//W3C//DTD SVG 1.1//EN"
 "http://www.w3.org/Graphics/SVG/1.1/DTD/svg11.dtd">
<!-- Generated by graphviz version 2.38.0 (20140413.2041)
 -->
<!-- Title: Juniper.Unity.World.LightEstimation.OutdoorLightEstimate Pages: 1 -->
<svg width="178pt" height="595pt"
 viewBox="0.00 0.00 177.50 595.00" xmlns="http://www.w3.org/2000/svg" xmlns:xlink="http://www.w3.org/1999/xlink">
<g id="graph0" class="graph" transform="scale(1 1) rotate(0) translate(4 591)">
<title>Juniper.Unity.World.LightEstimation.OutdoorLightEstimate</title>
<polygon fill="white" stroke="none" points="-4,4 -4,-591 173.5,-591 173.5,4 -4,4"/>
<!-- Node0 -->
<g id="node1" class="node"><title>Node0</title>
<g id="a_node1"><a xlink:title="Modifies the base light estimate to include cloud cover values retrieved from a weather reporting ser...">
<polygon fill="#bfbfbf" stroke="black" points="10.5,-0.5 10.5,-178.5 165.5,-178.5 165.5,-0.5 10.5,-0.5"/>
<text text-anchor="start" x="18.5" y="-166.5" font-family="SegoeUI" font-size="10.00">Juniper.Unity.World.Light</text>
<text text-anchor="middle" x="88" y="-155.5" font-family="SegoeUI" font-size="10.00">Estimation.OutdoorLightEstimate</text>
<polyline fill="none" stroke="black" points="10.5,-148.5 165.5,-148.5 "/>
<text text-anchor="start" x="18.5" y="-136.5" font-family="SegoeUI" font-size="10.00">+ weather</text>
<text text-anchor="start" x="18.5" y="-125.5" font-family="SegoeUI" font-size="10.00">+ CloudCover</text>
<text text-anchor="start" x="18.5" y="-114.5" font-family="SegoeUI" font-size="10.00">+ HasSunRotation</text>
<text text-anchor="start" x="18.5" y="-103.5" font-family="SegoeUI" font-size="10.00">+ SunRotation</text>
<text text-anchor="start" x="18.5" y="-92.5" font-family="SegoeUI" font-size="10.00">+ IsNight</text>
<text text-anchor="start" x="18.5" y="-81.5" font-family="SegoeUI" font-size="10.00">+ HasCloudCover</text>
<text text-anchor="start" x="18.5" y="-70.5" font-family="SegoeUI" font-size="10.00">&#45; isNight</text>
<text text-anchor="start" x="18.5" y="-59.5" font-family="SegoeUI" font-size="10.00">&#45; sunPosition</text>
<polyline fill="none" stroke="black" points="10.5,-52.5 165.5,-52.5 "/>
<text text-anchor="start" x="18.5" y="-40.5" font-family="SegoeUI" font-size="10.00">+ Install()</text>
<text text-anchor="start" x="18.5" y="-29.5" font-family="SegoeUI" font-size="10.00"># Awake()</text>
<text text-anchor="start" x="18.5" y="-18.5" font-family="SegoeUI" font-size="10.00"># Update()</text>
<text text-anchor="start" x="18.5" y="-7.5" font-family="SegoeUI" font-size="10.00">&#45; PrintDebugReport()</text>
</a>
</g>
</g>
<!-- Node1 -->
<g id="node2" class="node"><title>Node1</title>
<g id="a_node2"><a xlink:href="../../db/d0d/class_juniper_1_1_unity_1_1_world_1_1_light_estimation_1_1_abstract_light_estimate.html" target="_top" xlink:title=" ">
<polygon fill="white" stroke="black" points="33.5,-215.5 33.5,-470.5 142.5,-470.5 142.5,-215.5 33.5,-215.5"/>
<text text-anchor="middle" x="88" y="-458.5" font-family="SegoeUI" font-size="10.00">AbstractLightEstimate</text>
<polyline fill="none" stroke="black" points="33.5,-451.5 142.5,-451.5 "/>
<text text-anchor="start" x="41.5" y="-439.5" font-family="SegoeUI" font-size="10.00">+ SetAmbientLight</text>
<text text-anchor="start" x="41.5" y="-428.5" font-family="SegoeUI" font-size="10.00">+ ambientScale</text>
<text text-anchor="start" x="41.5" y="-417.5" font-family="SegoeUI" font-size="10.00">+ SetDirectionalLight</text>
<text text-anchor="start" x="41.5" y="-406.5" font-family="SegoeUI" font-size="10.00">+ directionalScale</text>
<text text-anchor="start" x="41.5" y="-395.5" font-family="SegoeUI" font-size="10.00">+ shadowScale</text>
<text text-anchor="start" x="41.5" y="-384.5" font-family="SegoeUI" font-size="10.00">+ CloudCoverScale</text>
<text text-anchor="start" x="41.5" y="-373.5" font-family="SegoeUI" font-size="10.00">+ DebugReport</text>
<text text-anchor="start" x="41.5" y="-362.5" font-family="SegoeUI" font-size="10.00">+ CloudCover</text>
<text text-anchor="start" x="41.5" y="-351.5" font-family="SegoeUI" font-size="10.00">+ HasSunRotation</text>
<text text-anchor="start" x="41.5" y="-340.5" font-family="SegoeUI" font-size="10.00">+ SunRotation</text>
<text text-anchor="start" x="41.5" y="-329.5" font-family="SegoeUI" font-size="10.00"># sun</text>
<text text-anchor="start" x="41.5" y="-318.5" font-family="SegoeUI" font-size="10.00"># measurement</text>
<text text-anchor="start" x="41.5" y="-307.5" font-family="SegoeUI" font-size="10.00"># overhead</text>
<polyline fill="none" stroke="black" points="33.5,-300.5 142.5,-300.5 "/>
<text text-anchor="start" x="41.5" y="-288.5" font-family="SegoeUI" font-size="10.00">+ Reinstall()</text>
<text text-anchor="start" x="41.5" y="-277.5" font-family="SegoeUI" font-size="10.00">+ Install()</text>
<text text-anchor="start" x="41.5" y="-266.5" font-family="SegoeUI" font-size="10.00">+ Uninstall()</text>
<text text-anchor="start" x="41.5" y="-255.5" font-family="SegoeUI" font-size="10.00"># RampIntensity()</text>
<text text-anchor="start" x="41.5" y="-244.5" font-family="SegoeUI" font-size="10.00"># Awake()</text>
<text text-anchor="start" x="41.5" y="-233.5" font-family="SegoeUI" font-size="10.00"># Update()</text>
<text text-anchor="start" x="41.5" y="-222.5" font-family="SegoeUI" font-size="10.00">&#45; PrintDebugReport()</text>
</a>
</g>
</g>
<!-- Node1&#45;&gt;Node0 -->
<g id="edge1" class="edge"><title>Node1&#45;&gt;Node0</title>
<path fill="none" stroke="midnightblue" d="M88,-205.043C88,-196.116 88,-187.265 88,-178.672"/>
<polygon fill="none" stroke="midnightblue" points="84.5001,-205.145 88,-215.145 91.5001,-205.145 84.5001,-205.145"/>
</g>
<!-- Node2 -->
<g id="node3" class="node"><title>Node2</title>
<g id="a_node3"><a xlink:title=" ">
<polygon fill="white" stroke="#bfbfbf" points="0,-518.5 0,-575.5 82,-575.5 82,-518.5 0,-518.5"/>
<text text-anchor="middle" x="41" y="-563.5" font-family="SegoeUI" font-size="10.00">MonoBehaviour</text>
<polyline fill="none" stroke="#bfbfbf" points="0,-556.5 82,-556.5 "/>
<text text-anchor="middle" x="41" y="-544.5" font-family="SegoeUI" font-size="10.00"> </text>
<polyline fill="none" stroke="#bfbfbf" points="0,-537.5 82,-537.5 "/>
<text text-anchor="middle" x="41" y="-525.5" font-family="SegoeUI" font-size="10.00"> </text>
</a>
</g>
</g>
<!-- Node2&#45;&gt;Node1 -->
<g id="edge2" class="edge"><title>Node2&#45;&gt;Node1</title>
<path fill="none" stroke="midnightblue" d="M49.7047,-508.588C52.3072,-497.403 55.3178,-484.464 58.4846,-470.853"/>
<polygon fill="none" stroke="midnightblue" points="46.2939,-507.803 47.4366,-518.336 53.1118,-509.39 46.2939,-507.803"/>
</g>
<!-- Node3 -->
<g id="node4" class="node"><title>Node3</title>
<g id="a_node4"><a xlink:href="../../db/d28/interface_juniper_1_1_i_installable.html" target="_top" xlink:title=" ">
<polygon fill="white" stroke="black" points="100.5,-507.5 100.5,-586.5 169.5,-586.5 169.5,-507.5 100.5,-507.5"/>
<text text-anchor="middle" x="135" y="-574.5" font-family="SegoeUI" font-size="10.00">IInstallable</text>
<polyline fill="none" stroke="black" points="100.5,-567.5 169.5,-567.5 "/>
<text text-anchor="middle" x="135" y="-555.5" font-family="SegoeUI" font-size="10.00"> </text>
<polyline fill="none" stroke="black" points="100.5,-548.5 169.5,-548.5 "/>
<text text-anchor="start" x="108.5" y="-536.5" font-family="SegoeUI" font-size="10.00">+ Install()</text>
<text text-anchor="start" x="108.5" y="-525.5" font-family="SegoeUI" font-size="10.00">+ Reinstall()</text>
<text text-anchor="start" x="108.5" y="-514.5" font-family="SegoeUI" font-size="10.00">+ Uninstall()</text>
</a>
</g>
</g>
<!-- Node3&#45;&gt;Node1 -->
<g id="edge3" class="edge"><title>Node3&#45;&gt;Node1</title>
<path fill="none" stroke="midnightblue" d="M123.654,-497.237C121.715,-488.904 119.624,-479.918 117.461,-470.621"/>
<polygon fill="none" stroke="midnightblue" points="120.263,-498.106 125.938,-507.052 127.081,-496.519 120.263,-498.106"/>
</g>
</g>
</svg>
