<?xml version="1.0" encoding="UTF-8" standalone="no"?>
<!DOCTYPE svg PUBLIC "-//W3C//DTD SVG 1.1//EN"
 "http://www.w3.org/Graphics/SVG/1.1/DTD/svg11.dtd">
<!-- Generated by graphviz version 2.38.0 (20140413.2041)
 -->
<!-- Title: Juniper.HTTP.Server.Controllers.HttpRoute Pages: 1 -->
<svg width="738pt" height="1215pt"
 viewBox="0.00 0.00 737.50 1215.00" xmlns="http://www.w3.org/2000/svg" xmlns:xlink="http://www.w3.org/1999/xlink">
<g id="graph0" class="graph" transform="scale(1 1) rotate(0) translate(4 1211)">
<title>Juniper.HTTP.Server.Controllers.HttpRoute</title>
<polygon fill="white" stroke="none" points="-4,4 -4,-1211 733.5,-1211 733.5,4 -4,4"/>
<!-- Node11 -->
<g id="node1" class="node"><title>Node11</title>
<g id="a_node1"><a xlink:title=" ">
<polygon fill="#bfbfbf" stroke="black" points="342,-0.5 342,-90.5 500,-90.5 500,-0.5 342,-0.5"/>
<text text-anchor="start" x="350" y="-78.5" font-family="SegoeUI" font-size="10.00">Juniper.HTTP.Server.Controllers.</text>
<text text-anchor="middle" x="421" y="-67.5" font-family="SegoeUI" font-size="10.00">HttpRoute</text>
<polyline fill="none" stroke="black" points="342,-60.5 500,-60.5 "/>
<text text-anchor="middle" x="421" y="-48.5" font-family="SegoeUI" font-size="10.00"> </text>
<polyline fill="none" stroke="black" points="342,-41.5 500,-41.5 "/>
<text text-anchor="start" x="350" y="-29.5" font-family="SegoeUI" font-size="10.00">+ HttpRoute()</text>
<text text-anchor="start" x="350" y="-18.5" font-family="SegoeUI" font-size="10.00"># InvokeAsync()</text>
<text text-anchor="start" x="350" y="-7.5" font-family="SegoeUI" font-size="10.00">&#45; ValidateRoute()</text>
</a>
</g>
</g>
<!-- Node12 -->
<g id="node2" class="node"><title>Node12</title>
<g id="a_node2"><a xlink:href="../../dc/d98/class_juniper_1_1_h_t_t_p_1_1_server_1_1_controllers_1_1_abstract_route.html" target="_top" xlink:title=" ">
<polygon fill="white" stroke="black" points="374,-128.5 374,-262.5 468,-262.5 468,-128.5 374,-128.5"/>
<text text-anchor="middle" x="421" y="-250.5" font-family="SegoeUI" font-size="10.00">AbstractRoute</text>
<polyline fill="none" stroke="black" points="374,-243.5 468,-243.5 "/>
<text text-anchor="start" x="382" y="-231.5" font-family="SegoeUI" font-size="10.00">&#45; source</text>
<text text-anchor="start" x="382" y="-220.5" font-family="SegoeUI" font-size="10.00">&#45; action</text>
<polyline fill="none" stroke="black" points="374,-213.5 468,-213.5 "/>
<text text-anchor="start" x="382" y="-201.5" font-family="SegoeUI" font-size="10.00">+ Equals()</text>
<text text-anchor="start" x="382" y="-190.5" font-family="SegoeUI" font-size="10.00">+ GetHashCode()</text>
<text text-anchor="start" x="382" y="-179.5" font-family="SegoeUI" font-size="10.00">+ ToString()</text>
<text text-anchor="start" x="382" y="-168.5" font-family="SegoeUI" font-size="10.00">+ CompareTo()</text>
<text text-anchor="start" x="382" y="-157.5" font-family="SegoeUI" font-size="10.00"># AbstractRoute()</text>
<text text-anchor="start" x="382" y="-146.5" font-family="SegoeUI" font-size="10.00"># InvokeAsync()</text>
<text text-anchor="start" x="382" y="-135.5" font-family="SegoeUI" font-size="10.00">&#45; MakeName()</text>
</a>
</g>
</g>
<!-- Node12&#45;&gt;Node11 -->
<g id="edge1" class="edge"><title>Node12&#45;&gt;Node11</title>
<path fill="none" stroke="midnightblue" d="M421,-118.074C421,-108.649 421,-99.277 421,-90.5698"/>
<polygon fill="none" stroke="midnightblue" points="417.5,-118.292 421,-128.292 424.5,-118.292 417.5,-118.292"/>
</g>
<!-- Node13 -->
<g id="node3" class="node"><title>Node13</title>
<g id="a_node3"><a xlink:href="../../d9/d5c/class_juniper_1_1_h_t_t_p_1_1_server_1_1_controllers_1_1_abstract_response.html" target="_top" xlink:title=" ">
<polygon fill="white" stroke="black" points="352.5,-300.5 352.5,-885.5 489.5,-885.5 489.5,-300.5 352.5,-300.5"/>
<text text-anchor="middle" x="421" y="-873.5" font-family="SegoeUI" font-size="10.00">AbstractResponse</text>
<polyline fill="none" stroke="black" points="352.5,-866.5 489.5,-866.5 "/>
<text text-anchor="start" x="360.5" y="-854.5" font-family="SegoeUI" font-size="10.00">+ AllAuthSchemes</text>
<text text-anchor="start" x="360.5" y="-843.5" font-family="SegoeUI" font-size="10.00">+ AllProtocols</text>
<text text-anchor="start" x="360.5" y="-832.5" font-family="SegoeUI" font-size="10.00">+ AllMethods</text>
<text text-anchor="start" x="360.5" y="-821.5" font-family="SegoeUI" font-size="10.00">+ Name</text>
<text text-anchor="start" x="360.5" y="-810.5" font-family="SegoeUI" font-size="10.00">+ Pattern</text>
<text text-anchor="start" x="360.5" y="-799.5" font-family="SegoeUI" font-size="10.00">+ RegexSource</text>
<text text-anchor="start" x="360.5" y="-788.5" font-family="SegoeUI" font-size="10.00">+ ParameterCount</text>
<text text-anchor="start" x="360.5" y="-777.5" font-family="SegoeUI" font-size="10.00">+ Priority</text>
<text text-anchor="start" x="360.5" y="-766.5" font-family="SegoeUI" font-size="10.00">+ Protocols</text>
<text text-anchor="start" x="360.5" y="-755.5" font-family="SegoeUI" font-size="10.00">+ Methods</text>
<text text-anchor="start" x="360.5" y="-744.5" font-family="SegoeUI" font-size="10.00">+ Authentication</text>
<text text-anchor="start" x="360.5" y="-733.5" font-family="SegoeUI" font-size="10.00">+ StatusCodes</text>
<text text-anchor="start" x="360.5" y="-722.5" font-family="SegoeUI" font-size="10.00">+ Accept</text>
<text text-anchor="start" x="360.5" y="-711.5" font-family="SegoeUI" font-size="10.00">+ Headers</text>
<text text-anchor="start" x="360.5" y="-700.5" font-family="SegoeUI" font-size="10.00">+ Enabled</text>
<text text-anchor="start" x="360.5" y="-689.5" font-family="SegoeUI" font-size="10.00">+ Server</text>
<polyline fill="none" stroke="black" points="352.5,-682.5 489.5,-682.5 "/>
<text text-anchor="start" x="360.5" y="-670.5" font-family="SegoeUI" font-size="10.00">+ IsProtocolMatch()</text>
<text text-anchor="start" x="360.5" y="-659.5" font-family="SegoeUI" font-size="10.00">+ IsMethodMatch()</text>
<text text-anchor="start" x="360.5" y="-648.5" font-family="SegoeUI" font-size="10.00">+ IsPatternMatch()</text>
<text text-anchor="start" x="360.5" y="-637.5" font-family="SegoeUI" font-size="10.00">+ IsAcceptable()</text>
<text text-anchor="start" x="360.5" y="-626.5" font-family="SegoeUI" font-size="10.00">+ IsStatusCodeMatch()</text>
<text text-anchor="start" x="360.5" y="-615.5" font-family="SegoeUI" font-size="10.00">+ IsHeaderMatch()</text>
<text text-anchor="start" x="360.5" y="-604.5" font-family="SegoeUI" font-size="10.00">+ IsContextMatch()</text>
<text text-anchor="start" x="360.5" y="-593.5" font-family="SegoeUI" font-size="10.00">+ IsRequestMatch()</text>
<text text-anchor="start" x="360.5" y="-582.5" font-family="SegoeUI" font-size="10.00">+ ExecuteAsync()</text>
<text text-anchor="start" x="360.5" y="-571.5" font-family="SegoeUI" font-size="10.00">+ Equals()</text>
<text text-anchor="start" x="360.5" y="-560.5" font-family="SegoeUI" font-size="10.00">+ Equals()</text>
<text text-anchor="start" x="360.5" y="-549.5" font-family="SegoeUI" font-size="10.00">+ ToString()</text>
<text text-anchor="start" x="360.5" y="-538.5" font-family="SegoeUI" font-size="10.00">+ CompareTo()</text>
<text text-anchor="start" x="360.5" y="-527.5" font-family="SegoeUI" font-size="10.00">+ CompareTo()</text>
<text text-anchor="start" x="360.5" y="-516.5" font-family="SegoeUI" font-size="10.00">+ GetHashCode()</text>
<text text-anchor="start" x="360.5" y="-505.5" font-family="SegoeUI" font-size="10.00">+ operator==()</text>
<text text-anchor="start" x="360.5" y="-494.5" font-family="SegoeUI" font-size="10.00">+ operator !=()</text>
<text text-anchor="start" x="360.5" y="-483.5" font-family="SegoeUI" font-size="10.00">+ operator&lt;()</text>
<text text-anchor="start" x="360.5" y="-472.5" font-family="SegoeUI" font-size="10.00">+ operator &gt;()</text>
<text text-anchor="start" x="360.5" y="-461.5" font-family="SegoeUI" font-size="10.00">+ operator&lt;=()</text>
<text text-anchor="start" x="360.5" y="-450.5" font-family="SegoeUI" font-size="10.00">+ operator &gt;=()</text>
<text text-anchor="start" x="360.5" y="-439.5" font-family="SegoeUI" font-size="10.00"># AbstractResponse()</text>
<text text-anchor="start" x="360.5" y="-428.5" font-family="SegoeUI" font-size="10.00"># AbstractResponse??????()</text>
<text text-anchor="start" x="360.5" y="-417.5" font-family="SegoeUI" font-size="10.00"># AbstractResponse??()</text>
<text text-anchor="start" x="360.5" y="-406.5" font-family="SegoeUI" font-size="10.00"># AbstractResponse??????()</text>
<text text-anchor="start" x="360.5" y="-395.5" font-family="SegoeUI" font-size="10.00"># AbstractResponse????()</text>
<text text-anchor="start" x="360.5" y="-384.5" font-family="SegoeUI" font-size="10.00"># AbstractResponse??????()</text>
<text text-anchor="start" x="360.5" y="-373.5" font-family="SegoeUI" font-size="10.00"># AbstractResponse??()</text>
<text text-anchor="start" x="360.5" y="-362.5" font-family="SegoeUI" font-size="10.00"># AbstractResponse??????()</text>
<text text-anchor="start" x="360.5" y="-351.5" font-family="SegoeUI" font-size="10.00"># AbstractResponse????()</text>
<text text-anchor="start" x="360.5" y="-340.5" font-family="SegoeUI" font-size="10.00"># InvokeAsync()</text>
<text text-anchor="start" x="360.5" y="-329.5" font-family="SegoeUI" font-size="10.00"># OnInfo()</text>
<text text-anchor="start" x="360.5" y="-318.5" font-family="SegoeUI" font-size="10.00"># OnWarning()</text>
<text text-anchor="start" x="360.5" y="-307.5" font-family="SegoeUI" font-size="10.00"># OnError()</text>
</a>
</g>
</g>
<!-- Node13&#45;&gt;Node12 -->
<g id="edge2" class="edge"><title>Node13&#45;&gt;Node12</title>
<path fill="none" stroke="midnightblue" d="M421,-290.181C421,-280.518 421,-271.319 421,-262.726"/>
<polygon fill="none" stroke="midnightblue" points="417.5,-290.413 421,-300.413 424.5,-290.413 417.5,-290.413"/>
</g>
<!-- Node14 -->
<g id="node4" class="node"><title>Node14</title>
<g id="a_node4"><a xlink:title=" ">
<polygon fill="white" stroke="#bfbfbf" points="0,-1016 0,-1073 158,-1073 158,-1016 0,-1016"/>
<text text-anchor="middle" x="79" y="-1061" font-family="SegoeUI" font-size="10.00">IEquatable&lt; AbstractResponse &gt;</text>
<polyline fill="none" stroke="#bfbfbf" points="0,-1054 158,-1054 "/>
<text text-anchor="middle" x="79" y="-1042" font-family="SegoeUI" font-size="10.00"> </text>
<polyline fill="none" stroke="#bfbfbf" points="0,-1035 158,-1035 "/>
<text text-anchor="middle" x="79" y="-1023" font-family="SegoeUI" font-size="10.00"> </text>
</a>
</g>
</g>
<!-- Node14&#45;&gt;Node13 -->
<g id="edge3" class="edge"><title>Node14&#45;&gt;Node13</title>
<path fill="none" stroke="midnightblue" d="M106.249,-1007.69C159.078,-938.251 276.865,-783.44 352.418,-684.139"/>
<polygon fill="none" stroke="midnightblue" points="103.405,-1005.64 100.136,-1015.72 108.976,-1009.88 103.405,-1005.64"/>
</g>
<!-- Node15 -->
<g id="node5" class="node"><title>Node15</title>
<g id="a_node5"><a xlink:title=" ">
<polygon fill="white" stroke="#bfbfbf" points="176.5,-1016 176.5,-1073 247.5,-1073 247.5,-1016 176.5,-1016"/>
<text text-anchor="middle" x="212" y="-1061" font-family="SegoeUI" font-size="10.00">IComparable</text>
<polyline fill="none" stroke="#bfbfbf" points="176.5,-1054 247.5,-1054 "/>
<text text-anchor="middle" x="212" y="-1042" font-family="SegoeUI" font-size="10.00"> </text>
<polyline fill="none" stroke="#bfbfbf" points="176.5,-1035 247.5,-1035 "/>
<text text-anchor="middle" x="212" y="-1023" font-family="SegoeUI" font-size="10.00"> </text>
</a>
</g>
</g>
<!-- Node15&#45;&gt;Node13 -->
<g id="edge4" class="edge"><title>Node15&#45;&gt;Node13</title>
<path fill="none" stroke="midnightblue" d="M229.292,-1006.31C256.055,-948.75 308.959,-834.969 352.423,-741.49"/>
<polygon fill="none" stroke="midnightblue" points="225.959,-1005.18 224.916,-1015.72 232.306,-1008.13 225.959,-1005.18"/>
</g>
<!-- Node16 -->
<g id="node6" class="node"><title>Node16</title>
<g id="a_node6"><a xlink:title=" ">
<polygon fill="white" stroke="#bfbfbf" points="265.5,-1016 265.5,-1073 432.5,-1073 432.5,-1016 265.5,-1016"/>
<text text-anchor="middle" x="349" y="-1061" font-family="SegoeUI" font-size="10.00">IComparable&lt; AbstractResponse &gt;</text>
<polyline fill="none" stroke="#bfbfbf" points="265.5,-1054 432.5,-1054 "/>
<text text-anchor="middle" x="349" y="-1042" font-family="SegoeUI" font-size="10.00"> </text>
<polyline fill="none" stroke="#bfbfbf" points="265.5,-1035 432.5,-1035 "/>
<text text-anchor="middle" x="349" y="-1023" font-family="SegoeUI" font-size="10.00"> </text>
</a>
</g>
</g>
<!-- Node16&#45;&gt;Node13 -->
<g id="edge5" class="edge"><title>Node16&#45;&gt;Node13</title>
<path fill="none" stroke="midnightblue" d="M355.064,-1005.64C359.732,-976.497 366.663,-933.23 374.3,-885.551"/>
<polygon fill="none" stroke="midnightblue" points="351.575,-1005.29 353.45,-1015.72 358.487,-1006.4 351.575,-1005.29"/>
</g>
<!-- Node17 -->
<g id="node7" class="node"><title>Node17</title>
<g id="a_node7"><a xlink:href="../../d4/d74/interface_juniper_1_1_h_t_t_p_1_1_server_1_1_i_request_handler.html" target="_top" xlink:title=" ">
<polygon fill="white" stroke="black" points="450.5,-977.5 450.5,-1111.5 537.5,-1111.5 537.5,-977.5 450.5,-977.5"/>
<text text-anchor="middle" x="494" y="-1099.5" font-family="SegoeUI" font-size="10.00">IRequestHandler</text>
<polyline fill="none" stroke="black" points="450.5,-1092.5 537.5,-1092.5 "/>
<text text-anchor="start" x="458.5" y="-1080.5" font-family="SegoeUI" font-size="10.00">+ Priority</text>
<text text-anchor="start" x="458.5" y="-1069.5" font-family="SegoeUI" font-size="10.00">+ Protocols</text>
<text text-anchor="start" x="458.5" y="-1058.5" font-family="SegoeUI" font-size="10.00">+ Methods</text>
<text text-anchor="start" x="458.5" y="-1047.5" font-family="SegoeUI" font-size="10.00">+ Pattern</text>
<text text-anchor="start" x="458.5" y="-1036.5" font-family="SegoeUI" font-size="10.00">+ Authentication</text>
<text text-anchor="start" x="458.5" y="-1025.5" font-family="SegoeUI" font-size="10.00">+ Accept</text>
<text text-anchor="start" x="458.5" y="-1014.5" font-family="SegoeUI" font-size="10.00">+ StatusCodes</text>
<text text-anchor="start" x="458.5" y="-1003.5" font-family="SegoeUI" font-size="10.00">+ Headers</text>
<polyline fill="none" stroke="black" points="450.5,-996.5 537.5,-996.5 "/>
<text text-anchor="middle" x="494" y="-984.5" font-family="SegoeUI" font-size="10.00"> </text>
</a>
</g>
</g>
<!-- Node17&#45;&gt;Node13 -->
<g id="edge6" class="edge"><title>Node17&#45;&gt;Node13</title>
<path fill="none" stroke="midnightblue" d="M481.61,-967.207C477.736,-943.356 473.207,-915.469 468.401,-885.872"/>
<polygon fill="none" stroke="midnightblue" points="478.171,-967.865 483.229,-977.175 485.08,-966.743 478.171,-967.865"/>
</g>
<!-- Node18 -->
<g id="node8" class="node"><title>Node18</title>
<g id="a_node8"><a xlink:href="../../df/d21/interface_juniper_1_1_logging_1_1_i_logging_source.html" target="_top" xlink:title=" ">
<polygon fill="white" stroke="black" points="555.5,-1016 555.5,-1073 638.5,-1073 638.5,-1016 555.5,-1016"/>
<text text-anchor="middle" x="597" y="-1061" font-family="SegoeUI" font-size="10.00">ILoggingSource</text>
<polyline fill="none" stroke="black" points="555.5,-1054 638.5,-1054 "/>
<text text-anchor="middle" x="597" y="-1042" font-family="SegoeUI" font-size="10.00"> </text>
<polyline fill="none" stroke="black" points="555.5,-1035 638.5,-1035 "/>
<text text-anchor="middle" x="597" y="-1023" font-family="SegoeUI" font-size="10.00"> </text>
</a>
</g>
</g>
<!-- Node18&#45;&gt;Node13 -->
<g id="edge7" class="edge"><title>Node18&#45;&gt;Node13</title>
<path fill="none" stroke="midnightblue" d="M582.417,-1006.25C562.06,-954.265 523.776,-856.488 489.6,-769.203"/>
<polygon fill="none" stroke="midnightblue" points="579.218,-1007.69 586.123,-1015.72 585.736,-1005.13 579.218,-1007.69"/>
</g>
<!-- Node19 -->
<g id="node9" class="node"><title>Node19</title>
<g id="a_node9"><a xlink:href="../../de/dad/interface_juniper_1_1_logging_1_1_i_info_source.html" target="_top" xlink:title=" ">
<polygon fill="white" stroke="black" points="470,-1149.5 470,-1206.5 536,-1206.5 536,-1149.5 470,-1149.5"/>
<text text-anchor="middle" x="503" y="-1194.5" font-family="SegoeUI" font-size="10.00">IInfoSource</text>
<polyline fill="none" stroke="black" points="470,-1187.5 536,-1187.5 "/>
<text text-anchor="middle" x="503" y="-1175.5" font-family="SegoeUI" font-size="10.00"> </text>
<polyline fill="none" stroke="black" points="470,-1168.5 536,-1168.5 "/>
<text text-anchor="middle" x="503" y="-1156.5" font-family="SegoeUI" font-size="10.00"> </text>
</a>
</g>
</g>
<!-- Node19&#45;&gt;Node18 -->
<g id="edge8" class="edge"><title>Node19&#45;&gt;Node18</title>
<path fill="none" stroke="midnightblue" d="M528.592,-1141.2C543.941,-1119.73 563.164,-1092.83 577.32,-1073.03"/>
<polygon fill="none" stroke="midnightblue" points="525.673,-1139.26 522.705,-1149.43 531.368,-1143.33 525.673,-1139.26"/>
</g>
<!-- Node20 -->
<g id="node10" class="node"><title>Node20</title>
<g id="a_node10"><a xlink:href="../../d6/d23/interface_juniper_1_1_logging_1_1_i_warning_source.html" target="_top" xlink:title=" ">
<polygon fill="white" stroke="black" points="554,-1149.5 554,-1206.5 640,-1206.5 640,-1149.5 554,-1149.5"/>
<text text-anchor="middle" x="597" y="-1194.5" font-family="SegoeUI" font-size="10.00">IWarningSource</text>
<polyline fill="none" stroke="black" points="554,-1187.5 640,-1187.5 "/>
<text text-anchor="middle" x="597" y="-1175.5" font-family="SegoeUI" font-size="10.00"> </text>
<polyline fill="none" stroke="black" points="554,-1168.5 640,-1168.5 "/>
<text text-anchor="middle" x="597" y="-1156.5" font-family="SegoeUI" font-size="10.00"> </text>
</a>
</g>
</g>
<!-- Node20&#45;&gt;Node18 -->
<g id="edge9" class="edge"><title>Node20&#45;&gt;Node18</title>
<path fill="none" stroke="midnightblue" d="M597,-1139.19C597,-1118.07 597,-1092.22 597,-1073.03"/>
<polygon fill="none" stroke="midnightblue" points="593.5,-1139.43 597,-1149.43 600.5,-1139.43 593.5,-1139.43"/>
</g>
<!-- Node21 -->
<g id="node11" class="node"><title>Node21</title>
<g id="a_node11"><a xlink:href="../../d4/d12/interface_juniper_1_1_logging_1_1_i_error_source.html" target="_top" xlink:title=" ">
<polygon fill="white" stroke="black" points="658.5,-1149.5 658.5,-1206.5 729.5,-1206.5 729.5,-1149.5 658.5,-1149.5"/>
<text text-anchor="middle" x="694" y="-1194.5" font-family="SegoeUI" font-size="10.00">IErrorSource</text>
<polyline fill="none" stroke="black" points="658.5,-1187.5 729.5,-1187.5 "/>
<text text-anchor="middle" x="694" y="-1175.5" font-family="SegoeUI" font-size="10.00"> </text>
<polyline fill="none" stroke="black" points="658.5,-1168.5 729.5,-1168.5 "/>
<text text-anchor="middle" x="694" y="-1156.5" font-family="SegoeUI" font-size="10.00"> </text>
</a>
</g>
</g>
<!-- Node21&#45;&gt;Node18 -->
<g id="edge10" class="edge"><title>Node21&#45;&gt;Node18</title>
<path fill="none" stroke="midnightblue" d="M667.591,-1141.2C651.752,-1119.73 631.916,-1092.83 617.308,-1073.03"/>
<polygon fill="none" stroke="midnightblue" points="664.913,-1143.46 673.666,-1149.43 670.546,-1139.31 664.913,-1143.46"/>
</g>
<!-- Node22 -->
<g id="node12" class="node"><title>Node22</title>
<g id="a_node12"><a xlink:title=" ">
<polygon fill="white" stroke="#bfbfbf" points="656.5,-1016 656.5,-1073 695.5,-1073 695.5,-1016 656.5,-1016"/>
<text text-anchor="middle" x="676" y="-1061" font-family="SegoeUI" font-size="10.00">static</text>
<polyline fill="none" stroke="#bfbfbf" points="656.5,-1054 695.5,-1054 "/>
<text text-anchor="middle" x="676" y="-1042" font-family="SegoeUI" font-size="10.00"> </text>
<polyline fill="none" stroke="#bfbfbf" points="656.5,-1035 695.5,-1035 "/>
<text text-anchor="middle" x="676" y="-1023" font-family="SegoeUI" font-size="10.00"> </text>
</a>
</g>
</g>
<!-- Node22&#45;&gt;Node13 -->
<g id="edge11" class="edge"><title>Node22&#45;&gt;Node13</title>
<path fill="none" stroke="#404040" d="M664.885,-1015.97C659.769,-1003.86 653.416,-989.563 647,-977 600.635,-886.211 541.976,-787.187 496.039,-712.576"/>
<polygon fill="none" stroke="#404040" points="495.946,-712.425 489.391,-709.42 489.644,-702.213 496.199,-705.219 495.946,-712.425"/>
<text text-anchor="middle" x="673.5" y="-951" font-family="SegoeUI" font-size="10.00"> +AllRoutes</text>
<text text-anchor="middle" x="673.5" y="-940" font-family="SegoeUI" font-size="10.00">+AllStatusCodes</text>
<text text-anchor="middle" x="673.5" y="-929" font-family="SegoeUI" font-size="10.00">+DefaultCode</text>
<text text-anchor="middle" x="673.5" y="-918" font-family="SegoeUI" font-size="10.00">+NoHeaders</text>
<text text-anchor="middle" x="673.5" y="-907" font-family="SegoeUI" font-size="10.00">+AnyMediaTypes</text>
</g>
</g>
</svg>
