<?xml version="1.0" encoding="UTF-8" standalone="no"?>
<!DOCTYPE svg PUBLIC "-//W3C//DTD SVG 1.1//EN"
 "http://www.w3.org/Graphics/SVG/1.1/DTD/svg11.dtd">
<!-- Generated by graphviz version 2.38.0 (20140413.2041)
 -->
<!-- Title: Juniper.Animation.AbstractAnimator Pages: 1 -->
<svg width="139pt" height="204pt"
 viewBox="0.00 0.00 139.00 204.00" xmlns="http://www.w3.org/2000/svg" xmlns:xlink="http://www.w3.org/1999/xlink">
<g id="graph0" class="graph" transform="scale(1 1) rotate(0) translate(4 200)">
<title>Juniper.Animation.AbstractAnimator</title>
<polygon fill="white" stroke="none" points="-4,4 -4,-200 135,-200 135,4 -4,4"/>
<!-- Node4 -->
<g id="node1" class="node"><title>Node4</title>
<g id="a_node1"><a xlink:title="An abstraction layer over different ways of showing UI state. Only one such component is allowed on a...">
<polygon fill="#bfbfbf" stroke="black" points="0,-0.5 0,-101.5 131,-101.5 131,-0.5 0,-0.5"/>
<text text-anchor="start" x="8" y="-89.5" font-family="SegoeUI" font-size="10.00">Juniper.Animation.Abstract</text>
<text text-anchor="middle" x="65.5" y="-78.5" font-family="SegoeUI" font-size="10.00">Animator</text>
<polyline fill="none" stroke="black" points="0,-71.5 131,-71.5 "/>
<text text-anchor="middle" x="65.5" y="-59.5" font-family="SegoeUI" font-size="10.00"> </text>
<polyline fill="none" stroke="black" points="0,-52.5 131,-52.5 "/>
<text text-anchor="start" x="8" y="-40.5" font-family="SegoeUI" font-size="10.00">+ PlayCoroutine()</text>
<text text-anchor="start" x="8" y="-29.5" font-family="SegoeUI" font-size="10.00">+ Play()</text>
<text text-anchor="start" x="8" y="-18.5" font-family="SegoeUI" font-size="10.00">+ HasState()</text>
<text text-anchor="start" x="8" y="-7.5" font-family="SegoeUI" font-size="10.00">+ GetAnimator()</text>
</a>
</g>
</g>
<!-- Node5 -->
<g id="node2" class="node"><title>Node5</title>
<g id="a_node2"><a xlink:title=" ">
<polygon fill="white" stroke="#bfbfbf" points="24.5,-138.5 24.5,-195.5 106.5,-195.5 106.5,-138.5 24.5,-138.5"/>
<text text-anchor="middle" x="65.5" y="-183.5" font-family="SegoeUI" font-size="10.00">MonoBehaviour</text>
<polyline fill="none" stroke="#bfbfbf" points="24.5,-176.5 106.5,-176.5 "/>
<text text-anchor="middle" x="65.5" y="-164.5" font-family="SegoeUI" font-size="10.00"> </text>
<polyline fill="none" stroke="#bfbfbf" points="24.5,-157.5 106.5,-157.5 "/>
<text text-anchor="middle" x="65.5" y="-145.5" font-family="SegoeUI" font-size="10.00"> </text>
</a>
</g>
</g>
<!-- Node5&#45;&gt;Node4 -->
<g id="edge1" class="edge"><title>Node5&#45;&gt;Node4</title>
<path fill="none" stroke="midnightblue" d="M65.5,-128.354C65.5,-119.796 65.5,-110.578 65.5,-101.608"/>
<polygon fill="none" stroke="midnightblue" points="62.0001,-128.404 65.5,-138.404 69.0001,-128.404 62.0001,-128.404"/>
</g>
</g>
</svg>
