<?xml version="1.0" encoding="UTF-8" standalone="no"?>
<!DOCTYPE svg PUBLIC "-//W3C//DTD SVG 1.1//EN"
 "http://www.w3.org/Graphics/SVG/1.1/DTD/svg11.dtd">
<!-- Generated by graphviz version 2.38.0 (20140413.2041)
 -->
<!-- Title: Juniper.ConfigurationManagement.JuniperCompilerDefineManager Pages: 1 -->
<svg width="174pt" height="248pt"
 viewBox="0.00 0.00 174.00 248.00" xmlns="http://www.w3.org/2000/svg" xmlns:xlink="http://www.w3.org/1999/xlink">
<g id="graph0" class="graph" transform="scale(1 1) rotate(0) translate(4 244)">
<title>Juniper.ConfigurationManagement.JuniperCompilerDefineManager</title>
<polygon fill="white" stroke="none" points="-4,4 -4,-244 170,-244 170,4 -4,4"/>
<!-- Node0 -->
<g id="node1" class="node"><title>Node0</title>
<g id="a_node1"><a xlink:title="An editor to respond to changes in XRSystem.">
<polygon fill="#bfbfbf" stroke="black" points="0,-0.5 0,-145.5 166,-145.5 166,-0.5 0,-0.5"/>
<text text-anchor="start" x="8" y="-133.5" font-family="SegoeUI" font-size="10.00">Juniper.ConfigurationManagement.</text>
<text text-anchor="middle" x="83" y="-122.5" font-family="SegoeUI" font-size="10.00">JuniperCompilerDefineManager</text>
<polyline fill="none" stroke="black" points="0,-115.5 166,-115.5 "/>
<text text-anchor="start" x="8" y="-103.5" font-family="SegoeUI" font-size="10.00">&#45; MENU_NAME</text>
<text text-anchor="start" x="8" y="-92.5" font-family="SegoeUI" font-size="10.00">&#45; narrowWidthValue</text>
<text text-anchor="start" x="8" y="-81.5" font-family="SegoeUI" font-size="10.00">&#45; TITLE</text>
<text text-anchor="start" x="8" y="-70.5" font-family="SegoeUI" font-size="10.00">&#45; newDefine</text>
<text text-anchor="start" x="8" y="-59.5" font-family="SegoeUI" font-size="10.00">&#45; narrowWidth</text>
<text text-anchor="start" x="8" y="-48.5" font-family="SegoeUI" font-size="10.00">&#45; buttonWidth</text>
<text text-anchor="start" x="8" y="-37.5" font-family="SegoeUI" font-size="10.00">&#45; definesTable</text>
<polyline fill="none" stroke="black" points="0,-30.5 166,-30.5 "/>
<text text-anchor="start" x="8" y="-18.5" font-family="SegoeUI" font-size="10.00">+ OnGUI()</text>
<text text-anchor="start" x="8" y="-7.5" font-family="SegoeUI" font-size="10.00">+ ShowJuniperWindow()</text>
</a>
</g>
</g>
<!-- Node1 -->
<g id="node2" class="node"><title>Node1</title>
<g id="a_node2"><a xlink:title=" ">
<polygon fill="white" stroke="#bfbfbf" points="45,-182.5 45,-239.5 121,-239.5 121,-182.5 45,-182.5"/>
<text text-anchor="middle" x="83" y="-227.5" font-family="SegoeUI" font-size="10.00">EditorWindow</text>
<polyline fill="none" stroke="#bfbfbf" points="45,-220.5 121,-220.5 "/>
<text text-anchor="middle" x="83" y="-208.5" font-family="SegoeUI" font-size="10.00"> </text>
<polyline fill="none" stroke="#bfbfbf" points="45,-201.5 121,-201.5 "/>
<text text-anchor="middle" x="83" y="-189.5" font-family="SegoeUI" font-size="10.00"> </text>
</a>
</g>
</g>
<!-- Node1&#45;&gt;Node0 -->
<g id="edge1" class="edge"><title>Node1&#45;&gt;Node0</title>
<path fill="none" stroke="midnightblue" d="M83,-172.356C83,-163.999 83,-154.872 83,-145.656"/>
<polygon fill="none" stroke="midnightblue" points="79.5001,-172.478 83,-182.478 86.5001,-172.478 79.5001,-172.478"/>
</g>
</g>
</svg>
