<?xml version="1.0" encoding="UTF-8" standalone="no"?>
<!DOCTYPE svg PUBLIC "-//W3C//DTD SVG 1.1//EN"
 "http://www.w3.org/Graphics/SVG/1.1/DTD/svg11.dtd">
<!-- Generated by graphviz version 2.38.0 (20140413.2041)
 -->
<!-- Title: Juniper.Events.TriggeredEvent Pages: 1 -->
<svg width="131pt" height="193pt"
 viewBox="0.00 0.00 131.00 193.00" xmlns="http://www.w3.org/2000/svg" xmlns:xlink="http://www.w3.org/1999/xlink">
<g id="graph0" class="graph" transform="scale(1 1) rotate(0) translate(4 189)">
<title>Juniper.Events.TriggeredEvent</title>
<polygon fill="white" stroke="none" points="-4,4 -4,-189 127,-189 127,4 -4,4"/>
<!-- Node0 -->
<g id="node1" class="node"><title>Node0</title>
<g id="a_node1"><a xlink:title="A component that can be used to trigger events after an object hits a collider. Useful for detecting ...">
<polygon fill="#bfbfbf" stroke="black" points="0,-0.5 0,-90.5 123,-90.5 123,-0.5 0,-0.5"/>
<text text-anchor="start" x="8" y="-78.5" font-family="SegoeUI" font-size="10.00">Juniper.Events.Triggered</text>
<text text-anchor="middle" x="61.5" y="-67.5" font-family="SegoeUI" font-size="10.00">Event</text>
<polyline fill="none" stroke="black" points="0,-60.5 123,-60.5 "/>
<text text-anchor="start" x="8" y="-48.5" font-family="SegoeUI" font-size="10.00">+ onEnter</text>
<text text-anchor="start" x="8" y="-37.5" font-family="SegoeUI" font-size="10.00">+ onExit</text>
<polyline fill="none" stroke="black" points="0,-30.5 123,-30.5 "/>
<text text-anchor="start" x="8" y="-18.5" font-family="SegoeUI" font-size="10.00">+ OnTriggerEnter()</text>
<text text-anchor="start" x="8" y="-7.5" font-family="SegoeUI" font-size="10.00">+ OnTriggerExit()</text>
</a>
</g>
</g>
<!-- Node1 -->
<g id="node2" class="node"><title>Node1</title>
<g id="a_node2"><a xlink:title=" ">
<polygon fill="white" stroke="#bfbfbf" points="20.5,-127.5 20.5,-184.5 102.5,-184.5 102.5,-127.5 20.5,-127.5"/>
<text text-anchor="middle" x="61.5" y="-172.5" font-family="SegoeUI" font-size="10.00">MonoBehaviour</text>
<polyline fill="none" stroke="#bfbfbf" points="20.5,-165.5 102.5,-165.5 "/>
<text text-anchor="middle" x="61.5" y="-153.5" font-family="SegoeUI" font-size="10.00"> </text>
<polyline fill="none" stroke="#bfbfbf" points="20.5,-146.5 102.5,-146.5 "/>
<text text-anchor="middle" x="61.5" y="-134.5" font-family="SegoeUI" font-size="10.00"> </text>
</a>
</g>
</g>
<!-- Node1&#45;&gt;Node0 -->
<g id="edge1" class="edge"><title>Node1&#45;&gt;Node0</title>
<path fill="none" stroke="midnightblue" d="M61.5,-117.214C61.5,-108.609 61.5,-99.3943 61.5,-90.5541"/>
<polygon fill="none" stroke="midnightblue" points="58.0001,-117.34 61.5,-127.34 65.0001,-117.34 58.0001,-117.34"/>
</g>
</g>
</svg>
