<?xml version="1.0" encoding="UTF-8" standalone="no"?>
<!DOCTYPE svg PUBLIC "-//W3C//DTD SVG 1.1//EN"
 "http://www.w3.org/Graphics/SVG/1.1/DTD/svg11.dtd">
<!-- Generated by graphviz version 2.38.0 (20140413.2041)
 -->
<!-- Title: Juniper.Unity.Input.Pointers.PointerDataCreator Pages: 1 -->
<svg width="160pt" height="182pt"
 viewBox="0.00 0.00 160.00 182.00" xmlns="http://www.w3.org/2000/svg" xmlns:xlink="http://www.w3.org/1999/xlink">
<g id="graph0" class="graph" transform="scale(1 1) rotate(0) translate(4 178)">
<title>Juniper.Unity.Input.Pointers.PointerDataCreator</title>
<polygon fill="white" stroke="none" points="-4,4 -4,-178 156,-178 156,4 -4,4"/>
<!-- Node35 -->
<g id="node1" class="node"><title>Node35</title>
<g id="a_node1"><a xlink:title=" ">
<polygon fill="#bfbfbf" stroke="black" points="11.5,-0.5 11.5,-68.5 148.5,-68.5 148.5,-0.5 11.5,-0.5"/>
<text text-anchor="start" x="19.5" y="-56.5" font-family="SegoeUI" font-size="10.00">Juniper.Unity.Input.Pointers.</text>
<text text-anchor="middle" x="80" y="-45.5" font-family="SegoeUI" font-size="10.00">PointerDataCreator</text>
<polyline fill="none" stroke="black" points="11.5,-38.5 148.5,-38.5 "/>
<text text-anchor="start" x="19.5" y="-26.5" font-family="SegoeUI" font-size="10.00">+ PointerDataID</text>
<polyline fill="none" stroke="black" points="11.5,-19.5 148.5,-19.5 "/>
<text text-anchor="start" x="19.5" y="-7.5" font-family="SegoeUI" font-size="10.00">+ Awake()</text>
</a>
</g>
</g>
<!-- Node36 -->
<g id="node2" class="node"><title>Node36</title>
<g id="a_node2"><a xlink:title=" ">
<polygon fill="white" stroke="#bfbfbf" points="0,-116.5 0,-173.5 82,-173.5 82,-116.5 0,-116.5"/>
<text text-anchor="middle" x="41" y="-161.5" font-family="SegoeUI" font-size="10.00">MonoBehaviour</text>
<polyline fill="none" stroke="#bfbfbf" points="0,-154.5 82,-154.5 "/>
<text text-anchor="middle" x="41" y="-142.5" font-family="SegoeUI" font-size="10.00"> </text>
<polyline fill="none" stroke="#bfbfbf" points="0,-135.5 82,-135.5 "/>
<text text-anchor="middle" x="41" y="-123.5" font-family="SegoeUI" font-size="10.00"> </text>
</a>
</g>
</g>
<!-- Node36&#45;&gt;Node35 -->
<g id="edge1" class="edge"><title>Node36&#45;&gt;Node35</title>
<path fill="none" stroke="midnightblue" d="M54.398,-106.726C58.8593,-94.3144 63.7945,-80.5846 68.1316,-68.5186"/>
<polygon fill="none" stroke="midnightblue" points="51.0312,-105.746 50.9423,-116.34 57.6186,-108.114 51.0312,-105.746"/>
</g>
<!-- Node37 -->
<g id="node3" class="node"><title>Node37</title>
<g id="a_node3"><a xlink:title=" ">
<polygon fill="white" stroke="#bfbfbf" points="100.5,-116.5 100.5,-173.5 139.5,-173.5 139.5,-116.5 100.5,-116.5"/>
<text text-anchor="middle" x="120" y="-161.5" font-family="SegoeUI" font-size="10.00">static</text>
<polyline fill="none" stroke="#bfbfbf" points="100.5,-154.5 139.5,-154.5 "/>
<text text-anchor="middle" x="120" y="-142.5" font-family="SegoeUI" font-size="10.00"> </text>
<polyline fill="none" stroke="#bfbfbf" points="100.5,-135.5 139.5,-135.5 "/>
<text text-anchor="middle" x="120" y="-123.5" font-family="SegoeUI" font-size="10.00"> </text>
</a>
</g>
</g>
<!-- Node37&#45;&gt;Node35 -->
<g id="edge2" class="edge"><title>Node37&#45;&gt;Node35</title>
<path fill="none" stroke="#404040" d="M109.803,-116.34C105.733,-105.302 100.945,-92.3121 96.4103,-80.0129"/>
<polygon fill="none" stroke="#404040" points="96.3237,-79.7778 90.4951,-75.5318 92.1727,-68.5186 98.0013,-72.7645 96.3237,-79.7778"/>
<text text-anchor="middle" x="127.5" y="-90" font-family="SegoeUI" font-size="10.00"> &#45;COUNTER</text>
</g>
</g>
</svg>
