<?xml version="1.0" encoding="UTF-8" standalone="no"?>
<!DOCTYPE svg PUBLIC "-//W3C//DTD SVG 1.1//EN"
 "http://www.w3.org/Graphics/SVG/1.1/DTD/svg11.dtd">
<!-- Generated by graphviz version 2.38.0 (20140413.2041)
 -->
<!-- Title: Juniper.IO.IJsonFactory&lt; T &gt; Pages: 1 -->
<svg width="472pt" height="648pt"
 viewBox="0.00 0.00 472.00 648.00" xmlns="http://www.w3.org/2000/svg" xmlns:xlink="http://www.w3.org/1999/xlink">
<g id="graph0" class="graph" transform="scale(1 1) rotate(0) translate(4 644)">
<title>Juniper.IO.IJsonFactory&lt; T &gt;</title>
<polygon fill="white" stroke="none" points="-4,4 -4,-644 468,-644 468,4 -4,4"/>
<!-- Node0 -->
<g id="node1" class="node"><title>Node0</title>
<g id="a_node1"><a xlink:title=" ">
<polygon fill="#bfbfbf" stroke="black" points="156,-160.5 156,-217.5 298,-217.5 298,-160.5 156,-160.5"/>
<text text-anchor="middle" x="227" y="-205.5" font-family="SegoeUI" font-size="10.00">Juniper.IO.IJsonFactory&lt; T &gt;</text>
<polyline fill="none" stroke="black" points="156,-198.5 298,-198.5 "/>
<text text-anchor="middle" x="227" y="-186.5" font-family="SegoeUI" font-size="10.00"> </text>
<polyline fill="none" stroke="black" points="156,-179.5 298,-179.5 "/>
<text text-anchor="middle" x="227" y="-167.5" font-family="SegoeUI" font-size="10.00"> </text>
</a>
</g>
</g>
<!-- Node9 -->
<g id="node10" class="node"><title>Node9</title>
<g id="a_node10"><a xlink:href="../../d6/ddd/class_juniper_1_1_i_o_1_1_json_factory.html" target="_top" xlink:title=" ">
<polygon fill="white" stroke="black" points="0,-0.5 0,-112.5 148,-112.5 148,-0.5 0,-0.5"/>
<text text-anchor="middle" x="74" y="-100.5" font-family="SegoeUI" font-size="10.00">Juniper::IO::JsonFactory&lt; T &gt;</text>
<polyline fill="none" stroke="black" points="0,-93.5 148,-93.5 "/>
<text text-anchor="start" x="8" y="-81.5" font-family="SegoeUI" font-size="10.00">+ ContentType</text>
<polyline fill="none" stroke="black" points="0,-74.5 148,-74.5 "/>
<text text-anchor="start" x="8" y="-62.5" font-family="SegoeUI" font-size="10.00">+ JsonFactory()</text>
<text text-anchor="start" x="8" y="-51.5" font-family="SegoeUI" font-size="10.00">+ JsonFactory()</text>
<text text-anchor="start" x="8" y="-40.5" font-family="SegoeUI" font-size="10.00">+ Deserialize()</text>
<text text-anchor="start" x="8" y="-29.5" font-family="SegoeUI" font-size="10.00">+ Serialize()</text>
<text text-anchor="start" x="8" y="-18.5" font-family="SegoeUI" font-size="10.00">+ Serialize()</text>
<text text-anchor="start" x="8" y="-7.5" font-family="SegoeUI" font-size="10.00">+ Serialize()</text>
</a>
</g>
</g>
<!-- Node0&#45;&gt;Node9 -->
<g id="edge9" class="edge"><title>Node0&#45;&gt;Node9</title>
<path fill="none" stroke="midnightblue" d="M186.627,-153.564C171.897,-141 154.846,-126.457 138.539,-112.548"/>
<polygon fill="none" stroke="midnightblue" points="184.673,-156.498 194.553,-160.324 189.216,-151.172 184.673,-156.498"/>
</g>
<!-- Node10 -->
<g id="node11" class="node"><title>Node10</title>
<g id="a_node11"><a xlink:href="../../d2/d6a/interface_juniper_1_1_i_o_1_1_i_json_factory.html" target="_top" xlink:title=" ">
<polygon fill="white" stroke="black" points="166,-22.5 166,-90.5 288,-90.5 288,-22.5 166,-22.5"/>
<text text-anchor="start" x="174" y="-78.5" font-family="SegoeUI" font-size="10.00">Juniper.IO.IJsonFactory</text>
<text text-anchor="middle" x="227" y="-67.5" font-family="SegoeUI" font-size="10.00">&lt; GeocodingResponse &gt;</text>
<polyline fill="none" stroke="black" points="166,-60.5 288,-60.5 "/>
<text text-anchor="middle" x="227" y="-48.5" font-family="SegoeUI" font-size="10.00"> </text>
<polyline fill="none" stroke="black" points="166,-41.5 288,-41.5 "/>
<text text-anchor="middle" x="227" y="-29.5" font-family="SegoeUI" font-size="10.00"> </text>
</a>
</g>
</g>
<!-- Node0&#45;&gt;Node10 -->
<g id="edge10" class="edge"><title>Node0&#45;&gt;Node10</title>
<path fill="none" stroke="orange" d="M227,-150.295C227,-131.454 227,-108.86 227,-90.6838"/>
<polygon fill="orange" stroke="orange" points="223.5,-150.324 227,-160.324 230.5,-150.324 223.5,-150.324"/>
<text text-anchor="middle" x="281.5" y="-134" font-family="SegoeUI" font-size="10.00"> &lt; GeocodingResponse &gt;</text>
</g>
<!-- Node11 -->
<g id="node12" class="node"><title>Node11</title>
<g id="a_node12"><a xlink:href="../../d2/d6a/interface_juniper_1_1_i_o_1_1_i_json_factory.html" target="_top" xlink:title=" ">
<polygon fill="white" stroke="black" points="306,-22.5 306,-90.5 422,-90.5 422,-22.5 306,-22.5"/>
<text text-anchor="start" x="314" y="-78.5" font-family="SegoeUI" font-size="10.00">Juniper.IO.IJsonFactory</text>
<text text-anchor="middle" x="364" y="-67.5" font-family="SegoeUI" font-size="10.00">&lt; MetadataTypeT &gt;</text>
<polyline fill="none" stroke="black" points="306,-60.5 422,-60.5 "/>
<text text-anchor="middle" x="364" y="-48.5" font-family="SegoeUI" font-size="10.00"> </text>
<polyline fill="none" stroke="black" points="306,-41.5 422,-41.5 "/>
<text text-anchor="middle" x="364" y="-29.5" font-family="SegoeUI" font-size="10.00"> </text>
</a>
</g>
</g>
<!-- Node0&#45;&gt;Node11 -->
<g id="edge11" class="edge"><title>Node0&#45;&gt;Node11</title>
<path fill="none" stroke="orange" d="M307.454,-166.038C319.605,-159.86 331.047,-151.995 340,-142 352.516,-128.028 358.545,-107.975 361.432,-90.9106"/>
<polygon fill="orange" stroke="orange" points="305.625,-163.029 298.053,-170.44 308.594,-169.368 305.625,-163.029"/>
<text text-anchor="middle" x="393" y="-134" font-family="SegoeUI" font-size="10.00"> &lt; MetadataTypeT &gt;</text>
</g>
<!-- Node1 -->
<g id="node2" class="node"><title>Node1</title>
<g id="a_node2"><a xlink:href="../../da/df2/interface_juniper_1_1_i_o_1_1_i_factory.html" target="_top" xlink:title=" ">
<polygon fill="white" stroke="black" points="137.5,-255.5 137.5,-312.5 316.5,-312.5 316.5,-255.5 137.5,-255.5"/>
<text text-anchor="middle" x="227" y="-300.5" font-family="SegoeUI" font-size="10.00">IFactory&lt; T, MediaType.Application &gt;</text>
<polyline fill="none" stroke="black" points="137.5,-293.5 316.5,-293.5 "/>
<text text-anchor="middle" x="227" y="-281.5" font-family="SegoeUI" font-size="10.00"> </text>
<polyline fill="none" stroke="black" points="137.5,-274.5 316.5,-274.5 "/>
<text text-anchor="middle" x="227" y="-262.5" font-family="SegoeUI" font-size="10.00"> </text>
</a>
</g>
</g>
<!-- Node1&#45;&gt;Node0 -->
<g id="edge1" class="edge"><title>Node1&#45;&gt;Node0</title>
<path fill="none" stroke="midnightblue" d="M227,-245.235C227,-236.028 227,-226.346 227,-217.705"/>
<polygon fill="none" stroke="midnightblue" points="223.5,-245.349 227,-255.349 230.5,-245.349 223.5,-245.349"/>
</g>
<!-- Node2 -->
<g id="node3" class="node"><title>Node2</title>
<g id="a_node3"><a xlink:href="../../da/df2/interface_juniper_1_1_i_o_1_1_i_factory.html" target="_top" xlink:title=" ">
<polygon fill="white" stroke="black" points="147,-360.5 147,-428.5 307,-428.5 307,-360.5 147,-360.5"/>
<text text-anchor="start" x="155" y="-416.5" font-family="SegoeUI" font-size="10.00">Juniper.IO.IFactory</text>
<text text-anchor="middle" x="227" y="-405.5" font-family="SegoeUI" font-size="10.00">&lt; ResultT, out out MediaTypeT &gt;</text>
<polyline fill="none" stroke="black" points="147,-398.5 307,-398.5 "/>
<text text-anchor="middle" x="227" y="-386.5" font-family="SegoeUI" font-size="10.00"> </text>
<polyline fill="none" stroke="black" points="147,-379.5 307,-379.5 "/>
<text text-anchor="middle" x="227" y="-367.5" font-family="SegoeUI" font-size="10.00"> </text>
</a>
</g>
</g>
<!-- Node2&#45;&gt;Node1 -->
<g id="edge2" class="edge"><title>Node2&#45;&gt;Node1</title>
<path fill="none" stroke="orange" d="M227,-350.064C227,-337.511 227,-324.152 227,-312.827"/>
<polygon fill="orange" stroke="orange" points="223.5,-350.357 227,-360.357 230.5,-350.357 223.5,-350.357"/>
<text text-anchor="middle" x="292.5" y="-334" font-family="SegoeUI" font-size="10.00"> &lt; T, MediaType.Application &gt;</text>
</g>
<!-- Node3 -->
<g id="node4" class="node"><title>Node3</title>
<g id="a_node4"><a xlink:href="../../de/d17/interface_juniper_1_1_i_o_1_1_i_serializer.html" target="_top" xlink:title=" ">
<polygon fill="white" stroke="black" points="36,-466.5 36,-523.5 148,-523.5 148,-466.5 36,-466.5"/>
<text text-anchor="middle" x="92" y="-511.5" font-family="SegoeUI" font-size="10.00">ISerializer&lt; ResultT &gt;</text>
<polyline fill="none" stroke="black" points="36,-504.5 148,-504.5 "/>
<text text-anchor="middle" x="92" y="-492.5" font-family="SegoeUI" font-size="10.00"> </text>
<polyline fill="none" stroke="black" points="36,-485.5 148,-485.5 "/>
<text text-anchor="start" x="44" y="-473.5" font-family="SegoeUI" font-size="10.00">+ Serialize()</text>
</a>
</g>
</g>
<!-- Node3&#45;&gt;Node2 -->
<g id="edge3" class="edge"><title>Node3&#45;&gt;Node2</title>
<path fill="none" stroke="midnightblue" d="M138.075,-460.383C152.158,-450.107 167.63,-438.818 181.664,-428.578"/>
<polygon fill="none" stroke="midnightblue" points="135.98,-457.579 129.964,-466.3 140.106,-463.233 135.98,-457.579"/>
</g>
<!-- Node4 -->
<g id="node5" class="node"><title>Node4</title>
<g id="a_node5"><a xlink:href="../../de/d17/interface_juniper_1_1_i_o_1_1_i_serializer.html" target="_top" xlink:title=" ">
<polygon fill="white" stroke="black" points="38.5,-571.5 38.5,-639.5 145.5,-639.5 145.5,-571.5 38.5,-571.5"/>
<text text-anchor="start" x="46.5" y="-627.5" font-family="SegoeUI" font-size="10.00">Juniper.IO.ISerializer</text>
<text text-anchor="middle" x="92" y="-616.5" font-family="SegoeUI" font-size="10.00">&lt; in in T &gt;</text>
<polyline fill="none" stroke="black" points="38.5,-609.5 145.5,-609.5 "/>
<text text-anchor="middle" x="92" y="-597.5" font-family="SegoeUI" font-size="10.00"> </text>
<polyline fill="none" stroke="black" points="38.5,-590.5 145.5,-590.5 "/>
<text text-anchor="start" x="46.5" y="-578.5" font-family="SegoeUI" font-size="10.00">+ Serialize()</text>
</a>
</g>
</g>
<!-- Node4&#45;&gt;Node3 -->
<g id="edge4" class="edge"><title>Node4&#45;&gt;Node3</title>
<path fill="none" stroke="orange" d="M92,-561.064C92,-548.511 92,-535.152 92,-523.827"/>
<polygon fill="orange" stroke="orange" points="88.5001,-561.357 92,-571.357 95.5001,-561.357 88.5001,-561.357"/>
<text text-anchor="middle" x="119.5" y="-545" font-family="SegoeUI" font-size="10.00"> &lt; ResultT &gt;</text>
</g>
<!-- Node5 -->
<g id="node6" class="node"><title>Node5</title>
<g id="a_node6"><a xlink:href="../../d1/d4d/interface_juniper_1_1_i_o_1_1_i_deserializer.html" target="_top" xlink:title=" ">
<polygon fill="white" stroke="black" points="166,-466.5 166,-523.5 288,-523.5 288,-466.5 166,-466.5"/>
<text text-anchor="middle" x="227" y="-511.5" font-family="SegoeUI" font-size="10.00">IDeserializer&lt; ResultT &gt;</text>
<polyline fill="none" stroke="black" points="166,-504.5 288,-504.5 "/>
<text text-anchor="middle" x="227" y="-492.5" font-family="SegoeUI" font-size="10.00"> </text>
<polyline fill="none" stroke="black" points="166,-485.5 288,-485.5 "/>
<text text-anchor="start" x="174" y="-473.5" font-family="SegoeUI" font-size="10.00">+ Deserialize()</text>
</a>
</g>
</g>
<!-- Node5&#45;&gt;Node2 -->
<g id="edge5" class="edge"><title>Node5&#45;&gt;Node2</title>
<path fill="none" stroke="midnightblue" d="M227,-456.007C227,-446.962 227,-437.383 227,-428.578"/>
<polygon fill="none" stroke="midnightblue" points="223.5,-456.3 227,-466.3 230.5,-456.3 223.5,-456.3"/>
</g>
<!-- Node6 -->
<g id="node7" class="node"><title>Node6</title>
<g id="a_node7"><a xlink:href="../../d1/d4d/interface_juniper_1_1_i_o_1_1_i_deserializer.html" target="_top" xlink:title=" ">
<polygon fill="white" stroke="black" points="169,-571.5 169,-639.5 285,-639.5 285,-571.5 169,-571.5"/>
<text text-anchor="start" x="177" y="-627.5" font-family="SegoeUI" font-size="10.00">Juniper.IO.IDeserializer</text>
<text text-anchor="middle" x="227" y="-616.5" font-family="SegoeUI" font-size="10.00">&lt; out out ResultT &gt;</text>
<polyline fill="none" stroke="black" points="169,-609.5 285,-609.5 "/>
<text text-anchor="middle" x="227" y="-597.5" font-family="SegoeUI" font-size="10.00"> </text>
<polyline fill="none" stroke="black" points="169,-590.5 285,-590.5 "/>
<text text-anchor="start" x="177" y="-578.5" font-family="SegoeUI" font-size="10.00">+ Deserialize()</text>
</a>
</g>
</g>
<!-- Node6&#45;&gt;Node5 -->
<g id="edge6" class="edge"><title>Node6&#45;&gt;Node5</title>
<path fill="none" stroke="orange" d="M227,-561.064C227,-548.511 227,-535.152 227,-523.827"/>
<polygon fill="orange" stroke="orange" points="223.5,-561.357 227,-571.357 230.5,-561.357 223.5,-561.357"/>
<text text-anchor="middle" x="254.5" y="-545" font-family="SegoeUI" font-size="10.00"> &lt; ResultT &gt;</text>
</g>
<!-- Node7 -->
<g id="node8" class="node"><title>Node7</title>
<g id="a_node8"><a xlink:href="../../da/d97/interface_juniper_1_1_i_o_1_1_i_content_handler.html" target="_top" xlink:title=" ">
<polygon fill="white" stroke="black" points="306,-466.5 306,-523.5 464,-523.5 464,-466.5 306,-466.5"/>
<text text-anchor="middle" x="385" y="-511.5" font-family="SegoeUI" font-size="10.00">IContentHandler&lt; MediaTypeT &gt;</text>
<polyline fill="none" stroke="black" points="306,-504.5 464,-504.5 "/>
<text text-anchor="middle" x="385" y="-492.5" font-family="SegoeUI" font-size="10.00"> </text>
<polyline fill="none" stroke="black" points="306,-485.5 464,-485.5 "/>
<text text-anchor="middle" x="385" y="-473.5" font-family="SegoeUI" font-size="10.00"> </text>
</a>
</g>
</g>
<!-- Node7&#45;&gt;Node2 -->
<g id="edge7" class="edge"><title>Node7&#45;&gt;Node2</title>
<path fill="none" stroke="midnightblue" d="M331.998,-460.958C315.27,-450.529 296.792,-439.009 280.06,-428.578"/>
<polygon fill="none" stroke="midnightblue" points="330.23,-463.98 340.568,-466.3 333.933,-458.04 330.23,-463.98"/>
</g>
<!-- Node8 -->
<g id="node9" class="node"><title>Node8</title>
<g id="a_node9"><a xlink:href="../../da/d97/interface_juniper_1_1_i_o_1_1_i_content_handler.html" target="_top" xlink:title=" ">
<polygon fill="white" stroke="black" points="319,-577 319,-634 451,-634 451,-577 319,-577"/>
<text text-anchor="middle" x="385" y="-622" font-family="SegoeUI" font-size="10.00">Juniper.IO.IContentHandler</text>
<polyline fill="none" stroke="black" points="319,-615 451,-615 "/>
<text text-anchor="middle" x="385" y="-603" font-family="SegoeUI" font-size="10.00"> </text>
<polyline fill="none" stroke="black" points="319,-596 451,-596 "/>
<text text-anchor="middle" x="385" y="-584" font-family="SegoeUI" font-size="10.00"> </text>
</a>
</g>
</g>
<!-- Node8&#45;&gt;Node7 -->
<g id="edge8" class="edge"><title>Node8&#45;&gt;Node7</title>
<path fill="none" stroke="orange" d="M385,-566.436C385,-552.327 385,-536.611 385,-523.609"/>
<polygon fill="orange" stroke="orange" points="381.5,-566.84 385,-576.84 388.5,-566.84 381.5,-566.84"/>
<text text-anchor="middle" x="423" y="-545" font-family="SegoeUI" font-size="10.00"> &lt; MediaTypeT &gt;</text>
</g>
</g>
</svg>
