<?xml version="1.0" encoding="UTF-8" standalone="no"?>
<!DOCTYPE svg PUBLIC "-//W3C//DTD SVG 1.1//EN"
 "http://www.w3.org/Graphics/SVG/1.1/DTD/svg11.dtd">
<!-- Generated by graphviz version 2.38.0 (20140413.2041)
 -->
<!-- Title: Juniper.Input.Pointers.ButtonMapper&lt; ButtonIDType &gt; Pages: 1 -->
<svg width="365pt" height="457pt"
 viewBox="0.00 0.00 365.00 457.00" xmlns="http://www.w3.org/2000/svg" xmlns:xlink="http://www.w3.org/1999/xlink">
<g id="graph0" class="graph" transform="scale(1 1) rotate(0) translate(4 453)">
<title>Juniper.Input.Pointers.ButtonMapper&lt; ButtonIDType &gt;</title>
<polygon fill="white" stroke="none" points="-4,4 -4,-453 361,-453 361,4 -4,4"/>
<!-- Node0 -->
<g id="node1" class="node"><title>Node0</title>
<g id="a_node1"><a xlink:title=" ">
<polygon fill="#bfbfbf" stroke="black" points="97,-248.5 97,-448.5 255,-448.5 255,-248.5 97,-248.5"/>
<text text-anchor="start" x="105" y="-436.5" font-family="SegoeUI" font-size="10.00">Juniper.Input.Pointers.Button</text>
<text text-anchor="middle" x="176" y="-425.5" font-family="SegoeUI" font-size="10.00">Mapper&lt; ButtonIDType &gt;</text>
<polyline fill="none" stroke="black" points="97,-418.5 255,-418.5 "/>
<text text-anchor="start" x="105" y="-406.5" font-family="SegoeUI" font-size="10.00">+ IsDragging</text>
<text text-anchor="start" x="105" y="-395.5" font-family="SegoeUI" font-size="10.00">&#45; buttons</text>
<polyline fill="none" stroke="black" points="97,-388.5 255,-388.5 "/>
<text text-anchor="start" x="105" y="-376.5" font-family="SegoeUI" font-size="10.00">+ Install()</text>
<text text-anchor="start" x="105" y="-365.5" font-family="SegoeUI" font-size="10.00">+ IsButtonDown()</text>
<text text-anchor="start" x="105" y="-354.5" font-family="SegoeUI" font-size="10.00">+ IsButtonUp()</text>
<text text-anchor="start" x="105" y="-343.5" font-family="SegoeUI" font-size="10.00">+ IsButtonPressed()</text>
<text text-anchor="start" x="105" y="-332.5" font-family="SegoeUI" font-size="10.00">+ Process()</text>
<text text-anchor="start" x="105" y="-321.5" font-family="SegoeUI" font-size="10.00">&#45; AddButton()</text>
<text text-anchor="start" x="105" y="-310.5" font-family="SegoeUI" font-size="10.00">&#45; OnButtonDownNeeded()</text>
<text text-anchor="start" x="105" y="-299.5" font-family="SegoeUI" font-size="10.00">&#45; OnButtonUpNeeded()</text>
<text text-anchor="start" x="105" y="-288.5" font-family="SegoeUI" font-size="10.00">&#45; OnButtonPressedNeeded()</text>
<text text-anchor="start" x="105" y="-277.5" font-family="SegoeUI" font-size="10.00">&#45; OnClonedPointerEventNeeded()</text>
<text text-anchor="start" x="105" y="-266.5" font-family="SegoeUI" font-size="10.00">&#45; OnInteractionNeeded()</text>
<text text-anchor="start" x="105" y="-255.5" font-family="SegoeUI" font-size="10.00">&#45; FindMappedButton()</text>
</a>
</g>
</g>
<!-- Node1 -->
<g id="node2" class="node"><title>Node1</title>
<g id="a_node2"><a xlink:href="../../d8/d4d/class_juniper_1_1_input_1_1_pointers_1_1_button_mapper.html" target="_top" xlink:title=" ">
<polygon fill="white" stroke="black" points="0,-0.5 0,-200.5 170,-200.5 170,-0.5 0,-0.5"/>
<text text-anchor="start" x="8" y="-188.5" font-family="SegoeUI" font-size="10.00">Juniper.Input.Pointers.Button</text>
<text text-anchor="middle" x="85" y="-177.5" font-family="SegoeUI" font-size="10.00">Mapper&lt; VirtualTouchPadButtons &gt;</text>
<polyline fill="none" stroke="black" points="0,-170.5 170,-170.5 "/>
<text text-anchor="start" x="8" y="-158.5" font-family="SegoeUI" font-size="10.00">+ IsDragging</text>
<text text-anchor="start" x="8" y="-147.5" font-family="SegoeUI" font-size="10.00">&#45; buttons</text>
<polyline fill="none" stroke="black" points="0,-140.5 170,-140.5 "/>
<text text-anchor="start" x="8" y="-128.5" font-family="SegoeUI" font-size="10.00">+ Install()</text>
<text text-anchor="start" x="8" y="-117.5" font-family="SegoeUI" font-size="10.00">+ IsButtonDown()</text>
<text text-anchor="start" x="8" y="-106.5" font-family="SegoeUI" font-size="10.00">+ IsButtonUp()</text>
<text text-anchor="start" x="8" y="-95.5" font-family="SegoeUI" font-size="10.00">+ IsButtonPressed()</text>
<text text-anchor="start" x="8" y="-84.5" font-family="SegoeUI" font-size="10.00">+ Process()</text>
<text text-anchor="start" x="8" y="-73.5" font-family="SegoeUI" font-size="10.00">&#45; AddButton()</text>
<text text-anchor="start" x="8" y="-62.5" font-family="SegoeUI" font-size="10.00">&#45; OnButtonDownNeeded()</text>
<text text-anchor="start" x="8" y="-51.5" font-family="SegoeUI" font-size="10.00">&#45; OnButtonUpNeeded()</text>
<text text-anchor="start" x="8" y="-40.5" font-family="SegoeUI" font-size="10.00">&#45; OnButtonPressedNeeded()</text>
<text text-anchor="start" x="8" y="-29.5" font-family="SegoeUI" font-size="10.00">&#45; OnClonedPointerEventNeeded()</text>
<text text-anchor="start" x="8" y="-18.5" font-family="SegoeUI" font-size="10.00">&#45; OnInteractionNeeded()</text>
<text text-anchor="start" x="8" y="-7.5" font-family="SegoeUI" font-size="10.00">&#45; FindMappedButton()</text>
</a>
</g>
</g>
<!-- Node0&#45;&gt;Node1 -->
<g id="edge1" class="edge"><title>Node0&#45;&gt;Node1</title>
<path fill="none" stroke="orange" d="M124.368,-238.815C123.208,-235.857 122.082,-232.915 121,-230 117.492,-220.552 114.138,-210.605 110.985,-200.6"/>
<polygon fill="orange" stroke="orange" points="121.206,-240.332 128.186,-248.302 127.7,-237.719 121.206,-240.332"/>
<text text-anchor="middle" x="183" y="-222" font-family="SegoeUI" font-size="10.00"> &lt; VirtualTouchPadButtons &gt;</text>
</g>
<!-- Node2 -->
<g id="node3" class="node"><title>Node2</title>
<g id="a_node3"><a xlink:href="../../d8/d4d/class_juniper_1_1_input_1_1_pointers_1_1_button_mapper.html" target="_top" xlink:title=" ">
<polygon fill="white" stroke="black" points="188,-0.5 188,-200.5 346,-200.5 346,-0.5 188,-0.5"/>
<text text-anchor="start" x="196" y="-188.5" font-family="SegoeUI" font-size="10.00">Juniper.Input.Pointers.Button</text>
<text text-anchor="middle" x="267" y="-177.5" font-family="SegoeUI" font-size="10.00">Mapper&lt; VirtualTriggerButton &gt;</text>
<polyline fill="none" stroke="black" points="188,-170.5 346,-170.5 "/>
<text text-anchor="start" x="196" y="-158.5" font-family="SegoeUI" font-size="10.00">+ IsDragging</text>
<text text-anchor="start" x="196" y="-147.5" font-family="SegoeUI" font-size="10.00">&#45; buttons</text>
<polyline fill="none" stroke="black" points="188,-140.5 346,-140.5 "/>
<text text-anchor="start" x="196" y="-128.5" font-family="SegoeUI" font-size="10.00">+ Install()</text>
<text text-anchor="start" x="196" y="-117.5" font-family="SegoeUI" font-size="10.00">+ IsButtonDown()</text>
<text text-anchor="start" x="196" y="-106.5" font-family="SegoeUI" font-size="10.00">+ IsButtonUp()</text>
<text text-anchor="start" x="196" y="-95.5" font-family="SegoeUI" font-size="10.00">+ IsButtonPressed()</text>
<text text-anchor="start" x="196" y="-84.5" font-family="SegoeUI" font-size="10.00">+ Process()</text>
<text text-anchor="start" x="196" y="-73.5" font-family="SegoeUI" font-size="10.00">&#45; AddButton()</text>
<text text-anchor="start" x="196" y="-62.5" font-family="SegoeUI" font-size="10.00">&#45; OnButtonDownNeeded()</text>
<text text-anchor="start" x="196" y="-51.5" font-family="SegoeUI" font-size="10.00">&#45; OnButtonUpNeeded()</text>
<text text-anchor="start" x="196" y="-40.5" font-family="SegoeUI" font-size="10.00">&#45; OnButtonPressedNeeded()</text>
<text text-anchor="start" x="196" y="-29.5" font-family="SegoeUI" font-size="10.00">&#45; OnClonedPointerEventNeeded()</text>
<text text-anchor="start" x="196" y="-18.5" font-family="SegoeUI" font-size="10.00">&#45; OnInteractionNeeded()</text>
<text text-anchor="start" x="196" y="-7.5" font-family="SegoeUI" font-size="10.00">&#45; FindMappedButton()</text>
</a>
</g>
</g>
<!-- Node0&#45;&gt;Node2 -->
<g id="edge2" class="edge"><title>Node0&#45;&gt;Node2</title>
<path fill="none" stroke="orange" d="M241.426,-239.188C242.688,-236.121 243.884,-233.055 245,-230 248.417,-220.646 251.31,-210.711 253.757,-200.672"/>
<polygon fill="orange" stroke="orange" points="238.207,-237.814 237.447,-248.381 244.631,-240.594 238.207,-237.814"/>
<text text-anchor="middle" x="302.5" y="-222" font-family="SegoeUI" font-size="10.00"> &lt; VirtualTriggerButton &gt;</text>
</g>
</g>
</svg>
