<?xml version="1.0" encoding="UTF-8" standalone="no"?>
<!DOCTYPE svg PUBLIC "-//W3C//DTD SVG 1.1//EN"
 "http://www.w3.org/Graphics/SVG/1.1/DTD/svg11.dtd">
<!-- Generated by graphviz version 2.38.0 (20140413.2041)
 -->
<!-- Title: Juniper.Unity.Widgets.FlowLayout Pages: 1 -->
<svg width="140pt" height="193pt"
 viewBox="0.00 0.00 140.00 193.00" xmlns="http://www.w3.org/2000/svg" xmlns:xlink="http://www.w3.org/1999/xlink">
<g id="graph0" class="graph" transform="scale(1 1) rotate(0) translate(4 189)">
<title>Juniper.Unity.Widgets.FlowLayout</title>
<polygon fill="white" stroke="none" points="-4,4 -4,-189 136,-189 136,4 -4,4"/>
<!-- Node0 -->
<g id="node1" class="node"><title>Node0</title>
<g id="a_node1"><a xlink:title=" ">
<polygon fill="#bfbfbf" stroke="black" points="0,-0.5 0,-90.5 132,-90.5 132,-0.5 0,-0.5"/>
<text text-anchor="start" x="8" y="-78.5" font-family="SegoeUI" font-size="10.00">Juniper.Unity.Widgets.Flow</text>
<text text-anchor="middle" x="66" y="-67.5" font-family="SegoeUI" font-size="10.00">Layout</text>
<polyline fill="none" stroke="black" points="0,-60.5 132,-60.5 "/>
<text text-anchor="start" x="8" y="-48.5" font-family="SegoeUI" font-size="10.00">+ padding</text>
<text text-anchor="start" x="8" y="-37.5" font-family="SegoeUI" font-size="10.00">&#45; rect</text>
<polyline fill="none" stroke="black" points="0,-30.5 132,-30.5 "/>
<text text-anchor="start" x="8" y="-18.5" font-family="SegoeUI" font-size="10.00">+ Awake()</text>
<text text-anchor="start" x="8" y="-7.5" font-family="SegoeUI" font-size="10.00">+ Update()</text>
</a>
</g>
</g>
<!-- Node1 -->
<g id="node2" class="node"><title>Node1</title>
<g id="a_node2"><a xlink:title=" ">
<polygon fill="white" stroke="#bfbfbf" points="25,-127.5 25,-184.5 107,-184.5 107,-127.5 25,-127.5"/>
<text text-anchor="middle" x="66" y="-172.5" font-family="SegoeUI" font-size="10.00">MonoBehaviour</text>
<polyline fill="none" stroke="#bfbfbf" points="25,-165.5 107,-165.5 "/>
<text text-anchor="middle" x="66" y="-153.5" font-family="SegoeUI" font-size="10.00"> </text>
<polyline fill="none" stroke="#bfbfbf" points="25,-146.5 107,-146.5 "/>
<text text-anchor="middle" x="66" y="-134.5" font-family="SegoeUI" font-size="10.00"> </text>
</a>
</g>
</g>
<!-- Node1&#45;&gt;Node0 -->
<g id="edge1" class="edge"><title>Node1&#45;&gt;Node0</title>
<path fill="none" stroke="midnightblue" d="M66,-117.214C66,-108.609 66,-99.3943 66,-90.5541"/>
<polygon fill="none" stroke="midnightblue" points="62.5001,-117.34 66,-127.34 69.5001,-117.34 62.5001,-117.34"/>
</g>
</g>
</svg>
