<?xml version="1.0" encoding="UTF-8" standalone="no"?>
<!DOCTYPE svg PUBLIC "-//W3C//DTD SVG 1.1//EN"
 "http://www.w3.org/Graphics/SVG/1.1/DTD/svg11.dtd">
<!-- Generated by graphviz version 2.38.0 (20140413.2041)
 -->
<!-- Title: Juniper.Input.KeyEvent Pages: 1 -->
<svg width="154pt" height="254pt"
 viewBox="0.00 0.00 154.00 254.00" xmlns="http://www.w3.org/2000/svg" xmlns:xlink="http://www.w3.org/1999/xlink">
<g id="graph0" class="graph" transform="scale(1 1) rotate(0) translate(4 250)">
<title>Juniper.Input.KeyEvent</title>
<polygon fill="white" stroke="none" points="-4,4 -4,-250 150,-250 150,4 -4,4"/>
<!-- Node0 -->
<g id="node1" class="node"><title>Node0</title>
<g id="a_node1"><a xlink:title=" ">
<polygon fill="#bfbfbf" stroke="black" points="16.5,-94.5 16.5,-151.5 129.5,-151.5 129.5,-94.5 16.5,-94.5"/>
<text text-anchor="middle" x="73" y="-139.5" font-family="SegoeUI" font-size="10.00">Juniper.Input.KeyEvent</text>
<polyline fill="none" stroke="black" points="16.5,-132.5 129.5,-132.5 "/>
<text text-anchor="start" x="24.5" y="-120.5" font-family="SegoeUI" font-size="10.00">+ Name</text>
<polyline fill="none" stroke="black" points="16.5,-113.5 129.5,-113.5 "/>
<text text-anchor="start" x="24.5" y="-101.5" font-family="SegoeUI" font-size="10.00">+ KeyEvent()</text>
</a>
</g>
</g>
<!-- Node2 -->
<g id="node3" class="node"><title>Node2</title>
<g id="a_node3"><a xlink:href="../../df/ddd/class_juniper_1_1_input_1_1_key_change_event.html" target="_top" xlink:title=" ">
<polygon fill="white" stroke="black" points="0,-0.5 0,-57.5 146,-57.5 146,-0.5 0,-0.5"/>
<text text-anchor="middle" x="73" y="-45.5" font-family="SegoeUI" font-size="10.00">Juniper.Input.KeyChangeEvent</text>
<polyline fill="none" stroke="black" points="0,-38.5 146,-38.5 "/>
<text text-anchor="start" x="8" y="-26.5" font-family="SegoeUI" font-size="10.00">+ State</text>
<polyline fill="none" stroke="black" points="0,-19.5 146,-19.5 "/>
<text text-anchor="start" x="8" y="-7.5" font-family="SegoeUI" font-size="10.00">+ KeyChangeEvent()</text>
</a>
</g>
</g>
<!-- Node0&#45;&gt;Node2 -->
<g id="edge3" class="edge"><title>Node0&#45;&gt;Node2</title>
<path fill="none" stroke="midnightblue" d="M73,-84.2092C73,-75.2929 73,-65.9513 73,-57.5836"/>
<polygon fill="none" stroke="midnightblue" points="69.5001,-84.3969 73,-94.397 76.5001,-84.397 69.5001,-84.3969"/>
</g>
<!-- Node1 -->
<g id="node2" class="node"><title>Node1</title>
<g id="a_node2"><a xlink:href="../../df/d96/class_juniper_1_1_event_args.html" target="_top" xlink:title=" ">
<polygon fill="white" stroke="black" points="35,-188.5 35,-245.5 111,-245.5 111,-188.5 35,-188.5"/>
<text text-anchor="middle" x="73" y="-233.5" font-family="SegoeUI" font-size="10.00">EventArgs</text>
<polyline fill="none" stroke="black" points="35,-226.5 111,-226.5 "/>
<text text-anchor="start" x="43" y="-214.5" font-family="SegoeUI" font-size="10.00">+ Value</text>
<polyline fill="none" stroke="black" points="35,-207.5 111,-207.5 "/>
<text text-anchor="start" x="43" y="-195.5" font-family="SegoeUI" font-size="10.00">+ EventArgs()</text>
</a>
</g>
</g>
<!-- Node1&#45;&gt;Node0 -->
<g id="edge1" class="edge"><title>Node1&#45;&gt;Node0</title>
<path fill="none" stroke="midnightblue" d="M73,-178.209C73,-169.293 73,-159.951 73,-151.584"/>
<polygon fill="none" stroke="midnightblue" points="69.5001,-178.397 73,-188.397 76.5001,-178.397 69.5001,-178.397"/>
</g>
<!-- Node1&#45;&gt;Node1 -->
<g id="edge2" class="edge"><title>Node1&#45;&gt;Node1</title>
<path fill="none" stroke="midnightblue" d="M120.932,-231.524C125.854,-228.663 129,-223.822 129,-217 129,-206.352 121.335,-200.528 111.214,-199.53"/>
<polygon fill="none" stroke="midnightblue" points="119.769,-228.22 111.214,-234.47 121.799,-234.919 119.769,-228.22"/>
</g>
</g>
</svg>
