<?xml version="1.0" encoding="UTF-8" standalone="no"?>
<!DOCTYPE svg PUBLIC "-//W3C//DTD SVG 1.1//EN"
 "http://www.w3.org/Graphics/SVG/1.1/DTD/svg11.dtd">
<!-- Generated by graphviz version 2.38.0 (20140413.2041)
 -->
<!-- Title: Hjg.Pngcs.Chunks.PngChunkMultiple Pages: 1 -->
<svg width="847pt" height="953pt"
 viewBox="0.00 0.00 846.50 953.00" xmlns="http://www.w3.org/2000/svg" xmlns:xlink="http://www.w3.org/1999/xlink">
<g id="graph0" class="graph" transform="scale(1 1) rotate(0) translate(4 949)">
<title>Hjg.Pngcs.Chunks.PngChunkMultiple</title>
<polygon fill="white" stroke="none" points="-4,4 -4,-949 842.5,-949 842.5,4 -4,4"/>
<!-- Node0 -->
<g id="node1" class="node"><title>Node0</title>
<g id="a_node1"><a xlink:title="A Chunk type that allows duplicate in an image">
<polygon fill="#bfbfbf" stroke="black" points="446.5,-485.5 446.5,-564.5 583.5,-564.5 583.5,-485.5 446.5,-485.5"/>
<text text-anchor="start" x="454.5" y="-552.5" font-family="SegoeUI" font-size="10.00">Hjg.Pngcs.Chunks.PngChunk</text>
<text text-anchor="middle" x="515" y="-541.5" font-family="SegoeUI" font-size="10.00">Multiple</text>
<polyline fill="none" stroke="black" points="446.5,-534.5 583.5,-534.5 "/>
<text text-anchor="middle" x="515" y="-522.5" font-family="SegoeUI" font-size="10.00"> </text>
<polyline fill="none" stroke="black" points="446.5,-515.5 583.5,-515.5 "/>
<text text-anchor="start" x="454.5" y="-503.5" font-family="SegoeUI" font-size="10.00">+ AllowsMultiple()</text>
<text text-anchor="start" x="454.5" y="-492.5" font-family="SegoeUI" font-size="10.00">&#45; PngChunkMultiple()</text>
</a>
</g>
</g>
<!-- Node2 -->
<g id="node3" class="node"><title>Node2</title>
<g id="a_node3"><a xlink:href="../../d2/d74/class_hjg_1_1_pngcs_1_1_chunks_1_1_abstract_png_chunk_text_var.html" target="_top" xlink:title="general class for textual chunks">
<polygon fill="white" stroke="black" points="184.5,-237.5 184.5,-448.5 329.5,-448.5 329.5,-237.5 184.5,-237.5"/>
<text text-anchor="start" x="192.5" y="-436.5" font-family="SegoeUI" font-size="10.00">Hjg.Pngcs.Chunks.Abstract</text>
<text text-anchor="middle" x="257" y="-425.5" font-family="SegoeUI" font-size="10.00">PngChunkTextVar</text>
<polyline fill="none" stroke="black" points="184.5,-418.5 329.5,-418.5 "/>
<text text-anchor="start" x="192.5" y="-406.5" font-family="SegoeUI" font-size="10.00">+ KEY_Title</text>
<text text-anchor="start" x="192.5" y="-395.5" font-family="SegoeUI" font-size="10.00">+ KEY_Author</text>
<text text-anchor="start" x="192.5" y="-384.5" font-family="SegoeUI" font-size="10.00">+ KEY_Description</text>
<text text-anchor="start" x="192.5" y="-373.5" font-family="SegoeUI" font-size="10.00">+ KEY_Copyright</text>
<text text-anchor="start" x="192.5" y="-362.5" font-family="SegoeUI" font-size="10.00">+ KEY_Creation_Time</text>
<text text-anchor="start" x="192.5" y="-351.5" font-family="SegoeUI" font-size="10.00">+ KEY_Software</text>
<text text-anchor="start" x="192.5" y="-340.5" font-family="SegoeUI" font-size="10.00">+ KEY_Disclaimer</text>
<text text-anchor="start" x="192.5" y="-329.5" font-family="SegoeUI" font-size="10.00">+ KEY_Warning</text>
<text text-anchor="start" x="192.5" y="-318.5" font-family="SegoeUI" font-size="10.00">+ KEY_Source</text>
<text text-anchor="start" x="192.5" y="-307.5" font-family="SegoeUI" font-size="10.00">+ KEY_Comment</text>
<text text-anchor="start" x="192.5" y="-296.5" font-family="SegoeUI" font-size="10.00">+ Key</text>
<text text-anchor="start" x="192.5" y="-285.5" font-family="SegoeUI" font-size="10.00">+ Val</text>
<polyline fill="none" stroke="black" points="184.5,-278.5 329.5,-278.5 "/>
<text text-anchor="start" x="192.5" y="-266.5" font-family="SegoeUI" font-size="10.00">+ GetOrderingConstraint()</text>
<text text-anchor="start" x="192.5" y="-255.5" font-family="SegoeUI" font-size="10.00">+ SetKeyVal()</text>
<text text-anchor="start" x="192.5" y="-244.5" font-family="SegoeUI" font-size="10.00"># AbstractPngChunkTextVar()</text>
</a>
</g>
</g>
<!-- Node0&#45;&gt;Node2 -->
<g id="edge2" class="edge"><title>Node0&#45;&gt;Node2</title>
<path fill="none" stroke="midnightblue" d="M436.939,-500.41C404.622,-488.283 368.002,-471.291 339,-449 335.791,-446.533 332.637,-443.913 329.546,-441.172"/>
<polygon fill="none" stroke="midnightblue" points="435.778,-503.712 446.372,-503.859 438.182,-497.138 435.778,-503.712"/>
</g>
<!-- Node6 -->
<g id="node7" class="node"><title>Node6</title>
<g id="a_node7"><a xlink:href="../../d0/df1/class_hjg_1_1_pngcs_1_1_chunks_1_1_png_chunk_i_d_a_t.html" target="_top" xlink:title=" ">
<polygon fill="white" stroke="black" points="348,-292.5 348,-393.5 506,-393.5 506,-292.5 348,-292.5"/>
<text text-anchor="middle" x="427" y="-381.5" font-family="SegoeUI" font-size="10.00">Hjg.Pngcs.Chunks.PngChunkIDAT</text>
<polyline fill="none" stroke="black" points="348,-374.5 506,-374.5 "/>
<text text-anchor="start" x="356" y="-362.5" font-family="SegoeUI" font-size="10.00">+ ID</text>
<polyline fill="none" stroke="black" points="348,-355.5 506,-355.5 "/>
<text text-anchor="start" x="356" y="-343.5" font-family="SegoeUI" font-size="10.00">+ PngChunkIDAT()</text>
<text text-anchor="start" x="356" y="-332.5" font-family="SegoeUI" font-size="10.00">+ GetOrderingConstraint()</text>
<text text-anchor="start" x="356" y="-321.5" font-family="SegoeUI" font-size="10.00">+ CreateRawChunk()</text>
<text text-anchor="start" x="356" y="-310.5" font-family="SegoeUI" font-size="10.00">+ ParseFromRaw()</text>
<text text-anchor="start" x="356" y="-299.5" font-family="SegoeUI" font-size="10.00">+ CloneDataFromRead()</text>
</a>
</g>
</g>
<!-- Node0&#45;&gt;Node6 -->
<g id="edge6" class="edge"><title>Node0&#45;&gt;Node6</title>
<path fill="none" stroke="midnightblue" d="M491.663,-476.264C479.178,-450.728 463.823,-419.319 451.208,-393.517"/>
<polygon fill="none" stroke="midnightblue" points="488.585,-477.939 496.122,-485.385 494.874,-474.864 488.585,-477.939"/>
</g>
<!-- Node7 -->
<g id="node8" class="node"><title>Node7</title>
<g id="a_node8"><a xlink:href="../../d3/d17/class_hjg_1_1_pngcs_1_1_chunks_1_1_png_chunk_s_p_l_t.html" target="_top" xlink:title="sPLT chunk: http://www.w3.org/TR/PNG/#11sPLT">
<polygon fill="white" stroke="black" points="524.5,-265 524.5,-421 683.5,-421 683.5,-265 524.5,-265"/>
<text text-anchor="middle" x="604" y="-409" font-family="SegoeUI" font-size="10.00">Hjg.Pngcs.Chunks.PngChunkSPLT</text>
<polyline fill="none" stroke="black" points="524.5,-402 683.5,-402 "/>
<text text-anchor="start" x="532.5" y="-390" font-family="SegoeUI" font-size="10.00">+ ID</text>
<text text-anchor="start" x="532.5" y="-379" font-family="SegoeUI" font-size="10.00">+ PalName</text>
<text text-anchor="start" x="532.5" y="-368" font-family="SegoeUI" font-size="10.00">+ SampleDepth</text>
<text text-anchor="start" x="532.5" y="-357" font-family="SegoeUI" font-size="10.00">+ Palette</text>
<polyline fill="none" stroke="black" points="524.5,-350 683.5,-350 "/>
<text text-anchor="start" x="532.5" y="-338" font-family="SegoeUI" font-size="10.00">+ PngChunkSPLT()</text>
<text text-anchor="start" x="532.5" y="-327" font-family="SegoeUI" font-size="10.00">+ GetOrderingConstraint()</text>
<text text-anchor="start" x="532.5" y="-316" font-family="SegoeUI" font-size="10.00">+ CreateRawChunk()</text>
<text text-anchor="start" x="532.5" y="-305" font-family="SegoeUI" font-size="10.00">+ ParseFromRaw()</text>
<text text-anchor="start" x="532.5" y="-294" font-family="SegoeUI" font-size="10.00">+ CloneDataFromRead()</text>
<text text-anchor="start" x="532.5" y="-283" font-family="SegoeUI" font-size="10.00">+ GetNentries()</text>
<text text-anchor="start" x="532.5" y="-272" font-family="SegoeUI" font-size="10.00">&#45; CloneData()</text>
</a>
</g>
</g>
<!-- Node0&#45;&gt;Node7 -->
<g id="edge7" class="edge"><title>Node0&#45;&gt;Node7</title>
<path fill="none" stroke="midnightblue" d="M538.603,-476.264C546.976,-459.33 556.626,-439.812 565.898,-421.06"/>
<polygon fill="none" stroke="midnightblue" points="535.388,-474.87 534.093,-485.385 541.662,-477.973 535.388,-474.87"/>
</g>
<!-- Node8 -->
<g id="node9" class="node"><title>Node8</title>
<g id="a_node9"><a xlink:href="../../dd/df6/class_hjg_1_1_pngcs_1_1_chunks_1_1_png_chunk_u_n_k_n_o_w_n.html" target="_top" xlink:title="Unknown (for our chunk factory) chunk type.">
<polygon fill="white" stroke="black" points="701.5,-270.5 701.5,-415.5 838.5,-415.5 838.5,-270.5 701.5,-270.5"/>
<text text-anchor="start" x="709.5" y="-403.5" font-family="SegoeUI" font-size="10.00">Hjg.Pngcs.Chunks.PngChunk</text>
<text text-anchor="middle" x="770" y="-392.5" font-family="SegoeUI" font-size="10.00">UNKNOWN</text>
<polyline fill="none" stroke="black" points="701.5,-385.5 838.5,-385.5 "/>
<text text-anchor="start" x="709.5" y="-373.5" font-family="SegoeUI" font-size="10.00">&#45; data</text>
<polyline fill="none" stroke="black" points="701.5,-366.5 838.5,-366.5 "/>
<text text-anchor="start" x="709.5" y="-354.5" font-family="SegoeUI" font-size="10.00">+ PngChunkUNKNOWN()</text>
<text text-anchor="start" x="709.5" y="-343.5" font-family="SegoeUI" font-size="10.00">+ GetOrderingConstraint()</text>
<text text-anchor="start" x="709.5" y="-332.5" font-family="SegoeUI" font-size="10.00">+ CreateRawChunk()</text>
<text text-anchor="start" x="709.5" y="-321.5" font-family="SegoeUI" font-size="10.00">+ ParseFromRaw()</text>
<text text-anchor="start" x="709.5" y="-310.5" font-family="SegoeUI" font-size="10.00">+ GetData()</text>
<text text-anchor="start" x="709.5" y="-299.5" font-family="SegoeUI" font-size="10.00">+ SetData()</text>
<text text-anchor="start" x="709.5" y="-288.5" font-family="SegoeUI" font-size="10.00">+ CloneDataFromRead()</text>
<text text-anchor="start" x="709.5" y="-277.5" font-family="SegoeUI" font-size="10.00">&#45; CloneData()</text>
</a>
</g>
</g>
<!-- Node0&#45;&gt;Node8 -->
<g id="edge8" class="edge"><title>Node0&#45;&gt;Node8</title>
<path fill="none" stroke="midnightblue" d="M593.476,-501.288C626.417,-489.244 663.777,-472.076 693,-449 704.975,-439.544 715.989,-427.774 725.715,-415.569"/>
<polygon fill="none" stroke="midnightblue" points="592.112,-498.058 583.862,-504.706 594.457,-504.654 592.112,-498.058"/>
</g>
<!-- Node1 -->
<g id="node2" class="node"><title>Node1</title>
<g id="a_node2"><a xlink:href="../../d8/dd4/class_hjg_1_1_pngcs_1_1_chunks_1_1_abstract_png_chunk.html" target="_top" xlink:title="Represents a instance of a PNG chunk">
<polygon fill="white" stroke="black" points="451,-601.5 451,-944.5 579,-944.5 579,-601.5 451,-601.5"/>
<text text-anchor="middle" x="515" y="-932.5" font-family="SegoeUI" font-size="10.00">AbstractPngChunk</text>
<polyline fill="none" stroke="black" points="451,-925.5 579,-925.5 "/>
<text text-anchor="start" x="459" y="-913.5" font-family="SegoeUI" font-size="10.00">+ Id</text>
<text text-anchor="start" x="459" y="-902.5" font-family="SegoeUI" font-size="10.00">+ Crit</text>
<text text-anchor="start" x="459" y="-891.5" font-family="SegoeUI" font-size="10.00">+ Pub</text>
<text text-anchor="start" x="459" y="-880.5" font-family="SegoeUI" font-size="10.00">+ Safe</text>
<text text-anchor="start" x="459" y="-869.5" font-family="SegoeUI" font-size="10.00">+ ImgInfo</text>
<text text-anchor="start" x="459" y="-858.5" font-family="SegoeUI" font-size="10.00">+ Priority</text>
<text text-anchor="start" x="459" y="-847.5" font-family="SegoeUI" font-size="10.00">+ ChunkGroup</text>
<text text-anchor="start" x="459" y="-836.5" font-family="SegoeUI" font-size="10.00">+ Length</text>
<text text-anchor="start" x="459" y="-825.5" font-family="SegoeUI" font-size="10.00">+ Offset</text>
<text text-anchor="start" x="459" y="-814.5" font-family="SegoeUI" font-size="10.00">&#45; factoryMap</text>
<polyline fill="none" stroke="black" points="451,-807.5 579,-807.5 "/>
<text text-anchor="start" x="459" y="-795.5" font-family="SegoeUI" font-size="10.00">+ CreateEmptyChunk()</text>
<text text-anchor="start" x="459" y="-784.5" font-family="SegoeUI" font-size="10.00">+ ToString()</text>
<text text-anchor="start" x="459" y="-773.5" font-family="SegoeUI" font-size="10.00">+ CreateRawChunk()</text>
<text text-anchor="start" x="459" y="-762.5" font-family="SegoeUI" font-size="10.00">+ ParseFromRaw()</text>
<text text-anchor="start" x="459" y="-751.5" font-family="SegoeUI" font-size="10.00">+ CloneDataFromRead()</text>
<text text-anchor="start" x="459" y="-740.5" font-family="SegoeUI" font-size="10.00">+ AllowsMultiple()</text>
<text text-anchor="start" x="459" y="-729.5" font-family="SegoeUI" font-size="10.00">+ GetOrderingConstraint()</text>
<text text-anchor="start" x="459" y="-718.5" font-family="SegoeUI" font-size="10.00">+ FactoryRegister()</text>
<text text-anchor="start" x="459" y="-707.5" font-family="SegoeUI" font-size="10.00">+ CloneChunk&lt; T &gt;()</text>
<text text-anchor="start" x="459" y="-696.5" font-family="SegoeUI" font-size="10.00"># AbstractPngChunk()</text>
<text text-anchor="start" x="459" y="-685.5" font-family="SegoeUI" font-size="10.00">&#45; MustGoBeforePLTE()</text>
<text text-anchor="start" x="459" y="-674.5" font-family="SegoeUI" font-size="10.00">&#45; MustGoBeforeIDAT()</text>
<text text-anchor="start" x="459" y="-663.5" font-family="SegoeUI" font-size="10.00">&#45; MustGoAfterPLTE()</text>
<text text-anchor="start" x="459" y="-652.5" font-family="SegoeUI" font-size="10.00">&#45; Write()</text>
<text text-anchor="start" x="459" y="-641.5" font-family="SegoeUI" font-size="10.00">&#45; InitFactory()</text>
<text text-anchor="start" x="459" y="-630.5" font-family="SegoeUI" font-size="10.00">&#45; IsKnown()</text>
<text text-anchor="start" x="459" y="-619.5" font-family="SegoeUI" font-size="10.00">&#45; Factory()</text>
<text text-anchor="start" x="459" y="-608.5" font-family="SegoeUI" font-size="10.00">&#45; FactoryFromId()</text>
</a>
</g>
</g>
<!-- Node1&#45;&gt;Node0 -->
<g id="edge1" class="edge"><title>Node1&#45;&gt;Node0</title>
<path fill="none" stroke="midnightblue" d="M515,-591.235C515,-581.603 515,-572.582 515,-564.503"/>
<polygon fill="none" stroke="midnightblue" points="511.5,-591.48 515,-601.48 518.5,-591.48 511.5,-591.48"/>
</g>
<!-- Node3 -->
<g id="node4" class="node"><title>Node3</title>
<g id="a_node4"><a xlink:href="../../dd/de4/class_hjg_1_1_pngcs_1_1_chunks_1_1_png_chunk_i_t_x_t.html" target="_top" xlink:title="iTXt chunk: http://www.w3.org/TR/PNG/#11iTXt One of the three text chunks">
<polygon fill="white" stroke="black" points="0,-0.5 0,-200.5 158,-200.5 158,-0.5 0,-0.5"/>
<text text-anchor="middle" x="79" y="-188.5" font-family="SegoeUI" font-size="10.00">Hjg.Pngcs.Chunks.PngChunkITXT</text>
<polyline fill="none" stroke="black" points="0,-181.5 158,-181.5 "/>
<text text-anchor="start" x="8" y="-169.5" font-family="SegoeUI" font-size="10.00">+ ID</text>
<text text-anchor="start" x="8" y="-158.5" font-family="SegoeUI" font-size="10.00">&#45; compressed</text>
<text text-anchor="start" x="8" y="-147.5" font-family="SegoeUI" font-size="10.00">&#45; langTag</text>
<text text-anchor="start" x="8" y="-136.5" font-family="SegoeUI" font-size="10.00">&#45; translatedTag</text>
<polyline fill="none" stroke="black" points="0,-129.5 158,-129.5 "/>
<text text-anchor="start" x="8" y="-117.5" font-family="SegoeUI" font-size="10.00">+ PngChunkITXT()</text>
<text text-anchor="start" x="8" y="-106.5" font-family="SegoeUI" font-size="10.00">+ CreateRawChunk()</text>
<text text-anchor="start" x="8" y="-95.5" font-family="SegoeUI" font-size="10.00">+ ParseFromRaw()</text>
<text text-anchor="start" x="8" y="-84.5" font-family="SegoeUI" font-size="10.00">+ CloneDataFromRead()</text>
<text text-anchor="start" x="8" y="-73.5" font-family="SegoeUI" font-size="10.00">+ IsCompressed()</text>
<text text-anchor="start" x="8" y="-62.5" font-family="SegoeUI" font-size="10.00">+ SetCompressed()</text>
<text text-anchor="start" x="8" y="-51.5" font-family="SegoeUI" font-size="10.00">+ GetLangtag()</text>
<text text-anchor="start" x="8" y="-40.5" font-family="SegoeUI" font-size="10.00">+ SetLangtag()</text>
<text text-anchor="start" x="8" y="-29.5" font-family="SegoeUI" font-size="10.00">+ GetTranslatedTag()</text>
<text text-anchor="start" x="8" y="-18.5" font-family="SegoeUI" font-size="10.00">+ SetTranslatedTag()</text>
<text text-anchor="start" x="8" y="-7.5" font-family="SegoeUI" font-size="10.00">&#45; CloneData()</text>
</a>
</g>
</g>
<!-- Node2&#45;&gt;Node3 -->
<g id="edge3" class="edge"><title>Node2&#45;&gt;Node3</title>
<path fill="none" stroke="midnightblue" d="M178.366,-235.756C169.695,-224.041 160.891,-212.145 152.289,-200.523"/>
<polygon fill="none" stroke="midnightblue" points="175.581,-237.877 184.344,-243.833 181.208,-233.712 175.581,-237.877"/>
</g>
<!-- Node4 -->
<g id="node5" class="node"><title>Node4</title>
<g id="a_node5"><a xlink:href="../../de/d9c/class_hjg_1_1_pngcs_1_1_chunks_1_1_png_chunk_t_e_x_t.html" target="_top" xlink:title="tEXt chunk: latin1 uncompressed text">
<polygon fill="white" stroke="black" points="176.5,-50 176.5,-151 337.5,-151 337.5,-50 176.5,-50"/>
<text text-anchor="middle" x="257" y="-139" font-family="SegoeUI" font-size="10.00">Hjg.Pngcs.Chunks.PngChunkTEXT</text>
<polyline fill="none" stroke="black" points="176.5,-132 337.5,-132 "/>
<text text-anchor="start" x="184.5" y="-120" font-family="SegoeUI" font-size="10.00">+ ID</text>
<polyline fill="none" stroke="black" points="176.5,-113 337.5,-113 "/>
<text text-anchor="start" x="184.5" y="-101" font-family="SegoeUI" font-size="10.00">+ PngChunkTEXT()</text>
<text text-anchor="start" x="184.5" y="-90" font-family="SegoeUI" font-size="10.00">+ CreateRawChunk()</text>
<text text-anchor="start" x="184.5" y="-79" font-family="SegoeUI" font-size="10.00">+ ParseFromRaw()</text>
<text text-anchor="start" x="184.5" y="-68" font-family="SegoeUI" font-size="10.00">+ CloneDataFromRead()</text>
<text text-anchor="start" x="184.5" y="-57" font-family="SegoeUI" font-size="10.00">&#45; CloneData()</text>
</a>
</g>
</g>
<!-- Node2&#45;&gt;Node4 -->
<g id="edge4" class="edge"><title>Node2&#45;&gt;Node4</title>
<path fill="none" stroke="midnightblue" d="M257,-227.022C257,-200.358 257,-173.349 257,-151.25"/>
<polygon fill="none" stroke="midnightblue" points="253.5,-227.213 257,-237.213 260.5,-227.213 253.5,-227.213"/>
</g>
<!-- Node5 -->
<g id="node6" class="node"><title>Node5</title>
<g id="a_node6"><a xlink:href="../../d3/d58/class_hjg_1_1_pngcs_1_1_chunks_1_1_png_chunk_z_t_x_t.html" target="_top" xlink:title="zTXt chunk: http://www.w3.org/TR/PNG/#11zTXt">
<polygon fill="white" stroke="black" points="355.5,-50 355.5,-151 516.5,-151 516.5,-50 355.5,-50"/>
<text text-anchor="middle" x="436" y="-139" font-family="SegoeUI" font-size="10.00">Hjg.Pngcs.Chunks.PngChunkZTXT</text>
<polyline fill="none" stroke="black" points="355.5,-132 516.5,-132 "/>
<text text-anchor="start" x="363.5" y="-120" font-family="SegoeUI" font-size="10.00">+ ID</text>
<polyline fill="none" stroke="black" points="355.5,-113 516.5,-113 "/>
<text text-anchor="start" x="363.5" y="-101" font-family="SegoeUI" font-size="10.00">+ PngChunkZTXT??()</text>
<text text-anchor="start" x="363.5" y="-90" font-family="SegoeUI" font-size="10.00">+ CreateRawChunk()</text>
<text text-anchor="start" x="363.5" y="-79" font-family="SegoeUI" font-size="10.00">+ ParseFromRaw()</text>
<text text-anchor="start" x="363.5" y="-68" font-family="SegoeUI" font-size="10.00">+ CloneDataFromRead()</text>
<text text-anchor="start" x="363.5" y="-57" font-family="SegoeUI" font-size="10.00">&#45; CloneData()</text>
</a>
</g>
</g>
<!-- Node2&#45;&gt;Node5 -->
<g id="edge5" class="edge"><title>Node2&#45;&gt;Node5</title>
<path fill="none" stroke="midnightblue" d="M335.727,-236.225C357.732,-206.659 380.618,-175.909 398.961,-151.264"/>
<polygon fill="none" stroke="midnightblue" points="332.711,-234.414 329.548,-244.526 338.326,-238.594 332.711,-234.414"/>
</g>
</g>
</svg>
