<?xml version="1.0" encoding="UTF-8" standalone="no"?>
<!DOCTYPE svg PUBLIC "-//W3C//DTD SVG 1.1//EN"
 "http://www.w3.org/Graphics/SVG/1.1/DTD/svg11.dtd">
<!-- Generated by graphviz version 2.38.0 (20140413.2041)
 -->
<!-- Title: Juniper.Unity.Ground.Ground Pages: 1 -->
<!--zoomable 871 -->
<svg id="main" version="1.1" xmlns="http://www.w3.org/2000/svg" xmlns:xlink="http://www.w3.org/1999/xlink" xml:space="preserve" onload="init(evt)">
<style type="text/css"><![CDATA[
.edge:hover path { stroke: red; }
.edge:hover polygon { stroke: red; fill: red; }
]]></style>
<script type="text/javascript"><![CDATA[
var edges = document.getElementsByTagName('g');
if (edges && edges.length) {
  for (var i=0;i<edges.length;i++) {
    if (edges[i].id.substr(0,4)=='edge') {
      edges[i].setAttribute('class','edge');
    }
  }
}
]]></script>
        <defs>
                <circle id="rim" cx="0" cy="0" r="7"/>
                <circle id="rim2" cx="0" cy="0" r="3.5"/>
                <g id="zoomPlus">
                        <use xlink:href="#rim" fill="#404040">
                                <set attributeName="fill" to="#808080" begin="zoomplus.mouseover" end="zoomplus.mouseout"/>
                        </use>
                        <path d="M-4,0h8M0,-4v8" fill="none" stroke="white" stroke-width="1.5" pointer-events="none"/>
                </g>
                <g id="zoomMin">
                        <use xlink:href="#rim" fill="#404040">
                                <set attributeName="fill" to="#808080" begin="zoomminus.mouseover" end="zoomminus.mouseout"/>
                        </use>
                        <path d="M-4,0h8" fill="none" stroke="white" stroke-width="1.5" pointer-events="none"/>
                </g>
                <g id="dirArrow">
                        <path fill="none" stroke="white" stroke-width="1.5" d="M0,-3.0v7 M-2.5,-0.5L0,-3.0L2.5,-0.5"/>
                </g>
               <g id="resetDef">
                       <use xlink:href="#rim2" fill="#404040">
                               <set attributeName="fill" to="#808080" begin="reset.mouseover" end="reset.mouseout"/>
                       </use>
               </g>
        </defs>

<script type="text/javascript">
var viewWidth = 178;
var viewHeight = 871;
var sectionId = 'dynsection-0';
</script>
<script xlink:href="../../svgpan.js"/>
<svg id="graph" class="graph">
<g id="viewport">
<title>Juniper.Unity.Ground.Ground</title>
<polygon fill="white" stroke="none" points="-4,4 -4,-867 173.5,-867 173.5,4 -4,4"/>
<!-- Node0 -->
<g id="node1" class="node"><title>Node0</title>
<g id="a_node1"><a xlink:title="Manages references to the ground, either 3D terrain in VR apps or detected planes and meshes in AR ap...">
<polygon fill="#bfbfbf" stroke="black" points="18.5,-0.5 18.5,-57.5 157.5,-57.5 157.5,-0.5 18.5,-0.5"/>
<text text-anchor="middle" x="88" y="-45.5" font-family="SegoeUI" font-size="10.00">Juniper.Unity.Ground.Ground</text>
<polyline fill="none" stroke="black" points="18.5,-38.5 157.5,-38.5 "/>
<text text-anchor="middle" x="88" y="-26.5" font-family="SegoeUI" font-size="10.00"> </text>
<polyline fill="none" stroke="black" points="18.5,-19.5 157.5,-19.5 "/>
<text text-anchor="middle" x="88" y="-7.5" font-family="SegoeUI" font-size="10.00"> </text>
</a>
</g>
</g>
<!-- Node1 -->
<g id="node2" class="node"><title>Node1</title>
<g id="a_node2"><a xlink:href="../../d1/d1e/class_juniper_1_1_unity_1_1_ground_1_1_holo_lens_ground.html" target="_top" xlink:title=" ">
<polygon fill="white" stroke="black" points="7,-94.5 7,-393.5 169,-393.5 169,-94.5 7,-94.5"/>
<text text-anchor="middle" x="88" y="-381.5" font-family="SegoeUI" font-size="10.00">HoloLensGround</text>
<polyline fill="none" stroke="black" points="7,-374.5 169,-374.5 "/>
<text text-anchor="start" x="15" y="-362.5" font-family="SegoeUI" font-size="10.00">+ surfaceParent</text>
<text text-anchor="start" x="15" y="-351.5" font-family="SegoeUI" font-size="10.00">+ secondsBetweenSpatialMapping</text>
<text text-anchor="start" x="15" y="-340.5" font-family="SegoeUI" font-size="10.00">Updates</text>
<text text-anchor="start" x="15" y="-329.5" font-family="SegoeUI" font-size="10.00">+ updateCountBeforeSpatial</text>
<text text-anchor="start" x="15" y="-318.5" font-family="SegoeUI" font-size="10.00">MappingCleanup</text>
<text text-anchor="start" x="15" y="-307.5" font-family="SegoeUI" font-size="10.00">+ spatialMappingRange</text>
<text text-anchor="start" x="15" y="-296.5" font-family="SegoeUI" font-size="10.00">+ freezeUpdates</text>
<text text-anchor="start" x="15" y="-285.5" font-family="SegoeUI" font-size="10.00">+ volumeType</text>
<text text-anchor="start" x="15" y="-274.5" font-family="SegoeUI" font-size="10.00">+ HalfBoxExtents</text>
<text text-anchor="start" x="15" y="-263.5" font-family="SegoeUI" font-size="10.00">+ LODType</text>
<text text-anchor="start" x="15" y="-252.5" font-family="SegoeUI" font-size="10.00">&#45; gRenderer</text>
<text text-anchor="start" x="15" y="-241.5" font-family="SegoeUI" font-size="10.00">&#45; gCollider</text>
<text text-anchor="start" x="15" y="-230.5" font-family="SegoeUI" font-size="10.00">&#45; lastSurfaceParent</text>
<text text-anchor="start" x="15" y="-219.5" font-family="SegoeUI" font-size="10.00">&#45; lastUpdateTime</text>
<text text-anchor="start" x="15" y="-208.5" font-family="SegoeUI" font-size="10.00">&#45; lastUpdateCount</text>
<text text-anchor="start" x="15" y="-197.5" font-family="SegoeUI" font-size="10.00">&#45; lastHalfBox</text>
<text text-anchor="start" x="15" y="-186.5" font-family="SegoeUI" font-size="10.00">&#45; lastFreezeUpdates</text>
<text text-anchor="start" x="15" y="-175.5" font-family="SegoeUI" font-size="10.00">&#45; lastLODType</text>
<text text-anchor="start" x="15" y="-164.5" font-family="SegoeUI" font-size="10.00">&#45; lastVolumeType</text>
<text text-anchor="start" x="15" y="-153.5" font-family="SegoeUI" font-size="10.00">&#45; LODTypeMapping</text>
<polyline fill="none" stroke="black" points="7,-146.5 169,-146.5 "/>
<text text-anchor="start" x="15" y="-134.5" font-family="SegoeUI" font-size="10.00">+ OnValidate()</text>
<text text-anchor="start" x="15" y="-123.5" font-family="SegoeUI" font-size="10.00">+ Update()</text>
<text text-anchor="start" x="15" y="-112.5" font-family="SegoeUI" font-size="10.00"># Awake()</text>
<text text-anchor="start" x="15" y="-101.5" font-family="SegoeUI" font-size="10.00">&#45; Check&lt; T &gt;()</text>
</a>
</g>
</g>
<!-- Node1&#45;&gt;Node0 -->
<g id="edge1" class="edge"><title>Node1&#45;&gt;Node0</title>
<path fill="none" stroke="midnightblue" d="M88,-84.3572C88,-74.4761 88,-65.39 88,-57.5902"/>
<polygon fill="none" stroke="midnightblue" points="84.5001,-84.485 88,-94.4851 91.5001,-84.4851 84.5001,-84.485"/>
</g>
<!-- Node2 -->
<g id="node3" class="node"><title>Node2</title>
<g id="a_node3"><a xlink:href="../../da/d0a/class_juniper_1_1_unity_1_1_ground_1_1_abstract_a_r_ground.html" target="_top" xlink:title=" ">
<polygon fill="white" stroke="black" points="28.5,-430.5 28.5,-487.5 147.5,-487.5 147.5,-430.5 28.5,-430.5"/>
<text text-anchor="middle" x="88" y="-475.5" font-family="SegoeUI" font-size="10.00">AbstractARGround</text>
<polyline fill="none" stroke="black" points="28.5,-468.5 147.5,-468.5 "/>
<text text-anchor="start" x="36.5" y="-456.5" font-family="SegoeUI" font-size="10.00">+ spatialMappingFidelity</text>
<polyline fill="none" stroke="black" points="28.5,-449.5 147.5,-449.5 "/>
<text text-anchor="middle" x="88" y="-437.5" font-family="SegoeUI" font-size="10.00"> </text>
</a>
</g>
</g>
<!-- Node2&#45;&gt;Node1 -->
<g id="edge2" class="edge"><title>Node2&#45;&gt;Node1</title>
<path fill="none" stroke="midnightblue" d="M88,-419.923C88,-411.996 88,-403.193 88,-393.872"/>
<polygon fill="none" stroke="midnightblue" points="84.5001,-420.154 88,-430.154 91.5001,-420.154 84.5001,-420.154"/>
</g>
<!-- Node3 -->
<g id="node4" class="node"><title>Node3</title>
<g id="a_node4"><a xlink:href="../../d6/dcb/class_juniper_1_1_unity_1_1_ground_1_1_abstract_ground.html" target="_top" xlink:title=" ">
<polygon fill="white" stroke="black" points="21,-524.5 21,-746.5 155,-746.5 155,-524.5 21,-524.5"/>
<text text-anchor="middle" x="88" y="-734.5" font-family="SegoeUI" font-size="10.00">AbstractGround</text>
<polyline fill="none" stroke="black" points="21,-727.5 155,-727.5 "/>
<text text-anchor="start" x="29" y="-715.5" font-family="SegoeUI" font-size="10.00">+ Roughness</text>
<text text-anchor="start" x="29" y="-704.5" font-family="SegoeUI" font-size="10.00">+ MeshVisualization</text>
<text text-anchor="start" x="29" y="-693.5" font-family="SegoeUI" font-size="10.00">+ OcclusionMaterial</text>
<text text-anchor="start" x="29" y="-682.5" font-family="SegoeUI" font-size="10.00">+ OcclusionMaterialInEditor</text>
<text text-anchor="start" x="29" y="-671.5" font-family="SegoeUI" font-size="10.00">+ VisualizationMaterial</text>
<text text-anchor="start" x="29" y="-660.5" font-family="SegoeUI" font-size="10.00">+ CurrentMaterial</text>
<text text-anchor="start" x="29" y="-649.5" font-family="SegoeUI" font-size="10.00">+ GroundLayer</text>
<text text-anchor="start" x="29" y="-638.5" font-family="SegoeUI" font-size="10.00">+ GroundVisualizers</text>
<text text-anchor="start" x="29" y="-627.5" font-family="SegoeUI" font-size="10.00">&#45; lastMeshVisualization</text>
<polyline fill="none" stroke="black" points="21,-620.5 155,-620.5 "/>
<text text-anchor="start" x="29" y="-608.5" font-family="SegoeUI" font-size="10.00">+ ToggleVisualization()</text>
<text text-anchor="start" x="29" y="-597.5" font-family="SegoeUI" font-size="10.00">+ Reinstall()</text>
<text text-anchor="start" x="29" y="-586.5" font-family="SegoeUI" font-size="10.00">+ Reset()</text>
<text text-anchor="start" x="29" y="-575.5" font-family="SegoeUI" font-size="10.00">+ Update()</text>
<text text-anchor="start" x="29" y="-564.5" font-family="SegoeUI" font-size="10.00">+ Install()</text>
<text text-anchor="start" x="29" y="-553.5" font-family="SegoeUI" font-size="10.00">+ Uninstall()</text>
<text text-anchor="start" x="29" y="-542.5" font-family="SegoeUI" font-size="10.00"># Awake()</text>
<text text-anchor="start" x="29" y="-531.5" font-family="SegoeUI" font-size="10.00"># VisualizationChanged()</text>
</a>
</g>
</g>
<!-- Node3&#45;&gt;Node2 -->
<g id="edge3" class="edge"><title>Node3&#45;&gt;Node2</title>
<path fill="none" stroke="midnightblue" d="M88,-514.239C88,-504.605 88,-495.602 88,-487.805"/>
<polygon fill="none" stroke="midnightblue" points="84.5001,-514.482 88,-524.482 91.5001,-514.482 84.5001,-514.482"/>
</g>
<!-- Node4 -->
<g id="node5" class="node"><title>Node4</title>
<g id="a_node5"><a xlink:title=" ">
<polygon fill="white" stroke="#bfbfbf" points="0,-794.5 0,-851.5 82,-851.5 82,-794.5 0,-794.5"/>
<text text-anchor="middle" x="41" y="-839.5" font-family="SegoeUI" font-size="10.00">MonoBehaviour</text>
<polyline fill="none" stroke="#bfbfbf" points="0,-832.5 82,-832.5 "/>
<text text-anchor="middle" x="41" y="-820.5" font-family="SegoeUI" font-size="10.00"> </text>
<polyline fill="none" stroke="#bfbfbf" points="0,-813.5 82,-813.5 "/>
<text text-anchor="middle" x="41" y="-801.5" font-family="SegoeUI" font-size="10.00"> </text>
</a>
</g>
</g>
<!-- Node4&#45;&gt;Node3 -->
<g id="edge4" class="edge"><title>Node4&#45;&gt;Node3</title>
<path fill="none" stroke="midnightblue" d="M50.5346,-784.369C53.3973,-773.07 56.6938,-760.06 60.1191,-746.541"/>
<polygon fill="none" stroke="midnightblue" points="47.0997,-783.675 48.0364,-794.229 53.8853,-785.395 47.0997,-783.675"/>
</g>
<!-- Node5 -->
<g id="node6" class="node"><title>Node5</title>
<g id="a_node6"><a xlink:href="../../db/d28/interface_juniper_1_1_i_installable.html" target="_top" xlink:title=" ">
<polygon fill="white" stroke="black" points="100.5,-783.5 100.5,-862.5 169.5,-862.5 169.5,-783.5 100.5,-783.5"/>
<text text-anchor="middle" x="135" y="-850.5" font-family="SegoeUI" font-size="10.00">IInstallable</text>
<polyline fill="none" stroke="black" points="100.5,-843.5 169.5,-843.5 "/>
<text text-anchor="middle" x="135" y="-831.5" font-family="SegoeUI" font-size="10.00"> </text>
<polyline fill="none" stroke="black" points="100.5,-824.5 169.5,-824.5 "/>
<text text-anchor="start" x="108.5" y="-812.5" font-family="SegoeUI" font-size="10.00">+ Install()</text>
<text text-anchor="start" x="108.5" y="-801.5" font-family="SegoeUI" font-size="10.00">+ Reinstall()</text>
<text text-anchor="start" x="108.5" y="-790.5" font-family="SegoeUI" font-size="10.00">+ Uninstall()</text>
</a>
</g>
</g>
<!-- Node5&#45;&gt;Node3 -->
<g id="edge5" class="edge"><title>Node5&#45;&gt;Node3</title>
<path fill="none" stroke="midnightblue" d="M122.652,-773.266C120.538,-764.92 118.266,-755.955 115.934,-746.752"/>
<polygon fill="none" stroke="midnightblue" points="119.298,-774.279 125.147,-783.113 126.084,-772.56 119.298,-774.279"/>
</g>
</g>
</svg>
        <g id="navigator" transform="translate(0 0)" fill="#404254">
                <rect fill="#f2f5e9" fill-opacity="0.5" stroke="#606060" stroke-width=".5" x="0" y="0" width="60" height="60"/>
                <use id="zoomplus" xlink:href="#zoomPlus" x="17" y="9" onmousedown="handleZoom(evt,'in')"/>
                <use id="zoomminus" xlink:href="#zoomMin" x="42" y="9" onmousedown="handleZoom(evt,'out')"/>
                <use id="reset" xlink:href="#resetDef" x="30" y="36" onmousedown="handleReset()"/>
                <g id="arrowUp" xlink:href="#dirArrow" transform="translate(30 24)" onmousedown="handlePan(0,-1)">
                  <use xlink:href="#rim" fill="#404040">
                        <set attributeName="fill" to="#808080" begin="arrowUp.mouseover" end="arrowUp.mouseout"/>
                  </use>
                  <path fill="none" stroke="white" stroke-width="1.5" d="M0,-3.0v7 M-2.5,-0.5L0,-3.0L2.5,-0.5"/>
                </g>
                <g id="arrowRight" xlink:href="#dirArrow" transform="rotate(90) translate(36 -43)" onmousedown="handlePan(1,0)">
                  <use xlink:href="#rim" fill="#404040">
                        <set attributeName="fill" to="#808080" begin="arrowRight.mouseover" end="arrowRight.mouseout"/>
                  </use>
                  <path fill="none" stroke="white" stroke-width="1.5" d="M0,-3.0v7 M-2.5,-0.5L0,-3.0L2.5,-0.5"/>
                </g>
                <g id="arrowDown" xlink:href="#dirArrow" transform="rotate(180) translate(-30 -48)" onmousedown="handlePan(0,1)">
                  <use xlink:href="#rim" fill="#404040">
                        <set attributeName="fill" to="#808080" begin="arrowDown.mouseover" end="arrowDown.mouseout"/>
                  </use>
                  <path fill="none" stroke="white" stroke-width="1.5" d="M0,-3.0v7 M-2.5,-0.5L0,-3.0L2.5,-0.5"/>
                </g>
                <g id="arrowLeft" xlink:href="#dirArrow" transform="rotate(270) translate(-36 17)" onmousedown="handlePan(-1,0)">
                  <use xlink:href="#rim" fill="#404040">
                        <set attributeName="fill" to="#808080" begin="arrowLeft.mouseover" end="arrowLeft.mouseout"/>
                  </use>
                  <path fill="none" stroke="white" stroke-width="1.5" d="M0,-3.0v7 M-2.5,-0.5L0,-3.0L2.5,-0.5"/>
                </g>
        </g>
        <svg viewBox="0 0 15 15" width="100%" height="30px" preserveAspectRatio="xMaxYMin meet">
         <g id="arrow_out" transform="scale(0.3 0.3)">
          <a xlink:href="class_juniper_1_1_unity_1_1_ground_1_1_ground__inherit__graph_org.svg" target="_base">
           <rect id="button" ry="5" rx="5" y="6" x="6" height="38" width="38"
                fill="#f2f5e9" fill-opacity="0.5" stroke="#606060" stroke-width="1.0"/>
           <path id="arrow"
             d="M 11.500037,31.436501 C 11.940474,20.09759 22.043105,11.32322 32.158766,21.979434 L 37.068811,17.246167 C 37.068811,17.246167 37.088388,32 37.088388,32 L 22.160133,31.978069 C 22.160133,31.978069 26.997745,27.140456 26.997745,27.140456 C 18.528582,18.264221 13.291696,25.230495 11.500037,31.436501 z"
             style="fill:#404040;"/>
          </a>
         </g>
        </svg>
</svg>
