<?xml version="1.0" encoding="UTF-8" standalone="no"?>
<!DOCTYPE svg PUBLIC "-//W3C//DTD SVG 1.1//EN"
 "http://www.w3.org/Graphics/SVG/1.1/DTD/svg11.dtd">
<!-- Generated by graphviz version 2.38.0 (20140413.2041)
 -->
<!-- Title: Juniper.World.GIS.Google.TimeZone.TimeZoneResponse Pages: 1 -->
<svg width="222pt" height="303pt"
 viewBox="0.00 0.00 222.00 303.00" xmlns="http://www.w3.org/2000/svg" xmlns:xlink="http://www.w3.org/1999/xlink">
<g id="graph0" class="graph" transform="scale(1 1) rotate(0) translate(4 299)">
<title>Juniper.World.GIS.Google.TimeZone.TimeZoneResponse</title>
<polygon fill="white" stroke="none" points="-4,4 -4,-299 218,-299 218,4 -4,4"/>
<!-- Node2 -->
<g id="node1" class="node"><title>Node2</title>
<g id="a_node1"><a xlink:title=" ">
<polygon fill="#bfbfbf" stroke="black" points="0,-0.5 0,-134.5 146,-134.5 146,-0.5 0,-0.5"/>
<text text-anchor="start" x="8" y="-122.5" font-family="SegoeUI" font-size="10.00">Juniper.World.GIS.Google.</text>
<text text-anchor="middle" x="73" y="-111.5" font-family="SegoeUI" font-size="10.00">TimeZone.TimeZoneResponse</text>
<polyline fill="none" stroke="black" points="0,-104.5 146,-104.5 "/>
<text text-anchor="start" x="8" y="-92.5" font-family="SegoeUI" font-size="10.00">+ Status</text>
<text text-anchor="start" x="8" y="-81.5" font-family="SegoeUI" font-size="10.00">+ ErrorMessage</text>
<text text-anchor="start" x="8" y="-70.5" font-family="SegoeUI" font-size="10.00">+ DstOffset</text>
<text text-anchor="start" x="8" y="-59.5" font-family="SegoeUI" font-size="10.00">+ RawOffset</text>
<text text-anchor="start" x="8" y="-48.5" font-family="SegoeUI" font-size="10.00">+ TimeZoneId</text>
<text text-anchor="start" x="8" y="-37.5" font-family="SegoeUI" font-size="10.00">+ TimeZoneName</text>
<polyline fill="none" stroke="black" points="0,-30.5 146,-30.5 "/>
<text text-anchor="start" x="8" y="-18.5" font-family="SegoeUI" font-size="10.00">+ GetObjectData()</text>
<text text-anchor="start" x="8" y="-7.5" font-family="SegoeUI" font-size="10.00"># TimeZoneResponse()</text>
</a>
</g>
</g>
<!-- Node3 -->
<g id="node2" class="node"><title>Node3</title>
<g id="a_node2"><a xlink:title=" ">
<polygon fill="white" stroke="#bfbfbf" points="2.5,-237.5 2.5,-294.5 71.5,-294.5 71.5,-237.5 2.5,-237.5"/>
<text text-anchor="middle" x="37" y="-282.5" font-family="SegoeUI" font-size="10.00">ISerializable</text>
<polyline fill="none" stroke="#bfbfbf" points="2.5,-275.5 71.5,-275.5 "/>
<text text-anchor="middle" x="37" y="-263.5" font-family="SegoeUI" font-size="10.00"> </text>
<polyline fill="none" stroke="#bfbfbf" points="2.5,-256.5 71.5,-256.5 "/>
<text text-anchor="middle" x="37" y="-244.5" font-family="SegoeUI" font-size="10.00"> </text>
</a>
</g>
</g>
<!-- Node3&#45;&gt;Node2 -->
<g id="edge1" class="edge"><title>Node3&#45;&gt;Node2</title>
<path fill="none" stroke="midnightblue" d="M43.8954,-227.363C48.6948,-201.166 55.223,-165.533 60.8805,-134.653"/>
<polygon fill="none" stroke="midnightblue" points="40.441,-226.796 42.0816,-237.263 47.3264,-228.058 40.441,-226.796"/>
</g>
<!-- Node4 -->
<g id="node3" class="node"><title>Node4</title>
<g id="a_node3"><a xlink:title=" ">
<polygon fill="white" stroke="#bfbfbf" points="89.5,-237.5 89.5,-294.5 128.5,-294.5 128.5,-237.5 89.5,-237.5"/>
<text text-anchor="middle" x="109" y="-282.5" font-family="SegoeUI" font-size="10.00">static</text>
<polyline fill="none" stroke="#bfbfbf" points="89.5,-275.5 128.5,-275.5 "/>
<text text-anchor="middle" x="109" y="-263.5" font-family="SegoeUI" font-size="10.00"> </text>
<polyline fill="none" stroke="#bfbfbf" points="89.5,-256.5 128.5,-256.5 "/>
<text text-anchor="middle" x="109" y="-244.5" font-family="SegoeUI" font-size="10.00"> </text>
</a>
</g>
</g>
<!-- Node4&#45;&gt;Node2 -->
<g id="edge2" class="edge"><title>Node4&#45;&gt;Node2</title>
<path fill="none" stroke="#404040" d="M103.918,-237.263C99.6047,-213.717 93.1989,-178.752 87.3349,-146.745"/>
<polygon fill="none" stroke="#404040" points="87.2821,-146.456 82.2663,-141.275 85.1195,-134.653 90.1353,-139.833 87.2821,-146.456"/>
<text text-anchor="middle" x="157" y="-211" font-family="SegoeUI" font-size="10.00"> &#45;ERROR_MESSAGE_FIELD</text>
<text text-anchor="middle" x="157" y="-200" font-family="SegoeUI" font-size="10.00">&#45;RAW_OFFSET_FIELD</text>
<text text-anchor="middle" x="157" y="-189" font-family="SegoeUI" font-size="10.00">&#45;STATUS_FIELD</text>
<text text-anchor="middle" x="157" y="-178" font-family="SegoeUI" font-size="10.00">&#45;TIME_ZONE_ID_FIELD</text>
<text text-anchor="middle" x="157" y="-167" font-family="SegoeUI" font-size="10.00">&#45;DST_OFFSET_FIELD</text>
<text text-anchor="middle" x="157" y="-156" font-family="SegoeUI" font-size="10.00">&#45;TIME_ZONE_NAME_FIELD</text>
</g>
</g>
</svg>
