<?xml version="1.0" encoding="UTF-8" standalone="no"?>
<!DOCTYPE svg PUBLIC "-//W3C//DTD SVG 1.1//EN"
 "http://www.w3.org/Graphics/SVG/1.1/DTD/svg11.dtd">
<!-- Generated by graphviz version 2.38.0 (20140413.2041)
 -->
<!-- Title: Juniper.Unity.World.GPSLocation Pages: 1 -->
<svg width="163pt" height="380pt"
 viewBox="0.00 0.00 163.00 380.00" xmlns="http://www.w3.org/2000/svg" xmlns:xlink="http://www.w3.org/1999/xlink">
<g id="graph0" class="graph" transform="scale(1 1) rotate(0) translate(4 376)">
<title>Juniper.Unity.World.GPSLocation</title>
<polygon fill="white" stroke="none" points="-4,4 -4,-376 159,-376 159,4 -4,4"/>
<!-- Node0 -->
<g id="node1" class="node"><title>Node0</title>
<g id="a_node1"><a xlink:title="Retrieves the user&#39;s latitude, longitude, and altitude from satellites orbiting Spaceship Earth....">
<polygon fill="#bfbfbf" stroke="black" points="0,-0.5 0,-277.5 155,-277.5 155,-0.5 0,-0.5"/>
<text text-anchor="middle" x="77.5" y="-265.5" font-family="SegoeUI" font-size="10.00">Juniper.Unity.World.GPSLocation</text>
<polyline fill="none" stroke="black" points="0,-258.5 155,-258.5 "/>
<text text-anchor="start" x="8" y="-246.5" font-family="SegoeUI" font-size="10.00">+ timeBetweenUpdates</text>
<text text-anchor="start" x="8" y="-235.5" font-family="SegoeUI" font-size="10.00">+ desiredAccuracy</text>
<text text-anchor="start" x="8" y="-224.5" font-family="SegoeUI" font-size="10.00">+ updateDistance</text>
<text text-anchor="start" x="8" y="-213.5" font-family="SegoeUI" font-size="10.00">+ FakeCoord</text>
<text text-anchor="start" x="8" y="-202.5" font-family="SegoeUI" font-size="10.00">+ Coord</text>
<text text-anchor="start" x="8" y="-191.5" font-family="SegoeUI" font-size="10.00">+ DebugReport</text>
<text text-anchor="start" x="8" y="-180.5" font-family="SegoeUI" font-size="10.00">+ onPositionUpdated</text>
<text text-anchor="start" x="8" y="-169.5" font-family="SegoeUI" font-size="10.00">+ HasCoord</text>
<text text-anchor="start" x="8" y="-158.5" font-family="SegoeUI" font-size="10.00">+ UseFakeCoord</text>
<text text-anchor="start" x="8" y="-147.5" font-family="SegoeUI" font-size="10.00">+ Location</text>
<text text-anchor="start" x="8" y="-136.5" font-family="SegoeUI" font-size="10.00">+ Status</text>
<text text-anchor="start" x="8" y="-125.5" font-family="SegoeUI" font-size="10.00">&#45; COORD_KEY</text>
<text text-anchor="start" x="8" y="-114.5" font-family="SegoeUI" font-size="10.00">&#45; nextUpdateTime</text>
<text text-anchor="start" x="8" y="-103.5" font-family="SegoeUI" font-size="10.00">&#45; lastLocation</text>
<polyline fill="none" stroke="black" points="0,-96.5 155,-96.5 "/>
<text text-anchor="start" x="8" y="-84.5" font-family="SegoeUI" font-size="10.00">+ Awake()</text>
<text text-anchor="start" x="8" y="-73.5" font-family="SegoeUI" font-size="10.00">+ Start()</text>
<text text-anchor="start" x="8" y="-62.5" font-family="SegoeUI" font-size="10.00">+ OnEnable()</text>
<text text-anchor="start" x="8" y="-51.5" font-family="SegoeUI" font-size="10.00">+ OnDisable()</text>
<text text-anchor="start" x="8" y="-40.5" font-family="SegoeUI" font-size="10.00">+ Update()</text>
<text text-anchor="start" x="8" y="-29.5" font-family="SegoeUI" font-size="10.00">&#45; OnPositionUpdated()</text>
<text text-anchor="start" x="8" y="-18.5" font-family="SegoeUI" font-size="10.00">&#45; StartGPSTrackingCoroutine()</text>
<text text-anchor="start" x="8" y="-7.5" font-family="SegoeUI" font-size="10.00">&#45; PrintDebugReport()</text>
</a>
</g>
</g>
<!-- Node1 -->
<g id="node2" class="node"><title>Node1</title>
<g id="a_node2"><a xlink:title=" ">
<polygon fill="white" stroke="#bfbfbf" points="36.5,-314.5 36.5,-371.5 118.5,-371.5 118.5,-314.5 36.5,-314.5"/>
<text text-anchor="middle" x="77.5" y="-359.5" font-family="SegoeUI" font-size="10.00">MonoBehaviour</text>
<polyline fill="none" stroke="#bfbfbf" points="36.5,-352.5 118.5,-352.5 "/>
<text text-anchor="middle" x="77.5" y="-340.5" font-family="SegoeUI" font-size="10.00"> </text>
<polyline fill="none" stroke="#bfbfbf" points="36.5,-333.5 118.5,-333.5 "/>
<text text-anchor="middle" x="77.5" y="-321.5" font-family="SegoeUI" font-size="10.00"> </text>
</a>
</g>
</g>
<!-- Node1&#45;&gt;Node0 -->
<g id="edge1" class="edge"><title>Node1&#45;&gt;Node0</title>
<path fill="none" stroke="midnightblue" d="M77.5,-304.265C77.5,-296.182 77.5,-287.193 77.5,-277.704"/>
<polygon fill="none" stroke="midnightblue" points="74.0001,-304.336 77.5,-314.336 81.0001,-304.336 74.0001,-304.336"/>
</g>
</g>
</svg>
