<?xml version="1.0" encoding="UTF-8" standalone="no"?>
<!DOCTYPE svg PUBLIC "-//W3C//DTD SVG 1.1//EN"
 "http://www.w3.org/Graphics/SVG/1.1/DTD/svg11.dtd">
<!-- Generated by graphviz version 2.38.0 (20140413.2041)
 -->
<!-- Title: Juniper.Input.Pointers.Motion.AbstractHandTrackerConfiguration&lt; HandIDType, ButtonIDType &gt; Pages: 1 -->
<svg width="179pt" height="577pt"
 viewBox="0.00 0.00 179.00 577.00" xmlns="http://www.w3.org/2000/svg" xmlns:xlink="http://www.w3.org/1999/xlink">
<g id="graph0" class="graph" transform="scale(1 1) rotate(0) translate(4 573)">
<title>Juniper.Input.Pointers.Motion.AbstractHandTrackerConfiguration&lt; HandIDType, ButtonIDType &gt;</title>
<polygon fill="white" stroke="none" points="-4,4 -4,-573 175,-573 175,4 -4,4"/>
<!-- Node0 -->
<g id="node1" class="node"><title>Node0</title>
<g id="a_node1"><a xlink:title=" ">
<polygon fill="#bfbfbf" stroke="black" points="3.5,-233.5 3.5,-312.5 167.5,-312.5 167.5,-233.5 3.5,-233.5"/>
<text text-anchor="start" x="11.5" y="-300.5" font-family="SegoeUI" font-size="10.00">Juniper.Input.Pointers.Motion.</text>
<text text-anchor="start" x="11.5" y="-289.5" font-family="SegoeUI" font-size="10.00">AbstractHandTrackerConfiguration</text>
<text text-anchor="middle" x="85.5" y="-278.5" font-family="SegoeUI" font-size="10.00">&lt; HandIDType, ButtonIDType &gt;</text>
<polyline fill="none" stroke="black" points="3.5,-271.5 167.5,-271.5 "/>
<text text-anchor="start" x="11.5" y="-259.5" font-family="SegoeUI" font-size="10.00">+ PointerNameStub</text>
<polyline fill="none" stroke="black" points="3.5,-252.5 167.5,-252.5 "/>
<text text-anchor="middle" x="85.5" y="-240.5" font-family="SegoeUI" font-size="10.00"> </text>
</a>
</g>
</g>
<!-- Node3 -->
<g id="node4" class="node"><title>Node3</title>
<g id="a_node4"><a xlink:href="../../d2/d45/class_juniper_1_1_input_1_1_pointers_1_1_motion_1_1_abstract_hand_tracker_configuration.html" target="_top" xlink:title=" ">
<polygon fill="white" stroke="black" points="3.5,-106.5 3.5,-185.5 167.5,-185.5 167.5,-106.5 3.5,-106.5"/>
<text text-anchor="start" x="11.5" y="-173.5" font-family="SegoeUI" font-size="10.00">Juniper.Input.Pointers.Motion.</text>
<text text-anchor="start" x="11.5" y="-162.5" font-family="SegoeUI" font-size="10.00">AbstractHandTrackerConfiguration</text>
<text text-anchor="middle" x="85.5" y="-151.5" font-family="SegoeUI" font-size="10.00">&lt; Unary, Unary &gt;</text>
<polyline fill="none" stroke="black" points="3.5,-144.5 167.5,-144.5 "/>
<text text-anchor="start" x="11.5" y="-132.5" font-family="SegoeUI" font-size="10.00">+ PointerNameStub</text>
<polyline fill="none" stroke="black" points="3.5,-125.5 167.5,-125.5 "/>
<text text-anchor="middle" x="85.5" y="-113.5" font-family="SegoeUI" font-size="10.00"> </text>
</a>
</g>
</g>
<!-- Node0&#45;&gt;Node3 -->
<g id="edge3" class="edge"><title>Node0&#45;&gt;Node3</title>
<path fill="none" stroke="orange" d="M85.5,-223.222C85.5,-210.745 85.5,-197.5 85.5,-185.612"/>
<polygon fill="orange" stroke="orange" points="82.0001,-223.476 85.5,-233.476 89.0001,-223.476 82.0001,-223.476"/>
<text text-anchor="middle" x="125" y="-207" font-family="SegoeUI" font-size="10.00"> &lt; Unary, Unary &gt;</text>
</g>
<!-- Node1 -->
<g id="node2" class="node"><title>Node1</title>
<g id="a_node2"><a xlink:href="../../d0/d65/class_juniper_1_1_input_1_1_pointers_1_1_motion_1_1_abstract_handed_pointer_configuration.html" target="_top" xlink:title=" ">
<polygon fill="white" stroke="black" points="0,-350.5 0,-440.5 171,-440.5 171,-350.5 0,-350.5"/>
<text text-anchor="start" x="8" y="-428.5" font-family="SegoeUI" font-size="10.00">AbstractHandedPointerConfiguration</text>
<text text-anchor="middle" x="85.5" y="-417.5" font-family="SegoeUI" font-size="10.00">&lt; HandIDType, ButtonIDType &gt;</text>
<polyline fill="none" stroke="black" points="0,-410.5 171,-410.5 "/>
<text text-anchor="start" x="8" y="-398.5" font-family="SegoeUI" font-size="10.00">+ HandType</text>
<text text-anchor="start" x="8" y="-387.5" font-family="SegoeUI" font-size="10.00">+ PointerNameStub</text>
<text text-anchor="start" x="8" y="-376.5" font-family="SegoeUI" font-size="10.00">+ this[Hand hand]</text>
<polyline fill="none" stroke="black" points="0,-369.5 171,-369.5 "/>
<text text-anchor="start" x="8" y="-357.5" font-family="SegoeUI" font-size="10.00">+ MakePointerName()</text>
</a>
</g>
</g>
<!-- Node1&#45;&gt;Node0 -->
<g id="edge1" class="edge"><title>Node1&#45;&gt;Node0</title>
<path fill="none" stroke="midnightblue" d="M85.5,-340.303C85.5,-330.966 85.5,-321.433 85.5,-312.614"/>
<polygon fill="none" stroke="midnightblue" points="82.0001,-340.314 85.5,-350.314 89.0001,-340.315 82.0001,-340.314"/>
</g>
<!-- Node2 -->
<g id="node3" class="node"><title>Node2</title>
<g id="a_node3"><a xlink:href="../../d0/d7e/class_juniper_1_1_input_1_1_pointers_1_1_abstract_pointer_configuration.html" target="_top" xlink:title=" ">
<polygon fill="white" stroke="black" points="16,-478.5 16,-568.5 155,-568.5 155,-478.5 16,-478.5"/>
<text text-anchor="start" x="24" y="-556.5" font-family="SegoeUI" font-size="10.00">AbstractPointerConfiguration</text>
<text text-anchor="middle" x="85.5" y="-545.5" font-family="SegoeUI" font-size="10.00">&lt; ButtonIDType &gt;</text>
<polyline fill="none" stroke="black" points="16,-538.5 155,-538.5 "/>
<text text-anchor="start" x="24" y="-526.5" font-family="SegoeUI" font-size="10.00">&#45; nativeKeys</text>
<polyline fill="none" stroke="black" points="16,-519.5 155,-519.5 "/>
<text text-anchor="start" x="24" y="-507.5" font-family="SegoeUI" font-size="10.00">+ Install()</text>
<text text-anchor="start" x="24" y="-496.5" font-family="SegoeUI" font-size="10.00">+ Uninstall()</text>
<text text-anchor="start" x="24" y="-485.5" font-family="SegoeUI" font-size="10.00"># AddButton()</text>
</a>
</g>
</g>
<!-- Node2&#45;&gt;Node1 -->
<g id="edge2" class="edge"><title>Node2&#45;&gt;Node1</title>
<path fill="none" stroke="midnightblue" d="M85.5,-468.226C85.5,-459.056 85.5,-449.633 85.5,-440.757"/>
<polygon fill="none" stroke="midnightblue" points="82.0001,-468.431 85.5,-478.431 89.0001,-468.431 82.0001,-468.431"/>
</g>
<!-- Node4 -->
<g id="node5" class="node"><title>Node4</title>
<g id="a_node5"><a xlink:href="../../d5/dc9/class_juniper_1_1_input_1_1_pointers_1_1_motion_1_1_no_hand_tracker_configuration.html" target="_top" xlink:title=" ">
<polygon fill="white" stroke="black" points="13.5,-0.5 13.5,-68.5 157.5,-68.5 157.5,-0.5 13.5,-0.5"/>
<text text-anchor="start" x="21.5" y="-56.5" font-family="SegoeUI" font-size="10.00">Juniper.Input.Pointers.Motion.</text>
<text text-anchor="middle" x="85.5" y="-45.5" font-family="SegoeUI" font-size="10.00">NoHandTrackerConfiguration</text>
<polyline fill="none" stroke="black" points="13.5,-38.5 157.5,-38.5 "/>
<text text-anchor="start" x="21.5" y="-26.5" font-family="SegoeUI" font-size="10.00">+ this[Hand hand]</text>
<polyline fill="none" stroke="black" points="13.5,-19.5 157.5,-19.5 "/>
<text text-anchor="middle" x="85.5" y="-7.5" font-family="SegoeUI" font-size="10.00"> </text>
</a>
</g>
</g>
<!-- Node3&#45;&gt;Node4 -->
<g id="edge4" class="edge"><title>Node3&#45;&gt;Node4</title>
<path fill="none" stroke="midnightblue" d="M85.5,-96.3805C85.5,-87.0158 85.5,-77.4088 85.5,-68.674"/>
<polygon fill="none" stroke="midnightblue" points="82.0001,-96.3944 85.5,-106.394 89.0001,-96.3944 82.0001,-96.3944"/>
</g>
</g>
</svg>
