<?xml version="1.0" encoding="UTF-8" standalone="no"?>
<!DOCTYPE svg PUBLIC "-//W3C//DTD SVG 1.1//EN"
 "http://www.w3.org/Graphics/SVG/1.1/DTD/svg11.dtd">
<!-- Generated by graphviz version 2.38.0 (20140413.2041)
 -->
<!-- Title: UnityEngine.TagManager Pages: 1 -->
<svg width="146pt" height="171pt"
 viewBox="0.00 0.00 145.50 171.00" xmlns="http://www.w3.org/2000/svg" xmlns:xlink="http://www.w3.org/1999/xlink">
<g id="graph0" class="graph" transform="scale(1 1) rotate(0) translate(4 167)">
<title>UnityEngine.TagManager</title>
<polygon fill="white" stroke="none" points="-4,4 -4,-167 141.5,-167 141.5,4 -4,4"/>
<!-- Node1 -->
<g id="node1" class="node"><title>Node1</title>
<g id="a_node1"><a xlink:title=" ">
<polygon fill="#bfbfbf" stroke="black" points="0,-0.5 0,-57.5 123,-57.5 123,-0.5 0,-0.5"/>
<text text-anchor="middle" x="61.5" y="-45.5" font-family="SegoeUI" font-size="10.00">UnityEngine.TagManager</text>
<polyline fill="none" stroke="black" points="0,-38.5 123,-38.5 "/>
<text text-anchor="middle" x="61.5" y="-26.5" font-family="SegoeUI" font-size="10.00"> </text>
<polyline fill="none" stroke="black" points="0,-19.5 123,-19.5 "/>
<text text-anchor="start" x="8" y="-7.5" font-family="SegoeUI" font-size="10.00">+ Normalize()</text>
</a>
</g>
</g>
<!-- Node2 -->
<g id="node2" class="node"><title>Node2</title>
<g id="a_node2"><a xlink:title=" ">
<polygon fill="white" stroke="#bfbfbf" points="42,-105.5 42,-162.5 81,-162.5 81,-105.5 42,-105.5"/>
<text text-anchor="middle" x="61.5" y="-150.5" font-family="SegoeUI" font-size="10.00">static</text>
<polyline fill="none" stroke="#bfbfbf" points="42,-143.5 81,-143.5 "/>
<text text-anchor="middle" x="61.5" y="-131.5" font-family="SegoeUI" font-size="10.00"> </text>
<polyline fill="none" stroke="#bfbfbf" points="42,-124.5 81,-124.5 "/>
<text text-anchor="middle" x="61.5" y="-112.5" font-family="SegoeUI" font-size="10.00"> </text>
</a>
</g>
</g>
<!-- Node2&#45;&gt;Node1 -->
<g id="edge1" class="edge"><title>Node2&#45;&gt;Node1</title>
<path fill="none" stroke="#404040" d="M61.5,-105.398C61.5,-94.5451 61.5,-81.8731 61.5,-70.0493"/>
<polygon fill="none" stroke="#404040" points="61.5001,-69.6783 57.5,-63.6783 61.5,-57.6783 65.5,-63.6783 61.5001,-69.6783"/>
<text text-anchor="middle" x="99.5" y="-79" font-family="SegoeUI" font-size="10.00"> &#45;DEFAULT_TAGS</text>
</g>
</g>
</svg>
