<?xml version="1.0" encoding="UTF-8" standalone="no"?>
<!DOCTYPE svg PUBLIC "-//W3C//DTD SVG 1.1//EN"
 "http://www.w3.org/Graphics/SVG/1.1/DTD/svg11.dtd">
<!-- Generated by graphviz version 2.38.0 (20140413.2041)
 -->
<!-- Title: Juniper.Unity.Haptics.AndroidAPI1Haptics Pages: 1 -->
<svg width="149pt" height="717pt"
 viewBox="0.00 0.00 149.00 717.00" xmlns="http://www.w3.org/2000/svg" xmlns:xlink="http://www.w3.org/1999/xlink">
<g id="graph0" class="graph" transform="scale(1 1) rotate(0) translate(4 713)">
<title>Juniper.Unity.Haptics.AndroidAPI1Haptics</title>
<polygon fill="white" stroke="none" points="-4,4 -4,-713 145,-713 145,4 -4,4"/>
<!-- Node0 -->
<g id="node1" class="node"><title>Node0</title>
<g id="a_node1"><a xlink:title="Implements haptic feedback for Android API levels less than 26. Vibration amplitude is not available ...">
<polygon fill="#bfbfbf" stroke="black" points="0,-0.5 0,-79.5 141,-79.5 141,-0.5 0,-0.5"/>
<text text-anchor="start" x="8" y="-67.5" font-family="SegoeUI" font-size="10.00">Juniper.Unity.Haptics.Android</text>
<text text-anchor="middle" x="70.5" y="-56.5" font-family="SegoeUI" font-size="10.00">API1Haptics</text>
<polyline fill="none" stroke="black" points="0,-49.5 141,-49.5 "/>
<text text-anchor="middle" x="70.5" y="-37.5" font-family="SegoeUI" font-size="10.00"> </text>
<polyline fill="none" stroke="black" points="0,-30.5 141,-30.5 "/>
<text text-anchor="start" x="8" y="-18.5" font-family="SegoeUI" font-size="10.00"># VibrateCoroutine()</text>
<text text-anchor="start" x="8" y="-7.5" font-family="SegoeUI" font-size="10.00"># PlayCoroutine()</text>
</a>
</g>
</g>
<!-- Node1 -->
<g id="node2" class="node"><title>Node1</title>
<g id="a_node2"><a xlink:href="../../d0/db8/class_juniper_1_1_unity_1_1_haptics_1_1_abstract_android_a_p_i_haptics.html" target="_top" xlink:title="Android has two APIs for haptic feedback, but they all pump through the Vibrator system service....">
<polygon fill="white" stroke="black" points="5.5,-116.5 5.5,-206.5 135.5,-206.5 135.5,-116.5 5.5,-116.5"/>
<text text-anchor="middle" x="70.5" y="-194.5" font-family="SegoeUI" font-size="10.00">AbstractAndroidAPIHaptics</text>
<polyline fill="none" stroke="black" points="5.5,-187.5 135.5,-187.5 "/>
<text text-anchor="start" x="13.5" y="-175.5" font-family="SegoeUI" font-size="10.00"># vibrator</text>
<polyline fill="none" stroke="black" points="5.5,-168.5 135.5,-168.5 "/>
<text text-anchor="start" x="13.5" y="-156.5" font-family="SegoeUI" font-size="10.00">+ Cancel()</text>
<text text-anchor="start" x="13.5" y="-145.5" font-family="SegoeUI" font-size="10.00"># Awake()</text>
<text text-anchor="start" x="13.5" y="-134.5" font-family="SegoeUI" font-size="10.00"># VibrateCoroutine()</text>
<text text-anchor="start" x="13.5" y="-123.5" font-family="SegoeUI" font-size="10.00"># PlayCoroutine()</text>
</a>
</g>
</g>
<!-- Node1&#45;&gt;Node0 -->
<g id="edge1" class="edge"><title>Node1&#45;&gt;Node0</title>
<path fill="none" stroke="midnightblue" d="M70.5,-106.079C70.5,-97.234 70.5,-88.2325 70.5,-79.8576"/>
<polygon fill="none" stroke="midnightblue" points="67.0001,-106.342 70.5,-116.342 74.0001,-106.342 67.0001,-106.342"/>
</g>
<!-- Node2 -->
<g id="node3" class="node"><title>Node2</title>
<g id="a_node3"><a xlink:href="../../de/d85/class_juniper_1_1_unity_1_1_haptics_1_1_abstract_haptic_expressor.html" target="_top" xlink:title="Non&#45;iOS systems do not have built&#45;in haptic patterns. This class replicates the functionality of the ...">
<polygon fill="white" stroke="black" points="10.5,-243.5 10.5,-443.5 130.5,-443.5 130.5,-243.5 10.5,-243.5"/>
<text text-anchor="middle" x="70.5" y="-431.5" font-family="SegoeUI" font-size="10.00">AbstractHapticExpressor</text>
<polyline fill="none" stroke="black" points="10.5,-424.5 130.5,-424.5 "/>
<text text-anchor="middle" x="70.5" y="-412.5" font-family="SegoeUI" font-size="10.00"> </text>
<polyline fill="none" stroke="black" points="10.5,-405.5 130.5,-405.5 "/>
<text text-anchor="start" x="18.5" y="-393.5" font-family="SegoeUI" font-size="10.00">+ Cancel()</text>
<text text-anchor="start" x="18.5" y="-382.5" font-family="SegoeUI" font-size="10.00">+ Play()</text>
<text text-anchor="start" x="18.5" y="-371.5" font-family="SegoeUI" font-size="10.00">+ Play()</text>
<text text-anchor="start" x="18.5" y="-360.5" font-family="SegoeUI" font-size="10.00">+ Vibrate()</text>
<text text-anchor="start" x="18.5" y="-349.5" font-family="SegoeUI" font-size="10.00">+ Vibrate()</text>
<text text-anchor="start" x="18.5" y="-338.5" font-family="SegoeUI" font-size="10.00">+ Play()</text>
<text text-anchor="start" x="18.5" y="-327.5" font-family="SegoeUI" font-size="10.00">+ Play()</text>
<text text-anchor="start" x="18.5" y="-316.5" font-family="SegoeUI" font-size="10.00">+ Vibrate()</text>
<text text-anchor="start" x="18.5" y="-305.5" font-family="SegoeUI" font-size="10.00"># VibrateCoroutine()</text>
<text text-anchor="start" x="18.5" y="-294.5" font-family="SegoeUI" font-size="10.00"># PlayCoroutine()</text>
<text text-anchor="start" x="18.5" y="-283.5" font-family="SegoeUI" font-size="10.00"># PlayCoroutine()</text>
<text text-anchor="start" x="18.5" y="-272.5" font-family="SegoeUI" font-size="10.00"># VibrateCoroutine()</text>
<text text-anchor="start" x="18.5" y="-261.5" font-family="SegoeUI" font-size="10.00">&#45; PlayCoroutine()</text>
<text text-anchor="start" x="18.5" y="-250.5" font-family="SegoeUI" font-size="10.00">&#45; VibrateCoroutine()</text>
</a>
</g>
</g>
<!-- Node2&#45;&gt;Node1 -->
<g id="edge2" class="edge"><title>Node2&#45;&gt;Node1</title>
<path fill="none" stroke="midnightblue" d="M70.5,-233.226C70.5,-224.039 70.5,-215.134 70.5,-206.917"/>
<polygon fill="none" stroke="midnightblue" points="67.0001,-233.286 70.5,-243.286 74.0001,-233.286 67.0001,-233.286"/>
</g>
<!-- Node3 -->
<g id="node4" class="node"><title>Node3</title>
<g id="a_node4"><a xlink:href="../../dd/d24/class_juniper_1_1_unity_1_1_haptics_1_1_abstract_haptic_device.html" target="_top" xlink:title="An interface for all haptic device subsystems.">
<polygon fill="white" stroke="black" points="17.5,-480.5 17.5,-614.5 123.5,-614.5 123.5,-480.5 17.5,-480.5"/>
<text text-anchor="middle" x="70.5" y="-602.5" font-family="SegoeUI" font-size="10.00">AbstractHapticDevice</text>
<polyline fill="none" stroke="black" points="17.5,-595.5 123.5,-595.5 "/>
<text text-anchor="middle" x="70.5" y="-583.5" font-family="SegoeUI" font-size="10.00"> </text>
<polyline fill="none" stroke="black" points="17.5,-576.5 123.5,-576.5 "/>
<text text-anchor="start" x="25.5" y="-564.5" font-family="SegoeUI" font-size="10.00">+ Cancel()</text>
<text text-anchor="start" x="25.5" y="-553.5" font-family="SegoeUI" font-size="10.00">+ Play()</text>
<text text-anchor="start" x="25.5" y="-542.5" font-family="SegoeUI" font-size="10.00">+ Vibrate()</text>
<text text-anchor="start" x="25.5" y="-531.5" font-family="SegoeUI" font-size="10.00">+ Play()</text>
<text text-anchor="start" x="25.5" y="-520.5" font-family="SegoeUI" font-size="10.00">+ Play()</text>
<text text-anchor="start" x="25.5" y="-509.5" font-family="SegoeUI" font-size="10.00">+ Play()</text>
<text text-anchor="start" x="25.5" y="-498.5" font-family="SegoeUI" font-size="10.00">+ Vibrate()</text>
<text text-anchor="start" x="25.5" y="-487.5" font-family="SegoeUI" font-size="10.00">+ Vibrate()</text>
</a>
</g>
</g>
<!-- Node3&#45;&gt;Node2 -->
<g id="edge3" class="edge"><title>Node3&#45;&gt;Node2</title>
<path fill="none" stroke="midnightblue" d="M70.5,-470.302C70.5,-461.62 70.5,-452.677 70.5,-443.752"/>
<polygon fill="none" stroke="midnightblue" points="67.0001,-470.358 70.5,-480.358 74.0001,-470.358 67.0001,-470.358"/>
</g>
<!-- Node4 -->
<g id="node5" class="node"><title>Node4</title>
<g id="a_node5"><a xlink:title=" ">
<polygon fill="white" stroke="#bfbfbf" points="29.5,-651.5 29.5,-708.5 111.5,-708.5 111.5,-651.5 29.5,-651.5"/>
<text text-anchor="middle" x="70.5" y="-696.5" font-family="SegoeUI" font-size="10.00">MonoBehaviour</text>
<polyline fill="none" stroke="#bfbfbf" points="29.5,-689.5 111.5,-689.5 "/>
<text text-anchor="middle" x="70.5" y="-677.5" font-family="SegoeUI" font-size="10.00"> </text>
<polyline fill="none" stroke="#bfbfbf" points="29.5,-670.5 111.5,-670.5 "/>
<text text-anchor="middle" x="70.5" y="-658.5" font-family="SegoeUI" font-size="10.00"> </text>
</a>
</g>
</g>
<!-- Node4&#45;&gt;Node3 -->
<g id="edge4" class="edge"><title>Node4&#45;&gt;Node3</title>
<path fill="none" stroke="midnightblue" d="M70.5,-641.16C70.5,-632.782 70.5,-623.668 70.5,-614.533"/>
<polygon fill="none" stroke="midnightblue" points="67.0001,-641.324 70.5,-651.324 74.0001,-641.324 67.0001,-641.324"/>
</g>
</g>
</svg>
