<?xml version="1.0" encoding="UTF-8" standalone="no"?>
<!DOCTYPE svg PUBLIC "-//W3C//DTD SVG 1.1//EN"
 "http://www.w3.org/Graphics/SVG/1.1/DTD/svg11.dtd">
<!-- Generated by graphviz version 2.38.0 (20140413.2041)
 -->
<!-- Title: Juniper.AbstractNamedAction&lt; ActionT &gt; Pages: 1 -->
<svg width="150pt" height="226pt"
 viewBox="0.00 0.00 150.00 226.00" xmlns="http://www.w3.org/2000/svg" xmlns:xlink="http://www.w3.org/1999/xlink">
<g id="graph0" class="graph" transform="scale(1 1) rotate(0) translate(4 222)">
<title>Juniper.AbstractNamedAction&lt; ActionT &gt;</title>
<polygon fill="white" stroke="none" points="-4,4 -4,-222 146,-222 146,4 -4,4"/>
<!-- Node4 -->
<g id="node1" class="node"><title>Node4</title>
<g id="a_node1"><a xlink:title=" ">
<polygon fill="#bfbfbf" stroke="black" points="0,-0.5 0,-112.5 142,-112.5 142,-0.5 0,-0.5"/>
<text text-anchor="start" x="8" y="-100.5" font-family="SegoeUI" font-size="10.00">Juniper.AbstractNamedAction</text>
<text text-anchor="middle" x="71" y="-89.5" font-family="SegoeUI" font-size="10.00">&lt; ActionT &gt;</text>
<polyline fill="none" stroke="black" points="0,-82.5 142,-82.5 "/>
<text text-anchor="start" x="8" y="-70.5" font-family="SegoeUI" font-size="10.00">+ Method</text>
<text text-anchor="start" x="8" y="-59.5" font-family="SegoeUI" font-size="10.00">+ Name</text>
<text text-anchor="start" x="8" y="-48.5" font-family="SegoeUI" font-size="10.00">+ Action</text>
<polyline fill="none" stroke="black" points="0,-41.5 142,-41.5 "/>
<text text-anchor="start" x="8" y="-29.5" font-family="SegoeUI" font-size="10.00">+ ToAction()</text>
<text text-anchor="start" x="8" y="-18.5" font-family="SegoeUI" font-size="10.00">+ operator ActionT()</text>
<text text-anchor="start" x="8" y="-7.5" font-family="SegoeUI" font-size="10.00"># AbstractNamedAction()</text>
</a>
</g>
</g>
<!-- Node5 -->
<g id="node2" class="node"><title>Node5</title>
<g id="a_node2"><a xlink:href="../../d8/d48/interface_juniper_1_1_i_named_action.html" target="_top" xlink:title=" ">
<polygon fill="white" stroke="black" points="33,-149.5 33,-217.5 109,-217.5 109,-149.5 33,-149.5"/>
<text text-anchor="middle" x="71" y="-205.5" font-family="SegoeUI" font-size="10.00">INamedAction</text>
<polyline fill="none" stroke="black" points="33,-198.5 109,-198.5 "/>
<text text-anchor="start" x="41" y="-186.5" font-family="SegoeUI" font-size="10.00">+ Name</text>
<text text-anchor="start" x="41" y="-175.5" font-family="SegoeUI" font-size="10.00">+ Method</text>
<polyline fill="none" stroke="black" points="33,-168.5 109,-168.5 "/>
<text text-anchor="middle" x="71" y="-156.5" font-family="SegoeUI" font-size="10.00"> </text>
</a>
</g>
</g>
<!-- Node5&#45;&gt;Node4 -->
<g id="edge1" class="edge"><title>Node5&#45;&gt;Node4</title>
<path fill="none" stroke="midnightblue" d="M71,-139.182C71,-130.604 71,-121.493 71,-112.585"/>
<polygon fill="none" stroke="midnightblue" points="67.5001,-139.33 71,-149.33 74.5001,-139.331 67.5001,-139.33"/>
</g>
</g>
</svg>
