<?xml version="1.0" encoding="UTF-8" standalone="no"?>
<!DOCTYPE svg PUBLIC "-//W3C//DTD SVG 1.1//EN"
 "http://www.w3.org/Graphics/SVG/1.1/DTD/svg11.dtd">
<!-- Generated by graphviz version 2.38.0 (20140413.2041)
 -->
<!-- Title: Juniper.Imaging.IImageCodec&lt; T &gt; Pages: 1 -->
<svg width="436pt" height="488pt"
 viewBox="0.00 0.00 436.00 488.00" xmlns="http://www.w3.org/2000/svg" xmlns:xlink="http://www.w3.org/1999/xlink">
<g id="graph0" class="graph" transform="scale(1 1) rotate(0) translate(4 484)">
<title>Juniper.Imaging.IImageCodec&lt; T &gt;</title>
<polygon fill="white" stroke="none" points="-4,4 -4,-484 432,-484 432,4 -4,4"/>
<!-- Node18 -->
<g id="node1" class="node"><title>Node18</title>
<g id="a_node1"><a xlink:title=" ">
<polygon fill="#bfbfbf" stroke="black" points="106,-0.5 106,-57.5 276,-57.5 276,-0.5 106,-0.5"/>
<text text-anchor="middle" x="191" y="-45.5" font-family="SegoeUI" font-size="10.00">Juniper.Imaging.IImageCodec&lt; T &gt;</text>
<polyline fill="none" stroke="black" points="106,-38.5 276,-38.5 "/>
<text text-anchor="middle" x="191" y="-26.5" font-family="SegoeUI" font-size="10.00"> </text>
<polyline fill="none" stroke="black" points="106,-19.5 276,-19.5 "/>
<text text-anchor="middle" x="191" y="-7.5" font-family="SegoeUI" font-size="10.00"> </text>
</a>
</g>
</g>
<!-- Node19 -->
<g id="node2" class="node"><title>Node19</title>
<g id="a_node2"><a xlink:href="../../da/df2/interface_juniper_1_1_i_o_1_1_i_factory.html" target="_top" xlink:title=" ">
<polygon fill="white" stroke="black" points="111.5,-95.5 111.5,-152.5 270.5,-152.5 270.5,-95.5 111.5,-95.5"/>
<text text-anchor="middle" x="191" y="-140.5" font-family="SegoeUI" font-size="10.00">IFactory&lt; T, MediaType.Image &gt;</text>
<polyline fill="none" stroke="black" points="111.5,-133.5 270.5,-133.5 "/>
<text text-anchor="middle" x="191" y="-121.5" font-family="SegoeUI" font-size="10.00"> </text>
<polyline fill="none" stroke="black" points="111.5,-114.5 270.5,-114.5 "/>
<text text-anchor="middle" x="191" y="-102.5" font-family="SegoeUI" font-size="10.00"> </text>
</a>
</g>
</g>
<!-- Node19&#45;&gt;Node18 -->
<g id="edge1" class="edge"><title>Node19&#45;&gt;Node18</title>
<path fill="none" stroke="midnightblue" d="M191,-85.2352C191,-76.0276 191,-66.3459 191,-57.7053"/>
<polygon fill="none" stroke="midnightblue" points="187.5,-85.3487 191,-95.3487 194.5,-85.3488 187.5,-85.3487"/>
</g>
<!-- Node20 -->
<g id="node3" class="node"><title>Node20</title>
<g id="a_node3"><a xlink:href="../../da/df2/interface_juniper_1_1_i_o_1_1_i_factory.html" target="_top" xlink:title=" ">
<polygon fill="white" stroke="black" points="111,-200.5 111,-268.5 271,-268.5 271,-200.5 111,-200.5"/>
<text text-anchor="start" x="119" y="-256.5" font-family="SegoeUI" font-size="10.00">Juniper.IO.IFactory</text>
<text text-anchor="middle" x="191" y="-245.5" font-family="SegoeUI" font-size="10.00">&lt; ResultT, out out MediaTypeT &gt;</text>
<polyline fill="none" stroke="black" points="111,-238.5 271,-238.5 "/>
<text text-anchor="middle" x="191" y="-226.5" font-family="SegoeUI" font-size="10.00"> </text>
<polyline fill="none" stroke="black" points="111,-219.5 271,-219.5 "/>
<text text-anchor="middle" x="191" y="-207.5" font-family="SegoeUI" font-size="10.00"> </text>
</a>
</g>
</g>
<!-- Node20&#45;&gt;Node19 -->
<g id="edge2" class="edge"><title>Node20&#45;&gt;Node19</title>
<path fill="none" stroke="orange" d="M191,-190.064C191,-177.511 191,-164.152 191,-152.827"/>
<polygon fill="orange" stroke="orange" points="187.5,-190.357 191,-200.357 194.5,-190.357 187.5,-190.357"/>
<text text-anchor="middle" x="247" y="-174" font-family="SegoeUI" font-size="10.00"> &lt; T, MediaType.Image &gt;</text>
</g>
<!-- Node21 -->
<g id="node4" class="node"><title>Node21</title>
<g id="a_node4"><a xlink:href="../../de/d17/interface_juniper_1_1_i_o_1_1_i_serializer.html" target="_top" xlink:title=" ">
<polygon fill="white" stroke="black" points="0,-306.5 0,-363.5 112,-363.5 112,-306.5 0,-306.5"/>
<text text-anchor="middle" x="56" y="-351.5" font-family="SegoeUI" font-size="10.00">ISerializer&lt; ResultT &gt;</text>
<polyline fill="none" stroke="black" points="0,-344.5 112,-344.5 "/>
<text text-anchor="middle" x="56" y="-332.5" font-family="SegoeUI" font-size="10.00"> </text>
<polyline fill="none" stroke="black" points="0,-325.5 112,-325.5 "/>
<text text-anchor="start" x="8" y="-313.5" font-family="SegoeUI" font-size="10.00">+ Serialize()</text>
</a>
</g>
</g>
<!-- Node21&#45;&gt;Node20 -->
<g id="edge3" class="edge"><title>Node21&#45;&gt;Node20</title>
<path fill="none" stroke="midnightblue" d="M102.075,-300.383C116.158,-290.107 131.63,-278.818 145.664,-268.578"/>
<polygon fill="none" stroke="midnightblue" points="99.9796,-297.579 93.9643,-306.3 104.106,-303.233 99.9796,-297.579"/>
</g>
<!-- Node22 -->
<g id="node5" class="node"><title>Node22</title>
<g id="a_node5"><a xlink:href="../../de/d17/interface_juniper_1_1_i_o_1_1_i_serializer.html" target="_top" xlink:title=" ">
<polygon fill="white" stroke="black" points="2.5,-411.5 2.5,-479.5 109.5,-479.5 109.5,-411.5 2.5,-411.5"/>
<text text-anchor="start" x="10.5" y="-467.5" font-family="SegoeUI" font-size="10.00">Juniper.IO.ISerializer</text>
<text text-anchor="middle" x="56" y="-456.5" font-family="SegoeUI" font-size="10.00">&lt; in in T &gt;</text>
<polyline fill="none" stroke="black" points="2.5,-449.5 109.5,-449.5 "/>
<text text-anchor="middle" x="56" y="-437.5" font-family="SegoeUI" font-size="10.00"> </text>
<polyline fill="none" stroke="black" points="2.5,-430.5 109.5,-430.5 "/>
<text text-anchor="start" x="10.5" y="-418.5" font-family="SegoeUI" font-size="10.00">+ Serialize()</text>
</a>
</g>
</g>
<!-- Node22&#45;&gt;Node21 -->
<g id="edge4" class="edge"><title>Node22&#45;&gt;Node21</title>
<path fill="none" stroke="orange" d="M56,-401.064C56,-388.511 56,-375.152 56,-363.827"/>
<polygon fill="orange" stroke="orange" points="52.5001,-401.357 56,-411.357 59.5001,-401.357 52.5001,-401.357"/>
<text text-anchor="middle" x="83.5" y="-385" font-family="SegoeUI" font-size="10.00"> &lt; ResultT &gt;</text>
</g>
<!-- Node23 -->
<g id="node6" class="node"><title>Node23</title>
<g id="a_node6"><a xlink:href="../../d1/d4d/interface_juniper_1_1_i_o_1_1_i_deserializer.html" target="_top" xlink:title=" ">
<polygon fill="white" stroke="black" points="130,-306.5 130,-363.5 252,-363.5 252,-306.5 130,-306.5"/>
<text text-anchor="middle" x="191" y="-351.5" font-family="SegoeUI" font-size="10.00">IDeserializer&lt; ResultT &gt;</text>
<polyline fill="none" stroke="black" points="130,-344.5 252,-344.5 "/>
<text text-anchor="middle" x="191" y="-332.5" font-family="SegoeUI" font-size="10.00"> </text>
<polyline fill="none" stroke="black" points="130,-325.5 252,-325.5 "/>
<text text-anchor="start" x="138" y="-313.5" font-family="SegoeUI" font-size="10.00">+ Deserialize()</text>
</a>
</g>
</g>
<!-- Node23&#45;&gt;Node20 -->
<g id="edge5" class="edge"><title>Node23&#45;&gt;Node20</title>
<path fill="none" stroke="midnightblue" d="M191,-296.007C191,-286.962 191,-277.383 191,-268.578"/>
<polygon fill="none" stroke="midnightblue" points="187.5,-296.3 191,-306.3 194.5,-296.3 187.5,-296.3"/>
</g>
<!-- Node24 -->
<g id="node7" class="node"><title>Node24</title>
<g id="a_node7"><a xlink:href="../../d1/d4d/interface_juniper_1_1_i_o_1_1_i_deserializer.html" target="_top" xlink:title=" ">
<polygon fill="white" stroke="black" points="133,-411.5 133,-479.5 249,-479.5 249,-411.5 133,-411.5"/>
<text text-anchor="start" x="141" y="-467.5" font-family="SegoeUI" font-size="10.00">Juniper.IO.IDeserializer</text>
<text text-anchor="middle" x="191" y="-456.5" font-family="SegoeUI" font-size="10.00">&lt; out out ResultT &gt;</text>
<polyline fill="none" stroke="black" points="133,-449.5 249,-449.5 "/>
<text text-anchor="middle" x="191" y="-437.5" font-family="SegoeUI" font-size="10.00"> </text>
<polyline fill="none" stroke="black" points="133,-430.5 249,-430.5 "/>
<text text-anchor="start" x="141" y="-418.5" font-family="SegoeUI" font-size="10.00">+ Deserialize()</text>
</a>
</g>
</g>
<!-- Node24&#45;&gt;Node23 -->
<g id="edge6" class="edge"><title>Node24&#45;&gt;Node23</title>
<path fill="none" stroke="orange" d="M191,-401.064C191,-388.511 191,-375.152 191,-363.827"/>
<polygon fill="orange" stroke="orange" points="187.5,-401.357 191,-411.357 194.5,-401.357 187.5,-401.357"/>
<text text-anchor="middle" x="218.5" y="-385" font-family="SegoeUI" font-size="10.00"> &lt; ResultT &gt;</text>
</g>
<!-- Node25 -->
<g id="node8" class="node"><title>Node25</title>
<g id="a_node8"><a xlink:href="../../da/d97/interface_juniper_1_1_i_o_1_1_i_content_handler.html" target="_top" xlink:title=" ">
<polygon fill="white" stroke="black" points="270,-306.5 270,-363.5 428,-363.5 428,-306.5 270,-306.5"/>
<text text-anchor="middle" x="349" y="-351.5" font-family="SegoeUI" font-size="10.00">IContentHandler&lt; MediaTypeT &gt;</text>
<polyline fill="none" stroke="black" points="270,-344.5 428,-344.5 "/>
<text text-anchor="middle" x="349" y="-332.5" font-family="SegoeUI" font-size="10.00"> </text>
<polyline fill="none" stroke="black" points="270,-325.5 428,-325.5 "/>
<text text-anchor="middle" x="349" y="-313.5" font-family="SegoeUI" font-size="10.00"> </text>
</a>
</g>
</g>
<!-- Node25&#45;&gt;Node20 -->
<g id="edge7" class="edge"><title>Node25&#45;&gt;Node20</title>
<path fill="none" stroke="midnightblue" d="M295.998,-300.958C279.27,-290.529 260.792,-279.009 244.06,-268.578"/>
<polygon fill="none" stroke="midnightblue" points="294.23,-303.98 304.568,-306.3 297.933,-298.04 294.23,-303.98"/>
</g>
<!-- Node26 -->
<g id="node9" class="node"><title>Node26</title>
<g id="a_node9"><a xlink:href="../../da/d97/interface_juniper_1_1_i_o_1_1_i_content_handler.html" target="_top" xlink:title=" ">
<polygon fill="white" stroke="black" points="283,-417 283,-474 415,-474 415,-417 283,-417"/>
<text text-anchor="middle" x="349" y="-462" font-family="SegoeUI" font-size="10.00">Juniper.IO.IContentHandler</text>
<polyline fill="none" stroke="black" points="283,-455 415,-455 "/>
<text text-anchor="middle" x="349" y="-443" font-family="SegoeUI" font-size="10.00"> </text>
<polyline fill="none" stroke="black" points="283,-436 415,-436 "/>
<text text-anchor="middle" x="349" y="-424" font-family="SegoeUI" font-size="10.00"> </text>
</a>
</g>
</g>
<!-- Node26&#45;&gt;Node25 -->
<g id="edge8" class="edge"><title>Node26&#45;&gt;Node25</title>
<path fill="none" stroke="orange" d="M349,-406.436C349,-392.327 349,-376.611 349,-363.609"/>
<polygon fill="orange" stroke="orange" points="345.5,-406.84 349,-416.84 352.5,-406.84 345.5,-406.84"/>
<text text-anchor="middle" x="387" y="-385" font-family="SegoeUI" font-size="10.00"> &lt; MediaTypeT &gt;</text>
</g>
</g>
</svg>
