<?xml version="1.0" encoding="UTF-8" standalone="no"?>
<!DOCTYPE svg PUBLIC "-//W3C//DTD SVG 1.1//EN"
 "http://www.w3.org/Graphics/SVG/1.1/DTD/svg11.dtd">
<!-- Generated by graphviz version 2.38.0 (20140413.2041)
 -->
<!-- Title: BitMiracle.LibJpeg.RawImage Pages: 1 -->
<svg width="149pt" height="303pt"
 viewBox="0.00 0.00 149.00 303.00" xmlns="http://www.w3.org/2000/svg" xmlns:xlink="http://www.w3.org/1999/xlink">
<g id="graph0" class="graph" transform="scale(1 1) rotate(0) translate(4 299)">
<title>BitMiracle.LibJpeg.RawImage</title>
<polygon fill="white" stroke="none" points="-4,4 -4,-299 145,-299 145,4 -4,4"/>
<!-- Node2 -->
<g id="node1" class="node"><title>Node2</title>
<g id="a_node1"><a xlink:title=" ">
<polygon fill="#bfbfbf" stroke="black" points="0,-0.5 0,-145.5 141,-145.5 141,-0.5 0,-0.5"/>
<text text-anchor="middle" x="70.5" y="-133.5" font-family="SegoeUI" font-size="10.00">BitMiracle.LibJpeg.RawImage</text>
<polyline fill="none" stroke="black" points="0,-126.5 141,-126.5 "/>
<text text-anchor="start" x="8" y="-114.5" font-family="SegoeUI" font-size="10.00">+ Width</text>
<text text-anchor="start" x="8" y="-103.5" font-family="SegoeUI" font-size="10.00">+ Height</text>
<text text-anchor="start" x="8" y="-92.5" font-family="SegoeUI" font-size="10.00">+ ComponentsPerPixel</text>
<text text-anchor="start" x="8" y="-81.5" font-family="SegoeUI" font-size="10.00">+ Colorspace</text>
<text text-anchor="start" x="8" y="-70.5" font-family="SegoeUI" font-size="10.00">&#45; m_samples</text>
<text text-anchor="start" x="8" y="-59.5" font-family="SegoeUI" font-size="10.00">&#45; m_currentRow</text>
<polyline fill="none" stroke="black" points="0,-52.5 141,-52.5 "/>
<text text-anchor="start" x="8" y="-40.5" font-family="SegoeUI" font-size="10.00">+ BeginRead()</text>
<text text-anchor="start" x="8" y="-29.5" font-family="SegoeUI" font-size="10.00">+ GetPixelRow()</text>
<text text-anchor="start" x="8" y="-18.5" font-family="SegoeUI" font-size="10.00">+ EndRead()</text>
<text text-anchor="start" x="8" y="-7.5" font-family="SegoeUI" font-size="10.00">&#45; RawImage()</text>
</a>
</g>
</g>
<!-- Node3 -->
<g id="node2" class="node"><title>Node3</title>
<g id="a_node2"><a xlink:href="../../d7/dec/interface_bit_miracle_1_1_lib_jpeg_1_1_i_raw_image.html" target="_top" xlink:title=" ">
<polygon fill="white" stroke="black" points="14,-182.5 14,-294.5 127,-294.5 127,-182.5 14,-182.5"/>
<text text-anchor="middle" x="70.5" y="-282.5" font-family="SegoeUI" font-size="10.00">IRawImage</text>
<polyline fill="none" stroke="black" points="14,-275.5 127,-275.5 "/>
<text text-anchor="start" x="22" y="-263.5" font-family="SegoeUI" font-size="10.00">+ Width</text>
<text text-anchor="start" x="22" y="-252.5" font-family="SegoeUI" font-size="10.00">+ Height</text>
<text text-anchor="start" x="22" y="-241.5" font-family="SegoeUI" font-size="10.00">+ Colorspace</text>
<text text-anchor="start" x="22" y="-230.5" font-family="SegoeUI" font-size="10.00">+ ComponentsPerPixel</text>
<polyline fill="none" stroke="black" points="14,-223.5 127,-223.5 "/>
<text text-anchor="start" x="22" y="-211.5" font-family="SegoeUI" font-size="10.00">+ BeginRead()</text>
<text text-anchor="start" x="22" y="-200.5" font-family="SegoeUI" font-size="10.00">+ GetPixelRow()</text>
<text text-anchor="start" x="22" y="-189.5" font-family="SegoeUI" font-size="10.00">+ EndRead()</text>
</a>
</g>
</g>
<!-- Node3&#45;&gt;Node2 -->
<g id="edge1" class="edge"><title>Node3&#45;&gt;Node2</title>
<path fill="none" stroke="midnightblue" d="M70.5,-172.05C70.5,-163.328 70.5,-154.347 70.5,-145.528"/>
<polygon fill="none" stroke="midnightblue" points="67.0001,-172.146 70.5,-182.146 74.0001,-172.146 67.0001,-172.146"/>
</g>
</g>
</svg>
