<?xml version="1.0" encoding="UTF-8" standalone="no"?>
<!DOCTYPE svg PUBLIC "-//W3C//DTD SVG 1.1//EN"
 "http://www.w3.org/Graphics/SVG/1.1/DTD/svg11.dtd">
<!-- Generated by graphviz version 2.38.0 (20140413.2041)
 -->
<!-- Title: Juniper.Threading.AbstractBackgroundThread Pages: 1 -->
<!--zoomable 628 -->
<svg id="main" version="1.1" xmlns="http://www.w3.org/2000/svg" xmlns:xlink="http://www.w3.org/1999/xlink" xml:space="preserve" onload="init(evt)">
<style type="text/css"><![CDATA[
.edge:hover path { stroke: red; }
.edge:hover polygon { stroke: red; fill: red; }
]]></style>
<script type="text/javascript"><![CDATA[
var edges = document.getElementsByTagName('g');
if (edges && edges.length) {
  for (var i=0;i<edges.length;i++) {
    if (edges[i].id.substr(0,4)=='edge') {
      edges[i].setAttribute('class','edge');
    }
  }
}
]]></script>
        <defs>
                <circle id="rim" cx="0" cy="0" r="7"/>
                <circle id="rim2" cx="0" cy="0" r="3.5"/>
                <g id="zoomPlus">
                        <use xlink:href="#rim" fill="#404040">
                                <set attributeName="fill" to="#808080" begin="zoomplus.mouseover" end="zoomplus.mouseout"/>
                        </use>
                        <path d="M-4,0h8M0,-4v8" fill="none" stroke="white" stroke-width="1.5" pointer-events="none"/>
                </g>
                <g id="zoomMin">
                        <use xlink:href="#rim" fill="#404040">
                                <set attributeName="fill" to="#808080" begin="zoomminus.mouseover" end="zoomminus.mouseout"/>
                        </use>
                        <path d="M-4,0h8" fill="none" stroke="white" stroke-width="1.5" pointer-events="none"/>
                </g>
                <g id="dirArrow">
                        <path fill="none" stroke="white" stroke-width="1.5" d="M0,-3.0v7 M-2.5,-0.5L0,-3.0L2.5,-0.5"/>
                </g>
               <g id="resetDef">
                       <use xlink:href="#rim2" fill="#404040">
                               <set attributeName="fill" to="#808080" begin="reset.mouseover" end="reset.mouseout"/>
                       </use>
               </g>
        </defs>

<script type="text/javascript">
var viewWidth = 300;
var viewHeight = 628;
var sectionId = 'dynsection-0';
</script>
<script xlink:href="../../svgpan.js"/>
<svg id="graph" class="graph">
<g id="viewport">
<title>Juniper.Threading.AbstractBackgroundThread</title>
<polygon fill="white" stroke="none" points="-4,4 -4,-624 296,-624 296,4 -4,4"/>
<!-- Node0 -->
<g id="node1" class="node"><title>Node0</title>
<g id="a_node1"><a xlink:title="An abstract class for performing an operation on a background thread.">
<polygon fill="#bfbfbf" stroke="black" points="81,-485.5 81,-619.5 213,-619.5 213,-485.5 81,-485.5"/>
<text text-anchor="start" x="89" y="-607.5" font-family="SegoeUI" font-size="10.00">Juniper.Threading.Abstract</text>
<text text-anchor="middle" x="147" y="-596.5" font-family="SegoeUI" font-size="10.00">BackgroundThread</text>
<polyline fill="none" stroke="black" points="81,-589.5 213,-589.5 "/>
<text text-anchor="start" x="89" y="-577.5" font-family="SegoeUI" font-size="10.00">+ Running</text>
<text text-anchor="start" x="89" y="-566.5" font-family="SegoeUI" font-size="10.00">&#45; running</text>
<polyline fill="none" stroke="black" points="81,-559.5 213,-559.5 "/>
<text text-anchor="start" x="89" y="-547.5" font-family="SegoeUI" font-size="10.00"># OnError()</text>
<text text-anchor="start" x="89" y="-536.5" font-family="SegoeUI" font-size="10.00"># Awake()</text>
<text text-anchor="start" x="89" y="-525.5" font-family="SegoeUI" font-size="10.00"># Begin()</text>
<text text-anchor="start" x="89" y="-514.5" font-family="SegoeUI" font-size="10.00"># OnBegin()</text>
<text text-anchor="start" x="89" y="-503.5" font-family="SegoeUI" font-size="10.00"># Execute()</text>
<text text-anchor="start" x="89" y="-492.5" font-family="SegoeUI" font-size="10.00">&#45; Run()</text>
</a>
</g>
</g>
<!-- Node1 -->
<g id="node2" class="node"><title>Node1</title>
<g id="a_node2"><a xlink:href="../../d1/d24/class_juniper_1_1_threading_1_1_abstract_background_repeating_thread.html" target="_top" xlink:title="Performs an operation in a loop on a background thread.">
<polygon fill="white" stroke="black" points="0,-325.5 0,-448.5 140,-448.5 140,-325.5 0,-325.5"/>
<text text-anchor="start" x="8" y="-436.5" font-family="SegoeUI" font-size="10.00">Juniper.Threading.Abstract</text>
<text text-anchor="middle" x="70" y="-425.5" font-family="SegoeUI" font-size="10.00">BackgroundRepeatingThread</text>
<polyline fill="none" stroke="black" points="0,-418.5 140,-418.5 "/>
<text text-anchor="start" x="8" y="-406.5" font-family="SegoeUI" font-size="10.00">+ Running</text>
<text text-anchor="start" x="8" y="-395.5" font-family="SegoeUI" font-size="10.00">&#45; stopping</text>
<polyline fill="none" stroke="black" points="0,-388.5 140,-388.5 "/>
<text text-anchor="start" x="8" y="-376.5" font-family="SegoeUI" font-size="10.00">+ Stop()</text>
<text text-anchor="start" x="8" y="-365.5" font-family="SegoeUI" font-size="10.00"># Awake()</text>
<text text-anchor="start" x="8" y="-354.5" font-family="SegoeUI" font-size="10.00"># OnBegin()</text>
<text text-anchor="start" x="8" y="-343.5" font-family="SegoeUI" font-size="10.00"># Execute()</text>
<text text-anchor="start" x="8" y="-332.5" font-family="SegoeUI" font-size="10.00"># Loop()</text>
</a>
</g>
</g>
<!-- Node0&#45;&gt;Node1 -->
<g id="edge1" class="edge"><title>Node0&#45;&gt;Node1</title>
<path fill="none" stroke="midnightblue" d="M111.58,-476.291C107.232,-467.057 102.83,-457.711 98.5997,-448.728"/>
<polygon fill="none" stroke="midnightblue" points="108.476,-477.914 115.903,-485.47 114.809,-474.931 108.476,-477.914"/>
</g>
<!-- Node3 -->
<g id="node4" class="node"><title>Node3</title>
<g id="a_node4"><a xlink:href="../../dd/de8/class_juniper_1_1_threading_1_1_one_shot_thread.html" target="_top" xlink:title="Run any System.Action in a background thread that starts right away.">
<polygon fill="white" stroke="black" points="158,-342 158,-432 292,-432 292,-342 158,-342"/>
<text text-anchor="start" x="166" y="-420" font-family="SegoeUI" font-size="10.00">Juniper.Threading.OneShot</text>
<text text-anchor="middle" x="225" y="-409" font-family="SegoeUI" font-size="10.00">Thread</text>
<polyline fill="none" stroke="black" points="158,-402 292,-402 "/>
<text text-anchor="start" x="166" y="-390" font-family="SegoeUI" font-size="10.00">&#45; callback</text>
<polyline fill="none" stroke="black" points="158,-383 292,-383 "/>
<text text-anchor="start" x="166" y="-371" font-family="SegoeUI" font-size="10.00">+ Run()</text>
<text text-anchor="start" x="166" y="-360" font-family="SegoeUI" font-size="10.00"># Execute()</text>
<text text-anchor="start" x="166" y="-349" font-family="SegoeUI" font-size="10.00">&#45; OneShotThread()</text>
</a>
</g>
</g>
<!-- Node0&#45;&gt;Node3 -->
<g id="edge3" class="edge"><title>Node0&#45;&gt;Node3</title>
<path fill="none" stroke="midnightblue" d="M182.94,-476.164C190.113,-461.129 197.424,-445.803 203.896,-432.237"/>
<polygon fill="none" stroke="midnightblue" points="179.648,-474.937 178.501,-485.47 185.966,-477.951 179.648,-474.937"/>
</g>
<!-- Node2 -->
<g id="node3" class="node"><title>Node2</title>
<g id="a_node3"><a xlink:href="../../dd/d66/class_juniper_1_1_threading_1_1_managed_request.html" target="_top" xlink:title="A ManagedRequest is a AbstractBackgroundRepeatingThread that keeps a parameterized type value as its ...">
<polygon fill="white" stroke="black" points="2,-0.5 2,-288.5 138,-288.5 138,-0.5 2,-0.5"/>
<text text-anchor="start" x="10" y="-276.5" font-family="SegoeUI" font-size="10.00">Juniper.Threading.Managed</text>
<text text-anchor="middle" x="70" y="-265.5" font-family="SegoeUI" font-size="10.00">Request&lt; T &gt;</text>
<polyline fill="none" stroke="black" points="2,-258.5 138,-258.5 "/>
<text text-anchor="start" x="10" y="-246.5" font-family="SegoeUI" font-size="10.00">+ DEFAULT_POLL_RATE</text>
<text text-anchor="start" x="10" y="-235.5" font-family="SegoeUI" font-size="10.00">+ DEFAULT_TIMEOUT</text>
<text text-anchor="start" x="10" y="-224.5" font-family="SegoeUI" font-size="10.00">+ NextRequest</text>
<text text-anchor="start" x="10" y="-213.5" font-family="SegoeUI" font-size="10.00">+ LastRequest</text>
<text text-anchor="start" x="10" y="-202.5" font-family="SegoeUI" font-size="10.00">+ LastResponse</text>
<text text-anchor="start" x="10" y="-191.5" font-family="SegoeUI" font-size="10.00">+ LastError</text>
<text text-anchor="start" x="10" y="-180.5" font-family="SegoeUI" font-size="10.00">+ TimeoutRate</text>
<text text-anchor="start" x="10" y="-169.5" font-family="SegoeUI" font-size="10.00">+ PollRate</text>
<text text-anchor="start" x="10" y="-158.5" font-family="SegoeUI" font-size="10.00">+ SinceRequest</text>
<text text-anchor="start" x="10" y="-147.5" font-family="SegoeUI" font-size="10.00">+ SinceRequestSeconds</text>
<text text-anchor="start" x="10" y="-136.5" font-family="SegoeUI" font-size="10.00">+ UntilNextRequest</text>
<text text-anchor="start" x="10" y="-125.5" font-family="SegoeUI" font-size="10.00">+ UntilNextRequestSeconds</text>
<text text-anchor="start" x="10" y="-114.5" font-family="SegoeUI" font-size="10.00">and 6 more...</text>
<text text-anchor="start" x="10" y="-103.5" font-family="SegoeUI" font-size="10.00">&#45; wasTimedOut</text>
<polyline fill="none" stroke="black" points="2,-96.5 138,-96.5 "/>
<text text-anchor="start" x="10" y="-84.5" font-family="SegoeUI" font-size="10.00">+ ManagedRequest()</text>
<text text-anchor="start" x="10" y="-73.5" font-family="SegoeUI" font-size="10.00">+ RetryIn()</text>
<text text-anchor="start" x="10" y="-62.5" font-family="SegoeUI" font-size="10.00"># Loop()</text>
<text text-anchor="start" x="10" y="-51.5" font-family="SegoeUI" font-size="10.00">&#45; OnReady()</text>
<text text-anchor="start" x="10" y="-40.5" font-family="SegoeUI" font-size="10.00">&#45; OnMessage()</text>
<text text-anchor="start" x="10" y="-29.5" font-family="SegoeUI" font-size="10.00">&#45; OnServerError()</text>
<text text-anchor="start" x="10" y="-18.5" font-family="SegoeUI" font-size="10.00">&#45; OnTimedOut()</text>
<text text-anchor="start" x="10" y="-7.5" font-family="SegoeUI" font-size="10.00">&#45; OnSuccess()</text>
</a>
</g>
</g>
<!-- Node1&#45;&gt;Node2 -->
<g id="edge2" class="edge"><title>Node1&#45;&gt;Node2</title>
<path fill="none" stroke="midnightblue" d="M70,-315.191C70,-306.721 70,-297.855 70,-288.808"/>
<polygon fill="none" stroke="midnightblue" points="66.5001,-315.312 70,-325.312 73.5001,-315.312 66.5001,-315.312"/>
</g>
</g>
</svg>
        <g id="navigator" transform="translate(0 0)" fill="#404254">
                <rect fill="#f2f5e9" fill-opacity="0.5" stroke="#606060" stroke-width=".5" x="0" y="0" width="60" height="60"/>
                <use id="zoomplus" xlink:href="#zoomPlus" x="17" y="9" onmousedown="handleZoom(evt,'in')"/>
                <use id="zoomminus" xlink:href="#zoomMin" x="42" y="9" onmousedown="handleZoom(evt,'out')"/>
                <use id="reset" xlink:href="#resetDef" x="30" y="36" onmousedown="handleReset()"/>
                <g id="arrowUp" xlink:href="#dirArrow" transform="translate(30 24)" onmousedown="handlePan(0,-1)">
                  <use xlink:href="#rim" fill="#404040">
                        <set attributeName="fill" to="#808080" begin="arrowUp.mouseover" end="arrowUp.mouseout"/>
                  </use>
                  <path fill="none" stroke="white" stroke-width="1.5" d="M0,-3.0v7 M-2.5,-0.5L0,-3.0L2.5,-0.5"/>
                </g>
                <g id="arrowRight" xlink:href="#dirArrow" transform="rotate(90) translate(36 -43)" onmousedown="handlePan(1,0)">
                  <use xlink:href="#rim" fill="#404040">
                        <set attributeName="fill" to="#808080" begin="arrowRight.mouseover" end="arrowRight.mouseout"/>
                  </use>
                  <path fill="none" stroke="white" stroke-width="1.5" d="M0,-3.0v7 M-2.5,-0.5L0,-3.0L2.5,-0.5"/>
                </g>
                <g id="arrowDown" xlink:href="#dirArrow" transform="rotate(180) translate(-30 -48)" onmousedown="handlePan(0,1)">
                  <use xlink:href="#rim" fill="#404040">
                        <set attributeName="fill" to="#808080" begin="arrowDown.mouseover" end="arrowDown.mouseout"/>
                  </use>
                  <path fill="none" stroke="white" stroke-width="1.5" d="M0,-3.0v7 M-2.5,-0.5L0,-3.0L2.5,-0.5"/>
                </g>
                <g id="arrowLeft" xlink:href="#dirArrow" transform="rotate(270) translate(-36 17)" onmousedown="handlePan(-1,0)">
                  <use xlink:href="#rim" fill="#404040">
                        <set attributeName="fill" to="#808080" begin="arrowLeft.mouseover" end="arrowLeft.mouseout"/>
                  </use>
                  <path fill="none" stroke="white" stroke-width="1.5" d="M0,-3.0v7 M-2.5,-0.5L0,-3.0L2.5,-0.5"/>
                </g>
        </g>
        <svg viewBox="0 0 15 15" width="100%" height="30px" preserveAspectRatio="xMaxYMin meet">
         <g id="arrow_out" transform="scale(0.3 0.3)">
          <a xlink:href="class_juniper_1_1_threading_1_1_abstract_background_thread__inherit__graph_org.svg" target="_base">
           <rect id="button" ry="5" rx="5" y="6" x="6" height="38" width="38"
                fill="#f2f5e9" fill-opacity="0.5" stroke="#606060" stroke-width="1.0"/>
           <path id="arrow"
             d="M 11.500037,31.436501 C 11.940474,20.09759 22.043105,11.32322 32.158766,21.979434 L 37.068811,17.246167 C 37.068811,17.246167 37.088388,32 37.088388,32 L 22.160133,31.978069 C 22.160133,31.978069 26.997745,27.140456 26.997745,27.140456 C 18.528582,18.264221 13.291696,25.230495 11.500037,31.436501 z"
             style="fill:#404040;"/>
          </a>
         </g>
        </svg>
</svg>
