<?xml version="1.0" encoding="UTF-8" standalone="no"?>
<!DOCTYPE svg PUBLIC "-//W3C//DTD SVG 1.1//EN"
 "http://www.w3.org/Graphics/SVG/1.1/DTD/svg11.dtd">
<!-- Generated by graphviz version 2.38.0 (20140413.2041)
 -->
<!-- Title: Juniper.Unity.Widgets.Clickable Pages: 1 -->
<svg width="694pt" height="766pt"
 viewBox="0.00 0.00 693.50 766.00" xmlns="http://www.w3.org/2000/svg" xmlns:xlink="http://www.w3.org/1999/xlink">
<g id="graph0" class="graph" transform="scale(1 1) rotate(0) translate(4 762)">
<title>Juniper.Unity.Widgets.Clickable</title>
<polygon fill="white" stroke="none" points="-4,4 -4,-762 689.5,-762 689.5,4 -4,4"/>
<!-- Node0 -->
<g id="node1" class="node"><title>Node0</title>
<g id="a_node1"><a xlink:title="An object that can be Touched on a screen or Clicked with a mouse and fires an event in response.">
<polygon fill="#bfbfbf" stroke="black" points="366.5,-215.5 366.5,-327.5 515.5,-327.5 515.5,-215.5 366.5,-215.5"/>
<text text-anchor="middle" x="441" y="-315.5" font-family="SegoeUI" font-size="10.00">Juniper.Unity.Widgets.Clickable</text>
<polyline fill="none" stroke="black" points="366.5,-308.5 515.5,-308.5 "/>
<text text-anchor="start" x="374.5" y="-296.5" font-family="SegoeUI" font-size="10.00">+ onClick</text>
<text text-anchor="start" x="374.5" y="-285.5" font-family="SegoeUI" font-size="10.00">+ onLongPress</text>
<polyline fill="none" stroke="black" points="366.5,-278.5 515.5,-278.5 "/>
<text text-anchor="start" x="374.5" y="-266.5" font-family="SegoeUI" font-size="10.00">+ OnPointerClick()</text>
<text text-anchor="start" x="374.5" y="-255.5" font-family="SegoeUI" font-size="10.00">+ OnLongPress()</text>
<text text-anchor="start" x="374.5" y="-244.5" font-family="SegoeUI" font-size="10.00">+ OnLongPressUpdate()</text>
<text text-anchor="start" x="374.5" y="-233.5" font-family="SegoeUI" font-size="10.00"># OnClick()</text>
<text text-anchor="start" x="374.5" y="-222.5" font-family="SegoeUI" font-size="10.00"># OnLongPress()</text>
</a>
</g>
</g>
<!-- Node10 -->
<g id="node11" class="node"><title>Node10</title>
<g id="a_node11"><a xlink:href="../../db/d0d/class_juniper_1_1_unity_1_1_widgets_1_1_openable.html" target="_top" xlink:title="A control that is a container of other controls that are hidden until the control is clicked.">
<polygon fill="white" stroke="black" points="277,-0.5 277,-178.5 429,-178.5 429,-0.5 277,-0.5"/>
<text text-anchor="middle" x="353" y="-166.5" font-family="SegoeUI" font-size="10.00">Juniper.Unity.Widgets.Openable</text>
<polyline fill="none" stroke="black" points="277,-159.5 429,-159.5 "/>
<text text-anchor="start" x="285" y="-147.5" font-family="SegoeUI" font-size="10.00">+ payload</text>
<text text-anchor="start" x="285" y="-136.5" font-family="SegoeUI" font-size="10.00">+ Open</text>
<text text-anchor="start" x="285" y="-125.5" font-family="SegoeUI" font-size="10.00">+ OpenChanged</text>
<text text-anchor="start" x="285" y="-114.5" font-family="SegoeUI" font-size="10.00">+ Opened</text>
<text text-anchor="start" x="285" y="-103.5" font-family="SegoeUI" font-size="10.00">+ Closed</text>
<text text-anchor="start" x="285" y="-92.5" font-family="SegoeUI" font-size="10.00">&#45; stater</text>
<text text-anchor="start" x="285" y="-81.5" font-family="SegoeUI" font-size="10.00">&#45; wasOpen</text>
<polyline fill="none" stroke="black" points="277,-74.5 429,-74.5 "/>
<text text-anchor="start" x="285" y="-62.5" font-family="SegoeUI" font-size="10.00">+ SetOpen()</text>
<text text-anchor="start" x="285" y="-51.5" font-family="SegoeUI" font-size="10.00">+ ToggleOpen()</text>
<text text-anchor="start" x="285" y="-40.5" font-family="SegoeUI" font-size="10.00">+ OnPointerClick()</text>
<text text-anchor="start" x="285" y="-29.5" font-family="SegoeUI" font-size="10.00"># Awake()</text>
<text text-anchor="start" x="285" y="-18.5" font-family="SegoeUI" font-size="10.00"># Update()</text>
<text text-anchor="start" x="285" y="-7.5" font-family="SegoeUI" font-size="10.00"># LateUpdate()</text>
</a>
</g>
</g>
<!-- Node0&#45;&gt;Node10 -->
<g id="edge10" class="edge"><title>Node0&#45;&gt;Node10</title>
<path fill="none" stroke="midnightblue" d="M409.425,-205.915C405.082,-197.031 400.563,-187.788 396.057,-178.572"/>
<polygon fill="none" stroke="midnightblue" points="406.343,-207.579 413.879,-215.025 412.631,-204.504 406.343,-207.579"/>
</g>
<!-- Node11 -->
<g id="node12" class="node"><title>Node11</title>
<g id="a_node12"><a xlink:href="../../d3/d4d/class_juniper_1_1_unity_1_1_widgets_1_1_teleport_pad.html" target="_top" xlink:title=" ">
<polygon fill="white" stroke="black" points="447,-33.5 447,-145.5 611,-145.5 611,-33.5 447,-33.5"/>
<text text-anchor="middle" x="529" y="-133.5" font-family="SegoeUI" font-size="10.00">Juniper.Unity.Widgets.TeleportPad</text>
<polyline fill="none" stroke="black" points="447,-126.5 611,-126.5 "/>
<text text-anchor="start" x="455" y="-114.5" font-family="SegoeUI" font-size="10.00">&#45; userT</text>
<text text-anchor="start" x="455" y="-103.5" font-family="SegoeUI" font-size="10.00">&#45; user</text>
<text text-anchor="start" x="455" y="-92.5" font-family="SegoeUI" font-size="10.00">&#45; darth</text>
<text text-anchor="start" x="455" y="-81.5" font-family="SegoeUI" font-size="10.00">&#45; running</text>
<polyline fill="none" stroke="black" points="447,-74.5 611,-74.5 "/>
<text text-anchor="start" x="455" y="-62.5" font-family="SegoeUI" font-size="10.00"># OnClick()</text>
<text text-anchor="start" x="455" y="-51.5" font-family="SegoeUI" font-size="10.00">&#45; Start()</text>
<text text-anchor="start" x="455" y="-40.5" font-family="SegoeUI" font-size="10.00">&#45; Darth_Entered()</text>
</a>
</g>
</g>
<!-- Node0&#45;&gt;Node11 -->
<g id="edge11" class="edge"><title>Node0&#45;&gt;Node11</title>
<path fill="none" stroke="midnightblue" d="M472.614,-205.836C482.223,-186.18 492.69,-164.77 501.969,-145.792"/>
<polygon fill="none" stroke="midnightblue" points="469.369,-204.504 468.121,-215.025 475.657,-207.579 469.369,-204.504"/>
</g>
<!-- Node1 -->
<g id="node2" class="node"><title>Node1</title>
<g id="a_node2"><a xlink:href="../../dc/dad/class_juniper_1_1_unity_1_1_widgets_1_1_abstract_touchable.html" target="_top" xlink:title="The base class for all interactive, AR&#45;compatible, GUI controls /// This class is abstract to avoid i...">
<polygon fill="white" stroke="black" points="222,-364.5 222,-663.5 348,-663.5 348,-364.5 222,-364.5"/>
<text text-anchor="middle" x="285" y="-651.5" font-family="SegoeUI" font-size="10.00">AbstractTouchable</text>
<polyline fill="none" stroke="black" points="222,-644.5 348,-644.5 "/>
<text text-anchor="start" x="230" y="-632.5" font-family="SegoeUI" font-size="10.00">+ clickButton</text>
<text text-anchor="start" x="230" y="-621.5" font-family="SegoeUI" font-size="10.00">+ disabled</text>
<text text-anchor="start" x="230" y="-610.5" font-family="SegoeUI" font-size="10.00">+ pointerPosition</text>
<text text-anchor="start" x="230" y="-599.5" font-family="SegoeUI" font-size="10.00">+ PART_NAMES</text>
<text text-anchor="start" x="230" y="-588.5" font-family="SegoeUI" font-size="10.00">+ DisabledChanged</text>
<text text-anchor="start" x="230" y="-577.5" font-family="SegoeUI" font-size="10.00">+ DisabledDown</text>
<text text-anchor="start" x="230" y="-566.5" font-family="SegoeUI" font-size="10.00">+ DisabledUp</text>
<text text-anchor="start" x="230" y="-555.5" font-family="SegoeUI" font-size="10.00">+ IsDisabled</text>
<text text-anchor="start" x="230" y="-544.5" font-family="SegoeUI" font-size="10.00">+ PointerPositionChanged</text>
<text text-anchor="start" x="230" y="-533.5" font-family="SegoeUI" font-size="10.00"># lastPointerPosition</text>
<text text-anchor="start" x="230" y="-522.5" font-family="SegoeUI" font-size="10.00">&#45; animator</text>
<text text-anchor="start" x="230" y="-511.5" font-family="SegoeUI" font-size="10.00">&#45; wasDisabled</text>
<polyline fill="none" stroke="black" points="222,-504.5 348,-504.5 "/>
<text text-anchor="start" x="230" y="-492.5" font-family="SegoeUI" font-size="10.00">+ SetDisabled()</text>
<text text-anchor="start" x="230" y="-481.5" font-family="SegoeUI" font-size="10.00">+ ToggleEnabled()</text>
<text text-anchor="start" x="230" y="-470.5" font-family="SegoeUI" font-size="10.00">+ OnPointerEnter()</text>
<text text-anchor="start" x="230" y="-459.5" font-family="SegoeUI" font-size="10.00">+ OnPointerExit()</text>
<text text-anchor="start" x="230" y="-448.5" font-family="SegoeUI" font-size="10.00">+ OnPointerDown()</text>
<text text-anchor="start" x="230" y="-437.5" font-family="SegoeUI" font-size="10.00">+ OnPointerUp()</text>
<text text-anchor="start" x="230" y="-426.5" font-family="SegoeUI" font-size="10.00"># Awake()</text>
<text text-anchor="start" x="230" y="-415.5" font-family="SegoeUI" font-size="10.00"># Update()</text>
<text text-anchor="start" x="230" y="-404.5" font-family="SegoeUI" font-size="10.00"># LateUpdate()</text>
<text text-anchor="start" x="230" y="-393.5" font-family="SegoeUI" font-size="10.00"># ShowState()</text>
<text text-anchor="start" x="230" y="-382.5" font-family="SegoeUI" font-size="10.00"># GetPosition()</text>
<text text-anchor="start" x="230" y="-371.5" font-family="SegoeUI" font-size="10.00">&#45; NormalizePart()</text>
</a>
</g>
</g>
<!-- Node1&#45;&gt;Node0 -->
<g id="edge1" class="edge"><title>Node1&#45;&gt;Node0</title>
<path fill="none" stroke="midnightblue" d="M353.808,-405.977C362.934,-391.848 372.181,-377.568 381,-364 388.661,-352.214 396.906,-339.596 404.758,-327.612"/>
<polygon fill="none" stroke="midnightblue" points="350.63,-404.447 348.146,-414.746 356.511,-408.243 350.63,-404.447"/>
</g>
<!-- Node2 -->
<g id="node3" class="node"><title>Node2</title>
<g id="a_node3"><a xlink:title=" ">
<polygon fill="white" stroke="#bfbfbf" points="0,-700.5 0,-757.5 82,-757.5 82,-700.5 0,-700.5"/>
<text text-anchor="middle" x="41" y="-745.5" font-family="SegoeUI" font-size="10.00">MonoBehaviour</text>
<polyline fill="none" stroke="#bfbfbf" points="0,-738.5 82,-738.5 "/>
<text text-anchor="middle" x="41" y="-726.5" font-family="SegoeUI" font-size="10.00"> </text>
<polyline fill="none" stroke="#bfbfbf" points="0,-719.5 82,-719.5 "/>
<text text-anchor="middle" x="41" y="-707.5" font-family="SegoeUI" font-size="10.00"> </text>
</a>
</g>
</g>
<!-- Node2&#45;&gt;Node1 -->
<g id="edge2" class="edge"><title>Node2&#45;&gt;Node1</title>
<path fill="none" stroke="midnightblue" d="M80.7165,-693.329C118.838,-660.052 177.034,-609.249 221.574,-570.368"/>
<polygon fill="none" stroke="midnightblue" points="78.1305,-690.941 72.8987,-700.154 82.7339,-696.214 78.1305,-690.941"/>
</g>
<!-- Node3 -->
<g id="node4" class="node"><title>Node3</title>
<g id="a_node4"><a xlink:title=" ">
<polygon fill="white" stroke="#bfbfbf" points="100.5,-700.5 100.5,-757.5 205.5,-757.5 205.5,-700.5 100.5,-700.5"/>
<text text-anchor="middle" x="153" y="-745.5" font-family="SegoeUI" font-size="10.00">IPointerEnterHandler</text>
<polyline fill="none" stroke="#bfbfbf" points="100.5,-738.5 205.5,-738.5 "/>
<text text-anchor="middle" x="153" y="-726.5" font-family="SegoeUI" font-size="10.00"> </text>
<polyline fill="none" stroke="#bfbfbf" points="100.5,-719.5 205.5,-719.5 "/>
<text text-anchor="middle" x="153" y="-707.5" font-family="SegoeUI" font-size="10.00"> </text>
</a>
</g>
</g>
<!-- Node3&#45;&gt;Node1 -->
<g id="edge3" class="edge"><title>Node3&#45;&gt;Node1</title>
<path fill="none" stroke="midnightblue" d="M175.531,-691.643C188.438,-670.815 205.34,-643.543 221.987,-616.68"/>
<polygon fill="none" stroke="midnightblue" points="172.549,-689.81 170.257,-700.154 178.499,-693.498 172.549,-689.81"/>
</g>
<!-- Node4 -->
<g id="node5" class="node"><title>Node4</title>
<g id="a_node5"><a xlink:title=" ">
<polygon fill="white" stroke="#bfbfbf" points="224,-700.5 224,-757.5 322,-757.5 322,-700.5 224,-700.5"/>
<text text-anchor="middle" x="273" y="-745.5" font-family="SegoeUI" font-size="10.00">IPointerExitHandler</text>
<polyline fill="none" stroke="#bfbfbf" points="224,-738.5 322,-738.5 "/>
<text text-anchor="middle" x="273" y="-726.5" font-family="SegoeUI" font-size="10.00"> </text>
<polyline fill="none" stroke="#bfbfbf" points="224,-719.5 322,-719.5 "/>
<text text-anchor="middle" x="273" y="-707.5" font-family="SegoeUI" font-size="10.00"> </text>
</a>
</g>
</g>
<!-- Node4&#45;&gt;Node1 -->
<g id="edge4" class="edge"><title>Node4&#45;&gt;Node1</title>
<path fill="none" stroke="midnightblue" d="M275.145,-689.923C275.592,-681.996 276.088,-673.193 276.613,-663.872"/>
<polygon fill="none" stroke="midnightblue" points="271.637,-689.973 274.569,-700.154 278.626,-690.367 271.637,-689.973"/>
</g>
<!-- Node5 -->
<g id="node6" class="node"><title>Node5</title>
<g id="a_node6"><a xlink:title=" ">
<polygon fill="white" stroke="#bfbfbf" points="340.5,-700.5 340.5,-757.5 447.5,-757.5 447.5,-700.5 340.5,-700.5"/>
<text text-anchor="middle" x="394" y="-745.5" font-family="SegoeUI" font-size="10.00">IPointerDownHandler</text>
<polyline fill="none" stroke="#bfbfbf" points="340.5,-738.5 447.5,-738.5 "/>
<text text-anchor="middle" x="394" y="-726.5" font-family="SegoeUI" font-size="10.00"> </text>
<polyline fill="none" stroke="#bfbfbf" points="340.5,-719.5 447.5,-719.5 "/>
<text text-anchor="middle" x="394" y="-707.5" font-family="SegoeUI" font-size="10.00"> </text>
</a>
</g>
</g>
<!-- Node5&#45;&gt;Node1 -->
<g id="edge5" class="edge"><title>Node5&#45;&gt;Node1</title>
<path fill="none" stroke="midnightblue" d="M375.161,-691.186C367.416,-676.051 357.957,-657.568 348.115,-638.334"/>
<polygon fill="none" stroke="midnightblue" points="372.079,-692.846 379.75,-700.154 378.31,-689.657 372.079,-692.846"/>
</g>
<!-- Node6 -->
<g id="node7" class="node"><title>Node6</title>
<g id="a_node7"><a xlink:title=" ">
<polygon fill="white" stroke="#bfbfbf" points="466,-700.5 466,-757.5 560,-757.5 560,-700.5 466,-700.5"/>
<text text-anchor="middle" x="513" y="-745.5" font-family="SegoeUI" font-size="10.00">IPointerUpHandler</text>
<polyline fill="none" stroke="#bfbfbf" points="466,-738.5 560,-738.5 "/>
<text text-anchor="middle" x="513" y="-726.5" font-family="SegoeUI" font-size="10.00"> </text>
<polyline fill="none" stroke="#bfbfbf" points="466,-719.5 560,-719.5 "/>
<text text-anchor="middle" x="513" y="-707.5" font-family="SegoeUI" font-size="10.00"> </text>
</a>
</g>
</g>
<!-- Node6&#45;&gt;Node1 -->
<g id="edge6" class="edge"><title>Node6&#45;&gt;Node1</title>
<path fill="none" stroke="midnightblue" d="M456.596,-700.29C456.397,-700.193 456.198,-700.096 456,-700 422.74,-683.849 408.725,-688.463 381,-664 369.117,-653.515 358.13,-641.218 348.159,-628.263"/>
<polygon fill="none" stroke="midnightblue" points="455.216,-703.51 465.739,-704.743 458.281,-697.217 455.216,-703.51"/>
</g>
<!-- Node7 -->
<g id="node8" class="node"><title>Node7</title>
<g id="a_node8"><a xlink:title=" ">
<polygon fill="white" stroke="#bfbfbf" points="390,-485.5 390,-542.5 492,-542.5 492,-485.5 390,-485.5"/>
<text text-anchor="middle" x="441" y="-530.5" font-family="SegoeUI" font-size="10.00">IPointerClickHandler</text>
<polyline fill="none" stroke="#bfbfbf" points="390,-523.5 492,-523.5 "/>
<text text-anchor="middle" x="441" y="-511.5" font-family="SegoeUI" font-size="10.00"> </text>
<polyline fill="none" stroke="#bfbfbf" points="390,-504.5 492,-504.5 "/>
<text text-anchor="middle" x="441" y="-492.5" font-family="SegoeUI" font-size="10.00"> </text>
</a>
</g>
</g>
<!-- Node7&#45;&gt;Node0 -->
<g id="edge7" class="edge"><title>Node7&#45;&gt;Node0</title>
<path fill="none" stroke="midnightblue" d="M441,-475.387C441,-435.821 441,-373.138 441,-327.911"/>
<polygon fill="none" stroke="midnightblue" points="437.5,-475.412 441,-485.412 444.5,-475.412 437.5,-475.412"/>
</g>
<!-- Node8 -->
<g id="node9" class="node"><title>Node8</title>
<g id="a_node9"><a xlink:href="../../d8/d82/interface_juniper_1_1_unity_1_1_events_1_1_i_long_press_handler.html" target="_top" xlink:title=" ">
<polygon fill="white" stroke="black" points="559.5,-480 559.5,-548 678.5,-548 678.5,-480 559.5,-480"/>
<text text-anchor="middle" x="619" y="-536" font-family="SegoeUI" font-size="10.00">ILongPressHandler</text>
<polyline fill="none" stroke="black" points="559.5,-529 678.5,-529 "/>
<text text-anchor="middle" x="619" y="-517" font-family="SegoeUI" font-size="10.00"> </text>
<polyline fill="none" stroke="black" points="559.5,-510 678.5,-510 "/>
<text text-anchor="start" x="567.5" y="-498" font-family="SegoeUI" font-size="10.00">+ OnLongPressUpdate()</text>
<text text-anchor="start" x="567.5" y="-487" font-family="SegoeUI" font-size="10.00">+ OnLongPress()</text>
</a>
</g>
</g>
<!-- Node8&#45;&gt;Node0 -->
<g id="edge8" class="edge"><title>Node8&#45;&gt;Node0</title>
<path fill="none" stroke="midnightblue" d="M588.411,-471.67C559.043,-431.991 514.48,-371.781 482.039,-327.949"/>
<polygon fill="none" stroke="midnightblue" points="585.674,-473.856 594.437,-479.812 591.301,-469.692 585.674,-473.856"/>
</g>
<!-- Node9 -->
<g id="node10" class="node"><title>Node9</title>
<g id="a_node10"><a xlink:title=" ">
<polygon fill="white" stroke="#bfbfbf" points="578.5,-700.5 578.5,-757.5 685.5,-757.5 685.5,-700.5 578.5,-700.5"/>
<text text-anchor="middle" x="632" y="-745.5" font-family="SegoeUI" font-size="10.00">IEventSystemHandler</text>
<polyline fill="none" stroke="#bfbfbf" points="578.5,-738.5 685.5,-738.5 "/>
<text text-anchor="middle" x="632" y="-726.5" font-family="SegoeUI" font-size="10.00"> </text>
<polyline fill="none" stroke="#bfbfbf" points="578.5,-719.5 685.5,-719.5 "/>
<text text-anchor="middle" x="632" y="-707.5" font-family="SegoeUI" font-size="10.00"> </text>
</a>
</g>
</g>
<!-- Node9&#45;&gt;Node8 -->
<g id="edge9" class="edge"><title>Node9&#45;&gt;Node8</title>
<path fill="none" stroke="midnightblue" d="M629.691,-690.169C627.228,-649.819 623.366,-586.542 621.02,-548.102"/>
<polygon fill="none" stroke="midnightblue" points="626.198,-690.386 630.3,-700.154 633.185,-689.959 626.198,-690.386"/>
</g>
</g>
</svg>
