<?xml version="1.0" encoding="UTF-8" standalone="no"?>
<!DOCTYPE svg PUBLIC "-//W3C//DTD SVG 1.1//EN"
 "http://www.w3.org/Graphics/SVG/1.1/DTD/svg11.dtd">
<!-- Generated by graphviz version 2.38.0 (20140413.2041)
 -->
<!-- Title: Juniper.Unity.World.LightEstimation.AbstractLightMeasurement Pages: 1 -->
<svg width="186pt" height="590pt"
 viewBox="0.00 0.00 186.00 590.00" xmlns="http://www.w3.org/2000/svg" xmlns:xlink="http://www.w3.org/1999/xlink">
<g id="graph0" class="graph" transform="scale(1 1) rotate(0) translate(4 586)">
<title>Juniper.Unity.World.LightEstimation.AbstractLightMeasurement</title>
<polygon fill="white" stroke="none" points="-4,4 -4,-586 182,-586 182,4 -4,4"/>
<!-- Node0 -->
<g id="node1" class="node"><title>Node0</title>
<g id="a_node1"><a xlink:title=" ">
<polygon fill="#bfbfbf" stroke="black" points="0,-232.5 0,-465.5 178,-465.5 178,-232.5 0,-232.5"/>
<text text-anchor="start" x="8" y="-453.5" font-family="SegoeUI" font-size="10.00">Juniper.Unity.World.Light</text>
<text text-anchor="middle" x="89" y="-442.5" font-family="SegoeUI" font-size="10.00">Estimation.AbstractLightMeasurement</text>
<polyline fill="none" stroke="black" points="0,-435.5 178,-435.5 "/>
<text text-anchor="start" x="8" y="-423.5" font-family="SegoeUI" font-size="10.00">+ useFake</text>
<text text-anchor="start" x="8" y="-412.5" font-family="SegoeUI" font-size="10.00">+ Intensity</text>
<text text-anchor="start" x="8" y="-401.5" font-family="SegoeUI" font-size="10.00">+ Color</text>
<text text-anchor="start" x="8" y="-390.5" font-family="SegoeUI" font-size="10.00">+ DebugReport</text>
<text text-anchor="start" x="8" y="-379.5" font-family="SegoeUI" font-size="10.00">+ UseFakeIntensity</text>
<text text-anchor="start" x="8" y="-368.5" font-family="SegoeUI" font-size="10.00">+ ColorEstimate</text>
<text text-anchor="start" x="8" y="-357.5" font-family="SegoeUI" font-size="10.00">+ IntensityEstimate</text>
<text text-anchor="start" x="8" y="-346.5" font-family="SegoeUI" font-size="10.00"># lastIntensity</text>
<text text-anchor="start" x="8" y="-335.5" font-family="SegoeUI" font-size="10.00"># lastColor</text>
<polyline fill="none" stroke="black" points="0,-328.5 178,-328.5 "/>
<text text-anchor="start" x="8" y="-316.5" font-family="SegoeUI" font-size="10.00">+ Awake()</text>
<text text-anchor="start" x="8" y="-305.5" font-family="SegoeUI" font-size="10.00">+ Reinstall()</text>
<text text-anchor="start" x="8" y="-294.5" font-family="SegoeUI" font-size="10.00">+ Install()</text>
<text text-anchor="start" x="8" y="-283.5" font-family="SegoeUI" font-size="10.00">+ Uninstall()</text>
<text text-anchor="start" x="8" y="-272.5" font-family="SegoeUI" font-size="10.00">+ Update()</text>
<text text-anchor="start" x="8" y="-261.5" font-family="SegoeUI" font-size="10.00"># UpdateMeasurement()</text>
<text text-anchor="start" x="8" y="-250.5" font-family="SegoeUI" font-size="10.00"># PrintDebugReport()</text>
<text text-anchor="start" x="8" y="-239.5" font-family="SegoeUI" font-size="10.00">&#45; SetFakeValues()</text>
</a>
</g>
</g>
<!-- Node3 -->
<g id="node4" class="node"><title>Node3</title>
<g id="a_node4"><a xlink:href="../../d0/da4/class_juniper_1_1_unity_1_1_world_1_1_light_estimation_1_1_a_r_kit_light_measurement.html" target="_top" xlink:title=" ">
<polygon fill="white" stroke="black" points="6.5,-105.5 6.5,-195.5 171.5,-195.5 171.5,-105.5 6.5,-105.5"/>
<text text-anchor="start" x="14.5" y="-183.5" font-family="SegoeUI" font-size="10.00">Juniper.Unity.World.Light</text>
<text text-anchor="middle" x="89" y="-172.5" font-family="SegoeUI" font-size="10.00">Estimation.ARKitLightMeasurement</text>
<polyline fill="none" stroke="black" points="6.5,-165.5 171.5,-165.5 "/>
<text text-anchor="middle" x="89" y="-153.5" font-family="SegoeUI" font-size="10.00"> </text>
<polyline fill="none" stroke="black" points="6.5,-146.5 171.5,-146.5 "/>
<text text-anchor="start" x="14.5" y="-134.5" font-family="SegoeUI" font-size="10.00">&#45; Start()</text>
<text text-anchor="start" x="14.5" y="-123.5" font-family="SegoeUI" font-size="10.00">&#45; UnityARSessionNativeInterface</text>
<text text-anchor="start" x="14.5" y="-112.5" font-family="SegoeUI" font-size="10.00">_ARFrameUpdatedEvent()</text>
</a>
</g>
</g>
<!-- Node0&#45;&gt;Node3 -->
<g id="edge3" class="edge"><title>Node0&#45;&gt;Node3</title>
<path fill="none" stroke="midnightblue" d="M89,-222.154C89,-212.939 89,-204.077 89,-195.929"/>
<polygon fill="none" stroke="midnightblue" points="85.5001,-222.275 89,-232.275 92.5001,-222.275 85.5001,-222.275"/>
</g>
<!-- Node1 -->
<g id="node2" class="node"><title>Node1</title>
<g id="a_node2"><a xlink:title=" ">
<polygon fill="white" stroke="#bfbfbf" points="1,-513.5 1,-570.5 83,-570.5 83,-513.5 1,-513.5"/>
<text text-anchor="middle" x="42" y="-558.5" font-family="SegoeUI" font-size="10.00">MonoBehaviour</text>
<polyline fill="none" stroke="#bfbfbf" points="1,-551.5 83,-551.5 "/>
<text text-anchor="middle" x="42" y="-539.5" font-family="SegoeUI" font-size="10.00"> </text>
<polyline fill="none" stroke="#bfbfbf" points="1,-532.5 83,-532.5 "/>
<text text-anchor="middle" x="42" y="-520.5" font-family="SegoeUI" font-size="10.00"> </text>
</a>
</g>
</g>
<!-- Node1&#45;&gt;Node0 -->
<g id="edge1" class="edge"><title>Node1&#45;&gt;Node0</title>
<path fill="none" stroke="midnightblue" d="M51.2425,-503.44C54.0028,-492.223 57.1851,-479.29 60.5069,-465.791"/>
<polygon fill="none" stroke="midnightblue" points="47.8251,-502.68 48.8342,-513.227 54.6223,-504.353 47.8251,-502.68"/>
</g>
<!-- Node2 -->
<g id="node3" class="node"><title>Node2</title>
<g id="a_node3"><a xlink:href="../../db/d28/interface_juniper_1_1_i_installable.html" target="_top" xlink:title=" ">
<polygon fill="white" stroke="black" points="101.5,-502.5 101.5,-581.5 170.5,-581.5 170.5,-502.5 101.5,-502.5"/>
<text text-anchor="middle" x="136" y="-569.5" font-family="SegoeUI" font-size="10.00">IInstallable</text>
<polyline fill="none" stroke="black" points="101.5,-562.5 170.5,-562.5 "/>
<text text-anchor="middle" x="136" y="-550.5" font-family="SegoeUI" font-size="10.00"> </text>
<polyline fill="none" stroke="black" points="101.5,-543.5 170.5,-543.5 "/>
<text text-anchor="start" x="109.5" y="-531.5" font-family="SegoeUI" font-size="10.00">+ Install()</text>
<text text-anchor="start" x="109.5" y="-520.5" font-family="SegoeUI" font-size="10.00">+ Reinstall()</text>
<text text-anchor="start" x="109.5" y="-509.5" font-family="SegoeUI" font-size="10.00">+ Uninstall()</text>
</a>
</g>
</g>
<!-- Node2&#45;&gt;Node0 -->
<g id="edge2" class="edge"><title>Node2&#45;&gt;Node0</title>
<path fill="none" stroke="midnightblue" d="M124.048,-492.429C121.977,-484.013 119.747,-474.95 117.451,-465.619"/>
<polygon fill="none" stroke="midnightblue" points="120.701,-493.474 126.489,-502.348 127.498,-491.802 120.701,-493.474"/>
</g>
<!-- Node4 -->
<g id="node5" class="node"><title>Node4</title>
<g id="a_node5"><a xlink:href="../../dd/d2a/class_juniper_1_1_unity_1_1_world_1_1_light_estimation_1_1_light_measurement.html" target="_top" xlink:title="Abstracts the measurement of light intensity from camera frames for Augmented Reality Light Estimatio...">
<polygon fill="white" stroke="black" points="17.5,-0.5 17.5,-68.5 160.5,-68.5 160.5,-0.5 17.5,-0.5"/>
<text text-anchor="start" x="25.5" y="-56.5" font-family="SegoeUI" font-size="10.00">Juniper.Unity.World.Light</text>
<text text-anchor="middle" x="89" y="-45.5" font-family="SegoeUI" font-size="10.00">Estimation.LightMeasurement</text>
<polyline fill="none" stroke="black" points="17.5,-38.5 160.5,-38.5 "/>
<text text-anchor="middle" x="89" y="-26.5" font-family="SegoeUI" font-size="10.00"> </text>
<polyline fill="none" stroke="black" points="17.5,-19.5 160.5,-19.5 "/>
<text text-anchor="middle" x="89" y="-7.5" font-family="SegoeUI" font-size="10.00"> </text>
</a>
</g>
</g>
<!-- Node3&#45;&gt;Node4 -->
<g id="edge4" class="edge"><title>Node3&#45;&gt;Node4</title>
<path fill="none" stroke="midnightblue" d="M89,-95.3164C89,-86.2849 89,-77.1589 89,-68.8483"/>
<polygon fill="none" stroke="midnightblue" points="85.5001,-95.4246 89,-105.425 92.5001,-95.4247 85.5001,-95.4246"/>
</g>
</g>
</svg>
