<?xml version="1.0" encoding="UTF-8" standalone="no"?>
<!DOCTYPE svg PUBLIC "-//W3C//DTD SVG 1.1//EN"
 "http://www.w3.org/Graphics/SVG/1.1/DTD/svg11.dtd">
<!-- Generated by graphviz version 2.38.0 (20140413.2041)
 -->
<!-- Title: Juniper.Unity.World.LightEstimation.AbstractLightMeasurement Pages: 1 -->
<!--zoomable 590 -->
<svg id="main" version="1.1" xmlns="http://www.w3.org/2000/svg" xmlns:xlink="http://www.w3.org/1999/xlink" xml:space="preserve" onload="init(evt)">
<style type="text/css"><![CDATA[
.edge:hover path { stroke: red; }
.edge:hover polygon { stroke: red; fill: red; }
]]></style>
<script type="text/javascript"><![CDATA[
var edges = document.getElementsByTagName('g');
if (edges && edges.length) {
  for (var i=0;i<edges.length;i++) {
    if (edges[i].id.substr(0,4)=='edge') {
      edges[i].setAttribute('class','edge');
    }
  }
}
]]></script>
        <defs>
                <circle id="rim" cx="0" cy="0" r="7"/>
                <circle id="rim2" cx="0" cy="0" r="3.5"/>
                <g id="zoomPlus">
                        <use xlink:href="#rim" fill="#404040">
                                <set attributeName="fill" to="#808080" begin="zoomplus.mouseover" end="zoomplus.mouseout"/>
                        </use>
                        <path d="M-4,0h8M0,-4v8" fill="none" stroke="white" stroke-width="1.5" pointer-events="none"/>
                </g>
                <g id="zoomMin">
                        <use xlink:href="#rim" fill="#404040">
                                <set attributeName="fill" to="#808080" begin="zoomminus.mouseover" end="zoomminus.mouseout"/>
                        </use>
                        <path d="M-4,0h8" fill="none" stroke="white" stroke-width="1.5" pointer-events="none"/>
                </g>
                <g id="dirArrow">
                        <path fill="none" stroke="white" stroke-width="1.5" d="M0,-3.0v7 M-2.5,-0.5L0,-3.0L2.5,-0.5"/>
                </g>
               <g id="resetDef">
                       <use xlink:href="#rim2" fill="#404040">
                               <set attributeName="fill" to="#808080" begin="reset.mouseover" end="reset.mouseout"/>
                       </use>
               </g>
        </defs>

<script type="text/javascript">
var viewWidth = 186;
var viewHeight = 590;
var sectionId = 'dynsection-0';
</script>
<script xlink:href="../../svgpan.js"/>
<svg id="graph" class="graph">
<g id="viewport">
<title>Juniper.Unity.World.LightEstimation.AbstractLightMeasurement</title>
<polygon fill="white" stroke="none" points="-4,4 -4,-586 182,-586 182,4 -4,4"/>
<!-- Node0 -->
<g id="node1" class="node"><title>Node0</title>
<g id="a_node1"><a xlink:title=" ">
<polygon fill="#bfbfbf" stroke="black" points="0,-232.5 0,-465.5 178,-465.5 178,-232.5 0,-232.5"/>
<text text-anchor="start" x="8" y="-453.5" font-family="SegoeUI" font-size="10.00">Juniper.Unity.World.Light</text>
<text text-anchor="middle" x="89" y="-442.5" font-family="SegoeUI" font-size="10.00">Estimation.AbstractLightMeasurement</text>
<polyline fill="none" stroke="black" points="0,-435.5 178,-435.5 "/>
<text text-anchor="start" x="8" y="-423.5" font-family="SegoeUI" font-size="10.00">+ useFake</text>
<text text-anchor="start" x="8" y="-412.5" font-family="SegoeUI" font-size="10.00">+ Intensity</text>
<text text-anchor="start" x="8" y="-401.5" font-family="SegoeUI" font-size="10.00">+ Color</text>
<text text-anchor="start" x="8" y="-390.5" font-family="SegoeUI" font-size="10.00">+ DebugReport</text>
<text text-anchor="start" x="8" y="-379.5" font-family="SegoeUI" font-size="10.00">+ UseFakeIntensity</text>
<text text-anchor="start" x="8" y="-368.5" font-family="SegoeUI" font-size="10.00">+ ColorEstimate</text>
<text text-anchor="start" x="8" y="-357.5" font-family="SegoeUI" font-size="10.00">+ IntensityEstimate</text>
<text text-anchor="start" x="8" y="-346.5" font-family="SegoeUI" font-size="10.00"># lastIntensity</text>
<text text-anchor="start" x="8" y="-335.5" font-family="SegoeUI" font-size="10.00"># lastColor</text>
<polyline fill="none" stroke="black" points="0,-328.5 178,-328.5 "/>
<text text-anchor="start" x="8" y="-316.5" font-family="SegoeUI" font-size="10.00">+ Awake()</text>
<text text-anchor="start" x="8" y="-305.5" font-family="SegoeUI" font-size="10.00">+ Reinstall()</text>
<text text-anchor="start" x="8" y="-294.5" font-family="SegoeUI" font-size="10.00">+ Install()</text>
<text text-anchor="start" x="8" y="-283.5" font-family="SegoeUI" font-size="10.00">+ Uninstall()</text>
<text text-anchor="start" x="8" y="-272.5" font-family="SegoeUI" font-size="10.00">+ Update()</text>
<text text-anchor="start" x="8" y="-261.5" font-family="SegoeUI" font-size="10.00"># UpdateMeasurement()</text>
<text text-anchor="start" x="8" y="-250.5" font-family="SegoeUI" font-size="10.00"># PrintDebugReport()</text>
<text text-anchor="start" x="8" y="-239.5" font-family="SegoeUI" font-size="10.00">&#45; SetFakeValues()</text>
</a>
</g>
</g>
<!-- Node3 -->
<g id="node4" class="node"><title>Node3</title>
<g id="a_node4"><a xlink:href="../../d0/da4/class_juniper_1_1_unity_1_1_world_1_1_light_estimation_1_1_a_r_kit_light_measurement.html" target="_top" xlink:title=" ">
<polygon fill="white" stroke="black" points="6.5,-105.5 6.5,-195.5 171.5,-195.5 171.5,-105.5 6.5,-105.5"/>
<text text-anchor="start" x="14.5" y="-183.5" font-family="SegoeUI" font-size="10.00">Juniper.Unity.World.Light</text>
<text text-anchor="middle" x="89" y="-172.5" font-family="SegoeUI" font-size="10.00">Estimation.ARKitLightMeasurement</text>
<polyline fill="none" stroke="black" points="6.5,-165.5 171.5,-165.5 "/>
<text text-anchor="middle" x="89" y="-153.5" font-family="SegoeUI" font-size="10.00"> </text>
<polyline fill="none" stroke="black" points="6.5,-146.5 171.5,-146.5 "/>
<text text-anchor="start" x="14.5" y="-134.5" font-family="SegoeUI" font-size="10.00">&#45; Start()</text>
<text text-anchor="start" x="14.5" y="-123.5" font-family="SegoeUI" font-size="10.00">&#45; UnityARSessionNativeInterface</text>
<text text-anchor="start" x="14.5" y="-112.5" font-family="SegoeUI" font-size="10.00">_ARFrameUpdatedEvent()</text>
</a>
</g>
</g>
<!-- Node0&#45;&gt;Node3 -->
<g id="edge3" class="edge"><title>Node0&#45;&gt;Node3</title>
<path fill="none" stroke="midnightblue" d="M89,-222.154C89,-212.939 89,-204.077 89,-195.929"/>
<polygon fill="none" stroke="midnightblue" points="85.5001,-222.275 89,-232.275 92.5001,-222.275 85.5001,-222.275"/>
</g>
<!-- Node1 -->
<g id="node2" class="node"><title>Node1</title>
<g id="a_node2"><a xlink:title=" ">
<polygon fill="white" stroke="#bfbfbf" points="1,-513.5 1,-570.5 83,-570.5 83,-513.5 1,-513.5"/>
<text text-anchor="middle" x="42" y="-558.5" font-family="SegoeUI" font-size="10.00">MonoBehaviour</text>
<polyline fill="none" stroke="#bfbfbf" points="1,-551.5 83,-551.5 "/>
<text text-anchor="middle" x="42" y="-539.5" font-family="SegoeUI" font-size="10.00"> </text>
<polyline fill="none" stroke="#bfbfbf" points="1,-532.5 83,-532.5 "/>
<text text-anchor="middle" x="42" y="-520.5" font-family="SegoeUI" font-size="10.00"> </text>
</a>
</g>
</g>
<!-- Node1&#45;&gt;Node0 -->
<g id="edge1" class="edge"><title>Node1&#45;&gt;Node0</title>
<path fill="none" stroke="midnightblue" d="M51.2425,-503.44C54.0028,-492.223 57.1851,-479.29 60.5069,-465.791"/>
<polygon fill="none" stroke="midnightblue" points="47.8251,-502.68 48.8342,-513.227 54.6223,-504.353 47.8251,-502.68"/>
</g>
<!-- Node2 -->
<g id="node3" class="node"><title>Node2</title>
<g id="a_node3"><a xlink:href="../../db/d28/interface_juniper_1_1_i_installable.html" target="_top" xlink:title="Defines an interface for objects that can be installed and have their installation progress tracked.">
<polygon fill="white" stroke="black" points="101.5,-502.5 101.5,-581.5 170.5,-581.5 170.5,-502.5 101.5,-502.5"/>
<text text-anchor="middle" x="136" y="-569.5" font-family="SegoeUI" font-size="10.00">IInstallable</text>
<polyline fill="none" stroke="black" points="101.5,-562.5 170.5,-562.5 "/>
<text text-anchor="middle" x="136" y="-550.5" font-family="SegoeUI" font-size="10.00"> </text>
<polyline fill="none" stroke="black" points="101.5,-543.5 170.5,-543.5 "/>
<text text-anchor="start" x="109.5" y="-531.5" font-family="SegoeUI" font-size="10.00">+ Install()</text>
<text text-anchor="start" x="109.5" y="-520.5" font-family="SegoeUI" font-size="10.00">+ Reinstall()</text>
<text text-anchor="start" x="109.5" y="-509.5" font-family="SegoeUI" font-size="10.00">+ Uninstall()</text>
</a>
</g>
</g>
<!-- Node2&#45;&gt;Node0 -->
<g id="edge2" class="edge"><title>Node2&#45;&gt;Node0</title>
<path fill="none" stroke="midnightblue" d="M124.048,-492.429C121.977,-484.013 119.747,-474.95 117.451,-465.619"/>
<polygon fill="none" stroke="midnightblue" points="120.701,-493.474 126.489,-502.348 127.498,-491.802 120.701,-493.474"/>
</g>
<!-- Node4 -->
<g id="node5" class="node"><title>Node4</title>
<g id="a_node5"><a xlink:href="../../dd/d2a/class_juniper_1_1_unity_1_1_world_1_1_light_estimation_1_1_light_measurement.html" target="_top" xlink:title="Abstracts the measurement of light intensity from camera frames for Augmented Reality Light Estimatio...">
<polygon fill="white" stroke="black" points="17.5,-0.5 17.5,-68.5 160.5,-68.5 160.5,-0.5 17.5,-0.5"/>
<text text-anchor="start" x="25.5" y="-56.5" font-family="SegoeUI" font-size="10.00">Juniper.Unity.World.Light</text>
<text text-anchor="middle" x="89" y="-45.5" font-family="SegoeUI" font-size="10.00">Estimation.LightMeasurement</text>
<polyline fill="none" stroke="black" points="17.5,-38.5 160.5,-38.5 "/>
<text text-anchor="middle" x="89" y="-26.5" font-family="SegoeUI" font-size="10.00"> </text>
<polyline fill="none" stroke="black" points="17.5,-19.5 160.5,-19.5 "/>
<text text-anchor="middle" x="89" y="-7.5" font-family="SegoeUI" font-size="10.00"> </text>
</a>
</g>
</g>
<!-- Node3&#45;&gt;Node4 -->
<g id="edge4" class="edge"><title>Node3&#45;&gt;Node4</title>
<path fill="none" stroke="midnightblue" d="M89,-95.3164C89,-86.2849 89,-77.1589 89,-68.8483"/>
<polygon fill="none" stroke="midnightblue" points="85.5001,-95.4246 89,-105.425 92.5001,-95.4247 85.5001,-95.4246"/>
</g>
</g>
</svg>
        <g id="navigator" transform="translate(0 0)" fill="#404254">
                <rect fill="#f2f5e9" fill-opacity="0.5" stroke="#606060" stroke-width=".5" x="0" y="0" width="60" height="60"/>
                <use id="zoomplus" xlink:href="#zoomPlus" x="17" y="9" onmousedown="handleZoom(evt,'in')"/>
                <use id="zoomminus" xlink:href="#zoomMin" x="42" y="9" onmousedown="handleZoom(evt,'out')"/>
                <use id="reset" xlink:href="#resetDef" x="30" y="36" onmousedown="handleReset()"/>
                <g id="arrowUp" xlink:href="#dirArrow" transform="translate(30 24)" onmousedown="handlePan(0,-1)">
                  <use xlink:href="#rim" fill="#404040">
                        <set attributeName="fill" to="#808080" begin="arrowUp.mouseover" end="arrowUp.mouseout"/>
                  </use>
                  <path fill="none" stroke="white" stroke-width="1.5" d="M0,-3.0v7 M-2.5,-0.5L0,-3.0L2.5,-0.5"/>
                </g>
                <g id="arrowRight" xlink:href="#dirArrow" transform="rotate(90) translate(36 -43)" onmousedown="handlePan(1,0)">
                  <use xlink:href="#rim" fill="#404040">
                        <set attributeName="fill" to="#808080" begin="arrowRight.mouseover" end="arrowRight.mouseout"/>
                  </use>
                  <path fill="none" stroke="white" stroke-width="1.5" d="M0,-3.0v7 M-2.5,-0.5L0,-3.0L2.5,-0.5"/>
                </g>
                <g id="arrowDown" xlink:href="#dirArrow" transform="rotate(180) translate(-30 -48)" onmousedown="handlePan(0,1)">
                  <use xlink:href="#rim" fill="#404040">
                        <set attributeName="fill" to="#808080" begin="arrowDown.mouseover" end="arrowDown.mouseout"/>
                  </use>
                  <path fill="none" stroke="white" stroke-width="1.5" d="M0,-3.0v7 M-2.5,-0.5L0,-3.0L2.5,-0.5"/>
                </g>
                <g id="arrowLeft" xlink:href="#dirArrow" transform="rotate(270) translate(-36 17)" onmousedown="handlePan(-1,0)">
                  <use xlink:href="#rim" fill="#404040">
                        <set attributeName="fill" to="#808080" begin="arrowLeft.mouseover" end="arrowLeft.mouseout"/>
                  </use>
                  <path fill="none" stroke="white" stroke-width="1.5" d="M0,-3.0v7 M-2.5,-0.5L0,-3.0L2.5,-0.5"/>
                </g>
        </g>
        <svg viewBox="0 0 15 15" width="100%" height="30px" preserveAspectRatio="xMaxYMin meet">
         <g id="arrow_out" transform="scale(0.3 0.3)">
          <a xlink:href="class_juniper_1_1_unity_1_1_world_1_1_light_estimation_1_1_abstract_light_measurement__inherit__graph_org.svg" target="_base">
           <rect id="button" ry="5" rx="5" y="6" x="6" height="38" width="38"
                fill="#f2f5e9" fill-opacity="0.5" stroke="#606060" stroke-width="1.0"/>
           <path id="arrow"
             d="M 11.500037,31.436501 C 11.940474,20.09759 22.043105,11.32322 32.158766,21.979434 L 37.068811,17.246167 C 37.068811,17.246167 37.088388,32 37.088388,32 L 22.160133,31.978069 C 22.160133,31.978069 26.997745,27.140456 26.997745,27.140456 C 18.528582,18.264221 13.291696,25.230495 11.500037,31.436501 z"
             style="fill:#404040;"/>
          </a>
         </g>
        </svg>
</svg>
