<?xml version="1.0" encoding="UTF-8" standalone="no"?>
<!DOCTYPE svg PUBLIC "-//W3C//DTD SVG 1.1//EN"
 "http://www.w3.org/Graphics/SVG/1.1/DTD/svg11.dtd">
<!-- Generated by graphviz version 2.38.0 (20140413.2041)
 -->
<!-- Title: Juniper.Logic.IExpression&lt; ItemT &gt; Pages: 1 -->
<!--zoomable 614 -->
<svg id="main" version="1.1" xmlns="http://www.w3.org/2000/svg" xmlns:xlink="http://www.w3.org/1999/xlink" xml:space="preserve" onload="init(evt)">
<style type="text/css"><![CDATA[
.edge:hover path { stroke: red; }
.edge:hover polygon { stroke: red; fill: red; }
]]></style>
<script type="text/javascript"><![CDATA[
var edges = document.getElementsByTagName('g');
if (edges && edges.length) {
  for (var i=0;i<edges.length;i++) {
    if (edges[i].id.substr(0,4)=='edge') {
      edges[i].setAttribute('class','edge');
    }
  }
}
]]></script>
        <defs>
                <circle id="rim" cx="0" cy="0" r="7"/>
                <circle id="rim2" cx="0" cy="0" r="3.5"/>
                <g id="zoomPlus">
                        <use xlink:href="#rim" fill="#404040">
                                <set attributeName="fill" to="#808080" begin="zoomplus.mouseover" end="zoomplus.mouseout"/>
                        </use>
                        <path d="M-4,0h8M0,-4v8" fill="none" stroke="white" stroke-width="1.5" pointer-events="none"/>
                </g>
                <g id="zoomMin">
                        <use xlink:href="#rim" fill="#404040">
                                <set attributeName="fill" to="#808080" begin="zoomminus.mouseover" end="zoomminus.mouseout"/>
                        </use>
                        <path d="M-4,0h8" fill="none" stroke="white" stroke-width="1.5" pointer-events="none"/>
                </g>
                <g id="dirArrow">
                        <path fill="none" stroke="white" stroke-width="1.5" d="M0,-3.0v7 M-2.5,-0.5L0,-3.0L2.5,-0.5"/>
                </g>
               <g id="resetDef">
                       <use xlink:href="#rim2" fill="#404040">
                               <set attributeName="fill" to="#808080" begin="reset.mouseover" end="reset.mouseout"/>
                       </use>
               </g>
        </defs>

<script type="text/javascript">
var viewWidth = 695;
var viewHeight = 614;
var sectionId = 'dynsection-0';
</script>
<script xlink:href="../../svgpan.js"/>
<svg id="graph" class="graph">
<g id="viewport">
<title>Juniper.Logic.IExpression&lt; ItemT &gt;</title>
<polygon fill="white" stroke="none" points="-4,4 -4,-610 691,-610 691,4 -4,4"/>
<!-- Node0 -->
<g id="node1" class="node"><title>Node0</title>
<g id="a_node1"><a xlink:title=" ">
<polygon fill="#bfbfbf" stroke="black" points="381,-515.5 381,-605.5 505,-605.5 505,-515.5 381,-515.5"/>
<text text-anchor="start" x="389" y="-593.5" font-family="SegoeUI" font-size="10.00">Juniper.Logic.IExpression</text>
<text text-anchor="middle" x="443" y="-582.5" font-family="SegoeUI" font-size="10.00">&lt; ItemT &gt;</text>
<polyline fill="none" stroke="black" points="381,-575.5 505,-575.5 "/>
<text text-anchor="start" x="389" y="-563.5" font-family="SegoeUI" font-size="10.00">+ HasNestedElements</text>
<polyline fill="none" stroke="black" points="381,-556.5 505,-556.5 "/>
<text text-anchor="start" x="389" y="-544.5" font-family="SegoeUI" font-size="10.00">+ Evaluate()</text>
<text text-anchor="start" x="389" y="-533.5" font-family="SegoeUI" font-size="10.00">+ GetItems()</text>
<text text-anchor="start" x="389" y="-522.5" font-family="SegoeUI" font-size="10.00">+ GetExpressions()</text>
</a>
</g>
</g>
<!-- Node1 -->
<g id="node2" class="node"><title>Node1</title>
<g id="a_node2"><a xlink:href="../../d6/df2/class_juniper_1_1_logic_1_1_abstract_binary_expression.html" target="_top" xlink:title=" ">
<polygon fill="white" stroke="black" points="188.5,-332.5 188.5,-477.5 329.5,-477.5 329.5,-332.5 188.5,-332.5"/>
<text text-anchor="start" x="196.5" y="-465.5" font-family="SegoeUI" font-size="10.00">Juniper::Logic::Abstract</text>
<text text-anchor="middle" x="259" y="-454.5" font-family="SegoeUI" font-size="10.00">BinaryExpression&lt; ItemT &gt;</text>
<polyline fill="none" stroke="black" points="188.5,-447.5 329.5,-447.5 "/>
<text text-anchor="start" x="196.5" y="-435.5" font-family="SegoeUI" font-size="10.00">+ Item1</text>
<text text-anchor="start" x="196.5" y="-424.5" font-family="SegoeUI" font-size="10.00">+ Item2</text>
<text text-anchor="start" x="196.5" y="-413.5" font-family="SegoeUI" font-size="10.00">+ HasNestedElements</text>
<text text-anchor="start" x="196.5" y="-402.5" font-family="SegoeUI" font-size="10.00">&#45; opName</text>
<polyline fill="none" stroke="black" points="188.5,-395.5 329.5,-395.5 "/>
<text text-anchor="start" x="196.5" y="-383.5" font-family="SegoeUI" font-size="10.00">+ GetItems()</text>
<text text-anchor="start" x="196.5" y="-372.5" font-family="SegoeUI" font-size="10.00">+ GetExpressions()</text>
<text text-anchor="start" x="196.5" y="-361.5" font-family="SegoeUI" font-size="10.00">+ ToString()</text>
<text text-anchor="start" x="196.5" y="-350.5" font-family="SegoeUI" font-size="10.00">+ Evaluate()</text>
<text text-anchor="start" x="196.5" y="-339.5" font-family="SegoeUI" font-size="10.00"># AbstractBinaryExpression()</text>
</a>
</g>
</g>
<!-- Node0&#45;&gt;Node1 -->
<g id="edge1" class="edge"><title>Node0&#45;&gt;Node1</title>
<path fill="none" stroke="midnightblue" d="M381.709,-508.368C364.995,-494.425 346.754,-479.208 329.57,-464.872"/>
<polygon fill="none" stroke="midnightblue" points="379.859,-511.383 389.78,-515.101 384.343,-506.008 379.859,-511.383"/>
</g>
<!-- Node5 -->
<g id="node6" class="node"><title>Node5</title>
<g id="a_node6"><a xlink:href="../../dd/d72/class_juniper_1_1_logic_1_1_abstract_unary_expression.html" target="_top" xlink:title=" ">
<polygon fill="white" stroke="black" points="373,-349 373,-461 513,-461 513,-349 373,-349"/>
<text text-anchor="start" x="381" y="-449" font-family="SegoeUI" font-size="10.00">Juniper::Logic::Abstract</text>
<text text-anchor="middle" x="443" y="-438" font-family="SegoeUI" font-size="10.00">UnaryExpression&lt; ItemT &gt;</text>
<polyline fill="none" stroke="black" points="373,-431 513,-431 "/>
<text text-anchor="start" x="381" y="-419" font-family="SegoeUI" font-size="10.00">+ HasNestedElements</text>
<text text-anchor="start" x="381" y="-408" font-family="SegoeUI" font-size="10.00">+ Value</text>
<polyline fill="none" stroke="black" points="373,-401 513,-401 "/>
<text text-anchor="start" x="381" y="-389" font-family="SegoeUI" font-size="10.00">+ GetExpressions()</text>
<text text-anchor="start" x="381" y="-378" font-family="SegoeUI" font-size="10.00">+ GetItems()</text>
<text text-anchor="start" x="381" y="-367" font-family="SegoeUI" font-size="10.00">+ Evaluate()</text>
<text text-anchor="start" x="381" y="-356" font-family="SegoeUI" font-size="10.00"># AbstractUnaryExpression()</text>
</a>
</g>
</g>
<!-- Node0&#45;&gt;Node5 -->
<g id="edge5" class="edge"><title>Node0&#45;&gt;Node5</title>
<path fill="none" stroke="midnightblue" d="M443,-504.985C443,-490.778 443,-475.46 443,-461.217"/>
<polygon fill="none" stroke="midnightblue" points="439.5,-505.101 443,-515.101 446.5,-505.101 439.5,-505.101"/>
</g>
<!-- Node8 -->
<g id="node9" class="node"><title>Node8</title>
<g id="a_node9"><a xlink:href="../../d0/dea/class_juniper_1_1_logic_1_1_empty_expression.html" target="_top" xlink:title=" ">
<polygon fill="white" stroke="black" points="531,-349 531,-461 687,-461 687,-349 531,-349"/>
<text text-anchor="start" x="539" y="-449" font-family="SegoeUI" font-size="10.00">Juniper::Logic::EmptyExpression</text>
<text text-anchor="middle" x="609" y="-438" font-family="SegoeUI" font-size="10.00">&lt; ItemT &gt;</text>
<polyline fill="none" stroke="black" points="531,-431 687,-431 "/>
<text text-anchor="start" x="539" y="-419" font-family="SegoeUI" font-size="10.00">+ HasNestedElements</text>
<polyline fill="none" stroke="black" points="531,-412 687,-412 "/>
<text text-anchor="start" x="539" y="-400" font-family="SegoeUI" font-size="10.00">+ EmptyExpression()</text>
<text text-anchor="start" x="539" y="-389" font-family="SegoeUI" font-size="10.00">+ Evaluate()</text>
<text text-anchor="start" x="539" y="-378" font-family="SegoeUI" font-size="10.00">+ GetItems()</text>
<text text-anchor="start" x="539" y="-367" font-family="SegoeUI" font-size="10.00">+ GetExpressions()</text>
<text text-anchor="start" x="539" y="-356" font-family="SegoeUI" font-size="10.00">+ ToString()</text>
</a>
</g>
</g>
<!-- Node0&#45;&gt;Node8 -->
<g id="edge8" class="edge"><title>Node0&#45;&gt;Node8</title>
<path fill="none" stroke="midnightblue" d="M498.398,-508.274C514.737,-493.165 532.688,-476.566 549.286,-461.217"/>
<polygon fill="none" stroke="midnightblue" points="495.98,-505.742 491.014,-515.101 500.732,-510.882 495.98,-505.742"/>
</g>
<!-- Node2 -->
<g id="node3" class="node"><title>Node2</title>
<g id="a_node3"><a xlink:href="../../df/d14/class_juniper_1_1_logic_1_1_and_expression.html" target="_top" xlink:title=" ">
<polygon fill="white" stroke="black" points="0,-189 0,-268 146,-268 146,-189 0,-189"/>
<text text-anchor="start" x="8" y="-256" font-family="SegoeUI" font-size="10.00">Juniper::Logic::AndExpression</text>
<text text-anchor="middle" x="73" y="-245" font-family="SegoeUI" font-size="10.00">&lt; ItemT &gt;</text>
<polyline fill="none" stroke="black" points="0,-238 146,-238 "/>
<text text-anchor="middle" x="73" y="-226" font-family="SegoeUI" font-size="10.00"> </text>
<polyline fill="none" stroke="black" points="0,-219 146,-219 "/>
<text text-anchor="start" x="8" y="-207" font-family="SegoeUI" font-size="10.00">+ AndExpression()</text>
<text text-anchor="start" x="8" y="-196" font-family="SegoeUI" font-size="10.00">+ Evaluate()</text>
</a>
</g>
</g>
<!-- Node1&#45;&gt;Node2 -->
<g id="edge2" class="edge"><title>Node1&#45;&gt;Node2</title>
<path fill="none" stroke="midnightblue" d="M181.011,-330.833C158.044,-309.286 133.824,-286.563 114.151,-268.107"/>
<polygon fill="none" stroke="midnightblue" points="178.728,-333.491 188.416,-337.78 183.518,-328.386 178.728,-333.491"/>
</g>
<!-- Node3 -->
<g id="node4" class="node"><title>Node3</title>
<g id="a_node4"><a xlink:href="../../d2/d18/class_juniper_1_1_logic_1_1_or_expression.html" target="_top" xlink:title=" ">
<polygon fill="white" stroke="black" points="164,-189 164,-268 304,-268 304,-189 164,-189"/>
<text text-anchor="start" x="172" y="-256" font-family="SegoeUI" font-size="10.00">Juniper::Logic::OrExpression</text>
<text text-anchor="middle" x="234" y="-245" font-family="SegoeUI" font-size="10.00">&lt; ItemT &gt;</text>
<polyline fill="none" stroke="black" points="164,-238 304,-238 "/>
<text text-anchor="middle" x="234" y="-226" font-family="SegoeUI" font-size="10.00"> </text>
<polyline fill="none" stroke="black" points="164,-219 304,-219 "/>
<text text-anchor="start" x="172" y="-207" font-family="SegoeUI" font-size="10.00">+ OrExpression()</text>
<text text-anchor="start" x="172" y="-196" font-family="SegoeUI" font-size="10.00">+ Evaluate()</text>
</a>
</g>
</g>
<!-- Node1&#45;&gt;Node3 -->
<g id="edge3" class="edge"><title>Node1&#45;&gt;Node3</title>
<path fill="none" stroke="midnightblue" d="M247.272,-322.142C244.567,-303.26 241.814,-284.04 239.521,-268.037"/>
<polygon fill="none" stroke="midnightblue" points="243.84,-322.866 248.723,-332.269 250.77,-321.873 243.84,-322.866"/>
</g>
<!-- Node4 -->
<g id="node5" class="node"><title>Node4</title>
<g id="a_node5"><a xlink:href="../../d9/dbd/class_juniper_1_1_logic_1_1_xor_expression.html" target="_top" xlink:title=" ">
<polygon fill="white" stroke="black" points="322.5,-189 322.5,-268 467.5,-268 467.5,-189 322.5,-189"/>
<text text-anchor="start" x="330.5" y="-256" font-family="SegoeUI" font-size="10.00">Juniper::Logic::XorExpression</text>
<text text-anchor="middle" x="395" y="-245" font-family="SegoeUI" font-size="10.00">&lt; ItemT &gt;</text>
<polyline fill="none" stroke="black" points="322.5,-238 467.5,-238 "/>
<text text-anchor="middle" x="395" y="-226" font-family="SegoeUI" font-size="10.00"> </text>
<polyline fill="none" stroke="black" points="322.5,-219 467.5,-219 "/>
<text text-anchor="start" x="330.5" y="-207" font-family="SegoeUI" font-size="10.00">+ XorExpression()</text>
<text text-anchor="start" x="330.5" y="-196" font-family="SegoeUI" font-size="10.00">+ Evaluate()</text>
</a>
</g>
</g>
<!-- Node1&#45;&gt;Node4 -->
<g id="edge4" class="edge"><title>Node1&#45;&gt;Node4</title>
<path fill="none" stroke="midnightblue" d="M321.172,-324.228C336.406,-304.681 352.034,-284.63 364.965,-268.037"/>
<polygon fill="none" stroke="midnightblue" points="318.292,-322.23 314.905,-332.269 323.813,-326.533 318.292,-322.23"/>
</g>
<!-- Node6 -->
<g id="node7" class="node"><title>Node6</title>
<g id="a_node7"><a xlink:href="../../dd/d72/class_juniper_1_1_logic_1_1_abstract_unary_expression.html" target="_top" xlink:title=" ">
<polygon fill="white" stroke="black" points="486,-172.5 486,-284.5 626,-284.5 626,-172.5 486,-172.5"/>
<text text-anchor="start" x="494" y="-272.5" font-family="SegoeUI" font-size="10.00">Juniper.Logic.AbstractUnary</text>
<text text-anchor="middle" x="556" y="-261.5" font-family="SegoeUI" font-size="10.00">Expression&lt; ItemT, ItemT &gt;</text>
<polyline fill="none" stroke="black" points="486,-254.5 626,-254.5 "/>
<text text-anchor="start" x="494" y="-242.5" font-family="SegoeUI" font-size="10.00">+ HasNestedElements</text>
<text text-anchor="start" x="494" y="-231.5" font-family="SegoeUI" font-size="10.00">+ Value</text>
<polyline fill="none" stroke="black" points="486,-224.5 626,-224.5 "/>
<text text-anchor="start" x="494" y="-212.5" font-family="SegoeUI" font-size="10.00">+ GetExpressions()</text>
<text text-anchor="start" x="494" y="-201.5" font-family="SegoeUI" font-size="10.00">+ GetItems()</text>
<text text-anchor="start" x="494" y="-190.5" font-family="SegoeUI" font-size="10.00">+ Evaluate()</text>
<text text-anchor="start" x="494" y="-179.5" font-family="SegoeUI" font-size="10.00"># AbstractUnaryExpression()</text>
</a>
</g>
</g>
<!-- Node5&#45;&gt;Node6 -->
<g id="edge6" class="edge"><title>Node5&#45;&gt;Node6</title>
<path fill="none" stroke="orange" d="M484.441,-340.005C496.2,-321.847 508.897,-302.239 520.285,-284.653"/>
<polygon fill="orange" stroke="orange" points="481.252,-338.491 478.754,-348.787 487.127,-342.296 481.252,-338.491"/>
<text text-anchor="middle" x="547" y="-306" font-family="SegoeUI" font-size="10.00"> &lt; ItemT, ItemT &gt;</text>
</g>
<!-- Node7 -->
<g id="node8" class="node"><title>Node7</title>
<g id="a_node8"><a xlink:href="../../d5/d8c/class_juniper_1_1_logic_1_1_item_expression.html" target="_top" xlink:title=" ">
<polygon fill="white" stroke="black" points="486,-0.5 486,-134.5 626,-134.5 626,-0.5 486,-0.5"/>
<text text-anchor="start" x="494" y="-122.5" font-family="SegoeUI" font-size="10.00">Juniper.Logic.ItemExpression</text>
<text text-anchor="middle" x="556" y="-111.5" font-family="SegoeUI" font-size="10.00">&lt; ItemT &gt;</text>
<polyline fill="none" stroke="black" points="486,-104.5 626,-104.5 "/>
<text text-anchor="middle" x="556" y="-92.5" font-family="SegoeUI" font-size="10.00"> </text>
<polyline fill="none" stroke="black" points="486,-85.5 626,-85.5 "/>
<text text-anchor="start" x="494" y="-73.5" font-family="SegoeUI" font-size="10.00">+ ItemExpression()</text>
<text text-anchor="start" x="494" y="-62.5" font-family="SegoeUI" font-size="10.00">+ Evaluate()</text>
<text text-anchor="start" x="494" y="-51.5" font-family="SegoeUI" font-size="10.00">+ GetItems()</text>
<text text-anchor="start" x="494" y="-40.5" font-family="SegoeUI" font-size="10.00">+ ToString()</text>
<text text-anchor="start" x="494" y="-29.5" font-family="SegoeUI" font-size="10.00">+ operator ItemExpression</text>
<text text-anchor="start" x="494" y="-18.5" font-family="SegoeUI" font-size="10.00">&lt; ItemT &gt;()</text>
<text text-anchor="start" x="494" y="-7.5" font-family="SegoeUI" font-size="10.00">+ operator ItemT()</text>
</a>
</g>
</g>
<!-- Node6&#45;&gt;Node7 -->
<g id="edge7" class="edge"><title>Node6&#45;&gt;Node7</title>
<path fill="none" stroke="midnightblue" d="M556,-162.166C556,-153.039 556,-143.653 556,-134.513"/>
<polygon fill="none" stroke="midnightblue" points="552.5,-162.336 556,-172.336 559.5,-162.336 552.5,-162.336"/>
</g>
</g>
</svg>
        <g id="navigator" transform="translate(0 0)" fill="#404254">
                <rect fill="#f2f5e9" fill-opacity="0.5" stroke="#606060" stroke-width=".5" x="0" y="0" width="60" height="60"/>
                <use id="zoomplus" xlink:href="#zoomPlus" x="17" y="9" onmousedown="handleZoom(evt,'in')"/>
                <use id="zoomminus" xlink:href="#zoomMin" x="42" y="9" onmousedown="handleZoom(evt,'out')"/>
                <use id="reset" xlink:href="#resetDef" x="30" y="36" onmousedown="handleReset()"/>
                <g id="arrowUp" xlink:href="#dirArrow" transform="translate(30 24)" onmousedown="handlePan(0,-1)">
                  <use xlink:href="#rim" fill="#404040">
                        <set attributeName="fill" to="#808080" begin="arrowUp.mouseover" end="arrowUp.mouseout"/>
                  </use>
                  <path fill="none" stroke="white" stroke-width="1.5" d="M0,-3.0v7 M-2.5,-0.5L0,-3.0L2.5,-0.5"/>
                </g>
                <g id="arrowRight" xlink:href="#dirArrow" transform="rotate(90) translate(36 -43)" onmousedown="handlePan(1,0)">
                  <use xlink:href="#rim" fill="#404040">
                        <set attributeName="fill" to="#808080" begin="arrowRight.mouseover" end="arrowRight.mouseout"/>
                  </use>
                  <path fill="none" stroke="white" stroke-width="1.5" d="M0,-3.0v7 M-2.5,-0.5L0,-3.0L2.5,-0.5"/>
                </g>
                <g id="arrowDown" xlink:href="#dirArrow" transform="rotate(180) translate(-30 -48)" onmousedown="handlePan(0,1)">
                  <use xlink:href="#rim" fill="#404040">
                        <set attributeName="fill" to="#808080" begin="arrowDown.mouseover" end="arrowDown.mouseout"/>
                  </use>
                  <path fill="none" stroke="white" stroke-width="1.5" d="M0,-3.0v7 M-2.5,-0.5L0,-3.0L2.5,-0.5"/>
                </g>
                <g id="arrowLeft" xlink:href="#dirArrow" transform="rotate(270) translate(-36 17)" onmousedown="handlePan(-1,0)">
                  <use xlink:href="#rim" fill="#404040">
                        <set attributeName="fill" to="#808080" begin="arrowLeft.mouseover" end="arrowLeft.mouseout"/>
                  </use>
                  <path fill="none" stroke="white" stroke-width="1.5" d="M0,-3.0v7 M-2.5,-0.5L0,-3.0L2.5,-0.5"/>
                </g>
        </g>
        <svg viewBox="0 0 15 15" width="100%" height="30px" preserveAspectRatio="xMaxYMin meet">
         <g id="arrow_out" transform="scale(0.3 0.3)">
          <a xlink:href="interface_juniper_1_1_logic_1_1_i_expression__inherit__graph_org.svg" target="_base">
           <rect id="button" ry="5" rx="5" y="6" x="6" height="38" width="38"
                fill="#f2f5e9" fill-opacity="0.5" stroke="#606060" stroke-width="1.0"/>
           <path id="arrow"
             d="M 11.500037,31.436501 C 11.940474,20.09759 22.043105,11.32322 32.158766,21.979434 L 37.068811,17.246167 C 37.068811,17.246167 37.088388,32 37.088388,32 L 22.160133,31.978069 C 22.160133,31.978069 26.997745,27.140456 26.997745,27.140456 C 18.528582,18.264221 13.291696,25.230495 11.500037,31.436501 z"
             style="fill:#404040;"/>
          </a>
         </g>
        </svg>
</svg>
