<?xml version="1.0" encoding="UTF-8" standalone="no"?>
<!DOCTYPE svg PUBLIC "-//W3C//DTD SVG 1.1//EN"
 "http://www.w3.org/Graphics/SVG/1.1/DTD/svg11.dtd">
<!-- Generated by graphviz version 2.38.0 (20140413.2041)
 -->
<!-- Title: System.Collections.Generic.NAryTree&lt; T &gt; Pages: 1 -->
<svg width="143pt" height="187pt"
 viewBox="0.00 0.00 143.00 187.00" xmlns="http://www.w3.org/2000/svg" xmlns:xlink="http://www.w3.org/1999/xlink">
<g id="graph0" class="graph" transform="scale(1 1) rotate(0) translate(4 183)">
<title>System.Collections.Generic.NAryTree&lt; T &gt;</title>
<polygon fill="white" stroke="none" points="-4,4 -4,-183 139,-183 139,4 -4,4"/>
<!-- Node1 -->
<g id="node1" class="node"><title>Node1</title>
<g id="a_node1"><a xlink:title="A node in an N&#45;ary tree.">
<polygon fill="#bfbfbf" stroke="black" points="0,-0.5 0,-178.5 135,-178.5 135,-0.5 0,-0.5"/>
<text text-anchor="start" x="8" y="-166.5" font-family="SegoeUI" font-size="10.00">System.Collections.Generic.</text>
<text text-anchor="middle" x="67.5" y="-155.5" font-family="SegoeUI" font-size="10.00">NAryTree&lt; T &gt;</text>
<polyline fill="none" stroke="black" points="0,-148.5 135,-148.5 "/>
<text text-anchor="start" x="8" y="-136.5" font-family="SegoeUI" font-size="10.00">+ Value</text>
<text text-anchor="start" x="8" y="-125.5" font-family="SegoeUI" font-size="10.00">+ IsLeaf</text>
<text text-anchor="start" x="8" y="-114.5" font-family="SegoeUI" font-size="10.00">+ IsRoot</text>
<text text-anchor="start" x="8" y="-103.5" font-family="SegoeUI" font-size="10.00">&#45; depth</text>
<text text-anchor="start" x="8" y="-92.5" font-family="SegoeUI" font-size="10.00">&#45; parent</text>
<text text-anchor="start" x="8" y="-81.5" font-family="SegoeUI" font-size="10.00">&#45; children</text>
<polyline fill="none" stroke="black" points="0,-74.5 135,-74.5 "/>
<text text-anchor="start" x="8" y="-62.5" font-family="SegoeUI" font-size="10.00">+ NAryTree()</text>
<text text-anchor="start" x="8" y="-51.5" font-family="SegoeUI" font-size="10.00">+ Add()</text>
<text text-anchor="start" x="8" y="-40.5" font-family="SegoeUI" font-size="10.00">+ Add()</text>
<text text-anchor="start" x="8" y="-29.5" font-family="SegoeUI" font-size="10.00">+ ToString()</text>
<text text-anchor="start" x="8" y="-18.5" font-family="SegoeUI" font-size="10.00"># Recurse()</text>
<text text-anchor="start" x="8" y="-7.5" font-family="SegoeUI" font-size="10.00">&#45; IncreaseDepth()</text>
</a>
</g>
</g>
</g>
</svg>
