<?xml version="1.0" encoding="UTF-8" standalone="no"?>
<!DOCTYPE svg PUBLIC "-//W3C//DTD SVG 1.1//EN"
 "http://www.w3.org/Graphics/SVG/1.1/DTD/svg11.dtd">
<!-- Generated by graphviz version 2.38.0 (20140413.2041)
 -->
<!-- Title: Juniper.Widgets.AbstractFollowSettings Pages: 1 -->
<svg width="322pt" height="540pt"
 viewBox="0.00 0.00 321.50 540.00" xmlns="http://www.w3.org/2000/svg" xmlns:xlink="http://www.w3.org/1999/xlink">
<g id="graph0" class="graph" transform="scale(1 1) rotate(0) translate(4 536)">
<title>Juniper.Widgets.AbstractFollowSettings</title>
<polygon fill="white" stroke="none" points="-4,4 -4,-536 317.5,-536 317.5,4 -4,4"/>
<!-- Node0 -->
<g id="node1" class="node"><title>Node0</title>
<g id="a_node1"><a xlink:title="Make one object&#39;s pose follow the pose of another object.">
<polygon fill="#bfbfbf" stroke="black" points="89,-281.5 89,-437.5 220,-437.5 220,-281.5 89,-281.5"/>
<text text-anchor="start" x="97" y="-425.5" font-family="SegoeUI" font-size="10.00">Juniper.Widgets.Abstract</text>
<text text-anchor="middle" x="154.5" y="-414.5" font-family="SegoeUI" font-size="10.00">FollowSettings</text>
<polyline fill="none" stroke="black" points="89,-407.5 220,-407.5 "/>
<text text-anchor="start" x="97" y="-395.5" font-family="SegoeUI" font-size="10.00">+ FollowPosition</text>
<text text-anchor="start" x="97" y="-384.5" font-family="SegoeUI" font-size="10.00">+ interpolatePosition</text>
<text text-anchor="start" x="97" y="-373.5" font-family="SegoeUI" font-size="10.00">+ FollowPositionThreshold</text>
<text text-anchor="start" x="97" y="-362.5" font-family="SegoeUI" font-size="10.00">+ maxSpeed</text>
<text text-anchor="start" x="97" y="-351.5" font-family="SegoeUI" font-size="10.00">+ Distance</text>
<text text-anchor="start" x="97" y="-340.5" font-family="SegoeUI" font-size="10.00">+ FollowRotation</text>
<text text-anchor="start" x="97" y="-329.5" font-family="SegoeUI" font-size="10.00">+ interpolateRotation</text>
<text text-anchor="start" x="97" y="-318.5" font-family="SegoeUI" font-size="10.00">+ FollowRotationThreshold</text>
<text text-anchor="start" x="97" y="-307.5" font-family="SegoeUI" font-size="10.00">+ maxRotationRate</text>
<polyline fill="none" stroke="black" points="89,-300.5 220,-300.5 "/>
<text text-anchor="start" x="97" y="-288.5" font-family="SegoeUI" font-size="10.00">+ Copy()</text>
</a>
</g>
</g>
<!-- Node2 -->
<g id="node3" class="node"><title>Node2</title>
<g id="a_node3"><a xlink:href="../../d8/dfe/class_juniper_1_1_widgets_1_1_follow_object.html" target="_top" xlink:title="Make one object&#39;s pose follow the pose of another object.">
<polygon fill="white" stroke="black" points="0,-0.5 0,-244.5 143,-244.5 143,-0.5 0,-0.5"/>
<text text-anchor="middle" x="71.5" y="-232.5" font-family="SegoeUI" font-size="10.00">Juniper.Widgets.FollowObject</text>
<polyline fill="none" stroke="black" points="0,-225.5 143,-225.5 "/>
<text text-anchor="start" x="8" y="-213.5" font-family="SegoeUI" font-size="10.00">+ followObject</text>
<text text-anchor="start" x="8" y="-202.5" font-family="SegoeUI" font-size="10.00">&#45; CLOSE_THRESHOLD</text>
<text text-anchor="start" x="8" y="-191.5" font-family="SegoeUI" font-size="10.00">&#45; MAX_TIME</text>
<text text-anchor="start" x="8" y="-180.5" font-family="SegoeUI" font-size="10.00">&#45; targetVelocity</text>
<text text-anchor="start" x="8" y="-169.5" font-family="SegoeUI" font-size="10.00">&#45; velocity</text>
<text text-anchor="start" x="8" y="-158.5" font-family="SegoeUI" font-size="10.00">&#45; targetRotationRate</text>
<text text-anchor="start" x="8" y="-147.5" font-family="SegoeUI" font-size="10.00">&#45; rotationRate</text>
<polyline fill="none" stroke="black" points="0,-140.5 143,-140.5 "/>
<text text-anchor="start" x="8" y="-128.5" font-family="SegoeUI" font-size="10.00">+ SetTarget()</text>
<text text-anchor="start" x="8" y="-117.5" font-family="SegoeUI" font-size="10.00">+ Reparent()</text>
<text text-anchor="start" x="8" y="-106.5" font-family="SegoeUI" font-size="10.00">+ Update()</text>
<text text-anchor="start" x="8" y="-95.5" font-family="SegoeUI" font-size="10.00">+ LateUpdate()</text>
<text text-anchor="start" x="8" y="-84.5" font-family="SegoeUI" font-size="10.00">+ Skip()</text>
<text text-anchor="start" x="8" y="-73.5" font-family="SegoeUI" font-size="10.00">&#45; SetRate()</text>
<text text-anchor="start" x="8" y="-62.5" font-family="SegoeUI" font-size="10.00">&#45; NextPosition()</text>
<text text-anchor="start" x="8" y="-51.5" font-family="SegoeUI" font-size="10.00">&#45; NextRotation()</text>
<text text-anchor="start" x="8" y="-40.5" font-family="SegoeUI" font-size="10.00">&#45; SkipToRotation()</text>
<text text-anchor="start" x="8" y="-29.5" font-family="SegoeUI" font-size="10.00">&#45; SkipToPosition()</text>
<text text-anchor="start" x="8" y="-18.5" font-family="SegoeUI" font-size="10.00">&#45; GetEndPosition()</text>
<text text-anchor="start" x="8" y="-7.5" font-family="SegoeUI" font-size="10.00">&#45; GetEndRotationEuler()</text>
</a>
</g>
</g>
<!-- Node0&#45;&gt;Node2 -->
<g id="edge2" class="edge"><title>Node0&#45;&gt;Node2</title>
<path fill="none" stroke="midnightblue" d="M123.852,-271.726C120.725,-262.871 117.509,-253.765 114.282,-244.63"/>
<polygon fill="none" stroke="midnightblue" points="120.577,-272.963 127.208,-281.227 127.178,-270.632 120.577,-272.963"/>
</g>
<!-- Node3 -->
<g id="node4" class="node"><title>Node3</title>
<g id="a_node4"><a xlink:href="../../da/dcb/class_juniper_1_1_widgets_1_1_follow_platform_settings.html" target="_top" xlink:title="Make one object&#39;s pose follow the pose of another object.">
<polygon fill="white" stroke="black" points="161.5,-77.5 161.5,-167.5 313.5,-167.5 313.5,-77.5 161.5,-77.5"/>
<text text-anchor="start" x="169.5" y="-155.5" font-family="SegoeUI" font-size="10.00">Juniper.Widgets.FollowPlatform</text>
<text text-anchor="middle" x="237.5" y="-144.5" font-family="SegoeUI" font-size="10.00">Settings</text>
<polyline fill="none" stroke="black" points="161.5,-137.5 313.5,-137.5 "/>
<text text-anchor="start" x="169.5" y="-125.5" font-family="SegoeUI" font-size="10.00">+ platform</text>
<text text-anchor="start" x="169.5" y="-114.5" font-family="SegoeUI" font-size="10.00">&#45; f</text>
<polyline fill="none" stroke="black" points="161.5,-107.5 313.5,-107.5 "/>
<text text-anchor="start" x="169.5" y="-95.5" font-family="SegoeUI" font-size="10.00">+ OnValidate()</text>
<text text-anchor="start" x="169.5" y="-84.5" font-family="SegoeUI" font-size="10.00">+ Awake()</text>
</a>
</g>
</g>
<!-- Node0&#45;&gt;Node3 -->
<g id="edge3" class="edge"><title>Node0&#45;&gt;Node3</title>
<path fill="none" stroke="midnightblue" d="M185.273,-271.373C197.757,-236.026 211.632,-196.741 221.941,-167.552"/>
<polygon fill="none" stroke="midnightblue" points="181.822,-270.632 181.792,-281.227 188.423,-272.963 181.822,-270.632"/>
</g>
<!-- Node1 -->
<g id="node2" class="node"><title>Node1</title>
<g id="a_node2"><a xlink:title=" ">
<polygon fill="white" stroke="#bfbfbf" points="113.5,-474.5 113.5,-531.5 195.5,-531.5 195.5,-474.5 113.5,-474.5"/>
<text text-anchor="middle" x="154.5" y="-519.5" font-family="SegoeUI" font-size="10.00">MonoBehaviour</text>
<polyline fill="none" stroke="#bfbfbf" points="113.5,-512.5 195.5,-512.5 "/>
<text text-anchor="middle" x="154.5" y="-500.5" font-family="SegoeUI" font-size="10.00"> </text>
<polyline fill="none" stroke="#bfbfbf" points="113.5,-493.5 195.5,-493.5 "/>
<text text-anchor="middle" x="154.5" y="-481.5" font-family="SegoeUI" font-size="10.00"> </text>
</a>
</g>
</g>
<!-- Node1&#45;&gt;Node0 -->
<g id="edge1" class="edge"><title>Node1&#45;&gt;Node0</title>
<path fill="none" stroke="midnightblue" d="M154.5,-464.34C154.5,-456.044 154.5,-446.964 154.5,-437.736"/>
<polygon fill="none" stroke="midnightblue" points="151,-464.381 154.5,-474.381 158,-464.382 151,-464.381"/>
</g>
</g>
</svg>
