<?xml version="1.0" encoding="UTF-8" standalone="no"?>
<!DOCTYPE svg PUBLIC "-//W3C//DTD SVG 1.1//EN"
 "http://www.w3.org/Graphics/SVG/1.1/DTD/svg11.dtd">
<!-- Generated by graphviz version 2.38.0 (20140413.2041)
 -->
<!-- Title: Juniper.Widgets.ListView Pages: 1 -->
<svg width="211pt" height="435pt"
 viewBox="0.00 0.00 211.00 435.00" xmlns="http://www.w3.org/2000/svg" xmlns:xlink="http://www.w3.org/1999/xlink">
<g id="graph0" class="graph" transform="scale(1 1) rotate(0) translate(4 431)">
<title>Juniper.Widgets.ListView</title>
<polygon fill="white" stroke="none" points="-4,4 -4,-431 207,-431 207,4 -4,4"/>
<!-- Node2 -->
<g id="node1" class="node"><title>Node2</title>
<g id="a_node1"><a xlink:title=" ">
<polygon fill="#bfbfbf" stroke="black" points="13,-0.5 13,-321.5 147,-321.5 147,-0.5 13,-0.5"/>
<text text-anchor="middle" x="80" y="-309.5" font-family="SegoeUI" font-size="10.00">Juniper.Widgets.ListView</text>
<polyline fill="none" stroke="black" points="13,-302.5 147,-302.5 "/>
<text text-anchor="start" x="21" y="-290.5" font-family="SegoeUI" font-size="10.00">+ selectionMode</text>
<text text-anchor="start" x="21" y="-279.5" font-family="SegoeUI" font-size="10.00">+ font</text>
<text text-anchor="start" x="21" y="-268.5" font-family="SegoeUI" font-size="10.00">+ fontSize</text>
<text text-anchor="start" x="21" y="-257.5" font-family="SegoeUI" font-size="10.00">+ normalBackgroundColor</text>
<text text-anchor="start" x="21" y="-246.5" font-family="SegoeUI" font-size="10.00">+ highlightBackgroundColor</text>
<text text-anchor="start" x="21" y="-235.5" font-family="SegoeUI" font-size="10.00">+ normalColor</text>
<text text-anchor="start" x="21" y="-224.5" font-family="SegoeUI" font-size="10.00">+ disabledColor</text>
<text text-anchor="start" x="21" y="-213.5" font-family="SegoeUI" font-size="10.00">+ highlightColor</text>
<text text-anchor="start" x="21" y="-202.5" font-family="SegoeUI" font-size="10.00">+ onSelectionChanged</text>
<text text-anchor="start" x="21" y="-191.5" font-family="SegoeUI" font-size="10.00">+ Items</text>
<text text-anchor="start" x="21" y="-180.5" font-family="SegoeUI" font-size="10.00">+ Selection</text>
<text text-anchor="start" x="21" y="-169.5" font-family="SegoeUI" font-size="10.00">+ FirstSelectedItem</text>
<text text-anchor="start" x="21" y="-158.5" font-family="SegoeUI" font-size="10.00">+ Container</text>
<text text-anchor="start" x="21" y="-147.5" font-family="SegoeUI" font-size="10.00">&#45; count</text>
<polyline fill="none" stroke="black" points="13,-140.5 147,-140.5 "/>
<text text-anchor="start" x="21" y="-128.5" font-family="SegoeUI" font-size="10.00">+ Awake()</text>
<text text-anchor="start" x="21" y="-117.5" font-family="SegoeUI" font-size="10.00">+ Clear()</text>
<text text-anchor="start" x="21" y="-106.5" font-family="SegoeUI" font-size="10.00">+ GetItem()</text>
<text text-anchor="start" x="21" y="-95.5" font-family="SegoeUI" font-size="10.00">+ ContainsItem()</text>
<text text-anchor="start" x="21" y="-84.5" font-family="SegoeUI" font-size="10.00">+ AddItems&lt; T &gt;()</text>
<text text-anchor="start" x="21" y="-73.5" font-family="SegoeUI" font-size="10.00">+ AddItem()</text>
<text text-anchor="start" x="21" y="-62.5" font-family="SegoeUI" font-size="10.00">+ ClearSelection()</text>
<text text-anchor="start" x="21" y="-51.5" font-family="SegoeUI" font-size="10.00">+ SetSelection()</text>
<text text-anchor="start" x="21" y="-40.5" font-family="SegoeUI" font-size="10.00">+ SetSelection()</text>
<text text-anchor="start" x="21" y="-29.5" font-family="SegoeUI" font-size="10.00">+ RemoveItem()</text>
<text text-anchor="start" x="21" y="-18.5" font-family="SegoeUI" font-size="10.00">&#45; ChangeSelection()</text>
<text text-anchor="start" x="21" y="-7.5" font-family="SegoeUI" font-size="10.00">&#45; SetSelection()</text>
</a>
</g>
</g>
<!-- Node3 -->
<g id="node2" class="node"><title>Node3</title>
<g id="a_node2"><a xlink:title=" ">
<polygon fill="white" stroke="#bfbfbf" points="0,-369.5 0,-426.5 82,-426.5 82,-369.5 0,-369.5"/>
<text text-anchor="middle" x="41" y="-414.5" font-family="SegoeUI" font-size="10.00">MonoBehaviour</text>
<polyline fill="none" stroke="#bfbfbf" points="0,-407.5 82,-407.5 "/>
<text text-anchor="middle" x="41" y="-395.5" font-family="SegoeUI" font-size="10.00"> </text>
<polyline fill="none" stroke="#bfbfbf" points="0,-388.5 82,-388.5 "/>
<text text-anchor="middle" x="41" y="-376.5" font-family="SegoeUI" font-size="10.00"> </text>
</a>
</g>
</g>
<!-- Node3&#45;&gt;Node2 -->
<g id="edge1" class="edge"><title>Node3&#45;&gt;Node2</title>
<path fill="none" stroke="midnightblue" d="M47.2878,-359.112C49.1189,-348.078 51.2435,-335.277 53.5136,-321.598"/>
<polygon fill="none" stroke="midnightblue" points="43.8115,-358.681 45.627,-369.12 50.717,-359.828 43.8115,-358.681"/>
</g>
<!-- Node4 -->
<g id="node3" class="node"><title>Node4</title>
<g id="a_node3"><a xlink:title=" ">
<polygon fill="white" stroke="#bfbfbf" points="100.5,-369.5 100.5,-426.5 139.5,-426.5 139.5,-369.5 100.5,-369.5"/>
<text text-anchor="middle" x="120" y="-414.5" font-family="SegoeUI" font-size="10.00">static</text>
<polyline fill="none" stroke="#bfbfbf" points="100.5,-407.5 139.5,-407.5 "/>
<text text-anchor="middle" x="120" y="-395.5" font-family="SegoeUI" font-size="10.00"> </text>
<polyline fill="none" stroke="#bfbfbf" points="100.5,-388.5 139.5,-388.5 "/>
<text text-anchor="middle" x="120" y="-376.5" font-family="SegoeUI" font-size="10.00"> </text>
</a>
</g>
</g>
<!-- Node4&#45;&gt;Node2 -->
<g id="edge2" class="edge"><title>Node4&#45;&gt;Node2</title>
<path fill="none" stroke="#404040" d="M115.254,-369.12C113.55,-359.105 111.481,-346.952 109.21,-333.607"/>
<polygon fill="none" stroke="#404040" points="109.179,-333.428 104.229,-328.184 107.166,-321.598 112.116,-326.841 109.179,-333.428"/>
<text text-anchor="middle" x="157.5" y="-343" font-family="SegoeUI" font-size="10.00"> &#45;EMPTY_SELECTION</text>
</g>
</g>
</svg>
