<?xml version="1.0" encoding="UTF-8" standalone="no"?>
<!DOCTYPE svg PUBLIC "-//W3C//DTD SVG 1.1//EN"
 "http://www.w3.org/Graphics/SVG/1.1/DTD/svg11.dtd">
<!-- Generated by graphviz version 2.38.0 (20140413.2041)
 -->
<!-- Title: Juniper.Input.IKeyboardTriggered Pages: 1 -->
<svg width="168pt" height="182pt"
 viewBox="0.00 0.00 168.00 182.00" xmlns="http://www.w3.org/2000/svg" xmlns:xlink="http://www.w3.org/1999/xlink">
<g id="graph0" class="graph" transform="scale(1 1) rotate(0) translate(4 178)">
<title>Juniper.Input.IKeyboardTriggered</title>
<polygon fill="white" stroke="none" points="-4,4 -4,-178 164,-178 164,4 -4,4"/>
<!-- Node0 -->
<g id="node1" class="node"><title>Node0</title>
<g id="a_node1"><a xlink:title=" ">
<polygon fill="#bfbfbf" stroke="black" points="0,-116.5 0,-173.5 160,-173.5 160,-116.5 0,-116.5"/>
<text text-anchor="middle" x="80" y="-161.5" font-family="SegoeUI" font-size="10.00">Juniper.Input.IKeyboardTriggered</text>
<polyline fill="none" stroke="black" points="0,-154.5 160,-154.5 "/>
<text text-anchor="start" x="8" y="-142.5" font-family="SegoeUI" font-size="10.00">+ KeyCode</text>
<polyline fill="none" stroke="black" points="0,-135.5 160,-135.5 "/>
<text text-anchor="middle" x="80" y="-123.5" font-family="SegoeUI" font-size="10.00"> </text>
</a>
</g>
</g>
<!-- Node1 -->
<g id="node2" class="node"><title>Node1</title>
<g id="a_node2"><a xlink:href="../../db/d73/class_juniper_1_1_input_1_1_keyboardable.html" target="_top" xlink:title="This component listens for a given keystroke, firing an event when it occurs. That event can be used ...">
<polygon fill="white" stroke="black" points="13.5,-0.5 13.5,-79.5 146.5,-79.5 146.5,-0.5 13.5,-0.5"/>
<text text-anchor="middle" x="80" y="-67.5" font-family="SegoeUI" font-size="10.00">Juniper.Input.Keyboardable</text>
<polyline fill="none" stroke="black" points="13.5,-60.5 146.5,-60.5 "/>
<text text-anchor="start" x="21.5" y="-48.5" font-family="SegoeUI" font-size="10.00">+ key</text>
<text text-anchor="start" x="21.5" y="-37.5" font-family="SegoeUI" font-size="10.00">+ KeyCode</text>
<polyline fill="none" stroke="black" points="13.5,-30.5 146.5,-30.5 "/>
<text text-anchor="start" x="21.5" y="-18.5" font-family="SegoeUI" font-size="10.00"># OnDisable()</text>
<text text-anchor="start" x="21.5" y="-7.5" font-family="SegoeUI" font-size="10.00"># OnEnable()</text>
</a>
</g>
</g>
<!-- Node0&#45;&gt;Node1 -->
<g id="edge1" class="edge"><title>Node0&#45;&gt;Node1</title>
<path fill="none" stroke="midnightblue" d="M80,-106.156C80,-97.4733 80,-88.2318 80,-79.5205"/>
<polygon fill="none" stroke="midnightblue" points="76.5001,-106.398 80,-116.398 83.5001,-106.398 76.5001,-106.398"/>
</g>
</g>
</svg>
