<?xml version="1.0" encoding="UTF-8" standalone="no"?>
<!DOCTYPE svg PUBLIC "-//W3C//DTD SVG 1.1//EN"
 "http://www.w3.org/Graphics/SVG/1.1/DTD/svg11.dtd">
<!-- Generated by graphviz version 2.38.0 (20140413.2041)
 -->
<!-- Title: Juniper.Unity.Widgets.TranslationHandle Pages: 1 -->
<!--zoomable 1425 -->
<svg id="main" version="1.1" xmlns="http://www.w3.org/2000/svg" xmlns:xlink="http://www.w3.org/1999/xlink" xml:space="preserve" onload="init(evt)">
<style type="text/css"><![CDATA[
.edge:hover path { stroke: red; }
.edge:hover polygon { stroke: red; fill: red; }
]]></style>
<script type="text/javascript"><![CDATA[
var edges = document.getElementsByTagName('g');
if (edges && edges.length) {
  for (var i=0;i<edges.length;i++) {
    if (edges[i].id.substr(0,4)=='edge') {
      edges[i].setAttribute('class','edge');
    }
  }
}
]]></script>
        <defs>
                <circle id="rim" cx="0" cy="0" r="7"/>
                <circle id="rim2" cx="0" cy="0" r="3.5"/>
                <g id="zoomPlus">
                        <use xlink:href="#rim" fill="#404040">
                                <set attributeName="fill" to="#808080" begin="zoomplus.mouseover" end="zoomplus.mouseout"/>
                        </use>
                        <path d="M-4,0h8M0,-4v8" fill="none" stroke="white" stroke-width="1.5" pointer-events="none"/>
                </g>
                <g id="zoomMin">
                        <use xlink:href="#rim" fill="#404040">
                                <set attributeName="fill" to="#808080" begin="zoomminus.mouseover" end="zoomminus.mouseout"/>
                        </use>
                        <path d="M-4,0h8" fill="none" stroke="white" stroke-width="1.5" pointer-events="none"/>
                </g>
                <g id="dirArrow">
                        <path fill="none" stroke="white" stroke-width="1.5" d="M0,-3.0v7 M-2.5,-0.5L0,-3.0L2.5,-0.5"/>
                </g>
               <g id="resetDef">
                       <use xlink:href="#rim2" fill="#404040">
                               <set attributeName="fill" to="#808080" begin="reset.mouseover" end="reset.mouseout"/>
                       </use>
               </g>
        </defs>

<script type="text/javascript">
var viewWidth = 1267;
var viewHeight = 1425;
var sectionId = 'dynsection-1';
</script>
<script xlink:href="../../svgpan.js"/>
<svg id="graph" class="graph">
<g id="viewport">
<title>Juniper.Unity.Widgets.TranslationHandle</title>
<polygon fill="white" stroke="none" points="-4,4 -4,-1421 1263,-1421 1263,4 -4,4"/>
<!-- Node3 -->
<g id="node1" class="node"><title>Node3</title>
<g id="a_node1"><a xlink:title="A draggable object that can be used to translate the position of another object.">
<polygon fill="#bfbfbf" stroke="black" points="0,-0.5 0,-79.5 160,-79.5 160,-0.5 0,-0.5"/>
<text text-anchor="start" x="8" y="-67.5" font-family="SegoeUI" font-size="10.00">Juniper.Unity.Widgets.Translation</text>
<text text-anchor="middle" x="80" y="-56.5" font-family="SegoeUI" font-size="10.00">Handle</text>
<polyline fill="none" stroke="black" points="0,-49.5 160,-49.5 "/>
<text text-anchor="middle" x="80" y="-37.5" font-family="SegoeUI" font-size="10.00"> </text>
<polyline fill="none" stroke="black" points="0,-30.5 160,-30.5 "/>
<text text-anchor="start" x="8" y="-18.5" font-family="SegoeUI" font-size="10.00"># GetChange()</text>
<text text-anchor="start" x="8" y="-7.5" font-family="SegoeUI" font-size="10.00"># ApplyChange()</text>
</a>
</g>
</g>
<!-- Node4 -->
<g id="node2" class="node"><title>Node4</title>
<g id="a_node2"><a xlink:href="../../d6/d6a/class_juniper_1_1_unity_1_1_widgets_1_1_abstract_constraint_handle.html" target="_top" xlink:title="An abstract class that manages reading the movement of a control handle and constraining that movemen...">
<polygon fill="white" stroke="black" points="17.5,-117.5 17.5,-262.5 142.5,-262.5 142.5,-117.5 17.5,-117.5"/>
<text text-anchor="middle" x="80" y="-250.5" font-family="SegoeUI" font-size="10.00">AbstractConstraintHandle</text>
<polyline fill="none" stroke="black" points="17.5,-243.5 142.5,-243.5 "/>
<text text-anchor="start" x="25.5" y="-231.5" font-family="SegoeUI" font-size="10.00">+ target</text>
<text text-anchor="start" x="25.5" y="-220.5" font-family="SegoeUI" font-size="10.00">+ axis</text>
<text text-anchor="start" x="25.5" y="-209.5" font-family="SegoeUI" font-size="10.00">+ speed</text>
<text text-anchor="start" x="25.5" y="-198.5" font-family="SegoeUI" font-size="10.00">&#45; hadTarget</text>
<polyline fill="none" stroke="black" points="17.5,-191.5 142.5,-191.5 "/>
<text text-anchor="start" x="25.5" y="-179.5" font-family="SegoeUI" font-size="10.00">+ Awake()</text>
<text text-anchor="start" x="25.5" y="-168.5" font-family="SegoeUI" font-size="10.00">+ Update()</text>
<text text-anchor="start" x="25.5" y="-157.5" font-family="SegoeUI" font-size="10.00">+ Setup()</text>
<text text-anchor="start" x="25.5" y="-146.5" font-family="SegoeUI" font-size="10.00"># ConstrainChange()</text>
<text text-anchor="start" x="25.5" y="-135.5" font-family="SegoeUI" font-size="10.00"># GetChange()</text>
<text text-anchor="start" x="25.5" y="-124.5" font-family="SegoeUI" font-size="10.00"># ApplyChange()</text>
</a>
</g>
</g>
<!-- Node4&#45;&gt;Node3 -->
<g id="edge1" class="edge"><title>Node4&#45;&gt;Node3</title>
<path fill="none" stroke="midnightblue" d="M80,-107.152C80,-97.576 80,-88.1775 80,-79.6075"/>
<polygon fill="none" stroke="midnightblue" points="76.5001,-107.168 80,-117.168 83.5001,-107.168 76.5001,-107.168"/>
</g>
<!-- Node5 -->
<g id="node3" class="node"><title>Node5</title>
<g id="a_node3"><a xlink:title=" ">
<polygon fill="white" stroke="#bfbfbf" points="908,-1359.5 908,-1416.5 990,-1416.5 990,-1359.5 908,-1359.5"/>
<text text-anchor="middle" x="949" y="-1404.5" font-family="SegoeUI" font-size="10.00">MonoBehaviour</text>
<polyline fill="none" stroke="#bfbfbf" points="908,-1397.5 990,-1397.5 "/>
<text text-anchor="middle" x="949" y="-1385.5" font-family="SegoeUI" font-size="10.00"> </text>
<polyline fill="none" stroke="#bfbfbf" points="908,-1378.5 990,-1378.5 "/>
<text text-anchor="middle" x="949" y="-1366.5" font-family="SegoeUI" font-size="10.00"> </text>
</a>
</g>
</g>
<!-- Node5&#45;&gt;Node4 -->
<g id="edge2" class="edge"><title>Node5&#45;&gt;Node4</title>
<path fill="none" stroke="midnightblue" d="M897.757,-1385.99C704.947,-1381.54 34,-1359.74 34,-1272 34,-1272 34,-1272 34,-398.5 34,-352.561 44.8797,-302.228 56.0569,-262.64"/>
<polygon fill="none" stroke="midnightblue" points="897.831,-1389.5 907.907,-1386.22 897.988,-1382.5 897.831,-1389.5"/>
</g>
<!-- Node9 -->
<g id="node7" class="node"><title>Node9</title>
<g id="a_node7"><a xlink:href="../../dc/dad/class_juniper_1_1_unity_1_1_widgets_1_1_abstract_touchable.html" target="_top" xlink:title="The base class for all interactive, AR&#45;compatible, GUI controls /// This class is abstract to avoid i...">
<polygon fill="white" stroke="black" points="717,-917.5 717,-1150.5 843,-1150.5 843,-917.5 717,-917.5"/>
<text text-anchor="middle" x="780" y="-1138.5" font-family="SegoeUI" font-size="10.00">AbstractTouchable</text>
<polyline fill="none" stroke="black" points="717,-1131.5 843,-1131.5 "/>
<text text-anchor="start" x="725" y="-1119.5" font-family="SegoeUI" font-size="10.00">+ disabled</text>
<text text-anchor="start" x="725" y="-1108.5" font-family="SegoeUI" font-size="10.00">+ DisabledChanged</text>
<text text-anchor="start" x="725" y="-1097.5" font-family="SegoeUI" font-size="10.00">+ DisabledDown</text>
<text text-anchor="start" x="725" y="-1086.5" font-family="SegoeUI" font-size="10.00">+ DisabledUp</text>
<text text-anchor="start" x="725" y="-1075.5" font-family="SegoeUI" font-size="10.00">+ IsDisabled</text>
<text text-anchor="start" x="725" y="-1064.5" font-family="SegoeUI" font-size="10.00">+ PointerPositionChanged</text>
<text text-anchor="start" x="725" y="-1053.5" font-family="SegoeUI" font-size="10.00">&#45; wasDisabled</text>
<polyline fill="none" stroke="black" points="717,-1046.5 843,-1046.5 "/>
<text text-anchor="start" x="725" y="-1034.5" font-family="SegoeUI" font-size="10.00">+ SetDisabled()</text>
<text text-anchor="start" x="725" y="-1023.5" font-family="SegoeUI" font-size="10.00">+ ToggleEnabled()</text>
<text text-anchor="start" x="725" y="-1012.5" font-family="SegoeUI" font-size="10.00">+ OnPointerEnter()</text>
<text text-anchor="start" x="725" y="-1001.5" font-family="SegoeUI" font-size="10.00">+ OnPointerExit()</text>
<text text-anchor="start" x="725" y="-990.5" font-family="SegoeUI" font-size="10.00">+ OnPointerDown()</text>
<text text-anchor="start" x="725" y="-979.5" font-family="SegoeUI" font-size="10.00">+ OnPointerUp()</text>
<text text-anchor="start" x="725" y="-968.5" font-family="SegoeUI" font-size="10.00"># Update()</text>
<text text-anchor="start" x="725" y="-957.5" font-family="SegoeUI" font-size="10.00"># LateUpdate()</text>
<text text-anchor="start" x="725" y="-946.5" font-family="SegoeUI" font-size="10.00"># ShowState()</text>
<text text-anchor="start" x="725" y="-935.5" font-family="SegoeUI" font-size="10.00"># GetPosition()</text>
<text text-anchor="start" x="725" y="-924.5" font-family="SegoeUI" font-size="10.00">&#45; NormalizePart()</text>
</a>
</g>
</g>
<!-- Node5&#45;&gt;Node9 -->
<g id="edge7" class="edge"><title>Node5&#45;&gt;Node9</title>
<path fill="none" stroke="midnightblue" d="M958.905,-1349.42C969.071,-1301.51 977.987,-1218.94 935,-1169 910.376,-1140.39 882.843,-1172.76 852,-1151 848.901,-1148.81 845.908,-1146.45 843.021,-1143.93"/>
<polygon fill="none" stroke="midnightblue" points="955.445,-1348.85 956.667,-1359.38 962.275,-1350.39 955.445,-1348.85"/>
</g>
<!-- Node14 -->
<g id="node12" class="node"><title>Node14</title>
<g id="a_node12"><a xlink:href="../../dd/d2d/class_juniper_1_1_unity_1_1_animation_1_1_abstract_animator.html" target="_top" xlink:title="An abstraction layer over different ways of showing UI state. Only one such component is allowed on a...">
<polygon fill="white" stroke="black" points="977,-1220.5 977,-1321.5 1097,-1321.5 1097,-1220.5 977,-1220.5"/>
<text text-anchor="start" x="985" y="-1309.5" font-family="SegoeUI" font-size="10.00">Juniper.Unity.Animation.</text>
<text text-anchor="middle" x="1037" y="-1298.5" font-family="SegoeUI" font-size="10.00">AbstractAnimator</text>
<polyline fill="none" stroke="black" points="977,-1291.5 1097,-1291.5 "/>
<text text-anchor="middle" x="1037" y="-1279.5" font-family="SegoeUI" font-size="10.00"> </text>
<polyline fill="none" stroke="black" points="977,-1272.5 1097,-1272.5 "/>
<text text-anchor="start" x="985" y="-1260.5" font-family="SegoeUI" font-size="10.00">+ PlayCoroutine()</text>
<text text-anchor="start" x="985" y="-1249.5" font-family="SegoeUI" font-size="10.00">+ Play()</text>
<text text-anchor="start" x="985" y="-1238.5" font-family="SegoeUI" font-size="10.00">+ HasState()</text>
<text text-anchor="start" x="985" y="-1227.5" font-family="SegoeUI" font-size="10.00">+ GetAnimator()</text>
</a>
</g>
</g>
<!-- Node5&#45;&gt;Node14 -->
<g id="edge13" class="edge"><title>Node5&#45;&gt;Node14</title>
<path fill="none" stroke="midnightblue" d="M976.182,-1351.48C983.36,-1342.1 991.242,-1331.8 998.883,-1321.81"/>
<polygon fill="none" stroke="midnightblue" points="973.376,-1349.39 970.078,-1359.45 978.935,-1353.64 973.376,-1349.39"/>
</g>
<!-- Node6 -->
<g id="node4" class="node"><title>Node6</title>
<g id="a_node4"><a xlink:title=" ">
<polygon fill="white" stroke="#bfbfbf" points="247,-1242.5 247,-1299.5 313,-1299.5 313,-1242.5 247,-1242.5"/>
<text text-anchor="middle" x="280" y="-1287.5" font-family="SegoeUI" font-size="10.00">UnityEngine</text>
<polyline fill="none" stroke="#bfbfbf" points="247,-1280.5 313,-1280.5 "/>
<text text-anchor="middle" x="280" y="-1268.5" font-family="SegoeUI" font-size="10.00"> </text>
<polyline fill="none" stroke="#bfbfbf" points="247,-1261.5 313,-1261.5 "/>
<text text-anchor="middle" x="280" y="-1249.5" font-family="SegoeUI" font-size="10.00"> </text>
</a>
</g>
</g>
<!-- Node6&#45;&gt;Node4 -->
<g id="edge3" class="edge"><title>Node6&#45;&gt;Node4</title>
<path fill="none" stroke="#404040" d="M246.974,-1251.49C190.168,-1216.93 80,-1136.79 80,-1035 80,-1035 80,-1035 80,-398.5 80,-357.705 80,-312.398 80,-274.553"/>
<polygon fill="none" stroke="#404040" points="80.0001,-274.544 76,-268.544 80,-262.544 84,-268.544 80.0001,-274.544"/>
<text text-anchor="middle" x="111.5" y="-701" font-family="SegoeUI" font-size="10.00"> #startPosition</text>
<text text-anchor="middle" x="111.5" y="-690" font-family="SegoeUI" font-size="10.00">#lastPosition</text>
</g>
<!-- Node7 -->
<g id="node5" class="node"><title>Node7</title>
<g id="a_node5"><a xlink:href="../../dc/da5/class_juniper_1_1_unity_1_1_widgets_1_1_draggable.html" target="_top" xlink:title="An object that can be picked up and put down in a new location.">
<polygon fill="white" stroke="black" points="108.5,-310.5 108.5,-488.5 263.5,-488.5 263.5,-310.5 108.5,-310.5"/>
<text text-anchor="middle" x="186" y="-476.5" font-family="SegoeUI" font-size="10.00">Juniper.Unity.Widgets.Draggable</text>
<polyline fill="none" stroke="black" points="108.5,-469.5 263.5,-469.5 "/>
<text text-anchor="start" x="116.5" y="-457.5" font-family="SegoeUI" font-size="10.00">+ constrainMotion</text>
<text text-anchor="start" x="116.5" y="-446.5" font-family="SegoeUI" font-size="10.00">+ rotateWhileDragging</text>
<text text-anchor="start" x="116.5" y="-435.5" font-family="SegoeUI" font-size="10.00">+ TrackStart</text>
<text text-anchor="start" x="116.5" y="-424.5" font-family="SegoeUI" font-size="10.00">+ TrackEnd</text>
<text text-anchor="start" x="116.5" y="-413.5" font-family="SegoeUI" font-size="10.00">&#45; MotionConstraintStartName</text>
<text text-anchor="start" x="116.5" y="-402.5" font-family="SegoeUI" font-size="10.00">&#45; MotionConstraintEndName</text>
<text text-anchor="start" x="116.5" y="-391.5" font-family="SegoeUI" font-size="10.00">&#45; motionConstraintStart</text>
<text text-anchor="start" x="116.5" y="-380.5" font-family="SegoeUI" font-size="10.00">&#45; motionConstraintEnd</text>
<polyline fill="none" stroke="black" points="108.5,-373.5 263.5,-373.5 "/>
<text text-anchor="start" x="116.5" y="-361.5" font-family="SegoeUI" font-size="10.00">+ OnValidate()</text>
<text text-anchor="start" x="116.5" y="-350.5" font-family="SegoeUI" font-size="10.00">+ OnDrag()</text>
<text text-anchor="start" x="116.5" y="-339.5" font-family="SegoeUI" font-size="10.00"># LateUpdate()</text>
<text text-anchor="start" x="116.5" y="-328.5" font-family="SegoeUI" font-size="10.00">&#45; ResolveConstraint()</text>
<text text-anchor="start" x="116.5" y="-317.5" font-family="SegoeUI" font-size="10.00">&#45; DestroyConstraint()</text>
</a>
</g>
</g>
<!-- Node6&#45;&gt;Node7 -->
<g id="edge24" class="edge"><title>Node6&#45;&gt;Node7</title>
<path fill="none" stroke="#404040" d="M250.705,-1242.35C229.318,-1220.03 202.044,-1186.58 190,-1151 150.275,-1033.66 167.359,-676.543 178.774,-500.61"/>
<polygon fill="none" stroke="#404040" points="178.782,-500.493 175.184,-494.244 179.569,-488.519 183.167,-494.768 178.782,-500.493"/>
<text text-anchor="middle" x="203.5" y="-891" font-family="SegoeUI" font-size="10.00"> &#45;lastCamPosition</text>
</g>
<!-- Node8 -->
<g id="node6" class="node"><title>Node8</title>
<g id="a_node6"><a xlink:href="../../d2/d57/class_juniper_1_1_unity_1_1_widgets_1_1_abstract_valued.html" target="_top" xlink:title="The Valued component adds a float field and range of valid values for that field to a Touchable objec...">
<polygon fill="white" stroke="black" points="479.5,-526.5 479.5,-869.5 616.5,-869.5 616.5,-526.5 479.5,-526.5"/>
<text text-anchor="middle" x="548" y="-857.5" font-family="SegoeUI" font-size="10.00">AbstractValued</text>
<polyline fill="none" stroke="black" points="479.5,-850.5 616.5,-850.5 "/>
<text text-anchor="start" x="487.5" y="-838.5" font-family="SegoeUI" font-size="10.00">+ Display</text>
<text text-anchor="start" x="487.5" y="-827.5" font-family="SegoeUI" font-size="10.00">+ SigFigs</text>
<text text-anchor="start" x="487.5" y="-816.5" font-family="SegoeUI" font-size="10.00">+ minValue</text>
<text text-anchor="start" x="487.5" y="-805.5" font-family="SegoeUI" font-size="10.00">+ maxValue</text>
<text text-anchor="start" x="487.5" y="-794.5" font-family="SegoeUI" font-size="10.00">+ _value</text>
<text text-anchor="start" x="487.5" y="-783.5" font-family="SegoeUI" font-size="10.00">+ Dragged</text>
<text text-anchor="start" x="487.5" y="-772.5" font-family="SegoeUI" font-size="10.00">+ value</text>
<text text-anchor="start" x="487.5" y="-761.5" font-family="SegoeUI" font-size="10.00">+ Delta</text>
<text text-anchor="start" x="487.5" y="-750.5" font-family="SegoeUI" font-size="10.00">+ DraggedChanged</text>
<text text-anchor="start" x="487.5" y="-739.5" font-family="SegoeUI" font-size="10.00">+ DraggedDown</text>
<text text-anchor="start" x="487.5" y="-728.5" font-family="SegoeUI" font-size="10.00">+ DraggedUp</text>
<text text-anchor="start" x="487.5" y="-717.5" font-family="SegoeUI" font-size="10.00">+ ValueChanged</text>
<text text-anchor="start" x="487.5" y="-706.5" font-family="SegoeUI" font-size="10.00">+ ConstraintRange</text>
<text text-anchor="start" x="487.5" y="-695.5" font-family="SegoeUI" font-size="10.00"># dragDistance</text>
<text text-anchor="start" x="487.5" y="-684.5" font-family="SegoeUI" font-size="10.00"># camT</text>
<text text-anchor="start" x="487.5" y="-673.5" font-family="SegoeUI" font-size="10.00"># internalValue</text>
<text text-anchor="start" x="487.5" y="-662.5" font-family="SegoeUI" font-size="10.00">&#45; wasDragged</text>
<text text-anchor="start" x="487.5" y="-651.5" font-family="SegoeUI" font-size="10.00">&#45; lastValue</text>
<text text-anchor="start" x="487.5" y="-640.5" font-family="SegoeUI" font-size="10.00">&#45; lastTickValue</text>
<polyline fill="none" stroke="black" points="479.5,-633.5 616.5,-633.5 "/>
<text text-anchor="start" x="487.5" y="-621.5" font-family="SegoeUI" font-size="10.00">+ SetValue()</text>
<text text-anchor="start" x="487.5" y="-610.5" font-family="SegoeUI" font-size="10.00">+ OnInitializePotentialDrag()</text>
<text text-anchor="start" x="487.5" y="-599.5" font-family="SegoeUI" font-size="10.00">+ OnBeginDrag()</text>
<text text-anchor="start" x="487.5" y="-588.5" font-family="SegoeUI" font-size="10.00">+ OnDrag()</text>
<text text-anchor="start" x="487.5" y="-577.5" font-family="SegoeUI" font-size="10.00">+ OnDrop()</text>
<text text-anchor="start" x="487.5" y="-566.5" font-family="SegoeUI" font-size="10.00">+ OnEndDrag()</text>
<text text-anchor="start" x="487.5" y="-555.5" font-family="SegoeUI" font-size="10.00"># LateUpdate()</text>
<text text-anchor="start" x="487.5" y="-544.5" font-family="SegoeUI" font-size="10.00"># UpdateInternalValue()</text>
<text text-anchor="start" x="487.5" y="-533.5" font-family="SegoeUI" font-size="10.00"># ResetInternalValue()</text>
</a>
</g>
</g>
<!-- Node6&#45;&gt;Node8 -->
<g id="edge23" class="edge"><title>Node6&#45;&gt;Node8</title>
<path fill="none" stroke="#404040" d="M313.129,-1254.64C335.723,-1244.36 366.434,-1230.8 394,-1220 437.577,-1202.92 565.861,-1189.13 593,-1151 623.466,-1108.19 610.022,-987.481 590.127,-881.567"/>
<polygon fill="none" stroke="#404040" points="590.116,-881.51 585.061,-876.367 587.864,-869.723 592.919,-874.866 590.116,-881.51"/>
<text text-anchor="middle" x="650" y="-1053.5" font-family="SegoeUI" font-size="10.00"> #interactionPoint</text>
<text text-anchor="middle" x="650" y="-1042.5" font-family="SegoeUI" font-size="10.00">#interactionOffset</text>
<text text-anchor="middle" x="650" y="-1031.5" font-family="SegoeUI" font-size="10.00">#angVel</text>
<text text-anchor="middle" x="650" y="-1020.5" font-family="SegoeUI" font-size="10.00">#grabOffset</text>
<text text-anchor="middle" x="650" y="-1009.5" font-family="SegoeUI" font-size="10.00">#velocity</text>
</g>
<!-- Node6&#45;&gt;Node9 -->
<g id="edge14" class="edge"><title>Node6&#45;&gt;Node9</title>
<path fill="none" stroke="#404040" d="M313.422,-1252.04C335.63,-1240.94 365.789,-1227.44 394,-1220 431.801,-1210.03 536.202,-1223.28 569,-1202 583.198,-1192.79 574.05,-1178.58 588,-1169 630.644,-1139.71 659.446,-1178.92 703,-1151 704.526,-1150.02 706.029,-1149 707.509,-1147.94"/>
<polygon fill="none" stroke="#404040" points="707.557,-1147.9 709.752,-1141.03 716.937,-1140.42 714.742,-1147.29 707.557,-1147.9"/>
<text text-anchor="middle" x="632" y="-1194" font-family="SegoeUI" font-size="10.00"> #lastPointerPosition</text>
<text text-anchor="middle" x="632" y="-1183" font-family="SegoeUI" font-size="10.00">+pointerPosition</text>
<text text-anchor="middle" x="632" y="-1172" font-family="SegoeUI" font-size="10.00">+clickButton</text>
</g>
<!-- Node7&#45;&gt;Node4 -->
<g id="edge4" class="edge"><title>Node7&#45;&gt;Node4</title>
<path fill="none" stroke="#404040" d="M140.893,-310.2C134.68,-298.039 128.32,-285.588 122.163,-273.537"/>
<polygon fill="none" stroke="#404040" points="122.036,-273.287 115.744,-269.763 116.577,-262.6 122.868,-266.124 122.036,-273.287"/>
<text text-anchor="middle" x="148" y="-284" font-family="SegoeUI" font-size="10.00"> &#45;handle</text>
</g>
<!-- Node8&#45;&gt;Node7 -->
<g id="edge5" class="edge"><title>Node8&#45;&gt;Node7</title>
<path fill="none" stroke="midnightblue" d="M471.404,-634.263C410.29,-584.207 325.045,-514.386 263.655,-464.104"/>
<polygon fill="none" stroke="midnightblue" points="469.531,-637.253 479.485,-640.882 473.966,-631.838 469.531,-637.253"/>
</g>
<!-- Node9&#45;&gt;Node8 -->
<g id="edge6" class="edge"><title>Node9&#45;&gt;Node8</title>
<path fill="none" stroke="midnightblue" d="M711.146,-928.921C708.405,-924.889 705.682,-920.903 703,-917 675.123,-876.43 643.757,-832.081 616.571,-794.039"/>
<polygon fill="none" stroke="midnightblue" points="708.285,-930.937 716.792,-937.251 714.079,-927.01 708.285,-930.937"/>
</g>
<!-- Node10 -->
<g id="node8" class="node"><title>Node10</title>
<g id="a_node8"><a xlink:title=" ">
<polygon fill="white" stroke="#bfbfbf" points="403.5,-1242.5 403.5,-1299.5 508.5,-1299.5 508.5,-1242.5 403.5,-1242.5"/>
<text text-anchor="middle" x="456" y="-1287.5" font-family="SegoeUI" font-size="10.00">IPointerEnterHandler</text>
<polyline fill="none" stroke="#bfbfbf" points="403.5,-1280.5 508.5,-1280.5 "/>
<text text-anchor="middle" x="456" y="-1268.5" font-family="SegoeUI" font-size="10.00"> </text>
<polyline fill="none" stroke="#bfbfbf" points="403.5,-1261.5 508.5,-1261.5 "/>
<text text-anchor="middle" x="456" y="-1249.5" font-family="SegoeUI" font-size="10.00"> </text>
</a>
</g>
</g>
<!-- Node10&#45;&gt;Node9 -->
<g id="edge8" class="edge"><title>Node10&#45;&gt;Node9</title>
<path fill="none" stroke="midnightblue" d="M491.298,-1235.96C499.512,-1229.69 508.618,-1223.91 518,-1220 584.874,-1192.15 619.048,-1241.15 680,-1202 686.469,-1197.85 700.974,-1175.54 716.986,-1148.52"/>
<polygon fill="none" stroke="midnightblue" points="488.988,-1233.32 483.403,-1242.33 493.384,-1238.77 488.988,-1233.32"/>
</g>
<!-- Node11 -->
<g id="node9" class="node"><title>Node11</title>
<g id="a_node9"><a xlink:title=" ">
<polygon fill="white" stroke="#bfbfbf" points="527,-1242.5 527,-1299.5 625,-1299.5 625,-1242.5 527,-1242.5"/>
<text text-anchor="middle" x="576" y="-1287.5" font-family="SegoeUI" font-size="10.00">IPointerExitHandler</text>
<polyline fill="none" stroke="#bfbfbf" points="527,-1280.5 625,-1280.5 "/>
<text text-anchor="middle" x="576" y="-1268.5" font-family="SegoeUI" font-size="10.00"> </text>
<polyline fill="none" stroke="#bfbfbf" points="527,-1261.5 625,-1261.5 "/>
<text text-anchor="middle" x="576" y="-1249.5" font-family="SegoeUI" font-size="10.00"> </text>
</a>
</g>
</g>
<!-- Node11&#45;&gt;Node9 -->
<g id="edge9" class="edge"><title>Node11&#45;&gt;Node9</title>
<path fill="none" stroke="midnightblue" d="M610.363,-1235.91C617.722,-1229.94 625.773,-1224.28 634,-1220 662.877,-1204.97 680.07,-1222.93 705,-1202 714.858,-1193.72 725.986,-1173.96 736.593,-1150.82"/>
<polygon fill="none" stroke="midnightblue" points="608.016,-1233.32 602.673,-1242.46 612.555,-1238.64 608.016,-1233.32"/>
</g>
<!-- Node12 -->
<g id="node10" class="node"><title>Node12</title>
<g id="a_node10"><a xlink:title=" ">
<polygon fill="white" stroke="#bfbfbf" points="643.5,-1242.5 643.5,-1299.5 750.5,-1299.5 750.5,-1242.5 643.5,-1242.5"/>
<text text-anchor="middle" x="697" y="-1287.5" font-family="SegoeUI" font-size="10.00">IPointerDownHandler</text>
<polyline fill="none" stroke="#bfbfbf" points="643.5,-1280.5 750.5,-1280.5 "/>
<text text-anchor="middle" x="697" y="-1268.5" font-family="SegoeUI" font-size="10.00"> </text>
<polyline fill="none" stroke="#bfbfbf" points="643.5,-1261.5 750.5,-1261.5 "/>
<text text-anchor="middle" x="697" y="-1249.5" font-family="SegoeUI" font-size="10.00"> </text>
</a>
</g>
</g>
<!-- Node12&#45;&gt;Node9 -->
<g id="edge10" class="edge"><title>Node12&#45;&gt;Node9</title>
<path fill="none" stroke="midnightblue" d="M716.236,-1233.11C721.058,-1223.15 725.994,-1212.29 730,-1202 736.37,-1185.64 742.42,-1168.13 747.968,-1150.81"/>
<polygon fill="none" stroke="midnightblue" points="712.973,-1231.81 711.681,-1242.33 719.248,-1234.91 712.973,-1231.81"/>
</g>
<!-- Node13 -->
<g id="node11" class="node"><title>Node13</title>
<g id="a_node11"><a xlink:title=" ">
<polygon fill="white" stroke="#bfbfbf" points="769,-1242.5 769,-1299.5 863,-1299.5 863,-1242.5 769,-1242.5"/>
<text text-anchor="middle" x="816" y="-1287.5" font-family="SegoeUI" font-size="10.00">IPointerUpHandler</text>
<polyline fill="none" stroke="#bfbfbf" points="769,-1280.5 863,-1280.5 "/>
<text text-anchor="middle" x="816" y="-1268.5" font-family="SegoeUI" font-size="10.00"> </text>
<polyline fill="none" stroke="#bfbfbf" points="769,-1261.5 863,-1261.5 "/>
<text text-anchor="middle" x="816" y="-1249.5" font-family="SegoeUI" font-size="10.00"> </text>
</a>
</g>
</g>
<!-- Node13&#45;&gt;Node9 -->
<g id="edge11" class="edge"><title>Node13&#45;&gt;Node9</title>
<path fill="none" stroke="midnightblue" d="M810.189,-1232.06C806.761,-1209.69 802.221,-1180.05 797.706,-1150.58"/>
<polygon fill="none" stroke="midnightblue" points="806.755,-1232.76 811.729,-1242.12 813.674,-1231.7 806.755,-1232.76"/>
</g>
<!-- Node14&#45;&gt;Node9 -->
<g id="edge12" class="edge"><title>Node14&#45;&gt;Node9</title>
<path fill="none" stroke="#404040" d="M1011.64,-1220.32C999.468,-1201.34 983.112,-1181.32 963,-1169 923.379,-1144.73 897.43,-1173.99 853.449,-1150.63"/>
<polygon fill="none" stroke="#404040" points="853.406,-1150.6 846.202,-1150.91 843.146,-1144.38 850.351,-1144.07 853.406,-1150.6"/>
<text text-anchor="middle" x="1021" y="-1183" font-family="SegoeUI" font-size="10.00"> &#45;animator</text>
</g>
<!-- Node15 -->
<g id="node13" class="node"><title>Node15</title>
<g id="a_node13"><a xlink:title=" ">
<polygon fill="white" stroke="#bfbfbf" points="881.5,-1242.5 881.5,-1299.5 920.5,-1299.5 920.5,-1242.5 881.5,-1242.5"/>
<text text-anchor="middle" x="901" y="-1287.5" font-family="SegoeUI" font-size="10.00">static</text>
<polyline fill="none" stroke="#bfbfbf" points="881.5,-1280.5 920.5,-1280.5 "/>
<text text-anchor="middle" x="901" y="-1268.5" font-family="SegoeUI" font-size="10.00"> </text>
<polyline fill="none" stroke="#bfbfbf" points="881.5,-1261.5 920.5,-1261.5 "/>
<text text-anchor="middle" x="901" y="-1249.5" font-family="SegoeUI" font-size="10.00"> </text>
</a>
</g>
</g>
<!-- Node15&#45;&gt;Node9 -->
<g id="edge15" class="edge"><title>Node15&#45;&gt;Node9</title>
<path fill="none" stroke="#404040" d="M886.645,-1242.12C876.033,-1221.51 860.758,-1191.84 845.071,-1161.38"/>
<polygon fill="none" stroke="#404040" points="845.005,-1161.25 838.702,-1157.75 839.512,-1150.58 845.815,-1154.08 845.005,-1161.25"/>
<text text-anchor="middle" x="900.5" y="-1183" font-family="SegoeUI" font-size="10.00"> +PART_NAMES</text>
</g>
<!-- Node16 -->
<g id="node14" class="node"><title>Node16</title>
<g id="a_node14"><a xlink:title=" ">
<polygon fill="white" stroke="#bfbfbf" points="997,-1000 997,-1068 1109,-1068 1109,-1000 997,-1000"/>
<text text-anchor="start" x="1005" y="-1056" font-family="SegoeUI" font-size="10.00">IInitializePotentialDrag</text>
<text text-anchor="middle" x="1053" y="-1045" font-family="SegoeUI" font-size="10.00">Handler</text>
<polyline fill="none" stroke="#bfbfbf" points="997,-1038 1109,-1038 "/>
<text text-anchor="middle" x="1053" y="-1026" font-family="SegoeUI" font-size="10.00"> </text>
<polyline fill="none" stroke="#bfbfbf" points="997,-1019 1109,-1019 "/>
<text text-anchor="middle" x="1053" y="-1007" font-family="SegoeUI" font-size="10.00"> </text>
</a>
</g>
</g>
<!-- Node16&#45;&gt;Node8 -->
<g id="edge16" class="edge"><title>Node16&#45;&gt;Node8</title>
<path fill="none" stroke="midnightblue" d="M1036.68,-990.52C1025.78,-966.561 1009.49,-937.429 988,-917 878.629,-813.043 710.159,-748.626 616.597,-718.768"/>
<polygon fill="none" stroke="midnightblue" points="1033.51,-992.005 1040.73,-999.755 1039.92,-989.191 1033.51,-992.005"/>
</g>
<!-- Node17 -->
<g id="node15" class="node"><title>Node17</title>
<g id="a_node15"><a xlink:title=" ">
<polygon fill="white" stroke="#bfbfbf" points="199,-1005.5 199,-1062.5 295,-1062.5 295,-1005.5 199,-1005.5"/>
<text text-anchor="middle" x="247" y="-1050.5" font-family="SegoeUI" font-size="10.00">IBeginDragHandler</text>
<polyline fill="none" stroke="#bfbfbf" points="199,-1043.5 295,-1043.5 "/>
<text text-anchor="middle" x="247" y="-1031.5" font-family="SegoeUI" font-size="10.00"> </text>
<polyline fill="none" stroke="#bfbfbf" points="199,-1024.5 295,-1024.5 "/>
<text text-anchor="middle" x="247" y="-1012.5" font-family="SegoeUI" font-size="10.00"> </text>
</a>
</g>
</g>
<!-- Node17&#45;&gt;Node8 -->
<g id="edge17" class="edge"><title>Node17&#45;&gt;Node8</title>
<path fill="none" stroke="midnightblue" d="M261.008,-995.646C270.954,-971.828 285.759,-941.036 304,-917 354.137,-850.934 426.449,-789.319 479.335,-748.566"/>
<polygon fill="none" stroke="midnightblue" points="257.705,-994.476 257.177,-1005.06 264.189,-997.115 257.705,-994.476"/>
</g>
<!-- Node18 -->
<g id="node16" class="node"><title>Node18</title>
<g id="a_node16"><a xlink:title=" ">
<polygon fill="white" stroke="#bfbfbf" points="313.5,-1005.5 313.5,-1062.5 386.5,-1062.5 386.5,-1005.5 313.5,-1005.5"/>
<text text-anchor="middle" x="350" y="-1050.5" font-family="SegoeUI" font-size="10.00">IDragHandler</text>
<polyline fill="none" stroke="#bfbfbf" points="313.5,-1043.5 386.5,-1043.5 "/>
<text text-anchor="middle" x="350" y="-1031.5" font-family="SegoeUI" font-size="10.00"> </text>
<polyline fill="none" stroke="#bfbfbf" points="313.5,-1024.5 386.5,-1024.5 "/>
<text text-anchor="middle" x="350" y="-1012.5" font-family="SegoeUI" font-size="10.00"> </text>
</a>
</g>
</g>
<!-- Node18&#45;&gt;Node8 -->
<g id="edge18" class="edge"><title>Node18&#45;&gt;Node8</title>
<path fill="none" stroke="midnightblue" d="M361.801,-995.943C369.837,-972.656 381.454,-942.335 395,-917 419.146,-871.841 451.035,-824.955 479.449,-786.288"/>
<polygon fill="none" stroke="midnightblue" points="358.471,-994.863 358.581,-1005.46 365.102,-997.107 358.471,-994.863"/>
</g>
<!-- Node19 -->
<g id="node17" class="node"><title>Node19</title>
<g id="a_node17"><a xlink:title=" ">
<polygon fill="white" stroke="#bfbfbf" points="404.5,-1005.5 404.5,-1062.5 493.5,-1062.5 493.5,-1005.5 404.5,-1005.5"/>
<text text-anchor="middle" x="449" y="-1050.5" font-family="SegoeUI" font-size="10.00">IEndDragHandler</text>
<polyline fill="none" stroke="#bfbfbf" points="404.5,-1043.5 493.5,-1043.5 "/>
<text text-anchor="middle" x="449" y="-1031.5" font-family="SegoeUI" font-size="10.00"> </text>
<polyline fill="none" stroke="#bfbfbf" points="404.5,-1024.5 493.5,-1024.5 "/>
<text text-anchor="middle" x="449" y="-1012.5" font-family="SegoeUI" font-size="10.00"> </text>
</a>
</g>
</g>
<!-- Node19&#45;&gt;Node8 -->
<g id="edge19" class="edge"><title>Node19&#45;&gt;Node8</title>
<path fill="none" stroke="midnightblue" d="M460.03,-995.789C469.316,-964.459 483.308,-917.253 497.417,-869.652"/>
<polygon fill="none" stroke="midnightblue" points="456.672,-994.801 457.186,-1005.38 463.383,-996.79 456.672,-994.801"/>
</g>
<!-- Node20 -->
<g id="node18" class="node"><title>Node20</title>
<g id="a_node18"><a xlink:title=" ">
<polygon fill="white" stroke="#bfbfbf" points="511.5,-1005.5 511.5,-1062.5 584.5,-1062.5 584.5,-1005.5 511.5,-1005.5"/>
<text text-anchor="middle" x="548" y="-1050.5" font-family="SegoeUI" font-size="10.00">IDropHandler</text>
<polyline fill="none" stroke="#bfbfbf" points="511.5,-1043.5 584.5,-1043.5 "/>
<text text-anchor="middle" x="548" y="-1031.5" font-family="SegoeUI" font-size="10.00"> </text>
<polyline fill="none" stroke="#bfbfbf" points="511.5,-1024.5 584.5,-1024.5 "/>
<text text-anchor="middle" x="548" y="-1012.5" font-family="SegoeUI" font-size="10.00"> </text>
</a>
</g>
</g>
<!-- Node20&#45;&gt;Node8 -->
<g id="edge20" class="edge"><title>Node20&#45;&gt;Node8</title>
<path fill="none" stroke="midnightblue" d="M548,-995.381C548,-964.05 548,-917.047 548,-869.652"/>
<polygon fill="none" stroke="midnightblue" points="544.5,-995.383 548,-1005.38 551.5,-995.383 544.5,-995.383"/>
</g>
<!-- Node21 -->
<g id="node19" class="node"><title>Node21</title>
<g id="a_node19"><a xlink:href="../../dd/d6e/interface_juniper_1_1_unity_1_1_widgets_1_1_i_valued_control.html" target="_top" xlink:title=" ">
<polygon fill="white" stroke="black" points="861,-1005.5 861,-1062.5 979,-1062.5 979,-1005.5 861,-1005.5"/>
<text text-anchor="middle" x="920" y="-1050.5" font-family="SegoeUI" font-size="10.00">IValuedControl&lt; float &gt;</text>
<polyline fill="none" stroke="black" points="861,-1043.5 979,-1043.5 "/>
<text text-anchor="start" x="869" y="-1031.5" font-family="SegoeUI" font-size="10.00">+ value</text>
<polyline fill="none" stroke="black" points="861,-1024.5 979,-1024.5 "/>
<text text-anchor="middle" x="920" y="-1012.5" font-family="SegoeUI" font-size="10.00"> </text>
</a>
</g>
</g>
<!-- Node21&#45;&gt;Node8 -->
<g id="edge21" class="edge"><title>Node21&#45;&gt;Node8</title>
<path fill="none" stroke="midnightblue" d="M903.274,-995.868C891.236,-971.707 873.387,-940.449 852,-917 782.632,-840.945 682.627,-775.5 616.514,-736.682"/>
<polygon fill="none" stroke="midnightblue" points="900.233,-997.618 907.755,-1005.08 906.527,-994.555 900.233,-997.618"/>
</g>
<!-- Node22 -->
<g id="node20" class="node"><title>Node22</title>
<g id="a_node20"><a xlink:href="../../dd/d6e/interface_juniper_1_1_unity_1_1_widgets_1_1_i_valued_control.html" target="_top" xlink:title=" ">
<polygon fill="white" stroke="black" points="1115,-1237 1115,-1305 1259,-1305 1259,-1237 1115,-1237"/>
<text text-anchor="start" x="1123" y="-1293" font-family="SegoeUI" font-size="10.00">Juniper.Unity.Widgets.IValued</text>
<text text-anchor="middle" x="1187" y="-1282" font-family="SegoeUI" font-size="10.00">Control&lt; T &gt;</text>
<polyline fill="none" stroke="black" points="1115,-1275 1259,-1275 "/>
<text text-anchor="start" x="1123" y="-1263" font-family="SegoeUI" font-size="10.00">+ value</text>
<polyline fill="none" stroke="black" points="1115,-1256 1259,-1256 "/>
<text text-anchor="middle" x="1187" y="-1244" font-family="SegoeUI" font-size="10.00"> </text>
</a>
</g>
</g>
<!-- Node22&#45;&gt;Node21 -->
<g id="edge22" class="edge"><title>Node22&#45;&gt;Node21</title>
<path fill="none" stroke="orange" d="M1141.06,-1230.53C1115.12,-1209.87 1081.31,-1185.5 1048,-1169 1023.05,-1156.64 1009.89,-1168.2 988,-1151 958.999,-1128.21 939.893,-1089.37 929.516,-1062.96"/>
<polygon fill="orange" stroke="orange" points="1138.87,-1233.26 1148.85,-1236.81 1143.26,-1227.81 1138.87,-1233.26"/>
<text text-anchor="middle" x="1121" y="-1183" font-family="SegoeUI" font-size="10.00"> &lt; float &gt;</text>
</g>
</g>
</svg>
        <g id="navigator" transform="translate(0 0)" fill="#404254">
                <rect fill="#f2f5e9" fill-opacity="0.5" stroke="#606060" stroke-width=".5" x="0" y="0" width="60" height="60"/>
                <use id="zoomplus" xlink:href="#zoomPlus" x="17" y="9" onmousedown="handleZoom(evt,'in')"/>
                <use id="zoomminus" xlink:href="#zoomMin" x="42" y="9" onmousedown="handleZoom(evt,'out')"/>
                <use id="reset" xlink:href="#resetDef" x="30" y="36" onmousedown="handleReset()"/>
                <g id="arrowUp" xlink:href="#dirArrow" transform="translate(30 24)" onmousedown="handlePan(0,-1)">
                  <use xlink:href="#rim" fill="#404040">
                        <set attributeName="fill" to="#808080" begin="arrowUp.mouseover" end="arrowUp.mouseout"/>
                  </use>
                  <path fill="none" stroke="white" stroke-width="1.5" d="M0,-3.0v7 M-2.5,-0.5L0,-3.0L2.5,-0.5"/>
                </g>
                <g id="arrowRight" xlink:href="#dirArrow" transform="rotate(90) translate(36 -43)" onmousedown="handlePan(1,0)">
                  <use xlink:href="#rim" fill="#404040">
                        <set attributeName="fill" to="#808080" begin="arrowRight.mouseover" end="arrowRight.mouseout"/>
                  </use>
                  <path fill="none" stroke="white" stroke-width="1.5" d="M0,-3.0v7 M-2.5,-0.5L0,-3.0L2.5,-0.5"/>
                </g>
                <g id="arrowDown" xlink:href="#dirArrow" transform="rotate(180) translate(-30 -48)" onmousedown="handlePan(0,1)">
                  <use xlink:href="#rim" fill="#404040">
                        <set attributeName="fill" to="#808080" begin="arrowDown.mouseover" end="arrowDown.mouseout"/>
                  </use>
                  <path fill="none" stroke="white" stroke-width="1.5" d="M0,-3.0v7 M-2.5,-0.5L0,-3.0L2.5,-0.5"/>
                </g>
                <g id="arrowLeft" xlink:href="#dirArrow" transform="rotate(270) translate(-36 17)" onmousedown="handlePan(-1,0)">
                  <use xlink:href="#rim" fill="#404040">
                        <set attributeName="fill" to="#808080" begin="arrowLeft.mouseover" end="arrowLeft.mouseout"/>
                  </use>
                  <path fill="none" stroke="white" stroke-width="1.5" d="M0,-3.0v7 M-2.5,-0.5L0,-3.0L2.5,-0.5"/>
                </g>
        </g>
        <svg viewBox="0 0 15 15" width="100%" height="30px" preserveAspectRatio="xMaxYMin meet">
         <g id="arrow_out" transform="scale(0.3 0.3)">
          <a xlink:href="class_juniper_1_1_unity_1_1_widgets_1_1_translation_handle__coll__graph_org.svg" target="_base">
           <rect id="button" ry="5" rx="5" y="6" x="6" height="38" width="38"
                fill="#f2f5e9" fill-opacity="0.5" stroke="#606060" stroke-width="1.0"/>
           <path id="arrow"
             d="M 11.500037,31.436501 C 11.940474,20.09759 22.043105,11.32322 32.158766,21.979434 L 37.068811,17.246167 C 37.068811,17.246167 37.088388,32 37.088388,32 L 22.160133,31.978069 C 22.160133,31.978069 26.997745,27.140456 26.997745,27.140456 C 18.528582,18.264221 13.291696,25.230495 11.500037,31.436501 z"
             style="fill:#404040;"/>
          </a>
         </g>
        </svg>
</svg>
