<?xml version="1.0" encoding="UTF-8" standalone="no"?>
<!DOCTYPE svg PUBLIC "-//W3C//DTD SVG 1.1//EN"
 "http://www.w3.org/Graphics/SVG/1.1/DTD/svg11.dtd">
<!-- Generated by graphviz version 2.38.0 (20140413.2041)
 -->
<!-- Title: Juniper.Unity.AndroidPermissionHandler Pages: 1 -->
<svg width="178pt" height="331pt"
 viewBox="0.00 0.00 177.50 331.00" xmlns="http://www.w3.org/2000/svg" xmlns:xlink="http://www.w3.org/1999/xlink">
<g id="graph0" class="graph" transform="scale(1 1) rotate(0) translate(4 327)">
<title>Juniper.Unity.AndroidPermissionHandler</title>
<polygon fill="white" stroke="none" points="-4,4 -4,-327 173.5,-327 173.5,4 -4,4"/>
<!-- Node0 -->
<g id="node1" class="node"><title>Node0</title>
<g id="a_node1"><a xlink:title=" ">
<polygon fill="#bfbfbf" stroke="black" points="11,-0.5 11,-68.5 165,-68.5 165,-0.5 11,-0.5"/>
<text text-anchor="start" x="19" y="-56.5" font-family="SegoeUI" font-size="10.00">Juniper.Unity.AndroidPermission</text>
<text text-anchor="middle" x="88" y="-45.5" font-family="SegoeUI" font-size="10.00">Handler</text>
<polyline fill="none" stroke="black" points="11,-38.5 165,-38.5 "/>
<text text-anchor="middle" x="88" y="-26.5" font-family="SegoeUI" font-size="10.00"> </text>
<polyline fill="none" stroke="black" points="11,-19.5 165,-19.5 "/>
<text text-anchor="start" x="19" y="-7.5" font-family="SegoeUI" font-size="10.00">+ Start()</text>
</a>
</g>
</g>
<!-- Node1 -->
<g id="node2" class="node"><title>Node1</title>
<g id="a_node2"><a xlink:href="../../d8/d0d/class_juniper_1_1_unity_1_1_abstract_permission_handler.html" target="_top" xlink:title="Perform system&#45;specific authorization requests, such as GPS on Android, or Microphone on iOS.">
<polygon fill="white" stroke="black" points="22.5,-105.5 22.5,-206.5 153.5,-206.5 153.5,-105.5 22.5,-105.5"/>
<text text-anchor="middle" x="88" y="-194.5" font-family="SegoeUI" font-size="10.00">AbstractPermissionHandler</text>
<polyline fill="none" stroke="black" points="22.5,-187.5 153.5,-187.5 "/>
<text text-anchor="middle" x="88" y="-175.5" font-family="SegoeUI" font-size="10.00"> </text>
<polyline fill="none" stroke="black" points="22.5,-168.5 153.5,-168.5 "/>
<text text-anchor="start" x="30.5" y="-156.5" font-family="SegoeUI" font-size="10.00">+ Awake()</text>
<text text-anchor="start" x="30.5" y="-145.5" font-family="SegoeUI" font-size="10.00">+ Reinstall()</text>
<text text-anchor="start" x="30.5" y="-134.5" font-family="SegoeUI" font-size="10.00">+ Reset()</text>
<text text-anchor="start" x="30.5" y="-123.5" font-family="SegoeUI" font-size="10.00">+ Install()</text>
<text text-anchor="start" x="30.5" y="-112.5" font-family="SegoeUI" font-size="10.00">+ Uninstall()</text>
</a>
</g>
</g>
<!-- Node1&#45;&gt;Node0 -->
<g id="edge1" class="edge"><title>Node1&#45;&gt;Node0</title>
<path fill="none" stroke="midnightblue" d="M88,-95.1717C88,-86.1099 88,-77.0504 88,-68.8271"/>
<polygon fill="none" stroke="midnightblue" points="84.5001,-95.3594 88,-105.359 91.5001,-95.3594 84.5001,-95.3594"/>
</g>
<!-- Node2 -->
<g id="node3" class="node"><title>Node2</title>
<g id="a_node3"><a xlink:title=" ">
<polygon fill="white" stroke="#bfbfbf" points="0,-254.5 0,-311.5 82,-311.5 82,-254.5 0,-254.5"/>
<text text-anchor="middle" x="41" y="-299.5" font-family="SegoeUI" font-size="10.00">MonoBehaviour</text>
<polyline fill="none" stroke="#bfbfbf" points="0,-292.5 82,-292.5 "/>
<text text-anchor="middle" x="41" y="-280.5" font-family="SegoeUI" font-size="10.00"> </text>
<polyline fill="none" stroke="#bfbfbf" points="0,-273.5 82,-273.5 "/>
<text text-anchor="middle" x="41" y="-261.5" font-family="SegoeUI" font-size="10.00"> </text>
</a>
</g>
</g>
<!-- Node2&#45;&gt;Node1 -->
<g id="edge2" class="edge"><title>Node2&#45;&gt;Node1</title>
<path fill="none" stroke="midnightblue" d="M55.0388,-244.663C59.509,-232.774 64.5274,-219.427 69.2745,-206.802"/>
<polygon fill="none" stroke="midnightblue" points="51.6742,-243.666 51.4308,-254.258 58.2264,-246.13 51.6742,-243.666"/>
</g>
<!-- Node3 -->
<g id="node4" class="node"><title>Node3</title>
<g id="a_node4"><a xlink:href="../../db/d28/interface_juniper_1_1_i_installable.html" target="_top" xlink:title=" ">
<polygon fill="white" stroke="black" points="100.5,-243.5 100.5,-322.5 169.5,-322.5 169.5,-243.5 100.5,-243.5"/>
<text text-anchor="middle" x="135" y="-310.5" font-family="SegoeUI" font-size="10.00">IInstallable</text>
<polyline fill="none" stroke="black" points="100.5,-303.5 169.5,-303.5 "/>
<text text-anchor="middle" x="135" y="-291.5" font-family="SegoeUI" font-size="10.00"> </text>
<polyline fill="none" stroke="black" points="100.5,-284.5 169.5,-284.5 "/>
<text text-anchor="start" x="108.5" y="-272.5" font-family="SegoeUI" font-size="10.00">+ Install()</text>
<text text-anchor="start" x="108.5" y="-261.5" font-family="SegoeUI" font-size="10.00">+ Reinstall()</text>
<text text-anchor="start" x="108.5" y="-250.5" font-family="SegoeUI" font-size="10.00">+ Uninstall()</text>
</a>
</g>
</g>
<!-- Node3&#45;&gt;Node1 -->
<g id="edge3" class="edge"><title>Node3&#45;&gt;Node1</title>
<path fill="none" stroke="midnightblue" d="M116.943,-233.977C113.582,-225.037 110.063,-215.679 106.684,-206.691"/>
<polygon fill="none" stroke="midnightblue" points="113.719,-235.348 120.515,-243.476 120.272,-232.884 113.719,-235.348"/>
</g>
</g>
</svg>
