<?xml version="1.0" encoding="UTF-8" standalone="no"?>
<!DOCTYPE svg PUBLIC "-//W3C//DTD SVG 1.1//EN"
 "http://www.w3.org/Graphics/SVG/1.1/DTD/svg11.dtd">
<!-- Generated by graphviz version 2.38.0 (20140413.2041)
 -->
<!-- Title: Juniper.Input.AbstractShortcutable Pages: 1 -->
<svg width="300pt" height="430pt"
 viewBox="0.00 0.00 299.50 430.00" xmlns="http://www.w3.org/2000/svg" xmlns:xlink="http://www.w3.org/1999/xlink">
<g id="graph0" class="graph" transform="scale(1 1) rotate(0) translate(4 426)">
<title>Juniper.Input.AbstractShortcutable</title>
<polygon fill="white" stroke="none" points="-4,4 -4,-426 295.5,-426 295.5,4 -4,4"/>
<!-- Node0 -->
<g id="node1" class="node"><title>Node0</title>
<g id="a_node1"><a xlink:title=" ">
<polygon fill="#bfbfbf" stroke="black" points="61.5,-160.5 61.5,-327.5 225.5,-327.5 225.5,-160.5 61.5,-160.5"/>
<text text-anchor="middle" x="143.5" y="-315.5" font-family="SegoeUI" font-size="10.00">Juniper.Input.AbstractShortcutable</text>
<polyline fill="none" stroke="black" points="61.5,-308.5 225.5,-308.5 "/>
<text text-anchor="start" x="69.5" y="-296.5" font-family="SegoeUI" font-size="10.00">+ onActivated</text>
<text text-anchor="start" x="69.5" y="-285.5" font-family="SegoeUI" font-size="10.00">+ interactable</text>
<text text-anchor="start" x="69.5" y="-274.5" font-family="SegoeUI" font-size="10.00"># input</text>
<text text-anchor="start" x="69.5" y="-263.5" font-family="SegoeUI" font-size="10.00">&#45; isParentEnabled</text>
<text text-anchor="start" x="69.5" y="-252.5" font-family="SegoeUI" font-size="10.00">&#45; wasInteractable</text>
<polyline fill="none" stroke="black" points="61.5,-245.5 225.5,-245.5 "/>
<text text-anchor="start" x="69.5" y="-233.5" font-family="SegoeUI" font-size="10.00">+ IsInteractable()</text>
<text text-anchor="start" x="69.5" y="-222.5" font-family="SegoeUI" font-size="10.00">+ ActivateEvent()</text>
<text text-anchor="start" x="69.5" y="-211.5" font-family="SegoeUI" font-size="10.00"># Awake()</text>
<text text-anchor="start" x="69.5" y="-200.5" font-family="SegoeUI" font-size="10.00"># OnEnable()</text>
<text text-anchor="start" x="69.5" y="-189.5" font-family="SegoeUI" font-size="10.00"># OnDisable()</text>
<text text-anchor="start" x="69.5" y="-178.5" font-family="SegoeUI" font-size="10.00"># Update()</text>
<text text-anchor="start" x="69.5" y="-167.5" font-family="SegoeUI" font-size="10.00">&#45; AlwaysEnabled()</text>
</a>
</g>
</g>
<!-- Node2 -->
<g id="node3" class="node"><title>Node2</title>
<g id="a_node3"><a xlink:href="../../db/d73/class_juniper_1_1_input_1_1_keyboardable.html" target="_top" xlink:title="This component listens for a given keystroke, firing an event when it occurs. That event can be used ...">
<polygon fill="white" stroke="black" points="0,-22.5 0,-101.5 133,-101.5 133,-22.5 0,-22.5"/>
<text text-anchor="middle" x="66.5" y="-89.5" font-family="SegoeUI" font-size="10.00">Juniper.Input.Keyboardable</text>
<polyline fill="none" stroke="black" points="0,-82.5 133,-82.5 "/>
<text text-anchor="start" x="8" y="-70.5" font-family="SegoeUI" font-size="10.00">+ key</text>
<text text-anchor="start" x="8" y="-59.5" font-family="SegoeUI" font-size="10.00">+ KeyCode</text>
<polyline fill="none" stroke="black" points="0,-52.5 133,-52.5 "/>
<text text-anchor="start" x="8" y="-40.5" font-family="SegoeUI" font-size="10.00"># OnDisable()</text>
<text text-anchor="start" x="8" y="-29.5" font-family="SegoeUI" font-size="10.00"># OnEnable()</text>
</a>
</g>
</g>
<!-- Node0&#45;&gt;Node2 -->
<g id="edge2" class="edge"><title>Node0&#45;&gt;Node2</title>
<path fill="none" stroke="midnightblue" d="M104.032,-150.737C96.6063,-133.378 89.2288,-116.132 83.0051,-101.583"/>
<polygon fill="none" stroke="midnightblue" points="101.004,-152.558 108.155,-160.375 107.44,-149.805 101.004,-152.558"/>
</g>
<!-- Node3 -->
<g id="node4" class="node"><title>Node3</title>
<g id="a_node4"><a xlink:href="../../d7/d4d/class_juniper_1_1_speech_1_1_keywordable.html" target="_top" xlink:title="An object that can be fires an event when a particular keyword is uttered.">
<polygon fill="white" stroke="black" points="151.5,-0.5 151.5,-123.5 291.5,-123.5 291.5,-0.5 151.5,-0.5"/>
<text text-anchor="middle" x="221.5" y="-111.5" font-family="SegoeUI" font-size="10.00">Juniper.Speech.Keywordable</text>
<polyline fill="none" stroke="black" points="151.5,-104.5 291.5,-104.5 "/>
<text text-anchor="start" x="159.5" y="-92.5" font-family="SegoeUI" font-size="10.00">+ keywords</text>
<text text-anchor="start" x="159.5" y="-81.5" font-family="SegoeUI" font-size="10.00">+ Keywords</text>
<text text-anchor="start" x="159.5" y="-70.5" font-family="SegoeUI" font-size="10.00">+ DefaultDescription</text>
<polyline fill="none" stroke="black" points="151.5,-63.5 291.5,-63.5 "/>
<text text-anchor="start" x="159.5" y="-51.5" font-family="SegoeUI" font-size="10.00">+ IsInteractable()</text>
<text text-anchor="start" x="159.5" y="-40.5" font-family="SegoeUI" font-size="10.00">+ SetTooltips()</text>
<text text-anchor="start" x="159.5" y="-29.5" font-family="SegoeUI" font-size="10.00"># OnEnable()</text>
<text text-anchor="start" x="159.5" y="-18.5" font-family="SegoeUI" font-size="10.00"># OnDisable()</text>
<text text-anchor="start" x="159.5" y="-7.5" font-family="SegoeUI" font-size="10.00">&#45; SetTooltips()</text>
</a>
</g>
</g>
<!-- Node0&#45;&gt;Node3 -->
<g id="edge3" class="edge"><title>Node0&#45;&gt;Node3</title>
<path fill="none" stroke="midnightblue" d="M183.338,-151.067C187.374,-141.753 191.398,-132.466 195.237,-123.607"/>
<polygon fill="none" stroke="midnightblue" points="180.069,-149.808 179.304,-160.375 186.492,-152.592 180.069,-149.808"/>
</g>
<!-- Node1 -->
<g id="node2" class="node"><title>Node1</title>
<g id="a_node2"><a xlink:title=" ">
<polygon fill="white" stroke="#bfbfbf" points="102.5,-364.5 102.5,-421.5 184.5,-421.5 184.5,-364.5 102.5,-364.5"/>
<text text-anchor="middle" x="143.5" y="-409.5" font-family="SegoeUI" font-size="10.00">MonoBehaviour</text>
<polyline fill="none" stroke="#bfbfbf" points="102.5,-402.5 184.5,-402.5 "/>
<text text-anchor="middle" x="143.5" y="-390.5" font-family="SegoeUI" font-size="10.00"> </text>
<polyline fill="none" stroke="#bfbfbf" points="102.5,-383.5 184.5,-383.5 "/>
<text text-anchor="middle" x="143.5" y="-371.5" font-family="SegoeUI" font-size="10.00"> </text>
</a>
</g>
</g>
<!-- Node1&#45;&gt;Node0 -->
<g id="edge1" class="edge"><title>Node1&#45;&gt;Node0</title>
<path fill="none" stroke="midnightblue" d="M143.5,-354.35C143.5,-346.08 143.5,-337.008 143.5,-327.738"/>
<polygon fill="none" stroke="midnightblue" points="140,-354.35 143.5,-364.35 147,-354.35 140,-354.35"/>
</g>
</g>
</svg>
