<?xml version="1.0" encoding="UTF-8" standalone="no"?>
<!DOCTYPE svg PUBLIC "-//W3C//DTD SVG 1.1//EN"
 "http://www.w3.org/Graphics/SVG/1.1/DTD/svg11.dtd">
<!-- Generated by graphviz version 2.38.0 (20140413.2041)
 -->
<!-- Title: Juniper.Unity.ImageTracking.ARKitTrackableFoundEventHandler Pages: 1 -->
<!--zoomable 658 -->
<svg id="main" version="1.1" xmlns="http://www.w3.org/2000/svg" xmlns:xlink="http://www.w3.org/1999/xlink" xml:space="preserve" onload="init(evt)">
<style type="text/css"><![CDATA[
.edge:hover path { stroke: red; }
.edge:hover polygon { stroke: red; fill: red; }
]]></style>
<script type="text/javascript"><![CDATA[
var edges = document.getElementsByTagName('g');
if (edges && edges.length) {
  for (var i=0;i<edges.length;i++) {
    if (edges[i].id.substr(0,4)=='edge') {
      edges[i].setAttribute('class','edge');
    }
  }
}
]]></script>
        <defs>
                <circle id="rim" cx="0" cy="0" r="7"/>
                <circle id="rim2" cx="0" cy="0" r="3.5"/>
                <g id="zoomPlus">
                        <use xlink:href="#rim" fill="#404040">
                                <set attributeName="fill" to="#808080" begin="zoomplus.mouseover" end="zoomplus.mouseout"/>
                        </use>
                        <path d="M-4,0h8M0,-4v8" fill="none" stroke="white" stroke-width="1.5" pointer-events="none"/>
                </g>
                <g id="zoomMin">
                        <use xlink:href="#rim" fill="#404040">
                                <set attributeName="fill" to="#808080" begin="zoomminus.mouseover" end="zoomminus.mouseout"/>
                        </use>
                        <path d="M-4,0h8" fill="none" stroke="white" stroke-width="1.5" pointer-events="none"/>
                </g>
                <g id="dirArrow">
                        <path fill="none" stroke="white" stroke-width="1.5" d="M0,-3.0v7 M-2.5,-0.5L0,-3.0L2.5,-0.5"/>
                </g>
               <g id="resetDef">
                       <use xlink:href="#rim2" fill="#404040">
                               <set attributeName="fill" to="#808080" begin="reset.mouseover" end="reset.mouseout"/>
                       </use>
               </g>
        </defs>

<script type="text/javascript">
var viewWidth = 270;
var viewHeight = 658;
var sectionId = 'dynsection-1';
</script>
<script xlink:href="../../svgpan.js"/>
<svg id="graph" class="graph">
<g id="viewport">
<title>Juniper.Unity.ImageTracking.ARKitTrackableFoundEventHandler</title>
<polygon fill="white" stroke="none" points="-4,4 -4,-654 266,-654 266,4 -4,4"/>
<!-- Node4 -->
<g id="node1" class="node"><title>Node4</title>
<g id="a_node1"><a xlink:title=" ">
<polygon fill="#bfbfbf" stroke="black" points="0,-0.5 0,-79.5 164,-79.5 164,-0.5 0,-0.5"/>
<text text-anchor="start" x="8" y="-67.5" font-family="SegoeUI" font-size="10.00">Juniper.Unity.ImageTracking.</text>
<text text-anchor="middle" x="82" y="-56.5" font-family="SegoeUI" font-size="10.00">ARKitTrackableFoundEventHandler</text>
<polyline fill="none" stroke="black" points="0,-49.5 164,-49.5 "/>
<text text-anchor="start" x="8" y="-37.5" font-family="SegoeUI" font-size="10.00">+ imagesSet</text>
<text text-anchor="start" x="8" y="-26.5" font-family="SegoeUI" font-size="10.00">+ image</text>
<polyline fill="none" stroke="black" points="0,-19.5 164,-19.5 "/>
<text text-anchor="middle" x="82" y="-7.5" font-family="SegoeUI" font-size="10.00"> </text>
</a>
</g>
</g>
<!-- Node5 -->
<g id="node2" class="node"><title>Node5</title>
<g id="a_node2"><a xlink:href="../../d9/d49/class_juniper_1_1_unity_1_1_image_tracking_1_1_abstract_trackable_found_event_handler.html" target="_top" xlink:title=" ">
<polygon fill="white" stroke="black" points="10.5,-117.5 10.5,-438.5 153.5,-438.5 153.5,-117.5 10.5,-117.5"/>
<text text-anchor="start" x="18.5" y="-426.5" font-family="SegoeUI" font-size="10.00">AbstractTrackableFoundEvent</text>
<text text-anchor="middle" x="82" y="-415.5" font-family="SegoeUI" font-size="10.00">Handler</text>
<polyline fill="none" stroke="black" points="10.5,-408.5 153.5,-408.5 "/>
<text text-anchor="start" x="18.5" y="-396.5" font-family="SegoeUI" font-size="10.00">+ Found</text>
<text text-anchor="start" x="18.5" y="-385.5" font-family="SegoeUI" font-size="10.00">+ Safe</text>
<text text-anchor="start" x="18.5" y="-374.5" font-family="SegoeUI" font-size="10.00">+ Extended</text>
<text text-anchor="start" x="18.5" y="-363.5" font-family="SegoeUI" font-size="10.00">+ attachmentPoint</text>
<text text-anchor="start" x="18.5" y="-352.5" font-family="SegoeUI" font-size="10.00">+ safeDistance</text>
<text text-anchor="start" x="18.5" y="-341.5" font-family="SegoeUI" font-size="10.00">+ onFound</text>
<text text-anchor="start" x="18.5" y="-330.5" font-family="SegoeUI" font-size="10.00">+ onLost</text>
<text text-anchor="start" x="18.5" y="-319.5" font-family="SegoeUI" font-size="10.00">+ onProximity</text>
<text text-anchor="start" x="18.5" y="-308.5" font-family="SegoeUI" font-size="10.00">+ onSafe</text>
<text text-anchor="start" x="18.5" y="-297.5" font-family="SegoeUI" font-size="10.00">&#45; wasFound</text>
<text text-anchor="start" x="18.5" y="-286.5" font-family="SegoeUI" font-size="10.00">&#45; wasSafe</text>
<text text-anchor="start" x="18.5" y="-275.5" font-family="SegoeUI" font-size="10.00">&#45; TAG_NAME</text>
<text text-anchor="start" x="18.5" y="-264.5" font-family="SegoeUI" font-size="10.00">&#45; TRANSFORM_NAME</text>
<polyline fill="none" stroke="black" points="10.5,-257.5 153.5,-257.5 "/>
<text text-anchor="start" x="18.5" y="-245.5" font-family="SegoeUI" font-size="10.00">+ OnValidate()</text>
<text text-anchor="start" x="18.5" y="-234.5" font-family="SegoeUI" font-size="10.00">+ OnEnable()</text>
<text text-anchor="start" x="18.5" y="-223.5" font-family="SegoeUI" font-size="10.00">+ Update()</text>
<text text-anchor="start" x="18.5" y="-212.5" font-family="SegoeUI" font-size="10.00">+ ForceFound()</text>
<text text-anchor="start" x="18.5" y="-201.5" font-family="SegoeUI" font-size="10.00">+ ForceLost()</text>
<text text-anchor="start" x="18.5" y="-190.5" font-family="SegoeUI" font-size="10.00">+ OnDisable()</text>
<text text-anchor="start" x="18.5" y="-179.5" font-family="SegoeUI" font-size="10.00">+ Awake()</text>
<text text-anchor="start" x="18.5" y="-168.5" font-family="SegoeUI" font-size="10.00">&#45; SafetyCheck()</text>
<text text-anchor="start" x="18.5" y="-157.5" font-family="SegoeUI" font-size="10.00">&#45; OnSafeOrProximity()</text>
<text text-anchor="start" x="18.5" y="-146.5" font-family="SegoeUI" font-size="10.00">&#45; OnFoundChanged()</text>
<text text-anchor="start" x="18.5" y="-135.5" font-family="SegoeUI" font-size="10.00">&#45; OnLostOrFound()</text>
<text text-anchor="start" x="18.5" y="-124.5" font-family="SegoeUI" font-size="10.00">&#45; OnTrackingStateChanged()</text>
</a>
</g>
</g>
<!-- Node5&#45;&gt;Node4 -->
<g id="edge1" class="edge"><title>Node5&#45;&gt;Node4</title>
<path fill="none" stroke="midnightblue" d="M82,-107.201C82,-97.2933 82,-87.9939 82,-79.6744"/>
<polygon fill="none" stroke="midnightblue" points="78.5001,-107.296 82,-117.297 85.5001,-107.297 78.5001,-107.296"/>
</g>
<!-- Node6 -->
<g id="node3" class="node"><title>Node6</title>
<g id="a_node3"><a xlink:title=" ">
<polygon fill="white" stroke="#bfbfbf" points="2,-492 2,-549 84,-549 84,-492 2,-492"/>
<text text-anchor="middle" x="43" y="-537" font-family="SegoeUI" font-size="10.00">MonoBehaviour</text>
<polyline fill="none" stroke="#bfbfbf" points="2,-530 84,-530 "/>
<text text-anchor="middle" x="43" y="-518" font-family="SegoeUI" font-size="10.00"> </text>
<polyline fill="none" stroke="#bfbfbf" points="2,-511 84,-511 "/>
<text text-anchor="middle" x="43" y="-499" font-family="SegoeUI" font-size="10.00"> </text>
</a>
</g>
</g>
<!-- Node6&#45;&gt;Node5 -->
<g id="edge2" class="edge"><title>Node6&#45;&gt;Node5</title>
<path fill="none" stroke="midnightblue" d="M49.0883,-481.956C51.1214,-469.418 53.5318,-454.554 56.1098,-438.656"/>
<polygon fill="none" stroke="midnightblue" points="45.6197,-481.48 47.4738,-491.912 52.5295,-482.601 45.6197,-481.48"/>
</g>
<!-- Node7 -->
<g id="node4" class="node"><title>Node7</title>
<g id="a_node4"><a xlink:href="../../dc/d68/class_unity_engine_1_1_events_1_1_boolean_event.html" target="_top" xlink:title="An event that passes a boolean value as an argument.">
<polygon fill="white" stroke="black" points="102,-486.5 102,-554.5 236,-554.5 236,-486.5 102,-486.5"/>
<text text-anchor="start" x="110" y="-542.5" font-family="SegoeUI" font-size="10.00">UnityEngine.Events.Boolean</text>
<text text-anchor="middle" x="169" y="-531.5" font-family="SegoeUI" font-size="10.00">Event</text>
<polyline fill="none" stroke="black" points="102,-524.5 236,-524.5 "/>
<text text-anchor="middle" x="169" y="-512.5" font-family="SegoeUI" font-size="10.00"> </text>
<polyline fill="none" stroke="black" points="102,-505.5 236,-505.5 "/>
<text text-anchor="middle" x="169" y="-493.5" font-family="SegoeUI" font-size="10.00"> </text>
</a>
</g>
</g>
<!-- Node7&#45;&gt;Node5 -->
<g id="edge3" class="edge"><title>Node7&#45;&gt;Node5</title>
<path fill="none" stroke="#404040" d="M156.994,-486.312C153.207,-475.842 148.733,-463.475 143.886,-450.075"/>
<polygon fill="none" stroke="#404040" points="143.815,-449.881 138.013,-445.599 139.733,-438.596 145.536,-442.878 143.815,-449.881"/>
<text text-anchor="middle" x="206" y="-460" font-family="SegoeUI" font-size="10.00"> +onTrackingStateChange</text>
</g>
<!-- Node8 -->
<g id="node5" class="node"><title>Node8</title>
<g id="a_node5"><a xlink:title=" ">
<polygon fill="white" stroke="#bfbfbf" points="120,-592.5 120,-649.5 218,-649.5 218,-592.5 120,-592.5"/>
<text text-anchor="middle" x="169" y="-637.5" font-family="SegoeUI" font-size="10.00">UnityEvent&lt; bool &gt;</text>
<polyline fill="none" stroke="#bfbfbf" points="120,-630.5 218,-630.5 "/>
<text text-anchor="middle" x="169" y="-618.5" font-family="SegoeUI" font-size="10.00"> </text>
<polyline fill="none" stroke="#bfbfbf" points="120,-611.5 218,-611.5 "/>
<text text-anchor="middle" x="169" y="-599.5" font-family="SegoeUI" font-size="10.00"> </text>
</a>
</g>
</g>
<!-- Node8&#45;&gt;Node7 -->
<g id="edge4" class="edge"><title>Node8&#45;&gt;Node7</title>
<path fill="none" stroke="midnightblue" d="M169,-582.007C169,-572.962 169,-563.383 169,-554.578"/>
<polygon fill="none" stroke="midnightblue" points="165.5,-582.3 169,-592.3 172.5,-582.3 165.5,-582.3"/>
</g>
</g>
</svg>
        <g id="navigator" transform="translate(0 0)" fill="#404254">
                <rect fill="#f2f5e9" fill-opacity="0.5" stroke="#606060" stroke-width=".5" x="0" y="0" width="60" height="60"/>
                <use id="zoomplus" xlink:href="#zoomPlus" x="17" y="9" onmousedown="handleZoom(evt,'in')"/>
                <use id="zoomminus" xlink:href="#zoomMin" x="42" y="9" onmousedown="handleZoom(evt,'out')"/>
                <use id="reset" xlink:href="#resetDef" x="30" y="36" onmousedown="handleReset()"/>
                <g id="arrowUp" xlink:href="#dirArrow" transform="translate(30 24)" onmousedown="handlePan(0,-1)">
                  <use xlink:href="#rim" fill="#404040">
                        <set attributeName="fill" to="#808080" begin="arrowUp.mouseover" end="arrowUp.mouseout"/>
                  </use>
                  <path fill="none" stroke="white" stroke-width="1.5" d="M0,-3.0v7 M-2.5,-0.5L0,-3.0L2.5,-0.5"/>
                </g>
                <g id="arrowRight" xlink:href="#dirArrow" transform="rotate(90) translate(36 -43)" onmousedown="handlePan(1,0)">
                  <use xlink:href="#rim" fill="#404040">
                        <set attributeName="fill" to="#808080" begin="arrowRight.mouseover" end="arrowRight.mouseout"/>
                  </use>
                  <path fill="none" stroke="white" stroke-width="1.5" d="M0,-3.0v7 M-2.5,-0.5L0,-3.0L2.5,-0.5"/>
                </g>
                <g id="arrowDown" xlink:href="#dirArrow" transform="rotate(180) translate(-30 -48)" onmousedown="handlePan(0,1)">
                  <use xlink:href="#rim" fill="#404040">
                        <set attributeName="fill" to="#808080" begin="arrowDown.mouseover" end="arrowDown.mouseout"/>
                  </use>
                  <path fill="none" stroke="white" stroke-width="1.5" d="M0,-3.0v7 M-2.5,-0.5L0,-3.0L2.5,-0.5"/>
                </g>
                <g id="arrowLeft" xlink:href="#dirArrow" transform="rotate(270) translate(-36 17)" onmousedown="handlePan(-1,0)">
                  <use xlink:href="#rim" fill="#404040">
                        <set attributeName="fill" to="#808080" begin="arrowLeft.mouseover" end="arrowLeft.mouseout"/>
                  </use>
                  <path fill="none" stroke="white" stroke-width="1.5" d="M0,-3.0v7 M-2.5,-0.5L0,-3.0L2.5,-0.5"/>
                </g>
        </g>
        <svg viewBox="0 0 15 15" width="100%" height="30px" preserveAspectRatio="xMaxYMin meet">
         <g id="arrow_out" transform="scale(0.3 0.3)">
          <a xlink:href="class_juniper_1_1_unity_1_1_image_tracking_1_1_a_r_kit_trackable_found_event_handler__coll__graph_org.svg" target="_base">
           <rect id="button" ry="5" rx="5" y="6" x="6" height="38" width="38"
                fill="#f2f5e9" fill-opacity="0.5" stroke="#606060" stroke-width="1.0"/>
           <path id="arrow"
             d="M 11.500037,31.436501 C 11.940474,20.09759 22.043105,11.32322 32.158766,21.979434 L 37.068811,17.246167 C 37.068811,17.246167 37.088388,32 37.088388,32 L 22.160133,31.978069 C 22.160133,31.978069 26.997745,27.140456 26.997745,27.140456 C 18.528582,18.264221 13.291696,25.230495 11.500037,31.436501 z"
             style="fill:#404040;"/>
          </a>
         </g>
        </svg>
</svg>
