<?xml version="1.0" encoding="UTF-8" standalone="no"?>
<!DOCTYPE svg PUBLIC "-//W3C//DTD SVG 1.1//EN"
 "http://www.w3.org/Graphics/SVG/1.1/DTD/svg11.dtd">
<!-- Generated by graphviz version 2.38.0 (20140413.2041)
 -->
<!-- Title: Juniper.Unity.Display.DaydreamDisplayManager Pages: 1 -->
<svg width="178pt" height="760pt"
 viewBox="0.00 0.00 177.50 760.00" xmlns="http://www.w3.org/2000/svg" xmlns:xlink="http://www.w3.org/1999/xlink">
<g id="graph0" class="graph" transform="scale(1 1) rotate(0) translate(4 756)">
<title>Juniper.Unity.Display.DaydreamDisplayManager</title>
<polygon fill="white" stroke="none" points="-4,4 -4,-756 173.5,-756 173.5,4 -4,4"/>
<!-- Node0 -->
<g id="node1" class="node"><title>Node0</title>
<g id="a_node1"><a xlink:title=" ">
<polygon fill="#bfbfbf" stroke="black" points="8.5,-0.5 8.5,-90.5 167.5,-90.5 167.5,-0.5 8.5,-0.5"/>
<text text-anchor="start" x="16.5" y="-78.5" font-family="SegoeUI" font-size="10.00">Juniper.Unity.Display.Daydream</text>
<text text-anchor="middle" x="88" y="-67.5" font-family="SegoeUI" font-size="10.00">DisplayManager</text>
<polyline fill="none" stroke="black" points="8.5,-60.5 167.5,-60.5 "/>
<text text-anchor="start" x="16.5" y="-48.5" font-family="SegoeUI" font-size="10.00">+ AnyActiveGoogleInstantPreview</text>
<polyline fill="none" stroke="black" points="8.5,-41.5 167.5,-41.5 "/>
<text text-anchor="start" x="16.5" y="-29.5" font-family="SegoeUI" font-size="10.00">+ Install()</text>
<text text-anchor="start" x="16.5" y="-18.5" font-family="SegoeUI" font-size="10.00">+ Start()</text>
<text text-anchor="start" x="16.5" y="-7.5" font-family="SegoeUI" font-size="10.00">+ Uninstall()</text>
</a>
</g>
</g>
<!-- Node1 -->
<g id="node2" class="node"><title>Node1</title>
<g id="a_node2"><a xlink:href="../../da/da5/class_juniper_1_1_unity_1_1_display_1_1_abstract_display_manager.html" target="_top" xlink:title=" ">
<polygon fill="white" stroke="black" points="23.5,-127.5 23.5,-635.5 152.5,-635.5 152.5,-127.5 23.5,-127.5"/>
<text text-anchor="middle" x="88" y="-623.5" font-family="SegoeUI" font-size="10.00">AbstractDisplayManager</text>
<polyline fill="none" stroke="black" points="23.5,-616.5 152.5,-616.5 "/>
<text text-anchor="start" x="31.5" y="-604.5" font-family="SegoeUI" font-size="10.00">+ onDisplayTypeChange</text>
<text text-anchor="start" x="31.5" y="-593.5" font-family="SegoeUI" font-size="10.00">+ onARModeChange</text>
<text text-anchor="start" x="31.5" y="-582.5" font-family="SegoeUI" font-size="10.00">+ MainCamera</text>
<text text-anchor="start" x="31.5" y="-571.5" font-family="SegoeUI" font-size="10.00">+ ClearFlags</text>
<text text-anchor="start" x="31.5" y="-560.5" font-family="SegoeUI" font-size="10.00">+ BackgroundColor</text>
<text text-anchor="start" x="31.5" y="-549.5" font-family="SegoeUI" font-size="10.00">+ CullingMask</text>
<text text-anchor="start" x="31.5" y="-538.5" font-family="SegoeUI" font-size="10.00">+ CurrentPlatform</text>
<text text-anchor="start" x="31.5" y="-527.5" font-family="SegoeUI" font-size="10.00">+ System</text>
<text text-anchor="start" x="31.5" y="-516.5" font-family="SegoeUI" font-size="10.00">+ DisplayType</text>
<text text-anchor="start" x="31.5" y="-505.5" font-family="SegoeUI" font-size="10.00">+ SupportedDisplayType</text>
<text text-anchor="start" x="31.5" y="-494.5" font-family="SegoeUI" font-size="10.00">+ ARMode</text>
<text text-anchor="start" x="31.5" y="-483.5" font-family="SegoeUI" font-size="10.00">+ SupportedARMode</text>
<text text-anchor="start" x="31.5" y="-472.5" font-family="SegoeUI" font-size="10.00">+ Option</text>
<text text-anchor="start" x="31.5" y="-461.5" font-family="SegoeUI" font-size="10.00">+ IsValidDisplayChange</text>
<text text-anchor="start" x="31.5" y="-450.5" font-family="SegoeUI" font-size="10.00">+ DEFAULT_FOV</text>
<text text-anchor="start" x="31.5" y="-439.5" font-family="SegoeUI" font-size="10.00">+ VerticalFieldOfView</text>
<text text-anchor="start" x="31.5" y="-428.5" font-family="SegoeUI" font-size="10.00"># listener</text>
<text text-anchor="start" x="31.5" y="-417.5" font-family="SegoeUI" font-size="10.00"># goog</text>
<text text-anchor="start" x="31.5" y="-406.5" font-family="SegoeUI" font-size="10.00"># cameraCtrl</text>
<text text-anchor="start" x="31.5" y="-395.5" font-family="SegoeUI" font-size="10.00">&#45; jp</text>
<text text-anchor="start" x="31.5" y="-384.5" font-family="SegoeUI" font-size="10.00">&#45; lastSystem</text>
<text text-anchor="start" x="31.5" y="-373.5" font-family="SegoeUI" font-size="10.00">&#45; lastDisplayType</text>
<text text-anchor="start" x="31.5" y="-362.5" font-family="SegoeUI" font-size="10.00">&#45; resumeMode</text>
<text text-anchor="start" x="31.5" y="-351.5" font-family="SegoeUI" font-size="10.00">&#45; lastARMode</text>
<text text-anchor="start" x="31.5" y="-340.5" font-family="SegoeUI" font-size="10.00">&#45; lastOption</text>
<text text-anchor="start" x="31.5" y="-329.5" font-family="SegoeUI" font-size="10.00">&#45; cam</text>
<polyline fill="none" stroke="black" points="23.5,-322.5 152.5,-322.5 "/>
<text text-anchor="start" x="31.5" y="-310.5" font-family="SegoeUI" font-size="10.00">+ Awake()</text>
<text text-anchor="start" x="31.5" y="-299.5" font-family="SegoeUI" font-size="10.00">+ Reinstall()</text>
<text text-anchor="start" x="31.5" y="-288.5" font-family="SegoeUI" font-size="10.00">+ Install()</text>
<text text-anchor="start" x="31.5" y="-277.5" font-family="SegoeUI" font-size="10.00">+ Uninstall()</text>
<text text-anchor="start" x="31.5" y="-266.5" font-family="SegoeUI" font-size="10.00">+ Start()</text>
<text text-anchor="start" x="31.5" y="-255.5" font-family="SegoeUI" font-size="10.00">+ StartXRDisplay()</text>
<text text-anchor="start" x="31.5" y="-244.5" font-family="SegoeUI" font-size="10.00">+ StopXRDisplay()</text>
<text text-anchor="start" x="31.5" y="-233.5" font-family="SegoeUI" font-size="10.00">+ DisableDisplay()</text>
<text text-anchor="start" x="31.5" y="-222.5" font-family="SegoeUI" font-size="10.00">+ ResumeDisplay()</text>
<text text-anchor="start" x="31.5" y="-211.5" font-family="SegoeUI" font-size="10.00">+ StartAR()</text>
<text text-anchor="start" x="31.5" y="-200.5" font-family="SegoeUI" font-size="10.00">+ StopAR()</text>
<text text-anchor="start" x="31.5" y="-189.5" font-family="SegoeUI" font-size="10.00">+ Update()</text>
<text text-anchor="start" x="31.5" y="-178.5" font-family="SegoeUI" font-size="10.00"># OnDisplayTypeChange()</text>
<text text-anchor="start" x="31.5" y="-167.5" font-family="SegoeUI" font-size="10.00"># OnARModeChange()</text>
<text text-anchor="start" x="31.5" y="-156.5" font-family="SegoeUI" font-size="10.00">&#45; ChangeDisplayType()</text>
<text text-anchor="start" x="31.5" y="-145.5" font-family="SegoeUI" font-size="10.00">&#45; ChangeARMode()</text>
<text text-anchor="start" x="31.5" y="-134.5" font-family="SegoeUI" font-size="10.00">&#45; ChangeXRDevice()</text>
</a>
</g>
</g>
<!-- Node1&#45;&gt;Node0 -->
<g id="edge1" class="edge"><title>Node1&#45;&gt;Node0</title>
<path fill="none" stroke="midnightblue" d="M88,-117.152C88,-107.578 88,-98.6456 88,-90.5726"/>
<polygon fill="none" stroke="midnightblue" points="84.5001,-117.352 88,-127.352 91.5001,-117.352 84.5001,-117.352"/>
</g>
<!-- Node2 -->
<g id="node3" class="node"><title>Node2</title>
<g id="a_node3"><a xlink:title=" ">
<polygon fill="white" stroke="#bfbfbf" points="0,-683.5 0,-740.5 82,-740.5 82,-683.5 0,-683.5"/>
<text text-anchor="middle" x="41" y="-728.5" font-family="SegoeUI" font-size="10.00">MonoBehaviour</text>
<polyline fill="none" stroke="#bfbfbf" points="0,-721.5 82,-721.5 "/>
<text text-anchor="middle" x="41" y="-709.5" font-family="SegoeUI" font-size="10.00"> </text>
<polyline fill="none" stroke="#bfbfbf" points="0,-702.5 82,-702.5 "/>
<text text-anchor="middle" x="41" y="-690.5" font-family="SegoeUI" font-size="10.00"> </text>
</a>
</g>
</g>
<!-- Node2&#45;&gt;Node1 -->
<g id="edge2" class="edge"><title>Node2&#45;&gt;Node1</title>
<path fill="none" stroke="midnightblue" d="M46.4224,-673.101C47.9693,-662.289 49.7802,-649.632 51.7646,-635.763"/>
<polygon fill="none" stroke="midnightblue" points="42.9184,-672.88 44.9667,-683.275 49.8478,-673.872 42.9184,-672.88"/>
</g>
<!-- Node3 -->
<g id="node4" class="node"><title>Node3</title>
<g id="a_node4"><a xlink:href="../../db/d28/interface_juniper_1_1_i_installable.html" target="_top" xlink:title="Defines an interface for objects that can be installed and have their installation progress tracked.">
<polygon fill="white" stroke="black" points="100.5,-672.5 100.5,-751.5 169.5,-751.5 169.5,-672.5 100.5,-672.5"/>
<text text-anchor="middle" x="135" y="-739.5" font-family="SegoeUI" font-size="10.00">IInstallable</text>
<polyline fill="none" stroke="black" points="100.5,-732.5 169.5,-732.5 "/>
<text text-anchor="middle" x="135" y="-720.5" font-family="SegoeUI" font-size="10.00"> </text>
<polyline fill="none" stroke="black" points="100.5,-713.5 169.5,-713.5 "/>
<text text-anchor="start" x="108.5" y="-701.5" font-family="SegoeUI" font-size="10.00">+ Install()</text>
<text text-anchor="start" x="108.5" y="-690.5" font-family="SegoeUI" font-size="10.00">+ Reinstall()</text>
<text text-anchor="start" x="108.5" y="-679.5" font-family="SegoeUI" font-size="10.00">+ Uninstall()</text>
</a>
</g>
</g>
<!-- Node3&#45;&gt;Node1 -->
<g id="edge3" class="edge"><title>Node3&#45;&gt;Node1</title>
<path fill="none" stroke="midnightblue" d="M128.044,-662.385C126.87,-654.175 125.583,-645.182 124.214,-635.614"/>
<polygon fill="none" stroke="midnightblue" points="124.589,-662.947 129.47,-672.351 131.519,-661.956 124.589,-662.947"/>
</g>
</g>
</svg>
