<?xml version="1.0" encoding="UTF-8" standalone="no"?>
<!DOCTYPE svg PUBLIC "-//W3C//DTD SVG 1.1//EN"
 "http://www.w3.org/Graphics/SVG/1.1/DTD/svg11.dtd">
<!-- Generated by graphviz version 2.38.0 (20140413.2041)
 -->
<!-- Title: Juniper.Unity.World.Climate.Weather Pages: 1 -->
<!--zoomable 1147 -->
<svg id="main" version="1.1" xmlns="http://www.w3.org/2000/svg" xmlns:xlink="http://www.w3.org/1999/xlink" xml:space="preserve" onload="init(evt)">
<style type="text/css"><![CDATA[
.edge:hover path { stroke: red; }
.edge:hover polygon { stroke: red; fill: red; }
]]></style>
<script type="text/javascript"><![CDATA[
var edges = document.getElementsByTagName('g');
if (edges && edges.length) {
  for (var i=0;i<edges.length;i++) {
    if (edges[i].id.substr(0,4)=='edge') {
      edges[i].setAttribute('class','edge');
    }
  }
}
]]></script>
        <defs>
                <circle id="rim" cx="0" cy="0" r="7"/>
                <circle id="rim2" cx="0" cy="0" r="3.5"/>
                <g id="zoomPlus">
                        <use xlink:href="#rim" fill="#404040">
                                <set attributeName="fill" to="#808080" begin="zoomplus.mouseover" end="zoomplus.mouseout"/>
                        </use>
                        <path d="M-4,0h8M0,-4v8" fill="none" stroke="white" stroke-width="1.5" pointer-events="none"/>
                </g>
                <g id="zoomMin">
                        <use xlink:href="#rim" fill="#404040">
                                <set attributeName="fill" to="#808080" begin="zoomminus.mouseover" end="zoomminus.mouseout"/>
                        </use>
                        <path d="M-4,0h8" fill="none" stroke="white" stroke-width="1.5" pointer-events="none"/>
                </g>
                <g id="dirArrow">
                        <path fill="none" stroke="white" stroke-width="1.5" d="M0,-3.0v7 M-2.5,-0.5L0,-3.0L2.5,-0.5"/>
                </g>
               <g id="resetDef">
                       <use xlink:href="#rim2" fill="#404040">
                               <set attributeName="fill" to="#808080" begin="reset.mouseover" end="reset.mouseout"/>
                       </use>
               </g>
        </defs>

<script type="text/javascript">
var viewWidth = 920;
var viewHeight = 1147;
var sectionId = 'dynsection-1';
</script>
<script xlink:href="../../svgpan.js"/>
<svg id="graph" class="graph">
<g id="viewport">
<title>Juniper.Unity.World.Climate.Weather</title>
<polygon fill="white" stroke="none" points="-4,4 -4,-1143 916,-1143 916,4 -4,4"/>
<!-- Node2 -->
<g id="node1" class="node"><title>Node2</title>
<g id="a_node1"><a xlink:title="A component for managing access to weather reports. Only one of these components is allowed on a game...">
<polygon fill="#bfbfbf" stroke="black" points="353,-0.5 353,-233.5 491,-233.5 491,-0.5 353,-0.5"/>
<text text-anchor="start" x="361" y="-221.5" font-family="SegoeUI" font-size="10.00">Juniper.Unity.World.Climate.</text>
<text text-anchor="middle" x="422" y="-210.5" font-family="SegoeUI" font-size="10.00">Weather</text>
<polyline fill="none" stroke="black" points="353,-203.5 491,-203.5 "/>
<text text-anchor="start" x="361" y="-191.5" font-family="SegoeUI" font-size="10.00">+ MinutesBetweenReports</text>
<text text-anchor="start" x="361" y="-180.5" font-family="SegoeUI" font-size="10.00">+ MilesBetweenReports</text>
<text text-anchor="start" x="361" y="-169.5" font-family="SegoeUI" font-size="10.00">+ FakeWeather</text>
<text text-anchor="start" x="361" y="-158.5" font-family="SegoeUI" font-size="10.00">+ DebugReport</text>
<text text-anchor="start" x="361" y="-147.5" font-family="SegoeUI" font-size="10.00">+ Sunset</text>
<text text-anchor="start" x="361" y="-136.5" font-family="SegoeUI" font-size="10.00">+ CloudCover</text>
<text text-anchor="start" x="361" y="-125.5" font-family="SegoeUI" font-size="10.00">+ WindDirection</text>
<text text-anchor="start" x="361" y="-114.5" font-family="SegoeUI" font-size="10.00">+ WindSpeed</text>
<text text-anchor="start" x="361" y="-103.5" font-family="SegoeUI" font-size="10.00">+ Ready</text>
<text text-anchor="start" x="361" y="-92.5" font-family="SegoeUI" font-size="10.00">&#45; REPORT_KEY</text>
<text text-anchor="start" x="361" y="-81.5" font-family="SegoeUI" font-size="10.00">&#45; lastReportJSON</text>
<text text-anchor="start" x="361" y="-70.5" font-family="SegoeUI" font-size="10.00">&#45; wasFakeWeather</text>
<polyline fill="none" stroke="black" points="353,-63.5 491,-63.5 "/>
<text text-anchor="start" x="361" y="-51.5" font-family="SegoeUI" font-size="10.00">+ GetReport()</text>
<text text-anchor="start" x="361" y="-40.5" font-family="SegoeUI" font-size="10.00">+ Update()</text>
<text text-anchor="start" x="361" y="-29.5" font-family="SegoeUI" font-size="10.00">+ RequestCoroutine()</text>
<text text-anchor="start" x="361" y="-18.5" font-family="SegoeUI" font-size="10.00">&#45; GetReportCoroutine()</text>
<text text-anchor="start" x="361" y="-7.5" font-family="SegoeUI" font-size="10.00">&#45; PrintDebugReport()</text>
</a>
</g>
</g>
<!-- Node3 -->
<g id="node2" class="node"><title>Node3</title>
<g id="a_node2"><a xlink:title=" ">
<polygon fill="white" stroke="#bfbfbf" points="0,-744 0,-801 82,-801 82,-744 0,-744"/>
<text text-anchor="middle" x="41" y="-789" font-family="SegoeUI" font-size="10.00">MonoBehaviour</text>
<polyline fill="none" stroke="#bfbfbf" points="0,-782 82,-782 "/>
<text text-anchor="middle" x="41" y="-770" font-family="SegoeUI" font-size="10.00"> </text>
<polyline fill="none" stroke="#bfbfbf" points="0,-763 82,-763 "/>
<text text-anchor="middle" x="41" y="-751" font-family="SegoeUI" font-size="10.00"> </text>
</a>
</g>
</g>
<!-- Node3&#45;&gt;Node2 -->
<g id="edge1" class="edge"><title>Node3&#45;&gt;Node2</title>
<path fill="none" stroke="midnightblue" d="M30.6732,-733.956C8.84977,-646.024 -32.4363,-423.424 64,-281 129.858,-183.737 268.826,-143.59 352.933,-127.716"/>
<polygon fill="none" stroke="midnightblue" points="27.308,-734.924 33.1641,-743.754 34.0922,-733.2 27.308,-734.924"/>
</g>
<!-- Node17 -->
<g id="node16" class="node"><title>Node17</title>
<g id="a_node16"><a xlink:href="../../db/d2e/class_juniper_1_1_unity_1_1_world_1_1_g_p_s_location.html" target="_top" xlink:title="Retrieves the user&#39;s latitude, longitude, and altitude from satellites orbiting Spaceship Earth....">
<polygon fill="white" stroke="black" points="73.5,-298 73.5,-564 228.5,-564 228.5,-298 73.5,-298"/>
<text text-anchor="middle" x="151" y="-552" font-family="SegoeUI" font-size="10.00">Juniper.Unity.World.GPSLocation</text>
<polyline fill="none" stroke="black" points="73.5,-545 228.5,-545 "/>
<text text-anchor="start" x="81.5" y="-533" font-family="SegoeUI" font-size="10.00">+ timeBetweenUpdates</text>
<text text-anchor="start" x="81.5" y="-522" font-family="SegoeUI" font-size="10.00">+ desiredAccuracy</text>
<text text-anchor="start" x="81.5" y="-511" font-family="SegoeUI" font-size="10.00">+ updateDistance</text>
<text text-anchor="start" x="81.5" y="-500" font-family="SegoeUI" font-size="10.00">+ FakeCoord</text>
<text text-anchor="start" x="81.5" y="-489" font-family="SegoeUI" font-size="10.00">+ DebugReport</text>
<text text-anchor="start" x="81.5" y="-478" font-family="SegoeUI" font-size="10.00">+ onPositionUpdated</text>
<text text-anchor="start" x="81.5" y="-467" font-family="SegoeUI" font-size="10.00">+ HasCoord</text>
<text text-anchor="start" x="81.5" y="-456" font-family="SegoeUI" font-size="10.00">+ UseFakeCoord</text>
<text text-anchor="start" x="81.5" y="-445" font-family="SegoeUI" font-size="10.00">+ Location</text>
<text text-anchor="start" x="81.5" y="-434" font-family="SegoeUI" font-size="10.00">+ Status</text>
<text text-anchor="start" x="81.5" y="-423" font-family="SegoeUI" font-size="10.00">&#45; COORD_KEY</text>
<text text-anchor="start" x="81.5" y="-412" font-family="SegoeUI" font-size="10.00">&#45; nextUpdateTime</text>
<text text-anchor="start" x="81.5" y="-401" font-family="SegoeUI" font-size="10.00">&#45; lastLocation</text>
<polyline fill="none" stroke="black" points="73.5,-394 228.5,-394 "/>
<text text-anchor="start" x="81.5" y="-382" font-family="SegoeUI" font-size="10.00">+ Awake()</text>
<text text-anchor="start" x="81.5" y="-371" font-family="SegoeUI" font-size="10.00">+ Start()</text>
<text text-anchor="start" x="81.5" y="-360" font-family="SegoeUI" font-size="10.00">+ OnEnable()</text>
<text text-anchor="start" x="81.5" y="-349" font-family="SegoeUI" font-size="10.00">+ OnDisable()</text>
<text text-anchor="start" x="81.5" y="-338" font-family="SegoeUI" font-size="10.00">+ Update()</text>
<text text-anchor="start" x="81.5" y="-327" font-family="SegoeUI" font-size="10.00">&#45; OnPositionUpdated()</text>
<text text-anchor="start" x="81.5" y="-316" font-family="SegoeUI" font-size="10.00">&#45; StartGPSTrackingCoroutine()</text>
<text text-anchor="start" x="81.5" y="-305" font-family="SegoeUI" font-size="10.00">&#45; PrintDebugReport()</text>
</a>
</g>
</g>
<!-- Node3&#45;&gt;Node17 -->
<g id="edge16" class="edge"><title>Node3&#45;&gt;Node17</title>
<path fill="none" stroke="midnightblue" d="M53.0947,-734.171C66.3458,-693.274 88.356,-625.342 108.154,-564.237"/>
<polygon fill="none" stroke="midnightblue" points="49.7545,-733.125 50.0018,-743.717 56.4137,-735.283 49.7545,-733.125"/>
</g>
<!-- Node4 -->
<g id="node3" class="node"><title>Node4</title>
<g id="a_node3"><a xlink:href="../../d8/d7d/interface_juniper_1_1_world_1_1_climate_1_1_i_weather_report.html" target="_top" xlink:title=" ">
<polygon fill="white" stroke="black" points="403,-320 403,-542 557,-542 557,-320 403,-320"/>
<text text-anchor="start" x="411" y="-530" font-family="SegoeUI" font-size="10.00">Juniper.World.Climate.IWeather</text>
<text text-anchor="middle" x="480" y="-519" font-family="SegoeUI" font-size="10.00">Report</text>
<polyline fill="none" stroke="black" points="403,-512 557,-512 "/>
<text text-anchor="start" x="411" y="-500" font-family="SegoeUI" font-size="10.00">+ ReportTime</text>
<text text-anchor="start" x="411" y="-489" font-family="SegoeUI" font-size="10.00">+ City</text>
<text text-anchor="start" x="411" y="-478" font-family="SegoeUI" font-size="10.00">+ Country</text>
<text text-anchor="start" x="411" y="-467" font-family="SegoeUI" font-size="10.00">+ Location</text>
<text text-anchor="start" x="411" y="-456" font-family="SegoeUI" font-size="10.00">+ Visibility</text>
<text text-anchor="start" x="411" y="-445" font-family="SegoeUI" font-size="10.00">+ SunriseTime</text>
<text text-anchor="start" x="411" y="-434" font-family="SegoeUI" font-size="10.00">+ SunsetTime</text>
<text text-anchor="start" x="411" y="-423" font-family="SegoeUI" font-size="10.00">+ CloudCover</text>
<text text-anchor="start" x="411" y="-412" font-family="SegoeUI" font-size="10.00">+ WindDirection</text>
<text text-anchor="start" x="411" y="-401" font-family="SegoeUI" font-size="10.00">+ WindSpeed</text>
<text text-anchor="start" x="411" y="-390" font-family="SegoeUI" font-size="10.00">+ Conditions</text>
<text text-anchor="start" x="411" y="-379" font-family="SegoeUI" font-size="10.00">+ Temperature</text>
<text text-anchor="start" x="411" y="-368" font-family="SegoeUI" font-size="10.00">+ Humidity</text>
<text text-anchor="start" x="411" y="-357" font-family="SegoeUI" font-size="10.00">+ AtmosphericPressure</text>
<text text-anchor="start" x="411" y="-346" font-family="SegoeUI" font-size="10.00">+ Error</text>
<polyline fill="none" stroke="black" points="403,-339 557,-339 "/>
<text text-anchor="middle" x="480" y="-327" font-family="SegoeUI" font-size="10.00"> </text>
</a>
</g>
</g>
<!-- Node4&#45;&gt;Node2 -->
<g id="edge2" class="edge"><title>Node4&#45;&gt;Node2</title>
<path fill="none" stroke="#404040" d="M459.47,-319.561C455.017,-295.609 450.272,-270.085 445.708,-245.535"/>
<polygon fill="none" stroke="#404040" points="445.678,-245.37 440.649,-240.202 443.485,-233.572 448.514,-238.74 445.678,-245.37"/>
<text text-anchor="middle" x="485.5" y="-255" font-family="SegoeUI" font-size="10.00"> &#45;currentWeather</text>
</g>
<!-- Node5 -->
<g id="node4" class="node"><title>Node5</title>
<g id="a_node4"><a xlink:href="../../d9/d1c/interface_juniper_1_1_world_1_1_climate_1_1_i_weather_a_p_i.html" target="_top" xlink:title=" ">
<polygon fill="white" stroke="black" points="575,-391.5 575,-470.5 743,-470.5 743,-391.5 575,-391.5"/>
<text text-anchor="middle" x="659" y="-458.5" font-family="SegoeUI" font-size="10.00">Juniper.World.Climate.IWeatherAPI</text>
<polyline fill="none" stroke="black" points="575,-451.5 743,-451.5 "/>
<text text-anchor="start" x="583" y="-439.5" font-family="SegoeUI" font-size="10.00">+ ReportTTLMinutes</text>
<text text-anchor="start" x="583" y="-428.5" font-family="SegoeUI" font-size="10.00">+ ReportRadiusMeters</text>
<text text-anchor="start" x="583" y="-417.5" font-family="SegoeUI" font-size="10.00">+ LastReport</text>
<polyline fill="none" stroke="black" points="575,-410.5 743,-410.5 "/>
<text text-anchor="start" x="583" y="-398.5" font-family="SegoeUI" font-size="10.00">+ Request()</text>
</a>
</g>
</g>
<!-- Node5&#45;&gt;Node2 -->
<g id="edge3" class="edge"><title>Node5&#45;&gt;Node2</title>
<path fill="none" stroke="#404040" d="M637.169,-391.194C619.303,-360.431 592.707,-316.811 566,-281 545.593,-253.637 521.643,-225.274 499.196,-200.029"/>
<polygon fill="none" stroke="#404040" points="499.007,-199.818 492.025,-198.015 491.003,-190.877 497.986,-192.68 499.007,-199.818"/>
<text text-anchor="middle" x="589" y="-255" font-family="SegoeUI" font-size="10.00"> &#45;weatherService</text>
</g>
<!-- Node6 -->
<g id="node5" class="node"><title>Node6</title>
<g id="a_node5"><a xlink:href="../../db/de7/class_juniper_1_1_unity_1_1_world_1_1_climate_1_1_fake_weather_report.html" target="_top" xlink:title="An API&#45;compatible, editable object for making static weather reports.">
<polygon fill="white" stroke="black" points="247,-281.5 247,-580.5 385,-580.5 385,-281.5 247,-281.5"/>
<text text-anchor="start" x="255" y="-568.5" font-family="SegoeUI" font-size="10.00">Juniper.Unity.World.Climate.</text>
<text text-anchor="middle" x="316" y="-557.5" font-family="SegoeUI" font-size="10.00">FakeWeatherReport</text>
<polyline fill="none" stroke="black" points="247,-550.5 385,-550.5 "/>
<text text-anchor="start" x="255" y="-538.5" font-family="SegoeUI" font-size="10.00">+ visibility</text>
<text text-anchor="start" x="255" y="-527.5" font-family="SegoeUI" font-size="10.00">+ cloudCover</text>
<text text-anchor="start" x="255" y="-516.5" font-family="SegoeUI" font-size="10.00">+ windDirection</text>
<text text-anchor="start" x="255" y="-505.5" font-family="SegoeUI" font-size="10.00">+ windSpeed</text>
<text text-anchor="start" x="255" y="-494.5" font-family="SegoeUI" font-size="10.00">+ temperature</text>
<text text-anchor="start" x="255" y="-483.5" font-family="SegoeUI" font-size="10.00">+ humidity</text>
<text text-anchor="start" x="255" y="-472.5" font-family="SegoeUI" font-size="10.00">+ atmosphericPressure</text>
<text text-anchor="start" x="255" y="-461.5" font-family="SegoeUI" font-size="10.00">+ ReportTime</text>
<text text-anchor="start" x="255" y="-450.5" font-family="SegoeUI" font-size="10.00">+ City</text>
<text text-anchor="start" x="255" y="-439.5" font-family="SegoeUI" font-size="10.00">+ Country</text>
<text text-anchor="start" x="255" y="-428.5" font-family="SegoeUI" font-size="10.00">+ Location</text>
<text text-anchor="start" x="255" y="-417.5" font-family="SegoeUI" font-size="10.00">+ Visibility</text>
<text text-anchor="start" x="255" y="-406.5" font-family="SegoeUI" font-size="10.00">+ SunriseTime</text>
<text text-anchor="start" x="255" y="-395.5" font-family="SegoeUI" font-size="10.00">+ SunsetTime</text>
<text text-anchor="start" x="255" y="-384.5" font-family="SegoeUI" font-size="10.00">+ CloudCover</text>
<text text-anchor="start" x="255" y="-373.5" font-family="SegoeUI" font-size="10.00">+ WindDirection</text>
<text text-anchor="start" x="255" y="-362.5" font-family="SegoeUI" font-size="10.00">+ WindSpeed</text>
<text text-anchor="start" x="255" y="-351.5" font-family="SegoeUI" font-size="10.00">+ Conditions</text>
<text text-anchor="start" x="255" y="-340.5" font-family="SegoeUI" font-size="10.00">+ Temperature</text>
<text text-anchor="start" x="255" y="-329.5" font-family="SegoeUI" font-size="10.00">+ Humidity</text>
<text text-anchor="start" x="255" y="-318.5" font-family="SegoeUI" font-size="10.00">+ AtmosphericPressure</text>
<text text-anchor="start" x="255" y="-307.5" font-family="SegoeUI" font-size="10.00">+ Error</text>
<polyline fill="none" stroke="black" points="247,-300.5 385,-300.5 "/>
<text text-anchor="middle" x="316" y="-288.5" font-family="SegoeUI" font-size="10.00"> </text>
</a>
</g>
</g>
<!-- Node6&#45;&gt;Node2 -->
<g id="edge4" class="edge"><title>Node6&#45;&gt;Node2</title>
<path fill="none" stroke="#404040" d="M366.516,-281.31C370.638,-269.178 374.78,-256.987 378.842,-245.032"/>
<polygon fill="none" stroke="#404040" points="378.848,-245.013 376.991,-238.045 382.708,-233.651 384.566,-240.619 378.848,-245.013"/>
<text text-anchor="middle" x="398.5" y="-255" font-family="SegoeUI" font-size="10.00"> +weather</text>
</g>
<!-- Node7 -->
<g id="node6" class="node"><title>Node7</title>
<g id="a_node6"><a xlink:href="../../d8/d7d/interface_juniper_1_1_world_1_1_climate_1_1_i_weather_report.html" target="_top" xlink:title=" ">
<polygon fill="white" stroke="black" points="411,-667 411,-878 527,-878 527,-667 411,-667"/>
<text text-anchor="middle" x="469" y="-866" font-family="SegoeUI" font-size="10.00">IWeatherReport</text>
<polyline fill="none" stroke="black" points="411,-859 527,-859 "/>
<text text-anchor="start" x="419" y="-847" font-family="SegoeUI" font-size="10.00">+ ReportTime</text>
<text text-anchor="start" x="419" y="-836" font-family="SegoeUI" font-size="10.00">+ City</text>
<text text-anchor="start" x="419" y="-825" font-family="SegoeUI" font-size="10.00">+ Country</text>
<text text-anchor="start" x="419" y="-814" font-family="SegoeUI" font-size="10.00">+ Location</text>
<text text-anchor="start" x="419" y="-803" font-family="SegoeUI" font-size="10.00">+ Visibility</text>
<text text-anchor="start" x="419" y="-792" font-family="SegoeUI" font-size="10.00">+ SunriseTime</text>
<text text-anchor="start" x="419" y="-781" font-family="SegoeUI" font-size="10.00">+ SunsetTime</text>
<text text-anchor="start" x="419" y="-770" font-family="SegoeUI" font-size="10.00">+ CloudCover</text>
<text text-anchor="start" x="419" y="-759" font-family="SegoeUI" font-size="10.00">+ WindDirection</text>
<text text-anchor="start" x="419" y="-748" font-family="SegoeUI" font-size="10.00">+ WindSpeed</text>
<text text-anchor="start" x="419" y="-737" font-family="SegoeUI" font-size="10.00">+ Conditions</text>
<text text-anchor="start" x="419" y="-726" font-family="SegoeUI" font-size="10.00">+ Temperature</text>
<text text-anchor="start" x="419" y="-715" font-family="SegoeUI" font-size="10.00">+ Humidity</text>
<text text-anchor="start" x="419" y="-704" font-family="SegoeUI" font-size="10.00">+ AtmosphericPressure</text>
<text text-anchor="start" x="419" y="-693" font-family="SegoeUI" font-size="10.00">+ Error</text>
<polyline fill="none" stroke="black" points="411,-686 527,-686 "/>
<text text-anchor="middle" x="469" y="-674" font-family="SegoeUI" font-size="10.00"> </text>
</a>
</g>
</g>
<!-- Node7&#45;&gt;Node6 -->
<g id="edge5" class="edge"><title>Node7&#45;&gt;Node6</title>
<path fill="none" stroke="midnightblue" d="M417.625,-657.502C406.504,-632.824 394.586,-606.378 382.965,-580.593"/>
<polygon fill="none" stroke="midnightblue" points="414.547,-659.19 421.847,-666.869 420.929,-656.314 414.547,-659.19"/>
</g>
<!-- Node8 -->
<g id="node7" class="node"><title>Node8</title>
<g id="a_node7"><a xlink:href="../../d6/d53/class_juniper_1_1_world_1_1_g_i_s_1_1_lat_lng_point.html" target="_top" xlink:title="A point in geographic space on a radial coordinate system.">
<polygon fill="white" stroke="black" points="100.5,-650.5 100.5,-894.5 225.5,-894.5 225.5,-650.5 100.5,-650.5"/>
<text text-anchor="start" x="108.5" y="-882.5" font-family="SegoeUI" font-size="10.00">Juniper.World.GIS.LatLng</text>
<text text-anchor="middle" x="163" y="-871.5" font-family="SegoeUI" font-size="10.00">Point</text>
<polyline fill="none" stroke="black" points="100.5,-864.5 225.5,-864.5 "/>
<text text-anchor="start" x="108.5" y="-852.5" font-family="SegoeUI" font-size="10.00">+ Altitude</text>
<text text-anchor="start" x="108.5" y="-841.5" font-family="SegoeUI" font-size="10.00">+ Latitude</text>
<text text-anchor="start" x="108.5" y="-830.5" font-family="SegoeUI" font-size="10.00">+ Longitude</text>
<polyline fill="none" stroke="black" points="100.5,-823.5 225.5,-823.5 "/>
<text text-anchor="start" x="108.5" y="-811.5" font-family="SegoeUI" font-size="10.00">+ LatLngPoint()</text>
<text text-anchor="start" x="108.5" y="-800.5" font-family="SegoeUI" font-size="10.00">+ LatLngPoint()</text>
<text text-anchor="start" x="108.5" y="-789.5" font-family="SegoeUI" font-size="10.00">+ LatLngPoint()</text>
<text text-anchor="start" x="108.5" y="-778.5" font-family="SegoeUI" font-size="10.00">+ GetObjectData()</text>
<text text-anchor="start" x="108.5" y="-767.5" font-family="SegoeUI" font-size="10.00">+ ToUTM()</text>
<text text-anchor="start" x="108.5" y="-756.5" font-family="SegoeUI" font-size="10.00">+ ToSunPosition()</text>
<text text-anchor="start" x="108.5" y="-745.5" font-family="SegoeUI" font-size="10.00">+ ToDMS()</text>
<text text-anchor="start" x="108.5" y="-734.5" font-family="SegoeUI" font-size="10.00">+ ToString()</text>
<text text-anchor="start" x="108.5" y="-723.5" font-family="SegoeUI" font-size="10.00">+ ToString()</text>
<text text-anchor="start" x="108.5" y="-712.5" font-family="SegoeUI" font-size="10.00">+ ToString()</text>
<text text-anchor="start" x="108.5" y="-701.5" font-family="SegoeUI" font-size="10.00">+ Equals()</text>
<text text-anchor="start" x="108.5" y="-690.5" font-family="SegoeUI" font-size="10.00">+ GetHashCode()</text>
<text text-anchor="start" x="108.5" y="-679.5" font-family="SegoeUI" font-size="10.00">+ Distance()</text>
<text text-anchor="start" x="108.5" y="-668.5" font-family="SegoeUI" font-size="10.00">+ TryParseDMS()</text>
<text text-anchor="start" x="108.5" y="-657.5" font-family="SegoeUI" font-size="10.00">&#45; ToDMS()</text>
</a>
</g>
</g>
<!-- Node8&#45;&gt;Node6 -->
<g id="edge6" class="edge"><title>Node8&#45;&gt;Node6</title>
<path fill="none" stroke="#404040" d="M217.589,-650.371C226.169,-631.331 235.151,-611.399 244.051,-591.651"/>
<polygon fill="none" stroke="#404040" points="244.053,-591.646 242.872,-584.532 248.984,-580.706 250.165,-587.819 244.053,-591.646"/>
<text text-anchor="middle" x="261.5" y="-602" font-family="SegoeUI" font-size="10.00"> +location</text>
</g>
<!-- Node8&#45;&gt;Node17 -->
<g id="edge17" class="edge"><title>Node8&#45;&gt;Node17</title>
<path fill="none" stroke="#404040" d="M158.719,-650.371C157.868,-626.314 156.968,-600.835 156.093,-576.099"/>
<polygon fill="none" stroke="#404040" points="156.091,-576.018 151.881,-570.163 155.667,-564.026 159.876,-569.881 156.091,-576.018"/>
<text text-anchor="middle" x="174.5" y="-602" font-family="SegoeUI" font-size="10.00"> +Coord</text>
</g>
<!-- Node9 -->
<g id="node8" class="node"><title>Node9</title>
<g id="a_node8"><a xlink:title=" ">
<polygon fill="white" stroke="#bfbfbf" points="128.5,-975.5 128.5,-1032.5 197.5,-1032.5 197.5,-975.5 128.5,-975.5"/>
<text text-anchor="middle" x="163" y="-1020.5" font-family="SegoeUI" font-size="10.00">ISerializable</text>
<polyline fill="none" stroke="#bfbfbf" points="128.5,-1013.5 197.5,-1013.5 "/>
<text text-anchor="middle" x="163" y="-1001.5" font-family="SegoeUI" font-size="10.00"> </text>
<polyline fill="none" stroke="#bfbfbf" points="128.5,-994.5 197.5,-994.5 "/>
<text text-anchor="middle" x="163" y="-982.5" font-family="SegoeUI" font-size="10.00"> </text>
</a>
</g>
</g>
<!-- Node9&#45;&gt;Node8 -->
<g id="edge7" class="edge"><title>Node9&#45;&gt;Node8</title>
<path fill="none" stroke="midnightblue" d="M163,-965.287C163,-945.62 163,-920.344 163,-894.638"/>
<polygon fill="none" stroke="midnightblue" points="159.5,-965.317 163,-975.317 166.5,-965.317 159.5,-965.317"/>
</g>
<!-- Node10 -->
<g id="node9" class="node"><title>Node10</title>
<g id="a_node9"><a xlink:href="../../dd/d15/struct_juniper_1_1_unity_1_1_editable_date_time.html" target="_top" xlink:title="A wrapper around System.DateTime that makes it possible to edit values in the Unity Editor.">
<polygon fill="white" stroke="black" points="243.5,-628.5 243.5,-916.5 392.5,-916.5 392.5,-628.5 243.5,-628.5"/>
<text text-anchor="middle" x="318" y="-904.5" font-family="SegoeUI" font-size="10.00">Juniper.Unity.EditableDateTime</text>
<polyline fill="none" stroke="black" points="243.5,-897.5 392.5,-897.5 "/>
<text text-anchor="start" x="251.5" y="-885.5" font-family="SegoeUI" font-size="10.00">+ Kind</text>
<text text-anchor="start" x="251.5" y="-874.5" font-family="SegoeUI" font-size="10.00">+ Year</text>
<text text-anchor="start" x="251.5" y="-863.5" font-family="SegoeUI" font-size="10.00">+ Month</text>
<text text-anchor="start" x="251.5" y="-852.5" font-family="SegoeUI" font-size="10.00">+ Day</text>
<text text-anchor="start" x="251.5" y="-841.5" font-family="SegoeUI" font-size="10.00">+ Hour</text>
<text text-anchor="start" x="251.5" y="-830.5" font-family="SegoeUI" font-size="10.00">+ Minute</text>
<text text-anchor="start" x="251.5" y="-819.5" font-family="SegoeUI" font-size="10.00">+ Second</text>
<text text-anchor="start" x="251.5" y="-808.5" font-family="SegoeUI" font-size="10.00">+ Millisecond</text>
<text text-anchor="start" x="251.5" y="-797.5" font-family="SegoeUI" font-size="10.00">+ Now</text>
<text text-anchor="start" x="251.5" y="-786.5" font-family="SegoeUI" font-size="10.00">+ Value</text>
<text text-anchor="start" x="251.5" y="-775.5" font-family="SegoeUI" font-size="10.00">+ Changed</text>
<text text-anchor="start" x="251.5" y="-764.5" font-family="SegoeUI" font-size="10.00">&#45; lastValue</text>
<polyline fill="none" stroke="black" points="243.5,-757.5 392.5,-757.5 "/>
<text text-anchor="start" x="251.5" y="-745.5" font-family="SegoeUI" font-size="10.00">+ EditableDateTime()</text>
<text text-anchor="start" x="251.5" y="-734.5" font-family="SegoeUI" font-size="10.00">+ Equals()</text>
<text text-anchor="start" x="251.5" y="-723.5" font-family="SegoeUI" font-size="10.00">+ GetHashCode()</text>
<text text-anchor="start" x="251.5" y="-712.5" font-family="SegoeUI" font-size="10.00">+ operator DateTime()</text>
<text text-anchor="start" x="251.5" y="-701.5" font-family="SegoeUI" font-size="10.00">+ operator EditableDateTime()</text>
<text text-anchor="start" x="251.5" y="-690.5" font-family="SegoeUI" font-size="10.00">+ operator==()</text>
<text text-anchor="start" x="251.5" y="-679.5" font-family="SegoeUI" font-size="10.00">+ operator !=()</text>
<text text-anchor="start" x="251.5" y="-668.5" font-family="SegoeUI" font-size="10.00">+ operator==()</text>
<text text-anchor="start" x="251.5" y="-657.5" font-family="SegoeUI" font-size="10.00">+ operator !=()</text>
<text text-anchor="start" x="251.5" y="-646.5" font-family="SegoeUI" font-size="10.00">+ operator==()</text>
<text text-anchor="start" x="251.5" y="-635.5" font-family="SegoeUI" font-size="10.00">+ operator !=()</text>
</a>
</g>
</g>
<!-- Node10&#45;&gt;Node6 -->
<g id="edge8" class="edge"><title>Node10&#45;&gt;Node6</title>
<path fill="none" stroke="#404040" d="M317.155,-628.014C317.086,-616.395 317.017,-604.609 316.948,-592.879"/>
<polygon fill="none" stroke="#404040" points="316.947,-592.685 312.911,-586.709 316.876,-580.685 320.911,-586.662 316.947,-592.685"/>
<text text-anchor="middle" x="346" y="-602" font-family="SegoeUI" font-size="10.00"> +reportTime</text>
</g>
<!-- Node11 -->
<g id="node10" class="node"><title>Node11</title>
<g id="a_node10"><a xlink:title=" ">
<polygon fill="white" stroke="#bfbfbf" points="298.5,-975.5 298.5,-1032.5 337.5,-1032.5 337.5,-975.5 298.5,-975.5"/>
<text text-anchor="middle" x="318" y="-1020.5" font-family="SegoeUI" font-size="10.00">static</text>
<polyline fill="none" stroke="#bfbfbf" points="298.5,-1013.5 337.5,-1013.5 "/>
<text text-anchor="middle" x="318" y="-1001.5" font-family="SegoeUI" font-size="10.00"> </text>
<polyline fill="none" stroke="#bfbfbf" points="298.5,-994.5 337.5,-994.5 "/>
<text text-anchor="middle" x="318" y="-982.5" font-family="SegoeUI" font-size="10.00"> </text>
</a>
</g>
</g>
<!-- Node11&#45;&gt;Node10 -->
<g id="edge9" class="edge"><title>Node11&#45;&gt;Node10</title>
<path fill="none" stroke="#404040" d="M318,-975.317C318,-962.615 318,-946.461 318,-928.841"/>
<polygon fill="none" stroke="#404040" points="318,-928.754 314,-922.754 318,-916.754 322,-922.754 318,-928.754"/>
<text text-anchor="middle" x="345" y="-938" font-family="SegoeUI" font-size="10.00"> +TestOffset</text>
</g>
<!-- Node12 -->
<g id="node11" class="node"><title>Node12</title>
<g id="a_node11"><a xlink:href="../../d5/dd2/class_unity_engine_1_1_string_variable.html" target="_top" xlink:title="A string value that can be saved to the Assets folder and used across projects">
<polygon fill="white" stroke="black" points="761,-402.5 761,-459.5 891,-459.5 891,-402.5 761,-402.5"/>
<text text-anchor="middle" x="826" y="-447.5" font-family="SegoeUI" font-size="10.00">UnityEngine.StringVariable</text>
<polyline fill="none" stroke="black" points="761,-440.5 891,-440.5 "/>
<text text-anchor="middle" x="826" y="-428.5" font-family="SegoeUI" font-size="10.00"> </text>
<polyline fill="none" stroke="black" points="761,-421.5 891,-421.5 "/>
<text text-anchor="start" x="769" y="-409.5" font-family="SegoeUI" font-size="10.00">+ operator bool()</text>
</a>
</g>
</g>
<!-- Node12&#45;&gt;Node2 -->
<g id="edge10" class="edge"><title>Node12&#45;&gt;Node2</title>
<path fill="none" stroke="#404040" d="M818.233,-402.306C807.86,-369.688 786.655,-315.58 752,-281 681.8,-210.952 575.432,-165.929 502.55,-141.333"/>
<polygon fill="none" stroke="#404040" points="502.543,-141.331 495.59,-143.243 491.151,-137.56 498.104,-135.648 502.543,-141.331"/>
<text text-anchor="middle" x="789" y="-255" font-family="SegoeUI" font-size="10.00"> +OpenWeatherMapAPIKey</text>
</g>
<!-- Node13 -->
<g id="node12" class="node"><title>Node13</title>
<g id="a_node12"><a xlink:href="../../d4/d88/class_unity_engine_1_1_abstract_variable.html" target="_top" xlink:title=" ">
<polygon fill="white" stroke="black" points="760.5,-733 760.5,-812 891.5,-812 891.5,-733 760.5,-733"/>
<text text-anchor="middle" x="826" y="-800" font-family="SegoeUI" font-size="10.00">AbstractVariable&lt; string &gt;</text>
<polyline fill="none" stroke="black" points="760.5,-793 891.5,-793 "/>
<text text-anchor="start" x="768.5" y="-781" font-family="SegoeUI" font-size="10.00">+ Value</text>
<text text-anchor="start" x="768.5" y="-770" font-family="SegoeUI" font-size="10.00">&#45; _value</text>
<polyline fill="none" stroke="black" points="760.5,-763 891.5,-763 "/>
<text text-anchor="start" x="768.5" y="-751" font-family="SegoeUI" font-size="10.00">+ ToString()</text>
<text text-anchor="start" x="768.5" y="-740" font-family="SegoeUI" font-size="10.00">+ operator T()</text>
</a>
</g>
</g>
<!-- Node13&#45;&gt;Node12 -->
<g id="edge11" class="edge"><title>Node13&#45;&gt;Node12</title>
<path fill="none" stroke="midnightblue" d="M826,-722.685C826,-650.45 826,-517.436 826,-459.82"/>
<polygon fill="none" stroke="midnightblue" points="822.5,-722.886 826,-732.886 829.5,-722.886 822.5,-722.886"/>
</g>
<!-- Node14 -->
<g id="node13" class="node"><title>Node14</title>
<g id="a_node13"><a xlink:href="../../d4/d88/class_unity_engine_1_1_abstract_variable.html" target="_top" xlink:title="An abstraction of storing values on disk in the Assets folder. A sort of drag&#45;and&#45;drop means of setti...">
<polygon fill="white" stroke="black" points="743.5,-964.5 743.5,-1043.5 908.5,-1043.5 908.5,-964.5 743.5,-964.5"/>
<text text-anchor="middle" x="826" y="-1031.5" font-family="SegoeUI" font-size="10.00">UnityEngine.AbstractVariable&lt; T &gt;</text>
<polyline fill="none" stroke="black" points="743.5,-1024.5 908.5,-1024.5 "/>
<text text-anchor="start" x="751.5" y="-1012.5" font-family="SegoeUI" font-size="10.00">+ Value</text>
<text text-anchor="start" x="751.5" y="-1001.5" font-family="SegoeUI" font-size="10.00">&#45; _value</text>
<polyline fill="none" stroke="black" points="743.5,-994.5 908.5,-994.5 "/>
<text text-anchor="start" x="751.5" y="-982.5" font-family="SegoeUI" font-size="10.00">+ ToString()</text>
<text text-anchor="start" x="751.5" y="-971.5" font-family="SegoeUI" font-size="10.00">+ operator T()</text>
</a>
</g>
</g>
<!-- Node14&#45;&gt;Node13 -->
<g id="edge12" class="edge"><title>Node14&#45;&gt;Node13</title>
<path fill="none" stroke="orange" d="M826,-954.251C826,-911.926 826,-851.451 826,-812.331"/>
<polygon fill="orange" stroke="orange" points="822.5,-954.328 826,-964.328 829.5,-954.328 822.5,-954.328"/>
<text text-anchor="middle" x="849.5" y="-938" font-family="SegoeUI" font-size="10.00"> &lt; string &gt;</text>
</g>
<!-- Node15 -->
<g id="node14" class="node"><title>Node15</title>
<g id="a_node14"><a xlink:title=" ">
<polygon fill="white" stroke="#bfbfbf" points="732.5,-1081.5 732.5,-1138.5 819.5,-1138.5 819.5,-1081.5 732.5,-1081.5"/>
<text text-anchor="middle" x="776" y="-1126.5" font-family="SegoeUI" font-size="10.00">ScriptableObject</text>
<polyline fill="none" stroke="#bfbfbf" points="732.5,-1119.5 819.5,-1119.5 "/>
<text text-anchor="middle" x="776" y="-1107.5" font-family="SegoeUI" font-size="10.00"> </text>
<polyline fill="none" stroke="#bfbfbf" points="732.5,-1100.5 819.5,-1100.5 "/>
<text text-anchor="middle" x="776" y="-1088.5" font-family="SegoeUI" font-size="10.00"> </text>
</a>
</g>
</g>
<!-- Node15&#45;&gt;Node14 -->
<g id="edge13" class="edge"><title>Node15&#45;&gt;Node14</title>
<path fill="none" stroke="midnightblue" d="M793.737,-1072.11C798.167,-1062.89 802.93,-1052.99 807.4,-1043.69"/>
<polygon fill="none" stroke="midnightblue" points="790.446,-1070.87 789.268,-1081.4 796.755,-1073.91 790.446,-1070.87"/>
</g>
<!-- Node16 -->
<g id="node15" class="node"><title>Node16</title>
<g id="a_node15"><a xlink:href="../../d8/d2c/interface_unity_engine_1_1_i_valued.html" target="_top" xlink:title="An abstraction for Reference{T}s and Varabile{T}s to make them usuable in shared contexts.">
<polygon fill="white" stroke="black" points="838,-1081.5 838,-1138.5 912,-1138.5 912,-1081.5 838,-1081.5"/>
<text text-anchor="middle" x="875" y="-1126.5" font-family="SegoeUI" font-size="10.00">IValued&lt; T &gt;</text>
<polyline fill="none" stroke="black" points="838,-1119.5 912,-1119.5 "/>
<text text-anchor="start" x="846" y="-1107.5" font-family="SegoeUI" font-size="10.00">+ Value</text>
<polyline fill="none" stroke="black" points="838,-1100.5 912,-1100.5 "/>
<text text-anchor="middle" x="875" y="-1088.5" font-family="SegoeUI" font-size="10.00"> </text>
</a>
</g>
</g>
<!-- Node16&#45;&gt;Node14 -->
<g id="edge14" class="edge"><title>Node16&#45;&gt;Node14</title>
<path fill="none" stroke="midnightblue" d="M857.618,-1072.11C853.277,-1062.89 848.609,-1052.99 844.228,-1043.69"/>
<polygon fill="none" stroke="midnightblue" points="854.569,-1073.85 861.998,-1081.4 860.902,-1070.86 854.569,-1073.85"/>
</g>
<!-- Node17&#45;&gt;Node2 -->
<g id="edge15" class="edge"><title>Node17&#45;&gt;Node2</title>
<path fill="none" stroke="#404040" d="M225.158,-297.628C229.342,-291.898 233.63,-286.326 238,-281 268.808,-243.456 308.586,-207.081 343.271,-178.254"/>
<polygon fill="none" stroke="#404040" points="343.639,-177.952 345.732,-171.051 352.907,-170.329 350.814,-177.23 343.639,-177.952"/>
<text text-anchor="middle" x="280" y="-255" font-family="SegoeUI" font-size="10.00"> &#45;location</text>
</g>
</g>
</svg>
        <g id="navigator" transform="translate(0 0)" fill="#404254">
                <rect fill="#f2f5e9" fill-opacity="0.5" stroke="#606060" stroke-width=".5" x="0" y="0" width="60" height="60"/>
                <use id="zoomplus" xlink:href="#zoomPlus" x="17" y="9" onmousedown="handleZoom(evt,'in')"/>
                <use id="zoomminus" xlink:href="#zoomMin" x="42" y="9" onmousedown="handleZoom(evt,'out')"/>
                <use id="reset" xlink:href="#resetDef" x="30" y="36" onmousedown="handleReset()"/>
                <g id="arrowUp" xlink:href="#dirArrow" transform="translate(30 24)" onmousedown="handlePan(0,-1)">
                  <use xlink:href="#rim" fill="#404040">
                        <set attributeName="fill" to="#808080" begin="arrowUp.mouseover" end="arrowUp.mouseout"/>
                  </use>
                  <path fill="none" stroke="white" stroke-width="1.5" d="M0,-3.0v7 M-2.5,-0.5L0,-3.0L2.5,-0.5"/>
                </g>
                <g id="arrowRight" xlink:href="#dirArrow" transform="rotate(90) translate(36 -43)" onmousedown="handlePan(1,0)">
                  <use xlink:href="#rim" fill="#404040">
                        <set attributeName="fill" to="#808080" begin="arrowRight.mouseover" end="arrowRight.mouseout"/>
                  </use>
                  <path fill="none" stroke="white" stroke-width="1.5" d="M0,-3.0v7 M-2.5,-0.5L0,-3.0L2.5,-0.5"/>
                </g>
                <g id="arrowDown" xlink:href="#dirArrow" transform="rotate(180) translate(-30 -48)" onmousedown="handlePan(0,1)">
                  <use xlink:href="#rim" fill="#404040">
                        <set attributeName="fill" to="#808080" begin="arrowDown.mouseover" end="arrowDown.mouseout"/>
                  </use>
                  <path fill="none" stroke="white" stroke-width="1.5" d="M0,-3.0v7 M-2.5,-0.5L0,-3.0L2.5,-0.5"/>
                </g>
                <g id="arrowLeft" xlink:href="#dirArrow" transform="rotate(270) translate(-36 17)" onmousedown="handlePan(-1,0)">
                  <use xlink:href="#rim" fill="#404040">
                        <set attributeName="fill" to="#808080" begin="arrowLeft.mouseover" end="arrowLeft.mouseout"/>
                  </use>
                  <path fill="none" stroke="white" stroke-width="1.5" d="M0,-3.0v7 M-2.5,-0.5L0,-3.0L2.5,-0.5"/>
                </g>
        </g>
        <svg viewBox="0 0 15 15" width="100%" height="30px" preserveAspectRatio="xMaxYMin meet">
         <g id="arrow_out" transform="scale(0.3 0.3)">
          <a xlink:href="class_juniper_1_1_unity_1_1_world_1_1_climate_1_1_weather__coll__graph_org.svg" target="_base">
           <rect id="button" ry="5" rx="5" y="6" x="6" height="38" width="38"
                fill="#f2f5e9" fill-opacity="0.5" stroke="#606060" stroke-width="1.0"/>
           <path id="arrow"
             d="M 11.500037,31.436501 C 11.940474,20.09759 22.043105,11.32322 32.158766,21.979434 L 37.068811,17.246167 C 37.068811,17.246167 37.088388,32 37.088388,32 L 22.160133,31.978069 C 22.160133,31.978069 26.997745,27.140456 26.997745,27.140456 C 18.528582,18.264221 13.291696,25.230495 11.500037,31.436501 z"
             style="fill:#404040;"/>
          </a>
         </g>
        </svg>
</svg>
