<?xml version="1.0" encoding="UTF-8" standalone="no"?>
<!DOCTYPE svg PUBLIC "-//W3C//DTD SVG 1.1//EN"
 "http://www.w3.org/Graphics/SVG/1.1/DTD/svg11.dtd">
<!-- Generated by graphviz version 2.38.0 (20140413.2041)
 -->
<!-- Title: Juniper.Unity.World.Climate.Weather Pages: 1 -->
<!--zoomable 1147 -->
<svg id="main" version="1.1" xmlns="http://www.w3.org/2000/svg" xmlns:xlink="http://www.w3.org/1999/xlink" xml:space="preserve" onload="init(evt)">
<style type="text/css"><![CDATA[
.edge:hover path { stroke: red; }
.edge:hover polygon { stroke: red; fill: red; }
]]></style>
<script type="text/javascript"><![CDATA[
var edges = document.getElementsByTagName('g');
if (edges && edges.length) {
  for (var i=0;i<edges.length;i++) {
    if (edges[i].id.substr(0,4)=='edge') {
      edges[i].setAttribute('class','edge');
    }
  }
}
]]></script>
        <defs>
                <circle id="rim" cx="0" cy="0" r="7"/>
                <circle id="rim2" cx="0" cy="0" r="3.5"/>
                <g id="zoomPlus">
                        <use xlink:href="#rim" fill="#404040">
                                <set attributeName="fill" to="#808080" begin="zoomplus.mouseover" end="zoomplus.mouseout"/>
                        </use>
                        <path d="M-4,0h8M0,-4v8" fill="none" stroke="white" stroke-width="1.5" pointer-events="none"/>
                </g>
                <g id="zoomMin">
                        <use xlink:href="#rim" fill="#404040">
                                <set attributeName="fill" to="#808080" begin="zoomminus.mouseover" end="zoomminus.mouseout"/>
                        </use>
                        <path d="M-4,0h8" fill="none" stroke="white" stroke-width="1.5" pointer-events="none"/>
                </g>
                <g id="dirArrow">
                        <path fill="none" stroke="white" stroke-width="1.5" d="M0,-3.0v7 M-2.5,-0.5L0,-3.0L2.5,-0.5"/>
                </g>
               <g id="resetDef">
                       <use xlink:href="#rim2" fill="#404040">
                               <set attributeName="fill" to="#808080" begin="reset.mouseover" end="reset.mouseout"/>
                       </use>
               </g>
        </defs>

<script type="text/javascript">
var viewWidth = 845;
var viewHeight = 1147;
var sectionId = 'dynsection-1';
</script>
<script xlink:href="../../svgpan.js"/>
<svg id="graph" class="graph">
<g id="viewport">
<title>Juniper.Unity.World.Climate.Weather</title>
<polygon fill="white" stroke="none" points="-4,4 -4,-1143 840.5,-1143 840.5,4 -4,4"/>
<!-- Node2 -->
<g id="node1" class="node"><title>Node2</title>
<g id="a_node1"><a xlink:title="A component for managing access to weather reports. Only one of these components is allowed on a game...">
<polygon fill="#bfbfbf" stroke="black" points="325,-0.5 325,-233.5 463,-233.5 463,-0.5 325,-0.5"/>
<text text-anchor="start" x="333" y="-221.5" font-family="SegoeUI" font-size="10.00">Juniper.Unity.World.Climate.</text>
<text text-anchor="middle" x="394" y="-210.5" font-family="SegoeUI" font-size="10.00">Weather</text>
<polyline fill="none" stroke="black" points="325,-203.5 463,-203.5 "/>
<text text-anchor="start" x="333" y="-191.5" font-family="SegoeUI" font-size="10.00">+ MinutesBetweenReports</text>
<text text-anchor="start" x="333" y="-180.5" font-family="SegoeUI" font-size="10.00">+ MilesBetweenReports</text>
<text text-anchor="start" x="333" y="-169.5" font-family="SegoeUI" font-size="10.00">+ FakeWeather</text>
<text text-anchor="start" x="333" y="-158.5" font-family="SegoeUI" font-size="10.00">+ DebugReport</text>
<text text-anchor="start" x="333" y="-147.5" font-family="SegoeUI" font-size="10.00">+ Sunset</text>
<text text-anchor="start" x="333" y="-136.5" font-family="SegoeUI" font-size="10.00">+ CloudCover</text>
<text text-anchor="start" x="333" y="-125.5" font-family="SegoeUI" font-size="10.00">+ WindDirection</text>
<text text-anchor="start" x="333" y="-114.5" font-family="SegoeUI" font-size="10.00">+ WindSpeed</text>
<text text-anchor="start" x="333" y="-103.5" font-family="SegoeUI" font-size="10.00">+ Ready</text>
<text text-anchor="start" x="333" y="-92.5" font-family="SegoeUI" font-size="10.00">&#45; REPORT_KEY</text>
<text text-anchor="start" x="333" y="-81.5" font-family="SegoeUI" font-size="10.00">&#45; lastReportJSON</text>
<text text-anchor="start" x="333" y="-70.5" font-family="SegoeUI" font-size="10.00">&#45; wasFakeWeather</text>
<polyline fill="none" stroke="black" points="325,-63.5 463,-63.5 "/>
<text text-anchor="start" x="333" y="-51.5" font-family="SegoeUI" font-size="10.00">+ GetReport()</text>
<text text-anchor="start" x="333" y="-40.5" font-family="SegoeUI" font-size="10.00">+ Update()</text>
<text text-anchor="start" x="333" y="-29.5" font-family="SegoeUI" font-size="10.00">+ RequestCoroutine()</text>
<text text-anchor="start" x="333" y="-18.5" font-family="SegoeUI" font-size="10.00">&#45; GetReportCoroutine()</text>
<text text-anchor="start" x="333" y="-7.5" font-family="SegoeUI" font-size="10.00">&#45; PrintDebugReport()</text>
</a>
</g>
</g>
<!-- Node3 -->
<g id="node2" class="node"><title>Node3</title>
<g id="a_node2"><a xlink:title=" ">
<polygon fill="white" stroke="#bfbfbf" points="0,-744 0,-801 82,-801 82,-744 0,-744"/>
<text text-anchor="middle" x="41" y="-789" font-family="SegoeUI" font-size="10.00">MonoBehaviour</text>
<polyline fill="none" stroke="#bfbfbf" points="0,-782 82,-782 "/>
<text text-anchor="middle" x="41" y="-770" font-family="SegoeUI" font-size="10.00"> </text>
<polyline fill="none" stroke="#bfbfbf" points="0,-763 82,-763 "/>
<text text-anchor="middle" x="41" y="-751" font-family="SegoeUI" font-size="10.00"> </text>
</a>
</g>
</g>
<!-- Node3&#45;&gt;Node2 -->
<g id="edge1" class="edge"><title>Node3&#45;&gt;Node2</title>
<path fill="none" stroke="midnightblue" d="M31.1899,-734.152C10.5057,-646.64 -28.3166,-424.877 66,-281 124.48,-191.79 247.157,-149.504 324.788,-130.952"/>
<polygon fill="none" stroke="midnightblue" points="27.7958,-735.007 33.5521,-743.902 34.599,-733.359 27.7958,-735.007"/>
</g>
<!-- Node15 -->
<g id="node14" class="node"><title>Node15</title>
<g id="a_node14"><a xlink:href="../../db/d2e/class_juniper_1_1_unity_1_1_world_1_1_g_p_s_location.html" target="_top" xlink:title="Retrieves the user&#39;s latitude, longitude, and altitude from satellites orbiting Spaceship Earth....">
<polygon fill="white" stroke="black" points="75.5,-298 75.5,-564 230.5,-564 230.5,-298 75.5,-298"/>
<text text-anchor="middle" x="153" y="-552" font-family="SegoeUI" font-size="10.00">Juniper.Unity.World.GPSLocation</text>
<polyline fill="none" stroke="black" points="75.5,-545 230.5,-545 "/>
<text text-anchor="start" x="83.5" y="-533" font-family="SegoeUI" font-size="10.00">+ timeBetweenUpdates</text>
<text text-anchor="start" x="83.5" y="-522" font-family="SegoeUI" font-size="10.00">+ desiredAccuracy</text>
<text text-anchor="start" x="83.5" y="-511" font-family="SegoeUI" font-size="10.00">+ updateDistance</text>
<text text-anchor="start" x="83.5" y="-500" font-family="SegoeUI" font-size="10.00">+ FakeCoord</text>
<text text-anchor="start" x="83.5" y="-489" font-family="SegoeUI" font-size="10.00">+ DebugReport</text>
<text text-anchor="start" x="83.5" y="-478" font-family="SegoeUI" font-size="10.00">+ onPositionUpdated</text>
<text text-anchor="start" x="83.5" y="-467" font-family="SegoeUI" font-size="10.00">+ HasCoord</text>
<text text-anchor="start" x="83.5" y="-456" font-family="SegoeUI" font-size="10.00">+ UseFakeCoord</text>
<text text-anchor="start" x="83.5" y="-445" font-family="SegoeUI" font-size="10.00">+ Location</text>
<text text-anchor="start" x="83.5" y="-434" font-family="SegoeUI" font-size="10.00">+ Status</text>
<text text-anchor="start" x="83.5" y="-423" font-family="SegoeUI" font-size="10.00">&#45; COORD_KEY</text>
<text text-anchor="start" x="83.5" y="-412" font-family="SegoeUI" font-size="10.00">&#45; nextUpdateTime</text>
<text text-anchor="start" x="83.5" y="-401" font-family="SegoeUI" font-size="10.00">&#45; lastLocation</text>
<polyline fill="none" stroke="black" points="75.5,-394 230.5,-394 "/>
<text text-anchor="start" x="83.5" y="-382" font-family="SegoeUI" font-size="10.00">+ Awake()</text>
<text text-anchor="start" x="83.5" y="-371" font-family="SegoeUI" font-size="10.00">+ Start()</text>
<text text-anchor="start" x="83.5" y="-360" font-family="SegoeUI" font-size="10.00">+ OnEnable()</text>
<text text-anchor="start" x="83.5" y="-349" font-family="SegoeUI" font-size="10.00">+ OnDisable()</text>
<text text-anchor="start" x="83.5" y="-338" font-family="SegoeUI" font-size="10.00">+ Update()</text>
<text text-anchor="start" x="83.5" y="-327" font-family="SegoeUI" font-size="10.00">&#45; OnPositionUpdated()</text>
<text text-anchor="start" x="83.5" y="-316" font-family="SegoeUI" font-size="10.00">&#45; StartGPSTrackingCoroutine()</text>
<text text-anchor="start" x="83.5" y="-305" font-family="SegoeUI" font-size="10.00">&#45; PrintDebugReport()</text>
</a>
</g>
</g>
<!-- Node3&#45;&gt;Node15 -->
<g id="edge14" class="edge"><title>Node3&#45;&gt;Node15</title>
<path fill="none" stroke="midnightblue" d="M53.3146,-734.171C66.8067,-693.274 89.217,-625.342 109.375,-564.237"/>
<polygon fill="none" stroke="midnightblue" points="49.9746,-733.124 50.1654,-743.717 56.6222,-735.317 49.9746,-733.124"/>
</g>
<!-- Node4 -->
<g id="node3" class="node"><title>Node4</title>
<g id="a_node3"><a xlink:href="../../db/de7/class_juniper_1_1_unity_1_1_world_1_1_climate_1_1_fake_weather_report.html" target="_top" xlink:title="An API&#45;compatible, editable object for making static weather reports.">
<polygon fill="white" stroke="black" points="249,-281.5 249,-580.5 387,-580.5 387,-281.5 249,-281.5"/>
<text text-anchor="start" x="257" y="-568.5" font-family="SegoeUI" font-size="10.00">Juniper.Unity.World.Climate.</text>
<text text-anchor="middle" x="318" y="-557.5" font-family="SegoeUI" font-size="10.00">FakeWeatherReport</text>
<polyline fill="none" stroke="black" points="249,-550.5 387,-550.5 "/>
<text text-anchor="start" x="257" y="-538.5" font-family="SegoeUI" font-size="10.00">+ visibility</text>
<text text-anchor="start" x="257" y="-527.5" font-family="SegoeUI" font-size="10.00">+ cloudCover</text>
<text text-anchor="start" x="257" y="-516.5" font-family="SegoeUI" font-size="10.00">+ windDirection</text>
<text text-anchor="start" x="257" y="-505.5" font-family="SegoeUI" font-size="10.00">+ windSpeed</text>
<text text-anchor="start" x="257" y="-494.5" font-family="SegoeUI" font-size="10.00">+ temperature</text>
<text text-anchor="start" x="257" y="-483.5" font-family="SegoeUI" font-size="10.00">+ humidity</text>
<text text-anchor="start" x="257" y="-472.5" font-family="SegoeUI" font-size="10.00">+ atmosphericPressure</text>
<text text-anchor="start" x="257" y="-461.5" font-family="SegoeUI" font-size="10.00">+ ReportTime</text>
<text text-anchor="start" x="257" y="-450.5" font-family="SegoeUI" font-size="10.00">+ City</text>
<text text-anchor="start" x="257" y="-439.5" font-family="SegoeUI" font-size="10.00">+ Country</text>
<text text-anchor="start" x="257" y="-428.5" font-family="SegoeUI" font-size="10.00">+ Location</text>
<text text-anchor="start" x="257" y="-417.5" font-family="SegoeUI" font-size="10.00">+ AtmosphericVisibility</text>
<text text-anchor="start" x="257" y="-406.5" font-family="SegoeUI" font-size="10.00">+ SunriseTime</text>
<text text-anchor="start" x="257" y="-395.5" font-family="SegoeUI" font-size="10.00">+ SunsetTime</text>
<text text-anchor="start" x="257" y="-384.5" font-family="SegoeUI" font-size="10.00">+ CloudCover</text>
<text text-anchor="start" x="257" y="-373.5" font-family="SegoeUI" font-size="10.00">+ WindDirection</text>
<text text-anchor="start" x="257" y="-362.5" font-family="SegoeUI" font-size="10.00">+ WindSpeed</text>
<text text-anchor="start" x="257" y="-351.5" font-family="SegoeUI" font-size="10.00">+ Conditions</text>
<text text-anchor="start" x="257" y="-340.5" font-family="SegoeUI" font-size="10.00">+ Temperature</text>
<text text-anchor="start" x="257" y="-329.5" font-family="SegoeUI" font-size="10.00">+ Humidity</text>
<text text-anchor="start" x="257" y="-318.5" font-family="SegoeUI" font-size="10.00">+ AtmosphericPressure</text>
<text text-anchor="start" x="257" y="-307.5" font-family="SegoeUI" font-size="10.00">+ ErrorMessage</text>
<polyline fill="none" stroke="black" points="249,-300.5 387,-300.5 "/>
<text text-anchor="middle" x="318" y="-288.5" font-family="SegoeUI" font-size="10.00"> </text>
</a>
</g>
</g>
<!-- Node4&#45;&gt;Node2 -->
<g id="edge2" class="edge"><title>Node4&#45;&gt;Node2</title>
<path fill="none" stroke="#404040" d="M354.219,-281.31C357.144,-269.303 360.083,-257.239 362.966,-245.402"/>
<polygon fill="none" stroke="#404040" points="362.989,-245.31 360.522,-238.534 365.829,-233.651 368.295,-240.427 362.989,-245.31"/>
<text text-anchor="middle" x="383.5" y="-255" font-family="SegoeUI" font-size="10.00"> +weather</text>
</g>
<!-- Node5 -->
<g id="node4" class="node"><title>Node5</title>
<g id="a_node4"><a xlink:href="../../de/d3a/interface_juniper_1_1_climate_1_1_i_weather_report.html" target="_top" xlink:title=" ">
<polygon fill="white" stroke="black" points="411,-667 411,-878 527,-878 527,-667 411,-667"/>
<text text-anchor="middle" x="469" y="-866" font-family="SegoeUI" font-size="10.00">IWeatherReport</text>
<polyline fill="none" stroke="black" points="411,-859 527,-859 "/>
<text text-anchor="start" x="419" y="-847" font-family="SegoeUI" font-size="10.00">+ ReportTime</text>
<text text-anchor="start" x="419" y="-836" font-family="SegoeUI" font-size="10.00">+ City</text>
<text text-anchor="start" x="419" y="-825" font-family="SegoeUI" font-size="10.00">+ Country</text>
<text text-anchor="start" x="419" y="-814" font-family="SegoeUI" font-size="10.00">+ Location</text>
<text text-anchor="start" x="419" y="-803" font-family="SegoeUI" font-size="10.00">+ AtmosphericVisibility</text>
<text text-anchor="start" x="419" y="-792" font-family="SegoeUI" font-size="10.00">+ SunriseTime</text>
<text text-anchor="start" x="419" y="-781" font-family="SegoeUI" font-size="10.00">+ SunsetTime</text>
<text text-anchor="start" x="419" y="-770" font-family="SegoeUI" font-size="10.00">+ CloudCover</text>
<text text-anchor="start" x="419" y="-759" font-family="SegoeUI" font-size="10.00">+ WindDirection</text>
<text text-anchor="start" x="419" y="-748" font-family="SegoeUI" font-size="10.00">+ WindSpeed</text>
<text text-anchor="start" x="419" y="-737" font-family="SegoeUI" font-size="10.00">+ Conditions</text>
<text text-anchor="start" x="419" y="-726" font-family="SegoeUI" font-size="10.00">+ Temperature</text>
<text text-anchor="start" x="419" y="-715" font-family="SegoeUI" font-size="10.00">+ Humidity</text>
<text text-anchor="start" x="419" y="-704" font-family="SegoeUI" font-size="10.00">+ AtmosphericPressure</text>
<text text-anchor="start" x="419" y="-693" font-family="SegoeUI" font-size="10.00">+ ErrorMessage</text>
<polyline fill="none" stroke="black" points="411,-686 527,-686 "/>
<text text-anchor="middle" x="469" y="-674" font-family="SegoeUI" font-size="10.00"> </text>
</a>
</g>
</g>
<!-- Node5&#45;&gt;Node4 -->
<g id="edge3" class="edge"><title>Node5&#45;&gt;Node4</title>
<path fill="none" stroke="midnightblue" d="M418.297,-657.502C407.321,-632.824 395.558,-606.378 384.09,-580.593"/>
<polygon fill="none" stroke="midnightblue" points="415.201,-659.154 422.463,-666.869 421.597,-656.309 415.201,-659.154"/>
</g>
<!-- Node6 -->
<g id="node5" class="node"><title>Node6</title>
<g id="a_node5"><a xlink:href="../../d6/d53/class_juniper_1_1_world_1_1_g_i_s_1_1_lat_lng_point.html" target="_top" xlink:title="A point in geographic space on a radial coordinate system.">
<polygon fill="white" stroke="black" points="100.5,-667 100.5,-878 225.5,-878 225.5,-667 100.5,-667"/>
<text text-anchor="start" x="108.5" y="-866" font-family="SegoeUI" font-size="10.00">Juniper.World.GIS.LatLng</text>
<text text-anchor="middle" x="163" y="-855" font-family="SegoeUI" font-size="10.00">Point</text>
<polyline fill="none" stroke="black" points="100.5,-848 225.5,-848 "/>
<text text-anchor="start" x="108.5" y="-836" font-family="SegoeUI" font-size="10.00">+ Altitude</text>
<text text-anchor="start" x="108.5" y="-825" font-family="SegoeUI" font-size="10.00">+ Latitude</text>
<text text-anchor="start" x="108.5" y="-814" font-family="SegoeUI" font-size="10.00">+ Longitude</text>
<polyline fill="none" stroke="black" points="100.5,-807 225.5,-807 "/>
<text text-anchor="start" x="108.5" y="-795" font-family="SegoeUI" font-size="10.00">+ LatLngPoint()</text>
<text text-anchor="start" x="108.5" y="-784" font-family="SegoeUI" font-size="10.00">+ LatLngPoint()</text>
<text text-anchor="start" x="108.5" y="-773" font-family="SegoeUI" font-size="10.00">+ GetObjectData()</text>
<text text-anchor="start" x="108.5" y="-762" font-family="SegoeUI" font-size="10.00">+ ToDMS()</text>
<text text-anchor="start" x="108.5" y="-751" font-family="SegoeUI" font-size="10.00">+ ToString()</text>
<text text-anchor="start" x="108.5" y="-740" font-family="SegoeUI" font-size="10.00">+ ToString()</text>
<text text-anchor="start" x="108.5" y="-729" font-family="SegoeUI" font-size="10.00">+ ToString()</text>
<text text-anchor="start" x="108.5" y="-718" font-family="SegoeUI" font-size="10.00">+ Equals()</text>
<text text-anchor="start" x="108.5" y="-707" font-family="SegoeUI" font-size="10.00">+ GetHashCode()</text>
<text text-anchor="start" x="108.5" y="-696" font-family="SegoeUI" font-size="10.00">+ TryParseDMS()</text>
<text text-anchor="start" x="108.5" y="-685" font-family="SegoeUI" font-size="10.00"># LatLngPoint()</text>
<text text-anchor="start" x="108.5" y="-674" font-family="SegoeUI" font-size="10.00">&#45; ToDMS()</text>
</a>
</g>
</g>
<!-- Node6&#45;&gt;Node4 -->
<g id="edge4" class="edge"><title>Node6&#45;&gt;Node4</title>
<path fill="none" stroke="#404040" d="M210.77,-666.869C221.666,-643.002 233.487,-617.111 245.166,-591.53"/>
<polygon fill="none" stroke="#404040" points="245.175,-591.509 244.029,-584.39 250.159,-580.593 251.306,-587.713 245.175,-591.509"/>
<text text-anchor="middle" x="262.5" y="-602" font-family="SegoeUI" font-size="10.00"> +location</text>
</g>
<!-- Node6&#45;&gt;Node15 -->
<g id="edge15" class="edge"><title>Node6&#45;&gt;Node15</title>
<path fill="none" stroke="#404040" d="M159.918,-666.869C159.075,-638.231 158.145,-606.679 157.249,-576.245"/>
<polygon fill="none" stroke="#404040" points="157.247,-576.189 153.072,-570.31 156.894,-564.195 161.069,-570.074 157.247,-576.189"/>
<text text-anchor="middle" x="175.5" y="-602" font-family="SegoeUI" font-size="10.00"> +Coord</text>
</g>
<!-- Node7 -->
<g id="node6" class="node"><title>Node7</title>
<g id="a_node6"><a xlink:title=" ">
<polygon fill="white" stroke="#bfbfbf" points="128.5,-975.5 128.5,-1032.5 197.5,-1032.5 197.5,-975.5 128.5,-975.5"/>
<text text-anchor="middle" x="163" y="-1020.5" font-family="SegoeUI" font-size="10.00">ISerializable</text>
<polyline fill="none" stroke="#bfbfbf" points="128.5,-1013.5 197.5,-1013.5 "/>
<text text-anchor="middle" x="163" y="-1001.5" font-family="SegoeUI" font-size="10.00"> </text>
<polyline fill="none" stroke="#bfbfbf" points="128.5,-994.5 197.5,-994.5 "/>
<text text-anchor="middle" x="163" y="-982.5" font-family="SegoeUI" font-size="10.00"> </text>
</a>
</g>
</g>
<!-- Node7&#45;&gt;Node6 -->
<g id="edge5" class="edge"><title>Node7&#45;&gt;Node6</title>
<path fill="none" stroke="midnightblue" d="M163,-965.285C163,-941.394 163,-909.225 163,-878.066"/>
<polygon fill="none" stroke="midnightblue" points="159.5,-965.317 163,-975.317 166.5,-965.317 159.5,-965.317"/>
</g>
<!-- Node8 -->
<g id="node7" class="node"><title>Node8</title>
<g id="a_node7"><a xlink:href="../../dd/d15/struct_juniper_1_1_unity_1_1_editable_date_time.html" target="_top" xlink:title="A wrapper around System.DateTime that makes it possible to edit values in the Unity Editor.">
<polygon fill="white" stroke="black" points="243.5,-628.5 243.5,-916.5 392.5,-916.5 392.5,-628.5 243.5,-628.5"/>
<text text-anchor="middle" x="318" y="-904.5" font-family="SegoeUI" font-size="10.00">Juniper.Unity.EditableDateTime</text>
<polyline fill="none" stroke="black" points="243.5,-897.5 392.5,-897.5 "/>
<text text-anchor="start" x="251.5" y="-885.5" font-family="SegoeUI" font-size="10.00">+ Kind</text>
<text text-anchor="start" x="251.5" y="-874.5" font-family="SegoeUI" font-size="10.00">+ Year</text>
<text text-anchor="start" x="251.5" y="-863.5" font-family="SegoeUI" font-size="10.00">+ Month</text>
<text text-anchor="start" x="251.5" y="-852.5" font-family="SegoeUI" font-size="10.00">+ Day</text>
<text text-anchor="start" x="251.5" y="-841.5" font-family="SegoeUI" font-size="10.00">+ Hour</text>
<text text-anchor="start" x="251.5" y="-830.5" font-family="SegoeUI" font-size="10.00">+ Minute</text>
<text text-anchor="start" x="251.5" y="-819.5" font-family="SegoeUI" font-size="10.00">+ Second</text>
<text text-anchor="start" x="251.5" y="-808.5" font-family="SegoeUI" font-size="10.00">+ Millisecond</text>
<text text-anchor="start" x="251.5" y="-797.5" font-family="SegoeUI" font-size="10.00">+ Now</text>
<text text-anchor="start" x="251.5" y="-786.5" font-family="SegoeUI" font-size="10.00">+ Value</text>
<text text-anchor="start" x="251.5" y="-775.5" font-family="SegoeUI" font-size="10.00">+ Changed</text>
<text text-anchor="start" x="251.5" y="-764.5" font-family="SegoeUI" font-size="10.00">&#45; lastValue</text>
<polyline fill="none" stroke="black" points="243.5,-757.5 392.5,-757.5 "/>
<text text-anchor="start" x="251.5" y="-745.5" font-family="SegoeUI" font-size="10.00">+ EditableDateTime()</text>
<text text-anchor="start" x="251.5" y="-734.5" font-family="SegoeUI" font-size="10.00">+ Equals()</text>
<text text-anchor="start" x="251.5" y="-723.5" font-family="SegoeUI" font-size="10.00">+ GetHashCode()</text>
<text text-anchor="start" x="251.5" y="-712.5" font-family="SegoeUI" font-size="10.00">+ operator DateTime()</text>
<text text-anchor="start" x="251.5" y="-701.5" font-family="SegoeUI" font-size="10.00">+ operator EditableDateTime()</text>
<text text-anchor="start" x="251.5" y="-690.5" font-family="SegoeUI" font-size="10.00">+ operator==()</text>
<text text-anchor="start" x="251.5" y="-679.5" font-family="SegoeUI" font-size="10.00">+ operator !=()</text>
<text text-anchor="start" x="251.5" y="-668.5" font-family="SegoeUI" font-size="10.00">+ operator==()</text>
<text text-anchor="start" x="251.5" y="-657.5" font-family="SegoeUI" font-size="10.00">+ operator !=()</text>
<text text-anchor="start" x="251.5" y="-646.5" font-family="SegoeUI" font-size="10.00">+ operator==()</text>
<text text-anchor="start" x="251.5" y="-635.5" font-family="SegoeUI" font-size="10.00">+ operator !=()</text>
</a>
</g>
</g>
<!-- Node8&#45;&gt;Node4 -->
<g id="edge6" class="edge"><title>Node8&#45;&gt;Node4</title>
<path fill="none" stroke="#404040" d="M318,-628.014C318,-616.395 318,-604.609 318,-592.879"/>
<polygon fill="none" stroke="#404040" points="318,-592.685 314,-586.685 318,-580.685 322,-586.685 318,-592.685"/>
<text text-anchor="middle" x="347" y="-602" font-family="SegoeUI" font-size="10.00"> +reportTime</text>
</g>
<!-- Node9 -->
<g id="node8" class="node"><title>Node9</title>
<g id="a_node8"><a xlink:title=" ">
<polygon fill="white" stroke="#bfbfbf" points="298.5,-975.5 298.5,-1032.5 337.5,-1032.5 337.5,-975.5 298.5,-975.5"/>
<text text-anchor="middle" x="318" y="-1020.5" font-family="SegoeUI" font-size="10.00">static</text>
<polyline fill="none" stroke="#bfbfbf" points="298.5,-1013.5 337.5,-1013.5 "/>
<text text-anchor="middle" x="318" y="-1001.5" font-family="SegoeUI" font-size="10.00"> </text>
<polyline fill="none" stroke="#bfbfbf" points="298.5,-994.5 337.5,-994.5 "/>
<text text-anchor="middle" x="318" y="-982.5" font-family="SegoeUI" font-size="10.00"> </text>
</a>
</g>
</g>
<!-- Node9&#45;&gt;Node8 -->
<g id="edge7" class="edge"><title>Node9&#45;&gt;Node8</title>
<path fill="none" stroke="#404040" d="M318,-975.317C318,-962.615 318,-946.461 318,-928.841"/>
<polygon fill="none" stroke="#404040" points="318,-928.754 314,-922.754 318,-916.754 322,-922.754 318,-928.754"/>
<text text-anchor="middle" x="345" y="-938" font-family="SegoeUI" font-size="10.00"> +TestOffset</text>
</g>
<!-- Node10 -->
<g id="node9" class="node"><title>Node10</title>
<g id="a_node9"><a xlink:href="../../d5/dd2/class_unity_engine_1_1_string_variable.html" target="_top" xlink:title="A string value that can be saved to the Assets folder and used across projects">
<polygon fill="white" stroke="black" points="405,-402.5 405,-459.5 535,-459.5 535,-402.5 405,-402.5"/>
<text text-anchor="middle" x="470" y="-447.5" font-family="SegoeUI" font-size="10.00">UnityEngine.StringVariable</text>
<polyline fill="none" stroke="black" points="405,-440.5 535,-440.5 "/>
<text text-anchor="middle" x="470" y="-428.5" font-family="SegoeUI" font-size="10.00"> </text>
<polyline fill="none" stroke="black" points="405,-421.5 535,-421.5 "/>
<text text-anchor="start" x="413" y="-409.5" font-family="SegoeUI" font-size="10.00">+ operator bool()</text>
</a>
</g>
</g>
<!-- Node10&#45;&gt;Node2 -->
<g id="edge8" class="edge"><title>Node10&#45;&gt;Node2</title>
<path fill="none" stroke="#404040" d="M463.256,-402.312C454.657,-367.012 439.208,-303.589 425.079,-245.588"/>
<polygon fill="none" stroke="#404040" points="425.021,-245.348 419.714,-240.465 422.181,-233.689 427.487,-238.572 425.021,-245.348"/>
<text text-anchor="middle" x="486" y="-255" font-family="SegoeUI" font-size="10.00"> +OpenWeatherMapAPIKey</text>
</g>
<!-- Node11 -->
<g id="node10" class="node"><title>Node11</title>
<g id="a_node10"><a xlink:href="../../d4/d88/class_unity_engine_1_1_abstract_variable.html" target="_top" xlink:title=" ">
<polygon fill="white" stroke="black" points="545.5,-733 545.5,-812 676.5,-812 676.5,-733 545.5,-733"/>
<text text-anchor="middle" x="611" y="-800" font-family="SegoeUI" font-size="10.00">AbstractVariable&lt; string &gt;</text>
<polyline fill="none" stroke="black" points="545.5,-793 676.5,-793 "/>
<text text-anchor="start" x="553.5" y="-781" font-family="SegoeUI" font-size="10.00">+ Value</text>
<text text-anchor="start" x="553.5" y="-770" font-family="SegoeUI" font-size="10.00">&#45; _value</text>
<polyline fill="none" stroke="black" points="545.5,-763 676.5,-763 "/>
<text text-anchor="start" x="553.5" y="-751" font-family="SegoeUI" font-size="10.00">+ ToString()</text>
<text text-anchor="start" x="553.5" y="-740" font-family="SegoeUI" font-size="10.00">+ operator T()</text>
</a>
</g>
</g>
<!-- Node11&#45;&gt;Node10 -->
<g id="edge9" class="edge"><title>Node11&#45;&gt;Node10</title>
<path fill="none" stroke="midnightblue" d="M591.094,-723.57C561.179,-651.541 505.581,-517.672 481.554,-459.82"/>
<polygon fill="none" stroke="midnightblue" points="587.895,-724.993 594.963,-732.886 594.36,-722.308 587.895,-724.993"/>
</g>
<!-- Node12 -->
<g id="node11" class="node"><title>Node12</title>
<g id="a_node11"><a xlink:href="../../d4/d88/class_unity_engine_1_1_abstract_variable.html" target="_top" xlink:title="An abstraction of storing values on disk in the Assets folder. A sort of drag&#45;and&#45;drop means of setti...">
<polygon fill="white" stroke="black" points="528.5,-964.5 528.5,-1043.5 693.5,-1043.5 693.5,-964.5 528.5,-964.5"/>
<text text-anchor="middle" x="611" y="-1031.5" font-family="SegoeUI" font-size="10.00">UnityEngine.AbstractVariable&lt; T &gt;</text>
<polyline fill="none" stroke="black" points="528.5,-1024.5 693.5,-1024.5 "/>
<text text-anchor="start" x="536.5" y="-1012.5" font-family="SegoeUI" font-size="10.00">+ Value</text>
<text text-anchor="start" x="536.5" y="-1001.5" font-family="SegoeUI" font-size="10.00">&#45; _value</text>
<polyline fill="none" stroke="black" points="528.5,-994.5 693.5,-994.5 "/>
<text text-anchor="start" x="536.5" y="-982.5" font-family="SegoeUI" font-size="10.00">+ ToString()</text>
<text text-anchor="start" x="536.5" y="-971.5" font-family="SegoeUI" font-size="10.00">+ operator T()</text>
</a>
</g>
</g>
<!-- Node12&#45;&gt;Node11 -->
<g id="edge10" class="edge"><title>Node12&#45;&gt;Node11</title>
<path fill="none" stroke="orange" d="M611,-954.251C611,-911.926 611,-851.451 611,-812.331"/>
<polygon fill="orange" stroke="orange" points="607.5,-954.328 611,-964.328 614.5,-954.328 607.5,-954.328"/>
<text text-anchor="middle" x="634.5" y="-938" font-family="SegoeUI" font-size="10.00"> &lt; string &gt;</text>
</g>
<!-- Node13 -->
<g id="node12" class="node"><title>Node13</title>
<g id="a_node12"><a xlink:title=" ">
<polygon fill="white" stroke="#bfbfbf" points="518.5,-1081.5 518.5,-1138.5 605.5,-1138.5 605.5,-1081.5 518.5,-1081.5"/>
<text text-anchor="middle" x="562" y="-1126.5" font-family="SegoeUI" font-size="10.00">ScriptableObject</text>
<polyline fill="none" stroke="#bfbfbf" points="518.5,-1119.5 605.5,-1119.5 "/>
<text text-anchor="middle" x="562" y="-1107.5" font-family="SegoeUI" font-size="10.00"> </text>
<polyline fill="none" stroke="#bfbfbf" points="518.5,-1100.5 605.5,-1100.5 "/>
<text text-anchor="middle" x="562" y="-1088.5" font-family="SegoeUI" font-size="10.00"> </text>
</a>
</g>
</g>
<!-- Node13&#45;&gt;Node12 -->
<g id="edge11" class="edge"><title>Node13&#45;&gt;Node12</title>
<path fill="none" stroke="midnightblue" d="M579.382,-1072.11C583.723,-1062.89 588.391,-1052.99 592.772,-1043.69"/>
<polygon fill="none" stroke="midnightblue" points="576.098,-1070.86 575.002,-1081.4 582.431,-1073.85 576.098,-1070.86"/>
</g>
<!-- Node14 -->
<g id="node13" class="node"><title>Node14</title>
<g id="a_node13"><a xlink:href="../../d8/d2c/interface_unity_engine_1_1_i_valued.html" target="_top" xlink:title="An abstraction for Reference{T}s and Varabile{T}s to make them usuable in shared contexts.">
<polygon fill="white" stroke="black" points="624,-1081.5 624,-1138.5 698,-1138.5 698,-1081.5 624,-1081.5"/>
<text text-anchor="middle" x="661" y="-1126.5" font-family="SegoeUI" font-size="10.00">IValued&lt; T &gt;</text>
<polyline fill="none" stroke="black" points="624,-1119.5 698,-1119.5 "/>
<text text-anchor="start" x="632" y="-1107.5" font-family="SegoeUI" font-size="10.00">+ Value</text>
<polyline fill="none" stroke="black" points="624,-1100.5 698,-1100.5 "/>
<text text-anchor="middle" x="661" y="-1088.5" font-family="SegoeUI" font-size="10.00"> </text>
</a>
</g>
</g>
<!-- Node14&#45;&gt;Node12 -->
<g id="edge12" class="edge"><title>Node14&#45;&gt;Node12</title>
<path fill="none" stroke="midnightblue" d="M643.263,-1072.11C638.833,-1062.89 634.07,-1052.99 629.6,-1043.69"/>
<polygon fill="none" stroke="midnightblue" points="640.245,-1073.91 647.732,-1081.4 646.554,-1070.87 640.245,-1073.91"/>
</g>
<!-- Node15&#45;&gt;Node2 -->
<g id="edge13" class="edge"><title>Node15&#45;&gt;Node2</title>
<path fill="none" stroke="#404040" d="M228.019,-297.715C231.958,-291.992 235.96,-286.395 240,-281 262.747,-250.623 290.501,-219.746 316.149,-193.154"/>
<polygon fill="none" stroke="#404040" points="316.388,-192.908 317.705,-185.818 324.756,-184.307 323.439,-191.397 316.388,-192.908"/>
<text text-anchor="middle" x="283" y="-255" font-family="SegoeUI" font-size="10.00"> &#45;location</text>
</g>
<!-- Node16 -->
<g id="node15" class="node"><title>Node16</title>
<g id="a_node15"><a xlink:href="../../d8/d53/interface_juniper_1_1_climate_1_1_i_weather_a_p_i.html" target="_top" xlink:title=" ">
<polygon fill="white" stroke="black" points="553,-391.5 553,-470.5 693,-470.5 693,-391.5 553,-391.5"/>
<text text-anchor="middle" x="623" y="-458.5" font-family="SegoeUI" font-size="10.00">Juniper.Climate.IWeatherAPI</text>
<polyline fill="none" stroke="black" points="553,-451.5 693,-451.5 "/>
<text text-anchor="start" x="561" y="-439.5" font-family="SegoeUI" font-size="10.00">+ ReportTTLMinutes</text>
<text text-anchor="start" x="561" y="-428.5" font-family="SegoeUI" font-size="10.00">+ ReportRadiusMeters</text>
<text text-anchor="start" x="561" y="-417.5" font-family="SegoeUI" font-size="10.00">+ LastReport</text>
<polyline fill="none" stroke="black" points="553,-410.5 693,-410.5 "/>
<text text-anchor="start" x="561" y="-398.5" font-family="SegoeUI" font-size="10.00">+ Request()</text>
</a>
</g>
</g>
<!-- Node16&#45;&gt;Node2 -->
<g id="edge16" class="edge"><title>Node16&#45;&gt;Node2</title>
<path fill="none" stroke="#404040" d="M612.326,-391.3C600.63,-353.391 579.272,-295.185 548,-252 527.265,-223.367 499.308,-196.703 472.905,-174.821"/>
<polygon fill="none" stroke="#404040" points="472.574,-174.552 465.395,-173.87 463.264,-166.981 470.442,-167.663 472.574,-174.552"/>
<text text-anchor="middle" x="591" y="-255" font-family="SegoeUI" font-size="10.00"> &#45;weatherService</text>
</g>
<!-- Node17 -->
<g id="node16" class="node"><title>Node17</title>
<g id="a_node16"><a xlink:href="../../de/d3a/interface_juniper_1_1_climate_1_1_i_weather_report.html" target="_top" xlink:title=" ">
<polygon fill="white" stroke="black" points="711.5,-320 711.5,-542 836.5,-542 836.5,-320 711.5,-320"/>
<text text-anchor="start" x="719.5" y="-530" font-family="SegoeUI" font-size="10.00">Juniper.Climate.IWeather</text>
<text text-anchor="middle" x="774" y="-519" font-family="SegoeUI" font-size="10.00">Report</text>
<polyline fill="none" stroke="black" points="711.5,-512 836.5,-512 "/>
<text text-anchor="start" x="719.5" y="-500" font-family="SegoeUI" font-size="10.00">+ ReportTime</text>
<text text-anchor="start" x="719.5" y="-489" font-family="SegoeUI" font-size="10.00">+ City</text>
<text text-anchor="start" x="719.5" y="-478" font-family="SegoeUI" font-size="10.00">+ Country</text>
<text text-anchor="start" x="719.5" y="-467" font-family="SegoeUI" font-size="10.00">+ Location</text>
<text text-anchor="start" x="719.5" y="-456" font-family="SegoeUI" font-size="10.00">+ AtmosphericVisibility</text>
<text text-anchor="start" x="719.5" y="-445" font-family="SegoeUI" font-size="10.00">+ SunriseTime</text>
<text text-anchor="start" x="719.5" y="-434" font-family="SegoeUI" font-size="10.00">+ SunsetTime</text>
<text text-anchor="start" x="719.5" y="-423" font-family="SegoeUI" font-size="10.00">+ CloudCover</text>
<text text-anchor="start" x="719.5" y="-412" font-family="SegoeUI" font-size="10.00">+ WindDirection</text>
<text text-anchor="start" x="719.5" y="-401" font-family="SegoeUI" font-size="10.00">+ WindSpeed</text>
<text text-anchor="start" x="719.5" y="-390" font-family="SegoeUI" font-size="10.00">+ Conditions</text>
<text text-anchor="start" x="719.5" y="-379" font-family="SegoeUI" font-size="10.00">+ Temperature</text>
<text text-anchor="start" x="719.5" y="-368" font-family="SegoeUI" font-size="10.00">+ Humidity</text>
<text text-anchor="start" x="719.5" y="-357" font-family="SegoeUI" font-size="10.00">+ AtmosphericPressure</text>
<text text-anchor="start" x="719.5" y="-346" font-family="SegoeUI" font-size="10.00">+ ErrorMessage</text>
<polyline fill="none" stroke="black" points="711.5,-339 836.5,-339 "/>
<text text-anchor="middle" x="774" y="-327" font-family="SegoeUI" font-size="10.00"> </text>
</a>
</g>
</g>
<!-- Node17&#45;&gt;Node2 -->
<g id="edge17" class="edge"><title>Node17&#45;&gt;Node2</title>
<path fill="none" stroke="#404040" d="M730.824,-319.716C722.545,-305.741 712.967,-292.376 702,-281 638.492,-215.123 542.515,-170.191 474.603,-144.45"/>
<polygon fill="none" stroke="#404040" points="474.358,-144.358 467.34,-146.016 463.111,-140.175 470.129,-138.517 474.358,-144.358"/>
<text text-anchor="middle" x="719.5" y="-255" font-family="SegoeUI" font-size="10.00"> &#45;currentWeather</text>
</g>
</g>
</svg>
        <g id="navigator" transform="translate(0 0)" fill="#404254">
                <rect fill="#f2f5e9" fill-opacity="0.5" stroke="#606060" stroke-width=".5" x="0" y="0" width="60" height="60"/>
                <use id="zoomplus" xlink:href="#zoomPlus" x="17" y="9" onmousedown="handleZoom(evt,'in')"/>
                <use id="zoomminus" xlink:href="#zoomMin" x="42" y="9" onmousedown="handleZoom(evt,'out')"/>
                <use id="reset" xlink:href="#resetDef" x="30" y="36" onmousedown="handleReset()"/>
                <g id="arrowUp" xlink:href="#dirArrow" transform="translate(30 24)" onmousedown="handlePan(0,-1)">
                  <use xlink:href="#rim" fill="#404040">
                        <set attributeName="fill" to="#808080" begin="arrowUp.mouseover" end="arrowUp.mouseout"/>
                  </use>
                  <path fill="none" stroke="white" stroke-width="1.5" d="M0,-3.0v7 M-2.5,-0.5L0,-3.0L2.5,-0.5"/>
                </g>
                <g id="arrowRight" xlink:href="#dirArrow" transform="rotate(90) translate(36 -43)" onmousedown="handlePan(1,0)">
                  <use xlink:href="#rim" fill="#404040">
                        <set attributeName="fill" to="#808080" begin="arrowRight.mouseover" end="arrowRight.mouseout"/>
                  </use>
                  <path fill="none" stroke="white" stroke-width="1.5" d="M0,-3.0v7 M-2.5,-0.5L0,-3.0L2.5,-0.5"/>
                </g>
                <g id="arrowDown" xlink:href="#dirArrow" transform="rotate(180) translate(-30 -48)" onmousedown="handlePan(0,1)">
                  <use xlink:href="#rim" fill="#404040">
                        <set attributeName="fill" to="#808080" begin="arrowDown.mouseover" end="arrowDown.mouseout"/>
                  </use>
                  <path fill="none" stroke="white" stroke-width="1.5" d="M0,-3.0v7 M-2.5,-0.5L0,-3.0L2.5,-0.5"/>
                </g>
                <g id="arrowLeft" xlink:href="#dirArrow" transform="rotate(270) translate(-36 17)" onmousedown="handlePan(-1,0)">
                  <use xlink:href="#rim" fill="#404040">
                        <set attributeName="fill" to="#808080" begin="arrowLeft.mouseover" end="arrowLeft.mouseout"/>
                  </use>
                  <path fill="none" stroke="white" stroke-width="1.5" d="M0,-3.0v7 M-2.5,-0.5L0,-3.0L2.5,-0.5"/>
                </g>
        </g>
        <svg viewBox="0 0 15 15" width="100%" height="30px" preserveAspectRatio="xMaxYMin meet">
         <g id="arrow_out" transform="scale(0.3 0.3)">
          <a xlink:href="class_juniper_1_1_unity_1_1_world_1_1_climate_1_1_weather__coll__graph_org.svg" target="_base">
           <rect id="button" ry="5" rx="5" y="6" x="6" height="38" width="38"
                fill="#f2f5e9" fill-opacity="0.5" stroke="#606060" stroke-width="1.0"/>
           <path id="arrow"
             d="M 11.500037,31.436501 C 11.940474,20.09759 22.043105,11.32322 32.158766,21.979434 L 37.068811,17.246167 C 37.068811,17.246167 37.088388,32 37.088388,32 L 22.160133,31.978069 C 22.160133,31.978069 26.997745,27.140456 26.997745,27.140456 C 18.528582,18.264221 13.291696,25.230495 11.500037,31.436501 z"
             style="fill:#404040;"/>
          </a>
         </g>
        </svg>
</svg>
