<?xml version="1.0" encoding="UTF-8" standalone="no"?>
<!DOCTYPE svg PUBLIC "-//W3C//DTD SVG 1.1//EN"
 "http://www.w3.org/Graphics/SVG/1.1/DTD/svg11.dtd">
<!-- Generated by graphviz version 2.38.0 (20140413.2041)
 -->
<!-- Title: Hjg.Pngcs.Chunks.PngChunkSBIT Pages: 1 -->
<svg width="166pt" height="790pt"
 viewBox="0.00 0.00 166.00 790.00" xmlns="http://www.w3.org/2000/svg" xmlns:xlink="http://www.w3.org/1999/xlink">
<g id="graph0" class="graph" transform="scale(1 1) rotate(0) translate(4 786)">
<title>Hjg.Pngcs.Chunks.PngChunkSBIT</title>
<polygon fill="white" stroke="none" points="-4,4 -4,-786 162,-786 162,4 -4,4"/>
<!-- Node3 -->
<g id="node1" class="node"><title>Node3</title>
<g id="a_node1"><a xlink:title=" ">
<polygon fill="#bfbfbf" stroke="black" points="0,-0.5 0,-178.5 158,-178.5 158,-0.5 0,-0.5"/>
<text text-anchor="middle" x="79" y="-166.5" font-family="SegoeUI" font-size="10.00">Hjg.Pngcs.Chunks.PngChunkSBIT</text>
<polyline fill="none" stroke="black" points="0,-159.5 158,-159.5 "/>
<text text-anchor="start" x="8" y="-147.5" font-family="SegoeUI" font-size="10.00">+ ID</text>
<text text-anchor="start" x="8" y="-136.5" font-family="SegoeUI" font-size="10.00">+ Graysb</text>
<text text-anchor="start" x="8" y="-125.5" font-family="SegoeUI" font-size="10.00">+ Alphasb</text>
<text text-anchor="start" x="8" y="-114.5" font-family="SegoeUI" font-size="10.00">+ Redsb</text>
<text text-anchor="start" x="8" y="-103.5" font-family="SegoeUI" font-size="10.00">+ Greensb</text>
<text text-anchor="start" x="8" y="-92.5" font-family="SegoeUI" font-size="10.00">+ Bluesb</text>
<polyline fill="none" stroke="black" points="0,-85.5 158,-85.5 "/>
<text text-anchor="start" x="8" y="-73.5" font-family="SegoeUI" font-size="10.00">+ PngChunkSBIT()</text>
<text text-anchor="start" x="8" y="-62.5" font-family="SegoeUI" font-size="10.00">+ GetOrderingConstraint()</text>
<text text-anchor="start" x="8" y="-51.5" font-family="SegoeUI" font-size="10.00">+ ParseFromRaw()</text>
<text text-anchor="start" x="8" y="-40.5" font-family="SegoeUI" font-size="10.00">+ CreateRawChunk()</text>
<text text-anchor="start" x="8" y="-29.5" font-family="SegoeUI" font-size="10.00">+ CloneDataFromRead()</text>
<text text-anchor="start" x="8" y="-18.5" font-family="SegoeUI" font-size="10.00">&#45; CloneData()</text>
<text text-anchor="start" x="8" y="-7.5" font-family="SegoeUI" font-size="10.00">&#45; GetLen()</text>
</a>
</g>
</g>
<!-- Node4 -->
<g id="node2" class="node"><title>Node4</title>
<g id="a_node2"><a xlink:href="../../d2/dc1/class_hjg_1_1_pngcs_1_1_chunks_1_1_png_chunk_single.html" target="_top" xlink:title="A Chunk type that does not allow duplicate in an image">
<polygon fill="white" stroke="black" points="28,-216.5 28,-306.5 130,-306.5 130,-216.5 28,-216.5"/>
<text text-anchor="middle" x="79" y="-294.5" font-family="SegoeUI" font-size="10.00">PngChunkSingle</text>
<polyline fill="none" stroke="black" points="28,-287.5 130,-287.5 "/>
<text text-anchor="middle" x="79" y="-275.5" font-family="SegoeUI" font-size="10.00"> </text>
<polyline fill="none" stroke="black" points="28,-268.5 130,-268.5 "/>
<text text-anchor="start" x="36" y="-256.5" font-family="SegoeUI" font-size="10.00">+ AllowsMultiple()</text>
<text text-anchor="start" x="36" y="-245.5" font-family="SegoeUI" font-size="10.00">+ GetHashCode()</text>
<text text-anchor="start" x="36" y="-234.5" font-family="SegoeUI" font-size="10.00">+ Equals()</text>
<text text-anchor="start" x="36" y="-223.5" font-family="SegoeUI" font-size="10.00"># PngChunkSingle()</text>
</a>
</g>
</g>
<!-- Node4&#45;&gt;Node3 -->
<g id="edge1" class="edge"><title>Node4&#45;&gt;Node3</title>
<path fill="none" stroke="midnightblue" d="M79,-206.195C79,-197.384 79,-188.064 79,-178.692"/>
<polygon fill="none" stroke="midnightblue" points="75.5001,-206.278 79,-216.278 82.5001,-206.278 75.5001,-206.278"/>
</g>
<!-- Node5 -->
<g id="node3" class="node"><title>Node5</title>
<g id="a_node3"><a xlink:href="../../d8/dd4/class_hjg_1_1_pngcs_1_1_chunks_1_1_abstract_png_chunk.html" target="_top" xlink:title="Represents a instance of a PNG chunk">
<polygon fill="white" stroke="black" points="15,-344.5 15,-676.5 143,-676.5 143,-344.5 15,-344.5"/>
<text text-anchor="middle" x="79" y="-664.5" font-family="SegoeUI" font-size="10.00">AbstractPngChunk</text>
<polyline fill="none" stroke="black" points="15,-657.5 143,-657.5 "/>
<text text-anchor="start" x="23" y="-645.5" font-family="SegoeUI" font-size="10.00">+ Id</text>
<text text-anchor="start" x="23" y="-634.5" font-family="SegoeUI" font-size="10.00">+ Crit</text>
<text text-anchor="start" x="23" y="-623.5" font-family="SegoeUI" font-size="10.00">+ Pub</text>
<text text-anchor="start" x="23" y="-612.5" font-family="SegoeUI" font-size="10.00">+ Safe</text>
<text text-anchor="start" x="23" y="-601.5" font-family="SegoeUI" font-size="10.00">+ ImgInfo</text>
<text text-anchor="start" x="23" y="-590.5" font-family="SegoeUI" font-size="10.00">+ Priority</text>
<text text-anchor="start" x="23" y="-579.5" font-family="SegoeUI" font-size="10.00">+ ChunkGroup</text>
<text text-anchor="start" x="23" y="-568.5" font-family="SegoeUI" font-size="10.00">+ Length</text>
<text text-anchor="start" x="23" y="-557.5" font-family="SegoeUI" font-size="10.00">+ Offset</text>
<polyline fill="none" stroke="black" points="15,-550.5 143,-550.5 "/>
<text text-anchor="start" x="23" y="-538.5" font-family="SegoeUI" font-size="10.00">+ CreateEmptyChunk()</text>
<text text-anchor="start" x="23" y="-527.5" font-family="SegoeUI" font-size="10.00">+ ToString()</text>
<text text-anchor="start" x="23" y="-516.5" font-family="SegoeUI" font-size="10.00">+ CreateRawChunk()</text>
<text text-anchor="start" x="23" y="-505.5" font-family="SegoeUI" font-size="10.00">+ ParseFromRaw()</text>
<text text-anchor="start" x="23" y="-494.5" font-family="SegoeUI" font-size="10.00">+ CloneDataFromRead()</text>
<text text-anchor="start" x="23" y="-483.5" font-family="SegoeUI" font-size="10.00">+ AllowsMultiple()</text>
<text text-anchor="start" x="23" y="-472.5" font-family="SegoeUI" font-size="10.00">+ GetOrderingConstraint()</text>
<text text-anchor="start" x="23" y="-461.5" font-family="SegoeUI" font-size="10.00">+ FactoryRegister()</text>
<text text-anchor="start" x="23" y="-450.5" font-family="SegoeUI" font-size="10.00">+ CloneChunk&lt; T &gt;()</text>
<text text-anchor="start" x="23" y="-439.5" font-family="SegoeUI" font-size="10.00"># AbstractPngChunk()</text>
<text text-anchor="start" x="23" y="-428.5" font-family="SegoeUI" font-size="10.00">&#45; MustGoBeforePLTE()</text>
<text text-anchor="start" x="23" y="-417.5" font-family="SegoeUI" font-size="10.00">&#45; MustGoBeforeIDAT()</text>
<text text-anchor="start" x="23" y="-406.5" font-family="SegoeUI" font-size="10.00">&#45; MustGoAfterPLTE()</text>
<text text-anchor="start" x="23" y="-395.5" font-family="SegoeUI" font-size="10.00">&#45; Write()</text>
<text text-anchor="start" x="23" y="-384.5" font-family="SegoeUI" font-size="10.00">&#45; InitFactory()</text>
<text text-anchor="start" x="23" y="-373.5" font-family="SegoeUI" font-size="10.00">&#45; IsKnown()</text>
<text text-anchor="start" x="23" y="-362.5" font-family="SegoeUI" font-size="10.00">&#45; Factory()</text>
<text text-anchor="start" x="23" y="-351.5" font-family="SegoeUI" font-size="10.00">&#45; FactoryFromId()</text>
</a>
</g>
</g>
<!-- Node5&#45;&gt;Node4 -->
<g id="edge2" class="edge"><title>Node5&#45;&gt;Node4</title>
<path fill="none" stroke="midnightblue" d="M79,-334.373C79,-324.509 79,-315.18 79,-306.713"/>
<polygon fill="none" stroke="midnightblue" points="75.5001,-334.404 79,-344.404 82.5001,-334.404 75.5001,-334.404"/>
</g>
<!-- Node6 -->
<g id="node4" class="node"><title>Node6</title>
<g id="a_node4"><a xlink:title=" ">
<polygon fill="white" stroke="#bfbfbf" points="59.5,-724.5 59.5,-781.5 98.5,-781.5 98.5,-724.5 59.5,-724.5"/>
<text text-anchor="middle" x="79" y="-769.5" font-family="SegoeUI" font-size="10.00">static</text>
<polyline fill="none" stroke="#bfbfbf" points="59.5,-762.5 98.5,-762.5 "/>
<text text-anchor="middle" x="79" y="-750.5" font-family="SegoeUI" font-size="10.00"> </text>
<polyline fill="none" stroke="#bfbfbf" points="59.5,-743.5 98.5,-743.5 "/>
<text text-anchor="middle" x="79" y="-731.5" font-family="SegoeUI" font-size="10.00"> </text>
</a>
</g>
</g>
<!-- Node6&#45;&gt;Node5 -->
<g id="edge3" class="edge"><title>Node6&#45;&gt;Node5</title>
<path fill="none" stroke="#404040" d="M79,-724.412C79,-714.392 79,-702.194 79,-688.761"/>
<polygon fill="none" stroke="#404040" points="79.0001,-688.662 75,-682.662 79,-676.662 83,-682.662 79.0001,-688.662"/>
<text text-anchor="middle" x="106.5" y="-698" font-family="SegoeUI" font-size="10.00"> &#45;factoryMap</text>
</g>
</g>
</svg>
