<?xml version="1.0" encoding="UTF-8" standalone="no"?>
<!DOCTYPE svg PUBLIC "-//W3C//DTD SVG 1.1//EN"
 "http://www.w3.org/Graphics/SVG/1.1/DTD/svg11.dtd">
<!-- Generated by graphviz version 2.38.0 (20140413.2041)
 -->
<!-- Title: Juniper.Ground.WindowsMRGround Pages: 1 -->
<svg width="180pt" height="672pt"
 viewBox="0.00 0.00 179.50 672.00" xmlns="http://www.w3.org/2000/svg" xmlns:xlink="http://www.w3.org/1999/xlink">
<g id="graph0" class="graph" transform="scale(1 1) rotate(0) translate(4 668)">
<title>Juniper.Ground.WindowsMRGround</title>
<polygon fill="white" stroke="none" points="-4,4 -4,-668 175.5,-668 175.5,4 -4,4"/>
<!-- Node0 -->
<g id="node1" class="node"><title>Node0</title>
<g id="a_node1"><a xlink:title=" ">
<polygon fill="#bfbfbf" stroke="black" points="4.5,-0.5 4.5,-288.5 171.5,-288.5 171.5,-0.5 4.5,-0.5"/>
<text text-anchor="middle" x="88" y="-276.5" font-family="SegoeUI" font-size="10.00">Juniper.Ground.WindowsMRGround</text>
<polyline fill="none" stroke="black" points="4.5,-269.5 171.5,-269.5 "/>
<text text-anchor="start" x="12.5" y="-257.5" font-family="SegoeUI" font-size="10.00">+ surfaceParent</text>
<text text-anchor="start" x="12.5" y="-246.5" font-family="SegoeUI" font-size="10.00">+ secondsBetweenSpatialMapping</text>
<text text-anchor="start" x="12.5" y="-235.5" font-family="SegoeUI" font-size="10.00">Updates</text>
<text text-anchor="start" x="12.5" y="-224.5" font-family="SegoeUI" font-size="10.00">+ updateCountBeforeSpatial</text>
<text text-anchor="start" x="12.5" y="-213.5" font-family="SegoeUI" font-size="10.00">MappingCleanup</text>
<text text-anchor="start" x="12.5" y="-202.5" font-family="SegoeUI" font-size="10.00">+ spatialMappingRange</text>
<text text-anchor="start" x="12.5" y="-191.5" font-family="SegoeUI" font-size="10.00">+ freezeUpdates</text>
<text text-anchor="start" x="12.5" y="-180.5" font-family="SegoeUI" font-size="10.00">+ volumeType</text>
<text text-anchor="start" x="12.5" y="-169.5" font-family="SegoeUI" font-size="10.00">+ HalfBoxExtents</text>
<text text-anchor="start" x="12.5" y="-158.5" font-family="SegoeUI" font-size="10.00">+ LODType</text>
<text text-anchor="start" x="12.5" y="-147.5" font-family="SegoeUI" font-size="10.00">&#45; gRenderer</text>
<text text-anchor="start" x="12.5" y="-136.5" font-family="SegoeUI" font-size="10.00">&#45; gCollider</text>
<text text-anchor="start" x="12.5" y="-125.5" font-family="SegoeUI" font-size="10.00">&#45; lastSurfaceParent</text>
<text text-anchor="start" x="12.5" y="-114.5" font-family="SegoeUI" font-size="10.00">&#45; lastUpdateTime</text>
<text text-anchor="start" x="12.5" y="-103.5" font-family="SegoeUI" font-size="10.00">&#45; lastUpdateCount</text>
<text text-anchor="start" x="12.5" y="-92.5" font-family="SegoeUI" font-size="10.00">&#45; lastHalfBox</text>
<text text-anchor="start" x="12.5" y="-81.5" font-family="SegoeUI" font-size="10.00">&#45; lastFreezeUpdates</text>
<text text-anchor="start" x="12.5" y="-70.5" font-family="SegoeUI" font-size="10.00">&#45; lastLODType</text>
<text text-anchor="start" x="12.5" y="-59.5" font-family="SegoeUI" font-size="10.00">&#45; lastVolumeType</text>
<text text-anchor="start" x="12.5" y="-48.5" font-family="SegoeUI" font-size="10.00">&#45; LODTypeMapping</text>
<polyline fill="none" stroke="black" points="4.5,-41.5 171.5,-41.5 "/>
<text text-anchor="start" x="12.5" y="-29.5" font-family="SegoeUI" font-size="10.00">+ Update()</text>
<text text-anchor="start" x="12.5" y="-18.5" font-family="SegoeUI" font-size="10.00"># Awake()</text>
<text text-anchor="start" x="12.5" y="-7.5" font-family="SegoeUI" font-size="10.00">&#45; Check&lt; T &gt;()</text>
</a>
</g>
</g>
<!-- Node1 -->
<g id="node2" class="node"><title>Node1</title>
<g id="a_node2"><a xlink:href="../../d9/d8c/class_juniper_1_1_ground_1_1_abstract_ground.html" target="_top" xlink:title=" ">
<polygon fill="white" stroke="black" points="21,-325.5 21,-547.5 155,-547.5 155,-325.5 21,-325.5"/>
<text text-anchor="middle" x="88" y="-535.5" font-family="SegoeUI" font-size="10.00">AbstractGround</text>
<polyline fill="none" stroke="black" points="21,-528.5 155,-528.5 "/>
<text text-anchor="start" x="29" y="-516.5" font-family="SegoeUI" font-size="10.00">+ Roughness</text>
<text text-anchor="start" x="29" y="-505.5" font-family="SegoeUI" font-size="10.00">+ spatialMappingFidelity</text>
<text text-anchor="start" x="29" y="-494.5" font-family="SegoeUI" font-size="10.00">+ MeshVisualization</text>
<text text-anchor="start" x="29" y="-483.5" font-family="SegoeUI" font-size="10.00">+ OcclusionMaterial</text>
<text text-anchor="start" x="29" y="-472.5" font-family="SegoeUI" font-size="10.00">+ OcclusionMaterialInEditor</text>
<text text-anchor="start" x="29" y="-461.5" font-family="SegoeUI" font-size="10.00">+ VisualizationMaterial</text>
<text text-anchor="start" x="29" y="-450.5" font-family="SegoeUI" font-size="10.00">+ CurrentMaterial</text>
<text text-anchor="start" x="29" y="-439.5" font-family="SegoeUI" font-size="10.00">+ GroundLayer</text>
<text text-anchor="start" x="29" y="-428.5" font-family="SegoeUI" font-size="10.00">+ GroundVisualizers</text>
<text text-anchor="start" x="29" y="-417.5" font-family="SegoeUI" font-size="10.00">&#45; lastMeshVisualization</text>
<polyline fill="none" stroke="black" points="21,-410.5 155,-410.5 "/>
<text text-anchor="start" x="29" y="-398.5" font-family="SegoeUI" font-size="10.00">+ ToggleVisualization()</text>
<text text-anchor="start" x="29" y="-387.5" font-family="SegoeUI" font-size="10.00">+ Reinstall()</text>
<text text-anchor="start" x="29" y="-376.5" font-family="SegoeUI" font-size="10.00">+ Update()</text>
<text text-anchor="start" x="29" y="-365.5" font-family="SegoeUI" font-size="10.00">+ Install()</text>
<text text-anchor="start" x="29" y="-354.5" font-family="SegoeUI" font-size="10.00">+ Uninstall()</text>
<text text-anchor="start" x="29" y="-343.5" font-family="SegoeUI" font-size="10.00"># Awake()</text>
<text text-anchor="start" x="29" y="-332.5" font-family="SegoeUI" font-size="10.00"># VisualizationChanged()</text>
</a>
</g>
</g>
<!-- Node1&#45;&gt;Node0 -->
<g id="edge1" class="edge"><title>Node1&#45;&gt;Node0</title>
<path fill="none" stroke="midnightblue" d="M88,-315.237C88,-306.483 88,-297.604 88,-288.734"/>
<polygon fill="none" stroke="midnightblue" points="84.5001,-315.45 88,-325.45 91.5001,-315.45 84.5001,-315.45"/>
</g>
<!-- Node2 -->
<g id="node3" class="node"><title>Node2</title>
<g id="a_node3"><a xlink:title=" ">
<polygon fill="white" stroke="#bfbfbf" points="0,-595.5 0,-652.5 82,-652.5 82,-595.5 0,-595.5"/>
<text text-anchor="middle" x="41" y="-640.5" font-family="SegoeUI" font-size="10.00">MonoBehaviour</text>
<polyline fill="none" stroke="#bfbfbf" points="0,-633.5 82,-633.5 "/>
<text text-anchor="middle" x="41" y="-621.5" font-family="SegoeUI" font-size="10.00"> </text>
<polyline fill="none" stroke="#bfbfbf" points="0,-614.5 82,-614.5 "/>
<text text-anchor="middle" x="41" y="-602.5" font-family="SegoeUI" font-size="10.00"> </text>
</a>
</g>
</g>
<!-- Node2&#45;&gt;Node1 -->
<g id="edge2" class="edge"><title>Node2&#45;&gt;Node1</title>
<path fill="none" stroke="midnightblue" d="M50.5346,-585.369C53.3973,-574.07 56.6938,-561.06 60.1191,-547.541"/>
<polygon fill="none" stroke="midnightblue" points="47.0997,-584.675 48.0364,-595.229 53.8853,-586.395 47.0997,-584.675"/>
</g>
<!-- Node3 -->
<g id="node4" class="node"><title>Node3</title>
<g id="a_node4"><a xlink:href="../../d7/dbe/interface_juniper_1_1_i_o_1_1_i_installable.html" target="_top" xlink:title="Defines an interface for objects that can be installed and have their installation progress tracked.">
<polygon fill="white" stroke="black" points="100.5,-584.5 100.5,-663.5 169.5,-663.5 169.5,-584.5 100.5,-584.5"/>
<text text-anchor="middle" x="135" y="-651.5" font-family="SegoeUI" font-size="10.00">IInstallable</text>
<polyline fill="none" stroke="black" points="100.5,-644.5 169.5,-644.5 "/>
<text text-anchor="middle" x="135" y="-632.5" font-family="SegoeUI" font-size="10.00"> </text>
<polyline fill="none" stroke="black" points="100.5,-625.5 169.5,-625.5 "/>
<text text-anchor="start" x="108.5" y="-613.5" font-family="SegoeUI" font-size="10.00">+ Install()</text>
<text text-anchor="start" x="108.5" y="-602.5" font-family="SegoeUI" font-size="10.00">+ Reinstall()</text>
<text text-anchor="start" x="108.5" y="-591.5" font-family="SegoeUI" font-size="10.00">+ Uninstall()</text>
</a>
</g>
</g>
<!-- Node3&#45;&gt;Node1 -->
<g id="edge3" class="edge"><title>Node3&#45;&gt;Node1</title>
<path fill="none" stroke="midnightblue" d="M122.652,-574.266C120.538,-565.92 118.266,-556.955 115.934,-547.752"/>
<polygon fill="none" stroke="midnightblue" points="119.298,-575.279 125.147,-584.113 126.084,-573.56 119.298,-575.279"/>
</g>
</g>
</svg>
