<?xml version="1.0" encoding="UTF-8" standalone="no"?>
<!DOCTYPE svg PUBLIC "-//W3C//DTD SVG 1.1//EN"
 "http://www.w3.org/Graphics/SVG/1.1/DTD/svg11.dtd">
<!-- Generated by graphviz version 2.38.0 (20140413.2041)
 -->
<!-- Title: Juniper.Mathematics.Vector2Serializable Pages: 1 -->
<svg width="260pt" height="270pt"
 viewBox="0.00 0.00 259.50 270.00" xmlns="http://www.w3.org/2000/svg" xmlns:xlink="http://www.w3.org/1999/xlink">
<g id="graph0" class="graph" transform="scale(1 1) rotate(0) translate(4 266)">
<title>Juniper.Mathematics.Vector2Serializable</title>
<polygon fill="white" stroke="none" points="-4,4 -4,-266 255.5,-266 255.5,4 -4,4"/>
<!-- Node0 -->
<g id="node1" class="node"><title>Node0</title>
<g id="a_node1"><a xlink:title=" ">
<polygon fill="#bfbfbf" stroke="black" points="31.5,-0.5 31.5,-167.5 171.5,-167.5 171.5,-0.5 31.5,-0.5"/>
<text text-anchor="start" x="39.5" y="-155.5" font-family="SegoeUI" font-size="10.00">Juniper.Mathematics.Vector2</text>
<text text-anchor="middle" x="101.5" y="-144.5" font-family="SegoeUI" font-size="10.00">Serializable</text>
<polyline fill="none" stroke="black" points="31.5,-137.5 171.5,-137.5 "/>
<text text-anchor="start" x="39.5" y="-125.5" font-family="SegoeUI" font-size="10.00">+ X</text>
<text text-anchor="start" x="39.5" y="-114.5" font-family="SegoeUI" font-size="10.00">+ Y</text>
<polyline fill="none" stroke="black" points="31.5,-107.5 171.5,-107.5 "/>
<text text-anchor="start" x="39.5" y="-95.5" font-family="SegoeUI" font-size="10.00">+ Vector2Serializable()</text>
<text text-anchor="start" x="39.5" y="-84.5" font-family="SegoeUI" font-size="10.00">+ GetObjectData()</text>
<text text-anchor="start" x="39.5" y="-73.5" font-family="SegoeUI" font-size="10.00">+ ToString()</text>
<text text-anchor="start" x="39.5" y="-62.5" font-family="SegoeUI" font-size="10.00">+ Equals()</text>
<text text-anchor="start" x="39.5" y="-51.5" font-family="SegoeUI" font-size="10.00">+ Equals()</text>
<text text-anchor="start" x="39.5" y="-40.5" font-family="SegoeUI" font-size="10.00">+ GetHashCode()</text>
<text text-anchor="start" x="39.5" y="-29.5" font-family="SegoeUI" font-size="10.00">+ operator==()</text>
<text text-anchor="start" x="39.5" y="-18.5" font-family="SegoeUI" font-size="10.00">+ operator !=()</text>
<text text-anchor="start" x="39.5" y="-7.5" font-family="SegoeUI" font-size="10.00">&#45; Vector2Serializable()</text>
</a>
</g>
</g>
<!-- Node1 -->
<g id="node2" class="node"><title>Node1</title>
<g id="a_node2"><a xlink:title=" ">
<polygon fill="white" stroke="#bfbfbf" points="0,-204.5 0,-261.5 69,-261.5 69,-204.5 0,-204.5"/>
<text text-anchor="middle" x="34.5" y="-249.5" font-family="SegoeUI" font-size="10.00">ISerializable</text>
<polyline fill="none" stroke="#bfbfbf" points="0,-242.5 69,-242.5 "/>
<text text-anchor="middle" x="34.5" y="-230.5" font-family="SegoeUI" font-size="10.00"> </text>
<polyline fill="none" stroke="#bfbfbf" points="0,-223.5 69,-223.5 "/>
<text text-anchor="middle" x="34.5" y="-211.5" font-family="SegoeUI" font-size="10.00"> </text>
</a>
</g>
</g>
<!-- Node1&#45;&gt;Node0 -->
<g id="edge1" class="edge"><title>Node1&#45;&gt;Node0</title>
<path fill="none" stroke="midnightblue" d="M51.2847,-195.174C55.154,-186.684 59.4234,-177.317 63.7897,-167.738"/>
<polygon fill="none" stroke="midnightblue" points="48.0648,-193.799 47.1022,-204.35 54.4344,-196.703 48.0648,-193.799"/>
</g>
<!-- Node2 -->
<g id="node3" class="node"><title>Node2</title>
<g id="a_node3"><a xlink:title=" ">
<polygon fill="white" stroke="#bfbfbf" points="87.5,-204.5 87.5,-261.5 251.5,-261.5 251.5,-204.5 87.5,-204.5"/>
<text text-anchor="middle" x="169.5" y="-249.5" font-family="SegoeUI" font-size="10.00">IEquatable&lt; Vector2Serializable &gt;</text>
<polyline fill="none" stroke="#bfbfbf" points="87.5,-242.5 251.5,-242.5 "/>
<text text-anchor="middle" x="169.5" y="-230.5" font-family="SegoeUI" font-size="10.00"> </text>
<polyline fill="none" stroke="#bfbfbf" points="87.5,-223.5 251.5,-223.5 "/>
<text text-anchor="middle" x="169.5" y="-211.5" font-family="SegoeUI" font-size="10.00"> </text>
</a>
</g>
</g>
<!-- Node2&#45;&gt;Node0 -->
<g id="edge2" class="edge"><title>Node2&#45;&gt;Node0</title>
<path fill="none" stroke="midnightblue" d="M152.465,-195.174C148.538,-186.684 144.205,-177.317 139.773,-167.738"/>
<polygon fill="none" stroke="midnightblue" points="149.335,-196.744 156.71,-204.35 155.688,-193.805 149.335,-196.744"/>
</g>
</g>
</svg>
