<?xml version="1.0" encoding="UTF-8" standalone="no"?>
<!DOCTYPE svg PUBLIC "-//W3C//DTD SVG 1.1//EN"
 "http://www.w3.org/Graphics/SVG/1.1/DTD/svg11.dtd">
<!-- Generated by graphviz version 2.38.0 (20140413.2041)
 -->
<!-- Title: Juniper.Speech.IKeywordTriggered Pages: 1 -->
<svg width="175pt" height="226pt"
 viewBox="0.00 0.00 175.00 226.00" xmlns="http://www.w3.org/2000/svg" xmlns:xlink="http://www.w3.org/1999/xlink">
<g id="graph0" class="graph" transform="scale(1 1) rotate(0) translate(4 222)">
<title>Juniper.Speech.IKeywordTriggered</title>
<polygon fill="white" stroke="none" points="-4,4 -4,-222 171,-222 171,4 -4,4"/>
<!-- Node0 -->
<g id="node1" class="node"><title>Node0</title>
<g id="a_node1"><a xlink:title="An interface for systems that respond to keyword utterances.">
<polygon fill="#bfbfbf" stroke="black" points="0,-160.5 0,-217.5 167,-217.5 167,-160.5 0,-160.5"/>
<text text-anchor="middle" x="83.5" y="-205.5" font-family="SegoeUI" font-size="10.00">Juniper.Speech.IKeywordTriggered</text>
<polyline fill="none" stroke="black" points="0,-198.5 167,-198.5 "/>
<text text-anchor="start" x="8" y="-186.5" font-family="SegoeUI" font-size="10.00">+ Keywords</text>
<polyline fill="none" stroke="black" points="0,-179.5 167,-179.5 "/>
<text text-anchor="middle" x="83.5" y="-167.5" font-family="SegoeUI" font-size="10.00"> </text>
</a>
</g>
</g>
<!-- Node1 -->
<g id="node2" class="node"><title>Node1</title>
<g id="a_node2"><a xlink:href="../../d7/d4d/class_juniper_1_1_speech_1_1_keywordable.html" target="_top" xlink:title="An object that can be fires an event when a particular keyword is uttered.">
<polygon fill="white" stroke="black" points="13.5,-0.5 13.5,-123.5 153.5,-123.5 153.5,-0.5 13.5,-0.5"/>
<text text-anchor="middle" x="83.5" y="-111.5" font-family="SegoeUI" font-size="10.00">Juniper.Speech.Keywordable</text>
<polyline fill="none" stroke="black" points="13.5,-104.5 153.5,-104.5 "/>
<text text-anchor="start" x="21.5" y="-92.5" font-family="SegoeUI" font-size="10.00">+ keywords</text>
<text text-anchor="start" x="21.5" y="-81.5" font-family="SegoeUI" font-size="10.00">+ Keywords</text>
<text text-anchor="start" x="21.5" y="-70.5" font-family="SegoeUI" font-size="10.00">+ DefaultDescription</text>
<polyline fill="none" stroke="black" points="13.5,-63.5 153.5,-63.5 "/>
<text text-anchor="start" x="21.5" y="-51.5" font-family="SegoeUI" font-size="10.00">+ IsInteractable()</text>
<text text-anchor="start" x="21.5" y="-40.5" font-family="SegoeUI" font-size="10.00">+ SetTooltips()</text>
<text text-anchor="start" x="21.5" y="-29.5" font-family="SegoeUI" font-size="10.00"># OnEnable()</text>
<text text-anchor="start" x="21.5" y="-18.5" font-family="SegoeUI" font-size="10.00"># OnDisable()</text>
<text text-anchor="start" x="21.5" y="-7.5" font-family="SegoeUI" font-size="10.00">&#45; SetTooltips()</text>
</a>
</g>
</g>
<!-- Node0&#45;&gt;Node1 -->
<g id="edge1" class="edge"><title>Node0&#45;&gt;Node1</title>
<path fill="none" stroke="midnightblue" d="M83.5,-150.099C83.5,-141.739 83.5,-132.68 83.5,-123.672"/>
<polygon fill="none" stroke="midnightblue" points="80.0001,-150.258 83.5,-160.258 87.0001,-150.258 80.0001,-150.258"/>
</g>
</g>
</svg>
