<?xml version="1.0" encoding="UTF-8" standalone="no"?>
<!DOCTYPE svg PUBLIC "-//W3C//DTD SVG 1.1//EN"
 "http://www.w3.org/Graphics/SVG/1.1/DTD/svg11.dtd">
<!-- Generated by graphviz version 2.38.0 (20140413.2041)
 -->
<!-- Title: Juniper.Unity.Input.Pointers.Screen.TouchPoint Pages: 1 -->
<svg width="496pt" height="1413pt"
 viewBox="0.00 0.00 495.50 1413.00" xmlns="http://www.w3.org/2000/svg" xmlns:xlink="http://www.w3.org/1999/xlink">
<g id="graph0" class="graph" transform="scale(1 1) rotate(0) translate(4 1409)">
<title>Juniper.Unity.Input.Pointers.Screen.TouchPoint</title>
<polygon fill="white" stroke="none" points="-4,4 -4,-1409 491.5,-1409 491.5,4 -4,4"/>
<!-- Node0 -->
<g id="node1" class="node"><title>Node0</title>
<g id="a_node1"><a xlink:title="Perform pointer events on touch screens.">
<polygon fill="#bfbfbf" stroke="black" points="289,-0.5 289,-200.5 426,-200.5 426,-0.5 289,-0.5"/>
<text text-anchor="start" x="297" y="-188.5" font-family="SegoeUI" font-size="10.00">Juniper.Unity.Input.Pointers.</text>
<text text-anchor="middle" x="357.5" y="-177.5" font-family="SegoeUI" font-size="10.00">Screen.TouchPoint</text>
<polyline fill="none" stroke="black" points="289,-170.5 426,-170.5 "/>
<text text-anchor="start" x="297" y="-158.5" font-family="SegoeUI" font-size="10.00">+ fingerID</text>
<text text-anchor="start" x="297" y="-147.5" font-family="SegoeUI" font-size="10.00">+ IsConnected</text>
<text text-anchor="start" x="297" y="-136.5" font-family="SegoeUI" font-size="10.00">+ Finger</text>
<text text-anchor="start" x="297" y="-125.5" font-family="SegoeUI" font-size="10.00">+ ScreenPoint</text>
<text text-anchor="start" x="297" y="-114.5" font-family="SegoeUI" font-size="10.00">+ Pressed</text>
<text text-anchor="start" x="297" y="-103.5" font-family="SegoeUI" font-size="10.00">&#45; touchActive</text>
<text text-anchor="start" x="297" y="-92.5" font-family="SegoeUI" font-size="10.00">&#45; wasPressed</text>
<polyline fill="none" stroke="black" points="289,-85.5 426,-85.5 "/>
<text text-anchor="start" x="297" y="-73.5" font-family="SegoeUI" font-size="10.00">+ Reinstall()</text>
<text text-anchor="start" x="297" y="-62.5" font-family="SegoeUI" font-size="10.00">+ Awake()</text>
<text text-anchor="start" x="297" y="-51.5" font-family="SegoeUI" font-size="10.00">+ LateUpdate()</text>
<text text-anchor="start" x="297" y="-40.5" font-family="SegoeUI" font-size="10.00">+ IsButtonPressed()</text>
<text text-anchor="start" x="297" y="-29.5" font-family="SegoeUI" font-size="10.00">+ IsButtonUp()</text>
<text text-anchor="start" x="297" y="-18.5" font-family="SegoeUI" font-size="10.00">+ IsButtonDown()</text>
<text text-anchor="start" x="297" y="-7.5" font-family="SegoeUI" font-size="10.00"># InternalUpdate()</text>
</a>
</g>
</g>
<!-- Node1 -->
<g id="node2" class="node"><title>Node1</title>
<g id="a_node2"><a xlink:href="../../dc/db8/class_juniper_1_1_unity_1_1_input_1_1_pointers_1_1_screen_1_1_abstract_screen_device.html" target="_top" xlink:title=" ">
<polygon fill="white" stroke="black" points="290.5,-238.5 290.5,-350.5 424.5,-350.5 424.5,-238.5 290.5,-238.5"/>
<text text-anchor="start" x="298.5" y="-338.5" font-family="SegoeUI" font-size="10.00">AbstractScreenDevice</text>
<text text-anchor="start" x="298.5" y="-327.5" font-family="SegoeUI" font-size="10.00">&lt; KeyCode, HapticsType,</text>
<text text-anchor="middle" x="357.5" y="-316.5" font-family="SegoeUI" font-size="10.00"> TouchPointConfiguration &gt;</text>
<polyline fill="none" stroke="black" points="290.5,-309.5 424.5,-309.5 "/>
<text text-anchor="start" x="298.5" y="-297.5" font-family="SegoeUI" font-size="10.00">+ WorldPoint</text>
<text text-anchor="start" x="298.5" y="-286.5" font-family="SegoeUI" font-size="10.00">+ ViewportPoint</text>
<text text-anchor="start" x="298.5" y="-275.5" font-family="SegoeUI" font-size="10.00">+ CameraPositionOffset</text>
<text text-anchor="start" x="298.5" y="-264.5" font-family="SegoeUI" font-size="10.00">+ CameraRotationOffset</text>
<polyline fill="none" stroke="black" points="290.5,-257.5 424.5,-257.5 "/>
<text text-anchor="start" x="298.5" y="-245.5" font-family="SegoeUI" font-size="10.00"># InternalUpdate()</text>
</a>
</g>
</g>
<!-- Node1&#45;&gt;Node0 -->
<g id="edge1" class="edge"><title>Node1&#45;&gt;Node0</title>
<path fill="none" stroke="midnightblue" d="M357.5,-228.254C357.5,-219.37 357.5,-210.094 357.5,-200.777"/>
<polygon fill="none" stroke="midnightblue" points="354,-228.48 357.5,-238.481 361,-228.481 354,-228.48"/>
</g>
<!-- Node2 -->
<g id="node3" class="node"><title>Node2</title>
<g id="a_node3"><a xlink:href="../../dc/db8/class_juniper_1_1_unity_1_1_input_1_1_pointers_1_1_screen_1_1_abstract_screen_device.html" target="_top" xlink:title="A ScreenDevice is a AbstractPointerDevice&lt;ButtonIDType, HapticsType&gt; that has its primary pointer int...">
<polygon fill="white" stroke="black" points="285.5,-409.5 285.5,-532.5 429.5,-532.5 429.5,-409.5 285.5,-409.5"/>
<text text-anchor="start" x="293.5" y="-520.5" font-family="SegoeUI" font-size="10.00">Juniper.Unity.Input.Pointers.</text>
<text text-anchor="start" x="293.5" y="-509.5" font-family="SegoeUI" font-size="10.00">Screen.AbstractScreenDevice</text>
<text text-anchor="start" x="293.5" y="-498.5" font-family="SegoeUI" font-size="10.00">&lt; ButtonIDType, HapticsType,</text>
<text text-anchor="middle" x="357.5" y="-487.5" font-family="SegoeUI" font-size="10.00"> ConfigType &gt;</text>
<polyline fill="none" stroke="black" points="285.5,-480.5 429.5,-480.5 "/>
<text text-anchor="start" x="293.5" y="-468.5" font-family="SegoeUI" font-size="10.00">+ WorldPoint</text>
<text text-anchor="start" x="293.5" y="-457.5" font-family="SegoeUI" font-size="10.00">+ ViewportPoint</text>
<text text-anchor="start" x="293.5" y="-446.5" font-family="SegoeUI" font-size="10.00">+ CameraPositionOffset</text>
<text text-anchor="start" x="293.5" y="-435.5" font-family="SegoeUI" font-size="10.00">+ CameraRotationOffset</text>
<polyline fill="none" stroke="black" points="285.5,-428.5 429.5,-428.5 "/>
<text text-anchor="start" x="293.5" y="-416.5" font-family="SegoeUI" font-size="10.00"># InternalUpdate()</text>
</a>
</g>
</g>
<!-- Node2&#45;&gt;Node1 -->
<g id="edge2" class="edge"><title>Node2&#45;&gt;Node1</title>
<path fill="none" stroke="orange" d="M357.5,-399.005C357.5,-382.893 357.5,-366.015 357.5,-350.674"/>
<polygon fill="orange" stroke="orange" points="354,-399.458 357.5,-409.458 361,-399.458 354,-399.458"/>
<text text-anchor="start" x="357.5" y="-383" font-family="SegoeUI" font-size="10.00"> &lt; KeyCode, HapticsType,</text>
<text text-anchor="middle" x="416.5" y="-372" font-family="SegoeUI" font-size="10.00"> TouchPointConfiguration &gt;</text>
</g>
<!-- Node3 -->
<g id="node4" class="node"><title>Node3</title>
<g id="a_node4"><a xlink:href="../../d7/d05/class_juniper_1_1_unity_1_1_input_1_1_pointers_1_1_abstract_pointer_device.html" target="_top" xlink:title=" ">
<polygon fill="white" stroke="black" points="194.5,-570.5 194.5,-1089.5 338.5,-1089.5 338.5,-570.5 194.5,-570.5"/>
<text text-anchor="start" x="202.5" y="-1077.5" font-family="SegoeUI" font-size="10.00">AbstractPointerDevice</text>
<text text-anchor="start" x="202.5" y="-1066.5" font-family="SegoeUI" font-size="10.00">&lt; ButtonIDType, HapticsType,</text>
<text text-anchor="middle" x="266.5" y="-1055.5" font-family="SegoeUI" font-size="10.00"> ConfigType &gt;</text>
<polyline fill="none" stroke="black" points="194.5,-1048.5 338.5,-1048.5 "/>
<text text-anchor="start" x="202.5" y="-1036.5" font-family="SegoeUI" font-size="10.00">+ Connected</text>
<text text-anchor="start" x="202.5" y="-1025.5" font-family="SegoeUI" font-size="10.00">+ LaserPointerMaterial</text>
<text text-anchor="start" x="202.5" y="-1014.5" font-family="SegoeUI" font-size="10.00">+ showProbe</text>
<text text-anchor="start" x="202.5" y="-1003.5" font-family="SegoeUI" font-size="10.00">+ motionFilter</text>
<text text-anchor="start" x="202.5" y="-992.5" font-family="SegoeUI" font-size="10.00">+ SCREEN_MIDPOINT</text>
<text text-anchor="start" x="202.5" y="-981.5" font-family="SegoeUI" font-size="10.00">+ ButtonType</text>
<text text-anchor="start" x="202.5" y="-970.5" font-family="SegoeUI" font-size="10.00">+ MinimumPointerDistance</text>
<text text-anchor="start" x="202.5" y="-959.5" font-family="SegoeUI" font-size="10.00">+ MaximumPointerDistance</text>
<text text-anchor="start" x="202.5" y="-948.5" font-family="SegoeUI" font-size="10.00">+ LockedOnTarget</text>
<text text-anchor="start" x="202.5" y="-937.5" font-family="SegoeUI" font-size="10.00">+ EventTarget</text>
<text text-anchor="start" x="202.5" y="-926.5" font-family="SegoeUI" font-size="10.00">+ ScrollDelta</text>
<text text-anchor="start" x="202.5" y="-915.5" font-family="SegoeUI" font-size="10.00">+ IsConnected</text>
<text text-anchor="start" x="202.5" y="-904.5" font-family="SegoeUI" font-size="10.00">+ IsEnabled</text>
<text text-anchor="start" x="202.5" y="-893.5" font-family="SegoeUI" font-size="10.00">+ IsDisabled</text>
<text text-anchor="start" x="202.5" y="-882.5" font-family="SegoeUI" font-size="10.00">and 15 more...</text>
<text text-anchor="start" x="202.5" y="-871.5" font-family="SegoeUI" font-size="10.00"># nativeButtons</text>
<text text-anchor="start" x="202.5" y="-860.5" font-family="SegoeUI" font-size="10.00"># pointerOffset</text>
<text text-anchor="start" x="202.5" y="-849.5" font-family="SegoeUI" font-size="10.00"># probe</text>
<text text-anchor="start" x="202.5" y="-838.5" font-family="SegoeUI" font-size="10.00"># eventManager</text>
<text text-anchor="start" x="202.5" y="-827.5" font-family="SegoeUI" font-size="10.00"># stage</text>
<text text-anchor="start" x="202.5" y="-816.5" font-family="SegoeUI" font-size="10.00"># VIEWPORT_MIDPOINT</text>
<text text-anchor="start" x="202.5" y="-805.5" font-family="SegoeUI" font-size="10.00"># PointerConfig</text>
<text text-anchor="start" x="202.5" y="-794.5" font-family="SegoeUI" font-size="10.00">&#45; _probeName</text>
<text text-anchor="start" x="202.5" y="-783.5" font-family="SegoeUI" font-size="10.00">&#45; parent</text>
<text text-anchor="start" x="202.5" y="-772.5" font-family="SegoeUI" font-size="10.00">&#45; lastMotionFilter</text>
<text text-anchor="start" x="202.5" y="-761.5" font-family="SegoeUI" font-size="10.00">&#45; finishTime</text>
<polyline fill="none" stroke="black" points="194.5,-754.5 338.5,-754.5 "/>
<text text-anchor="start" x="202.5" y="-742.5" font-family="SegoeUI" font-size="10.00">+ Awake()</text>
<text text-anchor="start" x="202.5" y="-731.5" font-family="SegoeUI" font-size="10.00">+ Install()</text>
<text text-anchor="start" x="202.5" y="-720.5" font-family="SegoeUI" font-size="10.00">+ Uninstall()</text>
<text text-anchor="start" x="202.5" y="-709.5" font-family="SegoeUI" font-size="10.00">+ Reinstall()</text>
<text text-anchor="start" x="202.5" y="-698.5" font-family="SegoeUI" font-size="10.00">+ Reset()</text>
<text text-anchor="start" x="202.5" y="-687.5" font-family="SegoeUI" font-size="10.00">+ SetProbe()</text>
<text text-anchor="start" x="202.5" y="-676.5" font-family="SegoeUI" font-size="10.00">+ ScreenFromWorld()</text>
<text text-anchor="start" x="202.5" y="-665.5" font-family="SegoeUI" font-size="10.00">+ ScreenFromViewport()</text>
<text text-anchor="start" x="202.5" y="-654.5" font-family="SegoeUI" font-size="10.00">+ ViewportFromWorld()</text>
<text text-anchor="start" x="202.5" y="-643.5" font-family="SegoeUI" font-size="10.00">+ ViewportFromScreen()</text>
<text text-anchor="start" x="202.5" y="-632.5" font-family="SegoeUI" font-size="10.00">and 11 more...</text>
<text text-anchor="start" x="202.5" y="-621.5" font-family="SegoeUI" font-size="10.00"># ProcessButtons()</text>
<text text-anchor="start" x="202.5" y="-610.5" font-family="SegoeUI" font-size="10.00"># InternalUpdate()</text>
<text text-anchor="start" x="202.5" y="-599.5" font-family="SegoeUI" font-size="10.00">&#45; FindProbe()</text>
<text text-anchor="start" x="202.5" y="-588.5" font-family="SegoeUI" font-size="10.00">&#45; Clone()</text>
<text text-anchor="start" x="202.5" y="-577.5" font-family="SegoeUI" font-size="10.00">&#45; TestEnterExit()</text>
</a>
</g>
</g>
<!-- Node3&#45;&gt;Node2 -->
<g id="edge3" class="edge"><title>Node3&#45;&gt;Node2</title>
<path fill="none" stroke="midnightblue" d="M334.939,-560.507C337.446,-550.675 339.826,-541.336 342.036,-532.668"/>
<polygon fill="none" stroke="midnightblue" points="331.472,-559.942 332.393,-570.497 338.255,-561.671 331.472,-559.942"/>
</g>
<!-- Node4 -->
<g id="node5" class="node"><title>Node4</title>
<g id="a_node5"><a xlink:title=" ">
<polygon fill="white" stroke="#bfbfbf" points="87.5,-1237.5 87.5,-1294.5 169.5,-1294.5 169.5,-1237.5 87.5,-1237.5"/>
<text text-anchor="middle" x="128.5" y="-1282.5" font-family="SegoeUI" font-size="10.00">MonoBehaviour</text>
<polyline fill="none" stroke="#bfbfbf" points="87.5,-1275.5 169.5,-1275.5 "/>
<text text-anchor="middle" x="128.5" y="-1263.5" font-family="SegoeUI" font-size="10.00"> </text>
<polyline fill="none" stroke="#bfbfbf" points="87.5,-1256.5 169.5,-1256.5 "/>
<text text-anchor="middle" x="128.5" y="-1244.5" font-family="SegoeUI" font-size="10.00"> </text>
</a>
</g>
</g>
<!-- Node4&#45;&gt;Node3 -->
<g id="edge4" class="edge"><title>Node4&#45;&gt;Node3</title>
<path fill="none" stroke="midnightblue" d="M140.404,-1227.56C152.859,-1188.39 173.491,-1123.51 194.494,-1057.45"/>
<polygon fill="none" stroke="midnightblue" points="137.037,-1226.6 137.342,-1237.19 143.708,-1228.72 137.037,-1226.6"/>
</g>
<!-- Node5 -->
<g id="node6" class="node"><title>Node5</title>
<g id="a_node6"><a xlink:href="../../db/d28/interface_juniper_1_1_i_installable.html" target="_top" xlink:title=" ">
<polygon fill="white" stroke="black" points="0,-1226.5 0,-1305.5 69,-1305.5 69,-1226.5 0,-1226.5"/>
<text text-anchor="middle" x="34.5" y="-1293.5" font-family="SegoeUI" font-size="10.00">IInstallable</text>
<polyline fill="none" stroke="black" points="0,-1286.5 69,-1286.5 "/>
<text text-anchor="middle" x="34.5" y="-1274.5" font-family="SegoeUI" font-size="10.00"> </text>
<polyline fill="none" stroke="black" points="0,-1267.5 69,-1267.5 "/>
<text text-anchor="start" x="8" y="-1255.5" font-family="SegoeUI" font-size="10.00">+ Install()</text>
<text text-anchor="start" x="8" y="-1244.5" font-family="SegoeUI" font-size="10.00">+ Reinstall()</text>
<text text-anchor="start" x="8" y="-1233.5" font-family="SegoeUI" font-size="10.00">+ Uninstall()</text>
</a>
</g>
</g>
<!-- Node5&#45;&gt;Node3 -->
<g id="edge5" class="edge"><title>Node5&#45;&gt;Node3</title>
<path fill="none" stroke="midnightblue" d="M46.7316,-1216.25C54.3058,-1189.3 65.1394,-1155.58 78.5,-1127 110.659,-1058.2 156.119,-986.163 194.28,-930.382"/>
<polygon fill="none" stroke="midnightblue" points="43.266,-1215.65 43.9898,-1226.22 50.0156,-1217.51 43.266,-1215.65"/>
</g>
<!-- Node6 -->
<g id="node7" class="node"><title>Node6</title>
<g id="a_node7"><a xlink:href="../../d4/d43/interface_juniper_1_1_unity_1_1_input_1_1_pointers_1_1_i_pointer_device.html" target="_top" xlink:title=" ">
<polygon fill="white" stroke="black" points="363.5,-1127.5 363.5,-1404.5 487.5,-1404.5 487.5,-1127.5 363.5,-1127.5"/>
<text text-anchor="middle" x="425.5" y="-1392.5" font-family="SegoeUI" font-size="10.00">IPointerDevice</text>
<polyline fill="none" stroke="black" points="363.5,-1385.5 487.5,-1385.5 "/>
<text text-anchor="start" x="371.5" y="-1373.5" font-family="SegoeUI" font-size="10.00">+ name</text>
<text text-anchor="start" x="371.5" y="-1362.5" font-family="SegoeUI" font-size="10.00">+ isActiveAndEnabled</text>
<text text-anchor="start" x="371.5" y="-1351.5" font-family="SegoeUI" font-size="10.00">+ transform</text>
<text text-anchor="start" x="371.5" y="-1340.5" font-family="SegoeUI" font-size="10.00">+ IsConnected</text>
<text text-anchor="start" x="371.5" y="-1329.5" font-family="SegoeUI" font-size="10.00">+ IsDisabled</text>
<text text-anchor="start" x="371.5" y="-1318.5" font-family="SegoeUI" font-size="10.00">+ IsEnabled</text>
<text text-anchor="start" x="371.5" y="-1307.5" font-family="SegoeUI" font-size="10.00">+ LockedOnTarget</text>
<text text-anchor="start" x="371.5" y="-1296.5" font-family="SegoeUI" font-size="10.00">+ ButtonType</text>
<text text-anchor="start" x="371.5" y="-1285.5" font-family="SegoeUI" font-size="10.00">+ Raycaster</text>
<text text-anchor="start" x="371.5" y="-1274.5" font-family="SegoeUI" font-size="10.00">+ EventCamera</text>
<text text-anchor="start" x="371.5" y="-1263.5" font-family="SegoeUI" font-size="10.00">and 14 more...</text>
<polyline fill="none" stroke="black" points="363.5,-1256.5 487.5,-1256.5 "/>
<text text-anchor="start" x="371.5" y="-1244.5" font-family="SegoeUI" font-size="10.00">+ ViewportFromWorld()</text>
<text text-anchor="start" x="371.5" y="-1233.5" font-family="SegoeUI" font-size="10.00">+ ViewportFromScreen()</text>
<text text-anchor="start" x="371.5" y="-1222.5" font-family="SegoeUI" font-size="10.00">+ ScreenFromWorld()</text>
<text text-anchor="start" x="371.5" y="-1211.5" font-family="SegoeUI" font-size="10.00">+ ScreenFromViewport()</text>
<text text-anchor="start" x="371.5" y="-1200.5" font-family="SegoeUI" font-size="10.00">+ WorldFromScreen()</text>
<text text-anchor="start" x="371.5" y="-1189.5" font-family="SegoeUI" font-size="10.00">+ WorldFromViewport()</text>
<text text-anchor="start" x="371.5" y="-1178.5" font-family="SegoeUI" font-size="10.00">+ IsButtonDown()</text>
<text text-anchor="start" x="371.5" y="-1167.5" font-family="SegoeUI" font-size="10.00">+ IsButtonPressed()</text>
<text text-anchor="start" x="371.5" y="-1156.5" font-family="SegoeUI" font-size="10.00">+ IsButtonUp()</text>
<text text-anchor="start" x="371.5" y="-1145.5" font-family="SegoeUI" font-size="10.00">+ Process()</text>
<text text-anchor="start" x="371.5" y="-1134.5" font-family="SegoeUI" font-size="10.00">+ SetProbe()</text>
</a>
</g>
</g>
<!-- Node6&#45;&gt;Node3 -->
<g id="edge6" class="edge"><title>Node6&#45;&gt;Node3</title>
<path fill="none" stroke="midnightblue" d="M360.425,-1118.03C356.63,-1108.59 352.956,-1099.18 349.5,-1090 345.841,-1080.28 342.199,-1070.31 338.596,-1060.22"/>
<polygon fill="none" stroke="midnightblue" points="357.257,-1119.53 364.257,-1127.49 363.745,-1116.91 357.257,-1119.53"/>
</g>
<!-- Node8 -->
<g id="node9" class="node"><title>Node8</title>
<g id="a_node9"><a xlink:href="../../df/dcd/interface_juniper_1_1_unity_1_1_input_1_1_pointers_1_1_screen_1_1_i_screen_device.html" target="_top" xlink:title=" ">
<polygon fill="white" stroke="black" points="358.5,-796 358.5,-864 478.5,-864 478.5,-796 358.5,-796"/>
<text text-anchor="middle" x="418.5" y="-852" font-family="SegoeUI" font-size="10.00">IScreenDevice</text>
<polyline fill="none" stroke="black" points="358.5,-845 478.5,-845 "/>
<text text-anchor="start" x="366.5" y="-833" font-family="SegoeUI" font-size="10.00">+ CameraPositionOffset</text>
<text text-anchor="start" x="366.5" y="-822" font-family="SegoeUI" font-size="10.00">+ CameraRotationOffset</text>
<polyline fill="none" stroke="black" points="358.5,-815 478.5,-815 "/>
<text text-anchor="middle" x="418.5" y="-803" font-family="SegoeUI" font-size="10.00"> </text>
</a>
</g>
</g>
<!-- Node6&#45;&gt;Node8 -->
<g id="edge9" class="edge"><title>Node6&#45;&gt;Node8</title>
<path fill="none" stroke="midnightblue" d="M423.117,-1117.26C421.654,-1026.54 419.9,-917.791 419.035,-864.196"/>
<polygon fill="none" stroke="midnightblue" points="419.619,-1117.44 423.28,-1127.38 426.619,-1117.33 419.619,-1117.44"/>
</g>
<!-- Node7 -->
<g id="node8" class="node"><title>Node7</title>
<g id="a_node8"><a xlink:href="../../dc/dc8/interface_juniper_1_1_input_1_1_pointers_1_1_i_pointer_buttons.html" target="_top" xlink:title=" ">
<polygon fill="white" stroke="black" points="187.5,-1215.5 187.5,-1316.5 345.5,-1316.5 345.5,-1215.5 187.5,-1215.5"/>
<text text-anchor="middle" x="266.5" y="-1304.5" font-family="SegoeUI" font-size="10.00">IPointerButtons&lt; ButtonIDType &gt;</text>
<polyline fill="none" stroke="black" points="187.5,-1297.5 345.5,-1297.5 "/>
<text text-anchor="start" x="195.5" y="-1285.5" font-family="SegoeUI" font-size="10.00">+ name</text>
<text text-anchor="start" x="195.5" y="-1274.5" font-family="SegoeUI" font-size="10.00">+ IsConnected</text>
<text text-anchor="start" x="195.5" y="-1263.5" font-family="SegoeUI" font-size="10.00">+ AnyButtonPressed</text>
<polyline fill="none" stroke="black" points="187.5,-1256.5 345.5,-1256.5 "/>
<text text-anchor="start" x="195.5" y="-1244.5" font-family="SegoeUI" font-size="10.00">+ IsButtonDown()</text>
<text text-anchor="start" x="195.5" y="-1233.5" font-family="SegoeUI" font-size="10.00">+ IsButtonPressed()</text>
<text text-anchor="start" x="195.5" y="-1222.5" font-family="SegoeUI" font-size="10.00">+ IsButtonUp()</text>
</a>
</g>
</g>
<!-- Node7&#45;&gt;Node3 -->
<g id="edge7" class="edge"><title>Node7&#45;&gt;Node3</title>
<path fill="none" stroke="midnightblue" d="M266.5,-1204.96C266.5,-1173.65 266.5,-1132.95 266.5,-1089.97"/>
<polygon fill="none" stroke="midnightblue" points="263,-1205.21 266.5,-1215.21 270,-1205.21 263,-1205.21"/>
</g>
<!-- Node8&#45;&gt;Node2 -->
<g id="edge8" class="edge"><title>Node8&#45;&gt;Node2</title>
<path fill="none" stroke="midnightblue" d="M411.102,-785.704C400.302,-722.498 380.172,-604.688 367.89,-532.809"/>
<polygon fill="none" stroke="midnightblue" points="407.682,-786.467 412.816,-795.735 414.582,-785.288 407.682,-786.467"/>
</g>
</g>
</svg>
