<?xml version="1.0" encoding="UTF-8" standalone="no"?>
<!DOCTYPE svg PUBLIC "-//W3C//DTD SVG 1.1//EN"
 "http://www.w3.org/Graphics/SVG/1.1/DTD/svg11.dtd">
<!-- Generated by graphviz version 2.38.0 (20140413.2041)
 -->
<!-- Title: Hjg.Pngcs.Chunks.PngChunkBKGD Pages: 1 -->
<svg width="168pt" height="845pt"
 viewBox="0.00 0.00 168.00 845.00" xmlns="http://www.w3.org/2000/svg" xmlns:xlink="http://www.w3.org/1999/xlink">
<g id="graph0" class="graph" transform="scale(1 1) rotate(0) translate(4 841)">
<title>Hjg.Pngcs.Chunks.PngChunkBKGD</title>
<polygon fill="white" stroke="none" points="-4,4 -4,-841 164,-841 164,4 -4,4"/>
<!-- Node3 -->
<g id="node1" class="node"><title>Node3</title>
<g id="a_node1"><a xlink:title="bKGD chunk, see http://www.w3.org/TR/PNG/#11bKGD">
<polygon fill="#bfbfbf" stroke="black" points="0,-0.5 0,-233.5 160,-233.5 160,-0.5 0,-0.5"/>
<text text-anchor="middle" x="80" y="-221.5" font-family="SegoeUI" font-size="10.00">Hjg.Pngcs.Chunks.PngChunkBKGD</text>
<polyline fill="none" stroke="black" points="0,-214.5 160,-214.5 "/>
<text text-anchor="start" x="8" y="-202.5" font-family="SegoeUI" font-size="10.00">+ ID</text>
<text text-anchor="start" x="8" y="-191.5" font-family="SegoeUI" font-size="10.00">&#45; gray</text>
<text text-anchor="start" x="8" y="-180.5" font-family="SegoeUI" font-size="10.00">&#45; red</text>
<text text-anchor="start" x="8" y="-169.5" font-family="SegoeUI" font-size="10.00">&#45; green</text>
<text text-anchor="start" x="8" y="-158.5" font-family="SegoeUI" font-size="10.00">&#45; blue</text>
<text text-anchor="start" x="8" y="-147.5" font-family="SegoeUI" font-size="10.00">&#45; paletteIndex</text>
<polyline fill="none" stroke="black" points="0,-140.5 160,-140.5 "/>
<text text-anchor="start" x="8" y="-128.5" font-family="SegoeUI" font-size="10.00">+ PngChunkBKGD()</text>
<text text-anchor="start" x="8" y="-117.5" font-family="SegoeUI" font-size="10.00">+ GetOrderingConstraint()</text>
<text text-anchor="start" x="8" y="-106.5" font-family="SegoeUI" font-size="10.00">+ CreateRawChunk()</text>
<text text-anchor="start" x="8" y="-95.5" font-family="SegoeUI" font-size="10.00">+ ParseFromRaw()</text>
<text text-anchor="start" x="8" y="-84.5" font-family="SegoeUI" font-size="10.00">+ CloneDataFromRead()</text>
<text text-anchor="start" x="8" y="-73.5" font-family="SegoeUI" font-size="10.00">+ SetGray()</text>
<text text-anchor="start" x="8" y="-62.5" font-family="SegoeUI" font-size="10.00">+ GetGray()</text>
<text text-anchor="start" x="8" y="-51.5" font-family="SegoeUI" font-size="10.00">+ SetPaletteIndex()</text>
<text text-anchor="start" x="8" y="-40.5" font-family="SegoeUI" font-size="10.00">+ GetPaletteIndex()</text>
<text text-anchor="start" x="8" y="-29.5" font-family="SegoeUI" font-size="10.00">+ SetRGB()</text>
<text text-anchor="start" x="8" y="-18.5" font-family="SegoeUI" font-size="10.00">+ GetRGB()</text>
<text text-anchor="start" x="8" y="-7.5" font-family="SegoeUI" font-size="10.00">&#45; CloneData()</text>
</a>
</g>
</g>
<!-- Node4 -->
<g id="node2" class="node"><title>Node4</title>
<g id="a_node2"><a xlink:href="../../d2/dc1/class_hjg_1_1_pngcs_1_1_chunks_1_1_png_chunk_single.html" target="_top" xlink:title="A Chunk type that does not allow duplicate in an image">
<polygon fill="white" stroke="black" points="29,-271.5 29,-361.5 131,-361.5 131,-271.5 29,-271.5"/>
<text text-anchor="middle" x="80" y="-349.5" font-family="SegoeUI" font-size="10.00">PngChunkSingle</text>
<polyline fill="none" stroke="black" points="29,-342.5 131,-342.5 "/>
<text text-anchor="middle" x="80" y="-330.5" font-family="SegoeUI" font-size="10.00"> </text>
<polyline fill="none" stroke="black" points="29,-323.5 131,-323.5 "/>
<text text-anchor="start" x="37" y="-311.5" font-family="SegoeUI" font-size="10.00">+ AllowsMultiple()</text>
<text text-anchor="start" x="37" y="-300.5" font-family="SegoeUI" font-size="10.00">+ GetHashCode()</text>
<text text-anchor="start" x="37" y="-289.5" font-family="SegoeUI" font-size="10.00">+ Equals()</text>
<text text-anchor="start" x="37" y="-278.5" font-family="SegoeUI" font-size="10.00"># PngChunkSingle()</text>
</a>
</g>
</g>
<!-- Node4&#45;&gt;Node3 -->
<g id="edge1" class="edge"><title>Node4&#45;&gt;Node3</title>
<path fill="none" stroke="midnightblue" d="M80,-260.987C80,-252.384 80,-243.217 80,-233.837"/>
<polygon fill="none" stroke="midnightblue" points="76.5001,-261.177 80,-271.177 83.5001,-261.177 76.5001,-261.177"/>
</g>
<!-- Node5 -->
<g id="node3" class="node"><title>Node5</title>
<g id="a_node3"><a xlink:href="../../d8/dd4/class_hjg_1_1_pngcs_1_1_chunks_1_1_abstract_png_chunk.html" target="_top" xlink:title="Represents a instance of a PNG chunk">
<polygon fill="white" stroke="black" points="16,-399.5 16,-731.5 144,-731.5 144,-399.5 16,-399.5"/>
<text text-anchor="middle" x="80" y="-719.5" font-family="SegoeUI" font-size="10.00">AbstractPngChunk</text>
<polyline fill="none" stroke="black" points="16,-712.5 144,-712.5 "/>
<text text-anchor="start" x="24" y="-700.5" font-family="SegoeUI" font-size="10.00">+ Id</text>
<text text-anchor="start" x="24" y="-689.5" font-family="SegoeUI" font-size="10.00">+ Crit</text>
<text text-anchor="start" x="24" y="-678.5" font-family="SegoeUI" font-size="10.00">+ Pub</text>
<text text-anchor="start" x="24" y="-667.5" font-family="SegoeUI" font-size="10.00">+ Safe</text>
<text text-anchor="start" x="24" y="-656.5" font-family="SegoeUI" font-size="10.00">+ ImgInfo</text>
<text text-anchor="start" x="24" y="-645.5" font-family="SegoeUI" font-size="10.00">+ Priority</text>
<text text-anchor="start" x="24" y="-634.5" font-family="SegoeUI" font-size="10.00">+ ChunkGroup</text>
<text text-anchor="start" x="24" y="-623.5" font-family="SegoeUI" font-size="10.00">+ Length</text>
<text text-anchor="start" x="24" y="-612.5" font-family="SegoeUI" font-size="10.00">+ Offset</text>
<polyline fill="none" stroke="black" points="16,-605.5 144,-605.5 "/>
<text text-anchor="start" x="24" y="-593.5" font-family="SegoeUI" font-size="10.00">+ CreateEmptyChunk()</text>
<text text-anchor="start" x="24" y="-582.5" font-family="SegoeUI" font-size="10.00">+ ToString()</text>
<text text-anchor="start" x="24" y="-571.5" font-family="SegoeUI" font-size="10.00">+ CreateRawChunk()</text>
<text text-anchor="start" x="24" y="-560.5" font-family="SegoeUI" font-size="10.00">+ ParseFromRaw()</text>
<text text-anchor="start" x="24" y="-549.5" font-family="SegoeUI" font-size="10.00">+ CloneDataFromRead()</text>
<text text-anchor="start" x="24" y="-538.5" font-family="SegoeUI" font-size="10.00">+ AllowsMultiple()</text>
<text text-anchor="start" x="24" y="-527.5" font-family="SegoeUI" font-size="10.00">+ GetOrderingConstraint()</text>
<text text-anchor="start" x="24" y="-516.5" font-family="SegoeUI" font-size="10.00">+ FactoryRegister()</text>
<text text-anchor="start" x="24" y="-505.5" font-family="SegoeUI" font-size="10.00">+ CloneChunk&lt; T &gt;()</text>
<text text-anchor="start" x="24" y="-494.5" font-family="SegoeUI" font-size="10.00"># AbstractPngChunk()</text>
<text text-anchor="start" x="24" y="-483.5" font-family="SegoeUI" font-size="10.00">&#45; MustGoBeforePLTE()</text>
<text text-anchor="start" x="24" y="-472.5" font-family="SegoeUI" font-size="10.00">&#45; MustGoBeforeIDAT()</text>
<text text-anchor="start" x="24" y="-461.5" font-family="SegoeUI" font-size="10.00">&#45; MustGoAfterPLTE()</text>
<text text-anchor="start" x="24" y="-450.5" font-family="SegoeUI" font-size="10.00">&#45; Write()</text>
<text text-anchor="start" x="24" y="-439.5" font-family="SegoeUI" font-size="10.00">&#45; InitFactory()</text>
<text text-anchor="start" x="24" y="-428.5" font-family="SegoeUI" font-size="10.00">&#45; IsKnown()</text>
<text text-anchor="start" x="24" y="-417.5" font-family="SegoeUI" font-size="10.00">&#45; Factory()</text>
<text text-anchor="start" x="24" y="-406.5" font-family="SegoeUI" font-size="10.00">&#45; FactoryFromId()</text>
</a>
</g>
</g>
<!-- Node5&#45;&gt;Node4 -->
<g id="edge2" class="edge"><title>Node5&#45;&gt;Node4</title>
<path fill="none" stroke="midnightblue" d="M80,-389.373C80,-379.509 80,-370.18 80,-361.713"/>
<polygon fill="none" stroke="midnightblue" points="76.5001,-389.404 80,-399.404 83.5001,-389.404 76.5001,-389.404"/>
</g>
<!-- Node6 -->
<g id="node4" class="node"><title>Node6</title>
<g id="a_node4"><a xlink:title=" ">
<polygon fill="white" stroke="#bfbfbf" points="60.5,-779.5 60.5,-836.5 99.5,-836.5 99.5,-779.5 60.5,-779.5"/>
<text text-anchor="middle" x="80" y="-824.5" font-family="SegoeUI" font-size="10.00">static</text>
<polyline fill="none" stroke="#bfbfbf" points="60.5,-817.5 99.5,-817.5 "/>
<text text-anchor="middle" x="80" y="-805.5" font-family="SegoeUI" font-size="10.00"> </text>
<polyline fill="none" stroke="#bfbfbf" points="60.5,-798.5 99.5,-798.5 "/>
<text text-anchor="middle" x="80" y="-786.5" font-family="SegoeUI" font-size="10.00"> </text>
</a>
</g>
</g>
<!-- Node6&#45;&gt;Node5 -->
<g id="edge3" class="edge"><title>Node6&#45;&gt;Node5</title>
<path fill="none" stroke="#404040" d="M80,-779.412C80,-769.392 80,-757.194 80,-743.761"/>
<polygon fill="none" stroke="#404040" points="80.0001,-743.662 76,-737.662 80,-731.662 84,-737.662 80.0001,-743.662"/>
<text text-anchor="middle" x="107.5" y="-753" font-family="SegoeUI" font-size="10.00"> &#45;factoryMap</text>
</g>
</g>
</svg>
