<?xml version="1.0" encoding="UTF-8" standalone="no"?>
<!DOCTYPE svg PUBLIC "-//W3C//DTD SVG 1.1//EN"
 "http://www.w3.org/Graphics/SVG/1.1/DTD/svg11.dtd">
<!-- Generated by graphviz version 2.38.0 (20140413.2041)
 -->
<!-- Title: Juniper.Unity.World.LightEstimation.IndoorLightEstimate Pages: 1 -->
<svg width="178pt" height="507pt"
 viewBox="0.00 0.00 177.50 507.00" xmlns="http://www.w3.org/2000/svg" xmlns:xlink="http://www.w3.org/1999/xlink">
<g id="graph0" class="graph" transform="scale(1 1) rotate(0) translate(4 503)">
<title>Juniper.Unity.World.LightEstimation.IndoorLightEstimate</title>
<polygon fill="white" stroke="none" points="-4,4 -4,-503 173.5,-503 173.5,4 -4,4"/>
<!-- Node0 -->
<g id="node1" class="node"><title>Node0</title>
<g id="a_node1"><a xlink:title="Uses the AR subsystem&#39;s light estimation values to modify the current ambient and directional light s...">
<polygon fill="#bfbfbf" stroke="black" points="13.5,-0.5 13.5,-90.5 162.5,-90.5 162.5,-0.5 13.5,-0.5"/>
<text text-anchor="start" x="21.5" y="-78.5" font-family="SegoeUI" font-size="10.00">Juniper.Unity.World.Light</text>
<text text-anchor="middle" x="88" y="-67.5" font-family="SegoeUI" font-size="10.00">Estimation.IndoorLightEstimate</text>
<polyline fill="none" stroke="black" points="13.5,-60.5 162.5,-60.5 "/>
<text text-anchor="start" x="21.5" y="-48.5" font-family="SegoeUI" font-size="10.00">+ CloudCover</text>
<text text-anchor="start" x="21.5" y="-37.5" font-family="SegoeUI" font-size="10.00">+ HasSunRotation</text>
<text text-anchor="start" x="21.5" y="-26.5" font-family="SegoeUI" font-size="10.00">+ SunRotation</text>
<polyline fill="none" stroke="black" points="13.5,-19.5 162.5,-19.5 "/>
<text text-anchor="middle" x="88" y="-7.5" font-family="SegoeUI" font-size="10.00"> </text>
</a>
</g>
</g>
<!-- Node1 -->
<g id="node2" class="node"><title>Node1</title>
<g id="a_node2"><a xlink:href="../../db/d0d/class_juniper_1_1_unity_1_1_world_1_1_light_estimation_1_1_abstract_light_estimate.html" target="_top" xlink:title=" ">
<polygon fill="white" stroke="black" points="33.5,-127.5 33.5,-382.5 142.5,-382.5 142.5,-127.5 33.5,-127.5"/>
<text text-anchor="middle" x="88" y="-370.5" font-family="SegoeUI" font-size="10.00">AbstractLightEstimate</text>
<polyline fill="none" stroke="black" points="33.5,-363.5 142.5,-363.5 "/>
<text text-anchor="start" x="41.5" y="-351.5" font-family="SegoeUI" font-size="10.00">+ SetAmbientLight</text>
<text text-anchor="start" x="41.5" y="-340.5" font-family="SegoeUI" font-size="10.00">+ ambientScale</text>
<text text-anchor="start" x="41.5" y="-329.5" font-family="SegoeUI" font-size="10.00">+ SetDirectionalLight</text>
<text text-anchor="start" x="41.5" y="-318.5" font-family="SegoeUI" font-size="10.00">+ directionalScale</text>
<text text-anchor="start" x="41.5" y="-307.5" font-family="SegoeUI" font-size="10.00">+ shadowScale</text>
<text text-anchor="start" x="41.5" y="-296.5" font-family="SegoeUI" font-size="10.00">+ CloudCoverScale</text>
<text text-anchor="start" x="41.5" y="-285.5" font-family="SegoeUI" font-size="10.00">+ DebugReport</text>
<text text-anchor="start" x="41.5" y="-274.5" font-family="SegoeUI" font-size="10.00">+ CloudCover</text>
<text text-anchor="start" x="41.5" y="-263.5" font-family="SegoeUI" font-size="10.00">+ HasSunRotation</text>
<text text-anchor="start" x="41.5" y="-252.5" font-family="SegoeUI" font-size="10.00">+ SunRotation</text>
<text text-anchor="start" x="41.5" y="-241.5" font-family="SegoeUI" font-size="10.00"># sun</text>
<text text-anchor="start" x="41.5" y="-230.5" font-family="SegoeUI" font-size="10.00"># measurement</text>
<text text-anchor="start" x="41.5" y="-219.5" font-family="SegoeUI" font-size="10.00"># overhead</text>
<polyline fill="none" stroke="black" points="33.5,-212.5 142.5,-212.5 "/>
<text text-anchor="start" x="41.5" y="-200.5" font-family="SegoeUI" font-size="10.00">+ Reinstall()</text>
<text text-anchor="start" x="41.5" y="-189.5" font-family="SegoeUI" font-size="10.00">+ Install()</text>
<text text-anchor="start" x="41.5" y="-178.5" font-family="SegoeUI" font-size="10.00">+ Uninstall()</text>
<text text-anchor="start" x="41.5" y="-167.5" font-family="SegoeUI" font-size="10.00"># RampIntensity()</text>
<text text-anchor="start" x="41.5" y="-156.5" font-family="SegoeUI" font-size="10.00"># Awake()</text>
<text text-anchor="start" x="41.5" y="-145.5" font-family="SegoeUI" font-size="10.00"># Update()</text>
<text text-anchor="start" x="41.5" y="-134.5" font-family="SegoeUI" font-size="10.00">&#45; PrintDebugReport()</text>
</a>
</g>
</g>
<!-- Node1&#45;&gt;Node0 -->
<g id="edge1" class="edge"><title>Node1&#45;&gt;Node0</title>
<path fill="none" stroke="midnightblue" d="M88,-117.088C88,-107.787 88,-98.8842 88,-90.7237"/>
<polygon fill="none" stroke="midnightblue" points="84.5001,-117.319 88,-127.319 91.5001,-117.319 84.5001,-117.319"/>
</g>
<!-- Node2 -->
<g id="node3" class="node"><title>Node2</title>
<g id="a_node3"><a xlink:title=" ">
<polygon fill="white" stroke="#bfbfbf" points="0,-430.5 0,-487.5 82,-487.5 82,-430.5 0,-430.5"/>
<text text-anchor="middle" x="41" y="-475.5" font-family="SegoeUI" font-size="10.00">MonoBehaviour</text>
<polyline fill="none" stroke="#bfbfbf" points="0,-468.5 82,-468.5 "/>
<text text-anchor="middle" x="41" y="-456.5" font-family="SegoeUI" font-size="10.00"> </text>
<polyline fill="none" stroke="#bfbfbf" points="0,-449.5 82,-449.5 "/>
<text text-anchor="middle" x="41" y="-437.5" font-family="SegoeUI" font-size="10.00"> </text>
</a>
</g>
</g>
<!-- Node2&#45;&gt;Node1 -->
<g id="edge2" class="edge"><title>Node2&#45;&gt;Node1</title>
<path fill="none" stroke="midnightblue" d="M49.7047,-420.588C52.3072,-409.403 55.3178,-396.464 58.4846,-382.853"/>
<polygon fill="none" stroke="midnightblue" points="46.2939,-419.803 47.4366,-430.336 53.1118,-421.39 46.2939,-419.803"/>
</g>
<!-- Node3 -->
<g id="node4" class="node"><title>Node3</title>
<g id="a_node4"><a xlink:href="../../db/d28/interface_juniper_1_1_i_installable.html" target="_top" xlink:title="Defines an interface for objects that can be installed and have their installation progress tracked.">
<polygon fill="white" stroke="black" points="100.5,-419.5 100.5,-498.5 169.5,-498.5 169.5,-419.5 100.5,-419.5"/>
<text text-anchor="middle" x="135" y="-486.5" font-family="SegoeUI" font-size="10.00">IInstallable</text>
<polyline fill="none" stroke="black" points="100.5,-479.5 169.5,-479.5 "/>
<text text-anchor="middle" x="135" y="-467.5" font-family="SegoeUI" font-size="10.00"> </text>
<polyline fill="none" stroke="black" points="100.5,-460.5 169.5,-460.5 "/>
<text text-anchor="start" x="108.5" y="-448.5" font-family="SegoeUI" font-size="10.00">+ Install()</text>
<text text-anchor="start" x="108.5" y="-437.5" font-family="SegoeUI" font-size="10.00">+ Reinstall()</text>
<text text-anchor="start" x="108.5" y="-426.5" font-family="SegoeUI" font-size="10.00">+ Uninstall()</text>
</a>
</g>
</g>
<!-- Node3&#45;&gt;Node1 -->
<g id="edge3" class="edge"><title>Node3&#45;&gt;Node1</title>
<path fill="none" stroke="midnightblue" d="M123.654,-409.237C121.715,-400.904 119.624,-391.918 117.461,-382.621"/>
<polygon fill="none" stroke="midnightblue" points="120.263,-410.106 125.938,-419.052 127.081,-408.519 120.263,-410.106"/>
</g>
</g>
</svg>
