<?xml version="1.0" encoding="UTF-8" standalone="no"?>
<!DOCTYPE svg PUBLIC "-//W3C//DTD SVG 1.1//EN"
 "http://www.w3.org/Graphics/SVG/1.1/DTD/svg11.dtd">
<!-- Generated by graphviz version 2.38.0 (20140413.2041)
 -->
<!-- Title: Juniper.Unity.AbstractStateController Pages: 1 -->
<svg width="140pt" height="424pt"
 viewBox="0.00 0.00 140.00 424.00" xmlns="http://www.w3.org/2000/svg" xmlns:xlink="http://www.w3.org/1999/xlink">
<g id="graph0" class="graph" transform="scale(1 1) rotate(0) translate(4 420)">
<title>Juniper.Unity.AbstractStateController</title>
<polygon fill="white" stroke="none" points="-4,4 -4,-420 136,-420 136,4 -4,4"/>
<!-- Node12 -->
<g id="node1" class="node"><title>Node12</title>
<g id="a_node1"><a xlink:title="A subscene is a game object loaded from another scene. The scenes all get loaded at runtime and then ...">
<polygon fill="#bfbfbf" stroke="black" points="0,-0.5 0,-321.5 132,-321.5 132,-0.5 0,-0.5"/>
<text text-anchor="start" x="8" y="-309.5" font-family="SegoeUI" font-size="10.00">Juniper.Unity.AbstractState</text>
<text text-anchor="middle" x="66" y="-298.5" font-family="SegoeUI" font-size="10.00">Controller</text>
<polyline fill="none" stroke="black" points="0,-291.5 132,-291.5 "/>
<text text-anchor="start" x="8" y="-279.5" font-family="SegoeUI" font-size="10.00">+ onEntering</text>
<text text-anchor="start" x="8" y="-268.5" font-family="SegoeUI" font-size="10.00">+ onEntered</text>
<text text-anchor="start" x="8" y="-257.5" font-family="SegoeUI" font-size="10.00">+ onExiting</text>
<text text-anchor="start" x="8" y="-246.5" font-family="SegoeUI" font-size="10.00">+ onExited</text>
<text text-anchor="start" x="8" y="-235.5" font-family="SegoeUI" font-size="10.00">+ state</text>
<text text-anchor="start" x="8" y="-224.5" font-family="SegoeUI" font-size="10.00">+ IsComplete</text>
<text text-anchor="start" x="8" y="-213.5" font-family="SegoeUI" font-size="10.00">+ IsRunning</text>
<text text-anchor="start" x="8" y="-202.5" font-family="SegoeUI" font-size="10.00">+ IsEntered</text>
<text text-anchor="start" x="8" y="-191.5" font-family="SegoeUI" font-size="10.00">+ IsExited</text>
<text text-anchor="start" x="8" y="-180.5" font-family="SegoeUI" font-size="10.00">+ Waiter</text>
<text text-anchor="start" x="8" y="-169.5" font-family="SegoeUI" font-size="10.00">&#45; lastState</text>
<text text-anchor="start" x="8" y="-158.5" font-family="SegoeUI" font-size="10.00">&#45; skipEvents</text>
<text text-anchor="start" x="8" y="-147.5" font-family="SegoeUI" font-size="10.00">&#45; _waiter</text>
<polyline fill="none" stroke="black" points="0,-140.5 132,-140.5 "/>
<text text-anchor="start" x="8" y="-128.5" font-family="SegoeUI" font-size="10.00">+ HasCompleted()</text>
<text text-anchor="start" x="8" y="-117.5" font-family="SegoeUI" font-size="10.00">+ SkipEnter()</text>
<text text-anchor="start" x="8" y="-106.5" font-family="SegoeUI" font-size="10.00">+ Enter()</text>
<text text-anchor="start" x="8" y="-95.5" font-family="SegoeUI" font-size="10.00">+ OnEnable()</text>
<text text-anchor="start" x="8" y="-84.5" font-family="SegoeUI" font-size="10.00">+ Update()</text>
<text text-anchor="start" x="8" y="-73.5" font-family="SegoeUI" font-size="10.00">+ SkipExit()</text>
<text text-anchor="start" x="8" y="-62.5" font-family="SegoeUI" font-size="10.00">+ Exit()</text>
<text text-anchor="start" x="8" y="-51.5" font-family="SegoeUI" font-size="10.00">+ OnDisable()</text>
<text text-anchor="start" x="8" y="-40.5" font-family="SegoeUI" font-size="10.00"># OnEntering()</text>
<text text-anchor="start" x="8" y="-29.5" font-family="SegoeUI" font-size="10.00"># OnEntered()</text>
<text text-anchor="start" x="8" y="-18.5" font-family="SegoeUI" font-size="10.00"># OnExiting()</text>
<text text-anchor="start" x="8" y="-7.5" font-family="SegoeUI" font-size="10.00"># OnExited()</text>
</a>
</g>
</g>
<!-- Node13 -->
<g id="node2" class="node"><title>Node13</title>
<g id="a_node2"><a xlink:title=" ">
<polygon fill="white" stroke="#bfbfbf" points="25,-358.5 25,-415.5 107,-415.5 107,-358.5 25,-358.5"/>
<text text-anchor="middle" x="66" y="-403.5" font-family="SegoeUI" font-size="10.00">MonoBehaviour</text>
<polyline fill="none" stroke="#bfbfbf" points="25,-396.5 107,-396.5 "/>
<text text-anchor="middle" x="66" y="-384.5" font-family="SegoeUI" font-size="10.00"> </text>
<polyline fill="none" stroke="#bfbfbf" points="25,-377.5 107,-377.5 "/>
<text text-anchor="middle" x="66" y="-365.5" font-family="SegoeUI" font-size="10.00"> </text>
</a>
</g>
</g>
<!-- Node13&#45;&gt;Node12 -->
<g id="edge1" class="edge"><title>Node13&#45;&gt;Node12</title>
<path fill="none" stroke="midnightblue" d="M66,-347.906C66,-340.019 66,-331.248 66,-321.931"/>
<polygon fill="none" stroke="midnightblue" points="62.5001,-348.083 66,-358.083 69.5001,-348.083 62.5001,-348.083"/>
</g>
</g>
</svg>
