<?xml version="1.0" encoding="UTF-8" standalone="no"?>
<!DOCTYPE svg PUBLIC "-//W3C//DTD SVG 1.1//EN"
 "http://www.w3.org/Graphics/SVG/1.1/DTD/svg11.dtd">
<!-- Generated by graphviz version 2.38.0 (20140413.2041)
 -->
<!-- Title: Juniper.Speech.AbstractKeywordRecognizer Pages: 1 -->
<svg width="216pt" height="447pt"
 viewBox="0.00 0.00 215.50 447.00" xmlns="http://www.w3.org/2000/svg" xmlns:xlink="http://www.w3.org/1999/xlink">
<g id="graph0" class="graph" transform="scale(1 1) rotate(0) translate(4 443)">
<title>Juniper.Speech.AbstractKeywordRecognizer</title>
<polygon fill="white" stroke="none" points="-4,4 -4,-443 211.5,-443 211.5,4 -4,4"/>
<!-- Node0 -->
<g id="node1" class="node"><title>Node0</title>
<g id="a_node1"><a xlink:title="A class that implements basic functionality for systems that manage speech recognition and route out ...">
<polygon fill="#bfbfbf" stroke="black" points="18.5,-210.5 18.5,-344.5 175.5,-344.5 175.5,-210.5 18.5,-210.5"/>
<text text-anchor="start" x="26.5" y="-332.5" font-family="SegoeUI" font-size="10.00">Juniper.Speech.AbstractKeyword</text>
<text text-anchor="middle" x="97" y="-321.5" font-family="SegoeUI" font-size="10.00">Recognizer</text>
<polyline fill="none" stroke="black" points="18.5,-314.5 175.5,-314.5 "/>
<text text-anchor="start" x="26.5" y="-302.5" font-family="SegoeUI" font-size="10.00">+ onKeywordRecognized</text>
<text text-anchor="start" x="26.5" y="-291.5" font-family="SegoeUI" font-size="10.00"># keywords</text>
<polyline fill="none" stroke="black" points="18.5,-284.5 175.5,-284.5 "/>
<text text-anchor="start" x="26.5" y="-272.5" font-family="SegoeUI" font-size="10.00">+ RefreshKeywords()</text>
<text text-anchor="start" x="26.5" y="-261.5" font-family="SegoeUI" font-size="10.00">+ OnEnable()</text>
<text text-anchor="start" x="26.5" y="-250.5" font-family="SegoeUI" font-size="10.00">+ OnDisable()</text>
<text text-anchor="start" x="26.5" y="-239.5" font-family="SegoeUI" font-size="10.00"># OnKeywordRecognized()</text>
<text text-anchor="start" x="26.5" y="-228.5" font-family="SegoeUI" font-size="10.00"># Setup()</text>
<text text-anchor="start" x="26.5" y="-217.5" font-family="SegoeUI" font-size="10.00"># TearDown()</text>
</a>
</g>
</g>
<!-- Node3 -->
<g id="node4" class="node"><title>Node3</title>
<g id="a_node4"><a xlink:href="../../d1/db3/class_juniper_1_1_speech_1_1_no_keyword_recognizer.html" target="_top" xlink:title=" ">
<polygon fill="white" stroke="black" points="30.5,-94.5 30.5,-173.5 163.5,-173.5 163.5,-94.5 30.5,-94.5"/>
<text text-anchor="start" x="38.5" y="-161.5" font-family="SegoeUI" font-size="10.00">Juniper.Speech.NoKeyword</text>
<text text-anchor="middle" x="97" y="-150.5" font-family="SegoeUI" font-size="10.00">Recognizer</text>
<polyline fill="none" stroke="black" points="30.5,-143.5 163.5,-143.5 "/>
<text text-anchor="start" x="38.5" y="-131.5" font-family="SegoeUI" font-size="10.00">+ IsAvailable</text>
<polyline fill="none" stroke="black" points="30.5,-124.5 163.5,-124.5 "/>
<text text-anchor="start" x="38.5" y="-112.5" font-family="SegoeUI" font-size="10.00"># Setup()</text>
<text text-anchor="start" x="38.5" y="-101.5" font-family="SegoeUI" font-size="10.00"># TearDown()</text>
</a>
</g>
</g>
<!-- Node0&#45;&gt;Node3 -->
<g id="edge3" class="edge"><title>Node0&#45;&gt;Node3</title>
<path fill="none" stroke="midnightblue" d="M97,-200.03C97,-190.947 97,-181.99 97,-173.763"/>
<polygon fill="none" stroke="midnightblue" points="93.5001,-200.307 97,-210.307 100.5,-200.307 93.5001,-200.307"/>
</g>
<!-- Node1 -->
<g id="node2" class="node"><title>Node1</title>
<g id="a_node2"><a xlink:title=" ">
<polygon fill="white" stroke="#bfbfbf" points="0,-381.5 0,-438.5 82,-438.5 82,-381.5 0,-381.5"/>
<text text-anchor="middle" x="41" y="-426.5" font-family="SegoeUI" font-size="10.00">MonoBehaviour</text>
<polyline fill="none" stroke="#bfbfbf" points="0,-419.5 82,-419.5 "/>
<text text-anchor="middle" x="41" y="-407.5" font-family="SegoeUI" font-size="10.00"> </text>
<polyline fill="none" stroke="#bfbfbf" points="0,-400.5 82,-400.5 "/>
<text text-anchor="middle" x="41" y="-388.5" font-family="SegoeUI" font-size="10.00"> </text>
</a>
</g>
</g>
<!-- Node1&#45;&gt;Node0 -->
<g id="edge1" class="edge"><title>Node1&#45;&gt;Node0</title>
<path fill="none" stroke="midnightblue" d="M56.8793,-371.996C60.5721,-363.39 64.6135,-353.972 68.6642,-344.533"/>
<polygon fill="none" stroke="midnightblue" points="53.6033,-370.754 52.8762,-381.324 60.036,-373.515 53.6033,-370.754"/>
</g>
<!-- Node2 -->
<g id="node3" class="node"><title>Node2</title>
<g id="a_node3"><a xlink:href="../../da/d4a/interface_juniper_1_1_speech_1_1_i_keyword_recognizer.html" target="_top" xlink:title=" ">
<polygon fill="white" stroke="black" points="100.5,-381.5 100.5,-438.5 207.5,-438.5 207.5,-381.5 100.5,-381.5"/>
<text text-anchor="middle" x="154" y="-426.5" font-family="SegoeUI" font-size="10.00">IKeywordRecognizer</text>
<polyline fill="none" stroke="black" points="100.5,-419.5 207.5,-419.5 "/>
<text text-anchor="middle" x="154" y="-407.5" font-family="SegoeUI" font-size="10.00"> </text>
<polyline fill="none" stroke="black" points="100.5,-400.5 207.5,-400.5 "/>
<text text-anchor="start" x="108.5" y="-388.5" font-family="SegoeUI" font-size="10.00">+ RefreshKeywords()</text>
</a>
</g>
</g>
<!-- Node2&#45;&gt;Node0 -->
<g id="edge2" class="edge"><title>Node2&#45;&gt;Node0</title>
<path fill="none" stroke="midnightblue" d="M137.837,-371.996C134.078,-363.39 129.965,-353.972 125.842,-344.533"/>
<polygon fill="none" stroke="midnightblue" points="134.702,-373.561 141.912,-381.324 141.116,-370.759 134.702,-373.561"/>
</g>
<!-- Node4 -->
<g id="node5" class="node"><title>Node4</title>
<g id="a_node5"><a xlink:href="../../d9/d33/class_juniper_1_1_speech_1_1_keyword_recognizer.html" target="_top" xlink:title=" ">
<polygon fill="white" stroke="black" points="12.5,-0.5 12.5,-57.5 181.5,-57.5 181.5,-0.5 12.5,-0.5"/>
<text text-anchor="middle" x="97" y="-45.5" font-family="SegoeUI" font-size="10.00">Juniper.Speech.KeywordRecognizer</text>
<polyline fill="none" stroke="black" points="12.5,-38.5 181.5,-38.5 "/>
<text text-anchor="middle" x="97" y="-26.5" font-family="SegoeUI" font-size="10.00"> </text>
<polyline fill="none" stroke="black" points="12.5,-19.5 181.5,-19.5 "/>
<text text-anchor="middle" x="97" y="-7.5" font-family="SegoeUI" font-size="10.00"> </text>
</a>
</g>
</g>
<!-- Node3&#45;&gt;Node4 -->
<g id="edge4" class="edge"><title>Node3&#45;&gt;Node4</title>
<path fill="none" stroke="midnightblue" d="M97,-84.1628C97,-75.0404 97,-65.8063 97,-57.6095"/>
<polygon fill="none" stroke="midnightblue" points="93.5001,-84.3535 97,-94.3536 100.5,-84.3536 93.5001,-84.3535"/>
</g>
</g>
</svg>
