<?xml version="1.0" encoding="UTF-8" standalone="no"?>
<!DOCTYPE svg PUBLIC "-//W3C//DTD SVG 1.1//EN"
 "http://www.w3.org/Graphics/SVG/1.1/DTD/svg11.dtd">
<!-- Generated by graphviz version 2.38.0 (20140413.2041)
 -->
<!-- Title: Juniper.Collections.PriorityQueue&lt; T &gt; Pages: 1 -->
<svg width="288pt" height="391pt"
 viewBox="0.00 0.00 287.50 391.00" xmlns="http://www.w3.org/2000/svg" xmlns:xlink="http://www.w3.org/1999/xlink">
<g id="graph0" class="graph" transform="scale(1 1) rotate(0) translate(4 387)">
<title>Juniper.Collections.PriorityQueue&lt; T &gt;</title>
<polygon fill="white" stroke="none" points="-4,4 -4,-387 283.5,-387 283.5,4 -4,4"/>
<!-- Node4 -->
<g id="node1" class="node"><title>Node4</title>
<g id="a_node1"><a xlink:title="A queue data structure that places emphasis on some items over others.">
<polygon fill="#bfbfbf" stroke="black" points="58,-0.5 58,-288.5 187,-288.5 187,-0.5 58,-0.5"/>
<text text-anchor="start" x="66" y="-276.5" font-family="SegoeUI" font-size="10.00">Juniper.Collections.Priority</text>
<text text-anchor="middle" x="122.5" y="-265.5" font-family="SegoeUI" font-size="10.00">Queue&lt; T &gt;</text>
<polyline fill="none" stroke="black" points="58,-258.5 187,-258.5 "/>
<text text-anchor="start" x="66" y="-246.5" font-family="SegoeUI" font-size="10.00">+ Count</text>
<text text-anchor="start" x="66" y="-235.5" font-family="SegoeUI" font-size="10.00">+ IsSynchronized</text>
<text text-anchor="start" x="66" y="-224.5" font-family="SegoeUI" font-size="10.00">+ SyncRoot</text>
<text text-anchor="start" x="66" y="-213.5" font-family="SegoeUI" font-size="10.00">+ IsReadOnly</text>
<text text-anchor="start" x="66" y="-202.5" font-family="SegoeUI" font-size="10.00">+ Comparer</text>
<text text-anchor="start" x="66" y="-191.5" font-family="SegoeUI" font-size="10.00">&#45; q</text>
<polyline fill="none" stroke="black" points="58,-184.5 187,-184.5 "/>
<text text-anchor="start" x="66" y="-172.5" font-family="SegoeUI" font-size="10.00">+ PriorityQueue()</text>
<text text-anchor="start" x="66" y="-161.5" font-family="SegoeUI" font-size="10.00">+ PriorityQueue()</text>
<text text-anchor="start" x="66" y="-150.5" font-family="SegoeUI" font-size="10.00">+ PriorityQueue()</text>
<text text-anchor="start" x="66" y="-139.5" font-family="SegoeUI" font-size="10.00">+ PriorityQueue()</text>
<text text-anchor="start" x="66" y="-128.5" font-family="SegoeUI" font-size="10.00">+ Clear()</text>
<text text-anchor="start" x="66" y="-117.5" font-family="SegoeUI" font-size="10.00">+ Contains()</text>
<text text-anchor="start" x="66" y="-106.5" font-family="SegoeUI" font-size="10.00">+ CopyTo()</text>
<text text-anchor="start" x="66" y="-95.5" font-family="SegoeUI" font-size="10.00">+ Dequeue()</text>
<text text-anchor="start" x="66" y="-84.5" font-family="SegoeUI" font-size="10.00">+ Enqueue()</text>
<text text-anchor="start" x="66" y="-73.5" font-family="SegoeUI" font-size="10.00">+ Add()</text>
<text text-anchor="start" x="66" y="-62.5" font-family="SegoeUI" font-size="10.00">+ GetEnumerator()</text>
<text text-anchor="start" x="66" y="-51.5" font-family="SegoeUI" font-size="10.00">+ Peek()</text>
<text text-anchor="start" x="66" y="-40.5" font-family="SegoeUI" font-size="10.00">+ ToArray()</text>
<text text-anchor="start" x="66" y="-29.5" font-family="SegoeUI" font-size="10.00">+ Remove()</text>
<text text-anchor="start" x="66" y="-18.5" font-family="SegoeUI" font-size="10.00">&#45; CopyTo()</text>
<text text-anchor="start" x="66" y="-7.5" font-family="SegoeUI" font-size="10.00">&#45; GetEnumerator()</text>
</a>
</g>
</g>
<!-- Node5 -->
<g id="node2" class="node"><title>Node5</title>
<g id="a_node2"><a xlink:title=" ">
<polygon fill="white" stroke="#bfbfbf" points="0,-325.5 0,-382.5 61,-382.5 61,-325.5 0,-325.5"/>
<text text-anchor="middle" x="30.5" y="-370.5" font-family="SegoeUI" font-size="10.00">ICollection</text>
<polyline fill="none" stroke="#bfbfbf" points="0,-363.5 61,-363.5 "/>
<text text-anchor="middle" x="30.5" y="-351.5" font-family="SegoeUI" font-size="10.00"> </text>
<polyline fill="none" stroke="#bfbfbf" points="0,-344.5 61,-344.5 "/>
<text text-anchor="middle" x="30.5" y="-332.5" font-family="SegoeUI" font-size="10.00"> </text>
</a>
</g>
</g>
<!-- Node5&#45;&gt;Node4 -->
<g id="edge1" class="edge"><title>Node5&#45;&gt;Node4</title>
<path fill="none" stroke="midnightblue" d="M46.8198,-316.192C50.4975,-307.897 54.6171,-298.605 58.9842,-288.756"/>
<polygon fill="none" stroke="midnightblue" points="43.5705,-314.885 42.7169,-325.446 49.9698,-317.722 43.5705,-314.885"/>
</g>
<!-- Node6 -->
<g id="node3" class="node"><title>Node6</title>
<g id="a_node3"><a xlink:title=" ">
<polygon fill="white" stroke="#bfbfbf" points="79.5,-325.5 79.5,-382.5 165.5,-382.5 165.5,-325.5 79.5,-325.5"/>
<text text-anchor="middle" x="122.5" y="-370.5" font-family="SegoeUI" font-size="10.00">ICollection&lt; T &gt;</text>
<polyline fill="none" stroke="#bfbfbf" points="79.5,-363.5 165.5,-363.5 "/>
<text text-anchor="middle" x="122.5" y="-351.5" font-family="SegoeUI" font-size="10.00"> </text>
<polyline fill="none" stroke="#bfbfbf" points="79.5,-344.5 165.5,-344.5 "/>
<text text-anchor="middle" x="122.5" y="-332.5" font-family="SegoeUI" font-size="10.00"> </text>
</a>
</g>
</g>
<!-- Node6&#45;&gt;Node4 -->
<g id="edge2" class="edge"><title>Node6&#45;&gt;Node4</title>
<path fill="none" stroke="midnightblue" d="M122.5,-315.377C122.5,-307.29 122.5,-298.284 122.5,-288.756"/>
<polygon fill="none" stroke="midnightblue" points="119,-315.446 122.5,-325.446 126,-315.446 119,-315.446"/>
</g>
<!-- Node7 -->
<g id="node4" class="node"><title>Node7</title>
<g id="a_node4"><a xlink:title=" ">
<polygon fill="white" stroke="#bfbfbf" points="183.5,-325.5 183.5,-382.5 279.5,-382.5 279.5,-325.5 183.5,-325.5"/>
<text text-anchor="middle" x="231.5" y="-370.5" font-family="SegoeUI" font-size="10.00">IEnumerable&lt; T &gt;</text>
<polyline fill="none" stroke="#bfbfbf" points="183.5,-363.5 279.5,-363.5 "/>
<text text-anchor="middle" x="231.5" y="-351.5" font-family="SegoeUI" font-size="10.00"> </text>
<polyline fill="none" stroke="#bfbfbf" points="183.5,-344.5 279.5,-344.5 "/>
<text text-anchor="middle" x="231.5" y="-332.5" font-family="SegoeUI" font-size="10.00"> </text>
</a>
</g>
</g>
<!-- Node7&#45;&gt;Node4 -->
<g id="edge3" class="edge"><title>Node7&#45;&gt;Node4</title>
<path fill="none" stroke="midnightblue" d="M212.237,-316.33C204.963,-302.482 196.223,-285.844 187.091,-268.46"/>
<polygon fill="none" stroke="midnightblue" points="209.277,-318.22 217.026,-325.446 215.474,-314.965 209.277,-318.22"/>
</g>
</g>
</svg>
