<?xml version="1.0" encoding="UTF-8" standalone="no"?>
<!DOCTYPE svg PUBLIC "-//W3C//DTD SVG 1.1//EN"
 "http://www.w3.org/Graphics/SVG/1.1/DTD/svg11.dtd">
<!-- Generated by graphviz version 2.38.0 (20140413.2041)
 -->
<!-- Title: Juniper.Input.Pointers.Gaze.AbstractGazePointer Pages: 1 -->
<!--zoomable 1625 -->
<svg id="main" version="1.1" xmlns="http://www.w3.org/2000/svg" xmlns:xlink="http://www.w3.org/1999/xlink" xml:space="preserve" onload="init(evt)">
<style type="text/css"><![CDATA[
.edge:hover path { stroke: red; }
.edge:hover polygon { stroke: red; fill: red; }
]]></style>
<script type="text/javascript"><![CDATA[
var edges = document.getElementsByTagName('g');
if (edges && edges.length) {
  for (var i=0;i<edges.length;i++) {
    if (edges[i].id.substr(0,4)=='edge') {
      edges[i].setAttribute('class','edge');
    }
  }
}
]]></script>
        <defs>
                <circle id="rim" cx="0" cy="0" r="7"/>
                <circle id="rim2" cx="0" cy="0" r="3.5"/>
                <g id="zoomPlus">
                        <use xlink:href="#rim" fill="#404040">
                                <set attributeName="fill" to="#808080" begin="zoomplus.mouseover" end="zoomplus.mouseout"/>
                        </use>
                        <path d="M-4,0h8M0,-4v8" fill="none" stroke="white" stroke-width="1.5" pointer-events="none"/>
                </g>
                <g id="zoomMin">
                        <use xlink:href="#rim" fill="#404040">
                                <set attributeName="fill" to="#808080" begin="zoomminus.mouseover" end="zoomminus.mouseout"/>
                        </use>
                        <path d="M-4,0h8" fill="none" stroke="white" stroke-width="1.5" pointer-events="none"/>
                </g>
                <g id="dirArrow">
                        <path fill="none" stroke="white" stroke-width="1.5" d="M0,-3.0v7 M-2.5,-0.5L0,-3.0L2.5,-0.5"/>
                </g>
               <g id="resetDef">
                       <use xlink:href="#rim2" fill="#404040">
                               <set attributeName="fill" to="#808080" begin="reset.mouseover" end="reset.mouseout"/>
                       </use>
               </g>
        </defs>

<script type="text/javascript">
var viewWidth = 590;
var viewHeight = 1625;
var sectionId = 'dynsection-0';
</script>
<script xlink:href="../../svgpan.js"/>
<svg id="graph" class="graph">
<g id="viewport">
<title>Juniper.Input.Pointers.Gaze.AbstractGazePointer</title>
<polygon fill="white" stroke="none" points="-4,4 -4,-1621 586,-1621 586,4 -4,4"/>
<!-- Node0 -->
<g id="node1" class="node"><title>Node0</title>
<g id="a_node1"><a xlink:title=" ">
<polygon fill="#bfbfbf" stroke="black" points="290,-311.5 290,-511.5 427,-511.5 427,-311.5 290,-311.5"/>
<text text-anchor="start" x="298" y="-499.5" font-family="SegoeUI" font-size="10.00">Juniper.Input.Pointers.Gaze.</text>
<text text-anchor="middle" x="358.5" y="-488.5" font-family="SegoeUI" font-size="10.00">AbstractGazePointer</text>
<polyline fill="none" stroke="black" points="290,-481.5 427,-481.5 "/>
<text text-anchor="start" x="298" y="-469.5" font-family="SegoeUI" font-size="10.00">+ gazeThreshold</text>
<text text-anchor="start" x="298" y="-458.5" font-family="SegoeUI" font-size="10.00">+ IsConnected</text>
<text text-anchor="start" x="298" y="-447.5" font-family="SegoeUI" font-size="10.00"># gazed</text>
<text text-anchor="start" x="298" y="-436.5" font-family="SegoeUI" font-size="10.00">&#45; wasGazed</text>
<text text-anchor="start" x="298" y="-425.5" font-family="SegoeUI" font-size="10.00">&#45; lastTarget</text>
<text text-anchor="start" x="298" y="-414.5" font-family="SegoeUI" font-size="10.00">&#45; gazeTime</text>
<text text-anchor="start" x="298" y="-403.5" font-family="SegoeUI" font-size="10.00">&#45; target</text>
<polyline fill="none" stroke="black" points="290,-396.5 427,-396.5 "/>
<text text-anchor="start" x="298" y="-384.5" font-family="SegoeUI" font-size="10.00">+ IsButtonPressed()</text>
<text text-anchor="start" x="298" y="-373.5" font-family="SegoeUI" font-size="10.00">+ IsButtonDown()</text>
<text text-anchor="start" x="298" y="-362.5" font-family="SegoeUI" font-size="10.00">+ IsButtonUp()</text>
<text text-anchor="start" x="298" y="-351.5" font-family="SegoeUI" font-size="10.00">+ OnProbeFound()</text>
<text text-anchor="start" x="298" y="-340.5" font-family="SegoeUI" font-size="10.00">+ Process()</text>
<text text-anchor="start" x="298" y="-329.5" font-family="SegoeUI" font-size="10.00"># InternalUpdate()</text>
<text text-anchor="start" x="298" y="-318.5" font-family="SegoeUI" font-size="10.00"># MakeHapticsDevice()</text>
</a>
</g>
</g>
<!-- Node9 -->
<g id="node10" class="node"><title>Node9</title>
<g id="a_node10"><a xlink:href="../../d9/d31/class_juniper_1_1_input_1_1_pointers_1_1_gaze_1_1_nose_pointer.html" target="_top" xlink:title=" ">
<polygon fill="white" stroke="black" points="135,-156 135,-224 272,-224 272,-156 135,-156"/>
<text text-anchor="start" x="143" y="-212" font-family="SegoeUI" font-size="10.00">Juniper.Input.Pointers.Gaze.</text>
<text text-anchor="middle" x="203.5" y="-201" font-family="SegoeUI" font-size="10.00">NosePointer</text>
<polyline fill="none" stroke="black" points="135,-194 272,-194 "/>
<text text-anchor="start" x="143" y="-182" font-family="SegoeUI" font-size="10.00">+ WorldPoint</text>
<polyline fill="none" stroke="black" points="135,-175 272,-175 "/>
<text text-anchor="middle" x="203.5" y="-163" font-family="SegoeUI" font-size="10.00"> </text>
</a>
</g>
</g>
<!-- Node0&#45;&gt;Node9 -->
<g id="edge10" class="edge"><title>Node0&#45;&gt;Node9</title>
<path fill="none" stroke="midnightblue" d="M283.996,-304.992C263.238,-275.597 242.194,-245.795 226.831,-224.039"/>
<polygon fill="none" stroke="midnightblue" points="281.21,-307.116 289.838,-313.266 286.929,-303.078 281.21,-307.116"/>
</g>
<!-- Node10 -->
<g id="node11" class="node"><title>Node10</title>
<g id="a_node11"><a xlink:href="../../de/d9c/class_juniper_1_1_input_1_1_pointers_1_1_gaze_1_1_tobii_gaze_pointer.html" target="_top" xlink:title=" ">
<polygon fill="white" stroke="black" points="290,-134 290,-246 427,-246 427,-134 290,-134"/>
<text text-anchor="start" x="298" y="-234" font-family="SegoeUI" font-size="10.00">Juniper.Input.Pointers.Gaze.</text>
<text text-anchor="middle" x="358.5" y="-223" font-family="SegoeUI" font-size="10.00">TobiiGazePointer</text>
<polyline fill="none" stroke="black" points="290,-216 427,-216 "/>
<text text-anchor="start" x="298" y="-204" font-family="SegoeUI" font-size="10.00">+ IsConnected</text>
<text text-anchor="start" x="298" y="-193" font-family="SegoeUI" font-size="10.00">+ WorldPoint</text>
<text text-anchor="start" x="298" y="-182" font-family="SegoeUI" font-size="10.00">+ CameraPositionOffset</text>
<text text-anchor="start" x="298" y="-171" font-family="SegoeUI" font-size="10.00">&#45; lastGaze</text>
<text text-anchor="start" x="298" y="-160" font-family="SegoeUI" font-size="10.00">&#45; lastPose</text>
<polyline fill="none" stroke="black" points="290,-153 427,-153 "/>
<text text-anchor="middle" x="358.5" y="-141" font-family="SegoeUI" font-size="10.00"> </text>
</a>
</g>
</g>
<!-- Node0&#45;&gt;Node10 -->
<g id="edge11" class="edge"><title>Node0&#45;&gt;Node10</title>
<path fill="none" stroke="midnightblue" d="M358.5,-301.089C358.5,-282.038 358.5,-262.973 358.5,-246.192"/>
<polygon fill="none" stroke="midnightblue" points="355,-301.346 358.5,-311.346 362,-301.346 355,-301.346"/>
</g>
<!-- Node12 -->
<g id="node13" class="node"><title>Node12</title>
<g id="a_node13"><a xlink:href="../../df/d0b/class_juniper_1_1_input_1_1_pointers_1_1_gaze_1_1_touch_gaze_pointer.html" target="_top" xlink:title=" ">
<polygon fill="white" stroke="black" points="445,-106.5 445,-273.5 582,-273.5 582,-106.5 445,-106.5"/>
<text text-anchor="start" x="453" y="-261.5" font-family="SegoeUI" font-size="10.00">Juniper.Input.Pointers.Gaze.</text>
<text text-anchor="middle" x="513.5" y="-250.5" font-family="SegoeUI" font-size="10.00">TouchGazePointer</text>
<polyline fill="none" stroke="black" points="445,-243.5 582,-243.5 "/>
<text text-anchor="start" x="453" y="-231.5" font-family="SegoeUI" font-size="10.00">+ WorldPoint</text>
<text text-anchor="start" x="453" y="-220.5" font-family="SegoeUI" font-size="10.00">&#45; pressed</text>
<text text-anchor="start" x="453" y="-209.5" font-family="SegoeUI" font-size="10.00">&#45; wasPressed</text>
<text text-anchor="start" x="453" y="-198.5" font-family="SegoeUI" font-size="10.00">&#45; lastViewportPoint</text>
<polyline fill="none" stroke="black" points="445,-191.5 582,-191.5 "/>
<text text-anchor="start" x="453" y="-179.5" font-family="SegoeUI" font-size="10.00">+ Reinstall()</text>
<text text-anchor="start" x="453" y="-168.5" font-family="SegoeUI" font-size="10.00">+ Awake()</text>
<text text-anchor="start" x="453" y="-157.5" font-family="SegoeUI" font-size="10.00">+ IsButtonPressed()</text>
<text text-anchor="start" x="453" y="-146.5" font-family="SegoeUI" font-size="10.00">+ IsButtonUp()</text>
<text text-anchor="start" x="453" y="-135.5" font-family="SegoeUI" font-size="10.00">+ IsButtonDown()</text>
<text text-anchor="start" x="453" y="-124.5" font-family="SegoeUI" font-size="10.00">+ Update()</text>
<text text-anchor="start" x="453" y="-113.5" font-family="SegoeUI" font-size="10.00"># MakeHapticsDevice()</text>
</a>
</g>
</g>
<!-- Node0&#45;&gt;Node12 -->
<g id="edge13" class="edge"><title>Node0&#45;&gt;Node12</title>
<path fill="none" stroke="midnightblue" d="M433.073,-304.895C440.459,-294.435 447.881,-283.925 455.069,-273.746"/>
<polygon fill="none" stroke="midnightblue" points="430.071,-303.078 427.162,-313.266 435.79,-307.116 430.071,-303.078"/>
</g>
<!-- Node1 -->
<g id="node2" class="node"><title>Node1</title>
<g id="a_node2"><a xlink:href="../../d5/d55/class_juniper_1_1_input_1_1_pointers_1_1_screen_1_1_abstract_screen_device.html" target="_top" xlink:title=" ">
<polygon fill="white" stroke="black" points="269,-549.5 269,-628.5 448,-628.5 448,-549.5 269,-549.5"/>
<text text-anchor="start" x="277" y="-616.5" font-family="SegoeUI" font-size="10.00">AbstractScreenDevice</text>
<text text-anchor="middle" x="358.5" y="-605.5" font-family="SegoeUI" font-size="10.00">&lt; Unary, UnaryPointerConfiguration &gt;</text>
<polyline fill="none" stroke="black" points="269,-598.5 448,-598.5 "/>
<text text-anchor="start" x="277" y="-586.5" font-family="SegoeUI" font-size="10.00">+ CameraPositionOffset</text>
<text text-anchor="start" x="277" y="-575.5" font-family="SegoeUI" font-size="10.00">+ CameraRotationOffset</text>
<polyline fill="none" stroke="black" points="269,-568.5 448,-568.5 "/>
<text text-anchor="middle" x="358.5" y="-556.5" font-family="SegoeUI" font-size="10.00"> </text>
</a>
</g>
</g>
<!-- Node1&#45;&gt;Node0 -->
<g id="edge1" class="edge"><title>Node1&#45;&gt;Node0</title>
<path fill="none" stroke="midnightblue" d="M358.5,-539.218C358.5,-530.514 358.5,-521.168 358.5,-511.64"/>
<polygon fill="none" stroke="midnightblue" points="355,-539.486 358.5,-549.486 362,-539.486 355,-539.486"/>
</g>
<!-- Node2 -->
<g id="node3" class="node"><title>Node2</title>
<g id="a_node3"><a xlink:href="../../d5/d55/class_juniper_1_1_input_1_1_pointers_1_1_screen_1_1_abstract_screen_device.html" target="_top" xlink:title="A ScreenDevice is a AbstractPointerDevice&lt;ButtonIDType, ConfigType&gt; that has its primary pointer inte...">
<polygon fill="white" stroke="black" points="269,-676.5 269,-766.5 448,-766.5 448,-676.5 269,-676.5"/>
<text text-anchor="start" x="277" y="-754.5" font-family="SegoeUI" font-size="10.00">Juniper.Input.Pointers.Screen.</text>
<text text-anchor="start" x="277" y="-743.5" font-family="SegoeUI" font-size="10.00">AbstractScreenDevice&lt; ButtonIDType,</text>
<text text-anchor="middle" x="358.5" y="-732.5" font-family="SegoeUI" font-size="10.00"> ConfigType &gt;</text>
<polyline fill="none" stroke="black" points="269,-725.5 448,-725.5 "/>
<text text-anchor="start" x="277" y="-713.5" font-family="SegoeUI" font-size="10.00">+ CameraPositionOffset</text>
<text text-anchor="start" x="277" y="-702.5" font-family="SegoeUI" font-size="10.00">+ CameraRotationOffset</text>
<polyline fill="none" stroke="black" points="269,-695.5 448,-695.5 "/>
<text text-anchor="middle" x="358.5" y="-683.5" font-family="SegoeUI" font-size="10.00"> </text>
</a>
</g>
</g>
<!-- Node2&#45;&gt;Node1 -->
<g id="edge2" class="edge"><title>Node2&#45;&gt;Node1</title>
<path fill="none" stroke="orange" d="M358.5,-666.016C358.5,-653.55 358.5,-640.545 358.5,-628.889"/>
<polygon fill="orange" stroke="orange" points="355,-666.319 358.5,-676.319 362,-666.319 355,-666.319"/>
<text text-anchor="middle" x="441.5" y="-650" font-family="SegoeUI" font-size="10.00"> &lt; Unary, UnaryPointerConfiguration &gt;</text>
</g>
<!-- Node3 -->
<g id="node4" class="node"><title>Node3</title>
<g id="a_node4"><a xlink:href="../../da/d81/class_juniper_1_1_input_1_1_pointers_1_1_abstract_pointer_device.html" target="_top" xlink:title=" ">
<polygon fill="white" stroke="black" points="193,-804.5 193,-1301.5 340,-1301.5 340,-804.5 193,-804.5"/>
<text text-anchor="start" x="201" y="-1289.5" font-family="SegoeUI" font-size="10.00">AbstractPointerDevice</text>
<text text-anchor="middle" x="266.5" y="-1278.5" font-family="SegoeUI" font-size="10.00">&lt; ButtonIDType, ConfigType &gt;</text>
<polyline fill="none" stroke="black" points="193,-1271.5 340,-1271.5 "/>
<text text-anchor="start" x="201" y="-1259.5" font-family="SegoeUI" font-size="10.00">+ Connected</text>
<text text-anchor="start" x="201" y="-1248.5" font-family="SegoeUI" font-size="10.00">+ LaserPointerMaterial</text>
<text text-anchor="start" x="201" y="-1237.5" font-family="SegoeUI" font-size="10.00">+ showProbe</text>
<text text-anchor="start" x="201" y="-1226.5" font-family="SegoeUI" font-size="10.00">+ motionFilter</text>
<text text-anchor="start" x="201" y="-1215.5" font-family="SegoeUI" font-size="10.00">+ ButtonType</text>
<text text-anchor="start" x="201" y="-1204.5" font-family="SegoeUI" font-size="10.00">+ PointerDataID</text>
<text text-anchor="start" x="201" y="-1193.5" font-family="SegoeUI" font-size="10.00">+ MinimumPointerDistance</text>
<text text-anchor="start" x="201" y="-1182.5" font-family="SegoeUI" font-size="10.00">+ MaximumPointerDistance</text>
<text text-anchor="start" x="201" y="-1171.5" font-family="SegoeUI" font-size="10.00">+ Layer</text>
<text text-anchor="start" x="201" y="-1160.5" font-family="SegoeUI" font-size="10.00">+ LockedOnTarget</text>
<text text-anchor="start" x="201" y="-1149.5" font-family="SegoeUI" font-size="10.00">+ EventTarget</text>
<text text-anchor="start" x="201" y="-1138.5" font-family="SegoeUI" font-size="10.00">+ IsConnected</text>
<text text-anchor="start" x="201" y="-1127.5" font-family="SegoeUI" font-size="10.00">+ IsEnabled</text>
<text text-anchor="start" x="201" y="-1116.5" font-family="SegoeUI" font-size="10.00">+ IsDisabled</text>
<text text-anchor="start" x="201" y="-1105.5" font-family="SegoeUI" font-size="10.00">and 24 more...</text>
<text text-anchor="start" x="201" y="-1094.5" font-family="SegoeUI" font-size="10.00"># nativeButtons</text>
<text text-anchor="start" x="201" y="-1083.5" font-family="SegoeUI" font-size="10.00"># pointerOffset</text>
<text text-anchor="start" x="201" y="-1072.5" font-family="SegoeUI" font-size="10.00"># probe</text>
<text text-anchor="start" x="201" y="-1061.5" font-family="SegoeUI" font-size="10.00"># eventManager</text>
<text text-anchor="start" x="201" y="-1050.5" font-family="SegoeUI" font-size="10.00"># stage</text>
<text text-anchor="start" x="201" y="-1039.5" font-family="SegoeUI" font-size="10.00"># VIEWPORT_MIDPOINT</text>
<text text-anchor="start" x="201" y="-1028.5" font-family="SegoeUI" font-size="10.00"># PointerConfig</text>
<text text-anchor="start" x="201" y="-1017.5" font-family="SegoeUI" font-size="10.00">&#45; lastMotionFilter</text>
<text text-anchor="start" x="201" y="-1006.5" font-family="SegoeUI" font-size="10.00">&#45; finishTime</text>
<text text-anchor="start" x="201" y="-995.5" font-family="SegoeUI" font-size="10.00">&#45; lastAction</text>
<polyline fill="none" stroke="black" points="193,-988.5 340,-988.5 "/>
<text text-anchor="start" x="201" y="-976.5" font-family="SegoeUI" font-size="10.00">+ AddButton()</text>
<text text-anchor="start" x="201" y="-965.5" font-family="SegoeUI" font-size="10.00">+ RemoveButton()</text>
<text text-anchor="start" x="201" y="-954.5" font-family="SegoeUI" font-size="10.00">+ Awake()</text>
<text text-anchor="start" x="201" y="-943.5" font-family="SegoeUI" font-size="10.00">+ Start()</text>
<text text-anchor="start" x="201" y="-932.5" font-family="SegoeUI" font-size="10.00">+ Install()</text>
<text text-anchor="start" x="201" y="-921.5" font-family="SegoeUI" font-size="10.00">+ Uninstall()</text>
<text text-anchor="start" x="201" y="-910.5" font-family="SegoeUI" font-size="10.00">+ Reinstall()</text>
<text text-anchor="start" x="201" y="-899.5" font-family="SegoeUI" font-size="10.00">+ OnProbeFound()</text>
<text text-anchor="start" x="201" y="-888.5" font-family="SegoeUI" font-size="10.00">+ ScreenFromWorld()</text>
<text text-anchor="start" x="201" y="-877.5" font-family="SegoeUI" font-size="10.00">+ ScreenFromViewport()</text>
<text text-anchor="start" x="201" y="-866.5" font-family="SegoeUI" font-size="10.00">and 13 more...</text>
<text text-anchor="start" x="201" y="-855.5" font-family="SegoeUI" font-size="10.00"># Clone()</text>
<text text-anchor="start" x="201" y="-844.5" font-family="SegoeUI" font-size="10.00"># ProcessButtons()</text>
<text text-anchor="start" x="201" y="-833.5" font-family="SegoeUI" font-size="10.00"># InternalUpdate()</text>
<text text-anchor="start" x="201" y="-822.5" font-family="SegoeUI" font-size="10.00"># MakeHapticsDevice()</text>
<text text-anchor="start" x="201" y="-811.5" font-family="SegoeUI" font-size="10.00">&#45; TestEnterExit()</text>
</a>
</g>
</g>
<!-- Node3&#45;&gt;Node2 -->
<g id="edge3" class="edge"><title>Node3&#45;&gt;Node2</title>
<path fill="none" stroke="midnightblue" d="M338.382,-794.555C341.183,-784.523 343.794,-775.171 346.146,-766.747"/>
<polygon fill="none" stroke="midnightblue" points="334.958,-793.8 335.64,-804.373 341.701,-795.682 334.958,-793.8"/>
</g>
<!-- Node4 -->
<g id="node5" class="node"><title>Node4</title>
<g id="a_node5"><a xlink:title=" ">
<polygon fill="white" stroke="#bfbfbf" points="87.5,-1449.5 87.5,-1506.5 169.5,-1506.5 169.5,-1449.5 87.5,-1449.5"/>
<text text-anchor="middle" x="128.5" y="-1494.5" font-family="SegoeUI" font-size="10.00">MonoBehaviour</text>
<polyline fill="none" stroke="#bfbfbf" points="87.5,-1487.5 169.5,-1487.5 "/>
<text text-anchor="middle" x="128.5" y="-1475.5" font-family="SegoeUI" font-size="10.00"> </text>
<polyline fill="none" stroke="#bfbfbf" points="87.5,-1468.5 169.5,-1468.5 "/>
<text text-anchor="middle" x="128.5" y="-1456.5" font-family="SegoeUI" font-size="10.00"> </text>
</a>
</g>
</g>
<!-- Node4&#45;&gt;Node3 -->
<g id="edge4" class="edge"><title>Node4&#45;&gt;Node3</title>
<path fill="none" stroke="midnightblue" d="M140.785,-1439.34C152.968,-1402 172.697,-1341.53 192.951,-1279.44"/>
<polygon fill="none" stroke="midnightblue" points="137.329,-1438.65 137.555,-1449.25 143.984,-1440.82 137.329,-1438.65"/>
</g>
<!-- Node5 -->
<g id="node6" class="node"><title>Node5</title>
<g id="a_node6"><a xlink:href="../../db/d28/interface_juniper_1_1_i_installable.html" target="_top" xlink:title="Defines an interface for objects that can be installed and have their installation progress tracked.">
<polygon fill="white" stroke="black" points="0,-1438.5 0,-1517.5 69,-1517.5 69,-1438.5 0,-1438.5"/>
<text text-anchor="middle" x="34.5" y="-1505.5" font-family="SegoeUI" font-size="10.00">IInstallable</text>
<polyline fill="none" stroke="black" points="0,-1498.5 69,-1498.5 "/>
<text text-anchor="middle" x="34.5" y="-1486.5" font-family="SegoeUI" font-size="10.00"> </text>
<polyline fill="none" stroke="black" points="0,-1479.5 69,-1479.5 "/>
<text text-anchor="start" x="8" y="-1467.5" font-family="SegoeUI" font-size="10.00">+ Install()</text>
<text text-anchor="start" x="8" y="-1456.5" font-family="SegoeUI" font-size="10.00">+ Reinstall()</text>
<text text-anchor="start" x="8" y="-1445.5" font-family="SegoeUI" font-size="10.00">+ Uninstall()</text>
</a>
</g>
</g>
<!-- Node5&#45;&gt;Node3 -->
<g id="edge5" class="edge"><title>Node5&#45;&gt;Node3</title>
<path fill="none" stroke="midnightblue" d="M46.4599,-1428.44C53.978,-1401.42 64.8449,-1367.57 78.5,-1339 110.07,-1272.95 154.933,-1204.3 192.917,-1150.93"/>
<polygon fill="none" stroke="midnightblue" points="42.9878,-1427.87 43.7437,-1438.44 49.743,-1429.71 42.9878,-1427.87"/>
</g>
<!-- Node6 -->
<g id="node7" class="node"><title>Node6</title>
<g id="a_node7"><a xlink:href="../../d0/da1/interface_juniper_1_1_input_1_1_pointers_1_1_i_pointer_device.html" target="_top" xlink:title=" ">
<polygon fill="white" stroke="black" points="363.5,-1339.5 363.5,-1616.5 487.5,-1616.5 487.5,-1339.5 363.5,-1339.5"/>
<text text-anchor="middle" x="425.5" y="-1604.5" font-family="SegoeUI" font-size="10.00">IPointerDevice</text>
<polyline fill="none" stroke="black" points="363.5,-1597.5 487.5,-1597.5 "/>
<text text-anchor="start" x="371.5" y="-1585.5" font-family="SegoeUI" font-size="10.00">+ transform</text>
<text text-anchor="start" x="371.5" y="-1574.5" font-family="SegoeUI" font-size="10.00">+ EventTarget</text>
<text text-anchor="start" x="371.5" y="-1563.5" font-family="SegoeUI" font-size="10.00">+ InputModule</text>
<text text-anchor="start" x="371.5" y="-1552.5" font-family="SegoeUI" font-size="10.00">+ PointerDataID</text>
<text text-anchor="start" x="371.5" y="-1541.5" font-family="SegoeUI" font-size="10.00">+ ProbeName</text>
<text text-anchor="start" x="371.5" y="-1530.5" font-family="SegoeUI" font-size="10.00">+ ButtonType</text>
<text text-anchor="start" x="371.5" y="-1519.5" font-family="SegoeUI" font-size="10.00">+ isActiveAndEnabled</text>
<text text-anchor="start" x="371.5" y="-1508.5" font-family="SegoeUI" font-size="10.00">+ IsConnected</text>
<text text-anchor="start" x="371.5" y="-1497.5" font-family="SegoeUI" font-size="10.00">+ IsDisabled</text>
<text text-anchor="start" x="371.5" y="-1486.5" font-family="SegoeUI" font-size="10.00">+ IsEnabled</text>
<text text-anchor="start" x="371.5" y="-1475.5" font-family="SegoeUI" font-size="10.00">and 23 more...</text>
<polyline fill="none" stroke="black" points="363.5,-1468.5 487.5,-1468.5 "/>
<text text-anchor="start" x="371.5" y="-1456.5" font-family="SegoeUI" font-size="10.00">+ ViewportFromWorld()</text>
<text text-anchor="start" x="371.5" y="-1445.5" font-family="SegoeUI" font-size="10.00">+ ViewportFromScreen()</text>
<text text-anchor="start" x="371.5" y="-1434.5" font-family="SegoeUI" font-size="10.00">+ ScreenFromWorld()</text>
<text text-anchor="start" x="371.5" y="-1423.5" font-family="SegoeUI" font-size="10.00">+ ScreenFromViewport()</text>
<text text-anchor="start" x="371.5" y="-1412.5" font-family="SegoeUI" font-size="10.00">+ WorldFromScreen()</text>
<text text-anchor="start" x="371.5" y="-1401.5" font-family="SegoeUI" font-size="10.00">+ WorldFromViewport()</text>
<text text-anchor="start" x="371.5" y="-1390.5" font-family="SegoeUI" font-size="10.00">+ IsButtonDown()</text>
<text text-anchor="start" x="371.5" y="-1379.5" font-family="SegoeUI" font-size="10.00">+ IsButtonPressed()</text>
<text text-anchor="start" x="371.5" y="-1368.5" font-family="SegoeUI" font-size="10.00">+ IsButtonUp()</text>
<text text-anchor="start" x="371.5" y="-1357.5" font-family="SegoeUI" font-size="10.00">+ Process()</text>
<text text-anchor="start" x="371.5" y="-1346.5" font-family="SegoeUI" font-size="10.00">+ OnProbeFound()</text>
</a>
</g>
</g>
<!-- Node6&#45;&gt;Node3 -->
<g id="edge6" class="edge"><title>Node6&#45;&gt;Node3</title>
<path fill="none" stroke="midnightblue" d="M362.429,-1329.9C358.662,-1320.49 354.989,-1311.13 351.5,-1302 347.681,-1292.01 343.847,-1281.76 340.032,-1271.39"/>
<polygon fill="none" stroke="midnightblue" points="359.243,-1331.36 366.224,-1339.33 365.736,-1328.74 359.243,-1331.36"/>
</g>
<!-- Node8 -->
<g id="node9" class="node"><title>Node8</title>
<g id="a_node9"><a xlink:href="../../dd/d2f/interface_juniper_1_1_input_1_1_pointers_1_1_screen_1_1_i_screen_device.html" target="_top" xlink:title=" ">
<polygon fill="white" stroke="black" points="360.5,-1019 360.5,-1087 480.5,-1087 480.5,-1019 360.5,-1019"/>
<text text-anchor="middle" x="420.5" y="-1075" font-family="SegoeUI" font-size="10.00">IScreenDevice</text>
<polyline fill="none" stroke="black" points="360.5,-1068 480.5,-1068 "/>
<text text-anchor="start" x="368.5" y="-1056" font-family="SegoeUI" font-size="10.00">+ CameraPositionOffset</text>
<text text-anchor="start" x="368.5" y="-1045" font-family="SegoeUI" font-size="10.00">+ CameraRotationOffset</text>
<polyline fill="none" stroke="black" points="360.5,-1038 480.5,-1038 "/>
<text text-anchor="middle" x="420.5" y="-1026" font-family="SegoeUI" font-size="10.00"> </text>
</a>
</g>
</g>
<!-- Node6&#45;&gt;Node8 -->
<g id="edge9" class="edge"><title>Node6&#45;&gt;Node8</title>
<path fill="none" stroke="midnightblue" d="M423.755,-1329.36C422.723,-1242.11 421.503,-1138.85 420.891,-1087.09"/>
<polygon fill="none" stroke="midnightblue" points="420.255,-1329.41 423.873,-1339.37 427.255,-1329.33 420.255,-1329.41"/>
</g>
<!-- Node7 -->
<g id="node8" class="node"><title>Node7</title>
<g id="a_node8"><a xlink:href="../../dc/dc8/interface_juniper_1_1_input_1_1_pointers_1_1_i_pointer_buttons.html" target="_top" xlink:title="An interface for specifying how devices with buttons should behave.">
<polygon fill="white" stroke="black" points="187.5,-1422 187.5,-1534 345.5,-1534 345.5,-1422 187.5,-1422"/>
<text text-anchor="middle" x="266.5" y="-1522" font-family="SegoeUI" font-size="10.00">IPointerButtons&lt; ButtonIDType &gt;</text>
<polyline fill="none" stroke="black" points="187.5,-1515 345.5,-1515 "/>
<text text-anchor="start" x="195.5" y="-1503" font-family="SegoeUI" font-size="10.00">+ IsConnected</text>
<text text-anchor="start" x="195.5" y="-1492" font-family="SegoeUI" font-size="10.00">+ AnyButtonPressed</text>
<polyline fill="none" stroke="black" points="187.5,-1485 345.5,-1485 "/>
<text text-anchor="start" x="195.5" y="-1473" font-family="SegoeUI" font-size="10.00">+ IsButtonDown()</text>
<text text-anchor="start" x="195.5" y="-1462" font-family="SegoeUI" font-size="10.00">+ IsButtonPressed()</text>
<text text-anchor="start" x="195.5" y="-1451" font-family="SegoeUI" font-size="10.00">+ IsButtonUp()</text>
<text text-anchor="start" x="195.5" y="-1440" font-family="SegoeUI" font-size="10.00">+ AddButton()</text>
<text text-anchor="start" x="195.5" y="-1429" font-family="SegoeUI" font-size="10.00">+ RemoveButton()</text>
</a>
</g>
</g>
<!-- Node7&#45;&gt;Node3 -->
<g id="edge7" class="edge"><title>Node7&#45;&gt;Node3</title>
<path fill="none" stroke="midnightblue" d="M266.5,-1411.62C266.5,-1380.96 266.5,-1342.28 266.5,-1301.77"/>
<polygon fill="none" stroke="midnightblue" points="263,-1411.7 266.5,-1421.7 270,-1411.7 263,-1411.7"/>
</g>
<!-- Node8&#45;&gt;Node2 -->
<g id="edge8" class="edge"><title>Node8&#45;&gt;Node2</title>
<path fill="none" stroke="midnightblue" d="M412.396,-1008.93C400.587,-946.172 378.763,-830.186 366.829,-766.762"/>
<polygon fill="none" stroke="midnightblue" points="408.982,-1009.72 414.271,-1018.9 415.862,-1008.42 408.982,-1009.72"/>
</g>
<!-- Node11 -->
<g id="node12" class="node"><title>Node11</title>
<g id="a_node12"><a xlink:href="../../d2/d9a/class_juniper_1_1_input_1_1_pointers_1_1_gaze_1_1_gaze_pointer.html" target="_top" xlink:title=" ">
<polygon fill="white" stroke="black" points="290,-0.5 290,-68.5 427,-68.5 427,-0.5 290,-0.5"/>
<text text-anchor="start" x="298" y="-56.5" font-family="SegoeUI" font-size="10.00">Juniper.Input.Pointers.Gaze.</text>
<text text-anchor="middle" x="358.5" y="-45.5" font-family="SegoeUI" font-size="10.00">GazePointer</text>
<polyline fill="none" stroke="black" points="290,-38.5 427,-38.5 "/>
<text text-anchor="middle" x="358.5" y="-26.5" font-family="SegoeUI" font-size="10.00"> </text>
<polyline fill="none" stroke="black" points="290,-19.5 427,-19.5 "/>
<text text-anchor="middle" x="358.5" y="-7.5" font-family="SegoeUI" font-size="10.00"> </text>
</a>
</g>
</g>
<!-- Node10&#45;&gt;Node11 -->
<g id="edge12" class="edge"><title>Node10&#45;&gt;Node11</title>
<path fill="none" stroke="midnightblue" d="M358.5,-123.468C358.5,-104.488 358.5,-84.5725 358.5,-68.5003"/>
<polygon fill="none" stroke="midnightblue" points="355,-123.583 358.5,-133.583 362,-123.583 355,-123.583"/>
</g>
</g>
</svg>
        <g id="navigator" transform="translate(0 0)" fill="#404254">
                <rect fill="#f2f5e9" fill-opacity="0.5" stroke="#606060" stroke-width=".5" x="0" y="0" width="60" height="60"/>
                <use id="zoomplus" xlink:href="#zoomPlus" x="17" y="9" onmousedown="handleZoom(evt,'in')"/>
                <use id="zoomminus" xlink:href="#zoomMin" x="42" y="9" onmousedown="handleZoom(evt,'out')"/>
                <use id="reset" xlink:href="#resetDef" x="30" y="36" onmousedown="handleReset()"/>
                <g id="arrowUp" xlink:href="#dirArrow" transform="translate(30 24)" onmousedown="handlePan(0,-1)">
                  <use xlink:href="#rim" fill="#404040">
                        <set attributeName="fill" to="#808080" begin="arrowUp.mouseover" end="arrowUp.mouseout"/>
                  </use>
                  <path fill="none" stroke="white" stroke-width="1.5" d="M0,-3.0v7 M-2.5,-0.5L0,-3.0L2.5,-0.5"/>
                </g>
                <g id="arrowRight" xlink:href="#dirArrow" transform="rotate(90) translate(36 -43)" onmousedown="handlePan(1,0)">
                  <use xlink:href="#rim" fill="#404040">
                        <set attributeName="fill" to="#808080" begin="arrowRight.mouseover" end="arrowRight.mouseout"/>
                  </use>
                  <path fill="none" stroke="white" stroke-width="1.5" d="M0,-3.0v7 M-2.5,-0.5L0,-3.0L2.5,-0.5"/>
                </g>
                <g id="arrowDown" xlink:href="#dirArrow" transform="rotate(180) translate(-30 -48)" onmousedown="handlePan(0,1)">
                  <use xlink:href="#rim" fill="#404040">
                        <set attributeName="fill" to="#808080" begin="arrowDown.mouseover" end="arrowDown.mouseout"/>
                  </use>
                  <path fill="none" stroke="white" stroke-width="1.5" d="M0,-3.0v7 M-2.5,-0.5L0,-3.0L2.5,-0.5"/>
                </g>
                <g id="arrowLeft" xlink:href="#dirArrow" transform="rotate(270) translate(-36 17)" onmousedown="handlePan(-1,0)">
                  <use xlink:href="#rim" fill="#404040">
                        <set attributeName="fill" to="#808080" begin="arrowLeft.mouseover" end="arrowLeft.mouseout"/>
                  </use>
                  <path fill="none" stroke="white" stroke-width="1.5" d="M0,-3.0v7 M-2.5,-0.5L0,-3.0L2.5,-0.5"/>
                </g>
        </g>
        <svg viewBox="0 0 15 15" width="100%" height="30px" preserveAspectRatio="xMaxYMin meet">
         <g id="arrow_out" transform="scale(0.3 0.3)">
          <a xlink:href="class_juniper_1_1_input_1_1_pointers_1_1_gaze_1_1_abstract_gaze_pointer__inherit__graph_org.svg" target="_base">
           <rect id="button" ry="5" rx="5" y="6" x="6" height="38" width="38"
                fill="#f2f5e9" fill-opacity="0.5" stroke="#606060" stroke-width="1.0"/>
           <path id="arrow"
             d="M 11.500037,31.436501 C 11.940474,20.09759 22.043105,11.32322 32.158766,21.979434 L 37.068811,17.246167 C 37.068811,17.246167 37.088388,32 37.088388,32 L 22.160133,31.978069 C 22.160133,31.978069 26.997745,27.140456 26.997745,27.140456 C 18.528582,18.264221 13.291696,25.230495 11.500037,31.436501 z"
             style="fill:#404040;"/>
          </a>
         </g>
        </svg>
</svg>
