<?xml version="1.0" encoding="UTF-8" standalone="no"?>
<!DOCTYPE svg PUBLIC "-//W3C//DTD SVG 1.1//EN"
 "http://www.w3.org/Graphics/SVG/1.1/DTD/svg11.dtd">
<!-- Generated by graphviz version 2.38.0 (20140413.2041)
 -->
<!-- Title: Juniper.Unity.Anchoring.WindowsMRAnchorStore Pages: 1 -->
<svg width="228pt" height="541pt"
 viewBox="0.00 0.00 228.00 541.00" xmlns="http://www.w3.org/2000/svg" xmlns:xlink="http://www.w3.org/1999/xlink">
<g id="graph0" class="graph" transform="scale(1 1) rotate(0) translate(4 537)">
<title>Juniper.Unity.Anchoring.WindowsMRAnchorStore</title>
<polygon fill="white" stroke="none" points="-4,4 -4,-537 224,-537 224,4 -4,4"/>
<!-- Node3 -->
<g id="node1" class="node"><title>Node3</title>
<g id="a_node1"><a xlink:title=" ">
<polygon fill="#bfbfbf" stroke="black" points="19,-0.5 19,-134.5 141,-134.5 141,-0.5 19,-0.5"/>
<text text-anchor="start" x="27" y="-122.5" font-family="SegoeUI" font-size="10.00">Juniper.Unity.Anchoring.</text>
<text text-anchor="middle" x="80" y="-111.5" font-family="SegoeUI" font-size="10.00">WindowsMRAnchorStore</text>
<polyline fill="none" stroke="black" points="19,-104.5 141,-104.5 "/>
<text text-anchor="start" x="27" y="-92.5" font-family="SegoeUI" font-size="10.00">&#45; anchorStore</text>
<polyline fill="none" stroke="black" points="19,-85.5 141,-85.5 "/>
<text text-anchor="start" x="27" y="-73.5" font-family="SegoeUI" font-size="10.00">+ Awake()</text>
<text text-anchor="start" x="27" y="-62.5" font-family="SegoeUI" font-size="10.00">+ HasAnchor()</text>
<text text-anchor="start" x="27" y="-51.5" font-family="SegoeUI" font-size="10.00"># IsSaved()</text>
<text text-anchor="start" x="27" y="-40.5" font-family="SegoeUI" font-size="10.00"># CreateAnchor()</text>
<text text-anchor="start" x="27" y="-29.5" font-family="SegoeUI" font-size="10.00"># LoadAnchor()</text>
<text text-anchor="start" x="27" y="-18.5" font-family="SegoeUI" font-size="10.00"># IsGood()</text>
<text text-anchor="start" x="27" y="-7.5" font-family="SegoeUI" font-size="10.00"># DeleteAnchor()</text>
</a>
</g>
</g>
<!-- Node4 -->
<g id="node2" class="node"><title>Node4</title>
<g id="a_node2"><a xlink:href="../../dd/dac/class_juniper_1_1_unity_1_1_anchoring_1_1_abstract_anchor_store.html" target="_top" xlink:title="A store for points in space that the system will restore on second&#45;run. By default,...">
<polygon fill="white" stroke="black" points="22,-172.5 22,-416.5 138,-416.5 138,-172.5 22,-172.5"/>
<text text-anchor="start" x="30" y="-404.5" font-family="SegoeUI" font-size="10.00">AbstractAnchorStore</text>
<text text-anchor="middle" x="80" y="-393.5" font-family="SegoeUI" font-size="10.00">&lt; AnchorType &gt;</text>
<polyline fill="none" stroke="black" points="22,-386.5 138,-386.5 "/>
<text text-anchor="start" x="30" y="-374.5" font-family="SegoeUI" font-size="10.00">+ NameList</text>
<text text-anchor="start" x="30" y="-363.5" font-family="SegoeUI" font-size="10.00">&#45; KEY_LIST_KEY</text>
<polyline fill="none" stroke="black" points="22,-356.5 138,-356.5 "/>
<text text-anchor="start" x="30" y="-344.5" font-family="SegoeUI" font-size="10.00">+ ResetData()</text>
<text text-anchor="start" x="30" y="-333.5" font-family="SegoeUI" font-size="10.00">+ DropAnchor()</text>
<text text-anchor="start" x="30" y="-322.5" font-family="SegoeUI" font-size="10.00">+ WeighAnchor()</text>
<text text-anchor="start" x="30" y="-311.5" font-family="SegoeUI" font-size="10.00">+ HasAnchor()</text>
<text text-anchor="start" x="30" y="-300.5" font-family="SegoeUI" font-size="10.00"># SynchronizeAnchor()</text>
<text text-anchor="start" x="30" y="-289.5" font-family="SegoeUI" font-size="10.00"># IsGood()</text>
<text text-anchor="start" x="30" y="-278.5" font-family="SegoeUI" font-size="10.00"># DeleteAnchor()</text>
<text text-anchor="start" x="30" y="-267.5" font-family="SegoeUI" font-size="10.00"># FindAnchor()</text>
<text text-anchor="start" x="30" y="-256.5" font-family="SegoeUI" font-size="10.00"># IsSaved()</text>
<text text-anchor="start" x="30" y="-245.5" font-family="SegoeUI" font-size="10.00"># CreateAnchor()</text>
<text text-anchor="start" x="30" y="-234.5" font-family="SegoeUI" font-size="10.00"># LoadAnchor()</text>
<text text-anchor="start" x="30" y="-223.5" font-family="SegoeUI" font-size="10.00"># MakeID()</text>
<text text-anchor="start" x="30" y="-212.5" font-family="SegoeUI" font-size="10.00"># HasValue()</text>
<text text-anchor="start" x="30" y="-201.5" font-family="SegoeUI" font-size="10.00"># SaveValue&lt; T &gt;()</text>
<text text-anchor="start" x="30" y="-190.5" font-family="SegoeUI" font-size="10.00"># LoadValue&lt; T &gt;()</text>
<text text-anchor="start" x="30" y="-179.5" font-family="SegoeUI" font-size="10.00"># DeleteValue()</text>
</a>
</g>
</g>
<!-- Node4&#45;&gt;Node3 -->
<g id="edge1" class="edge"><title>Node4&#45;&gt;Node3</title>
<path fill="none" stroke="midnightblue" d="M80,-162.424C80,-152.868 80,-143.495 80,-134.593"/>
<polygon fill="none" stroke="midnightblue" points="76.5001,-162.438 80,-172.438 83.5001,-162.438 76.5001,-162.438"/>
</g>
<!-- Node5 -->
<g id="node3" class="node"><title>Node5</title>
<g id="a_node3"><a xlink:title=" ">
<polygon fill="white" stroke="#bfbfbf" points="0,-475.5 0,-532.5 82,-532.5 82,-475.5 0,-475.5"/>
<text text-anchor="middle" x="41" y="-520.5" font-family="SegoeUI" font-size="10.00">MonoBehaviour</text>
<polyline fill="none" stroke="#bfbfbf" points="0,-513.5 82,-513.5 "/>
<text text-anchor="middle" x="41" y="-501.5" font-family="SegoeUI" font-size="10.00"> </text>
<polyline fill="none" stroke="#bfbfbf" points="0,-494.5 82,-494.5 "/>
<text text-anchor="middle" x="41" y="-482.5" font-family="SegoeUI" font-size="10.00"> </text>
</a>
</g>
</g>
<!-- Node5&#45;&gt;Node4 -->
<g id="edge2" class="edge"><title>Node5&#45;&gt;Node4</title>
<path fill="none" stroke="midnightblue" d="M48.0996,-465.226C50.7534,-451.107 53.9308,-434.201 57.2371,-416.611"/>
<polygon fill="none" stroke="midnightblue" points="44.5864,-464.971 46.1789,-475.446 51.4659,-466.264 44.5864,-464.971"/>
</g>
<!-- Node6 -->
<g id="node4" class="node"><title>Node6</title>
<g id="a_node4"><a xlink:title=" ">
<polygon fill="white" stroke="#bfbfbf" points="100.5,-475.5 100.5,-532.5 139.5,-532.5 139.5,-475.5 100.5,-475.5"/>
<text text-anchor="middle" x="120" y="-520.5" font-family="SegoeUI" font-size="10.00">static</text>
<polyline fill="none" stroke="#bfbfbf" points="100.5,-513.5 139.5,-513.5 "/>
<text text-anchor="middle" x="120" y="-501.5" font-family="SegoeUI" font-size="10.00"> </text>
<polyline fill="none" stroke="#bfbfbf" points="100.5,-494.5 139.5,-494.5 "/>
<text text-anchor="middle" x="120" y="-482.5" font-family="SegoeUI" font-size="10.00"> </text>
</a>
</g>
</g>
<!-- Node6&#45;&gt;Node4 -->
<g id="edge3" class="edge"><title>Node6&#45;&gt;Node4</title>
<path fill="none" stroke="#404040" d="M114.688,-475.446C112.207,-462.575 109.054,-446.218 105.664,-428.634"/>
<polygon fill="none" stroke="#404040" points="105.618,-428.394 100.555,-423.259 103.347,-416.611 108.41,-421.745 105.618,-428.394"/>
<text text-anchor="middle" x="165.5" y="-449" font-family="SegoeUI" font-size="10.00"> &#45;EMPTY_STRING_ARRAY</text>
<text text-anchor="middle" x="165.5" y="-438" font-family="SegoeUI" font-size="10.00">&#45;ID_PREFIX</text>
</g>
</g>
</svg>
