<?xml version="1.0" encoding="UTF-8" standalone="no"?>
<!DOCTYPE svg PUBLIC "-//W3C//DTD SVG 1.1//EN"
 "http://www.w3.org/Graphics/SVG/1.1/DTD/svg11.dtd">
<!-- Generated by graphviz version 2.38.0 (20140413.2041)
 -->
<!-- Title: Juniper.Widgets.Draggable Pages: 1 -->
<!--zoomable 1065 -->
<svg id="main" version="1.1" xmlns="http://www.w3.org/2000/svg" xmlns:xlink="http://www.w3.org/1999/xlink" xml:space="preserve" onload="init(evt)">
<style type="text/css"><![CDATA[
.edge:hover path { stroke: red; }
.edge:hover polygon { stroke: red; fill: red; }
]]></style>
<script type="text/javascript"><![CDATA[
var edges = document.getElementsByTagName('g');
if (edges && edges.length) {
  for (var i=0;i<edges.length;i++) {
    if (edges[i].id.substr(0,4)=='edge') {
      edges[i].setAttribute('class','edge');
    }
  }
}
]]></script>
        <defs>
                <circle id="rim" cx="0" cy="0" r="7"/>
                <circle id="rim2" cx="0" cy="0" r="3.5"/>
                <g id="zoomPlus">
                        <use xlink:href="#rim" fill="#404040">
                                <set attributeName="fill" to="#808080" begin="zoomplus.mouseover" end="zoomplus.mouseout"/>
                        </use>
                        <path d="M-4,0h8M0,-4v8" fill="none" stroke="white" stroke-width="1.5" pointer-events="none"/>
                </g>
                <g id="zoomMin">
                        <use xlink:href="#rim" fill="#404040">
                                <set attributeName="fill" to="#808080" begin="zoomminus.mouseover" end="zoomminus.mouseout"/>
                        </use>
                        <path d="M-4,0h8" fill="none" stroke="white" stroke-width="1.5" pointer-events="none"/>
                </g>
                <g id="dirArrow">
                        <path fill="none" stroke="white" stroke-width="1.5" d="M0,-3.0v7 M-2.5,-0.5L0,-3.0L2.5,-0.5"/>
                </g>
               <g id="resetDef">
                       <use xlink:href="#rim2" fill="#404040">
                               <set attributeName="fill" to="#808080" begin="reset.mouseover" end="reset.mouseout"/>
                       </use>
               </g>
        </defs>

<script type="text/javascript">
var viewWidth = 1043;
var viewHeight = 1065;
var sectionId = 'dynsection-0';
</script>
<script xlink:href="../../svgpan.js"/>
<svg id="graph" class="graph">
<g id="viewport">
<title>Juniper.Widgets.Draggable</title>
<polygon fill="white" stroke="none" points="-4,4 -4,-1061 1039,-1061 1039,4 -4,4"/>
<!-- Node0 -->
<g id="node1" class="node"><title>Node0</title>
<g id="a_node1"><a xlink:title="An object that can be picked up and put down in a new location.">
<polygon fill="#bfbfbf" stroke="black" points="564.5,-0.5 564.5,-189.5 705.5,-189.5 705.5,-0.5 564.5,-0.5"/>
<text text-anchor="middle" x="635" y="-177.5" font-family="SegoeUI" font-size="10.00">Juniper.Widgets.Draggable</text>
<polyline fill="none" stroke="black" points="564.5,-170.5 705.5,-170.5 "/>
<text text-anchor="start" x="572.5" y="-158.5" font-family="SegoeUI" font-size="10.00">+ constrainMotion</text>
<text text-anchor="start" x="572.5" y="-147.5" font-family="SegoeUI" font-size="10.00">+ rotateWhileDragging</text>
<text text-anchor="start" x="572.5" y="-136.5" font-family="SegoeUI" font-size="10.00">+ TrackStart</text>
<text text-anchor="start" x="572.5" y="-125.5" font-family="SegoeUI" font-size="10.00">+ TrackEnd</text>
<text text-anchor="start" x="572.5" y="-114.5" font-family="SegoeUI" font-size="10.00">&#45; MotionConstraintStartName</text>
<text text-anchor="start" x="572.5" y="-103.5" font-family="SegoeUI" font-size="10.00">&#45; MotionConstraintEndName</text>
<text text-anchor="start" x="572.5" y="-92.5" font-family="SegoeUI" font-size="10.00">&#45; motionConstraintStart</text>
<text text-anchor="start" x="572.5" y="-81.5" font-family="SegoeUI" font-size="10.00">&#45; motionConstraintEnd</text>
<text text-anchor="start" x="572.5" y="-70.5" font-family="SegoeUI" font-size="10.00">&#45; lastCamPosition</text>
<polyline fill="none" stroke="black" points="564.5,-63.5 705.5,-63.5 "/>
<text text-anchor="start" x="572.5" y="-51.5" font-family="SegoeUI" font-size="10.00">+ OnValidate()</text>
<text text-anchor="start" x="572.5" y="-40.5" font-family="SegoeUI" font-size="10.00">+ OnDrag()</text>
<text text-anchor="start" x="572.5" y="-29.5" font-family="SegoeUI" font-size="10.00"># LateUpdate()</text>
<text text-anchor="start" x="572.5" y="-18.5" font-family="SegoeUI" font-size="10.00">&#45; ResolveConstraint()</text>
<text text-anchor="start" x="572.5" y="-7.5" font-family="SegoeUI" font-size="10.00">&#45; DestroyConstraint()</text>
</a>
</g>
</g>
<!-- Node1 -->
<g id="node2" class="node"><title>Node1</title>
<g id="a_node2"><a xlink:href="../../dd/d30/class_juniper_1_1_widgets_1_1_abstract_valued.html" target="_top" xlink:title="The Valued component adds a float field and range of valid values for that field to a Touchable objec...">
<polygon fill="white" stroke="black" points="566.5,-227.5 566.5,-625.5 703.5,-625.5 703.5,-227.5 566.5,-227.5"/>
<text text-anchor="middle" x="635" y="-613.5" font-family="SegoeUI" font-size="10.00">AbstractValued</text>
<polyline fill="none" stroke="black" points="566.5,-606.5 703.5,-606.5 "/>
<text text-anchor="start" x="574.5" y="-594.5" font-family="SegoeUI" font-size="10.00">+ Display</text>
<text text-anchor="start" x="574.5" y="-583.5" font-family="SegoeUI" font-size="10.00">+ SigFigs</text>
<text text-anchor="start" x="574.5" y="-572.5" font-family="SegoeUI" font-size="10.00">+ minValue</text>
<text text-anchor="start" x="574.5" y="-561.5" font-family="SegoeUI" font-size="10.00">+ maxValue</text>
<text text-anchor="start" x="574.5" y="-550.5" font-family="SegoeUI" font-size="10.00">+ _value</text>
<text text-anchor="start" x="574.5" y="-539.5" font-family="SegoeUI" font-size="10.00">+ Dragged</text>
<text text-anchor="start" x="574.5" y="-528.5" font-family="SegoeUI" font-size="10.00">+ value</text>
<text text-anchor="start" x="574.5" y="-517.5" font-family="SegoeUI" font-size="10.00">+ Delta</text>
<text text-anchor="start" x="574.5" y="-506.5" font-family="SegoeUI" font-size="10.00">+ DraggedChanged</text>
<text text-anchor="start" x="574.5" y="-495.5" font-family="SegoeUI" font-size="10.00">+ DraggedDown</text>
<text text-anchor="start" x="574.5" y="-484.5" font-family="SegoeUI" font-size="10.00">+ DraggedUp</text>
<text text-anchor="start" x="574.5" y="-473.5" font-family="SegoeUI" font-size="10.00">+ ValueChanged</text>
<text text-anchor="start" x="574.5" y="-462.5" font-family="SegoeUI" font-size="10.00">+ ConstraintRange</text>
<text text-anchor="start" x="574.5" y="-451.5" font-family="SegoeUI" font-size="10.00"># dragDistance</text>
<text text-anchor="start" x="574.5" y="-440.5" font-family="SegoeUI" font-size="10.00"># interactionPoint</text>
<text text-anchor="start" x="574.5" y="-429.5" font-family="SegoeUI" font-size="10.00"># interactionOffset</text>
<text text-anchor="start" x="574.5" y="-418.5" font-family="SegoeUI" font-size="10.00"># velocity</text>
<text text-anchor="start" x="574.5" y="-407.5" font-family="SegoeUI" font-size="10.00"># angVel</text>
<text text-anchor="start" x="574.5" y="-396.5" font-family="SegoeUI" font-size="10.00"># camT</text>
<text text-anchor="start" x="574.5" y="-385.5" font-family="SegoeUI" font-size="10.00"># grabOffset</text>
<text text-anchor="start" x="574.5" y="-374.5" font-family="SegoeUI" font-size="10.00"># internalValue</text>
<text text-anchor="start" x="574.5" y="-363.5" font-family="SegoeUI" font-size="10.00">&#45; wasDragged</text>
<text text-anchor="start" x="574.5" y="-352.5" font-family="SegoeUI" font-size="10.00">&#45; lastValue</text>
<text text-anchor="start" x="574.5" y="-341.5" font-family="SegoeUI" font-size="10.00">&#45; lastTickValue</text>
<polyline fill="none" stroke="black" points="566.5,-334.5 703.5,-334.5 "/>
<text text-anchor="start" x="574.5" y="-322.5" font-family="SegoeUI" font-size="10.00">+ SetValue()</text>
<text text-anchor="start" x="574.5" y="-311.5" font-family="SegoeUI" font-size="10.00">+ OnInitializePotentialDrag()</text>
<text text-anchor="start" x="574.5" y="-300.5" font-family="SegoeUI" font-size="10.00">+ OnBeginDrag()</text>
<text text-anchor="start" x="574.5" y="-289.5" font-family="SegoeUI" font-size="10.00">+ OnDrag()</text>
<text text-anchor="start" x="574.5" y="-278.5" font-family="SegoeUI" font-size="10.00">+ OnDrop()</text>
<text text-anchor="start" x="574.5" y="-267.5" font-family="SegoeUI" font-size="10.00">+ OnEndDrag()</text>
<text text-anchor="start" x="574.5" y="-256.5" font-family="SegoeUI" font-size="10.00"># LateUpdate()</text>
<text text-anchor="start" x="574.5" y="-245.5" font-family="SegoeUI" font-size="10.00"># UpdateInternalValue()</text>
<text text-anchor="start" x="574.5" y="-234.5" font-family="SegoeUI" font-size="10.00"># ResetInternalValue()</text>
</a>
</g>
</g>
<!-- Node1&#45;&gt;Node0 -->
<g id="edge1" class="edge"><title>Node1&#45;&gt;Node0</title>
<path fill="none" stroke="midnightblue" d="M635,-216.923C635,-207.545 635,-198.371 635,-189.535"/>
<polygon fill="none" stroke="midnightblue" points="631.5,-217.174 635,-227.174 638.5,-217.174 631.5,-217.174"/>
</g>
<!-- Node2 -->
<g id="node3" class="node"><title>Node2</title>
<g id="a_node3"><a xlink:href="../../d7/d8c/class_juniper_1_1_widgets_1_1_abstract_touchable.html" target="_top" xlink:title="The base class for all interactive, AR&#45;compatible, GUI controls /// This class is abstract to avoid i...">
<polygon fill="white" stroke="black" points="210,-663.5 210,-951.5 336,-951.5 336,-663.5 210,-663.5"/>
<text text-anchor="middle" x="273" y="-939.5" font-family="SegoeUI" font-size="10.00">AbstractTouchable</text>
<polyline fill="none" stroke="black" points="210,-932.5 336,-932.5 "/>
<text text-anchor="start" x="218" y="-920.5" font-family="SegoeUI" font-size="10.00">+ clickButton</text>
<text text-anchor="start" x="218" y="-909.5" font-family="SegoeUI" font-size="10.00">+ disabled</text>
<text text-anchor="start" x="218" y="-898.5" font-family="SegoeUI" font-size="10.00">+ pointerPosition</text>
<text text-anchor="start" x="218" y="-887.5" font-family="SegoeUI" font-size="10.00">+ PART_NAMES</text>
<text text-anchor="start" x="218" y="-876.5" font-family="SegoeUI" font-size="10.00">+ DisabledChanged</text>
<text text-anchor="start" x="218" y="-865.5" font-family="SegoeUI" font-size="10.00">+ DisabledDown</text>
<text text-anchor="start" x="218" y="-854.5" font-family="SegoeUI" font-size="10.00">+ DisabledUp</text>
<text text-anchor="start" x="218" y="-843.5" font-family="SegoeUI" font-size="10.00">+ IsDisabled</text>
<text text-anchor="start" x="218" y="-832.5" font-family="SegoeUI" font-size="10.00">+ PointerPositionChanged</text>
<text text-anchor="start" x="218" y="-821.5" font-family="SegoeUI" font-size="10.00"># lastPointerPosition</text>
<text text-anchor="start" x="218" y="-810.5" font-family="SegoeUI" font-size="10.00">&#45; animator</text>
<text text-anchor="start" x="218" y="-799.5" font-family="SegoeUI" font-size="10.00">&#45; wasDisabled</text>
<polyline fill="none" stroke="black" points="210,-792.5 336,-792.5 "/>
<text text-anchor="start" x="218" y="-780.5" font-family="SegoeUI" font-size="10.00">+ SetDisabled()</text>
<text text-anchor="start" x="218" y="-769.5" font-family="SegoeUI" font-size="10.00">+ ToggleEnabled()</text>
<text text-anchor="start" x="218" y="-758.5" font-family="SegoeUI" font-size="10.00">+ OnPointerEnter()</text>
<text text-anchor="start" x="218" y="-747.5" font-family="SegoeUI" font-size="10.00">+ OnPointerExit()</text>
<text text-anchor="start" x="218" y="-736.5" font-family="SegoeUI" font-size="10.00">+ OnPointerDown()</text>
<text text-anchor="start" x="218" y="-725.5" font-family="SegoeUI" font-size="10.00">+ OnPointerUp()</text>
<text text-anchor="start" x="218" y="-714.5" font-family="SegoeUI" font-size="10.00"># Update()</text>
<text text-anchor="start" x="218" y="-703.5" font-family="SegoeUI" font-size="10.00"># LateUpdate()</text>
<text text-anchor="start" x="218" y="-692.5" font-family="SegoeUI" font-size="10.00"># ShowState()</text>
<text text-anchor="start" x="218" y="-681.5" font-family="SegoeUI" font-size="10.00"># GetPosition()</text>
<text text-anchor="start" x="218" y="-670.5" font-family="SegoeUI" font-size="10.00">&#45; NormalizePart()</text>
</a>
</g>
</g>
<!-- Node2&#45;&gt;Node1 -->
<g id="edge2" class="edge"><title>Node2&#45;&gt;Node1</title>
<path fill="none" stroke="midnightblue" d="M342.16,-666.608C343.098,-665.391 344.045,-664.188 345,-663 408.578,-583.877 502.801,-513.483 566.441,-470.715"/>
<polygon fill="none" stroke="midnightblue" points="339.217,-664.701 336.081,-674.821 344.843,-668.865 339.217,-664.701"/>
</g>
<!-- Node3 -->
<g id="node4" class="node"><title>Node3</title>
<g id="a_node4"><a xlink:title=" ">
<polygon fill="white" stroke="#bfbfbf" points="0,-999.5 0,-1056.5 82,-1056.5 82,-999.5 0,-999.5"/>
<text text-anchor="middle" x="41" y="-1044.5" font-family="SegoeUI" font-size="10.00">MonoBehaviour</text>
<polyline fill="none" stroke="#bfbfbf" points="0,-1037.5 82,-1037.5 "/>
<text text-anchor="middle" x="41" y="-1025.5" font-family="SegoeUI" font-size="10.00"> </text>
<polyline fill="none" stroke="#bfbfbf" points="0,-1018.5 82,-1018.5 "/>
<text text-anchor="middle" x="41" y="-1006.5" font-family="SegoeUI" font-size="10.00"> </text>
</a>
</g>
</g>
<!-- Node3&#45;&gt;Node2 -->
<g id="edge3" class="edge"><title>Node3&#45;&gt;Node2</title>
<path fill="none" stroke="midnightblue" d="M78.0854,-992.073C113.503,-958.716 167.583,-907.783 209.801,-868.021"/>
<polygon fill="none" stroke="midnightblue" points="75.263,-989.923 70.383,-999.327 80.0623,-995.019 75.263,-989.923"/>
</g>
<!-- Node4 -->
<g id="node5" class="node"><title>Node4</title>
<g id="a_node5"><a xlink:title=" ">
<polygon fill="white" stroke="#bfbfbf" points="100.5,-999.5 100.5,-1056.5 205.5,-1056.5 205.5,-999.5 100.5,-999.5"/>
<text text-anchor="middle" x="153" y="-1044.5" font-family="SegoeUI" font-size="10.00">IPointerEnterHandler</text>
<polyline fill="none" stroke="#bfbfbf" points="100.5,-1037.5 205.5,-1037.5 "/>
<text text-anchor="middle" x="153" y="-1025.5" font-family="SegoeUI" font-size="10.00"> </text>
<polyline fill="none" stroke="#bfbfbf" points="100.5,-1018.5 205.5,-1018.5 "/>
<text text-anchor="middle" x="153" y="-1006.5" font-family="SegoeUI" font-size="10.00"> </text>
</a>
</g>
</g>
<!-- Node4&#45;&gt;Node2 -->
<g id="edge4" class="edge"><title>Node4&#45;&gt;Node2</title>
<path fill="none" stroke="midnightblue" d="M173.143,-990.324C183.403,-971.642 196.502,-947.79 209.811,-923.556"/>
<polygon fill="none" stroke="midnightblue" points="169.944,-988.877 168.198,-999.327 176.08,-992.247 169.944,-988.877"/>
</g>
<!-- Node5 -->
<g id="node6" class="node"><title>Node5</title>
<g id="a_node6"><a xlink:title=" ">
<polygon fill="white" stroke="#bfbfbf" points="224,-999.5 224,-1056.5 322,-1056.5 322,-999.5 224,-999.5"/>
<text text-anchor="middle" x="273" y="-1044.5" font-family="SegoeUI" font-size="10.00">IPointerExitHandler</text>
<polyline fill="none" stroke="#bfbfbf" points="224,-1037.5 322,-1037.5 "/>
<text text-anchor="middle" x="273" y="-1025.5" font-family="SegoeUI" font-size="10.00"> </text>
<polyline fill="none" stroke="#bfbfbf" points="224,-1018.5 322,-1018.5 "/>
<text text-anchor="middle" x="273" y="-1006.5" font-family="SegoeUI" font-size="10.00"> </text>
</a>
</g>
</g>
<!-- Node5&#45;&gt;Node2 -->
<g id="edge5" class="edge"><title>Node5&#45;&gt;Node2</title>
<path fill="none" stroke="midnightblue" d="M273,-989.302C273,-978.257 273,-965.471 273,-951.903"/>
<polygon fill="none" stroke="midnightblue" points="269.5,-989.327 273,-999.327 276.5,-989.327 269.5,-989.327"/>
</g>
<!-- Node6 -->
<g id="node7" class="node"><title>Node6</title>
<g id="a_node7"><a xlink:title=" ">
<polygon fill="white" stroke="#bfbfbf" points="340.5,-999.5 340.5,-1056.5 447.5,-1056.5 447.5,-999.5 340.5,-999.5"/>
<text text-anchor="middle" x="394" y="-1044.5" font-family="SegoeUI" font-size="10.00">IPointerDownHandler</text>
<polyline fill="none" stroke="#bfbfbf" points="340.5,-1037.5 447.5,-1037.5 "/>
<text text-anchor="middle" x="394" y="-1025.5" font-family="SegoeUI" font-size="10.00"> </text>
<polyline fill="none" stroke="#bfbfbf" points="340.5,-1018.5 447.5,-1018.5 "/>
<text text-anchor="middle" x="394" y="-1006.5" font-family="SegoeUI" font-size="10.00"> </text>
</a>
</g>
</g>
<!-- Node6&#45;&gt;Node2 -->
<g id="edge6" class="edge"><title>Node6&#45;&gt;Node2</title>
<path fill="none" stroke="midnightblue" d="M369.166,-990.807C361.151,-978.657 352.425,-964.911 345,-952 342.013,-946.805 339.019,-941.47 336.042,-936.056"/>
<polygon fill="none" stroke="midnightblue" points="366.391,-992.954 374.848,-999.337 372.217,-989.074 366.391,-992.954"/>
</g>
<!-- Node7 -->
<g id="node8" class="node"><title>Node7</title>
<g id="a_node8"><a xlink:title=" ">
<polygon fill="white" stroke="#bfbfbf" points="466,-999.5 466,-1056.5 560,-1056.5 560,-999.5 466,-999.5"/>
<text text-anchor="middle" x="513" y="-1044.5" font-family="SegoeUI" font-size="10.00">IPointerUpHandler</text>
<polyline fill="none" stroke="#bfbfbf" points="466,-1037.5 560,-1037.5 "/>
<text text-anchor="middle" x="513" y="-1025.5" font-family="SegoeUI" font-size="10.00"> </text>
<polyline fill="none" stroke="#bfbfbf" points="466,-1018.5 560,-1018.5 "/>
<text text-anchor="middle" x="513" y="-1006.5" font-family="SegoeUI" font-size="10.00"> </text>
</a>
</g>
</g>
<!-- Node7&#45;&gt;Node2 -->
<g id="edge7" class="edge"><title>Node7&#45;&gt;Node2</title>
<path fill="none" stroke="midnightblue" d="M456.603,-999.276C456.401,-999.184 456.201,-999.092 456,-999 431.636,-987.868 364.542,-970.32 345,-952 341.95,-949.14 339.01,-946.123 336.178,-942.977"/>
<polygon fill="none" stroke="midnightblue" points="455.277,-1002.52 465.82,-1003.57 458.234,-996.174 455.277,-1002.52"/>
</g>
<!-- Node8 -->
<g id="node9" class="node"><title>Node8</title>
<g id="a_node9"><a xlink:title=" ">
<polygon fill="white" stroke="#bfbfbf" points="354,-773.5 354,-841.5 466,-841.5 466,-773.5 354,-773.5"/>
<text text-anchor="start" x="362" y="-829.5" font-family="SegoeUI" font-size="10.00">IInitializePotentialDrag</text>
<text text-anchor="middle" x="410" y="-818.5" font-family="SegoeUI" font-size="10.00">Handler</text>
<polyline fill="none" stroke="#bfbfbf" points="354,-811.5 466,-811.5 "/>
<text text-anchor="middle" x="410" y="-799.5" font-family="SegoeUI" font-size="10.00"> </text>
<polyline fill="none" stroke="#bfbfbf" points="354,-792.5 466,-792.5 "/>
<text text-anchor="middle" x="410" y="-780.5" font-family="SegoeUI" font-size="10.00"> </text>
</a>
</g>
</g>
<!-- Node8&#45;&gt;Node1 -->
<g id="edge8" class="edge"><title>Node8&#45;&gt;Node1</title>
<path fill="none" stroke="midnightblue" d="M427.076,-763.783C439.231,-734.742 456.613,-695.792 475,-663 502.257,-614.389 536.541,-562.916 566.375,-520.531"/>
<polygon fill="none" stroke="midnightblue" points="423.757,-762.651 423.16,-773.229 430.223,-765.331 423.757,-762.651"/>
</g>
<!-- Node9 -->
<g id="node10" class="node"><title>Node9</title>
<g id="a_node10"><a xlink:title=" ">
<polygon fill="white" stroke="#bfbfbf" points="484,-779 484,-836 580,-836 580,-779 484,-779"/>
<text text-anchor="middle" x="532" y="-824" font-family="SegoeUI" font-size="10.00">IBeginDragHandler</text>
<polyline fill="none" stroke="#bfbfbf" points="484,-817 580,-817 "/>
<text text-anchor="middle" x="532" y="-805" font-family="SegoeUI" font-size="10.00"> </text>
<polyline fill="none" stroke="#bfbfbf" points="484,-798 580,-798 "/>
<text text-anchor="middle" x="532" y="-786" font-family="SegoeUI" font-size="10.00"> </text>
</a>
</g>
</g>
<!-- Node9&#45;&gt;Node1 -->
<g id="edge9" class="edge"><title>Node9&#45;&gt;Node1</title>
<path fill="none" stroke="midnightblue" d="M542.223,-768.884C551.59,-734.417 566.229,-680.551 581.133,-625.711"/>
<polygon fill="none" stroke="midnightblue" points="538.736,-768.37 539.49,-778.938 545.491,-770.206 538.736,-768.37"/>
</g>
<!-- Node10 -->
<g id="node11" class="node"><title>Node10</title>
<g id="a_node11"><a xlink:title=" ">
<polygon fill="white" stroke="#bfbfbf" points="598.5,-779 598.5,-836 671.5,-836 671.5,-779 598.5,-779"/>
<text text-anchor="middle" x="635" y="-824" font-family="SegoeUI" font-size="10.00">IDragHandler</text>
<polyline fill="none" stroke="#bfbfbf" points="598.5,-817 671.5,-817 "/>
<text text-anchor="middle" x="635" y="-805" font-family="SegoeUI" font-size="10.00"> </text>
<polyline fill="none" stroke="#bfbfbf" points="598.5,-798 671.5,-798 "/>
<text text-anchor="middle" x="635" y="-786" font-family="SegoeUI" font-size="10.00"> </text>
</a>
</g>
</g>
<!-- Node10&#45;&gt;Node1 -->
<g id="edge10" class="edge"><title>Node10&#45;&gt;Node1</title>
<path fill="none" stroke="midnightblue" d="M635,-768.884C635,-734.417 635,-680.551 635,-625.711"/>
<polygon fill="none" stroke="midnightblue" points="631.5,-768.938 635,-778.938 638.5,-768.938 631.5,-768.938"/>
</g>
<!-- Node11 -->
<g id="node12" class="node"><title>Node11</title>
<g id="a_node12"><a xlink:title=" ">
<polygon fill="white" stroke="#bfbfbf" points="689.5,-779 689.5,-836 778.5,-836 778.5,-779 689.5,-779"/>
<text text-anchor="middle" x="734" y="-824" font-family="SegoeUI" font-size="10.00">IEndDragHandler</text>
<polyline fill="none" stroke="#bfbfbf" points="689.5,-817 778.5,-817 "/>
<text text-anchor="middle" x="734" y="-805" font-family="SegoeUI" font-size="10.00"> </text>
<polyline fill="none" stroke="#bfbfbf" points="689.5,-798 778.5,-798 "/>
<text text-anchor="middle" x="734" y="-786" font-family="SegoeUI" font-size="10.00"> </text>
</a>
</g>
</g>
<!-- Node11&#45;&gt;Node1 -->
<g id="edge11" class="edge"><title>Node11&#45;&gt;Node1</title>
<path fill="none" stroke="midnightblue" d="M724.174,-768.884C715.171,-734.417 701.1,-680.551 686.775,-625.711"/>
<polygon fill="none" stroke="midnightblue" points="720.887,-770.147 726.8,-778.938 727.659,-768.378 720.887,-770.147"/>
</g>
<!-- Node12 -->
<g id="node13" class="node"><title>Node12</title>
<g id="a_node13"><a xlink:title=" ">
<polygon fill="white" stroke="#bfbfbf" points="796.5,-779 796.5,-836 869.5,-836 869.5,-779 796.5,-779"/>
<text text-anchor="middle" x="833" y="-824" font-family="SegoeUI" font-size="10.00">IDropHandler</text>
<polyline fill="none" stroke="#bfbfbf" points="796.5,-817 869.5,-817 "/>
<text text-anchor="middle" x="833" y="-805" font-family="SegoeUI" font-size="10.00"> </text>
<polyline fill="none" stroke="#bfbfbf" points="796.5,-798 869.5,-798 "/>
<text text-anchor="middle" x="833" y="-786" font-family="SegoeUI" font-size="10.00"> </text>
</a>
</g>
</g>
<!-- Node12&#45;&gt;Node1 -->
<g id="edge12" class="edge"><title>Node12&#45;&gt;Node1</title>
<path fill="none" stroke="midnightblue" d="M823.905,-769.067C816.038,-739.496 803.356,-697.591 787,-663 763.859,-614.059 732.125,-563.18 703.637,-521.29"/>
<polygon fill="none" stroke="midnightblue" points="820.579,-770.184 826.485,-778.98 827.353,-768.421 820.579,-770.184"/>
</g>
<!-- Node13 -->
<g id="node14" class="node"><title>Node13</title>
<g id="a_node14"><a xlink:href="../../d0/d32/interface_juniper_1_1_widgets_1_1_i_valued_control.html" target="_top" xlink:title=" ">
<polygon fill="white" stroke="black" points="888,-779 888,-836 1006,-836 1006,-779 888,-779"/>
<text text-anchor="middle" x="947" y="-824" font-family="SegoeUI" font-size="10.00">IValuedControl&lt; float &gt;</text>
<polyline fill="none" stroke="black" points="888,-817 1006,-817 "/>
<text text-anchor="start" x="896" y="-805" font-family="SegoeUI" font-size="10.00">+ value</text>
<polyline fill="none" stroke="black" points="888,-798 1006,-798 "/>
<text text-anchor="middle" x="947" y="-786" font-family="SegoeUI" font-size="10.00"> </text>
</a>
</g>
</g>
<!-- Node13&#45;&gt;Node1 -->
<g id="edge13" class="edge"><title>Node13&#45;&gt;Node1</title>
<path fill="none" stroke="midnightblue" d="M933.401,-769.416C921.363,-739.215 901.996,-696.285 878,-663 827.926,-593.542 756.103,-526.838 703.527,-482.267"/>
<polygon fill="none" stroke="midnightblue" points="930.148,-770.706 937.049,-778.745 936.667,-768.157 930.148,-770.706"/>
</g>
<!-- Node14 -->
<g id="node15" class="node"><title>Node14</title>
<g id="a_node15"><a xlink:href="../../d0/d32/interface_juniper_1_1_widgets_1_1_i_valued_control.html" target="_top" xlink:title=" ">
<polygon fill="white" stroke="black" points="859,-999.5 859,-1056.5 1035,-1056.5 1035,-999.5 859,-999.5"/>
<text text-anchor="middle" x="947" y="-1044.5" font-family="SegoeUI" font-size="10.00">Juniper.Widgets.IValuedControl&lt; T &gt;</text>
<polyline fill="none" stroke="black" points="859,-1037.5 1035,-1037.5 "/>
<text text-anchor="start" x="867" y="-1025.5" font-family="SegoeUI" font-size="10.00">+ value</text>
<polyline fill="none" stroke="black" points="859,-1018.5 1035,-1018.5 "/>
<text text-anchor="middle" x="947" y="-1006.5" font-family="SegoeUI" font-size="10.00"> </text>
</a>
</g>
</g>
<!-- Node14&#45;&gt;Node13 -->
<g id="edge14" class="edge"><title>Node14&#45;&gt;Node13</title>
<path fill="none" stroke="orange" d="M947,-989.134C947,-945.572 947,-875.08 947,-836.293"/>
<polygon fill="orange" stroke="orange" points="943.5,-989.327 947,-999.327 950.5,-989.327 943.5,-989.327"/>
<text text-anchor="middle" x="968" y="-973" font-family="SegoeUI" font-size="10.00"> &lt; float &gt;</text>
</g>
</g>
</svg>
        <g id="navigator" transform="translate(0 0)" fill="#404254">
                <rect fill="#f2f5e9" fill-opacity="0.5" stroke="#606060" stroke-width=".5" x="0" y="0" width="60" height="60"/>
                <use id="zoomplus" xlink:href="#zoomPlus" x="17" y="9" onmousedown="handleZoom(evt,'in')"/>
                <use id="zoomminus" xlink:href="#zoomMin" x="42" y="9" onmousedown="handleZoom(evt,'out')"/>
                <use id="reset" xlink:href="#resetDef" x="30" y="36" onmousedown="handleReset()"/>
                <g id="arrowUp" xlink:href="#dirArrow" transform="translate(30 24)" onmousedown="handlePan(0,-1)">
                  <use xlink:href="#rim" fill="#404040">
                        <set attributeName="fill" to="#808080" begin="arrowUp.mouseover" end="arrowUp.mouseout"/>
                  </use>
                  <path fill="none" stroke="white" stroke-width="1.5" d="M0,-3.0v7 M-2.5,-0.5L0,-3.0L2.5,-0.5"/>
                </g>
                <g id="arrowRight" xlink:href="#dirArrow" transform="rotate(90) translate(36 -43)" onmousedown="handlePan(1,0)">
                  <use xlink:href="#rim" fill="#404040">
                        <set attributeName="fill" to="#808080" begin="arrowRight.mouseover" end="arrowRight.mouseout"/>
                  </use>
                  <path fill="none" stroke="white" stroke-width="1.5" d="M0,-3.0v7 M-2.5,-0.5L0,-3.0L2.5,-0.5"/>
                </g>
                <g id="arrowDown" xlink:href="#dirArrow" transform="rotate(180) translate(-30 -48)" onmousedown="handlePan(0,1)">
                  <use xlink:href="#rim" fill="#404040">
                        <set attributeName="fill" to="#808080" begin="arrowDown.mouseover" end="arrowDown.mouseout"/>
                  </use>
                  <path fill="none" stroke="white" stroke-width="1.5" d="M0,-3.0v7 M-2.5,-0.5L0,-3.0L2.5,-0.5"/>
                </g>
                <g id="arrowLeft" xlink:href="#dirArrow" transform="rotate(270) translate(-36 17)" onmousedown="handlePan(-1,0)">
                  <use xlink:href="#rim" fill="#404040">
                        <set attributeName="fill" to="#808080" begin="arrowLeft.mouseover" end="arrowLeft.mouseout"/>
                  </use>
                  <path fill="none" stroke="white" stroke-width="1.5" d="M0,-3.0v7 M-2.5,-0.5L0,-3.0L2.5,-0.5"/>
                </g>
        </g>
        <svg viewBox="0 0 15 15" width="100%" height="30px" preserveAspectRatio="xMaxYMin meet">
         <g id="arrow_out" transform="scale(0.3 0.3)">
          <a xlink:href="class_juniper_1_1_widgets_1_1_draggable__inherit__graph_org.svg" target="_base">
           <rect id="button" ry="5" rx="5" y="6" x="6" height="38" width="38"
                fill="#f2f5e9" fill-opacity="0.5" stroke="#606060" stroke-width="1.0"/>
           <path id="arrow"
             d="M 11.500037,31.436501 C 11.940474,20.09759 22.043105,11.32322 32.158766,21.979434 L 37.068811,17.246167 C 37.068811,17.246167 37.088388,32 37.088388,32 L 22.160133,31.978069 C 22.160133,31.978069 26.997745,27.140456 26.997745,27.140456 C 18.528582,18.264221 13.291696,25.230495 11.500037,31.436501 z"
             style="fill:#404040;"/>
          </a>
         </g>
        </svg>
</svg>
