<?xml version="1.0" encoding="UTF-8" standalone="no"?>
<!DOCTYPE svg PUBLIC "-//W3C//DTD SVG 1.1//EN"
 "http://www.w3.org/Graphics/SVG/1.1/DTD/svg11.dtd">
<!-- Generated by graphviz version 2.38.0 (20140413.2041)
 -->
<!-- Title: Juniper.Unity.Widgets.ListViewItem Pages: 1 -->
<svg width="150pt" height="325pt"
 viewBox="0.00 0.00 150.00 325.00" xmlns="http://www.w3.org/2000/svg" xmlns:xlink="http://www.w3.org/1999/xlink">
<g id="graph0" class="graph" transform="scale(1 1) rotate(0) translate(4 321)">
<title>Juniper.Unity.Widgets.ListViewItem</title>
<polygon fill="white" stroke="none" points="-4,4 -4,-321 146,-321 146,4 -4,4"/>
<!-- Node2 -->
<g id="node1" class="node"><title>Node2</title>
<g id="a_node1"><a xlink:title=" ">
<polygon fill="#bfbfbf" stroke="black" points="16,-0.5 16,-211.5 142,-211.5 142,-0.5 16,-0.5"/>
<text text-anchor="start" x="24" y="-199.5" font-family="SegoeUI" font-size="10.00">Juniper.Unity.Widgets.List</text>
<text text-anchor="middle" x="79" y="-188.5" font-family="SegoeUI" font-size="10.00">ViewItem</text>
<polyline fill="none" stroke="black" points="16,-181.5 142,-181.5 "/>
<text text-anchor="start" x="24" y="-169.5" font-family="SegoeUI" font-size="10.00">+ interactable</text>
<text text-anchor="start" x="24" y="-158.5" font-family="SegoeUI" font-size="10.00">+ normalColor</text>
<text text-anchor="start" x="24" y="-147.5" font-family="SegoeUI" font-size="10.00">+ disabledColor</text>
<text text-anchor="start" x="24" y="-136.5" font-family="SegoeUI" font-size="10.00">+ BackgroundColor</text>
<text text-anchor="start" x="24" y="-125.5" font-family="SegoeUI" font-size="10.00">+ Font</text>
<text text-anchor="start" x="24" y="-114.5" font-family="SegoeUI" font-size="10.00">+ FontSize</text>
<text text-anchor="start" x="24" y="-103.5" font-family="SegoeUI" font-size="10.00">+ Text</text>
<text text-anchor="start" x="24" y="-92.5" font-family="SegoeUI" font-size="10.00">+ Key</text>
<text text-anchor="start" x="24" y="-81.5" font-family="SegoeUI" font-size="10.00">+ DataItem</text>
<text text-anchor="start" x="24" y="-70.5" font-family="SegoeUI" font-size="10.00">&#45; img</text>
<text text-anchor="start" x="24" y="-59.5" font-family="SegoeUI" font-size="10.00">&#45; btn</text>
<polyline fill="none" stroke="black" points="16,-52.5 142,-52.5 "/>
<text text-anchor="start" x="24" y="-40.5" font-family="SegoeUI" font-size="10.00">+ Update()</text>
<text text-anchor="start" x="24" y="-29.5" font-family="SegoeUI" font-size="10.00">+ Awake()</text>
<text text-anchor="start" x="24" y="-18.5" font-family="SegoeUI" font-size="10.00">+ RemoveAllListeners()</text>
<text text-anchor="start" x="24" y="-7.5" font-family="SegoeUI" font-size="10.00">+ AddListener()</text>
</a>
</g>
</g>
<!-- Node3 -->
<g id="node2" class="node"><title>Node3</title>
<g id="a_node2"><a xlink:title=" ">
<polygon fill="white" stroke="#bfbfbf" points="0,-259.5 0,-316.5 82,-316.5 82,-259.5 0,-259.5"/>
<text text-anchor="middle" x="41" y="-304.5" font-family="SegoeUI" font-size="10.00">MonoBehaviour</text>
<polyline fill="none" stroke="#bfbfbf" points="0,-297.5 82,-297.5 "/>
<text text-anchor="middle" x="41" y="-285.5" font-family="SegoeUI" font-size="10.00"> </text>
<polyline fill="none" stroke="#bfbfbf" points="0,-278.5 82,-278.5 "/>
<text text-anchor="middle" x="41" y="-266.5" font-family="SegoeUI" font-size="10.00"> </text>
</a>
</g>
</g>
<!-- Node3&#45;&gt;Node2 -->
<g id="edge1" class="edge"><title>Node3&#45;&gt;Node2</title>
<path fill="none" stroke="midnightblue" d="M48.9305,-249.434C51.3082,-238.172 54.041,-225.227 56.869,-211.831"/>
<polygon fill="none" stroke="midnightblue" points="45.4954,-248.762 46.8542,-259.269 52.3444,-250.208 45.4954,-248.762"/>
</g>
<!-- Node4 -->
<g id="node3" class="node"><title>Node4</title>
<g id="a_node3"><a xlink:title=" ">
<polygon fill="white" stroke="#bfbfbf" points="100.5,-259.5 100.5,-316.5 135.5,-316.5 135.5,-259.5 100.5,-259.5"/>
<text text-anchor="middle" x="118" y="-304.5" font-family="SegoeUI" font-size="10.00">Text</text>
<polyline fill="none" stroke="#bfbfbf" points="100.5,-297.5 135.5,-297.5 "/>
<text text-anchor="middle" x="118" y="-285.5" font-family="SegoeUI" font-size="10.00"> </text>
<polyline fill="none" stroke="#bfbfbf" points="100.5,-278.5 135.5,-278.5 "/>
<text text-anchor="middle" x="118" y="-266.5" font-family="SegoeUI" font-size="10.00"> </text>
</a>
</g>
</g>
<!-- Node4&#45;&gt;Node2 -->
<g id="edge2" class="edge"><title>Node4&#45;&gt;Node2</title>
<path fill="none" stroke="#404040" d="M111.992,-259.269C109.777,-249.049 107.107,-236.727 104.257,-223.573"/>
<polygon fill="none" stroke="#404040" points="104.254,-223.559 99.0746,-218.542 101.713,-211.831 106.893,-216.848 104.254,-223.559"/>
<text text-anchor="middle" x="119.5" y="-233" font-family="SegoeUI" font-size="10.00"> &#45;text</text>
</g>
</g>
</svg>
