<?xml version="1.0" encoding="UTF-8" standalone="no"?>
<!DOCTYPE svg PUBLIC "-//W3C//DTD SVG 1.1//EN"
 "http://www.w3.org/Graphics/SVG/1.1/DTD/svg11.dtd">
<!-- Generated by graphviz version 2.38.0 (20140413.2041)
 -->
<!-- Title: Juniper.Unity.Widgets.ListViewItem Pages: 1 -->
<svg width="228pt" height="314pt"
 viewBox="0.00 0.00 228.00 314.00" xmlns="http://www.w3.org/2000/svg" xmlns:xlink="http://www.w3.org/1999/xlink">
<g id="graph0" class="graph" transform="scale(1 1) rotate(0) translate(4 310)">
<title>Juniper.Unity.Widgets.ListViewItem</title>
<polygon fill="white" stroke="none" points="-4,4 -4,-310 224,-310 224,4 -4,4"/>
<!-- Node2 -->
<g id="node1" class="node"><title>Node2</title>
<g id="a_node1"><a xlink:title=" ">
<polygon fill="#bfbfbf" stroke="black" points="55,-0.5 55,-200.5 181,-200.5 181,-0.5 55,-0.5"/>
<text text-anchor="start" x="63" y="-188.5" font-family="SegoeUI" font-size="10.00">Juniper.Unity.Widgets.List</text>
<text text-anchor="middle" x="118" y="-177.5" font-family="SegoeUI" font-size="10.00">ViewItem</text>
<polyline fill="none" stroke="black" points="55,-170.5 181,-170.5 "/>
<text text-anchor="start" x="63" y="-158.5" font-family="SegoeUI" font-size="10.00">+ interactable</text>
<text text-anchor="start" x="63" y="-147.5" font-family="SegoeUI" font-size="10.00">+ normalColor</text>
<text text-anchor="start" x="63" y="-136.5" font-family="SegoeUI" font-size="10.00">+ disabledColor</text>
<text text-anchor="start" x="63" y="-125.5" font-family="SegoeUI" font-size="10.00">+ BackgroundColor</text>
<text text-anchor="start" x="63" y="-114.5" font-family="SegoeUI" font-size="10.00">+ Font</text>
<text text-anchor="start" x="63" y="-103.5" font-family="SegoeUI" font-size="10.00">+ FontSize</text>
<text text-anchor="start" x="63" y="-92.5" font-family="SegoeUI" font-size="10.00">+ Text</text>
<text text-anchor="start" x="63" y="-81.5" font-family="SegoeUI" font-size="10.00">+ Key</text>
<text text-anchor="start" x="63" y="-70.5" font-family="SegoeUI" font-size="10.00">+ DataItem</text>
<text text-anchor="start" x="63" y="-59.5" font-family="SegoeUI" font-size="10.00">&#45; btn</text>
<polyline fill="none" stroke="black" points="55,-52.5 181,-52.5 "/>
<text text-anchor="start" x="63" y="-40.5" font-family="SegoeUI" font-size="10.00">+ Update()</text>
<text text-anchor="start" x="63" y="-29.5" font-family="SegoeUI" font-size="10.00">+ Awake()</text>
<text text-anchor="start" x="63" y="-18.5" font-family="SegoeUI" font-size="10.00">+ RemoveAllListeners()</text>
<text text-anchor="start" x="63" y="-7.5" font-family="SegoeUI" font-size="10.00">+ AddListener()</text>
</a>
</g>
</g>
<!-- Node3 -->
<g id="node2" class="node"><title>Node3</title>
<g id="a_node2"><a xlink:title=" ">
<polygon fill="white" stroke="#bfbfbf" points="0,-248.5 0,-305.5 82,-305.5 82,-248.5 0,-248.5"/>
<text text-anchor="middle" x="41" y="-293.5" font-family="SegoeUI" font-size="10.00">MonoBehaviour</text>
<polyline fill="none" stroke="#bfbfbf" points="0,-286.5 82,-286.5 "/>
<text text-anchor="middle" x="41" y="-274.5" font-family="SegoeUI" font-size="10.00"> </text>
<polyline fill="none" stroke="#bfbfbf" points="0,-267.5 82,-267.5 "/>
<text text-anchor="middle" x="41" y="-255.5" font-family="SegoeUI" font-size="10.00"> </text>
</a>
</g>
</g>
<!-- Node3&#45;&gt;Node2 -->
<g id="edge1" class="edge"><title>Node3&#45;&gt;Node2</title>
<path fill="none" stroke="midnightblue" d="M57.251,-239.171C62.3065,-227.715 68.1412,-214.492 74.1533,-200.867"/>
<polygon fill="none" stroke="midnightblue" points="54.0359,-237.788 53.2009,-248.35 60.4401,-240.614 54.0359,-237.788"/>
</g>
<!-- Node4 -->
<g id="node3" class="node"><title>Node4</title>
<g id="a_node3"><a xlink:title=" ">
<polygon fill="white" stroke="#bfbfbf" points="100.5,-248.5 100.5,-305.5 135.5,-305.5 135.5,-248.5 100.5,-248.5"/>
<text text-anchor="middle" x="118" y="-293.5" font-family="SegoeUI" font-size="10.00">Text</text>
<polyline fill="none" stroke="#bfbfbf" points="100.5,-286.5 135.5,-286.5 "/>
<text text-anchor="middle" x="118" y="-274.5" font-family="SegoeUI" font-size="10.00"> </text>
<polyline fill="none" stroke="#bfbfbf" points="100.5,-267.5 135.5,-267.5 "/>
<text text-anchor="middle" x="118" y="-255.5" font-family="SegoeUI" font-size="10.00"> </text>
</a>
</g>
</g>
<!-- Node4&#45;&gt;Node2 -->
<g id="edge2" class="edge"><title>Node4&#45;&gt;Node2</title>
<path fill="none" stroke="#404040" d="M118,-248.35C118,-238.196 118,-225.98 118,-212.984"/>
<polygon fill="none" stroke="#404040" points="118,-212.867 114,-206.867 118,-200.867 122,-206.867 118,-212.867"/>
<text text-anchor="middle" x="129.5" y="-222" font-family="SegoeUI" font-size="10.00"> &#45;text</text>
</g>
<!-- Node5 -->
<g id="node4" class="node"><title>Node5</title>
<g id="a_node4"><a xlink:title=" ">
<polygon fill="white" stroke="#bfbfbf" points="154,-248.5 154,-305.5 220,-305.5 220,-248.5 154,-248.5"/>
<text text-anchor="middle" x="187" y="-293.5" font-family="SegoeUI" font-size="10.00">UnityEngine</text>
<polyline fill="none" stroke="#bfbfbf" points="154,-286.5 220,-286.5 "/>
<text text-anchor="middle" x="187" y="-274.5" font-family="SegoeUI" font-size="10.00"> </text>
<polyline fill="none" stroke="#bfbfbf" points="154,-267.5 220,-267.5 "/>
<text text-anchor="middle" x="187" y="-255.5" font-family="SegoeUI" font-size="10.00"> </text>
</a>
</g>
</g>
<!-- Node5&#45;&gt;Node2 -->
<g id="edge3" class="edge"><title>Node5&#45;&gt;Node2</title>
<path fill="none" stroke="#404040" d="M176.067,-248.35C171.97,-237.989 167.024,-225.48 161.767,-212.187"/>
<polygon fill="none" stroke="#404040" points="161.704,-212.026 155.778,-207.917 157.291,-200.867 163.217,-204.976 161.704,-212.026"/>
<text text-anchor="middle" x="180.5" y="-222" font-family="SegoeUI" font-size="10.00"> &#45;img</text>
</g>
</g>
</svg>
