<?xml version="1.0" encoding="UTF-8" standalone="no"?>
<!DOCTYPE svg PUBLIC "-//W3C//DTD SVG 1.1//EN"
 "http://www.w3.org/Graphics/SVG/1.1/DTD/svg11.dtd">
<!-- Generated by graphviz version 2.38.0 (20140413.2041)
 -->
<!-- Title: Hjg.Pngcs.Chunks.PngChunkBKGD Pages: 1 -->
<svg width="168pt" height="749pt"
 viewBox="0.00 0.00 168.00 749.00" xmlns="http://www.w3.org/2000/svg" xmlns:xlink="http://www.w3.org/1999/xlink">
<g id="graph0" class="graph" transform="scale(1 1) rotate(0) translate(4 745)">
<title>Hjg.Pngcs.Chunks.PngChunkBKGD</title>
<polygon fill="white" stroke="none" points="-4,4 -4,-745 164,-745 164,4 -4,4"/>
<!-- Node0 -->
<g id="node1" class="node"><title>Node0</title>
<g id="a_node1"><a xlink:title="bKGD chunk, see http://www.w3.org/TR/PNG/#11bKGD">
<polygon fill="#bfbfbf" stroke="black" points="0,-0.5 0,-233.5 160,-233.5 160,-0.5 0,-0.5"/>
<text text-anchor="middle" x="80" y="-221.5" font-family="SegoeUI" font-size="10.00">Hjg.Pngcs.Chunks.PngChunkBKGD</text>
<polyline fill="none" stroke="black" points="0,-214.5 160,-214.5 "/>
<text text-anchor="start" x="8" y="-202.5" font-family="SegoeUI" font-size="10.00">+ ID</text>
<text text-anchor="start" x="8" y="-191.5" font-family="SegoeUI" font-size="10.00">&#45; gray</text>
<text text-anchor="start" x="8" y="-180.5" font-family="SegoeUI" font-size="10.00">&#45; red</text>
<text text-anchor="start" x="8" y="-169.5" font-family="SegoeUI" font-size="10.00">&#45; green</text>
<text text-anchor="start" x="8" y="-158.5" font-family="SegoeUI" font-size="10.00">&#45; blue</text>
<text text-anchor="start" x="8" y="-147.5" font-family="SegoeUI" font-size="10.00">&#45; paletteIndex</text>
<polyline fill="none" stroke="black" points="0,-140.5 160,-140.5 "/>
<text text-anchor="start" x="8" y="-128.5" font-family="SegoeUI" font-size="10.00">+ PngChunkBKGD()</text>
<text text-anchor="start" x="8" y="-117.5" font-family="SegoeUI" font-size="10.00">+ GetOrderingConstraint()</text>
<text text-anchor="start" x="8" y="-106.5" font-family="SegoeUI" font-size="10.00">+ CreateRawChunk()</text>
<text text-anchor="start" x="8" y="-95.5" font-family="SegoeUI" font-size="10.00">+ ParseFromRaw()</text>
<text text-anchor="start" x="8" y="-84.5" font-family="SegoeUI" font-size="10.00">+ CloneDataFromRead()</text>
<text text-anchor="start" x="8" y="-73.5" font-family="SegoeUI" font-size="10.00">+ SetGray()</text>
<text text-anchor="start" x="8" y="-62.5" font-family="SegoeUI" font-size="10.00">+ GetGray()</text>
<text text-anchor="start" x="8" y="-51.5" font-family="SegoeUI" font-size="10.00">+ SetPaletteIndex()</text>
<text text-anchor="start" x="8" y="-40.5" font-family="SegoeUI" font-size="10.00">+ GetPaletteIndex()</text>
<text text-anchor="start" x="8" y="-29.5" font-family="SegoeUI" font-size="10.00">+ SetRGB()</text>
<text text-anchor="start" x="8" y="-18.5" font-family="SegoeUI" font-size="10.00">+ GetRGB()</text>
<text text-anchor="start" x="8" y="-7.5" font-family="SegoeUI" font-size="10.00">&#45; CloneData()</text>
</a>
</g>
</g>
<!-- Node1 -->
<g id="node2" class="node"><title>Node1</title>
<g id="a_node2"><a xlink:href="../../d2/dc1/class_hjg_1_1_pngcs_1_1_chunks_1_1_png_chunk_single.html" target="_top" xlink:title="A Chunk type that does not allow duplicate in an image">
<polygon fill="white" stroke="black" points="29,-270.5 29,-360.5 131,-360.5 131,-270.5 29,-270.5"/>
<text text-anchor="middle" x="80" y="-348.5" font-family="SegoeUI" font-size="10.00">PngChunkSingle</text>
<polyline fill="none" stroke="black" points="29,-341.5 131,-341.5 "/>
<text text-anchor="middle" x="80" y="-329.5" font-family="SegoeUI" font-size="10.00"> </text>
<polyline fill="none" stroke="black" points="29,-322.5 131,-322.5 "/>
<text text-anchor="start" x="37" y="-310.5" font-family="SegoeUI" font-size="10.00">+ AllowsMultiple()</text>
<text text-anchor="start" x="37" y="-299.5" font-family="SegoeUI" font-size="10.00">+ GetHashCode()</text>
<text text-anchor="start" x="37" y="-288.5" font-family="SegoeUI" font-size="10.00">+ Equals()</text>
<text text-anchor="start" x="37" y="-277.5" font-family="SegoeUI" font-size="10.00"># PngChunkSingle()</text>
</a>
</g>
</g>
<!-- Node1&#45;&gt;Node0 -->
<g id="edge1" class="edge"><title>Node1&#45;&gt;Node0</title>
<path fill="none" stroke="midnightblue" d="M80,-260.368C80,-251.898 80,-242.877 80,-233.644"/>
<polygon fill="none" stroke="midnightblue" points="76.5001,-260.402 80,-270.402 83.5001,-260.402 76.5001,-260.402"/>
</g>
<!-- Node2 -->
<g id="node3" class="node"><title>Node2</title>
<g id="a_node3"><a xlink:href="../../d8/dd4/class_hjg_1_1_pngcs_1_1_chunks_1_1_abstract_png_chunk.html" target="_top" xlink:title="Represents a instance of a PNG chunk">
<polygon fill="white" stroke="black" points="16,-397.5 16,-740.5 144,-740.5 144,-397.5 16,-397.5"/>
<text text-anchor="middle" x="80" y="-728.5" font-family="SegoeUI" font-size="10.00">AbstractPngChunk</text>
<polyline fill="none" stroke="black" points="16,-721.5 144,-721.5 "/>
<text text-anchor="start" x="24" y="-709.5" font-family="SegoeUI" font-size="10.00">+ Id</text>
<text text-anchor="start" x="24" y="-698.5" font-family="SegoeUI" font-size="10.00">+ Crit</text>
<text text-anchor="start" x="24" y="-687.5" font-family="SegoeUI" font-size="10.00">+ Pub</text>
<text text-anchor="start" x="24" y="-676.5" font-family="SegoeUI" font-size="10.00">+ Safe</text>
<text text-anchor="start" x="24" y="-665.5" font-family="SegoeUI" font-size="10.00">+ ImgInfo</text>
<text text-anchor="start" x="24" y="-654.5" font-family="SegoeUI" font-size="10.00">+ Priority</text>
<text text-anchor="start" x="24" y="-643.5" font-family="SegoeUI" font-size="10.00">+ ChunkGroup</text>
<text text-anchor="start" x="24" y="-632.5" font-family="SegoeUI" font-size="10.00">+ Length</text>
<text text-anchor="start" x="24" y="-621.5" font-family="SegoeUI" font-size="10.00">+ Offset</text>
<text text-anchor="start" x="24" y="-610.5" font-family="SegoeUI" font-size="10.00">&#45; factoryMap</text>
<polyline fill="none" stroke="black" points="16,-603.5 144,-603.5 "/>
<text text-anchor="start" x="24" y="-591.5" font-family="SegoeUI" font-size="10.00">+ CreateEmptyChunk()</text>
<text text-anchor="start" x="24" y="-580.5" font-family="SegoeUI" font-size="10.00">+ ToString()</text>
<text text-anchor="start" x="24" y="-569.5" font-family="SegoeUI" font-size="10.00">+ CreateRawChunk()</text>
<text text-anchor="start" x="24" y="-558.5" font-family="SegoeUI" font-size="10.00">+ ParseFromRaw()</text>
<text text-anchor="start" x="24" y="-547.5" font-family="SegoeUI" font-size="10.00">+ CloneDataFromRead()</text>
<text text-anchor="start" x="24" y="-536.5" font-family="SegoeUI" font-size="10.00">+ AllowsMultiple()</text>
<text text-anchor="start" x="24" y="-525.5" font-family="SegoeUI" font-size="10.00">+ GetOrderingConstraint()</text>
<text text-anchor="start" x="24" y="-514.5" font-family="SegoeUI" font-size="10.00">+ FactoryRegister()</text>
<text text-anchor="start" x="24" y="-503.5" font-family="SegoeUI" font-size="10.00">+ CloneChunk&lt; T &gt;()</text>
<text text-anchor="start" x="24" y="-492.5" font-family="SegoeUI" font-size="10.00"># AbstractPngChunk()</text>
<text text-anchor="start" x="24" y="-481.5" font-family="SegoeUI" font-size="10.00">&#45; MustGoBeforePLTE()</text>
<text text-anchor="start" x="24" y="-470.5" font-family="SegoeUI" font-size="10.00">&#45; MustGoBeforeIDAT()</text>
<text text-anchor="start" x="24" y="-459.5" font-family="SegoeUI" font-size="10.00">&#45; MustGoAfterPLTE()</text>
<text text-anchor="start" x="24" y="-448.5" font-family="SegoeUI" font-size="10.00">&#45; Write()</text>
<text text-anchor="start" x="24" y="-437.5" font-family="SegoeUI" font-size="10.00">&#45; InitFactory()</text>
<text text-anchor="start" x="24" y="-426.5" font-family="SegoeUI" font-size="10.00">&#45; IsKnown()</text>
<text text-anchor="start" x="24" y="-415.5" font-family="SegoeUI" font-size="10.00">&#45; Factory()</text>
<text text-anchor="start" x="24" y="-404.5" font-family="SegoeUI" font-size="10.00">&#45; FactoryFromId()</text>
</a>
</g>
</g>
<!-- Node2&#45;&gt;Node1 -->
<g id="edge2" class="edge"><title>Node2&#45;&gt;Node1</title>
<path fill="none" stroke="midnightblue" d="M80,-387.328C80,-377.775 80,-368.749 80,-360.542"/>
<polygon fill="none" stroke="midnightblue" points="76.5001,-387.461 80,-397.461 83.5001,-387.461 76.5001,-387.461"/>
</g>
</g>
</svg>
