<?xml version="1.0" encoding="UTF-8" standalone="no"?>
<!DOCTYPE svg PUBLIC "-//W3C//DTD SVG 1.1//EN"
 "http://www.w3.org/Graphics/SVG/1.1/DTD/svg11.dtd">
<!-- Generated by graphviz version 2.38.0 (20140413.2041)
 -->
<!-- Title: Juniper.Ground.AbstractGround Pages: 1 -->
<svg width="178pt" height="347pt"
 viewBox="0.00 0.00 177.50 347.00" xmlns="http://www.w3.org/2000/svg" xmlns:xlink="http://www.w3.org/1999/xlink">
<g id="graph0" class="graph" transform="scale(1 1) rotate(0) translate(4 343)">
<title>Juniper.Ground.AbstractGround</title>
<polygon fill="white" stroke="none" points="-4,4 -4,-343 173.5,-343 173.5,4 -4,4"/>
<!-- Node8 -->
<g id="node1" class="node"><title>Node8</title>
<g id="a_node1"><a xlink:title=" ">
<polygon fill="#bfbfbf" stroke="black" points="13,-0.5 13,-222.5 163,-222.5 163,-0.5 13,-0.5"/>
<text text-anchor="middle" x="88" y="-210.5" font-family="SegoeUI" font-size="10.00">Juniper.Ground.AbstractGround</text>
<polyline fill="none" stroke="black" points="13,-203.5 163,-203.5 "/>
<text text-anchor="start" x="21" y="-191.5" font-family="SegoeUI" font-size="10.00">+ Roughness</text>
<text text-anchor="start" x="21" y="-180.5" font-family="SegoeUI" font-size="10.00">+ spatialMappingFidelity</text>
<text text-anchor="start" x="21" y="-169.5" font-family="SegoeUI" font-size="10.00">+ MeshVisualization</text>
<text text-anchor="start" x="21" y="-158.5" font-family="SegoeUI" font-size="10.00">+ OcclusionMaterial</text>
<text text-anchor="start" x="21" y="-147.5" font-family="SegoeUI" font-size="10.00">+ OcclusionMaterialInEditor</text>
<text text-anchor="start" x="21" y="-136.5" font-family="SegoeUI" font-size="10.00">+ VisualizationMaterial</text>
<text text-anchor="start" x="21" y="-125.5" font-family="SegoeUI" font-size="10.00">+ CurrentMaterial</text>
<text text-anchor="start" x="21" y="-114.5" font-family="SegoeUI" font-size="10.00">+ GroundLayer</text>
<text text-anchor="start" x="21" y="-103.5" font-family="SegoeUI" font-size="10.00">+ GroundVisualizers</text>
<text text-anchor="start" x="21" y="-92.5" font-family="SegoeUI" font-size="10.00">&#45; lastMeshVisualization</text>
<polyline fill="none" stroke="black" points="13,-85.5 163,-85.5 "/>
<text text-anchor="start" x="21" y="-73.5" font-family="SegoeUI" font-size="10.00">+ ToggleVisualization()</text>
<text text-anchor="start" x="21" y="-62.5" font-family="SegoeUI" font-size="10.00">+ Reinstall()</text>
<text text-anchor="start" x="21" y="-51.5" font-family="SegoeUI" font-size="10.00">+ Update()</text>
<text text-anchor="start" x="21" y="-40.5" font-family="SegoeUI" font-size="10.00">+ Install()</text>
<text text-anchor="start" x="21" y="-29.5" font-family="SegoeUI" font-size="10.00">+ Uninstall()</text>
<text text-anchor="start" x="21" y="-18.5" font-family="SegoeUI" font-size="10.00"># Awake()</text>
<text text-anchor="start" x="21" y="-7.5" font-family="SegoeUI" font-size="10.00"># VisualizationChanged()</text>
</a>
</g>
</g>
<!-- Node9 -->
<g id="node2" class="node"><title>Node9</title>
<g id="a_node2"><a xlink:title=" ">
<polygon fill="white" stroke="#bfbfbf" points="0,-270.5 0,-327.5 82,-327.5 82,-270.5 0,-270.5"/>
<text text-anchor="middle" x="41" y="-315.5" font-family="SegoeUI" font-size="10.00">MonoBehaviour</text>
<polyline fill="none" stroke="#bfbfbf" points="0,-308.5 82,-308.5 "/>
<text text-anchor="middle" x="41" y="-296.5" font-family="SegoeUI" font-size="10.00"> </text>
<polyline fill="none" stroke="#bfbfbf" points="0,-289.5 82,-289.5 "/>
<text text-anchor="middle" x="41" y="-277.5" font-family="SegoeUI" font-size="10.00"> </text>
</a>
</g>
</g>
<!-- Node9&#45;&gt;Node8 -->
<g id="edge1" class="edge"><title>Node9&#45;&gt;Node8</title>
<path fill="none" stroke="midnightblue" d="M50.5346,-260.369C53.3973,-249.07 56.6938,-236.06 60.1191,-222.541"/>
<polygon fill="none" stroke="midnightblue" points="47.0997,-259.675 48.0364,-270.229 53.8853,-261.395 47.0997,-259.675"/>
</g>
<!-- Node10 -->
<g id="node3" class="node"><title>Node10</title>
<g id="a_node3"><a xlink:href="../../db/d28/interface_juniper_1_1_i_installable.html" target="_top" xlink:title="Defines an interface for objects that can be installed and have their installation progress tracked.">
<polygon fill="white" stroke="black" points="100.5,-259.5 100.5,-338.5 169.5,-338.5 169.5,-259.5 100.5,-259.5"/>
<text text-anchor="middle" x="135" y="-326.5" font-family="SegoeUI" font-size="10.00">IInstallable</text>
<polyline fill="none" stroke="black" points="100.5,-319.5 169.5,-319.5 "/>
<text text-anchor="middle" x="135" y="-307.5" font-family="SegoeUI" font-size="10.00"> </text>
<polyline fill="none" stroke="black" points="100.5,-300.5 169.5,-300.5 "/>
<text text-anchor="start" x="108.5" y="-288.5" font-family="SegoeUI" font-size="10.00">+ Install()</text>
<text text-anchor="start" x="108.5" y="-277.5" font-family="SegoeUI" font-size="10.00">+ Reinstall()</text>
<text text-anchor="start" x="108.5" y="-266.5" font-family="SegoeUI" font-size="10.00">+ Uninstall()</text>
</a>
</g>
</g>
<!-- Node10&#45;&gt;Node8 -->
<g id="edge2" class="edge"><title>Node10&#45;&gt;Node8</title>
<path fill="none" stroke="midnightblue" d="M122.652,-249.266C120.538,-240.92 118.266,-231.955 115.934,-222.752"/>
<polygon fill="none" stroke="midnightblue" points="119.298,-250.279 125.147,-259.113 126.084,-248.56 119.298,-250.279"/>
</g>
</g>
</svg>
