<?xml version="1.0" encoding="UTF-8" standalone="no"?>
<!DOCTYPE svg PUBLIC "-//W3C//DTD SVG 1.1//EN"
 "http://www.w3.org/Graphics/SVG/1.1/DTD/svg11.dtd">
<!-- Generated by graphviz version 2.38.0 (20140413.2041)
 -->
<!-- Title: Hjg.Pngcs.Chunks.PngChunkSingle Pages: 1 -->
<svg width="145pt" height="585pt"
 viewBox="0.00 0.00 145.00 585.00" xmlns="http://www.w3.org/2000/svg" xmlns:xlink="http://www.w3.org/1999/xlink">
<g id="graph0" class="graph" transform="scale(1 1) rotate(0) translate(4 581)">
<title>Hjg.Pngcs.Chunks.PngChunkSingle</title>
<polygon fill="white" stroke="none" points="-4,4 -4,-581 141,-581 141,4 -4,4"/>
<!-- Node17 -->
<g id="node1" class="node"><title>Node17</title>
<g id="a_node1"><a xlink:title="A Chunk type that does not allow duplicate in an image">
<polygon fill="#bfbfbf" stroke="black" points="0,-0.5 0,-101.5 137,-101.5 137,-0.5 0,-0.5"/>
<text text-anchor="start" x="8" y="-89.5" font-family="SegoeUI" font-size="10.00">Hjg.Pngcs.Chunks.PngChunk</text>
<text text-anchor="middle" x="68.5" y="-78.5" font-family="SegoeUI" font-size="10.00">Single</text>
<polyline fill="none" stroke="black" points="0,-71.5 137,-71.5 "/>
<text text-anchor="middle" x="68.5" y="-59.5" font-family="SegoeUI" font-size="10.00"> </text>
<polyline fill="none" stroke="black" points="0,-52.5 137,-52.5 "/>
<text text-anchor="start" x="8" y="-40.5" font-family="SegoeUI" font-size="10.00">+ AllowsMultiple()</text>
<text text-anchor="start" x="8" y="-29.5" font-family="SegoeUI" font-size="10.00">+ GetHashCode()</text>
<text text-anchor="start" x="8" y="-18.5" font-family="SegoeUI" font-size="10.00">+ Equals()</text>
<text text-anchor="start" x="8" y="-7.5" font-family="SegoeUI" font-size="10.00"># PngChunkSingle()</text>
</a>
</g>
</g>
<!-- Node18 -->
<g id="node2" class="node"><title>Node18</title>
<g id="a_node2"><a xlink:href="../../d8/dd4/class_hjg_1_1_pngcs_1_1_chunks_1_1_abstract_png_chunk.html" target="_top" xlink:title="Represents a instance of a PNG chunk">
<polygon fill="white" stroke="black" points="4.5,-139.5 4.5,-471.5 132.5,-471.5 132.5,-139.5 4.5,-139.5"/>
<text text-anchor="middle" x="68.5" y="-459.5" font-family="SegoeUI" font-size="10.00">AbstractPngChunk</text>
<polyline fill="none" stroke="black" points="4.5,-452.5 132.5,-452.5 "/>
<text text-anchor="start" x="12.5" y="-440.5" font-family="SegoeUI" font-size="10.00">+ Id</text>
<text text-anchor="start" x="12.5" y="-429.5" font-family="SegoeUI" font-size="10.00">+ Crit</text>
<text text-anchor="start" x="12.5" y="-418.5" font-family="SegoeUI" font-size="10.00">+ Pub</text>
<text text-anchor="start" x="12.5" y="-407.5" font-family="SegoeUI" font-size="10.00">+ Safe</text>
<text text-anchor="start" x="12.5" y="-396.5" font-family="SegoeUI" font-size="10.00">+ ImgInfo</text>
<text text-anchor="start" x="12.5" y="-385.5" font-family="SegoeUI" font-size="10.00">+ Priority</text>
<text text-anchor="start" x="12.5" y="-374.5" font-family="SegoeUI" font-size="10.00">+ ChunkGroup</text>
<text text-anchor="start" x="12.5" y="-363.5" font-family="SegoeUI" font-size="10.00">+ Length</text>
<text text-anchor="start" x="12.5" y="-352.5" font-family="SegoeUI" font-size="10.00">+ Offset</text>
<polyline fill="none" stroke="black" points="4.5,-345.5 132.5,-345.5 "/>
<text text-anchor="start" x="12.5" y="-333.5" font-family="SegoeUI" font-size="10.00">+ CreateEmptyChunk()</text>
<text text-anchor="start" x="12.5" y="-322.5" font-family="SegoeUI" font-size="10.00">+ ToString()</text>
<text text-anchor="start" x="12.5" y="-311.5" font-family="SegoeUI" font-size="10.00">+ CreateRawChunk()</text>
<text text-anchor="start" x="12.5" y="-300.5" font-family="SegoeUI" font-size="10.00">+ ParseFromRaw()</text>
<text text-anchor="start" x="12.5" y="-289.5" font-family="SegoeUI" font-size="10.00">+ CloneDataFromRead()</text>
<text text-anchor="start" x="12.5" y="-278.5" font-family="SegoeUI" font-size="10.00">+ AllowsMultiple()</text>
<text text-anchor="start" x="12.5" y="-267.5" font-family="SegoeUI" font-size="10.00">+ GetOrderingConstraint()</text>
<text text-anchor="start" x="12.5" y="-256.5" font-family="SegoeUI" font-size="10.00">+ FactoryRegister()</text>
<text text-anchor="start" x="12.5" y="-245.5" font-family="SegoeUI" font-size="10.00">+ CloneChunk&lt; T &gt;()</text>
<text text-anchor="start" x="12.5" y="-234.5" font-family="SegoeUI" font-size="10.00"># AbstractPngChunk()</text>
<text text-anchor="start" x="12.5" y="-223.5" font-family="SegoeUI" font-size="10.00">&#45; MustGoBeforePLTE()</text>
<text text-anchor="start" x="12.5" y="-212.5" font-family="SegoeUI" font-size="10.00">&#45; MustGoBeforeIDAT()</text>
<text text-anchor="start" x="12.5" y="-201.5" font-family="SegoeUI" font-size="10.00">&#45; MustGoAfterPLTE()</text>
<text text-anchor="start" x="12.5" y="-190.5" font-family="SegoeUI" font-size="10.00">&#45; Write()</text>
<text text-anchor="start" x="12.5" y="-179.5" font-family="SegoeUI" font-size="10.00">&#45; InitFactory()</text>
<text text-anchor="start" x="12.5" y="-168.5" font-family="SegoeUI" font-size="10.00">&#45; IsKnown()</text>
<text text-anchor="start" x="12.5" y="-157.5" font-family="SegoeUI" font-size="10.00">&#45; Factory()</text>
<text text-anchor="start" x="12.5" y="-146.5" font-family="SegoeUI" font-size="10.00">&#45; FactoryFromId()</text>
</a>
</g>
</g>
<!-- Node18&#45;&gt;Node17 -->
<g id="edge1" class="edge"><title>Node18&#45;&gt;Node17</title>
<path fill="none" stroke="midnightblue" d="M68.5,-129.004C68.5,-119.321 68.5,-110.096 68.5,-101.613"/>
<polygon fill="none" stroke="midnightblue" points="65.0001,-129.25 68.5,-139.25 72.0001,-129.25 65.0001,-129.25"/>
</g>
<!-- Node19 -->
<g id="node3" class="node"><title>Node19</title>
<g id="a_node3"><a xlink:title=" ">
<polygon fill="white" stroke="#bfbfbf" points="49,-519.5 49,-576.5 88,-576.5 88,-519.5 49,-519.5"/>
<text text-anchor="middle" x="68.5" y="-564.5" font-family="SegoeUI" font-size="10.00">static</text>
<polyline fill="none" stroke="#bfbfbf" points="49,-557.5 88,-557.5 "/>
<text text-anchor="middle" x="68.5" y="-545.5" font-family="SegoeUI" font-size="10.00"> </text>
<polyline fill="none" stroke="#bfbfbf" points="49,-538.5 88,-538.5 "/>
<text text-anchor="middle" x="68.5" y="-526.5" font-family="SegoeUI" font-size="10.00"> </text>
</a>
</g>
</g>
<!-- Node19&#45;&gt;Node18 -->
<g id="edge2" class="edge"><title>Node19&#45;&gt;Node18</title>
<path fill="none" stroke="#404040" d="M68.5,-519.412C68.5,-509.392 68.5,-497.194 68.5,-483.761"/>
<polygon fill="none" stroke="#404040" points="68.5001,-483.662 64.5,-477.662 68.5,-471.662 72.5,-477.662 68.5001,-483.662"/>
<text text-anchor="middle" x="96" y="-493" font-family="SegoeUI" font-size="10.00"> &#45;factoryMap</text>
</g>
</g>
</svg>
