<?xml version="1.0" encoding="UTF-8" standalone="no"?>
<!DOCTYPE svg PUBLIC "-//W3C//DTD SVG 1.1//EN"
 "http://www.w3.org/Graphics/SVG/1.1/DTD/svg11.dtd">
<!-- Generated by graphviz version 2.38.0 (20140413.2041)
 -->
<!-- Title: Juniper.Unity.Widgets.Shaker Pages: 1 -->
<svg width="327pt" height="1940pt"
 viewBox="0.00 0.00 327.00 1940.00" xmlns="http://www.w3.org/2000/svg" xmlns:xlink="http://www.w3.org/1999/xlink">
<g id="graph0" class="graph" transform="scale(1 1) rotate(0) translate(4 1936)">
<title>Juniper.Unity.Widgets.Shaker</title>
<polygon fill="white" stroke="none" points="-4,4 -4,-1936 323,-1936 323,4 -4,4"/>
<!-- Node2 -->
<g id="node1" class="node"><title>Node2</title>
<g id="a_node1"><a xlink:title="This component manages the activity of the user picking up a mobile device and holding it,...">
<polygon fill="#bfbfbf" stroke="black" points="76,-0.5 76,-266.5 242,-266.5 242,-0.5 76,-0.5"/>
<text text-anchor="middle" x="159" y="-254.5" font-family="SegoeUI" font-size="10.00">Juniper.Unity.Widgets.Shaker</text>
<polyline fill="none" stroke="black" points="76,-247.5 242,-247.5 "/>
<text text-anchor="start" x="84" y="-235.5" font-family="SegoeUI" font-size="10.00">+ timeout</text>
<text text-anchor="start" x="84" y="-224.5" font-family="SegoeUI" font-size="10.00">+ TorqueK</text>
<text text-anchor="start" x="84" y="-213.5" font-family="SegoeUI" font-size="10.00">+ ForceK</text>
<text text-anchor="start" x="84" y="-202.5" font-family="SegoeUI" font-size="10.00">+ includeMouseAndTouchDetection</text>
<text text-anchor="start" x="84" y="-191.5" font-family="SegoeUI" font-size="10.00">+ DebugReport</text>
<text text-anchor="start" x="84" y="-180.5" font-family="SegoeUI" font-size="10.00">+ onShook</text>
<text text-anchor="start" x="84" y="-169.5" font-family="SegoeUI" font-size="10.00">+ onInactive</text>
<text text-anchor="start" x="84" y="-158.5" font-family="SegoeUI" font-size="10.00">+ IsActive</text>
<text text-anchor="start" x="84" y="-147.5" font-family="SegoeUI" font-size="10.00">+ HasShaken</text>
<text text-anchor="start" x="84" y="-136.5" font-family="SegoeUI" font-size="10.00">+ HasTorqued</text>
<text text-anchor="start" x="84" y="-125.5" font-family="SegoeUI" font-size="10.00">+ HasAccelerated</text>
<text text-anchor="start" x="84" y="-114.5" font-family="SegoeUI" font-size="10.00">+ HasPointerMoved</text>
<text text-anchor="start" x="84" y="-103.5" font-family="SegoeUI" font-size="10.00">&#45; RINGBUFFER_SIZE</text>
<polyline fill="none" stroke="black" points="76,-96.5 242,-96.5 "/>
<text text-anchor="start" x="84" y="-84.5" font-family="SegoeUI" font-size="10.00">+ OnEnable()</text>
<text text-anchor="start" x="84" y="-73.5" font-family="SegoeUI" font-size="10.00">+ OnDisable()</text>
<text text-anchor="start" x="84" y="-62.5" font-family="SegoeUI" font-size="10.00">+ Update()</text>
<text text-anchor="start" x="84" y="-51.5" font-family="SegoeUI" font-size="10.00">&#45; OnShook()</text>
<text text-anchor="start" x="84" y="-40.5" font-family="SegoeUI" font-size="10.00">&#45; OnInactive()</text>
<text text-anchor="start" x="84" y="-29.5" font-family="SegoeUI" font-size="10.00">&#45; StartSampling()</text>
<text text-anchor="start" x="84" y="-18.5" font-family="SegoeUI" font-size="10.00">&#45; Restart()</text>
<text text-anchor="start" x="84" y="-7.5" font-family="SegoeUI" font-size="10.00">&#45; PrintDebugReport()</text>
</a>
</g>
</g>
<!-- Node3 -->
<g id="node2" class="node"><title>Node3</title>
<g id="a_node2"><a xlink:title=" ">
<polygon fill="white" stroke="#bfbfbf" points="0,-380.5 0,-437.5 82,-437.5 82,-380.5 0,-380.5"/>
<text text-anchor="middle" x="41" y="-425.5" font-family="SegoeUI" font-size="10.00">MonoBehaviour</text>
<polyline fill="none" stroke="#bfbfbf" points="0,-418.5 82,-418.5 "/>
<text text-anchor="middle" x="41" y="-406.5" font-family="SegoeUI" font-size="10.00"> </text>
<polyline fill="none" stroke="#bfbfbf" points="0,-399.5 82,-399.5 "/>
<text text-anchor="middle" x="41" y="-387.5" font-family="SegoeUI" font-size="10.00"> </text>
</a>
</g>
</g>
<!-- Node3&#45;&gt;Node2 -->
<g id="edge1" class="edge"><title>Node3&#45;&gt;Node2</title>
<path fill="none" stroke="midnightblue" d="M57.0515,-370.796C68.7793,-343.613 85.448,-304.979 101.917,-266.806"/>
<polygon fill="none" stroke="midnightblue" points="53.7117,-369.702 52.9638,-380.27 60.139,-372.475 53.7117,-369.702"/>
</g>
<!-- Node4 -->
<g id="node3" class="node"><title>Node4</title>
<g id="a_node3"><a xlink:href="../../d5/d19/class_juniper_1_1_statistics_1_1_single_statistics.html" target="_top" xlink:title="Computes statistics on System.Single values.">
<polygon fill="white" stroke="black" points="100,-325.5 100,-492.5 218,-492.5 218,-325.5 100,-325.5"/>
<text text-anchor="start" x="108" y="-480.5" font-family="SegoeUI" font-size="10.00">Juniper.Statistics.Single</text>
<text text-anchor="middle" x="159" y="-469.5" font-family="SegoeUI" font-size="10.00">Statistics</text>
<polyline fill="none" stroke="black" points="100,-462.5 218,-462.5 "/>
<text text-anchor="middle" x="159" y="-450.5" font-family="SegoeUI" font-size="10.00"> </text>
<polyline fill="none" stroke="black" points="100,-443.5 218,-443.5 "/>
<text text-anchor="start" x="108" y="-431.5" font-family="SegoeUI" font-size="10.00">+ SingleStatistics()</text>
<text text-anchor="start" x="108" y="-420.5" font-family="SegoeUI" font-size="10.00">+ SingleStatistics()</text>
<text text-anchor="start" x="108" y="-409.5" font-family="SegoeUI" font-size="10.00"># Abs()</text>
<text text-anchor="start" x="108" y="-398.5" font-family="SegoeUI" font-size="10.00"># Add()</text>
<text text-anchor="start" x="108" y="-387.5" font-family="SegoeUI" font-size="10.00"># Divide()</text>
<text text-anchor="start" x="108" y="-376.5" font-family="SegoeUI" font-size="10.00"># LessThan()</text>
<text text-anchor="start" x="108" y="-365.5" font-family="SegoeUI" font-size="10.00"># Multiply()</text>
<text text-anchor="start" x="108" y="-354.5" font-family="SegoeUI" font-size="10.00"># Scale()</text>
<text text-anchor="start" x="108" y="-343.5" font-family="SegoeUI" font-size="10.00"># Sqrt()</text>
<text text-anchor="start" x="108" y="-332.5" font-family="SegoeUI" font-size="10.00"># Subtract()</text>
</a>
</g>
</g>
<!-- Node4&#45;&gt;Node2 -->
<g id="edge2" class="edge"><title>Node4&#45;&gt;Node2</title>
<path fill="none" stroke="#404040" d="M159,-325.199C159,-310.415 159,-294.629 159,-278.708"/>
<polygon fill="none" stroke="#404040" points="159,-278.521 155,-272.522 159,-266.521 163,-272.521 159,-278.521"/>
<text text-anchor="middle" x="189.5" y="-299" font-family="SegoeUI" font-size="10.00"> &#45;torques</text>
<text text-anchor="middle" x="189.5" y="-288" font-family="SegoeUI" font-size="10.00">&#45;accelerations</text>
</g>
<!-- Node5 -->
<g id="node4" class="node"><title>Node5</title>
<g id="a_node4"><a xlink:href="../../dc/d87/class_juniper_1_1_statistics_1_1_abstract_collection_statistics.html" target="_top" xlink:title=" ">
<polygon fill="white" stroke="black" points="84.5,-530.5 84.5,-1159.5 233.5,-1159.5 233.5,-530.5 84.5,-530.5"/>
<text text-anchor="start" x="92.5" y="-1147.5" font-family="SegoeUI" font-size="10.00">AbstractCollectionStatistics</text>
<text text-anchor="middle" x="159" y="-1136.5" font-family="SegoeUI" font-size="10.00">&lt; float &gt;</text>
<polyline fill="none" stroke="black" points="84.5,-1129.5 233.5,-1129.5 "/>
<text text-anchor="start" x="92.5" y="-1117.5" font-family="SegoeUI" font-size="10.00">+ Maximum</text>
<text text-anchor="start" x="92.5" y="-1106.5" font-family="SegoeUI" font-size="10.00">+ Minimum</text>
<text text-anchor="start" x="92.5" y="-1095.5" font-family="SegoeUI" font-size="10.00">+ Mean</text>
<text text-anchor="start" x="92.5" y="-1084.5" font-family="SegoeUI" font-size="10.00">+ Variance</text>
<text text-anchor="start" x="92.5" y="-1073.5" font-family="SegoeUI" font-size="10.00">+ StandardDeviation</text>
<text text-anchor="start" x="92.5" y="-1062.5" font-family="SegoeUI" font-size="10.00">+ Count</text>
<text text-anchor="start" x="92.5" y="-1051.5" font-family="SegoeUI" font-size="10.00">+ IsSaturated</text>
<text text-anchor="start" x="92.5" y="-1040.5" font-family="SegoeUI" font-size="10.00">+ IsReadOnly</text>
<text text-anchor="start" x="92.5" y="-1029.5" font-family="SegoeUI" font-size="10.00">+ Delta</text>
<text text-anchor="start" x="92.5" y="-1018.5" font-family="SegoeUI" font-size="10.00">+ Median</text>
<text text-anchor="start" x="92.5" y="-1007.5" font-family="SegoeUI" font-size="10.00">+ this[int index]</text>
<text text-anchor="start" x="92.5" y="-996.5" font-family="SegoeUI" font-size="10.00">&#45; Zero</text>
<text text-anchor="start" x="92.5" y="-985.5" font-family="SegoeUI" font-size="10.00">&#45; One</text>
<text text-anchor="start" x="92.5" y="-974.5" font-family="SegoeUI" font-size="10.00">&#45; collect</text>
<text text-anchor="start" x="92.5" y="-963.5" font-family="SegoeUI" font-size="10.00">&#45; max</text>
<text text-anchor="start" x="92.5" y="-952.5" font-family="SegoeUI" font-size="10.00">&#45; min</text>
<text text-anchor="start" x="92.5" y="-941.5" font-family="SegoeUI" font-size="10.00">&#45; mean</text>
<text text-anchor="start" x="92.5" y="-930.5" font-family="SegoeUI" font-size="10.00">&#45; variance</text>
<text text-anchor="start" x="92.5" y="-919.5" font-family="SegoeUI" font-size="10.00">&#45; standardDev</text>
<polyline fill="none" stroke="black" points="84.5,-912.5 233.5,-912.5 "/>
<text text-anchor="start" x="92.5" y="-900.5" font-family="SegoeUI" font-size="10.00">+ GetEnumerator()</text>
<text text-anchor="start" x="92.5" y="-889.5" font-family="SegoeUI" font-size="10.00">+ Add()</text>
<text text-anchor="start" x="92.5" y="-878.5" font-family="SegoeUI" font-size="10.00">+ AddRange()</text>
<text text-anchor="start" x="92.5" y="-867.5" font-family="SegoeUI" font-size="10.00">+ Clear()</text>
<text text-anchor="start" x="92.5" y="-856.5" font-family="SegoeUI" font-size="10.00">+ Contains()</text>
<text text-anchor="start" x="92.5" y="-845.5" font-family="SegoeUI" font-size="10.00">+ CopyTo()</text>
<text text-anchor="start" x="92.5" y="-834.5" font-family="SegoeUI" font-size="10.00">+ Remove()</text>
<text text-anchor="start" x="92.5" y="-823.5" font-family="SegoeUI" font-size="10.00">+ IndexOf()</text>
<text text-anchor="start" x="92.5" y="-812.5" font-family="SegoeUI" font-size="10.00">+ Insert()</text>
<text text-anchor="start" x="92.5" y="-801.5" font-family="SegoeUI" font-size="10.00">+ RemoveAt()</text>
<text text-anchor="start" x="92.5" y="-790.5" font-family="SegoeUI" font-size="10.00">+ Append()</text>
<text text-anchor="start" x="92.5" y="-779.5" font-family="SegoeUI" font-size="10.00"># Add()</text>
<text text-anchor="start" x="92.5" y="-768.5" font-family="SegoeUI" font-size="10.00"># AbstractCollectionStatistics()</text>
<text text-anchor="start" x="92.5" y="-757.5" font-family="SegoeUI" font-size="10.00"># AbstractCollectionStatistics()</text>
<text text-anchor="start" x="92.5" y="-746.5" font-family="SegoeUI" font-size="10.00"># RecomputeStatistics()</text>
<text text-anchor="start" x="92.5" y="-735.5" font-family="SegoeUI" font-size="10.00"># UpdateStatistics()</text>
<text text-anchor="start" x="92.5" y="-724.5" font-family="SegoeUI" font-size="10.00"># Subtract()</text>
<text text-anchor="start" x="92.5" y="-713.5" font-family="SegoeUI" font-size="10.00"># Multiply()</text>
<text text-anchor="start" x="92.5" y="-702.5" font-family="SegoeUI" font-size="10.00"># Scale()</text>
<text text-anchor="start" x="92.5" y="-691.5" font-family="SegoeUI" font-size="10.00"># Divide()</text>
<text text-anchor="start" x="92.5" y="-680.5" font-family="SegoeUI" font-size="10.00"># Sqrt()</text>
<text text-anchor="start" x="92.5" y="-669.5" font-family="SegoeUI" font-size="10.00"># Abs()</text>
<text text-anchor="start" x="92.5" y="-658.5" font-family="SegoeUI" font-size="10.00"># LessThan()</text>
<text text-anchor="start" x="92.5" y="-647.5" font-family="SegoeUI" font-size="10.00">&#45; GetEnumerator()</text>
<text text-anchor="start" x="92.5" y="-636.5" font-family="SegoeUI" font-size="10.00">&#45; Add()</text>
<text text-anchor="start" x="92.5" y="-625.5" font-family="SegoeUI" font-size="10.00">&#45; Subtract()</text>
<text text-anchor="start" x="92.5" y="-614.5" font-family="SegoeUI" font-size="10.00">&#45; Multiply()</text>
<text text-anchor="start" x="92.5" y="-603.5" font-family="SegoeUI" font-size="10.00">&#45; Scale()</text>
<text text-anchor="start" x="92.5" y="-592.5" font-family="SegoeUI" font-size="10.00">&#45; Divide()</text>
<text text-anchor="start" x="92.5" y="-581.5" font-family="SegoeUI" font-size="10.00">&#45; Sqrt()</text>
<text text-anchor="start" x="92.5" y="-570.5" font-family="SegoeUI" font-size="10.00">&#45; Abs()</text>
<text text-anchor="start" x="92.5" y="-559.5" font-family="SegoeUI" font-size="10.00">&#45; LessThan()</text>
<text text-anchor="start" x="92.5" y="-548.5" font-family="SegoeUI" font-size="10.00">&#45; Min()</text>
<text text-anchor="start" x="92.5" y="-537.5" font-family="SegoeUI" font-size="10.00">&#45; Max()</text>
</a>
</g>
</g>
<!-- Node5&#45;&gt;Node4 -->
<g id="edge3" class="edge"><title>Node5&#45;&gt;Node4</title>
<path fill="none" stroke="midnightblue" d="M159,-520.248C159,-510.709 159,-501.536 159,-492.837"/>
<polygon fill="none" stroke="midnightblue" points="155.5,-520.317 159,-530.317 162.5,-520.317 155.5,-520.317"/>
</g>
<!-- Node6 -->
<g id="node5" class="node"><title>Node6</title>
<g id="a_node5"><a xlink:href="../../dc/d87/class_juniper_1_1_statistics_1_1_abstract_collection_statistics.html" target="_top" xlink:title="An abstract class for a collection wrapper that can automatically compute statistics on the values co...">
<polygon fill="white" stroke="black" points="84.5,-1207.5 84.5,-1836.5 233.5,-1836.5 233.5,-1207.5 84.5,-1207.5"/>
<text text-anchor="start" x="92.5" y="-1824.5" font-family="SegoeUI" font-size="10.00">Juniper.Statistics.Abstract</text>
<text text-anchor="middle" x="159" y="-1813.5" font-family="SegoeUI" font-size="10.00">CollectionStatistics&lt; T &gt;</text>
<polyline fill="none" stroke="black" points="84.5,-1806.5 233.5,-1806.5 "/>
<text text-anchor="start" x="92.5" y="-1794.5" font-family="SegoeUI" font-size="10.00">+ Maximum</text>
<text text-anchor="start" x="92.5" y="-1783.5" font-family="SegoeUI" font-size="10.00">+ Minimum</text>
<text text-anchor="start" x="92.5" y="-1772.5" font-family="SegoeUI" font-size="10.00">+ Mean</text>
<text text-anchor="start" x="92.5" y="-1761.5" font-family="SegoeUI" font-size="10.00">+ Variance</text>
<text text-anchor="start" x="92.5" y="-1750.5" font-family="SegoeUI" font-size="10.00">+ StandardDeviation</text>
<text text-anchor="start" x="92.5" y="-1739.5" font-family="SegoeUI" font-size="10.00">+ Count</text>
<text text-anchor="start" x="92.5" y="-1728.5" font-family="SegoeUI" font-size="10.00">+ IsSaturated</text>
<text text-anchor="start" x="92.5" y="-1717.5" font-family="SegoeUI" font-size="10.00">+ IsReadOnly</text>
<text text-anchor="start" x="92.5" y="-1706.5" font-family="SegoeUI" font-size="10.00">+ Delta</text>
<text text-anchor="start" x="92.5" y="-1695.5" font-family="SegoeUI" font-size="10.00">+ Median</text>
<text text-anchor="start" x="92.5" y="-1684.5" font-family="SegoeUI" font-size="10.00">+ this[int index]</text>
<text text-anchor="start" x="92.5" y="-1673.5" font-family="SegoeUI" font-size="10.00">&#45; Zero</text>
<text text-anchor="start" x="92.5" y="-1662.5" font-family="SegoeUI" font-size="10.00">&#45; One</text>
<text text-anchor="start" x="92.5" y="-1651.5" font-family="SegoeUI" font-size="10.00">&#45; collect</text>
<text text-anchor="start" x="92.5" y="-1640.5" font-family="SegoeUI" font-size="10.00">&#45; max</text>
<text text-anchor="start" x="92.5" y="-1629.5" font-family="SegoeUI" font-size="10.00">&#45; min</text>
<text text-anchor="start" x="92.5" y="-1618.5" font-family="SegoeUI" font-size="10.00">&#45; mean</text>
<text text-anchor="start" x="92.5" y="-1607.5" font-family="SegoeUI" font-size="10.00">&#45; variance</text>
<text text-anchor="start" x="92.5" y="-1596.5" font-family="SegoeUI" font-size="10.00">&#45; standardDev</text>
<polyline fill="none" stroke="black" points="84.5,-1589.5 233.5,-1589.5 "/>
<text text-anchor="start" x="92.5" y="-1577.5" font-family="SegoeUI" font-size="10.00">+ GetEnumerator()</text>
<text text-anchor="start" x="92.5" y="-1566.5" font-family="SegoeUI" font-size="10.00">+ Add()</text>
<text text-anchor="start" x="92.5" y="-1555.5" font-family="SegoeUI" font-size="10.00">+ AddRange()</text>
<text text-anchor="start" x="92.5" y="-1544.5" font-family="SegoeUI" font-size="10.00">+ Clear()</text>
<text text-anchor="start" x="92.5" y="-1533.5" font-family="SegoeUI" font-size="10.00">+ Contains()</text>
<text text-anchor="start" x="92.5" y="-1522.5" font-family="SegoeUI" font-size="10.00">+ CopyTo()</text>
<text text-anchor="start" x="92.5" y="-1511.5" font-family="SegoeUI" font-size="10.00">+ Remove()</text>
<text text-anchor="start" x="92.5" y="-1500.5" font-family="SegoeUI" font-size="10.00">+ IndexOf()</text>
<text text-anchor="start" x="92.5" y="-1489.5" font-family="SegoeUI" font-size="10.00">+ Insert()</text>
<text text-anchor="start" x="92.5" y="-1478.5" font-family="SegoeUI" font-size="10.00">+ RemoveAt()</text>
<text text-anchor="start" x="92.5" y="-1467.5" font-family="SegoeUI" font-size="10.00">+ Append()</text>
<text text-anchor="start" x="92.5" y="-1456.5" font-family="SegoeUI" font-size="10.00"># AbstractCollectionStatistics()</text>
<text text-anchor="start" x="92.5" y="-1445.5" font-family="SegoeUI" font-size="10.00"># AbstractCollectionStatistics()</text>
<text text-anchor="start" x="92.5" y="-1434.5" font-family="SegoeUI" font-size="10.00"># RecomputeStatistics()</text>
<text text-anchor="start" x="92.5" y="-1423.5" font-family="SegoeUI" font-size="10.00"># UpdateStatistics()</text>
<text text-anchor="start" x="92.5" y="-1412.5" font-family="SegoeUI" font-size="10.00"># Add()</text>
<text text-anchor="start" x="92.5" y="-1401.5" font-family="SegoeUI" font-size="10.00"># Subtract()</text>
<text text-anchor="start" x="92.5" y="-1390.5" font-family="SegoeUI" font-size="10.00"># Multiply()</text>
<text text-anchor="start" x="92.5" y="-1379.5" font-family="SegoeUI" font-size="10.00"># Scale()</text>
<text text-anchor="start" x="92.5" y="-1368.5" font-family="SegoeUI" font-size="10.00"># Divide()</text>
<text text-anchor="start" x="92.5" y="-1357.5" font-family="SegoeUI" font-size="10.00"># Sqrt()</text>
<text text-anchor="start" x="92.5" y="-1346.5" font-family="SegoeUI" font-size="10.00"># Abs()</text>
<text text-anchor="start" x="92.5" y="-1335.5" font-family="SegoeUI" font-size="10.00"># LessThan()</text>
<text text-anchor="start" x="92.5" y="-1324.5" font-family="SegoeUI" font-size="10.00">&#45; GetEnumerator()</text>
<text text-anchor="start" x="92.5" y="-1313.5" font-family="SegoeUI" font-size="10.00">&#45; Add()</text>
<text text-anchor="start" x="92.5" y="-1302.5" font-family="SegoeUI" font-size="10.00">&#45; Subtract()</text>
<text text-anchor="start" x="92.5" y="-1291.5" font-family="SegoeUI" font-size="10.00">&#45; Multiply()</text>
<text text-anchor="start" x="92.5" y="-1280.5" font-family="SegoeUI" font-size="10.00">&#45; Scale()</text>
<text text-anchor="start" x="92.5" y="-1269.5" font-family="SegoeUI" font-size="10.00">&#45; Divide()</text>
<text text-anchor="start" x="92.5" y="-1258.5" font-family="SegoeUI" font-size="10.00">&#45; Min()</text>
<text text-anchor="start" x="92.5" y="-1247.5" font-family="SegoeUI" font-size="10.00">&#45; Max()</text>
<text text-anchor="start" x="92.5" y="-1236.5" font-family="SegoeUI" font-size="10.00">&#45; Sqrt()</text>
<text text-anchor="start" x="92.5" y="-1225.5" font-family="SegoeUI" font-size="10.00">&#45; Abs()</text>
<text text-anchor="start" x="92.5" y="-1214.5" font-family="SegoeUI" font-size="10.00">&#45; LessThan()</text>
</a>
</g>
</g>
<!-- Node6&#45;&gt;Node5 -->
<g id="edge4" class="edge"><title>Node6&#45;&gt;Node5</title>
<path fill="none" stroke="orange" d="M159,-1197.18C159,-1184.67 159,-1172.13 159,-1159.63"/>
<polygon fill="orange" stroke="orange" points="155.5,-1197.21 159,-1207.21 162.5,-1197.21 155.5,-1197.21"/>
<text text-anchor="middle" x="180" y="-1181" font-family="SegoeUI" font-size="10.00"> &lt; float &gt;</text>
</g>
<!-- Node7 -->
<g id="node6" class="node"><title>Node7</title>
<g id="a_node6"><a xlink:title=" ">
<polygon fill="white" stroke="#bfbfbf" points="129.5,-1874.5 129.5,-1931.5 188.5,-1931.5 188.5,-1874.5 129.5,-1874.5"/>
<text text-anchor="middle" x="159" y="-1919.5" font-family="SegoeUI" font-size="10.00">IList&lt; T &gt;</text>
<polyline fill="none" stroke="#bfbfbf" points="129.5,-1912.5 188.5,-1912.5 "/>
<text text-anchor="middle" x="159" y="-1900.5" font-family="SegoeUI" font-size="10.00"> </text>
<polyline fill="none" stroke="#bfbfbf" points="129.5,-1893.5 188.5,-1893.5 "/>
<text text-anchor="middle" x="159" y="-1881.5" font-family="SegoeUI" font-size="10.00"> </text>
</a>
</g>
</g>
<!-- Node7&#45;&gt;Node6 -->
<g id="edge5" class="edge"><title>Node7&#45;&gt;Node6</title>
<path fill="none" stroke="midnightblue" d="M159,-1864.35C159,-1856.18 159,-1846.93 159,-1836.83"/>
<polygon fill="none" stroke="midnightblue" points="155.5,-1864.44 159,-1874.44 162.5,-1864.44 155.5,-1864.44"/>
</g>
<!-- Node8 -->
<g id="node7" class="node"><title>Node8</title>
<g id="a_node7"><a xlink:title=" ">
<polygon fill="white" stroke="#bfbfbf" points="236,-380.5 236,-437.5 302,-437.5 302,-380.5 236,-380.5"/>
<text text-anchor="middle" x="269" y="-425.5" font-family="SegoeUI" font-size="10.00">UnityEngine</text>
<polyline fill="none" stroke="#bfbfbf" points="236,-418.5 302,-418.5 "/>
<text text-anchor="middle" x="269" y="-406.5" font-family="SegoeUI" font-size="10.00"> </text>
<polyline fill="none" stroke="#bfbfbf" points="236,-399.5 302,-399.5 "/>
<text text-anchor="middle" x="269" y="-387.5" font-family="SegoeUI" font-size="10.00"> </text>
</a>
</g>
</g>
<!-- Node8&#45;&gt;Node2 -->
<g id="edge6" class="edge"><title>Node8&#45;&gt;Node2</title>
<path fill="none" stroke="#404040" d="M259.435,-380.473C250.614,-355.433 236.963,-317.529 224,-285 223.111,-282.769 222.21,-280.522 221.299,-278.262"/>
<polygon fill="none" stroke="#404040" points="221.186,-277.985 215.221,-273.934 216.665,-266.869 222.631,-270.92 221.186,-277.985"/>
<text text-anchor="middle" x="275.5" y="-293.5" font-family="SegoeUI" font-size="10.00"> &#45;prevMousePosition</text>
</g>
</g>
</svg>
