<?xml version="1.0" encoding="UTF-8" standalone="no"?>
<!DOCTYPE svg PUBLIC "-//W3C//DTD SVG 1.1//EN"
 "http://www.w3.org/Graphics/SVG/1.1/DTD/svg11.dtd">
<!-- Generated by graphviz version 2.38.0 (20140413.2041)
 -->
<!-- Title: Juniper.HTTP.Server.RouteAttribute Pages: 1 -->
<svg width="166pt" height="369pt"
 viewBox="0.00 0.00 166.00 369.00" xmlns="http://www.w3.org/2000/svg" xmlns:xlink="http://www.w3.org/1999/xlink">
<g id="graph0" class="graph" transform="scale(1 1) rotate(0) translate(4 365)">
<title>Juniper.HTTP.Server.RouteAttribute</title>
<polygon fill="white" stroke="none" points="-4,4 -4,-365 162,-365 162,4 -4,4"/>
<!-- Node0 -->
<g id="node1" class="node"><title>Node0</title>
<g id="a_node1"><a xlink:title=" ">
<polygon fill="#bfbfbf" stroke="black" points="4,-0.5 4,-189.5 137,-189.5 137,-0.5 4,-0.5"/>
<text text-anchor="start" x="12" y="-177.5" font-family="SegoeUI" font-size="10.00">Juniper.HTTP.Server.Route</text>
<text text-anchor="middle" x="70.5" y="-166.5" font-family="SegoeUI" font-size="10.00">Attribute</text>
<polyline fill="none" stroke="black" points="4,-159.5 137,-159.5 "/>
<text text-anchor="start" x="12" y="-147.5" font-family="SegoeUI" font-size="10.00">+ Pattern</text>
<text text-anchor="start" x="12" y="-136.5" font-family="SegoeUI" font-size="10.00">+ RegexSource</text>
<text text-anchor="start" x="12" y="-125.5" font-family="SegoeUI" font-size="10.00">+ ParameterCount</text>
<text text-anchor="start" x="12" y="-114.5" font-family="SegoeUI" font-size="10.00">+ Priority</text>
<text text-anchor="start" x="12" y="-103.5" font-family="SegoeUI" font-size="10.00">+ Name</text>
<text text-anchor="start" x="12" y="-92.5" font-family="SegoeUI" font-size="10.00">+ Methods</text>
<text text-anchor="start" x="12" y="-81.5" font-family="SegoeUI" font-size="10.00">+ Authentication</text>
<text text-anchor="start" x="12" y="-70.5" font-family="SegoeUI" font-size="10.00">+ Protocols</text>
<text text-anchor="start" x="12" y="-59.5" font-family="SegoeUI" font-size="10.00">+ StatusCodes</text>
<text text-anchor="start" x="12" y="-48.5" font-family="SegoeUI" font-size="10.00">+ Accept</text>
<text text-anchor="start" x="12" y="-37.5" font-family="SegoeUI" font-size="10.00">+ Headers</text>
<polyline fill="none" stroke="black" points="4,-30.5 137,-30.5 "/>
<text text-anchor="start" x="12" y="-18.5" font-family="SegoeUI" font-size="10.00">+ RouteAttribute()</text>
<text text-anchor="start" x="12" y="-7.5" font-family="SegoeUI" font-size="10.00">+ RouteAttribute()</text>
</a>
</g>
</g>
<!-- Node1 -->
<g id="node2" class="node"><title>Node1</title>
<g id="a_node2"><a xlink:title=" ">
<polygon fill="white" stroke="#bfbfbf" points="0,-265 0,-322 53,-322 53,-265 0,-265"/>
<text text-anchor="middle" x="26.5" y="-310" font-family="SegoeUI" font-size="10.00">Attribute</text>
<polyline fill="none" stroke="#bfbfbf" points="0,-303 53,-303 "/>
<text text-anchor="middle" x="26.5" y="-291" font-family="SegoeUI" font-size="10.00"> </text>
<polyline fill="none" stroke="#bfbfbf" points="0,-284 53,-284 "/>
<text text-anchor="middle" x="26.5" y="-272" font-family="SegoeUI" font-size="10.00"> </text>
</a>
</g>
</g>
<!-- Node1&#45;&gt;Node0 -->
<g id="edge1" class="edge"><title>Node1&#45;&gt;Node0</title>
<path fill="none" stroke="midnightblue" d="M34.9122,-254.932C39.0865,-236.29 44.3334,-212.858 49.506,-189.757"/>
<polygon fill="none" stroke="midnightblue" points="31.4805,-254.24 32.7108,-264.763 38.3114,-255.77 31.4805,-254.24"/>
</g>
<!-- Node2 -->
<g id="node3" class="node"><title>Node2</title>
<g id="a_node3"><a xlink:href="../../d4/d74/interface_juniper_1_1_h_t_t_p_1_1_server_1_1_i_request_handler.html" target="_top" xlink:title=" ">
<polygon fill="white" stroke="black" points="71,-226.5 71,-360.5 158,-360.5 158,-226.5 71,-226.5"/>
<text text-anchor="middle" x="114.5" y="-348.5" font-family="SegoeUI" font-size="10.00">IRequestHandler</text>
<polyline fill="none" stroke="black" points="71,-341.5 158,-341.5 "/>
<text text-anchor="start" x="79" y="-329.5" font-family="SegoeUI" font-size="10.00">+ Priority</text>
<text text-anchor="start" x="79" y="-318.5" font-family="SegoeUI" font-size="10.00">+ Protocols</text>
<text text-anchor="start" x="79" y="-307.5" font-family="SegoeUI" font-size="10.00">+ Methods</text>
<text text-anchor="start" x="79" y="-296.5" font-family="SegoeUI" font-size="10.00">+ Pattern</text>
<text text-anchor="start" x="79" y="-285.5" font-family="SegoeUI" font-size="10.00">+ Authentication</text>
<text text-anchor="start" x="79" y="-274.5" font-family="SegoeUI" font-size="10.00">+ Accept</text>
<text text-anchor="start" x="79" y="-263.5" font-family="SegoeUI" font-size="10.00">+ StatusCodes</text>
<text text-anchor="start" x="79" y="-252.5" font-family="SegoeUI" font-size="10.00">+ Headers</text>
<polyline fill="none" stroke="black" points="71,-245.5 158,-245.5 "/>
<text text-anchor="middle" x="114.5" y="-233.5" font-family="SegoeUI" font-size="10.00"> </text>
</a>
</g>
</g>
<!-- Node2&#45;&gt;Node0 -->
<g id="edge2" class="edge"><title>Node2&#45;&gt;Node0</title>
<path fill="none" stroke="midnightblue" d="M97.4644,-216.421C95.491,-207.608 93.4614,-198.544 91.4437,-189.533"/>
<polygon fill="none" stroke="midnightblue" points="94.0644,-217.254 99.6649,-226.248 100.895,-215.725 94.0644,-217.254"/>
</g>
</g>
</svg>
