<?xml version="1.0" encoding="UTF-8" standalone="no"?>
<!DOCTYPE svg PUBLIC "-//W3C//DTD SVG 1.1//EN"
 "http://www.w3.org/Graphics/SVG/1.1/DTD/svg11.dtd">
<!-- Generated by graphviz version 2.38.0 (20140413.2041)
 -->
<!-- Title: Juniper.StreamableAssetEditor&lt; T, U &gt; Pages: 1 -->
<!--zoomable 471 -->
<svg id="main" version="1.1" xmlns="http://www.w3.org/2000/svg" xmlns:xlink="http://www.w3.org/1999/xlink" xml:space="preserve" onload="init(evt)">
<style type="text/css"><![CDATA[
.edge:hover path { stroke: red; }
.edge:hover polygon { stroke: red; fill: red; }
]]></style>
<script type="text/javascript"><![CDATA[
var edges = document.getElementsByTagName('g');
if (edges && edges.length) {
  for (var i=0;i<edges.length;i++) {
    if (edges[i].id.substr(0,4)=='edge') {
      edges[i].setAttribute('class','edge');
    }
  }
}
]]></script>
        <defs>
                <circle id="rim" cx="0" cy="0" r="7"/>
                <circle id="rim2" cx="0" cy="0" r="3.5"/>
                <g id="zoomPlus">
                        <use xlink:href="#rim" fill="#404040">
                                <set attributeName="fill" to="#808080" begin="zoomplus.mouseover" end="zoomplus.mouseout"/>
                        </use>
                        <path d="M-4,0h8M0,-4v8" fill="none" stroke="white" stroke-width="1.5" pointer-events="none"/>
                </g>
                <g id="zoomMin">
                        <use xlink:href="#rim" fill="#404040">
                                <set attributeName="fill" to="#808080" begin="zoomminus.mouseover" end="zoomminus.mouseout"/>
                        </use>
                        <path d="M-4,0h8" fill="none" stroke="white" stroke-width="1.5" pointer-events="none"/>
                </g>
                <g id="dirArrow">
                        <path fill="none" stroke="white" stroke-width="1.5" d="M0,-3.0v7 M-2.5,-0.5L0,-3.0L2.5,-0.5"/>
                </g>
               <g id="resetDef">
                       <use xlink:href="#rim2" fill="#404040">
                               <set attributeName="fill" to="#808080" begin="reset.mouseover" end="reset.mouseout"/>
                       </use>
               </g>
        </defs>

<script type="text/javascript">
var viewWidth = 396;
var viewHeight = 471;
var sectionId = 'dynsection-0';
</script>
<script xlink:href="../../svgpan.js"/>
<svg id="graph" class="graph">
<g id="viewport">
<title>Juniper.StreamableAssetEditor&lt; T, U &gt;</title>
<polygon fill="white" stroke="none" points="-4,4 -4,-467 391.5,-467 391.5,4 -4,4"/>
<!-- Node0 -->
<g id="node1" class="node"><title>Node0</title>
<g id="a_node1"><a xlink:title=" ">
<polygon fill="#bfbfbf" stroke="black" points="97.5,-266.5 97.5,-367.5 245.5,-367.5 245.5,-266.5 97.5,-266.5"/>
<text text-anchor="start" x="105.5" y="-355.5" font-family="SegoeUI" font-size="10.00">Juniper.StreamableAssetEditor</text>
<text text-anchor="middle" x="171.5" y="-344.5" font-family="SegoeUI" font-size="10.00">&lt; T, U &gt;</text>
<polyline fill="none" stroke="black" points="97.5,-337.5 245.5,-337.5 "/>
<text text-anchor="start" x="105.5" y="-325.5" font-family="SegoeUI" font-size="10.00">+ callbackOrder</text>
<polyline fill="none" stroke="black" points="97.5,-318.5 245.5,-318.5 "/>
<text text-anchor="start" x="105.5" y="-306.5" font-family="SegoeUI" font-size="10.00">+ OnGUI()</text>
<text text-anchor="start" x="105.5" y="-295.5" font-family="SegoeUI" font-size="10.00">+ OnPreprocessBuild()</text>
<text text-anchor="start" x="105.5" y="-284.5" font-family="SegoeUI" font-size="10.00">+ OnPostprocessBuild()</text>
<text text-anchor="start" x="105.5" y="-273.5" font-family="SegoeUI" font-size="10.00">&#45; ForEachStreamable()</text>
</a>
</g>
</g>
<!-- Node4 -->
<g id="node5" class="node"><title>Node4</title>
<g id="a_node5"><a xlink:href="../../d6/d80/class_juniper_1_1_streamable_asset_editor.html" target="_top" xlink:title=" ">
<polygon fill="white" stroke="black" points="0,-106.5 0,-207.5 171,-207.5 171,-106.5 0,-106.5"/>
<text text-anchor="start" x="8" y="-195.5" font-family="SegoeUI" font-size="10.00">Juniper.StreamableAssetEditor</text>
<text text-anchor="middle" x="85.5" y="-184.5" font-family="SegoeUI" font-size="10.00">&lt; AudioClip, StreamableAudioClip &gt;</text>
<polyline fill="none" stroke="black" points="0,-177.5 171,-177.5 "/>
<text text-anchor="start" x="8" y="-165.5" font-family="SegoeUI" font-size="10.00">+ callbackOrder</text>
<polyline fill="none" stroke="black" points="0,-158.5 171,-158.5 "/>
<text text-anchor="start" x="8" y="-146.5" font-family="SegoeUI" font-size="10.00">+ OnGUI()</text>
<text text-anchor="start" x="8" y="-135.5" font-family="SegoeUI" font-size="10.00">+ OnPreprocessBuild()</text>
<text text-anchor="start" x="8" y="-124.5" font-family="SegoeUI" font-size="10.00">+ OnPostprocessBuild()</text>
<text text-anchor="start" x="8" y="-113.5" font-family="SegoeUI" font-size="10.00">&#45; ForEachStreamable()</text>
</a>
</g>
</g>
<!-- Node0&#45;&gt;Node4 -->
<g id="edge4" class="edge"><title>Node0&#45;&gt;Node4</title>
<path fill="none" stroke="orange" d="M116.678,-258.154C114.453,-254.817 112.375,-251.423 110.5,-248 103.723,-235.626 98.6647,-221.268 94.9399,-207.704"/>
<polygon fill="orange" stroke="orange" points="113.835,-260.195 122.479,-266.322 119.542,-256.142 113.835,-260.195"/>
<text text-anchor="start" x="110.5" y="-240" font-family="SegoeUI" font-size="10.00"> &lt; AudioClip, StreamableAudio</text>
<text text-anchor="middle" x="177" y="-229" font-family="SegoeUI" font-size="10.00">Clip &gt;</text>
</g>
<!-- Node6 -->
<g id="node7" class="node"><title>Node6</title>
<g id="a_node7"><a xlink:href="../../d6/d80/class_juniper_1_1_streamable_asset_editor.html" target="_top" xlink:title=" ">
<polygon fill="white" stroke="black" points="189,-106.5 189,-207.5 360,-207.5 360,-106.5 189,-106.5"/>
<text text-anchor="start" x="197" y="-195.5" font-family="SegoeUI" font-size="10.00">Juniper.StreamableAssetEditor</text>
<text text-anchor="middle" x="274.5" y="-184.5" font-family="SegoeUI" font-size="10.00">&lt; VideoClip, StreamableVideoClip &gt;</text>
<polyline fill="none" stroke="black" points="189,-177.5 360,-177.5 "/>
<text text-anchor="start" x="197" y="-165.5" font-family="SegoeUI" font-size="10.00">+ callbackOrder</text>
<polyline fill="none" stroke="black" points="189,-158.5 360,-158.5 "/>
<text text-anchor="start" x="197" y="-146.5" font-family="SegoeUI" font-size="10.00">+ OnGUI()</text>
<text text-anchor="start" x="197" y="-135.5" font-family="SegoeUI" font-size="10.00">+ OnPreprocessBuild()</text>
<text text-anchor="start" x="197" y="-124.5" font-family="SegoeUI" font-size="10.00">+ OnPostprocessBuild()</text>
<text text-anchor="start" x="197" y="-113.5" font-family="SegoeUI" font-size="10.00">&#45; ForEachStreamable()</text>
</a>
</g>
</g>
<!-- Node0&#45;&gt;Node6 -->
<g id="edge6" class="edge"><title>Node0&#45;&gt;Node6</title>
<path fill="none" stroke="orange" d="M235.965,-258.538C238.66,-255.096 241.193,-251.576 243.5,-248 251.382,-235.779 257.509,-221.325 262.155,-207.617"/>
<polygon fill="orange" stroke="orange" points="233.117,-256.489 229.414,-266.416 238.499,-260.965 233.117,-256.489"/>
<text text-anchor="start" x="254.5" y="-240" font-family="SegoeUI" font-size="10.00"> &lt; VideoClip, StreamableVideo</text>
<text text-anchor="middle" x="321" y="-229" font-family="SegoeUI" font-size="10.00">Clip &gt;</text>
</g>
<!-- Node1 -->
<g id="node2" class="node"><title>Node1</title>
<g id="a_node2"><a xlink:title=" ">
<polygon fill="white" stroke="#bfbfbf" points="25.5,-405.5 25.5,-462.5 109.5,-462.5 109.5,-405.5 25.5,-405.5"/>
<text text-anchor="middle" x="67.5" y="-450.5" font-family="SegoeUI" font-size="10.00">PropertyDrawer</text>
<polyline fill="none" stroke="#bfbfbf" points="25.5,-443.5 109.5,-443.5 "/>
<text text-anchor="middle" x="67.5" y="-431.5" font-family="SegoeUI" font-size="10.00"> </text>
<polyline fill="none" stroke="#bfbfbf" points="25.5,-424.5 109.5,-424.5 "/>
<text text-anchor="middle" x="67.5" y="-412.5" font-family="SegoeUI" font-size="10.00"> </text>
</a>
</g>
</g>
<!-- Node1&#45;&gt;Node0 -->
<g id="edge1" class="edge"><title>Node1&#45;&gt;Node0</title>
<path fill="none" stroke="midnightblue" d="M99.3673,-397.762C107.92,-388.305 117.331,-377.898 126.452,-367.812"/>
<polygon fill="none" stroke="midnightblue" points="96.5221,-395.69 92.4106,-405.455 101.714,-400.385 96.5221,-395.69"/>
</g>
<!-- Node2 -->
<g id="node3" class="node"><title>Node2</title>
<g id="a_node3"><a xlink:title=" ">
<polygon fill="white" stroke="#bfbfbf" points="128,-405.5 128,-462.5 215,-462.5 215,-405.5 128,-405.5"/>
<text text-anchor="middle" x="171.5" y="-450.5" font-family="SegoeUI" font-size="10.00">IPreprocessBuild</text>
<polyline fill="none" stroke="#bfbfbf" points="128,-443.5 215,-443.5 "/>
<text text-anchor="middle" x="171.5" y="-431.5" font-family="SegoeUI" font-size="10.00"> </text>
<polyline fill="none" stroke="#bfbfbf" points="128,-424.5 215,-424.5 "/>
<text text-anchor="middle" x="171.5" y="-412.5" font-family="SegoeUI" font-size="10.00"> </text>
</a>
</g>
</g>
<!-- Node2&#45;&gt;Node0 -->
<g id="edge2" class="edge"><title>Node2&#45;&gt;Node0</title>
<path fill="none" stroke="midnightblue" d="M171.5,-395.187C171.5,-386.435 171.5,-376.99 171.5,-367.812"/>
<polygon fill="none" stroke="midnightblue" points="168,-395.455 171.5,-405.455 175,-395.455 168,-395.455"/>
</g>
<!-- Node3 -->
<g id="node4" class="node"><title>Node3</title>
<g id="a_node4"><a xlink:title=" ">
<polygon fill="white" stroke="#bfbfbf" points="233,-405.5 233,-462.5 324,-462.5 324,-405.5 233,-405.5"/>
<text text-anchor="middle" x="278.5" y="-450.5" font-family="SegoeUI" font-size="10.00">IPostprocessBuild</text>
<polyline fill="none" stroke="#bfbfbf" points="233,-443.5 324,-443.5 "/>
<text text-anchor="middle" x="278.5" y="-431.5" font-family="SegoeUI" font-size="10.00"> </text>
<polyline fill="none" stroke="#bfbfbf" points="233,-424.5 324,-424.5 "/>
<text text-anchor="middle" x="278.5" y="-412.5" font-family="SegoeUI" font-size="10.00"> </text>
</a>
</g>
</g>
<!-- Node3&#45;&gt;Node0 -->
<g id="edge3" class="edge"><title>Node3&#45;&gt;Node0</title>
<path fill="none" stroke="midnightblue" d="M245.977,-398.046C237.108,-388.513 227.325,-377.999 217.847,-367.812"/>
<polygon fill="none" stroke="midnightblue" points="243.497,-400.518 252.871,-405.455 248.621,-395.749 243.497,-400.518"/>
</g>
<!-- Node5 -->
<g id="node6" class="node"><title>Node5</title>
<g id="a_node6"><a xlink:href="../../d4/d37/class_juniper_1_1_audio_1_1_streamable_audio_clip_editor.html" target="_top" xlink:title=" ">
<polygon fill="white" stroke="black" points="22,-0.5 22,-68.5 149,-68.5 149,-0.5 22,-0.5"/>
<text text-anchor="start" x="30" y="-56.5" font-family="SegoeUI" font-size="10.00">Juniper.Audio.Streamable</text>
<text text-anchor="middle" x="85.5" y="-45.5" font-family="SegoeUI" font-size="10.00">AudioClipEditor</text>
<polyline fill="none" stroke="black" points="22,-38.5 149,-38.5 "/>
<text text-anchor="middle" x="85.5" y="-26.5" font-family="SegoeUI" font-size="10.00"> </text>
<polyline fill="none" stroke="black" points="22,-19.5 149,-19.5 "/>
<text text-anchor="middle" x="85.5" y="-7.5" font-family="SegoeUI" font-size="10.00"> </text>
</a>
</g>
</g>
<!-- Node4&#45;&gt;Node5 -->
<g id="edge5" class="edge"><title>Node4&#45;&gt;Node5</title>
<path fill="none" stroke="midnightblue" d="M85.5,-96.0742C85.5,-86.6128 85.5,-77.1409 85.5,-68.5915"/>
<polygon fill="none" stroke="midnightblue" points="82.0001,-96.2923 85.5,-106.292 89.0001,-96.2924 82.0001,-96.2923"/>
</g>
<!-- Node7 -->
<g id="node8" class="node"><title>Node7</title>
<g id="a_node8"><a xlink:href="../../d1/dbb/class_juniper_1_1_video_1_1_streamable_video_clip_editor.html" target="_top" xlink:title=" ">
<polygon fill="white" stroke="black" points="211,-0.5 211,-68.5 338,-68.5 338,-0.5 211,-0.5"/>
<text text-anchor="start" x="219" y="-56.5" font-family="SegoeUI" font-size="10.00">Juniper.Video.Streamable</text>
<text text-anchor="middle" x="274.5" y="-45.5" font-family="SegoeUI" font-size="10.00">VideoClipEditor</text>
<polyline fill="none" stroke="black" points="211,-38.5 338,-38.5 "/>
<text text-anchor="middle" x="274.5" y="-26.5" font-family="SegoeUI" font-size="10.00"> </text>
<polyline fill="none" stroke="black" points="211,-19.5 338,-19.5 "/>
<text text-anchor="middle" x="274.5" y="-7.5" font-family="SegoeUI" font-size="10.00"> </text>
</a>
</g>
</g>
<!-- Node6&#45;&gt;Node7 -->
<g id="edge7" class="edge"><title>Node6&#45;&gt;Node7</title>
<path fill="none" stroke="midnightblue" d="M274.5,-96.0742C274.5,-86.6128 274.5,-77.1409 274.5,-68.5915"/>
<polygon fill="none" stroke="midnightblue" points="271,-96.2923 274.5,-106.292 278,-96.2924 271,-96.2923"/>
</g>
</g>
</svg>
        <g id="navigator" transform="translate(0 0)" fill="#404254">
                <rect fill="#f2f5e9" fill-opacity="0.5" stroke="#606060" stroke-width=".5" x="0" y="0" width="60" height="60"/>
                <use id="zoomplus" xlink:href="#zoomPlus" x="17" y="9" onmousedown="handleZoom(evt,'in')"/>
                <use id="zoomminus" xlink:href="#zoomMin" x="42" y="9" onmousedown="handleZoom(evt,'out')"/>
                <use id="reset" xlink:href="#resetDef" x="30" y="36" onmousedown="handleReset()"/>
                <g id="arrowUp" xlink:href="#dirArrow" transform="translate(30 24)" onmousedown="handlePan(0,-1)">
                  <use xlink:href="#rim" fill="#404040">
                        <set attributeName="fill" to="#808080" begin="arrowUp.mouseover" end="arrowUp.mouseout"/>
                  </use>
                  <path fill="none" stroke="white" stroke-width="1.5" d="M0,-3.0v7 M-2.5,-0.5L0,-3.0L2.5,-0.5"/>
                </g>
                <g id="arrowRight" xlink:href="#dirArrow" transform="rotate(90) translate(36 -43)" onmousedown="handlePan(1,0)">
                  <use xlink:href="#rim" fill="#404040">
                        <set attributeName="fill" to="#808080" begin="arrowRight.mouseover" end="arrowRight.mouseout"/>
                  </use>
                  <path fill="none" stroke="white" stroke-width="1.5" d="M0,-3.0v7 M-2.5,-0.5L0,-3.0L2.5,-0.5"/>
                </g>
                <g id="arrowDown" xlink:href="#dirArrow" transform="rotate(180) translate(-30 -48)" onmousedown="handlePan(0,1)">
                  <use xlink:href="#rim" fill="#404040">
                        <set attributeName="fill" to="#808080" begin="arrowDown.mouseover" end="arrowDown.mouseout"/>
                  </use>
                  <path fill="none" stroke="white" stroke-width="1.5" d="M0,-3.0v7 M-2.5,-0.5L0,-3.0L2.5,-0.5"/>
                </g>
                <g id="arrowLeft" xlink:href="#dirArrow" transform="rotate(270) translate(-36 17)" onmousedown="handlePan(-1,0)">
                  <use xlink:href="#rim" fill="#404040">
                        <set attributeName="fill" to="#808080" begin="arrowLeft.mouseover" end="arrowLeft.mouseout"/>
                  </use>
                  <path fill="none" stroke="white" stroke-width="1.5" d="M0,-3.0v7 M-2.5,-0.5L0,-3.0L2.5,-0.5"/>
                </g>
        </g>
        <svg viewBox="0 0 15 15" width="100%" height="30px" preserveAspectRatio="xMaxYMin meet">
         <g id="arrow_out" transform="scale(0.3 0.3)">
          <a xlink:href="class_juniper_1_1_streamable_asset_editor__inherit__graph_org.svg" target="_base">
           <rect id="button" ry="5" rx="5" y="6" x="6" height="38" width="38"
                fill="#f2f5e9" fill-opacity="0.5" stroke="#606060" stroke-width="1.0"/>
           <path id="arrow"
             d="M 11.500037,31.436501 C 11.940474,20.09759 22.043105,11.32322 32.158766,21.979434 L 37.068811,17.246167 C 37.068811,17.246167 37.088388,32 37.088388,32 L 22.160133,31.978069 C 22.160133,31.978069 26.997745,27.140456 26.997745,27.140456 C 18.528582,18.264221 13.291696,25.230495 11.500037,31.436501 z"
             style="fill:#404040;"/>
          </a>
         </g>
        </svg>
</svg>
