<?xml version="1.0" encoding="UTF-8" standalone="no"?>
<!DOCTYPE svg PUBLIC "-//W3C//DTD SVG 1.1//EN"
 "http://www.w3.org/Graphics/SVG/1.1/DTD/svg11.dtd">
<!-- Generated by graphviz version 2.38.0 (20140413.2041)
 -->
<!-- Title: Juniper.Unity.Animation.SpiralTransition Pages: 1 -->
<!--zoomable 966 -->
<svg id="main" version="1.1" xmlns="http://www.w3.org/2000/svg" xmlns:xlink="http://www.w3.org/1999/xlink" xml:space="preserve" onload="init(evt)">
<style type="text/css"><![CDATA[
.edge:hover path { stroke: red; }
.edge:hover polygon { stroke: red; fill: red; }
]]></style>
<script type="text/javascript"><![CDATA[
var edges = document.getElementsByTagName('g');
if (edges && edges.length) {
  for (var i=0;i<edges.length;i++) {
    if (edges[i].id.substr(0,4)=='edge') {
      edges[i].setAttribute('class','edge');
    }
  }
}
]]></script>
        <defs>
                <circle id="rim" cx="0" cy="0" r="7"/>
                <circle id="rim2" cx="0" cy="0" r="3.5"/>
                <g id="zoomPlus">
                        <use xlink:href="#rim" fill="#404040">
                                <set attributeName="fill" to="#808080" begin="zoomplus.mouseover" end="zoomplus.mouseout"/>
                        </use>
                        <path d="M-4,0h8M0,-4v8" fill="none" stroke="white" stroke-width="1.5" pointer-events="none"/>
                </g>
                <g id="zoomMin">
                        <use xlink:href="#rim" fill="#404040">
                                <set attributeName="fill" to="#808080" begin="zoomminus.mouseover" end="zoomminus.mouseout"/>
                        </use>
                        <path d="M-4,0h8" fill="none" stroke="white" stroke-width="1.5" pointer-events="none"/>
                </g>
                <g id="dirArrow">
                        <path fill="none" stroke="white" stroke-width="1.5" d="M0,-3.0v7 M-2.5,-0.5L0,-3.0L2.5,-0.5"/>
                </g>
               <g id="resetDef">
                       <use xlink:href="#rim2" fill="#404040">
                               <set attributeName="fill" to="#808080" begin="reset.mouseover" end="reset.mouseout"/>
                       </use>
               </g>
        </defs>

<script type="text/javascript">
var viewWidth = 259;
var viewHeight = 966;
var sectionId = 'dynsection-1';
</script>
<script xlink:href="../../svgpan.js"/>
<svg id="graph" class="graph">
<g id="viewport">
<title>Juniper.Unity.Animation.SpiralTransition</title>
<polygon fill="white" stroke="none" points="-4,4 -4,-962 254.5,-962 254.5,4 -4,4"/>
<!-- Node4 -->
<g id="node1" class="node"><title>Node4</title>
<g id="a_node1"><a xlink:title="Take an object in world&#45;space and spiral it in to camera&#45;locked space (faux&#45;screen&#45;space)">
<polygon fill="#bfbfbf" stroke="black" points="98.5,-0.5 98.5,-178.5 218.5,-178.5 218.5,-0.5 98.5,-0.5"/>
<text text-anchor="start" x="106.5" y="-166.5" font-family="SegoeUI" font-size="10.00">Juniper.Unity.Animation.</text>
<text text-anchor="middle" x="158.5" y="-155.5" font-family="SegoeUI" font-size="10.00">SpiralTransition</text>
<polyline fill="none" stroke="black" points="98.5,-148.5 218.5,-148.5 "/>
<text text-anchor="start" x="106.5" y="-136.5" font-family="SegoeUI" font-size="10.00">+ fullScreen</text>
<text text-anchor="start" x="106.5" y="-125.5" font-family="SegoeUI" font-size="10.00">+ distance</text>
<text text-anchor="start" x="106.5" y="-114.5" font-family="SegoeUI" font-size="10.00">+ length</text>
<text text-anchor="start" x="106.5" y="-103.5" font-family="SegoeUI" font-size="10.00">+ TransitionLength</text>
<text text-anchor="start" x="106.5" y="-92.5" font-family="SegoeUI" font-size="10.00">&#45; startParent</text>
<text text-anchor="start" x="106.5" y="-81.5" font-family="SegoeUI" font-size="10.00">&#45; camT</text>
<text text-anchor="start" x="106.5" y="-70.5" font-family="SegoeUI" font-size="10.00">&#45; tweenValue</text>
<polyline fill="none" stroke="black" points="98.5,-63.5 218.5,-63.5 "/>
<text text-anchor="start" x="106.5" y="-51.5" font-family="SegoeUI" font-size="10.00">+ Awake()</text>
<text text-anchor="start" x="106.5" y="-40.5" font-family="SegoeUI" font-size="10.00">+ Update()</text>
<text text-anchor="start" x="106.5" y="-29.5" font-family="SegoeUI" font-size="10.00"># RenderValue()</text>
<text text-anchor="start" x="106.5" y="-18.5" font-family="SegoeUI" font-size="10.00"># OnEntering()</text>
<text text-anchor="start" x="106.5" y="-7.5" font-family="SegoeUI" font-size="10.00"># OnExiting()</text>
</a>
</g>
</g>
<!-- Node5 -->
<g id="node2" class="node"><title>Node5</title>
<g id="a_node2"><a xlink:href="../../de/d7d/class_juniper_1_1_unity_1_1_animation_1_1_abstract_transition_controller.html" target="_top" xlink:title="Child classes of this class are able to animate transitions between program states.">
<polygon fill="white" stroke="black" points="0,-270.5 0,-514.5 137,-514.5 137,-270.5 0,-270.5"/>
<text text-anchor="middle" x="68.5" y="-502.5" font-family="SegoeUI" font-size="10.00">AbstractTransitionController</text>
<polyline fill="none" stroke="black" points="0,-495.5 137,-495.5 "/>
<text text-anchor="start" x="8" y="-483.5" font-family="SegoeUI" font-size="10.00">+ attackTime</text>
<text text-anchor="start" x="8" y="-472.5" font-family="SegoeUI" font-size="10.00">+ releaseTime</text>
<text text-anchor="start" x="8" y="-461.5" font-family="SegoeUI" font-size="10.00">+ onValueChanged</text>
<text text-anchor="start" x="8" y="-450.5" font-family="SegoeUI" font-size="10.00">+ tween</text>
<text text-anchor="start" x="8" y="-439.5" font-family="SegoeUI" font-size="10.00">+ tweenK</text>
<text text-anchor="start" x="8" y="-428.5" font-family="SegoeUI" font-size="10.00">+ TransitionLength</text>
<text text-anchor="start" x="8" y="-417.5" font-family="SegoeUI" font-size="10.00">&#45; tweenFunc</text>
<text text-anchor="start" x="8" y="-406.5" font-family="SegoeUI" font-size="10.00">&#45; attack</text>
<text text-anchor="start" x="8" y="-395.5" font-family="SegoeUI" font-size="10.00">&#45; release</text>
<text text-anchor="start" x="8" y="-384.5" font-family="SegoeUI" font-size="10.00">&#45; progress</text>
<text text-anchor="start" x="8" y="-373.5" font-family="SegoeUI" font-size="10.00">&#45; tweenedValue</text>
<polyline fill="none" stroke="black" points="0,-366.5 137,-366.5 "/>
<text text-anchor="start" x="8" y="-354.5" font-family="SegoeUI" font-size="10.00">+ Enter()</text>
<text text-anchor="start" x="8" y="-343.5" font-family="SegoeUI" font-size="10.00">+ SkipEnter()</text>
<text text-anchor="start" x="8" y="-332.5" font-family="SegoeUI" font-size="10.00">+ Exit()</text>
<text text-anchor="start" x="8" y="-321.5" font-family="SegoeUI" font-size="10.00">+ Update()</text>
<text text-anchor="start" x="8" y="-310.5" font-family="SegoeUI" font-size="10.00"># RenderValue()</text>
<text text-anchor="start" x="8" y="-299.5" font-family="SegoeUI" font-size="10.00">&#45; OnValueChanged()</text>
<text text-anchor="start" x="8" y="-288.5" font-family="SegoeUI" font-size="10.00">&#45; SetProgress()</text>
<text text-anchor="start" x="8" y="-277.5" font-family="SegoeUI" font-size="10.00">&#45; StartTransition()</text>
</a>
</g>
</g>
<!-- Node5&#45;&gt;Node4 -->
<g id="edge1" class="edge"><title>Node5&#45;&gt;Node4</title>
<path fill="none" stroke="midnightblue" d="M107.638,-260.605C115.932,-232.866 124.496,-204.223 132.178,-178.532"/>
<polygon fill="none" stroke="midnightblue" points="104.229,-259.789 104.717,-270.373 110.936,-261.795 104.229,-259.789"/>
</g>
<!-- Node6 -->
<g id="node3" class="node"><title>Node6</title>
<g id="a_node3"><a xlink:href="../../dd/d90/class_juniper_1_1_unity_1_1_abstract_state_controller.html" target="_top" xlink:title="A subscene is a game object loaded from another scene. The scenes all get loaded at runtime and then ...">
<polygon fill="white" stroke="black" points="10.5,-552.5 10.5,-862.5 126.5,-862.5 126.5,-552.5 10.5,-552.5"/>
<text text-anchor="middle" x="68.5" y="-850.5" font-family="SegoeUI" font-size="10.00">AbstractStateController</text>
<polyline fill="none" stroke="black" points="10.5,-843.5 126.5,-843.5 "/>
<text text-anchor="start" x="18.5" y="-831.5" font-family="SegoeUI" font-size="10.00">+ onEntering</text>
<text text-anchor="start" x="18.5" y="-820.5" font-family="SegoeUI" font-size="10.00">+ onEntered</text>
<text text-anchor="start" x="18.5" y="-809.5" font-family="SegoeUI" font-size="10.00">+ onExiting</text>
<text text-anchor="start" x="18.5" y="-798.5" font-family="SegoeUI" font-size="10.00">+ onExited</text>
<text text-anchor="start" x="18.5" y="-787.5" font-family="SegoeUI" font-size="10.00">+ state</text>
<text text-anchor="start" x="18.5" y="-776.5" font-family="SegoeUI" font-size="10.00">+ IsComplete</text>
<text text-anchor="start" x="18.5" y="-765.5" font-family="SegoeUI" font-size="10.00">+ IsRunning</text>
<text text-anchor="start" x="18.5" y="-754.5" font-family="SegoeUI" font-size="10.00">+ IsEntered</text>
<text text-anchor="start" x="18.5" y="-743.5" font-family="SegoeUI" font-size="10.00">+ IsExited</text>
<text text-anchor="start" x="18.5" y="-732.5" font-family="SegoeUI" font-size="10.00">+ Waiter</text>
<text text-anchor="start" x="18.5" y="-721.5" font-family="SegoeUI" font-size="10.00">&#45; lastState</text>
<text text-anchor="start" x="18.5" y="-710.5" font-family="SegoeUI" font-size="10.00">&#45; skipEvents</text>
<text text-anchor="start" x="18.5" y="-699.5" font-family="SegoeUI" font-size="10.00">&#45; _waiter</text>
<polyline fill="none" stroke="black" points="10.5,-692.5 126.5,-692.5 "/>
<text text-anchor="start" x="18.5" y="-680.5" font-family="SegoeUI" font-size="10.00">+ HasCompleted()</text>
<text text-anchor="start" x="18.5" y="-669.5" font-family="SegoeUI" font-size="10.00">+ SkipEnter()</text>
<text text-anchor="start" x="18.5" y="-658.5" font-family="SegoeUI" font-size="10.00">+ Enter()</text>
<text text-anchor="start" x="18.5" y="-647.5" font-family="SegoeUI" font-size="10.00">+ OnEnable()</text>
<text text-anchor="start" x="18.5" y="-636.5" font-family="SegoeUI" font-size="10.00">+ Update()</text>
<text text-anchor="start" x="18.5" y="-625.5" font-family="SegoeUI" font-size="10.00">+ SkipExit()</text>
<text text-anchor="start" x="18.5" y="-614.5" font-family="SegoeUI" font-size="10.00">+ Exit()</text>
<text text-anchor="start" x="18.5" y="-603.5" font-family="SegoeUI" font-size="10.00">+ OnDisable()</text>
<text text-anchor="start" x="18.5" y="-592.5" font-family="SegoeUI" font-size="10.00"># OnEntering()</text>
<text text-anchor="start" x="18.5" y="-581.5" font-family="SegoeUI" font-size="10.00"># OnEntered()</text>
<text text-anchor="start" x="18.5" y="-570.5" font-family="SegoeUI" font-size="10.00"># OnExiting()</text>
<text text-anchor="start" x="18.5" y="-559.5" font-family="SegoeUI" font-size="10.00"># OnExited()</text>
</a>
</g>
</g>
<!-- Node6&#45;&gt;Node5 -->
<g id="edge2" class="edge"><title>Node6&#45;&gt;Node5</title>
<path fill="none" stroke="midnightblue" d="M68.5,-542.211C68.5,-532.928 68.5,-523.682 68.5,-514.603"/>
<polygon fill="none" stroke="midnightblue" points="65.0001,-542.292 68.5,-552.292 72.0001,-542.292 65.0001,-542.292"/>
</g>
<!-- Node7 -->
<g id="node4" class="node"><title>Node7</title>
<g id="a_node4"><a xlink:title=" ">
<polygon fill="white" stroke="#bfbfbf" points="27.5,-900.5 27.5,-957.5 109.5,-957.5 109.5,-900.5 27.5,-900.5"/>
<text text-anchor="middle" x="68.5" y="-945.5" font-family="SegoeUI" font-size="10.00">MonoBehaviour</text>
<polyline fill="none" stroke="#bfbfbf" points="27.5,-938.5 109.5,-938.5 "/>
<text text-anchor="middle" x="68.5" y="-926.5" font-family="SegoeUI" font-size="10.00"> </text>
<polyline fill="none" stroke="#bfbfbf" points="27.5,-919.5 109.5,-919.5 "/>
<text text-anchor="middle" x="68.5" y="-907.5" font-family="SegoeUI" font-size="10.00"> </text>
</a>
</g>
</g>
<!-- Node7&#45;&gt;Node6 -->
<g id="edge3" class="edge"><title>Node7&#45;&gt;Node6</title>
<path fill="none" stroke="midnightblue" d="M68.5,-889.99C68.5,-881.781 68.5,-872.619 68.5,-862.892"/>
<polygon fill="none" stroke="midnightblue" points="65.0001,-890.2 68.5,-900.2 72.0001,-890.2 65.0001,-890.2"/>
</g>
<!-- Node8 -->
<g id="node5" class="node"><title>Node8</title>
<g id="a_node5"><a xlink:title=" ">
<polygon fill="white" stroke="#bfbfbf" points="155.5,-364 155.5,-421 221.5,-421 221.5,-364 155.5,-364"/>
<text text-anchor="middle" x="188.5" y="-409" font-family="SegoeUI" font-size="10.00">UnityEngine</text>
<polyline fill="none" stroke="#bfbfbf" points="155.5,-402 221.5,-402 "/>
<text text-anchor="middle" x="188.5" y="-390" font-family="SegoeUI" font-size="10.00"> </text>
<polyline fill="none" stroke="#bfbfbf" points="155.5,-383 221.5,-383 "/>
<text text-anchor="middle" x="188.5" y="-371" font-family="SegoeUI" font-size="10.00"> </text>
</a>
</g>
</g>
<!-- Node8&#45;&gt;Node4 -->
<g id="edge4" class="edge"><title>Node8&#45;&gt;Node4</title>
<path fill="none" stroke="#404040" d="M185.758,-363.99C181.873,-325.01 174.563,-251.662 168.49,-190.733"/>
<polygon fill="none" stroke="#404040" points="168.484,-190.667 163.908,-185.094 167.293,-178.727 171.869,-184.3 168.484,-190.667"/>
<text text-anchor="middle" x="212.5" y="-244" font-family="SegoeUI" font-size="10.00"> +startOrientation</text>
<text text-anchor="middle" x="212.5" y="-233" font-family="SegoeUI" font-size="10.00">&#45;startScale</text>
<text text-anchor="middle" x="212.5" y="-222" font-family="SegoeUI" font-size="10.00">&#45;endScale</text>
<text text-anchor="middle" x="212.5" y="-211" font-family="SegoeUI" font-size="10.00">&#45;startPosition</text>
<text text-anchor="middle" x="212.5" y="-200" font-family="SegoeUI" font-size="10.00">+endOrientation</text>
</g>
</g>
</svg>
        <g id="navigator" transform="translate(0 0)" fill="#404254">
                <rect fill="#f2f5e9" fill-opacity="0.5" stroke="#606060" stroke-width=".5" x="0" y="0" width="60" height="60"/>
                <use id="zoomplus" xlink:href="#zoomPlus" x="17" y="9" onmousedown="handleZoom(evt,'in')"/>
                <use id="zoomminus" xlink:href="#zoomMin" x="42" y="9" onmousedown="handleZoom(evt,'out')"/>
                <use id="reset" xlink:href="#resetDef" x="30" y="36" onmousedown="handleReset()"/>
                <g id="arrowUp" xlink:href="#dirArrow" transform="translate(30 24)" onmousedown="handlePan(0,-1)">
                  <use xlink:href="#rim" fill="#404040">
                        <set attributeName="fill" to="#808080" begin="arrowUp.mouseover" end="arrowUp.mouseout"/>
                  </use>
                  <path fill="none" stroke="white" stroke-width="1.5" d="M0,-3.0v7 M-2.5,-0.5L0,-3.0L2.5,-0.5"/>
                </g>
                <g id="arrowRight" xlink:href="#dirArrow" transform="rotate(90) translate(36 -43)" onmousedown="handlePan(1,0)">
                  <use xlink:href="#rim" fill="#404040">
                        <set attributeName="fill" to="#808080" begin="arrowRight.mouseover" end="arrowRight.mouseout"/>
                  </use>
                  <path fill="none" stroke="white" stroke-width="1.5" d="M0,-3.0v7 M-2.5,-0.5L0,-3.0L2.5,-0.5"/>
                </g>
                <g id="arrowDown" xlink:href="#dirArrow" transform="rotate(180) translate(-30 -48)" onmousedown="handlePan(0,1)">
                  <use xlink:href="#rim" fill="#404040">
                        <set attributeName="fill" to="#808080" begin="arrowDown.mouseover" end="arrowDown.mouseout"/>
                  </use>
                  <path fill="none" stroke="white" stroke-width="1.5" d="M0,-3.0v7 M-2.5,-0.5L0,-3.0L2.5,-0.5"/>
                </g>
                <g id="arrowLeft" xlink:href="#dirArrow" transform="rotate(270) translate(-36 17)" onmousedown="handlePan(-1,0)">
                  <use xlink:href="#rim" fill="#404040">
                        <set attributeName="fill" to="#808080" begin="arrowLeft.mouseover" end="arrowLeft.mouseout"/>
                  </use>
                  <path fill="none" stroke="white" stroke-width="1.5" d="M0,-3.0v7 M-2.5,-0.5L0,-3.0L2.5,-0.5"/>
                </g>
        </g>
        <svg viewBox="0 0 15 15" width="100%" height="30px" preserveAspectRatio="xMaxYMin meet">
         <g id="arrow_out" transform="scale(0.3 0.3)">
          <a xlink:href="class_juniper_1_1_unity_1_1_animation_1_1_spiral_transition__coll__graph_org.svg" target="_base">
           <rect id="button" ry="5" rx="5" y="6" x="6" height="38" width="38"
                fill="#f2f5e9" fill-opacity="0.5" stroke="#606060" stroke-width="1.0"/>
           <path id="arrow"
             d="M 11.500037,31.436501 C 11.940474,20.09759 22.043105,11.32322 32.158766,21.979434 L 37.068811,17.246167 C 37.068811,17.246167 37.088388,32 37.088388,32 L 22.160133,31.978069 C 22.160133,31.978069 26.997745,27.140456 26.997745,27.140456 C 18.528582,18.264221 13.291696,25.230495 11.500037,31.436501 z"
             style="fill:#404040;"/>
          </a>
         </g>
        </svg>
</svg>
