<?xml version="1.0" encoding="UTF-8" standalone="no"?>
<!DOCTYPE svg PUBLIC "-//W3C//DTD SVG 1.1//EN"
 "http://www.w3.org/Graphics/SVG/1.1/DTD/svg11.dtd">
<!-- Generated by graphviz version 2.38.0 (20140413.2041)
 -->
<!-- Title: Juniper.Unity.Widgets.Tooltip Pages: 1 -->
<svg width="236pt" height="518pt"
 viewBox="0.00 0.00 236.00 518.00" xmlns="http://www.w3.org/2000/svg" xmlns:xlink="http://www.w3.org/1999/xlink">
<g id="graph0" class="graph" transform="scale(1 1) rotate(0) translate(4 514)">
<title>Juniper.Unity.Widgets.Tooltip</title>
<polygon fill="white" stroke="none" points="-4,4 -4,-514 232,-514 232,4 -4,4"/>
<!-- Node2 -->
<g id="node1" class="node"><title>Node2</title>
<g id="a_node1"><a xlink:title="A combination of a TextMesh object and a background label, where the text can resize to fill the back...">
<polygon fill="#bfbfbf" stroke="black" points="9.5,-0.5 9.5,-145.5 150.5,-145.5 150.5,-0.5 9.5,-0.5"/>
<text text-anchor="middle" x="80" y="-133.5" font-family="SegoeUI" font-size="10.00">Juniper.Unity.Widgets.Tooltip</text>
<polyline fill="none" stroke="black" points="9.5,-126.5 150.5,-126.5 "/>
<text text-anchor="start" x="17.5" y="-114.5" font-family="SegoeUI" font-size="10.00">+ text</text>
<text text-anchor="start" x="17.5" y="-103.5" font-family="SegoeUI" font-size="10.00">+ pad</text>
<text text-anchor="start" x="17.5" y="-92.5" font-family="SegoeUI" font-size="10.00">+ fudge</text>
<text text-anchor="start" x="17.5" y="-81.5" font-family="SegoeUI" font-size="10.00">+ show</text>
<text text-anchor="start" x="17.5" y="-70.5" font-family="SegoeUI" font-size="10.00">+ Width</text>
<text text-anchor="start" x="17.5" y="-59.5" font-family="SegoeUI" font-size="10.00">+ Height</text>
<text text-anchor="start" x="17.5" y="-48.5" font-family="SegoeUI" font-size="10.00">&#45; lbl</text>
<text text-anchor="start" x="17.5" y="-37.5" font-family="SegoeUI" font-size="10.00">&#45; bg</text>
<polyline fill="none" stroke="black" points="9.5,-30.5 150.5,-30.5 "/>
<text text-anchor="start" x="17.5" y="-18.5" font-family="SegoeUI" font-size="10.00">+ Awake()</text>
<text text-anchor="start" x="17.5" y="-7.5" font-family="SegoeUI" font-size="10.00">+ Update()</text>
</a>
</g>
</g>
<!-- Node3 -->
<g id="node2" class="node"><title>Node3</title>
<g id="a_node2"><a xlink:title=" ">
<polygon fill="white" stroke="#bfbfbf" points="0,-270.5 0,-327.5 82,-327.5 82,-270.5 0,-270.5"/>
<text text-anchor="middle" x="41" y="-315.5" font-family="SegoeUI" font-size="10.00">MonoBehaviour</text>
<polyline fill="none" stroke="#bfbfbf" points="0,-308.5 82,-308.5 "/>
<text text-anchor="middle" x="41" y="-296.5" font-family="SegoeUI" font-size="10.00"> </text>
<polyline fill="none" stroke="#bfbfbf" points="0,-289.5 82,-289.5 "/>
<text text-anchor="middle" x="41" y="-277.5" font-family="SegoeUI" font-size="10.00"> </text>
</a>
</g>
</g>
<!-- Node3&#45;&gt;Node2 -->
<g id="edge1" class="edge"><title>Node3&#45;&gt;Node2</title>
<path fill="none" stroke="midnightblue" d="M47.6065,-260.055C53.0447,-228.82 60.9074,-183.66 67.5244,-145.655"/>
<polygon fill="none" stroke="midnightblue" points="44.1277,-259.631 45.8605,-270.083 51.024,-260.832 44.1277,-259.631"/>
</g>
<!-- Node4 -->
<g id="node3" class="node"><title>Node4</title>
<g id="a_node3"><a xlink:href="../../de/d45/class_unity_engine_1_1_text_mesh_size.html" target="_top" xlink:title="Calculates the width of a set of text that is rendered to a TextMesh object, for being able to resize...">
<polygon fill="white" stroke="black" points="100,-193.5 100,-404.5 228,-404.5 228,-193.5 100,-193.5"/>
<text text-anchor="middle" x="164" y="-392.5" font-family="SegoeUI" font-size="10.00">UnityEngine.TextMeshSize</text>
<polyline fill="none" stroke="black" points="100,-385.5 228,-385.5 "/>
<text text-anchor="start" x="108" y="-373.5" font-family="SegoeUI" font-size="10.00">+ Width</text>
<text text-anchor="start" x="108" y="-362.5" font-family="SegoeUI" font-size="10.00">+ CurrentWidth</text>
<text text-anchor="start" x="108" y="-351.5" font-family="SegoeUI" font-size="10.00">&#45; charWidths</text>
<text text-anchor="start" x="108" y="-340.5" font-family="SegoeUI" font-size="10.00">&#45; mesh</text>
<text text-anchor="start" x="108" y="-329.5" font-family="SegoeUI" font-size="10.00">&#45; renderer</text>
<text text-anchor="start" x="108" y="-318.5" font-family="SegoeUI" font-size="10.00">&#45; parent</text>
<text text-anchor="start" x="108" y="-307.5" font-family="SegoeUI" font-size="10.00">&#45; lastText</text>
<text text-anchor="start" x="108" y="-296.5" font-family="SegoeUI" font-size="10.00">&#45; lastWidth</text>
<text text-anchor="start" x="108" y="-285.5" font-family="SegoeUI" font-size="10.00">&#45; oldRotation</text>
<text text-anchor="start" x="108" y="-274.5" font-family="SegoeUI" font-size="10.00">&#45; locked</text>
<polyline fill="none" stroke="black" points="100,-267.5 228,-267.5 "/>
<text text-anchor="start" x="108" y="-255.5" font-family="SegoeUI" font-size="10.00">+ TextMeshSize()</text>
<text text-anchor="start" x="108" y="-244.5" font-family="SegoeUI" font-size="10.00">+ FitToWidth()</text>
<text text-anchor="start" x="108" y="-233.5" font-family="SegoeUI" font-size="10.00">&#45; GetTextWidth()</text>
<text text-anchor="start" x="108" y="-222.5" font-family="SegoeUI" font-size="10.00">&#45; Lock()</text>
<text text-anchor="start" x="108" y="-211.5" font-family="SegoeUI" font-size="10.00">&#45; Unlock()</text>
<text text-anchor="start" x="108" y="-200.5" font-family="SegoeUI" font-size="10.00">&#45; WrapLines()</text>
</a>
</g>
</g>
<!-- Node4&#45;&gt;Node2 -->
<g id="edge2" class="edge"><title>Node4&#45;&gt;Node2</title>
<path fill="none" stroke="#404040" d="M124.705,-193.214C120.19,-181.173 115.633,-169.02 111.243,-157.316"/>
<polygon fill="none" stroke="#404040" points="111.131,-157.017 105.279,-152.804 106.918,-145.781 112.77,-149.995 111.131,-157.017"/>
<text text-anchor="middle" x="130" y="-167" font-family="SegoeUI" font-size="10.00"> &#45;sizer</text>
</g>
<!-- Node5 -->
<g id="node4" class="node"><title>Node5</title>
<g id="a_node4"><a xlink:title=" ">
<polygon fill="white" stroke="#bfbfbf" points="131,-452.5 131,-509.5 197,-509.5 197,-452.5 131,-452.5"/>
<text text-anchor="middle" x="164" y="-497.5" font-family="SegoeUI" font-size="10.00">UnityEngine</text>
<polyline fill="none" stroke="#bfbfbf" points="131,-490.5 197,-490.5 "/>
<text text-anchor="middle" x="164" y="-478.5" font-family="SegoeUI" font-size="10.00"> </text>
<polyline fill="none" stroke="#bfbfbf" points="131,-471.5 197,-471.5 "/>
<text text-anchor="middle" x="164" y="-459.5" font-family="SegoeUI" font-size="10.00"> </text>
</a>
</g>
</g>
<!-- Node5&#45;&gt;Node4 -->
<g id="edge3" class="edge"><title>Node5&#45;&gt;Node4</title>
<path fill="none" stroke="#404040" d="M164,-452.269C164,-442.152 164,-429.975 164,-416.971"/>
<polygon fill="none" stroke="#404040" points="164,-416.831 160,-410.831 164,-404.831 168,-410.831 164,-416.831"/>
<text text-anchor="middle" x="185.5" y="-426" font-family="SegoeUI" font-size="10.00"> &#45;oldScale</text>
</g>
</g>
</svg>
