<?xml version="1.0" encoding="UTF-8" standalone="no"?>
<!DOCTYPE svg PUBLIC "-//W3C//DTD SVG 1.1//EN"
 "http://www.w3.org/Graphics/SVG/1.1/DTD/svg11.dtd">
<!-- Generated by graphviz version 2.38.0 (20140413.2041)
 -->
<!-- Title: Juniper.Input.WindowsAPIKeyEventSource Pages: 1 -->
<svg width="172pt" height="636pt"
 viewBox="0.00 0.00 172.00 636.00" xmlns="http://www.w3.org/2000/svg" xmlns:xlink="http://www.w3.org/1999/xlink">
<g id="graph0" class="graph" transform="scale(1 1) rotate(0) translate(4 632)">
<title>Juniper.Input.WindowsAPIKeyEventSource</title>
<polygon fill="white" stroke="none" points="-4,4 -4,-632 168,-632 168,4 -4,4"/>
<!-- Node4 -->
<g id="node1" class="node"><title>Node4</title>
<g id="a_node1"><a xlink:title=" ">
<polygon fill="#bfbfbf" stroke="black" points="10.5,-0.5 10.5,-68.5 153.5,-68.5 153.5,-0.5 10.5,-0.5"/>
<text text-anchor="start" x="18.5" y="-56.5" font-family="SegoeUI" font-size="10.00">Juniper.Input.WindowsAPIKey</text>
<text text-anchor="middle" x="82" y="-45.5" font-family="SegoeUI" font-size="10.00">EventSource</text>
<polyline fill="none" stroke="black" points="10.5,-38.5 153.5,-38.5 "/>
<text text-anchor="middle" x="82" y="-26.5" font-family="SegoeUI" font-size="10.00"> </text>
<polyline fill="none" stroke="black" points="10.5,-19.5 153.5,-19.5 "/>
<text text-anchor="start" x="18.5" y="-7.5" font-family="SegoeUI" font-size="10.00"># IsKeyDown()</text>
</a>
</g>
</g>
<!-- Node5 -->
<g id="node2" class="node"><title>Node5</title>
<g id="a_node2"><a xlink:href="../../d8/d6c/class_juniper_1_1_input_1_1_abstract_polling_key_event_source.html" target="_top" xlink:title=" ">
<polygon fill="white" stroke="black" points="0,-106.5 0,-218.5 164,-218.5 164,-106.5 0,-106.5"/>
<text text-anchor="start" x="8" y="-206.5" font-family="SegoeUI" font-size="10.00">AbstractPollingKeyEventSource</text>
<text text-anchor="middle" x="82" y="-195.5" font-family="SegoeUI" font-size="10.00">&lt; Key &gt;</text>
<polyline fill="none" stroke="black" points="0,-188.5 164,-188.5 "/>
<text text-anchor="start" x="8" y="-176.5" font-family="SegoeUI" font-size="10.00">&#45; poller</text>
<polyline fill="none" stroke="black" points="0,-169.5 164,-169.5 "/>
<text text-anchor="start" x="8" y="-157.5" font-family="SegoeUI" font-size="10.00">+ AbstractPollingKeyEventSource()</text>
<text text-anchor="start" x="8" y="-146.5" font-family="SegoeUI" font-size="10.00">+ Start()</text>
<text text-anchor="start" x="8" y="-135.5" font-family="SegoeUI" font-size="10.00">+ Stop()</text>
<text text-anchor="start" x="8" y="-124.5" font-family="SegoeUI" font-size="10.00"># IsKeyDown()</text>
<text text-anchor="start" x="8" y="-113.5" font-family="SegoeUI" font-size="10.00">&#45; Update()</text>
</a>
</g>
</g>
<!-- Node5&#45;&gt;Node4 -->
<g id="edge1" class="edge"><title>Node5&#45;&gt;Node4</title>
<path fill="none" stroke="midnightblue" d="M82,-95.9612C82,-86.4839 82,-77.0833 82,-68.6192"/>
<polygon fill="none" stroke="midnightblue" points="78.5001,-96.2345 82,-106.235 85.5001,-96.2346 78.5001,-96.2345"/>
</g>
<!-- Node6 -->
<g id="node3" class="node"><title>Node6</title>
<g id="a_node3"><a xlink:href="../../d8/d6c/class_juniper_1_1_input_1_1_abstract_polling_key_event_source.html" target="_top" xlink:title=" ">
<polygon fill="white" stroke="black" points="0,-266.5 0,-378.5 164,-378.5 164,-266.5 0,-266.5"/>
<text text-anchor="start" x="8" y="-366.5" font-family="SegoeUI" font-size="10.00">Juniper.Input.AbstractPolling</text>
<text text-anchor="middle" x="82" y="-355.5" font-family="SegoeUI" font-size="10.00">KeyEventSource&lt; KeyT &gt;</text>
<polyline fill="none" stroke="black" points="0,-348.5 164,-348.5 "/>
<text text-anchor="start" x="8" y="-336.5" font-family="SegoeUI" font-size="10.00">&#45; poller</text>
<polyline fill="none" stroke="black" points="0,-329.5 164,-329.5 "/>
<text text-anchor="start" x="8" y="-317.5" font-family="SegoeUI" font-size="10.00">+ AbstractPollingKeyEventSource()</text>
<text text-anchor="start" x="8" y="-306.5" font-family="SegoeUI" font-size="10.00">+ Start()</text>
<text text-anchor="start" x="8" y="-295.5" font-family="SegoeUI" font-size="10.00">+ Stop()</text>
<text text-anchor="start" x="8" y="-284.5" font-family="SegoeUI" font-size="10.00"># IsKeyDown()</text>
<text text-anchor="start" x="8" y="-273.5" font-family="SegoeUI" font-size="10.00">&#45; Update()</text>
</a>
</g>
</g>
<!-- Node6&#45;&gt;Node5 -->
<g id="edge2" class="edge"><title>Node6&#45;&gt;Node5</title>
<path fill="none" stroke="orange" d="M82,-255.974C82,-243.592 82,-230.756 82,-218.73"/>
<polygon fill="orange" stroke="orange" points="78.5001,-256.239 82,-266.239 85.5001,-256.239 78.5001,-256.239"/>
<text text-anchor="middle" x="101" y="-240" font-family="SegoeUI" font-size="10.00"> &lt; Key &gt;</text>
</g>
<!-- Node7 -->
<g id="node4" class="node"><title>Node7</title>
<g id="a_node4"><a xlink:href="../../d6/d3e/class_juniper_1_1_input_1_1_abstract_key_event_source.html" target="_top" xlink:title=" ">
<polygon fill="white" stroke="black" points="13.5,-416.5 13.5,-627.5 150.5,-627.5 150.5,-416.5 13.5,-416.5"/>
<text text-anchor="start" x="21.5" y="-615.5" font-family="SegoeUI" font-size="10.00">AbstractKeyEventSource</text>
<text text-anchor="middle" x="82" y="-604.5" font-family="SegoeUI" font-size="10.00">&lt; KeyT &gt;</text>
<polyline fill="none" stroke="black" points="13.5,-597.5 150.5,-597.5 "/>
<text text-anchor="start" x="21.5" y="-585.5" font-family="SegoeUI" font-size="10.00">+ KeyState</text>
<text text-anchor="start" x="21.5" y="-574.5" font-family="SegoeUI" font-size="10.00">+ Keys</text>
<text text-anchor="start" x="21.5" y="-563.5" font-family="SegoeUI" font-size="10.00">&#45; aliases</text>
<text text-anchor="start" x="21.5" y="-552.5" font-family="SegoeUI" font-size="10.00">&#45; events</text>
<text text-anchor="start" x="21.5" y="-541.5" font-family="SegoeUI" font-size="10.00">&#45; upEvents</text>
<text text-anchor="start" x="21.5" y="-530.5" font-family="SegoeUI" font-size="10.00">&#45; downEvents</text>
<text text-anchor="start" x="21.5" y="-519.5" font-family="SegoeUI" font-size="10.00">&#45; aliasState</text>
<text text-anchor="start" x="21.5" y="-508.5" font-family="SegoeUI" font-size="10.00">&#45; names</text>
<text text-anchor="start" x="21.5" y="-497.5" font-family="SegoeUI" font-size="10.00">&#45; origin</text>
<polyline fill="none" stroke="black" points="13.5,-490.5 150.5,-490.5 "/>
<text text-anchor="start" x="21.5" y="-478.5" font-family="SegoeUI" font-size="10.00">+ Start()</text>
<text text-anchor="start" x="21.5" y="-467.5" font-family="SegoeUI" font-size="10.00">+ Stop()</text>
<text text-anchor="start" x="21.5" y="-456.5" font-family="SegoeUI" font-size="10.00">+ AddKeyAlias()</text>
<text text-anchor="start" x="21.5" y="-445.5" font-family="SegoeUI" font-size="10.00">+ IsDown()</text>
<text text-anchor="start" x="21.5" y="-434.5" font-family="SegoeUI" font-size="10.00"># AbstractKeyEventSource()</text>
<text text-anchor="start" x="21.5" y="-423.5" font-family="SegoeUI" font-size="10.00"># UpdateStates()</text>
</a>
</g>
</g>
<!-- Node7&#45;&gt;Node6 -->
<g id="edge3" class="edge"><title>Node7&#45;&gt;Node6</title>
<path fill="none" stroke="midnightblue" d="M82,-406.419C82,-396.833 82,-387.451 82,-378.648"/>
<polygon fill="none" stroke="midnightblue" points="78.5001,-406.467 82,-416.467 85.5001,-406.467 78.5001,-406.467"/>
</g>
</g>
</svg>
