<?xml version="1.0" encoding="UTF-8" standalone="no"?>
<!DOCTYPE svg PUBLIC "-//W3C//DTD SVG 1.1//EN"
 "http://www.w3.org/Graphics/SVG/1.1/DTD/svg11.dtd">
<!-- Generated by graphviz version 2.38.0 (20140413.2041)
 -->
<!-- Title: UnityEngine.Events.Vector3Event Pages: 1 -->
<svg width="141pt" height="171pt"
 viewBox="0.00 0.00 141.00 171.00" xmlns="http://www.w3.org/2000/svg" xmlns:xlink="http://www.w3.org/1999/xlink">
<g id="graph0" class="graph" transform="scale(1 1) rotate(0) translate(4 167)">
<title>UnityEngine.Events.Vector3Event</title>
<polygon fill="white" stroke="none" points="-4,4 -4,-167 137,-167 137,4 -4,4"/>
<!-- Node2 -->
<g id="node1" class="node"><title>Node2</title>
<g id="a_node1"><a xlink:title="An event that passes an Vector3 value as an argument.">
<polygon fill="#bfbfbf" stroke="black" points="0,-0.5 0,-68.5 133,-68.5 133,-0.5 0,-0.5"/>
<text text-anchor="start" x="8" y="-56.5" font-family="SegoeUI" font-size="10.00">UnityEngine.Events.Vector3</text>
<text text-anchor="middle" x="66.5" y="-45.5" font-family="SegoeUI" font-size="10.00">Event</text>
<polyline fill="none" stroke="black" points="0,-38.5 133,-38.5 "/>
<text text-anchor="middle" x="66.5" y="-26.5" font-family="SegoeUI" font-size="10.00"> </text>
<polyline fill="none" stroke="black" points="0,-19.5 133,-19.5 "/>
<text text-anchor="middle" x="66.5" y="-7.5" font-family="SegoeUI" font-size="10.00"> </text>
</a>
</g>
</g>
<!-- Node3 -->
<g id="node2" class="node"><title>Node3</title>
<g id="a_node2"><a xlink:title=" ">
<polygon fill="white" stroke="#bfbfbf" points="10,-105.5 10,-162.5 123,-162.5 123,-105.5 10,-105.5"/>
<text text-anchor="middle" x="66.5" y="-150.5" font-family="SegoeUI" font-size="10.00">UnityEvent&lt; Vector3 &gt;</text>
<polyline fill="none" stroke="#bfbfbf" points="10,-143.5 123,-143.5 "/>
<text text-anchor="middle" x="66.5" y="-131.5" font-family="SegoeUI" font-size="10.00"> </text>
<polyline fill="none" stroke="#bfbfbf" points="10,-124.5 123,-124.5 "/>
<text text-anchor="middle" x="66.5" y="-112.5" font-family="SegoeUI" font-size="10.00"> </text>
</a>
</g>
</g>
<!-- Node3&#45;&gt;Node2 -->
<g id="edge1" class="edge"><title>Node3&#45;&gt;Node2</title>
<path fill="none" stroke="midnightblue" d="M66.5,-95.0631C66.5,-86.3933 66.5,-77.2431 66.5,-68.7855"/>
<polygon fill="none" stroke="midnightblue" points="63.0001,-95.3212 66.5,-105.321 70.0001,-95.3212 63.0001,-95.3212"/>
</g>
</g>
</svg>
