<?xml version="1.0" encoding="UTF-8" standalone="no"?>
<!DOCTYPE svg PUBLIC "-//W3C//DTD SVG 1.1//EN"
 "http://www.w3.org/Graphics/SVG/1.1/DTD/svg11.dtd">
<!-- Generated by graphviz version 2.38.0 (20140413.2041)
 -->
<!-- Title: Juniper.Unity.Events.ButtonEvent Pages: 1 -->
<svg width="301pt" height="508pt"
 viewBox="0.00 0.00 300.50 508.00" xmlns="http://www.w3.org/2000/svg" xmlns:xlink="http://www.w3.org/1999/xlink">
<g id="graph0" class="graph" transform="scale(1 1) rotate(0) translate(4 504)">
<title>Juniper.Unity.Events.ButtonEvent</title>
<polygon fill="white" stroke="none" points="-4,4 -4,-504 296.5,-504 296.5,4 -4,4"/>
<!-- Node2 -->
<g id="node1" class="node"><title>Node2</title>
<g id="a_node1"><a xlink:title=" ">
<polygon fill="#bfbfbf" stroke="black" points="48,-0.5 48,-233.5 192,-233.5 192,-0.5 48,-0.5"/>
<text text-anchor="start" x="56" y="-221.5" font-family="SegoeUI" font-size="10.00">Juniper.Unity.Events.Button</text>
<text text-anchor="middle" x="120" y="-210.5" font-family="SegoeUI" font-size="10.00">Event</text>
<polyline fill="none" stroke="black" points="48,-203.5 192,-203.5 "/>
<text text-anchor="start" x="56" y="-191.5" font-family="SegoeUI" font-size="10.00">+ buttonTypeName</text>
<text text-anchor="start" x="56" y="-180.5" font-family="SegoeUI" font-size="10.00">+ buttonValueName</text>
<text text-anchor="start" x="56" y="-169.5" font-family="SegoeUI" font-size="10.00">+ Key</text>
<text text-anchor="start" x="56" y="-158.5" font-family="SegoeUI" font-size="10.00">+ IsPressed</text>
<text text-anchor="start" x="56" y="-147.5" font-family="SegoeUI" font-size="10.00">+ IsDown</text>
<text text-anchor="start" x="56" y="-136.5" font-family="SegoeUI" font-size="10.00">+ IsUp</text>
<text text-anchor="start" x="56" y="-125.5" font-family="SegoeUI" font-size="10.00">&#45; wasPressed</text>
<polyline fill="none" stroke="black" points="48,-118.5 192,-118.5 "/>
<text text-anchor="start" x="56" y="-106.5" font-family="SegoeUI" font-size="10.00">+ GetSupportedButtonTypes()</text>
<text text-anchor="start" x="56" y="-95.5" font-family="SegoeUI" font-size="10.00">+ GetButtonValue&lt; T &gt;()</text>
<text text-anchor="start" x="56" y="-84.5" font-family="SegoeUI" font-size="10.00">+ LateUpdate()</text>
<text text-anchor="start" x="56" y="-73.5" font-family="SegoeUI" font-size="10.00">+ OnDown()</text>
<text text-anchor="start" x="56" y="-62.5" font-family="SegoeUI" font-size="10.00">+ OnClick()</text>
<text text-anchor="start" x="56" y="-51.5" font-family="SegoeUI" font-size="10.00">+ OnLongPress()</text>
<text text-anchor="start" x="56" y="-40.5" font-family="SegoeUI" font-size="10.00">+ OnUp()</text>
<text text-anchor="start" x="56" y="-29.5" font-family="SegoeUI" font-size="10.00">+ FormatKey()</text>
<text text-anchor="start" x="56" y="-18.5" font-family="SegoeUI" font-size="10.00">+ MakeKey&lt; T &gt;()</text>
<text text-anchor="start" x="56" y="-7.5" font-family="SegoeUI" font-size="10.00">&#45; OnDoubleClick()</text>
</a>
</g>
</g>
<!-- Node3 -->
<g id="node2" class="node"><title>Node3</title>
<g id="a_node2"><a xlink:title=" ">
<polygon fill="white" stroke="#bfbfbf" points="0,-331 0,-388 82,-388 82,-331 0,-331"/>
<text text-anchor="middle" x="41" y="-376" font-family="SegoeUI" font-size="10.00">MonoBehaviour</text>
<polyline fill="none" stroke="#bfbfbf" points="0,-369 82,-369 "/>
<text text-anchor="middle" x="41" y="-357" font-family="SegoeUI" font-size="10.00"> </text>
<polyline fill="none" stroke="#bfbfbf" points="0,-350 82,-350 "/>
<text text-anchor="middle" x="41" y="-338" font-family="SegoeUI" font-size="10.00"> </text>
</a>
</g>
</g>
<!-- Node3&#45;&gt;Node2 -->
<g id="edge1" class="edge"><title>Node3&#45;&gt;Node2</title>
<path fill="none" stroke="midnightblue" d="M53.228,-321.274C61.0307,-297.52 71.6072,-265.322 82.0402,-233.561"/>
<polygon fill="none" stroke="midnightblue" points="49.8579,-320.319 50.0623,-330.912 56.5083,-322.503 49.8579,-320.319"/>
</g>
<!-- Node4 -->
<g id="node3" class="node"><title>Node4</title>
<g id="a_node3"><a xlink:title=" ">
<polygon fill="white" stroke="#bfbfbf" points="100.5,-331 100.5,-388 139.5,-388 139.5,-331 100.5,-331"/>
<text text-anchor="middle" x="120" y="-376" font-family="SegoeUI" font-size="10.00">static</text>
<polyline fill="none" stroke="#bfbfbf" points="100.5,-369 139.5,-369 "/>
<text text-anchor="middle" x="120" y="-357" font-family="SegoeUI" font-size="10.00"> </text>
<polyline fill="none" stroke="#bfbfbf" points="100.5,-350 139.5,-350 "/>
<text text-anchor="middle" x="120" y="-338" font-family="SegoeUI" font-size="10.00"> </text>
</a>
</g>
</g>
<!-- Node4&#45;&gt;Node2 -->
<g id="edge2" class="edge"><title>Node4&#45;&gt;Node2</title>
<path fill="none" stroke="#404040" d="M120,-330.912C120,-309.468 120,-278.05 120,-245.9"/>
<polygon fill="none" stroke="#404040" points="120,-245.561 116,-239.561 120,-233.561 124,-239.561 120,-245.561"/>
<text text-anchor="middle" x="146.5" y="-277" font-family="SegoeUI" font-size="10.00"> &#45;KeyPattern</text>
</g>
<!-- Node5 -->
<g id="node4" class="node"><title>Node5</title>
<g id="a_node4"><a xlink:href="../../d0/d0e/class_juniper_1_1_unity_1_1_events_1_1_pointer_event.html" target="_top" xlink:title=" ">
<polygon fill="white" stroke="black" points="157.5,-325.5 157.5,-393.5 292.5,-393.5 292.5,-325.5 157.5,-325.5"/>
<text text-anchor="start" x="165.5" y="-381.5" font-family="SegoeUI" font-size="10.00">Juniper.Unity.Events.Pointer</text>
<text text-anchor="middle" x="225" y="-370.5" font-family="SegoeUI" font-size="10.00">Event</text>
<polyline fill="none" stroke="black" points="157.5,-363.5 292.5,-363.5 "/>
<text text-anchor="middle" x="225" y="-351.5" font-family="SegoeUI" font-size="10.00"> </text>
<polyline fill="none" stroke="black" points="157.5,-344.5 292.5,-344.5 "/>
<text text-anchor="middle" x="225" y="-332.5" font-family="SegoeUI" font-size="10.00"> </text>
</a>
</g>
</g>
<!-- Node5&#45;&gt;Node2 -->
<g id="edge3" class="edge"><title>Node5&#45;&gt;Node2</title>
<path fill="none" stroke="#404040" d="M210.51,-325.312C201.166,-303.908 188.358,-274.573 175.319,-244.706"/>
<polygon fill="none" stroke="#404040" points="175.311,-244.689 169.245,-240.791 170.51,-233.691 176.576,-237.59 175.311,-244.689"/>
<text text-anchor="middle" x="235" y="-299" font-family="SegoeUI" font-size="10.00"> +onUp</text>
<text text-anchor="middle" x="235" y="-288" font-family="SegoeUI" font-size="10.00">+onLongPress</text>
<text text-anchor="middle" x="235" y="-277" font-family="SegoeUI" font-size="10.00">+onClick</text>
<text text-anchor="middle" x="235" y="-266" font-family="SegoeUI" font-size="10.00">+onDoubleClick</text>
<text text-anchor="middle" x="235" y="-255" font-family="SegoeUI" font-size="10.00">+onDown</text>
</g>
<!-- Node6 -->
<g id="node5" class="node"><title>Node6</title>
<g id="a_node5"><a xlink:title=" ">
<polygon fill="white" stroke="#bfbfbf" points="163,-431.5 163,-499.5 287,-499.5 287,-431.5 163,-431.5"/>
<text text-anchor="start" x="171" y="-487.5" font-family="SegoeUI" font-size="10.00">UnityEvent&lt; PointerEvent</text>
<text text-anchor="middle" x="225" y="-476.5" font-family="SegoeUI" font-size="10.00">Data &gt;</text>
<polyline fill="none" stroke="#bfbfbf" points="163,-469.5 287,-469.5 "/>
<text text-anchor="middle" x="225" y="-457.5" font-family="SegoeUI" font-size="10.00"> </text>
<polyline fill="none" stroke="#bfbfbf" points="163,-450.5 287,-450.5 "/>
<text text-anchor="middle" x="225" y="-438.5" font-family="SegoeUI" font-size="10.00"> </text>
</a>
</g>
</g>
<!-- Node6&#45;&gt;Node5 -->
<g id="edge4" class="edge"><title>Node6&#45;&gt;Node5</title>
<path fill="none" stroke="midnightblue" d="M225,-421.174C225,-412.002 225,-402.461 225,-393.734"/>
<polygon fill="none" stroke="midnightblue" points="221.5,-421.308 225,-431.308 228.5,-421.308 221.5,-421.308"/>
</g>
</g>
</svg>
