<?xml version="1.0" encoding="UTF-8" standalone="no"?>
<!DOCTYPE svg PUBLIC "-//W3C//DTD SVG 1.1//EN"
 "http://www.w3.org/Graphics/SVG/1.1/DTD/svg11.dtd">
<!-- Generated by graphviz version 2.38.0 (20140413.2041)
 -->
<!-- Title: Juniper.Imaging.IImageProcessor&lt; T &gt; Pages: 1 -->
<svg width="702pt" height="387pt"
 viewBox="0.00 0.00 702.00 387.00" xmlns="http://www.w3.org/2000/svg" xmlns:xlink="http://www.w3.org/1999/xlink">
<g id="graph0" class="graph" transform="scale(1 1) rotate(0) translate(4 383)">
<title>Juniper.Imaging.IImageProcessor&lt; T &gt;</title>
<polygon fill="white" stroke="none" points="-4,4 -4,-383 698,-383 698,4 -4,4"/>
<!-- Node0 -->
<g id="node1" class="node"><title>Node0</title>
<g id="a_node1"><a xlink:title=" ">
<polygon fill="#bfbfbf" stroke="black" points="253.5,-288.5 253.5,-378.5 438.5,-378.5 438.5,-288.5 253.5,-288.5"/>
<text text-anchor="middle" x="346" y="-366.5" font-family="SegoeUI" font-size="10.00">Juniper.Imaging.IImageProcessor&lt; T &gt;</text>
<polyline fill="none" stroke="black" points="253.5,-359.5 438.5,-359.5 "/>
<text text-anchor="middle" x="346" y="-347.5" font-family="SegoeUI" font-size="10.00"> </text>
<polyline fill="none" stroke="black" points="253.5,-340.5 438.5,-340.5 "/>
<text text-anchor="start" x="261.5" y="-328.5" font-family="SegoeUI" font-size="10.00">+ GetWidth()</text>
<text text-anchor="start" x="261.5" y="-317.5" font-family="SegoeUI" font-size="10.00">+ GetHeight()</text>
<text text-anchor="start" x="261.5" y="-306.5" font-family="SegoeUI" font-size="10.00">+ GetComponents()</text>
<text text-anchor="start" x="261.5" y="-295.5" font-family="SegoeUI" font-size="10.00">+ Concatenate()</text>
</a>
</g>
</g>
<!-- Node1 -->
<g id="node2" class="node"><title>Node1</title>
<g id="a_node2"><a xlink:href="../../d3/dec/interface_juniper_1_1_imaging_1_1_i_image_processor.html" target="_top" xlink:title=" ">
<polygon fill="white" stroke="black" points="0,-139.5 0,-240.5 160,-240.5 160,-139.5 0,-139.5"/>
<text text-anchor="start" x="8" y="-228.5" font-family="SegoeUI" font-size="10.00">Juniper.Imaging.IImageProcessor</text>
<text text-anchor="middle" x="80" y="-217.5" font-family="SegoeUI" font-size="10.00">&lt; ImageLines &gt;</text>
<polyline fill="none" stroke="black" points="0,-210.5 160,-210.5 "/>
<text text-anchor="middle" x="80" y="-198.5" font-family="SegoeUI" font-size="10.00"> </text>
<polyline fill="none" stroke="black" points="0,-191.5 160,-191.5 "/>
<text text-anchor="start" x="8" y="-179.5" font-family="SegoeUI" font-size="10.00">+ GetWidth()</text>
<text text-anchor="start" x="8" y="-168.5" font-family="SegoeUI" font-size="10.00">+ GetHeight()</text>
<text text-anchor="start" x="8" y="-157.5" font-family="SegoeUI" font-size="10.00">+ GetComponents()</text>
<text text-anchor="start" x="8" y="-146.5" font-family="SegoeUI" font-size="10.00">+ Concatenate()</text>
</a>
</g>
</g>
<!-- Node0&#45;&gt;Node1 -->
<g id="edge1" class="edge"><title>Node0&#45;&gt;Node1</title>
<path fill="none" stroke="orange" d="M250.032,-283.659C223.67,-270.034 195.148,-255.098 169,-241 166.192,-239.486 163.339,-237.938 160.461,-236.368"/>
<polygon fill="orange" stroke="orange" points="248.767,-286.945 259.259,-288.42 251.977,-280.724 248.767,-286.945"/>
<text text-anchor="middle" x="259" y="-262" font-family="SegoeUI" font-size="10.00"> &lt; ImageLines &gt;</text>
</g>
<!-- Node3 -->
<g id="node4" class="node"><title>Node3</title>
<g id="a_node4"><a xlink:href="../../d3/dec/interface_juniper_1_1_imaging_1_1_i_image_processor.html" target="_top" xlink:title=" ">
<polygon fill="white" stroke="black" points="178,-139.5 178,-240.5 338,-240.5 338,-139.5 178,-139.5"/>
<text text-anchor="start" x="186" y="-228.5" font-family="SegoeUI" font-size="10.00">Juniper.Imaging.IImageProcessor</text>
<text text-anchor="middle" x="258" y="-217.5" font-family="SegoeUI" font-size="10.00">&lt; JpegImage &gt;</text>
<polyline fill="none" stroke="black" points="178,-210.5 338,-210.5 "/>
<text text-anchor="middle" x="258" y="-198.5" font-family="SegoeUI" font-size="10.00"> </text>
<polyline fill="none" stroke="black" points="178,-191.5 338,-191.5 "/>
<text text-anchor="start" x="186" y="-179.5" font-family="SegoeUI" font-size="10.00">+ GetWidth()</text>
<text text-anchor="start" x="186" y="-168.5" font-family="SegoeUI" font-size="10.00">+ GetHeight()</text>
<text text-anchor="start" x="186" y="-157.5" font-family="SegoeUI" font-size="10.00">+ GetComponents()</text>
<text text-anchor="start" x="186" y="-146.5" font-family="SegoeUI" font-size="10.00">+ Concatenate()</text>
</a>
</g>
</g>
<!-- Node0&#45;&gt;Node3 -->
<g id="edge3" class="edge"><title>Node0&#45;&gt;Node3</title>
<path fill="none" stroke="orange" d="M313.016,-279.462C305.104,-266.741 296.685,-253.204 288.874,-240.644"/>
<polygon fill="orange" stroke="orange" points="310.144,-281.473 318.398,-288.117 316.089,-277.777 310.144,-281.473"/>
<text text-anchor="middle" x="340" y="-262" font-family="SegoeUI" font-size="10.00"> &lt; JpegImage &gt;</text>
</g>
<!-- Node5 -->
<g id="node6" class="node"><title>Node5</title>
<g id="a_node6"><a xlink:href="../../d3/dec/interface_juniper_1_1_imaging_1_1_i_image_processor.html" target="_top" xlink:title=" ">
<polygon fill="white" stroke="black" points="356,-139.5 356,-240.5 516,-240.5 516,-139.5 356,-139.5"/>
<text text-anchor="start" x="364" y="-228.5" font-family="SegoeUI" font-size="10.00">Juniper.Imaging.IImageProcessor</text>
<text text-anchor="middle" x="436" y="-217.5" font-family="SegoeUI" font-size="10.00">&lt; Texture2D &gt;</text>
<polyline fill="none" stroke="black" points="356,-210.5 516,-210.5 "/>
<text text-anchor="middle" x="436" y="-198.5" font-family="SegoeUI" font-size="10.00"> </text>
<polyline fill="none" stroke="black" points="356,-191.5 516,-191.5 "/>
<text text-anchor="start" x="364" y="-179.5" font-family="SegoeUI" font-size="10.00">+ GetWidth()</text>
<text text-anchor="start" x="364" y="-168.5" font-family="SegoeUI" font-size="10.00">+ GetHeight()</text>
<text text-anchor="start" x="364" y="-157.5" font-family="SegoeUI" font-size="10.00">+ GetComponents()</text>
<text text-anchor="start" x="364" y="-146.5" font-family="SegoeUI" font-size="10.00">+ Concatenate()</text>
</a>
</g>
</g>
<!-- Node0&#45;&gt;Node5 -->
<g id="edge5" class="edge"><title>Node0&#45;&gt;Node5</title>
<path fill="none" stroke="orange" d="M379.734,-279.462C387.825,-266.741 396.436,-253.204 404.425,-240.644"/>
<polygon fill="orange" stroke="orange" points="376.643,-277.8 374.23,-288.117 382.55,-281.557 376.643,-277.8"/>
<text text-anchor="middle" x="424.5" y="-262" font-family="SegoeUI" font-size="10.00"> &lt; Texture2D &gt;</text>
</g>
<!-- Node7 -->
<g id="node8" class="node"><title>Node7</title>
<g id="a_node8"><a xlink:href="../../d3/dec/interface_juniper_1_1_imaging_1_1_i_image_processor.html" target="_top" xlink:title=" ">
<polygon fill="white" stroke="black" points="534,-139.5 534,-240.5 694,-240.5 694,-139.5 534,-139.5"/>
<text text-anchor="start" x="542" y="-228.5" font-family="SegoeUI" font-size="10.00">Juniper.Imaging.IImageProcessor</text>
<text text-anchor="middle" x="614" y="-217.5" font-family="SegoeUI" font-size="10.00">&lt; ImageData &gt;</text>
<polyline fill="none" stroke="black" points="534,-210.5 694,-210.5 "/>
<text text-anchor="middle" x="614" y="-198.5" font-family="SegoeUI" font-size="10.00"> </text>
<polyline fill="none" stroke="black" points="534,-191.5 694,-191.5 "/>
<text text-anchor="start" x="542" y="-179.5" font-family="SegoeUI" font-size="10.00">+ GetWidth()</text>
<text text-anchor="start" x="542" y="-168.5" font-family="SegoeUI" font-size="10.00">+ GetHeight()</text>
<text text-anchor="start" x="542" y="-157.5" font-family="SegoeUI" font-size="10.00">+ GetComponents()</text>
<text text-anchor="start" x="542" y="-146.5" font-family="SegoeUI" font-size="10.00">+ Concatenate()</text>
</a>
</g>
</g>
<!-- Node0&#45;&gt;Node7 -->
<g id="edge7" class="edge"><title>Node0&#45;&gt;Node7</title>
<path fill="none" stroke="orange" d="M443.161,-283.71C469.801,-270.095 498.609,-255.151 525,-241 527.811,-239.492 530.667,-237.95 533.548,-236.384"/>
<polygon fill="orange" stroke="orange" points="441.533,-280.612 434.216,-288.274 444.715,-286.847 441.533,-280.612"/>
<text text-anchor="middle" x="522" y="-262" font-family="SegoeUI" font-size="10.00"> &lt; ImageData &gt;</text>
</g>
<!-- Node2 -->
<g id="node3" class="node"><title>Node2</title>
<g id="a_node3"><a xlink:href="../../d6/d31/class_juniper_1_1_imaging_1_1_hjg_pngcs_processor.html" target="_top" xlink:title=" ">
<polygon fill="white" stroke="black" points="16.5,-0.5 16.5,-101.5 143.5,-101.5 143.5,-0.5 16.5,-0.5"/>
<text text-anchor="start" x="24.5" y="-89.5" font-family="SegoeUI" font-size="10.00">Juniper.Imaging.HjgPngcs</text>
<text text-anchor="middle" x="80" y="-78.5" font-family="SegoeUI" font-size="10.00">Processor</text>
<polyline fill="none" stroke="black" points="16.5,-71.5 143.5,-71.5 "/>
<text text-anchor="middle" x="80" y="-59.5" font-family="SegoeUI" font-size="10.00"> </text>
<polyline fill="none" stroke="black" points="16.5,-52.5 143.5,-52.5 "/>
<text text-anchor="start" x="24.5" y="-40.5" font-family="SegoeUI" font-size="10.00">+ GetWidth()</text>
<text text-anchor="start" x="24.5" y="-29.5" font-family="SegoeUI" font-size="10.00">+ GetHeight()</text>
<text text-anchor="start" x="24.5" y="-18.5" font-family="SegoeUI" font-size="10.00">+ GetComponents()</text>
<text text-anchor="start" x="24.5" y="-7.5" font-family="SegoeUI" font-size="10.00">+ Concatenate()</text>
</a>
</g>
</g>
<!-- Node1&#45;&gt;Node2 -->
<g id="edge2" class="edge"><title>Node1&#45;&gt;Node2</title>
<path fill="none" stroke="midnightblue" d="M80,-128.953C80,-119.812 80,-110.466 80,-101.581"/>
<polygon fill="none" stroke="midnightblue" points="76.5001,-129.152 80,-139.152 83.5001,-129.152 76.5001,-129.152"/>
</g>
<!-- Node4 -->
<g id="node5" class="node"><title>Node4</title>
<g id="a_node5"><a xlink:href="../../de/dc8/class_juniper_1_1_imaging_1_1_lib_jpeg_n_e_t_processor.html" target="_top" xlink:title=" ">
<polygon fill="white" stroke="black" points="166.5,-6 166.5,-96 345.5,-96 345.5,-6 166.5,-6"/>
<text text-anchor="middle" x="256" y="-84" font-family="SegoeUI" font-size="10.00">Juniper.Imaging.LibJpegNETProcessor</text>
<polyline fill="none" stroke="black" points="166.5,-77 345.5,-77 "/>
<text text-anchor="middle" x="256" y="-65" font-family="SegoeUI" font-size="10.00"> </text>
<polyline fill="none" stroke="black" points="166.5,-58 345.5,-58 "/>
<text text-anchor="start" x="174.5" y="-46" font-family="SegoeUI" font-size="10.00">+ GetWidth()</text>
<text text-anchor="start" x="174.5" y="-35" font-family="SegoeUI" font-size="10.00">+ GetHeight()</text>
<text text-anchor="start" x="174.5" y="-24" font-family="SegoeUI" font-size="10.00">+ GetComponents()</text>
<text text-anchor="start" x="174.5" y="-13" font-family="SegoeUI" font-size="10.00">+ Concatenate()</text>
</a>
</g>
</g>
<!-- Node3&#45;&gt;Node4 -->
<g id="edge4" class="edge"><title>Node3&#45;&gt;Node4</title>
<path fill="none" stroke="midnightblue" d="M257.126,-129.101C256.964,-118.025 256.798,-106.645 256.644,-96.1431"/>
<polygon fill="none" stroke="midnightblue" points="253.627,-129.204 257.272,-139.152 260.626,-129.102 253.627,-129.204"/>
</g>
<!-- Node6 -->
<g id="node7" class="node"><title>Node6</title>
<g id="a_node7"><a xlink:href="../../db/d34/class_juniper_1_1_imaging_1_1_unity_texture2_d_processor.html" target="_top" xlink:title=" ">
<polygon fill="white" stroke="black" points="363.5,-0.5 363.5,-101.5 510.5,-101.5 510.5,-0.5 363.5,-0.5"/>
<text text-anchor="start" x="371.5" y="-89.5" font-family="SegoeUI" font-size="10.00">Juniper.Imaging.UnityTexture2</text>
<text text-anchor="middle" x="437" y="-78.5" font-family="SegoeUI" font-size="10.00">DProcessor</text>
<polyline fill="none" stroke="black" points="363.5,-71.5 510.5,-71.5 "/>
<text text-anchor="middle" x="437" y="-59.5" font-family="SegoeUI" font-size="10.00"> </text>
<polyline fill="none" stroke="black" points="363.5,-52.5 510.5,-52.5 "/>
<text text-anchor="start" x="371.5" y="-40.5" font-family="SegoeUI" font-size="10.00">+ GetWidth()</text>
<text text-anchor="start" x="371.5" y="-29.5" font-family="SegoeUI" font-size="10.00">+ GetHeight()</text>
<text text-anchor="start" x="371.5" y="-18.5" font-family="SegoeUI" font-size="10.00">+ GetComponents()</text>
<text text-anchor="start" x="371.5" y="-7.5" font-family="SegoeUI" font-size="10.00">+ Concatenate()</text>
</a>
</g>
</g>
<!-- Node5&#45;&gt;Node6 -->
<g id="edge6" class="edge"><title>Node5&#45;&gt;Node6</title>
<path fill="none" stroke="midnightblue" d="M436.438,-128.953C436.505,-119.812 436.573,-110.466 436.638,-101.581"/>
<polygon fill="none" stroke="midnightblue" points="432.937,-129.127 436.364,-139.152 439.937,-129.178 432.937,-129.127"/>
</g>
<!-- Node8 -->
<g id="node9" class="node"><title>Node8</title>
<g id="a_node9"><a xlink:href="../../df/d17/class_juniper_1_1_imaging_1_1_image_data_processor.html" target="_top" xlink:title=" ">
<polygon fill="white" stroke="black" points="547,-0.5 547,-101.5 681,-101.5 681,-0.5 547,-0.5"/>
<text text-anchor="start" x="555" y="-89.5" font-family="SegoeUI" font-size="10.00">Juniper.Imaging.ImageData</text>
<text text-anchor="middle" x="614" y="-78.5" font-family="SegoeUI" font-size="10.00">Processor</text>
<polyline fill="none" stroke="black" points="547,-71.5 681,-71.5 "/>
<text text-anchor="middle" x="614" y="-59.5" font-family="SegoeUI" font-size="10.00"> </text>
<polyline fill="none" stroke="black" points="547,-52.5 681,-52.5 "/>
<text text-anchor="start" x="555" y="-40.5" font-family="SegoeUI" font-size="10.00">+ Concatenate()</text>
<text text-anchor="start" x="555" y="-29.5" font-family="SegoeUI" font-size="10.00">+ GetComponents()</text>
<text text-anchor="start" x="555" y="-18.5" font-family="SegoeUI" font-size="10.00">+ GetWidth()</text>
<text text-anchor="start" x="555" y="-7.5" font-family="SegoeUI" font-size="10.00">+ GetHeight()</text>
</a>
</g>
</g>
<!-- Node7&#45;&gt;Node8 -->
<g id="edge8" class="edge"><title>Node7&#45;&gt;Node8</title>
<path fill="none" stroke="midnightblue" d="M614,-128.953C614,-119.812 614,-110.466 614,-101.581"/>
<polygon fill="none" stroke="midnightblue" points="610.5,-129.152 614,-139.152 617.5,-129.152 610.5,-129.152"/>
</g>
</g>
</svg>
