<?xml version="1.0" encoding="UTF-8" standalone="no"?>
<!DOCTYPE svg PUBLIC "-//W3C//DTD SVG 1.1//EN"
 "http://www.w3.org/Graphics/SVG/1.1/DTD/svg11.dtd">
<!-- Generated by graphviz version 2.38.0 (20140413.2041)
 -->
<!-- Title: Juniper.Unity.World.LightEstimation.AbstractLightEstimate Pages: 1 -->
<svg width="330pt" height="606pt"
 viewBox="0.00 0.00 330.00 606.00" xmlns="http://www.w3.org/2000/svg" xmlns:xlink="http://www.w3.org/1999/xlink">
<g id="graph0" class="graph" transform="scale(1 1) rotate(0) translate(4 602)">
<title>Juniper.Unity.World.LightEstimation.AbstractLightEstimate</title>
<polygon fill="white" stroke="none" points="-4,4 -4,-602 326,-602 326,4 -4,4"/>
<!-- Node0 -->
<g id="node1" class="node"><title>Node0</title>
<g id="a_node1"><a xlink:title=" ">
<polygon fill="#bfbfbf" stroke="black" points="81.5,-215.5 81.5,-481.5 237.5,-481.5 237.5,-215.5 81.5,-215.5"/>
<text text-anchor="start" x="89.5" y="-469.5" font-family="SegoeUI" font-size="10.00">Juniper.Unity.World.Light</text>
<text text-anchor="middle" x="159.5" y="-458.5" font-family="SegoeUI" font-size="10.00">Estimation.AbstractLightEstimate</text>
<polyline fill="none" stroke="black" points="81.5,-451.5 237.5,-451.5 "/>
<text text-anchor="start" x="89.5" y="-439.5" font-family="SegoeUI" font-size="10.00">+ SetAmbientLight</text>
<text text-anchor="start" x="89.5" y="-428.5" font-family="SegoeUI" font-size="10.00">+ ambientScale</text>
<text text-anchor="start" x="89.5" y="-417.5" font-family="SegoeUI" font-size="10.00">+ SetDirectionalLight</text>
<text text-anchor="start" x="89.5" y="-406.5" font-family="SegoeUI" font-size="10.00">+ directionalScale</text>
<text text-anchor="start" x="89.5" y="-395.5" font-family="SegoeUI" font-size="10.00">+ shadowScale</text>
<text text-anchor="start" x="89.5" y="-384.5" font-family="SegoeUI" font-size="10.00">+ CloudCoverScale</text>
<text text-anchor="start" x="89.5" y="-373.5" font-family="SegoeUI" font-size="10.00">+ DebugReport</text>
<text text-anchor="start" x="89.5" y="-362.5" font-family="SegoeUI" font-size="10.00">+ CloudCover</text>
<text text-anchor="start" x="89.5" y="-351.5" font-family="SegoeUI" font-size="10.00">+ HasSunRotation</text>
<text text-anchor="start" x="89.5" y="-340.5" font-family="SegoeUI" font-size="10.00">+ SunRotation</text>
<text text-anchor="start" x="89.5" y="-329.5" font-family="SegoeUI" font-size="10.00"># sun</text>
<text text-anchor="start" x="89.5" y="-318.5" font-family="SegoeUI" font-size="10.00"># measurement</text>
<text text-anchor="start" x="89.5" y="-307.5" font-family="SegoeUI" font-size="10.00"># overhead</text>
<polyline fill="none" stroke="black" points="81.5,-300.5 237.5,-300.5 "/>
<text text-anchor="start" x="89.5" y="-288.5" font-family="SegoeUI" font-size="10.00">+ Reinstall()</text>
<text text-anchor="start" x="89.5" y="-277.5" font-family="SegoeUI" font-size="10.00">+ Install()</text>
<text text-anchor="start" x="89.5" y="-266.5" font-family="SegoeUI" font-size="10.00">+ Uninstall()</text>
<text text-anchor="start" x="89.5" y="-255.5" font-family="SegoeUI" font-size="10.00"># RampIntensity()</text>
<text text-anchor="start" x="89.5" y="-244.5" font-family="SegoeUI" font-size="10.00"># Awake()</text>
<text text-anchor="start" x="89.5" y="-233.5" font-family="SegoeUI" font-size="10.00"># Update()</text>
<text text-anchor="start" x="89.5" y="-222.5" font-family="SegoeUI" font-size="10.00">&#45; PrintDebugReport()</text>
</a>
</g>
</g>
<!-- Node3 -->
<g id="node4" class="node"><title>Node3</title>
<g id="a_node4"><a xlink:href="../../d6/d01/class_juniper_1_1_unity_1_1_world_1_1_light_estimation_1_1_indoor_light_estimate.html" target="_top" xlink:title="Uses the AR subsystem&#39;s light estimation values to modify the current ambient and directional light s...">
<polygon fill="white" stroke="black" points="0,-44.5 0,-134.5 149,-134.5 149,-44.5 0,-44.5"/>
<text text-anchor="start" x="8" y="-122.5" font-family="SegoeUI" font-size="10.00">Juniper.Unity.World.Light</text>
<text text-anchor="middle" x="74.5" y="-111.5" font-family="SegoeUI" font-size="10.00">Estimation.IndoorLightEstimate</text>
<polyline fill="none" stroke="black" points="0,-104.5 149,-104.5 "/>
<text text-anchor="start" x="8" y="-92.5" font-family="SegoeUI" font-size="10.00">+ CloudCover</text>
<text text-anchor="start" x="8" y="-81.5" font-family="SegoeUI" font-size="10.00">+ HasSunRotation</text>
<text text-anchor="start" x="8" y="-70.5" font-family="SegoeUI" font-size="10.00">+ SunRotation</text>
<polyline fill="none" stroke="black" points="0,-63.5 149,-63.5 "/>
<text text-anchor="middle" x="74.5" y="-51.5" font-family="SegoeUI" font-size="10.00"> </text>
</a>
</g>
</g>
<!-- Node0&#45;&gt;Node3 -->
<g id="edge3" class="edge"><title>Node0&#45;&gt;Node3</title>
<path fill="none" stroke="midnightblue" d="M112.597,-205.689C104.049,-179.842 95.7408,-154.722 89.0762,-134.571"/>
<polygon fill="none" stroke="midnightblue" points="109.292,-206.841 115.755,-215.236 115.938,-204.643 109.292,-206.841"/>
</g>
<!-- Node4 -->
<g id="node5" class="node"><title>Node4</title>
<g id="a_node5"><a xlink:href="../../d6/da5/class_juniper_1_1_unity_1_1_world_1_1_light_estimation_1_1_outdoor_light_estimate.html" target="_top" xlink:title="Modifies the base light estimate to include cloud cover values retrieved from a weather reporting ser...">
<polygon fill="white" stroke="black" points="167,-0.5 167,-178.5 322,-178.5 322,-0.5 167,-0.5"/>
<text text-anchor="start" x="175" y="-166.5" font-family="SegoeUI" font-size="10.00">Juniper.Unity.World.Light</text>
<text text-anchor="middle" x="244.5" y="-155.5" font-family="SegoeUI" font-size="10.00">Estimation.OutdoorLightEstimate</text>
<polyline fill="none" stroke="black" points="167,-148.5 322,-148.5 "/>
<text text-anchor="start" x="175" y="-136.5" font-family="SegoeUI" font-size="10.00">+ weather</text>
<text text-anchor="start" x="175" y="-125.5" font-family="SegoeUI" font-size="10.00">+ CloudCover</text>
<text text-anchor="start" x="175" y="-114.5" font-family="SegoeUI" font-size="10.00">+ HasSunRotation</text>
<text text-anchor="start" x="175" y="-103.5" font-family="SegoeUI" font-size="10.00">+ SunRotation</text>
<text text-anchor="start" x="175" y="-92.5" font-family="SegoeUI" font-size="10.00">+ IsNight</text>
<text text-anchor="start" x="175" y="-81.5" font-family="SegoeUI" font-size="10.00">+ HasCloudCover</text>
<text text-anchor="start" x="175" y="-70.5" font-family="SegoeUI" font-size="10.00">&#45; isNight</text>
<text text-anchor="start" x="175" y="-59.5" font-family="SegoeUI" font-size="10.00">&#45; sunPosition</text>
<polyline fill="none" stroke="black" points="167,-52.5 322,-52.5 "/>
<text text-anchor="start" x="175" y="-40.5" font-family="SegoeUI" font-size="10.00">+ Install()</text>
<text text-anchor="start" x="175" y="-29.5" font-family="SegoeUI" font-size="10.00"># Awake()</text>
<text text-anchor="start" x="175" y="-18.5" font-family="SegoeUI" font-size="10.00"># Update()</text>
<text text-anchor="start" x="175" y="-7.5" font-family="SegoeUI" font-size="10.00">&#45; PrintDebugReport()</text>
</a>
</g>
</g>
<!-- Node0&#45;&gt;Node4 -->
<g id="edge4" class="edge"><title>Node0&#45;&gt;Node4</title>
<path fill="none" stroke="midnightblue" d="M206.417,-205.645C209.453,-196.467 212.458,-187.38 215.37,-178.575"/>
<polygon fill="none" stroke="midnightblue" points="203.062,-204.643 203.245,-215.236 209.708,-206.841 203.062,-204.643"/>
</g>
<!-- Node1 -->
<g id="node2" class="node"><title>Node1</title>
<g id="a_node2"><a xlink:title=" ">
<polygon fill="white" stroke="#bfbfbf" points="71.5,-529.5 71.5,-586.5 153.5,-586.5 153.5,-529.5 71.5,-529.5"/>
<text text-anchor="middle" x="112.5" y="-574.5" font-family="SegoeUI" font-size="10.00">MonoBehaviour</text>
<polyline fill="none" stroke="#bfbfbf" points="71.5,-567.5 153.5,-567.5 "/>
<text text-anchor="middle" x="112.5" y="-555.5" font-family="SegoeUI" font-size="10.00"> </text>
<polyline fill="none" stroke="#bfbfbf" points="71.5,-548.5 153.5,-548.5 "/>
<text text-anchor="middle" x="112.5" y="-536.5" font-family="SegoeUI" font-size="10.00"> </text>
</a>
</g>
</g>
<!-- Node1&#45;&gt;Node0 -->
<g id="edge1" class="edge"><title>Node1&#45;&gt;Node0</title>
<path fill="none" stroke="midnightblue" d="M120.959,-519.655C123.506,-508.412 126.459,-495.373 129.575,-481.614"/>
<polygon fill="none" stroke="midnightblue" points="117.537,-518.919 118.741,-529.446 124.364,-520.466 117.537,-518.919"/>
</g>
<!-- Node2 -->
<g id="node3" class="node"><title>Node2</title>
<g id="a_node3"><a xlink:href="../../db/d28/interface_juniper_1_1_i_installable.html" target="_top" xlink:title=" ">
<polygon fill="white" stroke="black" points="172,-518.5 172,-597.5 241,-597.5 241,-518.5 172,-518.5"/>
<text text-anchor="middle" x="206.5" y="-585.5" font-family="SegoeUI" font-size="10.00">IInstallable</text>
<polyline fill="none" stroke="black" points="172,-578.5 241,-578.5 "/>
<text text-anchor="middle" x="206.5" y="-566.5" font-family="SegoeUI" font-size="10.00"> </text>
<polyline fill="none" stroke="black" points="172,-559.5 241,-559.5 "/>
<text text-anchor="start" x="180" y="-547.5" font-family="SegoeUI" font-size="10.00">+ Install()</text>
<text text-anchor="start" x="180" y="-536.5" font-family="SegoeUI" font-size="10.00">+ Reinstall()</text>
<text text-anchor="start" x="180" y="-525.5" font-family="SegoeUI" font-size="10.00">+ Uninstall()</text>
</a>
</g>
</g>
<!-- Node2&#45;&gt;Node0 -->
<g id="edge2" class="edge"><title>Node2&#45;&gt;Node0</title>
<path fill="none" stroke="midnightblue" d="M195.542,-508.623C193.65,-500.267 191.603,-491.232 189.48,-481.86"/>
<polygon fill="none" stroke="midnightblue" points="192.147,-509.477 197.77,-518.457 198.974,-507.931 192.147,-509.477"/>
</g>
</g>
</svg>
