<?xml version="1.0" encoding="UTF-8" standalone="no"?>
<!DOCTYPE svg PUBLIC "-//W3C//DTD SVG 1.1//EN"
 "http://www.w3.org/Graphics/SVG/1.1/DTD/svg11.dtd">
<!-- Generated by graphviz version 2.38.0 (20140413.2041)
 -->
<!-- Title: Juniper.UnityEditor.ConfigurationManagement.Platforms Pages: 1 -->
<svg width="418pt" height="672pt"
 viewBox="0.00 0.00 418.00 672.00" xmlns="http://www.w3.org/2000/svg" xmlns:xlink="http://www.w3.org/1999/xlink">
<g id="graph0" class="graph" transform="scale(1 1) rotate(0) translate(4 668)">
<title>Juniper.UnityEditor.ConfigurationManagement.Platforms</title>
<polygon fill="white" stroke="none" points="-4,4 -4,-668 414,-668 414,4 -4,4"/>
<!-- Node1 -->
<g id="node1" class="node"><title>Node1</title>
<g id="a_node1"><a xlink:title=" ">
<polygon fill="#bfbfbf" stroke="black" points="186,-0.5 186,-134.5 342,-134.5 342,-0.5 186,-0.5"/>
<text text-anchor="start" x="194" y="-122.5" font-family="SegoeUI" font-size="10.00">Juniper.UnityEditor.Configuration</text>
<text text-anchor="middle" x="264" y="-111.5" font-family="SegoeUI" font-size="10.00">Management.Platforms</text>
<polyline fill="none" stroke="black" points="186,-104.5 342,-104.5 "/>
<text text-anchor="start" x="194" y="-92.5" font-family="SegoeUI" font-size="10.00">+ rawPackageDB</text>
<text text-anchor="start" x="194" y="-81.5" font-family="SegoeUI" font-size="10.00">+ PlatformDB</text>
<text text-anchor="start" x="194" y="-70.5" font-family="SegoeUI" font-size="10.00">+ AllCompilerDefines</text>
<polyline fill="none" stroke="black" points="186,-63.5 342,-63.5 "/>
<text text-anchor="start" x="194" y="-51.5" font-family="SegoeUI" font-size="10.00">+ Platforms()</text>
<text text-anchor="start" x="194" y="-40.5" font-family="SegoeUI" font-size="10.00">+ ForEachPackage&lt; T &gt;()</text>
<text text-anchor="start" x="194" y="-29.5" font-family="SegoeUI" font-size="10.00">+ GetCompilerDefines()</text>
<text text-anchor="start" x="194" y="-18.5" font-family="SegoeUI" font-size="10.00">&#45; ParsePackages()</text>
<text text-anchor="start" x="194" y="-7.5" font-family="SegoeUI" font-size="10.00">&#45; Platforms()</text>
</a>
</g>
</g>
<!-- Node2 -->
<g id="node2" class="node"><title>Node2</title>
<g id="a_node2"><a xlink:href="../../dc/dd8/class_juniper_1_1_unity_editor_1_1_configuration_management_1_1_platform_configuration.html" target="_top" xlink:title=" ">
<polygon fill="white" stroke="black" points="0,-182.5 0,-525.5 168,-525.5 168,-182.5 0,-182.5"/>
<text text-anchor="start" x="8" y="-513.5" font-family="SegoeUI" font-size="10.00">Juniper.UnityEditor.Configuration</text>
<text text-anchor="middle" x="84" y="-502.5" font-family="SegoeUI" font-size="10.00">Management.PlatformConfiguration</text>
<polyline fill="none" stroke="black" points="0,-495.5 168,-495.5 "/>
<text text-anchor="start" x="8" y="-483.5" font-family="SegoeUI" font-size="10.00">+ Name</text>
<text text-anchor="start" x="8" y="-472.5" font-family="SegoeUI" font-size="10.00">+ CompilerDefine</text>
<text text-anchor="start" x="8" y="-461.5" font-family="SegoeUI" font-size="10.00">+ buildTarget</text>
<text text-anchor="start" x="8" y="-450.5" font-family="SegoeUI" font-size="10.00">+ spatializer</text>
<text text-anchor="start" x="8" y="-439.5" font-family="SegoeUI" font-size="10.00">+ androidSdkVersion</text>
<text text-anchor="start" x="8" y="-428.5" font-family="SegoeUI" font-size="10.00">+ iOSVersion</text>
<text text-anchor="start" x="8" y="-417.5" font-family="SegoeUI" font-size="10.00">+ wsaSubtarget</text>
<text text-anchor="start" x="8" y="-406.5" font-family="SegoeUI" font-size="10.00">+ vrSystems</text>
<text text-anchor="start" x="8" y="-395.5" font-family="SegoeUI" font-size="10.00">+ packages</text>
<text text-anchor="start" x="8" y="-384.5" font-family="SegoeUI" font-size="10.00">+ BuildTarget</text>
<text text-anchor="start" x="8" y="-373.5" font-family="SegoeUI" font-size="10.00">+ TargetGroup</text>
<text text-anchor="start" x="8" y="-362.5" font-family="SegoeUI" font-size="10.00">+ IsSupported</text>
<text text-anchor="start" x="8" y="-351.5" font-family="SegoeUI" font-size="10.00">+ XRPlatforms</text>
<text text-anchor="start" x="8" y="-340.5" font-family="SegoeUI" font-size="10.00">+ UninstallableUnityPackages</text>
<text text-anchor="start" x="8" y="-329.5" font-family="SegoeUI" font-size="10.00">+ IncludedUnityPackages</text>
<text text-anchor="start" x="8" y="-318.5" font-family="SegoeUI" font-size="10.00">+ ExcludedUnityPackages</text>
<text text-anchor="start" x="8" y="-307.5" font-family="SegoeUI" font-size="10.00">+ UninstallableRawPackages</text>
<text text-anchor="start" x="8" y="-296.5" font-family="SegoeUI" font-size="10.00">+ RawPackages</text>
<text text-anchor="start" x="8" y="-285.5" font-family="SegoeUI" font-size="10.00">+ CompilerDefines</text>
<polyline fill="none" stroke="black" points="0,-278.5 168,-278.5 "/>
<text text-anchor="start" x="8" y="-266.5" font-family="SegoeUI" font-size="10.00">+ PlatformConfiguration()</text>
<text text-anchor="start" x="8" y="-255.5" font-family="SegoeUI" font-size="10.00">+ SwitchTarget()</text>
<text text-anchor="start" x="8" y="-244.5" font-family="SegoeUI" font-size="10.00">+ InstallUnityPackages()</text>
<text text-anchor="start" x="8" y="-233.5" font-family="SegoeUI" font-size="10.00">+ InstallRawPackages()</text>
<text text-anchor="start" x="8" y="-222.5" font-family="SegoeUI" font-size="10.00">+ Activate()</text>
<text text-anchor="start" x="8" y="-211.5" font-family="SegoeUI" font-size="10.00">+ UninstallRawPackages()</text>
<text text-anchor="start" x="8" y="-200.5" font-family="SegoeUI" font-size="10.00">+ UninstallUnityPackages()</text>
<text text-anchor="start" x="8" y="-189.5" font-family="SegoeUI" font-size="10.00">&#45; Deactivate()</text>
</a>
</g>
</g>
<!-- Node2&#45;&gt;Node1 -->
<g id="edge1" class="edge"><title>Node2&#45;&gt;Node1</title>
<path fill="none" stroke="#404040" d="M168.219,-195.896C171.136,-191.184 174.066,-186.542 177,-182 185.779,-168.411 189.179,-165.856 199,-153 201.107,-150.242 203.253,-147.435 205.423,-144.601"/>
<polygon fill="none" stroke="#404040" points="205.565,-144.416 206.039,-137.221 212.863,-134.891 212.389,-142.086 205.565,-144.416"/>
<text text-anchor="middle" x="229.5" y="-156" font-family="SegoeUI" font-size="10.00"> +AllPlatforms</text>
</g>
<!-- Node3 -->
<g id="node3" class="node"><title>Node3</title>
<g id="a_node3"><a xlink:href="../../d8/ddc/class_juniper_1_1_unity_editor_1_1_configuration_management_1_1_raw_package.html" target="_top" xlink:title=" ">
<polygon fill="white" stroke="black" points="186,-303.5 186,-404.5 342,-404.5 342,-303.5 186,-303.5"/>
<text text-anchor="start" x="194" y="-392.5" font-family="SegoeUI" font-size="10.00">Juniper.UnityEditor.Configuration</text>
<text text-anchor="middle" x="264" y="-381.5" font-family="SegoeUI" font-size="10.00">Management.RawPackage</text>
<polyline fill="none" stroke="black" points="186,-374.5 342,-374.5 "/>
<text text-anchor="start" x="194" y="-362.5" font-family="SegoeUI" font-size="10.00">+ InputZipFileName</text>
<polyline fill="none" stroke="black" points="186,-355.5 342,-355.5 "/>
<text text-anchor="start" x="194" y="-343.5" font-family="SegoeUI" font-size="10.00">+ Install()</text>
<text text-anchor="start" x="194" y="-332.5" font-family="SegoeUI" font-size="10.00">+ Activate()</text>
<text text-anchor="start" x="194" y="-321.5" font-family="SegoeUI" font-size="10.00">+ Uninstall()</text>
<text text-anchor="start" x="194" y="-310.5" font-family="SegoeUI" font-size="10.00">&#45; DeleteAll()</text>
</a>
</g>
</g>
<!-- Node3&#45;&gt;Node1 -->
<g id="edge2" class="edge"><title>Node3&#45;&gt;Node1</title>
<path fill="none" stroke="#404040" d="M264,-303.444C264,-260.204 264,-196.725 264,-146.647"/>
<polygon fill="none" stroke="#404040" points="264,-146.552 260,-140.552 264,-134.552 268,-140.552 264,-146.552"/>
<text text-anchor="middle" x="303" y="-156" font-family="SegoeUI" font-size="10.00"> +allRawPackages</text>
</g>
<!-- Node4 -->
<g id="node4" class="node"><title>Node4</title>
<g id="a_node4"><a xlink:href="../../d6/db2/class_juniper_1_1_unity_editor_1_1_configuration_management_1_1_abstract_package.html" target="_top" xlink:title=" ">
<polygon fill="white" stroke="black" points="193.5,-573.5 193.5,-663.5 284.5,-663.5 284.5,-573.5 193.5,-573.5"/>
<text text-anchor="middle" x="239" y="-651.5" font-family="SegoeUI" font-size="10.00">AbstractPackage</text>
<polyline fill="none" stroke="black" points="193.5,-644.5 284.5,-644.5 "/>
<text text-anchor="start" x="201.5" y="-632.5" font-family="SegoeUI" font-size="10.00">+ Name</text>
<text text-anchor="start" x="201.5" y="-621.5" font-family="SegoeUI" font-size="10.00">+ CompilerDefine</text>
<polyline fill="none" stroke="black" points="193.5,-614.5 284.5,-614.5 "/>
<text text-anchor="start" x="201.5" y="-602.5" font-family="SegoeUI" font-size="10.00">+ Install()</text>
<text text-anchor="start" x="201.5" y="-591.5" font-family="SegoeUI" font-size="10.00">+ Activate()</text>
<text text-anchor="start" x="201.5" y="-580.5" font-family="SegoeUI" font-size="10.00">+ Uninstall()</text>
</a>
</g>
</g>
<!-- Node4&#45;&gt;Node3 -->
<g id="edge3" class="edge"><title>Node4&#45;&gt;Node3</title>
<path fill="none" stroke="midnightblue" d="M244.185,-563.058C248.621,-516.477 254.954,-449.981 259.258,-404.792"/>
<polygon fill="none" stroke="midnightblue" points="240.677,-562.98 243.213,-573.267 247.645,-563.644 240.677,-562.98"/>
</g>
<!-- Node5 -->
<g id="node5" class="node"><title>Node5</title>
<g id="a_node5"><a xlink:title=" ">
<polygon fill="white" stroke="#bfbfbf" points="330.5,-590 330.5,-647 369.5,-647 369.5,-590 330.5,-590"/>
<text text-anchor="middle" x="350" y="-635" font-family="SegoeUI" font-size="10.00">static</text>
<polyline fill="none" stroke="#bfbfbf" points="330.5,-628 369.5,-628 "/>
<text text-anchor="middle" x="350" y="-616" font-family="SegoeUI" font-size="10.00"> </text>
<polyline fill="none" stroke="#bfbfbf" points="330.5,-609 369.5,-609 "/>
<text text-anchor="middle" x="350" y="-597" font-family="SegoeUI" font-size="10.00"> </text>
</a>
</g>
</g>
<!-- Node5&#45;&gt;Node1 -->
<g id="edge5" class="edge"><title>Node5&#45;&gt;Node1</title>
<path fill="none" stroke="#404040" d="M357.601,-589.72C360.179,-578.964 362.728,-566.494 364,-555 364.538,-550.141 364.088,-548.888 364,-544 361.111,-383.033 367.603,-342.134 351,-182 349.651,-168.991 351.93,-164.658 346,-153 344.601,-150.25 343.082,-147.53 341.462,-144.847"/>
<polygon fill="none" stroke="#404040" points="341.367,-144.704 334.723,-141.903 334.752,-134.692 341.397,-137.493 341.367,-144.704"/>
<text text-anchor="middle" x="387" y="-351.5" font-family="SegoeUI" font-size="10.00"> +Instance</text>
</g>
<!-- Node5&#45;&gt;Node3 -->
<g id="edge4" class="edge"><title>Node5&#45;&gt;Node3</title>
<path fill="none" stroke="#404040" d="M330.327,-602.185C308.062,-584.756 274.647,-558.267 273,-555 251.542,-512.437 250.491,-458.082 254.141,-416.782"/>
<polygon fill="none" stroke="#404040" points="254.157,-416.623 250.787,-410.248 255.376,-404.685 258.746,-411.06 254.157,-416.623"/>
<text text-anchor="middle" x="318.5" y="-547" font-family="SegoeUI" font-size="10.00"> +ROOT_DIRECTORY</text>
</g>
</g>
</svg>
