<?xml version="1.0" encoding="UTF-8" standalone="no"?>
<!DOCTYPE svg PUBLIC "-//W3C//DTD SVG 1.1//EN"
 "http://www.w3.org/Graphics/SVG/1.1/DTD/svg11.dtd">
<!-- Generated by graphviz version 2.38.0 (20140413.2041)
 -->
<!-- Title: Juniper.Unity.StageExtensions Pages: 1 -->
<svg width="178pt" height="358pt"
 viewBox="0.00 0.00 177.50 358.00" xmlns="http://www.w3.org/2000/svg" xmlns:xlink="http://www.w3.org/1999/xlink">
<g id="graph0" class="graph" transform="scale(1 1) rotate(0) translate(4 354)">
<title>Juniper.Unity.StageExtensions</title>
<polygon fill="white" stroke="none" points="-4,4 -4,-354 173.5,-354 173.5,4 -4,4"/>
<!-- Node0 -->
<g id="node1" class="node"><title>Node0</title>
<g id="a_node1"><a xlink:title=" ">
<polygon fill="#bfbfbf" stroke="black" points="16,-0.5 16,-233.5 160,-233.5 160,-0.5 16,-0.5"/>
<text text-anchor="middle" x="88" y="-221.5" font-family="SegoeUI" font-size="10.00">Juniper.Unity.StageExtensions</text>
<polyline fill="none" stroke="black" points="16,-214.5 160,-214.5 "/>
<text text-anchor="start" x="24" y="-202.5" font-family="SegoeUI" font-size="10.00">+ defaultAvatarHeight</text>
<text text-anchor="start" x="24" y="-191.5" font-family="SegoeUI" font-size="10.00">+ usePhysicsBasedMovement</text>
<text text-anchor="start" x="24" y="-180.5" font-family="SegoeUI" font-size="10.00">+ shoes</text>
<text text-anchor="start" x="24" y="-169.5" font-family="SegoeUI" font-size="10.00">+ BodyPhysics</text>
<text text-anchor="start" x="24" y="-158.5" font-family="SegoeUI" font-size="10.00">+ useGravity</text>
<text text-anchor="start" x="24" y="-147.5" font-family="SegoeUI" font-size="10.00">+ Head</text>
<text text-anchor="start" x="24" y="-136.5" font-family="SegoeUI" font-size="10.00">+ Hands</text>
<text text-anchor="start" x="24" y="-125.5" font-family="SegoeUI" font-size="10.00">+ Body</text>
<text text-anchor="start" x="24" y="-114.5" font-family="SegoeUI" font-size="10.00">&#45; BodyShape</text>
<text text-anchor="start" x="24" y="-103.5" font-family="SegoeUI" font-size="10.00">&#45; velocity</text>
<polyline fill="none" stroke="black" points="16,-96.5 160,-96.5 "/>
<text text-anchor="start" x="24" y="-84.5" font-family="SegoeUI" font-size="10.00">+ Awake()</text>
<text text-anchor="start" x="24" y="-73.5" font-family="SegoeUI" font-size="10.00">+ Reinstall()</text>
<text text-anchor="start" x="24" y="-62.5" font-family="SegoeUI" font-size="10.00">+ Install()</text>
<text text-anchor="start" x="24" y="-51.5" font-family="SegoeUI" font-size="10.00">+ Uninstall()</text>
<text text-anchor="start" x="24" y="-40.5" font-family="SegoeUI" font-size="10.00">+ RotateView()</text>
<text text-anchor="start" x="24" y="-29.5" font-family="SegoeUI" font-size="10.00">+ SetVelocity()</text>
<text text-anchor="start" x="24" y="-18.5" font-family="SegoeUI" font-size="10.00">+ FixedUpdate()</text>
<text text-anchor="start" x="24" y="-7.5" font-family="SegoeUI" font-size="10.00">&#45; MakeShadowCaster()</text>
</a>
</g>
</g>
<!-- Node1 -->
<g id="node2" class="node"><title>Node1</title>
<g id="a_node2"><a xlink:title=" ">
<polygon fill="white" stroke="#bfbfbf" points="0,-281.5 0,-338.5 82,-338.5 82,-281.5 0,-281.5"/>
<text text-anchor="middle" x="41" y="-326.5" font-family="SegoeUI" font-size="10.00">MonoBehaviour</text>
<polyline fill="none" stroke="#bfbfbf" points="0,-319.5 82,-319.5 "/>
<text text-anchor="middle" x="41" y="-307.5" font-family="SegoeUI" font-size="10.00"> </text>
<polyline fill="none" stroke="#bfbfbf" points="0,-300.5 82,-300.5 "/>
<text text-anchor="middle" x="41" y="-288.5" font-family="SegoeUI" font-size="10.00"> </text>
</a>
</g>
</g>
<!-- Node1&#45;&gt;Node0 -->
<g id="edge1" class="edge"><title>Node1&#45;&gt;Node0</title>
<path fill="none" stroke="midnightblue" d="M50.2425,-271.44C53.0028,-260.223 56.1851,-247.29 59.5069,-233.791"/>
<polygon fill="none" stroke="midnightblue" points="46.8251,-270.68 47.8342,-281.227 53.6223,-272.353 46.8251,-270.68"/>
</g>
<!-- Node2 -->
<g id="node3" class="node"><title>Node2</title>
<g id="a_node3"><a xlink:href="../../db/d28/interface_juniper_1_1_i_installable.html" target="_top" xlink:title="Defines an interface for objects that can be installed and have their installation progress tracked.">
<polygon fill="white" stroke="black" points="100.5,-270.5 100.5,-349.5 169.5,-349.5 169.5,-270.5 100.5,-270.5"/>
<text text-anchor="middle" x="135" y="-337.5" font-family="SegoeUI" font-size="10.00">IInstallable</text>
<polyline fill="none" stroke="black" points="100.5,-330.5 169.5,-330.5 "/>
<text text-anchor="middle" x="135" y="-318.5" font-family="SegoeUI" font-size="10.00"> </text>
<polyline fill="none" stroke="black" points="100.5,-311.5 169.5,-311.5 "/>
<text text-anchor="start" x="108.5" y="-299.5" font-family="SegoeUI" font-size="10.00">+ Install()</text>
<text text-anchor="start" x="108.5" y="-288.5" font-family="SegoeUI" font-size="10.00">+ Reinstall()</text>
<text text-anchor="start" x="108.5" y="-277.5" font-family="SegoeUI" font-size="10.00">+ Uninstall()</text>
</a>
</g>
</g>
<!-- Node2&#45;&gt;Node0 -->
<g id="edge2" class="edge"><title>Node2&#45;&gt;Node0</title>
<path fill="none" stroke="midnightblue" d="M123.048,-260.429C120.977,-252.013 118.747,-242.95 116.451,-233.619"/>
<polygon fill="none" stroke="midnightblue" points="119.701,-261.474 125.489,-270.348 126.498,-259.802 119.701,-261.474"/>
</g>
</g>
</svg>
