<?xml version="1.0" encoding="UTF-8" standalone="no"?>
<!DOCTYPE svg PUBLIC "-//W3C//DTD SVG 1.1//EN"
 "http://www.w3.org/Graphics/SVG/1.1/DTD/svg11.dtd">
<!-- Generated by graphviz version 2.38.0 (20140413.2041)
 -->
<!-- Title: Juniper.Unity.Animation.Tween Pages: 1 -->
<svg width="128pt" height="237pt"
 viewBox="0.00 0.00 128.00 237.00" xmlns="http://www.w3.org/2000/svg" xmlns:xlink="http://www.w3.org/1999/xlink">
<g id="graph0" class="graph" transform="scale(1 1) rotate(0) translate(4 233)">
<title>Juniper.Unity.Animation.Tween</title>
<polygon fill="white" stroke="none" points="-4,4 -4,-233 124,-233 124,4 -4,4"/>
<!-- Node1 -->
<g id="node1" class="node"><title>Node1</title>
<g id="a_node1"><a xlink:title="Implementations for each of the values in TweenType. /// All functions receive a value p,...">
<polygon fill="#bfbfbf" stroke="black" points="0,-0.5 0,-123.5 120,-123.5 120,-0.5 0,-0.5"/>
<text text-anchor="start" x="8" y="-111.5" font-family="SegoeUI" font-size="10.00">Juniper.Unity.Animation.</text>
<text text-anchor="middle" x="60" y="-100.5" font-family="SegoeUI" font-size="10.00">Tween</text>
<polyline fill="none" stroke="black" points="0,-93.5 120,-93.5 "/>
<text text-anchor="middle" x="60" y="-81.5" font-family="SegoeUI" font-size="10.00"> </text>
<polyline fill="none" stroke="black" points="0,-74.5 120,-74.5 "/>
<text text-anchor="start" x="8" y="-62.5" font-family="SegoeUI" font-size="10.00">+ Linear()</text>
<text text-anchor="start" x="8" y="-51.5" font-family="SegoeUI" font-size="10.00">+ Quadratic()</text>
<text text-anchor="start" x="8" y="-40.5" font-family="SegoeUI" font-size="10.00">+ Cubic()</text>
<text text-anchor="start" x="8" y="-29.5" font-family="SegoeUI" font-size="10.00">+ Sine()</text>
<text text-anchor="start" x="8" y="-18.5" font-family="SegoeUI" font-size="10.00">+ Bump()</text>
<text text-anchor="start" x="8" y="-7.5" font-family="SegoeUI" font-size="10.00">+ PingPong()</text>
</a>
</g>
</g>
<!-- Node2 -->
<g id="node2" class="node"><title>Node2</title>
<g id="a_node2"><a xlink:title=" ">
<polygon fill="white" stroke="#bfbfbf" points="40.5,-171.5 40.5,-228.5 79.5,-228.5 79.5,-171.5 40.5,-171.5"/>
<text text-anchor="middle" x="60" y="-216.5" font-family="SegoeUI" font-size="10.00">static</text>
<polyline fill="none" stroke="#bfbfbf" points="40.5,-209.5 79.5,-209.5 "/>
<text text-anchor="middle" x="60" y="-197.5" font-family="SegoeUI" font-size="10.00"> </text>
<polyline fill="none" stroke="#bfbfbf" points="40.5,-190.5 79.5,-190.5 "/>
<text text-anchor="middle" x="60" y="-178.5" font-family="SegoeUI" font-size="10.00"> </text>
</a>
</g>
</g>
<!-- Node2&#45;&gt;Node1 -->
<g id="edge1" class="edge"><title>Node2&#45;&gt;Node1</title>
<path fill="none" stroke="#404040" d="M60,-171.478C60,-161.009 60,-148.526 60,-135.818"/>
<polygon fill="none" stroke="#404040" points="60.0001,-135.623 56,-129.623 60,-123.623 64,-129.623 60.0001,-135.623"/>
<text text-anchor="middle" x="85" y="-145" font-family="SegoeUI" font-size="10.00"> +Functions</text>
</g>
</g>
</svg>
