<?xml version="1.0" encoding="UTF-8" standalone="no"?>
<!DOCTYPE svg PUBLIC "-//W3C//DTD SVG 1.1//EN"
 "http://www.w3.org/Graphics/SVG/1.1/DTD/svg11.dtd">
<!-- Generated by graphviz version 2.38.0 (20140413.2041)
 -->
<!-- Title: Juniper.Input.Pointers.Motion.IMotionController Pages: 1 -->
<svg width="157pt" height="667pt"
 viewBox="0.00 0.00 157.00 667.00" xmlns="http://www.w3.org/2000/svg" xmlns:xlink="http://www.w3.org/1999/xlink">
<g id="graph0" class="graph" transform="scale(1 1) rotate(0) translate(4 663)">
<title>Juniper.Input.Pointers.Motion.IMotionController</title>
<polygon fill="white" stroke="none" points="-4,4 -4,-663 153,-663 153,4 -4,4"/>
<!-- Node12 -->
<g id="node1" class="node"><title>Node12</title>
<g id="a_node1"><a xlink:title=" ">
<polygon fill="#bfbfbf" stroke="black" points="2.5,-0.5 2.5,-90.5 146.5,-90.5 146.5,-0.5 2.5,-0.5"/>
<text text-anchor="start" x="10.5" y="-78.5" font-family="SegoeUI" font-size="10.00">Juniper.Input.Pointers.Motion.</text>
<text text-anchor="middle" x="74.5" y="-67.5" font-family="SegoeUI" font-size="10.00">IMotionController</text>
<polyline fill="none" stroke="black" points="2.5,-60.5 146.5,-60.5 "/>
<text text-anchor="start" x="10.5" y="-48.5" font-family="SegoeUI" font-size="10.00">+ Trigger</text>
<text text-anchor="start" x="10.5" y="-37.5" font-family="SegoeUI" font-size="10.00">+ RoundTouchPoint</text>
<text text-anchor="start" x="10.5" y="-26.5" font-family="SegoeUI" font-size="10.00">+ SquareTouchPoint</text>
<polyline fill="none" stroke="black" points="2.5,-19.5 146.5,-19.5 "/>
<text text-anchor="middle" x="74.5" y="-7.5" font-family="SegoeUI" font-size="10.00"> </text>
</a>
</g>
</g>
<!-- Node13 -->
<g id="node2" class="node"><title>Node13</title>
<g id="a_node2"><a xlink:href="../../dc/d0e/interface_juniper_1_1_input_1_1_pointers_1_1_motion_1_1_i_handed_pointer.html" target="_top" xlink:title=" ">
<polygon fill="white" stroke="black" points="18.5,-127.5 18.5,-228.5 130.5,-228.5 130.5,-127.5 18.5,-127.5"/>
<text text-anchor="middle" x="74.5" y="-216.5" font-family="SegoeUI" font-size="10.00">IHandedPointer</text>
<polyline fill="none" stroke="black" points="18.5,-209.5 130.5,-209.5 "/>
<text text-anchor="start" x="26.5" y="-197.5" font-family="SegoeUI" font-size="10.00">+ Hand</text>
<text text-anchor="start" x="26.5" y="-186.5" font-family="SegoeUI" font-size="10.00">+ IsDominantHand</text>
<text text-anchor="start" x="26.5" y="-175.5" font-family="SegoeUI" font-size="10.00">+ IsLeftHand</text>
<text text-anchor="start" x="26.5" y="-164.5" font-family="SegoeUI" font-size="10.00">+ IsNonDominantHand</text>
<text text-anchor="start" x="26.5" y="-153.5" font-family="SegoeUI" font-size="10.00">+ IsRightHand</text>
<polyline fill="none" stroke="black" points="18.5,-146.5 130.5,-146.5 "/>
<text text-anchor="middle" x="74.5" y="-134.5" font-family="SegoeUI" font-size="10.00"> </text>
</a>
</g>
</g>
<!-- Node13&#45;&gt;Node12 -->
<g id="edge1" class="edge"><title>Node13&#45;&gt;Node12</title>
<path fill="none" stroke="midnightblue" d="M74.5,-117.232C74.5,-108.236 74.5,-99.1012 74.5,-90.5165"/>
<polygon fill="none" stroke="midnightblue" points="71.0001,-117.291 74.5,-127.291 78.0001,-117.291 71.0001,-117.291"/>
</g>
<!-- Node14 -->
<g id="node3" class="node"><title>Node14</title>
<g id="a_node3"><a xlink:href="../../d0/da1/interface_juniper_1_1_input_1_1_pointers_1_1_i_pointer_device.html" target="_top" xlink:title=" ">
<polygon fill="white" stroke="black" points="12.5,-265.5 12.5,-542.5 136.5,-542.5 136.5,-265.5 12.5,-265.5"/>
<text text-anchor="middle" x="74.5" y="-530.5" font-family="SegoeUI" font-size="10.00">IPointerDevice</text>
<polyline fill="none" stroke="black" points="12.5,-523.5 136.5,-523.5 "/>
<text text-anchor="start" x="20.5" y="-511.5" font-family="SegoeUI" font-size="10.00">+ transform</text>
<text text-anchor="start" x="20.5" y="-500.5" font-family="SegoeUI" font-size="10.00">+ EventTarget</text>
<text text-anchor="start" x="20.5" y="-489.5" font-family="SegoeUI" font-size="10.00">+ InputModule</text>
<text text-anchor="start" x="20.5" y="-478.5" font-family="SegoeUI" font-size="10.00">+ PointerDataID</text>
<text text-anchor="start" x="20.5" y="-467.5" font-family="SegoeUI" font-size="10.00">+ ProbeName</text>
<text text-anchor="start" x="20.5" y="-456.5" font-family="SegoeUI" font-size="10.00">+ Probe</text>
<text text-anchor="start" x="20.5" y="-445.5" font-family="SegoeUI" font-size="10.00">+ ButtonType</text>
<text text-anchor="start" x="20.5" y="-434.5" font-family="SegoeUI" font-size="10.00">+ isActiveAndEnabled</text>
<text text-anchor="start" x="20.5" y="-423.5" font-family="SegoeUI" font-size="10.00">+ IsConnected</text>
<text text-anchor="start" x="20.5" y="-412.5" font-family="SegoeUI" font-size="10.00">+ ProcessInUpdate</text>
<text text-anchor="start" x="20.5" y="-401.5" font-family="SegoeUI" font-size="10.00">and 26 more...</text>
<polyline fill="none" stroke="black" points="12.5,-394.5 136.5,-394.5 "/>
<text text-anchor="start" x="20.5" y="-382.5" font-family="SegoeUI" font-size="10.00">+ OnProbeFound()</text>
<text text-anchor="start" x="20.5" y="-371.5" font-family="SegoeUI" font-size="10.00">+ ViewportFromWorld()</text>
<text text-anchor="start" x="20.5" y="-360.5" font-family="SegoeUI" font-size="10.00">+ ViewportFromScreen()</text>
<text text-anchor="start" x="20.5" y="-349.5" font-family="SegoeUI" font-size="10.00">+ ScreenFromWorld()</text>
<text text-anchor="start" x="20.5" y="-338.5" font-family="SegoeUI" font-size="10.00">+ ScreenFromViewport()</text>
<text text-anchor="start" x="20.5" y="-327.5" font-family="SegoeUI" font-size="10.00">+ WorldFromScreen()</text>
<text text-anchor="start" x="20.5" y="-316.5" font-family="SegoeUI" font-size="10.00">+ WorldFromViewport()</text>
<text text-anchor="start" x="20.5" y="-305.5" font-family="SegoeUI" font-size="10.00">+ IsButtonDown()</text>
<text text-anchor="start" x="20.5" y="-294.5" font-family="SegoeUI" font-size="10.00">+ IsButtonPressed()</text>
<text text-anchor="start" x="20.5" y="-283.5" font-family="SegoeUI" font-size="10.00">+ IsButtonUp()</text>
<text text-anchor="start" x="20.5" y="-272.5" font-family="SegoeUI" font-size="10.00">and 7 more...</text>
</a>
</g>
</g>
<!-- Node14&#45;&gt;Node13 -->
<g id="edge2" class="edge"><title>Node14&#45;&gt;Node13</title>
<path fill="none" stroke="midnightblue" d="M74.5,-255.18C74.5,-245.987 74.5,-237.154 74.5,-228.966"/>
<polygon fill="none" stroke="midnightblue" points="71.0001,-255.284 74.5,-265.284 78.0001,-255.284 71.0001,-255.284"/>
</g>
<!-- Node15 -->
<g id="node4" class="node"><title>Node15</title>
<g id="a_node4"><a xlink:href="../../d5/d9e/interface_juniper_1_1_input_1_1_pointers_1_1_i_laser_pointer.html" target="_top" xlink:title=" ">
<polygon fill="white" stroke="black" points="0,-579.5 0,-658.5 149,-658.5 149,-579.5 0,-579.5"/>
<text text-anchor="middle" x="74.5" y="-646.5" font-family="SegoeUI" font-size="10.00">ILaserPointer</text>
<polyline fill="none" stroke="black" points="0,-639.5 149,-639.5 "/>
<text text-anchor="start" x="8" y="-627.5" font-family="SegoeUI" font-size="10.00">+ LaserPointerNormalMaterial</text>
<text text-anchor="start" x="8" y="-616.5" font-family="SegoeUI" font-size="10.00">+ LaserPointerEnabledMaterial</text>
<text text-anchor="start" x="8" y="-605.5" font-family="SegoeUI" font-size="10.00">+ LaserPointerDisabledMaterial</text>
<polyline fill="none" stroke="black" points="0,-598.5 149,-598.5 "/>
<text text-anchor="middle" x="74.5" y="-586.5" font-family="SegoeUI" font-size="10.00"> </text>
</a>
</g>
</g>
<!-- Node15&#45;&gt;Node14 -->
<g id="edge3" class="edge"><title>Node15&#45;&gt;Node14</title>
<path fill="none" stroke="midnightblue" d="M74.5,-569.304C74.5,-561.009 74.5,-552.043 74.5,-542.727"/>
<polygon fill="none" stroke="midnightblue" points="71.0001,-569.427 74.5,-579.427 78.0001,-569.427 71.0001,-569.427"/>
</g>
</g>
</svg>
