<?xml version="1.0" encoding="UTF-8" standalone="no"?>
<!DOCTYPE svg PUBLIC "-//W3C//DTD SVG 1.1//EN"
 "http://www.w3.org/Graphics/SVG/1.1/DTD/svg11.dtd">
<!-- Generated by graphviz version 2.38.0 (20140413.2041)
 -->
<!-- Title: Juniper.Unity.Widgets.ValueDragger Pages: 1 -->
<svg width="328pt" height="325pt"
 viewBox="0.00 0.00 328.00 325.00" xmlns="http://www.w3.org/2000/svg" xmlns:xlink="http://www.w3.org/1999/xlink">
<g id="graph0" class="graph" transform="scale(1 1) rotate(0) translate(4 321)">
<title>Juniper.Unity.Widgets.ValueDragger</title>
<polygon fill="white" stroke="none" points="-4,4 -4,-321 324,-321 324,4 -4,4"/>
<!-- Node0 -->
<g id="node1" class="node"><title>Node0</title>
<g id="a_node1"><a xlink:title=" ">
<polygon fill="#bfbfbf" stroke="black" points="86,-0.5 86,-222.5 222,-222.5 222,-0.5 86,-0.5"/>
<text text-anchor="start" x="94" y="-210.5" font-family="SegoeUI" font-size="10.00">Juniper.Unity.Widgets.Value</text>
<text text-anchor="middle" x="154" y="-199.5" font-family="SegoeUI" font-size="10.00">Dragger</text>
<polyline fill="none" stroke="black" points="86,-192.5 222,-192.5 "/>
<text text-anchor="start" x="94" y="-180.5" font-family="SegoeUI" font-size="10.00">+ field</text>
<text text-anchor="start" x="94" y="-169.5" font-family="SegoeUI" font-size="10.00">+ min</text>
<text text-anchor="start" x="94" y="-158.5" font-family="SegoeUI" font-size="10.00">+ max</text>
<text text-anchor="start" x="94" y="-147.5" font-family="SegoeUI" font-size="10.00">+ delta</text>
<text text-anchor="start" x="94" y="-136.5" font-family="SegoeUI" font-size="10.00">+ onValueChanged</text>
<text text-anchor="start" x="94" y="-125.5" font-family="SegoeUI" font-size="10.00">&#45; start</text>
<text text-anchor="start" x="94" y="-114.5" font-family="SegoeUI" font-size="10.00">&#45; drag</text>
<text text-anchor="start" x="94" y="-103.5" font-family="SegoeUI" font-size="10.00">&#45; locked</text>
<text text-anchor="start" x="94" y="-92.5" font-family="SegoeUI" font-size="10.00">&#45; wasLocked</text>
<text text-anchor="start" x="94" y="-81.5" font-family="SegoeUI" font-size="10.00">&#45; lastText</text>
<polyline fill="none" stroke="black" points="86,-74.5 222,-74.5 "/>
<text text-anchor="start" x="94" y="-62.5" font-family="SegoeUI" font-size="10.00">+ Awake()</text>
<text text-anchor="start" x="94" y="-51.5" font-family="SegoeUI" font-size="10.00">+ OnTextChanged()</text>
<text text-anchor="start" x="94" y="-40.5" font-family="SegoeUI" font-size="10.00">+ OnPointerDown()</text>
<text text-anchor="start" x="94" y="-29.5" font-family="SegoeUI" font-size="10.00">+ OnPointerUp()</text>
<text text-anchor="start" x="94" y="-18.5" font-family="SegoeUI" font-size="10.00">+ Update()</text>
<text text-anchor="start" x="94" y="-7.5" font-family="SegoeUI" font-size="10.00">&#45; ChangeValue()</text>
</a>
</g>
</g>
<!-- Node1 -->
<g id="node2" class="node"><title>Node1</title>
<g id="a_node2"><a xlink:title=" ">
<polygon fill="white" stroke="#bfbfbf" points="0,-259.5 0,-316.5 82,-316.5 82,-259.5 0,-259.5"/>
<text text-anchor="middle" x="41" y="-304.5" font-family="SegoeUI" font-size="10.00">MonoBehaviour</text>
<polyline fill="none" stroke="#bfbfbf" points="0,-297.5 82,-297.5 "/>
<text text-anchor="middle" x="41" y="-285.5" font-family="SegoeUI" font-size="10.00"> </text>
<polyline fill="none" stroke="#bfbfbf" points="0,-278.5 82,-278.5 "/>
<text text-anchor="middle" x="41" y="-266.5" font-family="SegoeUI" font-size="10.00"> </text>
</a>
</g>
</g>
<!-- Node1&#45;&gt;Node0 -->
<g id="edge1" class="edge"><title>Node1&#45;&gt;Node0</title>
<path fill="none" stroke="midnightblue" d="M64.3714,-250.909C70.8742,-240.867 78.2821,-229.427 85.9885,-217.527"/>
<polygon fill="none" stroke="midnightblue" points="61.4029,-249.054 58.9052,-259.35 67.2786,-252.859 61.4029,-249.054"/>
</g>
<!-- Node2 -->
<g id="node3" class="node"><title>Node2</title>
<g id="a_node3"><a xlink:title=" ">
<polygon fill="white" stroke="#bfbfbf" points="100.5,-259.5 100.5,-316.5 207.5,-316.5 207.5,-259.5 100.5,-259.5"/>
<text text-anchor="middle" x="154" y="-304.5" font-family="SegoeUI" font-size="10.00">IPointerDownHandler</text>
<polyline fill="none" stroke="#bfbfbf" points="100.5,-297.5 207.5,-297.5 "/>
<text text-anchor="middle" x="154" y="-285.5" font-family="SegoeUI" font-size="10.00"> </text>
<polyline fill="none" stroke="#bfbfbf" points="100.5,-278.5 207.5,-278.5 "/>
<text text-anchor="middle" x="154" y="-266.5" font-family="SegoeUI" font-size="10.00"> </text>
</a>
</g>
</g>
<!-- Node2&#45;&gt;Node0 -->
<g id="edge2" class="edge"><title>Node2&#45;&gt;Node0</title>
<path fill="none" stroke="midnightblue" d="M154,-249.203C154,-241.081 154,-232.104 154,-222.748"/>
<polygon fill="none" stroke="midnightblue" points="150.5,-249.35 154,-259.35 157.5,-249.35 150.5,-249.35"/>
</g>
<!-- Node3 -->
<g id="node4" class="node"><title>Node3</title>
<g id="a_node4"><a xlink:title=" ">
<polygon fill="white" stroke="#bfbfbf" points="226,-259.5 226,-316.5 320,-316.5 320,-259.5 226,-259.5"/>
<text text-anchor="middle" x="273" y="-304.5" font-family="SegoeUI" font-size="10.00">IPointerUpHandler</text>
<polyline fill="none" stroke="#bfbfbf" points="226,-297.5 320,-297.5 "/>
<text text-anchor="middle" x="273" y="-285.5" font-family="SegoeUI" font-size="10.00"> </text>
<polyline fill="none" stroke="#bfbfbf" points="226,-278.5 320,-278.5 "/>
<text text-anchor="middle" x="273" y="-266.5" font-family="SegoeUI" font-size="10.00"> </text>
</a>
</g>
</g>
<!-- Node3&#45;&gt;Node0 -->
<g id="edge3" class="edge"><title>Node3&#45;&gt;Node0</title>
<path fill="none" stroke="midnightblue" d="M248.396,-250.921C240.538,-239.399 231.425,-226.035 222.021,-212.246"/>
<polygon fill="none" stroke="midnightblue" points="245.618,-253.06 254.144,-259.35 251.402,-249.116 245.618,-253.06"/>
</g>
</g>
</svg>
