<?xml version="1.0" encoding="UTF-8" standalone="no"?>
<!DOCTYPE svg PUBLIC "-//W3C//DTD SVG 1.1//EN"
 "http://www.w3.org/Graphics/SVG/1.1/DTD/svg11.dtd">
<!-- Generated by graphviz version 2.38.0 (20140413.2041)
 -->
<!-- Title: Juniper.World.GIS.Google.Geocoding.AbstractGeocodingRequest Pages: 1 -->
<!--zoomable 1511 -->
<svg id="main" version="1.1" xmlns="http://www.w3.org/2000/svg" xmlns:xlink="http://www.w3.org/1999/xlink" xml:space="preserve" onload="init(evt)">
<style type="text/css"><![CDATA[
.edge:hover path { stroke: red; }
.edge:hover polygon { stroke: red; fill: red; }
]]></style>
<script type="text/javascript"><![CDATA[
var edges = document.getElementsByTagName('g');
if (edges && edges.length) {
  for (var i=0;i<edges.length;i++) {
    if (edges[i].id.substr(0,4)=='edge') {
      edges[i].setAttribute('class','edge');
    }
  }
}
]]></script>
        <defs>
                <circle id="rim" cx="0" cy="0" r="7"/>
                <circle id="rim2" cx="0" cy="0" r="3.5"/>
                <g id="zoomPlus">
                        <use xlink:href="#rim" fill="#404040">
                                <set attributeName="fill" to="#808080" begin="zoomplus.mouseover" end="zoomplus.mouseout"/>
                        </use>
                        <path d="M-4,0h8M0,-4v8" fill="none" stroke="white" stroke-width="1.5" pointer-events="none"/>
                </g>
                <g id="zoomMin">
                        <use xlink:href="#rim" fill="#404040">
                                <set attributeName="fill" to="#808080" begin="zoomminus.mouseover" end="zoomminus.mouseout"/>
                        </use>
                        <path d="M-4,0h8" fill="none" stroke="white" stroke-width="1.5" pointer-events="none"/>
                </g>
                <g id="dirArrow">
                        <path fill="none" stroke="white" stroke-width="1.5" d="M0,-3.0v7 M-2.5,-0.5L0,-3.0L2.5,-0.5"/>
                </g>
               <g id="resetDef">
                       <use xlink:href="#rim2" fill="#404040">
                               <set attributeName="fill" to="#808080" begin="reset.mouseover" end="reset.mouseout"/>
                       </use>
               </g>
        </defs>

<script type="text/javascript">
var viewWidth = 377;
var viewHeight = 1511;
var sectionId = 'dynsection-0';
</script>
<script xlink:href="../../svgpan.js"/>
<svg id="graph" class="graph">
<g id="viewport">
<title>Juniper.World.GIS.Google.Geocoding.AbstractGeocodingRequest</title>
<polygon fill="white" stroke="none" points="-4,4 -4,-1507 372.5,-1507 372.5,4 -4,4"/>
<!-- Node0 -->
<g id="node1" class="node"><title>Node0</title>
<g id="a_node1"><a xlink:title=" ">
<polygon fill="#bfbfbf" stroke="black" points="102,-282.5 102,-361.5 280,-361.5 280,-282.5 102,-282.5"/>
<text text-anchor="start" x="110" y="-349.5" font-family="SegoeUI" font-size="10.00">Juniper.World.GIS.Google.</text>
<text text-anchor="middle" x="191" y="-338.5" font-family="SegoeUI" font-size="10.00">Geocoding.AbstractGeocodingRequest</text>
<polyline fill="none" stroke="black" points="102,-331.5 280,-331.5 "/>
<text text-anchor="start" x="110" y="-319.5" font-family="SegoeUI" font-size="10.00">+ Language</text>
<text text-anchor="start" x="110" y="-308.5" font-family="SegoeUI" font-size="10.00">&#45; language</text>
<polyline fill="none" stroke="black" points="102,-301.5 280,-301.5 "/>
<text text-anchor="start" x="110" y="-289.5" font-family="SegoeUI" font-size="10.00"># AbstractGeocodingRequest()</text>
</a>
</g>
</g>
<!-- Node8 -->
<g id="node9" class="node"><title>Node8</title>
<g id="a_node9"><a xlink:href="../../db/d3f/class_juniper_1_1_world_1_1_g_i_s_1_1_google_1_1_geocoding_1_1_geocoding_request.html" target="_top" xlink:title=" ">
<polygon fill="white" stroke="black" points="30.5,-0.5 30.5,-244.5 173.5,-244.5 173.5,-0.5 30.5,-0.5"/>
<text text-anchor="start" x="38.5" y="-232.5" font-family="SegoeUI" font-size="10.00">Juniper.World.GIS.Google.</text>
<text text-anchor="middle" x="102" y="-221.5" font-family="SegoeUI" font-size="10.00">Geocoding.GeocodingRequest</text>
<polyline fill="none" stroke="black" points="30.5,-214.5 173.5,-214.5 "/>
<text text-anchor="start" x="38.5" y="-202.5" font-family="SegoeUI" font-size="10.00">+ Place</text>
<text text-anchor="start" x="38.5" y="-191.5" font-family="SegoeUI" font-size="10.00">+ Address</text>
<text text-anchor="start" x="38.5" y="-180.5" font-family="SegoeUI" font-size="10.00">+ PostalCodeFilter</text>
<text text-anchor="start" x="38.5" y="-169.5" font-family="SegoeUI" font-size="10.00">+ CountryFilter</text>
<text text-anchor="start" x="38.5" y="-158.5" font-family="SegoeUI" font-size="10.00">+ RouteHint</text>
<text text-anchor="start" x="38.5" y="-147.5" font-family="SegoeUI" font-size="10.00">+ LocalityHint</text>
<text text-anchor="start" x="38.5" y="-136.5" font-family="SegoeUI" font-size="10.00">+ AdministrativeAreaHint</text>
<text text-anchor="start" x="38.5" y="-125.5" font-family="SegoeUI" font-size="10.00">+ Bounds</text>
<text text-anchor="start" x="38.5" y="-114.5" font-family="SegoeUI" font-size="10.00">+ Region</text>
<text text-anchor="start" x="38.5" y="-103.5" font-family="SegoeUI" font-size="10.00">&#45; place_id</text>
<text text-anchor="start" x="38.5" y="-92.5" font-family="SegoeUI" font-size="10.00">&#45; address</text>
<text text-anchor="start" x="38.5" y="-81.5" font-family="SegoeUI" font-size="10.00">&#45; components</text>
<text text-anchor="start" x="38.5" y="-70.5" font-family="SegoeUI" font-size="10.00">&#45; bounds</text>
<text text-anchor="start" x="38.5" y="-59.5" font-family="SegoeUI" font-size="10.00">&#45; region</text>
<polyline fill="none" stroke="black" points="30.5,-52.5 173.5,-52.5 "/>
<text text-anchor="start" x="38.5" y="-40.5" font-family="SegoeUI" font-size="10.00">+ GeocodingRequest()</text>
<text text-anchor="start" x="38.5" y="-29.5" font-family="SegoeUI" font-size="10.00">+ SetBounds()</text>
<text text-anchor="start" x="38.5" y="-18.5" font-family="SegoeUI" font-size="10.00">&#45; RefreshComponents()</text>
<text text-anchor="start" x="38.5" y="-7.5" font-family="SegoeUI" font-size="10.00">&#45; SetComponent()</text>
</a>
</g>
</g>
<!-- Node0&#45;&gt;Node8 -->
<g id="edge8" class="edge"><title>Node0&#45;&gt;Node8</title>
<path fill="none" stroke="midnightblue" d="M169.447,-273.171C165.462,-264.328 161.139,-254.736 156.672,-244.822"/>
<polygon fill="none" stroke="midnightblue" points="166.329,-274.772 173.629,-282.451 172.711,-271.896 166.329,-274.772"/>
</g>
<!-- Node9 -->
<g id="node10" class="node"><title>Node9</title>
<g id="a_node10"><a xlink:href="../../db/d0a/class_juniper_1_1_world_1_1_g_i_s_1_1_google_1_1_geocoding_1_1_reverse_geocoding_request.html" target="_top" xlink:title=" ">
<polygon fill="white" stroke="black" points="191.5,-55.5 191.5,-189.5 368.5,-189.5 368.5,-55.5 191.5,-55.5"/>
<text text-anchor="start" x="199.5" y="-177.5" font-family="SegoeUI" font-size="10.00">Juniper.World.GIS.Google.</text>
<text text-anchor="middle" x="280" y="-166.5" font-family="SegoeUI" font-size="10.00">Geocoding.ReverseGeocodingRequest</text>
<polyline fill="none" stroke="black" points="191.5,-159.5 368.5,-159.5 "/>
<text text-anchor="start" x="199.5" y="-147.5" font-family="SegoeUI" font-size="10.00">+ Location</text>
<text text-anchor="start" x="199.5" y="-136.5" font-family="SegoeUI" font-size="10.00">&#45; result_type</text>
<text text-anchor="start" x="199.5" y="-125.5" font-family="SegoeUI" font-size="10.00">&#45; location_type</text>
<text text-anchor="start" x="199.5" y="-114.5" font-family="SegoeUI" font-size="10.00">&#45; latlng</text>
<text text-anchor="start" x="199.5" y="-103.5" font-family="SegoeUI" font-size="10.00">&#45; AcceptableResultTypes</text>
<polyline fill="none" stroke="black" points="191.5,-96.5 368.5,-96.5 "/>
<text text-anchor="start" x="199.5" y="-84.5" font-family="SegoeUI" font-size="10.00">+ ReverseGeocodingRequest()</text>
<text text-anchor="start" x="199.5" y="-73.5" font-family="SegoeUI" font-size="10.00">+ AddResultType()</text>
<text text-anchor="start" x="199.5" y="-62.5" font-family="SegoeUI" font-size="10.00">+ AddLocationType()</text>
</a>
</g>
</g>
<!-- Node0&#45;&gt;Node9 -->
<g id="edge9" class="edge"><title>Node0&#45;&gt;Node9</title>
<path fill="none" stroke="midnightblue" d="M212.563,-273.149C223.871,-248.055 237.899,-216.926 250.227,-189.568"/>
<polygon fill="none" stroke="midnightblue" points="209.289,-271.896 208.371,-282.451 215.671,-274.772 209.289,-271.896"/>
</g>
<!-- Node1 -->
<g id="node2" class="node"><title>Node1</title>
<g id="a_node2"><a xlink:href="../../d3/d6c/class_juniper_1_1_world_1_1_g_i_s_1_1_google_1_1_abstract_google_maps_request.html" target="_top" xlink:title=" ">
<polygon fill="white" stroke="black" points="113.5,-399.5 113.5,-511.5 268.5,-511.5 268.5,-399.5 113.5,-399.5"/>
<text text-anchor="start" x="121.5" y="-499.5" font-family="SegoeUI" font-size="10.00">AbstractGoogleMapsRequest</text>
<text text-anchor="middle" x="191" y="-488.5" font-family="SegoeUI" font-size="10.00">&lt; MediaType.Application &gt;</text>
<polyline fill="none" stroke="black" points="113.5,-481.5 268.5,-481.5 "/>
<text text-anchor="start" x="121.5" y="-469.5" font-family="SegoeUI" font-size="10.00">+ AuthenticatedURI</text>
<text text-anchor="start" x="121.5" y="-458.5" font-family="SegoeUI" font-size="10.00"># InternalCacheID</text>
<text text-anchor="start" x="121.5" y="-447.5" font-family="SegoeUI" font-size="10.00">&#45; apiKey</text>
<text text-anchor="start" x="121.5" y="-436.5" font-family="SegoeUI" font-size="10.00">&#45; signingKey</text>
<text text-anchor="start" x="121.5" y="-425.5" font-family="SegoeUI" font-size="10.00">&#45; gmaps</text>
<polyline fill="none" stroke="black" points="113.5,-418.5 268.5,-418.5 "/>
<text text-anchor="start" x="121.5" y="-406.5" font-family="SegoeUI" font-size="10.00"># AbstractGoogleMapsRequest()</text>
</a>
</g>
</g>
<!-- Node1&#45;&gt;Node0 -->
<g id="edge1" class="edge"><title>Node1&#45;&gt;Node0</title>
<path fill="none" stroke="midnightblue" d="M191,-389.32C191,-379.904 191,-370.473 191,-361.799"/>
<polygon fill="none" stroke="midnightblue" points="187.5,-389.494 191,-399.494 194.5,-389.494 187.5,-389.494"/>
</g>
<!-- Node2 -->
<g id="node3" class="node"><title>Node2</title>
<g id="a_node3"><a xlink:href="../../d3/d6c/class_juniper_1_1_world_1_1_g_i_s_1_1_google_1_1_abstract_google_maps_request.html" target="_top" xlink:title=" ">
<polygon fill="white" stroke="black" points="113.5,-559.5 113.5,-682.5 268.5,-682.5 268.5,-559.5 113.5,-559.5"/>
<text text-anchor="start" x="121.5" y="-670.5" font-family="SegoeUI" font-size="10.00">Juniper.World.GIS.Google.</text>
<text text-anchor="start" x="121.5" y="-659.5" font-family="SegoeUI" font-size="10.00">AbstractGoogleMapsRequest</text>
<text text-anchor="middle" x="191" y="-648.5" font-family="SegoeUI" font-size="10.00">&lt; MediaTypeT &gt;</text>
<polyline fill="none" stroke="black" points="113.5,-641.5 268.5,-641.5 "/>
<text text-anchor="start" x="121.5" y="-629.5" font-family="SegoeUI" font-size="10.00">+ AuthenticatedURI</text>
<text text-anchor="start" x="121.5" y="-618.5" font-family="SegoeUI" font-size="10.00"># InternalCacheID</text>
<text text-anchor="start" x="121.5" y="-607.5" font-family="SegoeUI" font-size="10.00">&#45; apiKey</text>
<text text-anchor="start" x="121.5" y="-596.5" font-family="SegoeUI" font-size="10.00">&#45; signingKey</text>
<text text-anchor="start" x="121.5" y="-585.5" font-family="SegoeUI" font-size="10.00">&#45; gmaps</text>
<polyline fill="none" stroke="black" points="113.5,-578.5 268.5,-578.5 "/>
<text text-anchor="start" x="121.5" y="-566.5" font-family="SegoeUI" font-size="10.00"># AbstractGoogleMapsRequest()</text>
</a>
</g>
</g>
<!-- Node2&#45;&gt;Node1 -->
<g id="edge2" class="edge"><title>Node2&#45;&gt;Node1</title>
<path fill="none" stroke="orange" d="M191,-548.801C191,-536.396 191,-523.661 191,-511.765"/>
<polygon fill="orange" stroke="orange" points="187.5,-549.119 191,-559.119 194.5,-549.119 187.5,-549.119"/>
<text text-anchor="middle" x="250.5" y="-533" font-family="SegoeUI" font-size="10.00"> &lt; MediaType.Application &gt;</text>
</g>
<!-- Node3 -->
<g id="node4" class="node"><title>Node3</title>
<g id="a_node4"><a xlink:href="../../db/d68/class_juniper_1_1_h_t_t_p_1_1_r_e_s_t_1_1_abstract_request.html" target="_top" xlink:title=" ">
<polygon fill="white" stroke="black" points="0,-720.5 0,-1030.5 158,-1030.5 158,-720.5 0,-720.5"/>
<text text-anchor="middle" x="79" y="-1018.5" font-family="SegoeUI" font-size="10.00">AbstractRequest&lt; MediaTypeT &gt;</text>
<polyline fill="none" stroke="black" points="0,-1011.5 158,-1011.5 "/>
<text text-anchor="start" x="8" y="-999.5" font-family="SegoeUI" font-size="10.00">+ ContentType</text>
<text text-anchor="start" x="8" y="-988.5" font-family="SegoeUI" font-size="10.00">+ MediaType</text>
<text text-anchor="start" x="8" y="-977.5" font-family="SegoeUI" font-size="10.00">+ BaseURI</text>
<text text-anchor="start" x="8" y="-966.5" font-family="SegoeUI" font-size="10.00">+ StandardRequestCacheID</text>
<text text-anchor="start" x="8" y="-955.5" font-family="SegoeUI" font-size="10.00"># AuthenticatedURI</text>
<text text-anchor="start" x="8" y="-944.5" font-family="SegoeUI" font-size="10.00">&#45; method</text>
<text text-anchor="start" x="8" y="-933.5" font-family="SegoeUI" font-size="10.00">&#45; serviceURI</text>
<text text-anchor="start" x="8" y="-922.5" font-family="SegoeUI" font-size="10.00">&#45; hasRequestBody</text>
<text text-anchor="start" x="8" y="-911.5" font-family="SegoeUI" font-size="10.00">&#45; queryParams</text>
<polyline fill="none" stroke="black" points="0,-904.5 158,-904.5 "/>
<text text-anchor="start" x="8" y="-892.5" font-family="SegoeUI" font-size="10.00">+ Equals()</text>
<text text-anchor="start" x="8" y="-881.5" font-family="SegoeUI" font-size="10.00">+ GetStreamAsync()</text>
<text text-anchor="start" x="8" y="-870.5" font-family="SegoeUI" font-size="10.00">+ GetHashCode()</text>
<text text-anchor="start" x="8" y="-859.5" font-family="SegoeUI" font-size="10.00"># AbstractRequest()</text>
<text text-anchor="start" x="8" y="-848.5" font-family="SegoeUI" font-size="10.00"># SetQuery()</text>
<text text-anchor="start" x="8" y="-837.5" font-family="SegoeUI" font-size="10.00"># SetQuery&lt; U &gt;()</text>
<text text-anchor="start" x="8" y="-826.5" font-family="SegoeUI" font-size="10.00"># AddQuery()</text>
<text text-anchor="start" x="8" y="-815.5" font-family="SegoeUI" font-size="10.00"># AddQuery&lt; U &gt;()</text>
<text text-anchor="start" x="8" y="-804.5" font-family="SegoeUI" font-size="10.00"># RemoveQuery()</text>
<text text-anchor="start" x="8" y="-793.5" font-family="SegoeUI" font-size="10.00"># RemoveQuery()</text>
<text text-anchor="start" x="8" y="-782.5" font-family="SegoeUI" font-size="10.00"># RemoveQuery&lt; U &gt;()</text>
<text text-anchor="start" x="8" y="-771.5" font-family="SegoeUI" font-size="10.00"># ModifyRequest()</text>
<text text-anchor="start" x="8" y="-760.5" font-family="SegoeUI" font-size="10.00"># GetBodyInfo()</text>
<text text-anchor="start" x="8" y="-749.5" font-family="SegoeUI" font-size="10.00"># WriteBody()</text>
<text text-anchor="start" x="8" y="-738.5" font-family="SegoeUI" font-size="10.00"># AddPath()</text>
<text text-anchor="start" x="8" y="-727.5" font-family="SegoeUI" font-size="10.00">&#45; SetQuery()</text>
</a>
</g>
</g>
<!-- Node3&#45;&gt;Node2 -->
<g id="edge3" class="edge"><title>Node3&#45;&gt;Node2</title>
<path fill="none" stroke="midnightblue" d="M151.473,-711.112C155.891,-701.152 160.159,-691.531 164.152,-682.528"/>
<polygon fill="none" stroke="midnightblue" points="148.233,-709.786 147.377,-720.346 154.631,-712.624 148.233,-709.786"/>
</g>
<!-- Node4 -->
<g id="node5" class="node"><title>Node4</title>
<g id="a_node5"><a xlink:href="../../d4/d35/class_juniper_1_1_i_o_1_1_abstract_stream_source.html" target="_top" xlink:title=" ">
<polygon fill="white" stroke="black" points="13.5,-1068.5 13.5,-1169.5 144.5,-1169.5 144.5,-1068.5 13.5,-1068.5"/>
<text text-anchor="middle" x="79" y="-1157.5" font-family="SegoeUI" font-size="10.00">AbstractStreamSource</text>
<polyline fill="none" stroke="black" points="13.5,-1150.5 144.5,-1150.5 "/>
<text text-anchor="start" x="21.5" y="-1138.5" font-family="SegoeUI" font-size="10.00">+ CacheID</text>
<text text-anchor="start" x="21.5" y="-1127.5" font-family="SegoeUI" font-size="10.00">+ DoNotCache</text>
<text text-anchor="start" x="21.5" y="-1116.5" font-family="SegoeUI" font-size="10.00">+ InternalCacheID</text>
<polyline fill="none" stroke="black" points="13.5,-1109.5 144.5,-1109.5 "/>
<text text-anchor="start" x="21.5" y="-1097.5" font-family="SegoeUI" font-size="10.00">+ GetStreamAsync()</text>
<text text-anchor="start" x="21.5" y="-1086.5" font-family="SegoeUI" font-size="10.00"># AbstractStreamSource()</text>
<text text-anchor="start" x="21.5" y="-1075.5" font-family="SegoeUI" font-size="10.00"># AbstractStreamSource()</text>
</a>
</g>
</g>
<!-- Node4&#45;&gt;Node3 -->
<g id="edge4" class="edge"><title>Node4&#45;&gt;Node3</title>
<path fill="none" stroke="midnightblue" d="M79,-1058C79,-1049.35 79,-1040.14 79,-1030.63"/>
<polygon fill="none" stroke="midnightblue" points="75.5001,-1058.25 79,-1068.25 82.5001,-1058.25 75.5001,-1058.25"/>
</g>
<!-- Node5 -->
<g id="node6" class="node"><title>Node5</title>
<g id="a_node6"><a xlink:href="../../de/db8/class_juniper_1_1_i_o_1_1_content_reference.html" target="_top" xlink:title=" ">
<polygon fill="white" stroke="black" points="24,-1207.5 24,-1407.5 134,-1407.5 134,-1207.5 24,-1207.5"/>
<text text-anchor="middle" x="79" y="-1395.5" font-family="SegoeUI" font-size="10.00">ContentReference</text>
<polyline fill="none" stroke="black" points="24,-1388.5 134,-1388.5 "/>
<text text-anchor="start" x="32" y="-1376.5" font-family="SegoeUI" font-size="10.00">+ CacheID</text>
<text text-anchor="start" x="32" y="-1365.5" font-family="SegoeUI" font-size="10.00">+ ContentType</text>
<text text-anchor="start" x="32" y="-1354.5" font-family="SegoeUI" font-size="10.00">+ DoNotCache</text>
<text text-anchor="start" x="32" y="-1343.5" font-family="SegoeUI" font-size="10.00">+ FileName</text>
<polyline fill="none" stroke="black" points="24,-1336.5 134,-1336.5 "/>
<text text-anchor="start" x="32" y="-1324.5" font-family="SegoeUI" font-size="10.00">+ ContentReference()</text>
<text text-anchor="start" x="32" y="-1313.5" font-family="SegoeUI" font-size="10.00">+ Equals()</text>
<text text-anchor="start" x="32" y="-1302.5" font-family="SegoeUI" font-size="10.00">+ Equals()</text>
<text text-anchor="start" x="32" y="-1291.5" font-family="SegoeUI" font-size="10.00">+ ToString()</text>
<text text-anchor="start" x="32" y="-1280.5" font-family="SegoeUI" font-size="10.00">+ GetHashCode()</text>
<text text-anchor="start" x="32" y="-1269.5" font-family="SegoeUI" font-size="10.00">+ operator==()</text>
<text text-anchor="start" x="32" y="-1258.5" font-family="SegoeUI" font-size="10.00">+ operator !=()</text>
<text text-anchor="start" x="32" y="-1247.5" font-family="SegoeUI" font-size="10.00">+ operator string()</text>
<text text-anchor="start" x="32" y="-1236.5" font-family="SegoeUI" font-size="10.00">+ operator+()</text>
<text text-anchor="start" x="32" y="-1225.5" font-family="SegoeUI" font-size="10.00">+ operator+()</text>
<text text-anchor="start" x="32" y="-1214.5" font-family="SegoeUI" font-size="10.00"># ContentReference()</text>
</a>
</g>
</g>
<!-- Node5&#45;&gt;Node4 -->
<g id="edge5" class="edge"><title>Node5&#45;&gt;Node4</title>
<path fill="none" stroke="midnightblue" d="M79,-1197.2C79,-1187.63 79,-1178.29 79,-1169.6"/>
<polygon fill="none" stroke="midnightblue" points="75.5001,-1197.24 79,-1207.24 82.5001,-1197.24 75.5001,-1197.24"/>
</g>
<!-- Node6 -->
<g id="node7" class="node"><title>Node6</title>
<g id="a_node7"><a xlink:title=" ">
<polygon fill="white" stroke="#bfbfbf" points="0,-1445.5 0,-1502.5 158,-1502.5 158,-1445.5 0,-1445.5"/>
<text text-anchor="middle" x="79" y="-1490.5" font-family="SegoeUI" font-size="10.00">IEquatable&lt; ContentReference &gt;</text>
<polyline fill="none" stroke="#bfbfbf" points="0,-1483.5 158,-1483.5 "/>
<text text-anchor="middle" x="79" y="-1471.5" font-family="SegoeUI" font-size="10.00"> </text>
<polyline fill="none" stroke="#bfbfbf" points="0,-1464.5 158,-1464.5 "/>
<text text-anchor="middle" x="79" y="-1452.5" font-family="SegoeUI" font-size="10.00"> </text>
</a>
</g>
</g>
<!-- Node6&#45;&gt;Node5 -->
<g id="edge6" class="edge"><title>Node6&#45;&gt;Node5</title>
<path fill="none" stroke="midnightblue" d="M79,-1435.29C79,-1426.84 79,-1417.5 79,-1407.82"/>
<polygon fill="none" stroke="midnightblue" points="75.5001,-1435.47 79,-1445.47 82.5001,-1435.47 75.5001,-1435.47"/>
</g>
<!-- Node7 -->
<g id="node8" class="node"><title>Node7</title>
<g id="a_node8"><a xlink:href="../../d3/db4/interface_juniper_1_1_world_1_1_g_i_s_1_1_google_1_1_i_google_maps_request.html" target="_top" xlink:title=" ">
<polygon fill="white" stroke="black" points="176,-847 176,-904 282,-904 282,-847 176,-847"/>
<text text-anchor="middle" x="229" y="-892" font-family="SegoeUI" font-size="10.00">IGoogleMapsRequest</text>
<polyline fill="none" stroke="black" points="176,-885 282,-885 "/>
<text text-anchor="middle" x="229" y="-873" font-family="SegoeUI" font-size="10.00"> </text>
<polyline fill="none" stroke="black" points="176,-866 282,-866 "/>
<text text-anchor="middle" x="229" y="-854" font-family="SegoeUI" font-size="10.00"> </text>
</a>
</g>
</g>
<!-- Node7&#45;&gt;Node2 -->
<g id="edge7" class="edge"><title>Node7&#45;&gt;Node2</title>
<path fill="none" stroke="midnightblue" d="M223.351,-836.965C217.228,-796.278 207.365,-730.738 200.136,-682.709"/>
<polygon fill="none" stroke="midnightblue" points="219.912,-837.63 224.861,-846.997 226.834,-836.588 219.912,-837.63"/>
</g>
</g>
</svg>
        <g id="navigator" transform="translate(0 0)" fill="#404254">
                <rect fill="#f2f5e9" fill-opacity="0.5" stroke="#606060" stroke-width=".5" x="0" y="0" width="60" height="60"/>
                <use id="zoomplus" xlink:href="#zoomPlus" x="17" y="9" onmousedown="handleZoom(evt,'in')"/>
                <use id="zoomminus" xlink:href="#zoomMin" x="42" y="9" onmousedown="handleZoom(evt,'out')"/>
                <use id="reset" xlink:href="#resetDef" x="30" y="36" onmousedown="handleReset()"/>
                <g id="arrowUp" xlink:href="#dirArrow" transform="translate(30 24)" onmousedown="handlePan(0,-1)">
                  <use xlink:href="#rim" fill="#404040">
                        <set attributeName="fill" to="#808080" begin="arrowUp.mouseover" end="arrowUp.mouseout"/>
                  </use>
                  <path fill="none" stroke="white" stroke-width="1.5" d="M0,-3.0v7 M-2.5,-0.5L0,-3.0L2.5,-0.5"/>
                </g>
                <g id="arrowRight" xlink:href="#dirArrow" transform="rotate(90) translate(36 -43)" onmousedown="handlePan(1,0)">
                  <use xlink:href="#rim" fill="#404040">
                        <set attributeName="fill" to="#808080" begin="arrowRight.mouseover" end="arrowRight.mouseout"/>
                  </use>
                  <path fill="none" stroke="white" stroke-width="1.5" d="M0,-3.0v7 M-2.5,-0.5L0,-3.0L2.5,-0.5"/>
                </g>
                <g id="arrowDown" xlink:href="#dirArrow" transform="rotate(180) translate(-30 -48)" onmousedown="handlePan(0,1)">
                  <use xlink:href="#rim" fill="#404040">
                        <set attributeName="fill" to="#808080" begin="arrowDown.mouseover" end="arrowDown.mouseout"/>
                  </use>
                  <path fill="none" stroke="white" stroke-width="1.5" d="M0,-3.0v7 M-2.5,-0.5L0,-3.0L2.5,-0.5"/>
                </g>
                <g id="arrowLeft" xlink:href="#dirArrow" transform="rotate(270) translate(-36 17)" onmousedown="handlePan(-1,0)">
                  <use xlink:href="#rim" fill="#404040">
                        <set attributeName="fill" to="#808080" begin="arrowLeft.mouseover" end="arrowLeft.mouseout"/>
                  </use>
                  <path fill="none" stroke="white" stroke-width="1.5" d="M0,-3.0v7 M-2.5,-0.5L0,-3.0L2.5,-0.5"/>
                </g>
        </g>
        <svg viewBox="0 0 15 15" width="100%" height="30px" preserveAspectRatio="xMaxYMin meet">
         <g id="arrow_out" transform="scale(0.3 0.3)">
          <a xlink:href="class_juniper_1_1_world_1_1_g_i_s_1_1_google_1_1_geocoding_1_1_abstract_geocoding_request__inherit__graph_org.svg" target="_base">
           <rect id="button" ry="5" rx="5" y="6" x="6" height="38" width="38"
                fill="#f2f5e9" fill-opacity="0.5" stroke="#606060" stroke-width="1.0"/>
           <path id="arrow"
             d="M 11.500037,31.436501 C 11.940474,20.09759 22.043105,11.32322 32.158766,21.979434 L 37.068811,17.246167 C 37.068811,17.246167 37.088388,32 37.088388,32 L 22.160133,31.978069 C 22.160133,31.978069 26.997745,27.140456 26.997745,27.140456 C 18.528582,18.264221 13.291696,25.230495 11.500037,31.436501 z"
             style="fill:#404040;"/>
          </a>
         </g>
        </svg>
</svg>
