<?xml version="1.0" encoding="UTF-8" standalone="no"?>
<!DOCTYPE svg PUBLIC "-//W3C//DTD SVG 1.1//EN"
 "http://www.w3.org/Graphics/SVG/1.1/DTD/svg11.dtd">
<!-- Generated by graphviz version 2.38.0 (20140413.2041)
 -->
<!-- Title: Hjg.Pngcs.Chunks.PngChunkSTER Pages: 1 -->
<svg width="169pt" height="639pt"
 viewBox="0.00 0.00 169.00 639.00" xmlns="http://www.w3.org/2000/svg" xmlns:xlink="http://www.w3.org/1999/xlink">
<g id="graph0" class="graph" transform="scale(1 1) rotate(0) translate(4 635)">
<title>Hjg.Pngcs.Chunks.PngChunkSTER</title>
<polygon fill="white" stroke="none" points="-4,4 -4,-635 165,-635 165,4 -4,4"/>
<!-- Node0 -->
<g id="node1" class="node"><title>Node0</title>
<g id="a_node1"><a xlink:title="sTER chunk: http://www.libpng.org/pub/png/spec/register/pngext&#45;1.3.0&#45;pdg.html#C.sTER">
<polygon fill="#bfbfbf" stroke="black" points="0,-0.5 0,-123.5 161,-123.5 161,-0.5 0,-0.5"/>
<text text-anchor="middle" x="80.5" y="-111.5" font-family="SegoeUI" font-size="10.00">Hjg.Pngcs.Chunks.PngChunkSTER</text>
<polyline fill="none" stroke="black" points="0,-104.5 161,-104.5 "/>
<text text-anchor="start" x="8" y="-92.5" font-family="SegoeUI" font-size="10.00">+ ID</text>
<text text-anchor="start" x="8" y="-81.5" font-family="SegoeUI" font-size="10.00">+ Mode</text>
<polyline fill="none" stroke="black" points="0,-74.5 161,-74.5 "/>
<text text-anchor="start" x="8" y="-62.5" font-family="SegoeUI" font-size="10.00">+ PngChunkSTER()</text>
<text text-anchor="start" x="8" y="-51.5" font-family="SegoeUI" font-size="10.00">+ GetOrderingConstraint()</text>
<text text-anchor="start" x="8" y="-40.5" font-family="SegoeUI" font-size="10.00">+ CreateRawChunk()</text>
<text text-anchor="start" x="8" y="-29.5" font-family="SegoeUI" font-size="10.00">+ ParseFromRaw()</text>
<text text-anchor="start" x="8" y="-18.5" font-family="SegoeUI" font-size="10.00">+ CloneDataFromRead()</text>
<text text-anchor="start" x="8" y="-7.5" font-family="SegoeUI" font-size="10.00">&#45; CloneData()</text>
</a>
</g>
</g>
<!-- Node1 -->
<g id="node2" class="node"><title>Node1</title>
<g id="a_node2"><a xlink:href="../../d2/dc1/class_hjg_1_1_pngcs_1_1_chunks_1_1_png_chunk_single.html" target="_top" xlink:title="A Chunk type that does not allow duplicate in an image">
<polygon fill="white" stroke="black" points="29.5,-160.5 29.5,-250.5 131.5,-250.5 131.5,-160.5 29.5,-160.5"/>
<text text-anchor="middle" x="80.5" y="-238.5" font-family="SegoeUI" font-size="10.00">PngChunkSingle</text>
<polyline fill="none" stroke="black" points="29.5,-231.5 131.5,-231.5 "/>
<text text-anchor="middle" x="80.5" y="-219.5" font-family="SegoeUI" font-size="10.00"> </text>
<polyline fill="none" stroke="black" points="29.5,-212.5 131.5,-212.5 "/>
<text text-anchor="start" x="37.5" y="-200.5" font-family="SegoeUI" font-size="10.00">+ AllowsMultiple()</text>
<text text-anchor="start" x="37.5" y="-189.5" font-family="SegoeUI" font-size="10.00">+ GetHashCode()</text>
<text text-anchor="start" x="37.5" y="-178.5" font-family="SegoeUI" font-size="10.00">+ Equals()</text>
<text text-anchor="start" x="37.5" y="-167.5" font-family="SegoeUI" font-size="10.00"># PngChunkSingle()</text>
</a>
</g>
</g>
<!-- Node1&#45;&gt;Node0 -->
<g id="edge1" class="edge"><title>Node1&#45;&gt;Node0</title>
<path fill="none" stroke="midnightblue" d="M80.5,-150.11C80.5,-141.421 80.5,-132.383 80.5,-123.561"/>
<polygon fill="none" stroke="midnightblue" points="77.0001,-150.117 80.5,-160.117 84.0001,-150.117 77.0001,-150.117"/>
</g>
<!-- Node2 -->
<g id="node3" class="node"><title>Node2</title>
<g id="a_node3"><a xlink:href="../../d8/dd4/class_hjg_1_1_pngcs_1_1_chunks_1_1_abstract_png_chunk.html" target="_top" xlink:title="Represents a instance of a PNG chunk">
<polygon fill="white" stroke="black" points="16.5,-287.5 16.5,-630.5 144.5,-630.5 144.5,-287.5 16.5,-287.5"/>
<text text-anchor="middle" x="80.5" y="-618.5" font-family="SegoeUI" font-size="10.00">AbstractPngChunk</text>
<polyline fill="none" stroke="black" points="16.5,-611.5 144.5,-611.5 "/>
<text text-anchor="start" x="24.5" y="-599.5" font-family="SegoeUI" font-size="10.00">+ Id</text>
<text text-anchor="start" x="24.5" y="-588.5" font-family="SegoeUI" font-size="10.00">+ Crit</text>
<text text-anchor="start" x="24.5" y="-577.5" font-family="SegoeUI" font-size="10.00">+ Pub</text>
<text text-anchor="start" x="24.5" y="-566.5" font-family="SegoeUI" font-size="10.00">+ Safe</text>
<text text-anchor="start" x="24.5" y="-555.5" font-family="SegoeUI" font-size="10.00">+ ImgInfo</text>
<text text-anchor="start" x="24.5" y="-544.5" font-family="SegoeUI" font-size="10.00">+ Priority</text>
<text text-anchor="start" x="24.5" y="-533.5" font-family="SegoeUI" font-size="10.00">+ ChunkGroup</text>
<text text-anchor="start" x="24.5" y="-522.5" font-family="SegoeUI" font-size="10.00">+ Length</text>
<text text-anchor="start" x="24.5" y="-511.5" font-family="SegoeUI" font-size="10.00">+ Offset</text>
<text text-anchor="start" x="24.5" y="-500.5" font-family="SegoeUI" font-size="10.00">&#45; factoryMap</text>
<polyline fill="none" stroke="black" points="16.5,-493.5 144.5,-493.5 "/>
<text text-anchor="start" x="24.5" y="-481.5" font-family="SegoeUI" font-size="10.00">+ CreateEmptyChunk()</text>
<text text-anchor="start" x="24.5" y="-470.5" font-family="SegoeUI" font-size="10.00">+ ToString()</text>
<text text-anchor="start" x="24.5" y="-459.5" font-family="SegoeUI" font-size="10.00">+ CreateRawChunk()</text>
<text text-anchor="start" x="24.5" y="-448.5" font-family="SegoeUI" font-size="10.00">+ ParseFromRaw()</text>
<text text-anchor="start" x="24.5" y="-437.5" font-family="SegoeUI" font-size="10.00">+ CloneDataFromRead()</text>
<text text-anchor="start" x="24.5" y="-426.5" font-family="SegoeUI" font-size="10.00">+ AllowsMultiple()</text>
<text text-anchor="start" x="24.5" y="-415.5" font-family="SegoeUI" font-size="10.00">+ GetOrderingConstraint()</text>
<text text-anchor="start" x="24.5" y="-404.5" font-family="SegoeUI" font-size="10.00">+ FactoryRegister()</text>
<text text-anchor="start" x="24.5" y="-393.5" font-family="SegoeUI" font-size="10.00">+ CloneChunk&lt; T &gt;()</text>
<text text-anchor="start" x="24.5" y="-382.5" font-family="SegoeUI" font-size="10.00"># AbstractPngChunk()</text>
<text text-anchor="start" x="24.5" y="-371.5" font-family="SegoeUI" font-size="10.00">&#45; MustGoBeforePLTE()</text>
<text text-anchor="start" x="24.5" y="-360.5" font-family="SegoeUI" font-size="10.00">&#45; MustGoBeforeIDAT()</text>
<text text-anchor="start" x="24.5" y="-349.5" font-family="SegoeUI" font-size="10.00">&#45; MustGoAfterPLTE()</text>
<text text-anchor="start" x="24.5" y="-338.5" font-family="SegoeUI" font-size="10.00">&#45; Write()</text>
<text text-anchor="start" x="24.5" y="-327.5" font-family="SegoeUI" font-size="10.00">&#45; InitFactory()</text>
<text text-anchor="start" x="24.5" y="-316.5" font-family="SegoeUI" font-size="10.00">&#45; IsKnown()</text>
<text text-anchor="start" x="24.5" y="-305.5" font-family="SegoeUI" font-size="10.00">&#45; Factory()</text>
<text text-anchor="start" x="24.5" y="-294.5" font-family="SegoeUI" font-size="10.00">&#45; FactoryFromId()</text>
</a>
</g>
</g>
<!-- Node2&#45;&gt;Node1 -->
<g id="edge2" class="edge"><title>Node2&#45;&gt;Node1</title>
<path fill="none" stroke="midnightblue" d="M80.5,-277.328C80.5,-267.775 80.5,-258.749 80.5,-250.542"/>
<polygon fill="none" stroke="midnightblue" points="77.0001,-277.461 80.5,-287.461 84.0001,-277.461 77.0001,-277.461"/>
</g>
</g>
</svg>
