<?xml version="1.0" encoding="UTF-8" standalone="no"?>
<!DOCTYPE svg PUBLIC "-//W3C//DTD SVG 1.1//EN"
 "http://www.w3.org/Graphics/SVG/1.1/DTD/svg11.dtd">
<!-- Generated by graphviz version 2.38.0 (20140413.2041)
 -->
<!-- Title: Juniper.Progress.StreamProgress Pages: 1 -->
<!--zoomable 464 -->
<svg id="main" version="1.1" xmlns="http://www.w3.org/2000/svg" xmlns:xlink="http://www.w3.org/1999/xlink" xml:space="preserve" onload="init(evt)">
<style type="text/css"><![CDATA[
.edge:hover path { stroke: red; }
.edge:hover polygon { stroke: red; fill: red; }
]]></style>
<script type="text/javascript"><![CDATA[
var edges = document.getElementsByTagName('g');
if (edges && edges.length) {
  for (var i=0;i<edges.length;i++) {
    if (edges[i].id.substr(0,4)=='edge') {
      edges[i].setAttribute('class','edge');
    }
  }
}
]]></script>
        <defs>
                <circle id="rim" cx="0" cy="0" r="7"/>
                <circle id="rim2" cx="0" cy="0" r="3.5"/>
                <g id="zoomPlus">
                        <use xlink:href="#rim" fill="#404040">
                                <set attributeName="fill" to="#808080" begin="zoomplus.mouseover" end="zoomplus.mouseout"/>
                        </use>
                        <path d="M-4,0h8M0,-4v8" fill="none" stroke="white" stroke-width="1.5" pointer-events="none"/>
                </g>
                <g id="zoomMin">
                        <use xlink:href="#rim" fill="#404040">
                                <set attributeName="fill" to="#808080" begin="zoomminus.mouseover" end="zoomminus.mouseout"/>
                        </use>
                        <path d="M-4,0h8" fill="none" stroke="white" stroke-width="1.5" pointer-events="none"/>
                </g>
                <g id="dirArrow">
                        <path fill="none" stroke="white" stroke-width="1.5" d="M0,-3.0v7 M-2.5,-0.5L0,-3.0L2.5,-0.5"/>
                </g>
               <g id="resetDef">
                       <use xlink:href="#rim2" fill="#404040">
                               <set attributeName="fill" to="#808080" begin="reset.mouseover" end="reset.mouseout"/>
                       </use>
               </g>
        </defs>

<script type="text/javascript">
var viewWidth = 248;
var viewHeight = 464;
var sectionId = 'dynsection-1';
</script>
<script xlink:href="../../svgpan.js"/>
<svg id="graph" class="graph">
<g id="viewport">
<title>Juniper.Progress.StreamProgress</title>
<polygon fill="white" stroke="none" points="-4,4 -4,-460 243.5,-460 243.5,4 -4,4"/>
<!-- Node3 -->
<g id="node1" class="node"><title>Node3</title>
<g id="a_node1"><a xlink:title=" ">
<polygon fill="#bfbfbf" stroke="black" points="0,-0.5 0,-244.5 160,-244.5 160,-0.5 0,-0.5"/>
<text text-anchor="middle" x="80" y="-232.5" font-family="SegoeUI" font-size="10.00">Juniper.Progress.StreamProgress</text>
<polyline fill="none" stroke="black" points="0,-225.5 160,-225.5 "/>
<text text-anchor="start" x="8" y="-213.5" font-family="SegoeUI" font-size="10.00">+ TotalByteCount</text>
<text text-anchor="start" x="8" y="-202.5" font-family="SegoeUI" font-size="10.00">+ Progress</text>
<text text-anchor="start" x="8" y="-191.5" font-family="SegoeUI" font-size="10.00">+ CanRead</text>
<text text-anchor="start" x="8" y="-180.5" font-family="SegoeUI" font-size="10.00">+ CanSeek</text>
<text text-anchor="start" x="8" y="-169.5" font-family="SegoeUI" font-size="10.00">+ CanWrite</text>
<text text-anchor="start" x="8" y="-158.5" font-family="SegoeUI" font-size="10.00">+ Length</text>
<text text-anchor="start" x="8" y="-147.5" font-family="SegoeUI" font-size="10.00">+ Position</text>
<text text-anchor="start" x="8" y="-136.5" font-family="SegoeUI" font-size="10.00">&#45; stream</text>
<text text-anchor="start" x="8" y="-125.5" font-family="SegoeUI" font-size="10.00">&#45; totalRead</text>
<text text-anchor="start" x="8" y="-114.5" font-family="SegoeUI" font-size="10.00">&#45; length</text>
<polyline fill="none" stroke="black" points="0,-107.5 160,-107.5 "/>
<text text-anchor="start" x="8" y="-95.5" font-family="SegoeUI" font-size="10.00">+ StreamProgress()</text>
<text text-anchor="start" x="8" y="-84.5" font-family="SegoeUI" font-size="10.00">+ StreamProgress()</text>
<text text-anchor="start" x="8" y="-73.5" font-family="SegoeUI" font-size="10.00">+ Flush()</text>
<text text-anchor="start" x="8" y="-62.5" font-family="SegoeUI" font-size="10.00">+ Read()</text>
<text text-anchor="start" x="8" y="-51.5" font-family="SegoeUI" font-size="10.00">+ Seek()</text>
<text text-anchor="start" x="8" y="-40.5" font-family="SegoeUI" font-size="10.00">+ SetLength()</text>
<text text-anchor="start" x="8" y="-29.5" font-family="SegoeUI" font-size="10.00">+ Write()</text>
<text text-anchor="start" x="8" y="-18.5" font-family="SegoeUI" font-size="10.00"># Dispose()</text>
<text text-anchor="start" x="8" y="-7.5" font-family="SegoeUI" font-size="10.00">&#45; SetStream()</text>
</a>
</g>
</g>
<!-- Node4 -->
<g id="node2" class="node"><title>Node4</title>
<g id="a_node2"><a xlink:title=" ">
<polygon fill="white" stroke="#bfbfbf" points="4,-298 4,-355 52,-355 52,-298 4,-298"/>
<text text-anchor="middle" x="28" y="-343" font-family="SegoeUI" font-size="10.00">Stream</text>
<polyline fill="none" stroke="#bfbfbf" points="4,-336 52,-336 "/>
<text text-anchor="middle" x="28" y="-324" font-family="SegoeUI" font-size="10.00"> </text>
<polyline fill="none" stroke="#bfbfbf" points="4,-317 52,-317 "/>
<text text-anchor="middle" x="28" y="-305" font-family="SegoeUI" font-size="10.00"> </text>
</a>
</g>
</g>
<!-- Node4&#45;&gt;Node3 -->
<g id="edge1" class="edge"><title>Node4&#45;&gt;Node3</title>
<path fill="none" stroke="midnightblue" d="M37.622,-288.122C40.9073,-275.36 44.7811,-260.312 48.8291,-244.587"/>
<polygon fill="none" stroke="midnightblue" points="34.2249,-287.279 35.1213,-297.836 41.0039,-289.025 34.2249,-287.279"/>
</g>
<!-- Node5 -->
<g id="node3" class="node"><title>Node5</title>
<g id="a_node3"><a xlink:href="../../d9/daf/interface_juniper_1_1_progress_1_1_i_progress.html" target="_top" xlink:title=" ">
<polygon fill="white" stroke="black" points="77.5,-398.5 77.5,-455.5 140.5,-455.5 140.5,-398.5 77.5,-398.5"/>
<text text-anchor="middle" x="109" y="-443.5" font-family="SegoeUI" font-size="10.00">IProgress</text>
<polyline fill="none" stroke="black" points="77.5,-436.5 140.5,-436.5 "/>
<text text-anchor="start" x="85.5" y="-424.5" font-family="SegoeUI" font-size="10.00">+ Progress</text>
<polyline fill="none" stroke="black" points="77.5,-417.5 140.5,-417.5 "/>
<text text-anchor="middle" x="109" y="-405.5" font-family="SegoeUI" font-size="10.00"> </text>
</a>
</g>
</g>
<!-- Node5&#45;&gt;Node3 -->
<g id="edge2" class="edge"><title>Node5&#45;&gt;Node3</title>
<path fill="none" stroke="midnightblue" d="M102.698,-388.126C101.352,-379.244 100.028,-369.803 99,-361 94.5984,-323.304 90.9113,-282.122 87.992,-244.794"/>
<polygon fill="none" stroke="midnightblue" points="99.2735,-388.884 104.272,-398.225 106.19,-387.806 99.2735,-388.884"/>
</g>
<!-- Node6 -->
<g id="node4" class="node"><title>Node6</title>
<g id="a_node4"><a xlink:href="../../d3/de9/interface_juniper_1_1_progress_1_1_i_progress_receiver.html" target="_top" xlink:title=" ">
<polygon fill="white" stroke="black" points="108.5,-292.5 108.5,-360.5 239.5,-360.5 239.5,-292.5 108.5,-292.5"/>
<text text-anchor="start" x="116.5" y="-348.5" font-family="SegoeUI" font-size="10.00">Juniper.Progress.IProgress</text>
<text text-anchor="middle" x="174" y="-337.5" font-family="SegoeUI" font-size="10.00">Receiver</text>
<polyline fill="none" stroke="black" points="108.5,-330.5 239.5,-330.5 "/>
<text text-anchor="middle" x="174" y="-318.5" font-family="SegoeUI" font-size="10.00"> </text>
<polyline fill="none" stroke="black" points="108.5,-311.5 239.5,-311.5 "/>
<text text-anchor="start" x="116.5" y="-299.5" font-family="SegoeUI" font-size="10.00">+ SetProgress()</text>
</a>
</g>
</g>
<!-- Node5&#45;&gt;Node6 -->
<g id="edge4" class="edge"><title>Node5&#45;&gt;Node6</title>
<path fill="none" stroke="midnightblue" d="M132.909,-389.769C139.213,-380.215 145.983,-369.957 152.172,-360.578"/>
<polygon fill="none" stroke="midnightblue" points="129.866,-388.026 127.279,-398.3 135.708,-391.881 129.866,-388.026"/>
</g>
<!-- Node6&#45;&gt;Node3 -->
<g id="edge3" class="edge"><title>Node6&#45;&gt;Node3</title>
<path fill="none" stroke="#404040" d="M158.478,-292.144C153.548,-281.551 147.764,-269.121 141.608,-255.893"/>
<polygon fill="none" stroke="#404040" points="141.424,-255.496 135.266,-251.744 136.361,-244.616 142.519,-248.369 141.424,-255.496"/>
<text text-anchor="middle" x="166.5" y="-266" font-family="SegoeUI" font-size="10.00"> &#45;parent</text>
</g>
</g>
</svg>
        <g id="navigator" transform="translate(0 0)" fill="#404254">
                <rect fill="#f2f5e9" fill-opacity="0.5" stroke="#606060" stroke-width=".5" x="0" y="0" width="60" height="60"/>
                <use id="zoomplus" xlink:href="#zoomPlus" x="17" y="9" onmousedown="handleZoom(evt,'in')"/>
                <use id="zoomminus" xlink:href="#zoomMin" x="42" y="9" onmousedown="handleZoom(evt,'out')"/>
                <use id="reset" xlink:href="#resetDef" x="30" y="36" onmousedown="handleReset()"/>
                <g id="arrowUp" xlink:href="#dirArrow" transform="translate(30 24)" onmousedown="handlePan(0,-1)">
                  <use xlink:href="#rim" fill="#404040">
                        <set attributeName="fill" to="#808080" begin="arrowUp.mouseover" end="arrowUp.mouseout"/>
                  </use>
                  <path fill="none" stroke="white" stroke-width="1.5" d="M0,-3.0v7 M-2.5,-0.5L0,-3.0L2.5,-0.5"/>
                </g>
                <g id="arrowRight" xlink:href="#dirArrow" transform="rotate(90) translate(36 -43)" onmousedown="handlePan(1,0)">
                  <use xlink:href="#rim" fill="#404040">
                        <set attributeName="fill" to="#808080" begin="arrowRight.mouseover" end="arrowRight.mouseout"/>
                  </use>
                  <path fill="none" stroke="white" stroke-width="1.5" d="M0,-3.0v7 M-2.5,-0.5L0,-3.0L2.5,-0.5"/>
                </g>
                <g id="arrowDown" xlink:href="#dirArrow" transform="rotate(180) translate(-30 -48)" onmousedown="handlePan(0,1)">
                  <use xlink:href="#rim" fill="#404040">
                        <set attributeName="fill" to="#808080" begin="arrowDown.mouseover" end="arrowDown.mouseout"/>
                  </use>
                  <path fill="none" stroke="white" stroke-width="1.5" d="M0,-3.0v7 M-2.5,-0.5L0,-3.0L2.5,-0.5"/>
                </g>
                <g id="arrowLeft" xlink:href="#dirArrow" transform="rotate(270) translate(-36 17)" onmousedown="handlePan(-1,0)">
                  <use xlink:href="#rim" fill="#404040">
                        <set attributeName="fill" to="#808080" begin="arrowLeft.mouseover" end="arrowLeft.mouseout"/>
                  </use>
                  <path fill="none" stroke="white" stroke-width="1.5" d="M0,-3.0v7 M-2.5,-0.5L0,-3.0L2.5,-0.5"/>
                </g>
        </g>
        <svg viewBox="0 0 15 15" width="100%" height="30px" preserveAspectRatio="xMaxYMin meet">
         <g id="arrow_out" transform="scale(0.3 0.3)">
          <a xlink:href="class_juniper_1_1_progress_1_1_stream_progress__coll__graph_org.svg" target="_base">
           <rect id="button" ry="5" rx="5" y="6" x="6" height="38" width="38"
                fill="#f2f5e9" fill-opacity="0.5" stroke="#606060" stroke-width="1.0"/>
           <path id="arrow"
             d="M 11.500037,31.436501 C 11.940474,20.09759 22.043105,11.32322 32.158766,21.979434 L 37.068811,17.246167 C 37.068811,17.246167 37.088388,32 37.088388,32 L 22.160133,31.978069 C 22.160133,31.978069 26.997745,27.140456 26.997745,27.140456 C 18.528582,18.264221 13.291696,25.230495 11.500037,31.436501 z"
             style="fill:#404040;"/>
          </a>
         </g>
        </svg>
</svg>
