<?xml version="1.0" encoding="UTF-8" standalone="no"?>
<!DOCTYPE svg PUBLIC "-//W3C//DTD SVG 1.1//EN"
 "http://www.w3.org/Graphics/SVG/1.1/DTD/svg11.dtd">
<!-- Generated by graphviz version 2.38.0 (20140413.2041)
 -->
<!-- Title: Hjg.Pngcs.Chunks.PngMetadata Pages: 1 -->
<svg width="161pt" height="804pt"
 viewBox="0.00 0.00 161.00 804.00" xmlns="http://www.w3.org/2000/svg" xmlns:xlink="http://www.w3.org/1999/xlink">
<g id="graph0" class="graph" transform="scale(1 1) rotate(0) translate(4 800)">
<title>Hjg.Pngcs.Chunks.PngMetadata</title>
<polygon fill="white" stroke="none" points="-4,4 -4,-800 157,-800 157,4 -4,4"/>
<!-- Node1 -->
<g id="node1" class="node"><title>Node1</title>
<g id="a_node1"><a xlink:title="Image Metadata, wrapper over a ChunksList">
<polygon fill="#bfbfbf" stroke="black" points="1,-0.5 1,-189.5 152,-189.5 152,-0.5 1,-0.5"/>
<text text-anchor="middle" x="76.5" y="-177.5" font-family="SegoeUI" font-size="10.00">Hjg.Pngcs.Chunks.PngMetadata</text>
<polyline fill="none" stroke="black" points="1,-170.5 152,-170.5 "/>
<text text-anchor="start" x="9" y="-158.5" font-family="SegoeUI" font-size="10.00">&#45; ReadOnly</text>
<polyline fill="none" stroke="black" points="1,-151.5 152,-151.5 "/>
<text text-anchor="start" x="9" y="-139.5" font-family="SegoeUI" font-size="10.00">+ QueueChunk()</text>
<text text-anchor="start" x="9" y="-128.5" font-family="SegoeUI" font-size="10.00">+ QueueChunk()</text>
<text text-anchor="start" x="9" y="-117.5" font-family="SegoeUI" font-size="10.00">+ GetDpi()</text>
<text text-anchor="start" x="9" y="-106.5" font-family="SegoeUI" font-size="10.00">+ SetDpi()</text>
<text text-anchor="start" x="9" y="-95.5" font-family="SegoeUI" font-size="10.00">+ SetDpi()</text>
<text text-anchor="start" x="9" y="-84.5" font-family="SegoeUI" font-size="10.00">+ SetTimeNow()</text>
<text text-anchor="start" x="9" y="-73.5" font-family="SegoeUI" font-size="10.00">+ SetTimeNow()</text>
<text text-anchor="start" x="9" y="-62.5" font-family="SegoeUI" font-size="10.00">+ SetTimeYMDHMS()</text>
<text text-anchor="start" x="9" y="-51.5" font-family="SegoeUI" font-size="10.00">+ GetTime()</text>
<text text-anchor="start" x="9" y="-40.5" font-family="SegoeUI" font-size="10.00">+ GetTimeAsString()</text>
<text text-anchor="start" x="9" y="-29.5" font-family="SegoeUI" font-size="10.00">and 8 more...</text>
<text text-anchor="start" x="9" y="-18.5" font-family="SegoeUI" font-size="10.00">&#45; PngMetadata()</text>
<text text-anchor="start" x="9" y="-7.5" font-family="SegoeUI" font-size="10.00">&#45; getChunkListW()</text>
</a>
</g>
</g>
<!-- Node2 -->
<g id="node2" class="node"><title>Node2</title>
<g id="a_node2"><a xlink:href="../../d2/d65/class_hjg_1_1_pngcs_1_1_chunks_1_1_chunks_list.html" target="_top" xlink:title=" ">
<polygon fill="white" stroke="black" points="0,-237.5 0,-503.5 153,-503.5 153,-237.5 0,-237.5"/>
<text text-anchor="middle" x="76.5" y="-491.5" font-family="SegoeUI" font-size="10.00">Hjg.Pngcs.Chunks.ChunksList</text>
<polyline fill="none" stroke="black" points="0,-484.5 153,-484.5 "/>
<text text-anchor="start" x="8" y="-472.5" font-family="SegoeUI" font-size="10.00">+ Chunks</text>
<text text-anchor="start" x="8" y="-461.5" font-family="SegoeUI" font-size="10.00">+ PngChunks</text>
<text text-anchor="start" x="8" y="-450.5" font-family="SegoeUI" font-size="10.00">&#45; CHUNK_GROUP_0_IDHR</text>
<text text-anchor="start" x="8" y="-439.5" font-family="SegoeUI" font-size="10.00">&#45; CHUNK_GROUP_1_AFTERIDHR</text>
<text text-anchor="start" x="8" y="-428.5" font-family="SegoeUI" font-size="10.00">&#45; CHUNK_GROUP_2_PLTE</text>
<text text-anchor="start" x="8" y="-417.5" font-family="SegoeUI" font-size="10.00">&#45; CHUNK_GROUP_3_AFTERPLTE</text>
<text text-anchor="start" x="8" y="-406.5" font-family="SegoeUI" font-size="10.00">&#45; CHUNK_GROUP_4_IDAT</text>
<text text-anchor="start" x="8" y="-395.5" font-family="SegoeUI" font-size="10.00">&#45; CHUNK_GROUP_5_AFTERIDAT</text>
<text text-anchor="start" x="8" y="-384.5" font-family="SegoeUI" font-size="10.00">&#45; CHUNK_GROUP_6_END</text>
<polyline fill="none" stroke="black" points="0,-377.5 153,-377.5 "/>
<text text-anchor="start" x="8" y="-365.5" font-family="SegoeUI" font-size="10.00">+ GetChunksKeys()</text>
<text text-anchor="start" x="8" y="-354.5" font-family="SegoeUI" font-size="10.00">+ AppendReadChunk()</text>
<text text-anchor="start" x="8" y="-343.5" font-family="SegoeUI" font-size="10.00">+ GetById()</text>
<text text-anchor="start" x="8" y="-332.5" font-family="SegoeUI" font-size="10.00">+ GetById()</text>
<text text-anchor="start" x="8" y="-321.5" font-family="SegoeUI" font-size="10.00">+ GetById1()</text>
<text text-anchor="start" x="8" y="-310.5" font-family="SegoeUI" font-size="10.00">+ GetById1()</text>
<text text-anchor="start" x="8" y="-299.5" font-family="SegoeUI" font-size="10.00">+ GetById1()</text>
<text text-anchor="start" x="8" y="-288.5" font-family="SegoeUI" font-size="10.00">+ GetEquivalent()</text>
<text text-anchor="start" x="8" y="-277.5" font-family="SegoeUI" font-size="10.00">+ ToString()</text>
<text text-anchor="start" x="8" y="-266.5" font-family="SegoeUI" font-size="10.00">+ ToStringFull()</text>
<text text-anchor="start" x="8" y="-255.5" font-family="SegoeUI" font-size="10.00">&#45; ChunksList()</text>
<text text-anchor="start" x="8" y="-244.5" font-family="SegoeUI" font-size="10.00">&#45; GetXById()</text>
</a>
</g>
</g>
<!-- Node2&#45;&gt;Node1 -->
<g id="edge1" class="edge"><title>Node2&#45;&gt;Node1</title>
<path fill="none" stroke="#404040" d="M76.5,-237.156C76.5,-225.215 76.5,-213.229 76.5,-201.562"/>
<polygon fill="none" stroke="#404040" points="76.5001,-201.536 72.5,-195.536 76.5,-189.536 80.5,-195.536 76.5001,-201.536"/>
<text text-anchor="middle" x="99.5" y="-211" font-family="SegoeUI" font-size="10.00"> &#45;chunkList</text>
</g>
<!-- Node3 -->
<g id="node3" class="node"><title>Node3</title>
<g id="a_node3"><a xlink:href="../../d3/d25/class_hjg_1_1_pngcs_1_1_image_info.html" target="_top" xlink:title="Simple immutable wrapper for basic image info">
<polygon fill="white" stroke="black" points="13.5,-551.5 13.5,-795.5 139.5,-795.5 139.5,-551.5 13.5,-551.5"/>
<text text-anchor="middle" x="76.5" y="-783.5" font-family="SegoeUI" font-size="10.00">Hjg.Pngcs.ImageInfo</text>
<polyline fill="none" stroke="black" points="13.5,-776.5 139.5,-776.5 "/>
<text text-anchor="start" x="21.5" y="-764.5" font-family="SegoeUI" font-size="10.00">+ Cols</text>
<text text-anchor="start" x="21.5" y="-753.5" font-family="SegoeUI" font-size="10.00">+ Rows</text>
<text text-anchor="start" x="21.5" y="-742.5" font-family="SegoeUI" font-size="10.00">+ BitDepth</text>
<text text-anchor="start" x="21.5" y="-731.5" font-family="SegoeUI" font-size="10.00">+ Channels</text>
<text text-anchor="start" x="21.5" y="-720.5" font-family="SegoeUI" font-size="10.00">+ BitspPixel</text>
<text text-anchor="start" x="21.5" y="-709.5" font-family="SegoeUI" font-size="10.00">+ BytesPixel</text>
<text text-anchor="start" x="21.5" y="-698.5" font-family="SegoeUI" font-size="10.00">+ BytesPerRow</text>
<text text-anchor="start" x="21.5" y="-687.5" font-family="SegoeUI" font-size="10.00">+ SamplesPerRow</text>
<text text-anchor="start" x="21.5" y="-676.5" font-family="SegoeUI" font-size="10.00">+ SamplesPerRowPacked</text>
<text text-anchor="start" x="21.5" y="-665.5" font-family="SegoeUI" font-size="10.00">+ Alpha</text>
<text text-anchor="start" x="21.5" y="-654.5" font-family="SegoeUI" font-size="10.00">+ Greyscale</text>
<text text-anchor="start" x="21.5" y="-643.5" font-family="SegoeUI" font-size="10.00">+ Indexed</text>
<text text-anchor="start" x="21.5" y="-632.5" font-family="SegoeUI" font-size="10.00">+ Packed</text>
<text text-anchor="start" x="21.5" y="-621.5" font-family="SegoeUI" font-size="10.00">&#45; MAX_COLS_ROWS_VAL</text>
<polyline fill="none" stroke="black" points="13.5,-614.5 139.5,-614.5 "/>
<text text-anchor="start" x="21.5" y="-602.5" font-family="SegoeUI" font-size="10.00">+ ImageInfo()</text>
<text text-anchor="start" x="21.5" y="-591.5" font-family="SegoeUI" font-size="10.00">+ ImageInfo()</text>
<text text-anchor="start" x="21.5" y="-580.5" font-family="SegoeUI" font-size="10.00">+ ToString()</text>
<text text-anchor="start" x="21.5" y="-569.5" font-family="SegoeUI" font-size="10.00">+ GetHashCode()</text>
<text text-anchor="start" x="21.5" y="-558.5" font-family="SegoeUI" font-size="10.00">+ Equals()</text>
</a>
</g>
</g>
<!-- Node3&#45;&gt;Node2 -->
<g id="edge2" class="edge"><title>Node3&#45;&gt;Node2</title>
<path fill="none" stroke="#404040" d="M76.5,-551.373C76.5,-539.734 76.5,-527.85 76.5,-516.017"/>
<polygon fill="none" stroke="#404040" points="76.5001,-515.715 72.5,-509.715 76.5,-503.715 80.5,-509.715 76.5001,-515.715"/>
<text text-anchor="middle" x="101.5" y="-525" font-family="SegoeUI" font-size="10.00"> &#45;imageInfo</text>
</g>
</g>
</svg>
