<?xml version="1.0" encoding="UTF-8" standalone="no"?>
<!DOCTYPE svg PUBLIC "-//W3C//DTD SVG 1.1//EN"
 "http://www.w3.org/Graphics/SVG/1.1/DTD/svg11.dtd">
<!-- Generated by graphviz version 2.38.0 (20140413.2041)
 -->
<!-- Title: Juniper.Data.AbstractBackgroundThread Pages: 1 -->
<svg width="418pt" height="617pt"
 viewBox="0.00 0.00 418.00 617.00" xmlns="http://www.w3.org/2000/svg" xmlns:xlink="http://www.w3.org/1999/xlink">
<g id="graph0" class="graph" transform="scale(1 1) rotate(0) translate(4 613)">
<title>Juniper.Data.AbstractBackgroundThread</title>
<polygon fill="white" stroke="none" points="-4,4 -4,-613 414,-613 414,4 -4,4"/>
<!-- Node0 -->
<g id="node1" class="node"><title>Node0</title>
<g id="a_node1"><a xlink:title="An abstract class for performing an operation on a background thread.">
<polygon fill="#bfbfbf" stroke="black" points="177,-474.5 177,-608.5 335,-608.5 335,-474.5 177,-474.5"/>
<text text-anchor="start" x="185" y="-596.5" font-family="SegoeUI" font-size="10.00">Juniper.Data.AbstractBackground</text>
<text text-anchor="middle" x="256" y="-585.5" font-family="SegoeUI" font-size="10.00">Thread</text>
<polyline fill="none" stroke="black" points="177,-578.5 335,-578.5 "/>
<text text-anchor="start" x="185" y="-566.5" font-family="SegoeUI" font-size="10.00">+ Running</text>
<text text-anchor="start" x="185" y="-555.5" font-family="SegoeUI" font-size="10.00">&#45; running</text>
<polyline fill="none" stroke="black" points="177,-548.5 335,-548.5 "/>
<text text-anchor="start" x="185" y="-536.5" font-family="SegoeUI" font-size="10.00"># OnError()</text>
<text text-anchor="start" x="185" y="-525.5" font-family="SegoeUI" font-size="10.00"># Awake()</text>
<text text-anchor="start" x="185" y="-514.5" font-family="SegoeUI" font-size="10.00"># Begin()</text>
<text text-anchor="start" x="185" y="-503.5" font-family="SegoeUI" font-size="10.00"># OnBegin()</text>
<text text-anchor="start" x="185" y="-492.5" font-family="SegoeUI" font-size="10.00"># Execute()</text>
<text text-anchor="start" x="185" y="-481.5" font-family="SegoeUI" font-size="10.00">&#45; Run()</text>
</a>
</g>
</g>
<!-- Node1 -->
<g id="node2" class="node"><title>Node1</title>
<g id="a_node2"><a xlink:href="../../dd/dad/class_juniper_1_1_data_1_1_abstract_background_repeating_thread.html" target="_top" xlink:title="Performs an operation in a loop on a background thread.">
<polygon fill="white" stroke="black" points="94,-314.5 94,-437.5 252,-437.5 252,-314.5 94,-314.5"/>
<text text-anchor="start" x="102" y="-425.5" font-family="SegoeUI" font-size="10.00">Juniper.Data.AbstractBackground</text>
<text text-anchor="middle" x="173" y="-414.5" font-family="SegoeUI" font-size="10.00">RepeatingThread</text>
<polyline fill="none" stroke="black" points="94,-407.5 252,-407.5 "/>
<text text-anchor="start" x="102" y="-395.5" font-family="SegoeUI" font-size="10.00">+ Running</text>
<text text-anchor="start" x="102" y="-384.5" font-family="SegoeUI" font-size="10.00">&#45; stopping</text>
<polyline fill="none" stroke="black" points="94,-377.5 252,-377.5 "/>
<text text-anchor="start" x="102" y="-365.5" font-family="SegoeUI" font-size="10.00">+ Stop()</text>
<text text-anchor="start" x="102" y="-354.5" font-family="SegoeUI" font-size="10.00"># Awake()</text>
<text text-anchor="start" x="102" y="-343.5" font-family="SegoeUI" font-size="10.00"># OnBegin()</text>
<text text-anchor="start" x="102" y="-332.5" font-family="SegoeUI" font-size="10.00"># Execute()</text>
<text text-anchor="start" x="102" y="-321.5" font-family="SegoeUI" font-size="10.00"># Loop()</text>
</a>
</g>
</g>
<!-- Node0&#45;&gt;Node1 -->
<g id="edge1" class="edge"><title>Node0&#45;&gt;Node1</title>
<path fill="none" stroke="midnightblue" d="M217.82,-465.291C213.133,-456.057 208.388,-446.711 203.828,-437.728"/>
<polygon fill="none" stroke="midnightblue" points="214.832,-467.137 222.48,-474.47 221.074,-463.968 214.832,-467.137"/>
</g>
<!-- Node4 -->
<g id="node5" class="node"><title>Node4</title>
<g id="a_node5"><a xlink:href="../../d0/dce/class_juniper_1_1_data_1_1_one_shot_thread.html" target="_top" xlink:title="Run any System.Action in a background thread that starts right away.">
<polygon fill="white" stroke="black" points="270,-336.5 270,-415.5 410,-415.5 410,-336.5 270,-336.5"/>
<text text-anchor="middle" x="340" y="-403.5" font-family="SegoeUI" font-size="10.00">Juniper.Data.OneShotThread</text>
<polyline fill="none" stroke="black" points="270,-396.5 410,-396.5 "/>
<text text-anchor="start" x="278" y="-384.5" font-family="SegoeUI" font-size="10.00">&#45; callback</text>
<polyline fill="none" stroke="black" points="270,-377.5 410,-377.5 "/>
<text text-anchor="start" x="278" y="-365.5" font-family="SegoeUI" font-size="10.00">+ Run()</text>
<text text-anchor="start" x="278" y="-354.5" font-family="SegoeUI" font-size="10.00"># Execute()</text>
<text text-anchor="start" x="278" y="-343.5" font-family="SegoeUI" font-size="10.00">&#45; OneShotThread()</text>
</a>
</g>
</g>
<!-- Node0&#45;&gt;Node4 -->
<g id="edge4" class="edge"><title>Node0&#45;&gt;Node4</title>
<path fill="none" stroke="midnightblue" d="M294.542,-465.48C303.427,-448.188 312.519,-430.491 320.214,-415.513"/>
<polygon fill="none" stroke="midnightblue" points="291.381,-463.975 289.924,-474.47 297.607,-467.174 291.381,-463.975"/>
</g>
<!-- Node2 -->
<g id="node3" class="node"><title>Node2</title>
<g id="a_node3"><a xlink:href="../../d5/d6f/class_juniper_1_1_data_1_1_managed_request.html" target="_top" xlink:title="A ManagedRequest is a AbstractBackgroundRepeatingThread that keeps a parameterized type value as its ...">
<polygon fill="white" stroke="black" points="0,-0.5 0,-277.5 172,-277.5 172,-0.5 0,-0.5"/>
<text text-anchor="middle" x="86" y="-265.5" font-family="SegoeUI" font-size="10.00">Juniper.Data.ManagedRequest&lt; T &gt;</text>
<polyline fill="none" stroke="black" points="0,-258.5 172,-258.5 "/>
<text text-anchor="start" x="8" y="-246.5" font-family="SegoeUI" font-size="10.00">+ DEFAULT_POLL_RATE</text>
<text text-anchor="start" x="8" y="-235.5" font-family="SegoeUI" font-size="10.00">+ DEFAULT_TIMEOUT</text>
<text text-anchor="start" x="8" y="-224.5" font-family="SegoeUI" font-size="10.00">+ NextRequest</text>
<text text-anchor="start" x="8" y="-213.5" font-family="SegoeUI" font-size="10.00">+ LastRequest</text>
<text text-anchor="start" x="8" y="-202.5" font-family="SegoeUI" font-size="10.00">+ LastResponse</text>
<text text-anchor="start" x="8" y="-191.5" font-family="SegoeUI" font-size="10.00">+ LastError</text>
<text text-anchor="start" x="8" y="-180.5" font-family="SegoeUI" font-size="10.00">+ TimeoutRate</text>
<text text-anchor="start" x="8" y="-169.5" font-family="SegoeUI" font-size="10.00">+ PollRate</text>
<text text-anchor="start" x="8" y="-158.5" font-family="SegoeUI" font-size="10.00">+ SinceRequest</text>
<text text-anchor="start" x="8" y="-147.5" font-family="SegoeUI" font-size="10.00">+ SinceRequestSeconds</text>
<text text-anchor="start" x="8" y="-136.5" font-family="SegoeUI" font-size="10.00">+ UntilNextRequest</text>
<text text-anchor="start" x="8" y="-125.5" font-family="SegoeUI" font-size="10.00">+ UntilNextRequestSeconds</text>
<text text-anchor="start" x="8" y="-114.5" font-family="SegoeUI" font-size="10.00">and 6 more...</text>
<text text-anchor="start" x="8" y="-103.5" font-family="SegoeUI" font-size="10.00">&#45; wasTimedOut</text>
<polyline fill="none" stroke="black" points="0,-96.5 172,-96.5 "/>
<text text-anchor="start" x="8" y="-84.5" font-family="SegoeUI" font-size="10.00">+ ManagedRequest()</text>
<text text-anchor="start" x="8" y="-73.5" font-family="SegoeUI" font-size="10.00">+ RetryIn()</text>
<text text-anchor="start" x="8" y="-62.5" font-family="SegoeUI" font-size="10.00"># Loop()</text>
<text text-anchor="start" x="8" y="-51.5" font-family="SegoeUI" font-size="10.00">&#45; OnReady()</text>
<text text-anchor="start" x="8" y="-40.5" font-family="SegoeUI" font-size="10.00">&#45; OnMessage()</text>
<text text-anchor="start" x="8" y="-29.5" font-family="SegoeUI" font-size="10.00">&#45; OnServerError()</text>
<text text-anchor="start" x="8" y="-18.5" font-family="SegoeUI" font-size="10.00">&#45; OnTimedOut()</text>
<text text-anchor="start" x="8" y="-7.5" font-family="SegoeUI" font-size="10.00">&#45; OnSuccess()</text>
</a>
</g>
</g>
<!-- Node1&#45;&gt;Node2 -->
<g id="edge2" class="edge"><title>Node1&#45;&gt;Node2</title>
<path fill="none" stroke="midnightblue" d="M147.114,-305.077C143.843,-296.242 140.412,-286.976 136.916,-277.532"/>
<polygon fill="none" stroke="midnightblue" points="143.841,-306.319 150.595,-314.482 150.406,-303.889 143.841,-306.319"/>
</g>
<!-- Node3 -->
<g id="node4" class="node"><title>Node3</title>
<g id="a_node4"><a xlink:href="../../d6/da5/class_juniper_1_1_unity_1_1_vuforia_1_1_vuforia_image_analyzer.html" target="_top" xlink:title="Basic scaffolding around performing image analysis on Vuforia&#39;s image feed. This typically only works...">
<polygon fill="white" stroke="black" points="190.5,-72 190.5,-206 329.5,-206 329.5,-72 190.5,-72"/>
<text text-anchor="start" x="198.5" y="-194" font-family="SegoeUI" font-size="10.00">Juniper.Unity.Vuforia.Vuforia</text>
<text text-anchor="middle" x="260" y="-183" font-family="SegoeUI" font-size="10.00">ImageAnalyzer</text>
<polyline fill="none" stroke="black" points="190.5,-176 329.5,-176 "/>
<text text-anchor="start" x="198.5" y="-164" font-family="SegoeUI" font-size="10.00">+ imageAnalyzer</text>
<text text-anchor="start" x="198.5" y="-153" font-family="SegoeUI" font-size="10.00">+ ImageFormat</text>
<text text-anchor="start" x="198.5" y="-142" font-family="SegoeUI" font-size="10.00">&#45; pixelGetter</text>
<text text-anchor="start" x="198.5" y="-131" font-family="SegoeUI" font-size="10.00">&#45; lastFormat</text>
<text text-anchor="start" x="198.5" y="-120" font-family="SegoeUI" font-size="10.00">&#45; PixelConverters</text>
<text text-anchor="start" x="198.5" y="-109" font-family="SegoeUI" font-size="10.00">&#45; attemptFormats</text>
<polyline fill="none" stroke="black" points="190.5,-102 329.5,-102 "/>
<text text-anchor="start" x="198.5" y="-90" font-family="SegoeUI" font-size="10.00"># Loop()</text>
<text text-anchor="start" x="198.5" y="-79" font-family="SegoeUI" font-size="10.00">&#45; Update()</text>
</a>
</g>
</g>
<!-- Node1&#45;&gt;Node3 -->
<g id="edge3" class="edge"><title>Node1&#45;&gt;Node3</title>
<path fill="none" stroke="midnightblue" d="M198.933,-304.951C210.525,-273.64 224.116,-236.927 235.531,-206.096"/>
<polygon fill="none" stroke="midnightblue" points="195.594,-303.889 195.405,-314.482 202.159,-306.319 195.594,-303.889"/>
</g>
</g>
</svg>
