<?xml version="1.0" encoding="UTF-8" standalone="no"?>
<!DOCTYPE svg PUBLIC "-//W3C//DTD SVG 1.1//EN"
 "http://www.w3.org/Graphics/SVG/1.1/DTD/svg11.dtd">
<!-- Generated by graphviz version 2.38.0 (20140413.2041)
 -->
<!-- Title: Juniper.Data.AbstractBackgroundThread Pages: 1 -->
<!--zoomable 617 -->
<svg id="main" version="1.1" xmlns="http://www.w3.org/2000/svg" xmlns:xlink="http://www.w3.org/1999/xlink" xml:space="preserve" onload="init(evt)">
<style type="text/css"><![CDATA[
.edge:hover path { stroke: red; }
.edge:hover polygon { stroke: red; fill: red; }
]]></style>
<script type="text/javascript"><![CDATA[
var edges = document.getElementsByTagName('g');
if (edges && edges.length) {
  for (var i=0;i<edges.length;i++) {
    if (edges[i].id.substr(0,4)=='edge') {
      edges[i].setAttribute('class','edge');
    }
  }
}
]]></script>
        <defs>
                <circle id="rim" cx="0" cy="0" r="7"/>
                <circle id="rim2" cx="0" cy="0" r="3.5"/>
                <g id="zoomPlus">
                        <use xlink:href="#rim" fill="#404040">
                                <set attributeName="fill" to="#808080" begin="zoomplus.mouseover" end="zoomplus.mouseout"/>
                        </use>
                        <path d="M-4,0h8M0,-4v8" fill="none" stroke="white" stroke-width="1.5" pointer-events="none"/>
                </g>
                <g id="zoomMin">
                        <use xlink:href="#rim" fill="#404040">
                                <set attributeName="fill" to="#808080" begin="zoomminus.mouseover" end="zoomminus.mouseout"/>
                        </use>
                        <path d="M-4,0h8" fill="none" stroke="white" stroke-width="1.5" pointer-events="none"/>
                </g>
                <g id="dirArrow">
                        <path fill="none" stroke="white" stroke-width="1.5" d="M0,-3.0v7 M-2.5,-0.5L0,-3.0L2.5,-0.5"/>
                </g>
               <g id="resetDef">
                       <use xlink:href="#rim2" fill="#404040">
                               <set attributeName="fill" to="#808080" begin="reset.mouseover" end="reset.mouseout"/>
                       </use>
               </g>
        </defs>

<script type="text/javascript">
var viewWidth = 419;
var viewHeight = 617;
var sectionId = 'dynsection-0';
</script>
<script xlink:href="../../svgpan.js"/>
<svg id="graph" class="graph">
<g id="viewport">
<title>Juniper.Data.AbstractBackgroundThread</title>
<polygon fill="white" stroke="none" points="-4,4 -4,-613 415,-613 415,4 -4,4"/>
<!-- Node0 -->
<g id="node1" class="node"><title>Node0</title>
<g id="a_node1"><a xlink:title="An abstract class for performing an operation on a background thread.">
<polygon fill="#bfbfbf" stroke="black" points="178,-474.5 178,-608.5 336,-608.5 336,-474.5 178,-474.5"/>
<text text-anchor="start" x="186" y="-596.5" font-family="SegoeUI" font-size="10.00">Juniper.Data.AbstractBackground</text>
<text text-anchor="middle" x="257" y="-585.5" font-family="SegoeUI" font-size="10.00">Thread</text>
<polyline fill="none" stroke="black" points="178,-578.5 336,-578.5 "/>
<text text-anchor="start" x="186" y="-566.5" font-family="SegoeUI" font-size="10.00">+ Running</text>
<text text-anchor="start" x="186" y="-555.5" font-family="SegoeUI" font-size="10.00">&#45; running</text>
<polyline fill="none" stroke="black" points="178,-548.5 336,-548.5 "/>
<text text-anchor="start" x="186" y="-536.5" font-family="SegoeUI" font-size="10.00"># OnError()</text>
<text text-anchor="start" x="186" y="-525.5" font-family="SegoeUI" font-size="10.00"># Awake()</text>
<text text-anchor="start" x="186" y="-514.5" font-family="SegoeUI" font-size="10.00"># Begin()</text>
<text text-anchor="start" x="186" y="-503.5" font-family="SegoeUI" font-size="10.00"># OnBegin()</text>
<text text-anchor="start" x="186" y="-492.5" font-family="SegoeUI" font-size="10.00"># Execute()</text>
<text text-anchor="start" x="186" y="-481.5" font-family="SegoeUI" font-size="10.00">&#45; Run()</text>
</a>
</g>
</g>
<!-- Node1 -->
<g id="node2" class="node"><title>Node1</title>
<g id="a_node2"><a xlink:href="../../dd/dad/class_juniper_1_1_data_1_1_abstract_background_repeating_thread.html" target="_top" xlink:title="Performs an operation in a loop on a background thread.">
<polygon fill="white" stroke="black" points="95,-314.5 95,-437.5 253,-437.5 253,-314.5 95,-314.5"/>
<text text-anchor="start" x="103" y="-425.5" font-family="SegoeUI" font-size="10.00">Juniper.Data.AbstractBackground</text>
<text text-anchor="middle" x="174" y="-414.5" font-family="SegoeUI" font-size="10.00">RepeatingThread</text>
<polyline fill="none" stroke="black" points="95,-407.5 253,-407.5 "/>
<text text-anchor="start" x="103" y="-395.5" font-family="SegoeUI" font-size="10.00">+ Running</text>
<text text-anchor="start" x="103" y="-384.5" font-family="SegoeUI" font-size="10.00">&#45; stopping</text>
<polyline fill="none" stroke="black" points="95,-377.5 253,-377.5 "/>
<text text-anchor="start" x="103" y="-365.5" font-family="SegoeUI" font-size="10.00">+ Stop()</text>
<text text-anchor="start" x="103" y="-354.5" font-family="SegoeUI" font-size="10.00"># Awake()</text>
<text text-anchor="start" x="103" y="-343.5" font-family="SegoeUI" font-size="10.00"># OnBegin()</text>
<text text-anchor="start" x="103" y="-332.5" font-family="SegoeUI" font-size="10.00"># Execute()</text>
<text text-anchor="start" x="103" y="-321.5" font-family="SegoeUI" font-size="10.00"># Loop()</text>
</a>
</g>
</g>
<!-- Node0&#45;&gt;Node1 -->
<g id="edge1" class="edge"><title>Node0&#45;&gt;Node1</title>
<path fill="none" stroke="midnightblue" d="M218.82,-465.291C214.133,-456.057 209.388,-446.711 204.828,-437.728"/>
<polygon fill="none" stroke="midnightblue" points="215.832,-467.137 223.48,-474.47 222.074,-463.968 215.832,-467.137"/>
</g>
<!-- Node4 -->
<g id="node5" class="node"><title>Node4</title>
<g id="a_node5"><a xlink:href="../../d0/dce/class_juniper_1_1_data_1_1_one_shot_thread.html" target="_top" xlink:title="Run any System.Action in a background thread that starts right away.">
<polygon fill="white" stroke="black" points="271,-336.5 271,-415.5 411,-415.5 411,-336.5 271,-336.5"/>
<text text-anchor="middle" x="341" y="-403.5" font-family="SegoeUI" font-size="10.00">Juniper.Data.OneShotThread</text>
<polyline fill="none" stroke="black" points="271,-396.5 411,-396.5 "/>
<text text-anchor="start" x="279" y="-384.5" font-family="SegoeUI" font-size="10.00">&#45; callback</text>
<polyline fill="none" stroke="black" points="271,-377.5 411,-377.5 "/>
<text text-anchor="start" x="279" y="-365.5" font-family="SegoeUI" font-size="10.00">+ Run()</text>
<text text-anchor="start" x="279" y="-354.5" font-family="SegoeUI" font-size="10.00"># Execute()</text>
<text text-anchor="start" x="279" y="-343.5" font-family="SegoeUI" font-size="10.00">&#45; OneShotThread()</text>
</a>
</g>
</g>
<!-- Node0&#45;&gt;Node4 -->
<g id="edge4" class="edge"><title>Node0&#45;&gt;Node4</title>
<path fill="none" stroke="midnightblue" d="M295.542,-465.48C304.427,-448.188 313.519,-430.491 321.214,-415.513"/>
<polygon fill="none" stroke="midnightblue" points="292.381,-463.975 290.924,-474.47 298.607,-467.174 292.381,-463.975"/>
</g>
<!-- Node2 -->
<g id="node3" class="node"><title>Node2</title>
<g id="a_node3"><a xlink:href="../../d5/d6f/class_juniper_1_1_data_1_1_managed_request.html" target="_top" xlink:title="A ManagedRequest is a AbstractBackgroundRepeatingThread that keeps a parameterized type value as its ...">
<polygon fill="white" stroke="black" points="0,-0.5 0,-277.5 172,-277.5 172,-0.5 0,-0.5"/>
<text text-anchor="middle" x="86" y="-265.5" font-family="SegoeUI" font-size="10.00">Juniper.Data.ManagedRequest&lt; T &gt;</text>
<polyline fill="none" stroke="black" points="0,-258.5 172,-258.5 "/>
<text text-anchor="start" x="8" y="-246.5" font-family="SegoeUI" font-size="10.00">+ DEFAULT_POLL_RATE</text>
<text text-anchor="start" x="8" y="-235.5" font-family="SegoeUI" font-size="10.00">+ DEFAULT_TIMEOUT</text>
<text text-anchor="start" x="8" y="-224.5" font-family="SegoeUI" font-size="10.00">+ NextRequest</text>
<text text-anchor="start" x="8" y="-213.5" font-family="SegoeUI" font-size="10.00">+ LastRequest</text>
<text text-anchor="start" x="8" y="-202.5" font-family="SegoeUI" font-size="10.00">+ LastResponse</text>
<text text-anchor="start" x="8" y="-191.5" font-family="SegoeUI" font-size="10.00">+ LastError</text>
<text text-anchor="start" x="8" y="-180.5" font-family="SegoeUI" font-size="10.00">+ TimeoutRate</text>
<text text-anchor="start" x="8" y="-169.5" font-family="SegoeUI" font-size="10.00">+ PollRate</text>
<text text-anchor="start" x="8" y="-158.5" font-family="SegoeUI" font-size="10.00">+ SinceRequest</text>
<text text-anchor="start" x="8" y="-147.5" font-family="SegoeUI" font-size="10.00">+ SinceRequestSeconds</text>
<text text-anchor="start" x="8" y="-136.5" font-family="SegoeUI" font-size="10.00">+ UntilNextRequest</text>
<text text-anchor="start" x="8" y="-125.5" font-family="SegoeUI" font-size="10.00">+ UntilNextRequestSeconds</text>
<text text-anchor="start" x="8" y="-114.5" font-family="SegoeUI" font-size="10.00">and 6 more...</text>
<text text-anchor="start" x="8" y="-103.5" font-family="SegoeUI" font-size="10.00">&#45; wasTimedOut</text>
<polyline fill="none" stroke="black" points="0,-96.5 172,-96.5 "/>
<text text-anchor="start" x="8" y="-84.5" font-family="SegoeUI" font-size="10.00">+ ManagedRequest()</text>
<text text-anchor="start" x="8" y="-73.5" font-family="SegoeUI" font-size="10.00">+ RetryIn()</text>
<text text-anchor="start" x="8" y="-62.5" font-family="SegoeUI" font-size="10.00"># Loop()</text>
<text text-anchor="start" x="8" y="-51.5" font-family="SegoeUI" font-size="10.00">&#45; OnReady()</text>
<text text-anchor="start" x="8" y="-40.5" font-family="SegoeUI" font-size="10.00">&#45; OnMessage()</text>
<text text-anchor="start" x="8" y="-29.5" font-family="SegoeUI" font-size="10.00">&#45; OnServerError()</text>
<text text-anchor="start" x="8" y="-18.5" font-family="SegoeUI" font-size="10.00">&#45; OnTimedOut()</text>
<text text-anchor="start" x="8" y="-7.5" font-family="SegoeUI" font-size="10.00">&#45; OnSuccess()</text>
</a>
</g>
</g>
<!-- Node1&#45;&gt;Node2 -->
<g id="edge2" class="edge"><title>Node1&#45;&gt;Node2</title>
<path fill="none" stroke="midnightblue" d="M147.816,-305.077C144.508,-296.242 141.038,-286.976 137.501,-277.532"/>
<polygon fill="none" stroke="midnightblue" points="144.553,-306.344 151.338,-314.482 151.109,-303.889 144.553,-306.344"/>
</g>
<!-- Node3 -->
<g id="node4" class="node"><title>Node3</title>
<g id="a_node4"><a xlink:href="../../dc/dc0/class_juniper_1_1_unity_1_1_imaging_1_1_vuforia_image_analyzer.html" target="_top" xlink:title="Basic scaffolding around performing image analysis on Vuforia&#39;s image feed. This typically only works...">
<polygon fill="white" stroke="black" points="190.5,-72 190.5,-206 333.5,-206 333.5,-72 190.5,-72"/>
<text text-anchor="start" x="198.5" y="-194" font-family="SegoeUI" font-size="10.00">Juniper.Unity.Imaging.Vuforia</text>
<text text-anchor="middle" x="262" y="-183" font-family="SegoeUI" font-size="10.00">ImageAnalyzer</text>
<polyline fill="none" stroke="black" points="190.5,-176 333.5,-176 "/>
<text text-anchor="start" x="198.5" y="-164" font-family="SegoeUI" font-size="10.00">+ imageAnalyzer</text>
<text text-anchor="start" x="198.5" y="-153" font-family="SegoeUI" font-size="10.00">+ ImageFormat</text>
<text text-anchor="start" x="198.5" y="-142" font-family="SegoeUI" font-size="10.00">&#45; pixelGetter</text>
<text text-anchor="start" x="198.5" y="-131" font-family="SegoeUI" font-size="10.00">&#45; lastFormat</text>
<text text-anchor="start" x="198.5" y="-120" font-family="SegoeUI" font-size="10.00">&#45; PixelConverters</text>
<text text-anchor="start" x="198.5" y="-109" font-family="SegoeUI" font-size="10.00">&#45; attemptFormats</text>
<polyline fill="none" stroke="black" points="190.5,-102 333.5,-102 "/>
<text text-anchor="start" x="198.5" y="-90" font-family="SegoeUI" font-size="10.00"># Loop()</text>
<text text-anchor="start" x="198.5" y="-79" font-family="SegoeUI" font-size="10.00">&#45; Update()</text>
</a>
</g>
</g>
<!-- Node1&#45;&gt;Node3 -->
<g id="edge3" class="edge"><title>Node1&#45;&gt;Node3</title>
<path fill="none" stroke="midnightblue" d="M200.231,-304.951C211.956,-273.64 225.704,-236.927 237.249,-206.096"/>
<polygon fill="none" stroke="midnightblue" points="196.891,-303.889 196.662,-314.482 203.447,-306.344 196.891,-303.889"/>
</g>
</g>
</svg>
        <g id="navigator" transform="translate(0 0)" fill="#404254">
                <rect fill="#f2f5e9" fill-opacity="0.5" stroke="#606060" stroke-width=".5" x="0" y="0" width="60" height="60"/>
                <use id="zoomplus" xlink:href="#zoomPlus" x="17" y="9" onmousedown="handleZoom(evt,'in')"/>
                <use id="zoomminus" xlink:href="#zoomMin" x="42" y="9" onmousedown="handleZoom(evt,'out')"/>
                <use id="reset" xlink:href="#resetDef" x="30" y="36" onmousedown="handleReset()"/>
                <g id="arrowUp" xlink:href="#dirArrow" transform="translate(30 24)" onmousedown="handlePan(0,-1)">
                  <use xlink:href="#rim" fill="#404040">
                        <set attributeName="fill" to="#808080" begin="arrowUp.mouseover" end="arrowUp.mouseout"/>
                  </use>
                  <path fill="none" stroke="white" stroke-width="1.5" d="M0,-3.0v7 M-2.5,-0.5L0,-3.0L2.5,-0.5"/>
                </g>
                <g id="arrowRight" xlink:href="#dirArrow" transform="rotate(90) translate(36 -43)" onmousedown="handlePan(1,0)">
                  <use xlink:href="#rim" fill="#404040">
                        <set attributeName="fill" to="#808080" begin="arrowRight.mouseover" end="arrowRight.mouseout"/>
                  </use>
                  <path fill="none" stroke="white" stroke-width="1.5" d="M0,-3.0v7 M-2.5,-0.5L0,-3.0L2.5,-0.5"/>
                </g>
                <g id="arrowDown" xlink:href="#dirArrow" transform="rotate(180) translate(-30 -48)" onmousedown="handlePan(0,1)">
                  <use xlink:href="#rim" fill="#404040">
                        <set attributeName="fill" to="#808080" begin="arrowDown.mouseover" end="arrowDown.mouseout"/>
                  </use>
                  <path fill="none" stroke="white" stroke-width="1.5" d="M0,-3.0v7 M-2.5,-0.5L0,-3.0L2.5,-0.5"/>
                </g>
                <g id="arrowLeft" xlink:href="#dirArrow" transform="rotate(270) translate(-36 17)" onmousedown="handlePan(-1,0)">
                  <use xlink:href="#rim" fill="#404040">
                        <set attributeName="fill" to="#808080" begin="arrowLeft.mouseover" end="arrowLeft.mouseout"/>
                  </use>
                  <path fill="none" stroke="white" stroke-width="1.5" d="M0,-3.0v7 M-2.5,-0.5L0,-3.0L2.5,-0.5"/>
                </g>
        </g>
        <svg viewBox="0 0 15 15" width="100%" height="30px" preserveAspectRatio="xMaxYMin meet">
         <g id="arrow_out" transform="scale(0.3 0.3)">
          <a xlink:href="class_juniper_1_1_data_1_1_abstract_background_thread__inherit__graph_org.svg" target="_base">
           <rect id="button" ry="5" rx="5" y="6" x="6" height="38" width="38"
                fill="#f2f5e9" fill-opacity="0.5" stroke="#606060" stroke-width="1.0"/>
           <path id="arrow"
             d="M 11.500037,31.436501 C 11.940474,20.09759 22.043105,11.32322 32.158766,21.979434 L 37.068811,17.246167 C 37.068811,17.246167 37.088388,32 37.088388,32 L 22.160133,31.978069 C 22.160133,31.978069 26.997745,27.140456 26.997745,27.140456 C 18.528582,18.264221 13.291696,25.230495 11.500037,31.436501 z"
             style="fill:#404040;"/>
          </a>
         </g>
        </svg>
</svg>
