<?xml version="1.0" encoding="UTF-8" standalone="no"?>
<!DOCTYPE svg PUBLIC "-//W3C//DTD SVG 1.1//EN"
 "http://www.w3.org/Graphics/SVG/1.1/DTD/svg11.dtd">
<!-- Generated by graphviz version 2.38.0 (20140413.2041)
 -->
<!-- Title: Juniper.Unity.Display.VuforiaDisplayManager Pages: 1 -->
<!--zoomable 778 -->
<svg id="main" version="1.1" xmlns="http://www.w3.org/2000/svg" xmlns:xlink="http://www.w3.org/1999/xlink" xml:space="preserve" onload="init(evt)">
<style type="text/css"><![CDATA[
.edge:hover path { stroke: red; }
.edge:hover polygon { stroke: red; fill: red; }
]]></style>
<script type="text/javascript"><![CDATA[
var edges = document.getElementsByTagName('g');
if (edges && edges.length) {
  for (var i=0;i<edges.length;i++) {
    if (edges[i].id.substr(0,4)=='edge') {
      edges[i].setAttribute('class','edge');
    }
  }
}
]]></script>
        <defs>
                <circle id="rim" cx="0" cy="0" r="7"/>
                <circle id="rim2" cx="0" cy="0" r="3.5"/>
                <g id="zoomPlus">
                        <use xlink:href="#rim" fill="#404040">
                                <set attributeName="fill" to="#808080" begin="zoomplus.mouseover" end="zoomplus.mouseout"/>
                        </use>
                        <path d="M-4,0h8M0,-4v8" fill="none" stroke="white" stroke-width="1.5" pointer-events="none"/>
                </g>
                <g id="zoomMin">
                        <use xlink:href="#rim" fill="#404040">
                                <set attributeName="fill" to="#808080" begin="zoomminus.mouseover" end="zoomminus.mouseout"/>
                        </use>
                        <path d="M-4,0h8" fill="none" stroke="white" stroke-width="1.5" pointer-events="none"/>
                </g>
                <g id="dirArrow">
                        <path fill="none" stroke="white" stroke-width="1.5" d="M0,-3.0v7 M-2.5,-0.5L0,-3.0L2.5,-0.5"/>
                </g>
               <g id="resetDef">
                       <use xlink:href="#rim2" fill="#404040">
                               <set attributeName="fill" to="#808080" begin="reset.mouseover" end="reset.mouseout"/>
                       </use>
               </g>
        </defs>

<script type="text/javascript">
var viewWidth = 334;
var viewHeight = 778;
var sectionId = 'dynsection-1';
</script>
<script xlink:href="../../svgpan.js"/>
<svg id="graph" class="graph">
<g id="viewport">
<title>Juniper.Unity.Display.VuforiaDisplayManager</title>
<polygon fill="white" stroke="none" points="-4,4 -4,-774 330,-774 330,4 -4,4"/>
<!-- Node4 -->
<g id="node1" class="node"><title>Node4</title>
<g id="a_node1"><a xlink:title=" ">
<polygon fill="#bfbfbf" stroke="black" points="51,-0.5 51,-79.5 189,-79.5 189,-0.5 51,-0.5"/>
<text text-anchor="start" x="59" y="-67.5" font-family="SegoeUI" font-size="10.00">Juniper.Unity.Display.Vuforia</text>
<text text-anchor="middle" x="120" y="-56.5" font-family="SegoeUI" font-size="10.00">DisplayManager</text>
<polyline fill="none" stroke="black" points="51,-49.5 189,-49.5 "/>
<text text-anchor="start" x="59" y="-37.5" font-family="SegoeUI" font-size="10.00">+ DEFAULT_FOV</text>
<polyline fill="none" stroke="black" points="51,-30.5 189,-30.5 "/>
<text text-anchor="start" x="59" y="-18.5" font-family="SegoeUI" font-size="10.00">+ Install()</text>
<text text-anchor="start" x="59" y="-7.5" font-family="SegoeUI" font-size="10.00">+ Uninstall()</text>
</a>
</g>
</g>
<!-- Node5 -->
<g id="node2" class="node"><title>Node5</title>
<g id="a_node2"><a xlink:href="../../da/da5/class_juniper_1_1_unity_1_1_display_1_1_abstract_display_manager.html" target="_top" xlink:title=" ">
<polygon fill="white" stroke="black" points="60.5,-117.5 60.5,-383.5 179.5,-383.5 179.5,-117.5 60.5,-117.5"/>
<text text-anchor="middle" x="120" y="-371.5" font-family="SegoeUI" font-size="10.00">AbstractDisplayManager</text>
<polyline fill="none" stroke="black" points="60.5,-364.5 179.5,-364.5 "/>
<text text-anchor="start" x="68.5" y="-352.5" font-family="SegoeUI" font-size="10.00">+ MainCamera</text>
<text text-anchor="start" x="68.5" y="-341.5" font-family="SegoeUI" font-size="10.00">+ DEFAULT_FOV</text>
<text text-anchor="start" x="68.5" y="-330.5" font-family="SegoeUI" font-size="10.00">+ VerticalFieldOfView</text>
<text text-anchor="start" x="68.5" y="-319.5" font-family="SegoeUI" font-size="10.00">&#45; lastSystem</text>
<text text-anchor="start" x="68.5" y="-308.5" font-family="SegoeUI" font-size="10.00">&#45; lastDisplayType</text>
<text text-anchor="start" x="68.5" y="-297.5" font-family="SegoeUI" font-size="10.00">&#45; lastARMode</text>
<text text-anchor="start" x="68.5" y="-286.5" font-family="SegoeUI" font-size="10.00">&#45; lastOption</text>
<polyline fill="none" stroke="black" points="60.5,-279.5 179.5,-279.5 "/>
<text text-anchor="start" x="68.5" y="-267.5" font-family="SegoeUI" font-size="10.00">+ StartXRDisplay()</text>
<text text-anchor="start" x="68.5" y="-256.5" font-family="SegoeUI" font-size="10.00">+ StopXRDisplay()</text>
<text text-anchor="start" x="68.5" y="-245.5" font-family="SegoeUI" font-size="10.00">+ DisableDisplay()</text>
<text text-anchor="start" x="68.5" y="-234.5" font-family="SegoeUI" font-size="10.00">+ StartAR()</text>
<text text-anchor="start" x="68.5" y="-223.5" font-family="SegoeUI" font-size="10.00">+ StopAR()</text>
<text text-anchor="start" x="68.5" y="-212.5" font-family="SegoeUI" font-size="10.00">+ ToggleAR()</text>
<text text-anchor="start" x="68.5" y="-201.5" font-family="SegoeUI" font-size="10.00">+ Awake()</text>
<text text-anchor="start" x="68.5" y="-190.5" font-family="SegoeUI" font-size="10.00">+ Reinstall()</text>
<text text-anchor="start" x="68.5" y="-179.5" font-family="SegoeUI" font-size="10.00">+ Reset()</text>
<text text-anchor="start" x="68.5" y="-168.5" font-family="SegoeUI" font-size="10.00">+ Install()</text>
<text text-anchor="start" x="68.5" y="-157.5" font-family="SegoeUI" font-size="10.00">+ Uninstall()</text>
<text text-anchor="start" x="68.5" y="-146.5" font-family="SegoeUI" font-size="10.00">+ Update()</text>
<text text-anchor="start" x="68.5" y="-135.5" font-family="SegoeUI" font-size="10.00">&#45; ChangeDisplayType()</text>
<text text-anchor="start" x="68.5" y="-124.5" font-family="SegoeUI" font-size="10.00">&#45; ChangeARMode()</text>
</a>
</g>
</g>
<!-- Node5&#45;&gt;Node4 -->
<g id="edge1" class="edge"><title>Node5&#45;&gt;Node4</title>
<path fill="none" stroke="midnightblue" d="M120,-107.414C120,-97.5332 120,-88.177 120,-79.7743"/>
<polygon fill="none" stroke="midnightblue" points="116.5,-107.454 120,-117.454 123.5,-107.454 116.5,-107.454"/>
</g>
<!-- Node6 -->
<g id="node3" class="node"><title>Node6</title>
<g id="a_node3"><a xlink:title=" ">
<polygon fill="white" stroke="#bfbfbf" points="0,-701.5 0,-758.5 82,-758.5 82,-701.5 0,-701.5"/>
<text text-anchor="middle" x="41" y="-746.5" font-family="SegoeUI" font-size="10.00">MonoBehaviour</text>
<polyline fill="none" stroke="#bfbfbf" points="0,-739.5 82,-739.5 "/>
<text text-anchor="middle" x="41" y="-727.5" font-family="SegoeUI" font-size="10.00"> </text>
<polyline fill="none" stroke="#bfbfbf" points="0,-720.5 82,-720.5 "/>
<text text-anchor="middle" x="41" y="-708.5" font-family="SegoeUI" font-size="10.00"> </text>
</a>
</g>
</g>
<!-- Node6&#45;&gt;Node5 -->
<g id="edge2" class="edge"><title>Node6&#45;&gt;Node5</title>
<path fill="none" stroke="midnightblue" d="M47.2237,-691.382C58.0688,-625.831 80.9169,-487.73 98.1372,-383.645"/>
<polygon fill="none" stroke="midnightblue" points="43.7681,-690.826 45.5888,-701.264 50.6742,-691.969 43.7681,-690.826"/>
</g>
<!-- Node8 -->
<g id="node5" class="node"><title>Node8</title>
<g id="a_node5"><a xlink:href="../../d5/d97/class_juniper_1_1_unity_1_1_juniper_platform.html" target="_top" xlink:title=" ">
<polygon fill="white" stroke="black" points="115,-431.5 115,-642.5 257,-642.5 257,-431.5 115,-431.5"/>
<text text-anchor="middle" x="186" y="-630.5" font-family="SegoeUI" font-size="10.00">Juniper.Unity.JuniperPlatform</text>
<polyline fill="none" stroke="black" points="115,-623.5 257,-623.5 "/>
<text text-anchor="start" x="123" y="-611.5" font-family="SegoeUI" font-size="10.00">+ CurrentPlatform</text>
<text text-anchor="start" x="123" y="-600.5" font-family="SegoeUI" font-size="10.00">+ System</text>
<text text-anchor="start" x="123" y="-589.5" font-family="SegoeUI" font-size="10.00">+ DisplayType</text>
<text text-anchor="start" x="123" y="-578.5" font-family="SegoeUI" font-size="10.00">+ SupportedDisplayType</text>
<text text-anchor="start" x="123" y="-567.5" font-family="SegoeUI" font-size="10.00">+ ARMode</text>
<text text-anchor="start" x="123" y="-556.5" font-family="SegoeUI" font-size="10.00">+ SupportedARMode</text>
<text text-anchor="start" x="123" y="-545.5" font-family="SegoeUI" font-size="10.00">+ Option</text>
<text text-anchor="start" x="123" y="-534.5" font-family="SegoeUI" font-size="10.00">+ VRPlatformHasPassthrough</text>
<text text-anchor="start" x="123" y="-523.5" font-family="SegoeUI" font-size="10.00">+ IsARCapablePlatform</text>
<polyline fill="none" stroke="black" points="115,-516.5 257,-516.5 "/>
<text text-anchor="start" x="123" y="-504.5" font-family="SegoeUI" font-size="10.00">+ Awake()</text>
<text text-anchor="start" x="123" y="-493.5" font-family="SegoeUI" font-size="10.00">+ Reinstall()</text>
<text text-anchor="start" x="123" y="-482.5" font-family="SegoeUI" font-size="10.00">+ Reset()</text>
<text text-anchor="start" x="123" y="-471.5" font-family="SegoeUI" font-size="10.00">+ OnValidate()</text>
<text text-anchor="start" x="123" y="-460.5" font-family="SegoeUI" font-size="10.00">+ Install()</text>
<text text-anchor="start" x="123" y="-449.5" font-family="SegoeUI" font-size="10.00">+ Uninstall()</text>
<text text-anchor="start" x="123" y="-438.5" font-family="SegoeUI" font-size="10.00">+ Ensure()</text>
</a>
</g>
</g>
<!-- Node6&#45;&gt;Node8 -->
<g id="edge5" class="edge"><title>Node6&#45;&gt;Node8</title>
<path fill="none" stroke="midnightblue" d="M68.3159,-693.018C81.5907,-675.532 98.2264,-653.619 114.774,-631.822"/>
<polygon fill="none" stroke="midnightblue" points="65.3432,-691.146 62.0842,-701.227 70.9186,-695.378 65.3432,-691.146"/>
</g>
<!-- Node7 -->
<g id="node4" class="node"><title>Node7</title>
<g id="a_node4"><a xlink:href="../../db/d28/interface_juniper_1_1_i_installable.html" target="_top" xlink:title=" ">
<polygon fill="white" stroke="black" points="102.5,-690.5 102.5,-769.5 171.5,-769.5 171.5,-690.5 102.5,-690.5"/>
<text text-anchor="middle" x="137" y="-757.5" font-family="SegoeUI" font-size="10.00">IInstallable</text>
<polyline fill="none" stroke="black" points="102.5,-750.5 171.5,-750.5 "/>
<text text-anchor="middle" x="137" y="-738.5" font-family="SegoeUI" font-size="10.00"> </text>
<polyline fill="none" stroke="black" points="102.5,-731.5 171.5,-731.5 "/>
<text text-anchor="start" x="110.5" y="-719.5" font-family="SegoeUI" font-size="10.00">+ Install()</text>
<text text-anchor="start" x="110.5" y="-708.5" font-family="SegoeUI" font-size="10.00">+ Reinstall()</text>
<text text-anchor="start" x="110.5" y="-697.5" font-family="SegoeUI" font-size="10.00">+ Uninstall()</text>
</a>
</g>
</g>
<!-- Node7&#45;&gt;Node5 -->
<g id="edge3" class="edge"><title>Node7&#45;&gt;Node5</title>
<path fill="none" stroke="midnightblue" d="M116.366,-680.901C112.079,-668.754 108.199,-655.583 106,-643 91.0743,-557.579 94.4887,-460.133 101.677,-383.829"/>
<polygon fill="none" stroke="midnightblue" points="113.122,-682.22 119.867,-690.391 119.69,-679.798 113.122,-682.22"/>
</g>
<!-- Node7&#45;&gt;Node8 -->
<g id="edge6" class="edge"><title>Node7&#45;&gt;Node8</title>
<path fill="none" stroke="midnightblue" d="M149.463,-680.418C152.464,-668.723 155.784,-655.78 159.165,-642.603"/>
<polygon fill="none" stroke="midnightblue" points="146.011,-679.792 146.916,-690.348 152.791,-681.532 146.011,-679.792"/>
</g>
<!-- Node8&#45;&gt;Node5 -->
<g id="edge4" class="edge"><title>Node8&#45;&gt;Node5</title>
<path fill="none" stroke="#404040" d="M161.705,-431.275C159.004,-419.63 156.218,-407.623 153.429,-395.599"/>
<polygon fill="none" stroke="#404040" points="153.353,-395.271 148.1,-390.33 150.641,-383.582 155.894,-388.522 153.353,-395.271"/>
<text text-anchor="middle" x="166.5" y="-405" font-family="SegoeUI" font-size="10.00"> #jp</text>
</g>
<!-- Node9 -->
<g id="node6" class="node"><title>Node9</title>
<g id="a_node6"><a xlink:title=" ">
<polygon fill="white" stroke="#bfbfbf" points="233.5,-701.5 233.5,-758.5 272.5,-758.5 272.5,-701.5 233.5,-701.5"/>
<text text-anchor="middle" x="253" y="-746.5" font-family="SegoeUI" font-size="10.00">static</text>
<polyline fill="none" stroke="#bfbfbf" points="233.5,-739.5 272.5,-739.5 "/>
<text text-anchor="middle" x="253" y="-727.5" font-family="SegoeUI" font-size="10.00"> </text>
<polyline fill="none" stroke="#bfbfbf" points="233.5,-720.5 272.5,-720.5 "/>
<text text-anchor="middle" x="253" y="-708.5" font-family="SegoeUI" font-size="10.00"> </text>
</a>
</g>
</g>
<!-- Node9&#45;&gt;Node5 -->
<g id="edge8" class="edge"><title>Node9&#45;&gt;Node5</title>
<path fill="none" stroke="#404040" d="M271.558,-701.45C276.62,-692.452 281.418,-682.153 284,-672 310.476,-567.905 305.887,-530.729 266,-431 248.825,-388.058 217.567,-347.434 188.368,-315.729"/>
<polygon fill="none" stroke="#404040" points="188.014,-315.353 180.99,-313.719 179.797,-306.607 186.82,-308.241 188.014,-315.353"/>
<text text-anchor="middle" x="313.5" y="-534.5" font-family="SegoeUI" font-size="10.00"> &#45;cam</text>
</g>
<!-- Node9&#45;&gt;Node8 -->
<g id="edge7" class="edge"><title>Node9&#45;&gt;Node8</title>
<path fill="none" stroke="#404040" d="M233.247,-719.772C215.886,-710.449 191.762,-694.245 181,-672 178.282,-666.381 176.188,-660.469 174.617,-654.387"/>
<polygon fill="none" stroke="#404040" points="174.595,-654.276 169.484,-649.188 172.215,-642.514 177.325,-647.602 174.595,-654.276"/>
<text text-anchor="middle" x="232.5" y="-664" font-family="SegoeUI" font-size="10.00"> +CURRENT_PLATFORM</text>
</g>
</g>
</svg>
        <g id="navigator" transform="translate(0 0)" fill="#404254">
                <rect fill="#f2f5e9" fill-opacity="0.5" stroke="#606060" stroke-width=".5" x="0" y="0" width="60" height="60"/>
                <use id="zoomplus" xlink:href="#zoomPlus" x="17" y="9" onmousedown="handleZoom(evt,'in')"/>
                <use id="zoomminus" xlink:href="#zoomMin" x="42" y="9" onmousedown="handleZoom(evt,'out')"/>
                <use id="reset" xlink:href="#resetDef" x="30" y="36" onmousedown="handleReset()"/>
                <g id="arrowUp" xlink:href="#dirArrow" transform="translate(30 24)" onmousedown="handlePan(0,-1)">
                  <use xlink:href="#rim" fill="#404040">
                        <set attributeName="fill" to="#808080" begin="arrowUp.mouseover" end="arrowUp.mouseout"/>
                  </use>
                  <path fill="none" stroke="white" stroke-width="1.5" d="M0,-3.0v7 M-2.5,-0.5L0,-3.0L2.5,-0.5"/>
                </g>
                <g id="arrowRight" xlink:href="#dirArrow" transform="rotate(90) translate(36 -43)" onmousedown="handlePan(1,0)">
                  <use xlink:href="#rim" fill="#404040">
                        <set attributeName="fill" to="#808080" begin="arrowRight.mouseover" end="arrowRight.mouseout"/>
                  </use>
                  <path fill="none" stroke="white" stroke-width="1.5" d="M0,-3.0v7 M-2.5,-0.5L0,-3.0L2.5,-0.5"/>
                </g>
                <g id="arrowDown" xlink:href="#dirArrow" transform="rotate(180) translate(-30 -48)" onmousedown="handlePan(0,1)">
                  <use xlink:href="#rim" fill="#404040">
                        <set attributeName="fill" to="#808080" begin="arrowDown.mouseover" end="arrowDown.mouseout"/>
                  </use>
                  <path fill="none" stroke="white" stroke-width="1.5" d="M0,-3.0v7 M-2.5,-0.5L0,-3.0L2.5,-0.5"/>
                </g>
                <g id="arrowLeft" xlink:href="#dirArrow" transform="rotate(270) translate(-36 17)" onmousedown="handlePan(-1,0)">
                  <use xlink:href="#rim" fill="#404040">
                        <set attributeName="fill" to="#808080" begin="arrowLeft.mouseover" end="arrowLeft.mouseout"/>
                  </use>
                  <path fill="none" stroke="white" stroke-width="1.5" d="M0,-3.0v7 M-2.5,-0.5L0,-3.0L2.5,-0.5"/>
                </g>
        </g>
        <svg viewBox="0 0 15 15" width="100%" height="30px" preserveAspectRatio="xMaxYMin meet">
         <g id="arrow_out" transform="scale(0.3 0.3)">
          <a xlink:href="class_juniper_1_1_unity_1_1_display_1_1_vuforia_display_manager__coll__graph_org.svg" target="_base">
           <rect id="button" ry="5" rx="5" y="6" x="6" height="38" width="38"
                fill="#f2f5e9" fill-opacity="0.5" stroke="#606060" stroke-width="1.0"/>
           <path id="arrow"
             d="M 11.500037,31.436501 C 11.940474,20.09759 22.043105,11.32322 32.158766,21.979434 L 37.068811,17.246167 C 37.068811,17.246167 37.088388,32 37.088388,32 L 22.160133,31.978069 C 22.160133,31.978069 26.997745,27.140456 26.997745,27.140456 C 18.528582,18.264221 13.291696,25.230495 11.500037,31.436501 z"
             style="fill:#404040;"/>
          </a>
         </g>
        </svg>
</svg>
