<?xml version="1.0" encoding="UTF-8" standalone="no"?>
<!DOCTYPE svg PUBLIC "-//W3C//DTD SVG 1.1//EN"
 "http://www.w3.org/Graphics/SVG/1.1/DTD/svg11.dtd">
<!-- Generated by graphviz version 2.38.0 (20140413.2041)
 -->
<!-- Title: Juniper.Widgets.Clickable Pages: 1 -->
<svg width="804pt" height="777pt"
 viewBox="0.00 0.00 803.50 777.00" xmlns="http://www.w3.org/2000/svg" xmlns:xlink="http://www.w3.org/1999/xlink">
<g id="graph0" class="graph" transform="scale(1 1) rotate(0) translate(4 773)">
<title>Juniper.Widgets.Clickable</title>
<polygon fill="white" stroke="none" points="-4,4 -4,-773 799.5,-773 799.5,4 -4,4"/>
<!-- Node0 -->
<g id="node1" class="node"><title>Node0</title>
<g id="a_node1"><a xlink:title="An object that can be Touched on a screen or Clicked with a mouse and fires an event in response.">
<polygon fill="#bfbfbf" stroke="black" points="485.5,-204.5 485.5,-327.5 610.5,-327.5 610.5,-204.5 485.5,-204.5"/>
<text text-anchor="middle" x="548" y="-315.5" font-family="SegoeUI" font-size="10.00">Juniper.Widgets.Clickable</text>
<polyline fill="none" stroke="black" points="485.5,-308.5 610.5,-308.5 "/>
<text text-anchor="start" x="493.5" y="-296.5" font-family="SegoeUI" font-size="10.00">+ onClick</text>
<text text-anchor="start" x="493.5" y="-285.5" font-family="SegoeUI" font-size="10.00">+ onLongPress</text>
<polyline fill="none" stroke="black" points="485.5,-278.5 610.5,-278.5 "/>
<text text-anchor="start" x="493.5" y="-266.5" font-family="SegoeUI" font-size="10.00">+ OnPointerClick()</text>
<text text-anchor="start" x="493.5" y="-255.5" font-family="SegoeUI" font-size="10.00">+ OnClick()</text>
<text text-anchor="start" x="493.5" y="-244.5" font-family="SegoeUI" font-size="10.00">+ ActivateClick()</text>
<text text-anchor="start" x="493.5" y="-233.5" font-family="SegoeUI" font-size="10.00">+ OnLongPress()</text>
<text text-anchor="start" x="493.5" y="-222.5" font-family="SegoeUI" font-size="10.00">+ OnLongPress()</text>
<text text-anchor="start" x="493.5" y="-211.5" font-family="SegoeUI" font-size="10.00">+ OnLongPressUpdate()</text>
</a>
</g>
</g>
<!-- Node11 -->
<g id="node12" class="node"><title>Node11</title>
<g id="a_node12"><a xlink:href="../../dc/d25/class_juniper_1_1_widgets_1_1_openable.html" target="_top" xlink:title="A control that is a container of other controls that are hidden until the control is clicked.">
<polygon fill="white" stroke="black" points="408,-0.5 408,-167.5 536,-167.5 536,-0.5 408,-0.5"/>
<text text-anchor="middle" x="472" y="-155.5" font-family="SegoeUI" font-size="10.00">Juniper.Widgets.Openable</text>
<polyline fill="none" stroke="black" points="408,-148.5 536,-148.5 "/>
<text text-anchor="start" x="416" y="-136.5" font-family="SegoeUI" font-size="10.00">+ payload</text>
<text text-anchor="start" x="416" y="-125.5" font-family="SegoeUI" font-size="10.00">+ Open</text>
<text text-anchor="start" x="416" y="-114.5" font-family="SegoeUI" font-size="10.00">+ OpenChanged</text>
<text text-anchor="start" x="416" y="-103.5" font-family="SegoeUI" font-size="10.00">+ Opened</text>
<text text-anchor="start" x="416" y="-92.5" font-family="SegoeUI" font-size="10.00">+ Closed</text>
<text text-anchor="start" x="416" y="-81.5" font-family="SegoeUI" font-size="10.00">&#45; stater</text>
<text text-anchor="start" x="416" y="-70.5" font-family="SegoeUI" font-size="10.00">&#45; wasOpen</text>
<polyline fill="none" stroke="black" points="408,-63.5 536,-63.5 "/>
<text text-anchor="start" x="416" y="-51.5" font-family="SegoeUI" font-size="10.00">+ SetOpen()</text>
<text text-anchor="start" x="416" y="-40.5" font-family="SegoeUI" font-size="10.00">+ ToggleOpen()</text>
<text text-anchor="start" x="416" y="-29.5" font-family="SegoeUI" font-size="10.00">+ OnPointerClick()</text>
<text text-anchor="start" x="416" y="-18.5" font-family="SegoeUI" font-size="10.00">+ Update()</text>
<text text-anchor="start" x="416" y="-7.5" font-family="SegoeUI" font-size="10.00"># LateUpdate()</text>
</a>
</g>
</g>
<!-- Node0&#45;&gt;Node11 -->
<g id="edge11" class="edge"><title>Node0&#45;&gt;Node11</title>
<path fill="none" stroke="midnightblue" d="M518.367,-194.817C514.625,-185.955 510.769,-176.822 506.955,-167.787"/>
<polygon fill="none" stroke="midnightblue" points="515.262,-196.46 522.376,-204.311 521.71,-193.737 515.262,-196.46"/>
</g>
<!-- Node12 -->
<g id="node13" class="node"><title>Node12</title>
<g id="a_node13"><a xlink:href="../../d2/da9/class_juniper_1_1_widgets_1_1_teleport_pad.html" target="_top" xlink:title=" ">
<polygon fill="white" stroke="black" points="554,-28 554,-140 694,-140 694,-28 554,-28"/>
<text text-anchor="middle" x="624" y="-128" font-family="SegoeUI" font-size="10.00">Juniper.Widgets.TeleportPad</text>
<polyline fill="none" stroke="black" points="554,-121 694,-121 "/>
<text text-anchor="start" x="562" y="-109" font-family="SegoeUI" font-size="10.00">&#45; userT</text>
<text text-anchor="start" x="562" y="-98" font-family="SegoeUI" font-size="10.00">&#45; user</text>
<text text-anchor="start" x="562" y="-87" font-family="SegoeUI" font-size="10.00">&#45; darth</text>
<text text-anchor="start" x="562" y="-76" font-family="SegoeUI" font-size="10.00">&#45; running</text>
<polyline fill="none" stroke="black" points="554,-69 694,-69 "/>
<text text-anchor="start" x="562" y="-57" font-family="SegoeUI" font-size="10.00">+ OnClick()</text>
<text text-anchor="start" x="562" y="-46" font-family="SegoeUI" font-size="10.00">&#45; Start()</text>
<text text-anchor="start" x="562" y="-35" font-family="SegoeUI" font-size="10.00">&#45; Darth_Entered()</text>
</a>
</g>
</g>
<!-- Node0&#45;&gt;Node12 -->
<g id="edge12" class="edge"><title>Node0&#45;&gt;Node12</title>
<path fill="none" stroke="midnightblue" d="M577.578,-194.948C585.235,-176.812 593.373,-157.539 600.661,-140.278"/>
<polygon fill="none" stroke="midnightblue" points="574.29,-193.737 573.624,-204.311 580.738,-196.46 574.29,-193.737"/>
</g>
<!-- Node1 -->
<g id="node2" class="node"><title>Node1</title>
<g id="a_node2"><a xlink:href="../../d7/d8c/class_juniper_1_1_widgets_1_1_abstract_touchable.html" target="_top" xlink:title="The base class for all interactive, AR&#45;compatible, GUI controls /// This class is abstract to avoid i...">
<polygon fill="white" stroke="black" points="331,-364.5 331,-674.5 457,-674.5 457,-364.5 331,-364.5"/>
<text text-anchor="middle" x="394" y="-662.5" font-family="SegoeUI" font-size="10.00">AbstractTouchable</text>
<polyline fill="none" stroke="black" points="331,-655.5 457,-655.5 "/>
<text text-anchor="start" x="339" y="-643.5" font-family="SegoeUI" font-size="10.00">+ clickButton</text>
<text text-anchor="start" x="339" y="-632.5" font-family="SegoeUI" font-size="10.00">+ disabled</text>
<text text-anchor="start" x="339" y="-621.5" font-family="SegoeUI" font-size="10.00">+ pointerPosition</text>
<text text-anchor="start" x="339" y="-610.5" font-family="SegoeUI" font-size="10.00">+ PART_NAMES</text>
<text text-anchor="start" x="339" y="-599.5" font-family="SegoeUI" font-size="10.00">+ DisabledChanged</text>
<text text-anchor="start" x="339" y="-588.5" font-family="SegoeUI" font-size="10.00">+ DisabledDown</text>
<text text-anchor="start" x="339" y="-577.5" font-family="SegoeUI" font-size="10.00">+ DisabledUp</text>
<text text-anchor="start" x="339" y="-566.5" font-family="SegoeUI" font-size="10.00">+ IsDisabled</text>
<text text-anchor="start" x="339" y="-555.5" font-family="SegoeUI" font-size="10.00">+ PointerPositionChanged</text>
<text text-anchor="start" x="339" y="-544.5" font-family="SegoeUI" font-size="10.00"># lastPointerPosition</text>
<text text-anchor="start" x="339" y="-533.5" font-family="SegoeUI" font-size="10.00">&#45; animator</text>
<text text-anchor="start" x="339" y="-522.5" font-family="SegoeUI" font-size="10.00">&#45; wasDisabled</text>
<polyline fill="none" stroke="black" points="331,-515.5 457,-515.5 "/>
<text text-anchor="start" x="339" y="-503.5" font-family="SegoeUI" font-size="10.00">+ IsInteractable()</text>
<text text-anchor="start" x="339" y="-492.5" font-family="SegoeUI" font-size="10.00">+ SetDisabled()</text>
<text text-anchor="start" x="339" y="-481.5" font-family="SegoeUI" font-size="10.00">+ ToggleEnabled()</text>
<text text-anchor="start" x="339" y="-470.5" font-family="SegoeUI" font-size="10.00">+ Update()</text>
<text text-anchor="start" x="339" y="-459.5" font-family="SegoeUI" font-size="10.00">+ OnPointerEnter()</text>
<text text-anchor="start" x="339" y="-448.5" font-family="SegoeUI" font-size="10.00">+ OnPointerExit()</text>
<text text-anchor="start" x="339" y="-437.5" font-family="SegoeUI" font-size="10.00">+ OnPointerDown()</text>
<text text-anchor="start" x="339" y="-426.5" font-family="SegoeUI" font-size="10.00">+ OnPointerUp()</text>
<text text-anchor="start" x="339" y="-415.5" font-family="SegoeUI" font-size="10.00"># LateUpdate()</text>
<text text-anchor="start" x="339" y="-404.5" font-family="SegoeUI" font-size="10.00"># ShowState()</text>
<text text-anchor="start" x="339" y="-393.5" font-family="SegoeUI" font-size="10.00"># GetPosition()</text>
<text text-anchor="start" x="339" y="-382.5" font-family="SegoeUI" font-size="10.00">&#45; Awake()</text>
<text text-anchor="start" x="339" y="-371.5" font-family="SegoeUI" font-size="10.00">&#45; NormalizePart()</text>
</a>
</g>
</g>
<!-- Node1&#45;&gt;Node0 -->
<g id="edge1" class="edge"><title>Node1&#45;&gt;Node0</title>
<path fill="none" stroke="midnightblue" d="M462.433,-405.804C471.026,-391.719 479.706,-377.519 488,-364 495.196,-352.269 502.908,-339.759 510.324,-327.757"/>
<polygon fill="none" stroke="midnightblue" points="459.317,-404.192 457.099,-414.552 465.294,-407.837 459.317,-404.192"/>
</g>
<!-- Node2 -->
<g id="node3" class="node"><title>Node2</title>
<g id="a_node3"><a xlink:title=" ">
<polygon fill="white" stroke="#bfbfbf" points="0,-711.5 0,-768.5 82,-768.5 82,-711.5 0,-711.5"/>
<text text-anchor="middle" x="41" y="-756.5" font-family="SegoeUI" font-size="10.00">MonoBehaviour</text>
<polyline fill="none" stroke="#bfbfbf" points="0,-749.5 82,-749.5 "/>
<text text-anchor="middle" x="41" y="-737.5" font-family="SegoeUI" font-size="10.00"> </text>
<polyline fill="none" stroke="#bfbfbf" points="0,-730.5 82,-730.5 "/>
<text text-anchor="middle" x="41" y="-718.5" font-family="SegoeUI" font-size="10.00"> </text>
</a>
</g>
</g>
<!-- Node2&#45;&gt;Node1 -->
<g id="edge2" class="edge"><title>Node2&#45;&gt;Node1</title>
<path fill="none" stroke="midnightblue" d="M90.7515,-708.205C153.668,-669.261 262.059,-602.169 330.778,-559.633"/>
<polygon fill="none" stroke="midnightblue" points="88.8453,-705.268 82.1844,-713.508 92.5295,-711.22 88.8453,-705.268"/>
</g>
<!-- Node3 -->
<g id="node4" class="node"><title>Node3</title>
<g id="a_node4"><a xlink:title=" ">
<polygon fill="white" stroke="#bfbfbf" points="100.5,-711.5 100.5,-768.5 205.5,-768.5 205.5,-711.5 100.5,-711.5"/>
<text text-anchor="middle" x="153" y="-756.5" font-family="SegoeUI" font-size="10.00">IPointerEnterHandler</text>
<polyline fill="none" stroke="#bfbfbf" points="100.5,-749.5 205.5,-749.5 "/>
<text text-anchor="middle" x="153" y="-737.5" font-family="SegoeUI" font-size="10.00"> </text>
<polyline fill="none" stroke="#bfbfbf" points="100.5,-730.5 205.5,-730.5 "/>
<text text-anchor="middle" x="153" y="-718.5" font-family="SegoeUI" font-size="10.00"> </text>
</a>
</g>
</g>
<!-- Node3&#45;&gt;Node1 -->
<g id="edge3" class="edge"><title>Node3&#45;&gt;Node1</title>
<path fill="none" stroke="midnightblue" d="M191.199,-704.368C228.673,-670.392 286.485,-617.977 330.81,-577.79"/>
<polygon fill="none" stroke="midnightblue" points="188.58,-702.017 183.523,-711.327 193.282,-707.203 188.58,-702.017"/>
</g>
<!-- Node4 -->
<g id="node5" class="node"><title>Node4</title>
<g id="a_node5"><a xlink:title=" ">
<polygon fill="white" stroke="#bfbfbf" points="224,-711.5 224,-768.5 322,-768.5 322,-711.5 224,-711.5"/>
<text text-anchor="middle" x="273" y="-756.5" font-family="SegoeUI" font-size="10.00">IPointerExitHandler</text>
<polyline fill="none" stroke="#bfbfbf" points="224,-749.5 322,-749.5 "/>
<text text-anchor="middle" x="273" y="-737.5" font-family="SegoeUI" font-size="10.00"> </text>
<polyline fill="none" stroke="#bfbfbf" points="224,-730.5 322,-730.5 "/>
<text text-anchor="middle" x="273" y="-718.5" font-family="SegoeUI" font-size="10.00"> </text>
</a>
</g>
</g>
<!-- Node4&#45;&gt;Node1 -->
<g id="edge4" class="edge"><title>Node4&#45;&gt;Node1</title>
<path fill="none" stroke="midnightblue" d="M293.229,-702.472C303.728,-683.513 317.191,-659.201 330.835,-634.562"/>
<polygon fill="none" stroke="midnightblue" points="290.107,-700.883 288.325,-711.327 296.231,-704.274 290.107,-700.883"/>
</g>
<!-- Node5 -->
<g id="node6" class="node"><title>Node5</title>
<g id="a_node6"><a xlink:title=" ">
<polygon fill="white" stroke="#bfbfbf" points="340.5,-711.5 340.5,-768.5 447.5,-768.5 447.5,-711.5 340.5,-711.5"/>
<text text-anchor="middle" x="394" y="-756.5" font-family="SegoeUI" font-size="10.00">IPointerDownHandler</text>
<polyline fill="none" stroke="#bfbfbf" points="340.5,-749.5 447.5,-749.5 "/>
<text text-anchor="middle" x="394" y="-737.5" font-family="SegoeUI" font-size="10.00"> </text>
<polyline fill="none" stroke="#bfbfbf" points="340.5,-730.5 447.5,-730.5 "/>
<text text-anchor="middle" x="394" y="-718.5" font-family="SegoeUI" font-size="10.00"> </text>
</a>
</g>
</g>
<!-- Node5&#45;&gt;Node1 -->
<g id="edge5" class="edge"><title>Node5&#45;&gt;Node1</title>
<path fill="none" stroke="midnightblue" d="M394,-701.281C394,-693.208 394,-684.205 394,-674.648"/>
<polygon fill="none" stroke="midnightblue" points="390.5,-701.327 394,-711.327 397.5,-701.327 390.5,-701.327"/>
</g>
<!-- Node6 -->
<g id="node7" class="node"><title>Node6</title>
<g id="a_node7"><a xlink:title=" ">
<polygon fill="white" stroke="#bfbfbf" points="466,-711.5 466,-768.5 560,-768.5 560,-711.5 466,-711.5"/>
<text text-anchor="middle" x="513" y="-756.5" font-family="SegoeUI" font-size="10.00">IPointerUpHandler</text>
<polyline fill="none" stroke="#bfbfbf" points="466,-749.5 560,-749.5 "/>
<text text-anchor="middle" x="513" y="-737.5" font-family="SegoeUI" font-size="10.00"> </text>
<polyline fill="none" stroke="#bfbfbf" points="466,-730.5 560,-730.5 "/>
<text text-anchor="middle" x="513" y="-718.5" font-family="SegoeUI" font-size="10.00"> </text>
</a>
</g>
</g>
<!-- Node6&#45;&gt;Node1 -->
<g id="edge6" class="edge"><title>Node6&#45;&gt;Node1</title>
<path fill="none" stroke="midnightblue" d="M493.086,-702.434C483.041,-683.991 470.241,-660.489 457.203,-636.55"/>
<polygon fill="none" stroke="midnightblue" points="490.072,-704.219 497.929,-711.327 496.219,-700.871 490.072,-704.219"/>
</g>
<!-- Node7 -->
<g id="node8" class="node"><title>Node7</title>
<g id="a_node8"><a xlink:href="../../da/d7e/interface_juniper_1_1_events_1_1_i_interactable.html" target="_top" xlink:title="An interface for custom controls to report to the Input.UnifiedInputModule that they are enabled/disa...">
<polygon fill="white" stroke="black" points="578,-711.5 578,-768.5 670,-768.5 670,-711.5 578,-711.5"/>
<text text-anchor="middle" x="624" y="-756.5" font-family="SegoeUI" font-size="10.00">IInteractable</text>
<polyline fill="none" stroke="black" points="578,-749.5 670,-749.5 "/>
<text text-anchor="middle" x="624" y="-737.5" font-family="SegoeUI" font-size="10.00"> </text>
<polyline fill="none" stroke="black" points="578,-730.5 670,-730.5 "/>
<text text-anchor="start" x="586" y="-718.5" font-family="SegoeUI" font-size="10.00">+ IsInteractable()</text>
</a>
</g>
</g>
<!-- Node7&#45;&gt;Node1 -->
<g id="edge7" class="edge"><title>Node7&#45;&gt;Node1</title>
<path fill="none" stroke="midnightblue" d="M568.434,-711.008C531.006,-694.908 515.39,-699.082 488,-675 476.8,-665.152 466.52,-653.64 457.204,-641.42"/>
<polygon fill="none" stroke="midnightblue" points="567.322,-714.346 577.874,-715.296 570.217,-707.973 567.322,-714.346"/>
</g>
<!-- Node8 -->
<g id="node9" class="node"><title>Node8</title>
<g id="a_node9"><a xlink:title=" ">
<polygon fill="white" stroke="#bfbfbf" points="497,-491 497,-548 599,-548 599,-491 497,-491"/>
<text text-anchor="middle" x="548" y="-536" font-family="SegoeUI" font-size="10.00">IPointerClickHandler</text>
<polyline fill="none" stroke="#bfbfbf" points="497,-529 599,-529 "/>
<text text-anchor="middle" x="548" y="-517" font-family="SegoeUI" font-size="10.00"> </text>
<polyline fill="none" stroke="#bfbfbf" points="497,-510 599,-510 "/>
<text text-anchor="middle" x="548" y="-498" font-family="SegoeUI" font-size="10.00"> </text>
</a>
</g>
</g>
<!-- Node8&#45;&gt;Node0 -->
<g id="edge8" class="edge"><title>Node8&#45;&gt;Node0</title>
<path fill="none" stroke="midnightblue" d="M548,-480.372C548,-439.867 548,-375.245 548,-327.72"/>
<polygon fill="none" stroke="midnightblue" points="544.5,-480.624 548,-490.624 551.5,-480.624 544.5,-480.624"/>
</g>
<!-- Node9 -->
<g id="node10" class="node"><title>Node9</title>
<g id="a_node10"><a xlink:href="../../d7/db1/interface_juniper_1_1_events_1_1_i_long_press_handler.html" target="_top" xlink:title="Like a click event, but taking a lot longer to fulfill.">
<polygon fill="white" stroke="black" points="660.5,-485.5 660.5,-553.5 779.5,-553.5 779.5,-485.5 660.5,-485.5"/>
<text text-anchor="middle" x="720" y="-541.5" font-family="SegoeUI" font-size="10.00">ILongPressHandler</text>
<polyline fill="none" stroke="black" points="660.5,-534.5 779.5,-534.5 "/>
<text text-anchor="middle" x="720" y="-522.5" font-family="SegoeUI" font-size="10.00"> </text>
<polyline fill="none" stroke="black" points="660.5,-515.5 779.5,-515.5 "/>
<text text-anchor="start" x="668.5" y="-503.5" font-family="SegoeUI" font-size="10.00">+ OnLongPressUpdate()</text>
<text text-anchor="start" x="668.5" y="-492.5" font-family="SegoeUI" font-size="10.00">+ OnLongPress()</text>
</a>
</g>
</g>
<!-- Node9&#45;&gt;Node0 -->
<g id="edge9" class="edge"><title>Node9&#45;&gt;Node0</title>
<path fill="none" stroke="midnightblue" d="M691.641,-477.033C663.842,-436.385 621.154,-373.967 589.532,-327.728"/>
<polygon fill="none" stroke="midnightblue" points="688.803,-479.084 697.337,-485.362 694.581,-475.132 688.803,-479.084"/>
</g>
<!-- Node10 -->
<g id="node11" class="node"><title>Node10</title>
<g id="a_node11"><a xlink:title=" ">
<polygon fill="white" stroke="#bfbfbf" points="688.5,-711.5 688.5,-768.5 795.5,-768.5 795.5,-711.5 688.5,-711.5"/>
<text text-anchor="middle" x="742" y="-756.5" font-family="SegoeUI" font-size="10.00">IEventSystemHandler</text>
<polyline fill="none" stroke="#bfbfbf" points="688.5,-749.5 795.5,-749.5 "/>
<text text-anchor="middle" x="742" y="-737.5" font-family="SegoeUI" font-size="10.00"> </text>
<polyline fill="none" stroke="#bfbfbf" points="688.5,-730.5 795.5,-730.5 "/>
<text text-anchor="middle" x="742" y="-718.5" font-family="SegoeUI" font-size="10.00"> </text>
</a>
</g>
</g>
<!-- Node10&#45;&gt;Node9 -->
<g id="edge10" class="edge"><title>Node10&#45;&gt;Node9</title>
<path fill="none" stroke="midnightblue" d="M738.205,-701.311C734.015,-659.699 727.335,-593.355 723.338,-553.652"/>
<polygon fill="none" stroke="midnightblue" points="734.729,-701.728 739.214,-711.327 741.694,-701.026 734.729,-701.728"/>
</g>
</g>
</svg>
