<?xml version="1.0" encoding="UTF-8" standalone="no"?>
<!DOCTYPE svg PUBLIC "-//W3C//DTD SVG 1.1//EN"
 "http://www.w3.org/Graphics/SVG/1.1/DTD/svg11.dtd">
<!-- Generated by graphviz version 2.38.0 (20140413.2041)
 -->
<!-- Title: Juniper.Unity.Events.ButtonEventEditor Pages: 1 -->
<svg width="140pt" height="248pt"
 viewBox="0.00 0.00 140.00 248.00" xmlns="http://www.w3.org/2000/svg" xmlns:xlink="http://www.w3.org/1999/xlink">
<g id="graph0" class="graph" transform="scale(1 1) rotate(0) translate(4 244)">
<title>Juniper.Unity.Events.ButtonEventEditor</title>
<polygon fill="white" stroke="none" points="-4,4 -4,-244 136,-244 136,4 -4,4"/>
<!-- Node0 -->
<g id="node1" class="node"><title>Node0</title>
<g id="a_node1"><a xlink:title=" ">
<polygon fill="#bfbfbf" stroke="black" points="0,-0.5 0,-145.5 132,-145.5 132,-0.5 0,-0.5"/>
<text text-anchor="start" x="8" y="-133.5" font-family="SegoeUI" font-size="10.00">Juniper.Unity.Events.Button</text>
<text text-anchor="middle" x="66" y="-122.5" font-family="SegoeUI" font-size="10.00">EventEditor</text>
<polyline fill="none" stroke="black" points="0,-115.5 132,-115.5 "/>
<text text-anchor="start" x="8" y="-103.5" font-family="SegoeUI" font-size="10.00">&#45; FIELD_ONCLICK</text>
<text text-anchor="start" x="8" y="-92.5" font-family="SegoeUI" font-size="10.00">&#45; FIELD_ONDOUBLECLICK</text>
<text text-anchor="start" x="8" y="-81.5" font-family="SegoeUI" font-size="10.00">&#45; FIELD_ONLONGPRESS</text>
<text text-anchor="start" x="8" y="-70.5" font-family="SegoeUI" font-size="10.00">&#45; FIELD_ONDOWN</text>
<text text-anchor="start" x="8" y="-59.5" font-family="SegoeUI" font-size="10.00">&#45; FIELD_ONUP</text>
<text text-anchor="start" x="8" y="-48.5" font-family="SegoeUI" font-size="10.00">&#45; _</text>
<text text-anchor="start" x="8" y="-37.5" font-family="SegoeUI" font-size="10.00">&#45; ButtonTypeLabel</text>
<text text-anchor="start" x="8" y="-26.5" font-family="SegoeUI" font-size="10.00">&#45; ButtonValueLabel</text>
<polyline fill="none" stroke="black" points="0,-19.5 132,-19.5 "/>
<text text-anchor="start" x="8" y="-7.5" font-family="SegoeUI" font-size="10.00">+ OnInspectorGUI()</text>
</a>
</g>
</g>
<!-- Node1 -->
<g id="node2" class="node"><title>Node1</title>
<g id="a_node2"><a xlink:title=" ">
<polygon fill="white" stroke="#bfbfbf" points="45.5,-182.5 45.5,-239.5 86.5,-239.5 86.5,-182.5 45.5,-182.5"/>
<text text-anchor="middle" x="66" y="-227.5" font-family="SegoeUI" font-size="10.00">Editor</text>
<polyline fill="none" stroke="#bfbfbf" points="45.5,-220.5 86.5,-220.5 "/>
<text text-anchor="middle" x="66" y="-208.5" font-family="SegoeUI" font-size="10.00"> </text>
<polyline fill="none" stroke="#bfbfbf" points="45.5,-201.5 86.5,-201.5 "/>
<text text-anchor="middle" x="66" y="-189.5" font-family="SegoeUI" font-size="10.00"> </text>
</a>
</g>
</g>
<!-- Node1&#45;&gt;Node0 -->
<g id="edge1" class="edge"><title>Node1&#45;&gt;Node0</title>
<path fill="none" stroke="midnightblue" d="M66,-172.356C66,-163.999 66,-154.872 66,-145.656"/>
<polygon fill="none" stroke="midnightblue" points="62.5001,-172.478 66,-182.478 69.5001,-172.478 62.5001,-172.478"/>
</g>
</g>
</svg>
