<?xml version="1.0" encoding="UTF-8" standalone="no"?>
<!DOCTYPE svg PUBLIC "-//W3C//DTD SVG 1.1//EN"
 "http://www.w3.org/Graphics/SVG/1.1/DTD/svg11.dtd">
<!-- Generated by graphviz version 2.38.0 (20140413.2041)
 -->
<!-- Title: Juniper.Audio.ResonanceInteractionAudio Pages: 1 -->
<svg width="181pt" height="997pt"
 viewBox="0.00 0.00 181.00 997.00" xmlns="http://www.w3.org/2000/svg" xmlns:xlink="http://www.w3.org/1999/xlink">
<g id="graph0" class="graph" transform="scale(1 1) rotate(0) translate(4 993)">
<title>Juniper.Audio.ResonanceInteractionAudio</title>
<polygon fill="white" stroke="none" points="-4,4 -4,-993 177,-993 177,4 -4,4"/>
<!-- Node0 -->
<g id="node1" class="node"><title>Node0</title>
<g id="a_node1"><a xlink:title=" ">
<polygon fill="#bfbfbf" stroke="black" points="3,-105.5 3,-217.5 173,-217.5 173,-105.5 3,-105.5"/>
<text text-anchor="start" x="11" y="-205.5" font-family="SegoeUI" font-size="10.00">Juniper.Audio.ResonanceInteraction</text>
<text text-anchor="middle" x="88" y="-194.5" font-family="SegoeUI" font-size="10.00">Audio</text>
<polyline fill="none" stroke="black" points="3,-187.5 173,-187.5 "/>
<text text-anchor="start" x="11" y="-175.5" font-family="SegoeUI" font-size="10.00">+ DefaultAudioMixer</text>
<text text-anchor="start" x="11" y="-164.5" font-family="SegoeUI" font-size="10.00"># resListener</text>
<polyline fill="none" stroke="black" points="3,-157.5 173,-157.5 "/>
<text text-anchor="start" x="11" y="-145.5" font-family="SegoeUI" font-size="10.00">+ Install()</text>
<text text-anchor="start" x="11" y="-134.5" font-family="SegoeUI" font-size="10.00">+ Uninstall()</text>
<text text-anchor="start" x="11" y="-123.5" font-family="SegoeUI" font-size="10.00"># InternalSpatialize()</text>
<text text-anchor="start" x="11" y="-112.5" font-family="SegoeUI" font-size="10.00">&#45; OnDisplayTypeChange()</text>
</a>
</g>
</g>
<!-- Node4 -->
<g id="node5" class="node"><title>Node4</title>
<g id="a_node5"><a xlink:href="../../d6/d01/class_juniper_1_1_audio_1_1_interaction_audio.html" target="_top" xlink:title="The audio portion of the interaction system.">
<polygon fill="white" stroke="black" points="26.5,-0.5 26.5,-68.5 149.5,-68.5 149.5,-0.5 26.5,-0.5"/>
<text text-anchor="start" x="34.5" y="-56.5" font-family="SegoeUI" font-size="10.00">Juniper.Audio.Interaction</text>
<text text-anchor="middle" x="88" y="-45.5" font-family="SegoeUI" font-size="10.00">Audio</text>
<polyline fill="none" stroke="black" points="26.5,-38.5 149.5,-38.5 "/>
<text text-anchor="middle" x="88" y="-26.5" font-family="SegoeUI" font-size="10.00"> </text>
<polyline fill="none" stroke="black" points="26.5,-19.5 149.5,-19.5 "/>
<text text-anchor="middle" x="88" y="-7.5" font-family="SegoeUI" font-size="10.00"> </text>
</a>
</g>
</g>
<!-- Node0&#45;&gt;Node4 -->
<g id="edge4" class="edge"><title>Node0&#45;&gt;Node4</title>
<path fill="none" stroke="midnightblue" d="M88,-95.2571C88,-85.9867 88,-76.797 88,-68.5058"/>
<polygon fill="none" stroke="midnightblue" points="84.5001,-95.3093 88,-105.309 91.5001,-95.3094 84.5001,-95.3093"/>
</g>
<!-- Node1 -->
<g id="node2" class="node"><title>Node1</title>
<g id="a_node2"><a xlink:href="../../d1/d43/class_juniper_1_1_audio_1_1_abstract_interaction_audio.html" target="_top" xlink:title="The audio portion of the interaction system.">
<polygon fill="white" stroke="black" points="22,-254.5 22,-872.5 154,-872.5 154,-254.5 22,-254.5"/>
<text text-anchor="middle" x="88" y="-860.5" font-family="SegoeUI" font-size="10.00">AbstractInteractionAudio</text>
<polyline fill="none" stroke="black" points="22,-853.5 154,-853.5 "/>
<text text-anchor="start" x="30" y="-841.5" font-family="SegoeUI" font-size="10.00">+ defaultMixerGroup</text>
<text text-anchor="start" x="30" y="-830.5" font-family="SegoeUI" font-size="10.00">+ volumeSlider</text>
<text text-anchor="start" x="30" y="-819.5" font-family="SegoeUI" font-size="10.00">+ soundOnClosed</text>
<text text-anchor="start" x="30" y="-808.5" font-family="SegoeUI" font-size="10.00">+ soundOnDisabled</text>
<text text-anchor="start" x="30" y="-797.5" font-family="SegoeUI" font-size="10.00">+ soundOnDragged</text>
<text text-anchor="start" x="30" y="-786.5" font-family="SegoeUI" font-size="10.00">+ soundOnEntered</text>
<text text-anchor="start" x="30" y="-775.5" font-family="SegoeUI" font-size="10.00">+ soundOnError</text>
<text text-anchor="start" x="30" y="-764.5" font-family="SegoeUI" font-size="10.00">+ soundOnExited</text>
<text text-anchor="start" x="30" y="-753.5" font-family="SegoeUI" font-size="10.00">+ soundOnOpened</text>
<text text-anchor="start" x="30" y="-742.5" font-family="SegoeUI" font-size="10.00">+ soundOnReleased</text>
<text text-anchor="start" x="30" y="-731.5" font-family="SegoeUI" font-size="10.00">+ soundOnScrolled</text>
<text text-anchor="start" x="30" y="-720.5" font-family="SegoeUI" font-size="10.00">+ soundOnSelected</text>
<text text-anchor="start" x="30" y="-709.5" font-family="SegoeUI" font-size="10.00">+ soundOnSuccess</text>
<text text-anchor="start" x="30" y="-698.5" font-family="SegoeUI" font-size="10.00">+ soundOnStartUp</text>
<text text-anchor="start" x="30" y="-687.5" font-family="SegoeUI" font-size="10.00">+ soundOnShutDown</text>
<text text-anchor="start" x="30" y="-676.5" font-family="SegoeUI" font-size="10.00">+ DefaultAudioMixer</text>
<text text-anchor="start" x="30" y="-665.5" font-family="SegoeUI" font-size="10.00">+ Volume</text>
<text text-anchor="start" x="30" y="-654.5" font-family="SegoeUI" font-size="10.00"># listener</text>
<text text-anchor="start" x="30" y="-643.5" font-family="SegoeUI" font-size="10.00">&#45; MASTER_VOLUME_KEY</text>
<text text-anchor="start" x="30" y="-632.5" font-family="SegoeUI" font-size="10.00">&#45; volume</text>
<text text-anchor="start" x="30" y="-621.5" font-family="SegoeUI" font-size="10.00">&#45; startUp</text>
<text text-anchor="start" x="30" y="-610.5" font-family="SegoeUI" font-size="10.00">&#45; shutDown</text>
<text text-anchor="start" x="30" y="-599.5" font-family="SegoeUI" font-size="10.00">&#45; audioSources</text>
<text text-anchor="start" x="30" y="-588.5" font-family="SegoeUI" font-size="10.00">&#45; camT</text>
<text text-anchor="start" x="30" y="-577.5" font-family="SegoeUI" font-size="10.00">&#45; E</text>
<text text-anchor="start" x="30" y="-566.5" font-family="SegoeUI" font-size="10.00">&#45; instance</text>
<polyline fill="none" stroke="black" points="22,-559.5 154,-559.5 "/>
<text text-anchor="start" x="30" y="-547.5" font-family="SegoeUI" font-size="10.00">+ Spatialize()</text>
<text text-anchor="start" x="30" y="-536.5" font-family="SegoeUI" font-size="10.00">+ Spatialize()</text>
<text text-anchor="start" x="30" y="-525.5" font-family="SegoeUI" font-size="10.00">+ Spatialize()</text>
<text text-anchor="start" x="30" y="-514.5" font-family="SegoeUI" font-size="10.00">+ Spatialize()</text>
<text text-anchor="start" x="30" y="-503.5" font-family="SegoeUI" font-size="10.00">+ Install()</text>
<text text-anchor="start" x="30" y="-492.5" font-family="SegoeUI" font-size="10.00">+ Reinstall()</text>
<text text-anchor="start" x="30" y="-481.5" font-family="SegoeUI" font-size="10.00">+ Uninstall()</text>
<text text-anchor="start" x="30" y="-470.5" font-family="SegoeUI" font-size="10.00">+ Awake()</text>
<text text-anchor="start" x="30" y="-459.5" font-family="SegoeUI" font-size="10.00">+ Start()</text>
<text text-anchor="start" x="30" y="-448.5" font-family="SegoeUI" font-size="10.00">+ OnValidate()</text>
<text text-anchor="start" x="30" y="-437.5" font-family="SegoeUI" font-size="10.00">+ GetHapticExpressions()</text>
<text text-anchor="start" x="30" y="-426.5" font-family="SegoeUI" font-size="10.00">+ Play()</text>
<text text-anchor="start" x="30" y="-415.5" font-family="SegoeUI" font-size="10.00">+ Play()</text>
<text text-anchor="start" x="30" y="-404.5" font-family="SegoeUI" font-size="10.00">+ Play()</text>
<text text-anchor="start" x="30" y="-393.5" font-family="SegoeUI" font-size="10.00">+ Play()</text>
<text text-anchor="start" x="30" y="-382.5" font-family="SegoeUI" font-size="10.00"># InternalSpatialize()</text>
<text text-anchor="start" x="30" y="-371.5" font-family="SegoeUI" font-size="10.00">&#45; Volume_ValueChange()</text>
<text text-anchor="start" x="30" y="-360.5" font-family="SegoeUI" font-size="10.00">&#45; GetClipCollection()</text>
<text text-anchor="start" x="30" y="-349.5" font-family="SegoeUI" font-size="10.00">&#45; Wait()</text>
<text text-anchor="start" x="30" y="-338.5" font-family="SegoeUI" font-size="10.00">&#45; Play_Internal()</text>
<text text-anchor="start" x="30" y="-327.5" font-family="SegoeUI" font-size="10.00">&#45; Play_Internal()</text>
<text text-anchor="start" x="30" y="-316.5" font-family="SegoeUI" font-size="10.00">&#45; Play_Internal()</text>
<text text-anchor="start" x="30" y="-305.5" font-family="SegoeUI" font-size="10.00">&#45; Play_Internal()</text>
<text text-anchor="start" x="30" y="-294.5" font-family="SegoeUI" font-size="10.00">&#45; PlayHaptics()</text>
<text text-anchor="start" x="30" y="-283.5" font-family="SegoeUI" font-size="10.00">&#45; PlayClip()</text>
<text text-anchor="start" x="30" y="-272.5" font-family="SegoeUI" font-size="10.00">&#45; GetAudioSource()</text>
<text text-anchor="start" x="30" y="-261.5" font-family="SegoeUI" font-size="10.00">&#45; CreateNewAudioSource()</text>
</a>
</g>
</g>
<!-- Node1&#45;&gt;Node0 -->
<g id="edge1" class="edge"><title>Node1&#45;&gt;Node0</title>
<path fill="none" stroke="midnightblue" d="M88,-244.249C88,-234.818 88,-225.935 88,-217.749"/>
<polygon fill="none" stroke="midnightblue" points="84.5001,-244.268 88,-254.268 91.5001,-244.268 84.5001,-244.268"/>
</g>
<!-- Node2 -->
<g id="node3" class="node"><title>Node2</title>
<g id="a_node3"><a xlink:title=" ">
<polygon fill="white" stroke="#bfbfbf" points="0,-920.5 0,-977.5 82,-977.5 82,-920.5 0,-920.5"/>
<text text-anchor="middle" x="41" y="-965.5" font-family="SegoeUI" font-size="10.00">MonoBehaviour</text>
<polyline fill="none" stroke="#bfbfbf" points="0,-958.5 82,-958.5 "/>
<text text-anchor="middle" x="41" y="-946.5" font-family="SegoeUI" font-size="10.00"> </text>
<polyline fill="none" stroke="#bfbfbf" points="0,-939.5 82,-939.5 "/>
<text text-anchor="middle" x="41" y="-927.5" font-family="SegoeUI" font-size="10.00"> </text>
</a>
</g>
</g>
<!-- Node2&#45;&gt;Node1 -->
<g id="edge2" class="edge"><title>Node2&#45;&gt;Node1</title>
<path fill="none" stroke="midnightblue" d="M45.6231,-910.277C46.9463,-899.48 48.5025,-886.783 50.223,-872.744"/>
<polygon fill="none" stroke="midnightblue" points="42.1227,-910.068 44.3801,-920.42 49.0707,-910.92 42.1227,-910.068"/>
</g>
<!-- Node3 -->
<g id="node4" class="node"><title>Node3</title>
<g id="a_node4"><a xlink:href="../../db/d28/interface_juniper_1_1_i_installable.html" target="_top" xlink:title="Defines an interface for objects that can be installed and have their installation progress tracked.">
<polygon fill="white" stroke="black" points="100.5,-909.5 100.5,-988.5 169.5,-988.5 169.5,-909.5 100.5,-909.5"/>
<text text-anchor="middle" x="135" y="-976.5" font-family="SegoeUI" font-size="10.00">IInstallable</text>
<polyline fill="none" stroke="black" points="100.5,-969.5 169.5,-969.5 "/>
<text text-anchor="middle" x="135" y="-957.5" font-family="SegoeUI" font-size="10.00"> </text>
<polyline fill="none" stroke="black" points="100.5,-950.5 169.5,-950.5 "/>
<text text-anchor="start" x="108.5" y="-938.5" font-family="SegoeUI" font-size="10.00">+ Install()</text>
<text text-anchor="start" x="108.5" y="-927.5" font-family="SegoeUI" font-size="10.00">+ Reinstall()</text>
<text text-anchor="start" x="108.5" y="-916.5" font-family="SegoeUI" font-size="10.00">+ Uninstall()</text>
</a>
</g>
</g>
<!-- Node3&#45;&gt;Node1 -->
<g id="edge3" class="edge"><title>Node3&#45;&gt;Node1</title>
<path fill="none" stroke="midnightblue" d="M129.061,-899.537C128.056,-891.339 126.951,-882.327 125.77,-872.683"/>
<polygon fill="none" stroke="midnightblue" points="125.588,-899.973 130.278,-909.473 132.536,-899.121 125.588,-899.973"/>
</g>
</g>
</svg>
