<?xml version="1.0" encoding="UTF-8" standalone="no"?>
<!DOCTYPE svg PUBLIC "-//W3C//DTD SVG 1.1//EN"
 "http://www.w3.org/Graphics/SVG/1.1/DTD/svg11.dtd">
<!-- Generated by graphviz version 2.38.0 (20140413.2041)
 -->
<!-- Title: Juniper.Input.Pointers.Motion.AbstractHandedPointerConfiguration&lt; HandIDType, ButtonIDType &gt; Pages: 1 -->
<!--zoomable 720 -->
<svg id="main" version="1.1" xmlns="http://www.w3.org/2000/svg" xmlns:xlink="http://www.w3.org/1999/xlink" xml:space="preserve" onload="init(evt)">
<style type="text/css"><![CDATA[
.edge:hover path { stroke: red; }
.edge:hover polygon { stroke: red; fill: red; }
]]></style>
<script type="text/javascript"><![CDATA[
var edges = document.getElementsByTagName('g');
if (edges && edges.length) {
  for (var i=0;i<edges.length;i++) {
    if (edges[i].id.substr(0,4)=='edge') {
      edges[i].setAttribute('class','edge');
    }
  }
}
]]></script>
        <defs>
                <circle id="rim" cx="0" cy="0" r="7"/>
                <circle id="rim2" cx="0" cy="0" r="3.5"/>
                <g id="zoomPlus">
                        <use xlink:href="#rim" fill="#404040">
                                <set attributeName="fill" to="#808080" begin="zoomplus.mouseover" end="zoomplus.mouseout"/>
                        </use>
                        <path d="M-4,0h8M0,-4v8" fill="none" stroke="white" stroke-width="1.5" pointer-events="none"/>
                </g>
                <g id="zoomMin">
                        <use xlink:href="#rim" fill="#404040">
                                <set attributeName="fill" to="#808080" begin="zoomminus.mouseover" end="zoomminus.mouseout"/>
                        </use>
                        <path d="M-4,0h8" fill="none" stroke="white" stroke-width="1.5" pointer-events="none"/>
                </g>
                <g id="dirArrow">
                        <path fill="none" stroke="white" stroke-width="1.5" d="M0,-3.0v7 M-2.5,-0.5L0,-3.0L2.5,-0.5"/>
                </g>
               <g id="resetDef">
                       <use xlink:href="#rim2" fill="#404040">
                               <set attributeName="fill" to="#808080" begin="reset.mouseover" end="reset.mouseout"/>
                       </use>
               </g>
        </defs>

<script type="text/javascript">
var viewWidth = 1060;
var viewHeight = 720;
var sectionId = 'dynsection-0';
</script>
<script xlink:href="../../svgpan.js"/>
<svg id="graph" class="graph">
<g id="viewport">
<title>Juniper.Input.Pointers.Motion.AbstractHandedPointerConfiguration&lt; HandIDType, ButtonIDType &gt;</title>
<polygon fill="white" stroke="none" points="-4,4 -4,-716 1056,-716 1056,4 -4,4"/>
<!-- Node0 -->
<g id="node1" class="node"><title>Node0</title>
<g id="a_node1"><a xlink:title=" ">
<polygon fill="#bfbfbf" stroke="black" points="192.5,-482.5 192.5,-583.5 363.5,-583.5 363.5,-482.5 192.5,-482.5"/>
<text text-anchor="start" x="200.5" y="-571.5" font-family="SegoeUI" font-size="10.00">Juniper.Input.Pointers.Motion.</text>
<text text-anchor="start" x="200.5" y="-560.5" font-family="SegoeUI" font-size="10.00">AbstractHandedPointerConfiguration</text>
<text text-anchor="middle" x="278" y="-549.5" font-family="SegoeUI" font-size="10.00">&lt; HandIDType, ButtonIDType &gt;</text>
<polyline fill="none" stroke="black" points="192.5,-542.5 363.5,-542.5 "/>
<text text-anchor="start" x="200.5" y="-530.5" font-family="SegoeUI" font-size="10.00">+ HandType</text>
<text text-anchor="start" x="200.5" y="-519.5" font-family="SegoeUI" font-size="10.00">+ PointerNameStub</text>
<text text-anchor="start" x="200.5" y="-508.5" font-family="SegoeUI" font-size="10.00">+ this[Hands hand]</text>
<polyline fill="none" stroke="black" points="192.5,-501.5 363.5,-501.5 "/>
<text text-anchor="start" x="200.5" y="-489.5" font-family="SegoeUI" font-size="10.00">+ MakePointerName()</text>
</a>
</g>
</g>
<!-- Node2 -->
<g id="node3" class="node"><title>Node2</title>
<g id="a_node3"><a xlink:href="../../d2/d45/class_juniper_1_1_input_1_1_pointers_1_1_motion_1_1_abstract_hand_tracker_configuration.html" target="_top" xlink:title=" ">
<polygon fill="white" stroke="black" points="88.5,-338 88.5,-417 295.5,-417 295.5,-338 88.5,-338"/>
<text text-anchor="start" x="96.5" y="-405" font-family="SegoeUI" font-size="10.00">Juniper::Input::Pointers</text>
<text text-anchor="start" x="96.5" y="-394" font-family="SegoeUI" font-size="10.00">::Motion::AbstractHandTrackerConfiguration</text>
<text text-anchor="middle" x="192" y="-383" font-family="SegoeUI" font-size="10.00">&lt; HandIDType, ButtonIDType &gt;</text>
<polyline fill="none" stroke="black" points="88.5,-376 295.5,-376 "/>
<text text-anchor="start" x="96.5" y="-364" font-family="SegoeUI" font-size="10.00">+ PointerNameStub</text>
<polyline fill="none" stroke="black" points="88.5,-357 295.5,-357 "/>
<text text-anchor="middle" x="192" y="-345" font-family="SegoeUI" font-size="10.00"> </text>
</a>
</g>
</g>
<!-- Node0&#45;&gt;Node2 -->
<g id="edge2" class="edge"><title>Node0&#45;&gt;Node2</title>
<path fill="none" stroke="midnightblue" d="M245.164,-473.392C234.663,-454.649 223.304,-434.374 213.792,-417.396"/>
<polygon fill="none" stroke="midnightblue" points="242.137,-475.15 250.078,-482.163 248.244,-471.728 242.137,-475.15"/>
</g>
<!-- Node5 -->
<g id="node6" class="node"><title>Node5</title>
<g id="a_node6"><a xlink:href="../../da/de2/class_juniper_1_1_input_1_1_pointers_1_1_motion_1_1_abstract_motion_controller_configuration.html" target="_top" xlink:title=" ">
<polygon fill="white" stroke="black" points="377,-310.5 377,-444.5 585,-444.5 585,-310.5 377,-310.5"/>
<text text-anchor="start" x="385" y="-432.5" font-family="SegoeUI" font-size="10.00">Juniper::Input::Pointers</text>
<text text-anchor="start" x="385" y="-421.5" font-family="SegoeUI" font-size="10.00">::Motion::AbstractMotionController</text>
<text text-anchor="middle" x="481" y="-410.5" font-family="SegoeUI" font-size="10.00">Configuration&lt; HandIDType, ButtonIDType &gt;</text>
<polyline fill="none" stroke="black" points="377,-403.5 585,-403.5 "/>
<text text-anchor="start" x="385" y="-391.5" font-family="SegoeUI" font-size="10.00">+ PointerNameStub</text>
<text text-anchor="start" x="385" y="-380.5" font-family="SegoeUI" font-size="10.00">&#45; touchPadButtons</text>
<text text-anchor="start" x="385" y="-369.5" font-family="SegoeUI" font-size="10.00">&#45; triggerButtons</text>
<polyline fill="none" stroke="black" points="377,-362.5 585,-362.5 "/>
<text text-anchor="start" x="385" y="-350.5" font-family="SegoeUI" font-size="10.00">+ Install()</text>
<text text-anchor="start" x="385" y="-339.5" font-family="SegoeUI" font-size="10.00">+ Install()</text>
<text text-anchor="start" x="385" y="-328.5" font-family="SegoeUI" font-size="10.00"># AddButton()</text>
<text text-anchor="start" x="385" y="-317.5" font-family="SegoeUI" font-size="10.00"># AddButton()</text>
</a>
</g>
</g>
<!-- Node0&#45;&gt;Node5 -->
<g id="edge5" class="edge"><title>Node0&#45;&gt;Node5</title>
<path fill="none" stroke="midnightblue" d="M351.92,-476.105C365.4,-465.912 379.581,-455.189 393.411,-444.731"/>
<polygon fill="none" stroke="midnightblue" points="349.493,-473.552 343.628,-482.375 353.715,-479.135 349.493,-473.552"/>
</g>
<!-- Node1 -->
<g id="node2" class="node"><title>Node1</title>
<g id="a_node2"><a xlink:href="../../d0/d7e/class_juniper_1_1_input_1_1_pointers_1_1_abstract_pointer_configuration.html" target="_top" xlink:title=" ">
<polygon fill="white" stroke="black" points="208.5,-621.5 208.5,-711.5 347.5,-711.5 347.5,-621.5 208.5,-621.5"/>
<text text-anchor="start" x="216.5" y="-699.5" font-family="SegoeUI" font-size="10.00">AbstractPointerConfiguration</text>
<text text-anchor="middle" x="278" y="-688.5" font-family="SegoeUI" font-size="10.00">&lt; ButtonIDType &gt;</text>
<polyline fill="none" stroke="black" points="208.5,-681.5 347.5,-681.5 "/>
<text text-anchor="start" x="216.5" y="-669.5" font-family="SegoeUI" font-size="10.00">&#45; nativeButtons</text>
<polyline fill="none" stroke="black" points="208.5,-662.5 347.5,-662.5 "/>
<text text-anchor="start" x="216.5" y="-650.5" font-family="SegoeUI" font-size="10.00">+ Install()</text>
<text text-anchor="start" x="216.5" y="-639.5" font-family="SegoeUI" font-size="10.00">+ Uninstall()</text>
<text text-anchor="start" x="216.5" y="-628.5" font-family="SegoeUI" font-size="10.00"># AddButton()</text>
</a>
</g>
</g>
<!-- Node1&#45;&gt;Node0 -->
<g id="edge1" class="edge"><title>Node1&#45;&gt;Node0</title>
<path fill="none" stroke="midnightblue" d="M278,-611.224C278,-602.11 278,-592.693 278,-583.701"/>
<polygon fill="none" stroke="midnightblue" points="274.5,-611.347 278,-621.347 281.5,-611.347 274.5,-611.347"/>
</g>
<!-- Node3 -->
<g id="node4" class="node"><title>Node3</title>
<g id="a_node4"><a xlink:href="../../d2/d45/class_juniper_1_1_input_1_1_pointers_1_1_motion_1_1_abstract_hand_tracker_configuration.html" target="_top" xlink:title=" ">
<polygon fill="white" stroke="black" points="0,-145 0,-224 164,-224 164,-145 0,-145"/>
<text text-anchor="start" x="8" y="-212" font-family="SegoeUI" font-size="10.00">Juniper.Input.Pointers.Motion.</text>
<text text-anchor="start" x="8" y="-201" font-family="SegoeUI" font-size="10.00">AbstractHandTrackerConfiguration</text>
<text text-anchor="middle" x="82" y="-190" font-family="SegoeUI" font-size="10.00">&lt; Unary, KeyCode &gt;</text>
<polyline fill="none" stroke="black" points="0,-183 164,-183 "/>
<text text-anchor="start" x="8" y="-171" font-family="SegoeUI" font-size="10.00">+ PointerNameStub</text>
<polyline fill="none" stroke="black" points="0,-164 164,-164 "/>
<text text-anchor="middle" x="82" y="-152" font-family="SegoeUI" font-size="10.00"> </text>
</a>
</g>
</g>
<!-- Node2&#45;&gt;Node3 -->
<g id="edge3" class="edge"><title>Node2&#45;&gt;Node3</title>
<path fill="none" stroke="orange" d="M164.647,-329.005C146.015,-296.654 121.663,-254.369 104.227,-224.094"/>
<polygon fill="orange" stroke="orange" points="161.716,-330.929 169.74,-337.848 167.782,-327.436 161.716,-330.929"/>
<text text-anchor="middle" x="186.5" y="-278.5" font-family="SegoeUI" font-size="10.00"> &lt; Unary, KeyCode &gt;</text>
</g>
<!-- Node4 -->
<g id="node5" class="node"><title>Node4</title>
<g id="a_node5"><a xlink:href="../../d5/dc9/class_juniper_1_1_input_1_1_pointers_1_1_motion_1_1_no_hand_tracker_configuration.html" target="_top" xlink:title=" ">
<polygon fill="white" stroke="black" points="10,-6 10,-74 154,-74 154,-6 10,-6"/>
<text text-anchor="start" x="18" y="-62" font-family="SegoeUI" font-size="10.00">Juniper.Input.Pointers.Motion.</text>
<text text-anchor="middle" x="82" y="-51" font-family="SegoeUI" font-size="10.00">NoHandTrackerConfiguration</text>
<polyline fill="none" stroke="black" points="10,-44 154,-44 "/>
<text text-anchor="start" x="18" y="-32" font-family="SegoeUI" font-size="10.00">+ this[Hands hand]</text>
<polyline fill="none" stroke="black" points="10,-25 154,-25 "/>
<text text-anchor="middle" x="82" y="-13" font-family="SegoeUI" font-size="10.00"> </text>
</a>
</g>
</g>
<!-- Node3&#45;&gt;Node4 -->
<g id="edge4" class="edge"><title>Node3&#45;&gt;Node4</title>
<path fill="none" stroke="midnightblue" d="M82,-134.785C82,-114.839 82,-92.2675 82,-74.2666"/>
<polygon fill="none" stroke="midnightblue" points="78.5001,-134.937 82,-144.937 85.5001,-134.937 78.5001,-134.937"/>
</g>
<!-- Node6 -->
<g id="node7" class="node"><title>Node6</title>
<g id="a_node7"><a xlink:href="../../da/de2/class_juniper_1_1_input_1_1_pointers_1_1_motion_1_1_abstract_motion_controller_configuration.html" target="_top" xlink:title=" ">
<polygon fill="white" stroke="black" points="182.5,-117.5 182.5,-251.5 361.5,-251.5 361.5,-117.5 182.5,-117.5"/>
<text text-anchor="start" x="190.5" y="-239.5" font-family="SegoeUI" font-size="10.00">Juniper.Input.Pointers.Motion.</text>
<text text-anchor="start" x="190.5" y="-228.5" font-family="SegoeUI" font-size="10.00">AbstractMotionControllerConfiguration</text>
<text text-anchor="middle" x="272" y="-217.5" font-family="SegoeUI" font-size="10.00">&lt; WVR_DeviceType, WVR_InputId &gt;</text>
<polyline fill="none" stroke="black" points="182.5,-210.5 361.5,-210.5 "/>
<text text-anchor="start" x="190.5" y="-198.5" font-family="SegoeUI" font-size="10.00">+ PointerNameStub</text>
<text text-anchor="start" x="190.5" y="-187.5" font-family="SegoeUI" font-size="10.00">&#45; touchPadButtons</text>
<text text-anchor="start" x="190.5" y="-176.5" font-family="SegoeUI" font-size="10.00">&#45; triggerButtons</text>
<polyline fill="none" stroke="black" points="182.5,-169.5 361.5,-169.5 "/>
<text text-anchor="start" x="190.5" y="-157.5" font-family="SegoeUI" font-size="10.00">+ Install()</text>
<text text-anchor="start" x="190.5" y="-146.5" font-family="SegoeUI" font-size="10.00">+ Install()</text>
<text text-anchor="start" x="190.5" y="-135.5" font-family="SegoeUI" font-size="10.00"># AddButton()</text>
<text text-anchor="start" x="190.5" y="-124.5" font-family="SegoeUI" font-size="10.00"># AddButton()</text>
</a>
</g>
</g>
<!-- Node5&#45;&gt;Node6 -->
<g id="edge6" class="edge"><title>Node5&#45;&gt;Node6</title>
<path fill="none" stroke="orange" d="M375.602,-303.918C370.92,-299.992 366.362,-296.01 362,-292 348.633,-279.713 335.374,-265.485 323.306,-251.507"/>
<polygon fill="orange" stroke="orange" points="373.634,-306.83 383.585,-310.467 378.074,-301.419 373.634,-306.83"/>
<text text-anchor="start" x="362" y="-284" font-family="SegoeUI" font-size="10.00"> &lt; WVR_DeviceType, WVR</text>
<text text-anchor="middle" x="419.5" y="-273" font-family="SegoeUI" font-size="10.00">_InputId &gt;</text>
</g>
<!-- Node8 -->
<g id="node9" class="node"><title>Node8</title>
<g id="a_node9"><a xlink:href="../../da/de2/class_juniper_1_1_input_1_1_pointers_1_1_motion_1_1_abstract_motion_controller_configuration.html" target="_top" xlink:title=" ">
<polygon fill="white" stroke="black" points="379.5,-117.5 379.5,-251.5 582.5,-251.5 582.5,-117.5 379.5,-117.5"/>
<text text-anchor="start" x="387.5" y="-239.5" font-family="SegoeUI" font-size="10.00">Juniper.Input.Pointers.Motion.</text>
<text text-anchor="start" x="387.5" y="-228.5" font-family="SegoeUI" font-size="10.00">AbstractMotionControllerConfiguration</text>
<text text-anchor="middle" x="481" y="-217.5" font-family="SegoeUI" font-size="10.00">&lt; GvrControllerHand, GvrControllerButton &gt;</text>
<polyline fill="none" stroke="black" points="379.5,-210.5 582.5,-210.5 "/>
<text text-anchor="start" x="387.5" y="-198.5" font-family="SegoeUI" font-size="10.00">+ PointerNameStub</text>
<text text-anchor="start" x="387.5" y="-187.5" font-family="SegoeUI" font-size="10.00">&#45; touchPadButtons</text>
<text text-anchor="start" x="387.5" y="-176.5" font-family="SegoeUI" font-size="10.00">&#45; triggerButtons</text>
<polyline fill="none" stroke="black" points="379.5,-169.5 582.5,-169.5 "/>
<text text-anchor="start" x="387.5" y="-157.5" font-family="SegoeUI" font-size="10.00">+ Install()</text>
<text text-anchor="start" x="387.5" y="-146.5" font-family="SegoeUI" font-size="10.00">+ Install()</text>
<text text-anchor="start" x="387.5" y="-135.5" font-family="SegoeUI" font-size="10.00"># AddButton()</text>
<text text-anchor="start" x="387.5" y="-124.5" font-family="SegoeUI" font-size="10.00"># AddButton()</text>
</a>
</g>
</g>
<!-- Node5&#45;&gt;Node8 -->
<g id="edge8" class="edge"><title>Node5&#45;&gt;Node8</title>
<path fill="none" stroke="orange" d="M481,-299.866C481,-283.899 481,-267.199 481,-251.649"/>
<polygon fill="orange" stroke="orange" points="477.5,-300.233 481,-310.234 484.5,-300.234 477.5,-300.233"/>
<text text-anchor="start" x="481" y="-284" font-family="SegoeUI" font-size="10.00"> &lt; GvrControllerHand,</text>
<text text-anchor="middle" x="529.5" y="-273" font-family="SegoeUI" font-size="10.00"> GvrControllerButton &gt;</text>
</g>
<!-- Node10 -->
<g id="node11" class="node"><title>Node10</title>
<g id="a_node11"><a xlink:href="../../da/de2/class_juniper_1_1_input_1_1_pointers_1_1_motion_1_1_abstract_motion_controller_configuration.html" target="_top" xlink:title=" ">
<polygon fill="white" stroke="black" points="600.5,-117.5 600.5,-251.5 779.5,-251.5 779.5,-117.5 600.5,-117.5"/>
<text text-anchor="start" x="608.5" y="-239.5" font-family="SegoeUI" font-size="10.00">Juniper.Input.Pointers.Motion.</text>
<text text-anchor="start" x="608.5" y="-228.5" font-family="SegoeUI" font-size="10.00">AbstractMotionControllerConfiguration</text>
<text text-anchor="middle" x="690" y="-217.5" font-family="SegoeUI" font-size="10.00">&lt; Unary, KeyCode &gt;</text>
<polyline fill="none" stroke="black" points="600.5,-210.5 779.5,-210.5 "/>
<text text-anchor="start" x="608.5" y="-198.5" font-family="SegoeUI" font-size="10.00">+ PointerNameStub</text>
<text text-anchor="start" x="608.5" y="-187.5" font-family="SegoeUI" font-size="10.00">&#45; touchPadButtons</text>
<text text-anchor="start" x="608.5" y="-176.5" font-family="SegoeUI" font-size="10.00">&#45; triggerButtons</text>
<polyline fill="none" stroke="black" points="600.5,-169.5 779.5,-169.5 "/>
<text text-anchor="start" x="608.5" y="-157.5" font-family="SegoeUI" font-size="10.00">+ Install()</text>
<text text-anchor="start" x="608.5" y="-146.5" font-family="SegoeUI" font-size="10.00">+ Install()</text>
<text text-anchor="start" x="608.5" y="-135.5" font-family="SegoeUI" font-size="10.00"># AddButton()</text>
<text text-anchor="start" x="608.5" y="-124.5" font-family="SegoeUI" font-size="10.00"># AddButton()</text>
</a>
</g>
</g>
<!-- Node5&#45;&gt;Node10 -->
<g id="edge10" class="edge"><title>Node5&#45;&gt;Node10</title>
<path fill="none" stroke="orange" d="M568.803,-303.792C573.296,-299.837 577.718,-295.89 582,-292 596.033,-279.25 610.715,-265.248 624.571,-251.706"/>
<polygon fill="orange" stroke="orange" points="566.416,-301.23 561.187,-310.444 571.021,-306.501 566.416,-301.23"/>
<text text-anchor="middle" x="649.5" y="-278.5" font-family="SegoeUI" font-size="10.00"> &lt; Unary, KeyCode &gt;</text>
</g>
<!-- Node12 -->
<g id="node13" class="node"><title>Node12</title>
<g id="a_node13"><a xlink:href="../../da/de2/class_juniper_1_1_input_1_1_pointers_1_1_motion_1_1_abstract_motion_controller_configuration.html" target="_top" xlink:title=" ">
<polygon fill="white" stroke="black" points="798,-117.5 798,-251.5 1052,-251.5 1052,-117.5 798,-117.5"/>
<text text-anchor="start" x="806" y="-239.5" font-family="SegoeUI" font-size="10.00">Juniper.Input.Pointers.Motion.</text>
<text text-anchor="start" x="806" y="-228.5" font-family="SegoeUI" font-size="10.00">AbstractMotionControllerConfiguration</text>
<text text-anchor="middle" x="925" y="-217.5" font-family="SegoeUI" font-size="10.00">&lt; InteractionSourceHandedness, WindowsMRButtons &gt;</text>
<polyline fill="none" stroke="black" points="798,-210.5 1052,-210.5 "/>
<text text-anchor="start" x="806" y="-198.5" font-family="SegoeUI" font-size="10.00">+ PointerNameStub</text>
<text text-anchor="start" x="806" y="-187.5" font-family="SegoeUI" font-size="10.00">&#45; touchPadButtons</text>
<text text-anchor="start" x="806" y="-176.5" font-family="SegoeUI" font-size="10.00">&#45; triggerButtons</text>
<polyline fill="none" stroke="black" points="798,-169.5 1052,-169.5 "/>
<text text-anchor="start" x="806" y="-157.5" font-family="SegoeUI" font-size="10.00">+ Install()</text>
<text text-anchor="start" x="806" y="-146.5" font-family="SegoeUI" font-size="10.00">+ Install()</text>
<text text-anchor="start" x="806" y="-135.5" font-family="SegoeUI" font-size="10.00"># AddButton()</text>
<text text-anchor="start" x="806" y="-124.5" font-family="SegoeUI" font-size="10.00"># AddButton()</text>
</a>
</g>
</g>
<!-- Node5&#45;&gt;Node12 -->
<g id="edge12" class="edge"><title>Node5&#45;&gt;Node12</title>
<path fill="none" stroke="orange" d="M594.523,-333.694C628.28,-320.643 665.254,-306.03 699,-292 739.419,-275.196 749.332,-270.506 789,-252 791.858,-250.667 794.747,-249.312 797.658,-247.941"/>
<polygon fill="orange" stroke="orange" points="593.162,-330.467 585.092,-337.332 595.681,-336.998 593.162,-330.467"/>
<text text-anchor="start" x="749" y="-284" font-family="SegoeUI" font-size="10.00"> &lt; InteractionSourceHandedness,</text>
<text text-anchor="middle" x="821" y="-273" font-family="SegoeUI" font-size="10.00"> WindowsMRButtons &gt;</text>
</g>
<!-- Node7 -->
<g id="node8" class="node"><title>Node7</title>
<g id="a_node8"><a xlink:href="../../d7/d33/class_juniper_1_1_input_1_1_pointers_1_1_motion_1_1_vive_focus_motion_controller_configuration.html" target="_top" xlink:title=" ">
<polygon fill="white" stroke="black" points="178.5,-0.5 178.5,-79.5 365.5,-79.5 365.5,-0.5 178.5,-0.5"/>
<text text-anchor="start" x="186.5" y="-67.5" font-family="SegoeUI" font-size="10.00">Juniper.Input.Pointers.Motion.</text>
<text text-anchor="middle" x="272" y="-56.5" font-family="SegoeUI" font-size="10.00">ViveFocusMotionControllerConfiguration</text>
<polyline fill="none" stroke="black" points="178.5,-49.5 365.5,-49.5 "/>
<text text-anchor="start" x="186.5" y="-37.5" font-family="SegoeUI" font-size="10.00">+ this[Hands hand]</text>
<polyline fill="none" stroke="black" points="178.5,-30.5 365.5,-30.5 "/>
<text text-anchor="start" x="186.5" y="-18.5" font-family="SegoeUI" font-size="10.00">+ ViveFocusMotionController</text>
<text text-anchor="start" x="186.5" y="-7.5" font-family="SegoeUI" font-size="10.00">Configuration()</text>
</a>
</g>
</g>
<!-- Node6&#45;&gt;Node7 -->
<g id="edge7" class="edge"><title>Node6&#45;&gt;Node7</title>
<path fill="none" stroke="midnightblue" d="M272,-107.048C272,-97.6554 272,-88.3842 272,-79.8917"/>
<polygon fill="none" stroke="midnightblue" points="268.5,-107.256 272,-117.256 275.5,-107.256 268.5,-107.256"/>
</g>
<!-- Node9 -->
<g id="node10" class="node"><title>Node9</title>
<g id="a_node10"><a xlink:href="../../d4/d65/class_juniper_1_1_input_1_1_pointers_1_1_motion_1_1_daydream_pointer_configuration.html" target="_top" xlink:title=" ">
<polygon fill="white" stroke="black" points="399,-6 399,-74 563,-74 563,-6 399,-6"/>
<text text-anchor="start" x="407" y="-62" font-family="SegoeUI" font-size="10.00">Juniper.Input.Pointers.Motion.</text>
<text text-anchor="middle" x="481" y="-51" font-family="SegoeUI" font-size="10.00">DaydreamPointerConfiguration</text>
<polyline fill="none" stroke="black" points="399,-44 563,-44 "/>
<text text-anchor="start" x="407" y="-32" font-family="SegoeUI" font-size="10.00">+ this[Hands hand]</text>
<polyline fill="none" stroke="black" points="399,-25 563,-25 "/>
<text text-anchor="start" x="407" y="-13" font-family="SegoeUI" font-size="10.00">+ DaydreamPointerConfiguration()</text>
</a>
</g>
</g>
<!-- Node8&#45;&gt;Node9 -->
<g id="edge9" class="edge"><title>Node8&#45;&gt;Node9</title>
<path fill="none" stroke="midnightblue" d="M481,-107.065C481,-95.4865 481,-84.0917 481,-74.1122"/>
<polygon fill="none" stroke="midnightblue" points="477.5,-107.256 481,-117.256 484.5,-107.256 477.5,-107.256"/>
</g>
<!-- Node11 -->
<g id="node12" class="node"><title>Node11</title>
<g id="a_node12"><a xlink:href="../../de/d96/class_juniper_1_1_input_1_1_pointers_1_1_motion_1_1_no_motion_controller_configuration.html" target="_top" xlink:title=" ">
<polygon fill="white" stroke="black" points="612.5,-6 612.5,-74 767.5,-74 767.5,-6 612.5,-6"/>
<text text-anchor="start" x="620.5" y="-62" font-family="SegoeUI" font-size="10.00">Juniper.Input.Pointers.Motion.</text>
<text text-anchor="middle" x="690" y="-51" font-family="SegoeUI" font-size="10.00">NoMotionControllerConfiguration</text>
<polyline fill="none" stroke="black" points="612.5,-44 767.5,-44 "/>
<text text-anchor="start" x="620.5" y="-32" font-family="SegoeUI" font-size="10.00">+ this[Hands hand]</text>
<polyline fill="none" stroke="black" points="612.5,-25 767.5,-25 "/>
<text text-anchor="middle" x="690" y="-13" font-family="SegoeUI" font-size="10.00"> </text>
</a>
</g>
</g>
<!-- Node10&#45;&gt;Node11 -->
<g id="edge11" class="edge"><title>Node10&#45;&gt;Node11</title>
<path fill="none" stroke="midnightblue" d="M690,-107.065C690,-95.4865 690,-84.0917 690,-74.1122"/>
<polygon fill="none" stroke="midnightblue" points="686.5,-107.256 690,-117.256 693.5,-107.256 686.5,-107.256"/>
</g>
<!-- Node13 -->
<g id="node14" class="node"><title>Node13</title>
<g id="a_node14"><a xlink:href="../../dd/d07/class_juniper_1_1_input_1_1_pointers_1_1_motion_1_1_windows_m_r_motion_controller_configuration.html" target="_top" xlink:title=" ">
<polygon fill="white" stroke="black" points="826.5,-0.5 826.5,-79.5 1023.5,-79.5 1023.5,-0.5 826.5,-0.5"/>
<text text-anchor="start" x="834.5" y="-67.5" font-family="SegoeUI" font-size="10.00">Juniper.Input.Pointers.Motion.</text>
<text text-anchor="middle" x="925" y="-56.5" font-family="SegoeUI" font-size="10.00">WindowsMRMotionControllerConfiguration</text>
<polyline fill="none" stroke="black" points="826.5,-49.5 1023.5,-49.5 "/>
<text text-anchor="start" x="834.5" y="-37.5" font-family="SegoeUI" font-size="10.00">+ this[Hands hand]</text>
<polyline fill="none" stroke="black" points="826.5,-30.5 1023.5,-30.5 "/>
<text text-anchor="start" x="834.5" y="-18.5" font-family="SegoeUI" font-size="10.00">+ WindowsMRMotionController</text>
<text text-anchor="start" x="834.5" y="-7.5" font-family="SegoeUI" font-size="10.00">Configuration()</text>
</a>
</g>
</g>
<!-- Node12&#45;&gt;Node13 -->
<g id="edge13" class="edge"><title>Node12&#45;&gt;Node13</title>
<path fill="none" stroke="midnightblue" d="M925,-107.048C925,-97.6554 925,-88.3842 925,-79.8917"/>
<polygon fill="none" stroke="midnightblue" points="921.5,-107.256 925,-117.256 928.5,-107.256 921.5,-107.256"/>
</g>
</g>
</svg>
        <g id="navigator" transform="translate(0 0)" fill="#404254">
                <rect fill="#f2f5e9" fill-opacity="0.5" stroke="#606060" stroke-width=".5" x="0" y="0" width="60" height="60"/>
                <use id="zoomplus" xlink:href="#zoomPlus" x="17" y="9" onmousedown="handleZoom(evt,'in')"/>
                <use id="zoomminus" xlink:href="#zoomMin" x="42" y="9" onmousedown="handleZoom(evt,'out')"/>
                <use id="reset" xlink:href="#resetDef" x="30" y="36" onmousedown="handleReset()"/>
                <g id="arrowUp" xlink:href="#dirArrow" transform="translate(30 24)" onmousedown="handlePan(0,-1)">
                  <use xlink:href="#rim" fill="#404040">
                        <set attributeName="fill" to="#808080" begin="arrowUp.mouseover" end="arrowUp.mouseout"/>
                  </use>
                  <path fill="none" stroke="white" stroke-width="1.5" d="M0,-3.0v7 M-2.5,-0.5L0,-3.0L2.5,-0.5"/>
                </g>
                <g id="arrowRight" xlink:href="#dirArrow" transform="rotate(90) translate(36 -43)" onmousedown="handlePan(1,0)">
                  <use xlink:href="#rim" fill="#404040">
                        <set attributeName="fill" to="#808080" begin="arrowRight.mouseover" end="arrowRight.mouseout"/>
                  </use>
                  <path fill="none" stroke="white" stroke-width="1.5" d="M0,-3.0v7 M-2.5,-0.5L0,-3.0L2.5,-0.5"/>
                </g>
                <g id="arrowDown" xlink:href="#dirArrow" transform="rotate(180) translate(-30 -48)" onmousedown="handlePan(0,1)">
                  <use xlink:href="#rim" fill="#404040">
                        <set attributeName="fill" to="#808080" begin="arrowDown.mouseover" end="arrowDown.mouseout"/>
                  </use>
                  <path fill="none" stroke="white" stroke-width="1.5" d="M0,-3.0v7 M-2.5,-0.5L0,-3.0L2.5,-0.5"/>
                </g>
                <g id="arrowLeft" xlink:href="#dirArrow" transform="rotate(270) translate(-36 17)" onmousedown="handlePan(-1,0)">
                  <use xlink:href="#rim" fill="#404040">
                        <set attributeName="fill" to="#808080" begin="arrowLeft.mouseover" end="arrowLeft.mouseout"/>
                  </use>
                  <path fill="none" stroke="white" stroke-width="1.5" d="M0,-3.0v7 M-2.5,-0.5L0,-3.0L2.5,-0.5"/>
                </g>
        </g>
        <svg viewBox="0 0 15 15" width="100%" height="30px" preserveAspectRatio="xMaxYMin meet">
         <g id="arrow_out" transform="scale(0.3 0.3)">
          <a xlink:href="class_juniper_1_1_input_1_1_pointers_1_1_motion_1_1_abstract_handed_pointer_configuration__inherit__graph_org.svg" target="_base">
           <rect id="button" ry="5" rx="5" y="6" x="6" height="38" width="38"
                fill="#f2f5e9" fill-opacity="0.5" stroke="#606060" stroke-width="1.0"/>
           <path id="arrow"
             d="M 11.500037,31.436501 C 11.940474,20.09759 22.043105,11.32322 32.158766,21.979434 L 37.068811,17.246167 C 37.068811,17.246167 37.088388,32 37.088388,32 L 22.160133,31.978069 C 22.160133,31.978069 26.997745,27.140456 26.997745,27.140456 C 18.528582,18.264221 13.291696,25.230495 11.500037,31.436501 z"
             style="fill:#404040;"/>
          </a>
         </g>
        </svg>
</svg>
