<?xml version="1.0" encoding="UTF-8" standalone="no"?>
<!DOCTYPE svg PUBLIC "-//W3C//DTD SVG 1.1//EN"
 "http://www.w3.org/Graphics/SVG/1.1/DTD/svg11.dtd">
<!-- Generated by graphviz version 2.38.0 (20140413.2041)
 -->
<!-- Title: Juniper.Mathematics.IntegrationMotionFilter Pages: 1 -->
<svg width="162pt" height="364pt"
 viewBox="0.00 0.00 162.00 364.00" xmlns="http://www.w3.org/2000/svg" xmlns:xlink="http://www.w3.org/1999/xlink">
<g id="graph0" class="graph" transform="scale(1 1) rotate(0) translate(4 360)">
<title>Juniper.Mathematics.IntegrationMotionFilter</title>
<polygon fill="white" stroke="none" points="-4,4 -4,-360 158,-360 158,4 -4,4"/>
<!-- Node0 -->
<g id="node1" class="node"><title>Node0</title>
<g id="a_node1"><a xlink:title=" ">
<polygon fill="#bfbfbf" stroke="black" points="0,-0.5 0,-156.5 154,-156.5 154,-0.5 0,-0.5"/>
<text text-anchor="start" x="8" y="-144.5" font-family="SegoeUI" font-size="10.00">Juniper.Mathematics.Integration</text>
<text text-anchor="middle" x="77" y="-133.5" font-family="SegoeUI" font-size="10.00">MotionFilter</text>
<polyline fill="none" stroke="black" points="0,-126.5 154,-126.5 "/>
<text text-anchor="start" x="8" y="-114.5" font-family="SegoeUI" font-size="10.00">+ interpolationFactor</text>
<text text-anchor="start" x="8" y="-103.5" font-family="SegoeUI" font-size="10.00">+ componentCount</text>
<text text-anchor="start" x="8" y="-92.5" font-family="SegoeUI" font-size="10.00">+ PredictedPosition</text>
<text text-anchor="start" x="8" y="-81.5" font-family="SegoeUI" font-size="10.00">+ Position</text>
<text text-anchor="start" x="8" y="-70.5" font-family="SegoeUI" font-size="10.00">&#45; IF</text>
<text text-anchor="start" x="8" y="-59.5" font-family="SegoeUI" font-size="10.00">&#45; compIF</text>
<text text-anchor="start" x="8" y="-48.5" font-family="SegoeUI" font-size="10.00">&#45; components</text>
<text text-anchor="start" x="8" y="-37.5" font-family="SegoeUI" font-size="10.00">&#45; saturation</text>
<text text-anchor="start" x="8" y="-26.5" font-family="SegoeUI" font-size="10.00">&#45; lastTime</text>
<polyline fill="none" stroke="black" points="0,-19.5 154,-19.5 "/>
<text text-anchor="start" x="8" y="-7.5" font-family="SegoeUI" font-size="10.00">+ UpdateState()</text>
</a>
</g>
</g>
<!-- Node1 -->
<g id="node2" class="node"><title>Node1</title>
<g id="a_node2"><a xlink:href="../../d0/dc2/class_juniper_1_1_mathematics_1_1_abstract_motion_filter.html" target="_top" xlink:title=" ">
<polygon fill="white" stroke="black" points="26,-193.5 26,-261.5 128,-261.5 128,-193.5 26,-193.5"/>
<text text-anchor="middle" x="77" y="-249.5" font-family="SegoeUI" font-size="10.00">AbstractMotionFilter</text>
<polyline fill="none" stroke="black" points="26,-242.5 128,-242.5 "/>
<text text-anchor="start" x="34" y="-230.5" font-family="SegoeUI" font-size="10.00">+ PredictedPosition</text>
<text text-anchor="start" x="34" y="-219.5" font-family="SegoeUI" font-size="10.00">+ Position</text>
<polyline fill="none" stroke="black" points="26,-212.5 128,-212.5 "/>
<text text-anchor="start" x="34" y="-200.5" font-family="SegoeUI" font-size="10.00">+ UpdateState()</text>
</a>
</g>
</g>
<!-- Node1&#45;&gt;Node0 -->
<g id="edge1" class="edge"><title>Node1&#45;&gt;Node0</title>
<path fill="none" stroke="midnightblue" d="M77,-183C77,-174.7 77,-165.784 77,-156.792"/>
<polygon fill="none" stroke="midnightblue" points="73.5001,-183.143 77,-193.143 80.5001,-183.143 73.5001,-183.143"/>
</g>
<!-- Node2 -->
<g id="node3" class="node"><title>Node2</title>
<g id="a_node3"><a xlink:title=" ">
<polygon fill="white" stroke="#bfbfbf" points="33.5,-298.5 33.5,-355.5 120.5,-355.5 120.5,-298.5 33.5,-298.5"/>
<text text-anchor="middle" x="77" y="-343.5" font-family="SegoeUI" font-size="10.00">ScriptableObject</text>
<polyline fill="none" stroke="#bfbfbf" points="33.5,-336.5 120.5,-336.5 "/>
<text text-anchor="middle" x="77" y="-324.5" font-family="SegoeUI" font-size="10.00"> </text>
<polyline fill="none" stroke="#bfbfbf" points="33.5,-317.5 120.5,-317.5 "/>
<text text-anchor="middle" x="77" y="-305.5" font-family="SegoeUI" font-size="10.00"> </text>
</a>
</g>
</g>
<!-- Node2&#45;&gt;Node1 -->
<g id="edge2" class="edge"><title>Node2&#45;&gt;Node1</title>
<path fill="none" stroke="midnightblue" d="M77,-288.063C77,-279.393 77,-270.243 77,-261.786"/>
<polygon fill="none" stroke="midnightblue" points="73.5001,-288.321 77,-298.321 80.5001,-288.321 73.5001,-288.321"/>
</g>
</g>
</svg>
