<?xml version="1.0" encoding="UTF-8" standalone="no"?>
<!DOCTYPE svg PUBLIC "-//W3C//DTD SVG 1.1//EN"
 "http://www.w3.org/Graphics/SVG/1.1/DTD/svg11.dtd">
<!-- Generated by graphviz version 2.38.0 (20140413.2041)
 -->
<!-- Title: Juniper.IO.StringFactory Pages: 1 -->
<svg width="436pt" height="532pt"
 viewBox="0.00 0.00 436.00 532.00" xmlns="http://www.w3.org/2000/svg" xmlns:xlink="http://www.w3.org/1999/xlink">
<g id="graph0" class="graph" transform="scale(1 1) rotate(0) translate(4 528)">
<title>Juniper.IO.StringFactory</title>
<polygon fill="white" stroke="none" points="-4,4 -4,-528 432,-528 432,4 -4,4"/>
<!-- Node0 -->
<g id="node1" class="node"><title>Node0</title>
<g id="a_node1"><a xlink:title=" ">
<polygon fill="#bfbfbf" stroke="black" points="131,-0.5 131,-90.5 251,-90.5 251,-0.5 131,-0.5"/>
<text text-anchor="middle" x="191" y="-78.5" font-family="SegoeUI" font-size="10.00">Juniper.IO.StringFactory</text>
<polyline fill="none" stroke="black" points="131,-71.5 251,-71.5 "/>
<text text-anchor="start" x="139" y="-59.5" font-family="SegoeUI" font-size="10.00">+ ContentType</text>
<polyline fill="none" stroke="black" points="131,-52.5 251,-52.5 "/>
<text text-anchor="start" x="139" y="-40.5" font-family="SegoeUI" font-size="10.00">+ StringFactory()</text>
<text text-anchor="start" x="139" y="-29.5" font-family="SegoeUI" font-size="10.00">+ StringFactory()</text>
<text text-anchor="start" x="139" y="-18.5" font-family="SegoeUI" font-size="10.00">+ Deserialize()</text>
<text text-anchor="start" x="139" y="-7.5" font-family="SegoeUI" font-size="10.00">+ Serialize()</text>
</a>
</g>
</g>
<!-- Node1 -->
<g id="node2" class="node"><title>Node1</title>
<g id="a_node2"><a xlink:href="../../da/df2/interface_juniper_1_1_i_o_1_1_i_factory.html" target="_top" xlink:title=" ">
<polygon fill="white" stroke="black" points="121,-128.5 121,-196.5 261,-196.5 261,-128.5 121,-128.5"/>
<text text-anchor="start" x="129" y="-184.5" font-family="SegoeUI" font-size="10.00">IFactory&lt; string, MediaType.</text>
<text text-anchor="middle" x="191" y="-173.5" font-family="SegoeUI" font-size="10.00">Text &gt;</text>
<polyline fill="none" stroke="black" points="121,-166.5 261,-166.5 "/>
<text text-anchor="middle" x="191" y="-154.5" font-family="SegoeUI" font-size="10.00"> </text>
<polyline fill="none" stroke="black" points="121,-147.5 261,-147.5 "/>
<text text-anchor="middle" x="191" y="-135.5" font-family="SegoeUI" font-size="10.00"> </text>
</a>
</g>
</g>
<!-- Node1&#45;&gt;Node0 -->
<g id="edge1" class="edge"><title>Node1&#45;&gt;Node0</title>
<path fill="none" stroke="midnightblue" d="M191,-118.055C191,-109.146 191,-99.7573 191,-90.8181"/>
<polygon fill="none" stroke="midnightblue" points="187.5,-118.237 191,-128.237 194.5,-118.237 187.5,-118.237"/>
</g>
<!-- Node2 -->
<g id="node3" class="node"><title>Node2</title>
<g id="a_node3"><a xlink:href="../../da/df2/interface_juniper_1_1_i_o_1_1_i_factory.html" target="_top" xlink:title=" ">
<polygon fill="white" stroke="black" points="111,-244.5 111,-312.5 271,-312.5 271,-244.5 111,-244.5"/>
<text text-anchor="start" x="119" y="-300.5" font-family="SegoeUI" font-size="10.00">Juniper.IO.IFactory</text>
<text text-anchor="middle" x="191" y="-289.5" font-family="SegoeUI" font-size="10.00">&lt; ResultT, out out MediaTypeT &gt;</text>
<polyline fill="none" stroke="black" points="111,-282.5 271,-282.5 "/>
<text text-anchor="middle" x="191" y="-270.5" font-family="SegoeUI" font-size="10.00"> </text>
<polyline fill="none" stroke="black" points="111,-263.5 271,-263.5 "/>
<text text-anchor="middle" x="191" y="-251.5" font-family="SegoeUI" font-size="10.00"> </text>
</a>
</g>
</g>
<!-- Node2&#45;&gt;Node1 -->
<g id="edge2" class="edge"><title>Node2&#45;&gt;Node1</title>
<path fill="none" stroke="orange" d="M191,-234.06C191,-221.644 191,-208.316 191,-196.624"/>
<polygon fill="orange" stroke="orange" points="187.5,-234.22 191,-244.22 194.5,-234.22 187.5,-234.22"/>
<text text-anchor="middle" x="251.5" y="-218" font-family="SegoeUI" font-size="10.00"> &lt; string, MediaType.Text &gt;</text>
</g>
<!-- Node3 -->
<g id="node4" class="node"><title>Node3</title>
<g id="a_node4"><a xlink:href="../../de/d17/interface_juniper_1_1_i_o_1_1_i_serializer.html" target="_top" xlink:title=" ">
<polygon fill="white" stroke="black" points="0,-350.5 0,-407.5 112,-407.5 112,-350.5 0,-350.5"/>
<text text-anchor="middle" x="56" y="-395.5" font-family="SegoeUI" font-size="10.00">ISerializer&lt; ResultT &gt;</text>
<polyline fill="none" stroke="black" points="0,-388.5 112,-388.5 "/>
<text text-anchor="middle" x="56" y="-376.5" font-family="SegoeUI" font-size="10.00"> </text>
<polyline fill="none" stroke="black" points="0,-369.5 112,-369.5 "/>
<text text-anchor="start" x="8" y="-357.5" font-family="SegoeUI" font-size="10.00">+ Serialize()</text>
</a>
</g>
</g>
<!-- Node3&#45;&gt;Node2 -->
<g id="edge3" class="edge"><title>Node3&#45;&gt;Node2</title>
<path fill="none" stroke="midnightblue" d="M102.075,-344.383C116.158,-334.107 131.63,-322.818 145.664,-312.578"/>
<polygon fill="none" stroke="midnightblue" points="99.9796,-341.579 93.9643,-350.3 104.106,-347.233 99.9796,-341.579"/>
</g>
<!-- Node4 -->
<g id="node5" class="node"><title>Node4</title>
<g id="a_node5"><a xlink:href="../../de/d17/interface_juniper_1_1_i_o_1_1_i_serializer.html" target="_top" xlink:title=" ">
<polygon fill="white" stroke="black" points="2.5,-455.5 2.5,-523.5 109.5,-523.5 109.5,-455.5 2.5,-455.5"/>
<text text-anchor="start" x="10.5" y="-511.5" font-family="SegoeUI" font-size="10.00">Juniper.IO.ISerializer</text>
<text text-anchor="middle" x="56" y="-500.5" font-family="SegoeUI" font-size="10.00">&lt; in in T &gt;</text>
<polyline fill="none" stroke="black" points="2.5,-493.5 109.5,-493.5 "/>
<text text-anchor="middle" x="56" y="-481.5" font-family="SegoeUI" font-size="10.00"> </text>
<polyline fill="none" stroke="black" points="2.5,-474.5 109.5,-474.5 "/>
<text text-anchor="start" x="10.5" y="-462.5" font-family="SegoeUI" font-size="10.00">+ Serialize()</text>
</a>
</g>
</g>
<!-- Node4&#45;&gt;Node3 -->
<g id="edge4" class="edge"><title>Node4&#45;&gt;Node3</title>
<path fill="none" stroke="orange" d="M56,-445.064C56,-432.511 56,-419.152 56,-407.827"/>
<polygon fill="orange" stroke="orange" points="52.5001,-445.357 56,-455.357 59.5001,-445.357 52.5001,-445.357"/>
<text text-anchor="middle" x="83.5" y="-429" font-family="SegoeUI" font-size="10.00"> &lt; ResultT &gt;</text>
</g>
<!-- Node5 -->
<g id="node6" class="node"><title>Node5</title>
<g id="a_node6"><a xlink:href="../../d1/d4d/interface_juniper_1_1_i_o_1_1_i_deserializer.html" target="_top" xlink:title=" ">
<polygon fill="white" stroke="black" points="130,-350.5 130,-407.5 252,-407.5 252,-350.5 130,-350.5"/>
<text text-anchor="middle" x="191" y="-395.5" font-family="SegoeUI" font-size="10.00">IDeserializer&lt; ResultT &gt;</text>
<polyline fill="none" stroke="black" points="130,-388.5 252,-388.5 "/>
<text text-anchor="middle" x="191" y="-376.5" font-family="SegoeUI" font-size="10.00"> </text>
<polyline fill="none" stroke="black" points="130,-369.5 252,-369.5 "/>
<text text-anchor="start" x="138" y="-357.5" font-family="SegoeUI" font-size="10.00">+ Deserialize()</text>
</a>
</g>
</g>
<!-- Node5&#45;&gt;Node2 -->
<g id="edge5" class="edge"><title>Node5&#45;&gt;Node2</title>
<path fill="none" stroke="midnightblue" d="M191,-340.007C191,-330.962 191,-321.383 191,-312.578"/>
<polygon fill="none" stroke="midnightblue" points="187.5,-340.3 191,-350.3 194.5,-340.3 187.5,-340.3"/>
</g>
<!-- Node6 -->
<g id="node7" class="node"><title>Node6</title>
<g id="a_node7"><a xlink:href="../../d1/d4d/interface_juniper_1_1_i_o_1_1_i_deserializer.html" target="_top" xlink:title=" ">
<polygon fill="white" stroke="black" points="133,-455.5 133,-523.5 249,-523.5 249,-455.5 133,-455.5"/>
<text text-anchor="start" x="141" y="-511.5" font-family="SegoeUI" font-size="10.00">Juniper.IO.IDeserializer</text>
<text text-anchor="middle" x="191" y="-500.5" font-family="SegoeUI" font-size="10.00">&lt; out out ResultT &gt;</text>
<polyline fill="none" stroke="black" points="133,-493.5 249,-493.5 "/>
<text text-anchor="middle" x="191" y="-481.5" font-family="SegoeUI" font-size="10.00"> </text>
<polyline fill="none" stroke="black" points="133,-474.5 249,-474.5 "/>
<text text-anchor="start" x="141" y="-462.5" font-family="SegoeUI" font-size="10.00">+ Deserialize()</text>
</a>
</g>
</g>
<!-- Node6&#45;&gt;Node5 -->
<g id="edge6" class="edge"><title>Node6&#45;&gt;Node5</title>
<path fill="none" stroke="orange" d="M191,-445.064C191,-432.511 191,-419.152 191,-407.827"/>
<polygon fill="orange" stroke="orange" points="187.5,-445.357 191,-455.357 194.5,-445.357 187.5,-445.357"/>
<text text-anchor="middle" x="218.5" y="-429" font-family="SegoeUI" font-size="10.00"> &lt; ResultT &gt;</text>
</g>
<!-- Node7 -->
<g id="node8" class="node"><title>Node7</title>
<g id="a_node8"><a xlink:href="../../da/d97/interface_juniper_1_1_i_o_1_1_i_content_handler.html" target="_top" xlink:title=" ">
<polygon fill="white" stroke="black" points="270,-350.5 270,-407.5 428,-407.5 428,-350.5 270,-350.5"/>
<text text-anchor="middle" x="349" y="-395.5" font-family="SegoeUI" font-size="10.00">IContentHandler&lt; MediaTypeT &gt;</text>
<polyline fill="none" stroke="black" points="270,-388.5 428,-388.5 "/>
<text text-anchor="middle" x="349" y="-376.5" font-family="SegoeUI" font-size="10.00"> </text>
<polyline fill="none" stroke="black" points="270,-369.5 428,-369.5 "/>
<text text-anchor="middle" x="349" y="-357.5" font-family="SegoeUI" font-size="10.00"> </text>
</a>
</g>
</g>
<!-- Node7&#45;&gt;Node2 -->
<g id="edge7" class="edge"><title>Node7&#45;&gt;Node2</title>
<path fill="none" stroke="midnightblue" d="M295.998,-344.958C279.27,-334.529 260.792,-323.009 244.06,-312.578"/>
<polygon fill="none" stroke="midnightblue" points="294.23,-347.98 304.568,-350.3 297.933,-342.04 294.23,-347.98"/>
</g>
<!-- Node8 -->
<g id="node9" class="node"><title>Node8</title>
<g id="a_node9"><a xlink:href="../../da/d97/interface_juniper_1_1_i_o_1_1_i_content_handler.html" target="_top" xlink:title=" ">
<polygon fill="white" stroke="black" points="283,-461 283,-518 415,-518 415,-461 283,-461"/>
<text text-anchor="middle" x="349" y="-506" font-family="SegoeUI" font-size="10.00">Juniper.IO.IContentHandler</text>
<polyline fill="none" stroke="black" points="283,-499 415,-499 "/>
<text text-anchor="middle" x="349" y="-487" font-family="SegoeUI" font-size="10.00"> </text>
<polyline fill="none" stroke="black" points="283,-480 415,-480 "/>
<text text-anchor="middle" x="349" y="-468" font-family="SegoeUI" font-size="10.00"> </text>
</a>
</g>
</g>
<!-- Node8&#45;&gt;Node7 -->
<g id="edge8" class="edge"><title>Node8&#45;&gt;Node7</title>
<path fill="none" stroke="orange" d="M349,-450.436C349,-436.327 349,-420.611 349,-407.609"/>
<polygon fill="orange" stroke="orange" points="345.5,-450.84 349,-460.84 352.5,-450.84 345.5,-450.84"/>
<text text-anchor="middle" x="387" y="-429" font-family="SegoeUI" font-size="10.00"> &lt; MediaTypeT &gt;</text>
</g>
</g>
</svg>
