<?xml version="1.0" encoding="UTF-8" standalone="no"?>
<!DOCTYPE svg PUBLIC "-//W3C//DTD SVG 1.1//EN"
 "http://www.w3.org/Graphics/SVG/1.1/DTD/svg11.dtd">
<!-- Generated by graphviz version 2.38.0 (20140413.2041)
 -->
<!-- Title: Juniper.Haptics.DefaultHaptics Pages: 1 -->
<svg width="182pt" height="794pt"
 viewBox="0.00 0.00 182.00 794.00" xmlns="http://www.w3.org/2000/svg" xmlns:xlink="http://www.w3.org/1999/xlink">
<g id="graph0" class="graph" transform="scale(1 1) rotate(0) translate(4 790)">
<title>Juniper.Haptics.DefaultHaptics</title>
<polygon fill="white" stroke="none" points="-4,4 -4,-790 178,-790 178,4 -4,4"/>
<!-- Node6 -->
<g id="node1" class="node"><title>Node6</title>
<g id="a_node1"><a xlink:title="When no specific haptic implementation is available, but we know the system supports haptics,...">
<polygon fill="#bfbfbf" stroke="black" points="10.5,-0.5 10.5,-90.5 167.5,-90.5 167.5,-0.5 10.5,-0.5"/>
<text text-anchor="middle" x="89" y="-78.5" font-family="SegoeUI" font-size="10.00">Juniper.Haptics.DefaultHaptics</text>
<polyline fill="none" stroke="black" points="10.5,-71.5 167.5,-71.5 "/>
<text text-anchor="start" x="18.5" y="-59.5" font-family="SegoeUI" font-size="10.00">&#45; gp</text>
<polyline fill="none" stroke="black" points="10.5,-52.5 167.5,-52.5 "/>
<text text-anchor="start" x="18.5" y="-40.5" font-family="SegoeUI" font-size="10.00">+ Awake()</text>
<text text-anchor="start" x="18.5" y="-29.5" font-family="SegoeUI" font-size="10.00"># SetVibration()</text>
<text text-anchor="start" x="18.5" y="-18.5" font-family="SegoeUI" font-size="10.00">&#45; Gamepad_GamepadAdded()</text>
<text text-anchor="start" x="18.5" y="-7.5" font-family="SegoeUI" font-size="10.00">&#45; Gamepad_GamepadRemoved()</text>
</a>
</g>
</g>
<!-- Node7 -->
<g id="node2" class="node"><title>Node7</title>
<g id="a_node2"><a xlink:href="../../da/d4b/class_juniper_1_1_haptics_1_1_abstract_haptic_immediate_expressor.html" target="_top" xlink:title=" ">
<polygon fill="white" stroke="black" points="6,-127.5 6,-206.5 172,-206.5 172,-127.5 6,-127.5"/>
<text text-anchor="middle" x="89" y="-194.5" font-family="SegoeUI" font-size="10.00">AbstractHapticImmediateExpressor</text>
<polyline fill="none" stroke="black" points="6,-187.5 172,-187.5 "/>
<text text-anchor="middle" x="89" y="-175.5" font-family="SegoeUI" font-size="10.00"> </text>
<polyline fill="none" stroke="black" points="6,-168.5 172,-168.5 "/>
<text text-anchor="start" x="14" y="-156.5" font-family="SegoeUI" font-size="10.00">+ Cancel()</text>
<text text-anchor="start" x="14" y="-145.5" font-family="SegoeUI" font-size="10.00"># VibrateCoroutine()</text>
<text text-anchor="start" x="14" y="-134.5" font-family="SegoeUI" font-size="10.00"># SetVibration()</text>
</a>
</g>
</g>
<!-- Node7&#45;&gt;Node6 -->
<g id="edge1" class="edge"><title>Node7&#45;&gt;Node6</title>
<path fill="none" stroke="midnightblue" d="M89,-117.187C89,-108.491 89,-99.4758 89,-90.9111"/>
<polygon fill="none" stroke="midnightblue" points="85.5001,-117.202 89,-127.202 92.5001,-117.202 85.5001,-117.202"/>
</g>
<!-- Node8 -->
<g id="node3" class="node"><title>Node8</title>
<g id="a_node3"><a xlink:href="../../d2/d3e/class_juniper_1_1_haptics_1_1_abstract_haptic_retained_expressor.html" target="_top" xlink:title="Non&#45;iOS systems do not have built&#45;in haptic patterns. This class replicates the functionality of the ...">
<polygon fill="white" stroke="black" points="10,-243.5 10,-443.5 168,-443.5 168,-243.5 10,-243.5"/>
<text text-anchor="middle" x="89" y="-431.5" font-family="SegoeUI" font-size="10.00">AbstractHapticRetainedExpressor</text>
<polyline fill="none" stroke="black" points="10,-424.5 168,-424.5 "/>
<text text-anchor="middle" x="89" y="-412.5" font-family="SegoeUI" font-size="10.00"> </text>
<polyline fill="none" stroke="black" points="10,-405.5 168,-405.5 "/>
<text text-anchor="start" x="18" y="-393.5" font-family="SegoeUI" font-size="10.00">+ Cancel()</text>
<text text-anchor="start" x="18" y="-382.5" font-family="SegoeUI" font-size="10.00">+ Play()</text>
<text text-anchor="start" x="18" y="-371.5" font-family="SegoeUI" font-size="10.00">+ Play()</text>
<text text-anchor="start" x="18" y="-360.5" font-family="SegoeUI" font-size="10.00">+ Vibrate()</text>
<text text-anchor="start" x="18" y="-349.5" font-family="SegoeUI" font-size="10.00">+ Vibrate()</text>
<text text-anchor="start" x="18" y="-338.5" font-family="SegoeUI" font-size="10.00">+ Play()</text>
<text text-anchor="start" x="18" y="-327.5" font-family="SegoeUI" font-size="10.00">+ Play()</text>
<text text-anchor="start" x="18" y="-316.5" font-family="SegoeUI" font-size="10.00">+ Vibrate()</text>
<text text-anchor="start" x="18" y="-305.5" font-family="SegoeUI" font-size="10.00"># VibrateCoroutine()</text>
<text text-anchor="start" x="18" y="-294.5" font-family="SegoeUI" font-size="10.00"># PlayCoroutine()</text>
<text text-anchor="start" x="18" y="-283.5" font-family="SegoeUI" font-size="10.00"># PlayCoroutine()</text>
<text text-anchor="start" x="18" y="-272.5" font-family="SegoeUI" font-size="10.00"># VibrateCoroutine()</text>
<text text-anchor="start" x="18" y="-261.5" font-family="SegoeUI" font-size="10.00">&#45; PlayCoroutine()</text>
<text text-anchor="start" x="18" y="-250.5" font-family="SegoeUI" font-size="10.00">&#45; VibrateCoroutine()</text>
</a>
</g>
</g>
<!-- Node8&#45;&gt;Node7 -->
<g id="edge2" class="edge"><title>Node8&#45;&gt;Node7</title>
<path fill="none" stroke="midnightblue" d="M89,-233.094C89,-223.826 89,-214.915 89,-206.819"/>
<polygon fill="none" stroke="midnightblue" points="85.5001,-233.27 89,-243.27 92.5001,-233.27 85.5001,-233.27"/>
</g>
<!-- Node9 -->
<g id="node4" class="node"><title>Node9</title>
<g id="a_node4"><a xlink:href="../../d0/d83/class_juniper_1_1_haptics_1_1_abstract_haptic_device.html" target="_top" xlink:title="An interface for all haptic device subsystems.">
<polygon fill="white" stroke="black" points="36,-480.5 36,-614.5 142,-614.5 142,-480.5 36,-480.5"/>
<text text-anchor="middle" x="89" y="-602.5" font-family="SegoeUI" font-size="10.00">AbstractHapticDevice</text>
<polyline fill="none" stroke="black" points="36,-595.5 142,-595.5 "/>
<text text-anchor="middle" x="89" y="-583.5" font-family="SegoeUI" font-size="10.00"> </text>
<polyline fill="none" stroke="black" points="36,-576.5 142,-576.5 "/>
<text text-anchor="start" x="44" y="-564.5" font-family="SegoeUI" font-size="10.00">+ Cancel()</text>
<text text-anchor="start" x="44" y="-553.5" font-family="SegoeUI" font-size="10.00">+ Play()</text>
<text text-anchor="start" x="44" y="-542.5" font-family="SegoeUI" font-size="10.00">+ Vibrate()</text>
<text text-anchor="start" x="44" y="-531.5" font-family="SegoeUI" font-size="10.00">+ Play()</text>
<text text-anchor="start" x="44" y="-520.5" font-family="SegoeUI" font-size="10.00">+ Play()</text>
<text text-anchor="start" x="44" y="-509.5" font-family="SegoeUI" font-size="10.00">+ Play()</text>
<text text-anchor="start" x="44" y="-498.5" font-family="SegoeUI" font-size="10.00">+ Vibrate()</text>
<text text-anchor="start" x="44" y="-487.5" font-family="SegoeUI" font-size="10.00">+ Vibrate()</text>
</a>
</g>
</g>
<!-- Node9&#45;&gt;Node8 -->
<g id="edge3" class="edge"><title>Node9&#45;&gt;Node8</title>
<path fill="none" stroke="midnightblue" d="M89,-470.302C89,-461.62 89,-452.677 89,-443.752"/>
<polygon fill="none" stroke="midnightblue" points="85.5001,-470.358 89,-480.358 92.5001,-470.358 85.5001,-470.358"/>
</g>
<!-- Node10 -->
<g id="node5" class="node"><title>Node10</title>
<g id="a_node5"><a xlink:title=" ">
<polygon fill="white" stroke="#bfbfbf" points="0,-690 0,-747 82,-747 82,-690 0,-690"/>
<text text-anchor="middle" x="41" y="-735" font-family="SegoeUI" font-size="10.00">MonoBehaviour</text>
<polyline fill="none" stroke="#bfbfbf" points="0,-728 82,-728 "/>
<text text-anchor="middle" x="41" y="-716" font-family="SegoeUI" font-size="10.00"> </text>
<polyline fill="none" stroke="#bfbfbf" points="0,-709 82,-709 "/>
<text text-anchor="middle" x="41" y="-697" font-family="SegoeUI" font-size="10.00"> </text>
</a>
</g>
</g>
<!-- Node10&#45;&gt;Node9 -->
<g id="edge4" class="edge"><title>Node10&#45;&gt;Node9</title>
<path fill="none" stroke="midnightblue" d="M51.6186,-680.114C57.0752,-660.902 63.8881,-636.915 70.1975,-614.7"/>
<polygon fill="none" stroke="midnightblue" points="48.1843,-679.395 48.8189,-689.971 54.9179,-681.308 48.1843,-679.395"/>
</g>
<!-- Node11 -->
<g id="node6" class="node"><title>Node11</title>
<g id="a_node6"><a xlink:href="../../d8/d03/interface_juniper_1_1_haptics_1_1_i_haptic_device.html" target="_top" xlink:title=" ">
<polygon fill="white" stroke="black" points="100,-651.5 100,-785.5 174,-785.5 174,-651.5 100,-651.5"/>
<text text-anchor="middle" x="137" y="-773.5" font-family="SegoeUI" font-size="10.00">IHapticDevice</text>
<polyline fill="none" stroke="black" points="100,-766.5 174,-766.5 "/>
<text text-anchor="middle" x="137" y="-754.5" font-family="SegoeUI" font-size="10.00"> </text>
<polyline fill="none" stroke="black" points="100,-747.5 174,-747.5 "/>
<text text-anchor="start" x="108" y="-735.5" font-family="SegoeUI" font-size="10.00">+ Cancel()</text>
<text text-anchor="start" x="108" y="-724.5" font-family="SegoeUI" font-size="10.00">+ Play()</text>
<text text-anchor="start" x="108" y="-713.5" font-family="SegoeUI" font-size="10.00">+ Vibrate()</text>
<text text-anchor="start" x="108" y="-702.5" font-family="SegoeUI" font-size="10.00">+ Play()</text>
<text text-anchor="start" x="108" y="-691.5" font-family="SegoeUI" font-size="10.00">+ Play()</text>
<text text-anchor="start" x="108" y="-680.5" font-family="SegoeUI" font-size="10.00">+ Play()</text>
<text text-anchor="start" x="108" y="-669.5" font-family="SegoeUI" font-size="10.00">+ Vibrate()</text>
<text text-anchor="start" x="108" y="-658.5" font-family="SegoeUI" font-size="10.00">+ Vibrate()</text>
</a>
</g>
</g>
<!-- Node11&#45;&gt;Node9 -->
<g id="edge5" class="edge"><title>Node11&#45;&gt;Node9</title>
<path fill="none" stroke="midnightblue" d="M115.421,-641.522C112.871,-632.547 110.285,-623.441 107.779,-614.617"/>
<polygon fill="none" stroke="midnightblue" points="112.068,-642.529 118.167,-651.192 118.801,-640.616 112.068,-642.529"/>
</g>
</g>
</svg>
