<?xml version="1.0" encoding="UTF-8" standalone="no"?>
<!DOCTYPE svg PUBLIC "-//W3C//DTD SVG 1.1//EN"
 "http://www.w3.org/Graphics/SVG/1.1/DTD/svg11.dtd">
<!-- Generated by graphviz version 2.38.0 (20140413.2041)
 -->
<!-- Title: Juniper.Haptics.DefaultHaptics Pages: 1 -->
<svg width="165pt" height="623pt"
 viewBox="0.00 0.00 165.00 623.00" xmlns="http://www.w3.org/2000/svg" xmlns:xlink="http://www.w3.org/1999/xlink">
<g id="graph0" class="graph" transform="scale(1 1) rotate(0) translate(4 619)">
<title>Juniper.Haptics.DefaultHaptics</title>
<polygon fill="white" stroke="none" points="-4,4 -4,-619 161,-619 161,4 -4,4"/>
<!-- Node4 -->
<g id="node1" class="node"><title>Node4</title>
<g id="a_node1"><a xlink:title="When no specific haptic implementation is available, but we know the system supports haptics,...">
<polygon fill="#bfbfbf" stroke="black" points="0,-0.5 0,-112.5 157,-112.5 157,-0.5 0,-0.5"/>
<text text-anchor="middle" x="78.5" y="-100.5" font-family="SegoeUI" font-size="10.00">Juniper.Haptics.DefaultHaptics</text>
<polyline fill="none" stroke="black" points="0,-93.5 157,-93.5 "/>
<text text-anchor="start" x="8" y="-81.5" font-family="SegoeUI" font-size="10.00">&#45; gp</text>
<polyline fill="none" stroke="black" points="0,-74.5 157,-74.5 "/>
<text text-anchor="start" x="8" y="-62.5" font-family="SegoeUI" font-size="10.00">+ Awake()</text>
<text text-anchor="start" x="8" y="-51.5" font-family="SegoeUI" font-size="10.00">+ Cancel()</text>
<text text-anchor="start" x="8" y="-40.5" font-family="SegoeUI" font-size="10.00"># VibrateCoroutine()</text>
<text text-anchor="start" x="8" y="-29.5" font-family="SegoeUI" font-size="10.00">&#45; Gamepad_GamepadAdded()</text>
<text text-anchor="start" x="8" y="-18.5" font-family="SegoeUI" font-size="10.00">&#45; Gamepad_GamepadRemoved()</text>
<text text-anchor="start" x="8" y="-7.5" font-family="SegoeUI" font-size="10.00">&#45; SetVibration()</text>
</a>
</g>
</g>
<!-- Node5 -->
<g id="node2" class="node"><title>Node5</title>
<g id="a_node2"><a xlink:href="../../d7/d8b/class_juniper_1_1_haptics_1_1_abstract_haptic_expressor.html" target="_top" xlink:title="Non&#45;iOS systems do not have built&#45;in haptic patterns. This class replicates the functionality of the ...">
<polygon fill="white" stroke="black" points="18.5,-149.5 18.5,-349.5 138.5,-349.5 138.5,-149.5 18.5,-149.5"/>
<text text-anchor="middle" x="78.5" y="-337.5" font-family="SegoeUI" font-size="10.00">AbstractHapticExpressor</text>
<polyline fill="none" stroke="black" points="18.5,-330.5 138.5,-330.5 "/>
<text text-anchor="middle" x="78.5" y="-318.5" font-family="SegoeUI" font-size="10.00"> </text>
<polyline fill="none" stroke="black" points="18.5,-311.5 138.5,-311.5 "/>
<text text-anchor="start" x="26.5" y="-299.5" font-family="SegoeUI" font-size="10.00">+ Cancel()</text>
<text text-anchor="start" x="26.5" y="-288.5" font-family="SegoeUI" font-size="10.00">+ Play()</text>
<text text-anchor="start" x="26.5" y="-277.5" font-family="SegoeUI" font-size="10.00">+ Play()</text>
<text text-anchor="start" x="26.5" y="-266.5" font-family="SegoeUI" font-size="10.00">+ Vibrate()</text>
<text text-anchor="start" x="26.5" y="-255.5" font-family="SegoeUI" font-size="10.00">+ Vibrate()</text>
<text text-anchor="start" x="26.5" y="-244.5" font-family="SegoeUI" font-size="10.00">+ Play()</text>
<text text-anchor="start" x="26.5" y="-233.5" font-family="SegoeUI" font-size="10.00">+ Play()</text>
<text text-anchor="start" x="26.5" y="-222.5" font-family="SegoeUI" font-size="10.00">+ Vibrate()</text>
<text text-anchor="start" x="26.5" y="-211.5" font-family="SegoeUI" font-size="10.00"># VibrateCoroutine()</text>
<text text-anchor="start" x="26.5" y="-200.5" font-family="SegoeUI" font-size="10.00"># PlayCoroutine()</text>
<text text-anchor="start" x="26.5" y="-189.5" font-family="SegoeUI" font-size="10.00"># PlayCoroutine()</text>
<text text-anchor="start" x="26.5" y="-178.5" font-family="SegoeUI" font-size="10.00"># VibrateCoroutine()</text>
<text text-anchor="start" x="26.5" y="-167.5" font-family="SegoeUI" font-size="10.00">&#45; PlayCoroutine()</text>
<text text-anchor="start" x="26.5" y="-156.5" font-family="SegoeUI" font-size="10.00">&#45; VibrateCoroutine()</text>
</a>
</g>
</g>
<!-- Node5&#45;&gt;Node4 -->
<g id="edge1" class="edge"><title>Node5&#45;&gt;Node4</title>
<path fill="none" stroke="midnightblue" d="M78.5,-139.117C78.5,-130.09 78.5,-121.232 78.5,-112.874"/>
<polygon fill="none" stroke="midnightblue" points="75.0001,-139.364 78.5,-149.364 82.0001,-139.364 75.0001,-139.364"/>
</g>
<!-- Node6 -->
<g id="node3" class="node"><title>Node6</title>
<g id="a_node3"><a xlink:href="../../d0/d83/class_juniper_1_1_haptics_1_1_abstract_haptic_device.html" target="_top" xlink:title="An interface for all haptic device subsystems.">
<polygon fill="white" stroke="black" points="25.5,-386.5 25.5,-520.5 131.5,-520.5 131.5,-386.5 25.5,-386.5"/>
<text text-anchor="middle" x="78.5" y="-508.5" font-family="SegoeUI" font-size="10.00">AbstractHapticDevice</text>
<polyline fill="none" stroke="black" points="25.5,-501.5 131.5,-501.5 "/>
<text text-anchor="middle" x="78.5" y="-489.5" font-family="SegoeUI" font-size="10.00"> </text>
<polyline fill="none" stroke="black" points="25.5,-482.5 131.5,-482.5 "/>
<text text-anchor="start" x="33.5" y="-470.5" font-family="SegoeUI" font-size="10.00">+ Cancel()</text>
<text text-anchor="start" x="33.5" y="-459.5" font-family="SegoeUI" font-size="10.00">+ Play()</text>
<text text-anchor="start" x="33.5" y="-448.5" font-family="SegoeUI" font-size="10.00">+ Vibrate()</text>
<text text-anchor="start" x="33.5" y="-437.5" font-family="SegoeUI" font-size="10.00">+ Play()</text>
<text text-anchor="start" x="33.5" y="-426.5" font-family="SegoeUI" font-size="10.00">+ Play()</text>
<text text-anchor="start" x="33.5" y="-415.5" font-family="SegoeUI" font-size="10.00">+ Play()</text>
<text text-anchor="start" x="33.5" y="-404.5" font-family="SegoeUI" font-size="10.00">+ Vibrate()</text>
<text text-anchor="start" x="33.5" y="-393.5" font-family="SegoeUI" font-size="10.00">+ Vibrate()</text>
</a>
</g>
</g>
<!-- Node6&#45;&gt;Node5 -->
<g id="edge2" class="edge"><title>Node6&#45;&gt;Node5</title>
<path fill="none" stroke="midnightblue" d="M78.5,-376.302C78.5,-367.62 78.5,-358.677 78.5,-349.752"/>
<polygon fill="none" stroke="midnightblue" points="75.0001,-376.358 78.5,-386.358 82.0001,-376.358 75.0001,-376.358"/>
</g>
<!-- Node7 -->
<g id="node4" class="node"><title>Node7</title>
<g id="a_node4"><a xlink:title=" ">
<polygon fill="white" stroke="#bfbfbf" points="37.5,-557.5 37.5,-614.5 119.5,-614.5 119.5,-557.5 37.5,-557.5"/>
<text text-anchor="middle" x="78.5" y="-602.5" font-family="SegoeUI" font-size="10.00">MonoBehaviour</text>
<polyline fill="none" stroke="#bfbfbf" points="37.5,-595.5 119.5,-595.5 "/>
<text text-anchor="middle" x="78.5" y="-583.5" font-family="SegoeUI" font-size="10.00"> </text>
<polyline fill="none" stroke="#bfbfbf" points="37.5,-576.5 119.5,-576.5 "/>
<text text-anchor="middle" x="78.5" y="-564.5" font-family="SegoeUI" font-size="10.00"> </text>
</a>
</g>
</g>
<!-- Node7&#45;&gt;Node6 -->
<g id="edge3" class="edge"><title>Node7&#45;&gt;Node6</title>
<path fill="none" stroke="midnightblue" d="M78.5,-547.16C78.5,-538.782 78.5,-529.668 78.5,-520.533"/>
<polygon fill="none" stroke="midnightblue" points="75.0001,-547.324 78.5,-557.324 82.0001,-547.324 75.0001,-547.324"/>
</g>
</g>
</svg>
