<?xml version="1.0" encoding="UTF-8" standalone="no"?>
<!DOCTYPE svg PUBLIC "-//W3C//DTD SVG 1.1//EN"
 "http://www.w3.org/Graphics/SVG/1.1/DTD/svg11.dtd">
<!-- Generated by graphviz version 2.38.0 (20140413.2041)
 -->
<!-- Title: Juniper.World.Climate.OpenWeatherMap.OWMWeather Pages: 1 -->
<svg width="145pt" height="259pt"
 viewBox="0.00 0.00 145.00 259.00" xmlns="http://www.w3.org/2000/svg" xmlns:xlink="http://www.w3.org/1999/xlink">
<g id="graph0" class="graph" transform="scale(1 1) rotate(0) translate(4 255)">
<title>Juniper.World.Climate.OpenWeatherMap.OWMWeather</title>
<polygon fill="white" stroke="none" points="-4,4 -4,-255 141,-255 141,4 -4,4"/>
<!-- Node2 -->
<g id="node1" class="node"><title>Node2</title>
<g id="a_node1"><a xlink:title="nested portion of the OpenWeatherMap report that covers weather conditions.">
<polygon fill="#bfbfbf" stroke="black" points="0,-0.5 0,-156.5 137,-156.5 137,-0.5 0,-0.5"/>
<text text-anchor="start" x="8" y="-144.5" font-family="SegoeUI" font-size="10.00">Juniper.World.Climate.Open</text>
<text text-anchor="middle" x="68.5" y="-133.5" font-family="SegoeUI" font-size="10.00">WeatherMap.OWMWeather</text>
<polyline fill="none" stroke="black" points="0,-126.5 137,-126.5 "/>
<text text-anchor="start" x="8" y="-114.5" font-family="SegoeUI" font-size="10.00">+ IconURL</text>
<text text-anchor="start" x="8" y="-103.5" font-family="SegoeUI" font-size="10.00">+ main</text>
<text text-anchor="start" x="8" y="-92.5" font-family="SegoeUI" font-size="10.00">+ description</text>
<text text-anchor="start" x="8" y="-81.5" font-family="SegoeUI" font-size="10.00">+ icon</text>
<text text-anchor="start" x="8" y="-70.5" font-family="SegoeUI" font-size="10.00">+ id</text>
<text text-anchor="start" x="8" y="-59.5" font-family="SegoeUI" font-size="10.00">+ Conditions</text>
<text text-anchor="start" x="8" y="-48.5" font-family="SegoeUI" font-size="10.00">&#45; cond</text>
<polyline fill="none" stroke="black" points="0,-41.5 137,-41.5 "/>
<text text-anchor="start" x="8" y="-29.5" font-family="SegoeUI" font-size="10.00">+ GetObjectData()</text>
<text text-anchor="start" x="8" y="-18.5" font-family="SegoeUI" font-size="10.00">+ GetIconAsync&lt; T &gt;()</text>
<text text-anchor="start" x="8" y="-7.5" font-family="SegoeUI" font-size="10.00"># OWMWeather()</text>
</a>
</g>
</g>
<!-- Node3 -->
<g id="node2" class="node"><title>Node3</title>
<g id="a_node2"><a xlink:title=" ">
<polygon fill="white" stroke="#bfbfbf" points="34,-193.5 34,-250.5 103,-250.5 103,-193.5 34,-193.5"/>
<text text-anchor="middle" x="68.5" y="-238.5" font-family="SegoeUI" font-size="10.00">ISerializable</text>
<polyline fill="none" stroke="#bfbfbf" points="34,-231.5 103,-231.5 "/>
<text text-anchor="middle" x="68.5" y="-219.5" font-family="SegoeUI" font-size="10.00"> </text>
<polyline fill="none" stroke="#bfbfbf" points="34,-212.5 103,-212.5 "/>
<text text-anchor="middle" x="68.5" y="-200.5" font-family="SegoeUI" font-size="10.00"> </text>
</a>
</g>
</g>
<!-- Node3&#45;&gt;Node2 -->
<g id="edge1" class="edge"><title>Node3&#45;&gt;Node2</title>
<path fill="none" stroke="midnightblue" d="M68.5,-183.34C68.5,-175.044 68.5,-165.964 68.5,-156.736"/>
<polygon fill="none" stroke="midnightblue" points="65.0001,-183.381 68.5,-193.381 72.0001,-183.382 65.0001,-183.381"/>
</g>
</g>
</svg>
