<?xml version="1.0" encoding="UTF-8" standalone="no"?>
<!DOCTYPE svg PUBLIC "-//W3C//DTD SVG 1.1//EN"
 "http://www.w3.org/Graphics/SVG/1.1/DTD/svg11.dtd">
<!-- Generated by graphviz version 2.38.0 (20140413.2041)
 -->
<!-- Title: Juniper.Input.Pointers.Screen.IScreenDevice Pages: 1 -->
<svg width="532pt" height="1422pt"
 viewBox="0.00 0.00 532.00 1422.00" xmlns="http://www.w3.org/2000/svg" xmlns:xlink="http://www.w3.org/1999/xlink">
<g id="graph0" class="graph" transform="scale(1 1) rotate(0) translate(4 1418)">
<title>Juniper.Input.Pointers.Screen.IScreenDevice</title>
<polygon fill="white" stroke="none" points="-4,4 -4,-1418 528,-1418 528,4 -4,4"/>
<!-- Node0 -->
<g id="node1" class="node"><title>Node0</title>
<g id="a_node1"><a xlink:title=" ">
<polygon fill="#bfbfbf" stroke="black" points="108,-902.5 108,-981.5 254,-981.5 254,-902.5 108,-902.5"/>
<text text-anchor="start" x="116" y="-969.5" font-family="SegoeUI" font-size="10.00">Juniper.Input.Pointers.Screen.</text>
<text text-anchor="middle" x="181" y="-958.5" font-family="SegoeUI" font-size="10.00">IScreenDevice</text>
<polyline fill="none" stroke="black" points="108,-951.5 254,-951.5 "/>
<text text-anchor="start" x="116" y="-939.5" font-family="SegoeUI" font-size="10.00">+ CameraPositionOffset</text>
<text text-anchor="start" x="116" y="-928.5" font-family="SegoeUI" font-size="10.00">+ CameraRotationOffset</text>
<polyline fill="none" stroke="black" points="108,-921.5 254,-921.5 "/>
<text text-anchor="middle" x="181" y="-909.5" font-family="SegoeUI" font-size="10.00"> </text>
</a>
</g>
</g>
<!-- Node3 -->
<g id="node4" class="node"><title>Node3</title>
<g id="a_node4"><a xlink:href="../../d5/d55/class_juniper_1_1_input_1_1_pointers_1_1_screen_1_1_abstract_screen_device.html" target="_top" xlink:title="A ScreenDevice is a AbstractPointerDevice&lt;ButtonIDType, ConfigType&gt; that has its primary pointer inte...">
<polygon fill="white" stroke="black" points="91.5,-774.5 91.5,-864.5 270.5,-864.5 270.5,-774.5 91.5,-774.5"/>
<text text-anchor="start" x="99.5" y="-852.5" font-family="SegoeUI" font-size="10.00">Juniper.Input.Pointers.Screen.</text>
<text text-anchor="start" x="99.5" y="-841.5" font-family="SegoeUI" font-size="10.00">AbstractScreenDevice&lt; ButtonIDType,</text>
<text text-anchor="middle" x="181" y="-830.5" font-family="SegoeUI" font-size="10.00"> ConfigType, HapticType &gt;</text>
<polyline fill="none" stroke="black" points="91.5,-823.5 270.5,-823.5 "/>
<text text-anchor="start" x="99.5" y="-811.5" font-family="SegoeUI" font-size="10.00">+ CameraPositionOffset</text>
<text text-anchor="start" x="99.5" y="-800.5" font-family="SegoeUI" font-size="10.00">+ CameraRotationOffset</text>
<polyline fill="none" stroke="black" points="91.5,-793.5 270.5,-793.5 "/>
<text text-anchor="middle" x="181" y="-781.5" font-family="SegoeUI" font-size="10.00"> </text>
</a>
</g>
</g>
<!-- Node0&#45;&gt;Node3 -->
<g id="edge3" class="edge"><title>Node0&#45;&gt;Node3</title>
<path fill="none" stroke="midnightblue" d="M181,-892.144C181,-883.053 181,-873.602 181,-864.661"/>
<polygon fill="none" stroke="midnightblue" points="177.5,-892.21 181,-902.21 184.5,-892.21 177.5,-892.21"/>
</g>
<!-- Node1 -->
<g id="node2" class="node"><title>Node1</title>
<g id="a_node2"><a xlink:href="../../d0/da1/interface_juniper_1_1_input_1_1_pointers_1_1_i_pointer_device.html" target="_top" xlink:title=" ">
<polygon fill="white" stroke="black" points="119,-1019.5 119,-1296.5 243,-1296.5 243,-1019.5 119,-1019.5"/>
<text text-anchor="middle" x="181" y="-1284.5" font-family="SegoeUI" font-size="10.00">IPointerDevice</text>
<polyline fill="none" stroke="black" points="119,-1277.5 243,-1277.5 "/>
<text text-anchor="start" x="127" y="-1265.5" font-family="SegoeUI" font-size="10.00">+ transform</text>
<text text-anchor="start" x="127" y="-1254.5" font-family="SegoeUI" font-size="10.00">+ EventTarget</text>
<text text-anchor="start" x="127" y="-1243.5" font-family="SegoeUI" font-size="10.00">+ InputModule</text>
<text text-anchor="start" x="127" y="-1232.5" font-family="SegoeUI" font-size="10.00">+ PointerDataID</text>
<text text-anchor="start" x="127" y="-1221.5" font-family="SegoeUI" font-size="10.00">+ ProbeName</text>
<text text-anchor="start" x="127" y="-1210.5" font-family="SegoeUI" font-size="10.00">+ Probe</text>
<text text-anchor="start" x="127" y="-1199.5" font-family="SegoeUI" font-size="10.00">+ ButtonType</text>
<text text-anchor="start" x="127" y="-1188.5" font-family="SegoeUI" font-size="10.00">+ isActiveAndEnabled</text>
<text text-anchor="start" x="127" y="-1177.5" font-family="SegoeUI" font-size="10.00">+ IsConnected</text>
<text text-anchor="start" x="127" y="-1166.5" font-family="SegoeUI" font-size="10.00">+ ProcessInUpdate</text>
<text text-anchor="start" x="127" y="-1155.5" font-family="SegoeUI" font-size="10.00">and 26 more...</text>
<polyline fill="none" stroke="black" points="119,-1148.5 243,-1148.5 "/>
<text text-anchor="start" x="127" y="-1136.5" font-family="SegoeUI" font-size="10.00">+ OnProbeFound()</text>
<text text-anchor="start" x="127" y="-1125.5" font-family="SegoeUI" font-size="10.00">+ ViewportFromWorld()</text>
<text text-anchor="start" x="127" y="-1114.5" font-family="SegoeUI" font-size="10.00">+ ViewportFromScreen()</text>
<text text-anchor="start" x="127" y="-1103.5" font-family="SegoeUI" font-size="10.00">+ ScreenFromWorld()</text>
<text text-anchor="start" x="127" y="-1092.5" font-family="SegoeUI" font-size="10.00">+ ScreenFromViewport()</text>
<text text-anchor="start" x="127" y="-1081.5" font-family="SegoeUI" font-size="10.00">+ WorldFromScreen()</text>
<text text-anchor="start" x="127" y="-1070.5" font-family="SegoeUI" font-size="10.00">+ WorldFromViewport()</text>
<text text-anchor="start" x="127" y="-1059.5" font-family="SegoeUI" font-size="10.00">+ IsButtonDown()</text>
<text text-anchor="start" x="127" y="-1048.5" font-family="SegoeUI" font-size="10.00">+ IsButtonPressed()</text>
<text text-anchor="start" x="127" y="-1037.5" font-family="SegoeUI" font-size="10.00">+ IsButtonUp()</text>
<text text-anchor="start" x="127" y="-1026.5" font-family="SegoeUI" font-size="10.00">and 7 more...</text>
</a>
</g>
</g>
<!-- Node1&#45;&gt;Node0 -->
<g id="edge1" class="edge"><title>Node1&#45;&gt;Node0</title>
<path fill="none" stroke="midnightblue" d="M181,-1009.28C181,-999.376 181,-990.018 181,-981.626"/>
<polygon fill="none" stroke="midnightblue" points="177.5,-1009.35 181,-1019.35 184.5,-1009.35 177.5,-1009.35"/>
</g>
<!-- Node2 -->
<g id="node3" class="node"><title>Node2</title>
<g id="a_node3"><a xlink:href="../../d5/d9e/interface_juniper_1_1_input_1_1_pointers_1_1_i_laser_pointer.html" target="_top" xlink:title=" ">
<polygon fill="white" stroke="black" points="106.5,-1334.5 106.5,-1413.5 255.5,-1413.5 255.5,-1334.5 106.5,-1334.5"/>
<text text-anchor="middle" x="181" y="-1401.5" font-family="SegoeUI" font-size="10.00">ILaserPointer</text>
<polyline fill="none" stroke="black" points="106.5,-1394.5 255.5,-1394.5 "/>
<text text-anchor="start" x="114.5" y="-1382.5" font-family="SegoeUI" font-size="10.00">+ LaserPointerNormalMaterial</text>
<text text-anchor="start" x="114.5" y="-1371.5" font-family="SegoeUI" font-size="10.00">+ LaserPointerEnabledMaterial</text>
<text text-anchor="start" x="114.5" y="-1360.5" font-family="SegoeUI" font-size="10.00">+ LaserPointerDisabledMaterial</text>
<polyline fill="none" stroke="black" points="106.5,-1353.5 255.5,-1353.5 "/>
<text text-anchor="middle" x="181" y="-1341.5" font-family="SegoeUI" font-size="10.00"> </text>
</a>
</g>
</g>
<!-- Node2&#45;&gt;Node1 -->
<g id="edge2" class="edge"><title>Node2&#45;&gt;Node1</title>
<path fill="none" stroke="midnightblue" d="M181,-1324.24C181,-1315.73 181,-1306.51 181,-1296.93"/>
<polygon fill="none" stroke="midnightblue" points="177.5,-1324.25 181,-1334.25 184.5,-1324.25 177.5,-1324.25"/>
</g>
<!-- Node4 -->
<g id="node5" class="node"><title>Node4</title>
<g id="a_node5"><a xlink:href="../../d5/d55/class_juniper_1_1_input_1_1_pointers_1_1_screen_1_1_abstract_screen_device.html" target="_top" xlink:title=" ">
<polygon fill="white" stroke="black" points="0,-620 0,-710 192,-710 192,-620 0,-620"/>
<text text-anchor="start" x="8" y="-698" font-family="SegoeUI" font-size="10.00">Juniper.Input.Pointers.Screen.</text>
<text text-anchor="start" x="8" y="-687" font-family="SegoeUI" font-size="10.00">AbstractScreenDevice&lt; MouseButton,</text>
<text text-anchor="middle" x="96" y="-676" font-family="SegoeUI" font-size="10.00"> MousePointerConfiguration, NoHaptics &gt;</text>
<polyline fill="none" stroke="black" points="0,-669 192,-669 "/>
<text text-anchor="start" x="8" y="-657" font-family="SegoeUI" font-size="10.00">+ CameraPositionOffset</text>
<text text-anchor="start" x="8" y="-646" font-family="SegoeUI" font-size="10.00">+ CameraRotationOffset</text>
<polyline fill="none" stroke="black" points="0,-639 192,-639 "/>
<text text-anchor="middle" x="96" y="-627" font-family="SegoeUI" font-size="10.00"> </text>
</a>
</g>
</g>
<!-- Node3&#45;&gt;Node4 -->
<g id="edge4" class="edge"><title>Node3&#45;&gt;Node4</title>
<path fill="none" stroke="orange" d="M127.487,-766.126C125.14,-762.815 122.955,-759.43 121,-756 113.051,-742.051 107.511,-725.432 103.706,-710.293"/>
<polygon fill="orange" stroke="orange" points="124.779,-768.347 133.617,-774.191 130.352,-764.112 124.779,-768.347"/>
<text text-anchor="start" x="121" y="-748" font-family="SegoeUI" font-size="10.00"> &lt; MouseButton, MousePointer</text>
<text text-anchor="middle" x="187" y="-737" font-family="SegoeUI" font-size="10.00">Configuration, NoHaptics &gt;</text>
</g>
<!-- Node6 -->
<g id="node7" class="node"><title>Node6</title>
<g id="a_node7"><a xlink:href="../../d5/d55/class_juniper_1_1_input_1_1_pointers_1_1_screen_1_1_abstract_screen_device.html" target="_top" xlink:title=" ">
<polygon fill="white" stroke="black" points="210.5,-614.5 210.5,-715.5 357.5,-715.5 357.5,-614.5 210.5,-614.5"/>
<text text-anchor="start" x="218.5" y="-703.5" font-family="SegoeUI" font-size="10.00">Juniper.Input.Pointers.Screen.</text>
<text text-anchor="start" x="218.5" y="-692.5" font-family="SegoeUI" font-size="10.00">AbstractScreenDevice&lt; Unary,</text>
<text text-anchor="start" x="218.5" y="-681.5" font-family="SegoeUI" font-size="10.00"> UnaryPointerConfiguration,</text>
<text text-anchor="middle" x="284" y="-670.5" font-family="SegoeUI" font-size="10.00"> HapticType &gt;</text>
<polyline fill="none" stroke="black" points="210.5,-663.5 357.5,-663.5 "/>
<text text-anchor="start" x="218.5" y="-651.5" font-family="SegoeUI" font-size="10.00">+ CameraPositionOffset</text>
<text text-anchor="start" x="218.5" y="-640.5" font-family="SegoeUI" font-size="10.00">+ CameraRotationOffset</text>
<polyline fill="none" stroke="black" points="210.5,-633.5 357.5,-633.5 "/>
<text text-anchor="middle" x="284" y="-621.5" font-family="SegoeUI" font-size="10.00"> </text>
</a>
</g>
</g>
<!-- Node3&#45;&gt;Node6 -->
<g id="edge6" class="edge"><title>Node3&#45;&gt;Node6</title>
<path fill="none" stroke="orange" d="M244.707,-766.898C247.69,-763.368 250.483,-759.728 253,-756 261.137,-743.947 267.343,-729.545 271.984,-715.834"/>
<polygon fill="orange" stroke="orange" points="242.004,-764.669 237.906,-774.439 247.203,-769.357 242.004,-764.669"/>
<text text-anchor="start" x="265" y="-748" font-family="SegoeUI" font-size="10.00"> &lt; Unary, UnaryPointerConfiguration,</text>
<text text-anchor="middle" x="344.5" y="-737" font-family="SegoeUI" font-size="10.00"> HapticType &gt;</text>
</g>
<!-- Node5 -->
<g id="node6" class="node"><title>Node5</title>
<g id="a_node6"><a xlink:href="../../d4/da7/class_juniper_1_1_input_1_1_pointers_1_1_screen_1_1_mouse.html" target="_top" xlink:title="A AbstractScreenDevice pointer for the standard mouse connected to a desktop system.">
<polygon fill="white" stroke="black" points="23,-343.5 23,-576.5 169,-576.5 169,-343.5 23,-343.5"/>
<text text-anchor="start" x="31" y="-564.5" font-family="SegoeUI" font-size="10.00">Juniper.Input.Pointers.Screen.</text>
<text text-anchor="middle" x="96" y="-553.5" font-family="SegoeUI" font-size="10.00">Mouse</text>
<polyline fill="none" stroke="black" points="23,-546.5 169,-546.5 "/>
<text text-anchor="start" x="31" y="-534.5" font-family="SegoeUI" font-size="10.00">+ IsConnected</text>
<text text-anchor="start" x="31" y="-523.5" font-family="SegoeUI" font-size="10.00">+ ActiveThisFrame</text>
<text text-anchor="start" x="31" y="-512.5" font-family="SegoeUI" font-size="10.00">+ WorldPoint</text>
<text text-anchor="start" x="31" y="-501.5" font-family="SegoeUI" font-size="10.00">&#45; mouseActive</text>
<text text-anchor="start" x="31" y="-490.5" font-family="SegoeUI" font-size="10.00">&#45; wasTouched</text>
<text text-anchor="start" x="31" y="-479.5" font-family="SegoeUI" font-size="10.00">&#45; wasWasTouched</text>
<text text-anchor="start" x="31" y="-468.5" font-family="SegoeUI" font-size="10.00">&#45; wasSwiped</text>
<text text-anchor="start" x="31" y="-457.5" font-family="SegoeUI" font-size="10.00">&#45; wasWasSwiped</text>
<text text-anchor="start" x="31" y="-446.5" font-family="SegoeUI" font-size="10.00">&#45; touchpadMask</text>
<text text-anchor="start" x="31" y="-435.5" font-family="SegoeUI" font-size="10.00">&#45; touchMask</text>
<text text-anchor="start" x="31" y="-424.5" font-family="SegoeUI" font-size="10.00">&#45; buttonMask</text>
<polyline fill="none" stroke="black" points="23,-417.5 169,-417.5 "/>
<text text-anchor="start" x="31" y="-405.5" font-family="SegoeUI" font-size="10.00">+ Reinstall()</text>
<text text-anchor="start" x="31" y="-394.5" font-family="SegoeUI" font-size="10.00">+ OnProbeFound()</text>
<text text-anchor="start" x="31" y="-383.5" font-family="SegoeUI" font-size="10.00">+ IsButtonPressed()</text>
<text text-anchor="start" x="31" y="-372.5" font-family="SegoeUI" font-size="10.00">+ IsButtonDown()</text>
<text text-anchor="start" x="31" y="-361.5" font-family="SegoeUI" font-size="10.00">+ IsButtonUp()</text>
<text text-anchor="start" x="31" y="-350.5" font-family="SegoeUI" font-size="10.00"># InternalUpdate()</text>
</a>
</g>
</g>
<!-- Node4&#45;&gt;Node5 -->
<g id="edge5" class="edge"><title>Node4&#45;&gt;Node5</title>
<path fill="none" stroke="midnightblue" d="M96,-609.825C96,-599.388 96,-588.091 96,-576.547"/>
<polygon fill="none" stroke="midnightblue" points="92.5001,-609.952 96,-619.952 99.5001,-609.952 92.5001,-609.952"/>
</g>
<!-- Node7 -->
<g id="node8" class="node"><title>Node7</title>
<g id="a_node8"><a xlink:href="../../d9/df7/class_juniper_1_1_input_1_1_pointers_1_1_gaze_1_1_abstract_gaze_pointer.html" target="_top" xlink:title=" ">
<polygon fill="white" stroke="black" points="190,-365.5 190,-554.5 360,-554.5 360,-365.5 190,-365.5"/>
<text text-anchor="start" x="198" y="-542.5" font-family="SegoeUI" font-size="10.00">Juniper.Input.Pointers.Gaze.</text>
<text text-anchor="middle" x="275" y="-531.5" font-family="SegoeUI" font-size="10.00">AbstractGazePointer&lt; HapticType &gt;</text>
<polyline fill="none" stroke="black" points="190,-524.5 360,-524.5 "/>
<text text-anchor="start" x="198" y="-512.5" font-family="SegoeUI" font-size="10.00">+ gazeThreshold</text>
<text text-anchor="start" x="198" y="-501.5" font-family="SegoeUI" font-size="10.00">+ IsConnected</text>
<text text-anchor="start" x="198" y="-490.5" font-family="SegoeUI" font-size="10.00"># gazed</text>
<text text-anchor="start" x="198" y="-479.5" font-family="SegoeUI" font-size="10.00">&#45; wasGazed</text>
<text text-anchor="start" x="198" y="-468.5" font-family="SegoeUI" font-size="10.00">&#45; lastTarget</text>
<text text-anchor="start" x="198" y="-457.5" font-family="SegoeUI" font-size="10.00">&#45; gazeTime</text>
<text text-anchor="start" x="198" y="-446.5" font-family="SegoeUI" font-size="10.00">&#45; target</text>
<polyline fill="none" stroke="black" points="190,-439.5 360,-439.5 "/>
<text text-anchor="start" x="198" y="-427.5" font-family="SegoeUI" font-size="10.00">+ IsButtonPressed()</text>
<text text-anchor="start" x="198" y="-416.5" font-family="SegoeUI" font-size="10.00">+ IsButtonDown()</text>
<text text-anchor="start" x="198" y="-405.5" font-family="SegoeUI" font-size="10.00">+ IsButtonUp()</text>
<text text-anchor="start" x="198" y="-394.5" font-family="SegoeUI" font-size="10.00">+ OnProbeFound()</text>
<text text-anchor="start" x="198" y="-383.5" font-family="SegoeUI" font-size="10.00">+ Process()</text>
<text text-anchor="start" x="198" y="-372.5" font-family="SegoeUI" font-size="10.00"># InternalUpdate()</text>
</a>
</g>
</g>
<!-- Node6&#45;&gt;Node7 -->
<g id="edge7" class="edge"><title>Node6&#45;&gt;Node7</title>
<path fill="none" stroke="midnightblue" d="M281.354,-604.326C280.662,-588.705 279.898,-571.482 279.148,-554.555"/>
<polygon fill="none" stroke="midnightblue" points="277.859,-604.505 281.798,-614.341 284.852,-604.195 277.859,-604.505"/>
</g>
<!-- Node13 -->
<g id="node14" class="node"><title>Node13</title>
<g id="a_node14"><a xlink:href="../../d1/d3b/class_juniper_1_1_input_1_1_pointers_1_1_screen_1_1_touch_point.html" target="_top" xlink:title="Perform pointer events on touch screens.">
<polygon fill="white" stroke="black" points="378,-354.5 378,-565.5 524,-565.5 524,-354.5 378,-354.5"/>
<text text-anchor="start" x="386" y="-553.5" font-family="SegoeUI" font-size="10.00">Juniper.Input.Pointers.Screen.</text>
<text text-anchor="middle" x="451" y="-542.5" font-family="SegoeUI" font-size="10.00">TouchPoint</text>
<polyline fill="none" stroke="black" points="378,-535.5 524,-535.5 "/>
<text text-anchor="start" x="386" y="-523.5" font-family="SegoeUI" font-size="10.00">+ fingerID</text>
<text text-anchor="start" x="386" y="-512.5" font-family="SegoeUI" font-size="10.00">+ ActiveThisFrame</text>
<text text-anchor="start" x="386" y="-501.5" font-family="SegoeUI" font-size="10.00">+ IsConnected</text>
<text text-anchor="start" x="386" y="-490.5" font-family="SegoeUI" font-size="10.00">+ WorldPoint</text>
<text text-anchor="start" x="386" y="-479.5" font-family="SegoeUI" font-size="10.00">&#45; wasActive</text>
<text text-anchor="start" x="386" y="-468.5" font-family="SegoeUI" font-size="10.00">&#45; pressed</text>
<text text-anchor="start" x="386" y="-457.5" font-family="SegoeUI" font-size="10.00">&#45; wasPressed</text>
<text text-anchor="start" x="386" y="-446.5" font-family="SegoeUI" font-size="10.00">&#45; lastWorldPoint</text>
<text text-anchor="start" x="386" y="-435.5" font-family="SegoeUI" font-size="10.00">&#45; DEAD_FINGER</text>
<polyline fill="none" stroke="black" points="378,-428.5 524,-428.5 "/>
<text text-anchor="start" x="386" y="-416.5" font-family="SegoeUI" font-size="10.00">+ Update()</text>
<text text-anchor="start" x="386" y="-405.5" font-family="SegoeUI" font-size="10.00">+ Reinstall()</text>
<text text-anchor="start" x="386" y="-394.5" font-family="SegoeUI" font-size="10.00">+ Awake()</text>
<text text-anchor="start" x="386" y="-383.5" font-family="SegoeUI" font-size="10.00">+ IsButtonPressed()</text>
<text text-anchor="start" x="386" y="-372.5" font-family="SegoeUI" font-size="10.00">+ IsButtonUp()</text>
<text text-anchor="start" x="386" y="-361.5" font-family="SegoeUI" font-size="10.00">+ IsButtonDown()</text>
</a>
</g>
</g>
<!-- Node6&#45;&gt;Node13 -->
<g id="edge13" class="edge"><title>Node6&#45;&gt;Node13</title>
<path fill="none" stroke="midnightblue" d="M342.309,-606.863C351.506,-597.136 360.707,-586.955 369,-577 372.078,-573.305 375.163,-569.5 378.236,-565.623"/>
<polygon fill="none" stroke="midnightblue" points="339.674,-604.555 335.292,-614.201 344.733,-609.393 339.674,-604.555"/>
</g>
<!-- Node8 -->
<g id="node9" class="node"><title>Node8</title>
<g id="a_node9"><a xlink:href="../../de/d9c/class_juniper_1_1_input_1_1_pointers_1_1_gaze_1_1_tobii_gaze_pointer.html" target="_top" xlink:title=" ">
<polygon fill="white" stroke="black" points="54.5,-145 54.5,-257 191.5,-257 191.5,-145 54.5,-145"/>
<text text-anchor="start" x="62.5" y="-245" font-family="SegoeUI" font-size="10.00">Juniper.Input.Pointers.Gaze.</text>
<text text-anchor="middle" x="123" y="-234" font-family="SegoeUI" font-size="10.00">TobiiGazePointer</text>
<polyline fill="none" stroke="black" points="54.5,-227 191.5,-227 "/>
<text text-anchor="start" x="62.5" y="-215" font-family="SegoeUI" font-size="10.00">+ IsConnected</text>
<text text-anchor="start" x="62.5" y="-204" font-family="SegoeUI" font-size="10.00">+ WorldPoint</text>
<text text-anchor="start" x="62.5" y="-193" font-family="SegoeUI" font-size="10.00">+ CameraPositionOffset</text>
<text text-anchor="start" x="62.5" y="-182" font-family="SegoeUI" font-size="10.00">&#45; lastGaze</text>
<text text-anchor="start" x="62.5" y="-171" font-family="SegoeUI" font-size="10.00">&#45; lastPose</text>
<polyline fill="none" stroke="black" points="54.5,-164 191.5,-164 "/>
<text text-anchor="middle" x="123" y="-152" font-family="SegoeUI" font-size="10.00"> </text>
</a>
</g>
</g>
<!-- Node7&#45;&gt;Node8 -->
<g id="edge8" class="edge"><title>Node7&#45;&gt;Node8</title>
<path fill="none" stroke="midnightblue" d="M214.366,-356.48C194.339,-322.619 172.827,-286.247 155.711,-257.307"/>
<polygon fill="none" stroke="midnightblue" points="211.591,-358.665 219.695,-365.49 217.616,-355.101 211.591,-358.665"/>
</g>
<!-- Node10 -->
<g id="node11" class="node"><title>Node10</title>
<g id="a_node11"><a xlink:href="../../df/d0b/class_juniper_1_1_input_1_1_pointers_1_1_gaze_1_1_touch_gaze_pointer.html" target="_top" xlink:title=" ">
<polygon fill="white" stroke="black" points="210,-117.5 210,-284.5 340,-284.5 340,-117.5 210,-117.5"/>
<text text-anchor="start" x="218" y="-272.5" font-family="SegoeUI" font-size="10.00">Juniper::Input::Pointers</text>
<text text-anchor="start" x="218" y="-261.5" font-family="SegoeUI" font-size="10.00">::Gaze::TouchGazePointer</text>
<text text-anchor="middle" x="275" y="-250.5" font-family="SegoeUI" font-size="10.00">&lt; HapticType &gt;</text>
<polyline fill="none" stroke="black" points="210,-243.5 340,-243.5 "/>
<text text-anchor="start" x="218" y="-231.5" font-family="SegoeUI" font-size="10.00">+ WorldPoint</text>
<text text-anchor="start" x="218" y="-220.5" font-family="SegoeUI" font-size="10.00">&#45; pressed</text>
<text text-anchor="start" x="218" y="-209.5" font-family="SegoeUI" font-size="10.00">&#45; wasPressed</text>
<text text-anchor="start" x="218" y="-198.5" font-family="SegoeUI" font-size="10.00">&#45; lastViewportPoint</text>
<polyline fill="none" stroke="black" points="210,-191.5 340,-191.5 "/>
<text text-anchor="start" x="218" y="-179.5" font-family="SegoeUI" font-size="10.00">+ Reinstall()</text>
<text text-anchor="start" x="218" y="-168.5" font-family="SegoeUI" font-size="10.00">+ Awake()</text>
<text text-anchor="start" x="218" y="-157.5" font-family="SegoeUI" font-size="10.00">+ IsButtonPressed()</text>
<text text-anchor="start" x="218" y="-146.5" font-family="SegoeUI" font-size="10.00">+ IsButtonUp()</text>
<text text-anchor="start" x="218" y="-135.5" font-family="SegoeUI" font-size="10.00">+ IsButtonDown()</text>
<text text-anchor="start" x="218" y="-124.5" font-family="SegoeUI" font-size="10.00">+ Update()</text>
</a>
</g>
</g>
<!-- Node7&#45;&gt;Node10 -->
<g id="edge10" class="edge"><title>Node7&#45;&gt;Node10</title>
<path fill="none" stroke="midnightblue" d="M275,-355.182C275,-331.77 275,-307.223 275,-284.809"/>
<polygon fill="none" stroke="midnightblue" points="271.5,-355.49 275,-365.49 278.5,-355.49 271.5,-355.49"/>
</g>
<!-- Node11 -->
<g id="node12" class="node"><title>Node11</title>
<g id="a_node12"><a xlink:href="../../d9/df7/class_juniper_1_1_input_1_1_pointers_1_1_gaze_1_1_abstract_gaze_pointer.html" target="_top" xlink:title=" ">
<polygon fill="white" stroke="black" points="358,-106.5 358,-295.5 522,-295.5 522,-106.5 358,-106.5"/>
<text text-anchor="start" x="366" y="-283.5" font-family="SegoeUI" font-size="10.00">Juniper.Input.Pointers.Gaze.</text>
<text text-anchor="middle" x="440" y="-272.5" font-family="SegoeUI" font-size="10.00">AbstractGazePointer&lt; NoHaptics &gt;</text>
<polyline fill="none" stroke="black" points="358,-265.5 522,-265.5 "/>
<text text-anchor="start" x="366" y="-253.5" font-family="SegoeUI" font-size="10.00">+ gazeThreshold</text>
<text text-anchor="start" x="366" y="-242.5" font-family="SegoeUI" font-size="10.00">+ IsConnected</text>
<text text-anchor="start" x="366" y="-231.5" font-family="SegoeUI" font-size="10.00"># gazed</text>
<text text-anchor="start" x="366" y="-220.5" font-family="SegoeUI" font-size="10.00">&#45; wasGazed</text>
<text text-anchor="start" x="366" y="-209.5" font-family="SegoeUI" font-size="10.00">&#45; lastTarget</text>
<text text-anchor="start" x="366" y="-198.5" font-family="SegoeUI" font-size="10.00">&#45; gazeTime</text>
<text text-anchor="start" x="366" y="-187.5" font-family="SegoeUI" font-size="10.00">&#45; target</text>
<polyline fill="none" stroke="black" points="358,-180.5 522,-180.5 "/>
<text text-anchor="start" x="366" y="-168.5" font-family="SegoeUI" font-size="10.00">+ IsButtonPressed()</text>
<text text-anchor="start" x="366" y="-157.5" font-family="SegoeUI" font-size="10.00">+ IsButtonDown()</text>
<text text-anchor="start" x="366" y="-146.5" font-family="SegoeUI" font-size="10.00">+ IsButtonUp()</text>
<text text-anchor="start" x="366" y="-135.5" font-family="SegoeUI" font-size="10.00">+ OnProbeFound()</text>
<text text-anchor="start" x="366" y="-124.5" font-family="SegoeUI" font-size="10.00">+ Process()</text>
<text text-anchor="start" x="366" y="-113.5" font-family="SegoeUI" font-size="10.00"># InternalUpdate()</text>
</a>
</g>
</g>
<!-- Node7&#45;&gt;Node11 -->
<g id="edge11" class="edge"><title>Node7&#45;&gt;Node11</title>
<path fill="none" stroke="orange" d="M340.538,-356.919C353.471,-336.776 366.984,-315.727 379.733,-295.871"/>
<polygon fill="orange" stroke="orange" points="337.493,-355.184 335.036,-365.49 343.383,-358.966 337.493,-355.184"/>
<text text-anchor="middle" x="400.5" y="-317" font-family="SegoeUI" font-size="10.00"> &lt; NoHaptics &gt;</text>
</g>
<!-- Node9 -->
<g id="node10" class="node"><title>Node9</title>
<g id="a_node10"><a xlink:href="../../d2/d9a/class_juniper_1_1_input_1_1_pointers_1_1_gaze_1_1_gaze_pointer.html" target="_top" xlink:title=" ">
<polygon fill="white" stroke="black" points="54.5,-0.5 54.5,-68.5 191.5,-68.5 191.5,-0.5 54.5,-0.5"/>
<text text-anchor="start" x="62.5" y="-56.5" font-family="SegoeUI" font-size="10.00">Juniper.Input.Pointers.Gaze.</text>
<text text-anchor="middle" x="123" y="-45.5" font-family="SegoeUI" font-size="10.00">GazePointer</text>
<polyline fill="none" stroke="black" points="54.5,-38.5 191.5,-38.5 "/>
<text text-anchor="middle" x="123" y="-26.5" font-family="SegoeUI" font-size="10.00"> </text>
<polyline fill="none" stroke="black" points="54.5,-19.5 191.5,-19.5 "/>
<text text-anchor="middle" x="123" y="-7.5" font-family="SegoeUI" font-size="10.00"> </text>
</a>
</g>
</g>
<!-- Node8&#45;&gt;Node9 -->
<g id="edge9" class="edge"><title>Node8&#45;&gt;Node9</title>
<path fill="none" stroke="midnightblue" d="M123,-134.55C123,-111.987 123,-87.6631 123,-68.7658"/>
<polygon fill="none" stroke="midnightblue" points="119.5,-134.766 123,-144.766 126.5,-134.766 119.5,-134.766"/>
</g>
<!-- Node12 -->
<g id="node13" class="node"><title>Node12</title>
<g id="a_node13"><a xlink:href="../../d9/d31/class_juniper_1_1_input_1_1_pointers_1_1_gaze_1_1_nose_pointer.html" target="_top" xlink:title=" ">
<polygon fill="white" stroke="black" points="371.5,-0.5 371.5,-68.5 508.5,-68.5 508.5,-0.5 371.5,-0.5"/>
<text text-anchor="start" x="379.5" y="-56.5" font-family="SegoeUI" font-size="10.00">Juniper.Input.Pointers.Gaze.</text>
<text text-anchor="middle" x="440" y="-45.5" font-family="SegoeUI" font-size="10.00">NosePointer</text>
<polyline fill="none" stroke="black" points="371.5,-38.5 508.5,-38.5 "/>
<text text-anchor="start" x="379.5" y="-26.5" font-family="SegoeUI" font-size="10.00">+ WorldPoint</text>
<polyline fill="none" stroke="black" points="371.5,-19.5 508.5,-19.5 "/>
<text text-anchor="middle" x="440" y="-7.5" font-family="SegoeUI" font-size="10.00"> </text>
</a>
</g>
</g>
<!-- Node11&#45;&gt;Node12 -->
<g id="edge12" class="edge"><title>Node11&#45;&gt;Node12</title>
<path fill="none" stroke="midnightblue" d="M440,-95.9462C440,-86.2181 440,-76.9286 440,-68.6777"/>
<polygon fill="none" stroke="midnightblue" points="436.5,-96.2174 440,-106.217 443.5,-96.2175 436.5,-96.2174"/>
</g>
</g>
</svg>
