<?xml version="1.0" encoding="UTF-8" standalone="no"?>
<!DOCTYPE svg PUBLIC "-//W3C//DTD SVG 1.1//EN"
 "http://www.w3.org/Graphics/SVG/1.1/DTD/svg11.dtd">
<!-- Generated by graphviz version 2.38.0 (20140413.2041)
 -->
<!-- Title: Juniper.MasterSceneController Pages: 1 -->
<svg width="178pt" height="545pt"
 viewBox="0.00 0.00 177.50 545.00" xmlns="http://www.w3.org/2000/svg" xmlns:xlink="http://www.w3.org/1999/xlink">
<g id="graph0" class="graph" transform="scale(1 1) rotate(0) translate(4 541)">
<title>Juniper.MasterSceneController</title>
<polygon fill="white" stroke="none" points="-4,4 -4,-541 173.5,-541 173.5,4 -4,4"/>
<!-- Node0 -->
<g id="node1" class="node"><title>Node0</title>
<g id="a_node1"><a xlink:title="Manages loading SubSceneController components (scenes that are additively loaded into a &quot;main&quot; scene)...">
<polygon fill="#bfbfbf" stroke="black" points="14,-0.5 14,-420.5 162,-420.5 162,-0.5 14,-0.5"/>
<text text-anchor="middle" x="88" y="-408.5" font-family="SegoeUI" font-size="10.00">Juniper.MasterSceneController</text>
<polyline fill="none" stroke="black" points="14,-401.5 162,-401.5 "/>
<text text-anchor="start" x="22" y="-389.5" font-family="SegoeUI" font-size="10.00">+ loadingBar</text>
<text text-anchor="start" x="22" y="-378.5" font-family="SegoeUI" font-size="10.00">+ splash</text>
<text text-anchor="start" x="22" y="-367.5" font-family="SegoeUI" font-size="10.00">+ presentationPoint</text>
<text text-anchor="start" x="22" y="-356.5" font-family="SegoeUI" font-size="10.00">+ sceneFaderMaterial</text>
<text text-anchor="start" x="22" y="-345.5" font-family="SegoeUI" font-size="10.00">+ subSceneNames</text>
<text text-anchor="start" x="22" y="-334.5" font-family="SegoeUI" font-size="10.00">+ AllScenes</text>
<text text-anchor="start" x="22" y="-323.5" font-family="SegoeUI" font-size="10.00">+ CurrentSubScenes</text>
<text text-anchor="start" x="22" y="-312.5" font-family="SegoeUI" font-size="10.00">&#45; fader</text>
<text text-anchor="start" x="22" y="-301.5" font-family="SegoeUI" font-size="10.00">&#45; interaction</text>
<text text-anchor="start" x="22" y="-290.5" font-family="SegoeUI" font-size="10.00">&#45; input</text>
<text text-anchor="start" x="22" y="-279.5" font-family="SegoeUI" font-size="10.00">&#45; SceneNamePattern</text>
<polyline fill="none" stroke="black" points="14,-272.5 162,-272.5 "/>
<text text-anchor="start" x="22" y="-260.5" font-family="SegoeUI" font-size="10.00">+ Install()</text>
<text text-anchor="start" x="22" y="-249.5" font-family="SegoeUI" font-size="10.00">+ Reinstall()</text>
<text text-anchor="start" x="22" y="-238.5" font-family="SegoeUI" font-size="10.00">+ Uninstall()</text>
<text text-anchor="start" x="22" y="-227.5" font-family="SegoeUI" font-size="10.00">+ SwitchToScene()</text>
<text text-anchor="start" x="22" y="-216.5" font-family="SegoeUI" font-size="10.00">+ ShowScene()</text>
<text text-anchor="start" x="22" y="-205.5" font-family="SegoeUI" font-size="10.00">+ ShowView()</text>
<text text-anchor="start" x="22" y="-194.5" font-family="SegoeUI" font-size="10.00">+ RemoveScene()</text>
<text text-anchor="start" x="22" y="-183.5" font-family="SegoeUI" font-size="10.00">+ Awake()</text>
<text text-anchor="start" x="22" y="-172.5" font-family="SegoeUI" font-size="10.00">+ Quit()</text>
<text text-anchor="start" x="22" y="-161.5" font-family="SegoeUI" font-size="10.00">+ QuitApp()</text>
<text text-anchor="start" x="22" y="-150.5" font-family="SegoeUI" font-size="10.00"># Start()</text>
<text text-anchor="start" x="22" y="-139.5" font-family="SegoeUI" font-size="10.00">&#45; GetScenePathFromName()</text>
<text text-anchor="start" x="22" y="-128.5" font-family="SegoeUI" font-size="10.00">&#45; GetOpenSubScenes()</text>
<text text-anchor="start" x="22" y="-117.5" font-family="SegoeUI" font-size="10.00">&#45; SetupFader()</text>
<text text-anchor="start" x="22" y="-106.5" font-family="SegoeUI" font-size="10.00">&#45; SetupSystemInterface()</text>
<text text-anchor="start" x="22" y="-95.5" font-family="SegoeUI" font-size="10.00">&#45; LoadFirstSceneCoroutine()</text>
<text text-anchor="start" x="22" y="-84.5" font-family="SegoeUI" font-size="10.00">&#45; SwitchToSceneCoroutine()</text>
<text text-anchor="start" x="22" y="-73.5" font-family="SegoeUI" font-size="10.00">&#45; RemoveSceneCoroutine()</text>
<text text-anchor="start" x="22" y="-62.5" font-family="SegoeUI" font-size="10.00">&#45; QuitCoroutine()</text>
<text text-anchor="start" x="22" y="-51.5" font-family="SegoeUI" font-size="10.00">&#45; ExitAllSubScenesExcept()</text>
<text text-anchor="start" x="22" y="-40.5" font-family="SegoeUI" font-size="10.00">&#45; GetSceneNameFromPath()</text>
<text text-anchor="start" x="22" y="-29.5" font-family="SegoeUI" font-size="10.00">&#45; IsSceneLoaded()</text>
<text text-anchor="start" x="22" y="-18.5" font-family="SegoeUI" font-size="10.00">&#45; LoadScenePathCoroutine()</text>
<text text-anchor="start" x="22" y="-7.5" font-family="SegoeUI" font-size="10.00">&#45; Exit()</text>
</a>
</g>
</g>
<!-- Node1 -->
<g id="node2" class="node"><title>Node1</title>
<g id="a_node2"><a xlink:title=" ">
<polygon fill="white" stroke="#bfbfbf" points="0,-468.5 0,-525.5 82,-525.5 82,-468.5 0,-468.5"/>
<text text-anchor="middle" x="41" y="-513.5" font-family="SegoeUI" font-size="10.00">MonoBehaviour</text>
<polyline fill="none" stroke="#bfbfbf" points="0,-506.5 82,-506.5 "/>
<text text-anchor="middle" x="41" y="-494.5" font-family="SegoeUI" font-size="10.00"> </text>
<polyline fill="none" stroke="#bfbfbf" points="0,-487.5 82,-487.5 "/>
<text text-anchor="middle" x="41" y="-475.5" font-family="SegoeUI" font-size="10.00"> </text>
</a>
</g>
</g>
<!-- Node1&#45;&gt;Node0 -->
<g id="edge1" class="edge"><title>Node1&#45;&gt;Node0</title>
<path fill="none" stroke="midnightblue" d="M47.1922,-458.517C49.0092,-447.519 51.1358,-434.646 53.4472,-420.655"/>
<polygon fill="none" stroke="midnightblue" points="43.7261,-458.026 45.5493,-468.462 50.6325,-459.167 43.7261,-458.026"/>
</g>
<!-- Node2 -->
<g id="node3" class="node"><title>Node2</title>
<g id="a_node3"><a xlink:href="../../d7/dbe/interface_juniper_1_1_i_o_1_1_i_installable.html" target="_top" xlink:title="Defines an interface for objects that can be installed and have their installation progress tracked.">
<polygon fill="white" stroke="black" points="100.5,-457.5 100.5,-536.5 169.5,-536.5 169.5,-457.5 100.5,-457.5"/>
<text text-anchor="middle" x="135" y="-524.5" font-family="SegoeUI" font-size="10.00">IInstallable</text>
<polyline fill="none" stroke="black" points="100.5,-517.5 169.5,-517.5 "/>
<text text-anchor="middle" x="135" y="-505.5" font-family="SegoeUI" font-size="10.00"> </text>
<polyline fill="none" stroke="black" points="100.5,-498.5 169.5,-498.5 "/>
<text text-anchor="start" x="108.5" y="-486.5" font-family="SegoeUI" font-size="10.00">+ Install()</text>
<text text-anchor="start" x="108.5" y="-475.5" font-family="SegoeUI" font-size="10.00">+ Reinstall()</text>
<text text-anchor="start" x="108.5" y="-464.5" font-family="SegoeUI" font-size="10.00">+ Uninstall()</text>
</a>
</g>
</g>
<!-- Node2&#45;&gt;Node0 -->
<g id="edge2" class="edge"><title>Node2&#45;&gt;Node0</title>
<path fill="none" stroke="midnightblue" d="M126.965,-447.361C125.609,-439.157 124.131,-430.206 122.567,-420.742"/>
<polygon fill="none" stroke="midnightblue" points="123.529,-448.039 128.612,-457.335 130.436,-446.898 123.529,-448.039"/>
</g>
</g>
</svg>
