<?xml version="1.0" encoding="UTF-8" standalone="no"?>
<!DOCTYPE svg PUBLIC "-//W3C//DTD SVG 1.1//EN"
 "http://www.w3.org/Graphics/SVG/1.1/DTD/svg11.dtd">
<!-- Generated by graphviz version 2.38.0 (20140413.2041)
 -->
<!-- Title: Juniper.Unity.Animation.AlphaTransition Pages: 1 -->
<svg width="145pt" height="1069pt"
 viewBox="0.00 0.00 145.00 1069.00" xmlns="http://www.w3.org/2000/svg" xmlns:xlink="http://www.w3.org/1999/xlink">
<g id="graph0" class="graph" transform="scale(1 1) rotate(0) translate(4 1065)">
<title>Juniper.Unity.Animation.AlphaTransition</title>
<polygon fill="white" stroke="none" points="-4,4 -4,-1065 141,-1065 141,4 -4,4"/>
<!-- Node0 -->
<g id="node1" class="node"><title>Node0</title>
<g id="a_node1"><a xlink:title="Performs a shrinking/growing animation on scene transitions.">
<polygon fill="#bfbfbf" stroke="black" points="8.5,-215.5 8.5,-338.5 128.5,-338.5 128.5,-215.5 8.5,-215.5"/>
<text text-anchor="start" x="16.5" y="-326.5" font-family="SegoeUI" font-size="10.00">Juniper.Unity.Animation.</text>
<text text-anchor="middle" x="68.5" y="-315.5" font-family="SegoeUI" font-size="10.00">AlphaTransition</text>
<polyline fill="none" stroke="black" points="8.5,-308.5 128.5,-308.5 "/>
<text text-anchor="start" x="16.5" y="-296.5" font-family="SegoeUI" font-size="10.00">+ minAlpha</text>
<text text-anchor="start" x="16.5" y="-285.5" font-family="SegoeUI" font-size="10.00">+ maxAlpha</text>
<text text-anchor="start" x="16.5" y="-274.5" font-family="SegoeUI" font-size="10.00">+ length</text>
<text text-anchor="start" x="16.5" y="-263.5" font-family="SegoeUI" font-size="10.00">+ TransitionLength</text>
<text text-anchor="start" x="16.5" y="-252.5" font-family="SegoeUI" font-size="10.00">+ DeltaAlpha</text>
<text text-anchor="start" x="16.5" y="-241.5" font-family="SegoeUI" font-size="10.00">&#45; transitionMaterial</text>
<polyline fill="none" stroke="black" points="8.5,-234.5 128.5,-234.5 "/>
<text text-anchor="start" x="16.5" y="-222.5" font-family="SegoeUI" font-size="10.00"># RenderValue()</text>
</a>
</g>
</g>
<!-- Node4 -->
<g id="node5" class="node"><title>Node4</title>
<g id="a_node5"><a xlink:href="../../db/de8/class_juniper_1_1_unity_1_1_widgets_1_1_video_vader.html" target="_top" xlink:title="Manages the life&#45;cycle of a video that can be faded out or faded in.">
<polygon fill="white" stroke="black" points="0.5,-0.5 0.5,-178.5 136.5,-178.5 136.5,-0.5 0.5,-0.5"/>
<text text-anchor="start" x="8.5" y="-166.5" font-family="SegoeUI" font-size="10.00">Juniper.Unity.Widgets.Video</text>
<text text-anchor="middle" x="68.5" y="-155.5" font-family="SegoeUI" font-size="10.00">Vader</text>
<polyline fill="none" stroke="black" points="0.5,-148.5 136.5,-148.5 "/>
<text text-anchor="start" x="8.5" y="-136.5" font-family="SegoeUI" font-size="10.00">+ restartTimeout</text>
<text text-anchor="start" x="8.5" y="-125.5" font-family="SegoeUI" font-size="10.00">+ lingerTimeout</text>
<text text-anchor="start" x="8.5" y="-114.5" font-family="SegoeUI" font-size="10.00">+ onComplete</text>
<text text-anchor="start" x="8.5" y="-103.5" font-family="SegoeUI" font-size="10.00">&#45; player</text>
<polyline fill="none" stroke="black" points="0.5,-96.5 136.5,-96.5 "/>
<text text-anchor="start" x="8.5" y="-84.5" font-family="SegoeUI" font-size="10.00">+ Awake()</text>
<text text-anchor="start" x="8.5" y="-73.5" font-family="SegoeUI" font-size="10.00">+ FireComplete()</text>
<text text-anchor="start" x="8.5" y="-62.5" font-family="SegoeUI" font-size="10.00"># OnEntering()</text>
<text text-anchor="start" x="8.5" y="-51.5" font-family="SegoeUI" font-size="10.00"># OnExiting()</text>
<text text-anchor="start" x="8.5" y="-40.5" font-family="SegoeUI" font-size="10.00"># RenderValue()</text>
<text text-anchor="start" x="8.5" y="-29.5" font-family="SegoeUI" font-size="10.00">&#45; RestartVideo()</text>
<text text-anchor="start" x="8.5" y="-18.5" font-family="SegoeUI" font-size="10.00">&#45; Finish()</text>
<text text-anchor="start" x="8.5" y="-7.5" font-family="SegoeUI" font-size="10.00">&#45; OnFinish()</text>
</a>
</g>
</g>
<!-- Node0&#45;&gt;Node4 -->
<g id="edge4" class="edge"><title>Node0&#45;&gt;Node4</title>
<path fill="none" stroke="midnightblue" d="M68.5,-205.199C68.5,-196.505 68.5,-187.538 68.5,-178.628"/>
<polygon fill="none" stroke="midnightblue" points="65.0001,-205.26 68.5,-215.26 72.0001,-205.26 65.0001,-205.26"/>
</g>
<!-- Node1 -->
<g id="node2" class="node"><title>Node1</title>
<g id="a_node2"><a xlink:href="../../de/d7d/class_juniper_1_1_unity_1_1_animation_1_1_abstract_transition_controller.html" target="_top" xlink:title="Child classes of this class are able to animate transitions between program states.">
<polygon fill="white" stroke="black" points="0,-375.5 0,-619.5 137,-619.5 137,-375.5 0,-375.5"/>
<text text-anchor="middle" x="68.5" y="-607.5" font-family="SegoeUI" font-size="10.00">AbstractTransitionController</text>
<polyline fill="none" stroke="black" points="0,-600.5 137,-600.5 "/>
<text text-anchor="start" x="8" y="-588.5" font-family="SegoeUI" font-size="10.00">+ attackTime</text>
<text text-anchor="start" x="8" y="-577.5" font-family="SegoeUI" font-size="10.00">+ releaseTime</text>
<text text-anchor="start" x="8" y="-566.5" font-family="SegoeUI" font-size="10.00">+ onValueChanged</text>
<text text-anchor="start" x="8" y="-555.5" font-family="SegoeUI" font-size="10.00">+ tween</text>
<text text-anchor="start" x="8" y="-544.5" font-family="SegoeUI" font-size="10.00">+ tweenK</text>
<text text-anchor="start" x="8" y="-533.5" font-family="SegoeUI" font-size="10.00">+ TransitionLength</text>
<text text-anchor="start" x="8" y="-522.5" font-family="SegoeUI" font-size="10.00">&#45; tweenFunc</text>
<text text-anchor="start" x="8" y="-511.5" font-family="SegoeUI" font-size="10.00">&#45; attack</text>
<text text-anchor="start" x="8" y="-500.5" font-family="SegoeUI" font-size="10.00">&#45; release</text>
<text text-anchor="start" x="8" y="-489.5" font-family="SegoeUI" font-size="10.00">&#45; progress</text>
<text text-anchor="start" x="8" y="-478.5" font-family="SegoeUI" font-size="10.00">&#45; tweenedValue</text>
<polyline fill="none" stroke="black" points="0,-471.5 137,-471.5 "/>
<text text-anchor="start" x="8" y="-459.5" font-family="SegoeUI" font-size="10.00">+ Enter()</text>
<text text-anchor="start" x="8" y="-448.5" font-family="SegoeUI" font-size="10.00">+ SkipEnter()</text>
<text text-anchor="start" x="8" y="-437.5" font-family="SegoeUI" font-size="10.00">+ Exit()</text>
<text text-anchor="start" x="8" y="-426.5" font-family="SegoeUI" font-size="10.00">+ Update()</text>
<text text-anchor="start" x="8" y="-415.5" font-family="SegoeUI" font-size="10.00"># RenderValue()</text>
<text text-anchor="start" x="8" y="-404.5" font-family="SegoeUI" font-size="10.00">&#45; OnValueChanged()</text>
<text text-anchor="start" x="8" y="-393.5" font-family="SegoeUI" font-size="10.00">&#45; SetProgress()</text>
<text text-anchor="start" x="8" y="-382.5" font-family="SegoeUI" font-size="10.00">&#45; StartTransition()</text>
</a>
</g>
</g>
<!-- Node1&#45;&gt;Node0 -->
<g id="edge1" class="edge"><title>Node1&#45;&gt;Node0</title>
<path fill="none" stroke="midnightblue" d="M68.5,-365.365C68.5,-356.158 68.5,-347.166 68.5,-338.668"/>
<polygon fill="none" stroke="midnightblue" points="65.0001,-365.428 68.5,-375.428 72.0001,-365.428 65.0001,-365.428"/>
</g>
<!-- Node2 -->
<g id="node3" class="node"><title>Node2</title>
<g id="a_node3"><a xlink:href="../../dd/d90/class_juniper_1_1_unity_1_1_abstract_state_controller.html" target="_top" xlink:title="A subscene is a game object loaded from another scene. The scenes all get loaded at runtime and then ...">
<polygon fill="white" stroke="black" points="10.5,-656.5 10.5,-966.5 126.5,-966.5 126.5,-656.5 10.5,-656.5"/>
<text text-anchor="middle" x="68.5" y="-954.5" font-family="SegoeUI" font-size="10.00">AbstractStateController</text>
<polyline fill="none" stroke="black" points="10.5,-947.5 126.5,-947.5 "/>
<text text-anchor="start" x="18.5" y="-935.5" font-family="SegoeUI" font-size="10.00">+ onEntering</text>
<text text-anchor="start" x="18.5" y="-924.5" font-family="SegoeUI" font-size="10.00">+ onEntered</text>
<text text-anchor="start" x="18.5" y="-913.5" font-family="SegoeUI" font-size="10.00">+ onExiting</text>
<text text-anchor="start" x="18.5" y="-902.5" font-family="SegoeUI" font-size="10.00">+ onExited</text>
<text text-anchor="start" x="18.5" y="-891.5" font-family="SegoeUI" font-size="10.00">+ state</text>
<text text-anchor="start" x="18.5" y="-880.5" font-family="SegoeUI" font-size="10.00">+ IsComplete</text>
<text text-anchor="start" x="18.5" y="-869.5" font-family="SegoeUI" font-size="10.00">+ IsRunning</text>
<text text-anchor="start" x="18.5" y="-858.5" font-family="SegoeUI" font-size="10.00">+ IsEntered</text>
<text text-anchor="start" x="18.5" y="-847.5" font-family="SegoeUI" font-size="10.00">+ IsExited</text>
<text text-anchor="start" x="18.5" y="-836.5" font-family="SegoeUI" font-size="10.00">+ Waiter</text>
<text text-anchor="start" x="18.5" y="-825.5" font-family="SegoeUI" font-size="10.00">&#45; lastState</text>
<text text-anchor="start" x="18.5" y="-814.5" font-family="SegoeUI" font-size="10.00">&#45; skipEvents</text>
<text text-anchor="start" x="18.5" y="-803.5" font-family="SegoeUI" font-size="10.00">&#45; _waiter</text>
<polyline fill="none" stroke="black" points="10.5,-796.5 126.5,-796.5 "/>
<text text-anchor="start" x="18.5" y="-784.5" font-family="SegoeUI" font-size="10.00">+ HasCompleted()</text>
<text text-anchor="start" x="18.5" y="-773.5" font-family="SegoeUI" font-size="10.00">+ SkipEnter()</text>
<text text-anchor="start" x="18.5" y="-762.5" font-family="SegoeUI" font-size="10.00">+ Enter()</text>
<text text-anchor="start" x="18.5" y="-751.5" font-family="SegoeUI" font-size="10.00">+ OnEnable()</text>
<text text-anchor="start" x="18.5" y="-740.5" font-family="SegoeUI" font-size="10.00">+ Update()</text>
<text text-anchor="start" x="18.5" y="-729.5" font-family="SegoeUI" font-size="10.00">+ SkipExit()</text>
<text text-anchor="start" x="18.5" y="-718.5" font-family="SegoeUI" font-size="10.00">+ Exit()</text>
<text text-anchor="start" x="18.5" y="-707.5" font-family="SegoeUI" font-size="10.00">+ OnDisable()</text>
<text text-anchor="start" x="18.5" y="-696.5" font-family="SegoeUI" font-size="10.00"># OnEntering()</text>
<text text-anchor="start" x="18.5" y="-685.5" font-family="SegoeUI" font-size="10.00"># OnEntered()</text>
<text text-anchor="start" x="18.5" y="-674.5" font-family="SegoeUI" font-size="10.00"># OnExiting()</text>
<text text-anchor="start" x="18.5" y="-663.5" font-family="SegoeUI" font-size="10.00"># OnExited()</text>
</a>
</g>
</g>
<!-- Node2&#45;&gt;Node1 -->
<g id="edge2" class="edge"><title>Node2&#45;&gt;Node1</title>
<path fill="none" stroke="midnightblue" d="M68.5,-646.256C68.5,-637.343 68.5,-628.466 68.5,-619.741"/>
<polygon fill="none" stroke="midnightblue" points="65.0001,-646.328 68.5,-656.328 72.0001,-646.328 65.0001,-646.328"/>
</g>
<!-- Node3 -->
<g id="node4" class="node"><title>Node3</title>
<g id="a_node4"><a xlink:title=" ">
<polygon fill="white" stroke="#bfbfbf" points="27.5,-1003.5 27.5,-1060.5 109.5,-1060.5 109.5,-1003.5 27.5,-1003.5"/>
<text text-anchor="middle" x="68.5" y="-1048.5" font-family="SegoeUI" font-size="10.00">MonoBehaviour</text>
<polyline fill="none" stroke="#bfbfbf" points="27.5,-1041.5 109.5,-1041.5 "/>
<text text-anchor="middle" x="68.5" y="-1029.5" font-family="SegoeUI" font-size="10.00"> </text>
<polyline fill="none" stroke="#bfbfbf" points="27.5,-1022.5 109.5,-1022.5 "/>
<text text-anchor="middle" x="68.5" y="-1010.5" font-family="SegoeUI" font-size="10.00"> </text>
</a>
</g>
</g>
<!-- Node3&#45;&gt;Node2 -->
<g id="edge3" class="edge"><title>Node3&#45;&gt;Node2</title>
<path fill="none" stroke="midnightblue" d="M68.5,-993.281C68.5,-985.208 68.5,-976.205 68.5,-966.648"/>
<polygon fill="none" stroke="midnightblue" points="65.0001,-993.327 68.5,-1003.33 72.0001,-993.327 65.0001,-993.327"/>
</g>
</g>
</svg>
