<?xml version="1.0" encoding="UTF-8" standalone="no"?>
<!DOCTYPE svg PUBLIC "-//W3C//DTD SVG 1.1//EN"
 "http://www.w3.org/Graphics/SVG/1.1/DTD/svg11.dtd">
<!-- Generated by graphviz version 2.38.0 (20140413.2041)
 -->
<!-- Title: Juniper.Widgets.FollowMainCamera Pages: 1 -->
<!--zoomable 624 -->
<svg id="main" version="1.1" xmlns="http://www.w3.org/2000/svg" xmlns:xlink="http://www.w3.org/1999/xlink" xml:space="preserve" onload="init(evt)">
<style type="text/css"><![CDATA[
.edge:hover path { stroke: red; }
.edge:hover polygon { stroke: red; fill: red; }
]]></style>
<script type="text/javascript"><![CDATA[
var edges = document.getElementsByTagName('g');
if (edges && edges.length) {
  for (var i=0;i<edges.length;i++) {
    if (edges[i].id.substr(0,4)=='edge') {
      edges[i].setAttribute('class','edge');
    }
  }
}
]]></script>
        <defs>
                <circle id="rim" cx="0" cy="0" r="7"/>
                <circle id="rim2" cx="0" cy="0" r="3.5"/>
                <g id="zoomPlus">
                        <use xlink:href="#rim" fill="#404040">
                                <set attributeName="fill" to="#808080" begin="zoomplus.mouseover" end="zoomplus.mouseout"/>
                        </use>
                        <path d="M-4,0h8M0,-4v8" fill="none" stroke="white" stroke-width="1.5" pointer-events="none"/>
                </g>
                <g id="zoomMin">
                        <use xlink:href="#rim" fill="#404040">
                                <set attributeName="fill" to="#808080" begin="zoomminus.mouseover" end="zoomminus.mouseout"/>
                        </use>
                        <path d="M-4,0h8" fill="none" stroke="white" stroke-width="1.5" pointer-events="none"/>
                </g>
                <g id="dirArrow">
                        <path fill="none" stroke="white" stroke-width="1.5" d="M0,-3.0v7 M-2.5,-0.5L0,-3.0L2.5,-0.5"/>
                </g>
               <g id="resetDef">
                       <use xlink:href="#rim2" fill="#404040">
                               <set attributeName="fill" to="#808080" begin="reset.mouseover" end="reset.mouseout"/>
                       </use>
               </g>
        </defs>

<script type="text/javascript">
var viewWidth = 324;
var viewHeight = 624;
var sectionId = 'dynsection-1';
</script>
<script xlink:href="../../svgpan.js"/>
<svg id="graph" class="graph">
<g id="viewport">
<title>Juniper.Widgets.FollowMainCamera</title>
<polygon fill="white" stroke="none" points="-4,4 -4,-620 320,-620 320,4 -4,4"/>
<!-- Node2 -->
<g id="node1" class="node"><title>Node2</title>
<g id="a_node1"><a xlink:title=" ">
<polygon fill="#bfbfbf" stroke="black" points="0,-0.5 0,-90.5 136,-90.5 136,-0.5 0,-0.5"/>
<text text-anchor="start" x="8" y="-78.5" font-family="SegoeUI" font-size="10.00">Juniper.Widgets.FollowMain</text>
<text text-anchor="middle" x="68" y="-67.5" font-family="SegoeUI" font-size="10.00">Camera</text>
<polyline fill="none" stroke="black" points="0,-60.5 136,-60.5 "/>
<text text-anchor="middle" x="68" y="-48.5" font-family="SegoeUI" font-size="10.00"> </text>
<polyline fill="none" stroke="black" points="0,-41.5 136,-41.5 "/>
<text text-anchor="start" x="8" y="-29.5" font-family="SegoeUI" font-size="10.00">+ OnValidate()</text>
<text text-anchor="start" x="8" y="-18.5" font-family="SegoeUI" font-size="10.00">+ Awake()</text>
<text text-anchor="start" x="8" y="-7.5" font-family="SegoeUI" font-size="10.00">+ OnEnable()</text>
</a>
</g>
</g>
<!-- Node3 -->
<g id="node2" class="node"><title>Node3</title>
<g id="a_node2"><a xlink:title=" ">
<polygon fill="white" stroke="#bfbfbf" points="8,-558.5 8,-615.5 90,-615.5 90,-558.5 8,-558.5"/>
<text text-anchor="middle" x="49" y="-603.5" font-family="SegoeUI" font-size="10.00">MonoBehaviour</text>
<polyline fill="none" stroke="#bfbfbf" points="8,-596.5 90,-596.5 "/>
<text text-anchor="middle" x="49" y="-584.5" font-family="SegoeUI" font-size="10.00"> </text>
<polyline fill="none" stroke="#bfbfbf" points="8,-577.5 90,-577.5 "/>
<text text-anchor="middle" x="49" y="-565.5" font-family="SegoeUI" font-size="10.00"> </text>
</a>
</g>
</g>
<!-- Node3&#45;&gt;Node2 -->
<g id="edge1" class="edge"><title>Node3&#45;&gt;Node2</title>
<path fill="none" stroke="midnightblue" d="M47.6336,-548.219C45.2351,-471.004 41.618,-289.601 54,-138 55.2689,-122.464 57.5862,-105.564 59.9753,-90.5653"/>
<polygon fill="none" stroke="midnightblue" points="44.1416,-548.527 47.9622,-558.409 51.138,-548.301 44.1416,-548.527"/>
</g>
<!-- Node5 -->
<g id="node4" class="node"><title>Node5</title>
<g id="a_node4"><a xlink:href="../../d6/d22/class_juniper_1_1_widgets_1_1_abstract_follow_settings.html" target="_top" xlink:title="Make one object&#39;s pose follow the pose of another object.">
<polygon fill="white" stroke="black" points="63.5,-376.5 63.5,-510.5 192.5,-510.5 192.5,-376.5 63.5,-376.5"/>
<text text-anchor="middle" x="128" y="-498.5" font-family="SegoeUI" font-size="10.00">AbstractFollowSettings</text>
<polyline fill="none" stroke="black" points="63.5,-491.5 192.5,-491.5 "/>
<text text-anchor="start" x="71.5" y="-479.5" font-family="SegoeUI" font-size="10.00">+ FollowPosition</text>
<text text-anchor="start" x="71.5" y="-468.5" font-family="SegoeUI" font-size="10.00">+ interpolatePosition</text>
<text text-anchor="start" x="71.5" y="-457.5" font-family="SegoeUI" font-size="10.00">+ FollowPositionThreshold</text>
<text text-anchor="start" x="71.5" y="-446.5" font-family="SegoeUI" font-size="10.00">+ maxSpeed</text>
<text text-anchor="start" x="71.5" y="-435.5" font-family="SegoeUI" font-size="10.00">+ Distance</text>
<text text-anchor="start" x="71.5" y="-424.5" font-family="SegoeUI" font-size="10.00">+ FollowRotation</text>
<text text-anchor="start" x="71.5" y="-413.5" font-family="SegoeUI" font-size="10.00">+ interpolateRotation</text>
<text text-anchor="start" x="71.5" y="-402.5" font-family="SegoeUI" font-size="10.00">+ maxRotationRate</text>
<polyline fill="none" stroke="black" points="63.5,-395.5 192.5,-395.5 "/>
<text text-anchor="start" x="71.5" y="-383.5" font-family="SegoeUI" font-size="10.00">+ Copy()</text>
</a>
</g>
</g>
<!-- Node3&#45;&gt;Node5 -->
<g id="edge4" class="edge"><title>Node3&#45;&gt;Node5</title>
<path fill="none" stroke="midnightblue" d="M69.4891,-549.301C76.0836,-537.49 83.6063,-524.015 91.0109,-510.753"/>
<polygon fill="none" stroke="midnightblue" points="66.2384,-547.944 64.4195,-558.381 72.3503,-551.356 66.2384,-547.944"/>
</g>
<!-- Node4 -->
<g id="node3" class="node"><title>Node4</title>
<g id="a_node3"><a xlink:href="../../d8/dfe/class_juniper_1_1_widgets_1_1_follow_object.html" target="_top" xlink:title="Make one object&#39;s pose follow the pose of another object.">
<polygon fill="white" stroke="black" points="63.5,-138.5 63.5,-338.5 206.5,-338.5 206.5,-138.5 63.5,-138.5"/>
<text text-anchor="middle" x="135" y="-326.5" font-family="SegoeUI" font-size="10.00">Juniper.Widgets.FollowObject</text>
<polyline fill="none" stroke="black" points="63.5,-319.5 206.5,-319.5 "/>
<text text-anchor="start" x="71.5" y="-307.5" font-family="SegoeUI" font-size="10.00">+ followObject</text>
<text text-anchor="start" x="71.5" y="-296.5" font-family="SegoeUI" font-size="10.00">&#45; CLOSE_THRESHOLD</text>
<text text-anchor="start" x="71.5" y="-285.5" font-family="SegoeUI" font-size="10.00">&#45; MAX_TIME</text>
<polyline fill="none" stroke="black" points="63.5,-278.5 206.5,-278.5 "/>
<text text-anchor="start" x="71.5" y="-266.5" font-family="SegoeUI" font-size="10.00">+ SetTarget()</text>
<text text-anchor="start" x="71.5" y="-255.5" font-family="SegoeUI" font-size="10.00">+ Reparent()</text>
<text text-anchor="start" x="71.5" y="-244.5" font-family="SegoeUI" font-size="10.00">+ Update()</text>
<text text-anchor="start" x="71.5" y="-233.5" font-family="SegoeUI" font-size="10.00">+ LateUpdate()</text>
<text text-anchor="start" x="71.5" y="-222.5" font-family="SegoeUI" font-size="10.00">+ Skip()</text>
<text text-anchor="start" x="71.5" y="-211.5" font-family="SegoeUI" font-size="10.00">&#45; SetRate()</text>
<text text-anchor="start" x="71.5" y="-200.5" font-family="SegoeUI" font-size="10.00">&#45; NextPosition()</text>
<text text-anchor="start" x="71.5" y="-189.5" font-family="SegoeUI" font-size="10.00">&#45; NextRotation()</text>
<text text-anchor="start" x="71.5" y="-178.5" font-family="SegoeUI" font-size="10.00">&#45; SkipToRotation()</text>
<text text-anchor="start" x="71.5" y="-167.5" font-family="SegoeUI" font-size="10.00">&#45; SkipToPosition()</text>
<text text-anchor="start" x="71.5" y="-156.5" font-family="SegoeUI" font-size="10.00">&#45; GetEndPosition()</text>
<text text-anchor="start" x="71.5" y="-145.5" font-family="SegoeUI" font-size="10.00">&#45; GetEndRotationEuler()</text>
</a>
</g>
</g>
<!-- Node4&#45;&gt;Node2 -->
<g id="edge2" class="edge"><title>Node4&#45;&gt;Node2</title>
<path fill="none" stroke="#404040" d="M100.224,-138.364C95.873,-125.959 91.5504,-113.636 87.5507,-102.234"/>
<polygon fill="none" stroke="#404040" points="87.4841,-102.044 81.7235,-97.7063 83.5119,-90.7204 89.2725,-95.0581 87.4841,-102.044"/>
<text text-anchor="middle" x="99" y="-112" font-family="SegoeUI" font-size="10.00"> &#45;f</text>
</g>
<!-- Node5&#45;&gt;Node4 -->
<g id="edge3" class="edge"><title>Node5&#45;&gt;Node4</title>
<path fill="none" stroke="midnightblue" d="M130.628,-366.287C130.938,-357.287 131.258,-348.005 131.578,-338.747"/>
<polygon fill="none" stroke="midnightblue" points="127.129,-366.196 130.282,-376.311 134.125,-366.438 127.129,-366.196"/>
</g>
<!-- Node6 -->
<g id="node5" class="node"><title>Node6</title>
<g id="a_node5"><a xlink:title=" ">
<polygon fill="white" stroke="#bfbfbf" points="159,-558.5 159,-615.5 225,-615.5 225,-558.5 159,-558.5"/>
<text text-anchor="middle" x="192" y="-603.5" font-family="SegoeUI" font-size="10.00">UnityEngine</text>
<polyline fill="none" stroke="#bfbfbf" points="159,-596.5 225,-596.5 "/>
<text text-anchor="middle" x="192" y="-584.5" font-family="SegoeUI" font-size="10.00"> </text>
<polyline fill="none" stroke="#bfbfbf" points="159,-577.5 225,-577.5 "/>
<text text-anchor="middle" x="192" y="-565.5" font-family="SegoeUI" font-size="10.00"> </text>
</a>
</g>
</g>
<!-- Node6&#45;&gt;Node4 -->
<g id="edge6" class="edge"><title>Node6&#45;&gt;Node4</title>
<path fill="none" stroke="#404040" d="M218.993,-558.394C223.097,-552.714 226.718,-546.477 229,-540 230.624,-535.389 229.442,-533.869 229,-529 222.752,-460.154 222.463,-441.713 201,-376 198.216,-367.475 195.003,-358.801 191.526,-350.17"/>
<polygon fill="none" stroke="#404040" points="191.431,-349.94 185.431,-345.939 186.817,-338.863 192.816,-342.863 191.431,-349.94"/>
<text text-anchor="middle" x="272" y="-457.5" font-family="SegoeUI" font-size="10.00"> &#45;targetRotationRate</text>
<text text-anchor="middle" x="272" y="-446.5" font-family="SegoeUI" font-size="10.00">&#45;targetVelocity</text>
<text text-anchor="middle" x="272" y="-435.5" font-family="SegoeUI" font-size="10.00">&#45;rotationRate</text>
<text text-anchor="middle" x="272" y="-424.5" font-family="SegoeUI" font-size="10.00">&#45;velocity</text>
</g>
<!-- Node6&#45;&gt;Node5 -->
<g id="edge5" class="edge"><title>Node6&#45;&gt;Node5</title>
<path fill="none" stroke="#404040" d="M158.885,-575.424C142.271,-568.249 123.669,-556.927 114,-540 110.965,-534.687 109.081,-528.946 108.081,-523.008"/>
<polygon fill="none" stroke="#404040" points="108.05,-522.586 103.627,-516.89 107.184,-510.617 111.607,-516.313 108.05,-522.586"/>
<text text-anchor="middle" x="171.5" y="-532" font-family="SegoeUI" font-size="10.00"> +FollowRotationThreshold</text>
</g>
</g>
</svg>
        <g id="navigator" transform="translate(0 0)" fill="#404254">
                <rect fill="#f2f5e9" fill-opacity="0.5" stroke="#606060" stroke-width=".5" x="0" y="0" width="60" height="60"/>
                <use id="zoomplus" xlink:href="#zoomPlus" x="17" y="9" onmousedown="handleZoom(evt,'in')"/>
                <use id="zoomminus" xlink:href="#zoomMin" x="42" y="9" onmousedown="handleZoom(evt,'out')"/>
                <use id="reset" xlink:href="#resetDef" x="30" y="36" onmousedown="handleReset()"/>
                <g id="arrowUp" xlink:href="#dirArrow" transform="translate(30 24)" onmousedown="handlePan(0,-1)">
                  <use xlink:href="#rim" fill="#404040">
                        <set attributeName="fill" to="#808080" begin="arrowUp.mouseover" end="arrowUp.mouseout"/>
                  </use>
                  <path fill="none" stroke="white" stroke-width="1.5" d="M0,-3.0v7 M-2.5,-0.5L0,-3.0L2.5,-0.5"/>
                </g>
                <g id="arrowRight" xlink:href="#dirArrow" transform="rotate(90) translate(36 -43)" onmousedown="handlePan(1,0)">
                  <use xlink:href="#rim" fill="#404040">
                        <set attributeName="fill" to="#808080" begin="arrowRight.mouseover" end="arrowRight.mouseout"/>
                  </use>
                  <path fill="none" stroke="white" stroke-width="1.5" d="M0,-3.0v7 M-2.5,-0.5L0,-3.0L2.5,-0.5"/>
                </g>
                <g id="arrowDown" xlink:href="#dirArrow" transform="rotate(180) translate(-30 -48)" onmousedown="handlePan(0,1)">
                  <use xlink:href="#rim" fill="#404040">
                        <set attributeName="fill" to="#808080" begin="arrowDown.mouseover" end="arrowDown.mouseout"/>
                  </use>
                  <path fill="none" stroke="white" stroke-width="1.5" d="M0,-3.0v7 M-2.5,-0.5L0,-3.0L2.5,-0.5"/>
                </g>
                <g id="arrowLeft" xlink:href="#dirArrow" transform="rotate(270) translate(-36 17)" onmousedown="handlePan(-1,0)">
                  <use xlink:href="#rim" fill="#404040">
                        <set attributeName="fill" to="#808080" begin="arrowLeft.mouseover" end="arrowLeft.mouseout"/>
                  </use>
                  <path fill="none" stroke="white" stroke-width="1.5" d="M0,-3.0v7 M-2.5,-0.5L0,-3.0L2.5,-0.5"/>
                </g>
        </g>
        <svg viewBox="0 0 15 15" width="100%" height="30px" preserveAspectRatio="xMaxYMin meet">
         <g id="arrow_out" transform="scale(0.3 0.3)">
          <a xlink:href="class_juniper_1_1_widgets_1_1_follow_main_camera__coll__graph_org.svg" target="_base">
           <rect id="button" ry="5" rx="5" y="6" x="6" height="38" width="38"
                fill="#f2f5e9" fill-opacity="0.5" stroke="#606060" stroke-width="1.0"/>
           <path id="arrow"
             d="M 11.500037,31.436501 C 11.940474,20.09759 22.043105,11.32322 32.158766,21.979434 L 37.068811,17.246167 C 37.068811,17.246167 37.088388,32 37.088388,32 L 22.160133,31.978069 C 22.160133,31.978069 26.997745,27.140456 26.997745,27.140456 C 18.528582,18.264221 13.291696,25.230495 11.500037,31.436501 z"
             style="fill:#404040;"/>
          </a>
         </g>
        </svg>
</svg>
