<?xml version="1.0" encoding="UTF-8" standalone="no"?>
<!DOCTYPE svg PUBLIC "-//W3C//DTD SVG 1.1//EN"
 "http://www.w3.org/Graphics/SVG/1.1/DTD/svg11.dtd">
<!-- Generated by graphviz version 2.38.0 (20140413.2041)
 -->
<!-- Title: Juniper.Unity.Input.RunningMovement Pages: 1 -->
<svg width="142pt" height="331pt"
 viewBox="0.00 0.00 142.00 331.00" xmlns="http://www.w3.org/2000/svg" xmlns:xlink="http://www.w3.org/1999/xlink">
<g id="graph0" class="graph" transform="scale(1 1) rotate(0) translate(4 327)">
<title>Juniper.Unity.Input.RunningMovement</title>
<polygon fill="white" stroke="none" points="-4,4 -4,-327 138,-327 138,4 -4,4"/>
<!-- Node0 -->
<g id="node1" class="node"><title>Node0</title>
<g id="a_node1"><a xlink:title="Controlling the camera from a desktop system. Very useful for quickly debugging things.">
<polygon fill="#bfbfbf" stroke="black" points="0,-0.5 0,-68.5 134,-68.5 134,-0.5 0,-0.5"/>
<text text-anchor="start" x="8" y="-56.5" font-family="SegoeUI" font-size="10.00">Juniper.Unity.Input.Running</text>
<text text-anchor="middle" x="67" y="-45.5" font-family="SegoeUI" font-size="10.00">Movement</text>
<polyline fill="none" stroke="black" points="0,-38.5 134,-38.5 "/>
<text text-anchor="middle" x="67" y="-26.5" font-family="SegoeUI" font-size="10.00"> </text>
<polyline fill="none" stroke="black" points="0,-19.5 134,-19.5 "/>
<text text-anchor="start" x="8" y="-7.5" font-family="SegoeUI" font-size="10.00">+ Update()</text>
</a>
</g>
</g>
<!-- Node1 -->
<g id="node2" class="node"><title>Node1</title>
<g id="a_node2"><a xlink:href="../../d5/d28/class_juniper_1_1_unity_1_1_input_1_1_abstract_velocity_locomotion.html" target="_top" xlink:title=" ">
<polygon fill="white" stroke="black" points="0,-105.5 0,-228.5 134,-228.5 134,-105.5 0,-105.5"/>
<text text-anchor="middle" x="67" y="-216.5" font-family="SegoeUI" font-size="10.00">AbstractVelocityLocomotion</text>
<polyline fill="none" stroke="black" points="0,-209.5 134,-209.5 "/>
<text text-anchor="start" x="8" y="-197.5" font-family="SegoeUI" font-size="10.00">+ moveSpeed</text>
<text text-anchor="start" x="8" y="-186.5" font-family="SegoeUI" font-size="10.00">+ jink</text>
<text text-anchor="start" x="8" y="-175.5" font-family="SegoeUI" font-size="10.00"># MOVEMENT_SCALE</text>
<text text-anchor="start" x="8" y="-164.5" font-family="SegoeUI" font-size="10.00"># velocity</text>
<text text-anchor="start" x="8" y="-153.5" font-family="SegoeUI" font-size="10.00"># input</text>
<text text-anchor="start" x="8" y="-142.5" font-family="SegoeUI" font-size="10.00">&#45; stage</text>
<polyline fill="none" stroke="black" points="0,-135.5 134,-135.5 "/>
<text text-anchor="start" x="8" y="-123.5" font-family="SegoeUI" font-size="10.00">+ Awake()</text>
<text text-anchor="start" x="8" y="-112.5" font-family="SegoeUI" font-size="10.00">+ Update()</text>
</a>
</g>
</g>
<!-- Node1&#45;&gt;Node0 -->
<g id="edge1" class="edge"><title>Node1&#45;&gt;Node0</title>
<path fill="none" stroke="midnightblue" d="M67,-95.2438C67,-85.9655 67,-76.8368 67,-68.6152"/>
<polygon fill="none" stroke="midnightblue" points="63.5001,-95.3345 67,-105.335 70.5001,-95.3346 63.5001,-95.3345"/>
</g>
<!-- Node2 -->
<g id="node3" class="node"><title>Node2</title>
<g id="a_node3"><a xlink:title=" ">
<polygon fill="white" stroke="#bfbfbf" points="26,-265.5 26,-322.5 108,-322.5 108,-265.5 26,-265.5"/>
<text text-anchor="middle" x="67" y="-310.5" font-family="SegoeUI" font-size="10.00">MonoBehaviour</text>
<polyline fill="none" stroke="#bfbfbf" points="26,-303.5 108,-303.5 "/>
<text text-anchor="middle" x="67" y="-291.5" font-family="SegoeUI" font-size="10.00"> </text>
<polyline fill="none" stroke="#bfbfbf" points="26,-284.5 108,-284.5 "/>
<text text-anchor="middle" x="67" y="-272.5" font-family="SegoeUI" font-size="10.00"> </text>
</a>
</g>
</g>
<!-- Node2&#45;&gt;Node1 -->
<g id="edge2" class="edge"><title>Node2&#45;&gt;Node1</title>
<path fill="none" stroke="midnightblue" d="M67,-255.099C67,-246.739 67,-237.68 67,-228.672"/>
<polygon fill="none" stroke="midnightblue" points="63.5001,-255.258 67,-265.258 70.5001,-255.258 63.5001,-255.258"/>
</g>
</g>
</svg>
