<?xml version="1.0" encoding="UTF-8" standalone="no"?>
<!DOCTYPE svg PUBLIC "-//W3C//DTD SVG 1.1//EN"
 "http://www.w3.org/Graphics/SVG/1.1/DTD/svg11.dtd">
<!-- Generated by graphviz version 2.38.0 (20140413.2041)
 -->
<!-- Title: Juniper.Audio.AbstractInteractionAudio Pages: 1 -->
<svg width="663pt" height="1067pt"
 viewBox="0.00 0.00 662.50 1067.00" xmlns="http://www.w3.org/2000/svg" xmlns:xlink="http://www.w3.org/1999/xlink">
<g id="graph0" class="graph" transform="scale(1 1) rotate(0) translate(4 1063)">
<title>Juniper.Audio.AbstractInteractionAudio</title>
<polygon fill="white" stroke="none" points="-4,4 -4,-1063 658.5,-1063 658.5,4 -4,4"/>
<!-- Node7 -->
<g id="node1" class="node"><title>Node7</title>
<g id="a_node1"><a xlink:title="The audio portion of the interaction system.">
<polygon fill="#bfbfbf" stroke="black" points="253,-0.5 253,-475.5 411,-475.5 411,-0.5 253,-0.5"/>
<text text-anchor="start" x="261" y="-463.5" font-family="SegoeUI" font-size="10.00">Juniper.Audio.AbstractInteraction</text>
<text text-anchor="middle" x="332" y="-452.5" font-family="SegoeUI" font-size="10.00">Audio</text>
<polyline fill="none" stroke="black" points="253,-445.5 411,-445.5 "/>
<text text-anchor="start" x="261" y="-433.5" font-family="SegoeUI" font-size="10.00">+ defaultMixerGroup</text>
<text text-anchor="start" x="261" y="-422.5" font-family="SegoeUI" font-size="10.00">+ volumeSlider</text>
<text text-anchor="start" x="261" y="-411.5" font-family="SegoeUI" font-size="10.00">+ soundOnOpened</text>
<text text-anchor="start" x="261" y="-400.5" font-family="SegoeUI" font-size="10.00">+ soundOnStartUp</text>
<text text-anchor="start" x="261" y="-389.5" font-family="SegoeUI" font-size="10.00">+ soundOnShutDown</text>
<text text-anchor="start" x="261" y="-378.5" font-family="SegoeUI" font-size="10.00">+ DefaultAudioMixer</text>
<text text-anchor="start" x="261" y="-367.5" font-family="SegoeUI" font-size="10.00">+ Volume</text>
<text text-anchor="start" x="261" y="-356.5" font-family="SegoeUI" font-size="10.00"># listener</text>
<text text-anchor="start" x="261" y="-345.5" font-family="SegoeUI" font-size="10.00">&#45; MASTER_VOLUME_KEY</text>
<text text-anchor="start" x="261" y="-334.5" font-family="SegoeUI" font-size="10.00">&#45; audioSources</text>
<text text-anchor="start" x="261" y="-323.5" font-family="SegoeUI" font-size="10.00">&#45; camT</text>
<text text-anchor="start" x="261" y="-312.5" font-family="SegoeUI" font-size="10.00">&#45; E</text>
<polyline fill="none" stroke="black" points="253,-305.5 411,-305.5 "/>
<text text-anchor="start" x="261" y="-293.5" font-family="SegoeUI" font-size="10.00">+ Spatialize()</text>
<text text-anchor="start" x="261" y="-282.5" font-family="SegoeUI" font-size="10.00">+ Spatialize()</text>
<text text-anchor="start" x="261" y="-271.5" font-family="SegoeUI" font-size="10.00">+ Spatialize()</text>
<text text-anchor="start" x="261" y="-260.5" font-family="SegoeUI" font-size="10.00">+ Spatialize()</text>
<text text-anchor="start" x="261" y="-249.5" font-family="SegoeUI" font-size="10.00">+ Install()</text>
<text text-anchor="start" x="261" y="-238.5" font-family="SegoeUI" font-size="10.00">+ Reinstall()</text>
<text text-anchor="start" x="261" y="-227.5" font-family="SegoeUI" font-size="10.00">+ Uninstall()</text>
<text text-anchor="start" x="261" y="-216.5" font-family="SegoeUI" font-size="10.00">+ Awake()</text>
<text text-anchor="start" x="261" y="-205.5" font-family="SegoeUI" font-size="10.00">+ Start()</text>
<text text-anchor="start" x="261" y="-194.5" font-family="SegoeUI" font-size="10.00">+ OnValidate()</text>
<text text-anchor="start" x="261" y="-183.5" font-family="SegoeUI" font-size="10.00">+ GetHapticExpressions()</text>
<text text-anchor="start" x="261" y="-172.5" font-family="SegoeUI" font-size="10.00">+ Play()</text>
<text text-anchor="start" x="261" y="-161.5" font-family="SegoeUI" font-size="10.00">+ Play()</text>
<text text-anchor="start" x="261" y="-150.5" font-family="SegoeUI" font-size="10.00">+ Play()</text>
<text text-anchor="start" x="261" y="-139.5" font-family="SegoeUI" font-size="10.00">+ Play()</text>
<text text-anchor="start" x="261" y="-128.5" font-family="SegoeUI" font-size="10.00"># InternalSpatialize()</text>
<text text-anchor="start" x="261" y="-117.5" font-family="SegoeUI" font-size="10.00">&#45; Volume_ValueChange()</text>
<text text-anchor="start" x="261" y="-106.5" font-family="SegoeUI" font-size="10.00">&#45; GetClipCollection()</text>
<text text-anchor="start" x="261" y="-95.5" font-family="SegoeUI" font-size="10.00">&#45; Wait()</text>
<text text-anchor="start" x="261" y="-84.5" font-family="SegoeUI" font-size="10.00">&#45; Play_Internal()</text>
<text text-anchor="start" x="261" y="-73.5" font-family="SegoeUI" font-size="10.00">&#45; Play_Internal()</text>
<text text-anchor="start" x="261" y="-62.5" font-family="SegoeUI" font-size="10.00">&#45; Play_Internal()</text>
<text text-anchor="start" x="261" y="-51.5" font-family="SegoeUI" font-size="10.00">&#45; Play_Internal()</text>
<text text-anchor="start" x="261" y="-40.5" font-family="SegoeUI" font-size="10.00">&#45; PlayHaptics()</text>
<text text-anchor="start" x="261" y="-29.5" font-family="SegoeUI" font-size="10.00">&#45; PlayClip()</text>
<text text-anchor="start" x="261" y="-18.5" font-family="SegoeUI" font-size="10.00">&#45; GetAudioSource()</text>
<text text-anchor="start" x="261" y="-7.5" font-family="SegoeUI" font-size="10.00">&#45; CreateNewAudioSource()</text>
</a>
</g>
</g>
<!-- Node8 -->
<g id="node2" class="node"><title>Node8</title>
<g id="a_node2"><a xlink:title=" ">
<polygon fill="white" stroke="#bfbfbf" points="0,-666.5 0,-723.5 82,-723.5 82,-666.5 0,-666.5"/>
<text text-anchor="middle" x="41" y="-711.5" font-family="SegoeUI" font-size="10.00">MonoBehaviour</text>
<polyline fill="none" stroke="#bfbfbf" points="0,-704.5 82,-704.5 "/>
<text text-anchor="middle" x="41" y="-692.5" font-family="SegoeUI" font-size="10.00"> </text>
<polyline fill="none" stroke="#bfbfbf" points="0,-685.5 82,-685.5 "/>
<text text-anchor="middle" x="41" y="-673.5" font-family="SegoeUI" font-size="10.00"> </text>
</a>
</g>
</g>
<!-- Node8&#45;&gt;Node7 -->
<g id="edge1" class="edge"><title>Node8&#45;&gt;Node7</title>
<path fill="none" stroke="midnightblue" d="M64.1555,-657.795C104.501,-594.711 189.439,-461.905 252.91,-362.663"/>
<polygon fill="none" stroke="midnightblue" points="61.2047,-655.912 58.7653,-666.223 67.1018,-659.684 61.2047,-655.912"/>
</g>
<!-- Node9 -->
<g id="node3" class="node"><title>Node9</title>
<g id="a_node3"><a xlink:href="../../db/d28/interface_juniper_1_1_i_installable.html" target="_top" xlink:title="Defines an interface for objects that can be installed and have their installation progress tracked.">
<polygon fill="white" stroke="black" points="100.5,-655.5 100.5,-734.5 169.5,-734.5 169.5,-655.5 100.5,-655.5"/>
<text text-anchor="middle" x="135" y="-722.5" font-family="SegoeUI" font-size="10.00">IInstallable</text>
<polyline fill="none" stroke="black" points="100.5,-715.5 169.5,-715.5 "/>
<text text-anchor="middle" x="135" y="-703.5" font-family="SegoeUI" font-size="10.00"> </text>
<polyline fill="none" stroke="black" points="100.5,-696.5 169.5,-696.5 "/>
<text text-anchor="start" x="108.5" y="-684.5" font-family="SegoeUI" font-size="10.00">+ Install()</text>
<text text-anchor="start" x="108.5" y="-673.5" font-family="SegoeUI" font-size="10.00">+ Reinstall()</text>
<text text-anchor="start" x="108.5" y="-662.5" font-family="SegoeUI" font-size="10.00">+ Uninstall()</text>
</a>
</g>
</g>
<!-- Node9&#45;&gt;Node7 -->
<g id="edge2" class="edge"><title>Node9&#45;&gt;Node7</title>
<path fill="none" stroke="midnightblue" d="M155.788,-645.988C178.91,-592.583 217.665,-503.074 252.951,-421.575"/>
<polygon fill="none" stroke="midnightblue" points="152.558,-644.64 151.796,-655.207 158.981,-647.421 152.558,-644.64"/>
</g>
<!-- Node10 -->
<g id="node4" class="node"><title>Node10</title>
<g id="a_node4"><a xlink:href="../../db/de2/class_juniper_1_1_audio_1_1_audio_clip_collection.html" target="_top" xlink:title="A collection of related audio clips. For example, one might have many different gunshot sounds to hav...">
<polygon fill="white" stroke="black" points="188,-633.5 188,-756.5 346,-756.5 346,-633.5 188,-633.5"/>
<text text-anchor="middle" x="267" y="-744.5" font-family="SegoeUI" font-size="10.00">Juniper.Audio.AudioClipCollection</text>
<polyline fill="none" stroke="black" points="188,-737.5 346,-737.5 "/>
<text text-anchor="start" x="196" y="-725.5" font-family="SegoeUI" font-size="10.00">+ randomizePitch</text>
<text text-anchor="start" x="196" y="-714.5" font-family="SegoeUI" font-size="10.00">+ clips</text>
<text text-anchor="start" x="196" y="-703.5" font-family="SegoeUI" font-size="10.00">+ Length</text>
<text text-anchor="start" x="196" y="-692.5" font-family="SegoeUI" font-size="10.00">+ RandomizeClipPitch</text>
<text text-anchor="start" x="196" y="-681.5" font-family="SegoeUI" font-size="10.00">+ this[int index]</text>
<polyline fill="none" stroke="black" points="188,-674.5 346,-674.5 "/>
<text text-anchor="start" x="196" y="-662.5" font-family="SegoeUI" font-size="10.00">+ Random()</text>
<text text-anchor="start" x="196" y="-651.5" font-family="SegoeUI" font-size="10.00">+ GetEnumerator()</text>
<text text-anchor="start" x="196" y="-640.5" font-family="SegoeUI" font-size="10.00">&#45; GetEnumerator()</text>
</a>
</g>
</g>
<!-- Node10&#45;&gt;Node7 -->
<g id="edge3" class="edge"><title>Node10&#45;&gt;Node7</title>
<path fill="none" stroke="#404040" d="M270.985,-633.447C273.962,-593.698 278.618,-540.63 285,-494 285.283,-491.93 285.572,-489.852 285.865,-487.765"/>
<polygon fill="none" stroke="#404040" points="285.886,-487.616 282.782,-481.108 287.597,-475.739 290.701,-482.248 285.886,-487.616"/>
<text text-anchor="middle" x="326.5" y="-607" font-family="SegoeUI" font-size="10.00"> +soundOnSuccess</text>
<text text-anchor="middle" x="326.5" y="-596" font-family="SegoeUI" font-size="10.00">+soundOnDragged</text>
<text text-anchor="middle" x="326.5" y="-585" font-family="SegoeUI" font-size="10.00">+soundOnDisabled</text>
<text text-anchor="middle" x="326.5" y="-574" font-family="SegoeUI" font-size="10.00">+soundOnScrolled</text>
<text text-anchor="middle" x="326.5" y="-563" font-family="SegoeUI" font-size="10.00">+soundOnEntered</text>
<text text-anchor="middle" x="326.5" y="-552" font-family="SegoeUI" font-size="10.00">+soundOnExited</text>
<text text-anchor="middle" x="326.5" y="-541" font-family="SegoeUI" font-size="10.00">+soundOnReleased</text>
<text text-anchor="middle" x="326.5" y="-530" font-family="SegoeUI" font-size="10.00">+soundOnSelected</text>
<text text-anchor="middle" x="326.5" y="-519" font-family="SegoeUI" font-size="10.00">+soundOnError</text>
<text text-anchor="middle" x="326.5" y="-508" font-family="SegoeUI" font-size="10.00">+soundOnClosed</text>
<text text-anchor="middle" x="326.5" y="-497" font-family="SegoeUI" font-size="10.00">...</text>
</g>
<!-- Node11 -->
<g id="node5" class="node"><title>Node11</title>
<g id="a_node5"><a xlink:title=" ">
<polygon fill="white" stroke="#bfbfbf" points="139.5,-895.5 139.5,-952.5 226.5,-952.5 226.5,-895.5 139.5,-895.5"/>
<text text-anchor="middle" x="183" y="-940.5" font-family="SegoeUI" font-size="10.00">ScriptableObject</text>
<polyline fill="none" stroke="#bfbfbf" points="139.5,-933.5 226.5,-933.5 "/>
<text text-anchor="middle" x="183" y="-921.5" font-family="SegoeUI" font-size="10.00"> </text>
<polyline fill="none" stroke="#bfbfbf" points="139.5,-914.5 226.5,-914.5 "/>
<text text-anchor="middle" x="183" y="-902.5" font-family="SegoeUI" font-size="10.00"> </text>
</a>
</g>
</g>
<!-- Node11&#45;&gt;Node10 -->
<g id="edge4" class="edge"><title>Node11&#45;&gt;Node10</title>
<path fill="none" stroke="midnightblue" d="M196.925,-885.37C209.845,-850.455 229.304,-797.868 244.441,-756.962"/>
<polygon fill="none" stroke="midnightblue" points="193.488,-884.572 193.3,-895.165 200.053,-887.002 193.488,-884.572"/>
</g>
<!-- Node12 -->
<g id="node6" class="node"><title>Node12</title>
<g id="a_node6"><a xlink:href="../../d4/d37/interface_juniper_1_1_audio_1_1_i_audio_clip_collection.html" target="_top" xlink:title="The IAudioClipCollection interface is implemented by two classes. One is a savable collection of audi...">
<polygon fill="white" stroke="black" points="244.5,-884.5 244.5,-963.5 353.5,-963.5 353.5,-884.5 244.5,-884.5"/>
<text text-anchor="middle" x="299" y="-951.5" font-family="SegoeUI" font-size="10.00">IAudioClipCollection</text>
<polyline fill="none" stroke="black" points="244.5,-944.5 353.5,-944.5 "/>
<text text-anchor="start" x="252.5" y="-932.5" font-family="SegoeUI" font-size="10.00">+ Length</text>
<text text-anchor="start" x="252.5" y="-921.5" font-family="SegoeUI" font-size="10.00">+ RandomizeClipPitch</text>
<text text-anchor="start" x="252.5" y="-910.5" font-family="SegoeUI" font-size="10.00">+ this[int index]</text>
<polyline fill="none" stroke="black" points="244.5,-903.5 353.5,-903.5 "/>
<text text-anchor="start" x="252.5" y="-891.5" font-family="SegoeUI" font-size="10.00">+ Random()</text>
</a>
</g>
</g>
<!-- Node12&#45;&gt;Node10 -->
<g id="edge5" class="edge"><title>Node12&#45;&gt;Node10</title>
<path fill="none" stroke="midnightblue" d="M292.122,-874.207C287.264,-839.751 280.723,-793.348 275.533,-756.531"/>
<polygon fill="none" stroke="midnightblue" points="288.71,-875.079 293.572,-884.493 295.641,-874.102 288.71,-875.079"/>
</g>
<!-- Node13 -->
<g id="node7" class="node"><title>Node13</title>
<g id="a_node7"><a xlink:title=" ">
<polygon fill="white" stroke="#bfbfbf" points="290,-1001.5 290,-1058.5 420,-1058.5 420,-1001.5 290,-1001.5"/>
<text text-anchor="middle" x="355" y="-1046.5" font-family="SegoeUI" font-size="10.00">IEnumerable&lt; AudioClip &gt;</text>
<polyline fill="none" stroke="#bfbfbf" points="290,-1039.5 420,-1039.5 "/>
<text text-anchor="middle" x="355" y="-1027.5" font-family="SegoeUI" font-size="10.00"> </text>
<polyline fill="none" stroke="#bfbfbf" points="290,-1020.5 420,-1020.5 "/>
<text text-anchor="middle" x="355" y="-1008.5" font-family="SegoeUI" font-size="10.00"> </text>
</a>
</g>
</g>
<!-- Node13&#45;&gt;Node12 -->
<g id="edge6" class="edge"><title>Node13&#45;&gt;Node12</title>
<path fill="none" stroke="midnightblue" d="M335.291,-992.397C330.286,-983.102 324.892,-973.084 319.832,-963.689"/>
<polygon fill="none" stroke="midnightblue" points="332.317,-994.258 340.14,-1001.4 338.481,-990.939 332.317,-994.258"/>
</g>
<!-- Node14 -->
<g id="node8" class="node"><title>Node14</title>
<g id="a_node8"><a xlink:href="../../d4/d37/interface_juniper_1_1_audio_1_1_i_audio_clip_collection.html" target="_top" xlink:title="The IAudioClipCollection interface is implemented by two classes. One is a savable collection of audi...">
<polygon fill="white" stroke="black" points="322,-775.5 322,-865.5 442,-865.5 442,-775.5 322,-775.5"/>
<text text-anchor="start" x="330" y="-853.5" font-family="SegoeUI" font-size="10.00">Juniper.Audio.IAudioClip</text>
<text text-anchor="middle" x="382" y="-842.5" font-family="SegoeUI" font-size="10.00">Collection</text>
<polyline fill="none" stroke="black" points="322,-835.5 442,-835.5 "/>
<text text-anchor="start" x="330" y="-823.5" font-family="SegoeUI" font-size="10.00">+ Length</text>
<text text-anchor="start" x="330" y="-812.5" font-family="SegoeUI" font-size="10.00">+ RandomizeClipPitch</text>
<text text-anchor="start" x="330" y="-801.5" font-family="SegoeUI" font-size="10.00">+ this[int index]</text>
<polyline fill="none" stroke="black" points="322,-794.5 442,-794.5 "/>
<text text-anchor="start" x="330" y="-782.5" font-family="SegoeUI" font-size="10.00">+ Random()</text>
</a>
</g>
</g>
<!-- Node13&#45;&gt;Node14 -->
<g id="edge8" class="edge"><title>Node13&#45;&gt;Node14</title>
<path fill="none" stroke="midnightblue" d="M359.934,-991.081C364.528,-955.775 371.377,-903.139 376.224,-865.889"/>
<polygon fill="none" stroke="midnightblue" points="356.405,-991.078 358.585,-1001.45 363.347,-991.981 356.405,-991.078"/>
</g>
<!-- Node14&#45;&gt;Node7 -->
<g id="edge7" class="edge"><title>Node14&#45;&gt;Node7</title>
<path fill="none" stroke="#404040" d="M381.463,-775.448C380.39,-712.794 377.224,-594.4 368,-494 367.81,-491.934 367.615,-489.859 367.416,-487.776"/>
<polygon fill="none" stroke="#404040" points="367.409,-487.709 362.836,-482.133 366.224,-475.767 370.797,-481.343 367.409,-487.709"/>
<text text-anchor="middle" x="405" y="-698" font-family="SegoeUI" font-size="10.00"> &#45;startUp</text>
<text text-anchor="middle" x="405" y="-687" font-family="SegoeUI" font-size="10.00">&#45;shutDown</text>
</g>
<!-- Node15 -->
<g id="node9" class="node"><title>Node15</title>
<g id="a_node9"><a xlink:href="../../d0/d32/interface_juniper_1_1_widgets_1_1_i_valued_control.html" target="_top" xlink:title=" ">
<polygon fill="white" stroke="black" points="446.5,-661 446.5,-729 597.5,-729 597.5,-661 446.5,-661"/>
<text text-anchor="start" x="454.5" y="-717" font-family="SegoeUI" font-size="10.00">Juniper.Widgets.IValuedControl</text>
<text text-anchor="middle" x="522" y="-706" font-family="SegoeUI" font-size="10.00">&lt; float &gt;</text>
<polyline fill="none" stroke="black" points="446.5,-699 597.5,-699 "/>
<text text-anchor="start" x="454.5" y="-687" font-family="SegoeUI" font-size="10.00">+ value</text>
<polyline fill="none" stroke="black" points="446.5,-680 597.5,-680 "/>
<text text-anchor="middle" x="522" y="-668" font-family="SegoeUI" font-size="10.00"> </text>
</a>
</g>
</g>
<!-- Node15&#45;&gt;Node7 -->
<g id="edge9" class="edge"><title>Node15&#45;&gt;Node7</title>
<path fill="none" stroke="#404040" d="M508.183,-660.911C488.569,-613.941 451.097,-524.207 415.737,-439.529"/>
<polygon fill="none" stroke="#404040" points="415.725,-439.5 409.722,-435.505 411.101,-428.427 417.104,-432.422 415.725,-439.5"/>
<text text-anchor="middle" x="505" y="-552" font-family="SegoeUI" font-size="10.00"> &#45;volume</text>
</g>
<!-- Node16 -->
<g id="node10" class="node"><title>Node16</title>
<g id="a_node10"><a xlink:href="../../d0/d32/interface_juniper_1_1_widgets_1_1_i_valued_control.html" target="_top" xlink:title=" ">
<polygon fill="white" stroke="black" points="434,-895.5 434,-952.5 610,-952.5 610,-895.5 434,-895.5"/>
<text text-anchor="middle" x="522" y="-940.5" font-family="SegoeUI" font-size="10.00">Juniper.Widgets.IValuedControl&lt; T &gt;</text>
<polyline fill="none" stroke="black" points="434,-933.5 610,-933.5 "/>
<text text-anchor="start" x="442" y="-921.5" font-family="SegoeUI" font-size="10.00">+ value</text>
<polyline fill="none" stroke="black" points="434,-914.5 610,-914.5 "/>
<text text-anchor="middle" x="522" y="-902.5" font-family="SegoeUI" font-size="10.00"> </text>
</a>
</g>
</g>
<!-- Node16&#45;&gt;Node15 -->
<g id="edge10" class="edge"><title>Node16&#45;&gt;Node15</title>
<path fill="none" stroke="orange" d="M522,-884.971C522,-841.394 522,-770.672 522,-729.22"/>
<polygon fill="orange" stroke="orange" points="518.5,-885.165 522,-895.165 525.5,-885.165 518.5,-885.165"/>
<text text-anchor="middle" x="543" y="-818" font-family="SegoeUI" font-size="10.00"> &lt; float &gt;</text>
</g>
<!-- Node17 -->
<g id="node11" class="node"><title>Node17</title>
<g id="a_node11"><a xlink:title=" ">
<polygon fill="white" stroke="#bfbfbf" points="615.5,-666.5 615.5,-723.5 654.5,-723.5 654.5,-666.5 615.5,-666.5"/>
<text text-anchor="middle" x="635" y="-711.5" font-family="SegoeUI" font-size="10.00">static</text>
<polyline fill="none" stroke="#bfbfbf" points="615.5,-704.5 654.5,-704.5 "/>
<text text-anchor="middle" x="635" y="-692.5" font-family="SegoeUI" font-size="10.00"> </text>
<polyline fill="none" stroke="#bfbfbf" points="615.5,-685.5 654.5,-685.5 "/>
<text text-anchor="middle" x="635" y="-673.5" font-family="SegoeUI" font-size="10.00"> </text>
</a>
</g>
</g>
<!-- Node17&#45;&gt;Node7 -->
<g id="edge11" class="edge"><title>Node17&#45;&gt;Node7</title>
<path fill="none" stroke="#404040" d="M622.398,-666.477C617.442,-655.929 611.605,-643.831 606,-633 573.44,-570.086 567.02,-553.125 528,-494 494.477,-443.204 453.969,-389.436 418.502,-344.436"/>
<polygon fill="none" stroke="#404040" points="418.459,-344.382 411.599,-342.158 411.014,-334.97 417.874,-337.195 418.459,-344.382"/>
<text text-anchor="middle" x="617.5" y="-552" font-family="SegoeUI" font-size="10.00"> &#45;instance</text>
</g>
</g>
</svg>
