<?xml version="1.0" encoding="UTF-8" standalone="no"?>
<!DOCTYPE svg PUBLIC "-//W3C//DTD SVG 1.1//EN"
 "http://www.w3.org/Graphics/SVG/1.1/DTD/svg11.dtd">
<!-- Generated by graphviz version 2.38.0 (20140413.2041)
 -->
<!-- Title: Graphical Class Hierarchy Pages: 1 -->
<svg width="378pt" height="50pt"
 viewBox="0.00 0.00 378.00 50.00" xmlns="http://www.w3.org/2000/svg" xmlns:xlink="http://www.w3.org/1999/xlink">
<g id="graph0" class="graph" transform="scale(1 1) rotate(0) translate(4 46)">
<title>Graphical Class Hierarchy</title>
<polygon fill="white" stroke="none" points="-4,4 -4,-46 374,-46 374,4 -4,4"/>
<!-- Node0 -->
<g id="node1" class="node"><title>Node0</title>
<g id="a_node1"><a xlink:href="da/de2/class_juniper_1_1_input_1_1_pointers_1_1_motion_1_1_abstract_motion_controller_configuration.html" target="_top" xlink:title=" ">
<polygon fill="white" stroke="black" points="0,-0.5 0,-41.5 179,-41.5 179,-0.5 0,-0.5"/>
<text text-anchor="start" x="8" y="-29.5" font-family="SegoeUI" font-size="10.00">Juniper.Input.Pointers.Motion.</text>
<text text-anchor="start" x="8" y="-18.5" font-family="SegoeUI" font-size="10.00">AbstractMotionControllerConfiguration</text>
<text text-anchor="middle" x="89.5" y="-7.5" font-family="SegoeUI" font-size="10.00">&lt; Unary, KeyCode &gt;</text>
</a>
</g>
</g>
<!-- Node1 -->
<g id="node2" class="node"><title>Node1</title>
<g id="a_node2"><a xlink:href="de/d96/class_juniper_1_1_input_1_1_pointers_1_1_motion_1_1_no_motion_controller_configuration.html" target="_top" xlink:title=" ">
<polygon fill="white" stroke="black" points="215,-6 215,-36 370,-36 370,-6 215,-6"/>
<text text-anchor="start" x="223" y="-24" font-family="SegoeUI" font-size="10.00">Juniper.Input.Pointers.Motion.</text>
<text text-anchor="middle" x="292.5" y="-13" font-family="SegoeUI" font-size="10.00">NoMotionControllerConfiguration</text>
</a>
</g>
</g>
<!-- Node0&#45;&gt;Node1 -->
<g id="edge1" class="edge"><title>Node0&#45;&gt;Node1</title>
<path fill="none" stroke="midnightblue" d="M189.311,-21C197.904,-21 206.513,-21 214.888,-21"/>
<polygon fill="midnightblue" stroke="midnightblue" points="189.247,-17.5001 179.247,-21 189.247,-24.5001 189.247,-17.5001"/>
</g>
</g>
</svg>
