<?xml version="1.0" encoding="UTF-8" standalone="no"?>
<!DOCTYPE svg PUBLIC "-//W3C//DTD SVG 1.1//EN"
 "http://www.w3.org/Graphics/SVG/1.1/DTD/svg11.dtd">
<!-- Generated by graphviz version 2.38.0 (20140413.2041)
 -->
<!-- Title: Graphical Class Hierarchy Pages: 1 -->
<svg width="500pt" height="313pt"
 viewBox="0.00 0.00 500.00 313.00" xmlns="http://www.w3.org/2000/svg" xmlns:xlink="http://www.w3.org/1999/xlink">
<g id="graph0" class="graph" transform="scale(1 1) rotate(0) translate(4 309)">
<title>Graphical Class Hierarchy</title>
<polygon fill="white" stroke="none" points="-4,4 -4,-309 496,-309 496,4 -4,4"/>
<!-- Node317 -->
<g id="node1" class="node"><title>Node317</title>
<g id="a_node1"><a xlink:title=" ">
<polygon fill="white" stroke="#bfbfbf" points="28,-255 28,-274 99,-274 99,-255 28,-255"/>
<text text-anchor="middle" x="63.5" y="-262" font-family="SegoeUI" font-size="10.00">IEnumerable</text>
</a>
</g>
</g>
<!-- Node318 -->
<g id="node2" class="node"><title>Node318</title>
<g id="a_node2"><a xlink:href="da/d46/interface_juniper_1_1_unity_1_1_audio_1_1_i_audio_clip_collection.html" target="_top" xlink:title="The IAudioClipCollection interface is implemented by two classes. One is a savable collection of audi...">
<polygon fill="white" stroke="black" points="181.5,-274.5 181.5,-304.5 309.5,-304.5 309.5,-274.5 181.5,-274.5"/>
<text text-anchor="start" x="189.5" y="-292.5" font-family="SegoeUI" font-size="10.00">Juniper.Unity.Audio.IAudio</text>
<text text-anchor="middle" x="245.5" y="-281.5" font-family="SegoeUI" font-size="10.00">ClipCollection</text>
</a>
</g>
</g>
<!-- Node317&#45;&gt;Node318 -->
<g id="edge1" class="edge"><title>Node317&#45;&gt;Node318</title>
<path fill="none" stroke="midnightblue" d="M109.182,-270.706C131.003,-273.737 157.635,-277.435 181.482,-280.747"/>
<polygon fill="midnightblue" stroke="midnightblue" points="109.592,-267.229 99.2058,-269.32 108.629,-274.163 109.592,-267.229"/>
</g>
<!-- Node62 -->
<g id="node5" class="node"><title>Node62</title>
<g id="a_node5"><a xlink:href="d7/dc2/class_juniper_1_1_unity_1_1_widgets_1_1_material_collection.html" target="_top" xlink:title="A read&#45;only collection of materials that can be applied to renderers.">
<polygon fill="white" stroke="black" points="172.5,-225.5 172.5,-255.5 318.5,-255.5 318.5,-225.5 172.5,-225.5"/>
<text text-anchor="start" x="180.5" y="-243.5" font-family="SegoeUI" font-size="10.00">Juniper.Unity.Widgets.Material</text>
<text text-anchor="middle" x="245.5" y="-232.5" font-family="SegoeUI" font-size="10.00">Collection</text>
</a>
</g>
</g>
<!-- Node317&#45;&gt;Node62 -->
<g id="edge4" class="edge"><title>Node317&#45;&gt;Node62</title>
<path fill="none" stroke="midnightblue" d="M109.364,-258.518C128.376,-255.983 151.015,-252.965 172.276,-250.13"/>
<polygon fill="midnightblue" stroke="midnightblue" points="108.655,-255.082 99.2058,-259.873 109.581,-262.02 108.655,-255.082"/>
</g>
<!-- Node0 -->
<g id="node3" class="node"><title>Node0</title>
<g id="a_node3"><a xlink:href="d3/d6d/class_juniper_1_1_unity_1_1_audio_1_1_audio_clip_collection.html" target="_top" xlink:title="A collection of related audio clips. For example, one might have many different gunshot sounds to hav...">
<polygon fill="white" stroke="black" points="365.5,-206.5 365.5,-236.5 490.5,-236.5 490.5,-206.5 365.5,-206.5"/>
<text text-anchor="start" x="373.5" y="-224.5" font-family="SegoeUI" font-size="10.00">Juniper.Unity.Audio.Audio</text>
<text text-anchor="middle" x="428" y="-213.5" font-family="SegoeUI" font-size="10.00">ClipCollection</text>
</a>
</g>
</g>
<!-- Node318&#45;&gt;Node0 -->
<g id="edge2" class="edge"><title>Node318&#45;&gt;Node0</title>
<path fill="none" stroke="midnightblue" d="M310.949,-271.383C316.747,-269.494 322.501,-267.522 328,-265.5 351.126,-256.998 376.508,-245.676 395.781,-236.646"/>
<polygon fill="midnightblue" stroke="midnightblue" points="309.661,-268.119 301.187,-274.478 311.777,-274.792 309.661,-268.119"/>
</g>
<!-- Node319 -->
<g id="node4" class="node"><title>Node319</title>
<g id="a_node4"><a xlink:href="db/dd3/class_juniper_1_1_unity_1_1_audio_1_1_single_audio_clip_collection.html" target="_top" xlink:title="Wraps around a single audio clip to make it interface with code that handles full collections of audi...">
<polygon fill="white" stroke="black" points="364,-274.5 364,-304.5 492,-304.5 492,-274.5 364,-274.5"/>
<text text-anchor="start" x="372" y="-292.5" font-family="SegoeUI" font-size="10.00">Juniper.Unity.Audio.Single</text>
<text text-anchor="middle" x="428" y="-281.5" font-family="SegoeUI" font-size="10.00">AudioClipCollection</text>
</a>
</g>
</g>
<!-- Node318&#45;&gt;Node319 -->
<g id="edge3" class="edge"><title>Node318&#45;&gt;Node319</title>
<path fill="none" stroke="midnightblue" d="M319.663,-289.5C334.328,-289.5 349.617,-289.5 363.906,-289.5"/>
<polygon fill="midnightblue" stroke="midnightblue" points="319.63,-286 309.63,-289.5 319.63,-293 319.63,-286"/>
</g>
<!-- Node264 -->
<g id="node6" class="node"><title>Node264</title>
<g id="a_node6"><a xlink:href="d8/d2c/interface_unity_engine_1_1_i_valued.html" target="_top" xlink:title="An abstraction for Reference{T}s and Varabile{T}s to make them usuable in shared contexts.">
<polygon fill="white" stroke="black" points="0,-28 0,-47 127,-47 127,-28 0,-28"/>
<text text-anchor="middle" x="63.5" y="-35" font-family="SegoeUI" font-size="10.00">UnityEngine.IValued&lt; T &gt;</text>
</a>
</g>
</g>
<!-- Node265 -->
<g id="node7" class="node"><title>Node265</title>
<g id="a_node7"><a xlink:href="da/d38/class_unity_engine_1_1_abstract_reference.html" target="_top" xlink:title="A reference to either a savable *Variable or a static value set in the editor.">
<polygon fill="white" stroke="black" points="171.5,-0.5 171.5,-30.5 319.5,-30.5 319.5,-0.5 171.5,-0.5"/>
<text text-anchor="start" x="179.5" y="-18.5" font-family="SegoeUI" font-size="10.00">UnityEngine.AbstractReference</text>
<text text-anchor="middle" x="245.5" y="-7.5" font-family="SegoeUI" font-size="10.00">&lt; T, U &gt;</text>
</a>
</g>
</g>
<!-- Node264&#45;&gt;Node265 -->
<g id="edge5" class="edge"><title>Node264&#45;&gt;Node265</title>
<path fill="none" stroke="midnightblue" d="M137.335,-28.598C148.502,-27.2331 160.035,-25.8235 171.212,-24.4574"/>
<polygon fill="midnightblue" stroke="midnightblue" points="136.704,-25.1489 127.203,-29.8364 137.553,-32.0972 136.704,-25.1489"/>
</g>
<!-- Node63 -->
<g id="node8" class="node"><title>Node63</title>
<g id="a_node8"><a xlink:href="d4/d88/class_unity_engine_1_1_abstract_variable.html" target="_top" xlink:title="An abstraction of storing values on disk in the Assets folder. A sort of drag&#45;and&#45;drop means of setti...">
<polygon fill="white" stroke="black" points="163,-50 163,-69 328,-69 328,-50 163,-50"/>
<text text-anchor="middle" x="245.5" y="-57" font-family="SegoeUI" font-size="10.00">UnityEngine.AbstractVariable&lt; T &gt;</text>
</a>
</g>
</g>
<!-- Node264&#45;&gt;Node63 -->
<g id="edge6" class="edge"><title>Node264&#45;&gt;Node63</title>
<path fill="none" stroke="midnightblue" d="M137.151,-46.3796C146.813,-47.5605 156.753,-48.7753 166.501,-49.9668"/>
<polygon fill="midnightblue" stroke="midnightblue" points="137.553,-42.9028 127.203,-45.1636 136.704,-49.8511 137.553,-42.9028"/>
</g>
<!-- Node55 -->
<g id="node9" class="node"><title>Node55</title>
<g id="a_node9"><a xlink:title=" ">
<polygon fill="white" stroke="#bfbfbf" points="20,-143 20,-162 107,-162 107,-143 20,-143"/>
<text text-anchor="middle" x="63.5" y="-150" font-family="SegoeUI" font-size="10.00">ScriptableObject</text>
</a>
</g>
</g>
<!-- Node55&#45;&gt;Node0 -->
<g id="edge7" class="edge"><title>Node55&#45;&gt;Node0</title>
<path fill="none" stroke="midnightblue" d="M109.091,-164.656C125.914,-169.021 145.269,-173.779 163,-177.5 231.895,-191.958 311.705,-204.713 365.383,-212.718"/>
<polygon fill="midnightblue" stroke="midnightblue" points="109.541,-161.156 98.9804,-162.002 107.764,-167.926 109.541,-161.156"/>
</g>
<!-- Node55&#45;&gt;Node62 -->
<g id="edge13" class="edge"><title>Node55&#45;&gt;Node62</title>
<path fill="none" stroke="midnightblue" d="M87.597,-167.705C107.159,-180.187 136.216,-197.811 163,-210.5 174.446,-215.922 187.155,-221.016 199.066,-225.414"/>
<polygon fill="midnightblue" stroke="midnightblue" points="89.3649,-164.681 79.0641,-162.202 85.5708,-170.563 89.3649,-164.681"/>
</g>
<!-- Node55&#45;&gt;Node63 -->
<g id="edge14" class="edge"><title>Node55&#45;&gt;Node63</title>
<path fill="none" stroke="midnightblue" d="M81.5813,-136.103C100.154,-119.18 131.428,-93.2354 163,-78.5 171.294,-74.6289 180.442,-71.5124 189.521,-69.0136"/>
<polygon fill="midnightblue" stroke="midnightblue" points="79.15,-133.584 74.2108,-142.957 83.9171,-138.71 79.15,-133.584"/>
</g>
<!-- Node57 -->
<g id="node10" class="node"><title>Node57</title>
<g id="a_node10"><a xlink:href="d0/dbf/class_juniper_1_1_unity_1_1_light_mapping_1_1_light_map_set.html" target="_top" xlink:title="A set of Directional, Light, and Shadow maps, for being able to switch between light maps at runtime ...">
<polygon fill="white" stroke="black" points="178.5,-137.5 178.5,-167.5 312.5,-167.5 312.5,-137.5 178.5,-137.5"/>
<text text-anchor="start" x="186.5" y="-155.5" font-family="SegoeUI" font-size="10.00">Juniper.Unity.LightMapping.</text>
<text text-anchor="middle" x="245.5" y="-144.5" font-family="SegoeUI" font-size="10.00">LightMapSet</text>
</a>
</g>
</g>
<!-- Node55&#45;&gt;Node57 -->
<g id="edge8" class="edge"><title>Node55&#45;&gt;Node57</title>
<path fill="none" stroke="midnightblue" d="M117.166,-152.5C136.266,-152.5 158.094,-152.5 178.218,-152.5"/>
<polygon fill="midnightblue" stroke="midnightblue" points="117.158,-149 107.157,-152.5 117.157,-156 117.158,-149"/>
</g>
<!-- Node58 -->
<g id="node11" class="node"><title>Node58</title>
<g id="a_node11"><a xlink:href="d8/dbf/class_juniper_1_1_unity_1_1_statistics_1_1_abstract_motion_filter.html" target="_top" xlink:title=" ">
<polygon fill="white" stroke="black" points="187.5,-88.5 187.5,-118.5 303.5,-118.5 303.5,-88.5 187.5,-88.5"/>
<text text-anchor="start" x="195.5" y="-106.5" font-family="SegoeUI" font-size="10.00">Juniper.Unity.Statistics.</text>
<text text-anchor="middle" x="245.5" y="-95.5" font-family="SegoeUI" font-size="10.00">AbstractMotionFilter</text>
</a>
</g>
</g>
<!-- Node55&#45;&gt;Node58 -->
<g id="edge9" class="edge"><title>Node55&#45;&gt;Node58</title>
<path fill="none" stroke="midnightblue" d="M109.601,-140.222C133.758,-133.646 163.718,-125.491 189.262,-118.537"/>
<polygon fill="midnightblue" stroke="midnightblue" points="108.363,-136.932 99.6331,-142.936 110.201,-143.686 108.363,-136.932"/>
</g>
<!-- Node59 -->
<g id="node12" class="node"><title>Node59</title>
<g id="a_node12"><a xlink:href="dc/df6/class_juniper_1_1_unity_1_1_statistics_1_1_integration_motion_filter.html" target="_top" xlink:title=" ">
<polygon fill="white" stroke="black" points="370,-137.5 370,-167.5 486,-167.5 486,-137.5 370,-137.5"/>
<text text-anchor="start" x="378" y="-155.5" font-family="SegoeUI" font-size="10.00">Juniper.Unity.Statistics.</text>
<text text-anchor="middle" x="428" y="-144.5" font-family="SegoeUI" font-size="10.00">IntegrationMotionFilter</text>
</a>
</g>
</g>
<!-- Node58&#45;&gt;Node59 -->
<g id="edge10" class="edge"><title>Node58&#45;&gt;Node59</title>
<path fill="none" stroke="midnightblue" d="M311.88,-121.248C331.442,-126.559 352.696,-132.329 371.555,-137.448"/>
<polygon fill="midnightblue" stroke="midnightblue" points="312.696,-117.844 302.129,-118.601 310.863,-124.599 312.696,-117.844"/>
</g>
<!-- Node60 -->
<g id="node13" class="node"><title>Node60</title>
<g id="a_node13"><a xlink:href="d9/d39/class_juniper_1_1_unity_1_1_statistics_1_1_kalman_motion_filter.html" target="_top" xlink:title=" ">
<polygon fill="white" stroke="black" points="370,-88.5 370,-118.5 486,-118.5 486,-88.5 370,-88.5"/>
<text text-anchor="start" x="378" y="-106.5" font-family="SegoeUI" font-size="10.00">Juniper.Unity.Statistics.</text>
<text text-anchor="middle" x="428" y="-95.5" font-family="SegoeUI" font-size="10.00">KalmanMotionFilter</text>
</a>
</g>
</g>
<!-- Node58&#45;&gt;Node60 -->
<g id="edge11" class="edge"><title>Node58&#45;&gt;Node60</title>
<path fill="none" stroke="midnightblue" d="M313.722,-103.5C332.215,-103.5 352.091,-103.5 369.951,-103.5"/>
<polygon fill="midnightblue" stroke="midnightblue" points="313.611,-100 303.611,-103.5 313.611,-107 313.611,-100"/>
</g>
<!-- Node61 -->
<g id="node14" class="node"><title>Node61</title>
<g id="a_node14"><a xlink:href="d1/d9b/class_juniper_1_1_unity_1_1_statistics_1_1_lerp_motion_filter.html" target="_top" xlink:title=" ">
<polygon fill="white" stroke="black" points="370,-39.5 370,-69.5 486,-69.5 486,-39.5 370,-39.5"/>
<text text-anchor="start" x="378" y="-57.5" font-family="SegoeUI" font-size="10.00">Juniper.Unity.Statistics.</text>
<text text-anchor="middle" x="428" y="-46.5" font-family="SegoeUI" font-size="10.00">LerpMotionFilter</text>
</a>
</g>
</g>
<!-- Node58&#45;&gt;Node61 -->
<g id="edge12" class="edge"><title>Node58&#45;&gt;Node61</title>
<path fill="none" stroke="midnightblue" d="M311.88,-85.7515C331.442,-80.4409 352.696,-74.6712 371.555,-69.5516"/>
<polygon fill="midnightblue" stroke="midnightblue" points="310.863,-82.4009 302.129,-88.3986 312.696,-89.1564 310.863,-82.4009"/>
</g>
</g>
</svg>
