<?xml version="1.0" encoding="UTF-8" standalone="no"?>
<!DOCTYPE svg PUBLIC "-//W3C//DTD SVG 1.1//EN"
 "http://www.w3.org/Graphics/SVG/1.1/DTD/svg11.dtd">
<!-- Generated by graphviz version 2.38.0 (20140413.2041)
 -->
<!-- Title: Graphical Class Hierarchy Pages: 1 -->
<svg width="320pt" height="66pt"
 viewBox="0.00 0.00 320.00 66.00" xmlns="http://www.w3.org/2000/svg" xmlns:xlink="http://www.w3.org/1999/xlink">
<g id="graph0" class="graph" transform="scale(1 1) rotate(0) translate(4 62)">
<title>Graphical Class Hierarchy</title>
<polygon fill="white" stroke="none" points="-4,4 -4,-62 316,-62 316,4 -4,4"/>
<!-- Node0 -->
<g id="node1" class="node"><title>Node0</title>
<g id="a_node1"><a xlink:href="de/d99/class_juniper_1_1_hidden_settings_accessor.html" target="_top" xlink:title="A base class for all of the Settings extender classes to gain access to helper methods that do the ha...">
<polygon fill="white" stroke="black" points="0,-19.5 0,-38.5 152,-38.5 152,-19.5 0,-19.5"/>
<text text-anchor="middle" x="76" y="-26.5" font-family="SegoeUI" font-size="10.00">Juniper.HiddenSettingsAccessor</text>
</a>
</g>
</g>
<!-- Node1 -->
<g id="node2" class="node"><title>Node1</title>
<g id="a_node2"><a xlink:href="d2/d70/class_juniper_1_1_audio_settings_ext.html" target="_top" xlink:title="A collection of extra settings that Unity doesn&#39;t expose natively.">
<polygon fill="white" stroke="black" points="189,-38.5 189,-57.5 311,-57.5 311,-38.5 189,-38.5"/>
<text text-anchor="middle" x="250" y="-45.5" font-family="SegoeUI" font-size="10.00">Juniper.AudioSettingsExt</text>
</a>
</g>
</g>
<!-- Node0&#45;&gt;Node1 -->
<g id="edge1" class="edge"><title>Node0&#45;&gt;Node1</title>
<path fill="none" stroke="midnightblue" d="M162.322,-38.4252C171.318,-39.4188 180.323,-40.4136 188.945,-41.366"/>
<polygon fill="midnightblue" stroke="midnightblue" points="162.515,-34.9253 152.191,-37.306 161.747,-41.8829 162.515,-34.9253"/>
</g>
<!-- Node2 -->
<g id="node3" class="node"><title>Node2</title>
<g id="a_node3"><a xlink:href="d6/de8/class_juniper_1_1_player_settings_ext.html" target="_top" xlink:title="A collection of extra settings that Unity doesn&#39;t expose natively.">
<polygon fill="white" stroke="black" points="188,-0.5 188,-19.5 312,-19.5 312,-0.5 188,-0.5"/>
<text text-anchor="middle" x="250" y="-7.5" font-family="SegoeUI" font-size="10.00">Juniper.PlayerSettingsExt</text>
</a>
</g>
</g>
<!-- Node0&#45;&gt;Node2 -->
<g id="edge2" class="edge"><title>Node0&#45;&gt;Node2</title>
<path fill="none" stroke="midnightblue" d="M162.305,-19.5767C170.942,-18.6227 179.589,-17.6675 187.896,-16.7499"/>
<polygon fill="midnightblue" stroke="midnightblue" points="161.747,-16.1171 152.191,-20.694 162.515,-23.0747 161.747,-16.1171"/>
</g>
</g>
</svg>
