<?xml version="1.0" encoding="UTF-8" standalone="no"?>
<!DOCTYPE svg PUBLIC "-//W3C//DTD SVG 1.1//EN"
 "http://www.w3.org/Graphics/SVG/1.1/DTD/svg11.dtd">
<!-- Generated by graphviz version 2.38.0 (20140413.2041)
 -->
<!-- Title: Graphical Class Hierarchy Pages: 1 -->
<svg width="340pt" height="39pt"
 viewBox="0.00 0.00 340.00 39.00" xmlns="http://www.w3.org/2000/svg" xmlns:xlink="http://www.w3.org/1999/xlink">
<g id="graph0" class="graph" transform="scale(1 1) rotate(0) translate(4 35)">
<title>Graphical Class Hierarchy</title>
<polygon fill="white" stroke="none" points="-4,4 -4,-35 336,-35 336,4 -4,4"/>
<!-- Node0 -->
<g id="node1" class="node"><title>Node0</title>
<g id="a_node1"><a xlink:href="d0/dd1/class_juniper_1_1_speech_1_1_azure_1_1_abstract_azure_request.html" target="_top" xlink:title=" ">
<polygon fill="white" stroke="black" points="0,-0.5 0,-30.5 164,-30.5 164,-0.5 0,-0.5"/>
<text text-anchor="start" x="8" y="-18.5" font-family="SegoeUI" font-size="10.00">Juniper.Speech.Azure.Abstract</text>
<text text-anchor="middle" x="82" y="-7.5" font-family="SegoeUI" font-size="10.00">AzureRequest&lt; MediaType.Text &gt;</text>
</a>
</g>
</g>
<!-- Node1 -->
<g id="node2" class="node"><title>Node1</title>
<g id="a_node2"><a xlink:href="d5/de2/class_juniper_1_1_speech_1_1_azure_1_1_auth_token_request.html" target="_top" xlink:title=" ">
<polygon fill="white" stroke="black" points="200,-0.5 200,-30.5 332,-30.5 332,-0.5 200,-0.5"/>
<text text-anchor="start" x="208" y="-18.5" font-family="SegoeUI" font-size="10.00">Juniper.Speech.Azure.Auth</text>
<text text-anchor="middle" x="266" y="-7.5" font-family="SegoeUI" font-size="10.00">TokenRequest</text>
</a>
</g>
</g>
<!-- Node0&#45;&gt;Node1 -->
<g id="edge1" class="edge"><title>Node0&#45;&gt;Node1</title>
<path fill="none" stroke="midnightblue" d="M174.266,-15.5C182.896,-15.5 191.522,-15.5 199.835,-15.5"/>
<polygon fill="midnightblue" stroke="midnightblue" points="174.153,-12.0001 164.153,-15.5 174.153,-19.0001 174.153,-12.0001"/>
</g>
</g>
</svg>
