<?xml version="1.0" encoding="UTF-8" standalone="no"?>
<!DOCTYPE svg PUBLIC "-//W3C//DTD SVG 1.1//EN"
 "http://www.w3.org/Graphics/SVG/1.1/DTD/svg11.dtd">
<!-- Generated by graphviz version 2.38.0 (20140413.2041)
 -->
<!-- Title: Graphical Class Hierarchy Pages: 1 -->
<svg width="369pt" height="72pt"
 viewBox="0.00 0.00 369.00 72.00" xmlns="http://www.w3.org/2000/svg" xmlns:xlink="http://www.w3.org/1999/xlink">
<g id="graph0" class="graph" transform="scale(1 1) rotate(0) translate(4 68)">
<title>Graphical Class Hierarchy</title>
<polygon fill="white" stroke="none" points="-4,4 -4,-68 365,-68 365,4 -4,4"/>
<!-- Node0 -->
<g id="node1" class="node"><title>Node0</title>
<g id="a_node1"><a xlink:href="d7/ddb/class_juniper_1_1_unity_1_1_input_1_1_pointers_1_1_motion_1_1_abstract_motion_controller.html" target="_top" xlink:title=" ">
<polygon fill="white" stroke="black" points="0,-0.5 0,-63.5 161,-63.5 161,-0.5 0,-0.5"/>
<text text-anchor="start" x="8" y="-51.5" font-family="SegoeUI" font-size="10.00">Juniper.Unity.Input.Pointers.</text>
<text text-anchor="start" x="8" y="-40.5" font-family="SegoeUI" font-size="10.00">Motion.AbstractMotionController</text>
<text text-anchor="start" x="8" y="-29.5" font-family="SegoeUI" font-size="10.00">&lt; InteractionSourceHandedness,</text>
<text text-anchor="start" x="8" y="-18.5" font-family="SegoeUI" font-size="10.00"> WindowsMRButtons, ConfigType,</text>
<text text-anchor="middle" x="80.5" y="-7.5" font-family="SegoeUI" font-size="10.00"> HapticsType &gt;</text>
</a>
</g>
</g>
<!-- Node1 -->
<g id="node2" class="node"><title>Node1</title>
<g id="a_node2"><a xlink:href="d8/d08/class_juniper_1_1_unity_1_1_input_1_1_pointers_1_1_motion_1_1_abstract_windows_m_r_device.html" target="_top" xlink:title="A motion controller or hand&#45;tracking. Currently only implements WindowsMR.">
<polygon fill="white" stroke="black" points="197,-11.5 197,-52.5 361,-52.5 361,-11.5 197,-11.5"/>
<text text-anchor="start" x="205" y="-40.5" font-family="SegoeUI" font-size="10.00">Juniper.Unity.Input.Pointers.</text>
<text text-anchor="start" x="205" y="-29.5" font-family="SegoeUI" font-size="10.00">Motion.AbstractWindowsMRDevice</text>
<text text-anchor="middle" x="279" y="-18.5" font-family="SegoeUI" font-size="10.00">&lt; ConfigType, HapticsType &gt;</text>
</a>
</g>
</g>
<!-- Node0&#45;&gt;Node1 -->
<g id="edge1" class="edge"><title>Node0&#45;&gt;Node1</title>
<path fill="none" stroke="midnightblue" d="M171.177,-32C179.774,-32 188.46,-32 196.968,-32"/>
<polygon fill="midnightblue" stroke="midnightblue" points="171.141,-28.5001 161.141,-32 171.141,-35.5001 171.141,-28.5001"/>
</g>
</g>
</svg>
