<?xml version="1.0" encoding="UTF-8" standalone="no"?>
<!DOCTYPE svg PUBLIC "-//W3C//DTD SVG 1.1//EN"
 "http://www.w3.org/Graphics/SVG/1.1/DTD/svg11.dtd">
<!-- Generated by graphviz version 2.38.0 (20140413.2041)
 -->
<!-- Title: Graphical Class Hierarchy Pages: 1 -->
<svg width="336pt" height="137pt"
 viewBox="0.00 0.00 336.00 137.00" xmlns="http://www.w3.org/2000/svg" xmlns:xlink="http://www.w3.org/1999/xlink">
<g id="graph0" class="graph" transform="scale(1 1) rotate(0) translate(4 133)">
<title>Graphical Class Hierarchy</title>
<polygon fill="white" stroke="none" points="-4,4 -4,-133 332,-133 332,4 -4,4"/>
<!-- Node695 -->
<g id="node1" class="node"><title>Node695</title>
<g id="a_node1"><a xlink:href="da/d97/interface_juniper_1_1_i_o_1_1_i_content_handler.html" target="_top" xlink:title=" ">
<polygon fill="white" stroke="black" points="0,-98.5 0,-128.5 132,-128.5 132,-98.5 0,-98.5"/>
<text text-anchor="start" x="8" y="-116.5" font-family="SegoeUI" font-size="10.00">Juniper.IO.IContentHandler</text>
<text text-anchor="middle" x="66" y="-105.5" font-family="SegoeUI" font-size="10.00">&lt; MediaTypeT &gt;</text>
</a>
</g>
</g>
<!-- Node1 -->
<g id="node2" class="node"><title>Node1</title>
<g id="a_node2"><a xlink:href="da/df2/interface_juniper_1_1_i_o_1_1_i_factory.html" target="_top" xlink:title=" ">
<polygon fill="white" stroke="black" points="168,-49.5 168,-79.5 328,-79.5 328,-49.5 168,-49.5"/>
<text text-anchor="start" x="176" y="-67.5" font-family="SegoeUI" font-size="10.00">Juniper.IO.IFactory</text>
<text text-anchor="middle" x="248" y="-56.5" font-family="SegoeUI" font-size="10.00">&lt; ResultT, out out MediaTypeT &gt;</text>
</a>
</g>
</g>
<!-- Node695&#45;&gt;Node1 -->
<g id="edge1" class="edge"><title>Node695&#45;&gt;Node1</title>
<path fill="none" stroke="midnightblue" d="M132.198,-95.7515C151.707,-90.4409 172.902,-84.6712 191.708,-79.5516"/>
<polygon fill="midnightblue" stroke="midnightblue" points="131.204,-92.3947 122.475,-98.3986 133.043,-99.149 131.204,-92.3947"/>
</g>
<!-- Node684 -->
<g id="node3" class="node"><title>Node684</title>
<g id="a_node3"><a xlink:href="d1/d4d/interface_juniper_1_1_i_o_1_1_i_deserializer.html" target="_top" xlink:title=" ">
<polygon fill="white" stroke="black" points="8,-49.5 8,-79.5 124,-79.5 124,-49.5 8,-49.5"/>
<text text-anchor="start" x="16" y="-67.5" font-family="SegoeUI" font-size="10.00">Juniper.IO.IDeserializer</text>
<text text-anchor="middle" x="66" y="-56.5" font-family="SegoeUI" font-size="10.00">&lt; ResultT &gt;</text>
</a>
</g>
</g>
<!-- Node684&#45;&gt;Node1 -->
<g id="edge2" class="edge"><title>Node684&#45;&gt;Node1</title>
<path fill="none" stroke="midnightblue" d="M134.65,-64.5C145.461,-64.5 156.731,-64.5 167.781,-64.5"/>
<polygon fill="midnightblue" stroke="midnightblue" points="134.448,-61.0001 124.448,-64.5 134.448,-68.0001 134.448,-61.0001"/>
</g>
<!-- Node0 -->
<g id="node4" class="node"><title>Node0</title>
<g id="a_node4"><a xlink:href="de/d17/interface_juniper_1_1_i_o_1_1_i_serializer.html" target="_top" xlink:title=" ">
<polygon fill="white" stroke="black" points="12.5,-0.5 12.5,-30.5 119.5,-30.5 119.5,-0.5 12.5,-0.5"/>
<text text-anchor="start" x="20.5" y="-18.5" font-family="SegoeUI" font-size="10.00">Juniper.IO.ISerializer</text>
<text text-anchor="middle" x="66" y="-7.5" font-family="SegoeUI" font-size="10.00">&lt; ResultT &gt;</text>
</a>
</g>
</g>
<!-- Node0&#45;&gt;Node1 -->
<g id="edge3" class="edge"><title>Node0&#45;&gt;Node1</title>
<path fill="none" stroke="midnightblue" d="M129.344,-32.4714C149.684,-38.0083 172.111,-44.1134 191.881,-49.4954"/>
<polygon fill="midnightblue" stroke="midnightblue" points="130.116,-29.0542 119.547,-29.8046 128.277,-35.8084 130.116,-29.0542"/>
</g>
</g>
</svg>
