<?xml version="1.0" encoding="UTF-8" standalone="no"?>
<!DOCTYPE svg PUBLIC "-//W3C//DTD SVG 1.1//EN"
 "http://www.w3.org/Graphics/SVG/1.1/DTD/svg11.dtd">
<!-- Generated by graphviz version 2.38.0 (20140413.2041)
 -->
<!-- Title: Graphical Class Hierarchy Pages: 1 -->
<svg width="576pt" height="61pt"
 viewBox="0.00 0.00 576.00 61.00" xmlns="http://www.w3.org/2000/svg" xmlns:xlink="http://www.w3.org/1999/xlink">
<g id="graph0" class="graph" transform="scale(1 1) rotate(0) translate(4 57)">
<title>Graphical Class Hierarchy</title>
<polygon fill="white" stroke="none" points="-4,4 -4,-57 572,-57 572,4 -4,4"/>
<!-- Node0 -->
<g id="node1" class="node"><title>Node0</title>
<g id="a_node1"><a xlink:href="d7/ddb/class_juniper_1_1_unity_1_1_input_1_1_pointers_1_1_motion_1_1_abstract_motion_controller.html" target="_top" xlink:title=" ">
<polygon fill="white" stroke="black" points="0,-0.5 0,-52.5 197,-52.5 197,-0.5 0,-0.5"/>
<text text-anchor="start" x="8" y="-40.5" font-family="SegoeUI" font-size="10.00">Juniper.Unity.Input.Pointers.</text>
<text text-anchor="start" x="8" y="-29.5" font-family="SegoeUI" font-size="10.00">Motion.AbstractMotionController</text>
<text text-anchor="start" x="8" y="-18.5" font-family="SegoeUI" font-size="10.00">&lt; GvrControllerHand, GvrControllerButton,</text>
<text text-anchor="middle" x="98.5" y="-7.5" font-family="SegoeUI" font-size="10.00"> DaydreamPointerConfiguration &gt;</text>
</a>
</g>
</g>
<!-- Node1 -->
<g id="node2" class="node"><title>Node1</title>
<g id="a_node2"><a xlink:href="d1/d9f/class_juniper_1_1_unity_1_1_input_1_1_pointers_1_1_motion_1_1_daydream_motion_controller.html" target="_top" xlink:title=" ">
<polygon fill="white" stroke="black" points="233,-11.5 233,-41.5 395,-41.5 395,-11.5 233,-11.5"/>
<text text-anchor="start" x="241" y="-29.5" font-family="SegoeUI" font-size="10.00">Juniper.Unity.Input.Pointers.</text>
<text text-anchor="middle" x="314" y="-18.5" font-family="SegoeUI" font-size="10.00">Motion.DaydreamMotionController</text>
</a>
</g>
</g>
<!-- Node0&#45;&gt;Node1 -->
<g id="edge1" class="edge"><title>Node0&#45;&gt;Node1</title>
<path fill="none" stroke="midnightblue" d="M207.311,-26.5C215.94,-26.5 224.561,-26.5 232.946,-26.5"/>
<polygon fill="midnightblue" stroke="midnightblue" points="207.19,-23.0001 197.19,-26.5 207.19,-30.0001 207.19,-23.0001"/>
</g>
<!-- Node2 -->
<g id="node3" class="node"><title>Node2</title>
<g id="a_node3"><a xlink:href="d7/d8f/class_juniper_1_1_unity_1_1_input_1_1_pointers_1_1_motion_1_1_motion_controller.html" target="_top" xlink:title=" ">
<polygon fill="white" stroke="black" points="431,-11.5 431,-41.5 568,-41.5 568,-11.5 431,-11.5"/>
<text text-anchor="start" x="439" y="-29.5" font-family="SegoeUI" font-size="10.00">Juniper.Unity.Input.Pointers.</text>
<text text-anchor="middle" x="499.5" y="-18.5" font-family="SegoeUI" font-size="10.00">Motion.MotionController</text>
</a>
</g>
</g>
<!-- Node1&#45;&gt;Node2 -->
<g id="edge2" class="edge"><title>Node1&#45;&gt;Node2</title>
<path fill="none" stroke="midnightblue" d="M405.271,-26.5C413.857,-26.5 422.46,-26.5 430.779,-26.5"/>
<polygon fill="midnightblue" stroke="midnightblue" points="405.219,-23.0001 395.219,-26.5 405.219,-30.0001 405.219,-23.0001"/>
</g>
</g>
</svg>
