<?xml version="1.0" encoding="UTF-8" standalone="no"?>
<!DOCTYPE svg PUBLIC "-//W3C//DTD SVG 1.1//EN"
 "http://www.w3.org/Graphics/SVG/1.1/DTD/svg11.dtd">
<!-- Generated by graphviz version 2.38.0 (20140413.2041)
 -->
<!-- Title: Graphical Class Hierarchy Pages: 1 -->
<svg width="488pt" height="186pt"
 viewBox="0.00 0.00 488.00 186.00" xmlns="http://www.w3.org/2000/svg" xmlns:xlink="http://www.w3.org/1999/xlink">
<g id="graph0" class="graph" transform="scale(1 1) rotate(0) translate(4 182)">
<title>Graphical Class Hierarchy</title>
<polygon fill="white" stroke="none" points="-4,4 -4,-182 484,-182 484,4 -4,4"/>
<!-- Node0 -->
<g id="node1" class="node"><title>Node0</title>
<g id="a_node1"><a xlink:href="dd/dd9/interface_juniper_1_1_logic_1_1_i_expression.html" target="_top" xlink:title=" ">
<polygon fill="white" stroke="black" points="0,-49.5 0,-79.5 124,-79.5 124,-49.5 0,-49.5"/>
<text text-anchor="start" x="8" y="-67.5" font-family="SegoeUI" font-size="10.00">Juniper.Logic.IExpression</text>
<text text-anchor="middle" x="62" y="-56.5" font-family="SegoeUI" font-size="10.00">&lt; ItemT &gt;</text>
</a>
</g>
</g>
<!-- Node1 -->
<g id="node2" class="node"><title>Node1</title>
<g id="a_node2"><a xlink:href="d6/df2/class_juniper_1_1_logic_1_1_abstract_binary_expression.html" target="_top" xlink:title=" ">
<polygon fill="white" stroke="black" points="165,-98.5 165,-128.5 302,-128.5 302,-98.5 165,-98.5"/>
<text text-anchor="start" x="173" y="-116.5" font-family="SegoeUI" font-size="10.00">Juniper.Logic.AbstractBinary</text>
<text text-anchor="middle" x="233.5" y="-105.5" font-family="SegoeUI" font-size="10.00">Expression&lt; ItemT &gt;</text>
</a>
</g>
</g>
<!-- Node0&#45;&gt;Node1 -->
<g id="edge1" class="edge"><title>Node0&#45;&gt;Node1</title>
<path fill="none" stroke="midnightblue" d="M124.899,-82.3941C143.13,-87.6644 162.886,-93.3755 180.434,-98.4484"/>
<polygon fill="midnightblue" stroke="midnightblue" points="125.817,-79.0163 115.239,-79.6014 123.873,-85.741 125.817,-79.0163"/>
</g>
<!-- Node5 -->
<g id="node6" class="node"><title>Node5</title>
<g id="a_node6"><a xlink:href="dd/d72/class_juniper_1_1_logic_1_1_abstract_unary_expression.html" target="_top" xlink:title=" ">
<polygon fill="white" stroke="black" points="162,-49.5 162,-79.5 305,-79.5 305,-49.5 162,-49.5"/>
<text text-anchor="start" x="170" y="-67.5" font-family="SegoeUI" font-size="10.00">Juniper.Logic.AbstractUnary</text>
<text text-anchor="middle" x="233.5" y="-56.5" font-family="SegoeUI" font-size="10.00">Expression&lt; ItemT, ValueT &gt;</text>
</a>
</g>
</g>
<!-- Node0&#45;&gt;Node5 -->
<g id="edge5" class="edge"><title>Node0&#45;&gt;Node5</title>
<path fill="none" stroke="midnightblue" d="M134.364,-64.5C143.473,-64.5 152.793,-64.5 161.89,-64.5"/>
<polygon fill="midnightblue" stroke="midnightblue" points="134.193,-61.0001 124.193,-64.5 134.193,-68.0001 134.193,-61.0001"/>
</g>
<!-- Node6 -->
<g id="node7" class="node"><title>Node6</title>
<g id="a_node7"><a xlink:href="d0/dea/class_juniper_1_1_logic_1_1_empty_expression.html" target="_top" xlink:title=" ">
<polygon fill="white" stroke="black" points="160,-0.5 160,-30.5 307,-30.5 307,-0.5 160,-0.5"/>
<text text-anchor="start" x="168" y="-18.5" font-family="SegoeUI" font-size="10.00">Juniper.Logic.EmptyExpression</text>
<text text-anchor="middle" x="233.5" y="-7.5" font-family="SegoeUI" font-size="10.00">&lt; ItemT &gt;</text>
</a>
</g>
</g>
<!-- Node0&#45;&gt;Node6 -->
<g id="edge6" class="edge"><title>Node0&#45;&gt;Node6</title>
<path fill="none" stroke="midnightblue" d="M124.899,-46.6059C143.13,-41.3356 162.886,-35.6245 180.434,-30.5516"/>
<polygon fill="midnightblue" stroke="midnightblue" points="123.873,-43.259 115.239,-49.3986 125.817,-49.9837 123.873,-43.259"/>
</g>
<!-- Node2 -->
<g id="node3" class="node"><title>Node2</title>
<g id="a_node3"><a xlink:href="df/d14/class_juniper_1_1_logic_1_1_and_expression.html" target="_top" xlink:title=" ">
<polygon fill="white" stroke="black" points="343,-147.5 343,-177.5 480,-177.5 480,-147.5 343,-147.5"/>
<text text-anchor="start" x="351" y="-165.5" font-family="SegoeUI" font-size="10.00">Juniper.Logic.AndExpression</text>
<text text-anchor="middle" x="411.5" y="-154.5" font-family="SegoeUI" font-size="10.00">&lt; ItemT &gt;</text>
</a>
</g>
</g>
<!-- Node1&#45;&gt;Node2 -->
<g id="edge2" class="edge"><title>Node1&#45;&gt;Node2</title>
<path fill="none" stroke="midnightblue" d="M298.511,-131.321C317.514,-136.612 338.132,-142.352 356.437,-147.448"/>
<polygon fill="midnightblue" stroke="midnightblue" points="299.314,-127.912 288.742,-128.601 297.437,-134.655 299.314,-127.912"/>
</g>
<!-- Node3 -->
<g id="node4" class="node"><title>Node3</title>
<g id="a_node4"><a xlink:href="d2/d18/class_juniper_1_1_logic_1_1_or_expression.html" target="_top" xlink:title=" ">
<polygon fill="white" stroke="black" points="346,-98.5 346,-128.5 477,-128.5 477,-98.5 346,-98.5"/>
<text text-anchor="start" x="354" y="-116.5" font-family="SegoeUI" font-size="10.00">Juniper.Logic.OrExpression</text>
<text text-anchor="middle" x="411.5" y="-105.5" font-family="SegoeUI" font-size="10.00">&lt; ItemT &gt;</text>
</a>
</g>
</g>
<!-- Node1&#45;&gt;Node3 -->
<g id="edge3" class="edge"><title>Node1&#45;&gt;Node3</title>
<path fill="none" stroke="midnightblue" d="M312.236,-113.5C323.427,-113.5 334.842,-113.5 345.745,-113.5"/>
<polygon fill="midnightblue" stroke="midnightblue" points="312.043,-110 302.043,-113.5 312.043,-117 312.043,-110"/>
</g>
<!-- Node4 -->
<g id="node5" class="node"><title>Node4</title>
<g id="a_node5"><a xlink:href="d9/dbd/class_juniper_1_1_logic_1_1_xor_expression.html" target="_top" xlink:title=" ">
<polygon fill="white" stroke="black" points="343.5,-49.5 343.5,-79.5 479.5,-79.5 479.5,-49.5 343.5,-49.5"/>
<text text-anchor="start" x="351.5" y="-67.5" font-family="SegoeUI" font-size="10.00">Juniper.Logic.XorExpression</text>
<text text-anchor="middle" x="411.5" y="-56.5" font-family="SegoeUI" font-size="10.00">&lt; ItemT &gt;</text>
</a>
</g>
</g>
<!-- Node1&#45;&gt;Node4 -->
<g id="edge4" class="edge"><title>Node1&#45;&gt;Node4</title>
<path fill="none" stroke="midnightblue" d="M298.511,-95.6788C317.514,-90.3882 338.132,-84.6478 356.437,-79.5516"/>
<polygon fill="midnightblue" stroke="midnightblue" points="297.437,-92.3446 288.742,-98.3986 299.314,-99.0882 297.437,-92.3446"/>
</g>
</g>
</svg>
