<?xml version="1.0" encoding="UTF-8" standalone="no"?>
<!DOCTYPE svg PUBLIC "-//W3C//DTD SVG 1.1//EN"
 "http://www.w3.org/Graphics/SVG/1.1/DTD/svg11.dtd">
<!-- Generated by graphviz version 2.38.0 (20140413.2041)
 -->
<!-- Title: Graphical Class Hierarchy Pages: 1 -->
<svg width="359pt" height="39pt"
 viewBox="0.00 0.00 359.00 39.00" xmlns="http://www.w3.org/2000/svg" xmlns:xlink="http://www.w3.org/1999/xlink">
<g id="graph0" class="graph" transform="scale(1 1) rotate(0) translate(4 35)">
<title>Graphical Class Hierarchy</title>
<polygon fill="white" stroke="none" points="-4,4 -4,-35 355,-35 355,4 -4,4"/>
<!-- Node0 -->
<g id="node1" class="node"><title>Node0</title>
<g id="a_node1"><a xlink:href="da/daf/class_juniper_1_1_anchoring_1_1_abstract_anchor_store.html" target="_top" xlink:title=" ">
<polygon fill="white" stroke="black" points="0,-0.5 0,-30.5 167,-30.5 167,-0.5 0,-0.5"/>
<text text-anchor="start" x="8" y="-18.5" font-family="SegoeUI" font-size="10.00">Juniper.Anchoring.Abstract</text>
<text text-anchor="middle" x="83.5" y="-7.5" font-family="SegoeUI" font-size="10.00">AnchorStore&lt; MockWorldAnchor &gt;</text>
</a>
</g>
</g>
<!-- Node1 -->
<g id="node2" class="node"><title>Node1</title>
<g id="a_node2"><a xlink:href="d9/d25/class_juniper_1_1_anchoring_1_1_mock_anchor_store.html" target="_top" xlink:title="An anchor store that stores all anchors in the default data store for AbstractAnchorStore.">
<polygon fill="white" stroke="black" points="203,-0.5 203,-30.5 351,-30.5 351,-0.5 203,-0.5"/>
<text text-anchor="start" x="211" y="-18.5" font-family="SegoeUI" font-size="10.00">Juniper.Anchoring.MockAnchor</text>
<text text-anchor="middle" x="277" y="-7.5" font-family="SegoeUI" font-size="10.00">Store</text>
</a>
</g>
</g>
<!-- Node0&#45;&gt;Node1 -->
<g id="edge1" class="edge"><title>Node0&#45;&gt;Node1</title>
<path fill="none" stroke="midnightblue" d="M177.144,-15.5C185.725,-15.5 194.34,-15.5 202.711,-15.5"/>
<polygon fill="midnightblue" stroke="midnightblue" points="177.103,-12.0001 167.103,-15.5 177.103,-19.0001 177.103,-12.0001"/>
</g>
</g>
</svg>
