<?xml version="1.0" encoding="UTF-8" standalone="no"?>
<!DOCTYPE svg PUBLIC "-//W3C//DTD SVG 1.1//EN"
 "http://www.w3.org/Graphics/SVG/1.1/DTD/svg11.dtd">
<!-- Generated by graphviz version 2.38.0 (20140413.2041)
 -->
<!-- Title: Graphical Class Hierarchy Pages: 1 -->
<svg width="278pt" height="39pt"
 viewBox="0.00 0.00 278.00 39.00" xmlns="http://www.w3.org/2000/svg" xmlns:xlink="http://www.w3.org/1999/xlink">
<g id="graph0" class="graph" transform="scale(1 1) rotate(0) translate(4 35)">
<title>Graphical Class Hierarchy</title>
<polygon fill="white" stroke="none" points="-4,4 -4,-35 274,-35 274,4 -4,4"/>
<!-- Node0 -->
<g id="node1" class="node"><title>Node0</title>
<g id="a_node1"><a xlink:href="df/d96/class_juniper_1_1_event_args.html" target="_top" xlink:title=" ">
<polygon fill="white" stroke="black" points="0,-0.5 0,-30.5 100,-30.5 100,-0.5 0,-0.5"/>
<text text-anchor="start" x="8" y="-18.5" font-family="SegoeUI" font-size="10.00">Juniper.EventArgs&lt;</text>
<text text-anchor="middle" x="50" y="-7.5" font-family="SegoeUI" font-size="10.00"> DataMessage &gt;</text>
</a>
</g>
</g>
<!-- Node1 -->
<g id="node2" class="node"><title>Node1</title>
<g id="a_node2"><a xlink:href="db/d61/class_juniper_1_1_h_t_t_p_1_1_data_message_event_args.html" target="_top" xlink:title=" ">
<polygon fill="white" stroke="black" points="136,-0.5 136,-30.5 270,-30.5 270,-0.5 136,-0.5"/>
<text text-anchor="start" x="144" y="-18.5" font-family="SegoeUI" font-size="10.00">Juniper.HTTP.DataMessage</text>
<text text-anchor="middle" x="203" y="-7.5" font-family="SegoeUI" font-size="10.00">EventArgs</text>
</a>
</g>
</g>
<!-- Node0&#45;&gt;Node1 -->
<g id="edge1" class="edge"><title>Node0&#45;&gt;Node1</title>
<path fill="none" stroke="midnightblue" d="M110.161,-15.5C118.611,-15.5 127.348,-15.5 135.921,-15.5"/>
<polygon fill="midnightblue" stroke="midnightblue" points="110.025,-12.0001 100.025,-15.5 110.025,-19.0001 110.025,-12.0001"/>
</g>
</g>
</svg>
