<?xml version="1.0" encoding="UTF-8" standalone="no"?>
<!DOCTYPE svg PUBLIC "-//W3C//DTD SVG 1.1//EN"
 "http://www.w3.org/Graphics/SVG/1.1/DTD/svg11.dtd">
<!-- Generated by graphviz version 2.38.0 (20140413.2041)
 -->
<!-- Title: Graphical Class Hierarchy Pages: 1 -->
<svg width="311pt" height="50pt"
 viewBox="0.00 0.00 311.00 50.00" xmlns="http://www.w3.org/2000/svg" xmlns:xlink="http://www.w3.org/1999/xlink">
<g id="graph0" class="graph" transform="scale(1 1) rotate(0) translate(4 46)">
<title>Graphical Class Hierarchy</title>
<polygon fill="white" stroke="none" points="-4,4 -4,-46 307,-46 307,4 -4,4"/>
<!-- Node0 -->
<g id="node1" class="node"><title>Node0</title>
<g id="a_node1"><a xlink:href="d3/d6c/class_juniper_1_1_world_1_1_g_i_s_1_1_google_1_1_abstract_google_maps_request.html" target="_top" xlink:title=" ">
<polygon fill="white" stroke="black" points="0,-0.5 0,-41.5 138,-41.5 138,-0.5 0,-0.5"/>
<text text-anchor="start" x="8" y="-29.5" font-family="SegoeUI" font-size="10.00">Juniper.World.GIS.Google.</text>
<text text-anchor="start" x="8" y="-18.5" font-family="SegoeUI" font-size="10.00">AbstractGoogleMapsRequest</text>
<text text-anchor="middle" x="69" y="-7.5" font-family="SegoeUI" font-size="10.00">&lt; MediaType.Image &gt;</text>
</a>
</g>
</g>
<!-- Node1 -->
<g id="node2" class="node"><title>Node1</title>
<g id="a_node2"><a xlink:href="d4/d6f/class_juniper_1_1_world_1_1_g_i_s_1_1_google_1_1_map_tiles_1_1_tile_request.html" target="_top" xlink:title=" ">
<polygon fill="white" stroke="black" points="174,-6 174,-36 303,-36 303,-6 174,-6"/>
<text text-anchor="start" x="182" y="-24" font-family="SegoeUI" font-size="10.00">Juniper.World.GIS.Google.</text>
<text text-anchor="middle" x="238.5" y="-13" font-family="SegoeUI" font-size="10.00">MapTiles.TileRequest</text>
</a>
</g>
</g>
<!-- Node0&#45;&gt;Node1 -->
<g id="edge1" class="edge"><title>Node0&#45;&gt;Node1</title>
<path fill="none" stroke="midnightblue" d="M148.143,-21C156.723,-21 165.382,-21 173.757,-21"/>
<polygon fill="midnightblue" stroke="midnightblue" points="148.129,-17.5001 138.129,-21 148.129,-24.5001 148.129,-17.5001"/>
</g>
</g>
</svg>
