<?xml version="1.0" encoding="UTF-8" standalone="no"?>
<!DOCTYPE svg PUBLIC "-//W3C//DTD SVG 1.1//EN"
 "http://www.w3.org/Graphics/SVG/1.1/DTD/svg11.dtd">
<!-- Generated by graphviz version 2.38.0 (20140413.2041)
 -->
<!-- Title: Graphical Class Hierarchy Pages: 1 -->
<svg width="366pt" height="204pt"
 viewBox="0.00 0.00 366.00 203.50" xmlns="http://www.w3.org/2000/svg" xmlns:xlink="http://www.w3.org/1999/xlink">
<g id="graph0" class="graph" transform="scale(1 1) rotate(0) translate(4 199.5)">
<title>Graphical Class Hierarchy</title>
<polygon fill="white" stroke="none" points="-4,4 -4,-199.5 362,-199.5 362,4 -4,4"/>
<!-- Node543 -->
<g id="node1" class="node"><title>Node543</title>
<g id="a_node1"><a xlink:href="d1/d7a/interface_juniper_1_1_logging_1_1_i_error_destination.html" target="_top" xlink:title=" ">
<polygon fill="white" stroke="black" points="0,-176 0,-195 158,-195 158,-176 0,-176"/>
<text text-anchor="middle" x="79" y="-183" font-family="SegoeUI" font-size="10.00">Juniper.Logging.IErrorDestination</text>
</a>
</g>
</g>
<!-- Node1 -->
<g id="node2" class="node"><title>Node1</title>
<g id="a_node2"><a xlink:href="d7/d8f/class_juniper_1_1_console_1_1_console_command_processor.html" target="_top" xlink:title=" ">
<polygon fill="white" stroke="black" points="194,-88.5 194,-118.5 358,-118.5 358,-88.5 194,-88.5"/>
<text text-anchor="start" x="202" y="-106.5" font-family="SegoeUI" font-size="10.00">Juniper.Console.ConsoleCommand</text>
<text text-anchor="middle" x="276" y="-95.5" font-family="SegoeUI" font-size="10.00">Processor</text>
</a>
</g>
</g>
<!-- Node543&#45;&gt;Node1 -->
<g id="edge1" class="edge"><title>Node543&#45;&gt;Node1</title>
<path fill="none" stroke="midnightblue" d="M137.715,-173.208C144.632,-171.218 151.53,-168.983 158,-166.5 191.815,-153.523 228.159,-132.768 251.212,-118.656"/>
<polygon fill="midnightblue" stroke="midnightblue" points="136.349,-169.952 127.615,-175.948 138.183,-176.707 136.349,-169.952"/>
</g>
<!-- Node487 -->
<g id="node3" class="node"><title>Node487</title>
<g id="a_node3"><a xlink:href="d0/dcc/interface_juniper_1_1_logging_1_1_i_info_destination.html" target="_top" xlink:title=" ">
<polygon fill="white" stroke="black" points="2.5,-138 2.5,-157 155.5,-157 155.5,-138 2.5,-138"/>
<text text-anchor="middle" x="79" y="-145" font-family="SegoeUI" font-size="10.00">Juniper.Logging.IInfoDestination</text>
</a>
</g>
</g>
<!-- Node487&#45;&gt;Node1 -->
<g id="edge2" class="edge"><title>Node487&#45;&gt;Node1</title>
<path fill="none" stroke="midnightblue" d="M132.354,-135.687C155.682,-130.423 183.435,-124.161 208.233,-118.565"/>
<polygon fill="midnightblue" stroke="midnightblue" points="131.296,-132.337 122.312,-137.953 132.837,-139.166 131.296,-132.337"/>
</g>
<!-- Node459 -->
<g id="node4" class="node"><title>Node459</title>
<g id="a_node4"><a xlink:href="d3/dea/interface_juniper_1_1_logging_1_1_i_n_c_s_a_log_destination.html" target="_top" xlink:title=" ">
<polygon fill="white" stroke="black" points="15,-88.5 15,-118.5 143,-118.5 143,-88.5 15,-88.5"/>
<text text-anchor="start" x="23" y="-106.5" font-family="SegoeUI" font-size="10.00">Juniper.Logging.INCSALog</text>
<text text-anchor="middle" x="79" y="-95.5" font-family="SegoeUI" font-size="10.00">Destination</text>
</a>
</g>
</g>
<!-- Node459&#45;&gt;Node1 -->
<g id="edge3" class="edge"><title>Node459&#45;&gt;Node1</title>
<path fill="none" stroke="midnightblue" d="M153.425,-103.5C166.563,-103.5 180.323,-103.5 193.668,-103.5"/>
<polygon fill="midnightblue" stroke="midnightblue" points="153.042,-100 143.042,-103.5 153.042,-107 153.042,-100"/>
</g>
<!-- Node439 -->
<g id="node5" class="node"><title>Node439</title>
<g id="a_node5"><a xlink:title=" ">
<polygon fill="white" stroke="#bfbfbf" points="28,-50 28,-69 130,-69 130,-50 28,-50"/>
<text text-anchor="middle" x="79" y="-57" font-family="SegoeUI" font-size="10.00">IReadOnlyDictionary</text>
</a>
</g>
</g>
<!-- Node439&#45;&gt;Node1 -->
<g id="edge4" class="edge"><title>Node439&#45;&gt;Node1</title>
<path fill="none" stroke="midnightblue" d="M132.354,-71.3132C155.682,-76.5769 183.435,-82.8391 208.233,-88.4346"/>
<polygon fill="midnightblue" stroke="midnightblue" points="132.837,-67.8343 122.312,-69.0473 131.296,-74.6627 132.837,-67.8343"/>
</g>
<!-- Node0 -->
<g id="node6" class="node"><title>Node0</title>
<g id="a_node6"><a xlink:href="d3/dff/interface_juniper_1_1_logging_1_1_i_warning_destination.html" target="_top" xlink:title=" ">
<polygon fill="white" stroke="black" points="16.5,-0.5 16.5,-30.5 141.5,-30.5 141.5,-0.5 16.5,-0.5"/>
<text text-anchor="start" x="24.5" y="-18.5" font-family="SegoeUI" font-size="10.00">Juniper.Logging.IWarning</text>
<text text-anchor="middle" x="79" y="-7.5" font-family="SegoeUI" font-size="10.00">Destination</text>
</a>
</g>
</g>
<!-- Node0&#45;&gt;Node1 -->
<g id="edge5" class="edge"><title>Node0&#45;&gt;Node1</title>
<path fill="none" stroke="midnightblue" d="M141.286,-33.9541C146.987,-36.0266 152.635,-38.2185 158,-40.5 190.907,-54.4927 226.857,-74.6364 250.102,-88.3531"/>
<polygon fill="midnightblue" stroke="midnightblue" points="142.274,-30.5918 131.679,-30.5841 139.957,-37.1971 142.274,-30.5918"/>
</g>
</g>
</svg>
