<?xml version="1.0" encoding="UTF-8" standalone="no"?>
<!DOCTYPE svg PUBLIC "-//W3C//DTD SVG 1.1//EN"
 "http://www.w3.org/Graphics/SVG/1.1/DTD/svg11.dtd">
<!-- Generated by graphviz version 2.38.0 (20140413.2041)
 -->
<!-- Title: Graphical Class Hierarchy Pages: 1 -->
<svg width="286pt" height="627pt"
 viewBox="0.00 0.00 286.00 627.00" xmlns="http://www.w3.org/2000/svg" xmlns:xlink="http://www.w3.org/1999/xlink">
<g id="graph0" class="graph" transform="scale(1 1) rotate(0) translate(4 623)">
<title>Graphical Class Hierarchy</title>
<polygon fill="white" stroke="none" points="-4,4 -4,-623 282,-623 282,4 -4,4"/>
<!-- Node10 -->
<g id="node1" class="node"><title>Node10</title>
<g id="a_node1"><a xlink:title=" ">
<polygon fill="white" stroke="#bfbfbf" points="0,-300 0,-319 61,-319 61,-300 0,-300"/>
<text text-anchor="middle" x="30.5" y="-307" font-family="SegoeUI" font-size="10.00">UnityEvent</text>
</a>
</g>
</g>
<!-- Node0 -->
<g id="node2" class="node"><title>Node0</title>
<g id="a_node2"><a xlink:href="d1/da4/class_juniper_1_1_unity_1_1_display_1_1_abstract_display_manager_1_1_a_r_mode_event.html" target="_top" xlink:title=" ">
<polygon fill="white" stroke="black" points="114.5,-588.5 114.5,-618.5 260.5,-618.5 260.5,-588.5 114.5,-588.5"/>
<text text-anchor="start" x="122.5" y="-606.5" font-family="SegoeUI" font-size="10.00">Juniper.Unity.Display.Abstract</text>
<text text-anchor="middle" x="187.5" y="-595.5" font-family="SegoeUI" font-size="10.00">DisplayManager.ARModeEvent</text>
</a>
</g>
</g>
<!-- Node10&#45;&gt;Node0 -->
<g id="edge1" class="edge"><title>Node10&#45;&gt;Node0</title>
<path fill="none" stroke="midnightblue" d="M33.6986,-329.36C40.2988,-385.45 61.6936,-543.336 97,-579.5 101.945,-584.565 107.834,-588.598 114.196,-591.804"/>
<polygon fill="midnightblue" stroke="midnightblue" points="37.1605,-328.826 32.5454,-319.29 30.206,-329.623 37.1605,-328.826"/>
</g>
<!-- Node12 -->
<g id="node3" class="node"><title>Node12</title>
<g id="a_node3"><a xlink:href="df/dc4/class_juniper_1_1_unity_1_1_display_1_1_abstract_display_manager_1_1_display_type_event.html" target="_top" xlink:title=" ">
<polygon fill="white" stroke="black" points="107,-539.5 107,-569.5 268,-569.5 268,-539.5 107,-539.5"/>
<text text-anchor="start" x="115" y="-557.5" font-family="SegoeUI" font-size="10.00">Juniper.Unity.Display.Abstract</text>
<text text-anchor="middle" x="187.5" y="-546.5" font-family="SegoeUI" font-size="10.00">DisplayManager.DisplayTypeEvent</text>
</a>
</g>
</g>
<!-- Node10&#45;&gt;Node12 -->
<g id="edge2" class="edge"><title>Node10&#45;&gt;Node12</title>
<path fill="none" stroke="midnightblue" d="M31.3144,-329.371C32.0373,-372.444 40.0226,-474.993 97,-530.5 100.457,-533.868 104.333,-536.776 108.482,-539.285"/>
<polygon fill="midnightblue" stroke="midnightblue" points="34.8132,-329.089 31.2665,-319.105 27.8133,-329.122 34.8132,-329.089"/>
</g>
<!-- Node13 -->
<g id="node4" class="node"><title>Node13</title>
<g id="a_node4"><a xlink:href="d0/d0e/class_juniper_1_1_unity_1_1_events_1_1_pointer_event.html" target="_top" xlink:title=" ">
<polygon fill="white" stroke="black" points="120,-490.5 120,-520.5 255,-520.5 255,-490.5 120,-490.5"/>
<text text-anchor="start" x="128" y="-508.5" font-family="SegoeUI" font-size="10.00">Juniper.Unity.Events.Pointer</text>
<text text-anchor="middle" x="187.5" y="-497.5" font-family="SegoeUI" font-size="10.00">Event</text>
</a>
</g>
</g>
<!-- Node10&#45;&gt;Node13 -->
<g id="edge3" class="edge"><title>Node10&#45;&gt;Node13</title>
<path fill="none" stroke="midnightblue" d="M33.3042,-329.565C37.6273,-365.464 51.8475,-440.728 97,-481.5 103.567,-487.43 111.443,-491.919 119.763,-495.314"/>
<polygon fill="midnightblue" stroke="midnightblue" points="36.7597,-328.961 32.2217,-319.387 29.7989,-329.701 36.7597,-328.961"/>
</g>
<!-- Node14 -->
<g id="node5" class="node"><title>Node14</title>
<g id="a_node5"><a xlink:href="d8/d62/class_juniper_1_1_unity_1_1_input_1_1_abstract_unified_input_module_1_1_pointer_found_event.html" target="_top" xlink:title=" ">
<polygon fill="white" stroke="black" points="97,-441.5 97,-471.5 278,-471.5 278,-441.5 97,-441.5"/>
<text text-anchor="start" x="105" y="-459.5" font-family="SegoeUI" font-size="10.00">Juniper.Unity.Input.Abstract</text>
<text text-anchor="middle" x="187.5" y="-448.5" font-family="SegoeUI" font-size="10.00">UnifiedInputModule.PointerFoundEvent</text>
</a>
</g>
</g>
<!-- Node10&#45;&gt;Node14 -->
<g id="edge4" class="edge"><title>Node10&#45;&gt;Node14</title>
<path fill="none" stroke="midnightblue" d="M36.5916,-329.141C44.7058,-356.473 63.2128,-405.637 97,-432.5 101.281,-435.904 106.004,-438.827 110.976,-441.337"/>
<polygon fill="midnightblue" stroke="midnightblue" points="39.8771,-327.893 33.8168,-319.203 33.1349,-329.776 39.8771,-327.893"/>
</g>
<!-- Node15 -->
<g id="node6" class="node"><title>Node15</title>
<g id="a_node6"><a xlink:href="dc/d68/class_unity_engine_1_1_events_1_1_boolean_event.html" target="_top" xlink:title="An event that passes a boolean value as an argument.">
<polygon fill="white" stroke="black" points="120.5,-392.5 120.5,-422.5 254.5,-422.5 254.5,-392.5 120.5,-392.5"/>
<text text-anchor="start" x="128.5" y="-410.5" font-family="SegoeUI" font-size="10.00">UnityEngine.Events.Boolean</text>
<text text-anchor="middle" x="187.5" y="-399.5" font-family="SegoeUI" font-size="10.00">Event</text>
</a>
</g>
</g>
<!-- Node10&#45;&gt;Node15 -->
<g id="edge5" class="edge"><title>Node10&#45;&gt;Node15</title>
<path fill="none" stroke="midnightblue" d="M42.861,-327.53C54.4549,-344.46 73.9803,-369.256 97,-383.5 104.114,-387.902 112.03,-391.506 120.13,-394.454"/>
<polygon fill="midnightblue" stroke="midnightblue" points="45.694,-325.468 37.2641,-319.05 39.8519,-329.324 45.694,-325.468"/>
</g>
<!-- Node16 -->
<g id="node7" class="node"><title>Node16</title>
<g id="a_node7"><a xlink:href="d2/d9d/class_unity_engine_1_1_events_1_1_exception_event.html" target="_top" xlink:title="An event that passes a Transform value as an argument.">
<polygon fill="white" stroke="black" points="117.5,-343.5 117.5,-373.5 257.5,-373.5 257.5,-343.5 117.5,-343.5"/>
<text text-anchor="start" x="125.5" y="-361.5" font-family="SegoeUI" font-size="10.00">UnityEngine.Events.Exception</text>
<text text-anchor="middle" x="187.5" y="-350.5" font-family="SegoeUI" font-size="10.00">Event</text>
</a>
</g>
</g>
<!-- Node10&#45;&gt;Node16 -->
<g id="edge6" class="edge"><title>Node10&#45;&gt;Node16</title>
<path fill="none" stroke="midnightblue" d="M64.4341,-322.827C74.7788,-326.808 86.2947,-331.032 97,-334.5 106.642,-337.624 116.958,-340.663 127.033,-343.471"/>
<polygon fill="midnightblue" stroke="midnightblue" points="65.5276,-319.496 54.9396,-319.116 62.9798,-326.016 65.5276,-319.496"/>
</g>
<!-- Node17 -->
<g id="node8" class="node"><title>Node17</title>
<g id="a_node8"><a xlink:href="d2/db6/class_unity_engine_1_1_events_1_1_float_event.html" target="_top" xlink:title="An event that passes a float value as an argument.">
<polygon fill="white" stroke="black" points="127,-294.5 127,-324.5 248,-324.5 248,-294.5 127,-294.5"/>
<text text-anchor="start" x="135" y="-312.5" font-family="SegoeUI" font-size="10.00">UnityEngine.Events.Float</text>
<text text-anchor="middle" x="187.5" y="-301.5" font-family="SegoeUI" font-size="10.00">Event</text>
</a>
</g>
</g>
<!-- Node10&#45;&gt;Node17 -->
<g id="edge7" class="edge"><title>Node10&#45;&gt;Node17</title>
<path fill="none" stroke="midnightblue" d="M71.1188,-309.5C88.0723,-309.5 108.233,-309.5 126.923,-309.5"/>
<polygon fill="midnightblue" stroke="midnightblue" points="71.0192,-306 61.0192,-309.5 71.0191,-313 71.0192,-306"/>
</g>
<!-- Node18 -->
<g id="node9" class="node"><title>Node18</title>
<g id="a_node9"><a xlink:href="d6/d7f/class_unity_engine_1_1_events_1_1_game_object_event.html" target="_top" xlink:title="An event that passes a GameObject value as an argument.">
<polygon fill="white" stroke="black" points="111.5,-245.5 111.5,-275.5 263.5,-275.5 263.5,-245.5 111.5,-245.5"/>
<text text-anchor="start" x="119.5" y="-263.5" font-family="SegoeUI" font-size="10.00">UnityEngine.Events.GameObject</text>
<text text-anchor="middle" x="187.5" y="-252.5" font-family="SegoeUI" font-size="10.00">Event</text>
</a>
</g>
</g>
<!-- Node10&#45;&gt;Node18 -->
<g id="edge8" class="edge"><title>Node10&#45;&gt;Node18</title>
<path fill="none" stroke="midnightblue" d="M65.8268,-296.345C75.8227,-292.671 86.7987,-288.788 97,-285.5 107.595,-282.085 118.981,-278.695 129.961,-275.564"/>
<polygon fill="midnightblue" stroke="midnightblue" points="64.374,-293.151 56.2226,-299.918 66.8154,-299.711 64.374,-293.151"/>
</g>
<!-- Node19 -->
<g id="node10" class="node"><title>Node19</title>
<g id="a_node10"><a xlink:href="dc/d56/class_unity_engine_1_1_events_1_1_integer_event.html" target="_top" xlink:title="An event that passes an integer value as an argument.">
<polygon fill="white" stroke="black" points="122,-196.5 122,-226.5 253,-226.5 253,-196.5 122,-196.5"/>
<text text-anchor="start" x="130" y="-214.5" font-family="SegoeUI" font-size="10.00">UnityEngine.Events.Integer</text>
<text text-anchor="middle" x="187.5" y="-203.5" font-family="SegoeUI" font-size="10.00">Event</text>
</a>
</g>
</g>
<!-- Node10&#45;&gt;Node19 -->
<g id="edge9" class="edge"><title>Node10&#45;&gt;Node19</title>
<path fill="none" stroke="midnightblue" d="M43.1369,-291.502C54.8175,-274.849 74.3019,-250.603 97,-236.5 104.537,-231.817 112.966,-227.993 121.557,-224.874"/>
<polygon fill="midnightblue" stroke="midnightblue" points="40.1866,-289.617 37.4796,-299.86 45.9835,-293.54 40.1866,-289.617"/>
</g>
<!-- Node20 -->
<g id="node11" class="node"><title>Node20</title>
<g id="a_node11"><a xlink:href="d9/d59/class_unity_engine_1_1_events_1_1_string_event.html" target="_top" xlink:title="An event that passes a string value as an argument.">
<polygon fill="white" stroke="black" points="125,-147.5 125,-177.5 250,-177.5 250,-147.5 125,-147.5"/>
<text text-anchor="start" x="133" y="-165.5" font-family="SegoeUI" font-size="10.00">UnityEngine.Events.String</text>
<text text-anchor="middle" x="187.5" y="-154.5" font-family="SegoeUI" font-size="10.00">Event</text>
</a>
</g>
</g>
<!-- Node10&#45;&gt;Node20 -->
<g id="edge10" class="edge"><title>Node10&#45;&gt;Node20</title>
<path fill="none" stroke="midnightblue" d="M36.6763,-290.064C44.8921,-263.01 63.5202,-214.311 97,-187.5 105.059,-181.046 114.683,-176.256 124.585,-172.703"/>
<polygon fill="midnightblue" stroke="midnightblue" points="33.2479,-289.323 33.8617,-299.9 39.9778,-291.249 33.2479,-289.323"/>
</g>
<!-- Node21 -->
<g id="node12" class="node"><title>Node21</title>
<g id="a_node12"><a xlink:href="d1/d11/class_unity_engine_1_1_events_1_1_transform_event.html" target="_top" xlink:title="An event that passes a Transform value as an argument.">
<polygon fill="white" stroke="black" points="115,-98.5 115,-128.5 260,-128.5 260,-98.5 115,-98.5"/>
<text text-anchor="start" x="123" y="-116.5" font-family="SegoeUI" font-size="10.00">UnityEngine.Events.Transform</text>
<text text-anchor="middle" x="187.5" y="-105.5" font-family="SegoeUI" font-size="10.00">Event</text>
</a>
</g>
</g>
<!-- Node10&#45;&gt;Node21 -->
<g id="edge11" class="edge"><title>Node10&#45;&gt;Node21</title>
<path fill="none" stroke="midnightblue" d="M33.3832,-289.595C37.8328,-253.974 52.2485,-179.255 97,-138.5 102.248,-133.72 108.336,-129.845 114.821,-126.705"/>
<polygon fill="midnightblue" stroke="midnightblue" points="29.8869,-289.368 32.2629,-299.693 36.8442,-290.14 29.8869,-289.368"/>
</g>
<!-- Node22 -->
<g id="node13" class="node"><title>Node22</title>
<g id="a_node13"><a xlink:href="d7/d95/class_unity_engine_1_1_events_1_1_triggered_event_1_1_triggered_event_delegate.html" target="_top" xlink:title="Event callback arguments">
<polygon fill="white" stroke="black" points="114.5,-49.5 114.5,-79.5 260.5,-79.5 260.5,-49.5 114.5,-49.5"/>
<text text-anchor="start" x="122.5" y="-67.5" font-family="SegoeUI" font-size="10.00">UnityEngine.Events.Triggered</text>
<text text-anchor="middle" x="187.5" y="-56.5" font-family="SegoeUI" font-size="10.00">Event.TriggeredEventDelegate</text>
</a>
</g>
</g>
<!-- Node10&#45;&gt;Node22 -->
<g id="edge12" class="edge"><title>Node10&#45;&gt;Node22</title>
<path fill="none" stroke="midnightblue" d="M31.3879,-289.761C32.2566,-246.966 40.5132,-145.036 97,-89.5 102.062,-84.5234 108.028,-80.519 114.437,-77.2996"/>
<polygon fill="midnightblue" stroke="midnightblue" points="27.8865,-289.931 31.3038,-299.959 34.8862,-289.988 27.8865,-289.931"/>
</g>
<!-- Node23 -->
<g id="node14" class="node"><title>Node23</title>
<g id="a_node14"><a xlink:href="d3/d7d/class_unity_engine_1_1_events_1_1_vector3_event.html" target="_top" xlink:title="An event that passes an Vector3 value as an argument.">
<polygon fill="white" stroke="black" points="121,-0.5 121,-30.5 254,-30.5 254,-0.5 121,-0.5"/>
<text text-anchor="start" x="129" y="-18.5" font-family="SegoeUI" font-size="10.00">UnityEngine.Events.Vector3</text>
<text text-anchor="middle" x="187.5" y="-7.5" font-family="SegoeUI" font-size="10.00">Event</text>
</a>
</g>
</g>
<!-- Node10&#45;&gt;Node23 -->
<g id="edge13" class="edge"><title>Node10&#45;&gt;Node23</title>
<path fill="none" stroke="midnightblue" d="M33.7278,-289.731C40.4061,-233.895 61.9894,-76.705 97,-40.5 103.617,-33.6575 111.937,-28.6411 120.825,-24.9725"/>
<polygon fill="midnightblue" stroke="midnightblue" points="30.2408,-289.418 32.5603,-299.755 37.1938,-290.228 30.2408,-289.418"/>
</g>
</g>
</svg>
