<?xml version="1.0" encoding="UTF-8" standalone="no"?>
<!DOCTYPE svg PUBLIC "-//W3C//DTD SVG 1.1//EN"
 "http://www.w3.org/Graphics/SVG/1.1/DTD/svg11.dtd">
<!-- Generated by graphviz version 2.38.0 (20140413.2041)
 -->
<!-- Title: Graphical Class Hierarchy Pages: 1 -->
<svg width="707pt" height="112pt"
 viewBox="0.00 0.00 707.00 112.00" xmlns="http://www.w3.org/2000/svg" xmlns:xlink="http://www.w3.org/1999/xlink">
<g id="graph0" class="graph" transform="scale(1 1) rotate(0) translate(4 108)">
<title>Graphical Class Hierarchy</title>
<polygon fill="white" stroke="none" points="-4,4 -4,-108 703,-108 703,4 -4,4"/>
<!-- Node0 -->
<g id="node1" class="node"><title>Node0</title>
<g id="a_node1"><a xlink:href="d5/d55/class_juniper_1_1_input_1_1_pointers_1_1_screen_1_1_abstract_screen_device.html" target="_top" xlink:title=" ">
<polygon fill="white" stroke="black" points="0,-13.5 0,-65.5 147,-65.5 147,-13.5 0,-13.5"/>
<text text-anchor="start" x="8" y="-53.5" font-family="SegoeUI" font-size="10.00">Juniper.Input.Pointers.Screen.</text>
<text text-anchor="start" x="8" y="-42.5" font-family="SegoeUI" font-size="10.00">AbstractScreenDevice&lt; Unary,</text>
<text text-anchor="start" x="8" y="-31.5" font-family="SegoeUI" font-size="10.00"> UnaryPointerConfiguration,</text>
<text text-anchor="middle" x="73.5" y="-20.5" font-family="SegoeUI" font-size="10.00"> HapticType &gt;</text>
</a>
</g>
</g>
<!-- Node1 -->
<g id="node2" class="node"><title>Node1</title>
<g id="a_node2"><a xlink:href="d9/df7/class_juniper_1_1_input_1_1_pointers_1_1_gaze_1_1_abstract_gaze_pointer.html" target="_top" xlink:title=" ">
<polygon fill="white" stroke="black" points="183,-49.5 183,-79.5 353,-79.5 353,-49.5 183,-49.5"/>
<text text-anchor="start" x="191" y="-67.5" font-family="SegoeUI" font-size="10.00">Juniper.Input.Pointers.Gaze.</text>
<text text-anchor="middle" x="268" y="-56.5" font-family="SegoeUI" font-size="10.00">AbstractGazePointer&lt; HapticType &gt;</text>
</a>
</g>
</g>
<!-- Node0&#45;&gt;Node1 -->
<g id="edge1" class="edge"><title>Node0&#45;&gt;Node1</title>
<path fill="none" stroke="midnightblue" d="M156.996,-50.2137C165.582,-51.3288 174.317,-52.4632 182.92,-53.5805"/>
<polygon fill="midnightblue" stroke="midnightblue" points="157.369,-46.7329 147.002,-48.9158 156.468,-53.6746 157.369,-46.7329"/>
</g>
<!-- Node5 -->
<g id="node6" class="node"><title>Node5</title>
<g id="a_node6"><a xlink:href="d1/d3b/class_juniper_1_1_input_1_1_pointers_1_1_screen_1_1_touch_point.html" target="_top" xlink:title="Perform pointer events on touch screens.">
<polygon fill="white" stroke="black" points="195,-0.5 195,-30.5 341,-30.5 341,-0.5 195,-0.5"/>
<text text-anchor="start" x="203" y="-18.5" font-family="SegoeUI" font-size="10.00">Juniper.Input.Pointers.Screen.</text>
<text text-anchor="middle" x="268" y="-7.5" font-family="SegoeUI" font-size="10.00">TouchPoint</text>
</a>
</g>
</g>
<!-- Node0&#45;&gt;Node5 -->
<g id="edge5" class="edge"><title>Node0&#45;&gt;Node5</title>
<path fill="none" stroke="midnightblue" d="M157.019,-29.212C169.615,-27.6415 182.533,-26.031 194.883,-24.4912"/>
<polygon fill="midnightblue" stroke="midnightblue" points="156.492,-25.7505 147.002,-30.4608 157.358,-32.6967 156.492,-25.7505"/>
</g>
<!-- Node2 -->
<g id="node3" class="node"><title>Node2</title>
<g id="a_node3"><a xlink:href="de/d9c/class_juniper_1_1_input_1_1_pointers_1_1_gaze_1_1_tobii_gaze_pointer.html" target="_top" xlink:title=" ">
<polygon fill="white" stroke="black" points="389,-73.5 389,-103.5 526,-103.5 526,-73.5 389,-73.5"/>
<text text-anchor="start" x="397" y="-91.5" font-family="SegoeUI" font-size="10.00">Juniper.Input.Pointers.Gaze.</text>
<text text-anchor="middle" x="457.5" y="-80.5" font-family="SegoeUI" font-size="10.00">TobiiGazePointer</text>
</a>
</g>
</g>
<!-- Node1&#45;&gt;Node2 -->
<g id="edge2" class="edge"><title>Node1&#45;&gt;Node2</title>
<path fill="none" stroke="midnightblue" d="M363.288,-76.5689C371.935,-77.6757 380.576,-78.7817 388.916,-79.8493"/>
<polygon fill="midnightblue" stroke="midnightblue" points="363.515,-73.0695 353.152,-75.2714 362.627,-80.0129 363.515,-73.0695"/>
</g>
<!-- Node4 -->
<g id="node5" class="node"><title>Node4</title>
<g id="a_node5"><a xlink:href="df/d0b/class_juniper_1_1_input_1_1_pointers_1_1_gaze_1_1_touch_gaze_pointer.html" target="_top" xlink:title=" ">
<polygon fill="white" stroke="black" points="389,-24.5 389,-54.5 526,-54.5 526,-24.5 389,-24.5"/>
<text text-anchor="start" x="397" y="-42.5" font-family="SegoeUI" font-size="10.00">Juniper.Input.Pointers.Gaze.</text>
<text text-anchor="middle" x="457.5" y="-31.5" font-family="SegoeUI" font-size="10.00">TouchGazePointer</text>
</a>
</g>
</g>
<!-- Node1&#45;&gt;Node4 -->
<g id="edge4" class="edge"><title>Node1&#45;&gt;Node4</title>
<path fill="none" stroke="midnightblue" d="M363.288,-51.9283C371.935,-50.7753 380.576,-49.6232 388.916,-48.5112"/>
<polygon fill="midnightblue" stroke="midnightblue" points="362.602,-48.4887 353.152,-53.2797 363.527,-55.4273 362.602,-48.4887"/>
</g>
<!-- Node3 -->
<g id="node4" class="node"><title>Node3</title>
<g id="a_node4"><a xlink:href="d2/d9a/class_juniper_1_1_input_1_1_pointers_1_1_gaze_1_1_gaze_pointer.html" target="_top" xlink:title=" ">
<polygon fill="white" stroke="black" points="562,-73.5 562,-103.5 699,-103.5 699,-73.5 562,-73.5"/>
<text text-anchor="start" x="570" y="-91.5" font-family="SegoeUI" font-size="10.00">Juniper.Input.Pointers.Gaze.</text>
<text text-anchor="middle" x="630.5" y="-80.5" font-family="SegoeUI" font-size="10.00">GazePointer</text>
</a>
</g>
</g>
<!-- Node2&#45;&gt;Node3 -->
<g id="edge3" class="edge"><title>Node2&#45;&gt;Node3</title>
<path fill="none" stroke="midnightblue" d="M536.1,-88.5C544.692,-88.5 553.391,-88.5 561.847,-88.5"/>
<polygon fill="midnightblue" stroke="midnightblue" points="536.084,-85.0001 526.084,-88.5 536.084,-92.0001 536.084,-85.0001"/>
</g>
</g>
</svg>
