<?xml version="1.0" encoding="UTF-8" standalone="no"?>
<!DOCTYPE svg PUBLIC "-//W3C//DTD SVG 1.1//EN"
 "http://www.w3.org/Graphics/SVG/1.1/DTD/svg11.dtd">
<!-- Generated by graphviz version 2.38.0 (20140413.2041)
 -->
<!-- Title: Graphical Class Hierarchy Pages: 1 -->
<svg width="423pt" height="61pt"
 viewBox="0.00 0.00 423.00 61.00" xmlns="http://www.w3.org/2000/svg" xmlns:xlink="http://www.w3.org/1999/xlink">
<g id="graph0" class="graph" transform="scale(1 1) rotate(0) translate(4 57)">
<title>Graphical Class Hierarchy</title>
<polygon fill="white" stroke="none" points="-4,4 -4,-57 419,-57 419,4 -4,4"/>
<!-- Node0 -->
<g id="node1" class="node"><title>Node0</title>
<g id="a_node1"><a xlink:href="d7/ddb/class_juniper_1_1_unity_1_1_input_1_1_pointers_1_1_motion_1_1_abstract_motion_controller.html" target="_top" xlink:title=" ">
<polygon fill="white" stroke="black" points="0,-0.5 0,-52.5 242,-52.5 242,-0.5 0,-0.5"/>
<text text-anchor="start" x="8" y="-40.5" font-family="SegoeUI" font-size="10.00">Juniper.Unity.Input.Pointers.</text>
<text text-anchor="start" x="8" y="-29.5" font-family="SegoeUI" font-size="10.00">Motion.AbstractMotionController</text>
<text text-anchor="start" x="8" y="-18.5" font-family="SegoeUI" font-size="10.00">&lt; Unary, KeyCode, NoMotionControllerConfiguration,</text>
<text text-anchor="middle" x="121" y="-7.5" font-family="SegoeUI" font-size="10.00"> NoHaptics &gt;</text>
</a>
</g>
</g>
<!-- Node1 -->
<g id="node2" class="node"><title>Node1</title>
<g id="a_node2"><a xlink:href="de/d40/class_juniper_1_1_unity_1_1_input_1_1_pointers_1_1_motion_1_1_no_motion_controller.html" target="_top" xlink:title=" ">
<polygon fill="white" stroke="black" points="278,-11.5 278,-41.5 415,-41.5 415,-11.5 278,-11.5"/>
<text text-anchor="start" x="286" y="-29.5" font-family="SegoeUI" font-size="10.00">Juniper.Unity.Input.Pointers.</text>
<text text-anchor="middle" x="346.5" y="-18.5" font-family="SegoeUI" font-size="10.00">Motion.NoMotionController</text>
</a>
</g>
</g>
<!-- Node0&#45;&gt;Node1 -->
<g id="edge1" class="edge"><title>Node0&#45;&gt;Node1</title>
<path fill="none" stroke="midnightblue" d="M252.497,-26.5C261.171,-26.5 269.691,-26.5 277.838,-26.5"/>
<polygon fill="midnightblue" stroke="midnightblue" points="252.255,-23.0001 242.255,-26.5 252.255,-30.0001 252.255,-23.0001"/>
</g>
</g>
</svg>
