<?xml version="1.0" encoding="UTF-8" standalone="no"?>
<!DOCTYPE svg PUBLIC "-//W3C//DTD SVG 1.1//EN"
 "http://www.w3.org/Graphics/SVG/1.1/DTD/svg11.dtd">
<!-- Generated by graphviz version 2.38.0 (20140413.2041)
 -->
<!-- Title: Graphical Class Hierarchy Pages: 1 -->
<svg width="335pt" height="39pt"
 viewBox="0.00 0.00 335.00 39.00" xmlns="http://www.w3.org/2000/svg" xmlns:xlink="http://www.w3.org/1999/xlink">
<g id="graph0" class="graph" transform="scale(1 1) rotate(0) translate(4 35)">
<title>Graphical Class Hierarchy</title>
<polygon fill="white" stroke="none" points="-4,4 -4,-35 331,-35 331,4 -4,4"/>
<!-- Node0 -->
<g id="node1" class="node"><title>Node0</title>
<g id="a_node1"><a xlink:href="d8/d64/interface_juniper_1_1_imaging_1_1_i_image_codec.html" target="_top" xlink:title=" ">
<polygon fill="white" stroke="black" points="0,-0.5 0,-30.5 144,-30.5 144,-0.5 0,-0.5"/>
<text text-anchor="start" x="8" y="-18.5" font-family="SegoeUI" font-size="10.00">Juniper.Imaging.IImageCodec</text>
<text text-anchor="middle" x="72" y="-7.5" font-family="SegoeUI" font-size="10.00">&lt; Texture2D &gt;</text>
</a>
</g>
</g>
<!-- Node1 -->
<g id="node2" class="node"><title>Node1</title>
<g id="a_node2"><a xlink:href="d6/dc7/class_juniper_1_1_imaging_1_1_unity_texture2_d_codec.html" target="_top" xlink:title=" ">
<polygon fill="white" stroke="black" points="180,-0.5 180,-30.5 327,-30.5 327,-0.5 180,-0.5"/>
<text text-anchor="start" x="188" y="-18.5" font-family="SegoeUI" font-size="10.00">Juniper.Imaging.UnityTexture2</text>
<text text-anchor="middle" x="253.5" y="-7.5" font-family="SegoeUI" font-size="10.00">DCodec</text>
</a>
</g>
</g>
<!-- Node0&#45;&gt;Node1 -->
<g id="edge1" class="edge"><title>Node0&#45;&gt;Node1</title>
<path fill="none" stroke="midnightblue" d="M154.477,-15.5C162.959,-15.5 171.541,-15.5 179.915,-15.5"/>
<polygon fill="midnightblue" stroke="midnightblue" points="154.201,-12.0001 144.201,-15.5 154.201,-19.0001 154.201,-12.0001"/>
</g>
</g>
</svg>
