<?xml version="1.0" encoding="UTF-8" standalone="no"?>
<!DOCTYPE svg PUBLIC "-//W3C//DTD SVG 1.1//EN"
 "http://www.w3.org/Graphics/SVG/1.1/DTD/svg11.dtd">
<!-- Generated by graphviz version 2.38.0 (20140413.2041)
 -->
<!-- Title: Graphical Class Hierarchy Pages: 1 -->
<svg width="401pt" height="764pt"
 viewBox="0.00 0.00 401.00 764.00" xmlns="http://www.w3.org/2000/svg" xmlns:xlink="http://www.w3.org/1999/xlink">
<g id="graph0" class="graph" transform="scale(1 1) rotate(0) translate(4 760)">
<title>Graphical Class Hierarchy</title>
<polygon fill="white" stroke="none" points="-4,4 -4,-760 397,-760 397,4 -4,4"/>
<!-- Node271 -->
<g id="node1" class="node"><title>Node271</title>
<g id="a_node1"><a xlink:title=" ">
<polygon fill="white" stroke="#bfbfbf" points="42.5,-388 42.5,-407 111.5,-407 111.5,-388 42.5,-388"/>
<text text-anchor="middle" x="77" y="-395" font-family="SegoeUI" font-size="10.00">ISerializable</text>
</a>
</g>
</g>
<!-- Node272 -->
<g id="node2" class="node"><title>Node272</title>
<g id="a_node2"><a xlink:href="d4/d60/class_juniper_1_1_world_1_1_climate_1_1_open_weather_map_1_1_a_p_i_1_1_error.html" target="_top" xlink:title="Encapsulates an error response from the API server. Objects of this type are Serializable.">
<polygon fill="white" stroke="black" points="223,-725.5 223,-755.5 360,-755.5 360,-725.5 223,-725.5"/>
<text text-anchor="start" x="231" y="-743.5" font-family="SegoeUI" font-size="10.00">Juniper.World.Climate.Open</text>
<text text-anchor="middle" x="291.5" y="-732.5" font-family="SegoeUI" font-size="10.00">WeatherMap.API.Error</text>
</a>
</g>
</g>
<!-- Node271&#45;&gt;Node272 -->
<g id="edge1" class="edge"><title>Node271&#45;&gt;Node272</title>
<path fill="none" stroke="midnightblue" d="M78.7211,-417.401C81.8771,-473.523 98.8411,-634.298 190,-716.5 199.259,-724.849 210.898,-730.434 222.942,-734.14"/>
<polygon fill="midnightblue" stroke="midnightblue" points="82.2017,-416.904 78.2355,-407.08 75.2094,-417.233 82.2017,-416.904"/>
</g>
<!-- Node2 -->
<g id="node3" class="node"><title>Node2</title>
<g id="a_node3"><a xlink:href="d8/dbe/class_juniper_1_1_world_1_1_climate_1_1_open_weather_map_1_1_weather_report.html" target="_top" xlink:title="respone from the OpenWeatherMap API. http://openweathermap.org/current::current_JSON.">
<polygon fill="white" stroke="black" points="221.5,-49.5 221.5,-79.5 361.5,-79.5 361.5,-49.5 221.5,-49.5"/>
<text text-anchor="start" x="229.5" y="-67.5" font-family="SegoeUI" font-size="10.00">Juniper.World.Climate.Open</text>
<text text-anchor="middle" x="291.5" y="-56.5" font-family="SegoeUI" font-size="10.00">WeatherMap.WeatherReport</text>
</a>
</g>
</g>
<!-- Node271&#45;&gt;Node2 -->
<g id="edge2" class="edge"><title>Node271&#45;&gt;Node2</title>
<path fill="none" stroke="midnightblue" d="M79.0213,-377.945C82.9586,-323.495 101.763,-168.93 190,-89.5 198.886,-81.5006 209.938,-75.9702 221.429,-72.1659"/>
<polygon fill="midnightblue" stroke="midnightblue" points="75.5248,-377.781 78.3872,-387.982 82.5109,-378.223 75.5248,-377.781"/>
</g>
<!-- Node273 -->
<g id="node4" class="node"><title>Node273</title>
<g id="a_node4"><a xlink:href="db/d80/class_juniper_1_1_world_1_1_climate_1_1_open_weather_map_1_1_weather_report_1_1_o_w_m_clouds.html" target="_top" xlink:title="The current cloud cover.">
<polygon fill="white" stroke="black" points="194.5,-676.5 194.5,-706.5 388.5,-706.5 388.5,-676.5 194.5,-676.5"/>
<text text-anchor="start" x="202.5" y="-694.5" font-family="SegoeUI" font-size="10.00">Juniper.World.Climate.Open</text>
<text text-anchor="middle" x="291.5" y="-683.5" font-family="SegoeUI" font-size="10.00">WeatherMap.WeatherReport.OWMClouds</text>
</a>
</g>
</g>
<!-- Node271&#45;&gt;Node273 -->
<g id="edge3" class="edge"><title>Node271&#45;&gt;Node273</title>
<path fill="none" stroke="midnightblue" d="M80.1356,-417.32C86.6305,-467.431 110.823,-599.994 190,-667.5 193.959,-670.875 198.31,-673.794 202.915,-676.315"/>
<polygon fill="midnightblue" stroke="midnightblue" points="83.5857,-416.694 78.9223,-407.18 76.6352,-417.525 83.5857,-416.694"/>
</g>
<!-- Node274 -->
<g id="node5" class="node"><title>Node274</title>
<g id="a_node5"><a xlink:href="d4/dda/class_juniper_1_1_world_1_1_climate_1_1_open_weather_map_1_1_weather_report_1_1_o_w_m_coord.html" target="_top" xlink:title="Latitude and longitude values for the OpenWeatherMap report.">
<polygon fill="white" stroke="black" points="196,-627.5 196,-657.5 387,-657.5 387,-627.5 196,-627.5"/>
<text text-anchor="start" x="204" y="-645.5" font-family="SegoeUI" font-size="10.00">Juniper.World.Climate.Open</text>
<text text-anchor="middle" x="291.5" y="-634.5" font-family="SegoeUI" font-size="10.00">WeatherMap.WeatherReport.OWMCoord</text>
</a>
</g>
</g>
<!-- Node271&#45;&gt;Node274 -->
<g id="edge4" class="edge"><title>Node271&#45;&gt;Node274</title>
<path fill="none" stroke="midnightblue" d="M82.0958,-417.194C92.2095,-460.692 122.594,-565.308 190,-618.5 194.365,-621.945 199.147,-624.907 204.181,-627.454"/>
<polygon fill="midnightblue" stroke="midnightblue" points="85.4838,-416.305 79.9044,-407.299 78.6493,-417.819 85.4838,-416.305"/>
</g>
<!-- Node275 -->
<g id="node6" class="node"><title>Node275</title>
<g id="a_node6"><a xlink:href="d5/df6/class_juniper_1_1_world_1_1_climate_1_1_open_weather_map_1_1_weather_report_1_1_o_w_m_main.html" target="_top" xlink:title="The main metrics portion of the weather forcast.">
<polygon fill="white" stroke="black" points="198.5,-578.5 198.5,-608.5 384.5,-608.5 384.5,-578.5 198.5,-578.5"/>
<text text-anchor="start" x="206.5" y="-596.5" font-family="SegoeUI" font-size="10.00">Juniper.World.Climate.Open</text>
<text text-anchor="middle" x="291.5" y="-585.5" font-family="SegoeUI" font-size="10.00">WeatherMap.WeatherReport.OWMMain</text>
</a>
</g>
</g>
<!-- Node271&#45;&gt;Node275 -->
<g id="edge5" class="edge"><title>Node271&#45;&gt;Node275</title>
<path fill="none" stroke="midnightblue" d="M84.9876,-416.914C98.9943,-452.94 134.043,-530.056 190,-569.5 194.912,-572.962 200.259,-575.929 205.844,-578.472"/>
<polygon fill="midnightblue" stroke="midnightblue" points="88.1091,-415.27 81.3164,-407.139 81.556,-417.731 88.1091,-415.27"/>
</g>
<!-- Node276 -->
<g id="node7" class="node"><title>Node276</title>
<g id="a_node7"><a xlink:href="de/dfa/class_juniper_1_1_world_1_1_climate_1_1_open_weather_map_1_1_weather_report_1_1_o_w_m_rain.html" target="_top" xlink:title="The expected rainfall for the next three hours.">
<polygon fill="white" stroke="black" points="199,-529.5 199,-559.5 384,-559.5 384,-529.5 199,-529.5"/>
<text text-anchor="start" x="207" y="-547.5" font-family="SegoeUI" font-size="10.00">Juniper.World.Climate.Open</text>
<text text-anchor="middle" x="291.5" y="-536.5" font-family="SegoeUI" font-size="10.00">WeatherMap.WeatherReport.OWMRain</text>
</a>
</g>
</g>
<!-- Node271&#45;&gt;Node276 -->
<g id="edge6" class="edge"><title>Node271&#45;&gt;Node276</title>
<path fill="none" stroke="midnightblue" d="M89.4399,-415.877C107.393,-443.113 144.838,-493.839 190,-520.5 195.87,-523.965 202.212,-526.931 208.756,-529.468"/>
<polygon fill="midnightblue" stroke="midnightblue" points="92.2763,-413.817 83.9221,-407.301 86.3895,-417.604 92.2763,-413.817"/>
</g>
<!-- Node277 -->
<g id="node8" class="node"><title>Node277</title>
<g id="a_node8"><a xlink:href="df/d33/class_juniper_1_1_world_1_1_climate_1_1_open_weather_map_1_1_weather_report_1_1_o_w_m_snow.html" target="_top" xlink:title="The expected snowfall for the next three hours.">
<polygon fill="white" stroke="black" points="196.5,-480.5 196.5,-510.5 386.5,-510.5 386.5,-480.5 196.5,-480.5"/>
<text text-anchor="start" x="204.5" y="-498.5" font-family="SegoeUI" font-size="10.00">Juniper.World.Climate.Open</text>
<text text-anchor="middle" x="291.5" y="-487.5" font-family="SegoeUI" font-size="10.00">WeatherMap.WeatherReport.OWMSnow</text>
</a>
</g>
</g>
<!-- Node271&#45;&gt;Node277 -->
<g id="edge7" class="edge"><title>Node271&#45;&gt;Node277</title>
<path fill="none" stroke="midnightblue" d="M97.6171,-413.572C119.062,-430.368 155.046,-456.343 190,-471.5 197.9,-474.925 206.37,-477.91 214.92,-480.499"/>
<polygon fill="midnightblue" stroke="midnightblue" points="99.6248,-410.697 89.6219,-407.205 95.2639,-416.172 99.6248,-410.697"/>
</g>
<!-- Node278 -->
<g id="node9" class="node"><title>Node278</title>
<g id="a_node9"><a xlink:href="d9/d6e/class_juniper_1_1_world_1_1_climate_1_1_open_weather_map_1_1_weather_report_1_1_o_w_m_sys.html" target="_top" xlink:title="Additional geographic information about the weather report.">
<polygon fill="white" stroke="black" points="201,-431.5 201,-461.5 382,-461.5 382,-431.5 201,-431.5"/>
<text text-anchor="start" x="209" y="-449.5" font-family="SegoeUI" font-size="10.00">Juniper.World.Climate.Open</text>
<text text-anchor="middle" x="291.5" y="-438.5" font-family="SegoeUI" font-size="10.00">WeatherMap.WeatherReport.OWMSys</text>
</a>
</g>
</g>
<!-- Node271&#45;&gt;Node278 -->
<g id="edge8" class="edge"><title>Node271&#45;&gt;Node278</title>
<path fill="none" stroke="midnightblue" d="M121.779,-407.595C151.636,-414.48 191.7,-423.718 225.294,-431.464"/>
<polygon fill="midnightblue" stroke="midnightblue" points="122.202,-404.101 111.671,-405.264 120.629,-410.922 122.202,-404.101"/>
</g>
<!-- Node279 -->
<g id="node10" class="node"><title>Node279</title>
<g id="a_node10"><a xlink:href="de/dac/class_juniper_1_1_world_1_1_climate_1_1_open_weather_map_1_1_weather_report_1_1_o_w_m_weather.html" target="_top" xlink:title="nested portion of the OpenWeatherMap report that covers weather conditions.">
<polygon fill="white" stroke="black" points="190,-382.5 190,-412.5 393,-412.5 393,-382.5 190,-382.5"/>
<text text-anchor="start" x="198" y="-400.5" font-family="SegoeUI" font-size="10.00">Juniper.World.Climate.Open</text>
<text text-anchor="middle" x="291.5" y="-389.5" font-family="SegoeUI" font-size="10.00">WeatherMap.WeatherReport.OWMWeather</text>
</a>
</g>
</g>
<!-- Node271&#45;&gt;Node279 -->
<g id="edge9" class="edge"><title>Node271&#45;&gt;Node279</title>
<path fill="none" stroke="midnightblue" d="M121.896,-397.5C141.719,-397.5 166.023,-397.5 189.941,-397.5"/>
<polygon fill="midnightblue" stroke="midnightblue" points="121.671,-394 111.671,-397.5 121.671,-401 121.671,-394"/>
</g>
<!-- Node280 -->
<g id="node11" class="node"><title>Node280</title>
<g id="a_node11"><a xlink:href="df/dc5/class_juniper_1_1_world_1_1_climate_1_1_open_weather_map_1_1_weather_report_1_1_o_w_m_wind.html" target="_top" xlink:title="The current wind speed and direction.">
<polygon fill="white" stroke="black" points="197.5,-333.5 197.5,-363.5 385.5,-363.5 385.5,-333.5 197.5,-333.5"/>
<text text-anchor="start" x="205.5" y="-351.5" font-family="SegoeUI" font-size="10.00">Juniper.World.Climate.Open</text>
<text text-anchor="middle" x="291.5" y="-340.5" font-family="SegoeUI" font-size="10.00">WeatherMap.WeatherReport.OWMWind</text>
</a>
</g>
</g>
<!-- Node271&#45;&gt;Node280 -->
<g id="edge10" class="edge"><title>Node271&#45;&gt;Node280</title>
<path fill="none" stroke="midnightblue" d="M121.779,-387.405C151.636,-380.52 191.7,-371.282 225.294,-363.536"/>
<polygon fill="midnightblue" stroke="midnightblue" points="120.629,-384.078 111.671,-389.736 122.202,-390.899 120.629,-384.078"/>
</g>
<!-- Node281 -->
<g id="node12" class="node"><title>Node281</title>
<g id="a_node12"><a xlink:href="d6/d6b/struct_juniper_1_1_world_1_1_g_i_s_1_1_equitorial_spherical_position.html" target="_top" xlink:title="Represents a bearing and distance to an object from the Earth&#39;s equator.">
<polygon fill="white" stroke="black" points="223,-284.5 223,-314.5 360,-314.5 360,-284.5 223,-284.5"/>
<text text-anchor="start" x="231" y="-302.5" font-family="SegoeUI" font-size="10.00">Juniper.World.GIS.Equitorial</text>
<text text-anchor="middle" x="291.5" y="-291.5" font-family="SegoeUI" font-size="10.00">SphericalPosition</text>
</a>
</g>
</g>
<!-- Node271&#45;&gt;Node281 -->
<g id="edge11" class="edge"><title>Node271&#45;&gt;Node281</title>
<path fill="none" stroke="midnightblue" d="M97.6824,-381.723C119.182,-365.219 155.213,-339.649 190,-324.5 200.385,-319.977 211.745,-316.167 222.972,-312.991"/>
<polygon fill="midnightblue" stroke="midnightblue" points="95.3967,-379.067 89.6645,-387.977 99.7021,-384.586 95.3967,-379.067"/>
</g>
<!-- Node282 -->
<g id="node13" class="node"><title>Node282</title>
<g id="a_node13"><a xlink:href="dd/da2/struct_juniper_1_1_world_1_1_g_i_s_1_1_geocentric_ecliptic_spherical_position.html" target="_top" xlink:title="Represents a bearing and distance to an object from the Earth&#39;s orbit.">
<polygon fill="white" stroke="black" points="220.5,-235.5 220.5,-265.5 362.5,-265.5 362.5,-235.5 220.5,-235.5"/>
<text text-anchor="start" x="228.5" y="-253.5" font-family="SegoeUI" font-size="10.00">Juniper.World.GIS.Geocentric</text>
<text text-anchor="middle" x="291.5" y="-242.5" font-family="SegoeUI" font-size="10.00">EclipticSphericalPosition</text>
</a>
</g>
</g>
<!-- Node271&#45;&gt;Node282 -->
<g id="edge12" class="edge"><title>Node271&#45;&gt;Node282</title>
<path fill="none" stroke="midnightblue" d="M89.5087,-379.328C107.55,-352.385 145.11,-302.163 190,-275.5 199.275,-269.991 209.723,-265.691 220.285,-262.336"/>
<polygon fill="midnightblue" stroke="midnightblue" points="86.5054,-377.526 83.961,-387.81 92.3637,-381.357 86.5054,-377.526"/>
</g>
<!-- Node283 -->
<g id="node14" class="node"><title>Node283</title>
<g id="a_node14"><a xlink:href="d9/dc6/struct_juniper_1_1_world_1_1_g_i_s_1_1_horizontal_spherical_position.html" target="_top" xlink:title="Represents a bearing and distance to an object in degrees azimuth and altitude. It is essentially an ...">
<polygon fill="white" stroke="black" points="221.5,-186.5 221.5,-216.5 361.5,-216.5 361.5,-186.5 221.5,-186.5"/>
<text text-anchor="start" x="229.5" y="-204.5" font-family="SegoeUI" font-size="10.00">Juniper.World.GIS.Horizontal</text>
<text text-anchor="middle" x="291.5" y="-193.5" font-family="SegoeUI" font-size="10.00">SphericalPosition</text>
</a>
</g>
</g>
<!-- Node271&#45;&gt;Node283 -->
<g id="edge13" class="edge"><title>Node271&#45;&gt;Node283</title>
<path fill="none" stroke="midnightblue" d="M85.0549,-378.247C99.1742,-342.509 134.404,-265.97 190,-226.5 199.31,-219.891 210.184,-215.022 221.275,-211.437"/>
<polygon fill="midnightblue" stroke="midnightblue" points="81.6505,-377.351 81.3517,-387.942 88.1897,-379.849 81.6505,-377.351"/>
</g>
<!-- Node284 -->
<g id="node15" class="node"><title>Node284</title>
<g id="a_node15"><a xlink:href="d6/d53/class_juniper_1_1_world_1_1_g_i_s_1_1_lat_lng_point.html" target="_top" xlink:title="A point in geographic space on a radial coordinate system.">
<polygon fill="white" stroke="black" points="229,-137.5 229,-167.5 354,-167.5 354,-137.5 229,-137.5"/>
<text text-anchor="start" x="237" y="-155.5" font-family="SegoeUI" font-size="10.00">Juniper.World.GIS.LatLng</text>
<text text-anchor="middle" x="291.5" y="-144.5" font-family="SegoeUI" font-size="10.00">Point</text>
</a>
</g>
</g>
<!-- Node271&#45;&gt;Node284 -->
<g id="edge14" class="edge"><title>Node271&#45;&gt;Node284</title>
<path fill="none" stroke="midnightblue" d="M82.1603,-377.939C92.4048,-334.727 123.038,-230.754 190,-177.5 201.117,-168.659 214.943,-162.894 228.748,-159.148"/>
<polygon fill="midnightblue" stroke="midnightblue" points="78.7293,-377.243 79.9379,-387.769 85.557,-378.787 78.7293,-377.243"/>
</g>
<!-- Node285 -->
<g id="node16" class="node"><title>Node285</title>
<g id="a_node16"><a xlink:href="d0/da5/struct_juniper_1_1_world_1_1_g_i_s_1_1_u_t_m_point.html" target="_top" xlink:title="The Universal Transverse Mercator (UTM) conformal projection uses a 2&#45;dimensional Cartesian coordinat...">
<polygon fill="white" stroke="black" points="223,-99 223,-118 360,-118 360,-99 223,-99"/>
<text text-anchor="middle" x="291.5" y="-106" font-family="SegoeUI" font-size="10.00">Juniper.World.GIS.UTMPoint</text>
</a>
</g>
</g>
<!-- Node271&#45;&gt;Node285 -->
<g id="edge15" class="edge"><title>Node271&#45;&gt;Node285</title>
<path fill="none" stroke="midnightblue" d="M80.0099,-377.572C86.2098,-327.22 109.767,-194.229 190,-128.5 199.427,-120.777 211.004,-115.756 222.907,-112.542"/>
<polygon fill="midnightblue" stroke="midnightblue" points="76.5033,-377.434 78.8584,-387.763 83.4591,-378.22 76.5033,-377.434"/>
</g>
<!-- Node0 -->
<g id="node17" class="node"><title>Node0</title>
<g id="a_node17"><a xlink:href="d8/d7d/interface_juniper_1_1_world_1_1_climate_1_1_i_weather_report.html" target="_top" xlink:title=" ">
<polygon fill="white" stroke="black" points="0,-25.5 0,-55.5 154,-55.5 154,-25.5 0,-25.5"/>
<text text-anchor="start" x="8" y="-43.5" font-family="SegoeUI" font-size="10.00">Juniper.World.Climate.IWeather</text>
<text text-anchor="middle" x="77" y="-32.5" font-family="SegoeUI" font-size="10.00">Report</text>
</a>
</g>
</g>
<!-- Node0&#45;&gt;Node2 -->
<g id="edge17" class="edge"><title>Node0&#45;&gt;Node2</title>
<path fill="none" stroke="midnightblue" d="M164.247,-50.2408C183.221,-52.3838 203.078,-54.6264 221.278,-56.682"/>
<polygon fill="midnightblue" stroke="midnightblue" points="164.447,-46.7412 154.117,-49.0968 163.661,-53.697 164.447,-46.7412"/>
</g>
<!-- Node1 -->
<g id="node18" class="node"><title>Node1</title>
<g id="a_node18"><a xlink:href="db/de7/class_juniper_1_1_unity_1_1_world_1_1_climate_1_1_fake_weather_report.html" target="_top" xlink:title="An API&#45;compatible, editable object for making static weather reports.">
<polygon fill="white" stroke="black" points="222.5,-0.5 222.5,-30.5 360.5,-30.5 360.5,-0.5 222.5,-0.5"/>
<text text-anchor="start" x="230.5" y="-18.5" font-family="SegoeUI" font-size="10.00">Juniper.Unity.World.Climate.</text>
<text text-anchor="middle" x="291.5" y="-7.5" font-family="SegoeUI" font-size="10.00">FakeWeatherReport</text>
</a>
</g>
</g>
<!-- Node0&#45;&gt;Node1 -->
<g id="edge16" class="edge"><title>Node0&#45;&gt;Node1</title>
<path fill="none" stroke="midnightblue" d="M164.147,-30.365C183.516,-28.0863 203.81,-25.6988 222.326,-23.5204"/>
<polygon fill="midnightblue" stroke="midnightblue" points="163.64,-26.9005 154.117,-31.545 164.458,-33.8526 163.64,-26.9005"/>
</g>
</g>
</svg>
