<?xml version="1.0" encoding="UTF-8" standalone="no"?>
<!DOCTYPE svg PUBLIC "-//W3C//DTD SVG 1.1//EN"
 "http://www.w3.org/Graphics/SVG/1.1/DTD/svg11.dtd">
<!-- Generated by graphviz version 2.38.0 (20140413.2041)
 -->
<!-- Title: Graphical Class Hierarchy Pages: 1 -->
<svg width="610pt" height="110pt"
 viewBox="0.00 0.00 610.00 110.00" xmlns="http://www.w3.org/2000/svg" xmlns:xlink="http://www.w3.org/1999/xlink">
<g id="graph0" class="graph" transform="scale(1 1) rotate(0) translate(4 106)">
<title>Graphical Class Hierarchy</title>
<polygon fill="white" stroke="none" points="-4,4 -4,-106 606,-106 606,4 -4,4"/>
<!-- Node0 -->
<g id="node1" class="node"><title>Node0</title>
<g id="a_node1"><a xlink:href="d0/d7e/class_juniper_1_1_input_1_1_pointers_1_1_abstract_pointer_configuration.html" target="_top" xlink:title=" ">
<polygon fill="white" stroke="black" points="0,-36 0,-66 180,-66 180,-36 0,-36"/>
<text text-anchor="start" x="8" y="-54" font-family="SegoeUI" font-size="10.00">Juniper.Input.Pointers.Abstract</text>
<text text-anchor="middle" x="90" y="-43" font-family="SegoeUI" font-size="10.00">PointerConfiguration&lt; ButtonIDType &gt;</text>
</a>
</g>
</g>
<!-- Node1 -->
<g id="node2" class="node"><title>Node1</title>
<g id="a_node2"><a xlink:href="d0/d65/class_juniper_1_1_input_1_1_pointers_1_1_motion_1_1_abstract_handed_pointer_configuration.html" target="_top" xlink:title=" ">
<polygon fill="white" stroke="black" points="216,-30.5 216,-71.5 387,-71.5 387,-30.5 216,-30.5"/>
<text text-anchor="start" x="224" y="-59.5" font-family="SegoeUI" font-size="10.00">Juniper.Input.Pointers.Motion.</text>
<text text-anchor="start" x="224" y="-48.5" font-family="SegoeUI" font-size="10.00">AbstractHandedPointerConfiguration</text>
<text text-anchor="middle" x="301.5" y="-37.5" font-family="SegoeUI" font-size="10.00">&lt; HandIDType, ButtonIDType &gt;</text>
</a>
</g>
</g>
<!-- Node0&#45;&gt;Node1 -->
<g id="edge1" class="edge"><title>Node0&#45;&gt;Node1</title>
<path fill="none" stroke="midnightblue" d="M190.162,-51C198.721,-51 207.33,-51 215.759,-51"/>
<polygon fill="midnightblue" stroke="midnightblue" points="190.151,-47.5001 180.151,-51 190.151,-54.5001 190.151,-47.5001"/>
</g>
<!-- Node2 -->
<g id="node3" class="node"><title>Node2</title>
<g id="a_node3"><a xlink:href="d2/d45/class_juniper_1_1_input_1_1_pointers_1_1_motion_1_1_abstract_hand_tracker_configuration.html" target="_top" xlink:title=" ">
<polygon fill="white" stroke="black" points="430.5,-60.5 430.5,-101.5 594.5,-101.5 594.5,-60.5 430.5,-60.5"/>
<text text-anchor="start" x="438.5" y="-89.5" font-family="SegoeUI" font-size="10.00">Juniper.Input.Pointers.Motion.</text>
<text text-anchor="start" x="438.5" y="-78.5" font-family="SegoeUI" font-size="10.00">AbstractHandTrackerConfiguration</text>
<text text-anchor="middle" x="512.5" y="-67.5" font-family="SegoeUI" font-size="10.00">&lt; HandIDType, ButtonIDType &gt;</text>
</a>
</g>
</g>
<!-- Node1&#45;&gt;Node2 -->
<g id="edge2" class="edge"><title>Node1&#45;&gt;Node2</title>
<path fill="none" stroke="midnightblue" d="M397.301,-64.6079C408.353,-66.1943 419.551,-67.8016 430.395,-69.3581"/>
<polygon fill="midnightblue" stroke="midnightblue" points="397.603,-61.1153 387.207,-63.1589 396.608,-68.0443 397.603,-61.1153"/>
</g>
<!-- Node3 -->
<g id="node4" class="node"><title>Node3</title>
<g id="a_node4"><a xlink:href="da/de2/class_juniper_1_1_input_1_1_pointers_1_1_motion_1_1_abstract_motion_controller_configuration.html" target="_top" xlink:title=" ">
<polygon fill="white" stroke="black" points="423,-0.5 423,-41.5 602,-41.5 602,-0.5 423,-0.5"/>
<text text-anchor="start" x="431" y="-29.5" font-family="SegoeUI" font-size="10.00">Juniper.Input.Pointers.Motion.</text>
<text text-anchor="start" x="431" y="-18.5" font-family="SegoeUI" font-size="10.00">AbstractMotionControllerConfiguration</text>
<text text-anchor="middle" x="512.5" y="-7.5" font-family="SegoeUI" font-size="10.00">&lt; HandIDType, ButtonIDType &gt;</text>
</a>
</g>
</g>
<!-- Node1&#45;&gt;Node3 -->
<g id="edge3" class="edge"><title>Node1&#45;&gt;Node3</title>
<path fill="none" stroke="midnightblue" d="M397.205,-37.406C405.768,-36.1769 414.419,-34.935 422.927,-33.7139"/>
<polygon fill="midnightblue" stroke="midnightblue" points="396.608,-33.9557 387.207,-38.8411 397.603,-40.8847 396.608,-33.9557"/>
</g>
</g>
</svg>
