<?xml version="1.0" encoding="UTF-8" standalone="no"?>
<!DOCTYPE svg PUBLIC "-//W3C//DTD SVG 1.1//EN"
 "http://www.w3.org/Graphics/SVG/1.1/DTD/svg11.dtd">
<!-- Generated by graphviz version 2.38.0 (20140413.2041)
 -->
<!-- Title: Graphical Class Hierarchy Pages: 1 -->
<svg width="387pt" height="88pt"
 viewBox="0.00 0.00 387.00 88.00" xmlns="http://www.w3.org/2000/svg" xmlns:xlink="http://www.w3.org/1999/xlink">
<g id="graph0" class="graph" transform="scale(1 1) rotate(0) translate(4 84)">
<title>Graphical Class Hierarchy</title>
<polygon fill="white" stroke="none" points="-4,4 -4,-84 383,-84 383,4 -4,4"/>
<!-- Node415 -->
<g id="node1" class="node"><title>Node415</title>
<g id="a_node1"><a xlink:title=" ">
<polygon fill="white" stroke="#bfbfbf" points="0,-30 0,-49 158,-49 158,-30 0,-30"/>
<text text-anchor="middle" x="79" y="-37" font-family="SegoeUI" font-size="10.00">AbstractProbeNameConfiguration</text>
</a>
</g>
</g>
<!-- Node0 -->
<g id="node2" class="node"><title>Node0</title>
<g id="a_node2"><a xlink:href="db/d05/class_juniper_1_1_unity_1_1_input_1_1_pointers_1_1_motion_1_1_oculus_touch_probe_configuration.html" target="_top" xlink:title=" ">
<polygon fill="white" stroke="black" points="194,-49.5 194,-79.5 379,-79.5 379,-49.5 194,-49.5"/>
<text text-anchor="start" x="202" y="-67.5" font-family="SegoeUI" font-size="10.00">Juniper.Unity.Input.Pointers.</text>
<text text-anchor="middle" x="286.5" y="-56.5" font-family="SegoeUI" font-size="10.00">Motion.OculusTouchProbeConfiguration</text>
</a>
</g>
</g>
<!-- Node415&#45;&gt;Node0 -->
<g id="edge1" class="edge"><title>Node415&#45;&gt;Node0</title>
<path fill="none" stroke="midnightblue" d="M168.405,-50.2548C176.773,-51.2729 185.27,-52.3066 193.67,-53.3284"/>
<polygon fill="midnightblue" stroke="midnightblue" points="168.626,-46.7561 158.277,-49.0227 167.781,-53.7049 168.626,-46.7561"/>
</g>
<!-- Node417 -->
<g id="node3" class="node"><title>Node417</title>
<g id="a_node3"><a xlink:href="d2/d55/class_juniper_1_1_unity_1_1_input_1_1_pointers_1_1_motion_1_1_windows_m_r_probe_configuration.html" target="_top" xlink:title=" ">
<polygon fill="white" stroke="black" points="195.5,-0.5 195.5,-30.5 377.5,-30.5 377.5,-0.5 195.5,-0.5"/>
<text text-anchor="start" x="203.5" y="-18.5" font-family="SegoeUI" font-size="10.00">Juniper.Unity.Input.Pointers.</text>
<text text-anchor="middle" x="286.5" y="-7.5" font-family="SegoeUI" font-size="10.00">Motion.WindowsMRProbeConfiguration</text>
</a>
</g>
</g>
<!-- Node415&#45;&gt;Node417 -->
<g id="edge2" class="edge"><title>Node415&#45;&gt;Node417</title>
<path fill="none" stroke="midnightblue" d="M168.326,-29.1845C177.297,-28.1369 186.417,-27.0718 195.406,-26.022"/>
<polygon fill="midnightblue" stroke="midnightblue" points="167.803,-25.7217 158.277,-30.3582 168.615,-32.6745 167.803,-25.7217"/>
</g>
</g>
</svg>
