<?xml version="1.0" encoding="UTF-8" standalone="no"?>
<!DOCTYPE svg PUBLIC "-//W3C//DTD SVG 1.1//EN"
 "http://www.w3.org/Graphics/SVG/1.1/DTD/svg11.dtd">
<!-- Generated by graphviz version 2.38.0 (20140413.2041)
 -->
<!-- Title: Graphical Class Hierarchy Pages: 1 -->
<svg width="590pt" height="100pt"
 viewBox="0.00 0.00 590.00 99.50" xmlns="http://www.w3.org/2000/svg" xmlns:xlink="http://www.w3.org/1999/xlink">
<g id="graph0" class="graph" transform="scale(1 1) rotate(0) translate(4 95.5)">
<title>Graphical Class Hierarchy</title>
<polygon fill="white" stroke="none" points="-4,4 -4,-95.5 586,-95.5 586,4 -4,4"/>
<!-- Node0 -->
<g id="node1" class="node"><title>Node0</title>
<g id="a_node1"><a xlink:href="dc/db8/class_juniper_1_1_unity_1_1_input_1_1_pointers_1_1_screen_1_1_abstract_screen_device.html" target="_top" xlink:title=" ">
<polygon fill="white" stroke="black" points="0,-22 0,-63 236,-63 236,-22 0,-22"/>
<text text-anchor="start" x="8" y="-51" font-family="SegoeUI" font-size="10.00">Juniper.Unity.Input.Pointers.</text>
<text text-anchor="start" x="8" y="-40" font-family="SegoeUI" font-size="10.00">Screen.AbstractScreenDevice</text>
<text text-anchor="middle" x="118" y="-29" font-family="SegoeUI" font-size="10.00">&lt; Unary, HapticsType, UnaryPointerConfiguration &gt;</text>
</a>
</g>
</g>
<!-- Node1 -->
<g id="node2" class="node"><title>Node1</title>
<g id="a_node2"><a xlink:href="d6/d9c/class_juniper_1_1_unity_1_1_input_1_1_pointers_1_1_gaze_1_1_abstract_gaze_pointer.html" target="_top" xlink:title=" ">
<polygon fill="white" stroke="black" points="272,-50 272,-91 409,-91 409,-50 272,-50"/>
<text text-anchor="start" x="280" y="-79" font-family="SegoeUI" font-size="10.00">Juniper.Unity.Input.Pointers.</text>
<text text-anchor="start" x="280" y="-68" font-family="SegoeUI" font-size="10.00">Gaze.AbstractGazePointer</text>
<text text-anchor="middle" x="340.5" y="-57" font-family="SegoeUI" font-size="10.00">&lt; HapticsType &gt;</text>
</a>
</g>
</g>
<!-- Node0&#45;&gt;Node1 -->
<g id="edge1" class="edge"><title>Node0&#45;&gt;Node1</title>
<path fill="none" stroke="midnightblue" d="M246.054,-58.6338C254.888,-59.7556 263.575,-60.8587 271.88,-61.9133"/>
<polygon fill="midnightblue" stroke="midnightblue" points="246.39,-55.1485 236.029,-57.3608 245.509,-62.0928 246.39,-55.1485"/>
</g>
<!-- Node3 -->
<g id="node4" class="node"><title>Node3</title>
<g id="a_node4"><a xlink:href="dd/d87/class_juniper_1_1_unity_1_1_input_1_1_pointers_1_1_screen_1_1_touch_point.html" target="_top" xlink:title="Perform pointer events on touch screens.">
<polygon fill="white" stroke="black" points="272,-0.5 272,-30.5 409,-30.5 409,-0.5 272,-0.5"/>
<text text-anchor="start" x="280" y="-18.5" font-family="SegoeUI" font-size="10.00">Juniper.Unity.Input.Pointers.</text>
<text text-anchor="middle" x="340.5" y="-7.5" font-family="SegoeUI" font-size="10.00">Screen.TouchPoint</text>
</a>
</g>
</g>
<!-- Node0&#45;&gt;Node3 -->
<g id="edge3" class="edge"><title>Node0&#45;&gt;Node3</title>
<path fill="none" stroke="midnightblue" d="M246.054,-26.9424C254.888,-25.8607 263.575,-24.797 271.88,-23.78"/>
<polygon fill="midnightblue" stroke="midnightblue" points="245.53,-23.4803 236.029,-28.1699 246.38,-30.4285 245.53,-23.4803"/>
</g>
<!-- Node2 -->
<g id="node3" class="node"><title>Node2</title>
<g id="a_node3"><a xlink:href="d2/d3e/class_juniper_1_1_unity_1_1_input_1_1_pointers_1_1_gaze_1_1_touch_gaze_pointer.html" target="_top" xlink:title=" ">
<polygon fill="white" stroke="black" points="445,-55.5 445,-85.5 582,-85.5 582,-55.5 445,-55.5"/>
<text text-anchor="start" x="453" y="-73.5" font-family="SegoeUI" font-size="10.00">Juniper.Unity.Input.Pointers.</text>
<text text-anchor="middle" x="513.5" y="-62.5" font-family="SegoeUI" font-size="10.00">Gaze.TouchGazePointer</text>
</a>
</g>
</g>
<!-- Node1&#45;&gt;Node2 -->
<g id="edge2" class="edge"><title>Node1&#45;&gt;Node2</title>
<path fill="none" stroke="midnightblue" d="M419.1,-70.5C427.692,-70.5 436.391,-70.5 444.847,-70.5"/>
<polygon fill="midnightblue" stroke="midnightblue" points="419.084,-67.0001 409.084,-70.5 419.084,-74.0001 419.084,-67.0001"/>
</g>
</g>
</svg>
