<?xml version="1.0" encoding="UTF-8" standalone="no"?>
<!DOCTYPE svg PUBLIC "-//W3C//DTD SVG 1.1//EN"
 "http://www.w3.org/Graphics/SVG/1.1/DTD/svg11.dtd">
<!-- Generated by graphviz version 2.38.0 (20140413.2041)
 -->
<!-- Title: Graphical Class Hierarchy Pages: 1 -->
<svg width="221pt" height="137pt"
 viewBox="0.00 0.00 221.00 137.00" xmlns="http://www.w3.org/2000/svg" xmlns:xlink="http://www.w3.org/1999/xlink">
<g id="graph0" class="graph" transform="scale(1 1) rotate(0) translate(4 133)">
<title>Graphical Class Hierarchy</title>
<polygon fill="white" stroke="none" points="-4,4 -4,-133 217,-133 217,4 -4,4"/>
<!-- Node466 -->
<g id="node1" class="node"><title>Node466</title>
<g id="a_node1"><a xlink:title=" ">
<polygon fill="white" stroke="#bfbfbf" points="0,-55 0,-74 34,-74 34,-55 0,-55"/>
<text text-anchor="middle" x="17" y="-62" font-family="SegoeUI" font-size="10.00">IList</text>
</a>
</g>
</g>
<!-- Node0 -->
<g id="node2" class="node"><title>Node0</title>
<g id="a_node2"><a xlink:href="dc/d08/class_juniper_1_1_collections_1_1_ring_buffer.html" target="_top" xlink:title="A collection of fixed size that overwrites the oldest items when the collection is full.">
<polygon fill="white" stroke="black" points="82.5,-98.5 82.5,-128.5 200.5,-128.5 200.5,-98.5 82.5,-98.5"/>
<text text-anchor="start" x="90.5" y="-116.5" font-family="SegoeUI" font-size="10.00">Juniper.Collections.Ring</text>
<text text-anchor="middle" x="141.5" y="-105.5" font-family="SegoeUI" font-size="10.00">Buffer&lt; T &gt;</text>
</a>
</g>
</g>
<!-- Node466&#45;&gt;Node0 -->
<g id="edge1" class="edge"><title>Node466&#45;&gt;Node0</title>
<path fill="none" stroke="midnightblue" d="M43.1408,-77.337C51.5799,-81.4438 61.1077,-85.8642 70,-89.5 77.5396,-92.5827 85.638,-95.6017 93.5634,-98.4016"/>
<polygon fill="midnightblue" stroke="midnightblue" points="44.6817,-74.1945 34.1673,-72.8921 41.5746,-80.4671 44.6817,-74.1945"/>
</g>
<!-- Node468 -->
<g id="node3" class="node"><title>Node468</title>
<g id="a_node3"><a xlink:href="d1/d70/class_juniper_1_1_mathematics_1_1_abstract_statistics_collection.html" target="_top" xlink:title="An abstract class for a collection wrapper that can automatically compute statistics on the values co...">
<polygon fill="white" stroke="black" points="70,-49.5 70,-79.5 213,-79.5 213,-49.5 70,-49.5"/>
<text text-anchor="start" x="78" y="-67.5" font-family="SegoeUI" font-size="10.00">Juniper.Mathematics.Abstract</text>
<text text-anchor="middle" x="141.5" y="-56.5" font-family="SegoeUI" font-size="10.00">StatisticsCollection&lt; T &gt;</text>
</a>
</g>
</g>
<!-- Node466&#45;&gt;Node468 -->
<g id="edge2" class="edge"><title>Node466&#45;&gt;Node468</title>
<path fill="none" stroke="midnightblue" d="M44.1045,-64.5C51.8356,-64.5 60.6958,-64.5 69.8428,-64.5"/>
<polygon fill="midnightblue" stroke="midnightblue" points="44.0148,-61.0001 34.0147,-64.5 44.0147,-68.0001 44.0148,-61.0001"/>
</g>
<!-- Node469 -->
<g id="node4" class="node"><title>Node469</title>
<g id="a_node4"><a xlink:href="d1/d6e/class_juniper_1_1_world_1_1_g_i_s_1_1_google_1_1_map_tiles_1_1_line_path_collection.html" target="_top" xlink:title=" ">
<polygon fill="white" stroke="black" points="74,-0.5 74,-30.5 209,-30.5 209,-0.5 74,-0.5"/>
<text text-anchor="start" x="82" y="-18.5" font-family="SegoeUI" font-size="10.00">Juniper.World.GIS.Google.</text>
<text text-anchor="middle" x="141.5" y="-7.5" font-family="SegoeUI" font-size="10.00">MapTiles.LinePathCollection</text>
</a>
</g>
</g>
<!-- Node466&#45;&gt;Node469 -->
<g id="edge3" class="edge"><title>Node466&#45;&gt;Node469</title>
<path fill="none" stroke="midnightblue" d="M43.4841,-52.1726C51.8596,-48.2735 61.2628,-44.0567 70,-40.5 78.2993,-37.1216 87.2464,-33.7481 95.8891,-30.6224"/>
<polygon fill="midnightblue" stroke="midnightblue" points="41.7731,-49.1099 34.2255,-56.5453 44.7625,-55.4395 41.7731,-49.1099"/>
</g>
</g>
</svg>
