<?xml version="1.0" encoding="UTF-8" standalone="no"?>
<!DOCTYPE svg PUBLIC "-//W3C//DTD SVG 1.1//EN"
 "http://www.w3.org/Graphics/SVG/1.1/DTD/svg11.dtd">
<!-- Generated by graphviz version 2.38.0 (20140413.2041)
 -->
<!-- Title: Graphical Class Hierarchy Pages: 1 -->
<svg width="321pt" height="88pt"
 viewBox="0.00 0.00 321.00 88.00" xmlns="http://www.w3.org/2000/svg" xmlns:xlink="http://www.w3.org/1999/xlink">
<g id="graph0" class="graph" transform="scale(1 1) rotate(0) translate(4 84)">
<title>Graphical Class Hierarchy</title>
<polygon fill="white" stroke="none" points="-4,4 -4,-84 317,-84 317,4 -4,4"/>
<!-- Node0 -->
<g id="node1" class="node"><title>Node0</title>
<g id="a_node1"><a xlink:href="db/d46/class_juniper_1_1_unity_1_1_configuration_management_1_1_abstract_package.html" target="_top" xlink:title=" ">
<polygon fill="white" stroke="black" points="0,-24.5 0,-54.5 146,-54.5 146,-24.5 0,-24.5"/>
<text text-anchor="start" x="8" y="-42.5" font-family="SegoeUI" font-size="10.00">Juniper.Unity.Configuration</text>
<text text-anchor="middle" x="73" y="-31.5" font-family="SegoeUI" font-size="10.00">Management.AbstractPackage</text>
</a>
</g>
</g>
<!-- Node1 -->
<g id="node2" class="node"><title>Node1</title>
<g id="a_node2"><a xlink:href="da/d20/class_juniper_1_1_unity_1_1_configuration_management_1_1_raw_package.html" target="_top" xlink:title=" ">
<polygon fill="white" stroke="black" points="182,-49.5 182,-79.5 313,-79.5 313,-49.5 182,-49.5"/>
<text text-anchor="start" x="190" y="-67.5" font-family="SegoeUI" font-size="10.00">Juniper.Unity.Configuration</text>
<text text-anchor="middle" x="247.5" y="-56.5" font-family="SegoeUI" font-size="10.00">Management.RawPackage</text>
</a>
</g>
</g>
<!-- Node0&#45;&gt;Node1 -->
<g id="edge1" class="edge"><title>Node0&#45;&gt;Node1</title>
<path fill="none" stroke="midnightblue" d="M156.193,-51.412C164.781,-52.6566 173.423,-53.9091 181.777,-55.1198"/>
<polygon fill="midnightblue" stroke="midnightblue" points="156.555,-47.928 146.156,-49.9574 155.551,-54.8556 156.555,-47.928"/>
</g>
<!-- Node2 -->
<g id="node3" class="node"><title>Node2</title>
<g id="a_node3"><a xlink:href="d1/d38/class_juniper_1_1_unity_1_1_configuration_management_1_1_unity_package.html" target="_top" xlink:title=" ">
<polygon fill="white" stroke="black" points="182,-0.5 182,-30.5 313,-30.5 313,-0.5 182,-0.5"/>
<text text-anchor="start" x="190" y="-18.5" font-family="SegoeUI" font-size="10.00">Juniper.Unity.Configuration</text>
<text text-anchor="middle" x="247.5" y="-7.5" font-family="SegoeUI" font-size="10.00">Management.UnityPackage</text>
</a>
</g>
</g>
<!-- Node0&#45;&gt;Node2 -->
<g id="edge2" class="edge"><title>Node0&#45;&gt;Node2</title>
<path fill="none" stroke="midnightblue" d="M156.193,-28.0645C164.781,-26.8696 173.423,-25.6673 181.777,-24.505"/>
<polygon fill="midnightblue" stroke="midnightblue" points="155.578,-24.6162 146.156,-29.4609 156.543,-31.5494 155.578,-24.6162"/>
</g>
</g>
</svg>
