<?xml version="1.0" encoding="UTF-8" standalone="no"?>
<!DOCTYPE svg PUBLIC "-//W3C//DTD SVG 1.1//EN"
 "http://www.w3.org/Graphics/SVG/1.1/DTD/svg11.dtd">
<!-- Generated by graphviz version 2.38.0 (20140413.2041)
 -->
<!-- Title: Graphical Class Hierarchy Pages: 1 -->
<svg width="205pt" height="88pt"
 viewBox="0.00 0.00 205.00 88.00" xmlns="http://www.w3.org/2000/svg" xmlns:xlink="http://www.w3.org/1999/xlink">
<g id="graph0" class="graph" transform="scale(1 1) rotate(0) translate(4 84)">
<title>Graphical Class Hierarchy</title>
<polygon fill="white" stroke="none" points="-4,4 -4,-84 201,-84 201,4 -4,4"/>
<!-- Node302 -->
<g id="node1" class="node"><title>Node302</title>
<g id="a_node1"><a xlink:title=" ">
<polygon fill="white" stroke="#bfbfbf" points="0,-30 0,-49 34,-49 34,-30 0,-30"/>
<text text-anchor="middle" x="17" y="-37" font-family="SegoeUI" font-size="10.00">IList</text>
</a>
</g>
</g>
<!-- Node0 -->
<g id="node2" class="node"><title>Node0</title>
<g id="a_node2"><a xlink:href="dc/d08/class_juniper_1_1_collections_1_1_ring_buffer.html" target="_top" xlink:title="A collection of fixed size that overwrites the oldest items when the collection is full.">
<polygon fill="white" stroke="black" points="74.5,-49.5 74.5,-79.5 192.5,-79.5 192.5,-49.5 74.5,-49.5"/>
<text text-anchor="start" x="82.5" y="-67.5" font-family="SegoeUI" font-size="10.00">Juniper.Collections.Ring</text>
<text text-anchor="middle" x="133.5" y="-56.5" font-family="SegoeUI" font-size="10.00">Buffer&lt; T &gt;</text>
</a>
</g>
</g>
<!-- Node302&#45;&gt;Node0 -->
<g id="edge1" class="edge"><title>Node302&#45;&gt;Node0</title>
<path fill="none" stroke="midnightblue" d="M44.225,-45.226C53.238,-47.1939 63.7209,-49.4827 74.2489,-51.7814"/>
<polygon fill="midnightblue" stroke="midnightblue" points="44.9215,-41.7957 34.4051,-43.0819 43.4283,-48.6346 44.9215,-41.7957"/>
</g>
<!-- Node304 -->
<g id="node3" class="node"><title>Node304</title>
<g id="a_node3"><a xlink:href="dc/d87/class_juniper_1_1_statistics_1_1_abstract_collection_statistics.html" target="_top" xlink:title="An abstract class for a collection wrapper that can automatically compute statistics on the values co...">
<polygon fill="white" stroke="black" points="70,-0.5 70,-30.5 197,-30.5 197,-0.5 70,-0.5"/>
<text text-anchor="start" x="78" y="-18.5" font-family="SegoeUI" font-size="10.00">Juniper.Statistics.Abstract</text>
<text text-anchor="middle" x="133.5" y="-7.5" font-family="SegoeUI" font-size="10.00">CollectionStatistics&lt; T &gt;</text>
</a>
</g>
</g>
<!-- Node302&#45;&gt;Node304 -->
<g id="edge2" class="edge"><title>Node302&#45;&gt;Node304</title>
<path fill="none" stroke="midnightblue" d="M44.2387,-34.0002C52.009,-32.3715 60.8709,-30.514 69.912,-28.6189"/>
<polygon fill="midnightblue" stroke="midnightblue" points="43.4743,-30.5843 34.4051,-36.0614 44.9104,-37.4354 43.4743,-30.5843"/>
</g>
</g>
</svg>
