<?xml version="1.0" encoding="UTF-8" standalone="no"?>
<!DOCTYPE svg PUBLIC "-//W3C//DTD SVG 1.1//EN"
 "http://www.w3.org/Graphics/SVG/1.1/DTD/svg11.dtd">
<!-- Generated by graphviz version 2.38.0 (20140413.2041)
 -->
<!-- Title: Graphical Class Hierarchy Pages: 1 -->
<svg width="344pt" height="39pt"
 viewBox="0.00 0.00 344.00 39.00" xmlns="http://www.w3.org/2000/svg" xmlns:xlink="http://www.w3.org/1999/xlink">
<g id="graph0" class="graph" transform="scale(1 1) rotate(0) translate(4 35)">
<title>Graphical Class Hierarchy</title>
<polygon fill="white" stroke="none" points="-4,4 -4,-35 340,-35 340,4 -4,4"/>
<!-- Node0 -->
<g id="node1" class="node"><title>Node0</title>
<g id="a_node1"><a xlink:href="d1/d32/class_juniper_1_1_h_t_t_p_1_1_web_socket_connection.html" target="_top" xlink:title=" ">
<polygon fill="white" stroke="black" points="0,-0.5 0,-30.5 172,-30.5 172,-0.5 0,-0.5"/>
<text text-anchor="start" x="8" y="-18.5" font-family="SegoeUI" font-size="10.00">Juniper.HTTP.WebSocketConnection</text>
<text text-anchor="middle" x="86" y="-7.5" font-family="SegoeUI" font-size="10.00">&lt; ClientWebSocket &gt;</text>
</a>
</g>
</g>
<!-- Node1 -->
<g id="node2" class="node"><title>Node1</title>
<g id="a_node2"><a xlink:href="dd/dc7/class_juniper_1_1_h_t_t_p_1_1_client_1_1_client_web_socket_connection.html" target="_top" xlink:title=" ">
<polygon fill="white" stroke="black" points="208,-0.5 208,-30.5 336,-30.5 336,-0.5 208,-0.5"/>
<text text-anchor="start" x="216" y="-18.5" font-family="SegoeUI" font-size="10.00">Juniper.HTTP.Client.Client</text>
<text text-anchor="middle" x="272" y="-7.5" font-family="SegoeUI" font-size="10.00">WebSocketConnection</text>
</a>
</g>
</g>
<!-- Node0&#45;&gt;Node1 -->
<g id="edge1" class="edge"><title>Node0&#45;&gt;Node1</title>
<path fill="none" stroke="midnightblue" d="M182.438,-15.5C191.102,-15.5 199.725,-15.5 207.999,-15.5"/>
<polygon fill="midnightblue" stroke="midnightblue" points="182.267,-12.0001 172.267,-15.5 182.267,-19.0001 182.267,-12.0001"/>
</g>
</g>
</svg>
