<?xml version="1.0" encoding="UTF-8" standalone="no"?>
<!DOCTYPE svg PUBLIC "-//W3C//DTD SVG 1.1//EN"
 "http://www.w3.org/Graphics/SVG/1.1/DTD/svg11.dtd">
<!-- Generated by graphviz version 2.38.0 (20140413.2041)
 -->
<!-- Title: Graphical Class Hierarchy Pages: 1 -->
<svg width="325pt" height="39pt"
 viewBox="0.00 0.00 325.00 39.00" xmlns="http://www.w3.org/2000/svg" xmlns:xlink="http://www.w3.org/1999/xlink">
<g id="graph0" class="graph" transform="scale(1 1) rotate(0) translate(4 35)">
<title>Graphical Class Hierarchy</title>
<polygon fill="white" stroke="none" points="-4,4 -4,-35 321,-35 321,4 -4,4"/>
<!-- Node0 -->
<g id="node1" class="node"><title>Node0</title>
<g id="a_node1"><a xlink:href="d8/d6c/class_juniper_1_1_input_1_1_abstract_polling_key_event_source.html" target="_top" xlink:title=" ">
<polygon fill="white" stroke="black" points="0,-0.5 0,-30.5 138,-30.5 138,-0.5 0,-0.5"/>
<text text-anchor="start" x="8" y="-18.5" font-family="SegoeUI" font-size="10.00">Juniper.Input.AbstractPolling</text>
<text text-anchor="middle" x="69" y="-7.5" font-family="SegoeUI" font-size="10.00">KeyEventSource&lt; Key &gt;</text>
</a>
</g>
</g>
<!-- Node1 -->
<g id="node2" class="node"><title>Node1</title>
<g id="a_node2"><a xlink:href="d3/dd4/class_juniper_1_1_input_1_1_windows_a_p_i_key_event_source.html" target="_top" xlink:title=" ">
<polygon fill="white" stroke="black" points="174,-0.5 174,-30.5 317,-30.5 317,-0.5 174,-0.5"/>
<text text-anchor="start" x="182" y="-18.5" font-family="SegoeUI" font-size="10.00">Juniper.Input.WindowsAPIKey</text>
<text text-anchor="middle" x="245.5" y="-7.5" font-family="SegoeUI" font-size="10.00">EventSource</text>
</a>
</g>
</g>
<!-- Node0&#45;&gt;Node1 -->
<g id="edge1" class="edge"><title>Node0&#45;&gt;Node1</title>
<path fill="none" stroke="midnightblue" d="M148.427,-15.5C156.861,-15.5 165.407,-15.5 173.743,-15.5"/>
<polygon fill="midnightblue" stroke="midnightblue" points="148.216,-12.0001 138.216,-15.5 148.216,-19.0001 148.216,-12.0001"/>
</g>
</g>
</svg>
