<?xml version="1.0" encoding="UTF-8" standalone="no"?>
<!DOCTYPE svg PUBLIC "-//W3C//DTD SVG 1.1//EN"
 "http://www.w3.org/Graphics/SVG/1.1/DTD/svg11.dtd">
<!-- Generated by graphviz version 2.38.0 (20140413.2041)
 -->
<!-- Title: Graphical Class Hierarchy Pages: 1 -->
<svg width="304pt" height="1122pt"
 viewBox="0.00 0.00 304.00 1122.00" xmlns="http://www.w3.org/2000/svg" xmlns:xlink="http://www.w3.org/1999/xlink">
<g id="graph0" class="graph" transform="scale(1 1) rotate(0) translate(4 1118)">
<title>Graphical Class Hierarchy</title>
<polygon fill="white" stroke="none" points="-4,4 -4,-1118 300,-1118 300,4 -4,4"/>
<!-- Node964 -->
<g id="node1" class="node"><title>Node964</title>
<g id="a_node1"><a xlink:title=" ">
<polygon fill="white" stroke="#bfbfbf" points="18,-1083.5 18,-1113.5 135,-1113.5 135,-1083.5 18,-1083.5"/>
<text text-anchor="start" x="26" y="-1101.5" font-family="SegoeUI" font-size="10.00">AbstractNamedAction</text>
<text text-anchor="middle" x="76.5" y="-1090.5" font-family="SegoeUI" font-size="10.00">&lt; Func&lt; T, TResult &gt;&gt;</text>
</a>
</g>
</g>
<!-- Node0 -->
<g id="node2" class="node"><title>Node0</title>
<g id="a_node2"><a xlink:href="dd/d62/class_juniper_1_1_named_func.html" target="_top" xlink:title=" ">
<polygon fill="white" stroke="black" points="189,-476 189,-517 296,-517 296,-476 189,-476"/>
<text text-anchor="start" x="197" y="-505" font-family="SegoeUI" font-size="10.00">Juniper.NamedFunc&lt;</text>
<text text-anchor="start" x="197" y="-494" font-family="SegoeUI" font-size="10.00"> T1, T2, T3, T4, T5,</text>
<text text-anchor="middle" x="242.5" y="-483" font-family="SegoeUI" font-size="10.00"> TResult &gt;</text>
</a>
</g>
</g>
<!-- Node964&#45;&gt;Node0 -->
<g id="edge1" class="edge"><title>Node964&#45;&gt;Node0</title>
<path fill="none" stroke="midnightblue" d="M144.039,-1081.73C147.339,-1079.34 150.368,-1076.61 153,-1073.5 226.263,-986.804 239.074,-610.06 241.131,-517.229"/>
<polygon fill="midnightblue" stroke="midnightblue" points="142.084,-1078.83 135.35,-1087.01 145.715,-1084.81 142.084,-1078.83"/>
</g>
<!-- Node963 -->
<g id="node3" class="node"><title>Node963</title>
<g id="a_node3"><a xlink:title=" ">
<polygon fill="white" stroke="#bfbfbf" points="8.5,-1001 8.5,-1064 144.5,-1064 144.5,-1001 8.5,-1001"/>
<text text-anchor="start" x="16.5" y="-1052" font-family="SegoeUI" font-size="10.00">AbstractNamedAction</text>
<text text-anchor="start" x="16.5" y="-1041" font-family="SegoeUI" font-size="10.00">&lt; Func&lt; T1, T2, T3,</text>
<text text-anchor="start" x="16.5" y="-1030" font-family="SegoeUI" font-size="10.00"> T4, T5, T6, T7, T8,</text>
<text text-anchor="start" x="16.5" y="-1019" font-family="SegoeUI" font-size="10.00"> T9, T10, T11, T12, T13,</text>
<text text-anchor="middle" x="76.5" y="-1008" font-family="SegoeUI" font-size="10.00"> T14, T15, T16, TResult &gt;&gt;</text>
</a>
</g>
</g>
<!-- Node963&#45;&gt;Node0 -->
<g id="edge2" class="edge"><title>Node963&#45;&gt;Node0</title>
<path fill="none" stroke="midnightblue" d="M151.587,-993.379C152.071,-992.761 152.542,-992.135 153,-991.5 209.515,-913.187 234.447,-600.503 240.175,-517.057"/>
<polygon fill="midnightblue" stroke="midnightblue" points="148.849,-991.186 144.672,-1000.92 154.009,-995.916 148.849,-991.186"/>
</g>
<!-- Node962 -->
<g id="node4" class="node"><title>Node962</title>
<g id="a_node4"><a xlink:title=" ">
<polygon fill="white" stroke="#bfbfbf" points="14.5,-919 14.5,-982 138.5,-982 138.5,-919 14.5,-919"/>
<text text-anchor="start" x="22.5" y="-970" font-family="SegoeUI" font-size="10.00">AbstractNamedAction</text>
<text text-anchor="start" x="22.5" y="-959" font-family="SegoeUI" font-size="10.00">&lt; Func&lt; T1, T2, T3,</text>
<text text-anchor="start" x="22.5" y="-948" font-family="SegoeUI" font-size="10.00"> T4, T5, T6, T7, T8,</text>
<text text-anchor="start" x="22.5" y="-937" font-family="SegoeUI" font-size="10.00"> T9, T10, T11, T12, T13,</text>
<text text-anchor="middle" x="76.5" y="-926" font-family="SegoeUI" font-size="10.00"> T14, T15, TResult &gt;&gt;</text>
</a>
</g>
</g>
<!-- Node962&#45;&gt;Node0 -->
<g id="edge3" class="edge"><title>Node962&#45;&gt;Node0</title>
<path fill="none" stroke="midnightblue" d="M146.336,-917.102C148.75,-914.719 150.99,-912.187 153,-909.5 200.819,-845.568 231.319,-591.591 239.366,-517.123"/>
<polygon fill="midnightblue" stroke="midnightblue" points="143.874,-914.604 138.628,-923.809 148.469,-919.885 143.874,-914.604"/>
</g>
<!-- Node961 -->
<g id="node5" class="node"><title>Node961</title>
<g id="a_node5"><a xlink:title=" ">
<polygon fill="white" stroke="#bfbfbf" points="14.5,-837 14.5,-900 138.5,-900 138.5,-837 14.5,-837"/>
<text text-anchor="start" x="22.5" y="-888" font-family="SegoeUI" font-size="10.00">AbstractNamedAction</text>
<text text-anchor="start" x="22.5" y="-877" font-family="SegoeUI" font-size="10.00">&lt; Func&lt; T1, T2, T3,</text>
<text text-anchor="start" x="22.5" y="-866" font-family="SegoeUI" font-size="10.00"> T4, T5, T6, T7, T8,</text>
<text text-anchor="start" x="22.5" y="-855" font-family="SegoeUI" font-size="10.00"> T9, T10, T11, T12, T13,</text>
<text text-anchor="middle" x="76.5" y="-844" font-family="SegoeUI" font-size="10.00"> T14, TResult &gt;&gt;</text>
</a>
</g>
</g>
<!-- Node961&#45;&gt;Node0 -->
<g id="edge4" class="edge"><title>Node961&#45;&gt;Node0</title>
<path fill="none" stroke="midnightblue" d="M146.333,-834.817C148.73,-832.515 150.969,-830.078 153,-827.5 229.385,-730.546 240.086,-573.301 241.399,-517.2"/>
<polygon fill="midnightblue" stroke="midnightblue" points="144.048,-832.166 138.72,-841.323 148.596,-837.487 144.048,-832.166"/>
</g>
<!-- Node960 -->
<g id="node6" class="node"><title>Node960</title>
<g id="a_node6"><a xlink:title=" ">
<polygon fill="white" stroke="#bfbfbf" points="14.5,-755 14.5,-818 138.5,-818 138.5,-755 14.5,-755"/>
<text text-anchor="start" x="22.5" y="-806" font-family="SegoeUI" font-size="10.00">AbstractNamedAction</text>
<text text-anchor="start" x="22.5" y="-795" font-family="SegoeUI" font-size="10.00">&lt; Func&lt; T1, T2, T3,</text>
<text text-anchor="start" x="22.5" y="-784" font-family="SegoeUI" font-size="10.00"> T4, T5, T6, T7, T8,</text>
<text text-anchor="start" x="22.5" y="-773" font-family="SegoeUI" font-size="10.00"> T9, T10, T11, T12, T13,</text>
<text text-anchor="middle" x="76.5" y="-762" font-family="SegoeUI" font-size="10.00"> TResult &gt;&gt;</text>
</a>
</g>
</g>
<!-- Node960&#45;&gt;Node0 -->
<g id="edge5" class="edge"><title>Node960&#45;&gt;Node0</title>
<path fill="none" stroke="midnightblue" d="M146.695,-752.041C148.932,-749.964 151.046,-747.785 153,-745.5 212.629,-675.76 233.104,-563.011 239.208,-517.021"/>
<polygon fill="midnightblue" stroke="midnightblue" points="144.126,-749.624 138.669,-758.706 148.598,-755.01 144.126,-749.624"/>
</g>
<!-- Node959 -->
<g id="node7" class="node"><title>Node959</title>
<g id="a_node7"><a xlink:title=" ">
<polygon fill="white" stroke="#bfbfbf" points="0,-683.5 0,-735.5 153,-735.5 153,-683.5 0,-683.5"/>
<text text-anchor="start" x="8" y="-723.5" font-family="SegoeUI" font-size="10.00">AbstractNamedAction</text>
<text text-anchor="start" x="8" y="-712.5" font-family="SegoeUI" font-size="10.00">&lt; Func&lt; T1, T2, T3,</text>
<text text-anchor="start" x="8" y="-701.5" font-family="SegoeUI" font-size="10.00"> T4, T5, T6, T7, T8,</text>
<text text-anchor="middle" x="76.5" y="-690.5" font-family="SegoeUI" font-size="10.00"> T9, T10, T11, T12, TResult &gt;&gt;</text>
</a>
</g>
</g>
<!-- Node959&#45;&gt;Node0 -->
<g id="edge6" class="edge"><title>Node959&#45;&gt;Node0</title>
<path fill="none" stroke="midnightblue" d="M150.124,-677.159C151.108,-676.293 152.068,-675.407 153,-674.5 199.872,-628.891 225.845,-553.27 236.176,-517.06"/>
<polygon fill="midnightblue" stroke="midnightblue" points="147.859,-674.487 142.145,-683.409 152.176,-679.998 147.859,-674.487"/>
</g>
<!-- Node958 -->
<g id="node8" class="node"><title>Node958</title>
<g id="a_node8"><a xlink:title=" ">
<polygon fill="white" stroke="#bfbfbf" points="11,-612.5 11,-664.5 142,-664.5 142,-612.5 11,-612.5"/>
<text text-anchor="start" x="19" y="-652.5" font-family="SegoeUI" font-size="10.00">AbstractNamedAction</text>
<text text-anchor="start" x="19" y="-641.5" font-family="SegoeUI" font-size="10.00">&lt; Func&lt; T1, T2, T3,</text>
<text text-anchor="start" x="19" y="-630.5" font-family="SegoeUI" font-size="10.00"> T4, T5, T6, T7, T8,</text>
<text text-anchor="middle" x="76.5" y="-619.5" font-family="SegoeUI" font-size="10.00"> T9, T10, T11, TResult &gt;&gt;</text>
</a>
</g>
</g>
<!-- Node958&#45;&gt;Node0 -->
<g id="edge7" class="edge"><title>Node958&#45;&gt;Node0</title>
<path fill="none" stroke="midnightblue" d="M148.235,-606.988C149.864,-605.854 151.456,-604.691 153,-603.5 184.88,-578.915 212.828,-540.871 228.407,-517.391"/>
<polygon fill="midnightblue" stroke="midnightblue" points="146.322,-604.057 139.816,-612.419 150.116,-609.939 146.322,-604.057"/>
</g>
<!-- Node957 -->
<g id="node9" class="node"><title>Node957</title>
<g id="a_node9"><a xlink:title=" ">
<polygon fill="white" stroke="#bfbfbf" points="22.5,-541.5 22.5,-593.5 130.5,-593.5 130.5,-541.5 22.5,-541.5"/>
<text text-anchor="start" x="30.5" y="-581.5" font-family="SegoeUI" font-size="10.00">AbstractNamedAction</text>
<text text-anchor="start" x="30.5" y="-570.5" font-family="SegoeUI" font-size="10.00">&lt; Func&lt; T1, T2, T3,</text>
<text text-anchor="start" x="30.5" y="-559.5" font-family="SegoeUI" font-size="10.00"> T4, T5, T6, T7, T8,</text>
<text text-anchor="middle" x="76.5" y="-548.5" font-family="SegoeUI" font-size="10.00"> T9, T10, TResult &gt;&gt;</text>
</a>
</g>
</g>
<!-- Node957&#45;&gt;Node0 -->
<g id="edge8" class="edge"><title>Node957&#45;&gt;Node0</title>
<path fill="none" stroke="midnightblue" d="M139.986,-540.448C157.922,-532.683 177.181,-524.345 194.052,-517.041"/>
<polygon fill="midnightblue" stroke="midnightblue" points="138.532,-537.263 130.746,-544.448 141.314,-543.687 138.532,-537.263"/>
</g>
<!-- Node956 -->
<g id="node10" class="node"><title>Node956</title>
<g id="a_node10"><a xlink:title=" ">
<polygon fill="white" stroke="#bfbfbf" points="22.5,-470.5 22.5,-522.5 130.5,-522.5 130.5,-470.5 22.5,-470.5"/>
<text text-anchor="start" x="30.5" y="-510.5" font-family="SegoeUI" font-size="10.00">AbstractNamedAction</text>
<text text-anchor="start" x="30.5" y="-499.5" font-family="SegoeUI" font-size="10.00">&lt; Func&lt; T1, T2, T3,</text>
<text text-anchor="start" x="30.5" y="-488.5" font-family="SegoeUI" font-size="10.00"> T4, T5, T6, T7, T8,</text>
<text text-anchor="middle" x="76.5" y="-477.5" font-family="SegoeUI" font-size="10.00"> T9, TResult &gt;&gt;</text>
</a>
</g>
</g>
<!-- Node956&#45;&gt;Node0 -->
<g id="edge9" class="edge"><title>Node956&#45;&gt;Node0</title>
<path fill="none" stroke="midnightblue" d="M140.972,-496.5C156.786,-496.5 173.57,-496.5 188.801,-496.5"/>
<polygon fill="midnightblue" stroke="midnightblue" points="140.746,-493 130.746,-496.5 140.746,-500 140.746,-493"/>
</g>
<!-- Node955 -->
<g id="node11" class="node"><title>Node955</title>
<g id="a_node11"><a xlink:title=" ">
<polygon fill="white" stroke="#bfbfbf" points="22.5,-399.5 22.5,-451.5 130.5,-451.5 130.5,-399.5 22.5,-399.5"/>
<text text-anchor="start" x="30.5" y="-439.5" font-family="SegoeUI" font-size="10.00">AbstractNamedAction</text>
<text text-anchor="start" x="30.5" y="-428.5" font-family="SegoeUI" font-size="10.00">&lt; Func&lt; T1, T2, T3,</text>
<text text-anchor="start" x="30.5" y="-417.5" font-family="SegoeUI" font-size="10.00"> T4, T5, T6, T7, T8,</text>
<text text-anchor="middle" x="76.5" y="-406.5" font-family="SegoeUI" font-size="10.00"> TResult &gt;&gt;</text>
</a>
</g>
</g>
<!-- Node955&#45;&gt;Node0 -->
<g id="edge10" class="edge"><title>Node955&#45;&gt;Node0</title>
<path fill="none" stroke="midnightblue" d="M139.986,-452.552C157.922,-460.317 177.181,-468.655 194.052,-475.959"/>
<polygon fill="midnightblue" stroke="midnightblue" points="141.314,-449.313 130.746,-448.552 138.532,-455.737 141.314,-449.313"/>
</g>
<!-- Node954 -->
<g id="node12" class="node"><title>Node954</title>
<g id="a_node12"><a xlink:title=" ">
<polygon fill="white" stroke="#bfbfbf" points="8,-339 8,-380 145,-380 145,-339 8,-339"/>
<text text-anchor="start" x="16" y="-368" font-family="SegoeUI" font-size="10.00">AbstractNamedAction</text>
<text text-anchor="start" x="16" y="-357" font-family="SegoeUI" font-size="10.00">&lt; Func&lt; T1, T2, T3,</text>
<text text-anchor="middle" x="76.5" y="-346" font-family="SegoeUI" font-size="10.00"> T4, T5, T6, T7, TResult &gt;&gt;</text>
</a>
</g>
</g>
<!-- Node954&#45;&gt;Node0 -->
<g id="edge11" class="edge"><title>Node954&#45;&gt;Node0</title>
<path fill="none" stroke="midnightblue" d="M144.748,-385.007C147.605,-386.743 150.371,-388.574 153,-390.5 185.488,-414.305 213.449,-452.516 228.834,-475.974"/>
<polygon fill="midnightblue" stroke="midnightblue" points="146.384,-381.912 135.949,-380.08 142.964,-388.02 146.384,-381.912"/>
</g>
<!-- Node953 -->
<g id="node13" class="node"><title>Node953</title>
<g id="a_node13"><a xlink:title=" ">
<polygon fill="white" stroke="#bfbfbf" points="16.5,-279 16.5,-320 136.5,-320 136.5,-279 16.5,-279"/>
<text text-anchor="start" x="24.5" y="-308" font-family="SegoeUI" font-size="10.00">AbstractNamedAction</text>
<text text-anchor="start" x="24.5" y="-297" font-family="SegoeUI" font-size="10.00">&lt; Func&lt; T1, T2, T3,</text>
<text text-anchor="middle" x="76.5" y="-286" font-family="SegoeUI" font-size="10.00"> T4, T5, T6, TResult &gt;&gt;</text>
</a>
</g>
</g>
<!-- Node953&#45;&gt;Node0 -->
<g id="edge12" class="edge"><title>Node953&#45;&gt;Node0</title>
<path fill="none" stroke="midnightblue" d="M145.532,-323.612C148.155,-325.442 150.66,-327.402 153,-329.5 198.811,-370.567 224.991,-441.063 235.722,-475.849"/>
<polygon fill="midnightblue" stroke="midnightblue" points="147.153,-320.499 136.81,-318.199 143.461,-326.446 147.153,-320.499"/>
</g>
<!-- Node952 -->
<g id="node14" class="node"><title>Node952</title>
<g id="a_node14"><a xlink:title=" ">
<polygon fill="white" stroke="#bfbfbf" points="22.5,-219 22.5,-260 130.5,-260 130.5,-219 22.5,-219"/>
<text text-anchor="start" x="30.5" y="-248" font-family="SegoeUI" font-size="10.00">AbstractNamedAction</text>
<text text-anchor="start" x="30.5" y="-237" font-family="SegoeUI" font-size="10.00">&lt; Func&lt; T1, T2, T3,</text>
<text text-anchor="middle" x="76.5" y="-226" font-family="SegoeUI" font-size="10.00"> T4, T5, TResult &gt;&gt;</text>
</a>
</g>
</g>
<!-- Node952&#45;&gt;Node0 -->
<g id="edge13" class="edge"><title>Node952&#45;&gt;Node0</title>
<path fill="none" stroke="midnightblue" d="M139.783,-259.126C144.589,-262.123 149.086,-265.56 153,-269.5 212.029,-328.913 232.689,-432.214 239.02,-475.973"/>
<polygon fill="midnightblue" stroke="midnightblue" points="141.3,-255.966 130.854,-254.195 137.916,-262.094 141.3,-255.966"/>
</g>
<!-- Node951 -->
<g id="node15" class="node"><title>Node951</title>
<g id="a_node15"><a xlink:title=" ">
<polygon fill="white" stroke="#bfbfbf" points="22.5,-159 22.5,-200 130.5,-200 130.5,-159 22.5,-159"/>
<text text-anchor="start" x="30.5" y="-188" font-family="SegoeUI" font-size="10.00">AbstractNamedAction</text>
<text text-anchor="start" x="30.5" y="-177" font-family="SegoeUI" font-size="10.00">&lt; Func&lt; T1, T2, T3,</text>
<text text-anchor="middle" x="76.5" y="-166" font-family="SegoeUI" font-size="10.00"> T4, TResult &gt;&gt;</text>
</a>
</g>
</g>
<!-- Node951&#45;&gt;Node0 -->
<g id="edge14" class="edge"><title>Node951&#45;&gt;Node0</title>
<path fill="none" stroke="midnightblue" d="M139.87,-198.681C144.696,-201.775 149.172,-205.356 153,-209.5 225.358,-287.821 238.587,-424.154 240.981,-475.837"/>
<polygon fill="midnightblue" stroke="midnightblue" points="141.299,-195.47 130.866,-193.624 137.871,-201.573 141.299,-195.47"/>
</g>
<!-- Node950 -->
<g id="node16" class="node"><title>Node950</title>
<g id="a_node16"><a xlink:title=" ">
<polygon fill="white" stroke="#bfbfbf" points="22.5,-99 22.5,-140 130.5,-140 130.5,-99 22.5,-99"/>
<text text-anchor="start" x="30.5" y="-128" font-family="SegoeUI" font-size="10.00">AbstractNamedAction</text>
<text text-anchor="start" x="30.5" y="-117" font-family="SegoeUI" font-size="10.00">&lt; Func&lt; T1, T2, T3,</text>
<text text-anchor="middle" x="76.5" y="-106" font-family="SegoeUI" font-size="10.00"> TResult &gt;&gt;</text>
</a>
</g>
</g>
<!-- Node950&#45;&gt;Node0 -->
<g id="edge15" class="edge"><title>Node950&#45;&gt;Node0</title>
<path fill="none" stroke="midnightblue" d="M139.501,-138.099C144.508,-141.319 149.122,-145.089 153,-149.5 238.997,-247.324 243.511,-417.428 242.313,-475.996"/>
<polygon fill="midnightblue" stroke="midnightblue" points="141.193,-135.035 130.761,-133.181 137.76,-141.135 141.193,-135.035"/>
</g>
<!-- Node949 -->
<g id="node17" class="node"><title>Node949</title>
<g id="a_node17"><a xlink:title=" ">
<polygon fill="white" stroke="#bfbfbf" points="6.5,-49.5 6.5,-79.5 146.5,-79.5 146.5,-49.5 6.5,-49.5"/>
<text text-anchor="start" x="14.5" y="-67.5" font-family="SegoeUI" font-size="10.00">AbstractNamedAction</text>
<text text-anchor="middle" x="76.5" y="-56.5" font-family="SegoeUI" font-size="10.00">&lt; Func&lt; T1, T2, TResult &gt;&gt;</text>
</a>
</g>
</g>
<!-- Node949&#45;&gt;Node0 -->
<g id="edge16" class="edge"><title>Node949&#45;&gt;Node0</title>
<path fill="none" stroke="midnightblue" d="M149.172,-85.6887C150.514,-86.8899 151.794,-88.1591 153,-89.5 205.652,-148.031 232.763,-401.454 239.69,-475.877"/>
<polygon fill="midnightblue" stroke="midnightblue" points="150.985,-82.6758 140.869,-79.5249 146.812,-88.2962 150.985,-82.6758"/>
</g>
<!-- Node948 -->
<g id="node18" class="node"><title>Node948</title>
<g id="a_node18"><a xlink:title=" ">
<polygon fill="white" stroke="#bfbfbf" points="22.5,-0.5 22.5,-30.5 130.5,-30.5 130.5,-0.5 22.5,-0.5"/>
<text text-anchor="start" x="30.5" y="-18.5" font-family="SegoeUI" font-size="10.00">AbstractNamedAction</text>
<text text-anchor="middle" x="76.5" y="-7.5" font-family="SegoeUI" font-size="10.00">&lt; Func&lt; TResult &gt;&gt;</text>
</a>
</g>
</g>
<!-- Node948&#45;&gt;Node0 -->
<g id="edge17" class="edge"><title>Node948&#45;&gt;Node0</title>
<path fill="none" stroke="midnightblue" d="M139.81,-29.733C144.729,-32.6755 149.239,-36.2231 153,-40.5 211.584,-107.111 234.836,-396.002 240.217,-475.935"/>
<polygon fill="midnightblue" stroke="midnightblue" points="141.09,-26.458 130.587,-25.0635 137.928,-32.7032 141.09,-26.458"/>
</g>
</g>
</svg>
