<?xml version="1.0" encoding="UTF-8" standalone="no"?>
<!DOCTYPE svg PUBLIC "-//W3C//DTD SVG 1.1//EN"
 "http://www.w3.org/Graphics/SVG/1.1/DTD/svg11.dtd">
<!-- Generated by graphviz version 2.38.0 (20140413.2041)
 -->
<!-- Title: Graphical Class Hierarchy Pages: 1 -->
<svg width="334pt" height="61pt"
 viewBox="0.00 0.00 334.00 61.00" xmlns="http://www.w3.org/2000/svg" xmlns:xlink="http://www.w3.org/1999/xlink">
<g id="graph0" class="graph" transform="scale(1 1) rotate(0) translate(4 57)">
<title>Graphical Class Hierarchy</title>
<polygon fill="white" stroke="none" points="-4,4 -4,-57 330,-57 330,4 -4,4"/>
<!-- Node0 -->
<g id="node1" class="node"><title>Node0</title>
<g id="a_node1"><a xlink:href="d7/d77/class_juniper_1_1_unity_1_1_input_1_1_pointers_1_1_motion_1_1_abstract_handed_pointer.html" target="_top" xlink:title=" ">
<polygon fill="white" stroke="black" points="0,-0.5 0,-52.5 146,-52.5 146,-0.5 0,-0.5"/>
<text text-anchor="start" x="8" y="-40.5" font-family="SegoeUI" font-size="10.00">Juniper.Unity.Input.Pointers.</text>
<text text-anchor="start" x="8" y="-29.5" font-family="SegoeUI" font-size="10.00">Motion.AbstractHandedPointer</text>
<text text-anchor="start" x="8" y="-18.5" font-family="SegoeUI" font-size="10.00">&lt; HandIDType, ButtonIDType,</text>
<text text-anchor="middle" x="73" y="-7.5" font-family="SegoeUI" font-size="10.00"> ConfigType, NoHaptics &gt;</text>
</a>
</g>
</g>
<!-- Node1 -->
<g id="node2" class="node"><title>Node1</title>
<g id="a_node2"><a xlink:href="d0/d0a/class_juniper_1_1_unity_1_1_input_1_1_pointers_1_1_motion_1_1_abstract_hand_tracker.html" target="_top" xlink:title=" ">
<polygon fill="white" stroke="black" points="182,-0.5 182,-52.5 326,-52.5 326,-0.5 182,-0.5"/>
<text text-anchor="start" x="190" y="-40.5" font-family="SegoeUI" font-size="10.00">Juniper.Unity.Input.Pointers.</text>
<text text-anchor="start" x="190" y="-29.5" font-family="SegoeUI" font-size="10.00">Motion.AbstractHandTracker</text>
<text text-anchor="start" x="190" y="-18.5" font-family="SegoeUI" font-size="10.00">&lt; HandIDType, ButtonIDType,</text>
<text text-anchor="middle" x="254" y="-7.5" font-family="SegoeUI" font-size="10.00"> ConfigType &gt;</text>
</a>
</g>
</g>
<!-- Node0&#45;&gt;Node1 -->
<g id="edge1" class="edge"><title>Node0&#45;&gt;Node1</title>
<path fill="none" stroke="midnightblue" d="M156.114,-26.5C164.755,-26.5 173.488,-26.5 181.988,-26.5"/>
<polygon fill="midnightblue" stroke="midnightblue" points="156.032,-23.0001 146.032,-26.5 156.032,-30.0001 156.032,-23.0001"/>
</g>
</g>
</svg>
