<?xml version="1.0" encoding="UTF-8" standalone="no"?>
<!DOCTYPE svg PUBLIC "-//W3C//DTD SVG 1.1//EN"
 "http://www.w3.org/Graphics/SVG/1.1/DTD/svg11.dtd">
<!-- Generated by graphviz version 2.38.0 (20140413.2041)
 -->
<!-- Title: Graphical Class Hierarchy Pages: 1 -->
<svg width="708pt" height="768pt"
 viewBox="0.00 0.00 708.00 768.00" xmlns="http://www.w3.org/2000/svg" xmlns:xlink="http://www.w3.org/1999/xlink">
<g id="graph0" class="graph" transform="scale(1 1) rotate(0) translate(4 764)">
<title>Graphical Class Hierarchy</title>
<polygon fill="white" stroke="none" points="-4,4 -4,-764 704,-764 704,4 -4,4"/>
<!-- Node0 -->
<g id="node1" class="node"><title>Node0</title>
<g id="a_node1"><a xlink:href="d8/dd4/class_hjg_1_1_pngcs_1_1_chunks_1_1_abstract_png_chunk.html" target="_top" xlink:title="Represents a instance of a PNG chunk">
<polygon fill="white" stroke="black" points="0,-280 0,-310 131,-310 131,-280 0,-280"/>
<text text-anchor="start" x="8" y="-298" font-family="SegoeUI" font-size="10.00">Hjg.Pngcs.Chunks.Abstract</text>
<text text-anchor="middle" x="65.5" y="-287" font-family="SegoeUI" font-size="10.00">PngChunk</text>
</a>
</g>
</g>
<!-- Node1 -->
<g id="node2" class="node"><title>Node1</title>
<g id="a_node2"><a xlink:href="d0/d05/class_hjg_1_1_pngcs_1_1_chunks_1_1_png_chunk_multiple.html" target="_top" xlink:title="A Chunk type that allows duplicate in an image">
<polygon fill="white" stroke="black" points="167,-615 167,-645 304,-645 304,-615 167,-615"/>
<text text-anchor="start" x="175" y="-633" font-family="SegoeUI" font-size="10.00">Hjg.Pngcs.Chunks.PngChunk</text>
<text text-anchor="middle" x="235.5" y="-622" font-family="SegoeUI" font-size="10.00">Multiple</text>
</a>
</g>
</g>
<!-- Node0&#45;&gt;Node1 -->
<g id="edge1" class="edge"><title>Node0&#45;&gt;Node1</title>
<path fill="none" stroke="midnightblue" d="M78.7296,-319.386C111.412,-384.557 200.109,-561.424 226.8,-614.646"/>
<polygon fill="midnightblue" stroke="midnightblue" points="81.7667,-317.635 74.1552,-310.265 75.5094,-320.773 81.7667,-317.635"/>
</g>
<!-- Node9 -->
<g id="node10" class="node"><title>Node9</title>
<g id="a_node10"><a xlink:href="d2/dc1/class_hjg_1_1_pngcs_1_1_chunks_1_1_png_chunk_single.html" target="_top" xlink:title="A Chunk type that does not allow duplicate in an image">
<polygon fill="white" stroke="black" points="167,-280 167,-310 304,-310 304,-280 167,-280"/>
<text text-anchor="start" x="175" y="-298" font-family="SegoeUI" font-size="10.00">Hjg.Pngcs.Chunks.PngChunk</text>
<text text-anchor="middle" x="235.5" y="-287" font-family="SegoeUI" font-size="10.00">Single</text>
</a>
</g>
</g>
<!-- Node0&#45;&gt;Node9 -->
<g id="edge9" class="edge"><title>Node0&#45;&gt;Node9</title>
<path fill="none" stroke="midnightblue" d="M141.648,-295C150.074,-295 158.62,-295 166.941,-295"/>
<polygon fill="midnightblue" stroke="midnightblue" points="141.453,-291.5 131.453,-295 141.453,-298.5 141.453,-291.5"/>
</g>
<!-- Node25 -->
<g id="node26" class="node"><title>Node25</title>
<g id="a_node26"><a xlink:href="dc/de1/class_hjg_1_1_pngcs_1_1_chunks_1_1_png_chunk_skipped.html" target="_top" xlink:title=" ">
<polygon fill="white" stroke="black" points="167,-231 167,-261 304,-261 304,-231 167,-231"/>
<text text-anchor="start" x="175" y="-249" font-family="SegoeUI" font-size="10.00">Hjg.Pngcs.Chunks.PngChunk</text>
<text text-anchor="middle" x="235.5" y="-238" font-family="SegoeUI" font-size="10.00">Skipped</text>
</a>
</g>
</g>
<!-- Node0&#45;&gt;Node25 -->
<g id="edge25" class="edge"><title>Node0&#45;&gt;Node25</title>
<path fill="none" stroke="midnightblue" d="M128.101,-277.033C146.101,-271.783 165.582,-266.101 182.895,-261.052"/>
<polygon fill="midnightblue" stroke="midnightblue" points="126.896,-273.738 118.276,-279.899 128.856,-280.458 126.896,-273.738"/>
</g>
<!-- Node2 -->
<g id="node3" class="node"><title>Node2</title>
<g id="a_node3"><a xlink:href="d2/d74/class_hjg_1_1_pngcs_1_1_chunks_1_1_abstract_png_chunk_text_var.html" target="_top" xlink:title="general class for textual chunks">
<polygon fill="white" stroke="black" points="356,-697 356,-727 487,-727 487,-697 356,-697"/>
<text text-anchor="start" x="364" y="-715" font-family="SegoeUI" font-size="10.00">Hjg.Pngcs.Chunks.Abstract</text>
<text text-anchor="middle" x="421.5" y="-704" font-family="SegoeUI" font-size="10.00">PngChunkTextVar</text>
</a>
</g>
</g>
<!-- Node1&#45;&gt;Node2 -->
<g id="edge2" class="edge"><title>Node1&#45;&gt;Node2</title>
<path fill="none" stroke="midnightblue" d="M269.168,-650.223C289.123,-662.007 315.446,-676.553 340,-687 348.484,-690.609 357.667,-693.956 366.692,-696.951"/>
<polygon fill="midnightblue" stroke="midnightblue" points="270.856,-647.155 260.476,-645.029 267.264,-653.163 270.856,-647.155"/>
</g>
<!-- Node6 -->
<g id="node7" class="node"><title>Node6</title>
<g id="a_node7"><a xlink:href="d0/df1/class_hjg_1_1_pngcs_1_1_chunks_1_1_png_chunk_i_d_a_t.html" target="_top" xlink:title=" ">
<polygon fill="white" stroke="black" points="342.5,-658.5 342.5,-677.5 500.5,-677.5 500.5,-658.5 342.5,-658.5"/>
<text text-anchor="middle" x="421.5" y="-665.5" font-family="SegoeUI" font-size="10.00">Hjg.Pngcs.Chunks.PngChunkIDAT</text>
</a>
</g>
</g>
<!-- Node1&#45;&gt;Node6 -->
<g id="edge6" class="edge"><title>Node1&#45;&gt;Node6</title>
<path fill="none" stroke="midnightblue" d="M314.202,-646.047C334.711,-650.283 356.191,-654.719 374.431,-658.486"/>
<polygon fill="midnightblue" stroke="midnightblue" points="314.732,-642.583 304.231,-643.988 313.316,-649.438 314.732,-642.583"/>
</g>
<!-- Node7 -->
<g id="node8" class="node"><title>Node7</title>
<g id="a_node8"><a xlink:href="d3/d17/class_hjg_1_1_pngcs_1_1_chunks_1_1_png_chunk_s_p_l_t.html" target="_top" xlink:title="sPLT chunk: http://www.w3.org/TR/PNG/#11sPLT">
<polygon fill="white" stroke="black" points="342,-620.5 342,-639.5 501,-639.5 501,-620.5 342,-620.5"/>
<text text-anchor="middle" x="421.5" y="-627.5" font-family="SegoeUI" font-size="10.00">Hjg.Pngcs.Chunks.PngChunkSPLT</text>
</a>
</g>
</g>
<!-- Node1&#45;&gt;Node7 -->
<g id="edge7" class="edge"><title>Node1&#45;&gt;Node7</title>
<path fill="none" stroke="midnightblue" d="M314.352,-630C323.404,-630 332.643,-630 341.707,-630"/>
<polygon fill="midnightblue" stroke="midnightblue" points="314.231,-626.5 304.231,-630 314.231,-633.5 314.231,-626.5"/>
</g>
<!-- Node8 -->
<g id="node9" class="node"><title>Node8</title>
<g id="a_node9"><a xlink:href="dd/df6/class_hjg_1_1_pngcs_1_1_chunks_1_1_png_chunk_u_n_k_n_o_w_n.html" target="_top" xlink:title="Unknown (for our chunk factory) chunk type.">
<polygon fill="white" stroke="black" points="353,-571 353,-601 490,-601 490,-571 353,-571"/>
<text text-anchor="start" x="361" y="-589" font-family="SegoeUI" font-size="10.00">Hjg.Pngcs.Chunks.PngChunk</text>
<text text-anchor="middle" x="421.5" y="-578" font-family="SegoeUI" font-size="10.00">UNKNOWN</text>
</a>
</g>
</g>
<!-- Node1&#45;&gt;Node8 -->
<g id="edge8" class="edge"><title>Node1&#45;&gt;Node8</title>
<path fill="none" stroke="midnightblue" d="M309.167,-612.623C325.202,-608.789 342.057,-604.758 357.663,-601.026"/>
<polygon fill="midnightblue" stroke="midnightblue" points="308.219,-609.251 299.308,-614.981 309.848,-616.059 308.219,-609.251"/>
</g>
<!-- Node3 -->
<g id="node4" class="node"><title>Node3</title>
<g id="a_node4"><a xlink:href="dd/de4/class_hjg_1_1_pngcs_1_1_chunks_1_1_png_chunk_i_t_x_t.html" target="_top" xlink:title="iTXt chunk: http://www.w3.org/TR/PNG/#11iTXt One of the three text chunks">
<polygon fill="white" stroke="black" points="540.5,-740.5 540.5,-759.5 698.5,-759.5 698.5,-740.5 540.5,-740.5"/>
<text text-anchor="middle" x="619.5" y="-747.5" font-family="SegoeUI" font-size="10.00">Hjg.Pngcs.Chunks.PngChunkITXT</text>
</a>
</g>
</g>
<!-- Node2&#45;&gt;Node3 -->
<g id="edge3" class="edge"><title>Node2&#45;&gt;Node3</title>
<path fill="none" stroke="midnightblue" d="M497.091,-726.462C521.29,-731.153 547.512,-736.237 569.373,-740.475"/>
<polygon fill="midnightblue" stroke="midnightblue" points="497.704,-723.015 487.221,-724.548 496.372,-729.887 497.704,-723.015"/>
</g>
<!-- Node4 -->
<g id="node5" class="node"><title>Node4</title>
<g id="a_node5"><a xlink:href="de/d9c/class_hjg_1_1_pngcs_1_1_chunks_1_1_png_chunk_t_e_x_t.html" target="_top" xlink:title="tEXt chunk: latin1 uncompressed text">
<polygon fill="white" stroke="black" points="539,-702.5 539,-721.5 700,-721.5 700,-702.5 539,-702.5"/>
<text text-anchor="middle" x="619.5" y="-709.5" font-family="SegoeUI" font-size="10.00">Hjg.Pngcs.Chunks.PngChunkTEXT</text>
</a>
</g>
</g>
<!-- Node2&#45;&gt;Node4 -->
<g id="edge4" class="edge"><title>Node2&#45;&gt;Node4</title>
<path fill="none" stroke="midnightblue" d="M497.436,-712C510.976,-712 525.14,-712 538.81,-712"/>
<polygon fill="midnightblue" stroke="midnightblue" points="497.221,-708.5 487.221,-712 497.221,-715.5 497.221,-708.5"/>
</g>
<!-- Node5 -->
<g id="node6" class="node"><title>Node5</title>
<g id="a_node6"><a xlink:href="d3/d58/class_hjg_1_1_pngcs_1_1_chunks_1_1_png_chunk_z_t_x_t.html" target="_top" xlink:title="zTXt chunk: http://www.w3.org/TR/PNG/#11zTXt">
<polygon fill="white" stroke="black" points="539,-664.5 539,-683.5 700,-683.5 700,-664.5 539,-664.5"/>
<text text-anchor="middle" x="619.5" y="-671.5" font-family="SegoeUI" font-size="10.00">Hjg.Pngcs.Chunks.PngChunkZTXT</text>
</a>
</g>
</g>
<!-- Node2&#45;&gt;Node5 -->
<g id="edge5" class="edge"><title>Node2&#45;&gt;Node5</title>
<path fill="none" stroke="midnightblue" d="M497.091,-697.538C521.29,-692.847 547.512,-687.763 569.373,-683.525"/>
<polygon fill="midnightblue" stroke="midnightblue" points="496.372,-694.113 487.221,-699.452 497.704,-700.985 496.372,-694.113"/>
</g>
<!-- Node10 -->
<g id="node11" class="node"><title>Node10</title>
<g id="a_node11"><a xlink:href="d6/df9/class_hjg_1_1_pngcs_1_1_chunks_1_1_png_chunk_b_k_g_d.html" target="_top" xlink:title="bKGD chunk, see http://www.w3.org/TR/PNG/#11bKGD">
<polygon fill="white" stroke="black" points="341.5,-532.5 341.5,-551.5 501.5,-551.5 501.5,-532.5 341.5,-532.5"/>
<text text-anchor="middle" x="421.5" y="-539.5" font-family="SegoeUI" font-size="10.00">Hjg.Pngcs.Chunks.PngChunkBKGD</text>
</a>
</g>
</g>
<!-- Node9&#45;&gt;Node10 -->
<g id="edge10" class="edge"><title>Node9&#45;&gt;Node10</title>
<path fill="none" stroke="midnightblue" d="M240.514,-320.311C249.412,-367.708 275.365,-469.847 340,-523 344.658,-526.831 349.955,-529.916 355.555,-532.397"/>
<polygon fill="midnightblue" stroke="midnightblue" points="243.928,-319.516 238.735,-310.28 237.035,-320.738 243.928,-319.516"/>
</g>
<!-- Node11 -->
<g id="node12" class="node"><title>Node11</title>
<g id="a_node12"><a xlink:href="d5/d39/class_hjg_1_1_pngcs_1_1_chunks_1_1_png_chunk_c_h_r_m.html" target="_top" xlink:title="cHRM chunk, see http://www.w3.org/TR/PNG/#11cHRM">
<polygon fill="white" stroke="black" points="340,-494.5 340,-513.5 503,-513.5 503,-494.5 340,-494.5"/>
<text text-anchor="middle" x="421.5" y="-501.5" font-family="SegoeUI" font-size="10.00">Hjg.Pngcs.Chunks.PngChunkCHRM</text>
</a>
</g>
</g>
<!-- Node9&#45;&gt;Node11 -->
<g id="edge11" class="edge"><title>Node9&#45;&gt;Node11</title>
<path fill="none" stroke="midnightblue" d="M242.883,-319.849C254.754,-360.87 284.238,-442.443 340,-485 345.023,-488.833 350.697,-491.91 356.65,-494.377"/>
<polygon fill="midnightblue" stroke="midnightblue" points="246.227,-318.809 240.177,-310.111 239.482,-320.683 246.227,-318.809"/>
</g>
<!-- Node12 -->
<g id="node13" class="node"><title>Node12</title>
<g id="a_node13"><a xlink:href="d9/d23/class_hjg_1_1_pngcs_1_1_chunks_1_1_png_chunk_g_a_m_a.html" target="_top" xlink:title="gAMA chunk, see http://www.w3.org/TR/PNG/#11gAMA">
<polygon fill="white" stroke="black" points="340,-456.5 340,-475.5 503,-475.5 503,-456.5 340,-456.5"/>
<text text-anchor="middle" x="421.5" y="-463.5" font-family="SegoeUI" font-size="10.00">Hjg.Pngcs.Chunks.PngChunkGAMA</text>
</a>
</g>
</g>
<!-- Node9&#45;&gt;Node12 -->
<g id="edge12" class="edge"><title>Node9&#45;&gt;Node12</title>
<path fill="none" stroke="midnightblue" d="M246.331,-319.542C261.289,-353.625 293.072,-414.73 340,-447 345.679,-450.905 352.059,-454.014 358.677,-456.488"/>
<polygon fill="midnightblue" stroke="midnightblue" points="249.531,-318.123 242.394,-310.292 243.09,-320.864 249.531,-318.123"/>
</g>
<!-- Node13 -->
<g id="node14" class="node"><title>Node13</title>
<g id="a_node14"><a xlink:href="d7/d34/class_hjg_1_1_pngcs_1_1_chunks_1_1_png_chunk_h_i_s_t.html" target="_top" xlink:title="hIST chunk, see http://www.w3.org/TR/PNG/#11hIST Only for palette images">
<polygon fill="white" stroke="black" points="342.5,-418.5 342.5,-437.5 500.5,-437.5 500.5,-418.5 342.5,-418.5"/>
<text text-anchor="middle" x="421.5" y="-425.5" font-family="SegoeUI" font-size="10.00">Hjg.Pngcs.Chunks.PngChunkHIST</text>
</a>
</g>
</g>
<!-- Node9&#45;&gt;Node13 -->
<g id="edge13" class="edge"><title>Node9&#45;&gt;Node13</title>
<path fill="none" stroke="midnightblue" d="M251.585,-318.825C269.455,-345.03 301.686,-386.411 340,-409 346.556,-412.865 353.848,-415.944 361.29,-418.397"/>
<polygon fill="midnightblue" stroke="midnightblue" points="254.329,-316.632 245.876,-310.245 248.502,-320.51 254.329,-316.632"/>
</g>
<!-- Node14 -->
<g id="node15" class="node"><title>Node14</title>
<g id="a_node15"><a xlink:href="de/da0/class_hjg_1_1_pngcs_1_1_chunks_1_1_png_chunk_i_c_c_p.html" target="_top" xlink:title="iCCP Chunk: see http://www.w3.org/TR/PNG/#11iCCP">
<polygon fill="white" stroke="black" points="342.5,-380.5 342.5,-399.5 500.5,-399.5 500.5,-380.5 342.5,-380.5"/>
<text text-anchor="middle" x="421.5" y="-387.5" font-family="SegoeUI" font-size="10.00">Hjg.Pngcs.Chunks.PngChunkICCP</text>
</a>
</g>
</g>
<!-- Node9&#45;&gt;Node14 -->
<g id="edge14" class="edge"><title>Node9&#45;&gt;Node14</title>
<path fill="none" stroke="midnightblue" d="M260.365,-316.901C280.272,-334.036 310.115,-357.201 340,-371 348.344,-374.853 357.547,-377.967 366.658,-380.47"/>
<polygon fill="midnightblue" stroke="midnightblue" points="262.554,-314.165 252.728,-310.202 257.938,-319.427 262.554,-314.165"/>
</g>
<!-- Node15 -->
<g id="node16" class="node"><title>Node15</title>
<g id="a_node16"><a xlink:href="d5/d01/class_hjg_1_1_pngcs_1_1_chunks_1_1_png_chunk_i_e_n_d.html" target="_top" xlink:title="IEND chunk http://www.w3.org/TR/PNG/#11IEND">
<polygon fill="white" stroke="black" points="342.5,-342.5 342.5,-361.5 500.5,-361.5 500.5,-342.5 342.5,-342.5"/>
<text text-anchor="middle" x="421.5" y="-349.5" font-family="SegoeUI" font-size="10.00">Hjg.Pngcs.Chunks.PngChunkIEND</text>
</a>
</g>
</g>
<!-- Node9&#45;&gt;Node15 -->
<g id="edge15" class="edge"><title>Node9&#45;&gt;Node15</title>
<path fill="none" stroke="midnightblue" d="M283.889,-313.757C301.369,-320.315 321.439,-327.424 340,-333 351.552,-336.47 364.19,-339.709 375.958,-342.494"/>
<polygon fill="midnightblue" stroke="midnightblue" points="285.061,-310.458 274.469,-310.184 282.578,-317.003 285.061,-310.458"/>
</g>
<!-- Node16 -->
<g id="node17" class="node"><title>Node16</title>
<g id="a_node17"><a xlink:href="d0/dc9/class_hjg_1_1_pngcs_1_1_chunks_1_1_png_chunk_i_h_d_r.html" target="_top" xlink:title="IHDR chunk: http://www.w3.org/TR/PNG/#11IHDR">
<polygon fill="white" stroke="black" points="342.5,-304.5 342.5,-323.5 500.5,-323.5 500.5,-304.5 342.5,-304.5"/>
<text text-anchor="middle" x="421.5" y="-311.5" font-family="SegoeUI" font-size="10.00">Hjg.Pngcs.Chunks.PngChunkIHDR</text>
</a>
</g>
</g>
<!-- Node9&#45;&gt;Node16 -->
<g id="edge16" class="edge"><title>Node9&#45;&gt;Node16</title>
<path fill="none" stroke="midnightblue" d="M314.227,-303.026C323.528,-303.987 333.028,-304.968 342.336,-305.929"/>
<polygon fill="midnightblue" stroke="midnightblue" points="314.538,-299.54 304.231,-301.994 313.819,-306.503 314.538,-299.54"/>
</g>
<!-- Node17 -->
<g id="node18" class="node"><title>Node17</title>
<g id="a_node18"><a xlink:href="d3/d36/class_hjg_1_1_pngcs_1_1_chunks_1_1_png_chunk_o_f_f_s.html" target="_top" xlink:title="oFFs chunk: http://www.libpng.org/pub/png/spec/register/pngext&#45;1.3.0&#45;pdg.html#C.oFFs">
<polygon fill="white" stroke="black" points="341,-266.5 341,-285.5 502,-285.5 502,-266.5 341,-266.5"/>
<text text-anchor="middle" x="421.5" y="-273.5" font-family="SegoeUI" font-size="10.00">Hjg.Pngcs.Chunks.PngChunkOFFS</text>
</a>
</g>
</g>
<!-- Node9&#45;&gt;Node17 -->
<g id="edge17" class="edge"><title>Node9&#45;&gt;Node17</title>
<path fill="none" stroke="midnightblue" d="M314.379,-286.958C323.108,-286.057 332.011,-285.137 340.763,-284.234"/>
<polygon fill="midnightblue" stroke="midnightblue" points="313.819,-283.497 304.231,-288.006 314.538,-290.46 313.819,-283.497"/>
</g>
<!-- Node18 -->
<g id="node19" class="node"><title>Node18</title>
<g id="a_node19"><a xlink:href="da/d47/class_hjg_1_1_pngcs_1_1_chunks_1_1_png_chunk_p_h_y_s.html" target="_top" xlink:title="pHYs chunk: http://www.w3.org/TR/PNG/#11pHYs">
<polygon fill="white" stroke="black" points="341.5,-228.5 341.5,-247.5 501.5,-247.5 501.5,-228.5 341.5,-228.5"/>
<text text-anchor="middle" x="421.5" y="-235.5" font-family="SegoeUI" font-size="10.00">Hjg.Pngcs.Chunks.PngChunkPHYS</text>
</a>
</g>
</g>
<!-- Node9&#45;&gt;Node18 -->
<g id="edge18" class="edge"><title>Node9&#45;&gt;Node18</title>
<path fill="none" stroke="midnightblue" d="M286.757,-276.4C311.675,-267.204 337.094,-257.873 340,-257 351.552,-253.53 364.19,-250.291 375.958,-247.506"/>
<polygon fill="midnightblue" stroke="midnightblue" points="285.448,-273.152 277.28,-279.9 287.873,-279.719 285.448,-273.152"/>
</g>
<!-- Node19 -->
<g id="node20" class="node"><title>Node19</title>
<g id="a_node20"><a xlink:href="da/dc1/class_hjg_1_1_pngcs_1_1_chunks_1_1_png_chunk_p_l_t_e.html" target="_top" xlink:title=" ">
<polygon fill="white" stroke="black" points="342.5,-190.5 342.5,-209.5 500.5,-209.5 500.5,-190.5 342.5,-190.5"/>
<text text-anchor="middle" x="421.5" y="-197.5" font-family="SegoeUI" font-size="10.00">Hjg.Pngcs.Chunks.PngChunkPLTE</text>
</a>
</g>
</g>
<!-- Node9&#45;&gt;Node19 -->
<g id="edge19" class="edge"><title>Node9&#45;&gt;Node19</title>
<path fill="none" stroke="midnightblue" d="M296.657,-275.01C299.215,-273.453 301.678,-271.785 304,-270 325.996,-253.09 317.007,-234.527 340,-219 345.712,-215.143 352.112,-212.064 358.742,-209.607"/>
<polygon fill="midnightblue" stroke="midnightblue" points="294.783,-272.045 287.658,-279.886 298.118,-278.199 294.783,-272.045"/>
</g>
<!-- Node20 -->
<g id="node21" class="node"><title>Node20</title>
<g id="a_node21"><a xlink:href="df/d01/class_hjg_1_1_pngcs_1_1_chunks_1_1_png_chunk_s_b_i_t.html" target="_top" xlink:title=" ">
<polygon fill="white" stroke="black" points="342.5,-152.5 342.5,-171.5 500.5,-171.5 500.5,-152.5 342.5,-152.5"/>
<text text-anchor="middle" x="421.5" y="-159.5" font-family="SegoeUI" font-size="10.00">Hjg.Pngcs.Chunks.PngChunkSBIT</text>
</a>
</g>
</g>
<!-- Node9&#45;&gt;Node20 -->
<g id="edge20" class="edge"><title>Node9&#45;&gt;Node20</title>
<path fill="none" stroke="midnightblue" d="M299.31,-274.069C300.951,-272.791 302.521,-271.436 304,-270 334.616,-240.279 307.617,-208.784 340,-181 344.468,-177.166 349.57,-174.073 354.988,-171.582"/>
<polygon fill="midnightblue" stroke="midnightblue" points="296.995,-271.404 290.586,-279.841 300.858,-277.242 296.995,-271.404"/>
</g>
<!-- Node21 -->
<g id="node22" class="node"><title>Node21</title>
<g id="a_node22"><a xlink:href="db/d35/class_hjg_1_1_pngcs_1_1_chunks_1_1_png_chunk_s_r_g_b.html" target="_top" xlink:title="sRGB chunk: http://www.w3.org/TR/PNG/#11sRGB">
<polygon fill="white" stroke="black" points="341,-114.5 341,-133.5 502,-133.5 502,-114.5 341,-114.5"/>
<text text-anchor="middle" x="421.5" y="-121.5" font-family="SegoeUI" font-size="10.00">Hjg.Pngcs.Chunks.PngChunkSRGB</text>
</a>
</g>
</g>
<!-- Node9&#45;&gt;Node21 -->
<g id="edge21" class="edge"><title>Node9&#45;&gt;Node21</title>
<path fill="none" stroke="midnightblue" d="M300.109,-273.768C301.474,-272.58 302.775,-271.325 304,-270 343.825,-226.92 297.604,-183.553 340,-143 343.943,-139.228 348.49,-136.158 353.373,-133.663"/>
<polygon fill="midnightblue" stroke="midnightblue" points="297.721,-271.176 291.676,-279.878 301.828,-276.845 297.721,-271.176"/>
</g>
<!-- Node22 -->
<g id="node23" class="node"><title>Node22</title>
<g id="a_node23"><a xlink:href="d0/db1/class_hjg_1_1_pngcs_1_1_chunks_1_1_png_chunk_s_t_e_r.html" target="_top" xlink:title="sTER chunk: http://www.libpng.org/pub/png/spec/register/pngext&#45;1.3.0&#45;pdg.html#C.sTER">
<polygon fill="white" stroke="black" points="341,-76.5 341,-95.5 502,-95.5 502,-76.5 341,-76.5"/>
<text text-anchor="middle" x="421.5" y="-83.5" font-family="SegoeUI" font-size="10.00">Hjg.Pngcs.Chunks.PngChunkSTER</text>
</a>
</g>
</g>
<!-- Node9&#45;&gt;Node22 -->
<g id="edge22" class="edge"><title>Node9&#45;&gt;Node22</title>
<path fill="none" stroke="midnightblue" d="M300.314,-273.78C301.612,-272.588 302.845,-271.329 304,-270 353.235,-213.346 287.378,-158.523 340,-105 343.725,-101.211 348.055,-98.1209 352.737,-95.6061"/>
<polygon fill="midnightblue" stroke="midnightblue" points="298.098,-271.068 292.249,-279.902 302.33,-276.644 298.098,-271.068"/>
</g>
<!-- Node23 -->
<g id="node24" class="node"><title>Node23</title>
<g id="a_node24"><a xlink:href="d9/d6a/class_hjg_1_1_pngcs_1_1_chunks_1_1_png_chunk_t_i_m_e.html" target="_top" xlink:title="tIME chunk: http://www.w3.org/TR/PNG/#11tIME">
<polygon fill="white" stroke="black" points="342,-38.5 342,-57.5 501,-57.5 501,-38.5 342,-38.5"/>
<text text-anchor="middle" x="421.5" y="-45.5" font-family="SegoeUI" font-size="10.00">Hjg.Pngcs.Chunks.PngChunkTIME</text>
</a>
</g>
</g>
<!-- Node9&#45;&gt;Node23 -->
<g id="edge23" class="edge"><title>Node9&#45;&gt;Node23</title>
<path fill="none" stroke="midnightblue" d="M300.815,-273.427C301.934,-272.34 302.999,-271.199 304,-270 362.735,-199.67 277.056,-133.589 340,-67 343.551,-63.2432 347.695,-60.1673 352.196,-57.6551"/>
<polygon fill="midnightblue" stroke="midnightblue" points="298.393,-270.881 292.728,-279.834 302.74,-276.368 298.393,-270.881"/>
</g>
<!-- Node24 -->
<g id="node25" class="node"><title>Node24</title>
<g id="a_node25"><a xlink:href="d5/da1/class_hjg_1_1_pngcs_1_1_chunks_1_1_png_chunk_t_r_n_s.html" target="_top" xlink:title="tRNS chunk: http://www.w3.org/TR/PNG/#11tRNS">
<polygon fill="white" stroke="black" points="341,-0.5 341,-19.5 502,-19.5 502,-0.5 341,-0.5"/>
<text text-anchor="middle" x="421.5" y="-7.5" font-family="SegoeUI" font-size="10.00">Hjg.Pngcs.Chunks.PngChunkTRNS</text>
</a>
</g>
</g>
<!-- Node9&#45;&gt;Node24 -->
<g id="edge24" class="edge"><title>Node9&#45;&gt;Node24</title>
<path fill="none" stroke="midnightblue" d="M300.86,-273.464C301.965,-272.366 303.015,-271.212 304,-270 372.282,-185.938 266.684,-108.709 340,-29 343.5,-25.1952 347.607,-22.0848 352.082,-19.5487"/>
<polygon fill="midnightblue" stroke="midnightblue" points="298.43,-270.927 292.84,-279.927 302.823,-276.377 298.43,-270.927"/>
</g>
</g>
</svg>
