<?xml version="1.0" encoding="UTF-8" standalone="no"?>
<!DOCTYPE svg PUBLIC "-//W3C//DTD SVG 1.1//EN"
 "http://www.w3.org/Graphics/SVG/1.1/DTD/svg11.dtd">
<!-- Generated by graphviz version 2.38.0 (20140413.2041)
 -->
<!-- Title: Graphical Class Hierarchy Pages: 1 -->
<svg width="551pt" height="50pt"
 viewBox="0.00 0.00 551.00 50.00" xmlns="http://www.w3.org/2000/svg" xmlns:xlink="http://www.w3.org/1999/xlink">
<g id="graph0" class="graph" transform="scale(1 1) rotate(0) translate(4 46)">
<title>Graphical Class Hierarchy</title>
<polygon fill="white" stroke="none" points="-4,4 -4,-46 547,-46 547,4 -4,4"/>
<!-- Node0 -->
<g id="node1" class="node"><title>Node0</title>
<g id="a_node1"><a xlink:href="d2/d07/class_juniper_1_1_input_1_1_pointers_1_1_motion_1_1_abstract_hand_tracker.html" target="_top" xlink:title=" ">
<polygon fill="white" stroke="black" points="0,-0.5 0,-41.5 183,-41.5 183,-0.5 0,-0.5"/>
<text text-anchor="start" x="8" y="-29.5" font-family="SegoeUI" font-size="10.00">Juniper.Input.Pointers.Motion.</text>
<text text-anchor="start" x="8" y="-18.5" font-family="SegoeUI" font-size="10.00">AbstractHandTracker&lt; Unary,</text>
<text text-anchor="middle" x="91.5" y="-7.5" font-family="SegoeUI" font-size="10.00"> Unary, NoHandTrackerConfiguration &gt;</text>
</a>
</g>
</g>
<!-- Node1 -->
<g id="node2" class="node"><title>Node1</title>
<g id="a_node2"><a xlink:href="db/d09/class_juniper_1_1_input_1_1_pointers_1_1_motion_1_1_no_hand_tracker.html" target="_top" xlink:title=" ">
<polygon fill="white" stroke="black" points="219,-6 219,-36 363,-36 363,-6 219,-6"/>
<text text-anchor="start" x="227" y="-24" font-family="SegoeUI" font-size="10.00">Juniper.Input.Pointers.Motion.</text>
<text text-anchor="middle" x="291" y="-13" font-family="SegoeUI" font-size="10.00">NoHandTracker</text>
</a>
</g>
</g>
<!-- Node0&#45;&gt;Node1 -->
<g id="edge1" class="edge"><title>Node0&#45;&gt;Node1</title>
<path fill="none" stroke="midnightblue" d="M193.276,-21C201.9,-21 210.504,-21 218.824,-21"/>
<polygon fill="midnightblue" stroke="midnightblue" points="193.158,-17.5001 183.157,-21 193.157,-24.5001 193.158,-17.5001"/>
</g>
<!-- Node2 -->
<g id="node3" class="node"><title>Node2</title>
<g id="a_node3"><a xlink:href="db/d04/class_juniper_1_1_input_1_1_pointers_1_1_motion_1_1_hand_tracker.html" target="_top" xlink:title=" ">
<polygon fill="white" stroke="black" points="399,-6 399,-36 543,-36 543,-6 399,-6"/>
<text text-anchor="start" x="407" y="-24" font-family="SegoeUI" font-size="10.00">Juniper.Input.Pointers.Motion.</text>
<text text-anchor="middle" x="471" y="-13" font-family="SegoeUI" font-size="10.00">HandTracker</text>
</a>
</g>
</g>
<!-- Node1&#45;&gt;Node2 -->
<g id="edge2" class="edge"><title>Node1&#45;&gt;Node2</title>
<path fill="none" stroke="midnightblue" d="M373.17,-21C381.789,-21 390.506,-21 398.995,-21"/>
<polygon fill="midnightblue" stroke="midnightblue" points="373.118,-17.5001 363.118,-21 373.118,-24.5001 373.118,-17.5001"/>
</g>
</g>
</svg>
