<?xml version="1.0" encoding="UTF-8" standalone="no"?>
<!DOCTYPE svg PUBLIC "-//W3C//DTD SVG 1.1//EN"
 "http://www.w3.org/Graphics/SVG/1.1/DTD/svg11.dtd">
<!-- Generated by graphviz version 2.38.0 (20140413.2041)
 -->
<!-- Title: Graphical Class Hierarchy Pages: 1 -->
<svg width="235pt" height="88pt"
 viewBox="0.00 0.00 235.00 88.00" xmlns="http://www.w3.org/2000/svg" xmlns:xlink="http://www.w3.org/1999/xlink">
<g id="graph0" class="graph" transform="scale(1 1) rotate(0) translate(4 84)">
<title>Graphical Class Hierarchy</title>
<polygon fill="white" stroke="none" points="-4,4 -4,-84 231,-84 231,4 -4,4"/>
<!-- Node323 -->
<g id="node1" class="node"><title>Node323</title>
<g id="a_node1"><a xlink:title=" ">
<polygon fill="white" stroke="#bfbfbf" points="0,-30 0,-49 34,-49 34,-30 0,-30"/>
<text text-anchor="middle" x="17" y="-37" font-family="SegoeUI" font-size="10.00">IList</text>
</a>
</g>
</g>
<!-- Node0 -->
<g id="node2" class="node"><title>Node0</title>
<g id="a_node2"><a xlink:href="dc/d08/class_juniper_1_1_collections_1_1_ring_buffer.html" target="_top" xlink:title="A collection of fixed size that overwrites the oldest items when the collection is full.">
<polygon fill="white" stroke="black" points="89.5,-49.5 89.5,-79.5 207.5,-79.5 207.5,-49.5 89.5,-49.5"/>
<text text-anchor="start" x="97.5" y="-67.5" font-family="SegoeUI" font-size="10.00">Juniper.Collections.Ring</text>
<text text-anchor="middle" x="148.5" y="-56.5" font-family="SegoeUI" font-size="10.00">Buffer&lt; T &gt;</text>
</a>
</g>
</g>
<!-- Node323&#45;&gt;Node0 -->
<g id="edge1" class="edge"><title>Node323&#45;&gt;Node0</title>
<path fill="none" stroke="midnightblue" d="M44.2428,-44.5662C57.287,-47.0844 73.6058,-50.2347 89.3923,-53.2823"/>
<polygon fill="midnightblue" stroke="midnightblue" points="44.6216,-41.0748 34.1394,-42.6157 43.2947,-47.9479 44.6216,-41.0748"/>
</g>
<!-- Node325 -->
<g id="node3" class="node"><title>Node325</title>
<g id="a_node3"><a xlink:href="db/dc4/class_juniper_1_1_collections_1_1_statistics_1_1_abstract_collection_statistics.html" target="_top" xlink:title="An abstract class for a collection wrapper that can automatically compute statistics on the values co...">
<polygon fill="white" stroke="black" points="70,-0.5 70,-30.5 227,-30.5 227,-0.5 70,-0.5"/>
<text text-anchor="start" x="78" y="-18.5" font-family="SegoeUI" font-size="10.00">Juniper.Collections.Statistics.</text>
<text text-anchor="middle" x="148.5" y="-7.5" font-family="SegoeUI" font-size="10.00">AbstractCollectionStatistics&lt; T &gt;</text>
</a>
</g>
</g>
<!-- Node323&#45;&gt;Node325 -->
<g id="edge2" class="edge"><title>Node323&#45;&gt;Node325</title>
<path fill="none" stroke="midnightblue" d="M44.1896,-34.6463C51.8969,-33.218 60.7507,-31.5771 69.9643,-29.8696"/>
<polygon fill="midnightblue" stroke="midnightblue" points="43.3342,-31.2452 34.1394,-36.5089 44.6098,-38.128 43.3342,-31.2452"/>
</g>
</g>
</svg>
