<?xml version="1.0" encoding="UTF-8" standalone="no"?>
<!DOCTYPE svg PUBLIC "-//W3C//DTD SVG 1.1//EN"
 "http://www.w3.org/Graphics/SVG/1.1/DTD/svg11.dtd">
<!-- Generated by graphviz version 2.38.0 (20140413.2041)
 -->
<!-- Title: Graphical Class Hierarchy Pages: 1 -->
<svg width="332pt" height="50pt"
 viewBox="0.00 0.00 332.00 50.00" xmlns="http://www.w3.org/2000/svg" xmlns:xlink="http://www.w3.org/1999/xlink">
<g id="graph0" class="graph" transform="scale(1 1) rotate(0) translate(4 46)">
<title>Graphical Class Hierarchy</title>
<polygon fill="white" stroke="none" points="-4,4 -4,-46 328,-46 328,4 -4,4"/>
<!-- Node0 -->
<g id="node1" class="node"><title>Node0</title>
<g id="a_node1"><a xlink:href="db/d8b/class_juniper_1_1_unity_1_1_input_1_1_pointers_1_1_abstract_pointer_configuration.html" target="_top" xlink:title=" ">
<polygon fill="white" stroke="black" points="0,-0.5 0,-41.5 139,-41.5 139,-0.5 0,-0.5"/>
<text text-anchor="start" x="8" y="-29.5" font-family="SegoeUI" font-size="10.00">Juniper.Unity.Input.Pointers.</text>
<text text-anchor="start" x="8" y="-18.5" font-family="SegoeUI" font-size="10.00">AbstractPointerConfiguration</text>
<text text-anchor="middle" x="69.5" y="-7.5" font-family="SegoeUI" font-size="10.00">&lt; Unary &gt;</text>
</a>
</g>
</g>
<!-- Node1 -->
<g id="node2" class="node"><title>Node1</title>
<g id="a_node2"><a xlink:href="d7/d3e/class_juniper_1_1_unity_1_1_input_1_1_pointers_1_1_gaze_1_1_gaze_pointer_configuration.html" target="_top" xlink:title=" ">
<polygon fill="white" stroke="black" points="175,-6 175,-36 324,-36 324,-6 175,-6"/>
<text text-anchor="start" x="183" y="-24" font-family="SegoeUI" font-size="10.00">Juniper.Unity.Input.Pointers.</text>
<text text-anchor="middle" x="249.5" y="-13" font-family="SegoeUI" font-size="10.00">Gaze.GazePointerConfiguration</text>
</a>
</g>
</g>
<!-- Node0&#45;&gt;Node1 -->
<g id="edge1" class="edge"><title>Node0&#45;&gt;Node1</title>
<path fill="none" stroke="midnightblue" d="M149.081,-21C157.681,-21 166.412,-21 174.948,-21"/>
<polygon fill="midnightblue" stroke="midnightblue" points="149.065,-17.5001 139.065,-21 149.065,-24.5001 149.065,-17.5001"/>
</g>
</g>
</svg>
