<?xml version="1.0" encoding="UTF-8" standalone="no"?>
<!DOCTYPE svg PUBLIC "-//W3C//DTD SVG 1.1//EN"
 "http://www.w3.org/Graphics/SVG/1.1/DTD/svg11.dtd">
<!-- Generated by graphviz version 2.38.0 (20140413.2041)
 -->
<!-- Title: Juniper.World.Climate.OpenWeatherMap.WeatherReport Pages: 1 -->
<svg width="1970pt" height="695pt"
 viewBox="0.00 0.00 1970.00 695.00" xmlns="http://www.w3.org/2000/svg" xmlns:xlink="http://www.w3.org/1999/xlink">
<g id="graph0" class="graph" transform="scale(1 1) rotate(0) translate(4 691)">
<title>Juniper.World.Climate.OpenWeatherMap.WeatherReport</title>
<polygon fill="white" stroke="none" points="-4,4 -4,-691 1966,-691 1966,4 -4,4"/>
<!-- Node3 -->
<g id="node1" class="node"><title>Node3</title>
<g id="a_node1"><a xlink:title="respone from the OpenWeatherMap API. http://openweathermap.org/current::current_JSON.">
<polygon fill="#bfbfbf" stroke="black" points="751,-0.5 751,-299.5 891,-299.5 891,-0.5 751,-0.5"/>
<text text-anchor="start" x="759" y="-287.5" font-family="SegoeUI" font-size="10.00">Juniper.World.Climate.Open</text>
<text text-anchor="middle" x="821" y="-276.5" font-family="SegoeUI" font-size="10.00">WeatherMap.WeatherReport</text>
<polyline fill="none" stroke="black" points="751,-269.5 891,-269.5 "/>
<text text-anchor="start" x="759" y="-257.5" font-family="SegoeUI" font-size="10.00">+ error</text>
<text text-anchor="start" x="759" y="-246.5" font-family="SegoeUI" font-size="10.00">+ id</text>
<text text-anchor="start" x="759" y="-235.5" font-family="SegoeUI" font-size="10.00">+ name</text>
<text text-anchor="start" x="759" y="-224.5" font-family="SegoeUI" font-size="10.00">+ dt</text>
<text text-anchor="start" x="759" y="-213.5" font-family="SegoeUI" font-size="10.00">+ visibility</text>
<text text-anchor="start" x="759" y="-202.5" font-family="SegoeUI" font-size="10.00">+ ErrorMessage</text>
<text text-anchor="start" x="759" y="-191.5" font-family="SegoeUI" font-size="10.00">+ City</text>
<text text-anchor="start" x="759" y="-180.5" font-family="SegoeUI" font-size="10.00">+ ReportTime</text>
<text text-anchor="start" x="759" y="-169.5" font-family="SegoeUI" font-size="10.00">+ AtmosphericVisibility</text>
<text text-anchor="start" x="759" y="-158.5" font-family="SegoeUI" font-size="10.00">+ Location</text>
<text text-anchor="start" x="759" y="-147.5" font-family="SegoeUI" font-size="10.00">+ Conditions</text>
<text text-anchor="start" x="759" y="-136.5" font-family="SegoeUI" font-size="10.00">+ Temperature</text>
<text text-anchor="start" x="759" y="-125.5" font-family="SegoeUI" font-size="10.00">+ AtmosphericPressure</text>
<text text-anchor="start" x="759" y="-114.5" font-family="SegoeUI" font-size="10.00">+ Humidity</text>
<text text-anchor="start" x="759" y="-103.5" font-family="SegoeUI" font-size="10.00">+ WindDirection</text>
<text text-anchor="start" x="759" y="-92.5" font-family="SegoeUI" font-size="10.00">+ WindSpeed</text>
<text text-anchor="start" x="759" y="-81.5" font-family="SegoeUI" font-size="10.00">+ CloudCover</text>
<text text-anchor="start" x="759" y="-70.5" font-family="SegoeUI" font-size="10.00">+ Country</text>
<text text-anchor="start" x="759" y="-59.5" font-family="SegoeUI" font-size="10.00">+ SunriseTime</text>
<text text-anchor="start" x="759" y="-48.5" font-family="SegoeUI" font-size="10.00">+ SunsetTime</text>
<text text-anchor="start" x="759" y="-37.5" font-family="SegoeUI" font-size="10.00">&#45; repTime</text>
<polyline fill="none" stroke="black" points="751,-30.5 891,-30.5 "/>
<text text-anchor="start" x="759" y="-18.5" font-family="SegoeUI" font-size="10.00">+ GetObjectData()</text>
<text text-anchor="start" x="759" y="-7.5" font-family="SegoeUI" font-size="10.00"># WeatherReport()</text>
</a>
</g>
</g>
<!-- Node4 -->
<g id="node2" class="node"><title>Node4</title>
<g id="a_node2"><a xlink:href="../../d8/d7d/interface_juniper_1_1_world_1_1_climate_1_1_i_weather_report.html" target="_top" xlink:title=" ">
<polygon fill="white" stroke="black" points="0,-364 0,-575 116,-575 116,-364 0,-364"/>
<text text-anchor="middle" x="58" y="-563" font-family="SegoeUI" font-size="10.00">IWeatherReport</text>
<polyline fill="none" stroke="black" points="0,-556 116,-556 "/>
<text text-anchor="start" x="8" y="-544" font-family="SegoeUI" font-size="10.00">+ ReportTime</text>
<text text-anchor="start" x="8" y="-533" font-family="SegoeUI" font-size="10.00">+ City</text>
<text text-anchor="start" x="8" y="-522" font-family="SegoeUI" font-size="10.00">+ Country</text>
<text text-anchor="start" x="8" y="-511" font-family="SegoeUI" font-size="10.00">+ Location</text>
<text text-anchor="start" x="8" y="-500" font-family="SegoeUI" font-size="10.00">+ AtmosphericVisibility</text>
<text text-anchor="start" x="8" y="-489" font-family="SegoeUI" font-size="10.00">+ SunriseTime</text>
<text text-anchor="start" x="8" y="-478" font-family="SegoeUI" font-size="10.00">+ SunsetTime</text>
<text text-anchor="start" x="8" y="-467" font-family="SegoeUI" font-size="10.00">+ CloudCover</text>
<text text-anchor="start" x="8" y="-456" font-family="SegoeUI" font-size="10.00">+ WindDirection</text>
<text text-anchor="start" x="8" y="-445" font-family="SegoeUI" font-size="10.00">+ WindSpeed</text>
<text text-anchor="start" x="8" y="-434" font-family="SegoeUI" font-size="10.00">+ Conditions</text>
<text text-anchor="start" x="8" y="-423" font-family="SegoeUI" font-size="10.00">+ Temperature</text>
<text text-anchor="start" x="8" y="-412" font-family="SegoeUI" font-size="10.00">+ Humidity</text>
<text text-anchor="start" x="8" y="-401" font-family="SegoeUI" font-size="10.00">+ AtmosphericPressure</text>
<text text-anchor="start" x="8" y="-390" font-family="SegoeUI" font-size="10.00">+ ErrorMessage</text>
<polyline fill="none" stroke="black" points="0,-383 116,-383 "/>
<text text-anchor="middle" x="58" y="-371" font-family="SegoeUI" font-size="10.00"> </text>
</a>
</g>
</g>
<!-- Node4&#45;&gt;Node3 -->
<g id="edge1" class="edge"><title>Node4&#45;&gt;Node3</title>
<path fill="none" stroke="midnightblue" d="M98.1411,-355.073C106.9,-341.108 117.419,-328.191 130,-318 226.081,-240.168 595.09,-181.865 750.914,-160.203"/>
<polygon fill="none" stroke="midnightblue" points="95.0033,-353.502 92.9125,-363.889 101.024,-357.073 95.0033,-353.502"/>
</g>
<!-- Node5 -->
<g id="node3" class="node"><title>Node5</title>
<g id="a_node3"><a xlink:title=" ">
<polygon fill="white" stroke="#bfbfbf" points="892.5,-629.5 892.5,-686.5 961.5,-686.5 961.5,-629.5 892.5,-629.5"/>
<text text-anchor="middle" x="927" y="-674.5" font-family="SegoeUI" font-size="10.00">ISerializable</text>
<polyline fill="none" stroke="#bfbfbf" points="892.5,-667.5 961.5,-667.5 "/>
<text text-anchor="middle" x="927" y="-655.5" font-family="SegoeUI" font-size="10.00"> </text>
<polyline fill="none" stroke="#bfbfbf" points="892.5,-648.5 961.5,-648.5 "/>
<text text-anchor="middle" x="927" y="-636.5" font-family="SegoeUI" font-size="10.00"> </text>
</a>
</g>
</g>
<!-- Node5&#45;&gt;Node3 -->
<g id="edge2" class="edge"><title>Node5&#45;&gt;Node3</title>
<path fill="none" stroke="midnightblue" d="M882.074,-656.666C725.574,-655.039 211.259,-645.621 163,-592 126.579,-551.532 130.458,-390.649 163,-347 234.29,-251.379 596.233,-185.481 750.834,-161.27"/>
<polygon fill="none" stroke="midnightblue" points="882.251,-660.168 892.284,-656.766 882.319,-653.168 882.251,-660.168"/>
</g>
<!-- Node6 -->
<g id="node4" class="node"><title>Node6</title>
<g id="a_node4"><a xlink:href="../../d6/d53/class_juniper_1_1_world_1_1_g_i_s_1_1_lat_lng_point.html" target="_top" xlink:title="A point in geographic space on a radial coordinate system.">
<polygon fill="white" stroke="black" points="172.5,-347.5 172.5,-591.5 297.5,-591.5 297.5,-347.5 172.5,-347.5"/>
<text text-anchor="start" x="180.5" y="-579.5" font-family="SegoeUI" font-size="10.00">Juniper.World.GIS.LatLng</text>
<text text-anchor="middle" x="235" y="-568.5" font-family="SegoeUI" font-size="10.00">Point</text>
<polyline fill="none" stroke="black" points="172.5,-561.5 297.5,-561.5 "/>
<text text-anchor="start" x="180.5" y="-549.5" font-family="SegoeUI" font-size="10.00">+ Altitude</text>
<text text-anchor="start" x="180.5" y="-538.5" font-family="SegoeUI" font-size="10.00">+ Latitude</text>
<text text-anchor="start" x="180.5" y="-527.5" font-family="SegoeUI" font-size="10.00">+ Longitude</text>
<polyline fill="none" stroke="black" points="172.5,-520.5 297.5,-520.5 "/>
<text text-anchor="start" x="180.5" y="-508.5" font-family="SegoeUI" font-size="10.00">+ LatLngPoint()</text>
<text text-anchor="start" x="180.5" y="-497.5" font-family="SegoeUI" font-size="10.00">+ LatLngPoint()</text>
<text text-anchor="start" x="180.5" y="-486.5" font-family="SegoeUI" font-size="10.00">+ GetObjectData()</text>
<text text-anchor="start" x="180.5" y="-475.5" font-family="SegoeUI" font-size="10.00">+ ToUTM()</text>
<text text-anchor="start" x="180.5" y="-464.5" font-family="SegoeUI" font-size="10.00">+ ToSunPosition()</text>
<text text-anchor="start" x="180.5" y="-453.5" font-family="SegoeUI" font-size="10.00">+ ToDMS()</text>
<text text-anchor="start" x="180.5" y="-442.5" font-family="SegoeUI" font-size="10.00">+ ToString()</text>
<text text-anchor="start" x="180.5" y="-431.5" font-family="SegoeUI" font-size="10.00">+ ToString()</text>
<text text-anchor="start" x="180.5" y="-420.5" font-family="SegoeUI" font-size="10.00">+ ToString()</text>
<text text-anchor="start" x="180.5" y="-409.5" font-family="SegoeUI" font-size="10.00">+ Equals()</text>
<text text-anchor="start" x="180.5" y="-398.5" font-family="SegoeUI" font-size="10.00">+ GetHashCode()</text>
<text text-anchor="start" x="180.5" y="-387.5" font-family="SegoeUI" font-size="10.00">+ Distance()</text>
<text text-anchor="start" x="180.5" y="-376.5" font-family="SegoeUI" font-size="10.00">+ TryParseDMS()</text>
<text text-anchor="start" x="180.5" y="-365.5" font-family="SegoeUI" font-size="10.00"># LatLngPoint()</text>
<text text-anchor="start" x="180.5" y="-354.5" font-family="SegoeUI" font-size="10.00">&#45; ToDMS()</text>
</a>
</g>
</g>
<!-- Node5&#45;&gt;Node6 -->
<g id="edge4" class="edge"><title>Node5&#45;&gt;Node6</title>
<path fill="none" stroke="midnightblue" d="M882.175,-657.441C756.09,-657.894 401.345,-653.534 306,-592 303.126,-590.145 300.354,-588.13 297.682,-585.977"/>
<polygon fill="none" stroke="midnightblue" points="882.273,-660.941 892.256,-657.392 882.239,-653.941 882.273,-660.941"/>
</g>
<!-- Node7 -->
<g id="node5" class="node"><title>Node7</title>
<g id="a_node5"><a xlink:href="../../d9/d6e/class_juniper_1_1_world_1_1_climate_1_1_open_weather_map_1_1_weather_report_1_1_o_w_m_sys.html" target="_top" xlink:title="Additional geographic information about the weather report.">
<polygon fill="white" stroke="black" points="315.5,-397 315.5,-542 496.5,-542 496.5,-397 315.5,-397"/>
<text text-anchor="start" x="323.5" y="-530" font-family="SegoeUI" font-size="10.00">Juniper.World.Climate.Open</text>
<text text-anchor="middle" x="406" y="-519" font-family="SegoeUI" font-size="10.00">WeatherMap.WeatherReport.OWMSys</text>
<polyline fill="none" stroke="black" points="315.5,-512 496.5,-512 "/>
<text text-anchor="start" x="323.5" y="-500" font-family="SegoeUI" font-size="10.00">+ country</text>
<text text-anchor="start" x="323.5" y="-489" font-family="SegoeUI" font-size="10.00">+ sunrise</text>
<text text-anchor="start" x="323.5" y="-478" font-family="SegoeUI" font-size="10.00">+ sunset</text>
<text text-anchor="start" x="323.5" y="-467" font-family="SegoeUI" font-size="10.00">+ SunriseTime</text>
<text text-anchor="start" x="323.5" y="-456" font-family="SegoeUI" font-size="10.00">+ SunsetTime</text>
<text text-anchor="start" x="323.5" y="-445" font-family="SegoeUI" font-size="10.00">&#45; riseTime</text>
<text text-anchor="start" x="323.5" y="-434" font-family="SegoeUI" font-size="10.00">&#45; setTime</text>
<polyline fill="none" stroke="black" points="315.5,-427 496.5,-427 "/>
<text text-anchor="start" x="323.5" y="-415" font-family="SegoeUI" font-size="10.00">+ GetObjectData()</text>
<text text-anchor="start" x="323.5" y="-404" font-family="SegoeUI" font-size="10.00"># OWMSys()</text>
</a>
</g>
</g>
<!-- Node5&#45;&gt;Node7 -->
<g id="edge6" class="edge"><title>Node5&#45;&gt;Node7</title>
<path fill="none" stroke="midnightblue" d="M882.213,-654.114C787.366,-647.362 569.725,-628.29 506,-592 484.634,-579.833 465.931,-561.204 450.66,-542.16"/>
<polygon fill="none" stroke="midnightblue" points="882.128,-657.617 892.347,-654.822 882.615,-650.634 882.128,-657.617"/>
</g>
<!-- Node8 -->
<g id="node6" class="node"><title>Node8</title>
<g id="a_node6"><a xlink:href="../../d5/df6/class_juniper_1_1_world_1_1_climate_1_1_open_weather_map_1_1_weather_report_1_1_o_w_m_main.html" target="_top" xlink:title="The main metrics portion of the weather forcast.">
<polygon fill="white" stroke="black" points="515,-397 515,-542 701,-542 701,-397 515,-397"/>
<text text-anchor="start" x="523" y="-530" font-family="SegoeUI" font-size="10.00">Juniper.World.Climate.Open</text>
<text text-anchor="middle" x="608" y="-519" font-family="SegoeUI" font-size="10.00">WeatherMap.WeatherReport.OWMMain</text>
<polyline fill="none" stroke="black" points="515,-512 701,-512 "/>
<text text-anchor="start" x="523" y="-500" font-family="SegoeUI" font-size="10.00">+ temp</text>
<text text-anchor="start" x="523" y="-489" font-family="SegoeUI" font-size="10.00">+ pressure</text>
<text text-anchor="start" x="523" y="-478" font-family="SegoeUI" font-size="10.00">+ humidity</text>
<text text-anchor="start" x="523" y="-467" font-family="SegoeUI" font-size="10.00">+ temp_min</text>
<text text-anchor="start" x="523" y="-456" font-family="SegoeUI" font-size="10.00">+ temp_max</text>
<text text-anchor="start" x="523" y="-445" font-family="SegoeUI" font-size="10.00">+ sea_level</text>
<text text-anchor="start" x="523" y="-434" font-family="SegoeUI" font-size="10.00">+ grnd_level</text>
<polyline fill="none" stroke="black" points="515,-427 701,-427 "/>
<text text-anchor="start" x="523" y="-415" font-family="SegoeUI" font-size="10.00">+ GetObjectData()</text>
<text text-anchor="start" x="523" y="-404" font-family="SegoeUI" font-size="10.00"># OWMMain()</text>
</a>
</g>
</g>
<!-- Node5&#45;&gt;Node8 -->
<g id="edge8" class="edge"><title>Node5&#45;&gt;Node8</title>
<path fill="none" stroke="midnightblue" d="M882.442,-651.337C836.197,-643.785 763.307,-627.057 710,-592 689.98,-578.834 671.787,-560.584 656.492,-542.227"/>
<polygon fill="none" stroke="midnightblue" points="882.038,-654.816 892.457,-652.896 883.115,-647.899 882.038,-654.816"/>
</g>
<!-- Node9 -->
<g id="node7" class="node"><title>Node9</title>
<g id="a_node7"><a xlink:href="../../de/dac/class_juniper_1_1_world_1_1_climate_1_1_open_weather_map_1_1_weather_report_1_1_o_w_m_weather.html" target="_top" xlink:title="nested portion of the OpenWeatherMap report that covers weather conditions.">
<polygon fill="white" stroke="black" points="719.5,-397 719.5,-542 922.5,-542 922.5,-397 719.5,-397"/>
<text text-anchor="start" x="727.5" y="-530" font-family="SegoeUI" font-size="10.00">Juniper.World.Climate.Open</text>
<text text-anchor="middle" x="821" y="-519" font-family="SegoeUI" font-size="10.00">WeatherMap.WeatherReport.OWMWeather</text>
<polyline fill="none" stroke="black" points="719.5,-512 922.5,-512 "/>
<text text-anchor="start" x="727.5" y="-500" font-family="SegoeUI" font-size="10.00">+ main</text>
<text text-anchor="start" x="727.5" y="-489" font-family="SegoeUI" font-size="10.00">+ description</text>
<text text-anchor="start" x="727.5" y="-478" font-family="SegoeUI" font-size="10.00">+ icon</text>
<text text-anchor="start" x="727.5" y="-467" font-family="SegoeUI" font-size="10.00">+ id</text>
<text text-anchor="start" x="727.5" y="-456" font-family="SegoeUI" font-size="10.00">+ IconURL</text>
<text text-anchor="start" x="727.5" y="-445" font-family="SegoeUI" font-size="10.00">+ Conditions</text>
<text text-anchor="start" x="727.5" y="-434" font-family="SegoeUI" font-size="10.00">&#45; cond</text>
<polyline fill="none" stroke="black" points="719.5,-427 922.5,-427 "/>
<text text-anchor="start" x="727.5" y="-415" font-family="SegoeUI" font-size="10.00">+ GetObjectData()</text>
<text text-anchor="start" x="727.5" y="-404" font-family="SegoeUI" font-size="10.00"># OWMWeather()</text>
</a>
</g>
</g>
<!-- Node5&#45;&gt;Node9 -->
<g id="edge10" class="edge"><title>Node5&#45;&gt;Node9</title>
<path fill="none" stroke="midnightblue" d="M906.353,-620.673C893.654,-598.329 876.94,-568.923 861.672,-542.06"/>
<polygon fill="none" stroke="midnightblue" points="903.375,-622.517 911.359,-629.481 909.461,-619.058 903.375,-622.517"/>
</g>
<!-- Node10 -->
<g id="node8" class="node"><title>Node10</title>
<g id="a_node8"><a xlink:href="../../de/dfa/class_juniper_1_1_world_1_1_climate_1_1_open_weather_map_1_1_weather_report_1_1_o_w_m_rain.html" target="_top" xlink:title="The expected rainfall for the next three hours.">
<polygon fill="white" stroke="black" points="940.5,-430 940.5,-509 1125.5,-509 1125.5,-430 940.5,-430"/>
<text text-anchor="start" x="948.5" y="-497" font-family="SegoeUI" font-size="10.00">Juniper.World.Climate.Open</text>
<text text-anchor="middle" x="1033" y="-486" font-family="SegoeUI" font-size="10.00">WeatherMap.WeatherReport.OWMRain</text>
<polyline fill="none" stroke="black" points="940.5,-479 1125.5,-479 "/>
<text text-anchor="start" x="948.5" y="-467" font-family="SegoeUI" font-size="10.00">+ threeHour</text>
<polyline fill="none" stroke="black" points="940.5,-460 1125.5,-460 "/>
<text text-anchor="start" x="948.5" y="-448" font-family="SegoeUI" font-size="10.00">+ GetObjectData()</text>
<text text-anchor="start" x="948.5" y="-437" font-family="SegoeUI" font-size="10.00"># OWMRain()</text>
</a>
</g>
</g>
<!-- Node5&#45;&gt;Node10 -->
<g id="edge12" class="edge"><title>Node5&#45;&gt;Node10</title>
<path fill="none" stroke="midnightblue" d="M947.785,-620.43C966.018,-588.351 992.446,-541.852 1011.02,-509.164"/>
<polygon fill="none" stroke="midnightblue" points="944.539,-619.058 942.641,-629.481 950.625,-622.517 944.539,-619.058"/>
</g>
<!-- Node11 -->
<g id="node9" class="node"><title>Node11</title>
<g id="a_node9"><a xlink:href="../../db/d80/class_juniper_1_1_world_1_1_climate_1_1_open_weather_map_1_1_weather_report_1_1_o_w_m_clouds.html" target="_top" xlink:title="The current cloud cover.">
<polygon fill="white" stroke="black" points="1144,-430 1144,-509 1338,-509 1338,-430 1144,-430"/>
<text text-anchor="start" x="1152" y="-497" font-family="SegoeUI" font-size="10.00">Juniper.World.Climate.Open</text>
<text text-anchor="middle" x="1241" y="-486" font-family="SegoeUI" font-size="10.00">WeatherMap.WeatherReport.OWMClouds</text>
<polyline fill="none" stroke="black" points="1144,-479 1338,-479 "/>
<text text-anchor="start" x="1152" y="-467" font-family="SegoeUI" font-size="10.00">+ all</text>
<polyline fill="none" stroke="black" points="1144,-460 1338,-460 "/>
<text text-anchor="start" x="1152" y="-448" font-family="SegoeUI" font-size="10.00">+ GetObjectData()</text>
<text text-anchor="start" x="1152" y="-437" font-family="SegoeUI" font-size="10.00"># OWMClouds()</text>
</a>
</g>
</g>
<!-- Node5&#45;&gt;Node11 -->
<g id="edge14" class="edge"><title>Node5&#45;&gt;Node11</title>
<path fill="none" stroke="midnightblue" d="M971.536,-650.226C1015.61,-641.938 1083.61,-624.764 1134,-592 1167.11,-570.473 1196.1,-535.978 1215.53,-509.234"/>
<polygon fill="none" stroke="midnightblue" points="970.909,-646.783 961.691,-652.005 972.154,-653.671 970.909,-646.783"/>
</g>
<!-- Node12 -->
<g id="node10" class="node"><title>Node12</title>
<g id="a_node10"><a xlink:href="../../df/dc5/class_juniper_1_1_world_1_1_climate_1_1_open_weather_map_1_1_weather_report_1_1_o_w_m_wind.html" target="_top" xlink:title="The current wind speed and direction.">
<polygon fill="white" stroke="black" points="1356,-424.5 1356,-514.5 1544,-514.5 1544,-424.5 1356,-424.5"/>
<text text-anchor="start" x="1364" y="-502.5" font-family="SegoeUI" font-size="10.00">Juniper.World.Climate.Open</text>
<text text-anchor="middle" x="1450" y="-491.5" font-family="SegoeUI" font-size="10.00">WeatherMap.WeatherReport.OWMWind</text>
<polyline fill="none" stroke="black" points="1356,-484.5 1544,-484.5 "/>
<text text-anchor="start" x="1364" y="-472.5" font-family="SegoeUI" font-size="10.00">+ speed</text>
<text text-anchor="start" x="1364" y="-461.5" font-family="SegoeUI" font-size="10.00">+ deg</text>
<polyline fill="none" stroke="black" points="1356,-454.5 1544,-454.5 "/>
<text text-anchor="start" x="1364" y="-442.5" font-family="SegoeUI" font-size="10.00">+ GetObjectData()</text>
<text text-anchor="start" x="1364" y="-431.5" font-family="SegoeUI" font-size="10.00"># OWMWind()</text>
</a>
</g>
</g>
<!-- Node5&#45;&gt;Node12 -->
<g id="edge16" class="edge"><title>Node5&#45;&gt;Node12</title>
<path fill="none" stroke="midnightblue" d="M971.641,-654.033C1066.19,-647.12 1283.17,-627.754 1347,-592 1379.33,-573.892 1406.03,-541.451 1424.15,-514.644"/>
<polygon fill="none" stroke="midnightblue" points="971.263,-650.551 961.539,-654.758 971.764,-657.533 971.263,-650.551"/>
</g>
<!-- Node13 -->
<g id="node11" class="node"><title>Node13</title>
<g id="a_node11"><a xlink:href="../../d4/dda/class_juniper_1_1_world_1_1_climate_1_1_open_weather_map_1_1_weather_report_1_1_o_w_m_coord.html" target="_top" xlink:title="Latitude and longitude values for the OpenWeatherMap report.">
<polygon fill="white" stroke="black" points="1562.5,-424.5 1562.5,-514.5 1753.5,-514.5 1753.5,-424.5 1562.5,-424.5"/>
<text text-anchor="start" x="1570.5" y="-502.5" font-family="SegoeUI" font-size="10.00">Juniper.World.Climate.Open</text>
<text text-anchor="middle" x="1658" y="-491.5" font-family="SegoeUI" font-size="10.00">WeatherMap.WeatherReport.OWMCoord</text>
<polyline fill="none" stroke="black" points="1562.5,-484.5 1753.5,-484.5 "/>
<text text-anchor="start" x="1570.5" y="-472.5" font-family="SegoeUI" font-size="10.00">+ lon</text>
<text text-anchor="start" x="1570.5" y="-461.5" font-family="SegoeUI" font-size="10.00">+ lat</text>
<polyline fill="none" stroke="black" points="1562.5,-454.5 1753.5,-454.5 "/>
<text text-anchor="start" x="1570.5" y="-442.5" font-family="SegoeUI" font-size="10.00">+ GetObjectData()</text>
<text text-anchor="start" x="1570.5" y="-431.5" font-family="SegoeUI" font-size="10.00"># OWMCoord()</text>
</a>
</g>
</g>
<!-- Node5&#45;&gt;Node13 -->
<g id="edge18" class="edge"><title>Node5&#45;&gt;Node13</title>
<path fill="none" stroke="midnightblue" d="M971.658,-656.581C1097.35,-654.748 1451.59,-644.899 1553,-592 1586.37,-574.594 1613.74,-541.757 1632.17,-514.606"/>
<polygon fill="none" stroke="midnightblue" points="971.561,-653.082 961.61,-656.718 971.656,-660.081 971.561,-653.082"/>
</g>
<!-- Node14 -->
<g id="node12" class="node"><title>Node14</title>
<g id="a_node12"><a xlink:href="../../df/d33/class_juniper_1_1_world_1_1_climate_1_1_open_weather_map_1_1_weather_report_1_1_o_w_m_snow.html" target="_top" xlink:title="The expected snowfall for the next three hours.">
<polygon fill="white" stroke="black" points="1772,-430 1772,-509 1962,-509 1962,-430 1772,-430"/>
<text text-anchor="start" x="1780" y="-497" font-family="SegoeUI" font-size="10.00">Juniper.World.Climate.Open</text>
<text text-anchor="middle" x="1867" y="-486" font-family="SegoeUI" font-size="10.00">WeatherMap.WeatherReport.OWMSnow</text>
<polyline fill="none" stroke="black" points="1772,-479 1962,-479 "/>
<text text-anchor="start" x="1780" y="-467" font-family="SegoeUI" font-size="10.00">+ threeHour</text>
<polyline fill="none" stroke="black" points="1772,-460 1962,-460 "/>
<text text-anchor="start" x="1780" y="-448" font-family="SegoeUI" font-size="10.00">+ GetObjectData()</text>
<text text-anchor="start" x="1780" y="-437" font-family="SegoeUI" font-size="10.00"># OWMSnow()</text>
</a>
</g>
</g>
<!-- Node5&#45;&gt;Node14 -->
<g id="edge20" class="edge"><title>Node5&#45;&gt;Node14</title>
<path fill="none" stroke="midnightblue" d="M971.922,-655.512C1135.33,-649.825 1692.24,-627.962 1763,-592 1798.77,-573.821 1827.29,-537.454 1845.35,-509.223"/>
<polygon fill="none" stroke="midnightblue" points="971.61,-652.02 961.737,-655.863 971.852,-659.016 971.61,-652.02"/>
</g>
<!-- Node6&#45;&gt;Node3 -->
<g id="edge3" class="edge"><title>Node6&#45;&gt;Node3</title>
<path fill="none" stroke="#404040" d="M297.6,-354.763C300.311,-352.044 303.111,-349.448 306,-347 434.405,-238.229 629.505,-186.397 739.017,-164.61"/>
<polygon fill="none" stroke="#404040" points="739.185,-164.578 744.31,-159.505 750.964,-162.286 745.839,-167.358 739.185,-164.578"/>
<text text-anchor="middle" x="351.5" y="-321" font-family="SegoeUI" font-size="10.00"> &#45;loc</text>
</g>
<!-- Node7&#45;&gt;Node3 -->
<g id="edge5" class="edge"><title>Node7&#45;&gt;Node3</title>
<path fill="none" stroke="#404040" d="M458.438,-396.87C472.833,-379.532 489.149,-361.761 506,-347 578.285,-283.681 673.304,-227.595 740.007,-191.817"/>
<polygon fill="none" stroke="#404040" points="740.282,-191.671 743.7,-185.321 750.875,-186.033 747.458,-192.383 740.282,-191.671"/>
<text text-anchor="middle" x="548.5" y="-321" font-family="SegoeUI" font-size="10.00"> +sys</text>
</g>
<!-- Node8&#45;&gt;Node3 -->
<g id="edge7" class="edge"><title>Node8&#45;&gt;Node3</title>
<path fill="none" stroke="#404040" d="M656.067,-396.851C682.021,-358.164 714.68,-309.481 744.075,-265.665"/>
<polygon fill="none" stroke="#404040" points="744.195,-265.487 744.216,-258.276 750.88,-255.521 750.859,-262.733 744.195,-265.487"/>
<text text-anchor="middle" x="724.5" y="-321" font-family="SegoeUI" font-size="10.00"> +main</text>
</g>
<!-- Node9&#45;&gt;Node3 -->
<g id="edge9" class="edge"><title>Node9&#45;&gt;Node3</title>
<path fill="none" stroke="#404040" d="M821,-396.851C821,-371.453 821,-341.746 821,-311.937"/>
<polygon fill="none" stroke="#404040" points="821,-311.62 817,-305.621 821,-299.62 825,-305.62 821,-311.62"/>
<text text-anchor="middle" x="843.5" y="-321" font-family="SegoeUI" font-size="10.00"> +weather</text>
</g>
<!-- Node10&#45;&gt;Node3 -->
<g id="edge11" class="edge"><title>Node10&#45;&gt;Node3</title>
<path fill="none" stroke="#404040" d="M1007.22,-429.886C980.151,-389.351 936.282,-323.652 897.921,-266.2"/>
<polygon fill="none" stroke="#404040" points="897.739,-265.928 891.081,-263.159 891.075,-255.948 897.734,-258.717 897.739,-265.928"/>
<text text-anchor="middle" x="953" y="-321" font-family="SegoeUI" font-size="10.00"> +rain</text>
</g>
<!-- Node11&#45;&gt;Node3 -->
<g id="edge13" class="edge"><title>Node11&#45;&gt;Node3</title>
<path fill="none" stroke="#404040" d="M1211.71,-429.75C1191.51,-404.49 1163.14,-371.746 1134,-347 1061.44,-285.371 967.753,-229.296 901.857,-193.065"/>
<polygon fill="none" stroke="#404040" points="901.651,-192.952 894.468,-193.587 891.119,-187.201 898.302,-186.566 901.651,-192.952"/>
<text text-anchor="middle" x="1129.5" y="-321" font-family="SegoeUI" font-size="10.00"> +clouds</text>
</g>
<!-- Node12&#45;&gt;Node3 -->
<g id="edge15" class="edge"><title>Node12&#45;&gt;Node3</title>
<path fill="none" stroke="#404040" d="M1421.3,-424.481C1402.72,-398.905 1376.53,-367.737 1347,-347 1207.09,-248.763 1011.93,-193.125 902.943,-167.832"/>
<polygon fill="none" stroke="#404040" points="902.755,-167.79 896.015,-170.352 891.057,-165.115 897.798,-162.553 902.755,-167.79"/>
<text text-anchor="middle" x="1324" y="-321" font-family="SegoeUI" font-size="10.00"> +wind</text>
</g>
<!-- Node13&#45;&gt;Node3 -->
<g id="edge17" class="edge"><title>Node13&#45;&gt;Node3</title>
<path fill="none" stroke="#404040" d="M1629.91,-424.353C1611.12,-398.236 1584.18,-366.544 1553,-347 1343,-215.379 1045.68,-171.335 903.271,-157.251"/>
<polygon fill="none" stroke="#404040" points="903.165,-157.241 896.81,-160.649 891.22,-156.094 897.575,-152.686 903.165,-157.241"/>
<text text-anchor="middle" x="1535" y="-321" font-family="SegoeUI" font-size="10.00"> +coord</text>
</g>
<!-- Node14&#45;&gt;Node3 -->
<g id="edge19" class="edge"><title>Node14&#45;&gt;Node3</title>
<path fill="none" stroke="#404040" d="M1843.88,-429.904C1825.42,-402.504 1797.06,-367.138 1763,-347 1480.02,-179.677 1075.42,-153.782 903.426,-150.753"/>
<polygon fill="none" stroke="#404040" points="903.201,-150.75 897.142,-154.659 891.203,-150.57 897.262,-146.66 903.201,-150.75"/>
<text text-anchor="middle" x="1733" y="-321" font-family="SegoeUI" font-size="10.00"> +snow</text>
</g>
</g>
</svg>
