<?xml version="1.0" encoding="UTF-8" standalone="no"?>
<!DOCTYPE svg PUBLIC "-//W3C//DTD SVG 1.1//EN"
 "http://www.w3.org/Graphics/SVG/1.1/DTD/svg11.dtd">
<!-- Generated by graphviz version 2.38.0 (20140413.2041)
 -->
<!-- Title: System.Collections.Generic.RingBuffer&lt; T &gt; Pages: 1 -->
<svg width="143pt" height="413pt"
 viewBox="0.00 0.00 143.00 413.00" xmlns="http://www.w3.org/2000/svg" xmlns:xlink="http://www.w3.org/1999/xlink">
<g id="graph0" class="graph" transform="scale(1 1) rotate(0) translate(4 409)">
<title>System.Collections.Generic.RingBuffer&lt; T &gt;</title>
<polygon fill="white" stroke="none" points="-4,4 -4,-409 139,-409 139,4 -4,4"/>
<!-- Node0 -->
<g id="node1" class="node"><title>Node0</title>
<g id="a_node1"><a xlink:title="A collection of fixed size that overwrites the oldest items when the collection is full.">
<polygon fill="#bfbfbf" stroke="black" points="0,-0.5 0,-310.5 135,-310.5 135,-0.5 0,-0.5"/>
<text text-anchor="start" x="8" y="-298.5" font-family="SegoeUI" font-size="10.00">System.Collections.Generic.</text>
<text text-anchor="middle" x="67.5" y="-287.5" font-family="SegoeUI" font-size="10.00">RingBuffer&lt; T &gt;</text>
<polyline fill="none" stroke="black" points="0,-280.5 135,-280.5 "/>
<text text-anchor="start" x="8" y="-268.5" font-family="SegoeUI" font-size="10.00">+ Start</text>
<text text-anchor="start" x="8" y="-257.5" font-family="SegoeUI" font-size="10.00">+ End</text>
<text text-anchor="start" x="8" y="-246.5" font-family="SegoeUI" font-size="10.00">+ IsSaturated</text>
<text text-anchor="start" x="8" y="-235.5" font-family="SegoeUI" font-size="10.00">+ Count</text>
<text text-anchor="start" x="8" y="-224.5" font-family="SegoeUI" font-size="10.00">+ IsReadOnly</text>
<text text-anchor="start" x="8" y="-213.5" font-family="SegoeUI" font-size="10.00">+ this[int index]</text>
<text text-anchor="start" x="8" y="-202.5" font-family="SegoeUI" font-size="10.00">&#45; width</text>
<text text-anchor="start" x="8" y="-191.5" font-family="SegoeUI" font-size="10.00">&#45; buffer</text>
<text text-anchor="start" x="8" y="-180.5" font-family="SegoeUI" font-size="10.00">&#45; start</text>
<text text-anchor="start" x="8" y="-169.5" font-family="SegoeUI" font-size="10.00">&#45; end</text>
<polyline fill="none" stroke="black" points="0,-162.5 135,-162.5 "/>
<text text-anchor="start" x="8" y="-150.5" font-family="SegoeUI" font-size="10.00">+ RingBuffer()</text>
<text text-anchor="start" x="8" y="-139.5" font-family="SegoeUI" font-size="10.00">+ GetEnumerator()</text>
<text text-anchor="start" x="8" y="-128.5" font-family="SegoeUI" font-size="10.00">+ Contains()</text>
<text text-anchor="start" x="8" y="-117.5" font-family="SegoeUI" font-size="10.00">+ CopyTo()</text>
<text text-anchor="start" x="8" y="-106.5" font-family="SegoeUI" font-size="10.00">+ CopyTo()</text>
<text text-anchor="start" x="8" y="-95.5" font-family="SegoeUI" font-size="10.00">+ CopyTo()</text>
<text text-anchor="start" x="8" y="-84.5" font-family="SegoeUI" font-size="10.00">+ CopyTo()</text>
<text text-anchor="start" x="8" y="-73.5" font-family="SegoeUI" font-size="10.00">+ Remove()</text>
<text text-anchor="start" x="8" y="-62.5" font-family="SegoeUI" font-size="10.00">+ IndexOf()</text>
<text text-anchor="start" x="8" y="-51.5" font-family="SegoeUI" font-size="10.00">+ Clear()</text>
<text text-anchor="start" x="8" y="-40.5" font-family="SegoeUI" font-size="10.00">+ Add()</text>
<text text-anchor="start" x="8" y="-29.5" font-family="SegoeUI" font-size="10.00">+ Insert()</text>
<text text-anchor="start" x="8" y="-18.5" font-family="SegoeUI" font-size="10.00">+ RemoveAt()</text>
<text text-anchor="start" x="8" y="-7.5" font-family="SegoeUI" font-size="10.00">&#45; GetEnumerator()</text>
</a>
</g>
</g>
<!-- Node1 -->
<g id="node2" class="node"><title>Node1</title>
<g id="a_node2"><a xlink:title=" ">
<polygon fill="white" stroke="#bfbfbf" points="38,-347.5 38,-404.5 97,-404.5 97,-347.5 38,-347.5"/>
<text text-anchor="middle" x="67.5" y="-392.5" font-family="SegoeUI" font-size="10.00">IList&lt; T &gt;</text>
<polyline fill="none" stroke="#bfbfbf" points="38,-385.5 97,-385.5 "/>
<text text-anchor="middle" x="67.5" y="-373.5" font-family="SegoeUI" font-size="10.00"> </text>
<polyline fill="none" stroke="#bfbfbf" points="38,-366.5 97,-366.5 "/>
<text text-anchor="middle" x="67.5" y="-354.5" font-family="SegoeUI" font-size="10.00"> </text>
</a>
</g>
</g>
<!-- Node1&#45;&gt;Node0 -->
<g id="edge1" class="edge"><title>Node1&#45;&gt;Node0</title>
<path fill="none" stroke="midnightblue" d="M67.5,-337.281C67.5,-329.208 67.5,-320.205 67.5,-310.648"/>
<polygon fill="none" stroke="midnightblue" points="64.0001,-337.327 67.5,-347.327 71.0001,-337.327 64.0001,-337.327"/>
</g>
</g>
</svg>
