<?xml version="1.0" encoding="UTF-8" standalone="no"?>
<!DOCTYPE svg PUBLIC "-//W3C//DTD SVG 1.1//EN"
 "http://www.w3.org/Graphics/SVG/1.1/DTD/svg11.dtd">
<!-- Generated by graphviz version 2.38.0 (20140413.2041)
 -->
<!-- Title: Juniper.ConfigurationManagement.Platforms Pages: 1 -->
<svg width="469pt" height="672pt"
 viewBox="0.00 0.00 469.00 672.00" xmlns="http://www.w3.org/2000/svg" xmlns:xlink="http://www.w3.org/1999/xlink">
<g id="graph0" class="graph" transform="scale(1 1) rotate(0) translate(4 668)">
<title>Juniper.ConfigurationManagement.Platforms</title>
<polygon fill="white" stroke="none" points="-4,4 -4,-668 465,-668 465,4 -4,4"/>
<!-- Node1 -->
<g id="node1" class="node"><title>Node1</title>
<g id="a_node1"><a xlink:title=" ">
<polygon fill="#bfbfbf" stroke="black" points="184,-0.5 184,-123.5 350,-123.5 350,-0.5 184,-0.5"/>
<text text-anchor="start" x="192" y="-111.5" font-family="SegoeUI" font-size="10.00">Juniper.ConfigurationManagement.</text>
<text text-anchor="middle" x="267" y="-100.5" font-family="SegoeUI" font-size="10.00">Platforms</text>
<polyline fill="none" stroke="black" points="184,-93.5 350,-93.5 "/>
<text text-anchor="start" x="192" y="-81.5" font-family="SegoeUI" font-size="10.00">+ rawPackageDB</text>
<text text-anchor="start" x="192" y="-70.5" font-family="SegoeUI" font-size="10.00">+ PlatformDB</text>
<text text-anchor="start" x="192" y="-59.5" font-family="SegoeUI" font-size="10.00">+ AllCompilerDefines</text>
<polyline fill="none" stroke="black" points="184,-52.5 350,-52.5 "/>
<text text-anchor="start" x="192" y="-40.5" font-family="SegoeUI" font-size="10.00">+ Platforms()</text>
<text text-anchor="start" x="192" y="-29.5" font-family="SegoeUI" font-size="10.00">+ ForEachPackage&lt; T &gt;()</text>
<text text-anchor="start" x="192" y="-18.5" font-family="SegoeUI" font-size="10.00">+ GetCompilerDefines()</text>
<text text-anchor="start" x="192" y="-7.5" font-family="SegoeUI" font-size="10.00">&#45; ParsePackages()</text>
</a>
</g>
</g>
<!-- Node2 -->
<g id="node2" class="node"><title>Node2</title>
<g id="a_node2"><a xlink:href="../../d5/d6b/class_juniper_1_1_configuration_management_1_1_platform_configuration.html" target="_top" xlink:title=" ">
<polygon fill="white" stroke="black" points="0,-171.5 0,-525.5 166,-525.5 166,-171.5 0,-171.5"/>
<text text-anchor="start" x="8" y="-513.5" font-family="SegoeUI" font-size="10.00">Juniper.ConfigurationManagement.</text>
<text text-anchor="middle" x="83" y="-502.5" font-family="SegoeUI" font-size="10.00">PlatformConfiguration</text>
<polyline fill="none" stroke="black" points="0,-495.5 166,-495.5 "/>
<text text-anchor="start" x="8" y="-483.5" font-family="SegoeUI" font-size="10.00">+ Name</text>
<text text-anchor="start" x="8" y="-472.5" font-family="SegoeUI" font-size="10.00">+ CompilerDefine</text>
<text text-anchor="start" x="8" y="-461.5" font-family="SegoeUI" font-size="10.00">+ buildTarget</text>
<text text-anchor="start" x="8" y="-450.5" font-family="SegoeUI" font-size="10.00">+ spatializer</text>
<text text-anchor="start" x="8" y="-439.5" font-family="SegoeUI" font-size="10.00">+ androidSdkVersion</text>
<text text-anchor="start" x="8" y="-428.5" font-family="SegoeUI" font-size="10.00">+ iOSVersion</text>
<text text-anchor="start" x="8" y="-417.5" font-family="SegoeUI" font-size="10.00">+ wsaSubtarget</text>
<text text-anchor="start" x="8" y="-406.5" font-family="SegoeUI" font-size="10.00">+ vrSystems</text>
<text text-anchor="start" x="8" y="-395.5" font-family="SegoeUI" font-size="10.00">+ packages</text>
<text text-anchor="start" x="8" y="-384.5" font-family="SegoeUI" font-size="10.00">+ BuildTarget</text>
<text text-anchor="start" x="8" y="-373.5" font-family="SegoeUI" font-size="10.00">+ TargetGroup</text>
<text text-anchor="start" x="8" y="-362.5" font-family="SegoeUI" font-size="10.00">+ IsSupported</text>
<text text-anchor="start" x="8" y="-351.5" font-family="SegoeUI" font-size="10.00">+ XRPlatforms</text>
<text text-anchor="start" x="8" y="-340.5" font-family="SegoeUI" font-size="10.00">+ UninstallableUnityPackages</text>
<text text-anchor="start" x="8" y="-329.5" font-family="SegoeUI" font-size="10.00">+ IncludedUnityPackages</text>
<text text-anchor="start" x="8" y="-318.5" font-family="SegoeUI" font-size="10.00">+ ExcludedUnityPackages</text>
<text text-anchor="start" x="8" y="-307.5" font-family="SegoeUI" font-size="10.00">+ UninstallableRawPackages</text>
<text text-anchor="start" x="8" y="-296.5" font-family="SegoeUI" font-size="10.00">+ RawPackages</text>
<text text-anchor="start" x="8" y="-285.5" font-family="SegoeUI" font-size="10.00">+ TargetSwitchNeeded</text>
<text text-anchor="start" x="8" y="-274.5" font-family="SegoeUI" font-size="10.00">+ CompilerDefines</text>
<polyline fill="none" stroke="black" points="0,-267.5 166,-267.5 "/>
<text text-anchor="start" x="8" y="-255.5" font-family="SegoeUI" font-size="10.00">+ PlatformConfiguration()</text>
<text text-anchor="start" x="8" y="-244.5" font-family="SegoeUI" font-size="10.00">+ SwitchTarget()</text>
<text text-anchor="start" x="8" y="-233.5" font-family="SegoeUI" font-size="10.00">+ InstallUnityPackages()</text>
<text text-anchor="start" x="8" y="-222.5" font-family="SegoeUI" font-size="10.00">+ InstallRawPackages()</text>
<text text-anchor="start" x="8" y="-211.5" font-family="SegoeUI" font-size="10.00">+ Activate()</text>
<text text-anchor="start" x="8" y="-200.5" font-family="SegoeUI" font-size="10.00">+ UninstallRawPackages()</text>
<text text-anchor="start" x="8" y="-189.5" font-family="SegoeUI" font-size="10.00">+ UninstallUnityPackages()</text>
<text text-anchor="start" x="8" y="-178.5" font-family="SegoeUI" font-size="10.00">&#45; Deactivate()</text>
</a>
</g>
</g>
<!-- Node2&#45;&gt;Node1 -->
<g id="edge1" class="edge"><title>Node2&#45;&gt;Node1</title>
<path fill="none" stroke="#404040" d="M166.103,-184.623C169.038,-179.992 172.007,-175.442 175,-171 183.611,-158.223 193.507,-145.242 203.546,-132.919"/>
<polygon fill="none" stroke="#404040" points="203.578,-132.881 204.324,-125.708 211.231,-123.638 210.485,-130.811 203.578,-132.881"/>
<text text-anchor="middle" x="226.5" y="-145" font-family="SegoeUI" font-size="10.00"> +AllPlatforms</text>
</g>
<!-- Node3 -->
<g id="node3" class="node"><title>Node3</title>
<g id="a_node3"><a xlink:href="../../d6/d4e/class_juniper_1_1_configuration_management_1_1_raw_package.html" target="_top" xlink:title=" ">
<polygon fill="white" stroke="black" points="184,-298 184,-399 350,-399 350,-298 184,-298"/>
<text text-anchor="start" x="192" y="-387" font-family="SegoeUI" font-size="10.00">Juniper.ConfigurationManagement.</text>
<text text-anchor="middle" x="267" y="-376" font-family="SegoeUI" font-size="10.00">RawPackage</text>
<polyline fill="none" stroke="black" points="184,-369 350,-369 "/>
<text text-anchor="start" x="192" y="-357" font-family="SegoeUI" font-size="10.00">+ InputZipFileName</text>
<polyline fill="none" stroke="black" points="184,-350 350,-350 "/>
<text text-anchor="start" x="192" y="-338" font-family="SegoeUI" font-size="10.00">+ Install()</text>
<text text-anchor="start" x="192" y="-327" font-family="SegoeUI" font-size="10.00">+ Activate()</text>
<text text-anchor="start" x="192" y="-316" font-family="SegoeUI" font-size="10.00">+ Uninstall()</text>
<text text-anchor="start" x="192" y="-305" font-family="SegoeUI" font-size="10.00">&#45; DeleteAll()</text>
</a>
</g>
</g>
<!-- Node3&#45;&gt;Node1 -->
<g id="edge2" class="edge"><title>Node3&#45;&gt;Node1</title>
<path fill="none" stroke="#404040" d="M267,-297.944C267,-253.16 267,-186.665 267,-135.834"/>
<polygon fill="none" stroke="#404040" points="267,-135.602 263,-129.602 267,-123.602 271,-129.602 267,-135.602"/>
<text text-anchor="middle" x="306" y="-145" font-family="SegoeUI" font-size="10.00"> +allRawPackages</text>
</g>
<!-- Node4 -->
<g id="node4" class="node"><title>Node4</title>
<g id="a_node4"><a xlink:href="../../dc/d6b/class_juniper_1_1_configuration_management_1_1_abstract_package.html" target="_top" xlink:title=" ">
<polygon fill="white" stroke="black" points="201.5,-573.5 201.5,-663.5 292.5,-663.5 292.5,-573.5 201.5,-573.5"/>
<text text-anchor="middle" x="247" y="-651.5" font-family="SegoeUI" font-size="10.00">AbstractPackage</text>
<polyline fill="none" stroke="black" points="201.5,-644.5 292.5,-644.5 "/>
<text text-anchor="start" x="209.5" y="-632.5" font-family="SegoeUI" font-size="10.00">+ Name</text>
<text text-anchor="start" x="209.5" y="-621.5" font-family="SegoeUI" font-size="10.00">+ CompilerDefine</text>
<polyline fill="none" stroke="black" points="201.5,-614.5 292.5,-614.5 "/>
<text text-anchor="start" x="209.5" y="-602.5" font-family="SegoeUI" font-size="10.00">+ Install()</text>
<text text-anchor="start" x="209.5" y="-591.5" font-family="SegoeUI" font-size="10.00">+ Activate()</text>
<text text-anchor="start" x="209.5" y="-580.5" font-family="SegoeUI" font-size="10.00">+ Uninstall()</text>
</a>
</g>
</g>
<!-- Node4&#45;&gt;Node3 -->
<g id="edge3" class="edge"><title>Node4&#45;&gt;Node3</title>
<path fill="none" stroke="midnightblue" d="M251.064,-563.049C254.643,-515.084 259.813,-445.806 263.284,-399.29"/>
<polygon fill="none" stroke="midnightblue" points="247.557,-563.012 250.303,-573.245 254.537,-563.533 247.557,-563.012"/>
</g>
<!-- Node5 -->
<g id="node5" class="node"><title>Node5</title>
<g id="a_node5"><a xlink:title=" ">
<polygon fill="white" stroke="#bfbfbf" points="338.5,-590 338.5,-647 377.5,-647 377.5,-590 338.5,-590"/>
<text text-anchor="middle" x="358" y="-635" font-family="SegoeUI" font-size="10.00">static</text>
<polyline fill="none" stroke="#bfbfbf" points="338.5,-628 377.5,-628 "/>
<text text-anchor="middle" x="358" y="-616" font-family="SegoeUI" font-size="10.00"> </text>
<polyline fill="none" stroke="#bfbfbf" points="338.5,-609 377.5,-609 "/>
<text text-anchor="middle" x="358" y="-597" font-family="SegoeUI" font-size="10.00"> </text>
</a>
</g>
</g>
<!-- Node5&#45;&gt;Node1 -->
<g id="edge5" class="edge"><title>Node5&#45;&gt;Node1</title>
<path fill="none" stroke="#404040" d="M365.601,-589.72C368.179,-578.964 370.728,-566.494 372,-555 372.538,-550.141 372.085,-548.888 372,-544 369.111,-378.147 389.26,-334.095 359,-171 356.513,-157.595 356.335,-153.493 349,-142 347.106,-139.032 345.078,-136.094 342.945,-133.197"/>
<polygon fill="none" stroke="#404040" points="342.748,-132.948 335.893,-130.708 335.324,-123.519 342.179,-125.759 342.748,-132.948"/>
<text text-anchor="middle" x="418.5" y="-351.5" font-family="SegoeUI" font-size="10.00"> &#45;NO_VR_SYSTEMS</text>
<text text-anchor="middle" x="418.5" y="-340.5" font-family="SegoeUI" font-size="10.00">&#45;EMPTY_PACKAGES</text>
</g>
<!-- Node5&#45;&gt;Node3 -->
<g id="edge4" class="edge"><title>Node5&#45;&gt;Node3</title>
<path fill="none" stroke="#404040" d="M338.34,-602.178C316.087,-584.743 282.685,-558.248 281,-555 258.146,-510.94 255.959,-454.248 258.746,-411.574"/>
<polygon fill="none" stroke="#404040" points="258.765,-411.335 255.245,-405.041 259.702,-399.372 263.221,-405.666 258.765,-411.335"/>
<text text-anchor="middle" x="326.5" y="-547" font-family="SegoeUI" font-size="10.00"> +ROOT_DIRECTORY</text>
</g>
</g>
</svg>
