<?xml version="1.0" encoding="UTF-8" standalone="no"?>
<!DOCTYPE svg PUBLIC "-//W3C//DTD SVG 1.1//EN"
 "http://www.w3.org/Graphics/SVG/1.1/DTD/svg11.dtd">
<!-- Generated by graphviz version 2.38.0 (20140413.2041)
 -->
<!-- Title: Juniper.World.GPSLocation Pages: 1 -->
<svg width="234pt" height="629pt"
 viewBox="0.00 0.00 233.50 629.00" xmlns="http://www.w3.org/2000/svg" xmlns:xlink="http://www.w3.org/1999/xlink">
<g id="graph0" class="graph" transform="scale(1 1) rotate(0) translate(4 625)">
<title>Juniper.World.GPSLocation</title>
<polygon fill="white" stroke="none" points="-4,4 -4,-625 229.5,-625 229.5,4 -4,4"/>
<!-- Node2 -->
<g id="node1" class="node"><title>Node2</title>
<g id="a_node1"><a xlink:title="Retrieves the user&#39;s latitude, longitude, and altitude from satellites orbiting Spaceship Earth....">
<polygon fill="#bfbfbf" stroke="black" points="5.5,-0.5 5.5,-266.5 152.5,-266.5 152.5,-0.5 5.5,-0.5"/>
<text text-anchor="middle" x="79" y="-254.5" font-family="SegoeUI" font-size="10.00">Juniper.World.GPSLocation</text>
<polyline fill="none" stroke="black" points="5.5,-247.5 152.5,-247.5 "/>
<text text-anchor="start" x="13.5" y="-235.5" font-family="SegoeUI" font-size="10.00">+ timeBetweenUpdates</text>
<text text-anchor="start" x="13.5" y="-224.5" font-family="SegoeUI" font-size="10.00">+ desiredAccuracy</text>
<text text-anchor="start" x="13.5" y="-213.5" font-family="SegoeUI" font-size="10.00">+ updateDistance</text>
<text text-anchor="start" x="13.5" y="-202.5" font-family="SegoeUI" font-size="10.00">+ FakeCoord</text>
<text text-anchor="start" x="13.5" y="-191.5" font-family="SegoeUI" font-size="10.00">+ DebugReport</text>
<text text-anchor="start" x="13.5" y="-180.5" font-family="SegoeUI" font-size="10.00">+ onPositionUpdated</text>
<text text-anchor="start" x="13.5" y="-169.5" font-family="SegoeUI" font-size="10.00">+ HasCoord</text>
<text text-anchor="start" x="13.5" y="-158.5" font-family="SegoeUI" font-size="10.00">+ UseFakeCoord</text>
<text text-anchor="start" x="13.5" y="-147.5" font-family="SegoeUI" font-size="10.00">+ Location</text>
<text text-anchor="start" x="13.5" y="-136.5" font-family="SegoeUI" font-size="10.00">+ Status</text>
<text text-anchor="start" x="13.5" y="-125.5" font-family="SegoeUI" font-size="10.00">&#45; COORD_KEY</text>
<text text-anchor="start" x="13.5" y="-114.5" font-family="SegoeUI" font-size="10.00">&#45; nextUpdateTime</text>
<text text-anchor="start" x="13.5" y="-103.5" font-family="SegoeUI" font-size="10.00">&#45; lastLocation</text>
<polyline fill="none" stroke="black" points="5.5,-96.5 152.5,-96.5 "/>
<text text-anchor="start" x="13.5" y="-84.5" font-family="SegoeUI" font-size="10.00">+ Awake()</text>
<text text-anchor="start" x="13.5" y="-73.5" font-family="SegoeUI" font-size="10.00">+ Start()</text>
<text text-anchor="start" x="13.5" y="-62.5" font-family="SegoeUI" font-size="10.00">+ OnEnable()</text>
<text text-anchor="start" x="13.5" y="-51.5" font-family="SegoeUI" font-size="10.00">+ OnDisable()</text>
<text text-anchor="start" x="13.5" y="-40.5" font-family="SegoeUI" font-size="10.00">+ Update()</text>
<text text-anchor="start" x="13.5" y="-29.5" font-family="SegoeUI" font-size="10.00">&#45; OnPositionUpdated()</text>
<text text-anchor="start" x="13.5" y="-18.5" font-family="SegoeUI" font-size="10.00">&#45; StartGPSTrackingCoroutine()</text>
<text text-anchor="start" x="13.5" y="-7.5" font-family="SegoeUI" font-size="10.00">&#45; PrintDebugReport()</text>
</a>
</g>
</g>
<!-- Node3 -->
<g id="node2" class="node"><title>Node3</title>
<g id="a_node2"><a xlink:title=" ">
<polygon fill="white" stroke="#bfbfbf" points="0,-391.5 0,-448.5 82,-448.5 82,-391.5 0,-391.5"/>
<text text-anchor="middle" x="41" y="-436.5" font-family="SegoeUI" font-size="10.00">MonoBehaviour</text>
<polyline fill="none" stroke="#bfbfbf" points="0,-429.5 82,-429.5 "/>
<text text-anchor="middle" x="41" y="-417.5" font-family="SegoeUI" font-size="10.00"> </text>
<polyline fill="none" stroke="#bfbfbf" points="0,-410.5 82,-410.5 "/>
<text text-anchor="middle" x="41" y="-398.5" font-family="SegoeUI" font-size="10.00"> </text>
</a>
</g>
</g>
<!-- Node3&#45;&gt;Node2 -->
<g id="edge1" class="edge"><title>Node3&#45;&gt;Node2</title>
<path fill="none" stroke="midnightblue" d="M46.05,-381.191C50.004,-351.588 55.7532,-308.545 61.346,-266.673"/>
<polygon fill="none" stroke="midnightblue" points="42.5329,-381.087 44.6781,-391.462 49.4713,-382.014 42.5329,-381.087"/>
</g>
<!-- Node4 -->
<g id="node3" class="node"><title>Node4</title>
<g id="a_node3"><a xlink:href="../../d6/d53/class_juniper_1_1_world_1_1_g_i_s_1_1_lat_lng_point.html" target="_top" xlink:title="A point in geographic space on a radial coordinate system.">
<polygon fill="white" stroke="black" points="100.5,-314.5 100.5,-525.5 225.5,-525.5 225.5,-314.5 100.5,-314.5"/>
<text text-anchor="start" x="108.5" y="-513.5" font-family="SegoeUI" font-size="10.00">Juniper.World.GIS.LatLng</text>
<text text-anchor="middle" x="163" y="-502.5" font-family="SegoeUI" font-size="10.00">Point</text>
<polyline fill="none" stroke="black" points="100.5,-495.5 225.5,-495.5 "/>
<text text-anchor="start" x="108.5" y="-483.5" font-family="SegoeUI" font-size="10.00">+ Altitude</text>
<text text-anchor="start" x="108.5" y="-472.5" font-family="SegoeUI" font-size="10.00">+ Latitude</text>
<text text-anchor="start" x="108.5" y="-461.5" font-family="SegoeUI" font-size="10.00">+ Longitude</text>
<polyline fill="none" stroke="black" points="100.5,-454.5 225.5,-454.5 "/>
<text text-anchor="start" x="108.5" y="-442.5" font-family="SegoeUI" font-size="10.00">+ LatLngPoint()</text>
<text text-anchor="start" x="108.5" y="-431.5" font-family="SegoeUI" font-size="10.00">+ LatLngPoint()</text>
<text text-anchor="start" x="108.5" y="-420.5" font-family="SegoeUI" font-size="10.00">+ GetObjectData()</text>
<text text-anchor="start" x="108.5" y="-409.5" font-family="SegoeUI" font-size="10.00">+ ToDMS()</text>
<text text-anchor="start" x="108.5" y="-398.5" font-family="SegoeUI" font-size="10.00">+ ToString()</text>
<text text-anchor="start" x="108.5" y="-387.5" font-family="SegoeUI" font-size="10.00">+ ToString()</text>
<text text-anchor="start" x="108.5" y="-376.5" font-family="SegoeUI" font-size="10.00">+ ToString()</text>
<text text-anchor="start" x="108.5" y="-365.5" font-family="SegoeUI" font-size="10.00">+ Equals()</text>
<text text-anchor="start" x="108.5" y="-354.5" font-family="SegoeUI" font-size="10.00">+ GetHashCode()</text>
<text text-anchor="start" x="108.5" y="-343.5" font-family="SegoeUI" font-size="10.00">+ TryParseDMS()</text>
<text text-anchor="start" x="108.5" y="-332.5" font-family="SegoeUI" font-size="10.00"># LatLngPoint()</text>
<text text-anchor="start" x="108.5" y="-321.5" font-family="SegoeUI" font-size="10.00">&#45; ToDMS()</text>
</a>
</g>
</g>
<!-- Node4&#45;&gt;Node2 -->
<g id="edge2" class="edge"><title>Node4&#45;&gt;Node2</title>
<path fill="none" stroke="#404040" d="M132.079,-314.275C128.605,-302.508 125.022,-290.373 121.435,-278.223"/>
<polygon fill="none" stroke="#404040" points="121.396,-278.09 115.86,-273.469 117.998,-266.582 123.533,-271.203 121.396,-278.09"/>
<text text-anchor="middle" x="143.5" y="-288" font-family="SegoeUI" font-size="10.00"> +Coord</text>
</g>
<!-- Node5 -->
<g id="node4" class="node"><title>Node5</title>
<g id="a_node4"><a xlink:title=" ">
<polygon fill="white" stroke="#bfbfbf" points="128.5,-563.5 128.5,-620.5 197.5,-620.5 197.5,-563.5 128.5,-563.5"/>
<text text-anchor="middle" x="163" y="-608.5" font-family="SegoeUI" font-size="10.00">ISerializable</text>
<polyline fill="none" stroke="#bfbfbf" points="128.5,-601.5 197.5,-601.5 "/>
<text text-anchor="middle" x="163" y="-589.5" font-family="SegoeUI" font-size="10.00"> </text>
<polyline fill="none" stroke="#bfbfbf" points="128.5,-582.5 197.5,-582.5 "/>
<text text-anchor="middle" x="163" y="-570.5" font-family="SegoeUI" font-size="10.00"> </text>
</a>
</g>
</g>
<!-- Node5&#45;&gt;Node4 -->
<g id="edge3" class="edge"><title>Node5&#45;&gt;Node4</title>
<path fill="none" stroke="midnightblue" d="M163,-553.194C163,-544.797 163,-535.5 163,-525.841"/>
<polygon fill="none" stroke="midnightblue" points="159.5,-553.308 163,-563.308 166.5,-553.308 159.5,-553.308"/>
</g>
</g>
</svg>
