<?xml version="1.0" encoding="UTF-8" standalone="no"?>
<!DOCTYPE svg PUBLIC "-//W3C//DTD SVG 1.1//EN"
 "http://www.w3.org/Graphics/SVG/1.1/DTD/svg11.dtd">
<!-- Generated by graphviz version 2.38.0 (20140413.2041)
 -->
<!-- Title: Juniper.Widgets.TabPanelMenu Pages: 1 -->
<svg width="159pt" height="182pt"
 viewBox="0.00 0.00 159.00 182.00" xmlns="http://www.w3.org/2000/svg" xmlns:xlink="http://www.w3.org/1999/xlink">
<g id="graph0" class="graph" transform="scale(1 1) rotate(0) translate(4 178)">
<title>Juniper.Widgets.TabPanelMenu</title>
<polygon fill="white" stroke="none" points="-4,4 -4,-178 155,-178 155,4 -4,4"/>
<!-- Node0 -->
<g id="node1" class="node"><title>Node0</title>
<g id="a_node1"><a xlink:title=" ">
<polygon fill="#bfbfbf" stroke="black" points="0,-0.5 0,-79.5 151,-79.5 151,-0.5 0,-0.5"/>
<text text-anchor="middle" x="75.5" y="-67.5" font-family="SegoeUI" font-size="10.00">Juniper.Widgets.TabPanelMenu</text>
<polyline fill="none" stroke="black" points="0,-60.5 151,-60.5 "/>
<text text-anchor="start" x="8" y="-48.5" font-family="SegoeUI" font-size="10.00">&#45; tabButtons</text>
<polyline fill="none" stroke="black" points="0,-41.5 151,-41.5 "/>
<text text-anchor="start" x="8" y="-29.5" font-family="SegoeUI" font-size="10.00">+ Awake()</text>
<text text-anchor="start" x="8" y="-18.5" font-family="SegoeUI" font-size="10.00">+ Show()</text>
<text text-anchor="start" x="8" y="-7.5" font-family="SegoeUI" font-size="10.00">&#45; ActivateButton()</text>
</a>
</g>
</g>
<!-- Node1 -->
<g id="node2" class="node"><title>Node1</title>
<g id="a_node2"><a xlink:title=" ">
<polygon fill="white" stroke="#bfbfbf" points="34.5,-116.5 34.5,-173.5 116.5,-173.5 116.5,-116.5 34.5,-116.5"/>
<text text-anchor="middle" x="75.5" y="-161.5" font-family="SegoeUI" font-size="10.00">MonoBehaviour</text>
<polyline fill="none" stroke="#bfbfbf" points="34.5,-154.5 116.5,-154.5 "/>
<text text-anchor="middle" x="75.5" y="-142.5" font-family="SegoeUI" font-size="10.00"> </text>
<polyline fill="none" stroke="#bfbfbf" points="34.5,-135.5 116.5,-135.5 "/>
<text text-anchor="middle" x="75.5" y="-123.5" font-family="SegoeUI" font-size="10.00"> </text>
</a>
</g>
</g>
<!-- Node1&#45;&gt;Node0 -->
<g id="edge1" class="edge"><title>Node1&#45;&gt;Node0</title>
<path fill="none" stroke="midnightblue" d="M75.5,-106.156C75.5,-97.4733 75.5,-88.2318 75.5,-79.5205"/>
<polygon fill="none" stroke="midnightblue" points="72.0001,-106.398 75.5,-116.398 79.0001,-106.398 72.0001,-106.398"/>
</g>
</g>
</svg>
