<?xml version="1.0" encoding="UTF-8" standalone="no"?>
<!DOCTYPE svg PUBLIC "-//W3C//DTD SVG 1.1//EN"
 "http://www.w3.org/Graphics/SVG/1.1/DTD/svg11.dtd">
<!-- Generated by graphviz version 2.38.0 (20140413.2041)
 -->
<!-- Title: Juniper.Unity.Anchoring.AbstractAnchorStore&lt; AnchorType &gt; Pages: 1 -->
<svg width="196pt" height="823pt"
 viewBox="0.00 0.00 196.00 823.00" xmlns="http://www.w3.org/2000/svg" xmlns:xlink="http://www.w3.org/1999/xlink">
<g id="graph0" class="graph" transform="scale(1 1) rotate(0) translate(4 819)">
<title>Juniper.Unity.Anchoring.AbstractAnchorStore&lt; AnchorType &gt;</title>
<polygon fill="white" stroke="none" points="-4,4 -4,-819 192,-819 192,4 -4,4"/>
<!-- Node0 -->
<g id="node1" class="node"><title>Node0</title>
<g id="a_node1"><a xlink:title="A store for points in space that the system will restore on second&#45;run. By default,...">
<polygon fill="#bfbfbf" stroke="black" points="0,-453.5 0,-719.5 176,-719.5 176,-453.5 0,-453.5"/>
<text text-anchor="start" x="8" y="-707.5" font-family="SegoeUI" font-size="10.00">Juniper.Unity.Anchoring.</text>
<text text-anchor="middle" x="88" y="-696.5" font-family="SegoeUI" font-size="10.00">AbstractAnchorStore&lt; AnchorType &gt;</text>
<polyline fill="none" stroke="black" points="0,-689.5 176,-689.5 "/>
<text text-anchor="start" x="8" y="-677.5" font-family="SegoeUI" font-size="10.00">+ NameList</text>
<text text-anchor="start" x="8" y="-666.5" font-family="SegoeUI" font-size="10.00">&#45; KEY_LIST_KEY</text>
<text text-anchor="start" x="8" y="-655.5" font-family="SegoeUI" font-size="10.00">&#45; ID_PREFIX</text>
<text text-anchor="start" x="8" y="-644.5" font-family="SegoeUI" font-size="10.00">&#45; EMPTY_STRING_ARRAY</text>
<polyline fill="none" stroke="black" points="0,-637.5 176,-637.5 "/>
<text text-anchor="start" x="8" y="-625.5" font-family="SegoeUI" font-size="10.00">+ ResetData()</text>
<text text-anchor="start" x="8" y="-614.5" font-family="SegoeUI" font-size="10.00">+ DropAnchor()</text>
<text text-anchor="start" x="8" y="-603.5" font-family="SegoeUI" font-size="10.00">+ WeighAnchor()</text>
<text text-anchor="start" x="8" y="-592.5" font-family="SegoeUI" font-size="10.00">+ HasAnchor()</text>
<text text-anchor="start" x="8" y="-581.5" font-family="SegoeUI" font-size="10.00"># SynchronizeAnchor()</text>
<text text-anchor="start" x="8" y="-570.5" font-family="SegoeUI" font-size="10.00"># IsGood()</text>
<text text-anchor="start" x="8" y="-559.5" font-family="SegoeUI" font-size="10.00"># DeleteAnchor()</text>
<text text-anchor="start" x="8" y="-548.5" font-family="SegoeUI" font-size="10.00"># FindAnchor()</text>
<text text-anchor="start" x="8" y="-537.5" font-family="SegoeUI" font-size="10.00"># IsSaved()</text>
<text text-anchor="start" x="8" y="-526.5" font-family="SegoeUI" font-size="10.00"># CreateAnchor()</text>
<text text-anchor="start" x="8" y="-515.5" font-family="SegoeUI" font-size="10.00"># LoadAnchor()</text>
<text text-anchor="start" x="8" y="-504.5" font-family="SegoeUI" font-size="10.00"># MakeID()</text>
<text text-anchor="start" x="8" y="-493.5" font-family="SegoeUI" font-size="10.00"># HasValue()</text>
<text text-anchor="start" x="8" y="-482.5" font-family="SegoeUI" font-size="10.00"># SaveValue()</text>
<text text-anchor="start" x="8" y="-471.5" font-family="SegoeUI" font-size="10.00"># LoadValue&lt; T &gt;()</text>
<text text-anchor="start" x="8" y="-460.5" font-family="SegoeUI" font-size="10.00"># DeleteValue()</text>
</a>
</g>
</g>
<!-- Node2 -->
<g id="node3" class="node"><title>Node2</title>
<g id="a_node3"><a xlink:href="../../dd/dac/class_juniper_1_1_unity_1_1_anchoring_1_1_abstract_anchor_store.html" target="_top" xlink:title=" ">
<polygon fill="white" stroke="black" points="7,-128.5 7,-405.5 169,-405.5 169,-128.5 7,-128.5"/>
<text text-anchor="start" x="15" y="-393.5" font-family="SegoeUI" font-size="10.00">Juniper.Unity.Anchoring.</text>
<text text-anchor="start" x="15" y="-382.5" font-family="SegoeUI" font-size="10.00">AbstractAnchorStore&lt; MockWorld</text>
<text text-anchor="middle" x="88" y="-371.5" font-family="SegoeUI" font-size="10.00">Anchor &gt;</text>
<polyline fill="none" stroke="black" points="7,-364.5 169,-364.5 "/>
<text text-anchor="start" x="15" y="-352.5" font-family="SegoeUI" font-size="10.00">+ NameList</text>
<text text-anchor="start" x="15" y="-341.5" font-family="SegoeUI" font-size="10.00">&#45; KEY_LIST_KEY</text>
<text text-anchor="start" x="15" y="-330.5" font-family="SegoeUI" font-size="10.00">&#45; ID_PREFIX</text>
<text text-anchor="start" x="15" y="-319.5" font-family="SegoeUI" font-size="10.00">&#45; EMPTY_STRING_ARRAY</text>
<polyline fill="none" stroke="black" points="7,-312.5 169,-312.5 "/>
<text text-anchor="start" x="15" y="-300.5" font-family="SegoeUI" font-size="10.00">+ ResetData()</text>
<text text-anchor="start" x="15" y="-289.5" font-family="SegoeUI" font-size="10.00">+ DropAnchor()</text>
<text text-anchor="start" x="15" y="-278.5" font-family="SegoeUI" font-size="10.00">+ WeighAnchor()</text>
<text text-anchor="start" x="15" y="-267.5" font-family="SegoeUI" font-size="10.00">+ HasAnchor()</text>
<text text-anchor="start" x="15" y="-256.5" font-family="SegoeUI" font-size="10.00"># SynchronizeAnchor()</text>
<text text-anchor="start" x="15" y="-245.5" font-family="SegoeUI" font-size="10.00"># IsGood()</text>
<text text-anchor="start" x="15" y="-234.5" font-family="SegoeUI" font-size="10.00"># DeleteAnchor()</text>
<text text-anchor="start" x="15" y="-223.5" font-family="SegoeUI" font-size="10.00"># FindAnchor()</text>
<text text-anchor="start" x="15" y="-212.5" font-family="SegoeUI" font-size="10.00"># IsSaved()</text>
<text text-anchor="start" x="15" y="-201.5" font-family="SegoeUI" font-size="10.00"># CreateAnchor()</text>
<text text-anchor="start" x="15" y="-190.5" font-family="SegoeUI" font-size="10.00"># LoadAnchor()</text>
<text text-anchor="start" x="15" y="-179.5" font-family="SegoeUI" font-size="10.00"># MakeID()</text>
<text text-anchor="start" x="15" y="-168.5" font-family="SegoeUI" font-size="10.00"># HasValue()</text>
<text text-anchor="start" x="15" y="-157.5" font-family="SegoeUI" font-size="10.00"># SaveValue()</text>
<text text-anchor="start" x="15" y="-146.5" font-family="SegoeUI" font-size="10.00"># LoadValue&lt; T &gt;()</text>
<text text-anchor="start" x="15" y="-135.5" font-family="SegoeUI" font-size="10.00"># DeleteValue()</text>
</a>
</g>
</g>
<!-- Node0&#45;&gt;Node2 -->
<g id="edge2" class="edge"><title>Node0&#45;&gt;Node2</title>
<path fill="none" stroke="orange" d="M88,-443.149C88,-430.634 88,-417.981 88,-405.507"/>
<polygon fill="orange" stroke="orange" points="84.5001,-443.15 88,-453.15 91.5001,-443.151 84.5001,-443.15"/>
<text text-anchor="middle" x="138" y="-427" font-family="SegoeUI" font-size="10.00"> &lt; MockWorldAnchor &gt;</text>
</g>
<!-- Node1 -->
<g id="node2" class="node"><title>Node1</title>
<g id="a_node2"><a xlink:title=" ">
<polygon fill="white" stroke="#bfbfbf" points="47,-757.5 47,-814.5 129,-814.5 129,-757.5 47,-757.5"/>
<text text-anchor="middle" x="88" y="-802.5" font-family="SegoeUI" font-size="10.00">MonoBehaviour</text>
<polyline fill="none" stroke="#bfbfbf" points="47,-795.5 129,-795.5 "/>
<text text-anchor="middle" x="88" y="-783.5" font-family="SegoeUI" font-size="10.00"> </text>
<polyline fill="none" stroke="#bfbfbf" points="47,-776.5 129,-776.5 "/>
<text text-anchor="middle" x="88" y="-764.5" font-family="SegoeUI" font-size="10.00"> </text>
</a>
</g>
</g>
<!-- Node1&#45;&gt;Node0 -->
<g id="edge1" class="edge"><title>Node1&#45;&gt;Node0</title>
<path fill="none" stroke="midnightblue" d="M88,-747.074C88,-738.711 88,-729.396 88,-719.583"/>
<polygon fill="none" stroke="midnightblue" points="84.5001,-747.122 88,-757.122 91.5001,-747.122 84.5001,-747.122"/>
</g>
<!-- Node3 -->
<g id="node4" class="node"><title>Node3</title>
<g id="a_node4"><a xlink:href="../../d9/d0e/class_juniper_1_1_unity_1_1_anchoring_1_1_mock_anchor_store.html" target="_top" xlink:title="An anchor store that stores all anchors in the default data store for AbstractAnchorStore.">
<polygon fill="white" stroke="black" points="28,-0.5 28,-90.5 148,-90.5 148,-0.5 28,-0.5"/>
<text text-anchor="start" x="36" y="-78.5" font-family="SegoeUI" font-size="10.00">Juniper.Unity.Anchoring.</text>
<text text-anchor="middle" x="88" y="-67.5" font-family="SegoeUI" font-size="10.00">MockAnchorStore</text>
<polyline fill="none" stroke="black" points="28,-60.5 148,-60.5 "/>
<text text-anchor="middle" x="88" y="-48.5" font-family="SegoeUI" font-size="10.00"> </text>
<polyline fill="none" stroke="black" points="28,-41.5 148,-41.5 "/>
<text text-anchor="start" x="36" y="-29.5" font-family="SegoeUI" font-size="10.00">+ HasAnchor()</text>
<text text-anchor="start" x="36" y="-18.5" font-family="SegoeUI" font-size="10.00"># LoadAnchor()</text>
<text text-anchor="start" x="36" y="-7.5" font-family="SegoeUI" font-size="10.00"># CreateAnchor()</text>
</a>
</g>
</g>
<!-- Node2&#45;&gt;Node3 -->
<g id="edge3" class="edge"><title>Node2&#45;&gt;Node3</title>
<path fill="none" stroke="midnightblue" d="M88,-117.976C88,-108.276 88,-99.0328 88,-90.6056"/>
<polygon fill="none" stroke="midnightblue" points="84.5001,-118.234 88,-128.234 91.5001,-118.234 84.5001,-118.234"/>
</g>
</g>
</svg>
