<?xml version="1.0" encoding="UTF-8" standalone="no"?>
<!DOCTYPE svg PUBLIC "-//W3C//DTD SVG 1.1//EN"
 "http://www.w3.org/Graphics/SVG/1.1/DTD/svg11.dtd">
<!-- Generated by graphviz version 2.38.0 (20140413.2041)
 -->
<!-- Title: Juniper.MediaType.Unknown Pages: 1 -->
<!--zoomable 706 -->
<svg id="main" version="1.1" xmlns="http://www.w3.org/2000/svg" xmlns:xlink="http://www.w3.org/1999/xlink" xml:space="preserve" onload="init(evt)">
<style type="text/css"><![CDATA[
.edge:hover path { stroke: red; }
.edge:hover polygon { stroke: red; fill: red; }
]]></style>
<script type="text/javascript"><![CDATA[
var edges = document.getElementsByTagName('g');
if (edges && edges.length) {
  for (var i=0;i<edges.length;i++) {
    if (edges[i].id.substr(0,4)=='edge') {
      edges[i].setAttribute('class','edge');
    }
  }
}
]]></script>
        <defs>
                <circle id="rim" cx="0" cy="0" r="7"/>
                <circle id="rim2" cx="0" cy="0" r="3.5"/>
                <g id="zoomPlus">
                        <use xlink:href="#rim" fill="#404040">
                                <set attributeName="fill" to="#808080" begin="zoomplus.mouseover" end="zoomplus.mouseout"/>
                        </use>
                        <path d="M-4,0h8M0,-4v8" fill="none" stroke="white" stroke-width="1.5" pointer-events="none"/>
                </g>
                <g id="zoomMin">
                        <use xlink:href="#rim" fill="#404040">
                                <set attributeName="fill" to="#808080" begin="zoomminus.mouseover" end="zoomminus.mouseout"/>
                        </use>
                        <path d="M-4,0h8" fill="none" stroke="white" stroke-width="1.5" pointer-events="none"/>
                </g>
                <g id="dirArrow">
                        <path fill="none" stroke="white" stroke-width="1.5" d="M0,-3.0v7 M-2.5,-0.5L0,-3.0L2.5,-0.5"/>
                </g>
               <g id="resetDef">
                       <use xlink:href="#rim2" fill="#404040">
                               <set attributeName="fill" to="#808080" begin="reset.mouseover" end="reset.mouseout"/>
                       </use>
               </g>
        </defs>

<script type="text/javascript">
var viewWidth = 343;
var viewHeight = 706;
var sectionId = 'dynsection-1';
</script>
<script xlink:href="../../svgpan.js"/>
<svg id="graph" class="graph">
<g id="viewport">
<title>Juniper.MediaType.Unknown</title>
<polygon fill="white" stroke="none" points="-4,4 -4,-702 339,-702 339,4 -4,4"/>
<!-- Node4 -->
<g id="node1" class="node"><title>Node4</title>
<g id="a_node1"><a xlink:title=" ">
<polygon fill="#bfbfbf" stroke="black" points="129.5,-0.5 129.5,-68.5 268.5,-68.5 268.5,-0.5 129.5,-0.5"/>
<text text-anchor="middle" x="199" y="-56.5" font-family="SegoeUI" font-size="10.00">Juniper.MediaType.Unknown</text>
<polyline fill="none" stroke="black" points="129.5,-49.5 268.5,-49.5 "/>
<text text-anchor="middle" x="199" y="-37.5" font-family="SegoeUI" font-size="10.00"> </text>
<polyline fill="none" stroke="black" points="129.5,-30.5 268.5,-30.5 "/>
<text text-anchor="start" x="137.5" y="-18.5" font-family="SegoeUI" font-size="10.00">&#45; Unknown()</text>
<text text-anchor="start" x="137.5" y="-7.5" font-family="SegoeUI" font-size="10.00">&#45; MakeExtension()</text>
</a>
</g>
</g>
<!-- Node5 -->
<g id="node2" class="node"><title>Node5</title>
<g id="a_node2"><a xlink:href="../../d4/d56/class_juniper_1_1_media_type.html" target="_top" xlink:title=" ">
<polygon fill="white" stroke="black" points="139.5,-106.5 139.5,-537.5 258.5,-537.5 258.5,-106.5 139.5,-106.5"/>
<text text-anchor="middle" x="199" y="-525.5" font-family="SegoeUI" font-size="10.00">MediaType</text>
<polyline fill="none" stroke="black" points="139.5,-518.5 258.5,-518.5 "/>
<text text-anchor="start" x="147.5" y="-506.5" font-family="SegoeUI" font-size="10.00">+ TYPE_PATTERN</text>
<text text-anchor="start" x="147.5" y="-495.5" font-family="SegoeUI" font-size="10.00">+ Value</text>
<text text-anchor="start" x="147.5" y="-484.5" font-family="SegoeUI" font-size="10.00">+ TypeName</text>
<text text-anchor="start" x="147.5" y="-473.5" font-family="SegoeUI" font-size="10.00">+ SubTypeName</text>
<text text-anchor="start" x="147.5" y="-462.5" font-family="SegoeUI" font-size="10.00">+ Weight</text>
<text text-anchor="start" x="147.5" y="-451.5" font-family="SegoeUI" font-size="10.00">+ Extensions</text>
<text text-anchor="start" x="147.5" y="-440.5" font-family="SegoeUI" font-size="10.00">+ PrimaryExtension</text>
<text text-anchor="start" x="147.5" y="-429.5" font-family="SegoeUI" font-size="10.00">&#45; weightedValue</text>
<polyline fill="none" stroke="black" points="139.5,-422.5 258.5,-422.5 "/>
<text text-anchor="start" x="147.5" y="-410.5" font-family="SegoeUI" font-size="10.00">+ Matches()</text>
<text text-anchor="start" x="147.5" y="-399.5" font-family="SegoeUI" font-size="10.00">+ Matches()</text>
<text text-anchor="start" x="147.5" y="-388.5" font-family="SegoeUI" font-size="10.00">+ AddExtension()</text>
<text text-anchor="start" x="147.5" y="-377.5" font-family="SegoeUI" font-size="10.00">+ Equals()</text>
<text text-anchor="start" x="147.5" y="-366.5" font-family="SegoeUI" font-size="10.00">+ Equals()</text>
<text text-anchor="start" x="147.5" y="-355.5" font-family="SegoeUI" font-size="10.00">+ Equals()</text>
<text text-anchor="start" x="147.5" y="-344.5" font-family="SegoeUI" font-size="10.00">+ ToString()</text>
<text text-anchor="start" x="147.5" y="-333.5" font-family="SegoeUI" font-size="10.00">+ GetHashCode()</text>
<text text-anchor="start" x="147.5" y="-322.5" font-family="SegoeUI" font-size="10.00">+ Parse()</text>
<text text-anchor="start" x="147.5" y="-311.5" font-family="SegoeUI" font-size="10.00">+ ParseAll()</text>
<text text-anchor="start" x="147.5" y="-300.5" font-family="SegoeUI" font-size="10.00">+ TryParse()</text>
<text text-anchor="start" x="147.5" y="-289.5" font-family="SegoeUI" font-size="10.00">+ GuessByFileName()</text>
<text text-anchor="start" x="147.5" y="-278.5" font-family="SegoeUI" font-size="10.00">+ GuessByFile()</text>
<text text-anchor="start" x="147.5" y="-267.5" font-family="SegoeUI" font-size="10.00">+ Lookup()</text>
<text text-anchor="start" x="147.5" y="-256.5" font-family="SegoeUI" font-size="10.00">+ operator+()</text>
<text text-anchor="start" x="147.5" y="-245.5" font-family="SegoeUI" font-size="10.00">+ operator string()</text>
<text text-anchor="start" x="147.5" y="-234.5" font-family="SegoeUI" font-size="10.00">+ operator==()</text>
<text text-anchor="start" x="147.5" y="-223.5" font-family="SegoeUI" font-size="10.00">+ operator !=()</text>
<text text-anchor="start" x="147.5" y="-212.5" font-family="SegoeUI" font-size="10.00">+ operator==()</text>
<text text-anchor="start" x="147.5" y="-201.5" font-family="SegoeUI" font-size="10.00">+ operator !=()</text>
<text text-anchor="start" x="147.5" y="-190.5" font-family="SegoeUI" font-size="10.00">+ operator==()</text>
<text text-anchor="start" x="147.5" y="-179.5" font-family="SegoeUI" font-size="10.00">+ operator !=()</text>
<text text-anchor="start" x="147.5" y="-168.5" font-family="SegoeUI" font-size="10.00"># MediaType()</text>
<text text-anchor="start" x="147.5" y="-157.5" font-family="SegoeUI" font-size="10.00">&#45; MediaType()</text>
<text text-anchor="start" x="147.5" y="-146.5" font-family="SegoeUI" font-size="10.00">&#45; MediaType()</text>
<text text-anchor="start" x="147.5" y="-135.5" font-family="SegoeUI" font-size="10.00">&#45; UpdateLookupTables()</text>
<text text-anchor="start" x="147.5" y="-124.5" font-family="SegoeUI" font-size="10.00">&#45; InternalParseAll()</text>
<text text-anchor="start" x="147.5" y="-113.5" font-family="SegoeUI" font-size="10.00">&#45; GuessByExtension()</text>
</a>
</g>
</g>
<!-- Node5&#45;&gt;Node4 -->
<g id="edge1" class="edge"><title>Node5&#45;&gt;Node4</title>
<path fill="none" stroke="midnightblue" d="M199,-96.3835C199,-86.1531 199,-76.7702 199,-68.5938"/>
<polygon fill="none" stroke="midnightblue" points="195.5,-96.4398 199,-106.44 202.5,-96.4399 195.5,-96.4398"/>
</g>
<!-- Node6 -->
<g id="node3" class="node"><title>Node6</title>
<g id="a_node3"><a xlink:title=" ">
<polygon fill="white" stroke="#bfbfbf" points="0,-640.5 0,-697.5 128,-697.5 128,-640.5 0,-640.5"/>
<text text-anchor="middle" x="64" y="-685.5" font-family="SegoeUI" font-size="10.00">IEquatable&lt; MediaType &gt;</text>
<polyline fill="none" stroke="#bfbfbf" points="0,-678.5 128,-678.5 "/>
<text text-anchor="middle" x="64" y="-666.5" font-family="SegoeUI" font-size="10.00"> </text>
<polyline fill="none" stroke="#bfbfbf" points="0,-659.5 128,-659.5 "/>
<text text-anchor="middle" x="64" y="-647.5" font-family="SegoeUI" font-size="10.00"> </text>
</a>
</g>
</g>
<!-- Node6&#45;&gt;Node5 -->
<g id="edge2" class="edge"><title>Node6&#45;&gt;Node5</title>
<path fill="none" stroke="midnightblue" d="M78.5372,-630.849C93.2366,-593.284 116.938,-532.714 139.444,-475.198"/>
<polygon fill="none" stroke="midnightblue" points="75.2041,-629.763 74.8194,-640.35 81.7228,-632.313 75.2041,-629.763"/>
</g>
<!-- Node7 -->
<g id="node4" class="node"><title>Node7</title>
<g id="a_node4"><a xlink:title=" ">
<polygon fill="white" stroke="#bfbfbf" points="146.5,-640.5 146.5,-697.5 251.5,-697.5 251.5,-640.5 146.5,-640.5"/>
<text text-anchor="middle" x="199" y="-685.5" font-family="SegoeUI" font-size="10.00">IEquatable&lt; string &gt;</text>
<polyline fill="none" stroke="#bfbfbf" points="146.5,-678.5 251.5,-678.5 "/>
<text text-anchor="middle" x="199" y="-666.5" font-family="SegoeUI" font-size="10.00"> </text>
<polyline fill="none" stroke="#bfbfbf" points="146.5,-659.5 251.5,-659.5 "/>
<text text-anchor="middle" x="199" y="-647.5" font-family="SegoeUI" font-size="10.00"> </text>
</a>
</g>
</g>
<!-- Node7&#45;&gt;Node5 -->
<g id="edge3" class="edge"><title>Node7&#45;&gt;Node5</title>
<path fill="none" stroke="midnightblue" d="M199,-630.047C199,-606.184 199,-573.27 199,-537.814"/>
<polygon fill="none" stroke="midnightblue" points="195.5,-630.35 199,-640.35 202.5,-630.35 195.5,-630.35"/>
</g>
<!-- Node8 -->
<g id="node5" class="node"><title>Node8</title>
<g id="a_node5"><a xlink:title=" ">
<polygon fill="white" stroke="#bfbfbf" points="269.5,-640.5 269.5,-697.5 308.5,-697.5 308.5,-640.5 269.5,-640.5"/>
<text text-anchor="middle" x="289" y="-685.5" font-family="SegoeUI" font-size="10.00">static</text>
<polyline fill="none" stroke="#bfbfbf" points="269.5,-678.5 308.5,-678.5 "/>
<text text-anchor="middle" x="289" y="-666.5" font-family="SegoeUI" font-size="10.00"> </text>
<polyline fill="none" stroke="#bfbfbf" points="269.5,-659.5 308.5,-659.5 "/>
<text text-anchor="middle" x="289" y="-647.5" font-family="SegoeUI" font-size="10.00"> </text>
</a>
</g>
</g>
<!-- Node8&#45;&gt;Node5 -->
<g id="edge4" class="edge"><title>Node8&#45;&gt;Node5</title>
<path fill="none" stroke="#404040" d="M281.787,-640.35C276.104,-618.564 267.582,-585.898 258.136,-549.687"/>
<polygon fill="none" stroke="#404040" points="258.068,-549.426 252.683,-544.63 255.038,-537.814 260.424,-542.61 258.068,-549.426"/>
<text text-anchor="middle" x="305.5" y="-614" font-family="SegoeUI" font-size="10.00"> +All</text>
<text text-anchor="middle" x="305.5" y="-603" font-family="SegoeUI" font-size="10.00">+Values</text>
<text text-anchor="middle" x="305.5" y="-592" font-family="SegoeUI" font-size="10.00">&#45;typePattern</text>
<text text-anchor="middle" x="305.5" y="-581" font-family="SegoeUI" font-size="10.00">&#45;byValue</text>
<text text-anchor="middle" x="305.5" y="-570" font-family="SegoeUI" font-size="10.00">+Any</text>
<text text-anchor="middle" x="305.5" y="-559" font-family="SegoeUI" font-size="10.00">&#45;byExtensions</text>
</g>
</g>
</svg>
        <g id="navigator" transform="translate(0 0)" fill="#404254">
                <rect fill="#f2f5e9" fill-opacity="0.5" stroke="#606060" stroke-width=".5" x="0" y="0" width="60" height="60"/>
                <use id="zoomplus" xlink:href="#zoomPlus" x="17" y="9" onmousedown="handleZoom(evt,'in')"/>
                <use id="zoomminus" xlink:href="#zoomMin" x="42" y="9" onmousedown="handleZoom(evt,'out')"/>
                <use id="reset" xlink:href="#resetDef" x="30" y="36" onmousedown="handleReset()"/>
                <g id="arrowUp" xlink:href="#dirArrow" transform="translate(30 24)" onmousedown="handlePan(0,-1)">
                  <use xlink:href="#rim" fill="#404040">
                        <set attributeName="fill" to="#808080" begin="arrowUp.mouseover" end="arrowUp.mouseout"/>
                  </use>
                  <path fill="none" stroke="white" stroke-width="1.5" d="M0,-3.0v7 M-2.5,-0.5L0,-3.0L2.5,-0.5"/>
                </g>
                <g id="arrowRight" xlink:href="#dirArrow" transform="rotate(90) translate(36 -43)" onmousedown="handlePan(1,0)">
                  <use xlink:href="#rim" fill="#404040">
                        <set attributeName="fill" to="#808080" begin="arrowRight.mouseover" end="arrowRight.mouseout"/>
                  </use>
                  <path fill="none" stroke="white" stroke-width="1.5" d="M0,-3.0v7 M-2.5,-0.5L0,-3.0L2.5,-0.5"/>
                </g>
                <g id="arrowDown" xlink:href="#dirArrow" transform="rotate(180) translate(-30 -48)" onmousedown="handlePan(0,1)">
                  <use xlink:href="#rim" fill="#404040">
                        <set attributeName="fill" to="#808080" begin="arrowDown.mouseover" end="arrowDown.mouseout"/>
                  </use>
                  <path fill="none" stroke="white" stroke-width="1.5" d="M0,-3.0v7 M-2.5,-0.5L0,-3.0L2.5,-0.5"/>
                </g>
                <g id="arrowLeft" xlink:href="#dirArrow" transform="rotate(270) translate(-36 17)" onmousedown="handlePan(-1,0)">
                  <use xlink:href="#rim" fill="#404040">
                        <set attributeName="fill" to="#808080" begin="arrowLeft.mouseover" end="arrowLeft.mouseout"/>
                  </use>
                  <path fill="none" stroke="white" stroke-width="1.5" d="M0,-3.0v7 M-2.5,-0.5L0,-3.0L2.5,-0.5"/>
                </g>
        </g>
        <svg viewBox="0 0 15 15" width="100%" height="30px" preserveAspectRatio="xMaxYMin meet">
         <g id="arrow_out" transform="scale(0.3 0.3)">
          <a xlink:href="class_juniper_1_1_media_type_1_1_unknown__coll__graph_org.svg" target="_base">
           <rect id="button" ry="5" rx="5" y="6" x="6" height="38" width="38"
                fill="#f2f5e9" fill-opacity="0.5" stroke="#606060" stroke-width="1.0"/>
           <path id="arrow"
             d="M 11.500037,31.436501 C 11.940474,20.09759 22.043105,11.32322 32.158766,21.979434 L 37.068811,17.246167 C 37.068811,17.246167 37.088388,32 37.088388,32 L 22.160133,31.978069 C 22.160133,31.978069 26.997745,27.140456 26.997745,27.140456 C 18.528582,18.264221 13.291696,25.230495 11.500037,31.436501 z"
             style="fill:#404040;"/>
          </a>
         </g>
        </svg>
</svg>
