<?xml version="1.0" encoding="UTF-8" standalone="no"?>
<!DOCTYPE svg PUBLIC "-//W3C//DTD SVG 1.1//EN"
 "http://www.w3.org/Graphics/SVG/1.1/DTD/svg11.dtd">
<!-- Generated by graphviz version 2.38.0 (20140413.2041)
 -->
<!-- Title: Juniper.Input.Pointers.Motion.AbstractHandTracker&lt; HandIDType, ButtonIDType, ConfigType &gt; Pages: 1 -->
<svg width="508pt" height="1891pt"
 viewBox="0.00 0.00 508.00 1891.00" xmlns="http://www.w3.org/2000/svg" xmlns:xlink="http://www.w3.org/1999/xlink">
<g id="graph0" class="graph" transform="scale(1 1) rotate(0) translate(4 1887)">
<title>Juniper.Input.Pointers.Motion.AbstractHandTracker&lt; HandIDType, ButtonIDType, ConfigType &gt;</title>
<polygon fill="white" stroke="none" points="-4,4 -4,-1887 504,-1887 504,4 -4,4"/>
<!-- Node0 -->
<g id="node1" class="node"><title>Node0</title>
<g id="a_node1"><a xlink:title=" ">
<polygon fill="#bfbfbf" stroke="black" points="272,-394.5 272,-473.5 443,-473.5 443,-394.5 272,-394.5"/>
<text text-anchor="start" x="280" y="-461.5" font-family="SegoeUI" font-size="10.00">Juniper.Input.Pointers.Motion.</text>
<text text-anchor="start" x="280" y="-450.5" font-family="SegoeUI" font-size="10.00">AbstractHandTracker&lt; HandIDType,</text>
<text text-anchor="middle" x="357.5" y="-439.5" font-family="SegoeUI" font-size="10.00"> ButtonIDType, ConfigType &gt;</text>
<polyline fill="none" stroke="black" points="272,-432.5 443,-432.5 "/>
<text text-anchor="middle" x="357.5" y="-420.5" font-family="SegoeUI" font-size="10.00"> </text>
<polyline fill="none" stroke="black" points="272,-413.5 443,-413.5 "/>
<text text-anchor="middle" x="357.5" y="-401.5" font-family="SegoeUI" font-size="10.00"> </text>
</a>
</g>
</g>
<!-- Node10 -->
<g id="node11" class="node"><title>Node10</title>
<g id="a_node11"><a xlink:href="../../d2/d07/class_juniper_1_1_input_1_1_pointers_1_1_motion_1_1_abstract_hand_tracker.html" target="_top" xlink:title=" ">
<polygon fill="white" stroke="black" points="266,-256.5 266,-335.5 449,-335.5 449,-256.5 266,-256.5"/>
<text text-anchor="start" x="274" y="-323.5" font-family="SegoeUI" font-size="10.00">Juniper.Input.Pointers.Motion.</text>
<text text-anchor="start" x="274" y="-312.5" font-family="SegoeUI" font-size="10.00">AbstractHandTracker&lt; Unary,</text>
<text text-anchor="middle" x="357.5" y="-301.5" font-family="SegoeUI" font-size="10.00"> Unary, NoHandTrackerConfiguration &gt;</text>
<polyline fill="none" stroke="black" points="266,-294.5 449,-294.5 "/>
<text text-anchor="middle" x="357.5" y="-282.5" font-family="SegoeUI" font-size="10.00"> </text>
<polyline fill="none" stroke="black" points="266,-275.5 449,-275.5 "/>
<text text-anchor="middle" x="357.5" y="-263.5" font-family="SegoeUI" font-size="10.00"> </text>
</a>
</g>
</g>
<!-- Node0&#45;&gt;Node10 -->
<g id="edge11" class="edge"><title>Node0&#45;&gt;Node10</title>
<path fill="none" stroke="orange" d="M357.5,-384.183C357.5,-368.251 357.5,-350.789 357.5,-335.705"/>
<polygon fill="orange" stroke="orange" points="354,-384.392 357.5,-394.392 361,-384.392 354,-384.392"/>
<text text-anchor="start" x="357.5" y="-368" font-family="SegoeUI" font-size="10.00"> &lt; Unary, Unary, NoHandTracker</text>
<text text-anchor="middle" x="428" y="-357" font-family="SegoeUI" font-size="10.00">Configuration &gt;</text>
</g>
<!-- Node1 -->
<g id="node2" class="node"><title>Node1</title>
<g id="a_node2"><a xlink:href="../../d1/d3f/class_juniper_1_1_input_1_1_pointers_1_1_motion_1_1_abstract_handed_pointer.html" target="_top" xlink:title=" ">
<polygon fill="white" stroke="black" points="283,-511.5 283,-678.5 432,-678.5 432,-511.5 283,-511.5"/>
<text text-anchor="start" x="291" y="-666.5" font-family="SegoeUI" font-size="10.00">AbstractHandedPointer</text>
<text text-anchor="start" x="291" y="-655.5" font-family="SegoeUI" font-size="10.00">&lt; HandIDType, ButtonIDType,</text>
<text text-anchor="middle" x="357.5" y="-644.5" font-family="SegoeUI" font-size="10.00"> ConfigType, NoHaptics &gt;</text>
<polyline fill="none" stroke="black" points="283,-637.5 432,-637.5 "/>
<text text-anchor="start" x="291" y="-625.5" font-family="SegoeUI" font-size="10.00">+ _hand</text>
<text text-anchor="start" x="291" y="-614.5" font-family="SegoeUI" font-size="10.00">+ Hand</text>
<text text-anchor="start" x="291" y="-603.5" font-family="SegoeUI" font-size="10.00">+ NativeHandID</text>
<text text-anchor="start" x="291" y="-592.5" font-family="SegoeUI" font-size="10.00">+ IsLeftHand</text>
<text text-anchor="start" x="291" y="-581.5" font-family="SegoeUI" font-size="10.00">+ IsRightHand</text>
<text text-anchor="start" x="291" y="-570.5" font-family="SegoeUI" font-size="10.00">+ IsDominantHand</text>
<text text-anchor="start" x="291" y="-559.5" font-family="SegoeUI" font-size="10.00">+ IsNonDominantHand</text>
<text text-anchor="start" x="291" y="-548.5" font-family="SegoeUI" font-size="10.00">+ WorldPoint</text>
<polyline fill="none" stroke="black" points="283,-541.5 432,-541.5 "/>
<text text-anchor="start" x="291" y="-529.5" font-family="SegoeUI" font-size="10.00">+ MakeControllers&lt; T &gt;()</text>
<text text-anchor="start" x="291" y="-518.5" font-family="SegoeUI" font-size="10.00">&#45; MakeMotionController&lt; T &gt;()</text>
</a>
</g>
</g>
<!-- Node1&#45;&gt;Node0 -->
<g id="edge1" class="edge"><title>Node1&#45;&gt;Node0</title>
<path fill="none" stroke="midnightblue" d="M357.5,-501.133C357.5,-491.505 357.5,-482.146 357.5,-473.643"/>
<polygon fill="none" stroke="midnightblue" points="354,-501.24 357.5,-511.24 361,-501.24 354,-501.24"/>
</g>
<!-- Node2 -->
<g id="node3" class="node"><title>Node2</title>
<g id="a_node3"><a xlink:href="../../d1/d3f/class_juniper_1_1_input_1_1_pointers_1_1_motion_1_1_abstract_handed_pointer.html" target="_top" xlink:title=" ">
<polygon fill="white" stroke="black" points="260.5,-737.5 260.5,-904.5 454.5,-904.5 454.5,-737.5 260.5,-737.5"/>
<text text-anchor="start" x="268.5" y="-892.5" font-family="SegoeUI" font-size="10.00">Juniper.Input.Pointers.Motion.</text>
<text text-anchor="start" x="268.5" y="-881.5" font-family="SegoeUI" font-size="10.00">AbstractHandedPointer&lt; HandIDType,</text>
<text text-anchor="middle" x="357.5" y="-870.5" font-family="SegoeUI" font-size="10.00"> ButtonIDType, ConfigType, HapticType &gt;</text>
<polyline fill="none" stroke="black" points="260.5,-863.5 454.5,-863.5 "/>
<text text-anchor="start" x="268.5" y="-851.5" font-family="SegoeUI" font-size="10.00">+ _hand</text>
<text text-anchor="start" x="268.5" y="-840.5" font-family="SegoeUI" font-size="10.00">+ Hand</text>
<text text-anchor="start" x="268.5" y="-829.5" font-family="SegoeUI" font-size="10.00">+ NativeHandID</text>
<text text-anchor="start" x="268.5" y="-818.5" font-family="SegoeUI" font-size="10.00">+ IsLeftHand</text>
<text text-anchor="start" x="268.5" y="-807.5" font-family="SegoeUI" font-size="10.00">+ IsRightHand</text>
<text text-anchor="start" x="268.5" y="-796.5" font-family="SegoeUI" font-size="10.00">+ IsDominantHand</text>
<text text-anchor="start" x="268.5" y="-785.5" font-family="SegoeUI" font-size="10.00">+ IsNonDominantHand</text>
<text text-anchor="start" x="268.5" y="-774.5" font-family="SegoeUI" font-size="10.00">+ WorldPoint</text>
<polyline fill="none" stroke="black" points="260.5,-767.5 454.5,-767.5 "/>
<text text-anchor="start" x="268.5" y="-755.5" font-family="SegoeUI" font-size="10.00">+ MakeControllers&lt; T &gt;()</text>
<text text-anchor="start" x="268.5" y="-744.5" font-family="SegoeUI" font-size="10.00">&#45; MakeMotionController&lt; T &gt;()</text>
</a>
</g>
</g>
<!-- Node2&#45;&gt;Node1 -->
<g id="edge2" class="edge"><title>Node2&#45;&gt;Node1</title>
<path fill="none" stroke="orange" d="M357.5,-726.845C357.5,-710.909 357.5,-694.449 357.5,-678.806"/>
<polygon fill="orange" stroke="orange" points="354,-727.227 357.5,-737.227 361,-727.227 354,-727.227"/>
<text text-anchor="start" x="357.5" y="-711" font-family="SegoeUI" font-size="10.00"> &lt; HandIDType, ButtonIDType,</text>
<text text-anchor="middle" x="423" y="-700" font-family="SegoeUI" font-size="10.00"> ConfigType, NoHaptics &gt;</text>
</g>
<!-- Node3 -->
<g id="node4" class="node"><title>Node3</title>
<g id="a_node4"><a xlink:href="../../da/d81/class_juniper_1_1_input_1_1_pointers_1_1_abstract_pointer_device.html" target="_top" xlink:title=" ">
<polygon fill="white" stroke="black" points="192,-942.5 192,-1450.5 341,-1450.5 341,-942.5 192,-942.5"/>
<text text-anchor="start" x="200" y="-1438.5" font-family="SegoeUI" font-size="10.00">AbstractPointerDevice</text>
<text text-anchor="start" x="200" y="-1427.5" font-family="SegoeUI" font-size="10.00">&lt; ButtonIDType, ConfigType,</text>
<text text-anchor="middle" x="266.5" y="-1416.5" font-family="SegoeUI" font-size="10.00"> HapticType &gt;</text>
<polyline fill="none" stroke="black" points="192,-1409.5 341,-1409.5 "/>
<text text-anchor="start" x="200" y="-1397.5" font-family="SegoeUI" font-size="10.00">+ Connected</text>
<text text-anchor="start" x="200" y="-1386.5" font-family="SegoeUI" font-size="10.00">+ enableLaserPointer</text>
<text text-anchor="start" x="200" y="-1375.5" font-family="SegoeUI" font-size="10.00">+ showProbe</text>
<text text-anchor="start" x="200" y="-1364.5" font-family="SegoeUI" font-size="10.00">+ motionFilter</text>
<text text-anchor="start" x="200" y="-1353.5" font-family="SegoeUI" font-size="10.00">+ ButtonType</text>
<text text-anchor="start" x="200" y="-1342.5" font-family="SegoeUI" font-size="10.00">+ ProcessInUpdate</text>
<text text-anchor="start" x="200" y="-1331.5" font-family="SegoeUI" font-size="10.00">+ PointerDataID</text>
<text text-anchor="start" x="200" y="-1320.5" font-family="SegoeUI" font-size="10.00">+ MinimumPointerDistance</text>
<text text-anchor="start" x="200" y="-1309.5" font-family="SegoeUI" font-size="10.00">+ MaximumPointerDistance</text>
<text text-anchor="start" x="200" y="-1298.5" font-family="SegoeUI" font-size="10.00">+ LaserPointerNormalMaterial</text>
<text text-anchor="start" x="200" y="-1287.5" font-family="SegoeUI" font-size="10.00">+ LaserPointerEnabledMaterial</text>
<text text-anchor="start" x="200" y="-1276.5" font-family="SegoeUI" font-size="10.00">+ LaserPointerDisabledMaterial</text>
<text text-anchor="start" x="200" y="-1265.5" font-family="SegoeUI" font-size="10.00">+ Layer</text>
<text text-anchor="start" x="200" y="-1254.5" font-family="SegoeUI" font-size="10.00">+ LockedOnTarget</text>
<text text-anchor="start" x="200" y="-1243.5" font-family="SegoeUI" font-size="10.00">and 30 more...</text>
<text text-anchor="start" x="200" y="-1232.5" font-family="SegoeUI" font-size="10.00"># nativeButtons</text>
<text text-anchor="start" x="200" y="-1221.5" font-family="SegoeUI" font-size="10.00"># pointerOffset</text>
<text text-anchor="start" x="200" y="-1210.5" font-family="SegoeUI" font-size="10.00"># stage</text>
<text text-anchor="start" x="200" y="-1199.5" font-family="SegoeUI" font-size="10.00"># VIEWPORT_MIDPOINT</text>
<text text-anchor="start" x="200" y="-1188.5" font-family="SegoeUI" font-size="10.00"># PointerConfig</text>
<text text-anchor="start" x="200" y="-1177.5" font-family="SegoeUI" font-size="10.00">&#45; curLaserPointerMaterial</text>
<text text-anchor="start" x="200" y="-1166.5" font-family="SegoeUI" font-size="10.00">&#45; interaction</text>
<text text-anchor="start" x="200" y="-1155.5" font-family="SegoeUI" font-size="10.00">&#45; lastMotionFilter</text>
<text text-anchor="start" x="200" y="-1144.5" font-family="SegoeUI" font-size="10.00">&#45; input</text>
<text text-anchor="start" x="200" y="-1133.5" font-family="SegoeUI" font-size="10.00">&#45; finishTime</text>
<text text-anchor="start" x="200" y="-1122.5" font-family="SegoeUI" font-size="10.00">&#45; lastAction</text>
<polyline fill="none" stroke="black" points="192,-1115.5 341,-1115.5 "/>
<text text-anchor="start" x="200" y="-1103.5" font-family="SegoeUI" font-size="10.00">+ Awake()</text>
<text text-anchor="start" x="200" y="-1092.5" font-family="SegoeUI" font-size="10.00">+ Start()</text>
<text text-anchor="start" x="200" y="-1081.5" font-family="SegoeUI" font-size="10.00">+ Install()</text>
<text text-anchor="start" x="200" y="-1070.5" font-family="SegoeUI" font-size="10.00">+ Uninstall()</text>
<text text-anchor="start" x="200" y="-1059.5" font-family="SegoeUI" font-size="10.00">+ Reinstall()</text>
<text text-anchor="start" x="200" y="-1048.5" font-family="SegoeUI" font-size="10.00">+ OnProbeFound()</text>
<text text-anchor="start" x="200" y="-1037.5" font-family="SegoeUI" font-size="10.00">+ ScreenFromWorld()</text>
<text text-anchor="start" x="200" y="-1026.5" font-family="SegoeUI" font-size="10.00">+ ScreenFromViewport()</text>
<text text-anchor="start" x="200" y="-1015.5" font-family="SegoeUI" font-size="10.00">+ ViewportFromWorld()</text>
<text text-anchor="start" x="200" y="-1004.5" font-family="SegoeUI" font-size="10.00">+ ViewportFromScreen()</text>
<text text-anchor="start" x="200" y="-993.5" font-family="SegoeUI" font-size="10.00">and 17 more...</text>
<text text-anchor="start" x="200" y="-982.5" font-family="SegoeUI" font-size="10.00"># Clone()</text>
<text text-anchor="start" x="200" y="-971.5" font-family="SegoeUI" font-size="10.00"># ProcessButtons()</text>
<text text-anchor="start" x="200" y="-960.5" font-family="SegoeUI" font-size="10.00"># InternalUpdate()</text>
<text text-anchor="start" x="200" y="-949.5" font-family="SegoeUI" font-size="10.00">&#45; TestEnterExit()</text>
</a>
</g>
</g>
<!-- Node3&#45;&gt;Node2 -->
<g id="edge3" class="edge"><title>Node3&#45;&gt;Node2</title>
<path fill="none" stroke="midnightblue" d="M330.524,-932.718C332.88,-923.049 335.156,-913.709 337.32,-904.828"/>
<polygon fill="none" stroke="midnightblue" points="327.11,-931.947 328.143,-942.491 333.911,-933.604 327.11,-931.947"/>
</g>
<!-- Node4 -->
<g id="node5" class="node"><title>Node4</title>
<g id="a_node5"><a xlink:title=" ">
<polygon fill="white" stroke="#bfbfbf" points="87.5,-1598.5 87.5,-1655.5 169.5,-1655.5 169.5,-1598.5 87.5,-1598.5"/>
<text text-anchor="middle" x="128.5" y="-1643.5" font-family="SegoeUI" font-size="10.00">MonoBehaviour</text>
<polyline fill="none" stroke="#bfbfbf" points="87.5,-1636.5 169.5,-1636.5 "/>
<text text-anchor="middle" x="128.5" y="-1624.5" font-family="SegoeUI" font-size="10.00"> </text>
<polyline fill="none" stroke="#bfbfbf" points="87.5,-1617.5 169.5,-1617.5 "/>
<text text-anchor="middle" x="128.5" y="-1605.5" font-family="SegoeUI" font-size="10.00"> </text>
</a>
</g>
</g>
<!-- Node4&#45;&gt;Node3 -->
<g id="edge4" class="edge"><title>Node4&#45;&gt;Node3</title>
<path fill="none" stroke="midnightblue" d="M140.624,-1588.35C152.599,-1551.17 171.975,-1491.01 191.975,-1428.91"/>
<polygon fill="none" stroke="midnightblue" points="137.182,-1587.62 137.448,-1598.22 143.845,-1589.77 137.182,-1587.62"/>
</g>
<!-- Node5 -->
<g id="node6" class="node"><title>Node5</title>
<g id="a_node6"><a xlink:href="../../d7/dbe/interface_juniper_1_1_i_o_1_1_i_installable.html" target="_top" xlink:title="Defines an interface for objects that can be installed and have their installation progress tracked.">
<polygon fill="white" stroke="black" points="0,-1587.5 0,-1666.5 69,-1666.5 69,-1587.5 0,-1587.5"/>
<text text-anchor="middle" x="34.5" y="-1654.5" font-family="SegoeUI" font-size="10.00">IInstallable</text>
<polyline fill="none" stroke="black" points="0,-1647.5 69,-1647.5 "/>
<text text-anchor="middle" x="34.5" y="-1635.5" font-family="SegoeUI" font-size="10.00"> </text>
<polyline fill="none" stroke="black" points="0,-1628.5 69,-1628.5 "/>
<text text-anchor="start" x="8" y="-1616.5" font-family="SegoeUI" font-size="10.00">+ Install()</text>
<text text-anchor="start" x="8" y="-1605.5" font-family="SegoeUI" font-size="10.00">+ Reinstall()</text>
<text text-anchor="start" x="8" y="-1594.5" font-family="SegoeUI" font-size="10.00">+ Uninstall()</text>
</a>
</g>
</g>
<!-- Node5&#45;&gt;Node3 -->
<g id="edge5" class="edge"><title>Node5&#45;&gt;Node3</title>
<path fill="none" stroke="midnightblue" d="M46.5568,-1577.49C54.1052,-1550.48 64.9701,-1516.63 78.5,-1488 109.882,-1421.6 154.164,-1352.37 191.869,-1298.16"/>
<polygon fill="none" stroke="midnightblue" points="43.0862,-1576.91 43.8276,-1587.48 49.8389,-1578.76 43.0862,-1576.91"/>
</g>
<!-- Node6 -->
<g id="node7" class="node"><title>Node6</title>
<g id="a_node7"><a xlink:href="../../d0/da1/interface_juniper_1_1_input_1_1_pointers_1_1_i_pointer_device.html" target="_top" xlink:title=" ">
<polygon fill="white" stroke="black" points="363.5,-1488.5 363.5,-1765.5 487.5,-1765.5 487.5,-1488.5 363.5,-1488.5"/>
<text text-anchor="middle" x="425.5" y="-1753.5" font-family="SegoeUI" font-size="10.00">IPointerDevice</text>
<polyline fill="none" stroke="black" points="363.5,-1746.5 487.5,-1746.5 "/>
<text text-anchor="start" x="371.5" y="-1734.5" font-family="SegoeUI" font-size="10.00">+ transform</text>
<text text-anchor="start" x="371.5" y="-1723.5" font-family="SegoeUI" font-size="10.00">+ EventTarget</text>
<text text-anchor="start" x="371.5" y="-1712.5" font-family="SegoeUI" font-size="10.00">+ InputModule</text>
<text text-anchor="start" x="371.5" y="-1701.5" font-family="SegoeUI" font-size="10.00">+ PointerDataID</text>
<text text-anchor="start" x="371.5" y="-1690.5" font-family="SegoeUI" font-size="10.00">+ ProbeName</text>
<text text-anchor="start" x="371.5" y="-1679.5" font-family="SegoeUI" font-size="10.00">+ Probe</text>
<text text-anchor="start" x="371.5" y="-1668.5" font-family="SegoeUI" font-size="10.00">+ ButtonType</text>
<text text-anchor="start" x="371.5" y="-1657.5" font-family="SegoeUI" font-size="10.00">+ isActiveAndEnabled</text>
<text text-anchor="start" x="371.5" y="-1646.5" font-family="SegoeUI" font-size="10.00">+ IsConnected</text>
<text text-anchor="start" x="371.5" y="-1635.5" font-family="SegoeUI" font-size="10.00">+ ProcessInUpdate</text>
<text text-anchor="start" x="371.5" y="-1624.5" font-family="SegoeUI" font-size="10.00">and 26 more...</text>
<polyline fill="none" stroke="black" points="363.5,-1617.5 487.5,-1617.5 "/>
<text text-anchor="start" x="371.5" y="-1605.5" font-family="SegoeUI" font-size="10.00">+ OnProbeFound()</text>
<text text-anchor="start" x="371.5" y="-1594.5" font-family="SegoeUI" font-size="10.00">+ ViewportFromWorld()</text>
<text text-anchor="start" x="371.5" y="-1583.5" font-family="SegoeUI" font-size="10.00">+ ViewportFromScreen()</text>
<text text-anchor="start" x="371.5" y="-1572.5" font-family="SegoeUI" font-size="10.00">+ ScreenFromWorld()</text>
<text text-anchor="start" x="371.5" y="-1561.5" font-family="SegoeUI" font-size="10.00">+ ScreenFromViewport()</text>
<text text-anchor="start" x="371.5" y="-1550.5" font-family="SegoeUI" font-size="10.00">+ WorldFromScreen()</text>
<text text-anchor="start" x="371.5" y="-1539.5" font-family="SegoeUI" font-size="10.00">+ WorldFromViewport()</text>
<text text-anchor="start" x="371.5" y="-1528.5" font-family="SegoeUI" font-size="10.00">+ IsButtonDown()</text>
<text text-anchor="start" x="371.5" y="-1517.5" font-family="SegoeUI" font-size="10.00">+ IsButtonPressed()</text>
<text text-anchor="start" x="371.5" y="-1506.5" font-family="SegoeUI" font-size="10.00">+ IsButtonUp()</text>
<text text-anchor="start" x="371.5" y="-1495.5" font-family="SegoeUI" font-size="10.00">and 7 more...</text>
</a>
</g>
</g>
<!-- Node6&#45;&gt;Node3 -->
<g id="edge6" class="edge"><title>Node6&#45;&gt;Node3</title>
<path fill="none" stroke="midnightblue" d="M363.29,-1478.89C359.572,-1469.48 355.946,-1460.12 352.5,-1451 348.682,-1440.89 344.848,-1430.53 341.033,-1420.04"/>
<polygon fill="none" stroke="midnightblue" points="360.089,-1480.31 367.036,-1488.31 366.594,-1477.73 360.089,-1480.31"/>
</g>
<!-- Node9 -->
<g id="node10" class="node"><title>Node9</title>
<g id="a_node10"><a xlink:href="../../dc/d0e/interface_juniper_1_1_input_1_1_pointers_1_1_motion_1_1_i_handed_pointer.html" target="_top" xlink:title=" ">
<polygon fill="white" stroke="black" points="361.5,-1146 361.5,-1247 473.5,-1247 473.5,-1146 361.5,-1146"/>
<text text-anchor="middle" x="417.5" y="-1235" font-family="SegoeUI" font-size="10.00">IHandedPointer</text>
<polyline fill="none" stroke="black" points="361.5,-1228 473.5,-1228 "/>
<text text-anchor="start" x="369.5" y="-1216" font-family="SegoeUI" font-size="10.00">+ Hand</text>
<text text-anchor="start" x="369.5" y="-1205" font-family="SegoeUI" font-size="10.00">+ IsDominantHand</text>
<text text-anchor="start" x="369.5" y="-1194" font-family="SegoeUI" font-size="10.00">+ IsLeftHand</text>
<text text-anchor="start" x="369.5" y="-1183" font-family="SegoeUI" font-size="10.00">+ IsNonDominantHand</text>
<text text-anchor="start" x="369.5" y="-1172" font-family="SegoeUI" font-size="10.00">+ IsRightHand</text>
<polyline fill="none" stroke="black" points="361.5,-1165 473.5,-1165 "/>
<text text-anchor="middle" x="417.5" y="-1153" font-family="SegoeUI" font-size="10.00"> </text>
</a>
</g>
</g>
<!-- Node6&#45;&gt;Node9 -->
<g id="edge10" class="edge"><title>Node6&#45;&gt;Node9</title>
<path fill="none" stroke="midnightblue" d="M422.739,-1478.11C421.236,-1397.62 419.475,-1303.27 418.425,-1247.04"/>
<polygon fill="none" stroke="midnightblue" points="419.244,-1478.42 422.93,-1488.36 426.243,-1478.29 419.244,-1478.42"/>
</g>
<!-- Node7 -->
<g id="node8" class="node"><title>Node7</title>
<g id="a_node8"><a xlink:href="../../d5/d9e/interface_juniper_1_1_input_1_1_pointers_1_1_i_laser_pointer.html" target="_top" xlink:title=" ">
<polygon fill="white" stroke="black" points="351,-1803.5 351,-1882.5 500,-1882.5 500,-1803.5 351,-1803.5"/>
<text text-anchor="middle" x="425.5" y="-1870.5" font-family="SegoeUI" font-size="10.00">ILaserPointer</text>
<polyline fill="none" stroke="black" points="351,-1863.5 500,-1863.5 "/>
<text text-anchor="start" x="359" y="-1851.5" font-family="SegoeUI" font-size="10.00">+ LaserPointerNormalMaterial</text>
<text text-anchor="start" x="359" y="-1840.5" font-family="SegoeUI" font-size="10.00">+ LaserPointerEnabledMaterial</text>
<text text-anchor="start" x="359" y="-1829.5" font-family="SegoeUI" font-size="10.00">+ LaserPointerDisabledMaterial</text>
<polyline fill="none" stroke="black" points="351,-1822.5 500,-1822.5 "/>
<text text-anchor="middle" x="425.5" y="-1810.5" font-family="SegoeUI" font-size="10.00"> </text>
</a>
</g>
</g>
<!-- Node7&#45;&gt;Node6 -->
<g id="edge7" class="edge"><title>Node7&#45;&gt;Node6</title>
<path fill="none" stroke="midnightblue" d="M425.5,-1793.24C425.5,-1784.73 425.5,-1775.51 425.5,-1765.93"/>
<polygon fill="none" stroke="midnightblue" points="422,-1793.25 425.5,-1803.25 429,-1793.25 422,-1793.25"/>
</g>
<!-- Node8 -->
<g id="node9" class="node"><title>Node8</title>
<g id="a_node9"><a xlink:href="../../dc/dc8/interface_juniper_1_1_input_1_1_pointers_1_1_i_pointer_buttons.html" target="_top" xlink:title="An interface for specifying how devices with buttons should behave.">
<polygon fill="white" stroke="black" points="187.5,-1582 187.5,-1672 345.5,-1672 345.5,-1582 187.5,-1582"/>
<text text-anchor="middle" x="266.5" y="-1660" font-family="SegoeUI" font-size="10.00">IPointerButtons&lt; ButtonIDType &gt;</text>
<polyline fill="none" stroke="black" points="187.5,-1653 345.5,-1653 "/>
<text text-anchor="start" x="195.5" y="-1641" font-family="SegoeUI" font-size="10.00">+ IsConnected</text>
<text text-anchor="start" x="195.5" y="-1630" font-family="SegoeUI" font-size="10.00">+ AnyButtonPressed</text>
<polyline fill="none" stroke="black" points="187.5,-1623 345.5,-1623 "/>
<text text-anchor="start" x="195.5" y="-1611" font-family="SegoeUI" font-size="10.00">+ IsButtonDown()</text>
<text text-anchor="start" x="195.5" y="-1600" font-family="SegoeUI" font-size="10.00">+ IsButtonPressed()</text>
<text text-anchor="start" x="195.5" y="-1589" font-family="SegoeUI" font-size="10.00">+ IsButtonUp()</text>
</a>
</g>
</g>
<!-- Node8&#45;&gt;Node3 -->
<g id="edge8" class="edge"><title>Node8&#45;&gt;Node3</title>
<path fill="none" stroke="midnightblue" d="M266.5,-1571.73C266.5,-1539.59 266.5,-1496.3 266.5,-1450.58"/>
<polygon fill="none" stroke="midnightblue" points="263,-1571.76 266.5,-1581.76 270,-1571.76 263,-1571.76"/>
</g>
<!-- Node9&#45;&gt;Node2 -->
<g id="edge9" class="edge"><title>Node9&#45;&gt;Node2</title>
<path fill="none" stroke="midnightblue" d="M407.912,-1135.81C397.873,-1073.32 382.034,-974.727 370.792,-904.743"/>
<polygon fill="none" stroke="midnightblue" points="404.491,-1136.58 409.532,-1145.9 411.402,-1135.47 404.491,-1136.58"/>
</g>
<!-- Node11 -->
<g id="node12" class="node"><title>Node11</title>
<g id="a_node12"><a xlink:href="../../db/d09/class_juniper_1_1_input_1_1_pointers_1_1_motion_1_1_no_hand_tracker.html" target="_top" xlink:title=" ">
<polygon fill="white" stroke="black" points="285.5,-106.5 285.5,-218.5 429.5,-218.5 429.5,-106.5 285.5,-106.5"/>
<text text-anchor="start" x="293.5" y="-206.5" font-family="SegoeUI" font-size="10.00">Juniper.Input.Pointers.Motion.</text>
<text text-anchor="middle" x="357.5" y="-195.5" font-family="SegoeUI" font-size="10.00">NoHandTracker</text>
<polyline fill="none" stroke="black" points="285.5,-188.5 429.5,-188.5 "/>
<text text-anchor="start" x="293.5" y="-176.5" font-family="SegoeUI" font-size="10.00">+ IsConnected</text>
<text text-anchor="start" x="293.5" y="-165.5" font-family="SegoeUI" font-size="10.00">+ IsDominantHand</text>
<polyline fill="none" stroke="black" points="285.5,-158.5 429.5,-158.5 "/>
<text text-anchor="start" x="293.5" y="-146.5" font-family="SegoeUI" font-size="10.00">+ IsButtonDown()</text>
<text text-anchor="start" x="293.5" y="-135.5" font-family="SegoeUI" font-size="10.00">+ IsButtonPressed()</text>
<text text-anchor="start" x="293.5" y="-124.5" font-family="SegoeUI" font-size="10.00">+ IsButtonUp()</text>
<text text-anchor="start" x="293.5" y="-113.5" font-family="SegoeUI" font-size="10.00"># InternalUpdate()</text>
</a>
</g>
</g>
<!-- Node10&#45;&gt;Node11 -->
<g id="edge12" class="edge"><title>Node10&#45;&gt;Node11</title>
<path fill="none" stroke="midnightblue" d="M357.5,-245.994C357.5,-237.041 357.5,-227.644 357.5,-218.53"/>
<polygon fill="none" stroke="midnightblue" points="354,-246.257 357.5,-256.257 361,-246.257 354,-246.257"/>
</g>
<!-- Node12 -->
<g id="node13" class="node"><title>Node12</title>
<g id="a_node13"><a xlink:href="../../db/d04/class_juniper_1_1_input_1_1_pointers_1_1_motion_1_1_hand_tracker.html" target="_top" xlink:title=" ">
<polygon fill="white" stroke="black" points="285.5,-0.5 285.5,-68.5 429.5,-68.5 429.5,-0.5 285.5,-0.5"/>
<text text-anchor="start" x="293.5" y="-56.5" font-family="SegoeUI" font-size="10.00">Juniper.Input.Pointers.Motion.</text>
<text text-anchor="middle" x="357.5" y="-45.5" font-family="SegoeUI" font-size="10.00">HandTracker</text>
<polyline fill="none" stroke="black" points="285.5,-38.5 429.5,-38.5 "/>
<text text-anchor="middle" x="357.5" y="-26.5" font-family="SegoeUI" font-size="10.00"> </text>
<polyline fill="none" stroke="black" points="285.5,-19.5 429.5,-19.5 "/>
<text text-anchor="start" x="293.5" y="-7.5" font-family="SegoeUI" font-size="10.00">+ Reinstall()</text>
</a>
</g>
</g>
<!-- Node11&#45;&gt;Node12 -->
<g id="edge13" class="edge"><title>Node11&#45;&gt;Node12</title>
<path fill="none" stroke="midnightblue" d="M357.5,-95.9612C357.5,-86.4839 357.5,-77.0833 357.5,-68.6192"/>
<polygon fill="none" stroke="midnightblue" points="354,-96.2345 357.5,-106.235 361,-96.2346 354,-96.2345"/>
</g>
</g>
</svg>
