<?xml version="1.0" encoding="UTF-8" standalone="no"?>
<!DOCTYPE svg PUBLIC "-//W3C//DTD SVG 1.1//EN"
 "http://www.w3.org/Graphics/SVG/1.1/DTD/svg11.dtd">
<!-- Generated by graphviz version 2.38.0 (20140413.2041)
 -->
<!-- Title: Juniper.HTTP.Server.Administration.NetSH.AddFirewallRule Pages: 1 -->
<!--zoomable 811 -->
<svg id="main" version="1.1" xmlns="http://www.w3.org/2000/svg" xmlns:xlink="http://www.w3.org/1999/xlink" xml:space="preserve" onload="init(evt)">
<style type="text/css"><![CDATA[
.edge:hover path { stroke: red; }
.edge:hover polygon { stroke: red; fill: red; }
]]></style>
<script type="text/javascript"><![CDATA[
var edges = document.getElementsByTagName('g');
if (edges && edges.length) {
  for (var i=0;i<edges.length;i++) {
    if (edges[i].id.substr(0,4)=='edge') {
      edges[i].setAttribute('class','edge');
    }
  }
}
]]></script>
        <defs>
                <circle id="rim" cx="0" cy="0" r="7"/>
                <circle id="rim2" cx="0" cy="0" r="3.5"/>
                <g id="zoomPlus">
                        <use xlink:href="#rim" fill="#404040">
                                <set attributeName="fill" to="#808080" begin="zoomplus.mouseover" end="zoomplus.mouseout"/>
                        </use>
                        <path d="M-4,0h8M0,-4v8" fill="none" stroke="white" stroke-width="1.5" pointer-events="none"/>
                </g>
                <g id="zoomMin">
                        <use xlink:href="#rim" fill="#404040">
                                <set attributeName="fill" to="#808080" begin="zoomminus.mouseover" end="zoomminus.mouseout"/>
                        </use>
                        <path d="M-4,0h8" fill="none" stroke="white" stroke-width="1.5" pointer-events="none"/>
                </g>
                <g id="dirArrow">
                        <path fill="none" stroke="white" stroke-width="1.5" d="M0,-3.0v7 M-2.5,-0.5L0,-3.0L2.5,-0.5"/>
                </g>
               <g id="resetDef">
                       <use xlink:href="#rim2" fill="#404040">
                               <set attributeName="fill" to="#808080" begin="reset.mouseover" end="reset.mouseout"/>
                       </use>
               </g>
        </defs>

<script type="text/javascript">
var viewWidth = 268;
var viewHeight = 811;
var sectionId = 'dynsection-0';
</script>
<script xlink:href="../../svgpan.js"/>
<svg id="graph" class="graph">
<g id="viewport">
<title>Juniper.HTTP.Server.Administration.NetSH.AddFirewallRule</title>
<polygon fill="white" stroke="none" points="-4,4 -4,-807 263.5,-807 263.5,4 -4,4"/>
<!-- Node0 -->
<g id="node1" class="node"><title>Node0</title>
<g id="a_node1"><a xlink:title=" ">
<polygon fill="#bfbfbf" stroke="black" points="40.5,-0.5 40.5,-156.5 213.5,-156.5 213.5,-0.5 40.5,-0.5"/>
<text text-anchor="start" x="48.5" y="-144.5" font-family="SegoeUI" font-size="10.00">Juniper.HTTP.Server.Administration.</text>
<text text-anchor="middle" x="127" y="-133.5" font-family="SegoeUI" font-size="10.00">NetSH.AddFirewallRule</text>
<polyline fill="none" stroke="black" points="40.5,-126.5 213.5,-126.5 "/>
<text text-anchor="start" x="48.5" y="-114.5" font-family="SegoeUI" font-size="10.00">+ Description</text>
<text text-anchor="start" x="48.5" y="-103.5" font-family="SegoeUI" font-size="10.00">+ Service</text>
<text text-anchor="start" x="48.5" y="-92.5" font-family="SegoeUI" font-size="10.00">+ Direction</text>
<text text-anchor="start" x="48.5" y="-81.5" font-family="SegoeUI" font-size="10.00">+ Action</text>
<text text-anchor="start" x="48.5" y="-70.5" font-family="SegoeUI" font-size="10.00">+ RemoteBlock</text>
<text text-anchor="start" x="48.5" y="-59.5" font-family="SegoeUI" font-size="10.00">+ LocalBlock</text>
<text text-anchor="start" x="48.5" y="-48.5" font-family="SegoeUI" font-size="10.00">+ Program</text>
<text text-anchor="start" x="48.5" y="-37.5" font-family="SegoeUI" font-size="10.00">+ Arguments</text>
<polyline fill="none" stroke="black" points="40.5,-30.5 213.5,-30.5 "/>
<text text-anchor="start" x="48.5" y="-18.5" font-family="SegoeUI" font-size="10.00">+ AddFirewallRule()</text>
<text text-anchor="start" x="48.5" y="-7.5" font-family="SegoeUI" font-size="10.00"># RunAsync()</text>
</a>
</g>
</g>
<!-- Node1 -->
<g id="node2" class="node"><title>Node1</title>
<g id="a_node2"><a xlink:href="../../d9/de1/class_juniper_1_1_h_t_t_p_1_1_server_1_1_administration_1_1_net_s_h_1_1_abstract_firewall_rule_command.html" target="_top" xlink:title=" ">
<polygon fill="white" stroke="black" points="44.5,-193.5 44.5,-272.5 209.5,-272.5 209.5,-193.5 44.5,-193.5"/>
<text text-anchor="middle" x="127" y="-260.5" font-family="SegoeUI" font-size="10.00">AbstractFirewallRuleCommand</text>
<polyline fill="none" stroke="black" points="44.5,-253.5 209.5,-253.5 "/>
<text text-anchor="start" x="52.5" y="-241.5" font-family="SegoeUI" font-size="10.00">+ Arguments</text>
<text text-anchor="start" x="52.5" y="-230.5" font-family="SegoeUI" font-size="10.00">&#45; name</text>
<text text-anchor="start" x="52.5" y="-219.5" font-family="SegoeUI" font-size="10.00">&#45; command</text>
<polyline fill="none" stroke="black" points="44.5,-212.5 209.5,-212.5 "/>
<text text-anchor="start" x="52.5" y="-200.5" font-family="SegoeUI" font-size="10.00"># AbstractFirewallRuleCommand()</text>
</a>
</g>
</g>
<!-- Node1&#45;&gt;Node0 -->
<g id="edge1" class="edge"><title>Node1&#45;&gt;Node0</title>
<path fill="none" stroke="midnightblue" d="M127,-183.08C127,-174.607 127,-165.615 127,-156.608"/>
<polygon fill="none" stroke="midnightblue" points="123.5,-183.123 127,-193.123 130.5,-183.123 123.5,-183.123"/>
</g>
<!-- Node2 -->
<g id="node3" class="node"><title>Node2</title>
<g id="a_node3"><a xlink:href="../../de/dc3/class_juniper_1_1_h_t_t_p_1_1_server_1_1_administration_1_1_net_s_h_1_1_abstract_net_sh_command.html" target="_top" xlink:title=" ">
<polygon fill="white" stroke="black" points="58,-309.5 58,-366.5 196,-366.5 196,-309.5 58,-309.5"/>
<text text-anchor="middle" x="127" y="-354.5" font-family="SegoeUI" font-size="10.00">AbstractNetShCommand</text>
<polyline fill="none" stroke="black" points="58,-347.5 196,-347.5 "/>
<text text-anchor="middle" x="127" y="-335.5" font-family="SegoeUI" font-size="10.00"> </text>
<polyline fill="none" stroke="black" points="58,-328.5 196,-328.5 "/>
<text text-anchor="start" x="66" y="-316.5" font-family="SegoeUI" font-size="10.00"># AbstractNetShCommand()</text>
</a>
</g>
</g>
<!-- Node2&#45;&gt;Node1 -->
<g id="edge2" class="edge"><title>Node2&#45;&gt;Node1</title>
<path fill="none" stroke="midnightblue" d="M127,-299.156C127,-290.473 127,-281.232 127,-272.52"/>
<polygon fill="none" stroke="midnightblue" points="123.5,-299.398 127,-309.398 130.5,-299.398 123.5,-299.398"/>
</g>
<!-- Node3 -->
<g id="node4" class="node"><title>Node3</title>
<g id="a_node4"><a xlink:href="../../db/d6e/class_juniper_1_1_processes_1_1_abstract_shell_command.html" target="_top" xlink:title=" ">
<polygon fill="white" stroke="black" points="56.5,-403.5 56.5,-614.5 197.5,-614.5 197.5,-403.5 56.5,-403.5"/>
<text text-anchor="middle" x="127" y="-602.5" font-family="SegoeUI" font-size="10.00">AbstractShellCommand</text>
<polyline fill="none" stroke="black" points="56.5,-595.5 197.5,-595.5 "/>
<text text-anchor="start" x="64.5" y="-583.5" font-family="SegoeUI" font-size="10.00">+ UseShellExecute</text>
<text text-anchor="start" x="64.5" y="-572.5" font-family="SegoeUI" font-size="10.00">+ LoadUserProfile</text>
<text text-anchor="start" x="64.5" y="-561.5" font-family="SegoeUI" font-size="10.00">+ Encoding</text>
<text text-anchor="start" x="64.5" y="-550.5" font-family="SegoeUI" font-size="10.00">+ TotalStandardOutput</text>
<text text-anchor="start" x="64.5" y="-539.5" font-family="SegoeUI" font-size="10.00">+ TotalStandardError</text>
<text text-anchor="start" x="64.5" y="-528.5" font-family="SegoeUI" font-size="10.00">+ Arguments</text>
<text text-anchor="start" x="64.5" y="-517.5" font-family="SegoeUI" font-size="10.00">&#45; command</text>
<polyline fill="none" stroke="black" points="56.5,-510.5 197.5,-510.5 "/>
<text text-anchor="start" x="64.5" y="-498.5" font-family="SegoeUI" font-size="10.00">+ RunAsync()</text>
<text text-anchor="start" x="64.5" y="-487.5" font-family="SegoeUI" font-size="10.00">+ Run()</text>
<text text-anchor="start" x="64.5" y="-476.5" font-family="SegoeUI" font-size="10.00"># AbstractShellCommand()</text>
<text text-anchor="start" x="64.5" y="-465.5" font-family="SegoeUI" font-size="10.00"># RunAsync()</text>
<text text-anchor="start" x="64.5" y="-454.5" font-family="SegoeUI" font-size="10.00">&#45; Proc_OutputDataReceived()</text>
<text text-anchor="start" x="64.5" y="-443.5" font-family="SegoeUI" font-size="10.00">&#45; Proc_ErrorDataReceived()</text>
<text text-anchor="start" x="64.5" y="-432.5" font-family="SegoeUI" font-size="10.00">&#45; OnInfo()</text>
<text text-anchor="start" x="64.5" y="-421.5" font-family="SegoeUI" font-size="10.00">&#45; OnWarning()</text>
<text text-anchor="start" x="64.5" y="-410.5" font-family="SegoeUI" font-size="10.00">&#45; OnError()</text>
</a>
</g>
</g>
<!-- Node3&#45;&gt;Node2 -->
<g id="edge3" class="edge"><title>Node3&#45;&gt;Node2</title>
<path fill="none" stroke="midnightblue" d="M127,-393.099C127,-383.428 127,-374.37 127,-366.535"/>
<polygon fill="none" stroke="midnightblue" points="123.5,-393.374 127,-403.374 130.5,-393.374 123.5,-393.374"/>
</g>
<!-- Node4 -->
<g id="node5" class="node"><title>Node4</title>
<g id="a_node5"><a xlink:href="../../df/d21/interface_juniper_1_1_logging_1_1_i_logging_source.html" target="_top" xlink:title=" ">
<polygon fill="white" stroke="black" points="85.5,-651.5 85.5,-708.5 168.5,-708.5 168.5,-651.5 85.5,-651.5"/>
<text text-anchor="middle" x="127" y="-696.5" font-family="SegoeUI" font-size="10.00">ILoggingSource</text>
<polyline fill="none" stroke="black" points="85.5,-689.5 168.5,-689.5 "/>
<text text-anchor="middle" x="127" y="-677.5" font-family="SegoeUI" font-size="10.00"> </text>
<polyline fill="none" stroke="black" points="85.5,-670.5 168.5,-670.5 "/>
<text text-anchor="middle" x="127" y="-658.5" font-family="SegoeUI" font-size="10.00"> </text>
</a>
</g>
</g>
<!-- Node4&#45;&gt;Node3 -->
<g id="edge4" class="edge"><title>Node4&#45;&gt;Node3</title>
<path fill="none" stroke="midnightblue" d="M127,-641.233C127,-633.038 127,-623.987 127,-614.584"/>
<polygon fill="none" stroke="midnightblue" points="123.5,-641.471 127,-651.471 130.5,-641.471 123.5,-641.471"/>
</g>
<!-- Node5 -->
<g id="node6" class="node"><title>Node5</title>
<g id="a_node6"><a xlink:href="../../de/dad/interface_juniper_1_1_logging_1_1_i_info_source.html" target="_top" xlink:title=" ">
<polygon fill="white" stroke="black" points="0,-745.5 0,-802.5 66,-802.5 66,-745.5 0,-745.5"/>
<text text-anchor="middle" x="33" y="-790.5" font-family="SegoeUI" font-size="10.00">IInfoSource</text>
<polyline fill="none" stroke="black" points="0,-783.5 66,-783.5 "/>
<text text-anchor="middle" x="33" y="-771.5" font-family="SegoeUI" font-size="10.00"> </text>
<polyline fill="none" stroke="black" points="0,-764.5 66,-764.5 "/>
<text text-anchor="middle" x="33" y="-752.5" font-family="SegoeUI" font-size="10.00"> </text>
</a>
</g>
</g>
<!-- Node5&#45;&gt;Node4 -->
<g id="edge5" class="edge"><title>Node5&#45;&gt;Node4</title>
<path fill="none" stroke="midnightblue" d="M68.3657,-738.387C78.4259,-728.541 89.2449,-717.952 98.8168,-708.584"/>
<polygon fill="none" stroke="midnightblue" points="65.9017,-735.901 61.2031,-745.397 70.7979,-740.904 65.9017,-735.901"/>
</g>
<!-- Node6 -->
<g id="node7" class="node"><title>Node6</title>
<g id="a_node7"><a xlink:href="../../d6/d23/interface_juniper_1_1_logging_1_1_i_warning_source.html" target="_top" xlink:title=" ">
<polygon fill="white" stroke="black" points="84,-745.5 84,-802.5 170,-802.5 170,-745.5 84,-745.5"/>
<text text-anchor="middle" x="127" y="-790.5" font-family="SegoeUI" font-size="10.00">IWarningSource</text>
<polyline fill="none" stroke="black" points="84,-783.5 170,-783.5 "/>
<text text-anchor="middle" x="127" y="-771.5" font-family="SegoeUI" font-size="10.00"> </text>
<polyline fill="none" stroke="black" points="84,-764.5 170,-764.5 "/>
<text text-anchor="middle" x="127" y="-752.5" font-family="SegoeUI" font-size="10.00"> </text>
</a>
</g>
</g>
<!-- Node6&#45;&gt;Node4 -->
<g id="edge6" class="edge"><title>Node6&#45;&gt;Node4</title>
<path fill="none" stroke="midnightblue" d="M127,-735.209C127,-726.293 127,-716.951 127,-708.584"/>
<polygon fill="none" stroke="midnightblue" points="123.5,-735.397 127,-745.397 130.5,-735.397 123.5,-735.397"/>
</g>
<!-- Node7 -->
<g id="node8" class="node"><title>Node7</title>
<g id="a_node8"><a xlink:href="../../d4/d12/interface_juniper_1_1_logging_1_1_i_error_source.html" target="_top" xlink:title=" ">
<polygon fill="white" stroke="black" points="188.5,-745.5 188.5,-802.5 259.5,-802.5 259.5,-745.5 188.5,-745.5"/>
<text text-anchor="middle" x="224" y="-790.5" font-family="SegoeUI" font-size="10.00">IErrorSource</text>
<polyline fill="none" stroke="black" points="188.5,-783.5 259.5,-783.5 "/>
<text text-anchor="middle" x="224" y="-771.5" font-family="SegoeUI" font-size="10.00"> </text>
<polyline fill="none" stroke="black" points="188.5,-764.5 259.5,-764.5 "/>
<text text-anchor="middle" x="224" y="-752.5" font-family="SegoeUI" font-size="10.00"> </text>
</a>
</g>
</g>
<!-- Node7&#45;&gt;Node4 -->
<g id="edge7" class="edge"><title>Node7&#45;&gt;Node4</title>
<path fill="none" stroke="midnightblue" d="M187.506,-738.387C177.124,-728.541 165.96,-717.952 156.083,-708.584"/>
<polygon fill="none" stroke="midnightblue" points="185.233,-741.055 194.897,-745.397 190.05,-735.976 185.233,-741.055"/>
</g>
</g>
</svg>
        <g id="navigator" transform="translate(0 0)" fill="#404254">
                <rect fill="#f2f5e9" fill-opacity="0.5" stroke="#606060" stroke-width=".5" x="0" y="0" width="60" height="60"/>
                <use id="zoomplus" xlink:href="#zoomPlus" x="17" y="9" onmousedown="handleZoom(evt,'in')"/>
                <use id="zoomminus" xlink:href="#zoomMin" x="42" y="9" onmousedown="handleZoom(evt,'out')"/>
                <use id="reset" xlink:href="#resetDef" x="30" y="36" onmousedown="handleReset()"/>
                <g id="arrowUp" xlink:href="#dirArrow" transform="translate(30 24)" onmousedown="handlePan(0,-1)">
                  <use xlink:href="#rim" fill="#404040">
                        <set attributeName="fill" to="#808080" begin="arrowUp.mouseover" end="arrowUp.mouseout"/>
                  </use>
                  <path fill="none" stroke="white" stroke-width="1.5" d="M0,-3.0v7 M-2.5,-0.5L0,-3.0L2.5,-0.5"/>
                </g>
                <g id="arrowRight" xlink:href="#dirArrow" transform="rotate(90) translate(36 -43)" onmousedown="handlePan(1,0)">
                  <use xlink:href="#rim" fill="#404040">
                        <set attributeName="fill" to="#808080" begin="arrowRight.mouseover" end="arrowRight.mouseout"/>
                  </use>
                  <path fill="none" stroke="white" stroke-width="1.5" d="M0,-3.0v7 M-2.5,-0.5L0,-3.0L2.5,-0.5"/>
                </g>
                <g id="arrowDown" xlink:href="#dirArrow" transform="rotate(180) translate(-30 -48)" onmousedown="handlePan(0,1)">
                  <use xlink:href="#rim" fill="#404040">
                        <set attributeName="fill" to="#808080" begin="arrowDown.mouseover" end="arrowDown.mouseout"/>
                  </use>
                  <path fill="none" stroke="white" stroke-width="1.5" d="M0,-3.0v7 M-2.5,-0.5L0,-3.0L2.5,-0.5"/>
                </g>
                <g id="arrowLeft" xlink:href="#dirArrow" transform="rotate(270) translate(-36 17)" onmousedown="handlePan(-1,0)">
                  <use xlink:href="#rim" fill="#404040">
                        <set attributeName="fill" to="#808080" begin="arrowLeft.mouseover" end="arrowLeft.mouseout"/>
                  </use>
                  <path fill="none" stroke="white" stroke-width="1.5" d="M0,-3.0v7 M-2.5,-0.5L0,-3.0L2.5,-0.5"/>
                </g>
        </g>
        <svg viewBox="0 0 15 15" width="100%" height="30px" preserveAspectRatio="xMaxYMin meet">
         <g id="arrow_out" transform="scale(0.3 0.3)">
          <a xlink:href="class_juniper_1_1_h_t_t_p_1_1_server_1_1_administration_1_1_net_s_h_1_1_add_firewall_rule__inherit__graph_org.svg" target="_base">
           <rect id="button" ry="5" rx="5" y="6" x="6" height="38" width="38"
                fill="#f2f5e9" fill-opacity="0.5" stroke="#606060" stroke-width="1.0"/>
           <path id="arrow"
             d="M 11.500037,31.436501 C 11.940474,20.09759 22.043105,11.32322 32.158766,21.979434 L 37.068811,17.246167 C 37.068811,17.246167 37.088388,32 37.088388,32 L 22.160133,31.978069 C 22.160133,31.978069 26.997745,27.140456 26.997745,27.140456 C 18.528582,18.264221 13.291696,25.230495 11.500037,31.436501 z"
             style="fill:#404040;"/>
          </a>
         </g>
        </svg>
</svg>
