<?xml version="1.0" encoding="UTF-8" standalone="no"?>
<!DOCTYPE svg PUBLIC "-//W3C//DTD SVG 1.1//EN"
 "http://www.w3.org/Graphics/SVG/1.1/DTD/svg11.dtd">
<!-- Generated by graphviz version 2.38.0 (20140413.2041)
 -->
<!-- Title: Juniper.Unity.Widgets.AttentionDirector Pages: 1 -->
<svg width="216pt" height="446pt"
 viewBox="0.00 0.00 216.00 446.00" xmlns="http://www.w3.org/2000/svg" xmlns:xlink="http://www.w3.org/1999/xlink">
<g id="graph0" class="graph" transform="scale(1 1) rotate(0) translate(4 442)">
<title>Juniper.Unity.Widgets.AttentionDirector</title>
<polygon fill="white" stroke="none" points="-4,4 -4,-442 212,-442 212,4 -4,4"/>
<!-- Node2 -->
<g id="node1" class="node"><title>Node2</title>
<g id="a_node1"><a xlink:title="Shows a pointer that directs the user to where to look next.">
<polygon fill="#bfbfbf" stroke="black" points="12,-0.5 12,-310.5 162,-310.5 162,-0.5 12,-0.5"/>
<text text-anchor="start" x="20" y="-298.5" font-family="SegoeUI" font-size="10.00">Juniper.Unity.Widgets.Attention</text>
<text text-anchor="middle" x="87" y="-287.5" font-family="SegoeUI" font-size="10.00">Director</text>
<polyline fill="none" stroke="black" points="12,-280.5 162,-280.5 "/>
<text text-anchor="start" x="20" y="-268.5" font-family="SegoeUI" font-size="10.00">+ shrinkSpeed</text>
<text text-anchor="start" x="20" y="-257.5" font-family="SegoeUI" font-size="10.00">+ minDistance</text>
<text text-anchor="start" x="20" y="-246.5" font-family="SegoeUI" font-size="10.00">+ Target</text>
<text text-anchor="start" x="20" y="-235.5" font-family="SegoeUI" font-size="10.00">&#45; onTargetFound</text>
<text text-anchor="start" x="20" y="-224.5" font-family="SegoeUI" font-size="10.00">&#45; targetTrans</text>
<text text-anchor="start" x="20" y="-213.5" font-family="SegoeUI" font-size="10.00">&#45; lastTargetTrans</text>
<text text-anchor="start" x="20" y="-202.5" font-family="SegoeUI" font-size="10.00">&#45; pointer</text>
<text text-anchor="start" x="20" y="-191.5" font-family="SegoeUI" font-size="10.00">&#45; arrow</text>
<text text-anchor="start" x="20" y="-180.5" font-family="SegoeUI" font-size="10.00">&#45; image</text>
<text text-anchor="start" x="20" y="-169.5" font-family="SegoeUI" font-size="10.00">&#45; showImage</text>
<text text-anchor="start" x="20" y="-158.5" font-family="SegoeUI" font-size="10.00">&#45; showPointer</text>
<text text-anchor="start" x="20" y="-147.5" font-family="SegoeUI" font-size="10.00">&#45; wasShowImage</text>
<text text-anchor="start" x="20" y="-136.5" font-family="SegoeUI" font-size="10.00">&#45; wasShowPointer</text>
<polyline fill="none" stroke="black" points="12,-129.5 162,-129.5 "/>
<text text-anchor="start" x="20" y="-117.5" font-family="SegoeUI" font-size="10.00">+ Play()</text>
<text text-anchor="start" x="20" y="-106.5" font-family="SegoeUI" font-size="10.00">+ Awake()</text>
<text text-anchor="start" x="20" y="-95.5" font-family="SegoeUI" font-size="10.00">+ Scan()</text>
<text text-anchor="start" x="20" y="-84.5" font-family="SegoeUI" font-size="10.00">+ ScanCoroutine()</text>
<text text-anchor="start" x="20" y="-73.5" font-family="SegoeUI" font-size="10.00">+ Found()</text>
<text text-anchor="start" x="20" y="-62.5" font-family="SegoeUI" font-size="10.00">+ FoundCoroutine()</text>
<text text-anchor="start" x="20" y="-51.5" font-family="SegoeUI" font-size="10.00">+ Lost()</text>
<text text-anchor="start" x="20" y="-40.5" font-family="SegoeUI" font-size="10.00">+ LostCoroutine()</text>
<text text-anchor="start" x="20" y="-29.5" font-family="SegoeUI" font-size="10.00">+ SetTargetCoroutine()</text>
<text text-anchor="start" x="20" y="-18.5" font-family="SegoeUI" font-size="10.00">+ SetTarget()</text>
<text text-anchor="start" x="20" y="-7.5" font-family="SegoeUI" font-size="10.00">+ Update()</text>
</a>
</g>
</g>
<!-- Node3 -->
<g id="node2" class="node"><title>Node3</title>
<g id="a_node2"><a xlink:title=" ">
<polygon fill="white" stroke="#bfbfbf" points="0,-380.5 0,-437.5 82,-437.5 82,-380.5 0,-380.5"/>
<text text-anchor="middle" x="41" y="-425.5" font-family="SegoeUI" font-size="10.00">MonoBehaviour</text>
<polyline fill="none" stroke="#bfbfbf" points="0,-418.5 82,-418.5 "/>
<text text-anchor="middle" x="41" y="-406.5" font-family="SegoeUI" font-size="10.00"> </text>
<polyline fill="none" stroke="#bfbfbf" points="0,-399.5 82,-399.5 "/>
<text text-anchor="middle" x="41" y="-387.5" font-family="SegoeUI" font-size="10.00"> </text>
</a>
</g>
</g>
<!-- Node3&#45;&gt;Node2 -->
<g id="edge1" class="edge"><title>Node3&#45;&gt;Node2</title>
<path fill="none" stroke="midnightblue" d="M47.9812,-369.831C51.0164,-353.237 54.7908,-332.6 58.7869,-310.752"/>
<polygon fill="none" stroke="midnightblue" points="44.4549,-369.658 46.0986,-380.124 51.3407,-370.917 44.4549,-369.658"/>
</g>
<!-- Node4 -->
<g id="node3" class="node"><title>Node4</title>
<g id="a_node3"><a xlink:title=" ">
<polygon fill="white" stroke="#bfbfbf" points="100,-380.5 100,-437.5 166,-437.5 166,-380.5 100,-380.5"/>
<text text-anchor="middle" x="133" y="-425.5" font-family="SegoeUI" font-size="10.00">UnityEngine</text>
<polyline fill="none" stroke="#bfbfbf" points="100,-418.5 166,-418.5 "/>
<text text-anchor="middle" x="133" y="-406.5" font-family="SegoeUI" font-size="10.00"> </text>
<polyline fill="none" stroke="#bfbfbf" points="100,-399.5 166,-399.5 "/>
<text text-anchor="middle" x="133" y="-387.5" font-family="SegoeUI" font-size="10.00"> </text>
</a>
</g>
</g>
<!-- Node4&#45;&gt;Node2 -->
<g id="edge2" class="edge"><title>Node4&#45;&gt;Node2</title>
<path fill="none" stroke="#404040" d="M127.901,-380.124C125.125,-364.947 121.439,-344.792 117.413,-322.781"/>
<polygon fill="none" stroke="#404040" points="117.372,-322.556 112.358,-317.374 115.213,-310.752 120.227,-315.935 117.372,-322.556"/>
<text text-anchor="middle" x="166" y="-354" font-family="SegoeUI" font-size="10.00"> &#45;lastTargetPosition</text>
<text text-anchor="middle" x="166" y="-343" font-family="SegoeUI" font-size="10.00">&#45;tagRange</text>
<text text-anchor="middle" x="166" y="-332" font-family="SegoeUI" font-size="10.00">&#45;targetPos</text>
</g>
</g>
</svg>
