<?xml version="1.0" encoding="UTF-8" standalone="no"?>
<!DOCTYPE svg PUBLIC "-//W3C//DTD SVG 1.1//EN"
 "http://www.w3.org/Graphics/SVG/1.1/DTD/svg11.dtd">
<!-- Generated by graphviz version 2.38.0 (20140413.2041)
 -->
<!-- Title: Juniper.Unity.Widgets.AttentionDirector Pages: 1 -->
<!--zoomable 585 -->
<svg id="main" version="1.1" xmlns="http://www.w3.org/2000/svg" xmlns:xlink="http://www.w3.org/1999/xlink" xml:space="preserve" onload="init(evt)">
<style type="text/css"><![CDATA[
.edge:hover path { stroke: red; }
.edge:hover polygon { stroke: red; fill: red; }
]]></style>
<script type="text/javascript"><![CDATA[
var edges = document.getElementsByTagName('g');
if (edges && edges.length) {
  for (var i=0;i<edges.length;i++) {
    if (edges[i].id.substr(0,4)=='edge') {
      edges[i].setAttribute('class','edge');
    }
  }
}
]]></script>
        <defs>
                <circle id="rim" cx="0" cy="0" r="7"/>
                <circle id="rim2" cx="0" cy="0" r="3.5"/>
                <g id="zoomPlus">
                        <use xlink:href="#rim" fill="#404040">
                                <set attributeName="fill" to="#808080" begin="zoomplus.mouseover" end="zoomplus.mouseout"/>
                        </use>
                        <path d="M-4,0h8M0,-4v8" fill="none" stroke="white" stroke-width="1.5" pointer-events="none"/>
                </g>
                <g id="zoomMin">
                        <use xlink:href="#rim" fill="#404040">
                                <set attributeName="fill" to="#808080" begin="zoomminus.mouseover" end="zoomminus.mouseout"/>
                        </use>
                        <path d="M-4,0h8" fill="none" stroke="white" stroke-width="1.5" pointer-events="none"/>
                </g>
                <g id="dirArrow">
                        <path fill="none" stroke="white" stroke-width="1.5" d="M0,-3.0v7 M-2.5,-0.5L0,-3.0L2.5,-0.5"/>
                </g>
               <g id="resetDef">
                       <use xlink:href="#rim2" fill="#404040">
                               <set attributeName="fill" to="#808080" begin="reset.mouseover" end="reset.mouseout"/>
                       </use>
               </g>
        </defs>

<script type="text/javascript">
var viewWidth = 274;
var viewHeight = 585;
var sectionId = 'dynsection-1';
</script>
<script xlink:href="../../svgpan.js"/>
<svg id="graph" class="graph">
<g id="viewport">
<title>Juniper.Unity.Widgets.AttentionDirector</title>
<polygon fill="white" stroke="none" points="-4,4 -4,-581 270,-581 270,4 -4,4"/>
<!-- Node2 -->
<g id="node1" class="node"><title>Node2</title>
<g id="a_node1"><a xlink:title="Shows a pointer that directs the user to where to look next.">
<polygon fill="#bfbfbf" stroke="black" points="26,-0.5 26,-310.5 176,-310.5 176,-0.5 26,-0.5"/>
<text text-anchor="start" x="34" y="-298.5" font-family="SegoeUI" font-size="10.00">Juniper.Unity.Widgets.Attention</text>
<text text-anchor="middle" x="101" y="-287.5" font-family="SegoeUI" font-size="10.00">Director</text>
<polyline fill="none" stroke="black" points="26,-280.5 176,-280.5 "/>
<text text-anchor="start" x="34" y="-268.5" font-family="SegoeUI" font-size="10.00">+ shrinkSpeed</text>
<text text-anchor="start" x="34" y="-257.5" font-family="SegoeUI" font-size="10.00">+ minDistance</text>
<text text-anchor="start" x="34" y="-246.5" font-family="SegoeUI" font-size="10.00">+ Target</text>
<text text-anchor="start" x="34" y="-235.5" font-family="SegoeUI" font-size="10.00">&#45; onTargetFound</text>
<text text-anchor="start" x="34" y="-224.5" font-family="SegoeUI" font-size="10.00">&#45; targetTrans</text>
<text text-anchor="start" x="34" y="-213.5" font-family="SegoeUI" font-size="10.00">&#45; lastTargetTrans</text>
<text text-anchor="start" x="34" y="-202.5" font-family="SegoeUI" font-size="10.00">&#45; pointer</text>
<text text-anchor="start" x="34" y="-191.5" font-family="SegoeUI" font-size="10.00">&#45; arrow</text>
<text text-anchor="start" x="34" y="-180.5" font-family="SegoeUI" font-size="10.00">&#45; image</text>
<text text-anchor="start" x="34" y="-169.5" font-family="SegoeUI" font-size="10.00">&#45; showImage</text>
<text text-anchor="start" x="34" y="-158.5" font-family="SegoeUI" font-size="10.00">&#45; showPointer</text>
<text text-anchor="start" x="34" y="-147.5" font-family="SegoeUI" font-size="10.00">&#45; wasShowImage</text>
<text text-anchor="start" x="34" y="-136.5" font-family="SegoeUI" font-size="10.00">&#45; wasShowPointer</text>
<polyline fill="none" stroke="black" points="26,-129.5 176,-129.5 "/>
<text text-anchor="start" x="34" y="-117.5" font-family="SegoeUI" font-size="10.00">+ Play()</text>
<text text-anchor="start" x="34" y="-106.5" font-family="SegoeUI" font-size="10.00">+ Awake()</text>
<text text-anchor="start" x="34" y="-95.5" font-family="SegoeUI" font-size="10.00">+ Scan()</text>
<text text-anchor="start" x="34" y="-84.5" font-family="SegoeUI" font-size="10.00">+ ScanCoroutine()</text>
<text text-anchor="start" x="34" y="-73.5" font-family="SegoeUI" font-size="10.00">+ Found()</text>
<text text-anchor="start" x="34" y="-62.5" font-family="SegoeUI" font-size="10.00">+ FoundCoroutine()</text>
<text text-anchor="start" x="34" y="-51.5" font-family="SegoeUI" font-size="10.00">+ Lost()</text>
<text text-anchor="start" x="34" y="-40.5" font-family="SegoeUI" font-size="10.00">+ LostCoroutine()</text>
<text text-anchor="start" x="34" y="-29.5" font-family="SegoeUI" font-size="10.00">+ SetTargetCoroutine()</text>
<text text-anchor="start" x="34" y="-18.5" font-family="SegoeUI" font-size="10.00">+ SetTarget()</text>
<text text-anchor="start" x="34" y="-7.5" font-family="SegoeUI" font-size="10.00">+ Update()</text>
</a>
</g>
</g>
<!-- Node3 -->
<g id="node2" class="node"><title>Node3</title>
<g id="a_node2"><a xlink:title=" ">
<polygon fill="white" stroke="#bfbfbf" points="0,-519.5 0,-576.5 82,-576.5 82,-519.5 0,-519.5"/>
<text text-anchor="middle" x="41" y="-564.5" font-family="SegoeUI" font-size="10.00">MonoBehaviour</text>
<polyline fill="none" stroke="#bfbfbf" points="0,-557.5 82,-557.5 "/>
<text text-anchor="middle" x="41" y="-545.5" font-family="SegoeUI" font-size="10.00"> </text>
<polyline fill="none" stroke="#bfbfbf" points="0,-538.5 82,-538.5 "/>
<text text-anchor="middle" x="41" y="-526.5" font-family="SegoeUI" font-size="10.00"> </text>
</a>
</g>
</g>
<!-- Node3&#45;&gt;Node2 -->
<g id="edge1" class="edge"><title>Node3&#45;&gt;Node2</title>
<path fill="none" stroke="midnightblue" d="M34.866,-509.155C33.6746,-500.271 32.6079,-490.822 32,-482 28.8838,-436.774 25.238,-424.826 32,-380 35.4375,-357.212 40.7418,-333.544 46.9162,-310.506"/>
<polygon fill="none" stroke="midnightblue" points="31.4289,-509.845 36.3019,-519.252 38.3592,-508.859 31.4289,-509.845"/>
</g>
<!-- Node4 -->
<g id="node3" class="node"><title>Node4</title>
<g id="a_node3"><a xlink:href="../../dd/d2d/class_juniper_1_1_unity_1_1_animation_1_1_abstract_animator.html" target="_top" xlink:title="An abstraction layer over different ways of showing UI state. Only one such component is allowed on a...">
<polygon fill="white" stroke="black" points="41,-380.5 41,-481.5 161,-481.5 161,-380.5 41,-380.5"/>
<text text-anchor="start" x="49" y="-469.5" font-family="SegoeUI" font-size="10.00">Juniper.Unity.Animation.</text>
<text text-anchor="middle" x="101" y="-458.5" font-family="SegoeUI" font-size="10.00">AbstractAnimator</text>
<polyline fill="none" stroke="black" points="41,-451.5 161,-451.5 "/>
<text text-anchor="middle" x="101" y="-439.5" font-family="SegoeUI" font-size="10.00"> </text>
<polyline fill="none" stroke="black" points="41,-432.5 161,-432.5 "/>
<text text-anchor="start" x="49" y="-420.5" font-family="SegoeUI" font-size="10.00">+ PlayCoroutine()</text>
<text text-anchor="start" x="49" y="-409.5" font-family="SegoeUI" font-size="10.00">+ Play()</text>
<text text-anchor="start" x="49" y="-398.5" font-family="SegoeUI" font-size="10.00">+ HasState()</text>
<text text-anchor="start" x="49" y="-387.5" font-family="SegoeUI" font-size="10.00">+ GetAnimator()</text>
</a>
</g>
</g>
<!-- Node3&#45;&gt;Node4 -->
<g id="edge3" class="edge"><title>Node3&#45;&gt;Node4</title>
<path fill="none" stroke="midnightblue" d="M60.1287,-510.337C64.8616,-501.265 70.0119,-491.394 75.011,-481.812"/>
<polygon fill="none" stroke="midnightblue" points="56.8942,-508.97 55.3715,-519.455 63.1003,-512.208 56.8942,-508.97"/>
</g>
<!-- Node4&#45;&gt;Node2 -->
<g id="edge2" class="edge"><title>Node4&#45;&gt;Node2</title>
<path fill="none" stroke="#404040" d="M101,-380.471C101,-363.6 101,-343.689 101,-322.812"/>
<polygon fill="none" stroke="#404040" points="101,-322.778 97,-316.778 101,-310.778 105,-316.778 101,-322.778"/>
<text text-anchor="middle" x="124" y="-343" font-family="SegoeUI" font-size="10.00"> &#45;animator</text>
</g>
<!-- Node5 -->
<g id="node4" class="node"><title>Node5</title>
<g id="a_node4"><a xlink:title=" ">
<polygon fill="white" stroke="#bfbfbf" points="179,-402.5 179,-459.5 245,-459.5 245,-402.5 179,-402.5"/>
<text text-anchor="middle" x="212" y="-447.5" font-family="SegoeUI" font-size="10.00">UnityEngine</text>
<polyline fill="none" stroke="#bfbfbf" points="179,-440.5 245,-440.5 "/>
<text text-anchor="middle" x="212" y="-428.5" font-family="SegoeUI" font-size="10.00"> </text>
<polyline fill="none" stroke="#bfbfbf" points="179,-421.5 245,-421.5 "/>
<text text-anchor="middle" x="212" y="-409.5" font-family="SegoeUI" font-size="10.00"> </text>
</a>
</g>
</g>
<!-- Node5&#45;&gt;Node2 -->
<g id="edge4" class="edge"><title>Node5&#45;&gt;Node2</title>
<path fill="none" stroke="#404040" d="M200.746,-402.27C192.597,-382.192 180.838,-353.217 168.232,-322.157"/>
<polygon fill="none" stroke="#404040" points="168.067,-321.752 162.105,-317.696 163.555,-310.633 169.517,-314.688 168.067,-321.752"/>
<text text-anchor="middle" x="224" y="-354" font-family="SegoeUI" font-size="10.00"> &#45;lastTargetPosition</text>
<text text-anchor="middle" x="224" y="-343" font-family="SegoeUI" font-size="10.00">&#45;tagRange</text>
<text text-anchor="middle" x="224" y="-332" font-family="SegoeUI" font-size="10.00">&#45;targetPos</text>
</g>
</g>
</svg>
        <g id="navigator" transform="translate(0 0)" fill="#404254">
                <rect fill="#f2f5e9" fill-opacity="0.5" stroke="#606060" stroke-width=".5" x="0" y="0" width="60" height="60"/>
                <use id="zoomplus" xlink:href="#zoomPlus" x="17" y="9" onmousedown="handleZoom(evt,'in')"/>
                <use id="zoomminus" xlink:href="#zoomMin" x="42" y="9" onmousedown="handleZoom(evt,'out')"/>
                <use id="reset" xlink:href="#resetDef" x="30" y="36" onmousedown="handleReset()"/>
                <g id="arrowUp" xlink:href="#dirArrow" transform="translate(30 24)" onmousedown="handlePan(0,-1)">
                  <use xlink:href="#rim" fill="#404040">
                        <set attributeName="fill" to="#808080" begin="arrowUp.mouseover" end="arrowUp.mouseout"/>
                  </use>
                  <path fill="none" stroke="white" stroke-width="1.5" d="M0,-3.0v7 M-2.5,-0.5L0,-3.0L2.5,-0.5"/>
                </g>
                <g id="arrowRight" xlink:href="#dirArrow" transform="rotate(90) translate(36 -43)" onmousedown="handlePan(1,0)">
                  <use xlink:href="#rim" fill="#404040">
                        <set attributeName="fill" to="#808080" begin="arrowRight.mouseover" end="arrowRight.mouseout"/>
                  </use>
                  <path fill="none" stroke="white" stroke-width="1.5" d="M0,-3.0v7 M-2.5,-0.5L0,-3.0L2.5,-0.5"/>
                </g>
                <g id="arrowDown" xlink:href="#dirArrow" transform="rotate(180) translate(-30 -48)" onmousedown="handlePan(0,1)">
                  <use xlink:href="#rim" fill="#404040">
                        <set attributeName="fill" to="#808080" begin="arrowDown.mouseover" end="arrowDown.mouseout"/>
                  </use>
                  <path fill="none" stroke="white" stroke-width="1.5" d="M0,-3.0v7 M-2.5,-0.5L0,-3.0L2.5,-0.5"/>
                </g>
                <g id="arrowLeft" xlink:href="#dirArrow" transform="rotate(270) translate(-36 17)" onmousedown="handlePan(-1,0)">
                  <use xlink:href="#rim" fill="#404040">
                        <set attributeName="fill" to="#808080" begin="arrowLeft.mouseover" end="arrowLeft.mouseout"/>
                  </use>
                  <path fill="none" stroke="white" stroke-width="1.5" d="M0,-3.0v7 M-2.5,-0.5L0,-3.0L2.5,-0.5"/>
                </g>
        </g>
        <svg viewBox="0 0 15 15" width="100%" height="30px" preserveAspectRatio="xMaxYMin meet">
         <g id="arrow_out" transform="scale(0.3 0.3)">
          <a xlink:href="class_juniper_1_1_unity_1_1_widgets_1_1_attention_director__coll__graph_org.svg" target="_base">
           <rect id="button" ry="5" rx="5" y="6" x="6" height="38" width="38"
                fill="#f2f5e9" fill-opacity="0.5" stroke="#606060" stroke-width="1.0"/>
           <path id="arrow"
             d="M 11.500037,31.436501 C 11.940474,20.09759 22.043105,11.32322 32.158766,21.979434 L 37.068811,17.246167 C 37.068811,17.246167 37.088388,32 37.088388,32 L 22.160133,31.978069 C 22.160133,31.978069 26.997745,27.140456 26.997745,27.140456 C 18.528582,18.264221 13.291696,25.230495 11.500037,31.436501 z"
             style="fill:#404040;"/>
          </a>
         </g>
        </svg>
</svg>
