<?xml version="1.0" encoding="UTF-8" standalone="no"?>
<!DOCTYPE svg PUBLIC "-//W3C//DTD SVG 1.1//EN"
 "http://www.w3.org/Graphics/SVG/1.1/DTD/svg11.dtd">
<!-- Generated by graphviz version 2.38.0 (20140413.2041)
 -->
<!-- Title: UnityEngine.TransformExt Pages: 1 -->
<svg width="135pt" height="176pt"
 viewBox="0.00 0.00 135.00 176.00" xmlns="http://www.w3.org/2000/svg" xmlns:xlink="http://www.w3.org/1999/xlink">
<g id="graph0" class="graph" transform="scale(1 1) rotate(0) translate(4 172)">
<title>UnityEngine.TransformExt</title>
<polygon fill="white" stroke="none" points="-4,4 -4,-172 131,-172 131,4 -4,4"/>
<!-- Node1 -->
<g id="node1" class="node"><title>Node1</title>
<g id="a_node1"><a xlink:title="Extensions to Unity&#39;s Transform class.">
<polygon fill="#bfbfbf" stroke="black" points="0,-0.5 0,-167.5 127,-167.5 127,-0.5 0,-0.5"/>
<text text-anchor="middle" x="63.5" y="-155.5" font-family="SegoeUI" font-size="10.00">UnityEngine.TransformExt</text>
<polyline fill="none" stroke="black" points="0,-148.5 127,-148.5 "/>
<text text-anchor="middle" x="63.5" y="-136.5" font-family="SegoeUI" font-size="10.00"> </text>
<polyline fill="none" stroke="black" points="0,-129.5 127,-129.5 "/>
<text text-anchor="start" x="8" y="-117.5" font-family="SegoeUI" font-size="10.00">+ Reparent()</text>
<text text-anchor="start" x="8" y="-106.5" font-family="SegoeUI" font-size="10.00">+ Reparent()</text>
<text text-anchor="start" x="8" y="-95.5" font-family="SegoeUI" font-size="10.00">+ Reset()</text>
<text text-anchor="start" x="8" y="-84.5" font-family="SegoeUI" font-size="10.00">+ Reset()</text>
<text text-anchor="start" x="8" y="-73.5" font-family="SegoeUI" font-size="10.00">+ Children&lt; T &gt;()</text>
<text text-anchor="start" x="8" y="-62.5" font-family="SegoeUI" font-size="10.00">+ Children&lt; T &gt;()</text>
<text text-anchor="start" x="8" y="-51.5" font-family="SegoeUI" font-size="10.00">+ Family&lt; T &gt;()</text>
<text text-anchor="start" x="8" y="-40.5" font-family="SegoeUI" font-size="10.00">+ Family&lt; T &gt;()</text>
<text text-anchor="start" x="8" y="-29.5" font-family="SegoeUI" font-size="10.00">+ ClearChildren()</text>
<text text-anchor="start" x="8" y="-18.5" font-family="SegoeUI" font-size="10.00">+ ClearChildren()</text>
<text text-anchor="start" x="8" y="-7.5" font-family="SegoeUI" font-size="10.00">and 10 more...</text>
</a>
</g>
</g>
</g>
</svg>
