<?xml version="1.0" encoding="UTF-8" standalone="no"?>
<!DOCTYPE svg PUBLIC "-//W3C//DTD SVG 1.1//EN"
 "http://www.w3.org/Graphics/SVG/1.1/DTD/svg11.dtd">
<!-- Generated by graphviz version 2.38.0 (20140413.2041)
 -->
<!-- Title: Juniper.Unity.Widgets.Standoff Pages: 1 -->
<svg width="156pt" height="215pt"
 viewBox="0.00 0.00 156.00 215.00" xmlns="http://www.w3.org/2000/svg" xmlns:xlink="http://www.w3.org/1999/xlink">
<g id="graph0" class="graph" transform="scale(1 1) rotate(0) translate(4 211)">
<title>Juniper.Unity.Widgets.Standoff</title>
<polygon fill="white" stroke="none" points="-4,4 -4,-211 152,-211 152,4 -4,4"/>
<!-- Node0 -->
<g id="node1" class="node"><title>Node0</title>
<g id="a_node1"><a xlink:title="Holds an object away from the user on the opposite side of a target object. This is useful for making...">
<polygon fill="#bfbfbf" stroke="black" points="0,-0.5 0,-112.5 148,-112.5 148,-0.5 0,-0.5"/>
<text text-anchor="middle" x="74" y="-100.5" font-family="SegoeUI" font-size="10.00">Juniper.Unity.Widgets.Standoff</text>
<polyline fill="none" stroke="black" points="0,-93.5 148,-93.5 "/>
<text text-anchor="start" x="8" y="-81.5" font-family="SegoeUI" font-size="10.00">+ target</text>
<text text-anchor="start" x="8" y="-70.5" font-family="SegoeUI" font-size="10.00">+ distance</text>
<text text-anchor="start" x="8" y="-59.5" font-family="SegoeUI" font-size="10.00">+ height</text>
<text text-anchor="start" x="8" y="-48.5" font-family="SegoeUI" font-size="10.00">&#45; camT</text>
<polyline fill="none" stroke="black" points="0,-41.5 148,-41.5 "/>
<text text-anchor="start" x="8" y="-29.5" font-family="SegoeUI" font-size="10.00">+ Awake()</text>
<text text-anchor="start" x="8" y="-18.5" font-family="SegoeUI" font-size="10.00">+ Update()</text>
<text text-anchor="start" x="8" y="-7.5" font-family="SegoeUI" font-size="10.00">+ OnEnable()</text>
</a>
</g>
</g>
<!-- Node1 -->
<g id="node2" class="node"><title>Node1</title>
<g id="a_node2"><a xlink:title=" ">
<polygon fill="white" stroke="#bfbfbf" points="33,-149.5 33,-206.5 115,-206.5 115,-149.5 33,-149.5"/>
<text text-anchor="middle" x="74" y="-194.5" font-family="SegoeUI" font-size="10.00">MonoBehaviour</text>
<polyline fill="none" stroke="#bfbfbf" points="33,-187.5 115,-187.5 "/>
<text text-anchor="middle" x="74" y="-175.5" font-family="SegoeUI" font-size="10.00"> </text>
<polyline fill="none" stroke="#bfbfbf" points="33,-168.5 115,-168.5 "/>
<text text-anchor="middle" x="74" y="-156.5" font-family="SegoeUI" font-size="10.00"> </text>
</a>
</g>
</g>
<!-- Node1&#45;&gt;Node0 -->
<g id="edge1" class="edge"><title>Node1&#45;&gt;Node0</title>
<path fill="none" stroke="midnightblue" d="M74,-139.108C74,-130.748 74,-121.725 74,-112.834"/>
<polygon fill="none" stroke="midnightblue" points="70.5001,-139.284 74,-149.284 77.5001,-139.284 70.5001,-139.284"/>
</g>
</g>
</svg>
