<?xml version="1.0" encoding="UTF-8" standalone="no"?>
<!DOCTYPE svg PUBLIC "-//W3C//DTD SVG 1.1//EN"
 "http://www.w3.org/Graphics/SVG/1.1/DTD/svg11.dtd">
<!-- Generated by graphviz version 2.38.0 (20140413.2041)
 -->
<!-- Title: Juniper.Unity.Widgets.RotationHandle Pages: 1 -->
<svg width="1261pt" height="1458pt"
 viewBox="0.00 0.00 1260.50 1458.00" xmlns="http://www.w3.org/2000/svg" xmlns:xlink="http://www.w3.org/1999/xlink">
<g id="graph0" class="graph" transform="scale(1 1) rotate(0) translate(4 1454)">
<title>Juniper.Unity.Widgets.RotationHandle</title>
<polygon fill="white" stroke="none" points="-4,4 -4,-1454 1256.5,-1454 1256.5,4 -4,4"/>
<!-- Node3 -->
<g id="node1" class="node"><title>Node3</title>
<g id="a_node1"><a xlink:title="A draggable object that can be used to update the rotation of another object.">
<polygon fill="#bfbfbf" stroke="black" points="0,-0.5 0,-79.5 147,-79.5 147,-0.5 0,-0.5"/>
<text text-anchor="start" x="8" y="-67.5" font-family="SegoeUI" font-size="10.00">Juniper.Unity.Widgets.Rotation</text>
<text text-anchor="middle" x="73.5" y="-56.5" font-family="SegoeUI" font-size="10.00">Handle</text>
<polyline fill="none" stroke="black" points="0,-49.5 147,-49.5 "/>
<text text-anchor="middle" x="73.5" y="-37.5" font-family="SegoeUI" font-size="10.00"> </text>
<polyline fill="none" stroke="black" points="0,-30.5 147,-30.5 "/>
<text text-anchor="start" x="8" y="-18.5" font-family="SegoeUI" font-size="10.00"># GetChange()</text>
<text text-anchor="start" x="8" y="-7.5" font-family="SegoeUI" font-size="10.00"># ApplyChange()</text>
</a>
</g>
</g>
<!-- Node4 -->
<g id="node2" class="node"><title>Node4</title>
<g id="a_node2"><a xlink:href="../../d6/d6a/class_juniper_1_1_unity_1_1_widgets_1_1_abstract_constraint_handle.html" target="_top" xlink:title="An abstract class that manages reading the movement of a control handle and constraining that movemen...">
<polygon fill="white" stroke="black" points="11,-117.5 11,-262.5 136,-262.5 136,-117.5 11,-117.5"/>
<text text-anchor="middle" x="73.5" y="-250.5" font-family="SegoeUI" font-size="10.00">AbstractConstraintHandle</text>
<polyline fill="none" stroke="black" points="11,-243.5 136,-243.5 "/>
<text text-anchor="start" x="19" y="-231.5" font-family="SegoeUI" font-size="10.00">+ target</text>
<text text-anchor="start" x="19" y="-220.5" font-family="SegoeUI" font-size="10.00">+ axis</text>
<text text-anchor="start" x="19" y="-209.5" font-family="SegoeUI" font-size="10.00">+ speed</text>
<text text-anchor="start" x="19" y="-198.5" font-family="SegoeUI" font-size="10.00">&#45; hadTarget</text>
<polyline fill="none" stroke="black" points="11,-191.5 136,-191.5 "/>
<text text-anchor="start" x="19" y="-179.5" font-family="SegoeUI" font-size="10.00">+ Awake()</text>
<text text-anchor="start" x="19" y="-168.5" font-family="SegoeUI" font-size="10.00">+ Update()</text>
<text text-anchor="start" x="19" y="-157.5" font-family="SegoeUI" font-size="10.00">+ Setup()</text>
<text text-anchor="start" x="19" y="-146.5" font-family="SegoeUI" font-size="10.00"># ConstrainChange()</text>
<text text-anchor="start" x="19" y="-135.5" font-family="SegoeUI" font-size="10.00"># GetChange()</text>
<text text-anchor="start" x="19" y="-124.5" font-family="SegoeUI" font-size="10.00"># ApplyChange()</text>
</a>
</g>
</g>
<!-- Node4&#45;&gt;Node3 -->
<g id="edge1" class="edge"><title>Node4&#45;&gt;Node3</title>
<path fill="none" stroke="midnightblue" d="M73.5,-107.152C73.5,-97.576 73.5,-88.1775 73.5,-79.6075"/>
<polygon fill="none" stroke="midnightblue" points="70.0001,-107.168 73.5,-117.168 77.0001,-107.168 70.0001,-107.168"/>
</g>
<!-- Node5 -->
<g id="node3" class="node"><title>Node5</title>
<g id="a_node3"><a xlink:title=" ">
<polygon fill="white" stroke="#bfbfbf" points="901.5,-1392.5 901.5,-1449.5 983.5,-1449.5 983.5,-1392.5 901.5,-1392.5"/>
<text text-anchor="middle" x="942.5" y="-1437.5" font-family="SegoeUI" font-size="10.00">MonoBehaviour</text>
<polyline fill="none" stroke="#bfbfbf" points="901.5,-1430.5 983.5,-1430.5 "/>
<text text-anchor="middle" x="942.5" y="-1418.5" font-family="SegoeUI" font-size="10.00"> </text>
<polyline fill="none" stroke="#bfbfbf" points="901.5,-1411.5 983.5,-1411.5 "/>
<text text-anchor="middle" x="942.5" y="-1399.5" font-family="SegoeUI" font-size="10.00"> </text>
</a>
</g>
</g>
<!-- Node5&#45;&gt;Node4 -->
<g id="edge2" class="edge"><title>Node5&#45;&gt;Node4</title>
<path fill="none" stroke="midnightblue" d="M891.257,-1418.99C698.447,-1414.54 27.5,-1392.74 27.5,-1305 27.5,-1305 27.5,-1305 27.5,-404 27.5,-356.143 38.732,-303.573 50.0957,-262.633"/>
<polygon fill="none" stroke="midnightblue" points="891.331,-1422.5 901.407,-1419.22 891.488,-1415.5 891.331,-1422.5"/>
</g>
<!-- Node9 -->
<g id="node7" class="node"><title>Node9</title>
<g id="a_node7"><a xlink:href="../../dc/dad/class_juniper_1_1_unity_1_1_widgets_1_1_abstract_touchable.html" target="_top" xlink:title="The base class for all interactive, AR&#45;compatible, GUI controls /// This class is abstract to avoid i...">
<polygon fill="white" stroke="black" points="710.5,-939.5 710.5,-1183.5 836.5,-1183.5 836.5,-939.5 710.5,-939.5"/>
<text text-anchor="middle" x="773.5" y="-1171.5" font-family="SegoeUI" font-size="10.00">AbstractTouchable</text>
<polyline fill="none" stroke="black" points="710.5,-1164.5 836.5,-1164.5 "/>
<text text-anchor="start" x="718.5" y="-1152.5" font-family="SegoeUI" font-size="10.00">+ disabled</text>
<text text-anchor="start" x="718.5" y="-1141.5" font-family="SegoeUI" font-size="10.00">+ DisabledChanged</text>
<text text-anchor="start" x="718.5" y="-1130.5" font-family="SegoeUI" font-size="10.00">+ DisabledDown</text>
<text text-anchor="start" x="718.5" y="-1119.5" font-family="SegoeUI" font-size="10.00">+ DisabledUp</text>
<text text-anchor="start" x="718.5" y="-1108.5" font-family="SegoeUI" font-size="10.00">+ IsDisabled</text>
<text text-anchor="start" x="718.5" y="-1097.5" font-family="SegoeUI" font-size="10.00">+ PointerPositionChanged</text>
<text text-anchor="start" x="718.5" y="-1086.5" font-family="SegoeUI" font-size="10.00">&#45; wasDisabled</text>
<polyline fill="none" stroke="black" points="710.5,-1079.5 836.5,-1079.5 "/>
<text text-anchor="start" x="718.5" y="-1067.5" font-family="SegoeUI" font-size="10.00">+ SetDisabled()</text>
<text text-anchor="start" x="718.5" y="-1056.5" font-family="SegoeUI" font-size="10.00">+ ToggleEnabled()</text>
<text text-anchor="start" x="718.5" y="-1045.5" font-family="SegoeUI" font-size="10.00">+ OnPointerEnter()</text>
<text text-anchor="start" x="718.5" y="-1034.5" font-family="SegoeUI" font-size="10.00">+ OnPointerExit()</text>
<text text-anchor="start" x="718.5" y="-1023.5" font-family="SegoeUI" font-size="10.00">+ OnPointerDown()</text>
<text text-anchor="start" x="718.5" y="-1012.5" font-family="SegoeUI" font-size="10.00">+ OnPointerUp()</text>
<text text-anchor="start" x="718.5" y="-1001.5" font-family="SegoeUI" font-size="10.00"># Awake()</text>
<text text-anchor="start" x="718.5" y="-990.5" font-family="SegoeUI" font-size="10.00"># Update()</text>
<text text-anchor="start" x="718.5" y="-979.5" font-family="SegoeUI" font-size="10.00"># LateUpdate()</text>
<text text-anchor="start" x="718.5" y="-968.5" font-family="SegoeUI" font-size="10.00"># ShowState()</text>
<text text-anchor="start" x="718.5" y="-957.5" font-family="SegoeUI" font-size="10.00"># GetPosition()</text>
<text text-anchor="start" x="718.5" y="-946.5" font-family="SegoeUI" font-size="10.00">&#45; NormalizePart()</text>
</a>
</g>
</g>
<!-- Node5&#45;&gt;Node9 -->
<g id="edge7" class="edge"><title>Node5&#45;&gt;Node9</title>
<path fill="none" stroke="midnightblue" d="M952.405,-1382.42C962.571,-1334.51 971.487,-1251.94 928.5,-1202 903.876,-1173.39 876.118,-1206.08 845.5,-1184 842.417,-1181.78 839.444,-1179.38 836.578,-1176.83"/>
<polygon fill="none" stroke="midnightblue" points="948.945,-1381.85 950.167,-1392.38 955.775,-1383.39 948.945,-1381.85"/>
</g>
<!-- Node14 -->
<g id="node12" class="node"><title>Node14</title>
<g id="a_node12"><a xlink:href="../../dd/d2d/class_juniper_1_1_unity_1_1_animation_1_1_abstract_animator.html" target="_top" xlink:title="An abstraction layer over different ways of showing UI state. Only one such component is allowed on a...">
<polygon fill="white" stroke="black" points="970.5,-1253.5 970.5,-1354.5 1090.5,-1354.5 1090.5,-1253.5 970.5,-1253.5"/>
<text text-anchor="start" x="978.5" y="-1342.5" font-family="SegoeUI" font-size="10.00">Juniper.Unity.Animation.</text>
<text text-anchor="middle" x="1030.5" y="-1331.5" font-family="SegoeUI" font-size="10.00">AbstractAnimator</text>
<polyline fill="none" stroke="black" points="970.5,-1324.5 1090.5,-1324.5 "/>
<text text-anchor="middle" x="1030.5" y="-1312.5" font-family="SegoeUI" font-size="10.00"> </text>
<polyline fill="none" stroke="black" points="970.5,-1305.5 1090.5,-1305.5 "/>
<text text-anchor="start" x="978.5" y="-1293.5" font-family="SegoeUI" font-size="10.00">+ PlayCoroutine()</text>
<text text-anchor="start" x="978.5" y="-1282.5" font-family="SegoeUI" font-size="10.00">+ Play()</text>
<text text-anchor="start" x="978.5" y="-1271.5" font-family="SegoeUI" font-size="10.00">+ HasState()</text>
<text text-anchor="start" x="978.5" y="-1260.5" font-family="SegoeUI" font-size="10.00">+ GetAnimator()</text>
</a>
</g>
</g>
<!-- Node5&#45;&gt;Node14 -->
<g id="edge13" class="edge"><title>Node5&#45;&gt;Node14</title>
<path fill="none" stroke="midnightblue" d="M969.682,-1384.48C976.86,-1375.1 984.742,-1364.8 992.383,-1354.81"/>
<polygon fill="none" stroke="midnightblue" points="966.876,-1382.39 963.578,-1392.45 972.435,-1386.64 966.876,-1382.39"/>
</g>
<!-- Node6 -->
<g id="node4" class="node"><title>Node6</title>
<g id="a_node4"><a xlink:title=" ">
<polygon fill="white" stroke="#bfbfbf" points="240.5,-1275.5 240.5,-1332.5 306.5,-1332.5 306.5,-1275.5 240.5,-1275.5"/>
<text text-anchor="middle" x="273.5" y="-1320.5" font-family="SegoeUI" font-size="10.00">UnityEngine</text>
<polyline fill="none" stroke="#bfbfbf" points="240.5,-1313.5 306.5,-1313.5 "/>
<text text-anchor="middle" x="273.5" y="-1301.5" font-family="SegoeUI" font-size="10.00"> </text>
<polyline fill="none" stroke="#bfbfbf" points="240.5,-1294.5 306.5,-1294.5 "/>
<text text-anchor="middle" x="273.5" y="-1282.5" font-family="SegoeUI" font-size="10.00"> </text>
</a>
</g>
</g>
<!-- Node6&#45;&gt;Node4 -->
<g id="edge3" class="edge"><title>Node6&#45;&gt;Node4</title>
<path fill="none" stroke="#404040" d="M240.474,-1283.86C183.668,-1248.18 73.5,-1165.68 73.5,-1062.5 73.5,-1062.5 73.5,-1062.5 73.5,-404 73.5,-361.531 73.5,-314.299 73.5,-275.125"/>
<polygon fill="none" stroke="#404040" points="73.5001,-274.973 69.5,-268.973 73.5,-262.973 77.5,-268.973 73.5001,-274.973"/>
<text text-anchor="middle" x="105" y="-717.5" font-family="SegoeUI" font-size="10.00"> #startPosition</text>
<text text-anchor="middle" x="105" y="-706.5" font-family="SegoeUI" font-size="10.00">#lastPosition</text>
</g>
<!-- Node7 -->
<g id="node5" class="node"><title>Node7</title>
<g id="a_node5"><a xlink:href="../../dc/da5/class_juniper_1_1_unity_1_1_widgets_1_1_draggable.html" target="_top" xlink:title="An object that can be picked up and put down in a new location.">
<polygon fill="white" stroke="black" points="102,-310.5 102,-499.5 257,-499.5 257,-310.5 102,-310.5"/>
<text text-anchor="middle" x="179.5" y="-487.5" font-family="SegoeUI" font-size="10.00">Juniper.Unity.Widgets.Draggable</text>
<polyline fill="none" stroke="black" points="102,-480.5 257,-480.5 "/>
<text text-anchor="start" x="110" y="-468.5" font-family="SegoeUI" font-size="10.00">+ constrainMotion</text>
<text text-anchor="start" x="110" y="-457.5" font-family="SegoeUI" font-size="10.00">+ rotateWhileDragging</text>
<text text-anchor="start" x="110" y="-446.5" font-family="SegoeUI" font-size="10.00">+ TrackStart</text>
<text text-anchor="start" x="110" y="-435.5" font-family="SegoeUI" font-size="10.00">+ TrackEnd</text>
<text text-anchor="start" x="110" y="-424.5" font-family="SegoeUI" font-size="10.00">&#45; MotionConstraintStartName</text>
<text text-anchor="start" x="110" y="-413.5" font-family="SegoeUI" font-size="10.00">&#45; MotionConstraintEndName</text>
<text text-anchor="start" x="110" y="-402.5" font-family="SegoeUI" font-size="10.00">&#45; motionConstraintStart</text>
<text text-anchor="start" x="110" y="-391.5" font-family="SegoeUI" font-size="10.00">&#45; motionConstraintEnd</text>
<polyline fill="none" stroke="black" points="102,-384.5 257,-384.5 "/>
<text text-anchor="start" x="110" y="-372.5" font-family="SegoeUI" font-size="10.00">+ OnValidate()</text>
<text text-anchor="start" x="110" y="-361.5" font-family="SegoeUI" font-size="10.00">+ OnDrag()</text>
<text text-anchor="start" x="110" y="-350.5" font-family="SegoeUI" font-size="10.00"># LateUpdate()</text>
<text text-anchor="start" x="110" y="-339.5" font-family="SegoeUI" font-size="10.00">&#45; OnDrawGizmos()</text>
<text text-anchor="start" x="110" y="-328.5" font-family="SegoeUI" font-size="10.00">&#45; ResolveConstraint()</text>
<text text-anchor="start" x="110" y="-317.5" font-family="SegoeUI" font-size="10.00">&#45; DestroyConstraint()</text>
</a>
</g>
</g>
<!-- Node6&#45;&gt;Node7 -->
<g id="edge24" class="edge"><title>Node6&#45;&gt;Node7</title>
<path fill="none" stroke="#404040" d="M244.203,-1275.35C222.815,-1253.03 195.54,-1219.58 183.5,-1184 142.475,-1062.78 159.992,-694.745 171.863,-511.7"/>
<polygon fill="none" stroke="#404040" points="171.868,-511.623 168.269,-505.374 172.654,-499.648 176.252,-505.897 171.868,-511.623"/>
<text text-anchor="middle" x="196" y="-913" font-family="SegoeUI" font-size="10.00"> &#45;lastCamPosition</text>
</g>
<!-- Node8 -->
<g id="node6" class="node"><title>Node8</title>
<g id="a_node6"><a xlink:href="../../d2/d57/class_juniper_1_1_unity_1_1_widgets_1_1_abstract_valued.html" target="_top" xlink:title="The Valued component adds a float field and range of valid values for that field to a Touchable objec...">
<polygon fill="white" stroke="black" points="473,-537.5 473,-891.5 610,-891.5 610,-537.5 473,-537.5"/>
<text text-anchor="middle" x="541.5" y="-879.5" font-family="SegoeUI" font-size="10.00">AbstractValued</text>
<polyline fill="none" stroke="black" points="473,-872.5 610,-872.5 "/>
<text text-anchor="start" x="481" y="-860.5" font-family="SegoeUI" font-size="10.00">+ Display</text>
<text text-anchor="start" x="481" y="-849.5" font-family="SegoeUI" font-size="10.00">+ SigFigs</text>
<text text-anchor="start" x="481" y="-838.5" font-family="SegoeUI" font-size="10.00">+ minValue</text>
<text text-anchor="start" x="481" y="-827.5" font-family="SegoeUI" font-size="10.00">+ maxValue</text>
<text text-anchor="start" x="481" y="-816.5" font-family="SegoeUI" font-size="10.00">+ _value</text>
<text text-anchor="start" x="481" y="-805.5" font-family="SegoeUI" font-size="10.00">+ Dragged</text>
<text text-anchor="start" x="481" y="-794.5" font-family="SegoeUI" font-size="10.00">+ value</text>
<text text-anchor="start" x="481" y="-783.5" font-family="SegoeUI" font-size="10.00">+ Delta</text>
<text text-anchor="start" x="481" y="-772.5" font-family="SegoeUI" font-size="10.00">+ DraggedChanged</text>
<text text-anchor="start" x="481" y="-761.5" font-family="SegoeUI" font-size="10.00">+ DraggedDown</text>
<text text-anchor="start" x="481" y="-750.5" font-family="SegoeUI" font-size="10.00">+ DraggedUp</text>
<text text-anchor="start" x="481" y="-739.5" font-family="SegoeUI" font-size="10.00">+ ValueChanged</text>
<text text-anchor="start" x="481" y="-728.5" font-family="SegoeUI" font-size="10.00">+ ConstraintRange</text>
<text text-anchor="start" x="481" y="-717.5" font-family="SegoeUI" font-size="10.00"># dragDistance</text>
<text text-anchor="start" x="481" y="-706.5" font-family="SegoeUI" font-size="10.00"># camT</text>
<text text-anchor="start" x="481" y="-695.5" font-family="SegoeUI" font-size="10.00"># internalValue</text>
<text text-anchor="start" x="481" y="-684.5" font-family="SegoeUI" font-size="10.00">&#45; wasDragged</text>
<text text-anchor="start" x="481" y="-673.5" font-family="SegoeUI" font-size="10.00">&#45; lastValue</text>
<text text-anchor="start" x="481" y="-662.5" font-family="SegoeUI" font-size="10.00">&#45; lastTickValue</text>
<polyline fill="none" stroke="black" points="473,-655.5 610,-655.5 "/>
<text text-anchor="start" x="481" y="-643.5" font-family="SegoeUI" font-size="10.00">+ SetValue()</text>
<text text-anchor="start" x="481" y="-632.5" font-family="SegoeUI" font-size="10.00">+ OnInitializePotentialDrag()</text>
<text text-anchor="start" x="481" y="-621.5" font-family="SegoeUI" font-size="10.00">+ OnBeginDrag()</text>
<text text-anchor="start" x="481" y="-610.5" font-family="SegoeUI" font-size="10.00">+ OnDrag()</text>
<text text-anchor="start" x="481" y="-599.5" font-family="SegoeUI" font-size="10.00">+ OnDrop()</text>
<text text-anchor="start" x="481" y="-588.5" font-family="SegoeUI" font-size="10.00">+ OnEndDrag()</text>
<text text-anchor="start" x="481" y="-577.5" font-family="SegoeUI" font-size="10.00"># Awake()</text>
<text text-anchor="start" x="481" y="-566.5" font-family="SegoeUI" font-size="10.00"># LateUpdate()</text>
<text text-anchor="start" x="481" y="-555.5" font-family="SegoeUI" font-size="10.00"># UpdateInternalValue()</text>
<text text-anchor="start" x="481" y="-544.5" font-family="SegoeUI" font-size="10.00"># ResetInternalValue()</text>
</a>
</g>
</g>
<!-- Node6&#45;&gt;Node8 -->
<g id="edge23" class="edge"><title>Node6&#45;&gt;Node8</title>
<path fill="none" stroke="#404040" d="M306.629,-1287.64C329.223,-1277.36 359.934,-1263.8 387.5,-1253 431.077,-1235.92 559.361,-1222.13 586.5,-1184 618.185,-1139.48 604.477,-1013.59 584.16,-903.514"/>
<polygon fill="none" stroke="#404040" points="584.128,-903.344 579.09,-898.184 581.915,-891.549 586.953,-896.709 584.128,-903.344"/>
<text text-anchor="middle" x="644.5" y="-1081" font-family="SegoeUI" font-size="10.00"> #interactionPoint</text>
<text text-anchor="middle" x="644.5" y="-1070" font-family="SegoeUI" font-size="10.00">#interactionOffset</text>
<text text-anchor="middle" x="644.5" y="-1059" font-family="SegoeUI" font-size="10.00">#angVel</text>
<text text-anchor="middle" x="644.5" y="-1048" font-family="SegoeUI" font-size="10.00">#grabOffset</text>
<text text-anchor="middle" x="644.5" y="-1037" font-family="SegoeUI" font-size="10.00">#velocity</text>
</g>
<!-- Node6&#45;&gt;Node9 -->
<g id="edge14" class="edge"><title>Node6&#45;&gt;Node9</title>
<path fill="none" stroke="#404040" d="M306.922,-1285.04C329.13,-1273.94 359.289,-1260.44 387.5,-1253 425.301,-1243.03 529.702,-1256.28 562.5,-1235 576.698,-1225.79 567.55,-1211.58 581.5,-1202 624.144,-1172.71 653.244,-1212.38 696.5,-1184 698.033,-1182.99 699.542,-1181.95 701.027,-1180.86"/>
<polygon fill="none" stroke="#404040" points="701.173,-1180.74 703.292,-1173.85 710.47,-1173.15 708.351,-1180.04 701.173,-1180.74"/>
<text text-anchor="middle" x="625.5" y="-1227" font-family="SegoeUI" font-size="10.00"> #lastPointerPosition</text>
<text text-anchor="middle" x="625.5" y="-1216" font-family="SegoeUI" font-size="10.00">+pointerPosition</text>
<text text-anchor="middle" x="625.5" y="-1205" font-family="SegoeUI" font-size="10.00">+clickButton</text>
</g>
<!-- Node7&#45;&gt;Node4 -->
<g id="edge4" class="edge"><title>Node7&#45;&gt;Node4</title>
<path fill="none" stroke="#404040" d="M132.853,-310.265C126.771,-298.045 120.577,-285.598 114.596,-273.579"/>
<polygon fill="none" stroke="#404040" points="114.519,-273.424 108.265,-269.835 109.172,-262.681 115.427,-266.271 114.519,-273.424"/>
<text text-anchor="middle" x="141.5" y="-284" font-family="SegoeUI" font-size="10.00"> &#45;handle</text>
</g>
<!-- Node8&#45;&gt;Node7 -->
<g id="edge5" class="edge"><title>Node8&#45;&gt;Node7</title>
<path fill="none" stroke="midnightblue" d="M465.277,-648.753C404.138,-596.818 318.67,-524.218 257.155,-471.964"/>
<polygon fill="none" stroke="midnightblue" points="463.098,-651.494 472.985,-655.3 467.629,-646.158 463.098,-651.494"/>
</g>
<!-- Node9&#45;&gt;Node8 -->
<g id="edge6" class="edge"><title>Node9&#45;&gt;Node8</title>
<path fill="none" stroke="midnightblue" d="M704.703,-951.459C701.946,-947.243 699.204,-943.078 696.5,-939 668.77,-897.188 637.358,-851.584 610.097,-812.538"/>
<polygon fill="none" stroke="midnightblue" points="701.987,-953.701 710.377,-960.171 707.852,-949.881 701.987,-953.701"/>
</g>
<!-- Node10 -->
<g id="node8" class="node"><title>Node10</title>
<g id="a_node8"><a xlink:title=" ">
<polygon fill="white" stroke="#bfbfbf" points="397,-1275.5 397,-1332.5 502,-1332.5 502,-1275.5 397,-1275.5"/>
<text text-anchor="middle" x="449.5" y="-1320.5" font-family="SegoeUI" font-size="10.00">IPointerEnterHandler</text>
<polyline fill="none" stroke="#bfbfbf" points="397,-1313.5 502,-1313.5 "/>
<text text-anchor="middle" x="449.5" y="-1301.5" font-family="SegoeUI" font-size="10.00"> </text>
<polyline fill="none" stroke="#bfbfbf" points="397,-1294.5 502,-1294.5 "/>
<text text-anchor="middle" x="449.5" y="-1282.5" font-family="SegoeUI" font-size="10.00"> </text>
</a>
</g>
</g>
<!-- Node10&#45;&gt;Node9 -->
<g id="edge8" class="edge"><title>Node10&#45;&gt;Node9</title>
<path fill="none" stroke="midnightblue" d="M484.798,-1268.96C493.012,-1262.69 502.118,-1256.91 511.5,-1253 578.374,-1225.15 612.827,-1274.58 673.5,-1235 680.06,-1230.72 694.479,-1207.91 710.38,-1180.2"/>
<polygon fill="none" stroke="midnightblue" points="482.488,-1266.32 476.903,-1275.33 486.884,-1271.77 482.488,-1266.32"/>
</g>
<!-- Node11 -->
<g id="node9" class="node"><title>Node11</title>
<g id="a_node9"><a xlink:title=" ">
<polygon fill="white" stroke="#bfbfbf" points="520.5,-1275.5 520.5,-1332.5 618.5,-1332.5 618.5,-1275.5 520.5,-1275.5"/>
<text text-anchor="middle" x="569.5" y="-1320.5" font-family="SegoeUI" font-size="10.00">IPointerExitHandler</text>
<polyline fill="none" stroke="#bfbfbf" points="520.5,-1313.5 618.5,-1313.5 "/>
<text text-anchor="middle" x="569.5" y="-1301.5" font-family="SegoeUI" font-size="10.00"> </text>
<polyline fill="none" stroke="#bfbfbf" points="520.5,-1294.5 618.5,-1294.5 "/>
<text text-anchor="middle" x="569.5" y="-1282.5" font-family="SegoeUI" font-size="10.00"> </text>
</a>
</g>
</g>
<!-- Node11&#45;&gt;Node9 -->
<g id="edge9" class="edge"><title>Node11&#45;&gt;Node9</title>
<path fill="none" stroke="midnightblue" d="M603.863,-1268.91C611.222,-1262.94 619.273,-1257.28 627.5,-1253 656.377,-1237.97 673.696,-1256.08 698.5,-1235 708.328,-1226.65 719.233,-1207.02 729.614,-1183.88"/>
<polygon fill="none" stroke="midnightblue" points="601.516,-1266.32 596.173,-1275.46 606.055,-1271.64 601.516,-1266.32"/>
</g>
<!-- Node12 -->
<g id="node10" class="node"><title>Node12</title>
<g id="a_node10"><a xlink:title=" ">
<polygon fill="white" stroke="#bfbfbf" points="637,-1275.5 637,-1332.5 744,-1332.5 744,-1275.5 637,-1275.5"/>
<text text-anchor="middle" x="690.5" y="-1320.5" font-family="SegoeUI" font-size="10.00">IPointerDownHandler</text>
<polyline fill="none" stroke="#bfbfbf" points="637,-1313.5 744,-1313.5 "/>
<text text-anchor="middle" x="690.5" y="-1301.5" font-family="SegoeUI" font-size="10.00"> </text>
<polyline fill="none" stroke="#bfbfbf" points="637,-1294.5 744,-1294.5 "/>
<text text-anchor="middle" x="690.5" y="-1282.5" font-family="SegoeUI" font-size="10.00"> </text>
</a>
</g>
</g>
<!-- Node12&#45;&gt;Node9 -->
<g id="edge10" class="edge"><title>Node12&#45;&gt;Node9</title>
<path fill="none" stroke="midnightblue" d="M709.797,-1266.13C714.619,-1256.18 719.54,-1245.3 723.5,-1235 729.821,-1218.56 735.787,-1200.97 741.247,-1183.54"/>
<polygon fill="none" stroke="midnightblue" points="706.534,-1264.84 705.238,-1275.35 712.809,-1267.94 706.534,-1264.84"/>
</g>
<!-- Node13 -->
<g id="node11" class="node"><title>Node13</title>
<g id="a_node11"><a xlink:title=" ">
<polygon fill="white" stroke="#bfbfbf" points="762.5,-1275.5 762.5,-1332.5 856.5,-1332.5 856.5,-1275.5 762.5,-1275.5"/>
<text text-anchor="middle" x="809.5" y="-1320.5" font-family="SegoeUI" font-size="10.00">IPointerUpHandler</text>
<polyline fill="none" stroke="#bfbfbf" points="762.5,-1313.5 856.5,-1313.5 "/>
<text text-anchor="middle" x="809.5" y="-1301.5" font-family="SegoeUI" font-size="10.00"> </text>
<polyline fill="none" stroke="#bfbfbf" points="762.5,-1294.5 856.5,-1294.5 "/>
<text text-anchor="middle" x="809.5" y="-1282.5" font-family="SegoeUI" font-size="10.00"> </text>
</a>
</g>
</g>
<!-- Node13&#45;&gt;Node9 -->
<g id="edge11" class="edge"><title>Node13&#45;&gt;Node9</title>
<path fill="none" stroke="midnightblue" d="M803.87,-1265.39C800.528,-1243.06 796.084,-1213.38 791.63,-1183.62"/>
<polygon fill="none" stroke="midnightblue" points="800.428,-1266.04 805.37,-1275.41 807.351,-1265 800.428,-1266.04"/>
</g>
<!-- Node14&#45;&gt;Node9 -->
<g id="edge12" class="edge"><title>Node14&#45;&gt;Node9</title>
<path fill="none" stroke="#404040" d="M1005.14,-1253.32C992.968,-1234.34 976.612,-1214.32 956.5,-1202 916.879,-1177.73 890.682,-1207.36 846.945,-1183.63"/>
<polygon fill="none" stroke="#404040" points="846.907,-1183.61 839.7,-1183.85 836.707,-1177.29 843.915,-1177.05 846.907,-1183.61"/>
<text text-anchor="middle" x="1014.5" y="-1216" font-family="SegoeUI" font-size="10.00"> &#45;animator</text>
</g>
<!-- Node15 -->
<g id="node13" class="node"><title>Node15</title>
<g id="a_node13"><a xlink:title=" ">
<polygon fill="white" stroke="#bfbfbf" points="875,-1275.5 875,-1332.5 914,-1332.5 914,-1275.5 875,-1275.5"/>
<text text-anchor="middle" x="894.5" y="-1320.5" font-family="SegoeUI" font-size="10.00">static</text>
<polyline fill="none" stroke="#bfbfbf" points="875,-1313.5 914,-1313.5 "/>
<text text-anchor="middle" x="894.5" y="-1301.5" font-family="SegoeUI" font-size="10.00"> </text>
<polyline fill="none" stroke="#bfbfbf" points="875,-1294.5 914,-1294.5 "/>
<text text-anchor="middle" x="894.5" y="-1282.5" font-family="SegoeUI" font-size="10.00"> </text>
</a>
</g>
</g>
<!-- Node15&#45;&gt;Node9 -->
<g id="edge15" class="edge"><title>Node15&#45;&gt;Node9</title>
<path fill="none" stroke="#404040" d="M880.115,-1275.25C873.76,-1262.94 866.22,-1248.27 859.5,-1235 852.877,-1221.93 846.004,-1208.28 839.159,-1194.63"/>
<polygon fill="none" stroke="#404040" points="839.058,-1194.43 832.793,-1190.86 833.681,-1183.7 839.946,-1187.28 839.058,-1194.43"/>
<text text-anchor="middle" x="894" y="-1216" font-family="SegoeUI" font-size="10.00"> +PART_NAMES</text>
</g>
<!-- Node16 -->
<g id="node14" class="node"><title>Node16</title>
<g id="a_node14"><a xlink:title=" ">
<polygon fill="white" stroke="#bfbfbf" points="990.5,-1027.5 990.5,-1095.5 1102.5,-1095.5 1102.5,-1027.5 990.5,-1027.5"/>
<text text-anchor="start" x="998.5" y="-1083.5" font-family="SegoeUI" font-size="10.00">IInitializePotentialDrag</text>
<text text-anchor="middle" x="1046.5" y="-1072.5" font-family="SegoeUI" font-size="10.00">Handler</text>
<polyline fill="none" stroke="#bfbfbf" points="990.5,-1065.5 1102.5,-1065.5 "/>
<text text-anchor="middle" x="1046.5" y="-1053.5" font-family="SegoeUI" font-size="10.00"> </text>
<polyline fill="none" stroke="#bfbfbf" points="990.5,-1046.5 1102.5,-1046.5 "/>
<text text-anchor="middle" x="1046.5" y="-1034.5" font-family="SegoeUI" font-size="10.00"> </text>
</a>
</g>
</g>
<!-- Node16&#45;&gt;Node8 -->
<g id="edge16" class="edge"><title>Node16&#45;&gt;Node8</title>
<path fill="none" stroke="midnightblue" d="M1031.33,-1017.96C1020.56,-992.549 1004.01,-961.037 981.5,-939 873.133,-832.911 704.279,-766.681 610.383,-735.907"/>
<polygon fill="none" stroke="midnightblue" points="1028.15,-1019.43 1035.17,-1027.37 1034.63,-1016.79 1028.15,-1019.43"/>
</g>
<!-- Node17 -->
<g id="node15" class="node"><title>Node17</title>
<g id="a_node15"><a xlink:title=" ">
<polygon fill="white" stroke="#bfbfbf" points="192.5,-1033 192.5,-1090 288.5,-1090 288.5,-1033 192.5,-1033"/>
<text text-anchor="middle" x="240.5" y="-1078" font-family="SegoeUI" font-size="10.00">IBeginDragHandler</text>
<polyline fill="none" stroke="#bfbfbf" points="192.5,-1071 288.5,-1071 "/>
<text text-anchor="middle" x="240.5" y="-1059" font-family="SegoeUI" font-size="10.00"> </text>
<polyline fill="none" stroke="#bfbfbf" points="192.5,-1052 288.5,-1052 "/>
<text text-anchor="middle" x="240.5" y="-1040" font-family="SegoeUI" font-size="10.00"> </text>
</a>
</g>
</g>
<!-- Node17&#45;&gt;Node8 -->
<g id="edge17" class="edge"><title>Node17&#45;&gt;Node8</title>
<path fill="none" stroke="midnightblue" d="M253.588,-1023.21C263.441,-998.053 278.494,-964.853 297.5,-939 347.264,-871.309 419.803,-808.016 472.854,-766.189"/>
<polygon fill="none" stroke="midnightblue" points="250.236,-1022.18 249.942,-1032.77 256.776,-1024.68 250.236,-1022.18"/>
</g>
<!-- Node18 -->
<g id="node16" class="node"><title>Node18</title>
<g id="a_node16"><a xlink:title=" ">
<polygon fill="white" stroke="#bfbfbf" points="307,-1033 307,-1090 380,-1090 380,-1033 307,-1033"/>
<text text-anchor="middle" x="343.5" y="-1078" font-family="SegoeUI" font-size="10.00">IDragHandler</text>
<polyline fill="none" stroke="#bfbfbf" points="307,-1071 380,-1071 "/>
<text text-anchor="middle" x="343.5" y="-1059" font-family="SegoeUI" font-size="10.00"> </text>
<polyline fill="none" stroke="#bfbfbf" points="307,-1052 380,-1052 "/>
<text text-anchor="middle" x="343.5" y="-1040" font-family="SegoeUI" font-size="10.00"> </text>
</a>
</g>
</g>
<!-- Node18&#45;&gt;Node8 -->
<g id="edge18" class="edge"><title>Node18&#45;&gt;Node8</title>
<path fill="none" stroke="midnightblue" d="M354.741,-1023C362.732,-998.452 374.508,-966.041 388.5,-939 412.487,-892.643 444.437,-844.467 472.936,-804.765"/>
<polygon fill="none" stroke="midnightblue" points="351.363,-1022.07 351.657,-1032.66 358.032,-1024.2 351.363,-1022.07"/>
</g>
<!-- Node19 -->
<g id="node17" class="node"><title>Node19</title>
<g id="a_node17"><a xlink:title=" ">
<polygon fill="white" stroke="#bfbfbf" points="398,-1033 398,-1090 487,-1090 487,-1033 398,-1033"/>
<text text-anchor="middle" x="442.5" y="-1078" font-family="SegoeUI" font-size="10.00">IEndDragHandler</text>
<polyline fill="none" stroke="#bfbfbf" points="398,-1071 487,-1071 "/>
<text text-anchor="middle" x="442.5" y="-1059" font-family="SegoeUI" font-size="10.00"> </text>
<polyline fill="none" stroke="#bfbfbf" points="398,-1052 487,-1052 "/>
<text text-anchor="middle" x="442.5" y="-1040" font-family="SegoeUI" font-size="10.00"> </text>
</a>
</g>
</g>
<!-- Node19&#45;&gt;Node8 -->
<g id="edge19" class="edge"><title>Node19&#45;&gt;Node8</title>
<path fill="none" stroke="midnightblue" d="M453.271,-1022.97C462.549,-990.633 476.658,-941.466 490.889,-891.872"/>
<polygon fill="none" stroke="midnightblue" points="449.828,-1022.27 450.434,-1032.85 456.557,-1024.2 449.828,-1022.27"/>
</g>
<!-- Node20 -->
<g id="node18" class="node"><title>Node20</title>
<g id="a_node18"><a xlink:title=" ">
<polygon fill="white" stroke="#bfbfbf" points="505,-1033 505,-1090 578,-1090 578,-1033 505,-1033"/>
<text text-anchor="middle" x="541.5" y="-1078" font-family="SegoeUI" font-size="10.00">IDropHandler</text>
<polyline fill="none" stroke="#bfbfbf" points="505,-1071 578,-1071 "/>
<text text-anchor="middle" x="541.5" y="-1059" font-family="SegoeUI" font-size="10.00"> </text>
<polyline fill="none" stroke="#bfbfbf" points="505,-1052 578,-1052 "/>
<text text-anchor="middle" x="541.5" y="-1040" font-family="SegoeUI" font-size="10.00"> </text>
</a>
</g>
</g>
<!-- Node20&#45;&gt;Node8 -->
<g id="edge20" class="edge"><title>Node20&#45;&gt;Node8</title>
<path fill="none" stroke="midnightblue" d="M541.5,-1022.54C541.5,-990.208 541.5,-941.251 541.5,-891.872"/>
<polygon fill="none" stroke="midnightblue" points="538,-1022.85 541.5,-1032.85 545,-1022.85 538,-1022.85"/>
</g>
<!-- Node21 -->
<g id="node19" class="node"><title>Node21</title>
<g id="a_node19"><a xlink:href="../../dd/d6e/interface_juniper_1_1_unity_1_1_widgets_1_1_i_valued_control.html" target="_top" xlink:title=" ">
<polygon fill="white" stroke="black" points="854.5,-1033 854.5,-1090 972.5,-1090 972.5,-1033 854.5,-1033"/>
<text text-anchor="middle" x="913.5" y="-1078" font-family="SegoeUI" font-size="10.00">IValuedControl&lt; float &gt;</text>
<polyline fill="none" stroke="black" points="854.5,-1071 972.5,-1071 "/>
<text text-anchor="start" x="862.5" y="-1059" font-family="SegoeUI" font-size="10.00">+ value</text>
<polyline fill="none" stroke="black" points="854.5,-1052 972.5,-1052 "/>
<text text-anchor="middle" x="913.5" y="-1040" font-family="SegoeUI" font-size="10.00"> </text>
</a>
</g>
</g>
<!-- Node21&#45;&gt;Node8 -->
<g id="edge21" class="edge"><title>Node21&#45;&gt;Node8</title>
<path fill="none" stroke="midnightblue" d="M897.866,-1023.46C885.936,-997.942 867.779,-964.221 845.5,-939 776.762,-861.184 676.607,-794.051 610.288,-754.202"/>
<polygon fill="none" stroke="midnightblue" points="894.794,-1025.16 902.129,-1032.8 901.163,-1022.25 894.794,-1025.16"/>
</g>
<!-- Node22 -->
<g id="node20" class="node"><title>Node22</title>
<g id="a_node20"><a xlink:href="../../dd/d6e/interface_juniper_1_1_unity_1_1_widgets_1_1_i_valued_control.html" target="_top" xlink:title=" ">
<polygon fill="white" stroke="black" points="1108.5,-1270 1108.5,-1338 1252.5,-1338 1252.5,-1270 1108.5,-1270"/>
<text text-anchor="start" x="1116.5" y="-1326" font-family="SegoeUI" font-size="10.00">Juniper.Unity.Widgets.IValued</text>
<text text-anchor="middle" x="1180.5" y="-1315" font-family="SegoeUI" font-size="10.00">Control&lt; T &gt;</text>
<polyline fill="none" stroke="black" points="1108.5,-1308 1252.5,-1308 "/>
<text text-anchor="start" x="1116.5" y="-1296" font-family="SegoeUI" font-size="10.00">+ value</text>
<polyline fill="none" stroke="black" points="1108.5,-1289 1252.5,-1289 "/>
<text text-anchor="middle" x="1180.5" y="-1277" font-family="SegoeUI" font-size="10.00"> </text>
</a>
</g>
</g>
<!-- Node22&#45;&gt;Node21 -->
<g id="edge22" class="edge"><title>Node22&#45;&gt;Node21</title>
<path fill="none" stroke="orange" d="M1134.56,-1263.53C1108.62,-1242.87 1074.81,-1218.5 1041.5,-1202 1016.55,-1189.64 1003.22,-1201.42 981.5,-1184 951.141,-1159.65 932.072,-1117.87 922.101,-1090.22"/>
<polygon fill="orange" stroke="orange" points="1132.37,-1266.26 1142.35,-1269.81 1136.76,-1260.81 1132.37,-1266.26"/>
<text text-anchor="middle" x="1114.5" y="-1216" font-family="SegoeUI" font-size="10.00"> &lt; float &gt;</text>
</g>
</g>
</svg>
