<?xml version="1.0" encoding="UTF-8" standalone="no"?>
<!DOCTYPE svg PUBLIC "-//W3C//DTD SVG 1.1//EN"
 "http://www.w3.org/Graphics/SVG/1.1/DTD/svg11.dtd">
<!-- Generated by graphviz version 2.38.0 (20140413.2041)
 -->
<!-- Title: Juniper.Unity.Widgets.RotationHandle Pages: 1 -->
<!--zoomable 1447 -->
<svg id="main" version="1.1" xmlns="http://www.w3.org/2000/svg" xmlns:xlink="http://www.w3.org/1999/xlink" xml:space="preserve" onload="init(evt)">
<style type="text/css"><![CDATA[
.edge:hover path { stroke: red; }
.edge:hover polygon { stroke: red; fill: red; }
]]></style>
<script type="text/javascript"><![CDATA[
var edges = document.getElementsByTagName('g');
if (edges && edges.length) {
  for (var i=0;i<edges.length;i++) {
    if (edges[i].id.substr(0,4)=='edge') {
      edges[i].setAttribute('class','edge');
    }
  }
}
]]></script>
        <defs>
                <circle id="rim" cx="0" cy="0" r="7"/>
                <circle id="rim2" cx="0" cy="0" r="3.5"/>
                <g id="zoomPlus">
                        <use xlink:href="#rim" fill="#404040">
                                <set attributeName="fill" to="#808080" begin="zoomplus.mouseover" end="zoomplus.mouseout"/>
                        </use>
                        <path d="M-4,0h8M0,-4v8" fill="none" stroke="white" stroke-width="1.5" pointer-events="none"/>
                </g>
                <g id="zoomMin">
                        <use xlink:href="#rim" fill="#404040">
                                <set attributeName="fill" to="#808080" begin="zoomminus.mouseover" end="zoomminus.mouseout"/>
                        </use>
                        <path d="M-4,0h8" fill="none" stroke="white" stroke-width="1.5" pointer-events="none"/>
                </g>
                <g id="dirArrow">
                        <path fill="none" stroke="white" stroke-width="1.5" d="M0,-3.0v7 M-2.5,-0.5L0,-3.0L2.5,-0.5"/>
                </g>
               <g id="resetDef">
                       <use xlink:href="#rim2" fill="#404040">
                               <set attributeName="fill" to="#808080" begin="reset.mouseover" end="reset.mouseout"/>
                       </use>
               </g>
        </defs>

<script type="text/javascript">
var viewWidth = 1261;
var viewHeight = 1447;
var sectionId = 'dynsection-1';
</script>
<script xlink:href="../../svgpan.js"/>
<svg id="graph" class="graph">
<g id="viewport">
<title>Juniper.Unity.Widgets.RotationHandle</title>
<polygon fill="white" stroke="none" points="-4,4 -4,-1443 1256.5,-1443 1256.5,4 -4,4"/>
<!-- Node3 -->
<g id="node1" class="node"><title>Node3</title>
<g id="a_node1"><a xlink:title="A draggable object that can be used to update the rotation of another object.">
<polygon fill="#bfbfbf" stroke="black" points="0,-0.5 0,-79.5 147,-79.5 147,-0.5 0,-0.5"/>
<text text-anchor="start" x="8" y="-67.5" font-family="SegoeUI" font-size="10.00">Juniper.Unity.Widgets.Rotation</text>
<text text-anchor="middle" x="73.5" y="-56.5" font-family="SegoeUI" font-size="10.00">Handle</text>
<polyline fill="none" stroke="black" points="0,-49.5 147,-49.5 "/>
<text text-anchor="middle" x="73.5" y="-37.5" font-family="SegoeUI" font-size="10.00"> </text>
<polyline fill="none" stroke="black" points="0,-30.5 147,-30.5 "/>
<text text-anchor="start" x="8" y="-18.5" font-family="SegoeUI" font-size="10.00"># GetChange()</text>
<text text-anchor="start" x="8" y="-7.5" font-family="SegoeUI" font-size="10.00"># ApplyChange()</text>
</a>
</g>
</g>
<!-- Node4 -->
<g id="node2" class="node"><title>Node4</title>
<g id="a_node2"><a xlink:href="../../d6/d6a/class_juniper_1_1_unity_1_1_widgets_1_1_abstract_constraint_handle.html" target="_top" xlink:title="An abstract class that manages reading the movement of a control handle and constraining that movemen...">
<polygon fill="white" stroke="black" points="11,-117.5 11,-262.5 136,-262.5 136,-117.5 11,-117.5"/>
<text text-anchor="middle" x="73.5" y="-250.5" font-family="SegoeUI" font-size="10.00">AbstractConstraintHandle</text>
<polyline fill="none" stroke="black" points="11,-243.5 136,-243.5 "/>
<text text-anchor="start" x="19" y="-231.5" font-family="SegoeUI" font-size="10.00">+ target</text>
<text text-anchor="start" x="19" y="-220.5" font-family="SegoeUI" font-size="10.00">+ axis</text>
<text text-anchor="start" x="19" y="-209.5" font-family="SegoeUI" font-size="10.00">+ speed</text>
<text text-anchor="start" x="19" y="-198.5" font-family="SegoeUI" font-size="10.00">&#45; hadTarget</text>
<polyline fill="none" stroke="black" points="11,-191.5 136,-191.5 "/>
<text text-anchor="start" x="19" y="-179.5" font-family="SegoeUI" font-size="10.00">+ Awake()</text>
<text text-anchor="start" x="19" y="-168.5" font-family="SegoeUI" font-size="10.00">+ Update()</text>
<text text-anchor="start" x="19" y="-157.5" font-family="SegoeUI" font-size="10.00">+ Setup()</text>
<text text-anchor="start" x="19" y="-146.5" font-family="SegoeUI" font-size="10.00"># ConstrainChange()</text>
<text text-anchor="start" x="19" y="-135.5" font-family="SegoeUI" font-size="10.00"># GetChange()</text>
<text text-anchor="start" x="19" y="-124.5" font-family="SegoeUI" font-size="10.00"># ApplyChange()</text>
</a>
</g>
</g>
<!-- Node4&#45;&gt;Node3 -->
<g id="edge1" class="edge"><title>Node4&#45;&gt;Node3</title>
<path fill="none" stroke="midnightblue" d="M73.5,-107.152C73.5,-97.576 73.5,-88.1775 73.5,-79.6075"/>
<polygon fill="none" stroke="midnightblue" points="70.0001,-107.168 73.5,-117.168 77.0001,-107.168 70.0001,-107.168"/>
</g>
<!-- Node5 -->
<g id="node3" class="node"><title>Node5</title>
<g id="a_node3"><a xlink:title=" ">
<polygon fill="white" stroke="#bfbfbf" points="901.5,-1381.5 901.5,-1438.5 983.5,-1438.5 983.5,-1381.5 901.5,-1381.5"/>
<text text-anchor="middle" x="942.5" y="-1426.5" font-family="SegoeUI" font-size="10.00">MonoBehaviour</text>
<polyline fill="none" stroke="#bfbfbf" points="901.5,-1419.5 983.5,-1419.5 "/>
<text text-anchor="middle" x="942.5" y="-1407.5" font-family="SegoeUI" font-size="10.00"> </text>
<polyline fill="none" stroke="#bfbfbf" points="901.5,-1400.5 983.5,-1400.5 "/>
<text text-anchor="middle" x="942.5" y="-1388.5" font-family="SegoeUI" font-size="10.00"> </text>
</a>
</g>
</g>
<!-- Node5&#45;&gt;Node4 -->
<g id="edge2" class="edge"><title>Node5&#45;&gt;Node4</title>
<path fill="none" stroke="midnightblue" d="M891.257,-1407.99C698.447,-1403.54 27.5,-1381.74 27.5,-1294 27.5,-1294 27.5,-1294 27.5,-398.5 27.5,-352.561 38.3797,-302.228 49.5569,-262.64"/>
<polygon fill="none" stroke="midnightblue" points="891.331,-1411.5 901.407,-1408.22 891.488,-1404.5 891.331,-1411.5"/>
</g>
<!-- Node9 -->
<g id="node7" class="node"><title>Node9</title>
<g id="a_node7"><a xlink:href="../../dc/dad/class_juniper_1_1_unity_1_1_widgets_1_1_abstract_touchable.html" target="_top" xlink:title="The base class for all interactive, AR&#45;compatible, GUI controls /// This class is abstract to avoid i...">
<polygon fill="white" stroke="black" points="710.5,-928.5 710.5,-1172.5 836.5,-1172.5 836.5,-928.5 710.5,-928.5"/>
<text text-anchor="middle" x="773.5" y="-1160.5" font-family="SegoeUI" font-size="10.00">AbstractTouchable</text>
<polyline fill="none" stroke="black" points="710.5,-1153.5 836.5,-1153.5 "/>
<text text-anchor="start" x="718.5" y="-1141.5" font-family="SegoeUI" font-size="10.00">+ disabled</text>
<text text-anchor="start" x="718.5" y="-1130.5" font-family="SegoeUI" font-size="10.00">+ DisabledChanged</text>
<text text-anchor="start" x="718.5" y="-1119.5" font-family="SegoeUI" font-size="10.00">+ DisabledDown</text>
<text text-anchor="start" x="718.5" y="-1108.5" font-family="SegoeUI" font-size="10.00">+ DisabledUp</text>
<text text-anchor="start" x="718.5" y="-1097.5" font-family="SegoeUI" font-size="10.00">+ IsDisabled</text>
<text text-anchor="start" x="718.5" y="-1086.5" font-family="SegoeUI" font-size="10.00">+ PointerPositionChanged</text>
<text text-anchor="start" x="718.5" y="-1075.5" font-family="SegoeUI" font-size="10.00">&#45; wasDisabled</text>
<polyline fill="none" stroke="black" points="710.5,-1068.5 836.5,-1068.5 "/>
<text text-anchor="start" x="718.5" y="-1056.5" font-family="SegoeUI" font-size="10.00">+ SetDisabled()</text>
<text text-anchor="start" x="718.5" y="-1045.5" font-family="SegoeUI" font-size="10.00">+ ToggleEnabled()</text>
<text text-anchor="start" x="718.5" y="-1034.5" font-family="SegoeUI" font-size="10.00">+ OnPointerEnter()</text>
<text text-anchor="start" x="718.5" y="-1023.5" font-family="SegoeUI" font-size="10.00">+ OnPointerExit()</text>
<text text-anchor="start" x="718.5" y="-1012.5" font-family="SegoeUI" font-size="10.00">+ OnPointerDown()</text>
<text text-anchor="start" x="718.5" y="-1001.5" font-family="SegoeUI" font-size="10.00">+ OnPointerUp()</text>
<text text-anchor="start" x="718.5" y="-990.5" font-family="SegoeUI" font-size="10.00"># Awake()</text>
<text text-anchor="start" x="718.5" y="-979.5" font-family="SegoeUI" font-size="10.00"># Update()</text>
<text text-anchor="start" x="718.5" y="-968.5" font-family="SegoeUI" font-size="10.00"># LateUpdate()</text>
<text text-anchor="start" x="718.5" y="-957.5" font-family="SegoeUI" font-size="10.00"># ShowState()</text>
<text text-anchor="start" x="718.5" y="-946.5" font-family="SegoeUI" font-size="10.00"># GetPosition()</text>
<text text-anchor="start" x="718.5" y="-935.5" font-family="SegoeUI" font-size="10.00">&#45; NormalizePart()</text>
</a>
</g>
</g>
<!-- Node5&#45;&gt;Node9 -->
<g id="edge7" class="edge"><title>Node5&#45;&gt;Node9</title>
<path fill="none" stroke="midnightblue" d="M952.405,-1371.42C962.571,-1323.51 971.487,-1240.94 928.5,-1191 903.876,-1162.39 876.118,-1195.08 845.5,-1173 842.417,-1170.78 839.444,-1168.38 836.578,-1165.83"/>
<polygon fill="none" stroke="midnightblue" points="948.945,-1370.85 950.167,-1381.38 955.775,-1372.39 948.945,-1370.85"/>
</g>
<!-- Node14 -->
<g id="node12" class="node"><title>Node14</title>
<g id="a_node12"><a xlink:href="../../dd/d2d/class_juniper_1_1_unity_1_1_animation_1_1_abstract_animator.html" target="_top" xlink:title="An abstraction layer over different ways of showing UI state. Only one such component is allowed on a...">
<polygon fill="white" stroke="black" points="970.5,-1242.5 970.5,-1343.5 1090.5,-1343.5 1090.5,-1242.5 970.5,-1242.5"/>
<text text-anchor="start" x="978.5" y="-1331.5" font-family="SegoeUI" font-size="10.00">Juniper.Unity.Animation.</text>
<text text-anchor="middle" x="1030.5" y="-1320.5" font-family="SegoeUI" font-size="10.00">AbstractAnimator</text>
<polyline fill="none" stroke="black" points="970.5,-1313.5 1090.5,-1313.5 "/>
<text text-anchor="middle" x="1030.5" y="-1301.5" font-family="SegoeUI" font-size="10.00"> </text>
<polyline fill="none" stroke="black" points="970.5,-1294.5 1090.5,-1294.5 "/>
<text text-anchor="start" x="978.5" y="-1282.5" font-family="SegoeUI" font-size="10.00">+ PlayCoroutine()</text>
<text text-anchor="start" x="978.5" y="-1271.5" font-family="SegoeUI" font-size="10.00">+ Play()</text>
<text text-anchor="start" x="978.5" y="-1260.5" font-family="SegoeUI" font-size="10.00">+ HasState()</text>
<text text-anchor="start" x="978.5" y="-1249.5" font-family="SegoeUI" font-size="10.00">+ GetAnimator()</text>
</a>
</g>
</g>
<!-- Node5&#45;&gt;Node14 -->
<g id="edge13" class="edge"><title>Node5&#45;&gt;Node14</title>
<path fill="none" stroke="midnightblue" d="M969.682,-1373.48C976.86,-1364.1 984.742,-1353.8 992.383,-1343.81"/>
<polygon fill="none" stroke="midnightblue" points="966.876,-1371.39 963.578,-1381.45 972.435,-1375.64 966.876,-1371.39"/>
</g>
<!-- Node6 -->
<g id="node4" class="node"><title>Node6</title>
<g id="a_node4"><a xlink:title=" ">
<polygon fill="white" stroke="#bfbfbf" points="240.5,-1264.5 240.5,-1321.5 306.5,-1321.5 306.5,-1264.5 240.5,-1264.5"/>
<text text-anchor="middle" x="273.5" y="-1309.5" font-family="SegoeUI" font-size="10.00">UnityEngine</text>
<polyline fill="none" stroke="#bfbfbf" points="240.5,-1302.5 306.5,-1302.5 "/>
<text text-anchor="middle" x="273.5" y="-1290.5" font-family="SegoeUI" font-size="10.00"> </text>
<polyline fill="none" stroke="#bfbfbf" points="240.5,-1283.5 306.5,-1283.5 "/>
<text text-anchor="middle" x="273.5" y="-1271.5" font-family="SegoeUI" font-size="10.00"> </text>
</a>
</g>
</g>
<!-- Node6&#45;&gt;Node4 -->
<g id="edge3" class="edge"><title>Node6&#45;&gt;Node4</title>
<path fill="none" stroke="#404040" d="M240.474,-1272.86C183.668,-1237.18 73.5,-1154.68 73.5,-1051.5 73.5,-1051.5 73.5,-1051.5 73.5,-398.5 73.5,-357.705 73.5,-312.398 73.5,-274.553"/>
<polygon fill="none" stroke="#404040" points="73.5001,-274.544 69.5,-268.544 73.5,-262.544 77.5,-268.544 73.5001,-274.544"/>
<text text-anchor="middle" x="105" y="-706.5" font-family="SegoeUI" font-size="10.00"> #startPosition</text>
<text text-anchor="middle" x="105" y="-695.5" font-family="SegoeUI" font-size="10.00">#lastPosition</text>
</g>
<!-- Node7 -->
<g id="node5" class="node"><title>Node7</title>
<g id="a_node5"><a xlink:href="../../dc/da5/class_juniper_1_1_unity_1_1_widgets_1_1_draggable.html" target="_top" xlink:title="An object that can be picked up and put down in a new location.">
<polygon fill="white" stroke="black" points="102,-310.5 102,-488.5 257,-488.5 257,-310.5 102,-310.5"/>
<text text-anchor="middle" x="179.5" y="-476.5" font-family="SegoeUI" font-size="10.00">Juniper.Unity.Widgets.Draggable</text>
<polyline fill="none" stroke="black" points="102,-469.5 257,-469.5 "/>
<text text-anchor="start" x="110" y="-457.5" font-family="SegoeUI" font-size="10.00">+ constrainMotion</text>
<text text-anchor="start" x="110" y="-446.5" font-family="SegoeUI" font-size="10.00">+ rotateWhileDragging</text>
<text text-anchor="start" x="110" y="-435.5" font-family="SegoeUI" font-size="10.00">+ TrackStart</text>
<text text-anchor="start" x="110" y="-424.5" font-family="SegoeUI" font-size="10.00">+ TrackEnd</text>
<text text-anchor="start" x="110" y="-413.5" font-family="SegoeUI" font-size="10.00">&#45; MotionConstraintStartName</text>
<text text-anchor="start" x="110" y="-402.5" font-family="SegoeUI" font-size="10.00">&#45; MotionConstraintEndName</text>
<text text-anchor="start" x="110" y="-391.5" font-family="SegoeUI" font-size="10.00">&#45; motionConstraintStart</text>
<text text-anchor="start" x="110" y="-380.5" font-family="SegoeUI" font-size="10.00">&#45; motionConstraintEnd</text>
<polyline fill="none" stroke="black" points="102,-373.5 257,-373.5 "/>
<text text-anchor="start" x="110" y="-361.5" font-family="SegoeUI" font-size="10.00">+ OnValidate()</text>
<text text-anchor="start" x="110" y="-350.5" font-family="SegoeUI" font-size="10.00">+ OnDrag()</text>
<text text-anchor="start" x="110" y="-339.5" font-family="SegoeUI" font-size="10.00"># LateUpdate()</text>
<text text-anchor="start" x="110" y="-328.5" font-family="SegoeUI" font-size="10.00">&#45; ResolveConstraint()</text>
<text text-anchor="start" x="110" y="-317.5" font-family="SegoeUI" font-size="10.00">&#45; DestroyConstraint()</text>
</a>
</g>
</g>
<!-- Node6&#45;&gt;Node7 -->
<g id="edge24" class="edge"><title>Node6&#45;&gt;Node7</title>
<path fill="none" stroke="#404040" d="M244.203,-1264.35C222.815,-1242.03 195.541,-1208.58 183.5,-1173 142.415,-1051.61 160.442,-680.953 172.221,-500.843"/>
<polygon fill="none" stroke="#404040" points="172.23,-500.709 168.635,-494.458 173.023,-488.735 176.618,-494.986 172.23,-500.709"/>
<text text-anchor="middle" x="196" y="-902" font-family="SegoeUI" font-size="10.00"> &#45;lastCamPosition</text>
</g>
<!-- Node8 -->
<g id="node6" class="node"><title>Node8</title>
<g id="a_node6"><a xlink:href="../../d2/d57/class_juniper_1_1_unity_1_1_widgets_1_1_abstract_valued.html" target="_top" xlink:title="The Valued component adds a float field and range of valid values for that field to a Touchable objec...">
<polygon fill="white" stroke="black" points="473,-526.5 473,-880.5 610,-880.5 610,-526.5 473,-526.5"/>
<text text-anchor="middle" x="541.5" y="-868.5" font-family="SegoeUI" font-size="10.00">AbstractValued</text>
<polyline fill="none" stroke="black" points="473,-861.5 610,-861.5 "/>
<text text-anchor="start" x="481" y="-849.5" font-family="SegoeUI" font-size="10.00">+ Display</text>
<text text-anchor="start" x="481" y="-838.5" font-family="SegoeUI" font-size="10.00">+ SigFigs</text>
<text text-anchor="start" x="481" y="-827.5" font-family="SegoeUI" font-size="10.00">+ minValue</text>
<text text-anchor="start" x="481" y="-816.5" font-family="SegoeUI" font-size="10.00">+ maxValue</text>
<text text-anchor="start" x="481" y="-805.5" font-family="SegoeUI" font-size="10.00">+ _value</text>
<text text-anchor="start" x="481" y="-794.5" font-family="SegoeUI" font-size="10.00">+ Dragged</text>
<text text-anchor="start" x="481" y="-783.5" font-family="SegoeUI" font-size="10.00">+ value</text>
<text text-anchor="start" x="481" y="-772.5" font-family="SegoeUI" font-size="10.00">+ Delta</text>
<text text-anchor="start" x="481" y="-761.5" font-family="SegoeUI" font-size="10.00">+ DraggedChanged</text>
<text text-anchor="start" x="481" y="-750.5" font-family="SegoeUI" font-size="10.00">+ DraggedDown</text>
<text text-anchor="start" x="481" y="-739.5" font-family="SegoeUI" font-size="10.00">+ DraggedUp</text>
<text text-anchor="start" x="481" y="-728.5" font-family="SegoeUI" font-size="10.00">+ ValueChanged</text>
<text text-anchor="start" x="481" y="-717.5" font-family="SegoeUI" font-size="10.00">+ ConstraintRange</text>
<text text-anchor="start" x="481" y="-706.5" font-family="SegoeUI" font-size="10.00"># dragDistance</text>
<text text-anchor="start" x="481" y="-695.5" font-family="SegoeUI" font-size="10.00"># camT</text>
<text text-anchor="start" x="481" y="-684.5" font-family="SegoeUI" font-size="10.00"># internalValue</text>
<text text-anchor="start" x="481" y="-673.5" font-family="SegoeUI" font-size="10.00">&#45; wasDragged</text>
<text text-anchor="start" x="481" y="-662.5" font-family="SegoeUI" font-size="10.00">&#45; lastValue</text>
<text text-anchor="start" x="481" y="-651.5" font-family="SegoeUI" font-size="10.00">&#45; lastTickValue</text>
<polyline fill="none" stroke="black" points="473,-644.5 610,-644.5 "/>
<text text-anchor="start" x="481" y="-632.5" font-family="SegoeUI" font-size="10.00">+ SetValue()</text>
<text text-anchor="start" x="481" y="-621.5" font-family="SegoeUI" font-size="10.00">+ OnInitializePotentialDrag()</text>
<text text-anchor="start" x="481" y="-610.5" font-family="SegoeUI" font-size="10.00">+ OnBeginDrag()</text>
<text text-anchor="start" x="481" y="-599.5" font-family="SegoeUI" font-size="10.00">+ OnDrag()</text>
<text text-anchor="start" x="481" y="-588.5" font-family="SegoeUI" font-size="10.00">+ OnDrop()</text>
<text text-anchor="start" x="481" y="-577.5" font-family="SegoeUI" font-size="10.00">+ OnEndDrag()</text>
<text text-anchor="start" x="481" y="-566.5" font-family="SegoeUI" font-size="10.00"># Awake()</text>
<text text-anchor="start" x="481" y="-555.5" font-family="SegoeUI" font-size="10.00"># LateUpdate()</text>
<text text-anchor="start" x="481" y="-544.5" font-family="SegoeUI" font-size="10.00"># UpdateInternalValue()</text>
<text text-anchor="start" x="481" y="-533.5" font-family="SegoeUI" font-size="10.00"># ResetInternalValue()</text>
</a>
</g>
</g>
<!-- Node6&#45;&gt;Node8 -->
<g id="edge23" class="edge"><title>Node6&#45;&gt;Node8</title>
<path fill="none" stroke="#404040" d="M306.629,-1276.64C329.223,-1266.36 359.934,-1252.8 387.5,-1242 431.077,-1224.92 559.361,-1211.13 586.5,-1173 618.185,-1128.48 604.477,-1002.59 584.16,-892.514"/>
<polygon fill="none" stroke="#404040" points="584.128,-892.344 579.09,-887.184 581.915,-880.549 586.953,-885.709 584.128,-892.344"/>
<text text-anchor="middle" x="644.5" y="-1070" font-family="SegoeUI" font-size="10.00"> #interactionPoint</text>
<text text-anchor="middle" x="644.5" y="-1059" font-family="SegoeUI" font-size="10.00">#interactionOffset</text>
<text text-anchor="middle" x="644.5" y="-1048" font-family="SegoeUI" font-size="10.00">#angVel</text>
<text text-anchor="middle" x="644.5" y="-1037" font-family="SegoeUI" font-size="10.00">#grabOffset</text>
<text text-anchor="middle" x="644.5" y="-1026" font-family="SegoeUI" font-size="10.00">#velocity</text>
</g>
<!-- Node6&#45;&gt;Node9 -->
<g id="edge14" class="edge"><title>Node6&#45;&gt;Node9</title>
<path fill="none" stroke="#404040" d="M306.922,-1274.04C329.13,-1262.94 359.289,-1249.44 387.5,-1242 425.301,-1232.03 529.702,-1245.28 562.5,-1224 576.698,-1214.79 567.55,-1200.58 581.5,-1191 624.144,-1161.71 653.244,-1201.38 696.5,-1173 698.033,-1171.99 699.542,-1170.95 701.027,-1169.86"/>
<polygon fill="none" stroke="#404040" points="701.173,-1169.74 703.292,-1162.85 710.47,-1162.15 708.351,-1169.04 701.173,-1169.74"/>
<text text-anchor="middle" x="625.5" y="-1216" font-family="SegoeUI" font-size="10.00"> #lastPointerPosition</text>
<text text-anchor="middle" x="625.5" y="-1205" font-family="SegoeUI" font-size="10.00">+pointerPosition</text>
<text text-anchor="middle" x="625.5" y="-1194" font-family="SegoeUI" font-size="10.00">+clickButton</text>
</g>
<!-- Node7&#45;&gt;Node4 -->
<g id="edge4" class="edge"><title>Node7&#45;&gt;Node4</title>
<path fill="none" stroke="#404040" d="M134.393,-310.2C128.18,-298.039 121.82,-285.588 115.663,-273.537"/>
<polygon fill="none" stroke="#404040" points="115.536,-273.287 109.244,-269.763 110.077,-262.6 116.368,-266.124 115.536,-273.287"/>
<text text-anchor="middle" x="141.5" y="-284" font-family="SegoeUI" font-size="10.00"> &#45;handle</text>
</g>
<!-- Node8&#45;&gt;Node7 -->
<g id="edge5" class="edge"><title>Node8&#45;&gt;Node7</title>
<path fill="none" stroke="midnightblue" d="M465.277,-638.911C404.138,-587.905 318.67,-516.603 257.155,-465.284"/>
<polygon fill="none" stroke="midnightblue" points="463.064,-641.623 472.985,-645.341 467.548,-636.247 463.064,-641.623"/>
</g>
<!-- Node9&#45;&gt;Node8 -->
<g id="edge6" class="edge"><title>Node9&#45;&gt;Node8</title>
<path fill="none" stroke="midnightblue" d="M704.703,-940.459C701.946,-936.243 699.204,-932.078 696.5,-928 668.77,-886.188 637.358,-840.584 610.097,-801.538"/>
<polygon fill="none" stroke="midnightblue" points="701.987,-942.701 710.377,-949.171 707.852,-938.881 701.987,-942.701"/>
</g>
<!-- Node10 -->
<g id="node8" class="node"><title>Node10</title>
<g id="a_node8"><a xlink:title=" ">
<polygon fill="white" stroke="#bfbfbf" points="397,-1264.5 397,-1321.5 502,-1321.5 502,-1264.5 397,-1264.5"/>
<text text-anchor="middle" x="449.5" y="-1309.5" font-family="SegoeUI" font-size="10.00">IPointerEnterHandler</text>
<polyline fill="none" stroke="#bfbfbf" points="397,-1302.5 502,-1302.5 "/>
<text text-anchor="middle" x="449.5" y="-1290.5" font-family="SegoeUI" font-size="10.00"> </text>
<polyline fill="none" stroke="#bfbfbf" points="397,-1283.5 502,-1283.5 "/>
<text text-anchor="middle" x="449.5" y="-1271.5" font-family="SegoeUI" font-size="10.00"> </text>
</a>
</g>
</g>
<!-- Node10&#45;&gt;Node9 -->
<g id="edge8" class="edge"><title>Node10&#45;&gt;Node9</title>
<path fill="none" stroke="midnightblue" d="M484.798,-1257.96C493.012,-1251.69 502.118,-1245.91 511.5,-1242 578.374,-1214.15 612.827,-1263.58 673.5,-1224 680.06,-1219.72 694.479,-1196.91 710.38,-1169.2"/>
<polygon fill="none" stroke="midnightblue" points="482.488,-1255.32 476.903,-1264.33 486.884,-1260.77 482.488,-1255.32"/>
</g>
<!-- Node11 -->
<g id="node9" class="node"><title>Node11</title>
<g id="a_node9"><a xlink:title=" ">
<polygon fill="white" stroke="#bfbfbf" points="520.5,-1264.5 520.5,-1321.5 618.5,-1321.5 618.5,-1264.5 520.5,-1264.5"/>
<text text-anchor="middle" x="569.5" y="-1309.5" font-family="SegoeUI" font-size="10.00">IPointerExitHandler</text>
<polyline fill="none" stroke="#bfbfbf" points="520.5,-1302.5 618.5,-1302.5 "/>
<text text-anchor="middle" x="569.5" y="-1290.5" font-family="SegoeUI" font-size="10.00"> </text>
<polyline fill="none" stroke="#bfbfbf" points="520.5,-1283.5 618.5,-1283.5 "/>
<text text-anchor="middle" x="569.5" y="-1271.5" font-family="SegoeUI" font-size="10.00"> </text>
</a>
</g>
</g>
<!-- Node11&#45;&gt;Node9 -->
<g id="edge9" class="edge"><title>Node11&#45;&gt;Node9</title>
<path fill="none" stroke="midnightblue" d="M603.863,-1257.91C611.222,-1251.94 619.273,-1246.28 627.5,-1242 656.377,-1226.97 673.696,-1245.08 698.5,-1224 708.328,-1215.65 719.233,-1196.02 729.614,-1172.88"/>
<polygon fill="none" stroke="midnightblue" points="601.516,-1255.32 596.173,-1264.46 606.055,-1260.64 601.516,-1255.32"/>
</g>
<!-- Node12 -->
<g id="node10" class="node"><title>Node12</title>
<g id="a_node10"><a xlink:title=" ">
<polygon fill="white" stroke="#bfbfbf" points="637,-1264.5 637,-1321.5 744,-1321.5 744,-1264.5 637,-1264.5"/>
<text text-anchor="middle" x="690.5" y="-1309.5" font-family="SegoeUI" font-size="10.00">IPointerDownHandler</text>
<polyline fill="none" stroke="#bfbfbf" points="637,-1302.5 744,-1302.5 "/>
<text text-anchor="middle" x="690.5" y="-1290.5" font-family="SegoeUI" font-size="10.00"> </text>
<polyline fill="none" stroke="#bfbfbf" points="637,-1283.5 744,-1283.5 "/>
<text text-anchor="middle" x="690.5" y="-1271.5" font-family="SegoeUI" font-size="10.00"> </text>
</a>
</g>
</g>
<!-- Node12&#45;&gt;Node9 -->
<g id="edge10" class="edge"><title>Node12&#45;&gt;Node9</title>
<path fill="none" stroke="midnightblue" d="M709.797,-1255.13C714.619,-1245.18 719.54,-1234.3 723.5,-1224 729.821,-1207.56 735.787,-1189.97 741.247,-1172.54"/>
<polygon fill="none" stroke="midnightblue" points="706.534,-1253.84 705.238,-1264.35 712.809,-1256.94 706.534,-1253.84"/>
</g>
<!-- Node13 -->
<g id="node11" class="node"><title>Node13</title>
<g id="a_node11"><a xlink:title=" ">
<polygon fill="white" stroke="#bfbfbf" points="762.5,-1264.5 762.5,-1321.5 856.5,-1321.5 856.5,-1264.5 762.5,-1264.5"/>
<text text-anchor="middle" x="809.5" y="-1309.5" font-family="SegoeUI" font-size="10.00">IPointerUpHandler</text>
<polyline fill="none" stroke="#bfbfbf" points="762.5,-1302.5 856.5,-1302.5 "/>
<text text-anchor="middle" x="809.5" y="-1290.5" font-family="SegoeUI" font-size="10.00"> </text>
<polyline fill="none" stroke="#bfbfbf" points="762.5,-1283.5 856.5,-1283.5 "/>
<text text-anchor="middle" x="809.5" y="-1271.5" font-family="SegoeUI" font-size="10.00"> </text>
</a>
</g>
</g>
<!-- Node13&#45;&gt;Node9 -->
<g id="edge11" class="edge"><title>Node13&#45;&gt;Node9</title>
<path fill="none" stroke="midnightblue" d="M803.87,-1254.39C800.528,-1232.06 796.084,-1202.38 791.63,-1172.62"/>
<polygon fill="none" stroke="midnightblue" points="800.428,-1255.04 805.37,-1264.41 807.351,-1254 800.428,-1255.04"/>
</g>
<!-- Node14&#45;&gt;Node9 -->
<g id="edge12" class="edge"><title>Node14&#45;&gt;Node9</title>
<path fill="none" stroke="#404040" d="M1005.14,-1242.32C992.968,-1223.34 976.612,-1203.32 956.5,-1191 916.879,-1166.73 890.682,-1196.36 846.945,-1172.63"/>
<polygon fill="none" stroke="#404040" points="846.907,-1172.61 839.7,-1172.85 836.707,-1166.29 843.915,-1166.05 846.907,-1172.61"/>
<text text-anchor="middle" x="1014.5" y="-1205" font-family="SegoeUI" font-size="10.00"> &#45;animator</text>
</g>
<!-- Node15 -->
<g id="node13" class="node"><title>Node15</title>
<g id="a_node13"><a xlink:title=" ">
<polygon fill="white" stroke="#bfbfbf" points="875,-1264.5 875,-1321.5 914,-1321.5 914,-1264.5 875,-1264.5"/>
<text text-anchor="middle" x="894.5" y="-1309.5" font-family="SegoeUI" font-size="10.00">static</text>
<polyline fill="none" stroke="#bfbfbf" points="875,-1302.5 914,-1302.5 "/>
<text text-anchor="middle" x="894.5" y="-1290.5" font-family="SegoeUI" font-size="10.00"> </text>
<polyline fill="none" stroke="#bfbfbf" points="875,-1283.5 914,-1283.5 "/>
<text text-anchor="middle" x="894.5" y="-1271.5" font-family="SegoeUI" font-size="10.00"> </text>
</a>
</g>
</g>
<!-- Node15&#45;&gt;Node9 -->
<g id="edge15" class="edge"><title>Node15&#45;&gt;Node9</title>
<path fill="none" stroke="#404040" d="M880.115,-1264.25C873.76,-1251.94 866.22,-1237.27 859.5,-1224 852.877,-1210.93 846.004,-1197.28 839.159,-1183.63"/>
<polygon fill="none" stroke="#404040" points="839.058,-1183.43 832.793,-1179.86 833.681,-1172.7 839.946,-1176.28 839.058,-1183.43"/>
<text text-anchor="middle" x="894" y="-1205" font-family="SegoeUI" font-size="10.00"> +PART_NAMES</text>
</g>
<!-- Node16 -->
<g id="node14" class="node"><title>Node16</title>
<g id="a_node14"><a xlink:title=" ">
<polygon fill="white" stroke="#bfbfbf" points="990.5,-1016.5 990.5,-1084.5 1102.5,-1084.5 1102.5,-1016.5 990.5,-1016.5"/>
<text text-anchor="start" x="998.5" y="-1072.5" font-family="SegoeUI" font-size="10.00">IInitializePotentialDrag</text>
<text text-anchor="middle" x="1046.5" y="-1061.5" font-family="SegoeUI" font-size="10.00">Handler</text>
<polyline fill="none" stroke="#bfbfbf" points="990.5,-1054.5 1102.5,-1054.5 "/>
<text text-anchor="middle" x="1046.5" y="-1042.5" font-family="SegoeUI" font-size="10.00"> </text>
<polyline fill="none" stroke="#bfbfbf" points="990.5,-1035.5 1102.5,-1035.5 "/>
<text text-anchor="middle" x="1046.5" y="-1023.5" font-family="SegoeUI" font-size="10.00"> </text>
</a>
</g>
</g>
<!-- Node16&#45;&gt;Node8 -->
<g id="edge16" class="edge"><title>Node16&#45;&gt;Node8</title>
<path fill="none" stroke="midnightblue" d="M1031.33,-1006.96C1020.56,-981.549 1004.01,-950.037 981.5,-928 873.133,-821.911 704.279,-755.681 610.383,-724.907"/>
<polygon fill="none" stroke="midnightblue" points="1028.15,-1008.43 1035.17,-1016.37 1034.63,-1005.79 1028.15,-1008.43"/>
</g>
<!-- Node17 -->
<g id="node15" class="node"><title>Node17</title>
<g id="a_node15"><a xlink:title=" ">
<polygon fill="white" stroke="#bfbfbf" points="192.5,-1022 192.5,-1079 288.5,-1079 288.5,-1022 192.5,-1022"/>
<text text-anchor="middle" x="240.5" y="-1067" font-family="SegoeUI" font-size="10.00">IBeginDragHandler</text>
<polyline fill="none" stroke="#bfbfbf" points="192.5,-1060 288.5,-1060 "/>
<text text-anchor="middle" x="240.5" y="-1048" font-family="SegoeUI" font-size="10.00"> </text>
<polyline fill="none" stroke="#bfbfbf" points="192.5,-1041 288.5,-1041 "/>
<text text-anchor="middle" x="240.5" y="-1029" font-family="SegoeUI" font-size="10.00"> </text>
</a>
</g>
</g>
<!-- Node17&#45;&gt;Node8 -->
<g id="edge17" class="edge"><title>Node17&#45;&gt;Node8</title>
<path fill="none" stroke="midnightblue" d="M253.588,-1012.21C263.441,-987.053 278.494,-953.853 297.5,-928 347.264,-860.309 419.803,-797.016 472.854,-755.189"/>
<polygon fill="none" stroke="midnightblue" points="250.236,-1011.18 249.942,-1021.77 256.776,-1013.68 250.236,-1011.18"/>
</g>
<!-- Node18 -->
<g id="node16" class="node"><title>Node18</title>
<g id="a_node16"><a xlink:title=" ">
<polygon fill="white" stroke="#bfbfbf" points="307,-1022 307,-1079 380,-1079 380,-1022 307,-1022"/>
<text text-anchor="middle" x="343.5" y="-1067" font-family="SegoeUI" font-size="10.00">IDragHandler</text>
<polyline fill="none" stroke="#bfbfbf" points="307,-1060 380,-1060 "/>
<text text-anchor="middle" x="343.5" y="-1048" font-family="SegoeUI" font-size="10.00"> </text>
<polyline fill="none" stroke="#bfbfbf" points="307,-1041 380,-1041 "/>
<text text-anchor="middle" x="343.5" y="-1029" font-family="SegoeUI" font-size="10.00"> </text>
</a>
</g>
</g>
<!-- Node18&#45;&gt;Node8 -->
<g id="edge18" class="edge"><title>Node18&#45;&gt;Node8</title>
<path fill="none" stroke="midnightblue" d="M354.741,-1012C362.732,-987.452 374.508,-955.041 388.5,-928 412.487,-881.643 444.437,-833.467 472.936,-793.765"/>
<polygon fill="none" stroke="midnightblue" points="351.363,-1011.07 351.657,-1021.66 358.032,-1013.2 351.363,-1011.07"/>
</g>
<!-- Node19 -->
<g id="node17" class="node"><title>Node19</title>
<g id="a_node17"><a xlink:title=" ">
<polygon fill="white" stroke="#bfbfbf" points="398,-1022 398,-1079 487,-1079 487,-1022 398,-1022"/>
<text text-anchor="middle" x="442.5" y="-1067" font-family="SegoeUI" font-size="10.00">IEndDragHandler</text>
<polyline fill="none" stroke="#bfbfbf" points="398,-1060 487,-1060 "/>
<text text-anchor="middle" x="442.5" y="-1048" font-family="SegoeUI" font-size="10.00"> </text>
<polyline fill="none" stroke="#bfbfbf" points="398,-1041 487,-1041 "/>
<text text-anchor="middle" x="442.5" y="-1029" font-family="SegoeUI" font-size="10.00"> </text>
</a>
</g>
</g>
<!-- Node19&#45;&gt;Node8 -->
<g id="edge19" class="edge"><title>Node19&#45;&gt;Node8</title>
<path fill="none" stroke="midnightblue" d="M453.271,-1011.97C462.549,-979.633 476.658,-930.466 490.889,-880.872"/>
<polygon fill="none" stroke="midnightblue" points="449.828,-1011.27 450.434,-1021.85 456.557,-1013.2 449.828,-1011.27"/>
</g>
<!-- Node20 -->
<g id="node18" class="node"><title>Node20</title>
<g id="a_node18"><a xlink:title=" ">
<polygon fill="white" stroke="#bfbfbf" points="505,-1022 505,-1079 578,-1079 578,-1022 505,-1022"/>
<text text-anchor="middle" x="541.5" y="-1067" font-family="SegoeUI" font-size="10.00">IDropHandler</text>
<polyline fill="none" stroke="#bfbfbf" points="505,-1060 578,-1060 "/>
<text text-anchor="middle" x="541.5" y="-1048" font-family="SegoeUI" font-size="10.00"> </text>
<polyline fill="none" stroke="#bfbfbf" points="505,-1041 578,-1041 "/>
<text text-anchor="middle" x="541.5" y="-1029" font-family="SegoeUI" font-size="10.00"> </text>
</a>
</g>
</g>
<!-- Node20&#45;&gt;Node8 -->
<g id="edge20" class="edge"><title>Node20&#45;&gt;Node8</title>
<path fill="none" stroke="midnightblue" d="M541.5,-1011.54C541.5,-979.208 541.5,-930.251 541.5,-880.872"/>
<polygon fill="none" stroke="midnightblue" points="538,-1011.85 541.5,-1021.85 545,-1011.85 538,-1011.85"/>
</g>
<!-- Node21 -->
<g id="node19" class="node"><title>Node21</title>
<g id="a_node19"><a xlink:href="../../dd/d6e/interface_juniper_1_1_unity_1_1_widgets_1_1_i_valued_control.html" target="_top" xlink:title=" ">
<polygon fill="white" stroke="black" points="854.5,-1022 854.5,-1079 972.5,-1079 972.5,-1022 854.5,-1022"/>
<text text-anchor="middle" x="913.5" y="-1067" font-family="SegoeUI" font-size="10.00">IValuedControl&lt; float &gt;</text>
<polyline fill="none" stroke="black" points="854.5,-1060 972.5,-1060 "/>
<text text-anchor="start" x="862.5" y="-1048" font-family="SegoeUI" font-size="10.00">+ value</text>
<polyline fill="none" stroke="black" points="854.5,-1041 972.5,-1041 "/>
<text text-anchor="middle" x="913.5" y="-1029" font-family="SegoeUI" font-size="10.00"> </text>
</a>
</g>
</g>
<!-- Node21&#45;&gt;Node8 -->
<g id="edge21" class="edge"><title>Node21&#45;&gt;Node8</title>
<path fill="none" stroke="midnightblue" d="M897.866,-1012.46C885.936,-986.942 867.779,-953.221 845.5,-928 776.762,-850.184 676.607,-783.051 610.288,-743.202"/>
<polygon fill="none" stroke="midnightblue" points="894.794,-1014.16 902.129,-1021.8 901.163,-1011.25 894.794,-1014.16"/>
</g>
<!-- Node22 -->
<g id="node20" class="node"><title>Node22</title>
<g id="a_node20"><a xlink:href="../../dd/d6e/interface_juniper_1_1_unity_1_1_widgets_1_1_i_valued_control.html" target="_top" xlink:title=" ">
<polygon fill="white" stroke="black" points="1108.5,-1259 1108.5,-1327 1252.5,-1327 1252.5,-1259 1108.5,-1259"/>
<text text-anchor="start" x="1116.5" y="-1315" font-family="SegoeUI" font-size="10.00">Juniper.Unity.Widgets.IValued</text>
<text text-anchor="middle" x="1180.5" y="-1304" font-family="SegoeUI" font-size="10.00">Control&lt; T &gt;</text>
<polyline fill="none" stroke="black" points="1108.5,-1297 1252.5,-1297 "/>
<text text-anchor="start" x="1116.5" y="-1285" font-family="SegoeUI" font-size="10.00">+ value</text>
<polyline fill="none" stroke="black" points="1108.5,-1278 1252.5,-1278 "/>
<text text-anchor="middle" x="1180.5" y="-1266" font-family="SegoeUI" font-size="10.00"> </text>
</a>
</g>
</g>
<!-- Node22&#45;&gt;Node21 -->
<g id="edge22" class="edge"><title>Node22&#45;&gt;Node21</title>
<path fill="none" stroke="orange" d="M1134.56,-1252.53C1108.62,-1231.87 1074.81,-1207.5 1041.5,-1191 1016.55,-1178.64 1003.22,-1190.42 981.5,-1173 951.141,-1148.65 932.072,-1106.87 922.101,-1079.22"/>
<polygon fill="orange" stroke="orange" points="1132.37,-1255.26 1142.35,-1258.81 1136.76,-1249.81 1132.37,-1255.26"/>
<text text-anchor="middle" x="1114.5" y="-1205" font-family="SegoeUI" font-size="10.00"> &lt; float &gt;</text>
</g>
</g>
</svg>
        <g id="navigator" transform="translate(0 0)" fill="#404254">
                <rect fill="#f2f5e9" fill-opacity="0.5" stroke="#606060" stroke-width=".5" x="0" y="0" width="60" height="60"/>
                <use id="zoomplus" xlink:href="#zoomPlus" x="17" y="9" onmousedown="handleZoom(evt,'in')"/>
                <use id="zoomminus" xlink:href="#zoomMin" x="42" y="9" onmousedown="handleZoom(evt,'out')"/>
                <use id="reset" xlink:href="#resetDef" x="30" y="36" onmousedown="handleReset()"/>
                <g id="arrowUp" xlink:href="#dirArrow" transform="translate(30 24)" onmousedown="handlePan(0,-1)">
                  <use xlink:href="#rim" fill="#404040">
                        <set attributeName="fill" to="#808080" begin="arrowUp.mouseover" end="arrowUp.mouseout"/>
                  </use>
                  <path fill="none" stroke="white" stroke-width="1.5" d="M0,-3.0v7 M-2.5,-0.5L0,-3.0L2.5,-0.5"/>
                </g>
                <g id="arrowRight" xlink:href="#dirArrow" transform="rotate(90) translate(36 -43)" onmousedown="handlePan(1,0)">
                  <use xlink:href="#rim" fill="#404040">
                        <set attributeName="fill" to="#808080" begin="arrowRight.mouseover" end="arrowRight.mouseout"/>
                  </use>
                  <path fill="none" stroke="white" stroke-width="1.5" d="M0,-3.0v7 M-2.5,-0.5L0,-3.0L2.5,-0.5"/>
                </g>
                <g id="arrowDown" xlink:href="#dirArrow" transform="rotate(180) translate(-30 -48)" onmousedown="handlePan(0,1)">
                  <use xlink:href="#rim" fill="#404040">
                        <set attributeName="fill" to="#808080" begin="arrowDown.mouseover" end="arrowDown.mouseout"/>
                  </use>
                  <path fill="none" stroke="white" stroke-width="1.5" d="M0,-3.0v7 M-2.5,-0.5L0,-3.0L2.5,-0.5"/>
                </g>
                <g id="arrowLeft" xlink:href="#dirArrow" transform="rotate(270) translate(-36 17)" onmousedown="handlePan(-1,0)">
                  <use xlink:href="#rim" fill="#404040">
                        <set attributeName="fill" to="#808080" begin="arrowLeft.mouseover" end="arrowLeft.mouseout"/>
                  </use>
                  <path fill="none" stroke="white" stroke-width="1.5" d="M0,-3.0v7 M-2.5,-0.5L0,-3.0L2.5,-0.5"/>
                </g>
        </g>
        <svg viewBox="0 0 15 15" width="100%" height="30px" preserveAspectRatio="xMaxYMin meet">
         <g id="arrow_out" transform="scale(0.3 0.3)">
          <a xlink:href="class_juniper_1_1_unity_1_1_widgets_1_1_rotation_handle__coll__graph_org.svg" target="_base">
           <rect id="button" ry="5" rx="5" y="6" x="6" height="38" width="38"
                fill="#f2f5e9" fill-opacity="0.5" stroke="#606060" stroke-width="1.0"/>
           <path id="arrow"
             d="M 11.500037,31.436501 C 11.940474,20.09759 22.043105,11.32322 32.158766,21.979434 L 37.068811,17.246167 C 37.068811,17.246167 37.088388,32 37.088388,32 L 22.160133,31.978069 C 22.160133,31.978069 26.997745,27.140456 26.997745,27.140456 C 18.528582,18.264221 13.291696,25.230495 11.500037,31.436501 z"
             style="fill:#404040;"/>
          </a>
         </g>
        </svg>
</svg>
