<?xml version="1.0" encoding="UTF-8" standalone="no"?>
<!DOCTYPE svg PUBLIC "-//W3C//DTD SVG 1.1//EN"
 "http://www.w3.org/Graphics/SVG/1.1/DTD/svg11.dtd">
<!-- Generated by graphviz version 2.38.0 (20140413.2041)
 -->
<!-- Title: Hjg.Pngcs.Chunks.PngChunkSingle Pages: 1 -->
<svg width="2660pt" height="771pt"
 viewBox="0.00 0.00 2659.50 771.00" xmlns="http://www.w3.org/2000/svg" xmlns:xlink="http://www.w3.org/1999/xlink">
<g id="graph0" class="graph" transform="scale(1 1) rotate(0) translate(4 767)">
<title>Hjg.Pngcs.Chunks.PngChunkSingle</title>
<polygon fill="white" stroke="none" points="-4,4 -4,-767 2655.5,-767 2655.5,4 -4,4"/>
<!-- Node0 -->
<g id="node1" class="node"><title>Node0</title>
<g id="a_node1"><a xlink:title="A Chunk type that does not allow duplicate in an image">
<polygon fill="#bfbfbf" stroke="black" points="1257.5,-281.5 1257.5,-382.5 1394.5,-382.5 1394.5,-281.5 1257.5,-281.5"/>
<text text-anchor="start" x="1265.5" y="-370.5" font-family="SegoeUI" font-size="10.00">Hjg.Pngcs.Chunks.PngChunk</text>
<text text-anchor="middle" x="1326" y="-359.5" font-family="SegoeUI" font-size="10.00">Single</text>
<polyline fill="none" stroke="black" points="1257.5,-352.5 1394.5,-352.5 "/>
<text text-anchor="middle" x="1326" y="-340.5" font-family="SegoeUI" font-size="10.00"> </text>
<polyline fill="none" stroke="black" points="1257.5,-333.5 1394.5,-333.5 "/>
<text text-anchor="start" x="1265.5" y="-321.5" font-family="SegoeUI" font-size="10.00">+ AllowsMultiple()</text>
<text text-anchor="start" x="1265.5" y="-310.5" font-family="SegoeUI" font-size="10.00">+ GetHashCode()</text>
<text text-anchor="start" x="1265.5" y="-299.5" font-family="SegoeUI" font-size="10.00">+ Equals()</text>
<text text-anchor="start" x="1265.5" y="-288.5" font-family="SegoeUI" font-size="10.00"># PngChunkSingle()</text>
</a>
</g>
</g>
<!-- Node2 -->
<g id="node3" class="node"><title>Node2</title>
<g id="a_node3"><a xlink:href="../../d6/df9/class_hjg_1_1_pngcs_1_1_chunks_1_1_png_chunk_b_k_g_d.html" target="_top" xlink:title="bKGD chunk, see http://www.w3.org/TR/PNG/#11bKGD">
<polygon fill="white" stroke="black" points="0,-6 0,-239 160,-239 160,-6 0,-6"/>
<text text-anchor="middle" x="80" y="-227" font-family="SegoeUI" font-size="10.00">Hjg.Pngcs.Chunks.PngChunkBKGD</text>
<polyline fill="none" stroke="black" points="0,-220 160,-220 "/>
<text text-anchor="start" x="8" y="-208" font-family="SegoeUI" font-size="10.00">+ ID</text>
<text text-anchor="start" x="8" y="-197" font-family="SegoeUI" font-size="10.00">&#45; gray</text>
<text text-anchor="start" x="8" y="-186" font-family="SegoeUI" font-size="10.00">&#45; red</text>
<text text-anchor="start" x="8" y="-175" font-family="SegoeUI" font-size="10.00">&#45; green</text>
<text text-anchor="start" x="8" y="-164" font-family="SegoeUI" font-size="10.00">&#45; blue</text>
<text text-anchor="start" x="8" y="-153" font-family="SegoeUI" font-size="10.00">&#45; paletteIndex</text>
<polyline fill="none" stroke="black" points="0,-146 160,-146 "/>
<text text-anchor="start" x="8" y="-134" font-family="SegoeUI" font-size="10.00">+ PngChunkBKGD()</text>
<text text-anchor="start" x="8" y="-123" font-family="SegoeUI" font-size="10.00">+ GetOrderingConstraint()</text>
<text text-anchor="start" x="8" y="-112" font-family="SegoeUI" font-size="10.00">+ CreateRawChunk()</text>
<text text-anchor="start" x="8" y="-101" font-family="SegoeUI" font-size="10.00">+ ParseFromRaw()</text>
<text text-anchor="start" x="8" y="-90" font-family="SegoeUI" font-size="10.00">+ CloneDataFromRead()</text>
<text text-anchor="start" x="8" y="-79" font-family="SegoeUI" font-size="10.00">+ SetGray()</text>
<text text-anchor="start" x="8" y="-68" font-family="SegoeUI" font-size="10.00">+ GetGray()</text>
<text text-anchor="start" x="8" y="-57" font-family="SegoeUI" font-size="10.00">+ SetPaletteIndex()</text>
<text text-anchor="start" x="8" y="-46" font-family="SegoeUI" font-size="10.00">+ GetPaletteIndex()</text>
<text text-anchor="start" x="8" y="-35" font-family="SegoeUI" font-size="10.00">+ SetRGB()</text>
<text text-anchor="start" x="8" y="-24" font-family="SegoeUI" font-size="10.00">+ GetRGB()</text>
<text text-anchor="start" x="8" y="-13" font-family="SegoeUI" font-size="10.00">&#45; CloneData()</text>
</a>
</g>
</g>
<!-- Node0&#45;&gt;Node2 -->
<g id="edge2" class="edge"><title>Node0&#45;&gt;Node2</title>
<path fill="none" stroke="midnightblue" d="M1247.2,-328.946C1001.92,-322.027 262.825,-297.038 169,-245 165.799,-243.225 162.681,-241.28 159.649,-239.19"/>
<polygon fill="none" stroke="midnightblue" points="1247.37,-332.451 1257.46,-329.232 1247.56,-325.454 1247.37,-332.451"/>
</g>
<!-- Node3 -->
<g id="node4" class="node"><title>Node3</title>
<g id="a_node4"><a xlink:href="../../d5/d39/class_hjg_1_1_pngcs_1_1_chunks_1_1_png_chunk_c_h_r_m.html" target="_top" xlink:title="cHRM chunk, see http://www.w3.org/TR/PNG/#11cHRM">
<polygon fill="white" stroke="black" points="178.5,-11.5 178.5,-233.5 341.5,-233.5 341.5,-11.5 178.5,-11.5"/>
<text text-anchor="middle" x="260" y="-221.5" font-family="SegoeUI" font-size="10.00">Hjg.Pngcs.Chunks.PngChunkCHRM</text>
<polyline fill="none" stroke="black" points="178.5,-214.5 341.5,-214.5 "/>
<text text-anchor="start" x="186.5" y="-202.5" font-family="SegoeUI" font-size="10.00">+ ID</text>
<text text-anchor="start" x="186.5" y="-191.5" font-family="SegoeUI" font-size="10.00">&#45; whitex</text>
<text text-anchor="start" x="186.5" y="-180.5" font-family="SegoeUI" font-size="10.00">&#45; whitey</text>
<text text-anchor="start" x="186.5" y="-169.5" font-family="SegoeUI" font-size="10.00">&#45; redx</text>
<text text-anchor="start" x="186.5" y="-158.5" font-family="SegoeUI" font-size="10.00">&#45; redy</text>
<text text-anchor="start" x="186.5" y="-147.5" font-family="SegoeUI" font-size="10.00">&#45; greenx</text>
<text text-anchor="start" x="186.5" y="-136.5" font-family="SegoeUI" font-size="10.00">&#45; greeny</text>
<text text-anchor="start" x="186.5" y="-125.5" font-family="SegoeUI" font-size="10.00">&#45; bluex</text>
<text text-anchor="start" x="186.5" y="-114.5" font-family="SegoeUI" font-size="10.00">&#45; bluey</text>
<polyline fill="none" stroke="black" points="178.5,-107.5 341.5,-107.5 "/>
<text text-anchor="start" x="186.5" y="-95.5" font-family="SegoeUI" font-size="10.00">+ PngChunkCHRM()</text>
<text text-anchor="start" x="186.5" y="-84.5" font-family="SegoeUI" font-size="10.00">+ GetOrderingConstraint()</text>
<text text-anchor="start" x="186.5" y="-73.5" font-family="SegoeUI" font-size="10.00">+ CreateRawChunk()</text>
<text text-anchor="start" x="186.5" y="-62.5" font-family="SegoeUI" font-size="10.00">+ ParseFromRaw()</text>
<text text-anchor="start" x="186.5" y="-51.5" font-family="SegoeUI" font-size="10.00">+ CloneDataFromRead()</text>
<text text-anchor="start" x="186.5" y="-40.5" font-family="SegoeUI" font-size="10.00">+ SetChromaticities()</text>
<text text-anchor="start" x="186.5" y="-29.5" font-family="SegoeUI" font-size="10.00">+ GetChromaticities()</text>
<text text-anchor="start" x="186.5" y="-18.5" font-family="SegoeUI" font-size="10.00">&#45; CloneData()</text>
</a>
</g>
</g>
<!-- Node0&#45;&gt;Node3 -->
<g id="edge3" class="edge"><title>Node0&#45;&gt;Node3</title>
<path fill="none" stroke="midnightblue" d="M1247.4,-327.768C1029.32,-318.285 427.564,-288.444 350,-245 344.16,-241.729 338.59,-237.904 333.295,-233.668"/>
<polygon fill="none" stroke="midnightblue" points="1247.35,-331.269 1257.5,-328.204 1247.66,-324.275 1247.35,-331.269"/>
</g>
<!-- Node4 -->
<g id="node5" class="node"><title>Node4</title>
<g id="a_node5"><a xlink:href="../../d9/d23/class_hjg_1_1_pngcs_1_1_chunks_1_1_png_chunk_g_a_m_a.html" target="_top" xlink:title="gAMA chunk, see http://www.w3.org/TR/PNG/#11gAMA">
<polygon fill="white" stroke="black" points="359.5,-50 359.5,-195 522.5,-195 522.5,-50 359.5,-50"/>
<text text-anchor="middle" x="441" y="-183" font-family="SegoeUI" font-size="10.00">Hjg.Pngcs.Chunks.PngChunkGAMA</text>
<polyline fill="none" stroke="black" points="359.5,-176 522.5,-176 "/>
<text text-anchor="start" x="367.5" y="-164" font-family="SegoeUI" font-size="10.00">+ ID</text>
<text text-anchor="start" x="367.5" y="-153" font-family="SegoeUI" font-size="10.00">&#45; gamma</text>
<polyline fill="none" stroke="black" points="359.5,-146 522.5,-146 "/>
<text text-anchor="start" x="367.5" y="-134" font-family="SegoeUI" font-size="10.00">+ PngChunkGAMA()</text>
<text text-anchor="start" x="367.5" y="-123" font-family="SegoeUI" font-size="10.00">+ GetOrderingConstraint()</text>
<text text-anchor="start" x="367.5" y="-112" font-family="SegoeUI" font-size="10.00">+ CreateRawChunk()</text>
<text text-anchor="start" x="367.5" y="-101" font-family="SegoeUI" font-size="10.00">+ ParseFromRaw()</text>
<text text-anchor="start" x="367.5" y="-90" font-family="SegoeUI" font-size="10.00">+ CloneDataFromRead()</text>
<text text-anchor="start" x="367.5" y="-79" font-family="SegoeUI" font-size="10.00">+ GetGamma()</text>
<text text-anchor="start" x="367.5" y="-68" font-family="SegoeUI" font-size="10.00">+ SetGamma()</text>
<text text-anchor="start" x="367.5" y="-57" font-family="SegoeUI" font-size="10.00">&#45; CloneData()</text>
</a>
</g>
</g>
<!-- Node0&#45;&gt;Node4 -->
<g id="edge4" class="edge"><title>Node0&#45;&gt;Node4</title>
<path fill="none" stroke="midnightblue" d="M1247.27,-330.33C1071.43,-327.592 652.774,-313.818 532,-245 511.163,-233.127 493.641,-214.342 479.711,-195.06"/>
<polygon fill="none" stroke="midnightblue" points="1247.43,-333.833 1257.48,-330.481 1247.54,-326.833 1247.43,-333.833"/>
</g>
<!-- Node5 -->
<g id="node6" class="node"><title>Node5</title>
<g id="a_node6"><a xlink:href="../../d7/d34/class_hjg_1_1_pngcs_1_1_chunks_1_1_png_chunk_h_i_s_t.html" target="_top" xlink:title="hIST chunk, see http://www.w3.org/TR/PNG/#11hIST Only for palette images">
<polygon fill="white" stroke="black" points="541,-50 541,-195 699,-195 699,-50 541,-50"/>
<text text-anchor="middle" x="620" y="-183" font-family="SegoeUI" font-size="10.00">Hjg.Pngcs.Chunks.PngChunkHIST</text>
<polyline fill="none" stroke="black" points="541,-176 699,-176 "/>
<text text-anchor="start" x="549" y="-164" font-family="SegoeUI" font-size="10.00">+ ID</text>
<text text-anchor="start" x="549" y="-153" font-family="SegoeUI" font-size="10.00">&#45; hist</text>
<polyline fill="none" stroke="black" points="541,-146 699,-146 "/>
<text text-anchor="start" x="549" y="-134" font-family="SegoeUI" font-size="10.00">+ PngChunkHIST()</text>
<text text-anchor="start" x="549" y="-123" font-family="SegoeUI" font-size="10.00">+ GetOrderingConstraint()</text>
<text text-anchor="start" x="549" y="-112" font-family="SegoeUI" font-size="10.00">+ CreateRawChunk()</text>
<text text-anchor="start" x="549" y="-101" font-family="SegoeUI" font-size="10.00">+ ParseFromRaw()</text>
<text text-anchor="start" x="549" y="-90" font-family="SegoeUI" font-size="10.00">+ CloneDataFromRead()</text>
<text text-anchor="start" x="549" y="-79" font-family="SegoeUI" font-size="10.00">+ GetHist()</text>
<text text-anchor="start" x="549" y="-68" font-family="SegoeUI" font-size="10.00">+ SetHist()</text>
<text text-anchor="start" x="549" y="-57" font-family="SegoeUI" font-size="10.00">&#45; CloneData()</text>
</a>
</g>
</g>
<!-- Node0&#45;&gt;Node5 -->
<g id="edge5" class="edge"><title>Node0&#45;&gt;Node5</title>
<path fill="none" stroke="midnightblue" d="M1247.3,-327.665C1101.79,-320.271 797.37,-298.707 708,-245 687.908,-232.926 671.067,-214.324 657.674,-195.277"/>
<polygon fill="none" stroke="midnightblue" points="1247.33,-331.171 1257.5,-328.173 1247.68,-324.179 1247.33,-331.171"/>
</g>
<!-- Node6 -->
<g id="node7" class="node"><title>Node6</title>
<g id="a_node7"><a xlink:href="../../de/da0/class_hjg_1_1_pngcs_1_1_chunks_1_1_png_chunk_i_c_c_p.html" target="_top" xlink:title="iCCP Chunk: see http://www.w3.org/TR/PNG/#11iCCP">
<polygon fill="white" stroke="black" points="717,-28 717,-217 875,-217 875,-28 717,-28"/>
<text text-anchor="middle" x="796" y="-205" font-family="SegoeUI" font-size="10.00">Hjg.Pngcs.Chunks.PngChunkICCP</text>
<polyline fill="none" stroke="black" points="717,-198 875,-198 "/>
<text text-anchor="start" x="725" y="-186" font-family="SegoeUI" font-size="10.00">+ ID</text>
<text text-anchor="start" x="725" y="-175" font-family="SegoeUI" font-size="10.00">&#45; profileName</text>
<text text-anchor="start" x="725" y="-164" font-family="SegoeUI" font-size="10.00">&#45; compressedProfile</text>
<polyline fill="none" stroke="black" points="717,-157 875,-157 "/>
<text text-anchor="start" x="725" y="-145" font-family="SegoeUI" font-size="10.00">+ PngChunkICCP()</text>
<text text-anchor="start" x="725" y="-134" font-family="SegoeUI" font-size="10.00">+ GetOrderingConstraint()</text>
<text text-anchor="start" x="725" y="-123" font-family="SegoeUI" font-size="10.00">+ CreateRawChunk()</text>
<text text-anchor="start" x="725" y="-112" font-family="SegoeUI" font-size="10.00">+ ParseFromRaw()</text>
<text text-anchor="start" x="725" y="-101" font-family="SegoeUI" font-size="10.00">+ CloneDataFromRead()</text>
<text text-anchor="start" x="725" y="-90" font-family="SegoeUI" font-size="10.00">+ SetProfileNameAndContent()</text>
<text text-anchor="start" x="725" y="-79" font-family="SegoeUI" font-size="10.00">+ SetProfileNameAndContent()</text>
<text text-anchor="start" x="725" y="-68" font-family="SegoeUI" font-size="10.00">+ GetProfileName()</text>
<text text-anchor="start" x="725" y="-57" font-family="SegoeUI" font-size="10.00">+ GetProfile()</text>
<text text-anchor="start" x="725" y="-46" font-family="SegoeUI" font-size="10.00">+ GetProfileAsString()</text>
<text text-anchor="start" x="725" y="-35" font-family="SegoeUI" font-size="10.00">&#45; CloneData()</text>
</a>
</g>
</g>
<!-- Node0&#45;&gt;Node6 -->
<g id="edge6" class="edge"><title>Node0&#45;&gt;Node6</title>
<path fill="none" stroke="midnightblue" d="M1247.29,-322.694C1136.96,-309.884 943.19,-282.777 884,-245 872.254,-237.503 861.574,-227.834 852.028,-217.227"/>
<polygon fill="none" stroke="midnightblue" points="1247.03,-326.188 1257.37,-323.851 1247.83,-319.233 1247.03,-326.188"/>
</g>
<!-- Node7 -->
<g id="node8" class="node"><title>Node7</title>
<g id="a_node8"><a xlink:href="../../d5/d01/class_hjg_1_1_pngcs_1_1_chunks_1_1_png_chunk_i_e_n_d.html" target="_top" xlink:title="IEND chunk http://www.w3.org/TR/PNG/#11IEND">
<polygon fill="white" stroke="black" points="893,-72 893,-173 1051,-173 1051,-72 893,-72"/>
<text text-anchor="middle" x="972" y="-161" font-family="SegoeUI" font-size="10.00">Hjg.Pngcs.Chunks.PngChunkIEND</text>
<polyline fill="none" stroke="black" points="893,-154 1051,-154 "/>
<text text-anchor="start" x="901" y="-142" font-family="SegoeUI" font-size="10.00">+ ID</text>
<polyline fill="none" stroke="black" points="893,-135 1051,-135 "/>
<text text-anchor="start" x="901" y="-123" font-family="SegoeUI" font-size="10.00">+ PngChunkIEND()</text>
<text text-anchor="start" x="901" y="-112" font-family="SegoeUI" font-size="10.00">+ GetOrderingConstraint()</text>
<text text-anchor="start" x="901" y="-101" font-family="SegoeUI" font-size="10.00">+ CreateRawChunk()</text>
<text text-anchor="start" x="901" y="-90" font-family="SegoeUI" font-size="10.00">+ ParseFromRaw()</text>
<text text-anchor="start" x="901" y="-79" font-family="SegoeUI" font-size="10.00">+ CloneDataFromRead()</text>
</a>
</g>
</g>
<!-- Node0&#45;&gt;Node7 -->
<g id="edge7" class="edge"><title>Node0&#45;&gt;Node7</title>
<path fill="none" stroke="midnightblue" d="M1247.31,-319.005C1190.97,-307.385 1115.56,-285.368 1060,-245 1034.29,-226.323 1013.1,-197.853 997.962,-173.166"/>
<polygon fill="none" stroke="midnightblue" points="1246.75,-322.462 1257.24,-320.987 1248.12,-315.597 1246.75,-322.462"/>
</g>
<!-- Node8 -->
<g id="node9" class="node"><title>Node8</title>
<g id="a_node9"><a xlink:href="../../d0/dc9/class_hjg_1_1_pngcs_1_1_chunks_1_1_png_chunk_i_h_d_r.html" target="_top" xlink:title="IHDR chunk: http://www.w3.org/TR/PNG/#11IHDR">
<polygon fill="white" stroke="black" points="1069,-28 1069,-217 1227,-217 1227,-28 1069,-28"/>
<text text-anchor="middle" x="1148" y="-205" font-family="SegoeUI" font-size="10.00">Hjg.Pngcs.Chunks.PngChunkIHDR</text>
<polyline fill="none" stroke="black" points="1069,-198 1227,-198 "/>
<text text-anchor="start" x="1077" y="-186" font-family="SegoeUI" font-size="10.00">+ ID</text>
<text text-anchor="start" x="1077" y="-175" font-family="SegoeUI" font-size="10.00">+ Cols</text>
<text text-anchor="start" x="1077" y="-164" font-family="SegoeUI" font-size="10.00">+ Rows</text>
<text text-anchor="start" x="1077" y="-153" font-family="SegoeUI" font-size="10.00">+ Bitspc</text>
<text text-anchor="start" x="1077" y="-142" font-family="SegoeUI" font-size="10.00">+ Colormodel</text>
<text text-anchor="start" x="1077" y="-131" font-family="SegoeUI" font-size="10.00">+ Compmeth</text>
<text text-anchor="start" x="1077" y="-120" font-family="SegoeUI" font-size="10.00">+ Filmeth</text>
<text text-anchor="start" x="1077" y="-109" font-family="SegoeUI" font-size="10.00">+ Interlaced</text>
<polyline fill="none" stroke="black" points="1069,-102 1227,-102 "/>
<text text-anchor="start" x="1077" y="-90" font-family="SegoeUI" font-size="10.00">+ PngChunkIHDR()</text>
<text text-anchor="start" x="1077" y="-79" font-family="SegoeUI" font-size="10.00">+ GetOrderingConstraint()</text>
<text text-anchor="start" x="1077" y="-68" font-family="SegoeUI" font-size="10.00">+ CreateRawChunk()</text>
<text text-anchor="start" x="1077" y="-57" font-family="SegoeUI" font-size="10.00">+ ParseFromRaw()</text>
<text text-anchor="start" x="1077" y="-46" font-family="SegoeUI" font-size="10.00">+ CloneDataFromRead()</text>
<text text-anchor="start" x="1077" y="-35" font-family="SegoeUI" font-size="10.00">&#45; CloneData()</text>
</a>
</g>
</g>
<!-- Node0&#45;&gt;Node8 -->
<g id="edge8" class="edge"><title>Node0&#45;&gt;Node8</title>
<path fill="none" stroke="midnightblue" d="M1263.4,-274.028C1253.92,-264.607 1244.49,-254.732 1236,-245 1228.29,-236.169 1220.58,-226.689 1213.09,-217.06"/>
<polygon fill="none" stroke="midnightblue" points="1261.04,-276.624 1270.63,-281.134 1265.95,-271.63 1261.04,-276.624"/>
</g>
<!-- Node9 -->
<g id="node10" class="node"><title>Node9</title>
<g id="a_node10"><a xlink:href="../../d3/d36/class_hjg_1_1_pngcs_1_1_chunks_1_1_png_chunk_o_f_f_s.html" target="_top" xlink:title="oFFs chunk: http://www.libpng.org/pub/png/spec/register/pngext&#45;1.3.0&#45;pdg.html#C.oFFs">
<polygon fill="white" stroke="black" points="1245.5,-17 1245.5,-228 1406.5,-228 1406.5,-17 1245.5,-17"/>
<text text-anchor="middle" x="1326" y="-216" font-family="SegoeUI" font-size="10.00">Hjg.Pngcs.Chunks.PngChunkOFFS</text>
<polyline fill="none" stroke="black" points="1245.5,-209 1406.5,-209 "/>
<text text-anchor="start" x="1253.5" y="-197" font-family="SegoeUI" font-size="10.00">+ ID</text>
<text text-anchor="start" x="1253.5" y="-186" font-family="SegoeUI" font-size="10.00">&#45; posX</text>
<text text-anchor="start" x="1253.5" y="-175" font-family="SegoeUI" font-size="10.00">&#45; posY</text>
<text text-anchor="start" x="1253.5" y="-164" font-family="SegoeUI" font-size="10.00">&#45; units</text>
<polyline fill="none" stroke="black" points="1245.5,-157 1406.5,-157 "/>
<text text-anchor="start" x="1253.5" y="-145" font-family="SegoeUI" font-size="10.00">+ PngChunkOFFS()</text>
<text text-anchor="start" x="1253.5" y="-134" font-family="SegoeUI" font-size="10.00">+ GetOrderingConstraint()</text>
<text text-anchor="start" x="1253.5" y="-123" font-family="SegoeUI" font-size="10.00">+ CreateRawChunk()</text>
<text text-anchor="start" x="1253.5" y="-112" font-family="SegoeUI" font-size="10.00">+ ParseFromRaw()</text>
<text text-anchor="start" x="1253.5" y="-101" font-family="SegoeUI" font-size="10.00">+ CloneDataFromRead()</text>
<text text-anchor="start" x="1253.5" y="-90" font-family="SegoeUI" font-size="10.00">+ GetUnits()</text>
<text text-anchor="start" x="1253.5" y="-79" font-family="SegoeUI" font-size="10.00">+ SetUnits()</text>
<text text-anchor="start" x="1253.5" y="-68" font-family="SegoeUI" font-size="10.00">+ GetPosX()</text>
<text text-anchor="start" x="1253.5" y="-57" font-family="SegoeUI" font-size="10.00">+ SetPosX()</text>
<text text-anchor="start" x="1253.5" y="-46" font-family="SegoeUI" font-size="10.00">+ GetPosY()</text>
<text text-anchor="start" x="1253.5" y="-35" font-family="SegoeUI" font-size="10.00">+ SetPosY()</text>
<text text-anchor="start" x="1253.5" y="-24" font-family="SegoeUI" font-size="10.00">&#45; CloneData()</text>
</a>
</g>
</g>
<!-- Node0&#45;&gt;Node9 -->
<g id="edge9" class="edge"><title>Node0&#45;&gt;Node9</title>
<path fill="none" stroke="midnightblue" d="M1326,-271.231C1326,-257.729 1326,-243.008 1326,-228.259"/>
<polygon fill="none" stroke="midnightblue" points="1322.5,-271.299 1326,-281.299 1329.5,-271.299 1322.5,-271.299"/>
</g>
<!-- Node10 -->
<g id="node11" class="node"><title>Node10</title>
<g id="a_node11"><a xlink:href="../../da/d47/class_hjg_1_1_pngcs_1_1_chunks_1_1_png_chunk_p_h_y_s.html" target="_top" xlink:title="pHYs chunk: http://www.w3.org/TR/PNG/#11pHYs">
<polygon fill="white" stroke="black" points="1425,-28 1425,-217 1585,-217 1585,-28 1425,-28"/>
<text text-anchor="middle" x="1505" y="-205" font-family="SegoeUI" font-size="10.00">Hjg.Pngcs.Chunks.PngChunkPHYS</text>
<polyline fill="none" stroke="black" points="1425,-198 1585,-198 "/>
<text text-anchor="start" x="1433" y="-186" font-family="SegoeUI" font-size="10.00">+ ID</text>
<text text-anchor="start" x="1433" y="-175" font-family="SegoeUI" font-size="10.00">+ PixelsxUnitX</text>
<text text-anchor="start" x="1433" y="-164" font-family="SegoeUI" font-size="10.00">+ PixelsxUnitY</text>
<text text-anchor="start" x="1433" y="-153" font-family="SegoeUI" font-size="10.00">+ Units</text>
<polyline fill="none" stroke="black" points="1425,-146 1585,-146 "/>
<text text-anchor="start" x="1433" y="-134" font-family="SegoeUI" font-size="10.00">+ PngChunkPHYS()</text>
<text text-anchor="start" x="1433" y="-123" font-family="SegoeUI" font-size="10.00">+ GetOrderingConstraint()</text>
<text text-anchor="start" x="1433" y="-112" font-family="SegoeUI" font-size="10.00">+ CreateRawChunk()</text>
<text text-anchor="start" x="1433" y="-101" font-family="SegoeUI" font-size="10.00">+ CloneDataFromRead()</text>
<text text-anchor="start" x="1433" y="-90" font-family="SegoeUI" font-size="10.00">+ ParseFromRaw()</text>
<text text-anchor="start" x="1433" y="-79" font-family="SegoeUI" font-size="10.00">+ GetAsDpi()</text>
<text text-anchor="start" x="1433" y="-68" font-family="SegoeUI" font-size="10.00">+ GetAsDpi2()</text>
<text text-anchor="start" x="1433" y="-57" font-family="SegoeUI" font-size="10.00">+ SetAsDpi()</text>
<text text-anchor="start" x="1433" y="-46" font-family="SegoeUI" font-size="10.00">+ SetAsDpi2()</text>
<text text-anchor="start" x="1433" y="-35" font-family="SegoeUI" font-size="10.00">&#45; CloneData()</text>
</a>
</g>
</g>
<!-- Node0&#45;&gt;Node10 -->
<g id="edge10" class="edge"><title>Node0&#45;&gt;Node10</title>
<path fill="none" stroke="midnightblue" d="M1388.56,-273.988C1398.04,-264.572 1407.48,-254.709 1416,-245 1423.76,-236.155 1431.54,-226.666 1439.1,-217.032"/>
<polygon fill="none" stroke="midnightblue" points="1386.01,-271.589 1381.32,-281.091 1390.91,-276.585 1386.01,-271.589"/>
</g>
<!-- Node11 -->
<g id="node12" class="node"><title>Node11</title>
<g id="a_node12"><a xlink:href="../../da/dc1/class_hjg_1_1_pngcs_1_1_chunks_1_1_png_chunk_p_l_t_e.html" target="_top" xlink:title=" ">
<polygon fill="white" stroke="black" points="1603,-17 1603,-228 1761,-228 1761,-17 1603,-17"/>
<text text-anchor="middle" x="1682" y="-216" font-family="SegoeUI" font-size="10.00">Hjg.Pngcs.Chunks.PngChunkPLTE</text>
<polyline fill="none" stroke="black" points="1603,-209 1761,-209 "/>
<text text-anchor="start" x="1611" y="-197" font-family="SegoeUI" font-size="10.00">+ ID</text>
<text text-anchor="start" x="1611" y="-186" font-family="SegoeUI" font-size="10.00">&#45; nentries</text>
<text text-anchor="start" x="1611" y="-175" font-family="SegoeUI" font-size="10.00">&#45; entries</text>
<polyline fill="none" stroke="black" points="1603,-168 1761,-168 "/>
<text text-anchor="start" x="1611" y="-156" font-family="SegoeUI" font-size="10.00">+ PngChunkPLTE()</text>
<text text-anchor="start" x="1611" y="-145" font-family="SegoeUI" font-size="10.00">+ GetOrderingConstraint()</text>
<text text-anchor="start" x="1611" y="-134" font-family="SegoeUI" font-size="10.00">+ CreateRawChunk()</text>
<text text-anchor="start" x="1611" y="-123" font-family="SegoeUI" font-size="10.00">+ ParseFromRaw()</text>
<text text-anchor="start" x="1611" y="-112" font-family="SegoeUI" font-size="10.00">+ CloneDataFromRead()</text>
<text text-anchor="start" x="1611" y="-101" font-family="SegoeUI" font-size="10.00">+ SetNentries()</text>
<text text-anchor="start" x="1611" y="-90" font-family="SegoeUI" font-size="10.00">+ GetNentries()</text>
<text text-anchor="start" x="1611" y="-79" font-family="SegoeUI" font-size="10.00">+ SetEntry()</text>
<text text-anchor="start" x="1611" y="-68" font-family="SegoeUI" font-size="10.00">+ GetEntry()</text>
<text text-anchor="start" x="1611" y="-57" font-family="SegoeUI" font-size="10.00">+ GetEntryRgb()</text>
<text text-anchor="start" x="1611" y="-46" font-family="SegoeUI" font-size="10.00">+ GetEntryRgb()</text>
<text text-anchor="start" x="1611" y="-35" font-family="SegoeUI" font-size="10.00">+ MinBitDepth()</text>
<text text-anchor="start" x="1611" y="-24" font-family="SegoeUI" font-size="10.00">&#45; CloneData()</text>
</a>
</g>
</g>
<!-- Node0&#45;&gt;Node11 -->
<g id="edge11" class="edge"><title>Node0&#45;&gt;Node11</title>
<path fill="none" stroke="midnightblue" d="M1404.71,-319.248C1461.53,-307.723 1537.83,-285.717 1594,-245 1600.85,-240.032 1607.39,-234.367 1613.57,-228.262"/>
<polygon fill="none" stroke="midnightblue" points="1403.83,-315.853 1394.69,-321.212 1405.18,-322.722 1403.83,-315.853"/>
</g>
<!-- Node12 -->
<g id="node13" class="node"><title>Node12</title>
<g id="a_node13"><a xlink:href="../../df/d01/class_hjg_1_1_pngcs_1_1_chunks_1_1_png_chunk_s_b_i_t.html" target="_top" xlink:title=" ">
<polygon fill="white" stroke="black" points="1779,-33.5 1779,-211.5 1937,-211.5 1937,-33.5 1779,-33.5"/>
<text text-anchor="middle" x="1858" y="-199.5" font-family="SegoeUI" font-size="10.00">Hjg.Pngcs.Chunks.PngChunkSBIT</text>
<polyline fill="none" stroke="black" points="1779,-192.5 1937,-192.5 "/>
<text text-anchor="start" x="1787" y="-180.5" font-family="SegoeUI" font-size="10.00">+ ID</text>
<text text-anchor="start" x="1787" y="-169.5" font-family="SegoeUI" font-size="10.00">+ Graysb</text>
<text text-anchor="start" x="1787" y="-158.5" font-family="SegoeUI" font-size="10.00">+ Alphasb</text>
<text text-anchor="start" x="1787" y="-147.5" font-family="SegoeUI" font-size="10.00">+ Redsb</text>
<text text-anchor="start" x="1787" y="-136.5" font-family="SegoeUI" font-size="10.00">+ Greensb</text>
<text text-anchor="start" x="1787" y="-125.5" font-family="SegoeUI" font-size="10.00">+ Bluesb</text>
<polyline fill="none" stroke="black" points="1779,-118.5 1937,-118.5 "/>
<text text-anchor="start" x="1787" y="-106.5" font-family="SegoeUI" font-size="10.00">+ PngChunkSBIT()</text>
<text text-anchor="start" x="1787" y="-95.5" font-family="SegoeUI" font-size="10.00">+ GetOrderingConstraint()</text>
<text text-anchor="start" x="1787" y="-84.5" font-family="SegoeUI" font-size="10.00">+ ParseFromRaw()</text>
<text text-anchor="start" x="1787" y="-73.5" font-family="SegoeUI" font-size="10.00">+ CreateRawChunk()</text>
<text text-anchor="start" x="1787" y="-62.5" font-family="SegoeUI" font-size="10.00">+ CloneDataFromRead()</text>
<text text-anchor="start" x="1787" y="-51.5" font-family="SegoeUI" font-size="10.00">&#45; CloneData()</text>
<text text-anchor="start" x="1787" y="-40.5" font-family="SegoeUI" font-size="10.00">&#45; GetLen()</text>
</a>
</g>
</g>
<!-- Node0&#45;&gt;Node12 -->
<g id="edge12" class="edge"><title>Node0&#45;&gt;Node12</title>
<path fill="none" stroke="midnightblue" d="M1404.62,-322.782C1515.37,-310.04 1710.46,-282.968 1770,-245 1783.84,-236.178 1796.19,-224.34 1806.96,-211.504"/>
<polygon fill="none" stroke="midnightblue" points="1404.04,-319.326 1394.5,-323.934 1404.83,-326.281 1404.04,-319.326"/>
</g>
<!-- Node13 -->
<g id="node14" class="node"><title>Node13</title>
<g id="a_node14"><a xlink:href="../../db/d35/class_hjg_1_1_pngcs_1_1_chunks_1_1_png_chunk_s_r_g_b.html" target="_top" xlink:title="sRGB chunk: http://www.w3.org/TR/PNG/#11sRGB">
<polygon fill="white" stroke="black" points="1955.5,-28 1955.5,-217 2116.5,-217 2116.5,-28 1955.5,-28"/>
<text text-anchor="middle" x="2036" y="-205" font-family="SegoeUI" font-size="10.00">Hjg.Pngcs.Chunks.PngChunkSRGB</text>
<polyline fill="none" stroke="black" points="1955.5,-198 2116.5,-198 "/>
<text text-anchor="start" x="1963.5" y="-186" font-family="SegoeUI" font-size="10.00">+ ID</text>
<text text-anchor="start" x="1963.5" y="-175" font-family="SegoeUI" font-size="10.00">+ RENDER_INTENT_Perceptual</text>
<text text-anchor="start" x="1963.5" y="-164" font-family="SegoeUI" font-size="10.00">+ RENDER_INTENT_Relative</text>
<text text-anchor="start" x="1963.5" y="-153" font-family="SegoeUI" font-size="10.00">_colorimetric</text>
<text text-anchor="start" x="1963.5" y="-142" font-family="SegoeUI" font-size="10.00">+ RENDER_INTENT_Saturation</text>
<text text-anchor="start" x="1963.5" y="-131" font-family="SegoeUI" font-size="10.00">+ RENDER_INTENT_Absolute</text>
<text text-anchor="start" x="1963.5" y="-120" font-family="SegoeUI" font-size="10.00">_colorimetric</text>
<text text-anchor="start" x="1963.5" y="-109" font-family="SegoeUI" font-size="10.00">+ Intent</text>
<polyline fill="none" stroke="black" points="1955.5,-102 2116.5,-102 "/>
<text text-anchor="start" x="1963.5" y="-90" font-family="SegoeUI" font-size="10.00">+ PngChunkSRGB()</text>
<text text-anchor="start" x="1963.5" y="-79" font-family="SegoeUI" font-size="10.00">+ GetOrderingConstraint()</text>
<text text-anchor="start" x="1963.5" y="-68" font-family="SegoeUI" font-size="10.00">+ CreateRawChunk()</text>
<text text-anchor="start" x="1963.5" y="-57" font-family="SegoeUI" font-size="10.00">+ ParseFromRaw()</text>
<text text-anchor="start" x="1963.5" y="-46" font-family="SegoeUI" font-size="10.00">+ CloneDataFromRead()</text>
<text text-anchor="start" x="1963.5" y="-35" font-family="SegoeUI" font-size="10.00">&#45; CloneData()</text>
</a>
</g>
</g>
<!-- Node0&#45;&gt;Node13 -->
<g id="edge13" class="edge"><title>Node0&#45;&gt;Node13</title>
<path fill="none" stroke="midnightblue" d="M1404.9,-327.604C1550.79,-320.107 1856.05,-298.376 1946,-245 1958.3,-237.699 1969.45,-228 1979.37,-217.255"/>
<polygon fill="none" stroke="midnightblue" points="1404.49,-324.12 1394.68,-328.119 1404.84,-331.111 1404.49,-324.12"/>
</g>
<!-- Node14 -->
<g id="node15" class="node"><title>Node14</title>
<g id="a_node15"><a xlink:href="../../d0/db1/class_hjg_1_1_pngcs_1_1_chunks_1_1_png_chunk_s_t_e_r.html" target="_top" xlink:title="sTER chunk: http://www.libpng.org/pub/png/spec/register/pngext&#45;1.3.0&#45;pdg.html#C.sTER">
<polygon fill="white" stroke="black" points="2134.5,-61 2134.5,-184 2295.5,-184 2295.5,-61 2134.5,-61"/>
<text text-anchor="middle" x="2215" y="-172" font-family="SegoeUI" font-size="10.00">Hjg.Pngcs.Chunks.PngChunkSTER</text>
<polyline fill="none" stroke="black" points="2134.5,-165 2295.5,-165 "/>
<text text-anchor="start" x="2142.5" y="-153" font-family="SegoeUI" font-size="10.00">+ ID</text>
<text text-anchor="start" x="2142.5" y="-142" font-family="SegoeUI" font-size="10.00">+ Mode</text>
<polyline fill="none" stroke="black" points="2134.5,-135 2295.5,-135 "/>
<text text-anchor="start" x="2142.5" y="-123" font-family="SegoeUI" font-size="10.00">+ PngChunkSTER()</text>
<text text-anchor="start" x="2142.5" y="-112" font-family="SegoeUI" font-size="10.00">+ GetOrderingConstraint()</text>
<text text-anchor="start" x="2142.5" y="-101" font-family="SegoeUI" font-size="10.00">+ CreateRawChunk()</text>
<text text-anchor="start" x="2142.5" y="-90" font-family="SegoeUI" font-size="10.00">+ ParseFromRaw()</text>
<text text-anchor="start" x="2142.5" y="-79" font-family="SegoeUI" font-size="10.00">+ CloneDataFromRead()</text>
<text text-anchor="start" x="2142.5" y="-68" font-family="SegoeUI" font-size="10.00">&#45; CloneData()</text>
</a>
</g>
</g>
<!-- Node0&#45;&gt;Node14 -->
<g id="edge14" class="edge"><title>Node0&#45;&gt;Node14</title>
<path fill="none" stroke="midnightblue" d="M1404.79,-330.494C1581.7,-328.103 2004.53,-315.006 2126,-245 2150.47,-230.899 2170.13,-207.071 2184.69,-184.234"/>
<polygon fill="none" stroke="midnightblue" points="1404.72,-326.995 1394.76,-330.622 1404.81,-333.994 1404.72,-326.995"/>
</g>
<!-- Node15 -->
<g id="node16" class="node"><title>Node15</title>
<g id="a_node16"><a xlink:href="../../d9/d6a/class_hjg_1_1_pngcs_1_1_chunks_1_1_png_chunk_t_i_m_e.html" target="_top" xlink:title="tIME chunk: http://www.w3.org/TR/PNG/#11tIME">
<polygon fill="white" stroke="black" points="2313.5,-39 2313.5,-206 2472.5,-206 2472.5,-39 2313.5,-39"/>
<text text-anchor="middle" x="2393" y="-194" font-family="SegoeUI" font-size="10.00">Hjg.Pngcs.Chunks.PngChunkTIME</text>
<polyline fill="none" stroke="black" points="2313.5,-187 2472.5,-187 "/>
<text text-anchor="start" x="2321.5" y="-175" font-family="SegoeUI" font-size="10.00">+ ID</text>
<text text-anchor="start" x="2321.5" y="-164" font-family="SegoeUI" font-size="10.00">&#45; timestamp</text>
<polyline fill="none" stroke="black" points="2313.5,-157 2472.5,-157 "/>
<text text-anchor="start" x="2321.5" y="-145" font-family="SegoeUI" font-size="10.00">+ PngChunkTIME()</text>
<text text-anchor="start" x="2321.5" y="-134" font-family="SegoeUI" font-size="10.00">+ GetOrderingConstraint()</text>
<text text-anchor="start" x="2321.5" y="-123" font-family="SegoeUI" font-size="10.00">+ CreateRawChunk()</text>
<text text-anchor="start" x="2321.5" y="-112" font-family="SegoeUI" font-size="10.00">+ ParseFromRaw()</text>
<text text-anchor="start" x="2321.5" y="-101" font-family="SegoeUI" font-size="10.00">+ CloneDataFromRead()</text>
<text text-anchor="start" x="2321.5" y="-90" font-family="SegoeUI" font-size="10.00">+ SetNow()</text>
<text text-anchor="start" x="2321.5" y="-79" font-family="SegoeUI" font-size="10.00">+ GetYMDHMS()</text>
<text text-anchor="start" x="2321.5" y="-68" font-family="SegoeUI" font-size="10.00">+ GetAsString()</text>
<text text-anchor="start" x="2321.5" y="-57" font-family="SegoeUI" font-size="10.00">&#45; CloneData()</text>
<text text-anchor="start" x="2321.5" y="-46" font-family="SegoeUI" font-size="10.00">&#45; SetYMDHMS()</text>
</a>
</g>
</g>
<!-- Node0&#45;&gt;Node15 -->
<g id="edge15" class="edge"><title>Node0&#45;&gt;Node15</title>
<path fill="none" stroke="midnightblue" d="M1404.86,-327.822C1623.67,-318.482 2227.43,-288.982 2305,-245 2321.65,-235.558 2336,-221.522 2347.99,-206.309"/>
<polygon fill="none" stroke="midnightblue" points="1404.58,-324.331 1394.73,-328.251 1404.87,-331.324 1404.58,-324.331"/>
</g>
<!-- Node16 -->
<g id="node17" class="node"><title>Node16</title>
<g id="a_node17"><a xlink:href="../../d5/da1/class_hjg_1_1_pngcs_1_1_chunks_1_1_png_chunk_t_r_n_s.html" target="_top" xlink:title="tRNS chunk: http://www.w3.org/TR/PNG/#11tRNS">
<polygon fill="white" stroke="black" points="2490.5,-0.5 2490.5,-244.5 2651.5,-244.5 2651.5,-0.5 2490.5,-0.5"/>
<text text-anchor="middle" x="2571" y="-232.5" font-family="SegoeUI" font-size="10.00">Hjg.Pngcs.Chunks.PngChunkTRNS</text>
<polyline fill="none" stroke="black" points="2490.5,-225.5 2651.5,-225.5 "/>
<text text-anchor="start" x="2498.5" y="-213.5" font-family="SegoeUI" font-size="10.00">+ ID</text>
<text text-anchor="start" x="2498.5" y="-202.5" font-family="SegoeUI" font-size="10.00">&#45; gray</text>
<text text-anchor="start" x="2498.5" y="-191.5" font-family="SegoeUI" font-size="10.00">&#45; red</text>
<text text-anchor="start" x="2498.5" y="-180.5" font-family="SegoeUI" font-size="10.00">&#45; green</text>
<text text-anchor="start" x="2498.5" y="-169.5" font-family="SegoeUI" font-size="10.00">&#45; blue</text>
<text text-anchor="start" x="2498.5" y="-158.5" font-family="SegoeUI" font-size="10.00">&#45; paletteAlpha</text>
<polyline fill="none" stroke="black" points="2490.5,-151.5 2651.5,-151.5 "/>
<text text-anchor="start" x="2498.5" y="-139.5" font-family="SegoeUI" font-size="10.00">+ PngChunkTRNS()</text>
<text text-anchor="start" x="2498.5" y="-128.5" font-family="SegoeUI" font-size="10.00">+ GetOrderingConstraint()</text>
<text text-anchor="start" x="2498.5" y="-117.5" font-family="SegoeUI" font-size="10.00">+ CreateRawChunk()</text>
<text text-anchor="start" x="2498.5" y="-106.5" font-family="SegoeUI" font-size="10.00">+ ParseFromRaw()</text>
<text text-anchor="start" x="2498.5" y="-95.5" font-family="SegoeUI" font-size="10.00">+ CloneDataFromRead()</text>
<text text-anchor="start" x="2498.5" y="-84.5" font-family="SegoeUI" font-size="10.00">+ SetRGB()</text>
<text text-anchor="start" x="2498.5" y="-73.5" font-family="SegoeUI" font-size="10.00">+ GetRGB()</text>
<text text-anchor="start" x="2498.5" y="-62.5" font-family="SegoeUI" font-size="10.00">+ SetGray()</text>
<text text-anchor="start" x="2498.5" y="-51.5" font-family="SegoeUI" font-size="10.00">+ GetGray()</text>
<text text-anchor="start" x="2498.5" y="-40.5" font-family="SegoeUI" font-size="10.00">+ SetPalletteAlpha()</text>
<text text-anchor="start" x="2498.5" y="-29.5" font-family="SegoeUI" font-size="10.00">+ SetIndexEntryAsTransparent()</text>
<text text-anchor="start" x="2498.5" y="-18.5" font-family="SegoeUI" font-size="10.00">+ GetPalletteAlpha()</text>
<text text-anchor="start" x="2498.5" y="-7.5" font-family="SegoeUI" font-size="10.00">&#45; CloneData()</text>
</a>
</g>
</g>
<!-- Node0&#45;&gt;Node16 -->
<g id="edge16" class="edge"><title>Node0&#45;&gt;Node16</title>
<path fill="none" stroke="midnightblue" d="M1405.16,-328.93C1650.65,-321.984 2388.31,-296.966 2482,-245 2484.86,-243.415 2487.65,-241.694 2490.37,-239.856"/>
<polygon fill="none" stroke="midnightblue" points="1404.79,-325.439 1394.89,-329.218 1404.98,-332.436 1404.79,-325.439"/>
</g>
<!-- Node1 -->
<g id="node2" class="node"><title>Node1</title>
<g id="a_node2"><a xlink:href="../../d8/dd4/class_hjg_1_1_pngcs_1_1_chunks_1_1_abstract_png_chunk.html" target="_top" xlink:title="Represents a instance of a PNG chunk">
<polygon fill="white" stroke="black" points="1262,-419.5 1262,-762.5 1390,-762.5 1390,-419.5 1262,-419.5"/>
<text text-anchor="middle" x="1326" y="-750.5" font-family="SegoeUI" font-size="10.00">AbstractPngChunk</text>
<polyline fill="none" stroke="black" points="1262,-743.5 1390,-743.5 "/>
<text text-anchor="start" x="1270" y="-731.5" font-family="SegoeUI" font-size="10.00">+ Id</text>
<text text-anchor="start" x="1270" y="-720.5" font-family="SegoeUI" font-size="10.00">+ Crit</text>
<text text-anchor="start" x="1270" y="-709.5" font-family="SegoeUI" font-size="10.00">+ Pub</text>
<text text-anchor="start" x="1270" y="-698.5" font-family="SegoeUI" font-size="10.00">+ Safe</text>
<text text-anchor="start" x="1270" y="-687.5" font-family="SegoeUI" font-size="10.00">+ ImgInfo</text>
<text text-anchor="start" x="1270" y="-676.5" font-family="SegoeUI" font-size="10.00">+ Priority</text>
<text text-anchor="start" x="1270" y="-665.5" font-family="SegoeUI" font-size="10.00">+ ChunkGroup</text>
<text text-anchor="start" x="1270" y="-654.5" font-family="SegoeUI" font-size="10.00">+ Length</text>
<text text-anchor="start" x="1270" y="-643.5" font-family="SegoeUI" font-size="10.00">+ Offset</text>
<text text-anchor="start" x="1270" y="-632.5" font-family="SegoeUI" font-size="10.00">&#45; factoryMap</text>
<polyline fill="none" stroke="black" points="1262,-625.5 1390,-625.5 "/>
<text text-anchor="start" x="1270" y="-613.5" font-family="SegoeUI" font-size="10.00">+ CreateEmptyChunk()</text>
<text text-anchor="start" x="1270" y="-602.5" font-family="SegoeUI" font-size="10.00">+ ToString()</text>
<text text-anchor="start" x="1270" y="-591.5" font-family="SegoeUI" font-size="10.00">+ CreateRawChunk()</text>
<text text-anchor="start" x="1270" y="-580.5" font-family="SegoeUI" font-size="10.00">+ ParseFromRaw()</text>
<text text-anchor="start" x="1270" y="-569.5" font-family="SegoeUI" font-size="10.00">+ CloneDataFromRead()</text>
<text text-anchor="start" x="1270" y="-558.5" font-family="SegoeUI" font-size="10.00">+ AllowsMultiple()</text>
<text text-anchor="start" x="1270" y="-547.5" font-family="SegoeUI" font-size="10.00">+ GetOrderingConstraint()</text>
<text text-anchor="start" x="1270" y="-536.5" font-family="SegoeUI" font-size="10.00">+ FactoryRegister()</text>
<text text-anchor="start" x="1270" y="-525.5" font-family="SegoeUI" font-size="10.00">+ CloneChunk&lt; T &gt;()</text>
<text text-anchor="start" x="1270" y="-514.5" font-family="SegoeUI" font-size="10.00"># AbstractPngChunk()</text>
<text text-anchor="start" x="1270" y="-503.5" font-family="SegoeUI" font-size="10.00">&#45; MustGoBeforePLTE()</text>
<text text-anchor="start" x="1270" y="-492.5" font-family="SegoeUI" font-size="10.00">&#45; MustGoBeforeIDAT()</text>
<text text-anchor="start" x="1270" y="-481.5" font-family="SegoeUI" font-size="10.00">&#45; MustGoAfterPLTE()</text>
<text text-anchor="start" x="1270" y="-470.5" font-family="SegoeUI" font-size="10.00">&#45; Write()</text>
<text text-anchor="start" x="1270" y="-459.5" font-family="SegoeUI" font-size="10.00">&#45; InitFactory()</text>
<text text-anchor="start" x="1270" y="-448.5" font-family="SegoeUI" font-size="10.00">&#45; IsKnown()</text>
<text text-anchor="start" x="1270" y="-437.5" font-family="SegoeUI" font-size="10.00">&#45; Factory()</text>
<text text-anchor="start" x="1270" y="-426.5" font-family="SegoeUI" font-size="10.00">&#45; FactoryFromId()</text>
</a>
</g>
</g>
<!-- Node1&#45;&gt;Node0 -->
<g id="edge1" class="edge"><title>Node1&#45;&gt;Node0</title>
<path fill="none" stroke="midnightblue" d="M1326,-409.097C1326,-399.85 1326,-391.039 1326,-382.909"/>
<polygon fill="none" stroke="midnightblue" points="1322.5,-409.292 1326,-419.292 1329.5,-409.292 1322.5,-409.292"/>
</g>
</g>
</svg>
