<?xml version="1.0" encoding="UTF-8" standalone="no"?>
<!DOCTYPE svg PUBLIC "-//W3C//DTD SVG 1.1//EN"
 "http://www.w3.org/Graphics/SVG/1.1/DTD/svg11.dtd">
<!-- Generated by graphviz version 2.38.0 (20140413.2041)
 -->
<!-- Title: Juniper.Unity.Ground.AbstractGround Pages: 1 -->
<svg width="178pt" height="380pt"
 viewBox="0.00 0.00 177.50 380.00" xmlns="http://www.w3.org/2000/svg" xmlns:xlink="http://www.w3.org/1999/xlink">
<g id="graph0" class="graph" transform="scale(1 1) rotate(0) translate(4 376)">
<title>Juniper.Unity.Ground.AbstractGround</title>
<polygon fill="white" stroke="none" points="-4,4 -4,-376 173.5,-376 173.5,4 -4,4"/>
<!-- Node9 -->
<g id="node1" class="node"><title>Node9</title>
<g id="a_node1"><a xlink:title=" ">
<polygon fill="#bfbfbf" stroke="black" points="16.5,-0.5 16.5,-255.5 159.5,-255.5 159.5,-0.5 16.5,-0.5"/>
<text text-anchor="start" x="24.5" y="-243.5" font-family="SegoeUI" font-size="10.00">Juniper.Unity.Ground.Abstract</text>
<text text-anchor="middle" x="88" y="-232.5" font-family="SegoeUI" font-size="10.00">Ground</text>
<polyline fill="none" stroke="black" points="16.5,-225.5 159.5,-225.5 "/>
<text text-anchor="start" x="24.5" y="-213.5" font-family="SegoeUI" font-size="10.00">+ Roughness</text>
<text text-anchor="start" x="24.5" y="-202.5" font-family="SegoeUI" font-size="10.00">+ MeshVisualization</text>
<text text-anchor="start" x="24.5" y="-191.5" font-family="SegoeUI" font-size="10.00">+ OcclusionMaterial</text>
<text text-anchor="start" x="24.5" y="-180.5" font-family="SegoeUI" font-size="10.00">+ OcclusionMaterialInEditor</text>
<text text-anchor="start" x="24.5" y="-169.5" font-family="SegoeUI" font-size="10.00">+ VisualizationMaterial</text>
<text text-anchor="start" x="24.5" y="-158.5" font-family="SegoeUI" font-size="10.00">+ CurrentMaterial</text>
<text text-anchor="start" x="24.5" y="-147.5" font-family="SegoeUI" font-size="10.00">+ GroundLayer</text>
<text text-anchor="start" x="24.5" y="-136.5" font-family="SegoeUI" font-size="10.00">+ GroundVisualizers</text>
<text text-anchor="start" x="24.5" y="-125.5" font-family="SegoeUI" font-size="10.00">&#45; lastMeshVisualization</text>
<polyline fill="none" stroke="black" points="16.5,-118.5 159.5,-118.5 "/>
<text text-anchor="start" x="24.5" y="-106.5" font-family="SegoeUI" font-size="10.00">+ ToggleVisualization()</text>
<text text-anchor="start" x="24.5" y="-95.5" font-family="SegoeUI" font-size="10.00">+ Awake()</text>
<text text-anchor="start" x="24.5" y="-84.5" font-family="SegoeUI" font-size="10.00">+ Reinstall()</text>
<text text-anchor="start" x="24.5" y="-73.5" font-family="SegoeUI" font-size="10.00">+ Reset()</text>
<text text-anchor="start" x="24.5" y="-62.5" font-family="SegoeUI" font-size="10.00">+ Start()</text>
<text text-anchor="start" x="24.5" y="-51.5" font-family="SegoeUI" font-size="10.00">+ Update()</text>
<text text-anchor="start" x="24.5" y="-40.5" font-family="SegoeUI" font-size="10.00">+ Install()</text>
<text text-anchor="start" x="24.5" y="-29.5" font-family="SegoeUI" font-size="10.00">+ Uninstall()</text>
<text text-anchor="start" x="24.5" y="-18.5" font-family="SegoeUI" font-size="10.00"># InternalStart()</text>
<text text-anchor="start" x="24.5" y="-7.5" font-family="SegoeUI" font-size="10.00"># VisualizationChanged()</text>
</a>
</g>
</g>
<!-- Node10 -->
<g id="node2" class="node"><title>Node10</title>
<g id="a_node2"><a xlink:title=" ">
<polygon fill="white" stroke="#bfbfbf" points="0,-303.5 0,-360.5 82,-360.5 82,-303.5 0,-303.5"/>
<text text-anchor="middle" x="41" y="-348.5" font-family="SegoeUI" font-size="10.00">MonoBehaviour</text>
<polyline fill="none" stroke="#bfbfbf" points="0,-341.5 82,-341.5 "/>
<text text-anchor="middle" x="41" y="-329.5" font-family="SegoeUI" font-size="10.00"> </text>
<polyline fill="none" stroke="#bfbfbf" points="0,-322.5 82,-322.5 "/>
<text text-anchor="middle" x="41" y="-310.5" font-family="SegoeUI" font-size="10.00"> </text>
</a>
</g>
</g>
<!-- Node10&#45;&gt;Node9 -->
<g id="edge1" class="edge"><title>Node10&#45;&gt;Node9</title>
<path fill="none" stroke="midnightblue" d="M49.7047,-293.588C52.3072,-282.403 55.3178,-269.464 58.4846,-255.853"/>
<polygon fill="none" stroke="midnightblue" points="46.2939,-292.803 47.4366,-303.336 53.1118,-294.39 46.2939,-292.803"/>
</g>
<!-- Node11 -->
<g id="node3" class="node"><title>Node11</title>
<g id="a_node3"><a xlink:href="../../db/d28/interface_juniper_1_1_i_installable.html" target="_top" xlink:title=" ">
<polygon fill="white" stroke="black" points="100.5,-292.5 100.5,-371.5 169.5,-371.5 169.5,-292.5 100.5,-292.5"/>
<text text-anchor="middle" x="135" y="-359.5" font-family="SegoeUI" font-size="10.00">IInstallable</text>
<polyline fill="none" stroke="black" points="100.5,-352.5 169.5,-352.5 "/>
<text text-anchor="middle" x="135" y="-340.5" font-family="SegoeUI" font-size="10.00"> </text>
<polyline fill="none" stroke="black" points="100.5,-333.5 169.5,-333.5 "/>
<text text-anchor="start" x="108.5" y="-321.5" font-family="SegoeUI" font-size="10.00">+ Install()</text>
<text text-anchor="start" x="108.5" y="-310.5" font-family="SegoeUI" font-size="10.00">+ Reinstall()</text>
<text text-anchor="start" x="108.5" y="-299.5" font-family="SegoeUI" font-size="10.00">+ Uninstall()</text>
</a>
</g>
</g>
<!-- Node11&#45;&gt;Node9 -->
<g id="edge2" class="edge"><title>Node11&#45;&gt;Node9</title>
<path fill="none" stroke="midnightblue" d="M123.654,-282.237C121.715,-273.904 119.624,-264.918 117.461,-255.621"/>
<polygon fill="none" stroke="midnightblue" points="120.263,-283.106 125.938,-292.052 127.081,-281.519 120.263,-283.106"/>
</g>
</g>
</svg>
