<?xml version="1.0" encoding="UTF-8" standalone="no"?>
<!DOCTYPE svg PUBLIC "-//W3C//DTD SVG 1.1//EN"
 "http://www.w3.org/Graphics/SVG/1.1/DTD/svg11.dtd">
<!-- Generated by graphviz version 2.38.0 (20140413.2041)
 -->
<!-- Title: Juniper.Unity.Display.WindowsMRDisplayManager Pages: 1 -->
<svg width="334pt" height="767pt"
 viewBox="0.00 0.00 334.00 767.00" xmlns="http://www.w3.org/2000/svg" xmlns:xlink="http://www.w3.org/1999/xlink">
<g id="graph0" class="graph" transform="scale(1 1) rotate(0) translate(4 763)">
<title>Juniper.Unity.Display.WindowsMRDisplayManager</title>
<polygon fill="white" stroke="none" points="-4,4 -4,-763 330,-763 330,4 -4,4"/>
<!-- Node4 -->
<g id="node1" class="node"><title>Node4</title>
<g id="a_node1"><a xlink:title=" ">
<polygon fill="#bfbfbf" stroke="black" points="47,-0.5 47,-68.5 193,-68.5 193,-0.5 47,-0.5"/>
<text text-anchor="start" x="55" y="-56.5" font-family="SegoeUI" font-size="10.00">Juniper.Unity.Display.Windows</text>
<text text-anchor="middle" x="120" y="-45.5" font-family="SegoeUI" font-size="10.00">MRDisplayManager</text>
<polyline fill="none" stroke="black" points="47,-38.5 193,-38.5 "/>
<text text-anchor="start" x="55" y="-26.5" font-family="SegoeUI" font-size="10.00">+ DEFAULT_FOV</text>
<polyline fill="none" stroke="black" points="47,-19.5 193,-19.5 "/>
<text text-anchor="middle" x="120" y="-7.5" font-family="SegoeUI" font-size="10.00"> </text>
</a>
</g>
</g>
<!-- Node5 -->
<g id="node2" class="node"><title>Node5</title>
<g id="a_node2"><a xlink:href="../../da/da5/class_juniper_1_1_unity_1_1_display_1_1_abstract_display_manager.html" target="_top" xlink:title=" ">
<polygon fill="white" stroke="black" points="60.5,-106.5 60.5,-372.5 179.5,-372.5 179.5,-106.5 60.5,-106.5"/>
<text text-anchor="middle" x="120" y="-360.5" font-family="SegoeUI" font-size="10.00">AbstractDisplayManager</text>
<polyline fill="none" stroke="black" points="60.5,-353.5 179.5,-353.5 "/>
<text text-anchor="start" x="68.5" y="-341.5" font-family="SegoeUI" font-size="10.00">+ MainCamera</text>
<text text-anchor="start" x="68.5" y="-330.5" font-family="SegoeUI" font-size="10.00">+ DEFAULT_FOV</text>
<text text-anchor="start" x="68.5" y="-319.5" font-family="SegoeUI" font-size="10.00">+ VerticalFieldOfView</text>
<text text-anchor="start" x="68.5" y="-308.5" font-family="SegoeUI" font-size="10.00">&#45; lastSystem</text>
<text text-anchor="start" x="68.5" y="-297.5" font-family="SegoeUI" font-size="10.00">&#45; lastDisplayType</text>
<text text-anchor="start" x="68.5" y="-286.5" font-family="SegoeUI" font-size="10.00">&#45; lastARMode</text>
<text text-anchor="start" x="68.5" y="-275.5" font-family="SegoeUI" font-size="10.00">&#45; lastOption</text>
<polyline fill="none" stroke="black" points="60.5,-268.5 179.5,-268.5 "/>
<text text-anchor="start" x="68.5" y="-256.5" font-family="SegoeUI" font-size="10.00">+ StartXRDisplay()</text>
<text text-anchor="start" x="68.5" y="-245.5" font-family="SegoeUI" font-size="10.00">+ StopXRDisplay()</text>
<text text-anchor="start" x="68.5" y="-234.5" font-family="SegoeUI" font-size="10.00">+ DisableDisplay()</text>
<text text-anchor="start" x="68.5" y="-223.5" font-family="SegoeUI" font-size="10.00">+ StartAR()</text>
<text text-anchor="start" x="68.5" y="-212.5" font-family="SegoeUI" font-size="10.00">+ StopAR()</text>
<text text-anchor="start" x="68.5" y="-201.5" font-family="SegoeUI" font-size="10.00">+ ToggleAR()</text>
<text text-anchor="start" x="68.5" y="-190.5" font-family="SegoeUI" font-size="10.00">+ Awake()</text>
<text text-anchor="start" x="68.5" y="-179.5" font-family="SegoeUI" font-size="10.00">+ Reinstall()</text>
<text text-anchor="start" x="68.5" y="-168.5" font-family="SegoeUI" font-size="10.00">+ Reset()</text>
<text text-anchor="start" x="68.5" y="-157.5" font-family="SegoeUI" font-size="10.00">+ Install()</text>
<text text-anchor="start" x="68.5" y="-146.5" font-family="SegoeUI" font-size="10.00">+ Uninstall()</text>
<text text-anchor="start" x="68.5" y="-135.5" font-family="SegoeUI" font-size="10.00">+ Update()</text>
<text text-anchor="start" x="68.5" y="-124.5" font-family="SegoeUI" font-size="10.00">&#45; ChangeDisplayType()</text>
<text text-anchor="start" x="68.5" y="-113.5" font-family="SegoeUI" font-size="10.00">&#45; ChangeARMode()</text>
</a>
</g>
</g>
<!-- Node5&#45;&gt;Node4 -->
<g id="edge1" class="edge"><title>Node5&#45;&gt;Node4</title>
<path fill="none" stroke="midnightblue" d="M120,-96.3358C120,-86.3631 120,-77.018 120,-68.7869"/>
<polygon fill="none" stroke="midnightblue" points="116.5,-96.4995 120,-106.5 123.5,-96.4996 116.5,-96.4995"/>
</g>
<!-- Node6 -->
<g id="node3" class="node"><title>Node6</title>
<g id="a_node3"><a xlink:title=" ">
<polygon fill="white" stroke="#bfbfbf" points="0,-690.5 0,-747.5 82,-747.5 82,-690.5 0,-690.5"/>
<text text-anchor="middle" x="41" y="-735.5" font-family="SegoeUI" font-size="10.00">MonoBehaviour</text>
<polyline fill="none" stroke="#bfbfbf" points="0,-728.5 82,-728.5 "/>
<text text-anchor="middle" x="41" y="-716.5" font-family="SegoeUI" font-size="10.00"> </text>
<polyline fill="none" stroke="#bfbfbf" points="0,-709.5 82,-709.5 "/>
<text text-anchor="middle" x="41" y="-697.5" font-family="SegoeUI" font-size="10.00"> </text>
</a>
</g>
</g>
<!-- Node6&#45;&gt;Node5 -->
<g id="edge2" class="edge"><title>Node6&#45;&gt;Node5</title>
<path fill="none" stroke="midnightblue" d="M47.2237,-680.382C58.0688,-614.831 80.9169,-476.73 98.1372,-372.645"/>
<polygon fill="none" stroke="midnightblue" points="43.7681,-679.826 45.5888,-690.264 50.6742,-680.969 43.7681,-679.826"/>
</g>
<!-- Node8 -->
<g id="node5" class="node"><title>Node8</title>
<g id="a_node5"><a xlink:href="../../d5/d97/class_juniper_1_1_unity_1_1_juniper_platform.html" target="_top" xlink:title=" ">
<polygon fill="white" stroke="black" points="115,-420.5 115,-631.5 257,-631.5 257,-420.5 115,-420.5"/>
<text text-anchor="middle" x="186" y="-619.5" font-family="SegoeUI" font-size="10.00">Juniper.Unity.JuniperPlatform</text>
<polyline fill="none" stroke="black" points="115,-612.5 257,-612.5 "/>
<text text-anchor="start" x="123" y="-600.5" font-family="SegoeUI" font-size="10.00">+ CurrentPlatform</text>
<text text-anchor="start" x="123" y="-589.5" font-family="SegoeUI" font-size="10.00">+ System</text>
<text text-anchor="start" x="123" y="-578.5" font-family="SegoeUI" font-size="10.00">+ DisplayType</text>
<text text-anchor="start" x="123" y="-567.5" font-family="SegoeUI" font-size="10.00">+ SupportedDisplayType</text>
<text text-anchor="start" x="123" y="-556.5" font-family="SegoeUI" font-size="10.00">+ ARMode</text>
<text text-anchor="start" x="123" y="-545.5" font-family="SegoeUI" font-size="10.00">+ SupportedARMode</text>
<text text-anchor="start" x="123" y="-534.5" font-family="SegoeUI" font-size="10.00">+ Option</text>
<text text-anchor="start" x="123" y="-523.5" font-family="SegoeUI" font-size="10.00">+ VRPlatformHasPassthrough</text>
<text text-anchor="start" x="123" y="-512.5" font-family="SegoeUI" font-size="10.00">+ IsARCapablePlatform</text>
<polyline fill="none" stroke="black" points="115,-505.5 257,-505.5 "/>
<text text-anchor="start" x="123" y="-493.5" font-family="SegoeUI" font-size="10.00">+ Awake()</text>
<text text-anchor="start" x="123" y="-482.5" font-family="SegoeUI" font-size="10.00">+ Reinstall()</text>
<text text-anchor="start" x="123" y="-471.5" font-family="SegoeUI" font-size="10.00">+ Reset()</text>
<text text-anchor="start" x="123" y="-460.5" font-family="SegoeUI" font-size="10.00">+ OnValidate()</text>
<text text-anchor="start" x="123" y="-449.5" font-family="SegoeUI" font-size="10.00">+ Install()</text>
<text text-anchor="start" x="123" y="-438.5" font-family="SegoeUI" font-size="10.00">+ Uninstall()</text>
<text text-anchor="start" x="123" y="-427.5" font-family="SegoeUI" font-size="10.00">+ Ensure()</text>
</a>
</g>
</g>
<!-- Node6&#45;&gt;Node8 -->
<g id="edge5" class="edge"><title>Node6&#45;&gt;Node8</title>
<path fill="none" stroke="midnightblue" d="M68.3159,-682.018C81.5907,-664.532 98.2264,-642.619 114.774,-620.822"/>
<polygon fill="none" stroke="midnightblue" points="65.3432,-680.146 62.0842,-690.227 70.9186,-684.378 65.3432,-680.146"/>
</g>
<!-- Node7 -->
<g id="node4" class="node"><title>Node7</title>
<g id="a_node4"><a xlink:href="../../db/d28/interface_juniper_1_1_i_installable.html" target="_top" xlink:title=" ">
<polygon fill="white" stroke="black" points="102.5,-679.5 102.5,-758.5 171.5,-758.5 171.5,-679.5 102.5,-679.5"/>
<text text-anchor="middle" x="137" y="-746.5" font-family="SegoeUI" font-size="10.00">IInstallable</text>
<polyline fill="none" stroke="black" points="102.5,-739.5 171.5,-739.5 "/>
<text text-anchor="middle" x="137" y="-727.5" font-family="SegoeUI" font-size="10.00"> </text>
<polyline fill="none" stroke="black" points="102.5,-720.5 171.5,-720.5 "/>
<text text-anchor="start" x="110.5" y="-708.5" font-family="SegoeUI" font-size="10.00">+ Install()</text>
<text text-anchor="start" x="110.5" y="-697.5" font-family="SegoeUI" font-size="10.00">+ Reinstall()</text>
<text text-anchor="start" x="110.5" y="-686.5" font-family="SegoeUI" font-size="10.00">+ Uninstall()</text>
</a>
</g>
</g>
<!-- Node7&#45;&gt;Node5 -->
<g id="edge3" class="edge"><title>Node7&#45;&gt;Node5</title>
<path fill="none" stroke="midnightblue" d="M116.366,-669.901C112.079,-657.754 108.199,-644.583 106,-632 91.0743,-546.579 94.4887,-449.133 101.677,-372.829"/>
<polygon fill="none" stroke="midnightblue" points="113.122,-671.22 119.867,-679.391 119.69,-668.798 113.122,-671.22"/>
</g>
<!-- Node7&#45;&gt;Node8 -->
<g id="edge6" class="edge"><title>Node7&#45;&gt;Node8</title>
<path fill="none" stroke="midnightblue" d="M149.463,-669.418C152.464,-657.723 155.784,-644.78 159.165,-631.603"/>
<polygon fill="none" stroke="midnightblue" points="146.011,-668.792 146.916,-679.348 152.791,-670.532 146.011,-668.792"/>
</g>
<!-- Node8&#45;&gt;Node5 -->
<g id="edge4" class="edge"><title>Node8&#45;&gt;Node5</title>
<path fill="none" stroke="#404040" d="M161.705,-420.275C159.004,-408.63 156.218,-396.623 153.429,-384.599"/>
<polygon fill="none" stroke="#404040" points="153.353,-384.271 148.1,-379.33 150.641,-372.582 155.894,-377.522 153.353,-384.271"/>
<text text-anchor="middle" x="166.5" y="-394" font-family="SegoeUI" font-size="10.00"> #jp</text>
</g>
<!-- Node9 -->
<g id="node6" class="node"><title>Node9</title>
<g id="a_node6"><a xlink:title=" ">
<polygon fill="white" stroke="#bfbfbf" points="233.5,-690.5 233.5,-747.5 272.5,-747.5 272.5,-690.5 233.5,-690.5"/>
<text text-anchor="middle" x="253" y="-735.5" font-family="SegoeUI" font-size="10.00">static</text>
<polyline fill="none" stroke="#bfbfbf" points="233.5,-728.5 272.5,-728.5 "/>
<text text-anchor="middle" x="253" y="-716.5" font-family="SegoeUI" font-size="10.00"> </text>
<polyline fill="none" stroke="#bfbfbf" points="233.5,-709.5 272.5,-709.5 "/>
<text text-anchor="middle" x="253" y="-697.5" font-family="SegoeUI" font-size="10.00"> </text>
</a>
</g>
</g>
<!-- Node9&#45;&gt;Node5 -->
<g id="edge8" class="edge"><title>Node9&#45;&gt;Node5</title>
<path fill="none" stroke="#404040" d="M271.558,-690.45C276.62,-681.452 281.418,-671.153 284,-661 310.476,-556.905 305.887,-519.729 266,-420 248.825,-377.058 217.567,-336.434 188.368,-304.729"/>
<polygon fill="none" stroke="#404040" points="188.014,-304.353 180.99,-302.719 179.797,-295.607 186.82,-297.241 188.014,-304.353"/>
<text text-anchor="middle" x="313.5" y="-523.5" font-family="SegoeUI" font-size="10.00"> &#45;cam</text>
</g>
<!-- Node9&#45;&gt;Node8 -->
<g id="edge7" class="edge"><title>Node9&#45;&gt;Node8</title>
<path fill="none" stroke="#404040" d="M233.247,-708.772C215.886,-699.449 191.762,-683.245 181,-661 178.282,-655.381 176.188,-649.469 174.617,-643.387"/>
<polygon fill="none" stroke="#404040" points="174.595,-643.276 169.484,-638.188 172.215,-631.514 177.325,-636.602 174.595,-643.276"/>
<text text-anchor="middle" x="232.5" y="-653" font-family="SegoeUI" font-size="10.00"> +CURRENT_PLATFORM</text>
</g>
</g>
</svg>
