<?xml version="1.0" encoding="UTF-8" standalone="no"?>
<!DOCTYPE svg PUBLIC "-//W3C//DTD SVG 1.1//EN"
 "http://www.w3.org/Graphics/SVG/1.1/DTD/svg11.dtd">
<!-- Generated by graphviz version 2.38.0 (20140413.2041)
 -->
<!-- Title: Juniper.Unity.Audio.InteractionAudio Pages: 1 -->
<!--zoomable 1312 -->
<svg id="main" version="1.1" xmlns="http://www.w3.org/2000/svg" xmlns:xlink="http://www.w3.org/1999/xlink" xml:space="preserve" onload="init(evt)">
<style type="text/css"><![CDATA[
.edge:hover path { stroke: red; }
.edge:hover polygon { stroke: red; fill: red; }
]]></style>
<script type="text/javascript"><![CDATA[
var edges = document.getElementsByTagName('g');
if (edges && edges.length) {
  for (var i=0;i<edges.length;i++) {
    if (edges[i].id.substr(0,4)=='edge') {
      edges[i].setAttribute('class','edge');
    }
  }
}
]]></script>
        <defs>
                <circle id="rim" cx="0" cy="0" r="7"/>
                <circle id="rim2" cx="0" cy="0" r="3.5"/>
                <g id="zoomPlus">
                        <use xlink:href="#rim" fill="#404040">
                                <set attributeName="fill" to="#808080" begin="zoomplus.mouseover" end="zoomplus.mouseout"/>
                        </use>
                        <path d="M-4,0h8M0,-4v8" fill="none" stroke="white" stroke-width="1.5" pointer-events="none"/>
                </g>
                <g id="zoomMin">
                        <use xlink:href="#rim" fill="#404040">
                                <set attributeName="fill" to="#808080" begin="zoomminus.mouseover" end="zoomminus.mouseout"/>
                        </use>
                        <path d="M-4,0h8" fill="none" stroke="white" stroke-width="1.5" pointer-events="none"/>
                </g>
                <g id="dirArrow">
                        <path fill="none" stroke="white" stroke-width="1.5" d="M0,-3.0v7 M-2.5,-0.5L0,-3.0L2.5,-0.5"/>
                </g>
               <g id="resetDef">
                       <use xlink:href="#rim2" fill="#404040">
                               <set attributeName="fill" to="#808080" begin="reset.mouseover" end="reset.mouseout"/>
                       </use>
               </g>
        </defs>

<script type="text/javascript">
var viewWidth = 623;
var viewHeight = 1312;
var sectionId = 'dynsection-1';
</script>
<script xlink:href="../../svgpan.js"/>
<svg id="graph" class="graph">
<g id="viewport">
<title>Juniper.Unity.Audio.InteractionAudio</title>
<polygon fill="white" stroke="none" points="-4,4 -4,-1308 618.5,-1308 618.5,4 -4,4"/>
<!-- Node5 -->
<g id="node1" class="node"><title>Node5</title>
<g id="a_node1"><a xlink:title="The audio portion of the interaction system.">
<polygon fill="#bfbfbf" stroke="black" points="225.5,-0.5 225.5,-68.5 372.5,-68.5 372.5,-0.5 225.5,-0.5"/>
<text text-anchor="start" x="233.5" y="-56.5" font-family="SegoeUI" font-size="10.00">Juniper.Unity.Audio.Interaction</text>
<text text-anchor="middle" x="299" y="-45.5" font-family="SegoeUI" font-size="10.00">Audio</text>
<polyline fill="none" stroke="black" points="225.5,-38.5 372.5,-38.5 "/>
<text text-anchor="middle" x="299" y="-26.5" font-family="SegoeUI" font-size="10.00"> </text>
<polyline fill="none" stroke="black" points="225.5,-19.5 372.5,-19.5 "/>
<text text-anchor="middle" x="299" y="-7.5" font-family="SegoeUI" font-size="10.00"> </text>
</a>
</g>
</g>
<!-- Node6 -->
<g id="node2" class="node"><title>Node6</title>
<g id="a_node2"><a xlink:href="../../da/d1b/class_juniper_1_1_unity_1_1_audio_1_1_resonance_interaction_audio.html" target="_top" xlink:title=" ">
<polygon fill="white" stroke="black" points="232.5,-106.5 232.5,-207.5 365.5,-207.5 365.5,-106.5 232.5,-106.5"/>
<text text-anchor="middle" x="299" y="-195.5" font-family="SegoeUI" font-size="10.00">ResonanceInteractionAudio</text>
<polyline fill="none" stroke="black" points="232.5,-188.5 365.5,-188.5 "/>
<text text-anchor="start" x="240.5" y="-176.5" font-family="SegoeUI" font-size="10.00">+ DefaultAudioMixer</text>
<text text-anchor="start" x="240.5" y="-165.5" font-family="SegoeUI" font-size="10.00"># resListener</text>
<polyline fill="none" stroke="black" points="232.5,-158.5 365.5,-158.5 "/>
<text text-anchor="start" x="240.5" y="-146.5" font-family="SegoeUI" font-size="10.00">+ Install()</text>
<text text-anchor="start" x="240.5" y="-135.5" font-family="SegoeUI" font-size="10.00">+ Uninstall()</text>
<text text-anchor="start" x="240.5" y="-124.5" font-family="SegoeUI" font-size="10.00"># InternalSpatialize()</text>
<text text-anchor="start" x="240.5" y="-113.5" font-family="SegoeUI" font-size="10.00">&#45; OnDisplayTypeChange()</text>
</a>
</g>
</g>
<!-- Node6&#45;&gt;Node5 -->
<g id="edge1" class="edge"><title>Node6&#45;&gt;Node5</title>
<path fill="none" stroke="midnightblue" d="M299,-96.0742C299,-86.6128 299,-77.1409 299,-68.5915"/>
<polygon fill="none" stroke="midnightblue" points="295.5,-96.2923 299,-106.292 302.5,-96.2924 295.5,-96.2923"/>
</g>
<!-- Node7 -->
<g id="node3" class="node"><title>Node7</title>
<g id="a_node3"><a xlink:href="../../d2/dab/class_juniper_1_1_unity_1_1_audio_1_1_abstract_interaction_audio.html" target="_top" xlink:title="The audio portion of the interaction system.">
<polygon fill="white" stroke="black" points="233,-245.5 233,-709.5 365,-709.5 365,-245.5 233,-245.5"/>
<text text-anchor="middle" x="299" y="-697.5" font-family="SegoeUI" font-size="10.00">AbstractInteractionAudio</text>
<polyline fill="none" stroke="black" points="233,-690.5 365,-690.5 "/>
<text text-anchor="start" x="241" y="-678.5" font-family="SegoeUI" font-size="10.00">+ defaultMixerGroup</text>
<text text-anchor="start" x="241" y="-667.5" font-family="SegoeUI" font-size="10.00">+ volumeSlider</text>
<text text-anchor="start" x="241" y="-656.5" font-family="SegoeUI" font-size="10.00">+ soundOnOpened</text>
<text text-anchor="start" x="241" y="-645.5" font-family="SegoeUI" font-size="10.00">+ soundOnStartUp</text>
<text text-anchor="start" x="241" y="-634.5" font-family="SegoeUI" font-size="10.00">+ soundOnShutDown</text>
<text text-anchor="start" x="241" y="-623.5" font-family="SegoeUI" font-size="10.00">+ DefaultAudioMixer</text>
<text text-anchor="start" x="241" y="-612.5" font-family="SegoeUI" font-size="10.00">+ Volume</text>
<text text-anchor="start" x="241" y="-601.5" font-family="SegoeUI" font-size="10.00"># listener</text>
<text text-anchor="start" x="241" y="-590.5" font-family="SegoeUI" font-size="10.00">&#45; MASTER_VOLUME_KEY</text>
<text text-anchor="start" x="241" y="-579.5" font-family="SegoeUI" font-size="10.00">&#45; audioSources</text>
<text text-anchor="start" x="241" y="-568.5" font-family="SegoeUI" font-size="10.00">&#45; camT</text>
<text text-anchor="start" x="241" y="-557.5" font-family="SegoeUI" font-size="10.00">&#45; E</text>
<polyline fill="none" stroke="black" points="233,-550.5 365,-550.5 "/>
<text text-anchor="start" x="241" y="-538.5" font-family="SegoeUI" font-size="10.00">+ Spatialize()</text>
<text text-anchor="start" x="241" y="-527.5" font-family="SegoeUI" font-size="10.00">+ Spatialize()</text>
<text text-anchor="start" x="241" y="-516.5" font-family="SegoeUI" font-size="10.00">+ Spatialize()</text>
<text text-anchor="start" x="241" y="-505.5" font-family="SegoeUI" font-size="10.00">+ Spatialize()</text>
<text text-anchor="start" x="241" y="-494.5" font-family="SegoeUI" font-size="10.00">+ Install()</text>
<text text-anchor="start" x="241" y="-483.5" font-family="SegoeUI" font-size="10.00">+ Reinstall()</text>
<text text-anchor="start" x="241" y="-472.5" font-family="SegoeUI" font-size="10.00">+ Uninstall()</text>
<text text-anchor="start" x="241" y="-461.5" font-family="SegoeUI" font-size="10.00">+ Awake()</text>
<text text-anchor="start" x="241" y="-450.5" font-family="SegoeUI" font-size="10.00">+ Start()</text>
<text text-anchor="start" x="241" y="-439.5" font-family="SegoeUI" font-size="10.00">+ OnValidate()</text>
<text text-anchor="start" x="241" y="-428.5" font-family="SegoeUI" font-size="10.00">+ GetHapticExpressions()</text>
<text text-anchor="start" x="241" y="-417.5" font-family="SegoeUI" font-size="10.00">+ Play()</text>
<text text-anchor="start" x="241" y="-406.5" font-family="SegoeUI" font-size="10.00">+ Play()</text>
<text text-anchor="start" x="241" y="-395.5" font-family="SegoeUI" font-size="10.00">+ Play()</text>
<text text-anchor="start" x="241" y="-384.5" font-family="SegoeUI" font-size="10.00">+ Play()</text>
<text text-anchor="start" x="241" y="-373.5" font-family="SegoeUI" font-size="10.00"># InternalSpatialize()</text>
<text text-anchor="start" x="241" y="-362.5" font-family="SegoeUI" font-size="10.00">&#45; Volume_ValueChange()</text>
<text text-anchor="start" x="241" y="-351.5" font-family="SegoeUI" font-size="10.00">&#45; GetClipCollection()</text>
<text text-anchor="start" x="241" y="-340.5" font-family="SegoeUI" font-size="10.00">&#45; Wait()</text>
<text text-anchor="start" x="241" y="-329.5" font-family="SegoeUI" font-size="10.00">&#45; Play_Internal()</text>
<text text-anchor="start" x="241" y="-318.5" font-family="SegoeUI" font-size="10.00">&#45; Play_Internal()</text>
<text text-anchor="start" x="241" y="-307.5" font-family="SegoeUI" font-size="10.00">&#45; Play_Internal()</text>
<text text-anchor="start" x="241" y="-296.5" font-family="SegoeUI" font-size="10.00">&#45; Play_Internal()</text>
<text text-anchor="start" x="241" y="-285.5" font-family="SegoeUI" font-size="10.00">&#45; PlayHaptics()</text>
<text text-anchor="start" x="241" y="-274.5" font-family="SegoeUI" font-size="10.00">&#45; PlayClip()</text>
<text text-anchor="start" x="241" y="-263.5" font-family="SegoeUI" font-size="10.00">&#45; GetAudioSource()</text>
<text text-anchor="start" x="241" y="-252.5" font-family="SegoeUI" font-size="10.00">&#45; CreateNewAudioSource()</text>
</a>
</g>
</g>
<!-- Node7&#45;&gt;Node6 -->
<g id="edge2" class="edge"><title>Node7&#45;&gt;Node6</title>
<path fill="none" stroke="midnightblue" d="M299,-235.147C299,-225.443 299,-216.299 299,-207.932"/>
<polygon fill="none" stroke="midnightblue" points="295.5,-235.453 299,-245.453 302.5,-235.453 295.5,-235.453"/>
</g>
<!-- Node8 -->
<g id="node4" class="node"><title>Node8</title>
<g id="a_node4"><a xlink:title=" ">
<polygon fill="white" stroke="#bfbfbf" points="0,-906 0,-963 82,-963 82,-906 0,-906"/>
<text text-anchor="middle" x="41" y="-951" font-family="SegoeUI" font-size="10.00">MonoBehaviour</text>
<polyline fill="none" stroke="#bfbfbf" points="0,-944 82,-944 "/>
<text text-anchor="middle" x="41" y="-932" font-family="SegoeUI" font-size="10.00"> </text>
<polyline fill="none" stroke="#bfbfbf" points="0,-925 82,-925 "/>
<text text-anchor="middle" x="41" y="-913" font-family="SegoeUI" font-size="10.00"> </text>
</a>
</g>
</g>
<!-- Node8&#45;&gt;Node7 -->
<g id="edge3" class="edge"><title>Node8&#45;&gt;Node7</title>
<path fill="none" stroke="midnightblue" d="M61.8709,-896.693C98.6414,-831.846 176.417,-694.684 232.896,-595.079"/>
<polygon fill="none" stroke="midnightblue" points="58.6387,-895.297 56.7507,-905.723 64.7279,-898.75 58.6387,-895.297"/>
</g>
<!-- Node9 -->
<g id="node5" class="node"><title>Node9</title>
<g id="a_node5"><a xlink:href="../../db/d28/interface_juniper_1_1_i_installable.html" target="_top" xlink:title="Defines an interface for objects that can be installed and have their installation progress tracked.">
<polygon fill="white" stroke="black" points="100.5,-895 100.5,-974 169.5,-974 169.5,-895 100.5,-895"/>
<text text-anchor="middle" x="135" y="-962" font-family="SegoeUI" font-size="10.00">IInstallable</text>
<polyline fill="none" stroke="black" points="100.5,-955 169.5,-955 "/>
<text text-anchor="middle" x="135" y="-943" font-family="SegoeUI" font-size="10.00"> </text>
<polyline fill="none" stroke="black" points="100.5,-936 169.5,-936 "/>
<text text-anchor="start" x="108.5" y="-924" font-family="SegoeUI" font-size="10.00">+ Install()</text>
<text text-anchor="start" x="108.5" y="-913" font-family="SegoeUI" font-size="10.00">+ Reinstall()</text>
<text text-anchor="start" x="108.5" y="-902" font-family="SegoeUI" font-size="10.00">+ Uninstall()</text>
</a>
</g>
</g>
<!-- Node9&#45;&gt;Node7 -->
<g id="edge4" class="edge"><title>Node9&#45;&gt;Node7</title>
<path fill="none" stroke="midnightblue" d="M152.418,-885.176C171.637,-831.854 203.733,-742.808 232.999,-661.612"/>
<polygon fill="none" stroke="midnightblue" points="149.081,-884.113 148.983,-894.707 155.666,-886.486 149.081,-884.113"/>
</g>
<!-- Node10 -->
<g id="node6" class="node"><title>Node10</title>
<g id="a_node6"><a xlink:href="../../d3/d6d/class_juniper_1_1_unity_1_1_audio_1_1_audio_clip_collection.html" target="_top" xlink:title="A collection of related audio clips. For example, one might have many different gunshot sounds to hav...">
<polygon fill="white" stroke="black" points="187.5,-867.5 187.5,-1001.5 312.5,-1001.5 312.5,-867.5 187.5,-867.5"/>
<text text-anchor="start" x="195.5" y="-989.5" font-family="SegoeUI" font-size="10.00">Juniper.Unity.Audio.Audio</text>
<text text-anchor="middle" x="250" y="-978.5" font-family="SegoeUI" font-size="10.00">ClipCollection</text>
<polyline fill="none" stroke="black" points="187.5,-971.5 312.5,-971.5 "/>
<text text-anchor="start" x="195.5" y="-959.5" font-family="SegoeUI" font-size="10.00">+ randomizePitch</text>
<text text-anchor="start" x="195.5" y="-948.5" font-family="SegoeUI" font-size="10.00">+ clips</text>
<text text-anchor="start" x="195.5" y="-937.5" font-family="SegoeUI" font-size="10.00">+ Length</text>
<text text-anchor="start" x="195.5" y="-926.5" font-family="SegoeUI" font-size="10.00">+ RandomizeClipPitch</text>
<text text-anchor="start" x="195.5" y="-915.5" font-family="SegoeUI" font-size="10.00">+ this[int index]</text>
<polyline fill="none" stroke="black" points="187.5,-908.5 312.5,-908.5 "/>
<text text-anchor="start" x="195.5" y="-896.5" font-family="SegoeUI" font-size="10.00">+ Random()</text>
<text text-anchor="start" x="195.5" y="-885.5" font-family="SegoeUI" font-size="10.00">+ GetEnumerator()</text>
<text text-anchor="start" x="195.5" y="-874.5" font-family="SegoeUI" font-size="10.00">&#45; GetEnumerator()</text>
</a>
</g>
</g>
<!-- Node10&#45;&gt;Node7 -->
<g id="edge5" class="edge"><title>Node10&#45;&gt;Node7</title>
<path fill="none" stroke="#404040" d="M247.687,-867.169C247.015,-826.834 247.446,-774.338 252,-728 252.204,-725.927 252.416,-723.845 252.636,-721.755"/>
<polygon fill="none" stroke="#404040" points="252.649,-721.64 249.342,-715.232 253.985,-709.715 257.292,-716.123 252.649,-721.64"/>
<text text-anchor="middle" x="293.5" y="-841" font-family="SegoeUI" font-size="10.00"> +soundOnSuccess</text>
<text text-anchor="middle" x="293.5" y="-830" font-family="SegoeUI" font-size="10.00">+soundOnDragged</text>
<text text-anchor="middle" x="293.5" y="-819" font-family="SegoeUI" font-size="10.00">+soundOnDisabled</text>
<text text-anchor="middle" x="293.5" y="-808" font-family="SegoeUI" font-size="10.00">+soundOnScrolled</text>
<text text-anchor="middle" x="293.5" y="-797" font-family="SegoeUI" font-size="10.00">+soundOnEntered</text>
<text text-anchor="middle" x="293.5" y="-786" font-family="SegoeUI" font-size="10.00">+soundOnExited</text>
<text text-anchor="middle" x="293.5" y="-775" font-family="SegoeUI" font-size="10.00">+soundOnReleased</text>
<text text-anchor="middle" x="293.5" y="-764" font-family="SegoeUI" font-size="10.00">+soundOnSelected</text>
<text text-anchor="middle" x="293.5" y="-753" font-family="SegoeUI" font-size="10.00">+soundOnError</text>
<text text-anchor="middle" x="293.5" y="-742" font-family="SegoeUI" font-size="10.00">+soundOnClosed</text>
<text text-anchor="middle" x="293.5" y="-731" font-family="SegoeUI" font-size="10.00">...</text>
</g>
<!-- Node11 -->
<g id="node7" class="node"><title>Node11</title>
<g id="a_node7"><a xlink:title=" ">
<polygon fill="white" stroke="#bfbfbf" points="106.5,-1140.5 106.5,-1197.5 193.5,-1197.5 193.5,-1140.5 106.5,-1140.5"/>
<text text-anchor="middle" x="150" y="-1185.5" font-family="SegoeUI" font-size="10.00">ScriptableObject</text>
<polyline fill="none" stroke="#bfbfbf" points="106.5,-1178.5 193.5,-1178.5 "/>
<text text-anchor="middle" x="150" y="-1166.5" font-family="SegoeUI" font-size="10.00"> </text>
<polyline fill="none" stroke="#bfbfbf" points="106.5,-1159.5 193.5,-1159.5 "/>
<text text-anchor="middle" x="150" y="-1147.5" font-family="SegoeUI" font-size="10.00"> </text>
</a>
</g>
</g>
<!-- Node11&#45;&gt;Node10 -->
<g id="edge6" class="edge"><title>Node11&#45;&gt;Node10</title>
<path fill="none" stroke="midnightblue" d="M165.851,-1131.15C180.754,-1096.5 203.406,-1043.83 221.455,-1001.87"/>
<polygon fill="none" stroke="midnightblue" points="162.6,-1129.85 161.864,-1140.42 169.03,-1132.61 162.6,-1129.85"/>
</g>
<!-- Node12 -->
<g id="node8" class="node"><title>Node12</title>
<g id="a_node8"><a xlink:href="../../da/d46/interface_juniper_1_1_unity_1_1_audio_1_1_i_audio_clip_collection.html" target="_top" xlink:title="The IAudioClipCollection interface is implemented by two classes. One is a savable collection of audi...">
<polygon fill="white" stroke="black" points="211.5,-1129.5 211.5,-1208.5 320.5,-1208.5 320.5,-1129.5 211.5,-1129.5"/>
<text text-anchor="middle" x="266" y="-1196.5" font-family="SegoeUI" font-size="10.00">IAudioClipCollection</text>
<polyline fill="none" stroke="black" points="211.5,-1189.5 320.5,-1189.5 "/>
<text text-anchor="start" x="219.5" y="-1177.5" font-family="SegoeUI" font-size="10.00">+ Length</text>
<text text-anchor="start" x="219.5" y="-1166.5" font-family="SegoeUI" font-size="10.00">+ RandomizeClipPitch</text>
<text text-anchor="start" x="219.5" y="-1155.5" font-family="SegoeUI" font-size="10.00">+ this[int index]</text>
<polyline fill="none" stroke="black" points="211.5,-1148.5 320.5,-1148.5 "/>
<text text-anchor="start" x="219.5" y="-1136.5" font-family="SegoeUI" font-size="10.00">+ Random()</text>
</a>
</g>
</g>
<!-- Node12&#45;&gt;Node10 -->
<g id="edge7" class="edge"><title>Node12&#45;&gt;Node10</title>
<path fill="none" stroke="midnightblue" d="M262.638,-1119.15C260.288,-1085 257.122,-1039 254.547,-1001.57"/>
<polygon fill="none" stroke="midnightblue" points="259.162,-1119.61 263.34,-1129.35 266.145,-1119.13 259.162,-1119.61"/>
</g>
<!-- Node13 -->
<g id="node9" class="node"><title>Node13</title>
<g id="a_node9"><a xlink:title=" ">
<polygon fill="white" stroke="#bfbfbf" points="257,-1246.5 257,-1303.5 387,-1303.5 387,-1246.5 257,-1246.5"/>
<text text-anchor="middle" x="322" y="-1291.5" font-family="SegoeUI" font-size="10.00">IEnumerable&lt; AudioClip &gt;</text>
<polyline fill="none" stroke="#bfbfbf" points="257,-1284.5 387,-1284.5 "/>
<text text-anchor="middle" x="322" y="-1272.5" font-family="SegoeUI" font-size="10.00"> </text>
<polyline fill="none" stroke="#bfbfbf" points="257,-1265.5 387,-1265.5 "/>
<text text-anchor="middle" x="322" y="-1253.5" font-family="SegoeUI" font-size="10.00"> </text>
</a>
</g>
</g>
<!-- Node13&#45;&gt;Node12 -->
<g id="edge8" class="edge"><title>Node13&#45;&gt;Node12</title>
<path fill="none" stroke="midnightblue" d="M302.291,-1237.4C297.286,-1228.1 291.892,-1218.08 286.832,-1208.69"/>
<polygon fill="none" stroke="midnightblue" points="299.317,-1239.26 307.14,-1246.4 305.481,-1235.94 299.317,-1239.26"/>
</g>
<!-- Node16 -->
<g id="node12" class="node"><title>Node16</title>
<g id="a_node12"><a xlink:href="../../da/d46/interface_juniper_1_1_unity_1_1_audio_1_1_i_audio_clip_collection.html" target="_top" xlink:title="The IAudioClipCollection interface is implemented by two classes. One is a savable collection of audi...">
<polygon fill="white" stroke="black" points="285,-1020.5 285,-1110.5 413,-1110.5 413,-1020.5 285,-1020.5"/>
<text text-anchor="start" x="293" y="-1098.5" font-family="SegoeUI" font-size="10.00">Juniper.Unity.Audio.IAudio</text>
<text text-anchor="middle" x="349" y="-1087.5" font-family="SegoeUI" font-size="10.00">ClipCollection</text>
<polyline fill="none" stroke="black" points="285,-1080.5 413,-1080.5 "/>
<text text-anchor="start" x="293" y="-1068.5" font-family="SegoeUI" font-size="10.00">+ Length</text>
<text text-anchor="start" x="293" y="-1057.5" font-family="SegoeUI" font-size="10.00">+ RandomizeClipPitch</text>
<text text-anchor="start" x="293" y="-1046.5" font-family="SegoeUI" font-size="10.00">+ this[int index]</text>
<polyline fill="none" stroke="black" points="285,-1039.5 413,-1039.5 "/>
<text text-anchor="start" x="293" y="-1027.5" font-family="SegoeUI" font-size="10.00">+ Random()</text>
</a>
</g>
</g>
<!-- Node13&#45;&gt;Node16 -->
<g id="edge12" class="edge"><title>Node13&#45;&gt;Node16</title>
<path fill="none" stroke="midnightblue" d="M326.934,-1236.08C331.528,-1200.77 338.377,-1148.14 343.224,-1110.89"/>
<polygon fill="none" stroke="midnightblue" points="323.405,-1236.08 325.585,-1246.45 330.347,-1236.98 323.405,-1236.08"/>
</g>
<!-- Node14 -->
<g id="node10" class="node"><title>Node14</title>
<g id="a_node10"><a xlink:href="../../dd/d6e/interface_juniper_1_1_unity_1_1_widgets_1_1_i_valued_control.html" target="_top" xlink:title=" ">
<polygon fill="white" stroke="black" points="413,-900.5 413,-968.5 557,-968.5 557,-900.5 413,-900.5"/>
<text text-anchor="start" x="421" y="-956.5" font-family="SegoeUI" font-size="10.00">Juniper.Unity.Widgets.IValued</text>
<text text-anchor="middle" x="485" y="-945.5" font-family="SegoeUI" font-size="10.00">Control&lt; float &gt;</text>
<polyline fill="none" stroke="black" points="413,-938.5 557,-938.5 "/>
<text text-anchor="start" x="421" y="-926.5" font-family="SegoeUI" font-size="10.00">+ value</text>
<polyline fill="none" stroke="black" points="413,-919.5 557,-919.5 "/>
<text text-anchor="middle" x="485" y="-907.5" font-family="SegoeUI" font-size="10.00"> </text>
</a>
</g>
</g>
<!-- Node14&#45;&gt;Node7 -->
<g id="edge9" class="edge"><title>Node14&#45;&gt;Node7</title>
<path fill="none" stroke="#404040" d="M471.474,-900.411C450.145,-848.237 407.247,-743.299 369.572,-651.135"/>
<polygon fill="none" stroke="#404040" points="369.546,-651.071 363.573,-647.031 365.005,-639.964 370.978,-644.004 369.546,-651.071"/>
<text text-anchor="middle" x="469" y="-786" font-family="SegoeUI" font-size="10.00"> &#45;volume</text>
</g>
<!-- Node15 -->
<g id="node11" class="node"><title>Node15</title>
<g id="a_node11"><a xlink:href="../../dd/d6e/interface_juniper_1_1_unity_1_1_widgets_1_1_i_valued_control.html" target="_top" xlink:title=" ">
<polygon fill="white" stroke="black" points="413,-1135 413,-1203 557,-1203 557,-1135 413,-1135"/>
<text text-anchor="start" x="421" y="-1191" font-family="SegoeUI" font-size="10.00">Juniper.Unity.Widgets.IValued</text>
<text text-anchor="middle" x="485" y="-1180" font-family="SegoeUI" font-size="10.00">Control&lt; T &gt;</text>
<polyline fill="none" stroke="black" points="413,-1173 557,-1173 "/>
<text text-anchor="start" x="421" y="-1161" font-family="SegoeUI" font-size="10.00">+ value</text>
<polyline fill="none" stroke="black" points="413,-1154 557,-1154 "/>
<text text-anchor="middle" x="485" y="-1142" font-family="SegoeUI" font-size="10.00"> </text>
</a>
</g>
</g>
<!-- Node15&#45;&gt;Node14 -->
<g id="edge10" class="edge"><title>Node15&#45;&gt;Node14</title>
<path fill="none" stroke="orange" d="M485,-1124.61C485,-1079.45 485,-1009.73 485,-968.75"/>
<polygon fill="orange" stroke="orange" points="481.5,-1124.69 485,-1134.69 488.5,-1124.69 481.5,-1124.69"/>
<text text-anchor="middle" x="506" y="-1063" font-family="SegoeUI" font-size="10.00"> &lt; float &gt;</text>
</g>
<!-- Node16&#45;&gt;Node7 -->
<g id="edge11" class="edge"><title>Node16&#45;&gt;Node7</title>
<path fill="none" stroke="#404040" d="M348.592,-1020.31C347.673,-955.897 344.688,-832.507 335,-728 334.809,-725.94 334.613,-723.872 334.412,-721.795"/>
<polygon fill="none" stroke="#404040" points="334.408,-721.761 329.828,-716.192 333.207,-709.821 337.788,-715.391 334.408,-721.761"/>
<text text-anchor="middle" x="372" y="-937.5" font-family="SegoeUI" font-size="10.00"> &#45;startUp</text>
<text text-anchor="middle" x="372" y="-926.5" font-family="SegoeUI" font-size="10.00">&#45;shutDown</text>
</g>
<!-- Node17 -->
<g id="node13" class="node"><title>Node17</title>
<g id="a_node13"><a xlink:title=" ">
<polygon fill="white" stroke="#bfbfbf" points="575.5,-906 575.5,-963 614.5,-963 614.5,-906 575.5,-906"/>
<text text-anchor="middle" x="595" y="-951" font-family="SegoeUI" font-size="10.00">static</text>
<polyline fill="none" stroke="#bfbfbf" points="575.5,-944 614.5,-944 "/>
<text text-anchor="middle" x="595" y="-932" font-family="SegoeUI" font-size="10.00"> </text>
<polyline fill="none" stroke="#bfbfbf" points="575.5,-925 614.5,-925 "/>
<text text-anchor="middle" x="595" y="-913" font-family="SegoeUI" font-size="10.00"> </text>
</a>
</g>
</g>
<!-- Node17&#45;&gt;Node7 -->
<g id="edge13" class="edge"><title>Node17&#45;&gt;Node7</title>
<path fill="none" stroke="#404040" d="M583.484,-905.78C578.344,-893.762 572.084,-879.588 566,-867 535.544,-803.987 529.991,-786.778 492,-728 455.846,-672.064 410.483,-612.963 372.822,-566.33"/>
<polygon fill="none" stroke="#404040" points="372.712,-566.194 365.826,-564.054 365.153,-556.874 372.039,-559.015 372.712,-566.194"/>
<text text-anchor="middle" x="578.5" y="-786" font-family="SegoeUI" font-size="10.00"> &#45;instance</text>
</g>
</g>
</svg>
        <g id="navigator" transform="translate(0 0)" fill="#404254">
                <rect fill="#f2f5e9" fill-opacity="0.5" stroke="#606060" stroke-width=".5" x="0" y="0" width="60" height="60"/>
                <use id="zoomplus" xlink:href="#zoomPlus" x="17" y="9" onmousedown="handleZoom(evt,'in')"/>
                <use id="zoomminus" xlink:href="#zoomMin" x="42" y="9" onmousedown="handleZoom(evt,'out')"/>
                <use id="reset" xlink:href="#resetDef" x="30" y="36" onmousedown="handleReset()"/>
                <g id="arrowUp" xlink:href="#dirArrow" transform="translate(30 24)" onmousedown="handlePan(0,-1)">
                  <use xlink:href="#rim" fill="#404040">
                        <set attributeName="fill" to="#808080" begin="arrowUp.mouseover" end="arrowUp.mouseout"/>
                  </use>
                  <path fill="none" stroke="white" stroke-width="1.5" d="M0,-3.0v7 M-2.5,-0.5L0,-3.0L2.5,-0.5"/>
                </g>
                <g id="arrowRight" xlink:href="#dirArrow" transform="rotate(90) translate(36 -43)" onmousedown="handlePan(1,0)">
                  <use xlink:href="#rim" fill="#404040">
                        <set attributeName="fill" to="#808080" begin="arrowRight.mouseover" end="arrowRight.mouseout"/>
                  </use>
                  <path fill="none" stroke="white" stroke-width="1.5" d="M0,-3.0v7 M-2.5,-0.5L0,-3.0L2.5,-0.5"/>
                </g>
                <g id="arrowDown" xlink:href="#dirArrow" transform="rotate(180) translate(-30 -48)" onmousedown="handlePan(0,1)">
                  <use xlink:href="#rim" fill="#404040">
                        <set attributeName="fill" to="#808080" begin="arrowDown.mouseover" end="arrowDown.mouseout"/>
                  </use>
                  <path fill="none" stroke="white" stroke-width="1.5" d="M0,-3.0v7 M-2.5,-0.5L0,-3.0L2.5,-0.5"/>
                </g>
                <g id="arrowLeft" xlink:href="#dirArrow" transform="rotate(270) translate(-36 17)" onmousedown="handlePan(-1,0)">
                  <use xlink:href="#rim" fill="#404040">
                        <set attributeName="fill" to="#808080" begin="arrowLeft.mouseover" end="arrowLeft.mouseout"/>
                  </use>
                  <path fill="none" stroke="white" stroke-width="1.5" d="M0,-3.0v7 M-2.5,-0.5L0,-3.0L2.5,-0.5"/>
                </g>
        </g>
        <svg viewBox="0 0 15 15" width="100%" height="30px" preserveAspectRatio="xMaxYMin meet">
         <g id="arrow_out" transform="scale(0.3 0.3)">
          <a xlink:href="class_juniper_1_1_unity_1_1_audio_1_1_interaction_audio__coll__graph_org.svg" target="_base">
           <rect id="button" ry="5" rx="5" y="6" x="6" height="38" width="38"
                fill="#f2f5e9" fill-opacity="0.5" stroke="#606060" stroke-width="1.0"/>
           <path id="arrow"
             d="M 11.500037,31.436501 C 11.940474,20.09759 22.043105,11.32322 32.158766,21.979434 L 37.068811,17.246167 C 37.068811,17.246167 37.088388,32 37.088388,32 L 22.160133,31.978069 C 22.160133,31.978069 26.997745,27.140456 26.997745,27.140456 C 18.528582,18.264221 13.291696,25.230495 11.500037,31.436501 z"
             style="fill:#404040;"/>
          </a>
         </g>
        </svg>
</svg>
