<?xml version="1.0" encoding="UTF-8" standalone="no"?>
<!DOCTYPE svg PUBLIC "-//W3C//DTD SVG 1.1//EN"
 "http://www.w3.org/Graphics/SVG/1.1/DTD/svg11.dtd">
<!-- Generated by graphviz version 2.38.0 (20140413.2041)
 -->
<!-- Title: Juniper.IO.JsonFactory&lt; T &gt; Pages: 1 -->
<svg width="363pt" height="332pt"
 viewBox="0.00 0.00 362.50 332.00" xmlns="http://www.w3.org/2000/svg" xmlns:xlink="http://www.w3.org/1999/xlink">
<g id="graph0" class="graph" transform="scale(1 1) rotate(0) translate(4 328)">
<title>Juniper.IO.JsonFactory&lt; T &gt;</title>
<polygon fill="white" stroke="none" points="-4,4 -4,-328 358.5,-328 358.5,4 -4,4"/>
<!-- Node0 -->
<g id="node1" class="node"><title>Node0</title>
<g id="a_node1"><a xlink:title=" ">
<polygon fill="#bfbfbf" stroke="black" points="87,-266.5 87,-323.5 226,-323.5 226,-266.5 87,-266.5"/>
<text text-anchor="middle" x="156.5" y="-311.5" font-family="SegoeUI" font-size="10.00">Juniper.IO.JsonFactory&lt; T &gt;</text>
<polyline fill="none" stroke="black" points="87,-304.5 226,-304.5 "/>
<text text-anchor="middle" x="156.5" y="-292.5" font-family="SegoeUI" font-size="10.00"> </text>
<polyline fill="none" stroke="black" points="87,-285.5 226,-285.5 "/>
<text text-anchor="middle" x="156.5" y="-273.5" font-family="SegoeUI" font-size="10.00"> </text>
</a>
</g>
</g>
<!-- Node1 -->
<g id="node2" class="node"><title>Node1</title>
<g id="a_node2"><a xlink:href="../../d6/ddd/class_juniper_1_1_i_o_1_1_json_factory.html" target="_top" xlink:title=" ">
<polygon fill="white" stroke="black" points="0,-139.5 0,-207.5 165,-207.5 165,-139.5 0,-139.5"/>
<text text-anchor="start" x="8" y="-195.5" font-family="SegoeUI" font-size="10.00">Juniper.IO.JsonFactory</text>
<text text-anchor="middle" x="82.5" y="-184.5" font-family="SegoeUI" font-size="10.00">&lt; Juniper.World.GIS.LatLngPoint &gt;</text>
<polyline fill="none" stroke="black" points="0,-177.5 165,-177.5 "/>
<text text-anchor="middle" x="82.5" y="-165.5" font-family="SegoeUI" font-size="10.00"> </text>
<polyline fill="none" stroke="black" points="0,-158.5 165,-158.5 "/>
<text text-anchor="middle" x="82.5" y="-146.5" font-family="SegoeUI" font-size="10.00"> </text>
</a>
</g>
</g>
<!-- Node0&#45;&gt;Node1 -->
<g id="edge1" class="edge"><title>Node0&#45;&gt;Node1</title>
<path fill="none" stroke="orange" d="M116.704,-258.957C113.715,-255.428 110.925,-251.756 108.5,-248 100.644,-235.833 94.813,-220.997 90.6866,-207.848"/>
<polygon fill="orange" stroke="orange" points="114.183,-261.386 123.502,-266.427 119.36,-256.675 114.183,-261.386"/>
<text text-anchor="start" x="108.5" y="-240" font-family="SegoeUI" font-size="10.00"> &lt; Juniper::World::GIS</text>
<text text-anchor="middle" x="158.5" y="-229" font-family="SegoeUI" font-size="10.00">::LatLngPoint &gt;</text>
</g>
<!-- Node2 -->
<g id="node3" class="node"><title>Node2</title>
<g id="a_node3"><a xlink:href="../../d6/ddd/class_juniper_1_1_i_o_1_1_json_factory.html" target="_top" xlink:title=" ">
<polygon fill="white" stroke="black" points="183.5,-139.5 183.5,-207.5 327.5,-207.5 327.5,-139.5 183.5,-139.5"/>
<text text-anchor="start" x="191.5" y="-195.5" font-family="SegoeUI" font-size="10.00">Juniper.IO.JsonFactory</text>
<text text-anchor="middle" x="255.5" y="-184.5" font-family="SegoeUI" font-size="10.00">&lt; T, MediaType.Application &gt;</text>
<polyline fill="none" stroke="black" points="183.5,-177.5 327.5,-177.5 "/>
<text text-anchor="middle" x="255.5" y="-165.5" font-family="SegoeUI" font-size="10.00"> </text>
<polyline fill="none" stroke="black" points="183.5,-158.5 327.5,-158.5 "/>
<text text-anchor="middle" x="255.5" y="-146.5" font-family="SegoeUI" font-size="10.00"> </text>
</a>
</g>
</g>
<!-- Node0&#45;&gt;Node2 -->
<g id="edge2" class="edge"><title>Node0&#45;&gt;Node2</title>
<path fill="none" stroke="orange" d="M197.848,-259.384C201.59,-255.678 205.205,-251.851 208.5,-248 219.036,-235.686 228.975,-220.825 236.976,-207.698"/>
<polygon fill="orange" stroke="orange" points="195.374,-256.907 190.548,-266.34 200.203,-261.975 195.374,-256.907"/>
<text text-anchor="middle" x="289" y="-234.5" font-family="SegoeUI" font-size="10.00"> &lt; T, MediaType.Application &gt;</text>
</g>
<!-- Node3 -->
<g id="node4" class="node"><title>Node3</title>
<g id="a_node4"><a xlink:href="../../d6/ddd/class_juniper_1_1_i_o_1_1_json_factory.html" target="_top" xlink:title=" ">
<polygon fill="white" stroke="black" points="192,-0.5 192,-101.5 319,-101.5 319,-0.5 192,-0.5"/>
<text text-anchor="start" x="200" y="-89.5" font-family="SegoeUI" font-size="10.00">Juniper.IO.JsonFactory</text>
<text text-anchor="middle" x="255.5" y="-78.5" font-family="SegoeUI" font-size="10.00">&lt; ResultT, MediaTypeT &gt;</text>
<polyline fill="none" stroke="black" points="192,-71.5 319,-71.5 "/>
<text text-anchor="start" x="200" y="-59.5" font-family="SegoeUI" font-size="10.00">+ ContentType</text>
<polyline fill="none" stroke="black" points="192,-52.5 319,-52.5 "/>
<text text-anchor="start" x="200" y="-40.5" font-family="SegoeUI" font-size="10.00">+ JsonFactory()</text>
<text text-anchor="start" x="200" y="-29.5" font-family="SegoeUI" font-size="10.00">+ JsonFactory()</text>
<text text-anchor="start" x="200" y="-18.5" font-family="SegoeUI" font-size="10.00">+ Deserialize()</text>
<text text-anchor="start" x="200" y="-7.5" font-family="SegoeUI" font-size="10.00">+ Serialize()</text>
</a>
</g>
</g>
<!-- Node2&#45;&gt;Node3 -->
<g id="edge3" class="edge"><title>Node2&#45;&gt;Node3</title>
<path fill="none" stroke="midnightblue" d="M255.5,-129.151C255.5,-120.293 255.5,-110.906 255.5,-101.842"/>
<polygon fill="none" stroke="midnightblue" points="252,-129.254 255.5,-139.254 259,-129.254 252,-129.254"/>
</g>
</g>
</svg>
