<?xml version="1.0" encoding="UTF-8" standalone="no"?>
<!DOCTYPE svg PUBLIC "-//W3C//DTD SVG 1.1//EN"
 "http://www.w3.org/Graphics/SVG/1.1/DTD/svg11.dtd">
<!-- Generated by graphviz version 2.38.0 (20140413.2041)
 -->
<!-- Title: Juniper.Unity.Widgets.AbstractValued Pages: 1 -->
<svg width="1027pt" height="1087pt"
 viewBox="0.00 0.00 1027.00 1087.00" xmlns="http://www.w3.org/2000/svg" xmlns:xlink="http://www.w3.org/1999/xlink">
<g id="graph0" class="graph" transform="scale(1 1) rotate(0) translate(4 1083)">
<title>Juniper.Unity.Widgets.AbstractValued</title>
<polygon fill="white" stroke="none" points="-4,4 -4,-1083 1023,-1083 1023,4 -4,4"/>
<!-- Node0 -->
<g id="node1" class="node"><title>Node0</title>
<g id="a_node1"><a xlink:title="The Valued component adds a float field and range of valid values for that field to a Touchable objec...">
<polygon fill="#bfbfbf" stroke="black" points="561.5,-227.5 561.5,-636.5 708.5,-636.5 708.5,-227.5 561.5,-227.5"/>
<text text-anchor="start" x="569.5" y="-624.5" font-family="SegoeUI" font-size="10.00">Juniper.Unity.Widgets.Abstract</text>
<text text-anchor="middle" x="635" y="-613.5" font-family="SegoeUI" font-size="10.00">Valued</text>
<polyline fill="none" stroke="black" points="561.5,-606.5 708.5,-606.5 "/>
<text text-anchor="start" x="569.5" y="-594.5" font-family="SegoeUI" font-size="10.00">+ Display</text>
<text text-anchor="start" x="569.5" y="-583.5" font-family="SegoeUI" font-size="10.00">+ SigFigs</text>
<text text-anchor="start" x="569.5" y="-572.5" font-family="SegoeUI" font-size="10.00">+ minValue</text>
<text text-anchor="start" x="569.5" y="-561.5" font-family="SegoeUI" font-size="10.00">+ maxValue</text>
<text text-anchor="start" x="569.5" y="-550.5" font-family="SegoeUI" font-size="10.00">+ _value</text>
<text text-anchor="start" x="569.5" y="-539.5" font-family="SegoeUI" font-size="10.00">+ Dragged</text>
<text text-anchor="start" x="569.5" y="-528.5" font-family="SegoeUI" font-size="10.00">+ value</text>
<text text-anchor="start" x="569.5" y="-517.5" font-family="SegoeUI" font-size="10.00">+ Delta</text>
<text text-anchor="start" x="569.5" y="-506.5" font-family="SegoeUI" font-size="10.00">+ DraggedChanged</text>
<text text-anchor="start" x="569.5" y="-495.5" font-family="SegoeUI" font-size="10.00">+ DraggedDown</text>
<text text-anchor="start" x="569.5" y="-484.5" font-family="SegoeUI" font-size="10.00">+ DraggedUp</text>
<text text-anchor="start" x="569.5" y="-473.5" font-family="SegoeUI" font-size="10.00">+ ValueChanged</text>
<text text-anchor="start" x="569.5" y="-462.5" font-family="SegoeUI" font-size="10.00">+ ConstraintRange</text>
<text text-anchor="start" x="569.5" y="-451.5" font-family="SegoeUI" font-size="10.00"># dragDistance</text>
<text text-anchor="start" x="569.5" y="-440.5" font-family="SegoeUI" font-size="10.00"># interactionPoint</text>
<text text-anchor="start" x="569.5" y="-429.5" font-family="SegoeUI" font-size="10.00"># interactionOffset</text>
<text text-anchor="start" x="569.5" y="-418.5" font-family="SegoeUI" font-size="10.00"># velocity</text>
<text text-anchor="start" x="569.5" y="-407.5" font-family="SegoeUI" font-size="10.00"># angVel</text>
<text text-anchor="start" x="569.5" y="-396.5" font-family="SegoeUI" font-size="10.00"># camT</text>
<text text-anchor="start" x="569.5" y="-385.5" font-family="SegoeUI" font-size="10.00"># grabOffset</text>
<text text-anchor="start" x="569.5" y="-374.5" font-family="SegoeUI" font-size="10.00"># internalValue</text>
<text text-anchor="start" x="569.5" y="-363.5" font-family="SegoeUI" font-size="10.00">&#45; wasDragged</text>
<text text-anchor="start" x="569.5" y="-352.5" font-family="SegoeUI" font-size="10.00">&#45; lastValue</text>
<text text-anchor="start" x="569.5" y="-341.5" font-family="SegoeUI" font-size="10.00">&#45; lastTickValue</text>
<polyline fill="none" stroke="black" points="561.5,-334.5 708.5,-334.5 "/>
<text text-anchor="start" x="569.5" y="-322.5" font-family="SegoeUI" font-size="10.00">+ SetValue()</text>
<text text-anchor="start" x="569.5" y="-311.5" font-family="SegoeUI" font-size="10.00">+ OnInitializePotentialDrag()</text>
<text text-anchor="start" x="569.5" y="-300.5" font-family="SegoeUI" font-size="10.00">+ OnBeginDrag()</text>
<text text-anchor="start" x="569.5" y="-289.5" font-family="SegoeUI" font-size="10.00">+ OnDrag()</text>
<text text-anchor="start" x="569.5" y="-278.5" font-family="SegoeUI" font-size="10.00">+ OnDrop()</text>
<text text-anchor="start" x="569.5" y="-267.5" font-family="SegoeUI" font-size="10.00">+ OnEndDrag()</text>
<text text-anchor="start" x="569.5" y="-256.5" font-family="SegoeUI" font-size="10.00"># LateUpdate()</text>
<text text-anchor="start" x="569.5" y="-245.5" font-family="SegoeUI" font-size="10.00"># UpdateInternalValue()</text>
<text text-anchor="start" x="569.5" y="-234.5" font-family="SegoeUI" font-size="10.00"># ResetInternalValue()</text>
</a>
</g>
</g>
<!-- Node14 -->
<g id="node15" class="node"><title>Node14</title>
<g id="a_node15"><a xlink:href="../../dc/da5/class_juniper_1_1_unity_1_1_widgets_1_1_draggable.html" target="_top" xlink:title="An object that can be picked up and put down in a new location.">
<polygon fill="white" stroke="black" points="471.5,-0.5 471.5,-189.5 626.5,-189.5 626.5,-0.5 471.5,-0.5"/>
<text text-anchor="middle" x="549" y="-177.5" font-family="SegoeUI" font-size="10.00">Juniper.Unity.Widgets.Draggable</text>
<polyline fill="none" stroke="black" points="471.5,-170.5 626.5,-170.5 "/>
<text text-anchor="start" x="479.5" y="-158.5" font-family="SegoeUI" font-size="10.00">+ constrainMotion</text>
<text text-anchor="start" x="479.5" y="-147.5" font-family="SegoeUI" font-size="10.00">+ rotateWhileDragging</text>
<text text-anchor="start" x="479.5" y="-136.5" font-family="SegoeUI" font-size="10.00">+ TrackStart</text>
<text text-anchor="start" x="479.5" y="-125.5" font-family="SegoeUI" font-size="10.00">+ TrackEnd</text>
<text text-anchor="start" x="479.5" y="-114.5" font-family="SegoeUI" font-size="10.00">&#45; MotionConstraintStartName</text>
<text text-anchor="start" x="479.5" y="-103.5" font-family="SegoeUI" font-size="10.00">&#45; MotionConstraintEndName</text>
<text text-anchor="start" x="479.5" y="-92.5" font-family="SegoeUI" font-size="10.00">&#45; motionConstraintStart</text>
<text text-anchor="start" x="479.5" y="-81.5" font-family="SegoeUI" font-size="10.00">&#45; motionConstraintEnd</text>
<text text-anchor="start" x="479.5" y="-70.5" font-family="SegoeUI" font-size="10.00">&#45; lastCamPosition</text>
<polyline fill="none" stroke="black" points="471.5,-63.5 626.5,-63.5 "/>
<text text-anchor="start" x="479.5" y="-51.5" font-family="SegoeUI" font-size="10.00">+ OnValidate()</text>
<text text-anchor="start" x="479.5" y="-40.5" font-family="SegoeUI" font-size="10.00">+ OnDrag()</text>
<text text-anchor="start" x="479.5" y="-29.5" font-family="SegoeUI" font-size="10.00"># LateUpdate()</text>
<text text-anchor="start" x="479.5" y="-18.5" font-family="SegoeUI" font-size="10.00">&#45; ResolveConstraint()</text>
<text text-anchor="start" x="479.5" y="-7.5" font-family="SegoeUI" font-size="10.00">&#45; DestroyConstraint()</text>
</a>
</g>
</g>
<!-- Node0&#45;&gt;Node14 -->
<g id="edge14" class="edge"><title>Node0&#45;&gt;Node14</title>
<path fill="none" stroke="midnightblue" d="M580.253,-217.74C577.78,-208.108 575.363,-198.695 573.039,-189.642"/>
<polygon fill="none" stroke="midnightblue" points="576.866,-218.624 582.743,-227.439 583.646,-216.883 576.866,-218.624"/>
</g>
<!-- Node15 -->
<g id="node16" class="node"><title>Node15</title>
<g id="a_node16"><a xlink:href="../../d3/d60/class_juniper_1_1_unity_1_1_widgets_1_1_rotatable.html" target="_top" xlink:title="A control that is rotatable in a single axis at a time.">
<polygon fill="white" stroke="black" points="645,-0.5 645,-189.5 797,-189.5 797,-0.5 645,-0.5"/>
<text text-anchor="middle" x="721" y="-177.5" font-family="SegoeUI" font-size="10.00">Juniper.Unity.Widgets.Rotatable</text>
<polyline fill="none" stroke="black" points="645,-170.5 797,-170.5 "/>
<text text-anchor="start" x="653" y="-158.5" font-family="SegoeUI" font-size="10.00">+ rotationAxis</text>
<text text-anchor="start" x="653" y="-147.5" font-family="SegoeUI" font-size="10.00">+ InterpolationScale</text>
<text text-anchor="start" x="653" y="-136.5" font-family="SegoeUI" font-size="10.00">+ ConstraintRange</text>
<text text-anchor="start" x="653" y="-125.5" font-family="SegoeUI" font-size="10.00">&#45; lastInteractionPoint</text>
<text text-anchor="start" x="653" y="-114.5" font-family="SegoeUI" font-size="10.00">&#45; amount</text>
<text text-anchor="start" x="653" y="-103.5" font-family="SegoeUI" font-size="10.00">&#45; angleCorrector</text>
<text text-anchor="start" x="653" y="-92.5" font-family="SegoeUI" font-size="10.00">&#45; startValue</text>
<text text-anchor="start" x="653" y="-81.5" font-family="SegoeUI" font-size="10.00">&#45; endValue</text>
<polyline fill="none" stroke="black" points="645,-74.5 797,-74.5 "/>
<text text-anchor="start" x="653" y="-62.5" font-family="SegoeUI" font-size="10.00">+ OnEnable()</text>
<text text-anchor="start" x="653" y="-51.5" font-family="SegoeUI" font-size="10.00">+ OnDisable()</text>
<text text-anchor="start" x="653" y="-40.5" font-family="SegoeUI" font-size="10.00">+ OnBeginDrag()</text>
<text text-anchor="start" x="653" y="-29.5" font-family="SegoeUI" font-size="10.00">+ OnDrag()</text>
<text text-anchor="start" x="653" y="-18.5" font-family="SegoeUI" font-size="10.00">+ Awake()</text>
<text text-anchor="start" x="653" y="-7.5" font-family="SegoeUI" font-size="10.00"># Update()</text>
</a>
</g>
</g>
<!-- Node0&#45;&gt;Node15 -->
<g id="edge15" class="edge"><title>Node0&#45;&gt;Node15</title>
<path fill="none" stroke="midnightblue" d="M689.747,-217.74C692.22,-208.108 694.637,-198.695 696.961,-189.642"/>
<polygon fill="none" stroke="midnightblue" points="686.354,-216.883 687.257,-227.439 693.134,-218.624 686.354,-216.883"/>
</g>
<!-- Node1 -->
<g id="node2" class="node"><title>Node1</title>
<g id="a_node2"><a xlink:href="../../dc/dad/class_juniper_1_1_unity_1_1_widgets_1_1_abstract_touchable.html" target="_top" xlink:title="The base class for all interactive, AR&#45;compatible, GUI controls /// This class is abstract to avoid i...">
<polygon fill="white" stroke="black" points="210,-674.5 210,-962.5 336,-962.5 336,-674.5 210,-674.5"/>
<text text-anchor="middle" x="273" y="-950.5" font-family="SegoeUI" font-size="10.00">AbstractTouchable</text>
<polyline fill="none" stroke="black" points="210,-943.5 336,-943.5 "/>
<text text-anchor="start" x="218" y="-931.5" font-family="SegoeUI" font-size="10.00">+ clickButton</text>
<text text-anchor="start" x="218" y="-920.5" font-family="SegoeUI" font-size="10.00">+ disabled</text>
<text text-anchor="start" x="218" y="-909.5" font-family="SegoeUI" font-size="10.00">+ pointerPosition</text>
<text text-anchor="start" x="218" y="-898.5" font-family="SegoeUI" font-size="10.00">+ PART_NAMES</text>
<text text-anchor="start" x="218" y="-887.5" font-family="SegoeUI" font-size="10.00">+ DisabledChanged</text>
<text text-anchor="start" x="218" y="-876.5" font-family="SegoeUI" font-size="10.00">+ DisabledDown</text>
<text text-anchor="start" x="218" y="-865.5" font-family="SegoeUI" font-size="10.00">+ DisabledUp</text>
<text text-anchor="start" x="218" y="-854.5" font-family="SegoeUI" font-size="10.00">+ IsDisabled</text>
<text text-anchor="start" x="218" y="-843.5" font-family="SegoeUI" font-size="10.00">+ PointerPositionChanged</text>
<text text-anchor="start" x="218" y="-832.5" font-family="SegoeUI" font-size="10.00"># lastPointerPosition</text>
<text text-anchor="start" x="218" y="-821.5" font-family="SegoeUI" font-size="10.00">&#45; animator</text>
<text text-anchor="start" x="218" y="-810.5" font-family="SegoeUI" font-size="10.00">&#45; wasDisabled</text>
<polyline fill="none" stroke="black" points="210,-803.5 336,-803.5 "/>
<text text-anchor="start" x="218" y="-791.5" font-family="SegoeUI" font-size="10.00">+ SetDisabled()</text>
<text text-anchor="start" x="218" y="-780.5" font-family="SegoeUI" font-size="10.00">+ ToggleEnabled()</text>
<text text-anchor="start" x="218" y="-769.5" font-family="SegoeUI" font-size="10.00">+ OnPointerEnter()</text>
<text text-anchor="start" x="218" y="-758.5" font-family="SegoeUI" font-size="10.00">+ OnPointerExit()</text>
<text text-anchor="start" x="218" y="-747.5" font-family="SegoeUI" font-size="10.00">+ OnPointerDown()</text>
<text text-anchor="start" x="218" y="-736.5" font-family="SegoeUI" font-size="10.00">+ OnPointerUp()</text>
<text text-anchor="start" x="218" y="-725.5" font-family="SegoeUI" font-size="10.00"># Update()</text>
<text text-anchor="start" x="218" y="-714.5" font-family="SegoeUI" font-size="10.00"># LateUpdate()</text>
<text text-anchor="start" x="218" y="-703.5" font-family="SegoeUI" font-size="10.00"># ShowState()</text>
<text text-anchor="start" x="218" y="-692.5" font-family="SegoeUI" font-size="10.00"># GetPosition()</text>
<text text-anchor="start" x="218" y="-681.5" font-family="SegoeUI" font-size="10.00">&#45; NormalizePart()</text>
</a>
</g>
</g>
<!-- Node1&#45;&gt;Node0 -->
<g id="edge1" class="edge"><title>Node1&#45;&gt;Node0</title>
<path fill="none" stroke="midnightblue" d="M342.179,-677.623C343.112,-676.402 344.052,-675.194 345,-674 406.988,-595.954 497.817,-525.499 561.257,-481.21"/>
<polygon fill="none" stroke="midnightblue" points="339.226,-675.731 336.137,-685.866 344.872,-679.87 339.226,-675.731"/>
</g>
<!-- Node2 -->
<g id="node3" class="node"><title>Node2</title>
<g id="a_node3"><a xlink:title=" ">
<polygon fill="white" stroke="#bfbfbf" points="0,-1016 0,-1073 82,-1073 82,-1016 0,-1016"/>
<text text-anchor="middle" x="41" y="-1061" font-family="SegoeUI" font-size="10.00">MonoBehaviour</text>
<polyline fill="none" stroke="#bfbfbf" points="0,-1054 82,-1054 "/>
<text text-anchor="middle" x="41" y="-1042" font-family="SegoeUI" font-size="10.00"> </text>
<polyline fill="none" stroke="#bfbfbf" points="0,-1035 82,-1035 "/>
<text text-anchor="middle" x="41" y="-1023" font-family="SegoeUI" font-size="10.00"> </text>
</a>
</g>
</g>
<!-- Node2&#45;&gt;Node1 -->
<g id="edge2" class="edge"><title>Node2&#45;&gt;Node1</title>
<path fill="none" stroke="midnightblue" d="M77.1484,-1008.6C112.469,-974.496 166.978,-921.866 209.531,-880.781"/>
<polygon fill="none" stroke="midnightblue" points="74.6768,-1006.12 69.9139,-1015.58 79.539,-1011.16 74.6768,-1006.12"/>
</g>
<!-- Node3 -->
<g id="node4" class="node"><title>Node3</title>
<g id="a_node4"><a xlink:title=" ">
<polygon fill="white" stroke="#bfbfbf" points="100.5,-1016 100.5,-1073 205.5,-1073 205.5,-1016 100.5,-1016"/>
<text text-anchor="middle" x="153" y="-1061" font-family="SegoeUI" font-size="10.00">IPointerEnterHandler</text>
<polyline fill="none" stroke="#bfbfbf" points="100.5,-1054 205.5,-1054 "/>
<text text-anchor="middle" x="153" y="-1042" font-family="SegoeUI" font-size="10.00"> </text>
<polyline fill="none" stroke="#bfbfbf" points="100.5,-1035 205.5,-1035 "/>
<text text-anchor="middle" x="153" y="-1023" font-family="SegoeUI" font-size="10.00"> </text>
</a>
</g>
</g>
<!-- Node3&#45;&gt;Node1 -->
<g id="edge3" class="edge"><title>Node3&#45;&gt;Node1</title>
<path fill="none" stroke="midnightblue" d="M172.79,-1006.56C183.147,-987.226 196.465,-962.365 209.988,-937.123"/>
<polygon fill="none" stroke="midnightblue" points="169.593,-1005.12 167.955,-1015.58 175.763,-1008.42 169.593,-1005.12"/>
</g>
<!-- Node4 -->
<g id="node5" class="node"><title>Node4</title>
<g id="a_node5"><a xlink:title=" ">
<polygon fill="white" stroke="#bfbfbf" points="224,-1016 224,-1073 322,-1073 322,-1016 224,-1016"/>
<text text-anchor="middle" x="273" y="-1061" font-family="SegoeUI" font-size="10.00">IPointerExitHandler</text>
<polyline fill="none" stroke="#bfbfbf" points="224,-1054 322,-1054 "/>
<text text-anchor="middle" x="273" y="-1042" font-family="SegoeUI" font-size="10.00"> </text>
<polyline fill="none" stroke="#bfbfbf" points="224,-1035 322,-1035 "/>
<text text-anchor="middle" x="273" y="-1023" font-family="SegoeUI" font-size="10.00"> </text>
</a>
</g>
</g>
<!-- Node4&#45;&gt;Node1 -->
<g id="edge4" class="edge"><title>Node4&#45;&gt;Node1</title>
<path fill="none" stroke="midnightblue" d="M273,-1005.23C273,-992.762 273,-978.106 273,-962.584"/>
<polygon fill="none" stroke="midnightblue" points="269.5,-1005.58 273,-1015.58 276.5,-1005.58 269.5,-1005.58"/>
</g>
<!-- Node5 -->
<g id="node6" class="node"><title>Node5</title>
<g id="a_node6"><a xlink:title=" ">
<polygon fill="white" stroke="#bfbfbf" points="340.5,-1016 340.5,-1073 447.5,-1073 447.5,-1016 340.5,-1016"/>
<text text-anchor="middle" x="394" y="-1061" font-family="SegoeUI" font-size="10.00">IPointerDownHandler</text>
<polyline fill="none" stroke="#bfbfbf" points="340.5,-1054 447.5,-1054 "/>
<text text-anchor="middle" x="394" y="-1042" font-family="SegoeUI" font-size="10.00"> </text>
<polyline fill="none" stroke="#bfbfbf" points="340.5,-1035 447.5,-1035 "/>
<text text-anchor="middle" x="394" y="-1023" font-family="SegoeUI" font-size="10.00"> </text>
</a>
</g>
</g>
<!-- Node5&#45;&gt;Node1 -->
<g id="edge5" class="edge"><title>Node5&#45;&gt;Node1</title>
<path fill="none" stroke="midnightblue" d="M371.051,-1007.22C362.609,-993.509 353.13,-977.675 345,-963 342.028,-957.636 339.036,-952.134 336.048,-946.558"/>
<polygon fill="none" stroke="midnightblue" points="368.181,-1009.23 376.425,-1015.89 374.131,-1005.55 368.181,-1009.23"/>
</g>
<!-- Node6 -->
<g id="node7" class="node"><title>Node6</title>
<g id="a_node7"><a xlink:title=" ">
<polygon fill="white" stroke="#bfbfbf" points="466,-1016 466,-1073 560,-1073 560,-1016 466,-1016"/>
<text text-anchor="middle" x="513" y="-1061" font-family="SegoeUI" font-size="10.00">IPointerUpHandler</text>
<polyline fill="none" stroke="#bfbfbf" points="466,-1054 560,-1054 "/>
<text text-anchor="middle" x="513" y="-1042" font-family="SegoeUI" font-size="10.00"> </text>
<polyline fill="none" stroke="#bfbfbf" points="466,-1035 560,-1035 "/>
<text text-anchor="middle" x="513" y="-1023" font-family="SegoeUI" font-size="10.00"> </text>
</a>
</g>
</g>
<!-- Node6&#45;&gt;Node1 -->
<g id="edge6" class="edge"><title>Node6&#45;&gt;Node1</title>
<path fill="none" stroke="midnightblue" d="M458.085,-1011.06C457.388,-1010.7 456.692,-1010.35 456,-1010 432.069,-997.966 364.542,-981.32 345,-963 341.95,-960.14 339.01,-957.123 336.178,-953.977"/>
<polygon fill="none" stroke="midnightblue" points="456.769,-1014.32 467.244,-1015.91 460.048,-1008.14 456.769,-1014.32"/>
</g>
<!-- Node7 -->
<g id="node8" class="node"><title>Node7</title>
<g id="a_node8"><a xlink:title=" ">
<polygon fill="white" stroke="#bfbfbf" points="354,-784.5 354,-852.5 466,-852.5 466,-784.5 354,-784.5"/>
<text text-anchor="start" x="362" y="-840.5" font-family="SegoeUI" font-size="10.00">IInitializePotentialDrag</text>
<text text-anchor="middle" x="410" y="-829.5" font-family="SegoeUI" font-size="10.00">Handler</text>
<polyline fill="none" stroke="#bfbfbf" points="354,-822.5 466,-822.5 "/>
<text text-anchor="middle" x="410" y="-810.5" font-family="SegoeUI" font-size="10.00"> </text>
<polyline fill="none" stroke="#bfbfbf" points="354,-803.5 466,-803.5 "/>
<text text-anchor="middle" x="410" y="-791.5" font-family="SegoeUI" font-size="10.00"> </text>
</a>
</g>
</g>
<!-- Node7&#45;&gt;Node0 -->
<g id="edge7" class="edge"><title>Node7&#45;&gt;Node0</title>
<path fill="none" stroke="midnightblue" d="M427.189,-774.846C439.393,-745.833 456.788,-706.89 475,-674 500.849,-627.318 532.802,-577.872 561.34,-535.997"/>
<polygon fill="none" stroke="midnightblue" points="423.873,-773.705 423.255,-784.281 430.334,-776.398 423.873,-773.705"/>
</g>
<!-- Node8 -->
<g id="node9" class="node"><title>Node8</title>
<g id="a_node9"><a xlink:title=" ">
<polygon fill="white" stroke="#bfbfbf" points="484,-790 484,-847 580,-847 580,-790 484,-790"/>
<text text-anchor="middle" x="532" y="-835" font-family="SegoeUI" font-size="10.00">IBeginDragHandler</text>
<polyline fill="none" stroke="#bfbfbf" points="484,-828 580,-828 "/>
<text text-anchor="middle" x="532" y="-816" font-family="SegoeUI" font-size="10.00"> </text>
<polyline fill="none" stroke="#bfbfbf" points="484,-809 580,-809 "/>
<text text-anchor="middle" x="532" y="-797" font-family="SegoeUI" font-size="10.00"> </text>
</a>
</g>
</g>
<!-- Node8&#45;&gt;Node0 -->
<g id="edge8" class="edge"><title>Node8&#45;&gt;Node0</title>
<path fill="none" stroke="midnightblue" d="M542.095,-779.817C551.305,-745.433 565.689,-691.74 580.41,-636.786"/>
<polygon fill="none" stroke="midnightblue" points="538.614,-779.283 539.408,-789.848 545.376,-781.094 538.614,-779.283"/>
</g>
<!-- Node9 -->
<g id="node10" class="node"><title>Node9</title>
<g id="a_node10"><a xlink:title=" ">
<polygon fill="white" stroke="#bfbfbf" points="598.5,-790 598.5,-847 671.5,-847 671.5,-790 598.5,-790"/>
<text text-anchor="middle" x="635" y="-835" font-family="SegoeUI" font-size="10.00">IDragHandler</text>
<polyline fill="none" stroke="#bfbfbf" points="598.5,-828 671.5,-828 "/>
<text text-anchor="middle" x="635" y="-816" font-family="SegoeUI" font-size="10.00"> </text>
<polyline fill="none" stroke="#bfbfbf" points="598.5,-809 671.5,-809 "/>
<text text-anchor="middle" x="635" y="-797" font-family="SegoeUI" font-size="10.00"> </text>
</a>
</g>
</g>
<!-- Node9&#45;&gt;Node0 -->
<g id="edge9" class="edge"><title>Node9&#45;&gt;Node0</title>
<path fill="none" stroke="midnightblue" d="M635,-779.817C635,-745.433 635,-691.74 635,-636.786"/>
<polygon fill="none" stroke="midnightblue" points="631.5,-779.848 635,-789.848 638.5,-779.848 631.5,-779.848"/>
</g>
<!-- Node10 -->
<g id="node11" class="node"><title>Node10</title>
<g id="a_node11"><a xlink:title=" ">
<polygon fill="white" stroke="#bfbfbf" points="689.5,-790 689.5,-847 778.5,-847 778.5,-790 689.5,-790"/>
<text text-anchor="middle" x="734" y="-835" font-family="SegoeUI" font-size="10.00">IEndDragHandler</text>
<polyline fill="none" stroke="#bfbfbf" points="689.5,-828 778.5,-828 "/>
<text text-anchor="middle" x="734" y="-816" font-family="SegoeUI" font-size="10.00"> </text>
<polyline fill="none" stroke="#bfbfbf" points="689.5,-809 778.5,-809 "/>
<text text-anchor="middle" x="734" y="-797" font-family="SegoeUI" font-size="10.00"> </text>
</a>
</g>
</g>
<!-- Node10&#45;&gt;Node0 -->
<g id="edge10" class="edge"><title>Node10&#45;&gt;Node0</title>
<path fill="none" stroke="midnightblue" d="M724.297,-779.817C715.444,-745.433 701.62,-691.74 687.47,-636.786"/>
<polygon fill="none" stroke="midnightblue" points="720.997,-781.036 726.88,-789.848 727.776,-779.291 720.997,-781.036"/>
</g>
<!-- Node11 -->
<g id="node12" class="node"><title>Node11</title>
<g id="a_node12"><a xlink:title=" ">
<polygon fill="white" stroke="#bfbfbf" points="796.5,-790 796.5,-847 869.5,-847 869.5,-790 796.5,-790"/>
<text text-anchor="middle" x="833" y="-835" font-family="SegoeUI" font-size="10.00">IDropHandler</text>
<polyline fill="none" stroke="#bfbfbf" points="796.5,-828 869.5,-828 "/>
<text text-anchor="middle" x="833" y="-816" font-family="SegoeUI" font-size="10.00"> </text>
<polyline fill="none" stroke="#bfbfbf" points="796.5,-809 869.5,-809 "/>
<text text-anchor="middle" x="833" y="-797" font-family="SegoeUI" font-size="10.00"> </text>
</a>
</g>
</g>
<!-- Node11&#45;&gt;Node0 -->
<g id="edge11" class="edge"><title>Node11&#45;&gt;Node0</title>
<path fill="none" stroke="midnightblue" d="M823.732,-779.842C815.804,-750.313 803.125,-708.57 787,-674 765.096,-627.041 735.668,-578.161 708.541,-536.794"/>
<polygon fill="none" stroke="midnightblue" points="820.408,-780.965 826.336,-789.746 827.178,-779.185 820.408,-780.965"/>
</g>
<!-- Node12 -->
<g id="node13" class="node"><title>Node12</title>
<g id="a_node13"><a xlink:href="../../dd/d6e/interface_juniper_1_1_unity_1_1_widgets_1_1_i_valued_control.html" target="_top" xlink:title=" ">
<polygon fill="white" stroke="black" points="888,-790 888,-847 1006,-847 1006,-790 888,-790"/>
<text text-anchor="middle" x="947" y="-835" font-family="SegoeUI" font-size="10.00">IValuedControl&lt; float &gt;</text>
<polyline fill="none" stroke="black" points="888,-828 1006,-828 "/>
<text text-anchor="start" x="896" y="-816" font-family="SegoeUI" font-size="10.00">+ value</text>
<polyline fill="none" stroke="black" points="888,-809 1006,-809 "/>
<text text-anchor="middle" x="947" y="-797" font-family="SegoeUI" font-size="10.00"> </text>
</a>
</g>
</g>
<!-- Node12&#45;&gt;Node0 -->
<g id="edge12" class="edge"><title>Node12&#45;&gt;Node0</title>
<path fill="none" stroke="midnightblue" d="M933.299,-780.489C921.201,-750.331 901.804,-707.423 878,-674 829.399,-605.76 760.619,-539.58 708.631,-493.893"/>
<polygon fill="none" stroke="midnightblue" points="930.047,-781.781 936.967,-789.804 936.56,-779.217 930.047,-781.781"/>
</g>
<!-- Node13 -->
<g id="node14" class="node"><title>Node13</title>
<g id="a_node14"><a xlink:href="../../dd/d6e/interface_juniper_1_1_unity_1_1_widgets_1_1_i_valued_control.html" target="_top" xlink:title=" ">
<polygon fill="white" stroke="black" points="875,-1010.5 875,-1078.5 1019,-1078.5 1019,-1010.5 875,-1010.5"/>
<text text-anchor="start" x="883" y="-1066.5" font-family="SegoeUI" font-size="10.00">Juniper.Unity.Widgets.IValued</text>
<text text-anchor="middle" x="947" y="-1055.5" font-family="SegoeUI" font-size="10.00">Control&lt; T &gt;</text>
<polyline fill="none" stroke="black" points="875,-1048.5 1019,-1048.5 "/>
<text text-anchor="start" x="883" y="-1036.5" font-family="SegoeUI" font-size="10.00">+ value</text>
<polyline fill="none" stroke="black" points="875,-1029.5 1019,-1029.5 "/>
<text text-anchor="middle" x="947" y="-1017.5" font-family="SegoeUI" font-size="10.00"> </text>
</a>
</g>
</g>
<!-- Node13&#45;&gt;Node12 -->
<g id="edge13" class="edge"><title>Node13&#45;&gt;Node12</title>
<path fill="none" stroke="orange" d="M947,-1000.35C947,-955.093 947,-885.343 947,-847.037"/>
<polygon fill="orange" stroke="orange" points="943.5,-1000.45 947,-1010.45 950.5,-1000.45 943.5,-1000.45"/>
<text text-anchor="middle" x="968" y="-984" font-family="SegoeUI" font-size="10.00"> &lt; float &gt;</text>
</g>
</g>
</svg>
