<?xml version="1.0" encoding="UTF-8" standalone="no"?>
<!DOCTYPE svg PUBLIC "-//W3C//DTD SVG 1.1//EN"
 "http://www.w3.org/Graphics/SVG/1.1/DTD/svg11.dtd">
<!-- Generated by graphviz version 2.38.0 (20140413.2041)
 -->
<!-- Title: Juniper.Imaging.IImageTranscoder&lt; FromImageT, ToImageT &gt; Pages: 1 -->
<svg width="545pt" height="332pt"
 viewBox="0.00 0.00 545.00 332.00" xmlns="http://www.w3.org/2000/svg" xmlns:xlink="http://www.w3.org/1999/xlink">
<g id="graph0" class="graph" transform="scale(1 1) rotate(0) translate(4 328)">
<title>Juniper.Imaging.IImageTranscoder&lt; FromImageT, ToImageT &gt;</title>
<polygon fill="white" stroke="none" points="-4,4 -4,-328 541,-328 541,4 -4,4"/>
<!-- Node0 -->
<g id="node1" class="node"><title>Node0</title>
<g id="a_node1"><a xlink:title=" ">
<polygon fill="#bfbfbf" stroke="black" points="185,-244.5 185,-323.5 352,-323.5 352,-244.5 185,-244.5"/>
<text text-anchor="start" x="193" y="-311.5" font-family="SegoeUI" font-size="10.00">Juniper.Imaging.IImageTranscoder</text>
<text text-anchor="middle" x="268.5" y="-300.5" font-family="SegoeUI" font-size="10.00">&lt; FromImageT, ToImageT &gt;</text>
<polyline fill="none" stroke="black" points="185,-293.5 352,-293.5 "/>
<text text-anchor="middle" x="268.5" y="-281.5" font-family="SegoeUI" font-size="10.00"> </text>
<polyline fill="none" stroke="black" points="185,-274.5 352,-274.5 "/>
<text text-anchor="start" x="193" y="-262.5" font-family="SegoeUI" font-size="10.00">+ Translate()</text>
<text text-anchor="start" x="193" y="-251.5" font-family="SegoeUI" font-size="10.00">+ Translate()</text>
</a>
</g>
</g>
<!-- Node1 -->
<g id="node2" class="node"><title>Node1</title>
<g id="a_node2"><a xlink:href="../../d1/d6e/interface_juniper_1_1_imaging_1_1_i_image_transcoder.html" target="_top" xlink:title=" ">
<polygon fill="white" stroke="black" points="0,-117.5 0,-196.5 167,-196.5 167,-117.5 0,-117.5"/>
<text text-anchor="start" x="8" y="-184.5" font-family="SegoeUI" font-size="10.00">Juniper.Imaging.IImageTranscoder</text>
<text text-anchor="middle" x="83.5" y="-173.5" font-family="SegoeUI" font-size="10.00">&lt; JpegImage, ImageData &gt;</text>
<polyline fill="none" stroke="black" points="0,-166.5 167,-166.5 "/>
<text text-anchor="middle" x="83.5" y="-154.5" font-family="SegoeUI" font-size="10.00"> </text>
<polyline fill="none" stroke="black" points="0,-147.5 167,-147.5 "/>
<text text-anchor="start" x="8" y="-135.5" font-family="SegoeUI" font-size="10.00">+ Translate()</text>
<text text-anchor="start" x="8" y="-124.5" font-family="SegoeUI" font-size="10.00">+ Translate()</text>
</a>
</g>
</g>
<!-- Node0&#45;&gt;Node1 -->
<g id="edge1" class="edge"><title>Node0&#45;&gt;Node1</title>
<path fill="none" stroke="orange" d="M175.969,-246.798C164.25,-240.605 152.778,-233.66 142.5,-226 131.472,-217.781 121.054,-207.177 112.13,-196.799"/>
<polygon fill="orange" stroke="orange" points="174.466,-249.961 184.965,-251.388 177.648,-243.725 174.466,-249.961"/>
<text text-anchor="middle" x="203.5" y="-218" font-family="SegoeUI" font-size="10.00"> &lt; JpegImage, ImageData &gt;</text>
</g>
<!-- Node3 -->
<g id="node4" class="node"><title>Node3</title>
<g id="a_node4"><a xlink:href="../../d1/d6e/interface_juniper_1_1_imaging_1_1_i_image_transcoder.html" target="_top" xlink:title=" ">
<polygon fill="white" stroke="black" points="185,-117.5 185,-196.5 352,-196.5 352,-117.5 185,-117.5"/>
<text text-anchor="start" x="193" y="-184.5" font-family="SegoeUI" font-size="10.00">Juniper.Imaging.IImageTranscoder</text>
<text text-anchor="middle" x="268.5" y="-173.5" font-family="SegoeUI" font-size="10.00">&lt; ImageLines, ImageData &gt;</text>
<polyline fill="none" stroke="black" points="185,-166.5 352,-166.5 "/>
<text text-anchor="middle" x="268.5" y="-154.5" font-family="SegoeUI" font-size="10.00"> </text>
<polyline fill="none" stroke="black" points="185,-147.5 352,-147.5 "/>
<text text-anchor="start" x="193" y="-135.5" font-family="SegoeUI" font-size="10.00">+ Translate()</text>
<text text-anchor="start" x="193" y="-124.5" font-family="SegoeUI" font-size="10.00">+ Translate()</text>
</a>
</g>
</g>
<!-- Node0&#45;&gt;Node3 -->
<g id="edge3" class="edge"><title>Node0&#45;&gt;Node3</title>
<path fill="none" stroke="orange" d="M268.5,-234.222C268.5,-221.745 268.5,-208.5 268.5,-196.612"/>
<polygon fill="orange" stroke="orange" points="265,-234.476 268.5,-244.476 272,-234.476 265,-234.476"/>
<text text-anchor="middle" x="330.5" y="-218" font-family="SegoeUI" font-size="10.00"> &lt; ImageLines, ImageData &gt;</text>
</g>
<!-- Node5 -->
<g id="node6" class="node"><title>Node5</title>
<g id="a_node6"><a xlink:href="../../d1/d6e/interface_juniper_1_1_imaging_1_1_i_image_transcoder.html" target="_top" xlink:title=" ">
<polygon fill="white" stroke="black" points="370,-117.5 370,-196.5 537,-196.5 537,-117.5 370,-117.5"/>
<text text-anchor="start" x="378" y="-184.5" font-family="SegoeUI" font-size="10.00">Juniper.Imaging.IImageTranscoder</text>
<text text-anchor="middle" x="453.5" y="-173.5" font-family="SegoeUI" font-size="10.00">&lt; Image, ImageData &gt;</text>
<polyline fill="none" stroke="black" points="370,-166.5 537,-166.5 "/>
<text text-anchor="middle" x="453.5" y="-154.5" font-family="SegoeUI" font-size="10.00"> </text>
<polyline fill="none" stroke="black" points="370,-147.5 537,-147.5 "/>
<text text-anchor="start" x="378" y="-135.5" font-family="SegoeUI" font-size="10.00">+ Translate()</text>
<text text-anchor="start" x="378" y="-124.5" font-family="SegoeUI" font-size="10.00">+ Translate()</text>
</a>
</g>
</g>
<!-- Node0&#45;&gt;Node5 -->
<g id="edge5" class="edge"><title>Node0&#45;&gt;Node5</title>
<path fill="none" stroke="orange" d="M361.207,-247.841C373.588,-241.417 385.715,-234.132 396.5,-226 407.447,-217.746 417.672,-207.012 426.353,-196.521"/>
<polygon fill="orange" stroke="orange" points="359.54,-244.762 352.163,-252.367 362.672,-251.022 359.54,-244.762"/>
<text text-anchor="middle" x="460" y="-218" font-family="SegoeUI" font-size="10.00"> &lt; Image, ImageData &gt;</text>
</g>
<!-- Node2 -->
<g id="node3" class="node"><title>Node2</title>
<g id="a_node3"><a xlink:href="../../dd/de4/class_juniper_1_1_imaging_1_1_lib_jpeg_n_e_t_image_data_transcoder.html" target="_top" xlink:title=" ">
<polygon fill="white" stroke="black" points="1.5,-0.5 1.5,-79.5 165.5,-79.5 165.5,-0.5 1.5,-0.5"/>
<text text-anchor="start" x="9.5" y="-67.5" font-family="SegoeUI" font-size="10.00">Juniper.Imaging.LibJpegNETImage</text>
<text text-anchor="middle" x="83.5" y="-56.5" font-family="SegoeUI" font-size="10.00">DataTranscoder</text>
<polyline fill="none" stroke="black" points="1.5,-49.5 165.5,-49.5 "/>
<text text-anchor="middle" x="83.5" y="-37.5" font-family="SegoeUI" font-size="10.00"> </text>
<polyline fill="none" stroke="black" points="1.5,-30.5 165.5,-30.5 "/>
<text text-anchor="start" x="9.5" y="-18.5" font-family="SegoeUI" font-size="10.00">+ Translate()</text>
<text text-anchor="start" x="9.5" y="-7.5" font-family="SegoeUI" font-size="10.00">+ Translate()</text>
</a>
</g>
</g>
<!-- Node1&#45;&gt;Node2 -->
<g id="edge2" class="edge"><title>Node1&#45;&gt;Node2</title>
<path fill="none" stroke="midnightblue" d="M83.5,-107.199C83.5,-98.016 83.5,-88.5299 83.5,-79.7071"/>
<polygon fill="none" stroke="midnightblue" points="80.0001,-107.387 83.5,-117.387 87.0001,-107.387 80.0001,-107.387"/>
</g>
<!-- Node4 -->
<g id="node5" class="node"><title>Node4</title>
<g id="a_node5"><a xlink:href="../../da/de1/class_juniper_1_1_imaging_1_1_hjg_pngcs_image_data_transcoder.html" target="_top" xlink:title=" ">
<polygon fill="white" stroke="black" points="205,-0.5 205,-79.5 332,-79.5 332,-0.5 205,-0.5"/>
<text text-anchor="start" x="213" y="-67.5" font-family="SegoeUI" font-size="10.00">Juniper.Imaging.HjgPngcs</text>
<text text-anchor="middle" x="268.5" y="-56.5" font-family="SegoeUI" font-size="10.00">ImageDataTranscoder</text>
<polyline fill="none" stroke="black" points="205,-49.5 332,-49.5 "/>
<text text-anchor="middle" x="268.5" y="-37.5" font-family="SegoeUI" font-size="10.00"> </text>
<polyline fill="none" stroke="black" points="205,-30.5 332,-30.5 "/>
<text text-anchor="start" x="213" y="-18.5" font-family="SegoeUI" font-size="10.00">+ Translate()</text>
<text text-anchor="start" x="213" y="-7.5" font-family="SegoeUI" font-size="10.00">+ Translate()</text>
</a>
</g>
</g>
<!-- Node3&#45;&gt;Node4 -->
<g id="edge4" class="edge"><title>Node3&#45;&gt;Node4</title>
<path fill="none" stroke="midnightblue" d="M268.5,-107.199C268.5,-98.016 268.5,-88.5299 268.5,-79.7071"/>
<polygon fill="none" stroke="midnightblue" points="265,-107.387 268.5,-117.387 272,-107.387 265,-107.387"/>
</g>
<!-- Node6 -->
<g id="node7" class="node"><title>Node6</title>
<g id="a_node7"><a xlink:href="../../d1/dd2/class_juniper_1_1_imaging_1_1_g_d_i_image_data_transcoder.html" target="_top" xlink:title=" ">
<polygon fill="white" stroke="black" points="388.5,-0.5 388.5,-79.5 518.5,-79.5 518.5,-0.5 388.5,-0.5"/>
<text text-anchor="start" x="396.5" y="-67.5" font-family="SegoeUI" font-size="10.00">Juniper.Imaging.GDIImage</text>
<text text-anchor="middle" x="453.5" y="-56.5" font-family="SegoeUI" font-size="10.00">DataTranscoder</text>
<polyline fill="none" stroke="black" points="388.5,-49.5 518.5,-49.5 "/>
<text text-anchor="middle" x="453.5" y="-37.5" font-family="SegoeUI" font-size="10.00"> </text>
<polyline fill="none" stroke="black" points="388.5,-30.5 518.5,-30.5 "/>
<text text-anchor="start" x="396.5" y="-18.5" font-family="SegoeUI" font-size="10.00">+ Translate()</text>
<text text-anchor="start" x="396.5" y="-7.5" font-family="SegoeUI" font-size="10.00">+ Translate()</text>
</a>
</g>
</g>
<!-- Node5&#45;&gt;Node6 -->
<g id="edge6" class="edge"><title>Node5&#45;&gt;Node6</title>
<path fill="none" stroke="midnightblue" d="M453.5,-107.199C453.5,-98.016 453.5,-88.5299 453.5,-79.7071"/>
<polygon fill="none" stroke="midnightblue" points="450,-107.387 453.5,-117.387 457,-107.387 450,-107.387"/>
</g>
</g>
</svg>
