<?xml version="1.0" encoding="UTF-8" standalone="no"?>
<!DOCTYPE svg PUBLIC "-//W3C//DTD SVG 1.1//EN"
 "http://www.w3.org/Graphics/SVG/1.1/DTD/svg11.dtd">
<!-- Generated by graphviz version 2.38.0 (20140413.2041)
 -->
<!-- Title: Juniper.Unity.Widgets.Openable Pages: 1 -->
<!--zoomable 1338 -->
<svg id="main" version="1.1" xmlns="http://www.w3.org/2000/svg" xmlns:xlink="http://www.w3.org/1999/xlink" xml:space="preserve" onload="init(evt)">
<style type="text/css"><![CDATA[
.edge:hover path { stroke: red; }
.edge:hover polygon { stroke: red; fill: red; }
]]></style>
<script type="text/javascript"><![CDATA[
var edges = document.getElementsByTagName('g');
if (edges && edges.length) {
  for (var i=0;i<edges.length;i++) {
    if (edges[i].id.substr(0,4)=='edge') {
      edges[i].setAttribute('class','edge');
    }
  }
}
]]></script>
        <defs>
                <circle id="rim" cx="0" cy="0" r="7"/>
                <circle id="rim2" cx="0" cy="0" r="3.5"/>
                <g id="zoomPlus">
                        <use xlink:href="#rim" fill="#404040">
                                <set attributeName="fill" to="#808080" begin="zoomplus.mouseover" end="zoomplus.mouseout"/>
                        </use>
                        <path d="M-4,0h8M0,-4v8" fill="none" stroke="white" stroke-width="1.5" pointer-events="none"/>
                </g>
                <g id="zoomMin">
                        <use xlink:href="#rim" fill="#404040">
                                <set attributeName="fill" to="#808080" begin="zoomminus.mouseover" end="zoomminus.mouseout"/>
                        </use>
                        <path d="M-4,0h8" fill="none" stroke="white" stroke-width="1.5" pointer-events="none"/>
                </g>
                <g id="dirArrow">
                        <path fill="none" stroke="white" stroke-width="1.5" d="M0,-3.0v7 M-2.5,-0.5L0,-3.0L2.5,-0.5"/>
                </g>
               <g id="resetDef">
                       <use xlink:href="#rim2" fill="#404040">
                               <set attributeName="fill" to="#808080" begin="reset.mouseover" end="reset.mouseout"/>
                       </use>
               </g>
        </defs>

<script type="text/javascript">
var viewWidth = 1067;
var viewHeight = 1338;
var sectionId = 'dynsection-1';
</script>
<script xlink:href="../../svgpan.js"/>
<svg id="graph" class="graph">
<g id="viewport">
<title>Juniper.Unity.Widgets.Openable</title>
<polygon fill="white" stroke="none" points="-4,4 -4,-1334 1062.5,-1334 1062.5,4 -4,4"/>
<!-- Node11 -->
<g id="node1" class="node"><title>Node11</title>
<g id="a_node1"><a xlink:title="A control that is a container of other controls that are hidden until the control is clicked.">
<polygon fill="#bfbfbf" stroke="black" points="54.5,-0.5 54.5,-167.5 206.5,-167.5 206.5,-0.5 54.5,-0.5"/>
<text text-anchor="middle" x="130.5" y="-155.5" font-family="SegoeUI" font-size="10.00">Juniper.Unity.Widgets.Openable</text>
<polyline fill="none" stroke="black" points="54.5,-148.5 206.5,-148.5 "/>
<text text-anchor="start" x="62.5" y="-136.5" font-family="SegoeUI" font-size="10.00">+ payload</text>
<text text-anchor="start" x="62.5" y="-125.5" font-family="SegoeUI" font-size="10.00">+ Open</text>
<text text-anchor="start" x="62.5" y="-114.5" font-family="SegoeUI" font-size="10.00">+ OpenChanged</text>
<text text-anchor="start" x="62.5" y="-103.5" font-family="SegoeUI" font-size="10.00">+ Opened</text>
<text text-anchor="start" x="62.5" y="-92.5" font-family="SegoeUI" font-size="10.00">+ Closed</text>
<text text-anchor="start" x="62.5" y="-81.5" font-family="SegoeUI" font-size="10.00">&#45; wasOpen</text>
<polyline fill="none" stroke="black" points="54.5,-74.5 206.5,-74.5 "/>
<text text-anchor="start" x="62.5" y="-62.5" font-family="SegoeUI" font-size="10.00">+ SetOpen()</text>
<text text-anchor="start" x="62.5" y="-51.5" font-family="SegoeUI" font-size="10.00">+ ToggleOpen()</text>
<text text-anchor="start" x="62.5" y="-40.5" font-family="SegoeUI" font-size="10.00">+ OnPointerClick()</text>
<text text-anchor="start" x="62.5" y="-29.5" font-family="SegoeUI" font-size="10.00"># Awake()</text>
<text text-anchor="start" x="62.5" y="-18.5" font-family="SegoeUI" font-size="10.00"># Update()</text>
<text text-anchor="start" x="62.5" y="-7.5" font-family="SegoeUI" font-size="10.00"># LateUpdate()</text>
</a>
</g>
</g>
<!-- Node12 -->
<g id="node2" class="node"><title>Node12</title>
<g id="a_node2"><a xlink:href="../../df/de4/class_juniper_1_1_unity_1_1_widgets_1_1_clickable.html" target="_top" xlink:title="An object that can be Touched on a screen or Clicked with a mouse and fires an event in response.">
<polygon fill="white" stroke="black" points="157,-205.5 157,-317.5 276,-317.5 276,-205.5 157,-205.5"/>
<text text-anchor="middle" x="216.5" y="-305.5" font-family="SegoeUI" font-size="10.00">Clickable</text>
<polyline fill="none" stroke="black" points="157,-298.5 276,-298.5 "/>
<text text-anchor="start" x="165" y="-286.5" font-family="SegoeUI" font-size="10.00">+ onClick</text>
<text text-anchor="start" x="165" y="-275.5" font-family="SegoeUI" font-size="10.00">+ onLongPress</text>
<polyline fill="none" stroke="black" points="157,-268.5 276,-268.5 "/>
<text text-anchor="start" x="165" y="-256.5" font-family="SegoeUI" font-size="10.00">+ OnPointerClick()</text>
<text text-anchor="start" x="165" y="-245.5" font-family="SegoeUI" font-size="10.00">+ OnLongPress()</text>
<text text-anchor="start" x="165" y="-234.5" font-family="SegoeUI" font-size="10.00">+ OnLongPressUpdate()</text>
<text text-anchor="start" x="165" y="-223.5" font-family="SegoeUI" font-size="10.00"># OnClick()</text>
<text text-anchor="start" x="165" y="-212.5" font-family="SegoeUI" font-size="10.00"># OnLongPress()</text>
</a>
</g>
</g>
<!-- Node12&#45;&gt;Node11 -->
<g id="edge1" class="edge"><title>Node12&#45;&gt;Node11</title>
<path fill="none" stroke="midnightblue" d="M185.05,-196.32C180.505,-187.044 175.773,-177.389 171.081,-167.813"/>
<polygon fill="none" stroke="midnightblue" points="181.982,-198.013 189.525,-205.452 188.268,-194.932 181.982,-198.013"/>
</g>
<!-- Node13 -->
<g id="node3" class="node"><title>Node13</title>
<g id="a_node3"><a xlink:href="../../dc/dad/class_juniper_1_1_unity_1_1_widgets_1_1_abstract_touchable.html" target="_top" xlink:title="The base class for all interactive, AR&#45;compatible, GUI controls /// This class is abstract to avoid i...">
<polygon fill="white" stroke="black" points="619.5,-610.5 619.5,-854.5 745.5,-854.5 745.5,-610.5 619.5,-610.5"/>
<text text-anchor="middle" x="682.5" y="-842.5" font-family="SegoeUI" font-size="10.00">AbstractTouchable</text>
<polyline fill="none" stroke="black" points="619.5,-835.5 745.5,-835.5 "/>
<text text-anchor="start" x="627.5" y="-823.5" font-family="SegoeUI" font-size="10.00">+ disabled</text>
<text text-anchor="start" x="627.5" y="-812.5" font-family="SegoeUI" font-size="10.00">+ DisabledChanged</text>
<text text-anchor="start" x="627.5" y="-801.5" font-family="SegoeUI" font-size="10.00">+ DisabledDown</text>
<text text-anchor="start" x="627.5" y="-790.5" font-family="SegoeUI" font-size="10.00">+ DisabledUp</text>
<text text-anchor="start" x="627.5" y="-779.5" font-family="SegoeUI" font-size="10.00">+ IsDisabled</text>
<text text-anchor="start" x="627.5" y="-768.5" font-family="SegoeUI" font-size="10.00">+ PointerPositionChanged</text>
<text text-anchor="start" x="627.5" y="-757.5" font-family="SegoeUI" font-size="10.00">&#45; wasDisabled</text>
<polyline fill="none" stroke="black" points="619.5,-750.5 745.5,-750.5 "/>
<text text-anchor="start" x="627.5" y="-738.5" font-family="SegoeUI" font-size="10.00">+ SetDisabled()</text>
<text text-anchor="start" x="627.5" y="-727.5" font-family="SegoeUI" font-size="10.00">+ ToggleEnabled()</text>
<text text-anchor="start" x="627.5" y="-716.5" font-family="SegoeUI" font-size="10.00">+ OnPointerEnter()</text>
<text text-anchor="start" x="627.5" y="-705.5" font-family="SegoeUI" font-size="10.00">+ OnPointerExit()</text>
<text text-anchor="start" x="627.5" y="-694.5" font-family="SegoeUI" font-size="10.00">+ OnPointerDown()</text>
<text text-anchor="start" x="627.5" y="-683.5" font-family="SegoeUI" font-size="10.00">+ OnPointerUp()</text>
<text text-anchor="start" x="627.5" y="-672.5" font-family="SegoeUI" font-size="10.00"># Awake()</text>
<text text-anchor="start" x="627.5" y="-661.5" font-family="SegoeUI" font-size="10.00"># Update()</text>
<text text-anchor="start" x="627.5" y="-650.5" font-family="SegoeUI" font-size="10.00"># LateUpdate()</text>
<text text-anchor="start" x="627.5" y="-639.5" font-family="SegoeUI" font-size="10.00"># ShowState()</text>
<text text-anchor="start" x="627.5" y="-628.5" font-family="SegoeUI" font-size="10.00"># GetPosition()</text>
<text text-anchor="start" x="627.5" y="-617.5" font-family="SegoeUI" font-size="10.00">&#45; NormalizePart()</text>
</a>
</g>
</g>
<!-- Node13&#45;&gt;Node12 -->
<g id="edge2" class="edge"><title>Node13&#45;&gt;Node12</title>
<path fill="none" stroke="midnightblue" d="M612.018,-660.564C518.69,-566.636 356.059,-402.957 271.344,-317.697"/>
<polygon fill="none" stroke="midnightblue" points="609.637,-663.134 619.168,-667.76 614.603,-658.2 609.637,-663.134"/>
</g>
<!-- Node14 -->
<g id="node4" class="node"><title>Node14</title>
<g id="a_node4"><a xlink:title=" ">
<polygon fill="white" stroke="#bfbfbf" points="869.5,-1272.5 869.5,-1329.5 951.5,-1329.5 951.5,-1272.5 869.5,-1272.5"/>
<text text-anchor="middle" x="910.5" y="-1317.5" font-family="SegoeUI" font-size="10.00">MonoBehaviour</text>
<polyline fill="none" stroke="#bfbfbf" points="869.5,-1310.5 951.5,-1310.5 "/>
<text text-anchor="middle" x="910.5" y="-1298.5" font-family="SegoeUI" font-size="10.00"> </text>
<polyline fill="none" stroke="#bfbfbf" points="869.5,-1291.5 951.5,-1291.5 "/>
<text text-anchor="middle" x="910.5" y="-1279.5" font-family="SegoeUI" font-size="10.00"> </text>
</a>
</g>
</g>
<!-- Node14&#45;&gt;Node13 -->
<g id="edge3" class="edge"><title>Node14&#45;&gt;Node13</title>
<path fill="none" stroke="midnightblue" d="M913.201,-1262.04C919.06,-1170.22 929.606,-938.827 892.5,-873 860.583,-816.378 795.032,-778.506 745.607,-756.684"/>
<polygon fill="none" stroke="midnightblue" points="909.692,-1262.06 912.53,-1272.27 916.677,-1262.52 909.692,-1262.06"/>
</g>
<!-- Node19 -->
<g id="node9" class="node"><title>Node19</title>
<g id="a_node9"><a xlink:href="../../dd/d2d/class_juniper_1_1_unity_1_1_animation_1_1_abstract_animator.html" target="_top" xlink:title="An abstraction layer over different ways of showing UI state. Only one such component is allowed on a...">
<polygon fill="white" stroke="black" points="938.5,-1029 938.5,-1130 1058.5,-1130 1058.5,-1029 938.5,-1029"/>
<text text-anchor="start" x="946.5" y="-1118" font-family="SegoeUI" font-size="10.00">Juniper.Unity.Animation.</text>
<text text-anchor="middle" x="998.5" y="-1107" font-family="SegoeUI" font-size="10.00">AbstractAnimator</text>
<polyline fill="none" stroke="black" points="938.5,-1100 1058.5,-1100 "/>
<text text-anchor="middle" x="998.5" y="-1088" font-family="SegoeUI" font-size="10.00"> </text>
<polyline fill="none" stroke="black" points="938.5,-1081 1058.5,-1081 "/>
<text text-anchor="start" x="946.5" y="-1069" font-family="SegoeUI" font-size="10.00">+ PlayCoroutine()</text>
<text text-anchor="start" x="946.5" y="-1058" font-family="SegoeUI" font-size="10.00">+ Play()</text>
<text text-anchor="start" x="946.5" y="-1047" font-family="SegoeUI" font-size="10.00">+ HasState()</text>
<text text-anchor="start" x="946.5" y="-1036" font-family="SegoeUI" font-size="10.00">+ GetAnimator()</text>
</a>
</g>
</g>
<!-- Node14&#45;&gt;Node19 -->
<g id="edge9" class="edge"><title>Node14&#45;&gt;Node19</title>
<path fill="none" stroke="midnightblue" d="M925.369,-1262.91C939.993,-1226.43 962.415,-1170.51 978.575,-1130.2"/>
<polygon fill="none" stroke="midnightblue" points="922.118,-1261.62 921.645,-1272.2 928.615,-1264.22 922.118,-1261.62"/>
</g>
<!-- Node26 -->
<g id="node16" class="node"><title>Node26</title>
<g id="a_node16"><a xlink:href="../../dd/d90/class_juniper_1_1_unity_1_1_abstract_state_controller.html" target="_top" xlink:title="A subscene is a game object loaded from another scene. The scenes all get loaded at runtime and then ...">
<polygon fill="white" stroke="black" points="10.5,-924.5 10.5,-1234.5 126.5,-1234.5 126.5,-924.5 10.5,-924.5"/>
<text text-anchor="middle" x="68.5" y="-1222.5" font-family="SegoeUI" font-size="10.00">AbstractStateController</text>
<polyline fill="none" stroke="black" points="10.5,-1215.5 126.5,-1215.5 "/>
<text text-anchor="start" x="18.5" y="-1203.5" font-family="SegoeUI" font-size="10.00">+ onEntering</text>
<text text-anchor="start" x="18.5" y="-1192.5" font-family="SegoeUI" font-size="10.00">+ onEntered</text>
<text text-anchor="start" x="18.5" y="-1181.5" font-family="SegoeUI" font-size="10.00">+ onExiting</text>
<text text-anchor="start" x="18.5" y="-1170.5" font-family="SegoeUI" font-size="10.00">+ onExited</text>
<text text-anchor="start" x="18.5" y="-1159.5" font-family="SegoeUI" font-size="10.00">+ state</text>
<text text-anchor="start" x="18.5" y="-1148.5" font-family="SegoeUI" font-size="10.00">+ IsComplete</text>
<text text-anchor="start" x="18.5" y="-1137.5" font-family="SegoeUI" font-size="10.00">+ IsRunning</text>
<text text-anchor="start" x="18.5" y="-1126.5" font-family="SegoeUI" font-size="10.00">+ IsEntered</text>
<text text-anchor="start" x="18.5" y="-1115.5" font-family="SegoeUI" font-size="10.00">+ IsExited</text>
<text text-anchor="start" x="18.5" y="-1104.5" font-family="SegoeUI" font-size="10.00">+ Waiter</text>
<text text-anchor="start" x="18.5" y="-1093.5" font-family="SegoeUI" font-size="10.00">&#45; lastState</text>
<text text-anchor="start" x="18.5" y="-1082.5" font-family="SegoeUI" font-size="10.00">&#45; skipEvents</text>
<text text-anchor="start" x="18.5" y="-1071.5" font-family="SegoeUI" font-size="10.00">&#45; _waiter</text>
<polyline fill="none" stroke="black" points="10.5,-1064.5 126.5,-1064.5 "/>
<text text-anchor="start" x="18.5" y="-1052.5" font-family="SegoeUI" font-size="10.00">+ HasCompleted()</text>
<text text-anchor="start" x="18.5" y="-1041.5" font-family="SegoeUI" font-size="10.00">+ SkipEnter()</text>
<text text-anchor="start" x="18.5" y="-1030.5" font-family="SegoeUI" font-size="10.00">+ Enter()</text>
<text text-anchor="start" x="18.5" y="-1019.5" font-family="SegoeUI" font-size="10.00">+ OnEnable()</text>
<text text-anchor="start" x="18.5" y="-1008.5" font-family="SegoeUI" font-size="10.00">+ Update()</text>
<text text-anchor="start" x="18.5" y="-997.5" font-family="SegoeUI" font-size="10.00">+ SkipExit()</text>
<text text-anchor="start" x="18.5" y="-986.5" font-family="SegoeUI" font-size="10.00">+ Exit()</text>
<text text-anchor="start" x="18.5" y="-975.5" font-family="SegoeUI" font-size="10.00">+ OnDisable()</text>
<text text-anchor="start" x="18.5" y="-964.5" font-family="SegoeUI" font-size="10.00"># OnEntering()</text>
<text text-anchor="start" x="18.5" y="-953.5" font-family="SegoeUI" font-size="10.00"># OnEntered()</text>
<text text-anchor="start" x="18.5" y="-942.5" font-family="SegoeUI" font-size="10.00"># OnExiting()</text>
<text text-anchor="start" x="18.5" y="-931.5" font-family="SegoeUI" font-size="10.00"># OnExited()</text>
</a>
</g>
</g>
<!-- Node14&#45;&gt;Node26 -->
<g id="edge17" class="edge"><title>Node14&#45;&gt;Node26</title>
<path fill="none" stroke="midnightblue" d="M859.057,-1298.71C695.406,-1294.21 194.127,-1277.09 135.5,-1235 132.413,-1232.78 129.466,-1230.39 126.654,-1227.85"/>
<polygon fill="none" stroke="midnightblue" points="859.249,-1302.22 869.34,-1298.99 859.438,-1295.22 859.249,-1302.22"/>
</g>
<!-- Node15 -->
<g id="node5" class="node"><title>Node15</title>
<g id="a_node5"><a xlink:title=" ">
<polygon fill="white" stroke="#bfbfbf" points="270,-1051 270,-1108 375,-1108 375,-1051 270,-1051"/>
<text text-anchor="middle" x="322.5" y="-1096" font-family="SegoeUI" font-size="10.00">IPointerEnterHandler</text>
<polyline fill="none" stroke="#bfbfbf" points="270,-1089 375,-1089 "/>
<text text-anchor="middle" x="322.5" y="-1077" font-family="SegoeUI" font-size="10.00"> </text>
<polyline fill="none" stroke="#bfbfbf" points="270,-1070 375,-1070 "/>
<text text-anchor="middle" x="322.5" y="-1058" font-family="SegoeUI" font-size="10.00"> </text>
</a>
</g>
</g>
<!-- Node15&#45;&gt;Node13 -->
<g id="edge4" class="edge"><title>Node15&#45;&gt;Node13</title>
<path fill="none" stroke="midnightblue" d="M330.651,-1040.83C339.424,-1007.26 356.094,-958.29 384.5,-924 448.644,-846.568 552.655,-790.252 619.288,-759.719"/>
<polygon fill="none" stroke="midnightblue" points="327.209,-1040.17 328.178,-1050.72 334,-1041.87 327.209,-1040.17"/>
</g>
<!-- Node16 -->
<g id="node6" class="node"><title>Node16</title>
<g id="a_node6"><a xlink:title=" ">
<polygon fill="white" stroke="#bfbfbf" points="393.5,-1051 393.5,-1108 491.5,-1108 491.5,-1051 393.5,-1051"/>
<text text-anchor="middle" x="442.5" y="-1096" font-family="SegoeUI" font-size="10.00">IPointerExitHandler</text>
<polyline fill="none" stroke="#bfbfbf" points="393.5,-1089 491.5,-1089 "/>
<text text-anchor="middle" x="442.5" y="-1077" font-family="SegoeUI" font-size="10.00"> </text>
<polyline fill="none" stroke="#bfbfbf" points="393.5,-1070 491.5,-1070 "/>
<text text-anchor="middle" x="442.5" y="-1058" font-family="SegoeUI" font-size="10.00"> </text>
</a>
</g>
</g>
<!-- Node16&#45;&gt;Node13 -->
<g id="edge5" class="edge"><title>Node16&#45;&gt;Node13</title>
<path fill="none" stroke="midnightblue" d="M452.045,-1040.72C461.318,-1008.18 477.398,-960.779 500.5,-924 532.859,-872.485 580.719,-823.079 619.239,-787.495"/>
<polygon fill="none" stroke="midnightblue" points="448.568,-1040.16 449.273,-1050.73 455.314,-1042.03 448.568,-1040.16"/>
</g>
<!-- Node17 -->
<g id="node7" class="node"><title>Node17</title>
<g id="a_node7"><a xlink:title=" ">
<polygon fill="white" stroke="#bfbfbf" points="510,-1051 510,-1108 617,-1108 617,-1051 510,-1051"/>
<text text-anchor="middle" x="563.5" y="-1096" font-family="SegoeUI" font-size="10.00">IPointerDownHandler</text>
<polyline fill="none" stroke="#bfbfbf" points="510,-1089 617,-1089 "/>
<text text-anchor="middle" x="563.5" y="-1077" font-family="SegoeUI" font-size="10.00"> </text>
<polyline fill="none" stroke="#bfbfbf" points="510,-1070 617,-1070 "/>
<text text-anchor="middle" x="563.5" y="-1058" font-family="SegoeUI" font-size="10.00"> </text>
</a>
</g>
</g>
<!-- Node17&#45;&gt;Node13 -->
<g id="edge6" class="edge"><title>Node17&#45;&gt;Node13</title>
<path fill="none" stroke="midnightblue" d="M576.318,-1041.34C591.643,-996.908 618.067,-920.301 640.72,-854.627"/>
<polygon fill="none" stroke="midnightblue" points="572.989,-1040.26 573.037,-1050.85 579.607,-1042.54 572.989,-1040.26"/>
</g>
<!-- Node18 -->
<g id="node8" class="node"><title>Node18</title>
<g id="a_node8"><a xlink:title=" ">
<polygon fill="white" stroke="#bfbfbf" points="635.5,-1051 635.5,-1108 729.5,-1108 729.5,-1051 635.5,-1051"/>
<text text-anchor="middle" x="682.5" y="-1096" font-family="SegoeUI" font-size="10.00">IPointerUpHandler</text>
<polyline fill="none" stroke="#bfbfbf" points="635.5,-1089 729.5,-1089 "/>
<text text-anchor="middle" x="682.5" y="-1077" font-family="SegoeUI" font-size="10.00"> </text>
<polyline fill="none" stroke="#bfbfbf" points="635.5,-1070 729.5,-1070 "/>
<text text-anchor="middle" x="682.5" y="-1058" font-family="SegoeUI" font-size="10.00"> </text>
</a>
</g>
</g>
<!-- Node18&#45;&gt;Node13 -->
<g id="edge7" class="edge"><title>Node18&#45;&gt;Node13</title>
<path fill="none" stroke="midnightblue" d="M682.5,-1040.78C682.5,-996.264 682.5,-920.025 682.5,-854.627"/>
<polygon fill="none" stroke="midnightblue" points="679,-1040.85 682.5,-1050.85 686,-1040.85 679,-1040.85"/>
</g>
<!-- Node19&#45;&gt;Node13 -->
<g id="edge8" class="edge"><title>Node19&#45;&gt;Node13</title>
<path fill="none" stroke="#404040" d="M990.647,-1028.83C981.39,-983.903 962.218,-918.077 924.5,-873 880.12,-819.962 810.089,-782.726 756.756,-760.145"/>
<polygon fill="none" stroke="#404040" points="756.733,-760.135 749.66,-761.538 745.645,-755.548 752.718,-754.146 756.733,-760.135"/>
<text text-anchor="middle" x="967.5" y="-887" font-family="SegoeUI" font-size="10.00"> &#45;animator</text>
</g>
<!-- Node20 -->
<g id="node10" class="node"><title>Node20</title>
<g id="a_node10"><a xlink:title=" ">
<polygon fill="white" stroke="#bfbfbf" points="747.5,-1051 747.5,-1108 813.5,-1108 813.5,-1051 747.5,-1051"/>
<text text-anchor="middle" x="780.5" y="-1096" font-family="SegoeUI" font-size="10.00">UnityEngine</text>
<polyline fill="none" stroke="#bfbfbf" points="747.5,-1089 813.5,-1089 "/>
<text text-anchor="middle" x="780.5" y="-1077" font-family="SegoeUI" font-size="10.00"> </text>
<polyline fill="none" stroke="#bfbfbf" points="747.5,-1070 813.5,-1070 "/>
<text text-anchor="middle" x="780.5" y="-1058" font-family="SegoeUI" font-size="10.00"> </text>
</a>
</g>
</g>
<!-- Node20&#45;&gt;Node13 -->
<g id="edge10" class="edge"><title>Node20&#45;&gt;Node13</title>
<path fill="none" stroke="#404040" d="M778.1,-1050.75C774.175,-1018.12 764.057,-963.415 738.5,-924 731.627,-913.4 722.994,-916.837 716.5,-906 709.207,-893.829 703.441,-880.39 698.889,-866.546"/>
<polygon fill="none" stroke="#404040" points="698.822,-866.325 693.255,-861.742 695.344,-854.84 700.911,-859.423 698.822,-866.325"/>
<text text-anchor="middle" x="760.5" y="-898" font-family="SegoeUI" font-size="10.00"> #lastPointerPosition</text>
<text text-anchor="middle" x="760.5" y="-887" font-family="SegoeUI" font-size="10.00">+pointerPosition</text>
<text text-anchor="middle" x="760.5" y="-876" font-family="SegoeUI" font-size="10.00">+clickButton</text>
</g>
<!-- Node21 -->
<g id="node11" class="node"><title>Node21</title>
<g id="a_node11"><a xlink:title=" ">
<polygon fill="white" stroke="#bfbfbf" points="832,-1051 832,-1108 871,-1108 871,-1051 832,-1051"/>
<text text-anchor="middle" x="851.5" y="-1096" font-family="SegoeUI" font-size="10.00">static</text>
<polyline fill="none" stroke="#bfbfbf" points="832,-1089 871,-1089 "/>
<text text-anchor="middle" x="851.5" y="-1077" font-family="SegoeUI" font-size="10.00"> </text>
<polyline fill="none" stroke="#bfbfbf" points="832,-1070 871,-1070 "/>
<text text-anchor="middle" x="851.5" y="-1058" font-family="SegoeUI" font-size="10.00"> </text>
</a>
</g>
</g>
<!-- Node21&#45;&gt;Node13 -->
<g id="edge11" class="edge"><title>Node21&#45;&gt;Node13</title>
<path fill="none" stroke="#404040" d="M850.392,-1050.99C847.634,-1009.68 838.019,-930.348 804.5,-873 790.499,-849.045 772.086,-825.399 753.823,-804.572"/>
<polygon fill="none" stroke="#404040" points="753.732,-804.471 746.752,-802.659 745.74,-795.52 752.72,-797.331 753.732,-804.471"/>
<text text-anchor="middle" x="854" y="-887" font-family="SegoeUI" font-size="10.00"> +PART_NAMES</text>
</g>
<!-- Node22 -->
<g id="node12" class="node"><title>Node22</title>
<g id="a_node12"><a xlink:title=" ">
<polygon fill="white" stroke="#bfbfbf" points="99.5,-704 99.5,-761 201.5,-761 201.5,-704 99.5,-704"/>
<text text-anchor="middle" x="150.5" y="-749" font-family="SegoeUI" font-size="10.00">IPointerClickHandler</text>
<polyline fill="none" stroke="#bfbfbf" points="99.5,-742 201.5,-742 "/>
<text text-anchor="middle" x="150.5" y="-730" font-family="SegoeUI" font-size="10.00"> </text>
<polyline fill="none" stroke="#bfbfbf" points="99.5,-723 201.5,-723 "/>
<text text-anchor="middle" x="150.5" y="-711" font-family="SegoeUI" font-size="10.00"> </text>
</a>
</g>
</g>
<!-- Node22&#45;&gt;Node12 -->
<g id="edge12" class="edge"><title>Node22&#45;&gt;Node12</title>
<path fill="none" stroke="midnightblue" d="M155.779,-693.984C167.379,-611.557 195.133,-414.335 208.728,-317.727"/>
<polygon fill="none" stroke="midnightblue" points="152.31,-693.523 154.382,-703.913 159.242,-694.498 152.31,-693.523"/>
</g>
<!-- Node23 -->
<g id="node13" class="node"><title>Node23</title>
<g id="a_node13"><a xlink:href="../../d8/d82/interface_juniper_1_1_unity_1_1_events_1_1_i_long_press_handler.html" target="_top" xlink:title=" ">
<polygon fill="white" stroke="black" points="220,-698.5 220,-766.5 339,-766.5 339,-698.5 220,-698.5"/>
<text text-anchor="middle" x="279.5" y="-754.5" font-family="SegoeUI" font-size="10.00">ILongPressHandler</text>
<polyline fill="none" stroke="black" points="220,-747.5 339,-747.5 "/>
<text text-anchor="middle" x="279.5" y="-735.5" font-family="SegoeUI" font-size="10.00"> </text>
<polyline fill="none" stroke="black" points="220,-728.5 339,-728.5 "/>
<text text-anchor="start" x="228" y="-716.5" font-family="SegoeUI" font-size="10.00">+ OnLongPressUpdate()</text>
<text text-anchor="start" x="228" y="-705.5" font-family="SegoeUI" font-size="10.00">+ OnLongPress()</text>
</a>
</g>
</g>
<!-- Node23&#45;&gt;Node12 -->
<g id="edge13" class="edge"><title>Node23&#45;&gt;Node12</title>
<path fill="none" stroke="midnightblue" d="M273.656,-687.994C262.156,-602.381 236.605,-412.173 223.929,-317.805"/>
<polygon fill="none" stroke="midnightblue" points="270.219,-688.702 275.02,-698.147 277.157,-687.77 270.219,-688.702"/>
</g>
<!-- Node24 -->
<g id="node14" class="node"><title>Node24</title>
<g id="a_node14"><a xlink:title=" ">
<polygon fill="white" stroke="#bfbfbf" points="145,-1051 145,-1108 252,-1108 252,-1051 145,-1051"/>
<text text-anchor="middle" x="198.5" y="-1096" font-family="SegoeUI" font-size="10.00">IEventSystemHandler</text>
<polyline fill="none" stroke="#bfbfbf" points="145,-1089 252,-1089 "/>
<text text-anchor="middle" x="198.5" y="-1077" font-family="SegoeUI" font-size="10.00"> </text>
<polyline fill="none" stroke="#bfbfbf" points="145,-1070 252,-1070 "/>
<text text-anchor="middle" x="198.5" y="-1058" font-family="SegoeUI" font-size="10.00"> </text>
</a>
</g>
</g>
<!-- Node24&#45;&gt;Node23 -->
<g id="edge14" class="edge"><title>Node24&#45;&gt;Node23</title>
<path fill="none" stroke="midnightblue" d="M207.303,-1041.01C223.239,-973.13 256.617,-830.966 271.748,-766.518"/>
<polygon fill="none" stroke="midnightblue" points="203.87,-1040.32 204.992,-1050.85 210.685,-1041.92 203.87,-1040.32"/>
</g>
<!-- Node25 -->
<g id="node15" class="node"><title>Node25</title>
<g id="a_node15"><a xlink:href="../../de/d7d/class_juniper_1_1_unity_1_1_animation_1_1_abstract_transition_controller.html" target="_top" xlink:title="Child classes of this class are able to animate transitions between program states.">
<polygon fill="white" stroke="black" points="0,-336.5 0,-591.5 137,-591.5 137,-336.5 0,-336.5"/>
<text text-anchor="start" x="8" y="-579.5" font-family="SegoeUI" font-size="10.00">Juniper.Unity.Animation.</text>
<text text-anchor="middle" x="68.5" y="-568.5" font-family="SegoeUI" font-size="10.00">AbstractTransitionController</text>
<polyline fill="none" stroke="black" points="0,-561.5 137,-561.5 "/>
<text text-anchor="start" x="8" y="-549.5" font-family="SegoeUI" font-size="10.00">+ attackTime</text>
<text text-anchor="start" x="8" y="-538.5" font-family="SegoeUI" font-size="10.00">+ releaseTime</text>
<text text-anchor="start" x="8" y="-527.5" font-family="SegoeUI" font-size="10.00">+ onValueChanged</text>
<text text-anchor="start" x="8" y="-516.5" font-family="SegoeUI" font-size="10.00">+ tween</text>
<text text-anchor="start" x="8" y="-505.5" font-family="SegoeUI" font-size="10.00">+ tweenK</text>
<text text-anchor="start" x="8" y="-494.5" font-family="SegoeUI" font-size="10.00">+ TransitionLength</text>
<text text-anchor="start" x="8" y="-483.5" font-family="SegoeUI" font-size="10.00">&#45; tweenFunc</text>
<text text-anchor="start" x="8" y="-472.5" font-family="SegoeUI" font-size="10.00">&#45; attack</text>
<text text-anchor="start" x="8" y="-461.5" font-family="SegoeUI" font-size="10.00">&#45; release</text>
<text text-anchor="start" x="8" y="-450.5" font-family="SegoeUI" font-size="10.00">&#45; progress</text>
<text text-anchor="start" x="8" y="-439.5" font-family="SegoeUI" font-size="10.00">&#45; tweenedValue</text>
<polyline fill="none" stroke="black" points="0,-432.5 137,-432.5 "/>
<text text-anchor="start" x="8" y="-420.5" font-family="SegoeUI" font-size="10.00">+ Enter()</text>
<text text-anchor="start" x="8" y="-409.5" font-family="SegoeUI" font-size="10.00">+ SkipEnter()</text>
<text text-anchor="start" x="8" y="-398.5" font-family="SegoeUI" font-size="10.00">+ Exit()</text>
<text text-anchor="start" x="8" y="-387.5" font-family="SegoeUI" font-size="10.00">+ Update()</text>
<text text-anchor="start" x="8" y="-376.5" font-family="SegoeUI" font-size="10.00"># RenderValue()</text>
<text text-anchor="start" x="8" y="-365.5" font-family="SegoeUI" font-size="10.00">&#45; OnValueChanged()</text>
<text text-anchor="start" x="8" y="-354.5" font-family="SegoeUI" font-size="10.00">&#45; SetProgress()</text>
<text text-anchor="start" x="8" y="-343.5" font-family="SegoeUI" font-size="10.00">&#45; StartTransition()</text>
</a>
</g>
</g>
<!-- Node25&#45;&gt;Node11 -->
<g id="edge15" class="edge"><title>Node25&#45;&gt;Node11</title>
<path fill="none" stroke="#404040" d="M89.2744,-336.343C97.659,-285.224 107.168,-227.253 114.938,-179.877"/>
<polygon fill="none" stroke="#404040" points="114.984,-179.599 112.008,-173.03 116.926,-167.757 119.902,-174.325 114.984,-179.599"/>
<text text-anchor="middle" x="127.5" y="-259" font-family="SegoeUI" font-size="10.00"> &#45;stater</text>
</g>
<!-- Node26&#45;&gt;Node25 -->
<g id="edge16" class="edge"><title>Node26&#45;&gt;Node25</title>
<path fill="none" stroke="midnightblue" d="M68.5,-914.452C68.5,-813.161 68.5,-685.157 68.5,-591.685"/>
<polygon fill="none" stroke="midnightblue" points="65.0001,-914.48 68.5,-924.48 72.0001,-914.48 65.0001,-914.48"/>
</g>
</g>
</svg>
        <g id="navigator" transform="translate(0 0)" fill="#404254">
                <rect fill="#f2f5e9" fill-opacity="0.5" stroke="#606060" stroke-width=".5" x="0" y="0" width="60" height="60"/>
                <use id="zoomplus" xlink:href="#zoomPlus" x="17" y="9" onmousedown="handleZoom(evt,'in')"/>
                <use id="zoomminus" xlink:href="#zoomMin" x="42" y="9" onmousedown="handleZoom(evt,'out')"/>
                <use id="reset" xlink:href="#resetDef" x="30" y="36" onmousedown="handleReset()"/>
                <g id="arrowUp" xlink:href="#dirArrow" transform="translate(30 24)" onmousedown="handlePan(0,-1)">
                  <use xlink:href="#rim" fill="#404040">
                        <set attributeName="fill" to="#808080" begin="arrowUp.mouseover" end="arrowUp.mouseout"/>
                  </use>
                  <path fill="none" stroke="white" stroke-width="1.5" d="M0,-3.0v7 M-2.5,-0.5L0,-3.0L2.5,-0.5"/>
                </g>
                <g id="arrowRight" xlink:href="#dirArrow" transform="rotate(90) translate(36 -43)" onmousedown="handlePan(1,0)">
                  <use xlink:href="#rim" fill="#404040">
                        <set attributeName="fill" to="#808080" begin="arrowRight.mouseover" end="arrowRight.mouseout"/>
                  </use>
                  <path fill="none" stroke="white" stroke-width="1.5" d="M0,-3.0v7 M-2.5,-0.5L0,-3.0L2.5,-0.5"/>
                </g>
                <g id="arrowDown" xlink:href="#dirArrow" transform="rotate(180) translate(-30 -48)" onmousedown="handlePan(0,1)">
                  <use xlink:href="#rim" fill="#404040">
                        <set attributeName="fill" to="#808080" begin="arrowDown.mouseover" end="arrowDown.mouseout"/>
                  </use>
                  <path fill="none" stroke="white" stroke-width="1.5" d="M0,-3.0v7 M-2.5,-0.5L0,-3.0L2.5,-0.5"/>
                </g>
                <g id="arrowLeft" xlink:href="#dirArrow" transform="rotate(270) translate(-36 17)" onmousedown="handlePan(-1,0)">
                  <use xlink:href="#rim" fill="#404040">
                        <set attributeName="fill" to="#808080" begin="arrowLeft.mouseover" end="arrowLeft.mouseout"/>
                  </use>
                  <path fill="none" stroke="white" stroke-width="1.5" d="M0,-3.0v7 M-2.5,-0.5L0,-3.0L2.5,-0.5"/>
                </g>
        </g>
        <svg viewBox="0 0 15 15" width="100%" height="30px" preserveAspectRatio="xMaxYMin meet">
         <g id="arrow_out" transform="scale(0.3 0.3)">
          <a xlink:href="class_juniper_1_1_unity_1_1_widgets_1_1_openable__coll__graph_org.svg" target="_base">
           <rect id="button" ry="5" rx="5" y="6" x="6" height="38" width="38"
                fill="#f2f5e9" fill-opacity="0.5" stroke="#606060" stroke-width="1.0"/>
           <path id="arrow"
             d="M 11.500037,31.436501 C 11.940474,20.09759 22.043105,11.32322 32.158766,21.979434 L 37.068811,17.246167 C 37.068811,17.246167 37.088388,32 37.088388,32 L 22.160133,31.978069 C 22.160133,31.978069 26.997745,27.140456 26.997745,27.140456 C 18.528582,18.264221 13.291696,25.230495 11.500037,31.436501 z"
             style="fill:#404040;"/>
          </a>
         </g>
        </svg>
</svg>
