<?xml version="1.0" encoding="UTF-8" standalone="no"?>
<!DOCTYPE svg PUBLIC "-//W3C//DTD SVG 1.1//EN"
 "http://www.w3.org/Graphics/SVG/1.1/DTD/svg11.dtd">
<!-- Generated by graphviz version 2.38.0 (20140413.2041)
 -->
<!-- Title: Juniper.Widgets.TranslationHandle Pages: 1 -->
<svg width="144pt" height="397pt"
 viewBox="0.00 0.00 144.00 397.00" xmlns="http://www.w3.org/2000/svg" xmlns:xlink="http://www.w3.org/1999/xlink">
<g id="graph0" class="graph" transform="scale(1 1) rotate(0) translate(4 393)">
<title>Juniper.Widgets.TranslationHandle</title>
<polygon fill="white" stroke="none" points="-4,4 -4,-393 140,-393 140,4 -4,4"/>
<!-- Node0 -->
<g id="node1" class="node"><title>Node0</title>
<g id="a_node1"><a xlink:title="A draggable object that can be used to translate the position of another object.">
<polygon fill="#bfbfbf" stroke="black" points="0,-0.5 0,-79.5 136,-79.5 136,-0.5 0,-0.5"/>
<text text-anchor="start" x="8" y="-67.5" font-family="SegoeUI" font-size="10.00">Juniper.Widgets.Translation</text>
<text text-anchor="middle" x="68" y="-56.5" font-family="SegoeUI" font-size="10.00">Handle</text>
<polyline fill="none" stroke="black" points="0,-49.5 136,-49.5 "/>
<text text-anchor="middle" x="68" y="-37.5" font-family="SegoeUI" font-size="10.00"> </text>
<polyline fill="none" stroke="black" points="0,-30.5 136,-30.5 "/>
<text text-anchor="start" x="8" y="-18.5" font-family="SegoeUI" font-size="10.00"># GetChange()</text>
<text text-anchor="start" x="8" y="-7.5" font-family="SegoeUI" font-size="10.00"># ApplyChange()</text>
</a>
</g>
</g>
<!-- Node1 -->
<g id="node2" class="node"><title>Node1</title>
<g id="a_node2"><a xlink:href="../../d3/d3f/class_juniper_1_1_widgets_1_1_abstract_constraint_handle.html" target="_top" xlink:title="An abstract class that manages reading the movement of a control handle and constraining that movemen...">
<polygon fill="white" stroke="black" points="5.5,-116.5 5.5,-294.5 130.5,-294.5 130.5,-116.5 5.5,-116.5"/>
<text text-anchor="middle" x="68" y="-282.5" font-family="SegoeUI" font-size="10.00">AbstractConstraintHandle</text>
<polyline fill="none" stroke="black" points="5.5,-275.5 130.5,-275.5 "/>
<text text-anchor="start" x="13.5" y="-263.5" font-family="SegoeUI" font-size="10.00">+ target</text>
<text text-anchor="start" x="13.5" y="-252.5" font-family="SegoeUI" font-size="10.00">+ axis</text>
<text text-anchor="start" x="13.5" y="-241.5" font-family="SegoeUI" font-size="10.00">+ speed</text>
<text text-anchor="start" x="13.5" y="-230.5" font-family="SegoeUI" font-size="10.00"># startPosition</text>
<text text-anchor="start" x="13.5" y="-219.5" font-family="SegoeUI" font-size="10.00"># lastPosition</text>
<text text-anchor="start" x="13.5" y="-208.5" font-family="SegoeUI" font-size="10.00">&#45; hadTarget</text>
<text text-anchor="start" x="13.5" y="-197.5" font-family="SegoeUI" font-size="10.00">&#45; handle</text>
<polyline fill="none" stroke="black" points="5.5,-190.5 130.5,-190.5 "/>
<text text-anchor="start" x="13.5" y="-178.5" font-family="SegoeUI" font-size="10.00">+ Awake()</text>
<text text-anchor="start" x="13.5" y="-167.5" font-family="SegoeUI" font-size="10.00">+ Update()</text>
<text text-anchor="start" x="13.5" y="-156.5" font-family="SegoeUI" font-size="10.00">+ Setup()</text>
<text text-anchor="start" x="13.5" y="-145.5" font-family="SegoeUI" font-size="10.00"># ConstrainChange()</text>
<text text-anchor="start" x="13.5" y="-134.5" font-family="SegoeUI" font-size="10.00"># GetChange()</text>
<text text-anchor="start" x="13.5" y="-123.5" font-family="SegoeUI" font-size="10.00"># ApplyChange()</text>
</a>
</g>
</g>
<!-- Node1&#45;&gt;Node0 -->
<g id="edge1" class="edge"><title>Node1&#45;&gt;Node0</title>
<path fill="none" stroke="midnightblue" d="M68,-105.928C68,-96.6858 68,-87.7435 68,-79.6016"/>
<polygon fill="none" stroke="midnightblue" points="64.5001,-106.051 68,-116.051 71.5001,-106.051 64.5001,-106.051"/>
</g>
<!-- Node2 -->
<g id="node3" class="node"><title>Node2</title>
<g id="a_node3"><a xlink:title=" ">
<polygon fill="white" stroke="#bfbfbf" points="27,-331.5 27,-388.5 109,-388.5 109,-331.5 27,-331.5"/>
<text text-anchor="middle" x="68" y="-376.5" font-family="SegoeUI" font-size="10.00">MonoBehaviour</text>
<polyline fill="none" stroke="#bfbfbf" points="27,-369.5 109,-369.5 "/>
<text text-anchor="middle" x="68" y="-357.5" font-family="SegoeUI" font-size="10.00"> </text>
<polyline fill="none" stroke="#bfbfbf" points="27,-350.5 109,-350.5 "/>
<text text-anchor="middle" x="68" y="-338.5" font-family="SegoeUI" font-size="10.00"> </text>
</a>
</g>
</g>
<!-- Node2&#45;&gt;Node1 -->
<g id="edge2" class="edge"><title>Node2&#45;&gt;Node1</title>
<path fill="none" stroke="midnightblue" d="M68,-321.374C68,-313.089 68,-303.977 68,-294.62"/>
<polygon fill="none" stroke="midnightblue" points="64.5001,-321.383 68,-331.383 71.5001,-321.383 64.5001,-321.383"/>
</g>
</g>
</svg>
