<?xml version="1.0" encoding="UTF-8" standalone="no"?>
<!DOCTYPE svg PUBLIC "-//W3C//DTD SVG 1.1//EN"
 "http://www.w3.org/Graphics/SVG/1.1/DTD/svg11.dtd">
<!-- Generated by graphviz version 2.38.0 (20140413.2041)
 -->
<!-- Title: Juniper.Unity.ImageTracking.VuforiaTrackableFoundEventHandler Pages: 1 -->
<!--zoomable 702 -->
<svg id="main" version="1.1" xmlns="http://www.w3.org/2000/svg" xmlns:xlink="http://www.w3.org/1999/xlink" xml:space="preserve" onload="init(evt)">
<style type="text/css"><![CDATA[
.edge:hover path { stroke: red; }
.edge:hover polygon { stroke: red; fill: red; }
]]></style>
<script type="text/javascript"><![CDATA[
var edges = document.getElementsByTagName('g');
if (edges && edges.length) {
  for (var i=0;i<edges.length;i++) {
    if (edges[i].id.substr(0,4)=='edge') {
      edges[i].setAttribute('class','edge');
    }
  }
}
]]></script>
        <defs>
                <circle id="rim" cx="0" cy="0" r="7"/>
                <circle id="rim2" cx="0" cy="0" r="3.5"/>
                <g id="zoomPlus">
                        <use xlink:href="#rim" fill="#404040">
                                <set attributeName="fill" to="#808080" begin="zoomplus.mouseover" end="zoomplus.mouseout"/>
                        </use>
                        <path d="M-4,0h8M0,-4v8" fill="none" stroke="white" stroke-width="1.5" pointer-events="none"/>
                </g>
                <g id="zoomMin">
                        <use xlink:href="#rim" fill="#404040">
                                <set attributeName="fill" to="#808080" begin="zoomminus.mouseover" end="zoomminus.mouseout"/>
                        </use>
                        <path d="M-4,0h8" fill="none" stroke="white" stroke-width="1.5" pointer-events="none"/>
                </g>
                <g id="dirArrow">
                        <path fill="none" stroke="white" stroke-width="1.5" d="M0,-3.0v7 M-2.5,-0.5L0,-3.0L2.5,-0.5"/>
                </g>
               <g id="resetDef">
                       <use xlink:href="#rim2" fill="#404040">
                               <set attributeName="fill" to="#808080" begin="reset.mouseover" end="reset.mouseout"/>
                       </use>
               </g>
        </defs>

<script type="text/javascript">
var viewWidth = 288;
var viewHeight = 702;
var sectionId = 'dynsection-1';
</script>
<script xlink:href="../../svgpan.js"/>
<svg id="graph" class="graph">
<g id="viewport">
<title>Juniper.Unity.ImageTracking.VuforiaTrackableFoundEventHandler</title>
<polygon fill="white" stroke="none" points="-4,4 -4,-698 283.5,-698 283.5,4 -4,4"/>
<!-- Node4 -->
<g id="node1" class="node"><title>Node4</title>
<g id="a_node1"><a xlink:title=" ">
<polygon fill="#bfbfbf" stroke="black" points="96.5,-0.5 96.5,-123.5 268.5,-123.5 268.5,-0.5 96.5,-0.5"/>
<text text-anchor="start" x="104.5" y="-111.5" font-family="SegoeUI" font-size="10.00">Juniper.Unity.ImageTracking.</text>
<text text-anchor="middle" x="182.5" y="-100.5" font-family="SegoeUI" font-size="10.00">VuforiaTrackableFoundEventHandler</text>
<polyline fill="none" stroke="black" points="96.5,-93.5 268.5,-93.5 "/>
<text text-anchor="start" x="104.5" y="-81.5" font-family="SegoeUI" font-size="10.00">+ DebugReport</text>
<text text-anchor="start" x="104.5" y="-70.5" font-family="SegoeUI" font-size="10.00">&#45; trackable</text>
<polyline fill="none" stroke="black" points="96.5,-63.5 268.5,-63.5 "/>
<text text-anchor="start" x="104.5" y="-51.5" font-family="SegoeUI" font-size="10.00">+ Awake()</text>
<text text-anchor="start" x="104.5" y="-40.5" font-family="SegoeUI" font-size="10.00">+ Update()</text>
<text text-anchor="start" x="104.5" y="-29.5" font-family="SegoeUI" font-size="10.00">+ OnTrackableStateChanged()</text>
<text text-anchor="start" x="104.5" y="-18.5" font-family="SegoeUI" font-size="10.00">&#45; OnDestroy()</text>
<text text-anchor="start" x="104.5" y="-7.5" font-family="SegoeUI" font-size="10.00">&#45; PrintDebugReport()</text>
</a>
</g>
</g>
<!-- Node5 -->
<g id="node2" class="node"><title>Node5</title>
<g id="a_node2"><a xlink:href="../../d9/d49/class_juniper_1_1_unity_1_1_image_tracking_1_1_abstract_trackable_found_event_handler.html" target="_top" xlink:title=" ">
<polygon fill="white" stroke="black" points="0,-161.5 0,-482.5 143,-482.5 143,-161.5 0,-161.5"/>
<text text-anchor="start" x="8" y="-470.5" font-family="SegoeUI" font-size="10.00">AbstractTrackableFoundEvent</text>
<text text-anchor="middle" x="71.5" y="-459.5" font-family="SegoeUI" font-size="10.00">Handler</text>
<polyline fill="none" stroke="black" points="0,-452.5 143,-452.5 "/>
<text text-anchor="start" x="8" y="-440.5" font-family="SegoeUI" font-size="10.00">+ Found</text>
<text text-anchor="start" x="8" y="-429.5" font-family="SegoeUI" font-size="10.00">+ Safe</text>
<text text-anchor="start" x="8" y="-418.5" font-family="SegoeUI" font-size="10.00">+ Extended</text>
<text text-anchor="start" x="8" y="-407.5" font-family="SegoeUI" font-size="10.00">+ attachmentPoint</text>
<text text-anchor="start" x="8" y="-396.5" font-family="SegoeUI" font-size="10.00">+ safeDistance</text>
<text text-anchor="start" x="8" y="-385.5" font-family="SegoeUI" font-size="10.00">+ onFound</text>
<text text-anchor="start" x="8" y="-374.5" font-family="SegoeUI" font-size="10.00">+ onLost</text>
<text text-anchor="start" x="8" y="-363.5" font-family="SegoeUI" font-size="10.00">+ onProximity</text>
<text text-anchor="start" x="8" y="-352.5" font-family="SegoeUI" font-size="10.00">+ onSafe</text>
<text text-anchor="start" x="8" y="-341.5" font-family="SegoeUI" font-size="10.00">&#45; wasFound</text>
<text text-anchor="start" x="8" y="-330.5" font-family="SegoeUI" font-size="10.00">&#45; wasSafe</text>
<text text-anchor="start" x="8" y="-319.5" font-family="SegoeUI" font-size="10.00">&#45; TAG_NAME</text>
<text text-anchor="start" x="8" y="-308.5" font-family="SegoeUI" font-size="10.00">&#45; TRANSFORM_NAME</text>
<polyline fill="none" stroke="black" points="0,-301.5 143,-301.5 "/>
<text text-anchor="start" x="8" y="-289.5" font-family="SegoeUI" font-size="10.00">+ OnValidate()</text>
<text text-anchor="start" x="8" y="-278.5" font-family="SegoeUI" font-size="10.00">+ OnEnable()</text>
<text text-anchor="start" x="8" y="-267.5" font-family="SegoeUI" font-size="10.00">+ Update()</text>
<text text-anchor="start" x="8" y="-256.5" font-family="SegoeUI" font-size="10.00">+ ForceFound()</text>
<text text-anchor="start" x="8" y="-245.5" font-family="SegoeUI" font-size="10.00">+ ForceLost()</text>
<text text-anchor="start" x="8" y="-234.5" font-family="SegoeUI" font-size="10.00">+ OnDisable()</text>
<text text-anchor="start" x="8" y="-223.5" font-family="SegoeUI" font-size="10.00">+ Awake()</text>
<text text-anchor="start" x="8" y="-212.5" font-family="SegoeUI" font-size="10.00">&#45; SafetyCheck()</text>
<text text-anchor="start" x="8" y="-201.5" font-family="SegoeUI" font-size="10.00">&#45; OnSafeOrProximity()</text>
<text text-anchor="start" x="8" y="-190.5" font-family="SegoeUI" font-size="10.00">&#45; OnFoundChanged()</text>
<text text-anchor="start" x="8" y="-179.5" font-family="SegoeUI" font-size="10.00">&#45; OnLostOrFound()</text>
<text text-anchor="start" x="8" y="-168.5" font-family="SegoeUI" font-size="10.00">&#45; OnTrackingStateChanged()</text>
</a>
</g>
</g>
<!-- Node5&#45;&gt;Node4 -->
<g id="edge1" class="edge"><title>Node5&#45;&gt;Node4</title>
<path fill="none" stroke="midnightblue" d="M144.175,-152.08C148.44,-142.166 152.556,-132.601 156.405,-123.653"/>
<polygon fill="none" stroke="midnightblue" points="140.956,-150.706 140.219,-161.275 147.386,-153.472 140.956,-150.706"/>
</g>
<!-- Node6 -->
<g id="node3" class="node"><title>Node6</title>
<g id="a_node3"><a xlink:title=" ">
<polygon fill="white" stroke="#bfbfbf" points="14.5,-536 14.5,-593 96.5,-593 96.5,-536 14.5,-536"/>
<text text-anchor="middle" x="55.5" y="-581" font-family="SegoeUI" font-size="10.00">MonoBehaviour</text>
<polyline fill="none" stroke="#bfbfbf" points="14.5,-574 96.5,-574 "/>
<text text-anchor="middle" x="55.5" y="-562" font-family="SegoeUI" font-size="10.00"> </text>
<polyline fill="none" stroke="#bfbfbf" points="14.5,-555 96.5,-555 "/>
<text text-anchor="middle" x="55.5" y="-543" font-family="SegoeUI" font-size="10.00"> </text>
</a>
</g>
</g>
<!-- Node6&#45;&gt;Node5 -->
<g id="edge2" class="edge"><title>Node6&#45;&gt;Node5</title>
<path fill="none" stroke="midnightblue" d="M58.0228,-525.579C58.8516,-513.121 59.8313,-498.395 60.8784,-482.656"/>
<polygon fill="none" stroke="midnightblue" points="54.507,-525.701 57.3354,-535.912 61.4916,-526.166 54.507,-525.701"/>
</g>
<!-- Node7 -->
<g id="node4" class="node"><title>Node7</title>
<g id="a_node4"><a xlink:href="../../dc/d68/class_unity_engine_1_1_events_1_1_boolean_event.html" target="_top" xlink:title="An event that passes a boolean value as an argument.">
<polygon fill="white" stroke="black" points="114.5,-530.5 114.5,-598.5 248.5,-598.5 248.5,-530.5 114.5,-530.5"/>
<text text-anchor="start" x="122.5" y="-586.5" font-family="SegoeUI" font-size="10.00">UnityEngine.Events.Boolean</text>
<text text-anchor="middle" x="181.5" y="-575.5" font-family="SegoeUI" font-size="10.00">Event</text>
<polyline fill="none" stroke="black" points="114.5,-568.5 248.5,-568.5 "/>
<text text-anchor="middle" x="181.5" y="-556.5" font-family="SegoeUI" font-size="10.00"> </text>
<polyline fill="none" stroke="black" points="114.5,-549.5 248.5,-549.5 "/>
<text text-anchor="middle" x="181.5" y="-537.5" font-family="SegoeUI" font-size="10.00"> </text>
</a>
</g>
</g>
<!-- Node7&#45;&gt;Node5 -->
<g id="edge3" class="edge"><title>Node7&#45;&gt;Node5</title>
<path fill="none" stroke="#404040" d="M166.32,-530.312C161.104,-518.906 154.857,-505.248 148.091,-490.457"/>
<polygon fill="none" stroke="#404040" points="148.072,-490.415 141.939,-486.622 143.081,-479.502 149.214,-483.295 148.072,-490.415"/>
<text text-anchor="middle" x="214.5" y="-504" font-family="SegoeUI" font-size="10.00"> +onTrackingStateChange</text>
</g>
<!-- Node8 -->
<g id="node5" class="node"><title>Node8</title>
<g id="a_node5"><a xlink:title=" ">
<polygon fill="white" stroke="#bfbfbf" points="132.5,-636.5 132.5,-693.5 230.5,-693.5 230.5,-636.5 132.5,-636.5"/>
<text text-anchor="middle" x="181.5" y="-681.5" font-family="SegoeUI" font-size="10.00">UnityEvent&lt; bool &gt;</text>
<polyline fill="none" stroke="#bfbfbf" points="132.5,-674.5 230.5,-674.5 "/>
<text text-anchor="middle" x="181.5" y="-662.5" font-family="SegoeUI" font-size="10.00"> </text>
<polyline fill="none" stroke="#bfbfbf" points="132.5,-655.5 230.5,-655.5 "/>
<text text-anchor="middle" x="181.5" y="-643.5" font-family="SegoeUI" font-size="10.00"> </text>
</a>
</g>
</g>
<!-- Node8&#45;&gt;Node7 -->
<g id="edge4" class="edge"><title>Node8&#45;&gt;Node7</title>
<path fill="none" stroke="midnightblue" d="M181.5,-626.007C181.5,-616.962 181.5,-607.383 181.5,-598.578"/>
<polygon fill="none" stroke="midnightblue" points="178,-626.3 181.5,-636.3 185,-626.3 178,-626.3"/>
</g>
<!-- Node9 -->
<g id="node6" class="node"><title>Node9</title>
<g id="a_node6"><a xlink:title=" ">
<polygon fill="white" stroke="#bfbfbf" points="161.5,-293.5 161.5,-350.5 279.5,-350.5 279.5,-293.5 161.5,-293.5"/>
<text text-anchor="middle" x="220.5" y="-338.5" font-family="SegoeUI" font-size="10.00">ITrackableEventHandler</text>
<polyline fill="none" stroke="#bfbfbf" points="161.5,-331.5 279.5,-331.5 "/>
<text text-anchor="middle" x="220.5" y="-319.5" font-family="SegoeUI" font-size="10.00"> </text>
<polyline fill="none" stroke="#bfbfbf" points="161.5,-312.5 279.5,-312.5 "/>
<text text-anchor="middle" x="220.5" y="-300.5" font-family="SegoeUI" font-size="10.00"> </text>
</a>
</g>
</g>
<!-- Node9&#45;&gt;Node4 -->
<g id="edge5" class="edge"><title>Node9&#45;&gt;Node4</title>
<path fill="none" stroke="midnightblue" d="M214.953,-283.336C208.783,-241.451 198.729,-173.186 191.445,-123.729"/>
<polygon fill="none" stroke="midnightblue" points="211.513,-284.006 216.433,-293.389 218.439,-282.986 211.513,-284.006"/>
</g>
</g>
</svg>
        <g id="navigator" transform="translate(0 0)" fill="#404254">
                <rect fill="#f2f5e9" fill-opacity="0.5" stroke="#606060" stroke-width=".5" x="0" y="0" width="60" height="60"/>
                <use id="zoomplus" xlink:href="#zoomPlus" x="17" y="9" onmousedown="handleZoom(evt,'in')"/>
                <use id="zoomminus" xlink:href="#zoomMin" x="42" y="9" onmousedown="handleZoom(evt,'out')"/>
                <use id="reset" xlink:href="#resetDef" x="30" y="36" onmousedown="handleReset()"/>
                <g id="arrowUp" xlink:href="#dirArrow" transform="translate(30 24)" onmousedown="handlePan(0,-1)">
                  <use xlink:href="#rim" fill="#404040">
                        <set attributeName="fill" to="#808080" begin="arrowUp.mouseover" end="arrowUp.mouseout"/>
                  </use>
                  <path fill="none" stroke="white" stroke-width="1.5" d="M0,-3.0v7 M-2.5,-0.5L0,-3.0L2.5,-0.5"/>
                </g>
                <g id="arrowRight" xlink:href="#dirArrow" transform="rotate(90) translate(36 -43)" onmousedown="handlePan(1,0)">
                  <use xlink:href="#rim" fill="#404040">
                        <set attributeName="fill" to="#808080" begin="arrowRight.mouseover" end="arrowRight.mouseout"/>
                  </use>
                  <path fill="none" stroke="white" stroke-width="1.5" d="M0,-3.0v7 M-2.5,-0.5L0,-3.0L2.5,-0.5"/>
                </g>
                <g id="arrowDown" xlink:href="#dirArrow" transform="rotate(180) translate(-30 -48)" onmousedown="handlePan(0,1)">
                  <use xlink:href="#rim" fill="#404040">
                        <set attributeName="fill" to="#808080" begin="arrowDown.mouseover" end="arrowDown.mouseout"/>
                  </use>
                  <path fill="none" stroke="white" stroke-width="1.5" d="M0,-3.0v7 M-2.5,-0.5L0,-3.0L2.5,-0.5"/>
                </g>
                <g id="arrowLeft" xlink:href="#dirArrow" transform="rotate(270) translate(-36 17)" onmousedown="handlePan(-1,0)">
                  <use xlink:href="#rim" fill="#404040">
                        <set attributeName="fill" to="#808080" begin="arrowLeft.mouseover" end="arrowLeft.mouseout"/>
                  </use>
                  <path fill="none" stroke="white" stroke-width="1.5" d="M0,-3.0v7 M-2.5,-0.5L0,-3.0L2.5,-0.5"/>
                </g>
        </g>
        <svg viewBox="0 0 15 15" width="100%" height="30px" preserveAspectRatio="xMaxYMin meet">
         <g id="arrow_out" transform="scale(0.3 0.3)">
          <a xlink:href="class_juniper_1_1_unity_1_1_image_tracking_1_1_vuforia_trackable_found_event_handler__coll__graph_org.svg" target="_base">
           <rect id="button" ry="5" rx="5" y="6" x="6" height="38" width="38"
                fill="#f2f5e9" fill-opacity="0.5" stroke="#606060" stroke-width="1.0"/>
           <path id="arrow"
             d="M 11.500037,31.436501 C 11.940474,20.09759 22.043105,11.32322 32.158766,21.979434 L 37.068811,17.246167 C 37.068811,17.246167 37.088388,32 37.088388,32 L 22.160133,31.978069 C 22.160133,31.978069 26.997745,27.140456 26.997745,27.140456 C 18.528582,18.264221 13.291696,25.230495 11.500037,31.436501 z"
             style="fill:#404040;"/>
          </a>
         </g>
        </svg>
</svg>
