<?xml version="1.0" encoding="UTF-8" standalone="no"?>
<!DOCTYPE svg PUBLIC "-//W3C//DTD SVG 1.1//EN"
 "http://www.w3.org/Graphics/SVG/1.1/DTD/svg11.dtd">
<!-- Generated by graphviz version 2.38.0 (20140413.2041)
 -->
<!-- Title: Juniper.World.GIS.Google.AbstractGoogleMapsRequest&lt; MediaTypeT &gt; Pages: 1 -->
<svg width="595pt" height="1335pt"
 viewBox="0.00 0.00 595.00 1335.00" xmlns="http://www.w3.org/2000/svg" xmlns:xlink="http://www.w3.org/1999/xlink">
<g id="graph0" class="graph" transform="scale(1 1) rotate(0) translate(4 1331)">
<title>Juniper.World.GIS.Google.AbstractGoogleMapsRequest&lt; MediaTypeT &gt;</title>
<polygon fill="white" stroke="none" points="-4,4 -4,-1331 591,-1331 591,4 -4,4"/>
<!-- Node19 -->
<g id="node1" class="node"><title>Node19</title>
<g id="a_node1"><a xlink:title=" ">
<polygon fill="#bfbfbf" stroke="black" points="375.5,-0.5 375.5,-112.5 530.5,-112.5 530.5,-0.5 375.5,-0.5"/>
<text text-anchor="start" x="383.5" y="-100.5" font-family="SegoeUI" font-size="10.00">Juniper.World.GIS.Google.</text>
<text text-anchor="start" x="383.5" y="-89.5" font-family="SegoeUI" font-size="10.00">AbstractGoogleMapsRequest</text>
<text text-anchor="middle" x="453" y="-78.5" font-family="SegoeUI" font-size="10.00">&lt; MediaTypeT &gt;</text>
<polyline fill="none" stroke="black" points="375.5,-71.5 530.5,-71.5 "/>
<text text-anchor="start" x="383.5" y="-59.5" font-family="SegoeUI" font-size="10.00">+ AuthenticatedURI</text>
<text text-anchor="start" x="383.5" y="-48.5" font-family="SegoeUI" font-size="10.00"># InternalCacheID</text>
<text text-anchor="start" x="383.5" y="-37.5" font-family="SegoeUI" font-size="10.00">&#45; apiKey</text>
<text text-anchor="start" x="383.5" y="-26.5" font-family="SegoeUI" font-size="10.00">&#45; signingKey</text>
<polyline fill="none" stroke="black" points="375.5,-19.5 530.5,-19.5 "/>
<text text-anchor="start" x="383.5" y="-7.5" font-family="SegoeUI" font-size="10.00"># AbstractGoogleMapsRequest()</text>
</a>
</g>
</g>
<!-- Node20 -->
<g id="node2" class="node"><title>Node20</title>
<g id="a_node2"><a xlink:href="../../db/d68/class_juniper_1_1_h_t_t_p_1_1_r_e_s_t_1_1_abstract_request.html" target="_top" xlink:title=" ">
<polygon fill="white" stroke="black" points="267,-150.5 267,-449.5 425,-449.5 425,-150.5 267,-150.5"/>
<text text-anchor="middle" x="346" y="-437.5" font-family="SegoeUI" font-size="10.00">AbstractRequest&lt; MediaTypeT &gt;</text>
<polyline fill="none" stroke="black" points="267,-430.5 425,-430.5 "/>
<text text-anchor="start" x="275" y="-418.5" font-family="SegoeUI" font-size="10.00">+ MediaType</text>
<text text-anchor="start" x="275" y="-407.5" font-family="SegoeUI" font-size="10.00">+ BaseURI</text>
<text text-anchor="start" x="275" y="-396.5" font-family="SegoeUI" font-size="10.00">+ StandardRequestCacheID</text>
<text text-anchor="start" x="275" y="-385.5" font-family="SegoeUI" font-size="10.00"># AuthenticatedURI</text>
<text text-anchor="start" x="275" y="-374.5" font-family="SegoeUI" font-size="10.00">&#45; method</text>
<text text-anchor="start" x="275" y="-363.5" font-family="SegoeUI" font-size="10.00">&#45; serviceURI</text>
<text text-anchor="start" x="275" y="-352.5" font-family="SegoeUI" font-size="10.00">&#45; hasRequestBody</text>
<text text-anchor="start" x="275" y="-341.5" font-family="SegoeUI" font-size="10.00">&#45; queryParams</text>
<polyline fill="none" stroke="black" points="267,-334.5 425,-334.5 "/>
<text text-anchor="start" x="275" y="-322.5" font-family="SegoeUI" font-size="10.00">+ Equals()</text>
<text text-anchor="start" x="275" y="-311.5" font-family="SegoeUI" font-size="10.00">+ GetStreamAsync()</text>
<text text-anchor="start" x="275" y="-300.5" font-family="SegoeUI" font-size="10.00">+ GetHashCode()</text>
<text text-anchor="start" x="275" y="-289.5" font-family="SegoeUI" font-size="10.00"># AbstractRequest()</text>
<text text-anchor="start" x="275" y="-278.5" font-family="SegoeUI" font-size="10.00"># SetQuery()</text>
<text text-anchor="start" x="275" y="-267.5" font-family="SegoeUI" font-size="10.00"># SetQuery&lt; U &gt;()</text>
<text text-anchor="start" x="275" y="-256.5" font-family="SegoeUI" font-size="10.00"># AddQuery()</text>
<text text-anchor="start" x="275" y="-245.5" font-family="SegoeUI" font-size="10.00"># AddQuery&lt; U &gt;()</text>
<text text-anchor="start" x="275" y="-234.5" font-family="SegoeUI" font-size="10.00"># RemoveQuery()</text>
<text text-anchor="start" x="275" y="-223.5" font-family="SegoeUI" font-size="10.00"># RemoveQuery()</text>
<text text-anchor="start" x="275" y="-212.5" font-family="SegoeUI" font-size="10.00"># RemoveQuery&lt; U &gt;()</text>
<text text-anchor="start" x="275" y="-201.5" font-family="SegoeUI" font-size="10.00"># ModifyRequest()</text>
<text text-anchor="start" x="275" y="-190.5" font-family="SegoeUI" font-size="10.00"># GetBodyInfo()</text>
<text text-anchor="start" x="275" y="-179.5" font-family="SegoeUI" font-size="10.00"># WriteBody()</text>
<text text-anchor="start" x="275" y="-168.5" font-family="SegoeUI" font-size="10.00"># AddPath()</text>
<text text-anchor="start" x="275" y="-157.5" font-family="SegoeUI" font-size="10.00">&#45; SetQuery()</text>
</a>
</g>
</g>
<!-- Node20&#45;&gt;Node19 -->
<g id="edge1" class="edge"><title>Node20&#45;&gt;Node19</title>
<path fill="none" stroke="midnightblue" d="M416.011,-140.984C420.401,-131.076 424.627,-121.539 428.553,-112.678"/>
<polygon fill="none" stroke="midnightblue" points="412.788,-139.619 411.937,-150.18 419.188,-142.455 412.788,-139.619"/>
</g>
<!-- Node21 -->
<g id="node3" class="node"><title>Node21</title>
<g id="a_node3"><a xlink:href="../../d4/d35/class_juniper_1_1_i_o_1_1_abstract_stream_source.html" target="_top" xlink:title=" ">
<polygon fill="white" stroke="black" points="81.5,-662.5 81.5,-763.5 212.5,-763.5 212.5,-662.5 81.5,-662.5"/>
<text text-anchor="middle" x="147" y="-751.5" font-family="SegoeUI" font-size="10.00">AbstractStreamSource</text>
<polyline fill="none" stroke="black" points="81.5,-744.5 212.5,-744.5 "/>
<text text-anchor="start" x="89.5" y="-732.5" font-family="SegoeUI" font-size="10.00">+ CacheID</text>
<text text-anchor="start" x="89.5" y="-721.5" font-family="SegoeUI" font-size="10.00">+ DoNotCache</text>
<text text-anchor="start" x="89.5" y="-710.5" font-family="SegoeUI" font-size="10.00">+ InternalCacheID</text>
<polyline fill="none" stroke="black" points="81.5,-703.5 212.5,-703.5 "/>
<text text-anchor="start" x="89.5" y="-691.5" font-family="SegoeUI" font-size="10.00">+ GetStreamAsync()</text>
<text text-anchor="start" x="89.5" y="-680.5" font-family="SegoeUI" font-size="10.00"># AbstractStreamSource()</text>
<text text-anchor="start" x="89.5" y="-669.5" font-family="SegoeUI" font-size="10.00"># AbstractStreamSource()</text>
</a>
</g>
</g>
<!-- Node21&#45;&gt;Node20 -->
<g id="edge2" class="edge"><title>Node21&#45;&gt;Node20</title>
<path fill="none" stroke="midnightblue" d="M175.475,-653.19C201.106,-600.253 239.873,-520.188 273.97,-449.766"/>
<polygon fill="none" stroke="midnightblue" points="172.212,-651.898 171.004,-662.424 178.512,-654.949 172.212,-651.898"/>
</g>
<!-- Node22 -->
<g id="node4" class="node"><title>Node22</title>
<g id="a_node4"><a xlink:href="../../de/db8/class_juniper_1_1_i_o_1_1_content_reference.html" target="_top" xlink:title=" ">
<polygon fill="white" stroke="black" points="24,-1031.5 24,-1231.5 134,-1231.5 134,-1031.5 24,-1031.5"/>
<text text-anchor="middle" x="79" y="-1219.5" font-family="SegoeUI" font-size="10.00">ContentReference</text>
<polyline fill="none" stroke="black" points="24,-1212.5 134,-1212.5 "/>
<text text-anchor="start" x="32" y="-1200.5" font-family="SegoeUI" font-size="10.00">+ CacheID</text>
<text text-anchor="start" x="32" y="-1189.5" font-family="SegoeUI" font-size="10.00">+ ContentType</text>
<text text-anchor="start" x="32" y="-1178.5" font-family="SegoeUI" font-size="10.00">+ DoNotCache</text>
<text text-anchor="start" x="32" y="-1167.5" font-family="SegoeUI" font-size="10.00">+ FileName</text>
<polyline fill="none" stroke="black" points="24,-1160.5 134,-1160.5 "/>
<text text-anchor="start" x="32" y="-1148.5" font-family="SegoeUI" font-size="10.00">+ ContentReference()</text>
<text text-anchor="start" x="32" y="-1137.5" font-family="SegoeUI" font-size="10.00">+ Equals()</text>
<text text-anchor="start" x="32" y="-1126.5" font-family="SegoeUI" font-size="10.00">+ Equals()</text>
<text text-anchor="start" x="32" y="-1115.5" font-family="SegoeUI" font-size="10.00">+ ToString()</text>
<text text-anchor="start" x="32" y="-1104.5" font-family="SegoeUI" font-size="10.00">+ GetHashCode()</text>
<text text-anchor="start" x="32" y="-1093.5" font-family="SegoeUI" font-size="10.00">+ operator==()</text>
<text text-anchor="start" x="32" y="-1082.5" font-family="SegoeUI" font-size="10.00">+ operator !=()</text>
<text text-anchor="start" x="32" y="-1071.5" font-family="SegoeUI" font-size="10.00">+ operator string()</text>
<text text-anchor="start" x="32" y="-1060.5" font-family="SegoeUI" font-size="10.00">+ operator+()</text>
<text text-anchor="start" x="32" y="-1049.5" font-family="SegoeUI" font-size="10.00">+ operator+()</text>
<text text-anchor="start" x="32" y="-1038.5" font-family="SegoeUI" font-size="10.00"># ContentReference()</text>
</a>
</g>
</g>
<!-- Node22&#45;&gt;Node21 -->
<g id="edge3" class="edge"><title>Node22&#45;&gt;Node21</title>
<path fill="none" stroke="midnightblue" d="M96.8388,-1021.24C110.457,-937.829 128.582,-826.812 138.9,-763.614"/>
<polygon fill="none" stroke="midnightblue" points="93.3584,-1020.83 95.2013,-1031.27 100.267,-1021.96 93.3584,-1020.83"/>
</g>
<!-- Node23 -->
<g id="node5" class="node"><title>Node23</title>
<g id="a_node5"><a xlink:title=" ">
<polygon fill="white" stroke="#bfbfbf" points="0,-1269.5 0,-1326.5 158,-1326.5 158,-1269.5 0,-1269.5"/>
<text text-anchor="middle" x="79" y="-1314.5" font-family="SegoeUI" font-size="10.00">IEquatable&lt; ContentReference &gt;</text>
<polyline fill="none" stroke="#bfbfbf" points="0,-1307.5 158,-1307.5 "/>
<text text-anchor="middle" x="79" y="-1295.5" font-family="SegoeUI" font-size="10.00"> </text>
<polyline fill="none" stroke="#bfbfbf" points="0,-1288.5 158,-1288.5 "/>
<text text-anchor="middle" x="79" y="-1276.5" font-family="SegoeUI" font-size="10.00"> </text>
</a>
</g>
</g>
<!-- Node23&#45;&gt;Node22 -->
<g id="edge4" class="edge"><title>Node23&#45;&gt;Node22</title>
<path fill="none" stroke="midnightblue" d="M79,-1259.29C79,-1250.84 79,-1241.5 79,-1231.82"/>
<polygon fill="none" stroke="midnightblue" points="75.5001,-1259.47 79,-1269.47 82.5001,-1259.47 75.5001,-1259.47"/>
</g>
<!-- Node24 -->
<g id="node6" class="node"><title>Node24</title>
<g id="a_node6"><a xlink:href="../../d4/d56/class_juniper_1_1_media_type.html" target="_top" xlink:title=" ">
<polygon fill="white" stroke="black" points="286.5,-497.5 286.5,-928.5 405.5,-928.5 405.5,-497.5 286.5,-497.5"/>
<text text-anchor="middle" x="346" y="-916.5" font-family="SegoeUI" font-size="10.00">Juniper.MediaType</text>
<polyline fill="none" stroke="black" points="286.5,-909.5 405.5,-909.5 "/>
<text text-anchor="start" x="294.5" y="-897.5" font-family="SegoeUI" font-size="10.00">+ TYPE_PATTERN</text>
<text text-anchor="start" x="294.5" y="-886.5" font-family="SegoeUI" font-size="10.00">+ Value</text>
<text text-anchor="start" x="294.5" y="-875.5" font-family="SegoeUI" font-size="10.00">+ TypeName</text>
<text text-anchor="start" x="294.5" y="-864.5" font-family="SegoeUI" font-size="10.00">+ SubTypeName</text>
<text text-anchor="start" x="294.5" y="-853.5" font-family="SegoeUI" font-size="10.00">+ Weight</text>
<text text-anchor="start" x="294.5" y="-842.5" font-family="SegoeUI" font-size="10.00">+ Extensions</text>
<text text-anchor="start" x="294.5" y="-831.5" font-family="SegoeUI" font-size="10.00">+ PrimaryExtension</text>
<text text-anchor="start" x="294.5" y="-820.5" font-family="SegoeUI" font-size="10.00">&#45; weightedValue</text>
<polyline fill="none" stroke="black" points="286.5,-813.5 405.5,-813.5 "/>
<text text-anchor="start" x="294.5" y="-801.5" font-family="SegoeUI" font-size="10.00">+ Matches()</text>
<text text-anchor="start" x="294.5" y="-790.5" font-family="SegoeUI" font-size="10.00">+ Matches()</text>
<text text-anchor="start" x="294.5" y="-779.5" font-family="SegoeUI" font-size="10.00">+ AddExtension()</text>
<text text-anchor="start" x="294.5" y="-768.5" font-family="SegoeUI" font-size="10.00">+ Equals()</text>
<text text-anchor="start" x="294.5" y="-757.5" font-family="SegoeUI" font-size="10.00">+ Equals()</text>
<text text-anchor="start" x="294.5" y="-746.5" font-family="SegoeUI" font-size="10.00">+ Equals()</text>
<text text-anchor="start" x="294.5" y="-735.5" font-family="SegoeUI" font-size="10.00">+ ToString()</text>
<text text-anchor="start" x="294.5" y="-724.5" font-family="SegoeUI" font-size="10.00">+ GetHashCode()</text>
<text text-anchor="start" x="294.5" y="-713.5" font-family="SegoeUI" font-size="10.00">+ Parse()</text>
<text text-anchor="start" x="294.5" y="-702.5" font-family="SegoeUI" font-size="10.00">+ ParseAll()</text>
<text text-anchor="start" x="294.5" y="-691.5" font-family="SegoeUI" font-size="10.00">+ TryParse()</text>
<text text-anchor="start" x="294.5" y="-680.5" font-family="SegoeUI" font-size="10.00">+ GuessByFileName()</text>
<text text-anchor="start" x="294.5" y="-669.5" font-family="SegoeUI" font-size="10.00">+ GuessByFile()</text>
<text text-anchor="start" x="294.5" y="-658.5" font-family="SegoeUI" font-size="10.00">+ Lookup()</text>
<text text-anchor="start" x="294.5" y="-647.5" font-family="SegoeUI" font-size="10.00">+ operator+()</text>
<text text-anchor="start" x="294.5" y="-636.5" font-family="SegoeUI" font-size="10.00">+ operator string()</text>
<text text-anchor="start" x="294.5" y="-625.5" font-family="SegoeUI" font-size="10.00">+ operator==()</text>
<text text-anchor="start" x="294.5" y="-614.5" font-family="SegoeUI" font-size="10.00">+ operator !=()</text>
<text text-anchor="start" x="294.5" y="-603.5" font-family="SegoeUI" font-size="10.00">+ operator==()</text>
<text text-anchor="start" x="294.5" y="-592.5" font-family="SegoeUI" font-size="10.00">+ operator !=()</text>
<text text-anchor="start" x="294.5" y="-581.5" font-family="SegoeUI" font-size="10.00">+ operator==()</text>
<text text-anchor="start" x="294.5" y="-570.5" font-family="SegoeUI" font-size="10.00">+ operator !=()</text>
<text text-anchor="start" x="294.5" y="-559.5" font-family="SegoeUI" font-size="10.00"># MediaType()</text>
<text text-anchor="start" x="294.5" y="-548.5" font-family="SegoeUI" font-size="10.00">&#45; MediaType()</text>
<text text-anchor="start" x="294.5" y="-537.5" font-family="SegoeUI" font-size="10.00">&#45; MediaType()</text>
<text text-anchor="start" x="294.5" y="-526.5" font-family="SegoeUI" font-size="10.00">&#45; UpdateLookupTables()</text>
<text text-anchor="start" x="294.5" y="-515.5" font-family="SegoeUI" font-size="10.00">&#45; InternalParseAll()</text>
<text text-anchor="start" x="294.5" y="-504.5" font-family="SegoeUI" font-size="10.00">&#45; GuessByExtension()</text>
</a>
</g>
</g>
<!-- Node24&#45;&gt;Node20 -->
<g id="edge5" class="edge"><title>Node24&#45;&gt;Node20</title>
<path fill="none" stroke="#404040" d="M346,-497.472C346,-485.482 346,-473.533 346,-461.789"/>
<polygon fill="none" stroke="#404040" points="346,-461.631 342,-455.631 346,-449.631 350,-455.631 346,-461.631"/>
<text text-anchor="middle" x="378" y="-471" font-family="SegoeUI" font-size="10.00"> +ContentType</text>
</g>
<!-- Node25 -->
<g id="node7" class="node"><title>Node25</title>
<g id="a_node7"><a xlink:title=" ">
<polygon fill="white" stroke="#bfbfbf" points="152,-1103 152,-1160 280,-1160 280,-1103 152,-1103"/>
<text text-anchor="middle" x="216" y="-1148" font-family="SegoeUI" font-size="10.00">IEquatable&lt; MediaType &gt;</text>
<polyline fill="none" stroke="#bfbfbf" points="152,-1141 280,-1141 "/>
<text text-anchor="middle" x="216" y="-1129" font-family="SegoeUI" font-size="10.00"> </text>
<polyline fill="none" stroke="#bfbfbf" points="152,-1122 280,-1122 "/>
<text text-anchor="middle" x="216" y="-1110" font-family="SegoeUI" font-size="10.00"> </text>
</a>
</g>
</g>
<!-- Node25&#45;&gt;Node24 -->
<g id="edge6" class="edge"><title>Node25&#45;&gt;Node24</title>
<path fill="none" stroke="midnightblue" d="M227.672,-1093.11C241.113,-1050.04 264.212,-976.035 286.454,-904.777"/>
<polygon fill="none" stroke="midnightblue" points="224.269,-1092.26 224.63,-1102.85 230.951,-1094.35 224.269,-1092.26"/>
</g>
<!-- Node26 -->
<g id="node8" class="node"><title>Node26</title>
<g id="a_node8"><a xlink:title=" ">
<polygon fill="white" stroke="#bfbfbf" points="298.5,-1103 298.5,-1160 403.5,-1160 403.5,-1103 298.5,-1103"/>
<text text-anchor="middle" x="351" y="-1148" font-family="SegoeUI" font-size="10.00">IEquatable&lt; string &gt;</text>
<polyline fill="none" stroke="#bfbfbf" points="298.5,-1141 403.5,-1141 "/>
<text text-anchor="middle" x="351" y="-1129" font-family="SegoeUI" font-size="10.00"> </text>
<polyline fill="none" stroke="#bfbfbf" points="298.5,-1122 403.5,-1122 "/>
<text text-anchor="middle" x="351" y="-1110" font-family="SegoeUI" font-size="10.00"> </text>
</a>
</g>
</g>
<!-- Node26&#45;&gt;Node24 -->
<g id="edge7" class="edge"><title>Node26&#45;&gt;Node24</title>
<path fill="none" stroke="midnightblue" d="M350.546,-1092.71C350.087,-1054.41 349.337,-991.933 348.577,-928.667"/>
<polygon fill="none" stroke="midnightblue" points="347.048,-1092.89 350.668,-1102.85 354.048,-1092.81 347.048,-1092.89"/>
</g>
<!-- Node27 -->
<g id="node9" class="node"><title>Node27</title>
<g id="a_node9"><a xlink:title=" ">
<polygon fill="white" stroke="#bfbfbf" points="425.5,-1103 425.5,-1160 464.5,-1160 464.5,-1103 425.5,-1103"/>
<text text-anchor="middle" x="445" y="-1148" font-family="SegoeUI" font-size="10.00">static</text>
<polyline fill="none" stroke="#bfbfbf" points="425.5,-1141 464.5,-1141 "/>
<text text-anchor="middle" x="445" y="-1129" font-family="SegoeUI" font-size="10.00"> </text>
<polyline fill="none" stroke="#bfbfbf" points="425.5,-1122 464.5,-1122 "/>
<text text-anchor="middle" x="445" y="-1110" font-family="SegoeUI" font-size="10.00"> </text>
</a>
</g>
</g>
<!-- Node27&#45;&gt;Node19 -->
<g id="edge10" class="edge"><title>Node27&#45;&gt;Node19</title>
<path fill="none" stroke="#404040" d="M445.206,-1102.9C446.247,-963.304 450.942,-333.564 452.497,-124.898"/>
<polygon fill="none" stroke="#404040" points="452.499,-124.645 448.544,-118.615 452.589,-112.645 456.544,-118.675 452.499,-124.645"/>
<text text-anchor="middle" x="468" y="-471" font-family="SegoeUI" font-size="10.00"> &#45;gmaps</text>
</g>
<!-- Node27&#45;&gt;Node24 -->
<g id="edge8" class="edge"><title>Node27&#45;&gt;Node24</title>
<path fill="none" stroke="#404040" d="M441.401,-1102.97C437.371,-1081.39 429.016,-1051.64 412,-1031 401.622,-1018.41 389.022,-1026.6 380,-1013 370.587,-998.814 363.764,-972.472 358.821,-941.082"/>
<polygon fill="none" stroke="#404040" points="358.763,-940.692 353.933,-935.338 357.017,-928.82 361.848,-934.174 358.763,-940.692"/>
<text text-anchor="middle" x="409.5" y="-1005" font-family="SegoeUI" font-size="10.00"> +All</text>
<text text-anchor="middle" x="409.5" y="-994" font-family="SegoeUI" font-size="10.00">+Values</text>
<text text-anchor="middle" x="409.5" y="-983" font-family="SegoeUI" font-size="10.00">&#45;typePattern</text>
<text text-anchor="middle" x="409.5" y="-972" font-family="SegoeUI" font-size="10.00">&#45;byValue</text>
<text text-anchor="middle" x="409.5" y="-961" font-family="SegoeUI" font-size="10.00">+Any</text>
<text text-anchor="middle" x="409.5" y="-950" font-family="SegoeUI" font-size="10.00">&#45;byExtensions</text>
</g>
<!-- Node28 -->
<g id="node10" class="node"><title>Node28</title>
<g id="a_node10"><a xlink:href="../../d3/db4/interface_juniper_1_1_world_1_1_g_i_s_1_1_google_1_1_i_google_maps_request.html" target="_top" xlink:title=" ">
<polygon fill="white" stroke="black" points="481,-271.5 481,-328.5 587,-328.5 587,-271.5 481,-271.5"/>
<text text-anchor="middle" x="534" y="-316.5" font-family="SegoeUI" font-size="10.00">IGoogleMapsRequest</text>
<polyline fill="none" stroke="black" points="481,-309.5 587,-309.5 "/>
<text text-anchor="middle" x="534" y="-297.5" font-family="SegoeUI" font-size="10.00"> </text>
<polyline fill="none" stroke="black" points="481,-290.5 587,-290.5 "/>
<text text-anchor="middle" x="534" y="-278.5" font-family="SegoeUI" font-size="10.00"> </text>
</a>
</g>
</g>
<!-- Node28&#45;&gt;Node19 -->
<g id="edge9" class="edge"><title>Node28&#45;&gt;Node19</title>
<path fill="none" stroke="midnightblue" d="M521.491,-261.704C508.128,-221.862 486.807,-158.294 471.502,-112.664"/>
<polygon fill="none" stroke="midnightblue" points="518.21,-262.929 524.708,-271.297 524.847,-260.703 518.21,-262.929"/>
</g>
</g>
</svg>
