<?xml version="1.0" encoding="UTF-8" standalone="no"?>
<!DOCTYPE svg PUBLIC "-//W3C//DTD SVG 1.1//EN"
 "http://www.w3.org/Graphics/SVG/1.1/DTD/svg11.dtd">
<!-- Generated by graphviz version 2.38.0 (20140413.2041)
 -->
<!-- Title: Juniper.Unity.PermissionHandler Pages: 1 -->
<svg width="178pt" height="425pt"
 viewBox="0.00 0.00 177.50 425.00" xmlns="http://www.w3.org/2000/svg" xmlns:xlink="http://www.w3.org/1999/xlink">
<g id="graph0" class="graph" transform="scale(1 1) rotate(0) translate(4 421)">
<title>Juniper.Unity.PermissionHandler</title>
<polygon fill="white" stroke="none" points="-4,4 -4,-421 173.5,-421 173.5,4 -4,4"/>
<!-- Node5 -->
<g id="node1" class="node"><title>Node5</title>
<g id="a_node1"><a xlink:title=" ">
<polygon fill="#bfbfbf" stroke="black" points="27.5,-0.5 27.5,-68.5 148.5,-68.5 148.5,-0.5 27.5,-0.5"/>
<text text-anchor="start" x="35.5" y="-56.5" font-family="SegoeUI" font-size="10.00">Juniper.Unity.Permission</text>
<text text-anchor="middle" x="88" y="-45.5" font-family="SegoeUI" font-size="10.00">Handler</text>
<polyline fill="none" stroke="black" points="27.5,-38.5 148.5,-38.5 "/>
<text text-anchor="middle" x="88" y="-26.5" font-family="SegoeUI" font-size="10.00"> </text>
<polyline fill="none" stroke="black" points="27.5,-19.5 148.5,-19.5 "/>
<text text-anchor="middle" x="88" y="-7.5" font-family="SegoeUI" font-size="10.00"> </text>
</a>
</g>
</g>
<!-- Node6 -->
<g id="node2" class="node"><title>Node6</title>
<g id="a_node2"><a xlink:href="../../d3/d97/class_juniper_1_1_unity_1_1i_o_s_permission_handler.html" target="_top" xlink:title=" ">
<polygon fill="white" stroke="black" points="32.5,-105.5 32.5,-162.5 143.5,-162.5 143.5,-105.5 32.5,-105.5"/>
<text text-anchor="middle" x="88" y="-150.5" font-family="SegoeUI" font-size="10.00">iOSPermissionHandler</text>
<polyline fill="none" stroke="black" points="32.5,-143.5 143.5,-143.5 "/>
<text text-anchor="middle" x="88" y="-131.5" font-family="SegoeUI" font-size="10.00"> </text>
<polyline fill="none" stroke="black" points="32.5,-124.5 143.5,-124.5 "/>
<text text-anchor="start" x="40.5" y="-112.5" font-family="SegoeUI" font-size="10.00">+ Install()</text>
</a>
</g>
</g>
<!-- Node6&#45;&gt;Node5 -->
<g id="edge1" class="edge"><title>Node6&#45;&gt;Node5</title>
<path fill="none" stroke="midnightblue" d="M88,-95.0631C88,-86.3933 88,-77.2431 88,-68.7855"/>
<polygon fill="none" stroke="midnightblue" points="84.5001,-95.3212 88,-105.321 91.5001,-95.3212 84.5001,-95.3212"/>
</g>
<!-- Node7 -->
<g id="node3" class="node"><title>Node7</title>
<g id="a_node3"><a xlink:href="../../d8/d0d/class_juniper_1_1_unity_1_1_abstract_permission_handler.html" target="_top" xlink:title="Perform system&#45;specific authorization requests, such as GPS on Android, or Microphone on iOS.">
<polygon fill="white" stroke="black" points="22.5,-199.5 22.5,-300.5 153.5,-300.5 153.5,-199.5 22.5,-199.5"/>
<text text-anchor="middle" x="88" y="-288.5" font-family="SegoeUI" font-size="10.00">AbstractPermissionHandler</text>
<polyline fill="none" stroke="black" points="22.5,-281.5 153.5,-281.5 "/>
<text text-anchor="middle" x="88" y="-269.5" font-family="SegoeUI" font-size="10.00"> </text>
<polyline fill="none" stroke="black" points="22.5,-262.5 153.5,-262.5 "/>
<text text-anchor="start" x="30.5" y="-250.5" font-family="SegoeUI" font-size="10.00">+ Awake()</text>
<text text-anchor="start" x="30.5" y="-239.5" font-family="SegoeUI" font-size="10.00">+ Reinstall()</text>
<text text-anchor="start" x="30.5" y="-228.5" font-family="SegoeUI" font-size="10.00">+ Reset()</text>
<text text-anchor="start" x="30.5" y="-217.5" font-family="SegoeUI" font-size="10.00">+ Install()</text>
<text text-anchor="start" x="30.5" y="-206.5" font-family="SegoeUI" font-size="10.00">+ Uninstall()</text>
</a>
</g>
</g>
<!-- Node7&#45;&gt;Node6 -->
<g id="edge2" class="edge"><title>Node7&#45;&gt;Node6</title>
<path fill="none" stroke="midnightblue" d="M88,-189.233C88,-179.921 88,-170.707 88,-162.589"/>
<polygon fill="none" stroke="midnightblue" points="84.5001,-189.33 88,-199.33 91.5001,-189.33 84.5001,-189.33"/>
</g>
<!-- Node8 -->
<g id="node4" class="node"><title>Node8</title>
<g id="a_node4"><a xlink:title=" ">
<polygon fill="white" stroke="#bfbfbf" points="0,-348.5 0,-405.5 82,-405.5 82,-348.5 0,-348.5"/>
<text text-anchor="middle" x="41" y="-393.5" font-family="SegoeUI" font-size="10.00">MonoBehaviour</text>
<polyline fill="none" stroke="#bfbfbf" points="0,-386.5 82,-386.5 "/>
<text text-anchor="middle" x="41" y="-374.5" font-family="SegoeUI" font-size="10.00"> </text>
<polyline fill="none" stroke="#bfbfbf" points="0,-367.5 82,-367.5 "/>
<text text-anchor="middle" x="41" y="-355.5" font-family="SegoeUI" font-size="10.00"> </text>
</a>
</g>
</g>
<!-- Node8&#45;&gt;Node7 -->
<g id="edge3" class="edge"><title>Node8&#45;&gt;Node7</title>
<path fill="none" stroke="midnightblue" d="M55.0388,-338.663C59.509,-326.774 64.5274,-313.427 69.2745,-300.802"/>
<polygon fill="none" stroke="midnightblue" points="51.6742,-337.666 51.4308,-348.258 58.2264,-340.13 51.6742,-337.666"/>
</g>
<!-- Node9 -->
<g id="node5" class="node"><title>Node9</title>
<g id="a_node5"><a xlink:href="../../db/d28/interface_juniper_1_1_i_installable.html" target="_top" xlink:title=" ">
<polygon fill="white" stroke="black" points="100.5,-337.5 100.5,-416.5 169.5,-416.5 169.5,-337.5 100.5,-337.5"/>
<text text-anchor="middle" x="135" y="-404.5" font-family="SegoeUI" font-size="10.00">IInstallable</text>
<polyline fill="none" stroke="black" points="100.5,-397.5 169.5,-397.5 "/>
<text text-anchor="middle" x="135" y="-385.5" font-family="SegoeUI" font-size="10.00"> </text>
<polyline fill="none" stroke="black" points="100.5,-378.5 169.5,-378.5 "/>
<text text-anchor="start" x="108.5" y="-366.5" font-family="SegoeUI" font-size="10.00">+ Install()</text>
<text text-anchor="start" x="108.5" y="-355.5" font-family="SegoeUI" font-size="10.00">+ Reinstall()</text>
<text text-anchor="start" x="108.5" y="-344.5" font-family="SegoeUI" font-size="10.00">+ Uninstall()</text>
</a>
</g>
</g>
<!-- Node9&#45;&gt;Node7 -->
<g id="edge4" class="edge"><title>Node9&#45;&gt;Node7</title>
<path fill="none" stroke="midnightblue" d="M116.943,-327.977C113.582,-319.037 110.063,-309.679 106.684,-300.691"/>
<polygon fill="none" stroke="midnightblue" points="113.719,-329.348 120.515,-337.476 120.272,-326.884 113.719,-329.348"/>
</g>
</g>
</svg>
