<?xml version="1.0" encoding="UTF-8" standalone="no"?>
<!DOCTYPE svg PUBLIC "-//W3C//DTD SVG 1.1//EN"
 "http://www.w3.org/Graphics/SVG/1.1/DTD/svg11.dtd">
<!-- Generated by graphviz version 2.38.0 (20140413.2041)
 -->
<!-- Title: Juniper.Compression.Tar.TarArchiveEntryStream Pages: 1 -->
<svg width="211pt" height="683pt"
 viewBox="0.00 0.00 210.50 683.00" xmlns="http://www.w3.org/2000/svg" xmlns:xlink="http://www.w3.org/1999/xlink">
<g id="graph0" class="graph" transform="scale(1 1) rotate(0) translate(4 679)">
<title>Juniper.Compression.Tar.TarArchiveEntryStream</title>
<polygon fill="white" stroke="none" points="-4,4 -4,-679 206.5,-679 206.5,4 -4,4"/>
<!-- Node2 -->
<g id="node1" class="node"><title>Node2</title>
<g id="a_node1"><a xlink:title=" ">
<polygon fill="#bfbfbf" stroke="black" points="0,-0.5 0,-277.5 133,-277.5 133,-0.5 0,-0.5"/>
<text text-anchor="start" x="8" y="-265.5" font-family="SegoeUI" font-size="10.00">Juniper.Compression.Tar.</text>
<text text-anchor="middle" x="66.5" y="-254.5" font-family="SegoeUI" font-size="10.00">TarArchiveEntryStream</text>
<polyline fill="none" stroke="black" points="0,-247.5 133,-247.5 "/>
<text text-anchor="start" x="8" y="-235.5" font-family="SegoeUI" font-size="10.00">+ CanRead</text>
<text text-anchor="start" x="8" y="-224.5" font-family="SegoeUI" font-size="10.00">+ CanSeek</text>
<text text-anchor="start" x="8" y="-213.5" font-family="SegoeUI" font-size="10.00">+ CanWrite</text>
<text text-anchor="start" x="8" y="-202.5" font-family="SegoeUI" font-size="10.00">+ Length</text>
<text text-anchor="start" x="8" y="-191.5" font-family="SegoeUI" font-size="10.00">+ CanTimeout</text>
<text text-anchor="start" x="8" y="-180.5" font-family="SegoeUI" font-size="10.00">+ Position</text>
<text text-anchor="start" x="8" y="-169.5" font-family="SegoeUI" font-size="10.00">+ ReadTimeout</text>
<text text-anchor="start" x="8" y="-158.5" font-family="SegoeUI" font-size="10.00">+ WriteTimeout</text>
<text text-anchor="start" x="8" y="-147.5" font-family="SegoeUI" font-size="10.00">&#45; entryStream</text>
<polyline fill="none" stroke="black" points="0,-140.5 133,-140.5 "/>
<text text-anchor="start" x="8" y="-128.5" font-family="SegoeUI" font-size="10.00">+ TarArchiveEntryStream()</text>
<text text-anchor="start" x="8" y="-117.5" font-family="SegoeUI" font-size="10.00">+ Flush()</text>
<text text-anchor="start" x="8" y="-106.5" font-family="SegoeUI" font-size="10.00">+ Read()</text>
<text text-anchor="start" x="8" y="-95.5" font-family="SegoeUI" font-size="10.00">+ Seek()</text>
<text text-anchor="start" x="8" y="-84.5" font-family="SegoeUI" font-size="10.00">+ SetLength()</text>
<text text-anchor="start" x="8" y="-73.5" font-family="SegoeUI" font-size="10.00">+ Write()</text>
<text text-anchor="start" x="8" y="-62.5" font-family="SegoeUI" font-size="10.00">+ BeginRead()</text>
<text text-anchor="start" x="8" y="-51.5" font-family="SegoeUI" font-size="10.00">+ BeginWrite()</text>
<text text-anchor="start" x="8" y="-40.5" font-family="SegoeUI" font-size="10.00">+ Close()</text>
<text text-anchor="start" x="8" y="-29.5" font-family="SegoeUI" font-size="10.00">+ CopyToAsync()</text>
<text text-anchor="start" x="8" y="-18.5" font-family="SegoeUI" font-size="10.00">and 8 more...</text>
<text text-anchor="start" x="8" y="-7.5" font-family="SegoeUI" font-size="10.00"># Dispose()</text>
</a>
</g>
</g>
<!-- Node3 -->
<g id="node2" class="node"><title>Node3</title>
<g id="a_node2"><a xlink:title=" ">
<polygon fill="white" stroke="#bfbfbf" points="8.5,-419 8.5,-476 56.5,-476 56.5,-419 8.5,-419"/>
<text text-anchor="middle" x="32.5" y="-464" font-family="SegoeUI" font-size="10.00">Stream</text>
<polyline fill="none" stroke="#bfbfbf" points="8.5,-457 56.5,-457 "/>
<text text-anchor="middle" x="32.5" y="-445" font-family="SegoeUI" font-size="10.00"> </text>
<polyline fill="none" stroke="#bfbfbf" points="8.5,-438 56.5,-438 "/>
<text text-anchor="middle" x="32.5" y="-426" font-family="SegoeUI" font-size="10.00"> </text>
</a>
</g>
</g>
<!-- Node3&#45;&gt;Node2 -->
<g id="edge1" class="edge"><title>Node3&#45;&gt;Node2</title>
<path fill="none" stroke="midnightblue" d="M36.6976,-408.66C40.3605,-375.64 45.9077,-325.633 51.2271,-277.681"/>
<polygon fill="none" stroke="midnightblue" points="33.2012,-408.435 35.5772,-418.76 40.1585,-409.206 33.2012,-408.435"/>
</g>
<!-- Node4 -->
<g id="node3" class="node"><title>Node4</title>
<g id="a_node3"><a xlink:href="../../db/d2a/class_juniper_1_1_compression_1_1_tar_1_1_tar_archive.html" target="_top" xlink:title=" ">
<polygon fill="white" stroke="black" points="74.5,-325.5 74.5,-569.5 202.5,-569.5 202.5,-325.5 74.5,-325.5"/>
<text text-anchor="start" x="82.5" y="-557.5" font-family="SegoeUI" font-size="10.00">Juniper.Compression.Tar.</text>
<text text-anchor="middle" x="138.5" y="-546.5" font-family="SegoeUI" font-size="10.00">TarArchive</text>
<polyline fill="none" stroke="black" points="74.5,-539.5 202.5,-539.5 "/>
<text text-anchor="start" x="82.5" y="-527.5" font-family="SegoeUI" font-size="10.00">+ Entries</text>
<text text-anchor="start" x="82.5" y="-516.5" font-family="SegoeUI" font-size="10.00">&#45; entries</text>
<text text-anchor="start" x="82.5" y="-505.5" font-family="SegoeUI" font-size="10.00">&#45; disposedValue</text>
<polyline fill="none" stroke="black" points="74.5,-498.5 202.5,-498.5 "/>
<text text-anchor="start" x="82.5" y="-486.5" font-family="SegoeUI" font-size="10.00">+ TarArchive()</text>
<text text-anchor="start" x="82.5" y="-475.5" font-family="SegoeUI" font-size="10.00">+ GetEntry()</text>
<text text-anchor="start" x="82.5" y="-464.5" font-family="SegoeUI" font-size="10.00">+ Decompress()</text>
<text text-anchor="start" x="82.5" y="-453.5" font-family="SegoeUI" font-size="10.00">+ Decompress()</text>
<text text-anchor="start" x="82.5" y="-442.5" font-family="SegoeUI" font-size="10.00">+ Dispose()</text>
<text text-anchor="start" x="82.5" y="-431.5" font-family="SegoeUI" font-size="10.00">&#45; Dispose()</text>
<text text-anchor="start" x="82.5" y="-420.5" font-family="SegoeUI" font-size="10.00">&#45; SeekToNextEntry()</text>
<text text-anchor="start" x="82.5" y="-409.5" font-family="SegoeUI" font-size="10.00">&#45; IsAllZeros()</text>
<text text-anchor="start" x="82.5" y="-398.5" font-family="SegoeUI" font-size="10.00">&#45; IsFileType()</text>
<text text-anchor="start" x="82.5" y="-387.5" font-family="SegoeUI" font-size="10.00">&#45; AddFilePrefix()</text>
<text text-anchor="start" x="82.5" y="-376.5" font-family="SegoeUI" font-size="10.00">&#45; ReadLastModifiedTime()</text>
<text text-anchor="start" x="82.5" y="-365.5" font-family="SegoeUI" font-size="10.00">&#45; ReadFileSize()</text>
<text text-anchor="start" x="82.5" y="-354.5" font-family="SegoeUI" font-size="10.00">&#45; ValidateChecksum()</text>
<text text-anchor="start" x="82.5" y="-343.5" font-family="SegoeUI" font-size="10.00">&#45; GetString()</text>
<text text-anchor="start" x="82.5" y="-332.5" font-family="SegoeUI" font-size="10.00">&#45; ReadOctal()</text>
</a>
</g>
</g>
<!-- Node4&#45;&gt;Node2 -->
<g id="edge2" class="edge"><title>Node4&#45;&gt;Node2</title>
<path fill="none" stroke="#404040" d="M110.044,-325.363C107.287,-313.629 104.469,-301.632 101.658,-289.665"/>
<polygon fill="none" stroke="#404040" points="101.596,-289.399 96.3294,-284.473 98.8513,-277.717 104.117,-282.644 101.596,-289.399"/>
<text text-anchor="middle" x="114" y="-299" font-family="SegoeUI" font-size="10.00"> &#45;tar</text>
</g>
<!-- Node5 -->
<g id="node4" class="node"><title>Node5</title>
<g id="a_node4"><a xlink:title=" ">
<polygon fill="white" stroke="#bfbfbf" points="71,-617.5 71,-674.5 136,-674.5 136,-617.5 71,-617.5"/>
<text text-anchor="middle" x="103.5" y="-662.5" font-family="SegoeUI" font-size="10.00">IDisposable</text>
<polyline fill="none" stroke="#bfbfbf" points="71,-655.5 136,-655.5 "/>
<text text-anchor="middle" x="103.5" y="-643.5" font-family="SegoeUI" font-size="10.00"> </text>
<polyline fill="none" stroke="#bfbfbf" points="71,-636.5 136,-636.5 "/>
<text text-anchor="middle" x="103.5" y="-624.5" font-family="SegoeUI" font-size="10.00"> </text>
</a>
</g>
</g>
<!-- Node5&#45;&gt;Node4 -->
<g id="edge3" class="edge"><title>Node5&#45;&gt;Node4</title>
<path fill="none" stroke="midnightblue" d="M110.243,-607.144C112.226,-596.012 114.509,-583.19 116.901,-569.761"/>
<polygon fill="none" stroke="midnightblue" points="106.748,-606.804 108.44,-617.263 113.64,-608.032 106.748,-606.804"/>
</g>
<!-- Node6 -->
<g id="node5" class="node"><title>Node6</title>
<g id="a_node5"><a xlink:title=" ">
<polygon fill="white" stroke="#bfbfbf" points="154,-617.5 154,-674.5 193,-674.5 193,-617.5 154,-617.5"/>
<text text-anchor="middle" x="173.5" y="-662.5" font-family="SegoeUI" font-size="10.00">static</text>
<polyline fill="none" stroke="#bfbfbf" points="154,-655.5 193,-655.5 "/>
<text text-anchor="middle" x="173.5" y="-643.5" font-family="SegoeUI" font-size="10.00"> </text>
<polyline fill="none" stroke="#bfbfbf" points="154,-636.5 193,-636.5 "/>
<text text-anchor="middle" x="173.5" y="-624.5" font-family="SegoeUI" font-size="10.00"> </text>
</a>
</g>
</g>
<!-- Node6&#45;&gt;Node4 -->
<g id="edge4" class="edge"><title>Node6&#45;&gt;Node4</title>
<path fill="none" stroke="#404040" d="M168.56,-617.263C166.752,-607.117 164.568,-594.851 162.21,-581.614"/>
<polygon fill="none" stroke="#404040" points="162.203,-581.575 157.213,-576.37 160.099,-569.761 165.089,-574.967 162.203,-581.575"/>
<text text-anchor="middle" x="181" y="-591" font-family="SegoeUI" font-size="10.00"> &#45;Epoch</text>
</g>
</g>
</svg>
