<?xml version="1.0" encoding="UTF-8" standalone="no"?>
<!DOCTYPE svg PUBLIC "-//W3C//DTD SVG 1.1//EN"
 "http://www.w3.org/Graphics/SVG/1.1/DTD/svg11.dtd">
<!-- Generated by graphviz version 2.38.0 (20140413.2041)
 -->
<!-- Title: Juniper.Unity.Display.AbstractPassthroughDisplayManager Pages: 1 -->
<!--zoomable 694 -->
<svg id="main" version="1.1" xmlns="http://www.w3.org/2000/svg" xmlns:xlink="http://www.w3.org/1999/xlink" xml:space="preserve" onload="init(evt)">
<style type="text/css"><![CDATA[
.edge:hover path { stroke: red; }
.edge:hover polygon { stroke: red; fill: red; }
]]></style>
<script type="text/javascript"><![CDATA[
var edges = document.getElementsByTagName('g');
if (edges && edges.length) {
  for (var i=0;i<edges.length;i++) {
    if (edges[i].id.substr(0,4)=='edge') {
      edges[i].setAttribute('class','edge');
    }
  }
}
]]></script>
        <defs>
                <circle id="rim" cx="0" cy="0" r="7"/>
                <circle id="rim2" cx="0" cy="0" r="3.5"/>
                <g id="zoomPlus">
                        <use xlink:href="#rim" fill="#404040">
                                <set attributeName="fill" to="#808080" begin="zoomplus.mouseover" end="zoomplus.mouseout"/>
                        </use>
                        <path d="M-4,0h8M0,-4v8" fill="none" stroke="white" stroke-width="1.5" pointer-events="none"/>
                </g>
                <g id="zoomMin">
                        <use xlink:href="#rim" fill="#404040">
                                <set attributeName="fill" to="#808080" begin="zoomminus.mouseover" end="zoomminus.mouseout"/>
                        </use>
                        <path d="M-4,0h8" fill="none" stroke="white" stroke-width="1.5" pointer-events="none"/>
                </g>
                <g id="dirArrow">
                        <path fill="none" stroke="white" stroke-width="1.5" d="M0,-3.0v7 M-2.5,-0.5L0,-3.0L2.5,-0.5"/>
                </g>
               <g id="resetDef">
                       <use xlink:href="#rim2" fill="#404040">
                               <set attributeName="fill" to="#808080" begin="reset.mouseover" end="reset.mouseout"/>
                       </use>
               </g>
        </defs>

<script type="text/javascript">
var viewWidth = 178;
var viewHeight = 694;
var sectionId = 'dynsection-0';
</script>
<script xlink:href="../../svgpan.js"/>
<svg id="graph" class="graph">
<g id="viewport">
<title>Juniper.Unity.Display.AbstractPassthroughDisplayManager</title>
<polygon fill="white" stroke="none" points="-4,4 -4,-690 173.5,-690 173.5,4 -4,4"/>
<!-- Node0 -->
<g id="node1" class="node"><title>Node0</title>
<g id="a_node1"><a xlink:title=" ">
<polygon fill="#bfbfbf" stroke="black" points="16.5,-0.5 16.5,-90.5 159.5,-90.5 159.5,-0.5 16.5,-0.5"/>
<text text-anchor="start" x="24.5" y="-78.5" font-family="SegoeUI" font-size="10.00">Juniper.Unity.Display.Abstract</text>
<text text-anchor="middle" x="88" y="-67.5" font-family="SegoeUI" font-size="10.00">PassthroughDisplayManager</text>
<polyline fill="none" stroke="black" points="16.5,-60.5 159.5,-60.5 "/>
<text text-anchor="start" x="24.5" y="-48.5" font-family="SegoeUI" font-size="10.00">+ ARBackgroundMaterial</text>
<text text-anchor="start" x="24.5" y="-37.5" font-family="SegoeUI" font-size="10.00">+ enablePointCloud</text>
<polyline fill="none" stroke="black" points="16.5,-30.5 159.5,-30.5 "/>
<text text-anchor="start" x="24.5" y="-18.5" font-family="SegoeUI" font-size="10.00">+ Start()</text>
<text text-anchor="start" x="24.5" y="-7.5" font-family="SegoeUI" font-size="10.00"># OnARModeChange()</text>
</a>
</g>
</g>
<!-- Node1 -->
<g id="node2" class="node"><title>Node1</title>
<g id="a_node2"><a xlink:href="../../da/da5/class_juniper_1_1_unity_1_1_display_1_1_abstract_display_manager.html" target="_top" xlink:title=" ">
<polygon fill="white" stroke="black" points="23.5,-127.5 23.5,-569.5 152.5,-569.5 152.5,-127.5 23.5,-127.5"/>
<text text-anchor="middle" x="88" y="-557.5" font-family="SegoeUI" font-size="10.00">AbstractDisplayManager</text>
<polyline fill="none" stroke="black" points="23.5,-550.5 152.5,-550.5 "/>
<text text-anchor="start" x="31.5" y="-538.5" font-family="SegoeUI" font-size="10.00">+ onDisplayTypeChange</text>
<text text-anchor="start" x="31.5" y="-527.5" font-family="SegoeUI" font-size="10.00">+ onARModeChange</text>
<text text-anchor="start" x="31.5" y="-516.5" font-family="SegoeUI" font-size="10.00">+ MainCamera</text>
<text text-anchor="start" x="31.5" y="-505.5" font-family="SegoeUI" font-size="10.00">+ CurrentPlatform</text>
<text text-anchor="start" x="31.5" y="-494.5" font-family="SegoeUI" font-size="10.00">+ System</text>
<text text-anchor="start" x="31.5" y="-483.5" font-family="SegoeUI" font-size="10.00">+ DisplayType</text>
<text text-anchor="start" x="31.5" y="-472.5" font-family="SegoeUI" font-size="10.00">+ SupportedDisplayType</text>
<text text-anchor="start" x="31.5" y="-461.5" font-family="SegoeUI" font-size="10.00">+ ARMode</text>
<text text-anchor="start" x="31.5" y="-450.5" font-family="SegoeUI" font-size="10.00">+ SupportedARMode</text>
<text text-anchor="start" x="31.5" y="-439.5" font-family="SegoeUI" font-size="10.00">+ Option</text>
<text text-anchor="start" x="31.5" y="-428.5" font-family="SegoeUI" font-size="10.00">+ IsValidDisplayChange</text>
<text text-anchor="start" x="31.5" y="-417.5" font-family="SegoeUI" font-size="10.00">+ DEFAULT_FOV</text>
<text text-anchor="start" x="31.5" y="-406.5" font-family="SegoeUI" font-size="10.00">+ VerticalFieldOfView</text>
<text text-anchor="start" x="31.5" y="-395.5" font-family="SegoeUI" font-size="10.00"># cameraCtrl</text>
<text text-anchor="start" x="31.5" y="-384.5" font-family="SegoeUI" font-size="10.00">&#45; jp</text>
<text text-anchor="start" x="31.5" y="-373.5" font-family="SegoeUI" font-size="10.00">&#45; lastSystem</text>
<text text-anchor="start" x="31.5" y="-362.5" font-family="SegoeUI" font-size="10.00">&#45; lastDisplayType</text>
<text text-anchor="start" x="31.5" y="-351.5" font-family="SegoeUI" font-size="10.00">&#45; lastARMode</text>
<text text-anchor="start" x="31.5" y="-340.5" font-family="SegoeUI" font-size="10.00">&#45; lastOption</text>
<text text-anchor="start" x="31.5" y="-329.5" font-family="SegoeUI" font-size="10.00">&#45; cam</text>
<polyline fill="none" stroke="black" points="23.5,-322.5 152.5,-322.5 "/>
<text text-anchor="start" x="31.5" y="-310.5" font-family="SegoeUI" font-size="10.00">+ Awake()</text>
<text text-anchor="start" x="31.5" y="-299.5" font-family="SegoeUI" font-size="10.00">+ Reinstall()</text>
<text text-anchor="start" x="31.5" y="-288.5" font-family="SegoeUI" font-size="10.00">+ Reset()</text>
<text text-anchor="start" x="31.5" y="-277.5" font-family="SegoeUI" font-size="10.00">+ Install()</text>
<text text-anchor="start" x="31.5" y="-266.5" font-family="SegoeUI" font-size="10.00">+ Uninstall()</text>
<text text-anchor="start" x="31.5" y="-255.5" font-family="SegoeUI" font-size="10.00">+ Start()</text>
<text text-anchor="start" x="31.5" y="-244.5" font-family="SegoeUI" font-size="10.00">+ StartXRDisplay()</text>
<text text-anchor="start" x="31.5" y="-233.5" font-family="SegoeUI" font-size="10.00">+ StopXRDisplay()</text>
<text text-anchor="start" x="31.5" y="-222.5" font-family="SegoeUI" font-size="10.00">+ DisableDisplay()</text>
<text text-anchor="start" x="31.5" y="-211.5" font-family="SegoeUI" font-size="10.00">+ StartAR()</text>
<text text-anchor="start" x="31.5" y="-200.5" font-family="SegoeUI" font-size="10.00">+ StopAR()</text>
<text text-anchor="start" x="31.5" y="-189.5" font-family="SegoeUI" font-size="10.00">+ ToggleAR()</text>
<text text-anchor="start" x="31.5" y="-178.5" font-family="SegoeUI" font-size="10.00">+ Update()</text>
<text text-anchor="start" x="31.5" y="-167.5" font-family="SegoeUI" font-size="10.00"># OnDisplayTypeChange()</text>
<text text-anchor="start" x="31.5" y="-156.5" font-family="SegoeUI" font-size="10.00"># OnARModeChange()</text>
<text text-anchor="start" x="31.5" y="-145.5" font-family="SegoeUI" font-size="10.00">&#45; ChangeDisplayType()</text>
<text text-anchor="start" x="31.5" y="-134.5" font-family="SegoeUI" font-size="10.00">&#45; ChangeARMode()</text>
</a>
</g>
</g>
<!-- Node1&#45;&gt;Node0 -->
<g id="edge1" class="edge"><title>Node1&#45;&gt;Node0</title>
<path fill="none" stroke="midnightblue" d="M88,-117.096C88,-107.633 88,-98.764 88,-90.7216"/>
<polygon fill="none" stroke="midnightblue" points="84.5001,-117.162 88,-127.162 91.5001,-117.163 84.5001,-117.162"/>
</g>
<!-- Node2 -->
<g id="node3" class="node"><title>Node2</title>
<g id="a_node3"><a xlink:title=" ">
<polygon fill="white" stroke="#bfbfbf" points="0,-617.5 0,-674.5 82,-674.5 82,-617.5 0,-617.5"/>
<text text-anchor="middle" x="41" y="-662.5" font-family="SegoeUI" font-size="10.00">MonoBehaviour</text>
<polyline fill="none" stroke="#bfbfbf" points="0,-655.5 82,-655.5 "/>
<text text-anchor="middle" x="41" y="-643.5" font-family="SegoeUI" font-size="10.00"> </text>
<polyline fill="none" stroke="#bfbfbf" points="0,-636.5 82,-636.5 "/>
<text text-anchor="middle" x="41" y="-624.5" font-family="SegoeUI" font-size="10.00"> </text>
</a>
</g>
</g>
<!-- Node2&#45;&gt;Node1 -->
<g id="edge2" class="edge"><title>Node2&#45;&gt;Node1</title>
<path fill="none" stroke="midnightblue" d="M46.9612,-607.521C48.7112,-596.518 50.7623,-583.622 52.9977,-569.568"/>
<polygon fill="none" stroke="midnightblue" points="43.4938,-607.04 45.3794,-617.465 50.4069,-608.139 43.4938,-607.04"/>
</g>
<!-- Node3 -->
<g id="node4" class="node"><title>Node3</title>
<g id="a_node4"><a xlink:href="../../db/d28/interface_juniper_1_1_i_installable.html" target="_top" xlink:title=" ">
<polygon fill="white" stroke="black" points="100.5,-606.5 100.5,-685.5 169.5,-685.5 169.5,-606.5 100.5,-606.5"/>
<text text-anchor="middle" x="135" y="-673.5" font-family="SegoeUI" font-size="10.00">IInstallable</text>
<polyline fill="none" stroke="black" points="100.5,-666.5 169.5,-666.5 "/>
<text text-anchor="middle" x="135" y="-654.5" font-family="SegoeUI" font-size="10.00"> </text>
<polyline fill="none" stroke="black" points="100.5,-647.5 169.5,-647.5 "/>
<text text-anchor="start" x="108.5" y="-635.5" font-family="SegoeUI" font-size="10.00">+ Install()</text>
<text text-anchor="start" x="108.5" y="-624.5" font-family="SegoeUI" font-size="10.00">+ Reinstall()</text>
<text text-anchor="start" x="108.5" y="-613.5" font-family="SegoeUI" font-size="10.00">+ Uninstall()</text>
</a>
</g>
</g>
<!-- Node3&#45;&gt;Node1 -->
<g id="edge3" class="edge"><title>Node3&#45;&gt;Node1</title>
<path fill="none" stroke="midnightblue" d="M127.267,-596.384C125.961,-588.167 124.533,-579.191 123.021,-569.683"/>
<polygon fill="none" stroke="midnightblue" points="123.828,-597.042 128.856,-606.369 130.741,-595.943 123.828,-597.042"/>
</g>
</g>
</svg>
        <g id="navigator" transform="translate(0 0)" fill="#404254">
                <rect fill="#f2f5e9" fill-opacity="0.5" stroke="#606060" stroke-width=".5" x="0" y="0" width="60" height="60"/>
                <use id="zoomplus" xlink:href="#zoomPlus" x="17" y="9" onmousedown="handleZoom(evt,'in')"/>
                <use id="zoomminus" xlink:href="#zoomMin" x="42" y="9" onmousedown="handleZoom(evt,'out')"/>
                <use id="reset" xlink:href="#resetDef" x="30" y="36" onmousedown="handleReset()"/>
                <g id="arrowUp" xlink:href="#dirArrow" transform="translate(30 24)" onmousedown="handlePan(0,-1)">
                  <use xlink:href="#rim" fill="#404040">
                        <set attributeName="fill" to="#808080" begin="arrowUp.mouseover" end="arrowUp.mouseout"/>
                  </use>
                  <path fill="none" stroke="white" stroke-width="1.5" d="M0,-3.0v7 M-2.5,-0.5L0,-3.0L2.5,-0.5"/>
                </g>
                <g id="arrowRight" xlink:href="#dirArrow" transform="rotate(90) translate(36 -43)" onmousedown="handlePan(1,0)">
                  <use xlink:href="#rim" fill="#404040">
                        <set attributeName="fill" to="#808080" begin="arrowRight.mouseover" end="arrowRight.mouseout"/>
                  </use>
                  <path fill="none" stroke="white" stroke-width="1.5" d="M0,-3.0v7 M-2.5,-0.5L0,-3.0L2.5,-0.5"/>
                </g>
                <g id="arrowDown" xlink:href="#dirArrow" transform="rotate(180) translate(-30 -48)" onmousedown="handlePan(0,1)">
                  <use xlink:href="#rim" fill="#404040">
                        <set attributeName="fill" to="#808080" begin="arrowDown.mouseover" end="arrowDown.mouseout"/>
                  </use>
                  <path fill="none" stroke="white" stroke-width="1.5" d="M0,-3.0v7 M-2.5,-0.5L0,-3.0L2.5,-0.5"/>
                </g>
                <g id="arrowLeft" xlink:href="#dirArrow" transform="rotate(270) translate(-36 17)" onmousedown="handlePan(-1,0)">
                  <use xlink:href="#rim" fill="#404040">
                        <set attributeName="fill" to="#808080" begin="arrowLeft.mouseover" end="arrowLeft.mouseout"/>
                  </use>
                  <path fill="none" stroke="white" stroke-width="1.5" d="M0,-3.0v7 M-2.5,-0.5L0,-3.0L2.5,-0.5"/>
                </g>
        </g>
        <svg viewBox="0 0 15 15" width="100%" height="30px" preserveAspectRatio="xMaxYMin meet">
         <g id="arrow_out" transform="scale(0.3 0.3)">
          <a xlink:href="class_juniper_1_1_unity_1_1_display_1_1_abstract_passthrough_display_manager__inherit__graph_org.svg" target="_base">
           <rect id="button" ry="5" rx="5" y="6" x="6" height="38" width="38"
                fill="#f2f5e9" fill-opacity="0.5" stroke="#606060" stroke-width="1.0"/>
           <path id="arrow"
             d="M 11.500037,31.436501 C 11.940474,20.09759 22.043105,11.32322 32.158766,21.979434 L 37.068811,17.246167 C 37.068811,17.246167 37.088388,32 37.088388,32 L 22.160133,31.978069 C 22.160133,31.978069 26.997745,27.140456 26.997745,27.140456 C 18.528582,18.264221 13.291696,25.230495 11.500037,31.436501 z"
             style="fill:#404040;"/>
          </a>
         </g>
        </svg>
</svg>
