<?xml version="1.0" encoding="UTF-8" standalone="no"?>
<!DOCTYPE svg PUBLIC "-//W3C//DTD SVG 1.1//EN"
 "http://www.w3.org/Graphics/SVG/1.1/DTD/svg11.dtd">
<!-- Generated by graphviz version 2.38.0 (20140413.2041)
 -->
<!-- Title: Juniper.Animation.TranslationTransition Pages: 1 -->
<!--zoomable 944 -->
<svg id="main" version="1.1" xmlns="http://www.w3.org/2000/svg" xmlns:xlink="http://www.w3.org/1999/xlink" xml:space="preserve" onload="init(evt)">
<style type="text/css"><![CDATA[
.edge:hover path { stroke: red; }
.edge:hover polygon { stroke: red; fill: red; }
]]></style>
<script type="text/javascript"><![CDATA[
var edges = document.getElementsByTagName('g');
if (edges && edges.length) {
  for (var i=0;i<edges.length;i++) {
    if (edges[i].id.substr(0,4)=='edge') {
      edges[i].setAttribute('class','edge');
    }
  }
}
]]></script>
        <defs>
                <circle id="rim" cx="0" cy="0" r="7"/>
                <circle id="rim2" cx="0" cy="0" r="3.5"/>
                <g id="zoomPlus">
                        <use xlink:href="#rim" fill="#404040">
                                <set attributeName="fill" to="#808080" begin="zoomplus.mouseover" end="zoomplus.mouseout"/>
                        </use>
                        <path d="M-4,0h8M0,-4v8" fill="none" stroke="white" stroke-width="1.5" pointer-events="none"/>
                </g>
                <g id="zoomMin">
                        <use xlink:href="#rim" fill="#404040">
                                <set attributeName="fill" to="#808080" begin="zoomminus.mouseover" end="zoomminus.mouseout"/>
                        </use>
                        <path d="M-4,0h8" fill="none" stroke="white" stroke-width="1.5" pointer-events="none"/>
                </g>
                <g id="dirArrow">
                        <path fill="none" stroke="white" stroke-width="1.5" d="M0,-3.0v7 M-2.5,-0.5L0,-3.0L2.5,-0.5"/>
                </g>
               <g id="resetDef">
                       <use xlink:href="#rim2" fill="#404040">
                               <set attributeName="fill" to="#808080" begin="reset.mouseover" end="reset.mouseout"/>
                       </use>
               </g>
        </defs>

<script type="text/javascript">
var viewWidth = 239;
var viewHeight = 944;
var sectionId = 'dynsection-1';
</script>
<script xlink:href="../../svgpan.js"/>
<svg id="graph" class="graph">
<g id="viewport">
<title>Juniper.Animation.TranslationTransition</title>
<polygon fill="white" stroke="none" points="-4,4 -4,-940 234.5,-940 234.5,4 -4,4"/>
<!-- Node4 -->
<g id="node1" class="node"><title>Node4</title>
<g id="a_node1"><a xlink:title="Performs a sliding animation on scene transitions. The object&#39;s localPosition is the value that is ch...">
<polygon fill="#bfbfbf" stroke="black" points="86.5,-0.5 86.5,-79.5 230.5,-79.5 230.5,-0.5 86.5,-0.5"/>
<text text-anchor="start" x="94.5" y="-67.5" font-family="SegoeUI" font-size="10.00">Juniper.Animation.Translation</text>
<text text-anchor="middle" x="158.5" y="-56.5" font-family="SegoeUI" font-size="10.00">Transition</text>
<polyline fill="none" stroke="black" points="86.5,-49.5 230.5,-49.5 "/>
<text text-anchor="start" x="94.5" y="-37.5" font-family="SegoeUI" font-size="10.00">+ length</text>
<text text-anchor="start" x="94.5" y="-26.5" font-family="SegoeUI" font-size="10.00">+ TransitionLength</text>
<polyline fill="none" stroke="black" points="86.5,-19.5 230.5,-19.5 "/>
<text text-anchor="start" x="94.5" y="-7.5" font-family="SegoeUI" font-size="10.00"># RenderValue()</text>
</a>
</g>
</g>
<!-- Node5 -->
<g id="node2" class="node"><title>Node5</title>
<g id="a_node2"><a xlink:href="../../d6/d38/class_juniper_1_1_animation_1_1_abstract_transition_controller.html" target="_top" xlink:title="Child classes of this class are able to animate transitions between program states.">
<polygon fill="white" stroke="black" points="0,-149.5 0,-404.5 137,-404.5 137,-149.5 0,-149.5"/>
<text text-anchor="middle" x="68.5" y="-392.5" font-family="SegoeUI" font-size="10.00">AbstractTransitionController</text>
<polyline fill="none" stroke="black" points="0,-385.5 137,-385.5 "/>
<text text-anchor="start" x="8" y="-373.5" font-family="SegoeUI" font-size="10.00">+ attackTime</text>
<text text-anchor="start" x="8" y="-362.5" font-family="SegoeUI" font-size="10.00">+ releaseTime</text>
<text text-anchor="start" x="8" y="-351.5" font-family="SegoeUI" font-size="10.00">+ onValueChanged</text>
<text text-anchor="start" x="8" y="-340.5" font-family="SegoeUI" font-size="10.00">+ tween</text>
<text text-anchor="start" x="8" y="-329.5" font-family="SegoeUI" font-size="10.00">+ tweenK</text>
<text text-anchor="start" x="8" y="-318.5" font-family="SegoeUI" font-size="10.00">+ TransitionLength</text>
<text text-anchor="start" x="8" y="-307.5" font-family="SegoeUI" font-size="10.00">+ Tweener</text>
<text text-anchor="start" x="8" y="-296.5" font-family="SegoeUI" font-size="10.00">&#45; attack</text>
<text text-anchor="start" x="8" y="-285.5" font-family="SegoeUI" font-size="10.00">&#45; release</text>
<text text-anchor="start" x="8" y="-274.5" font-family="SegoeUI" font-size="10.00">&#45; progress</text>
<text text-anchor="start" x="8" y="-263.5" font-family="SegoeUI" font-size="10.00">&#45; tweenedValue</text>
<polyline fill="none" stroke="black" points="0,-256.5 137,-256.5 "/>
<text text-anchor="start" x="8" y="-244.5" font-family="SegoeUI" font-size="10.00">+ Enter()</text>
<text text-anchor="start" x="8" y="-233.5" font-family="SegoeUI" font-size="10.00">+ Exit()</text>
<text text-anchor="start" x="8" y="-222.5" font-family="SegoeUI" font-size="10.00"># Complete()</text>
<text text-anchor="start" x="8" y="-211.5" font-family="SegoeUI" font-size="10.00"># OnEntering()</text>
<text text-anchor="start" x="8" y="-200.5" font-family="SegoeUI" font-size="10.00"># OnExiting()</text>
<text text-anchor="start" x="8" y="-189.5" font-family="SegoeUI" font-size="10.00"># Update()</text>
<text text-anchor="start" x="8" y="-178.5" font-family="SegoeUI" font-size="10.00"># RenderValue()</text>
<text text-anchor="start" x="8" y="-167.5" font-family="SegoeUI" font-size="10.00">&#45; SetProgress()</text>
<text text-anchor="start" x="8" y="-156.5" font-family="SegoeUI" font-size="10.00">&#45; OnValueChanged()</text>
</a>
</g>
</g>
<!-- Node5&#45;&gt;Node4 -->
<g id="edge1" class="edge"><title>Node5&#45;&gt;Node4</title>
<path fill="none" stroke="midnightblue" d="M120.685,-139.739C129.111,-117.738 137.192,-96.6376 143.705,-79.6317"/>
<polygon fill="none" stroke="midnightblue" points="117.364,-138.624 117.056,-149.214 123.901,-141.127 117.364,-138.624"/>
</g>
<!-- Node6 -->
<g id="node3" class="node"><title>Node6</title>
<g id="a_node3"><a xlink:href="../../d9/d7e/class_juniper_1_1_abstract_state_controller.html" target="_top" xlink:title="A subscene is a game object loaded from another scene. The scenes all get loaded at runtime and then ...">
<polygon fill="white" stroke="black" points="10.5,-442.5 10.5,-840.5 126.5,-840.5 126.5,-442.5 10.5,-442.5"/>
<text text-anchor="middle" x="68.5" y="-828.5" font-family="SegoeUI" font-size="10.00">AbstractStateController</text>
<polyline fill="none" stroke="black" points="10.5,-821.5 126.5,-821.5 "/>
<text text-anchor="start" x="18.5" y="-809.5" font-family="SegoeUI" font-size="10.00">+ onEntering</text>
<text text-anchor="start" x="18.5" y="-798.5" font-family="SegoeUI" font-size="10.00">+ onEntered</text>
<text text-anchor="start" x="18.5" y="-787.5" font-family="SegoeUI" font-size="10.00">+ onExiting</text>
<text text-anchor="start" x="18.5" y="-776.5" font-family="SegoeUI" font-size="10.00">+ onExited</text>
<text text-anchor="start" x="18.5" y="-765.5" font-family="SegoeUI" font-size="10.00">+ onStopped</text>
<text text-anchor="start" x="18.5" y="-754.5" font-family="SegoeUI" font-size="10.00">+ _curState</text>
<text text-anchor="start" x="18.5" y="-743.5" font-family="SegoeUI" font-size="10.00">+ State</text>
<text text-anchor="start" x="18.5" y="-732.5" font-family="SegoeUI" font-size="10.00">+ IsComplete</text>
<text text-anchor="start" x="18.5" y="-721.5" font-family="SegoeUI" font-size="10.00">+ IsEntering</text>
<text text-anchor="start" x="18.5" y="-710.5" font-family="SegoeUI" font-size="10.00">+ IsExiting</text>
<text text-anchor="start" x="18.5" y="-699.5" font-family="SegoeUI" font-size="10.00">+ CanExit</text>
<text text-anchor="start" x="18.5" y="-688.5" font-family="SegoeUI" font-size="10.00">+ CanEnter</text>
<text text-anchor="start" x="18.5" y="-677.5" font-family="SegoeUI" font-size="10.00">+ IsRunning</text>
<text text-anchor="start" x="18.5" y="-666.5" font-family="SegoeUI" font-size="10.00">+ IsEntered</text>
<text text-anchor="start" x="18.5" y="-655.5" font-family="SegoeUI" font-size="10.00">+ IsExited</text>
<text text-anchor="start" x="18.5" y="-644.5" font-family="SegoeUI" font-size="10.00"># skipEvents</text>
<text text-anchor="start" x="18.5" y="-633.5" font-family="SegoeUI" font-size="10.00">&#45; lastState</text>
<polyline fill="none" stroke="black" points="10.5,-626.5 126.5,-626.5 "/>
<text text-anchor="start" x="18.5" y="-614.5" font-family="SegoeUI" font-size="10.00">+ Enter()</text>
<text text-anchor="start" x="18.5" y="-603.5" font-family="SegoeUI" font-size="10.00">+ Enter()</text>
<text text-anchor="start" x="18.5" y="-592.5" font-family="SegoeUI" font-size="10.00">+ Exit()</text>
<text text-anchor="start" x="18.5" y="-581.5" font-family="SegoeUI" font-size="10.00">+ Exit()</text>
<text text-anchor="start" x="18.5" y="-570.5" font-family="SegoeUI" font-size="10.00">+ SkipEnter()</text>
<text text-anchor="start" x="18.5" y="-559.5" font-family="SegoeUI" font-size="10.00">+ SkipExit()</text>
<text text-anchor="start" x="18.5" y="-548.5" font-family="SegoeUI" font-size="10.00">+ EnterAsync()</text>
<text text-anchor="start" x="18.5" y="-537.5" font-family="SegoeUI" font-size="10.00">+ ExitAsync()</text>
<text text-anchor="start" x="18.5" y="-526.5" font-family="SegoeUI" font-size="10.00"># Complete()</text>
<text text-anchor="start" x="18.5" y="-515.5" font-family="SegoeUI" font-size="10.00"># OnEntering()</text>
<text text-anchor="start" x="18.5" y="-504.5" font-family="SegoeUI" font-size="10.00"># OnEntered()</text>
<text text-anchor="start" x="18.5" y="-493.5" font-family="SegoeUI" font-size="10.00"># OnExiting()</text>
<text text-anchor="start" x="18.5" y="-482.5" font-family="SegoeUI" font-size="10.00"># OnExited()</text>
<text text-anchor="start" x="18.5" y="-471.5" font-family="SegoeUI" font-size="10.00"># OnStopped()</text>
<text text-anchor="start" x="18.5" y="-460.5" font-family="SegoeUI" font-size="10.00">&#45; SetState()</text>
<text text-anchor="start" x="18.5" y="-449.5" font-family="SegoeUI" font-size="10.00">&#45; Stopper()</text>
</a>
</g>
</g>
<!-- Node6&#45;&gt;Node5 -->
<g id="edge2" class="edge"><title>Node6&#45;&gt;Node5</title>
<path fill="none" stroke="midnightblue" d="M68.5,-432.166C68.5,-422.877 68.5,-413.684 68.5,-404.689"/>
<polygon fill="none" stroke="midnightblue" points="65.0001,-432.28 68.5,-442.28 72.0001,-432.28 65.0001,-432.28"/>
</g>
<!-- Node7 -->
<g id="node4" class="node"><title>Node7</title>
<g id="a_node4"><a xlink:title=" ">
<polygon fill="white" stroke="#bfbfbf" points="27.5,-878.5 27.5,-935.5 109.5,-935.5 109.5,-878.5 27.5,-878.5"/>
<text text-anchor="middle" x="68.5" y="-923.5" font-family="SegoeUI" font-size="10.00">MonoBehaviour</text>
<polyline fill="none" stroke="#bfbfbf" points="27.5,-916.5 109.5,-916.5 "/>
<text text-anchor="middle" x="68.5" y="-904.5" font-family="SegoeUI" font-size="10.00"> </text>
<polyline fill="none" stroke="#bfbfbf" points="27.5,-897.5 109.5,-897.5 "/>
<text text-anchor="middle" x="68.5" y="-885.5" font-family="SegoeUI" font-size="10.00"> </text>
</a>
</g>
</g>
<!-- Node7&#45;&gt;Node6 -->
<g id="edge3" class="edge"><title>Node7&#45;&gt;Node6</title>
<path fill="none" stroke="midnightblue" d="M68.5,-868.051C68.5,-859.785 68.5,-850.496 68.5,-840.522"/>
<polygon fill="none" stroke="midnightblue" points="65.0001,-868.299 68.5,-878.299 72.0001,-868.299 65.0001,-868.299"/>
</g>
<!-- Node8 -->
<g id="node5" class="node"><title>Node8</title>
<g id="a_node5"><a xlink:title=" ">
<polygon fill="white" stroke="#bfbfbf" points="155.5,-248.5 155.5,-305.5 221.5,-305.5 221.5,-248.5 155.5,-248.5"/>
<text text-anchor="middle" x="188.5" y="-293.5" font-family="SegoeUI" font-size="10.00">UnityEngine</text>
<polyline fill="none" stroke="#bfbfbf" points="155.5,-286.5 221.5,-286.5 "/>
<text text-anchor="middle" x="188.5" y="-274.5" font-family="SegoeUI" font-size="10.00"> </text>
<polyline fill="none" stroke="#bfbfbf" points="155.5,-267.5 221.5,-267.5 "/>
<text text-anchor="middle" x="188.5" y="-255.5" font-family="SegoeUI" font-size="10.00"> </text>
</a>
</g>
</g>
<!-- Node8&#45;&gt;Node4 -->
<g id="edge4" class="edge"><title>Node8&#45;&gt;Node4</title>
<path fill="none" stroke="#404040" d="M184.941,-248.12C180.029,-209.645 171.088,-139.608 164.975,-91.7223"/>
<polygon fill="none" stroke="#404040" points="164.967,-91.6595 160.24,-86.2143 163.448,-79.7561 168.175,-85.2012 164.967,-91.6595"/>
<text text-anchor="middle" x="199.5" y="-123" font-family="SegoeUI" font-size="10.00"> &#45;EndPosition</text>
<text text-anchor="middle" x="199.5" y="-112" font-family="SegoeUI" font-size="10.00">+Delta</text>
<text text-anchor="middle" x="199.5" y="-101" font-family="SegoeUI" font-size="10.00">&#45;StartPosition</text>
</g>
</g>
</svg>
        <g id="navigator" transform="translate(0 0)" fill="#404254">
                <rect fill="#f2f5e9" fill-opacity="0.5" stroke="#606060" stroke-width=".5" x="0" y="0" width="60" height="60"/>
                <use id="zoomplus" xlink:href="#zoomPlus" x="17" y="9" onmousedown="handleZoom(evt,'in')"/>
                <use id="zoomminus" xlink:href="#zoomMin" x="42" y="9" onmousedown="handleZoom(evt,'out')"/>
                <use id="reset" xlink:href="#resetDef" x="30" y="36" onmousedown="handleReset()"/>
                <g id="arrowUp" xlink:href="#dirArrow" transform="translate(30 24)" onmousedown="handlePan(0,-1)">
                  <use xlink:href="#rim" fill="#404040">
                        <set attributeName="fill" to="#808080" begin="arrowUp.mouseover" end="arrowUp.mouseout"/>
                  </use>
                  <path fill="none" stroke="white" stroke-width="1.5" d="M0,-3.0v7 M-2.5,-0.5L0,-3.0L2.5,-0.5"/>
                </g>
                <g id="arrowRight" xlink:href="#dirArrow" transform="rotate(90) translate(36 -43)" onmousedown="handlePan(1,0)">
                  <use xlink:href="#rim" fill="#404040">
                        <set attributeName="fill" to="#808080" begin="arrowRight.mouseover" end="arrowRight.mouseout"/>
                  </use>
                  <path fill="none" stroke="white" stroke-width="1.5" d="M0,-3.0v7 M-2.5,-0.5L0,-3.0L2.5,-0.5"/>
                </g>
                <g id="arrowDown" xlink:href="#dirArrow" transform="rotate(180) translate(-30 -48)" onmousedown="handlePan(0,1)">
                  <use xlink:href="#rim" fill="#404040">
                        <set attributeName="fill" to="#808080" begin="arrowDown.mouseover" end="arrowDown.mouseout"/>
                  </use>
                  <path fill="none" stroke="white" stroke-width="1.5" d="M0,-3.0v7 M-2.5,-0.5L0,-3.0L2.5,-0.5"/>
                </g>
                <g id="arrowLeft" xlink:href="#dirArrow" transform="rotate(270) translate(-36 17)" onmousedown="handlePan(-1,0)">
                  <use xlink:href="#rim" fill="#404040">
                        <set attributeName="fill" to="#808080" begin="arrowLeft.mouseover" end="arrowLeft.mouseout"/>
                  </use>
                  <path fill="none" stroke="white" stroke-width="1.5" d="M0,-3.0v7 M-2.5,-0.5L0,-3.0L2.5,-0.5"/>
                </g>
        </g>
        <svg viewBox="0 0 15 15" width="100%" height="30px" preserveAspectRatio="xMaxYMin meet">
         <g id="arrow_out" transform="scale(0.3 0.3)">
          <a xlink:href="class_juniper_1_1_animation_1_1_translation_transition__coll__graph_org.svg" target="_base">
           <rect id="button" ry="5" rx="5" y="6" x="6" height="38" width="38"
                fill="#f2f5e9" fill-opacity="0.5" stroke="#606060" stroke-width="1.0"/>
           <path id="arrow"
             d="M 11.500037,31.436501 C 11.940474,20.09759 22.043105,11.32322 32.158766,21.979434 L 37.068811,17.246167 C 37.068811,17.246167 37.088388,32 37.088388,32 L 22.160133,31.978069 C 22.160133,31.978069 26.997745,27.140456 26.997745,27.140456 C 18.528582,18.264221 13.291696,25.230495 11.500037,31.436501 z"
             style="fill:#404040;"/>
          </a>
         </g>
        </svg>
</svg>
