<?xml version="1.0" encoding="UTF-8" standalone="no"?>
<!DOCTYPE svg PUBLIC "-//W3C//DTD SVG 1.1//EN"
 "http://www.w3.org/Graphics/SVG/1.1/DTD/svg11.dtd">
<!-- Generated by graphviz version 2.38.0 (20140413.2041)
 -->
<!-- Title: Hjg.Pngcs.Chunks.PngChunkSkipped Pages: 1 -->
<svg width="145pt" height="607pt"
 viewBox="0.00 0.00 145.00 607.00" xmlns="http://www.w3.org/2000/svg" xmlns:xlink="http://www.w3.org/1999/xlink">
<g id="graph0" class="graph" transform="scale(1 1) rotate(0) translate(4 603)">
<title>Hjg.Pngcs.Chunks.PngChunkSkipped</title>
<polygon fill="white" stroke="none" points="-4,4 -4,-603 141,-603 141,4 -4,4"/>
<!-- Node2 -->
<g id="node1" class="node"><title>Node2</title>
<g id="a_node1"><a xlink:title=" ">
<polygon fill="#bfbfbf" stroke="black" points="0,-0.5 0,-123.5 137,-123.5 137,-0.5 0,-0.5"/>
<text text-anchor="start" x="8" y="-111.5" font-family="SegoeUI" font-size="10.00">Hjg.Pngcs.Chunks.PngChunk</text>
<text text-anchor="middle" x="68.5" y="-100.5" font-family="SegoeUI" font-size="10.00">Skipped</text>
<polyline fill="none" stroke="black" points="0,-93.5 137,-93.5 "/>
<text text-anchor="middle" x="68.5" y="-81.5" font-family="SegoeUI" font-size="10.00"> </text>
<polyline fill="none" stroke="black" points="0,-74.5 137,-74.5 "/>
<text text-anchor="start" x="8" y="-62.5" font-family="SegoeUI" font-size="10.00">+ AllowsMultiple()</text>
<text text-anchor="start" x="8" y="-51.5" font-family="SegoeUI" font-size="10.00">+ CreateRawChunk()</text>
<text text-anchor="start" x="8" y="-40.5" font-family="SegoeUI" font-size="10.00">+ ParseFromRaw()</text>
<text text-anchor="start" x="8" y="-29.5" font-family="SegoeUI" font-size="10.00">+ CloneDataFromRead()</text>
<text text-anchor="start" x="8" y="-18.5" font-family="SegoeUI" font-size="10.00">+ GetOrderingConstraint()</text>
<text text-anchor="start" x="8" y="-7.5" font-family="SegoeUI" font-size="10.00">&#45; PngChunkSkipped()</text>
</a>
</g>
</g>
<!-- Node3 -->
<g id="node2" class="node"><title>Node3</title>
<g id="a_node2"><a xlink:href="../../d8/dd4/class_hjg_1_1_pngcs_1_1_chunks_1_1_abstract_png_chunk.html" target="_top" xlink:title="Represents a instance of a PNG chunk">
<polygon fill="white" stroke="black" points="4.5,-161.5 4.5,-493.5 132.5,-493.5 132.5,-161.5 4.5,-161.5"/>
<text text-anchor="middle" x="68.5" y="-481.5" font-family="SegoeUI" font-size="10.00">AbstractPngChunk</text>
<polyline fill="none" stroke="black" points="4.5,-474.5 132.5,-474.5 "/>
<text text-anchor="start" x="12.5" y="-462.5" font-family="SegoeUI" font-size="10.00">+ Id</text>
<text text-anchor="start" x="12.5" y="-451.5" font-family="SegoeUI" font-size="10.00">+ Crit</text>
<text text-anchor="start" x="12.5" y="-440.5" font-family="SegoeUI" font-size="10.00">+ Pub</text>
<text text-anchor="start" x="12.5" y="-429.5" font-family="SegoeUI" font-size="10.00">+ Safe</text>
<text text-anchor="start" x="12.5" y="-418.5" font-family="SegoeUI" font-size="10.00">+ ImgInfo</text>
<text text-anchor="start" x="12.5" y="-407.5" font-family="SegoeUI" font-size="10.00">+ Priority</text>
<text text-anchor="start" x="12.5" y="-396.5" font-family="SegoeUI" font-size="10.00">+ ChunkGroup</text>
<text text-anchor="start" x="12.5" y="-385.5" font-family="SegoeUI" font-size="10.00">+ Length</text>
<text text-anchor="start" x="12.5" y="-374.5" font-family="SegoeUI" font-size="10.00">+ Offset</text>
<polyline fill="none" stroke="black" points="4.5,-367.5 132.5,-367.5 "/>
<text text-anchor="start" x="12.5" y="-355.5" font-family="SegoeUI" font-size="10.00">+ CreateEmptyChunk()</text>
<text text-anchor="start" x="12.5" y="-344.5" font-family="SegoeUI" font-size="10.00">+ ToString()</text>
<text text-anchor="start" x="12.5" y="-333.5" font-family="SegoeUI" font-size="10.00">+ CreateRawChunk()</text>
<text text-anchor="start" x="12.5" y="-322.5" font-family="SegoeUI" font-size="10.00">+ ParseFromRaw()</text>
<text text-anchor="start" x="12.5" y="-311.5" font-family="SegoeUI" font-size="10.00">+ CloneDataFromRead()</text>
<text text-anchor="start" x="12.5" y="-300.5" font-family="SegoeUI" font-size="10.00">+ AllowsMultiple()</text>
<text text-anchor="start" x="12.5" y="-289.5" font-family="SegoeUI" font-size="10.00">+ GetOrderingConstraint()</text>
<text text-anchor="start" x="12.5" y="-278.5" font-family="SegoeUI" font-size="10.00">+ FactoryRegister()</text>
<text text-anchor="start" x="12.5" y="-267.5" font-family="SegoeUI" font-size="10.00">+ CloneChunk&lt; T &gt;()</text>
<text text-anchor="start" x="12.5" y="-256.5" font-family="SegoeUI" font-size="10.00"># AbstractPngChunk()</text>
<text text-anchor="start" x="12.5" y="-245.5" font-family="SegoeUI" font-size="10.00">&#45; MustGoBeforePLTE()</text>
<text text-anchor="start" x="12.5" y="-234.5" font-family="SegoeUI" font-size="10.00">&#45; MustGoBeforeIDAT()</text>
<text text-anchor="start" x="12.5" y="-223.5" font-family="SegoeUI" font-size="10.00">&#45; MustGoAfterPLTE()</text>
<text text-anchor="start" x="12.5" y="-212.5" font-family="SegoeUI" font-size="10.00">&#45; Write()</text>
<text text-anchor="start" x="12.5" y="-201.5" font-family="SegoeUI" font-size="10.00">&#45; InitFactory()</text>
<text text-anchor="start" x="12.5" y="-190.5" font-family="SegoeUI" font-size="10.00">&#45; IsKnown()</text>
<text text-anchor="start" x="12.5" y="-179.5" font-family="SegoeUI" font-size="10.00">&#45; Factory()</text>
<text text-anchor="start" x="12.5" y="-168.5" font-family="SegoeUI" font-size="10.00">&#45; FactoryFromId()</text>
</a>
</g>
</g>
<!-- Node3&#45;&gt;Node2 -->
<g id="edge1" class="edge"><title>Node3&#45;&gt;Node2</title>
<path fill="none" stroke="midnightblue" d="M68.5,-151.331C68.5,-141.691 68.5,-132.401 68.5,-123.7"/>
<polygon fill="none" stroke="midnightblue" points="65.0001,-151.492 68.5,-161.492 72.0001,-151.492 65.0001,-151.492"/>
</g>
<!-- Node4 -->
<g id="node3" class="node"><title>Node4</title>
<g id="a_node3"><a xlink:title=" ">
<polygon fill="white" stroke="#bfbfbf" points="49,-541.5 49,-598.5 88,-598.5 88,-541.5 49,-541.5"/>
<text text-anchor="middle" x="68.5" y="-586.5" font-family="SegoeUI" font-size="10.00">static</text>
<polyline fill="none" stroke="#bfbfbf" points="49,-579.5 88,-579.5 "/>
<text text-anchor="middle" x="68.5" y="-567.5" font-family="SegoeUI" font-size="10.00"> </text>
<polyline fill="none" stroke="#bfbfbf" points="49,-560.5 88,-560.5 "/>
<text text-anchor="middle" x="68.5" y="-548.5" font-family="SegoeUI" font-size="10.00"> </text>
</a>
</g>
</g>
<!-- Node4&#45;&gt;Node3 -->
<g id="edge2" class="edge"><title>Node4&#45;&gt;Node3</title>
<path fill="none" stroke="#404040" d="M68.5,-541.412C68.5,-531.392 68.5,-519.194 68.5,-505.761"/>
<polygon fill="none" stroke="#404040" points="68.5001,-505.662 64.5,-499.662 68.5,-493.662 72.5,-499.662 68.5001,-505.662"/>
<text text-anchor="middle" x="96" y="-515" font-family="SegoeUI" font-size="10.00"> &#45;factoryMap</text>
</g>
</g>
</svg>
