<?xml version="1.0" encoding="UTF-8" standalone="no"?>
<!DOCTYPE svg PUBLIC "-//W3C//DTD SVG 1.1//EN"
 "http://www.w3.org/Graphics/SVG/1.1/DTD/svg11.dtd">
<!-- Generated by graphviz version 2.38.0 (20140413.2041)
 -->
<!-- Title: Juniper.Threading.ManagedRequest&lt; T &gt; Pages: 1 -->
<svg width="152pt" height="617pt"
 viewBox="0.00 0.00 152.00 617.00" xmlns="http://www.w3.org/2000/svg" xmlns:xlink="http://www.w3.org/1999/xlink">
<g id="graph0" class="graph" transform="scale(1 1) rotate(0) translate(4 613)">
<title>Juniper.Threading.ManagedRequest&lt; T &gt;</title>
<polygon fill="white" stroke="none" points="-4,4 -4,-613 148,-613 148,4 -4,4"/>
<!-- Node3 -->
<g id="node1" class="node"><title>Node3</title>
<g id="a_node1"><a xlink:title="A ManagedRequest is a AbstractBackgroundRepeatingThread that keeps a parameterized type value as its ...">
<polygon fill="#bfbfbf" stroke="black" points="4,-0.5 4,-288.5 140,-288.5 140,-0.5 4,-0.5"/>
<text text-anchor="start" x="12" y="-276.5" font-family="SegoeUI" font-size="10.00">Juniper.Threading.Managed</text>
<text text-anchor="middle" x="72" y="-265.5" font-family="SegoeUI" font-size="10.00">Request&lt; T &gt;</text>
<polyline fill="none" stroke="black" points="4,-258.5 140,-258.5 "/>
<text text-anchor="start" x="12" y="-246.5" font-family="SegoeUI" font-size="10.00">+ DEFAULT_POLL_RATE</text>
<text text-anchor="start" x="12" y="-235.5" font-family="SegoeUI" font-size="10.00">+ DEFAULT_TIMEOUT</text>
<text text-anchor="start" x="12" y="-224.5" font-family="SegoeUI" font-size="10.00">+ NextRequest</text>
<text text-anchor="start" x="12" y="-213.5" font-family="SegoeUI" font-size="10.00">+ LastRequest</text>
<text text-anchor="start" x="12" y="-202.5" font-family="SegoeUI" font-size="10.00">+ LastResponse</text>
<text text-anchor="start" x="12" y="-191.5" font-family="SegoeUI" font-size="10.00">+ LastError</text>
<text text-anchor="start" x="12" y="-180.5" font-family="SegoeUI" font-size="10.00">+ TimeoutRate</text>
<text text-anchor="start" x="12" y="-169.5" font-family="SegoeUI" font-size="10.00">+ PollRate</text>
<text text-anchor="start" x="12" y="-158.5" font-family="SegoeUI" font-size="10.00">+ SinceRequest</text>
<text text-anchor="start" x="12" y="-147.5" font-family="SegoeUI" font-size="10.00">+ SinceRequestSeconds</text>
<text text-anchor="start" x="12" y="-136.5" font-family="SegoeUI" font-size="10.00">+ UntilNextRequest</text>
<text text-anchor="start" x="12" y="-125.5" font-family="SegoeUI" font-size="10.00">+ UntilNextRequestSeconds</text>
<text text-anchor="start" x="12" y="-114.5" font-family="SegoeUI" font-size="10.00">and 6 more...</text>
<text text-anchor="start" x="12" y="-103.5" font-family="SegoeUI" font-size="10.00">&#45; wasTimedOut</text>
<polyline fill="none" stroke="black" points="4,-96.5 140,-96.5 "/>
<text text-anchor="start" x="12" y="-84.5" font-family="SegoeUI" font-size="10.00">+ ManagedRequest()</text>
<text text-anchor="start" x="12" y="-73.5" font-family="SegoeUI" font-size="10.00">+ RetryIn()</text>
<text text-anchor="start" x="12" y="-62.5" font-family="SegoeUI" font-size="10.00"># Loop()</text>
<text text-anchor="start" x="12" y="-51.5" font-family="SegoeUI" font-size="10.00">&#45; OnReady()</text>
<text text-anchor="start" x="12" y="-40.5" font-family="SegoeUI" font-size="10.00">&#45; OnMessage()</text>
<text text-anchor="start" x="12" y="-29.5" font-family="SegoeUI" font-size="10.00">&#45; OnServerError()</text>
<text text-anchor="start" x="12" y="-18.5" font-family="SegoeUI" font-size="10.00">&#45; OnTimedOut()</text>
<text text-anchor="start" x="12" y="-7.5" font-family="SegoeUI" font-size="10.00">&#45; OnSuccess()</text>
</a>
</g>
</g>
<!-- Node4 -->
<g id="node2" class="node"><title>Node4</title>
<g id="a_node2"><a xlink:href="../../d1/d24/class_juniper_1_1_threading_1_1_abstract_background_repeating_thread.html" target="_top" xlink:title="Performs an operation in a loop on a background thread.">
<polygon fill="white" stroke="black" points="0,-325.5 0,-448.5 144,-448.5 144,-325.5 0,-325.5"/>
<text text-anchor="start" x="8" y="-436.5" font-family="SegoeUI" font-size="10.00">AbstractBackgroundRepeating</text>
<text text-anchor="middle" x="72" y="-425.5" font-family="SegoeUI" font-size="10.00">Thread</text>
<polyline fill="none" stroke="black" points="0,-418.5 144,-418.5 "/>
<text text-anchor="start" x="8" y="-406.5" font-family="SegoeUI" font-size="10.00">+ Running</text>
<text text-anchor="start" x="8" y="-395.5" font-family="SegoeUI" font-size="10.00">&#45; stopping</text>
<polyline fill="none" stroke="black" points="0,-388.5 144,-388.5 "/>
<text text-anchor="start" x="8" y="-376.5" font-family="SegoeUI" font-size="10.00">+ Stop()</text>
<text text-anchor="start" x="8" y="-365.5" font-family="SegoeUI" font-size="10.00"># Awake()</text>
<text text-anchor="start" x="8" y="-354.5" font-family="SegoeUI" font-size="10.00"># OnBegin()</text>
<text text-anchor="start" x="8" y="-343.5" font-family="SegoeUI" font-size="10.00"># Execute()</text>
<text text-anchor="start" x="8" y="-332.5" font-family="SegoeUI" font-size="10.00"># Loop()</text>
</a>
</g>
</g>
<!-- Node4&#45;&gt;Node3 -->
<g id="edge1" class="edge"><title>Node4&#45;&gt;Node3</title>
<path fill="none" stroke="midnightblue" d="M72,-315.191C72,-306.721 72,-297.855 72,-288.808"/>
<polygon fill="none" stroke="midnightblue" points="68.5001,-315.312 72,-325.312 75.5001,-315.312 68.5001,-315.312"/>
</g>
<!-- Node5 -->
<g id="node3" class="node"><title>Node5</title>
<g id="a_node3"><a xlink:href="../../d6/dae/class_juniper_1_1_threading_1_1_abstract_background_thread.html" target="_top" xlink:title="An abstract class for performing an operation on a background thread.">
<polygon fill="white" stroke="black" points="6,-485.5 6,-608.5 138,-608.5 138,-485.5 6,-485.5"/>
<text text-anchor="middle" x="72" y="-596.5" font-family="SegoeUI" font-size="10.00">AbstractBackgroundThread</text>
<polyline fill="none" stroke="black" points="6,-589.5 138,-589.5 "/>
<text text-anchor="start" x="14" y="-577.5" font-family="SegoeUI" font-size="10.00">+ Running</text>
<text text-anchor="start" x="14" y="-566.5" font-family="SegoeUI" font-size="10.00">&#45; running</text>
<polyline fill="none" stroke="black" points="6,-559.5 138,-559.5 "/>
<text text-anchor="start" x="14" y="-547.5" font-family="SegoeUI" font-size="10.00"># OnError()</text>
<text text-anchor="start" x="14" y="-536.5" font-family="SegoeUI" font-size="10.00"># Awake()</text>
<text text-anchor="start" x="14" y="-525.5" font-family="SegoeUI" font-size="10.00"># Begin()</text>
<text text-anchor="start" x="14" y="-514.5" font-family="SegoeUI" font-size="10.00"># OnBegin()</text>
<text text-anchor="start" x="14" y="-503.5" font-family="SegoeUI" font-size="10.00"># Execute()</text>
<text text-anchor="start" x="14" y="-492.5" font-family="SegoeUI" font-size="10.00">&#45; Run()</text>
</a>
</g>
</g>
<!-- Node5&#45;&gt;Node4 -->
<g id="edge2" class="edge"><title>Node5&#45;&gt;Node4</title>
<path fill="none" stroke="midnightblue" d="M72,-475.116C72,-466.31 72,-457.368 72,-448.734"/>
<polygon fill="none" stroke="midnightblue" points="68.5001,-475.365 72,-485.365 75.5001,-475.365 68.5001,-475.365"/>
</g>
</g>
</svg>
