<?xml version="1.0" encoding="UTF-8" standalone="no"?>
<!DOCTYPE svg PUBLIC "-//W3C//DTD SVG 1.1//EN"
 "http://www.w3.org/Graphics/SVG/1.1/DTD/svg11.dtd">
<!-- Generated by graphviz version 2.38.0 (20140413.2041)
 -->
<!-- Title: Juniper.Mathematics.Matrix3x2Serializable Pages: 1 -->
<svg width="336pt" height="259pt"
 viewBox="0.00 0.00 335.50 259.00" xmlns="http://www.w3.org/2000/svg" xmlns:xlink="http://www.w3.org/1999/xlink">
<g id="graph0" class="graph" transform="scale(1 1) rotate(0) translate(4 255)">
<title>Juniper.Mathematics.Matrix3x2Serializable</title>
<polygon fill="white" stroke="none" points="-4,4 -4,-255 331.5,-255 331.5,4 -4,4"/>
<!-- Node3 -->
<g id="node1" class="node"><title>Node3</title>
<g id="a_node1"><a xlink:title=" ">
<polygon fill="#bfbfbf" stroke="black" points="99,-0.5 99,-145.5 248,-145.5 248,-0.5 99,-0.5"/>
<text text-anchor="start" x="107" y="-133.5" font-family="SegoeUI" font-size="10.00">Juniper.Mathematics.Matrix3x2</text>
<text text-anchor="middle" x="173.5" y="-122.5" font-family="SegoeUI" font-size="10.00">Serializable</text>
<polyline fill="none" stroke="black" points="99,-115.5 248,-115.5 "/>
<text text-anchor="start" x="107" y="-103.5" font-family="SegoeUI" font-size="10.00">+ Values</text>
<polyline fill="none" stroke="black" points="99,-96.5 248,-96.5 "/>
<text text-anchor="start" x="107" y="-84.5" font-family="SegoeUI" font-size="10.00">+ Matrix3x2Serializable()</text>
<text text-anchor="start" x="107" y="-73.5" font-family="SegoeUI" font-size="10.00">+ GetObjectData()</text>
<text text-anchor="start" x="107" y="-62.5" font-family="SegoeUI" font-size="10.00">+ Equals()</text>
<text text-anchor="start" x="107" y="-51.5" font-family="SegoeUI" font-size="10.00">+ Equals()</text>
<text text-anchor="start" x="107" y="-40.5" font-family="SegoeUI" font-size="10.00">+ GetHashCode()</text>
<text text-anchor="start" x="107" y="-29.5" font-family="SegoeUI" font-size="10.00">+ operator==()</text>
<text text-anchor="start" x="107" y="-18.5" font-family="SegoeUI" font-size="10.00">+ operator !=()</text>
<text text-anchor="start" x="107" y="-7.5" font-family="SegoeUI" font-size="10.00">&#45; Matrix3x2Serializable()</text>
</a>
</g>
</g>
<!-- Node4 -->
<g id="node2" class="node"><title>Node4</title>
<g id="a_node2"><a xlink:title=" ">
<polygon fill="white" stroke="#bfbfbf" points="0,-193.5 0,-250.5 69,-250.5 69,-193.5 0,-193.5"/>
<text text-anchor="middle" x="34.5" y="-238.5" font-family="SegoeUI" font-size="10.00">ISerializable</text>
<polyline fill="none" stroke="#bfbfbf" points="0,-231.5 69,-231.5 "/>
<text text-anchor="middle" x="34.5" y="-219.5" font-family="SegoeUI" font-size="10.00"> </text>
<polyline fill="none" stroke="#bfbfbf" points="0,-212.5 69,-212.5 "/>
<text text-anchor="middle" x="34.5" y="-200.5" font-family="SegoeUI" font-size="10.00"> </text>
</a>
</g>
</g>
<!-- Node4&#45;&gt;Node3 -->
<g id="edge1" class="edge"><title>Node4&#45;&gt;Node3</title>
<path fill="none" stroke="midnightblue" d="M67.5715,-186.025C79.1118,-173.821 92.5203,-159.64 105.839,-145.555"/>
<polygon fill="none" stroke="midnightblue" points="64.9723,-183.68 60.6448,-193.35 70.0586,-188.489 64.9723,-183.68"/>
</g>
<!-- Node5 -->
<g id="node3" class="node"><title>Node5</title>
<g id="a_node3"><a xlink:title=" ">
<polygon fill="white" stroke="#bfbfbf" points="87.5,-193.5 87.5,-250.5 259.5,-250.5 259.5,-193.5 87.5,-193.5"/>
<text text-anchor="middle" x="173.5" y="-238.5" font-family="SegoeUI" font-size="10.00">IEquatable&lt; Matrix3x2Serializable &gt;</text>
<polyline fill="none" stroke="#bfbfbf" points="87.5,-231.5 259.5,-231.5 "/>
<text text-anchor="middle" x="173.5" y="-219.5" font-family="SegoeUI" font-size="10.00"> </text>
<polyline fill="none" stroke="#bfbfbf" points="87.5,-212.5 259.5,-212.5 "/>
<text text-anchor="middle" x="173.5" y="-200.5" font-family="SegoeUI" font-size="10.00"> </text>
</a>
</g>
</g>
<!-- Node5&#45;&gt;Node3 -->
<g id="edge2" class="edge"><title>Node5&#45;&gt;Node3</title>
<path fill="none" stroke="midnightblue" d="M173.5,-183.229C173.5,-171.681 173.5,-158.577 173.5,-145.555"/>
<polygon fill="none" stroke="midnightblue" points="170,-183.35 173.5,-193.35 177,-183.35 170,-183.35"/>
</g>
<!-- Node6 -->
<g id="node4" class="node"><title>Node6</title>
<g id="a_node4"><a xlink:title=" ">
<polygon fill="white" stroke="#bfbfbf" points="278,-193.5 278,-250.5 317,-250.5 317,-193.5 278,-193.5"/>
<text text-anchor="middle" x="297.5" y="-238.5" font-family="SegoeUI" font-size="10.00">static</text>
<polyline fill="none" stroke="#bfbfbf" points="278,-231.5 317,-231.5 "/>
<text text-anchor="middle" x="297.5" y="-219.5" font-family="SegoeUI" font-size="10.00"> </text>
<polyline fill="none" stroke="#bfbfbf" points="278,-212.5 317,-212.5 "/>
<text text-anchor="middle" x="297.5" y="-200.5" font-family="SegoeUI" font-size="10.00"> </text>
</a>
</g>
</g>
<!-- Node6&#45;&gt;Node3 -->
<g id="edge3" class="edge"><title>Node6&#45;&gt;Node3</title>
<path fill="none" stroke="#404040" d="M277.852,-197.707C267.862,-185.864 255.061,-170.69 241.872,-155.054"/>
<polygon fill="none" stroke="#404040" points="241.818,-154.989 234.892,-152.982 234.08,-145.817 241.007,-147.824 241.818,-154.989"/>
<text text-anchor="middle" x="292.5" y="-167" font-family="SegoeUI" font-size="10.00"> &#45;VALUES_FIELD</text>
</g>
</g>
</svg>
