<?xml version="1.0" encoding="UTF-8" standalone="no"?>
<!DOCTYPE svg PUBLIC "-//W3C//DTD SVG 1.1//EN"
 "http://www.w3.org/Graphics/SVG/1.1/DTD/svg11.dtd">
<!-- Generated by graphviz version 2.38.0 (20140413.2041)
 -->
<!-- Title: Juniper.LightMapping.LightMapSet Pages: 1 -->
<svg width="283pt" height="215pt"
 viewBox="0.00 0.00 282.50 215.00" xmlns="http://www.w3.org/2000/svg" xmlns:xlink="http://www.w3.org/1999/xlink">
<g id="graph0" class="graph" transform="scale(1 1) rotate(0) translate(4 211)">
<title>Juniper.LightMapping.LightMapSet</title>
<polygon fill="white" stroke="none" points="-4,4 -4,-211 278.5,-211 278.5,4 -4,4"/>
<!-- Node2 -->
<g id="node1" class="node"><title>Node2</title>
<g id="a_node1"><a xlink:title="A set of Directional, Light, and Shadow maps, for being able to switch between light maps at runtime ...">
<polygon fill="#bfbfbf" stroke="black" points="73.5,-0.5 73.5,-101.5 203.5,-101.5 203.5,-0.5 73.5,-0.5"/>
<text text-anchor="start" x="81.5" y="-89.5" font-family="SegoeUI" font-size="10.00">Juniper.LightMapping.Light</text>
<text text-anchor="middle" x="138.5" y="-78.5" font-family="SegoeUI" font-size="10.00">MapSet</text>
<polyline fill="none" stroke="black" points="73.5,-71.5 203.5,-71.5 "/>
<text text-anchor="start" x="81.5" y="-59.5" font-family="SegoeUI" font-size="10.00">+ direction</text>
<text text-anchor="start" x="81.5" y="-48.5" font-family="SegoeUI" font-size="10.00">+ light</text>
<text text-anchor="start" x="81.5" y="-37.5" font-family="SegoeUI" font-size="10.00">+ shadowMask</text>
<text text-anchor="start" x="81.5" y="-26.5" font-family="SegoeUI" font-size="10.00">+ LightMaps</text>
<polyline fill="none" stroke="black" points="73.5,-19.5 203.5,-19.5 "/>
<text text-anchor="start" x="81.5" y="-7.5" font-family="SegoeUI" font-size="10.00">+ Sort()</text>
</a>
</g>
</g>
<!-- Node3 -->
<g id="node2" class="node"><title>Node3</title>
<g id="a_node2"><a xlink:title=" ">
<polygon fill="white" stroke="#bfbfbf" points="0,-149.5 0,-206.5 87,-206.5 87,-149.5 0,-149.5"/>
<text text-anchor="middle" x="43.5" y="-194.5" font-family="SegoeUI" font-size="10.00">ScriptableObject</text>
<polyline fill="none" stroke="#bfbfbf" points="0,-187.5 87,-187.5 "/>
<text text-anchor="middle" x="43.5" y="-175.5" font-family="SegoeUI" font-size="10.00"> </text>
<polyline fill="none" stroke="#bfbfbf" points="0,-168.5 87,-168.5 "/>
<text text-anchor="middle" x="43.5" y="-156.5" font-family="SegoeUI" font-size="10.00"> </text>
</a>
</g>
</g>
<!-- Node3&#45;&gt;Node2 -->
<g id="edge1" class="edge"><title>Node3&#45;&gt;Node2</title>
<path fill="none" stroke="midnightblue" d="M70.7975,-141.082C80.0994,-128.843 90.6717,-114.932 100.651,-101.802"/>
<polygon fill="none" stroke="midnightblue" points="67.8479,-139.179 64.5836,-149.258 73.421,-143.415 67.8479,-139.179"/>
</g>
<!-- Node4 -->
<g id="node3" class="node"><title>Node4</title>
<g id="a_node3"><a xlink:title=" ">
<polygon fill="white" stroke="#bfbfbf" points="105.5,-149.5 105.5,-206.5 171.5,-206.5 171.5,-149.5 105.5,-149.5"/>
<text text-anchor="middle" x="138.5" y="-194.5" font-family="SegoeUI" font-size="10.00">UnityEngine</text>
<polyline fill="none" stroke="#bfbfbf" points="105.5,-187.5 171.5,-187.5 "/>
<text text-anchor="middle" x="138.5" y="-175.5" font-family="SegoeUI" font-size="10.00"> </text>
<polyline fill="none" stroke="#bfbfbf" points="105.5,-168.5 171.5,-168.5 "/>
<text text-anchor="middle" x="138.5" y="-156.5" font-family="SegoeUI" font-size="10.00"> </text>
</a>
</g>
</g>
<!-- Node4&#45;&gt;Node2 -->
<g id="edge2" class="edge"><title>Node4&#45;&gt;Node2</title>
<path fill="none" stroke="#404040" d="M138.5,-149.258C138.5,-138.793 138.5,-126.422 138.5,-114.072"/>
<polygon fill="none" stroke="#404040" points="138.5,-113.802 134.5,-107.802 138.5,-101.802 142.5,-107.802 138.5,-113.802"/>
<text text-anchor="middle" x="175" y="-123" font-family="SegoeUI" font-size="10.00"> +SunOrientation</text>
</g>
<!-- Node5 -->
<g id="node4" class="node"><title>Node5</title>
<g id="a_node4"><a xlink:title=" ">
<polygon fill="white" stroke="#bfbfbf" points="215,-149.5 215,-206.5 254,-206.5 254,-149.5 215,-149.5"/>
<text text-anchor="middle" x="234.5" y="-194.5" font-family="SegoeUI" font-size="10.00">static</text>
<polyline fill="none" stroke="#bfbfbf" points="215,-187.5 254,-187.5 "/>
<text text-anchor="middle" x="234.5" y="-175.5" font-family="SegoeUI" font-size="10.00"> </text>
<polyline fill="none" stroke="#bfbfbf" points="215,-168.5 254,-168.5 "/>
<text text-anchor="middle" x="234.5" y="-156.5" font-family="SegoeUI" font-size="10.00"> </text>
</a>
</g>
</g>
<!-- Node5&#45;&gt;Node2 -->
<g id="edge3" class="edge"><title>Node5&#45;&gt;Node2</title>
<path fill="none" stroke="#404040" d="M226.704,-149.354C223.228,-139.594 218.531,-128.854 212.5,-120 210.407,-116.927 208.149,-113.894 205.769,-110.916"/>
<polygon fill="none" stroke="#404040" points="205.606,-110.726 198.665,-108.77 197.801,-101.611 204.742,-103.567 205.606,-110.726"/>
<text text-anchor="middle" x="246.5" y="-123" font-family="SegoeUI" font-size="10.00"> &#45;COMPARER</text>
</g>
</g>
</svg>
