<?xml version="1.0" encoding="UTF-8" standalone="no"?>
<!DOCTYPE svg PUBLIC "-//W3C//DTD SVG 1.1//EN"
 "http://www.w3.org/Graphics/SVG/1.1/DTD/svg11.dtd">
<!-- Generated by graphviz version 2.38.0 (20140413.2041)
 -->
<!-- Title: Juniper.Video.Video360 Pages: 1 -->
<svg width="680pt" height="1943pt"
 viewBox="0.00 0.00 680.00 1943.00" xmlns="http://www.w3.org/2000/svg" xmlns:xlink="http://www.w3.org/1999/xlink">
<g id="graph0" class="graph" transform="scale(1 1) rotate(0) translate(4 1939)">
<title>Juniper.Video.Video360</title>
<polygon fill="white" stroke="none" points="-4,4 -4,-1939 676,-1939 676,4 -4,4"/>
<!-- Node4 -->
<g id="node1" class="node"><title>Node4</title>
<g id="a_node1"><a xlink:title=" ">
<polygon fill="#bfbfbf" stroke="black" points="234.5,-0.5 234.5,-321.5 351.5,-321.5 351.5,-0.5 234.5,-0.5"/>
<text text-anchor="middle" x="293" y="-309.5" font-family="SegoeUI" font-size="10.00">Juniper.Video.Video360</text>
<polyline fill="none" stroke="black" points="234.5,-302.5 351.5,-302.5 "/>
<text text-anchor="start" x="242.5" y="-290.5" font-family="SegoeUI" font-size="10.00">+ textureFormat</text>
<text text-anchor="start" x="242.5" y="-279.5" font-family="SegoeUI" font-size="10.00">+ tint</text>
<text text-anchor="start" x="242.5" y="-268.5" font-family="SegoeUI" font-size="10.00">+ exposure</text>
<text text-anchor="start" x="242.5" y="-257.5" font-family="SegoeUI" font-size="10.00">+ rotation</text>
<text text-anchor="start" x="242.5" y="-246.5" font-family="SegoeUI" font-size="10.00">+ useMipMap</text>
<text text-anchor="start" x="242.5" y="-235.5" font-family="SegoeUI" font-size="10.00">+ layout</text>
<text text-anchor="start" x="242.5" y="-224.5" font-family="SegoeUI" font-size="10.00">+ imageType</text>
<text text-anchor="start" x="242.5" y="-213.5" font-family="SegoeUI" font-size="10.00">+ mirror180OnBack</text>
<text text-anchor="start" x="242.5" y="-202.5" font-family="SegoeUI" font-size="10.00">+ stereoLayout</text>
<text text-anchor="start" x="242.5" y="-191.5" font-family="SegoeUI" font-size="10.00">+ onLoop</text>
<text text-anchor="start" x="242.5" y="-180.5" font-family="SegoeUI" font-size="10.00">+ Loop</text>
<text text-anchor="start" x="242.5" y="-169.5" font-family="SegoeUI" font-size="10.00">+ secondsToCache</text>
<text text-anchor="start" x="242.5" y="-158.5" font-family="SegoeUI" font-size="10.00">&#45; LAT_LON</text>
<text text-anchor="start" x="242.5" y="-147.5" font-family="SegoeUI" font-size="10.00">&#45; SIDES_6</text>
<text text-anchor="start" x="242.5" y="-136.5" font-family="SegoeUI" font-size="10.00">&#45; width</text>
<text text-anchor="start" x="242.5" y="-125.5" font-family="SegoeUI" font-size="10.00">&#45; height</text>
<text text-anchor="start" x="242.5" y="-114.5" font-family="SegoeUI" font-size="10.00">&#45; player</text>
<text text-anchor="start" x="242.5" y="-103.5" font-family="SegoeUI" font-size="10.00">&#45; audioTracks</text>
<text text-anchor="start" x="242.5" y="-92.5" font-family="SegoeUI" font-size="10.00">&#45; renderTexture</text>
<text text-anchor="start" x="242.5" y="-81.5" font-family="SegoeUI" font-size="10.00">&#45; skyboxMaterial</text>
<polyline fill="none" stroke="black" points="234.5,-74.5 351.5,-74.5 "/>
<text text-anchor="start" x="242.5" y="-62.5" font-family="SegoeUI" font-size="10.00">+ Awake()</text>
<text text-anchor="start" x="242.5" y="-51.5" font-family="SegoeUI" font-size="10.00">+ Load()</text>
<text text-anchor="start" x="242.5" y="-40.5" font-family="SegoeUI" font-size="10.00">+ Play()</text>
<text text-anchor="start" x="242.5" y="-29.5" font-family="SegoeUI" font-size="10.00">+ Update()</text>
<text text-anchor="start" x="242.5" y="-18.5" font-family="SegoeUI" font-size="10.00"># OnLoop()</text>
<text text-anchor="start" x="242.5" y="-7.5" font-family="SegoeUI" font-size="10.00">&#45; CreateAudioTracks()</text>
</a>
</g>
</g>
<!-- Node5 -->
<g id="node2" class="node"><title>Node5</title>
<g id="a_node2"><a xlink:href="../../db/d32/class_juniper_1_1_sub_scene_controller.html" target="_top" xlink:title="SubSceneControllers are used by the MasterSceneController to manage workflow through an application....">
<polygon fill="white" stroke="black" points="83,-369.5 83,-536.5 203,-536.5 203,-369.5 83,-369.5"/>
<text text-anchor="middle" x="143" y="-524.5" font-family="SegoeUI" font-size="10.00">SubSceneController</text>
<polyline fill="none" stroke="black" points="83,-517.5 203,-517.5 "/>
<text text-anchor="start" x="91" y="-505.5" font-family="SegoeUI" font-size="10.00">+ Enterable</text>
<text text-anchor="start" x="91" y="-494.5" font-family="SegoeUI" font-size="10.00">+ Exitable</text>
<text text-anchor="start" x="91" y="-483.5" font-family="SegoeUI" font-size="10.00">+ CurrentSubScenes</text>
<text text-anchor="start" x="91" y="-472.5" font-family="SegoeUI" font-size="10.00"># deactivateOnExit</text>
<text text-anchor="start" x="91" y="-461.5" font-family="SegoeUI" font-size="10.00">&#45; isExitingPreviousScene</text>
<polyline fill="none" stroke="black" points="83,-454.5 203,-454.5 "/>
<text text-anchor="start" x="91" y="-442.5" font-family="SegoeUI" font-size="10.00">+ Awake()</text>
<text text-anchor="start" x="91" y="-431.5" font-family="SegoeUI" font-size="10.00">+ Load()</text>
<text text-anchor="start" x="91" y="-420.5" font-family="SegoeUI" font-size="10.00">+ Enter()</text>
<text text-anchor="start" x="91" y="-409.5" font-family="SegoeUI" font-size="10.00">+ Exit()</text>
<text text-anchor="start" x="91" y="-398.5" font-family="SegoeUI" font-size="10.00">+ Update()</text>
<text text-anchor="start" x="91" y="-387.5" font-family="SegoeUI" font-size="10.00"># OnExited()</text>
<text text-anchor="start" x="91" y="-376.5" font-family="SegoeUI" font-size="10.00">&#45; AllComplete()</text>
</a>
</g>
</g>
<!-- Node5&#45;&gt;Node4 -->
<g id="edge1" class="edge"><title>Node5&#45;&gt;Node4</title>
<path fill="none" stroke="midnightblue" d="M190.464,-360.236C204.444,-333.208 219.906,-303.314 234.493,-275.113"/>
<polygon fill="none" stroke="midnightblue" points="187.269,-358.796 185.783,-369.286 193.486,-362.012 187.269,-358.796"/>
</g>
<!-- Node6 -->
<g id="node3" class="node"><title>Node6</title>
<g id="a_node3"><a xlink:href="../../d9/d7e/class_juniper_1_1_abstract_state_controller.html" target="_top" xlink:title="A subscene is a game object loaded from another scene. The scenes all get loaded at runtime and then ...">
<polygon fill="white" stroke="black" points="0,-964.5 0,-1274.5 116,-1274.5 116,-964.5 0,-964.5"/>
<text text-anchor="middle" x="58" y="-1262.5" font-family="SegoeUI" font-size="10.00">AbstractStateController</text>
<polyline fill="none" stroke="black" points="0,-1255.5 116,-1255.5 "/>
<text text-anchor="start" x="8" y="-1243.5" font-family="SegoeUI" font-size="10.00">+ onEntering</text>
<text text-anchor="start" x="8" y="-1232.5" font-family="SegoeUI" font-size="10.00">+ onEntered</text>
<text text-anchor="start" x="8" y="-1221.5" font-family="SegoeUI" font-size="10.00">+ onExiting</text>
<text text-anchor="start" x="8" y="-1210.5" font-family="SegoeUI" font-size="10.00">+ onExited</text>
<text text-anchor="start" x="8" y="-1199.5" font-family="SegoeUI" font-size="10.00">+ state</text>
<text text-anchor="start" x="8" y="-1188.5" font-family="SegoeUI" font-size="10.00">+ IsComplete</text>
<text text-anchor="start" x="8" y="-1177.5" font-family="SegoeUI" font-size="10.00">+ IsRunning</text>
<text text-anchor="start" x="8" y="-1166.5" font-family="SegoeUI" font-size="10.00">+ IsEntered</text>
<text text-anchor="start" x="8" y="-1155.5" font-family="SegoeUI" font-size="10.00">+ IsExited</text>
<text text-anchor="start" x="8" y="-1144.5" font-family="SegoeUI" font-size="10.00">+ Waiter</text>
<text text-anchor="start" x="8" y="-1133.5" font-family="SegoeUI" font-size="10.00">&#45; lastState</text>
<text text-anchor="start" x="8" y="-1122.5" font-family="SegoeUI" font-size="10.00">&#45; skipEvents</text>
<text text-anchor="start" x="8" y="-1111.5" font-family="SegoeUI" font-size="10.00">&#45; _waiter</text>
<polyline fill="none" stroke="black" points="0,-1104.5 116,-1104.5 "/>
<text text-anchor="start" x="8" y="-1092.5" font-family="SegoeUI" font-size="10.00">+ HasCompleted()</text>
<text text-anchor="start" x="8" y="-1081.5" font-family="SegoeUI" font-size="10.00">+ SkipEnter()</text>
<text text-anchor="start" x="8" y="-1070.5" font-family="SegoeUI" font-size="10.00">+ Enter()</text>
<text text-anchor="start" x="8" y="-1059.5" font-family="SegoeUI" font-size="10.00">+ OnEnable()</text>
<text text-anchor="start" x="8" y="-1048.5" font-family="SegoeUI" font-size="10.00">+ Update()</text>
<text text-anchor="start" x="8" y="-1037.5" font-family="SegoeUI" font-size="10.00">+ SkipExit()</text>
<text text-anchor="start" x="8" y="-1026.5" font-family="SegoeUI" font-size="10.00">+ Exit()</text>
<text text-anchor="start" x="8" y="-1015.5" font-family="SegoeUI" font-size="10.00">+ OnDisable()</text>
<text text-anchor="start" x="8" y="-1004.5" font-family="SegoeUI" font-size="10.00"># OnEntering()</text>
<text text-anchor="start" x="8" y="-993.5" font-family="SegoeUI" font-size="10.00"># OnEntered()</text>
<text text-anchor="start" x="8" y="-982.5" font-family="SegoeUI" font-size="10.00"># OnExiting()</text>
<text text-anchor="start" x="8" y="-971.5" font-family="SegoeUI" font-size="10.00"># OnExited()</text>
</a>
</g>
</g>
<!-- Node6&#45;&gt;Node5 -->
<g id="edge2" class="edge"><title>Node6&#45;&gt;Node5</title>
<path fill="none" stroke="midnightblue" d="M40.1142,-954.107C33.513,-846.802 34.4551,-704.74 68,-584 72.4639,-567.933 79.3834,-551.774 87.2517,-536.574"/>
<polygon fill="none" stroke="midnightblue" points="36.6403,-954.627 40.7757,-964.381 43.6258,-954.177 36.6403,-954.627"/>
</g>
<!-- Node8 -->
<g id="node5" class="node"><title>Node8</title>
<g id="a_node5"><a xlink:href="../../d6/d38/class_juniper_1_1_animation_1_1_abstract_transition_controller.html" target="_top" xlink:title="Child classes of this class are able to animate transitions between program states.">
<polygon fill="white" stroke="black" points="77.5,-584.5 77.5,-839.5 208.5,-839.5 208.5,-584.5 77.5,-584.5"/>
<text text-anchor="start" x="85.5" y="-827.5" font-family="SegoeUI" font-size="10.00">Juniper.Animation.Abstract</text>
<text text-anchor="middle" x="143" y="-816.5" font-family="SegoeUI" font-size="10.00">TransitionController</text>
<polyline fill="none" stroke="black" points="77.5,-809.5 208.5,-809.5 "/>
<text text-anchor="start" x="85.5" y="-797.5" font-family="SegoeUI" font-size="10.00">+ attackTime</text>
<text text-anchor="start" x="85.5" y="-786.5" font-family="SegoeUI" font-size="10.00">+ releaseTime</text>
<text text-anchor="start" x="85.5" y="-775.5" font-family="SegoeUI" font-size="10.00">+ onValueChanged</text>
<text text-anchor="start" x="85.5" y="-764.5" font-family="SegoeUI" font-size="10.00">+ tween</text>
<text text-anchor="start" x="85.5" y="-753.5" font-family="SegoeUI" font-size="10.00">+ tweenK</text>
<text text-anchor="start" x="85.5" y="-742.5" font-family="SegoeUI" font-size="10.00">+ TransitionLength</text>
<text text-anchor="start" x="85.5" y="-731.5" font-family="SegoeUI" font-size="10.00">&#45; tweenFunc</text>
<text text-anchor="start" x="85.5" y="-720.5" font-family="SegoeUI" font-size="10.00">&#45; attack</text>
<text text-anchor="start" x="85.5" y="-709.5" font-family="SegoeUI" font-size="10.00">&#45; release</text>
<text text-anchor="start" x="85.5" y="-698.5" font-family="SegoeUI" font-size="10.00">&#45; progress</text>
<text text-anchor="start" x="85.5" y="-687.5" font-family="SegoeUI" font-size="10.00">&#45; tweenedValue</text>
<polyline fill="none" stroke="black" points="77.5,-680.5 208.5,-680.5 "/>
<text text-anchor="start" x="85.5" y="-668.5" font-family="SegoeUI" font-size="10.00">+ Enter()</text>
<text text-anchor="start" x="85.5" y="-657.5" font-family="SegoeUI" font-size="10.00">+ SkipEnter()</text>
<text text-anchor="start" x="85.5" y="-646.5" font-family="SegoeUI" font-size="10.00">+ Exit()</text>
<text text-anchor="start" x="85.5" y="-635.5" font-family="SegoeUI" font-size="10.00">+ Update()</text>
<text text-anchor="start" x="85.5" y="-624.5" font-family="SegoeUI" font-size="10.00"># RenderValue()</text>
<text text-anchor="start" x="85.5" y="-613.5" font-family="SegoeUI" font-size="10.00">&#45; OnValueChanged()</text>
<text text-anchor="start" x="85.5" y="-602.5" font-family="SegoeUI" font-size="10.00">&#45; SetProgress()</text>
<text text-anchor="start" x="85.5" y="-591.5" font-family="SegoeUI" font-size="10.00">&#45; StartTransition()</text>
</a>
</g>
</g>
<!-- Node6&#45;&gt;Node8 -->
<g id="edge5" class="edge"><title>Node6&#45;&gt;Node8</title>
<path fill="none" stroke="midnightblue" d="M92.4534,-954.137C100.462,-915.931 108.867,-875.836 116.472,-839.552"/>
<polygon fill="none" stroke="midnightblue" points="88.9428,-953.825 90.3167,-964.33 95.7939,-955.261 88.9428,-953.825"/>
</g>
<!-- Node7 -->
<g id="node4" class="node"><title>Node7</title>
<g id="a_node4"><a xlink:title=" ">
<polygon fill="white" stroke="#bfbfbf" points="17,-1542.5 17,-1599.5 99,-1599.5 99,-1542.5 17,-1542.5"/>
<text text-anchor="middle" x="58" y="-1587.5" font-family="SegoeUI" font-size="10.00">MonoBehaviour</text>
<polyline fill="none" stroke="#bfbfbf" points="17,-1580.5 99,-1580.5 "/>
<text text-anchor="middle" x="58" y="-1568.5" font-family="SegoeUI" font-size="10.00"> </text>
<polyline fill="none" stroke="#bfbfbf" points="17,-1561.5 99,-1561.5 "/>
<text text-anchor="middle" x="58" y="-1549.5" font-family="SegoeUI" font-size="10.00"> </text>
</a>
</g>
</g>
<!-- Node7&#45;&gt;Node6 -->
<g id="edge3" class="edge"><title>Node7&#45;&gt;Node6</title>
<path fill="none" stroke="midnightblue" d="M58,-1531.98C58,-1475.53 58,-1366.35 58,-1274.63"/>
<polygon fill="none" stroke="midnightblue" points="54.5001,-1532.22 58,-1542.22 61.5001,-1532.22 54.5001,-1532.22"/>
</g>
<!-- Node11 -->
<g id="node8" class="node"><title>Node11</title>
<g id="a_node8"><a xlink:href="../../d1/d43/class_juniper_1_1_audio_1_1_abstract_interaction_audio.html" target="_top" xlink:title="The audio portion of the interaction system.">
<polygon fill="white" stroke="black" points="227,-887.5 227,-1351.5 359,-1351.5 359,-887.5 227,-887.5"/>
<text text-anchor="middle" x="293" y="-1339.5" font-family="SegoeUI" font-size="10.00">AbstractInteractionAudio</text>
<polyline fill="none" stroke="black" points="227,-1332.5 359,-1332.5 "/>
<text text-anchor="start" x="235" y="-1320.5" font-family="SegoeUI" font-size="10.00">+ defaultMixerGroup</text>
<text text-anchor="start" x="235" y="-1309.5" font-family="SegoeUI" font-size="10.00">+ volumeSlider</text>
<text text-anchor="start" x="235" y="-1298.5" font-family="SegoeUI" font-size="10.00">+ soundOnOpened</text>
<text text-anchor="start" x="235" y="-1287.5" font-family="SegoeUI" font-size="10.00">+ soundOnStartUp</text>
<text text-anchor="start" x="235" y="-1276.5" font-family="SegoeUI" font-size="10.00">+ soundOnShutDown</text>
<text text-anchor="start" x="235" y="-1265.5" font-family="SegoeUI" font-size="10.00">+ DefaultAudioMixer</text>
<text text-anchor="start" x="235" y="-1254.5" font-family="SegoeUI" font-size="10.00">+ Volume</text>
<text text-anchor="start" x="235" y="-1243.5" font-family="SegoeUI" font-size="10.00"># listener</text>
<text text-anchor="start" x="235" y="-1232.5" font-family="SegoeUI" font-size="10.00">&#45; MASTER_VOLUME_KEY</text>
<text text-anchor="start" x="235" y="-1221.5" font-family="SegoeUI" font-size="10.00">&#45; audioSources</text>
<text text-anchor="start" x="235" y="-1210.5" font-family="SegoeUI" font-size="10.00">&#45; camT</text>
<text text-anchor="start" x="235" y="-1199.5" font-family="SegoeUI" font-size="10.00">&#45; E</text>
<polyline fill="none" stroke="black" points="227,-1192.5 359,-1192.5 "/>
<text text-anchor="start" x="235" y="-1180.5" font-family="SegoeUI" font-size="10.00">+ Spatialize()</text>
<text text-anchor="start" x="235" y="-1169.5" font-family="SegoeUI" font-size="10.00">+ Spatialize()</text>
<text text-anchor="start" x="235" y="-1158.5" font-family="SegoeUI" font-size="10.00">+ Spatialize()</text>
<text text-anchor="start" x="235" y="-1147.5" font-family="SegoeUI" font-size="10.00">+ Spatialize()</text>
<text text-anchor="start" x="235" y="-1136.5" font-family="SegoeUI" font-size="10.00">+ Install()</text>
<text text-anchor="start" x="235" y="-1125.5" font-family="SegoeUI" font-size="10.00">+ Reinstall()</text>
<text text-anchor="start" x="235" y="-1114.5" font-family="SegoeUI" font-size="10.00">+ Uninstall()</text>
<text text-anchor="start" x="235" y="-1103.5" font-family="SegoeUI" font-size="10.00">+ Awake()</text>
<text text-anchor="start" x="235" y="-1092.5" font-family="SegoeUI" font-size="10.00">+ Start()</text>
<text text-anchor="start" x="235" y="-1081.5" font-family="SegoeUI" font-size="10.00">+ OnValidate()</text>
<text text-anchor="start" x="235" y="-1070.5" font-family="SegoeUI" font-size="10.00">+ GetHapticExpressions()</text>
<text text-anchor="start" x="235" y="-1059.5" font-family="SegoeUI" font-size="10.00">+ Play()</text>
<text text-anchor="start" x="235" y="-1048.5" font-family="SegoeUI" font-size="10.00">+ Play()</text>
<text text-anchor="start" x="235" y="-1037.5" font-family="SegoeUI" font-size="10.00">+ Play()</text>
<text text-anchor="start" x="235" y="-1026.5" font-family="SegoeUI" font-size="10.00">+ Play()</text>
<text text-anchor="start" x="235" y="-1015.5" font-family="SegoeUI" font-size="10.00"># InternalSpatialize()</text>
<text text-anchor="start" x="235" y="-1004.5" font-family="SegoeUI" font-size="10.00">&#45; Volume_ValueChange()</text>
<text text-anchor="start" x="235" y="-993.5" font-family="SegoeUI" font-size="10.00">&#45; GetClipCollection()</text>
<text text-anchor="start" x="235" y="-982.5" font-family="SegoeUI" font-size="10.00">&#45; Wait()</text>
<text text-anchor="start" x="235" y="-971.5" font-family="SegoeUI" font-size="10.00">&#45; Play_Internal()</text>
<text text-anchor="start" x="235" y="-960.5" font-family="SegoeUI" font-size="10.00">&#45; Play_Internal()</text>
<text text-anchor="start" x="235" y="-949.5" font-family="SegoeUI" font-size="10.00">&#45; Play_Internal()</text>
<text text-anchor="start" x="235" y="-938.5" font-family="SegoeUI" font-size="10.00">&#45; Play_Internal()</text>
<text text-anchor="start" x="235" y="-927.5" font-family="SegoeUI" font-size="10.00">&#45; PlayHaptics()</text>
<text text-anchor="start" x="235" y="-916.5" font-family="SegoeUI" font-size="10.00">&#45; PlayClip()</text>
<text text-anchor="start" x="235" y="-905.5" font-family="SegoeUI" font-size="10.00">&#45; GetAudioSource()</text>
<text text-anchor="start" x="235" y="-894.5" font-family="SegoeUI" font-size="10.00">&#45; CreateNewAudioSource()</text>
</a>
</g>
</g>
<!-- Node7&#45;&gt;Node11 -->
<g id="edge9" class="edge"><title>Node7&#45;&gt;Node11</title>
<path fill="none" stroke="midnightblue" d="M77.2201,-1533.24C109.526,-1471.44 176.153,-1344 226.875,-1246.98"/>
<polygon fill="none" stroke="midnightblue" points="74.0544,-1531.74 72.523,-1542.22 80.2578,-1534.98 74.0544,-1531.74"/>
</g>
<!-- Node8&#45;&gt;Node5 -->
<g id="edge4" class="edge"><title>Node8&#45;&gt;Node5</title>
<path fill="none" stroke="#404040" d="M143,-584.382C143,-572.472 143,-560.541 143,-548.997"/>
<polygon fill="none" stroke="#404040" points="143,-548.642 139,-542.643 143,-536.642 147,-542.642 143,-548.642"/>
<text text-anchor="middle" x="180" y="-558" font-family="SegoeUI" font-size="10.00"> &#45;childTransitions</text>
</g>
<!-- Node9 -->
<g id="node6" class="node"><title>Node9</title>
<g id="a_node6"><a xlink:href="../../d6/d01/class_juniper_1_1_audio_1_1_interaction_audio.html" target="_top" xlink:title="The audio portion of the interaction system.">
<polygon fill="white" stroke="black" points="231.5,-419 231.5,-487 354.5,-487 354.5,-419 231.5,-419"/>
<text text-anchor="start" x="239.5" y="-475" font-family="SegoeUI" font-size="10.00">Juniper.Audio.Interaction</text>
<text text-anchor="middle" x="293" y="-464" font-family="SegoeUI" font-size="10.00">Audio</text>
<polyline fill="none" stroke="black" points="231.5,-457 354.5,-457 "/>
<text text-anchor="middle" x="293" y="-445" font-family="SegoeUI" font-size="10.00"> </text>
<polyline fill="none" stroke="black" points="231.5,-438 354.5,-438 "/>
<text text-anchor="middle" x="293" y="-426" font-family="SegoeUI" font-size="10.00"> </text>
</a>
</g>
</g>
<!-- Node9&#45;&gt;Node4 -->
<g id="edge6" class="edge"><title>Node9&#45;&gt;Node4</title>
<path fill="none" stroke="#404040" d="M293,-418.733C293,-396.804 293,-366.223 293,-333.789"/>
<polygon fill="none" stroke="#404040" points="293,-333.769 289,-327.769 293,-321.769 297,-327.769 293,-333.769"/>
<text text-anchor="middle" x="319" y="-343" font-family="SegoeUI" font-size="10.00"> &#45;interaction</text>
</g>
<!-- Node10 -->
<g id="node7" class="node"><title>Node10</title>
<g id="a_node7"><a xlink:href="../../d6/dce/class_juniper_1_1_audio_1_1_resonance_interaction_audio.html" target="_top" xlink:title=" ">
<polygon fill="white" stroke="black" points="226.5,-661.5 226.5,-762.5 359.5,-762.5 359.5,-661.5 226.5,-661.5"/>
<text text-anchor="middle" x="293" y="-750.5" font-family="SegoeUI" font-size="10.00">ResonanceInteractionAudio</text>
<polyline fill="none" stroke="black" points="226.5,-743.5 359.5,-743.5 "/>
<text text-anchor="start" x="234.5" y="-731.5" font-family="SegoeUI" font-size="10.00">+ DefaultAudioMixer</text>
<text text-anchor="start" x="234.5" y="-720.5" font-family="SegoeUI" font-size="10.00"># resListener</text>
<polyline fill="none" stroke="black" points="226.5,-713.5 359.5,-713.5 "/>
<text text-anchor="start" x="234.5" y="-701.5" font-family="SegoeUI" font-size="10.00">+ Install()</text>
<text text-anchor="start" x="234.5" y="-690.5" font-family="SegoeUI" font-size="10.00">+ Uninstall()</text>
<text text-anchor="start" x="234.5" y="-679.5" font-family="SegoeUI" font-size="10.00"># InternalSpatialize()</text>
<text text-anchor="start" x="234.5" y="-668.5" font-family="SegoeUI" font-size="10.00">&#45; OnDisplayTypeChange()</text>
</a>
</g>
</g>
<!-- Node10&#45;&gt;Node9 -->
<g id="edge7" class="edge"><title>Node10&#45;&gt;Node9</title>
<path fill="none" stroke="midnightblue" d="M293,-651.195C293,-600.091 293,-528.456 293,-487.072"/>
<polygon fill="none" stroke="midnightblue" points="289.5,-651.448 293,-661.448 296.5,-651.448 289.5,-651.448"/>
</g>
<!-- Node11&#45;&gt;Node10 -->
<g id="edge8" class="edge"><title>Node11&#45;&gt;Node10</title>
<path fill="none" stroke="midnightblue" d="M293,-877.14C293,-833.745 293,-792.8 293,-762.659"/>
<polygon fill="none" stroke="midnightblue" points="289.5,-877.322 293,-887.322 296.5,-877.322 289.5,-877.322"/>
</g>
<!-- Node12 -->
<g id="node9" class="node"><title>Node12</title>
<g id="a_node9"><a xlink:href="../../db/d28/interface_juniper_1_1_i_installable.html" target="_top" xlink:title="Defines an interface for objects that can be installed and have their installation progress tracked.">
<polygon fill="white" stroke="black" points="117.5,-1531.5 117.5,-1610.5 186.5,-1610.5 186.5,-1531.5 117.5,-1531.5"/>
<text text-anchor="middle" x="152" y="-1598.5" font-family="SegoeUI" font-size="10.00">IInstallable</text>
<polyline fill="none" stroke="black" points="117.5,-1591.5 186.5,-1591.5 "/>
<text text-anchor="middle" x="152" y="-1579.5" font-family="SegoeUI" font-size="10.00"> </text>
<polyline fill="none" stroke="black" points="117.5,-1572.5 186.5,-1572.5 "/>
<text text-anchor="start" x="125.5" y="-1560.5" font-family="SegoeUI" font-size="10.00">+ Install()</text>
<text text-anchor="start" x="125.5" y="-1549.5" font-family="SegoeUI" font-size="10.00">+ Reinstall()</text>
<text text-anchor="start" x="125.5" y="-1538.5" font-family="SegoeUI" font-size="10.00">+ Uninstall()</text>
</a>
</g>
</g>
<!-- Node12&#45;&gt;Node11 -->
<g id="edge10" class="edge"><title>Node12&#45;&gt;Node11</title>
<path fill="none" stroke="midnightblue" d="M167.201,-1521.54C181.722,-1475.25 204.643,-1402.18 226.964,-1331.02"/>
<polygon fill="none" stroke="midnightblue" points="163.797,-1520.7 164.144,-1531.29 170.476,-1522.79 163.797,-1520.7"/>
</g>
<!-- Node13 -->
<g id="node10" class="node"><title>Node13</title>
<g id="a_node10"><a xlink:href="../../db/de2/class_juniper_1_1_audio_1_1_audio_clip_collection.html" target="_top" xlink:title="A collection of related audio clips. For example, one might have many different gunshot sounds to hav...">
<polygon fill="white" stroke="black" points="205,-1509.5 205,-1632.5 363,-1632.5 363,-1509.5 205,-1509.5"/>
<text text-anchor="middle" x="284" y="-1620.5" font-family="SegoeUI" font-size="10.00">Juniper.Audio.AudioClipCollection</text>
<polyline fill="none" stroke="black" points="205,-1613.5 363,-1613.5 "/>
<text text-anchor="start" x="213" y="-1601.5" font-family="SegoeUI" font-size="10.00">+ randomizePitch</text>
<text text-anchor="start" x="213" y="-1590.5" font-family="SegoeUI" font-size="10.00">+ clips</text>
<text text-anchor="start" x="213" y="-1579.5" font-family="SegoeUI" font-size="10.00">+ Length</text>
<text text-anchor="start" x="213" y="-1568.5" font-family="SegoeUI" font-size="10.00">+ RandomizeClipPitch</text>
<text text-anchor="start" x="213" y="-1557.5" font-family="SegoeUI" font-size="10.00">+ this[int index]</text>
<polyline fill="none" stroke="black" points="205,-1550.5 363,-1550.5 "/>
<text text-anchor="start" x="213" y="-1538.5" font-family="SegoeUI" font-size="10.00">+ Random()</text>
<text text-anchor="start" x="213" y="-1527.5" font-family="SegoeUI" font-size="10.00">+ GetEnumerator()</text>
<text text-anchor="start" x="213" y="-1516.5" font-family="SegoeUI" font-size="10.00">&#45; GetEnumerator()</text>
</a>
</g>
</g>
<!-- Node13&#45;&gt;Node11 -->
<g id="edge11" class="edge"><title>Node13&#45;&gt;Node11</title>
<path fill="none" stroke="#404040" d="M285.214,-1509.38C285.985,-1470.84 287.041,-1418.13 288.125,-1363.97"/>
<polygon fill="none" stroke="#404040" points="288.131,-1363.66 284.252,-1357.58 288.372,-1351.66 292.251,-1357.74 288.131,-1363.66"/>
<text text-anchor="middle" x="329.5" y="-1483" font-family="SegoeUI" font-size="10.00"> +soundOnSuccess</text>
<text text-anchor="middle" x="329.5" y="-1472" font-family="SegoeUI" font-size="10.00">+soundOnDragged</text>
<text text-anchor="middle" x="329.5" y="-1461" font-family="SegoeUI" font-size="10.00">+soundOnDisabled</text>
<text text-anchor="middle" x="329.5" y="-1450" font-family="SegoeUI" font-size="10.00">+soundOnScrolled</text>
<text text-anchor="middle" x="329.5" y="-1439" font-family="SegoeUI" font-size="10.00">+soundOnEntered</text>
<text text-anchor="middle" x="329.5" y="-1428" font-family="SegoeUI" font-size="10.00">+soundOnExited</text>
<text text-anchor="middle" x="329.5" y="-1417" font-family="SegoeUI" font-size="10.00">+soundOnReleased</text>
<text text-anchor="middle" x="329.5" y="-1406" font-family="SegoeUI" font-size="10.00">+soundOnSelected</text>
<text text-anchor="middle" x="329.5" y="-1395" font-family="SegoeUI" font-size="10.00">+soundOnError</text>
<text text-anchor="middle" x="329.5" y="-1384" font-family="SegoeUI" font-size="10.00">+soundOnClosed</text>
<text text-anchor="middle" x="329.5" y="-1373" font-family="SegoeUI" font-size="10.00">...</text>
</g>
<!-- Node14 -->
<g id="node11" class="node"><title>Node14</title>
<g id="a_node11"><a xlink:title=" ">
<polygon fill="white" stroke="#bfbfbf" points="156.5,-1771.5 156.5,-1828.5 243.5,-1828.5 243.5,-1771.5 156.5,-1771.5"/>
<text text-anchor="middle" x="200" y="-1816.5" font-family="SegoeUI" font-size="10.00">ScriptableObject</text>
<polyline fill="none" stroke="#bfbfbf" points="156.5,-1809.5 243.5,-1809.5 "/>
<text text-anchor="middle" x="200" y="-1797.5" font-family="SegoeUI" font-size="10.00"> </text>
<polyline fill="none" stroke="#bfbfbf" points="156.5,-1790.5 243.5,-1790.5 "/>
<text text-anchor="middle" x="200" y="-1778.5" font-family="SegoeUI" font-size="10.00"> </text>
</a>
</g>
</g>
<!-- Node14&#45;&gt;Node13 -->
<g id="edge12" class="edge"><title>Node14&#45;&gt;Node13</title>
<path fill="none" stroke="midnightblue" d="M213.925,-1761.37C226.845,-1726.45 246.304,-1673.87 261.441,-1632.96"/>
<polygon fill="none" stroke="midnightblue" points="210.488,-1760.57 210.3,-1771.17 217.053,-1763 210.488,-1760.57"/>
</g>
<!-- Node15 -->
<g id="node12" class="node"><title>Node15</title>
<g id="a_node12"><a xlink:href="../../d4/d37/interface_juniper_1_1_audio_1_1_i_audio_clip_collection.html" target="_top" xlink:title="The IAudioClipCollection interface is implemented by two classes. One is a savable collection of audi...">
<polygon fill="white" stroke="black" points="261.5,-1760.5 261.5,-1839.5 370.5,-1839.5 370.5,-1760.5 261.5,-1760.5"/>
<text text-anchor="middle" x="316" y="-1827.5" font-family="SegoeUI" font-size="10.00">IAudioClipCollection</text>
<polyline fill="none" stroke="black" points="261.5,-1820.5 370.5,-1820.5 "/>
<text text-anchor="start" x="269.5" y="-1808.5" font-family="SegoeUI" font-size="10.00">+ Length</text>
<text text-anchor="start" x="269.5" y="-1797.5" font-family="SegoeUI" font-size="10.00">+ RandomizeClipPitch</text>
<text text-anchor="start" x="269.5" y="-1786.5" font-family="SegoeUI" font-size="10.00">+ this[int index]</text>
<polyline fill="none" stroke="black" points="261.5,-1779.5 370.5,-1779.5 "/>
<text text-anchor="start" x="269.5" y="-1767.5" font-family="SegoeUI" font-size="10.00">+ Random()</text>
</a>
</g>
</g>
<!-- Node15&#45;&gt;Node13 -->
<g id="edge13" class="edge"><title>Node15&#45;&gt;Node13</title>
<path fill="none" stroke="midnightblue" d="M309.122,-1750.21C304.264,-1715.75 297.723,-1669.35 292.533,-1632.53"/>
<polygon fill="none" stroke="midnightblue" points="305.71,-1751.08 310.572,-1760.49 312.641,-1750.1 305.71,-1751.08"/>
</g>
<!-- Node16 -->
<g id="node13" class="node"><title>Node16</title>
<g id="a_node13"><a xlink:title=" ">
<polygon fill="white" stroke="#bfbfbf" points="307,-1877.5 307,-1934.5 437,-1934.5 437,-1877.5 307,-1877.5"/>
<text text-anchor="middle" x="372" y="-1922.5" font-family="SegoeUI" font-size="10.00">IEnumerable&lt; AudioClip &gt;</text>
<polyline fill="none" stroke="#bfbfbf" points="307,-1915.5 437,-1915.5 "/>
<text text-anchor="middle" x="372" y="-1903.5" font-family="SegoeUI" font-size="10.00"> </text>
<polyline fill="none" stroke="#bfbfbf" points="307,-1896.5 437,-1896.5 "/>
<text text-anchor="middle" x="372" y="-1884.5" font-family="SegoeUI" font-size="10.00"> </text>
</a>
</g>
</g>
<!-- Node16&#45;&gt;Node15 -->
<g id="edge14" class="edge"><title>Node16&#45;&gt;Node15</title>
<path fill="none" stroke="midnightblue" d="M352.291,-1868.4C347.286,-1859.1 341.892,-1849.08 336.832,-1839.69"/>
<polygon fill="none" stroke="midnightblue" points="349.317,-1870.26 357.14,-1877.4 355.481,-1866.94 349.317,-1870.26"/>
</g>
<!-- Node17 -->
<g id="node14" class="node"><title>Node17</title>
<g id="a_node14"><a xlink:href="../../d4/d37/interface_juniper_1_1_audio_1_1_i_audio_clip_collection.html" target="_top" xlink:title="The IAudioClipCollection interface is implemented by two classes. One is a savable collection of audi...">
<polygon fill="white" stroke="black" points="339,-1651.5 339,-1741.5 459,-1741.5 459,-1651.5 339,-1651.5"/>
<text text-anchor="start" x="347" y="-1729.5" font-family="SegoeUI" font-size="10.00">Juniper.Audio.IAudioClip</text>
<text text-anchor="middle" x="399" y="-1718.5" font-family="SegoeUI" font-size="10.00">Collection</text>
<polyline fill="none" stroke="black" points="339,-1711.5 459,-1711.5 "/>
<text text-anchor="start" x="347" y="-1699.5" font-family="SegoeUI" font-size="10.00">+ Length</text>
<text text-anchor="start" x="347" y="-1688.5" font-family="SegoeUI" font-size="10.00">+ RandomizeClipPitch</text>
<text text-anchor="start" x="347" y="-1677.5" font-family="SegoeUI" font-size="10.00">+ this[int index]</text>
<polyline fill="none" stroke="black" points="339,-1670.5 459,-1670.5 "/>
<text text-anchor="start" x="347" y="-1658.5" font-family="SegoeUI" font-size="10.00">+ Random()</text>
</a>
</g>
</g>
<!-- Node16&#45;&gt;Node17 -->
<g id="edge16" class="edge"><title>Node16&#45;&gt;Node17</title>
<path fill="none" stroke="midnightblue" d="M376.934,-1867.08C381.528,-1831.77 388.377,-1779.14 393.224,-1741.89"/>
<polygon fill="none" stroke="midnightblue" points="373.405,-1867.08 375.585,-1877.45 380.347,-1867.98 373.405,-1867.08"/>
</g>
<!-- Node17&#45;&gt;Node11 -->
<g id="edge15" class="edge"><title>Node17&#45;&gt;Node11</title>
<path fill="none" stroke="#404040" d="M399.137,-1651.35C398.569,-1588.32 394.655,-1469.22 375,-1370 371.511,-1352.39 367.156,-1334.29 362.283,-1316.28"/>
<polygon fill="none" stroke="#404040" points="362.212,-1316.02 356.756,-1311.31 359.01,-1304.46 364.466,-1309.17 362.212,-1316.02"/>
<text text-anchor="middle" x="422" y="-1574" font-family="SegoeUI" font-size="10.00"> &#45;startUp</text>
<text text-anchor="middle" x="422" y="-1563" font-family="SegoeUI" font-size="10.00">&#45;shutDown</text>
</g>
<!-- Node18 -->
<g id="node15" class="node"><title>Node18</title>
<g id="a_node15"><a xlink:href="../../d0/d32/interface_juniper_1_1_widgets_1_1_i_valued_control.html" target="_top" xlink:title=" ">
<polygon fill="white" stroke="black" points="463.5,-1537 463.5,-1605 614.5,-1605 614.5,-1537 463.5,-1537"/>
<text text-anchor="start" x="471.5" y="-1593" font-family="SegoeUI" font-size="10.00">Juniper.Widgets.IValuedControl</text>
<text text-anchor="middle" x="539" y="-1582" font-family="SegoeUI" font-size="10.00">&lt; float &gt;</text>
<polyline fill="none" stroke="black" points="463.5,-1575 614.5,-1575 "/>
<text text-anchor="start" x="471.5" y="-1563" font-family="SegoeUI" font-size="10.00">+ value</text>
<polyline fill="none" stroke="black" points="463.5,-1556 614.5,-1556 "/>
<text text-anchor="middle" x="539" y="-1544" font-family="SegoeUI" font-size="10.00"> </text>
</a>
</g>
</g>
<!-- Node18&#45;&gt;Node11 -->
<g id="edge17" class="edge"><title>Node18&#45;&gt;Node11</title>
<path fill="none" stroke="#404040" d="M524.423,-1536.74C504.351,-1493.93 464.734,-1419.22 413,-1370 401.178,-1358.75 391.647,-1364.37 381,-1352 375.628,-1345.76 370.567,-1339.16 365.802,-1332.29"/>
<polygon fill="none" stroke="#404040" points="365.641,-1332.04 358.997,-1329.24 359.028,-1322.03 365.673,-1324.83 365.641,-1332.04"/>
<text text-anchor="middle" x="519" y="-1428" font-family="SegoeUI" font-size="10.00"> &#45;volume</text>
</g>
<!-- Node19 -->
<g id="node16" class="node"><title>Node19</title>
<g id="a_node16"><a xlink:href="../../d0/d32/interface_juniper_1_1_widgets_1_1_i_valued_control.html" target="_top" xlink:title=" ">
<polygon fill="white" stroke="black" points="451,-1771.5 451,-1828.5 627,-1828.5 627,-1771.5 451,-1771.5"/>
<text text-anchor="middle" x="539" y="-1816.5" font-family="SegoeUI" font-size="10.00">Juniper.Widgets.IValuedControl&lt; T &gt;</text>
<polyline fill="none" stroke="black" points="451,-1809.5 627,-1809.5 "/>
<text text-anchor="start" x="459" y="-1797.5" font-family="SegoeUI" font-size="10.00">+ value</text>
<polyline fill="none" stroke="black" points="451,-1790.5 627,-1790.5 "/>
<text text-anchor="middle" x="539" y="-1778.5" font-family="SegoeUI" font-size="10.00"> </text>
</a>
</g>
</g>
<!-- Node19&#45;&gt;Node18 -->
<g id="edge18" class="edge"><title>Node19&#45;&gt;Node18</title>
<path fill="none" stroke="orange" d="M539,-1760.97C539,-1717.39 539,-1646.67 539,-1605.22"/>
<polygon fill="orange" stroke="orange" points="535.5,-1761.17 539,-1771.17 542.5,-1761.17 535.5,-1761.17"/>
<text text-anchor="middle" x="560" y="-1694" font-family="SegoeUI" font-size="10.00"> &lt; float &gt;</text>
</g>
<!-- Node20 -->
<g id="node17" class="node"><title>Node20</title>
<g id="a_node17"><a xlink:title=" ">
<polygon fill="white" stroke="#bfbfbf" points="632.5,-1542.5 632.5,-1599.5 671.5,-1599.5 671.5,-1542.5 632.5,-1542.5"/>
<text text-anchor="middle" x="652" y="-1587.5" font-family="SegoeUI" font-size="10.00">static</text>
<polyline fill="none" stroke="#bfbfbf" points="632.5,-1580.5 671.5,-1580.5 "/>
<text text-anchor="middle" x="652" y="-1568.5" font-family="SegoeUI" font-size="10.00"> </text>
<polyline fill="none" stroke="#bfbfbf" points="632.5,-1561.5 671.5,-1561.5 "/>
<text text-anchor="middle" x="652" y="-1549.5" font-family="SegoeUI" font-size="10.00"> </text>
</a>
</g>
</g>
<!-- Node20&#45;&gt;Node11 -->
<g id="edge19" class="edge"><title>Node20&#45;&gt;Node11</title>
<path fill="none" stroke="#404040" d="M645.678,-1542.34C633.845,-1497.58 603.764,-1410.22 542,-1370 481.665,-1330.71 437.905,-1396.11 381,-1352 376.258,-1348.32 371.772,-1344.36 367.528,-1340.15"/>
<polygon fill="none" stroke="#404040" points="367.343,-1339.96 360.324,-1338.3 359.151,-1331.19 366.17,-1332.84 367.343,-1339.96"/>
<text text-anchor="middle" x="650.5" y="-1428" font-family="SegoeUI" font-size="10.00"> &#45;instance</text>
</g>
<!-- Node21 -->
<g id="node18" class="node"><title>Node21</title>
<g id="a_node18"><a xlink:href="../../d7/df9/class_juniper_1_1_video_1_1_streamable_video_clip.html" target="_top" xlink:title=" ">
<polygon fill="white" stroke="black" points="376.5,-419 376.5,-487 503.5,-487 503.5,-419 376.5,-419"/>
<text text-anchor="start" x="384.5" y="-475" font-family="SegoeUI" font-size="10.00">Juniper.Video.Streamable</text>
<text text-anchor="middle" x="440" y="-464" font-family="SegoeUI" font-size="10.00">VideoClip</text>
<polyline fill="none" stroke="black" points="376.5,-457 503.5,-457 "/>
<text text-anchor="middle" x="440" y="-445" font-family="SegoeUI" font-size="10.00"> </text>
<polyline fill="none" stroke="black" points="376.5,-438 503.5,-438 "/>
<text text-anchor="middle" x="440" y="-426" font-family="SegoeUI" font-size="10.00"> </text>
</a>
</g>
</g>
<!-- Node21&#45;&gt;Node4 -->
<g id="edge20" class="edge"><title>Node21&#45;&gt;Node4</title>
<path fill="none" stroke="#404040" d="M423.137,-418.733C406.906,-386.713 381.326,-336.248 357.124,-288.503"/>
<polygon fill="none" stroke="#404040" points="357.087,-288.429 350.806,-284.886 351.661,-277.726 357.942,-281.269 357.087,-288.429"/>
<text text-anchor="middle" x="413" y="-343" font-family="SegoeUI" font-size="10.00"> +videoClip</text>
</g>
<!-- Node22 -->
<g id="node19" class="node"><title>Node22</title>
<g id="a_node19"><a xlink:href="../../dc/de1/class_juniper_1_1_streamable_asset.html" target="_top" xlink:title=" ">
<polygon fill="white" stroke="black" points="377.5,-683.5 377.5,-740.5 526.5,-740.5 526.5,-683.5 377.5,-683.5"/>
<text text-anchor="middle" x="452" y="-728.5" font-family="SegoeUI" font-size="10.00">StreamableAsset&lt; VideoClip &gt;</text>
<polyline fill="none" stroke="black" points="377.5,-721.5 526.5,-721.5 "/>
<text text-anchor="middle" x="452" y="-709.5" font-family="SegoeUI" font-size="10.00"> </text>
<polyline fill="none" stroke="black" points="377.5,-702.5 526.5,-702.5 "/>
<text text-anchor="middle" x="452" y="-690.5" font-family="SegoeUI" font-size="10.00"> </text>
</a>
</g>
</g>
<!-- Node22&#45;&gt;Node21 -->
<g id="edge21" class="edge"><title>Node22&#45;&gt;Node21</title>
<path fill="none" stroke="midnightblue" d="M450.244,-673.398C447.903,-623.253 443.794,-535.257 441.558,-487.359"/>
<polygon fill="none" stroke="midnightblue" points="446.753,-673.671 450.716,-683.496 453.745,-673.344 446.753,-673.671"/>
</g>
<!-- Node23 -->
<g id="node20" class="node"><title>Node23</title>
<g id="a_node20"><a xlink:href="../../dc/de1/class_juniper_1_1_streamable_asset.html" target="_top" xlink:title=" ">
<polygon fill="white" stroke="black" points="390.5,-1091 390.5,-1148 513.5,-1148 513.5,-1091 390.5,-1091"/>
<text text-anchor="middle" x="452" y="-1136" font-family="SegoeUI" font-size="10.00">Juniper.StreamableAsset</text>
<polyline fill="none" stroke="black" points="390.5,-1129 513.5,-1129 "/>
<text text-anchor="middle" x="452" y="-1117" font-family="SegoeUI" font-size="10.00"> </text>
<polyline fill="none" stroke="black" points="390.5,-1110 513.5,-1110 "/>
<text text-anchor="middle" x="452" y="-1098" font-family="SegoeUI" font-size="10.00"> </text>
</a>
</g>
</g>
<!-- Node23&#45;&gt;Node22 -->
<g id="edge22" class="edge"><title>Node23&#45;&gt;Node22</title>
<path fill="none" stroke="orange" d="M452,-1080.72C452,-999.817 452,-811.43 452,-740.591"/>
<polygon fill="orange" stroke="orange" points="448.5,-1080.95 452,-1090.95 455.5,-1080.95 448.5,-1080.95"/>
<text text-anchor="middle" x="483.5" y="-861" font-family="SegoeUI" font-size="10.00"> &lt; VideoClip &gt;</text>
</g>
</g>
</svg>
