<?xml version="1.0" encoding="UTF-8" standalone="no"?>
<!DOCTYPE svg PUBLIC "-//W3C//DTD SVG 1.1//EN"
 "http://www.w3.org/Graphics/SVG/1.1/DTD/svg11.dtd">
<!-- Generated by graphviz version 2.38.0 (20140413.2041)
 -->
<!-- Title: Juniper.Widgets.RotationHandle Pages: 1 -->
<!--zoomable 1447 -->
<svg id="main" version="1.1" xmlns="http://www.w3.org/2000/svg" xmlns:xlink="http://www.w3.org/1999/xlink" xml:space="preserve" onload="init(evt)">
<style type="text/css"><![CDATA[
.edge:hover path { stroke: red; }
.edge:hover polygon { stroke: red; fill: red; }
]]></style>
<script type="text/javascript"><![CDATA[
var edges = document.getElementsByTagName('g');
if (edges && edges.length) {
  for (var i=0;i<edges.length;i++) {
    if (edges[i].id.substr(0,4)=='edge') {
      edges[i].setAttribute('class','edge');
    }
  }
}
]]></script>
        <defs>
                <circle id="rim" cx="0" cy="0" r="7"/>
                <circle id="rim2" cx="0" cy="0" r="3.5"/>
                <g id="zoomPlus">
                        <use xlink:href="#rim" fill="#404040">
                                <set attributeName="fill" to="#808080" begin="zoomplus.mouseover" end="zoomplus.mouseout"/>
                        </use>
                        <path d="M-4,0h8M0,-4v8" fill="none" stroke="white" stroke-width="1.5" pointer-events="none"/>
                </g>
                <g id="zoomMin">
                        <use xlink:href="#rim" fill="#404040">
                                <set attributeName="fill" to="#808080" begin="zoomminus.mouseover" end="zoomminus.mouseout"/>
                        </use>
                        <path d="M-4,0h8" fill="none" stroke="white" stroke-width="1.5" pointer-events="none"/>
                </g>
                <g id="dirArrow">
                        <path fill="none" stroke="white" stroke-width="1.5" d="M0,-3.0v7 M-2.5,-0.5L0,-3.0L2.5,-0.5"/>
                </g>
               <g id="resetDef">
                       <use xlink:href="#rim2" fill="#404040">
                               <set attributeName="fill" to="#808080" begin="reset.mouseover" end="reset.mouseout"/>
                       </use>
               </g>
        </defs>

<script type="text/javascript">
var viewWidth = 1368;
var viewHeight = 1447;
var sectionId = 'dynsection-1';
</script>
<script xlink:href="../../svgpan.js"/>
<svg id="graph" class="graph">
<g id="viewport">
<title>Juniper.Widgets.RotationHandle</title>
<polygon fill="white" stroke="none" points="-4,4 -4,-1443 1363.5,-1443 1363.5,4 -4,4"/>
<!-- Node3 -->
<g id="node1" class="node"><title>Node3</title>
<g id="a_node1"><a xlink:title="A draggable object that can be used to update the rotation of another object.">
<polygon fill="#bfbfbf" stroke="black" points="1,-0.5 1,-79.5 124,-79.5 124,-0.5 1,-0.5"/>
<text text-anchor="start" x="9" y="-67.5" font-family="SegoeUI" font-size="10.00">Juniper.Widgets.Rotation</text>
<text text-anchor="middle" x="62.5" y="-56.5" font-family="SegoeUI" font-size="10.00">Handle</text>
<polyline fill="none" stroke="black" points="1,-49.5 124,-49.5 "/>
<text text-anchor="middle" x="62.5" y="-37.5" font-family="SegoeUI" font-size="10.00"> </text>
<polyline fill="none" stroke="black" points="1,-30.5 124,-30.5 "/>
<text text-anchor="start" x="9" y="-18.5" font-family="SegoeUI" font-size="10.00"># GetChange()</text>
<text text-anchor="start" x="9" y="-7.5" font-family="SegoeUI" font-size="10.00"># ApplyChange()</text>
</a>
</g>
</g>
<!-- Node4 -->
<g id="node2" class="node"><title>Node4</title>
<g id="a_node2"><a xlink:href="../../d3/d3f/class_juniper_1_1_widgets_1_1_abstract_constraint_handle.html" target="_top" xlink:title="An abstract class that manages reading the movement of a control handle and constraining that movemen...">
<polygon fill="white" stroke="black" points="0,-117.5 0,-262.5 125,-262.5 125,-117.5 0,-117.5"/>
<text text-anchor="middle" x="62.5" y="-250.5" font-family="SegoeUI" font-size="10.00">AbstractConstraintHandle</text>
<polyline fill="none" stroke="black" points="0,-243.5 125,-243.5 "/>
<text text-anchor="start" x="8" y="-231.5" font-family="SegoeUI" font-size="10.00">+ target</text>
<text text-anchor="start" x="8" y="-220.5" font-family="SegoeUI" font-size="10.00">+ axis</text>
<text text-anchor="start" x="8" y="-209.5" font-family="SegoeUI" font-size="10.00">+ speed</text>
<text text-anchor="start" x="8" y="-198.5" font-family="SegoeUI" font-size="10.00">&#45; hadTarget</text>
<polyline fill="none" stroke="black" points="0,-191.5 125,-191.5 "/>
<text text-anchor="start" x="8" y="-179.5" font-family="SegoeUI" font-size="10.00">+ Awake()</text>
<text text-anchor="start" x="8" y="-168.5" font-family="SegoeUI" font-size="10.00">+ Update()</text>
<text text-anchor="start" x="8" y="-157.5" font-family="SegoeUI" font-size="10.00">+ Setup()</text>
<text text-anchor="start" x="8" y="-146.5" font-family="SegoeUI" font-size="10.00"># ConstrainChange()</text>
<text text-anchor="start" x="8" y="-135.5" font-family="SegoeUI" font-size="10.00"># GetChange()</text>
<text text-anchor="start" x="8" y="-124.5" font-family="SegoeUI" font-size="10.00"># ApplyChange()</text>
</a>
</g>
</g>
<!-- Node4&#45;&gt;Node3 -->
<g id="edge1" class="edge"><title>Node4&#45;&gt;Node3</title>
<path fill="none" stroke="midnightblue" d="M62.5,-107.152C62.5,-97.576 62.5,-88.1775 62.5,-79.6075"/>
<polygon fill="none" stroke="midnightblue" points="59.0001,-107.168 62.5,-117.168 66.0001,-107.168 59.0001,-107.168"/>
</g>
<!-- Node5 -->
<g id="node3" class="node"><title>Node5</title>
<g id="a_node3"><a xlink:title=" ">
<polygon fill="white" stroke="#bfbfbf" points="964.5,-1381.5 964.5,-1438.5 1046.5,-1438.5 1046.5,-1381.5 964.5,-1381.5"/>
<text text-anchor="middle" x="1005.5" y="-1426.5" font-family="SegoeUI" font-size="10.00">MonoBehaviour</text>
<polyline fill="none" stroke="#bfbfbf" points="964.5,-1419.5 1046.5,-1419.5 "/>
<text text-anchor="middle" x="1005.5" y="-1407.5" font-family="SegoeUI" font-size="10.00"> </text>
<polyline fill="none" stroke="#bfbfbf" points="964.5,-1400.5 1046.5,-1400.5 "/>
<text text-anchor="middle" x="1005.5" y="-1388.5" font-family="SegoeUI" font-size="10.00"> </text>
</a>
</g>
</g>
<!-- Node5&#45;&gt;Node4 -->
<g id="edge2" class="edge"><title>Node5&#45;&gt;Node4</title>
<path fill="none" stroke="midnightblue" d="M954.171,-1408.48C751.313,-1405.77 16.5,-1389.36 16.5,-1294 16.5,-1294 16.5,-1294 16.5,-398.5 16.5,-352.561 27.3797,-302.228 38.5569,-262.64"/>
<polygon fill="none" stroke="midnightblue" points="954.219,-1411.98 964.263,-1408.61 954.309,-1404.98 954.219,-1411.98"/>
</g>
<!-- Node9 -->
<g id="node7" class="node"><title>Node9</title>
<g id="a_node7"><a xlink:href="../../d7/d8c/class_juniper_1_1_widgets_1_1_abstract_touchable.html" target="_top" xlink:title="The base class for all interactive, AR&#45;compatible, GUI controls /// This class is abstract to avoid i...">
<polygon fill="white" stroke="black" points="699.5,-917.5 699.5,-1172.5 825.5,-1172.5 825.5,-917.5 699.5,-917.5"/>
<text text-anchor="middle" x="762.5" y="-1160.5" font-family="SegoeUI" font-size="10.00">AbstractTouchable</text>
<polyline fill="none" stroke="black" points="699.5,-1153.5 825.5,-1153.5 "/>
<text text-anchor="start" x="707.5" y="-1141.5" font-family="SegoeUI" font-size="10.00">+ disabled</text>
<text text-anchor="start" x="707.5" y="-1130.5" font-family="SegoeUI" font-size="10.00">+ DisabledChanged</text>
<text text-anchor="start" x="707.5" y="-1119.5" font-family="SegoeUI" font-size="10.00">+ DisabledDown</text>
<text text-anchor="start" x="707.5" y="-1108.5" font-family="SegoeUI" font-size="10.00">+ DisabledUp</text>
<text text-anchor="start" x="707.5" y="-1097.5" font-family="SegoeUI" font-size="10.00">+ IsDisabled</text>
<text text-anchor="start" x="707.5" y="-1086.5" font-family="SegoeUI" font-size="10.00">+ PointerPositionChanged</text>
<text text-anchor="start" x="707.5" y="-1075.5" font-family="SegoeUI" font-size="10.00">&#45; wasDisabled</text>
<polyline fill="none" stroke="black" points="699.5,-1068.5 825.5,-1068.5 "/>
<text text-anchor="start" x="707.5" y="-1056.5" font-family="SegoeUI" font-size="10.00">+ IsInteractable()</text>
<text text-anchor="start" x="707.5" y="-1045.5" font-family="SegoeUI" font-size="10.00">+ SetDisabled()</text>
<text text-anchor="start" x="707.5" y="-1034.5" font-family="SegoeUI" font-size="10.00">+ ToggleEnabled()</text>
<text text-anchor="start" x="707.5" y="-1023.5" font-family="SegoeUI" font-size="10.00">+ Update()</text>
<text text-anchor="start" x="707.5" y="-1012.5" font-family="SegoeUI" font-size="10.00">+ OnPointerEnter()</text>
<text text-anchor="start" x="707.5" y="-1001.5" font-family="SegoeUI" font-size="10.00">+ OnPointerExit()</text>
<text text-anchor="start" x="707.5" y="-990.5" font-family="SegoeUI" font-size="10.00">+ OnPointerDown()</text>
<text text-anchor="start" x="707.5" y="-979.5" font-family="SegoeUI" font-size="10.00">+ OnPointerUp()</text>
<text text-anchor="start" x="707.5" y="-968.5" font-family="SegoeUI" font-size="10.00"># LateUpdate()</text>
<text text-anchor="start" x="707.5" y="-957.5" font-family="SegoeUI" font-size="10.00"># ShowState()</text>
<text text-anchor="start" x="707.5" y="-946.5" font-family="SegoeUI" font-size="10.00"># GetPosition()</text>
<text text-anchor="start" x="707.5" y="-935.5" font-family="SegoeUI" font-size="10.00">&#45; Awake()</text>
<text text-anchor="start" x="707.5" y="-924.5" font-family="SegoeUI" font-size="10.00">&#45; NormalizePart()</text>
</a>
</g>
</g>
<!-- Node5&#45;&gt;Node9 -->
<g id="edge7" class="edge"><title>Node5&#45;&gt;Node9</title>
<path fill="none" stroke="midnightblue" d="M1014.13,-1371.33C1022.83,-1322.6 1029.13,-1238.38 982.5,-1191 936.02,-1143.77 889.632,-1209.76 834.5,-1173 831.442,-1170.96 828.5,-1168.75 825.67,-1166.38"/>
<polygon fill="none" stroke="midnightblue" points="1010.63,-1370.97 1012.19,-1381.45 1017.51,-1372.29 1010.63,-1370.97"/>
</g>
<!-- Node15 -->
<g id="node13" class="node"><title>Node15</title>
<g id="a_node13"><a xlink:href="../../d8/dea/class_juniper_1_1_animation_1_1_abstract_animator.html" target="_top" xlink:title="An abstraction layer over different ways of showing UI state. Only one such component is allowed on a...">
<polygon fill="white" stroke="black" points="1034,-1242.5 1034,-1343.5 1165,-1343.5 1165,-1242.5 1034,-1242.5"/>
<text text-anchor="start" x="1042" y="-1331.5" font-family="SegoeUI" font-size="10.00">Juniper.Animation.Abstract</text>
<text text-anchor="middle" x="1099.5" y="-1320.5" font-family="SegoeUI" font-size="10.00">Animator</text>
<polyline fill="none" stroke="black" points="1034,-1313.5 1165,-1313.5 "/>
<text text-anchor="middle" x="1099.5" y="-1301.5" font-family="SegoeUI" font-size="10.00"> </text>
<polyline fill="none" stroke="black" points="1034,-1294.5 1165,-1294.5 "/>
<text text-anchor="start" x="1042" y="-1282.5" font-family="SegoeUI" font-size="10.00">+ PlayCoroutine()</text>
<text text-anchor="start" x="1042" y="-1271.5" font-family="SegoeUI" font-size="10.00">+ Play()</text>
<text text-anchor="start" x="1042" y="-1260.5" font-family="SegoeUI" font-size="10.00">+ HasState()</text>
<text text-anchor="start" x="1042" y="-1249.5" font-family="SegoeUI" font-size="10.00">+ GetAnimator()</text>
</a>
</g>
</g>
<!-- Node5&#45;&gt;Node15 -->
<g id="edge14" class="edge"><title>Node5&#45;&gt;Node15</title>
<path fill="none" stroke="midnightblue" d="M1034.54,-1373.48C1042.2,-1364.1 1050.62,-1353.8 1058.78,-1343.81"/>
<polygon fill="none" stroke="midnightblue" points="1031.63,-1371.5 1028.02,-1381.45 1037.05,-1375.93 1031.63,-1371.5"/>
</g>
<!-- Node6 -->
<g id="node4" class="node"><title>Node6</title>
<g id="a_node4"><a xlink:title=" ">
<polygon fill="white" stroke="#bfbfbf" points="193.5,-1264.5 193.5,-1321.5 259.5,-1321.5 259.5,-1264.5 193.5,-1264.5"/>
<text text-anchor="middle" x="226.5" y="-1309.5" font-family="SegoeUI" font-size="10.00">UnityEngine</text>
<polyline fill="none" stroke="#bfbfbf" points="193.5,-1302.5 259.5,-1302.5 "/>
<text text-anchor="middle" x="226.5" y="-1290.5" font-family="SegoeUI" font-size="10.00"> </text>
<polyline fill="none" stroke="#bfbfbf" points="193.5,-1283.5 259.5,-1283.5 "/>
<text text-anchor="middle" x="226.5" y="-1271.5" font-family="SegoeUI" font-size="10.00"> </text>
</a>
</g>
</g>
<!-- Node6&#45;&gt;Node4 -->
<g id="edge3" class="edge"><title>Node6&#45;&gt;Node4</title>
<path fill="none" stroke="#404040" d="M193.312,-1265.64C145.391,-1224.34 62.5,-1139.42 62.5,-1046 62.5,-1046 62.5,-1046 62.5,-398.5 62.5,-357.705 62.5,-312.398 62.5,-274.553"/>
<polygon fill="none" stroke="#404040" points="62.5001,-274.544 58.5,-268.544 62.5,-262.544 66.5,-268.544 62.5001,-274.544"/>
<text text-anchor="middle" x="94" y="-701" font-family="SegoeUI" font-size="10.00"> #startPosition</text>
<text text-anchor="middle" x="94" y="-690" font-family="SegoeUI" font-size="10.00">#lastPosition</text>
</g>
<!-- Node7 -->
<g id="node5" class="node"><title>Node7</title>
<g id="a_node5"><a xlink:href="../../d9/d93/class_juniper_1_1_widgets_1_1_draggable.html" target="_top" xlink:title="An object that can be picked up and put down in a new location.">
<polygon fill="white" stroke="black" points="91,-310.5 91,-488.5 232,-488.5 232,-310.5 91,-310.5"/>
<text text-anchor="middle" x="161.5" y="-476.5" font-family="SegoeUI" font-size="10.00">Juniper.Widgets.Draggable</text>
<polyline fill="none" stroke="black" points="91,-469.5 232,-469.5 "/>
<text text-anchor="start" x="99" y="-457.5" font-family="SegoeUI" font-size="10.00">+ constrainMotion</text>
<text text-anchor="start" x="99" y="-446.5" font-family="SegoeUI" font-size="10.00">+ rotateWhileDragging</text>
<text text-anchor="start" x="99" y="-435.5" font-family="SegoeUI" font-size="10.00">+ TrackStart</text>
<text text-anchor="start" x="99" y="-424.5" font-family="SegoeUI" font-size="10.00">+ TrackEnd</text>
<text text-anchor="start" x="99" y="-413.5" font-family="SegoeUI" font-size="10.00">&#45; MotionConstraintStartName</text>
<text text-anchor="start" x="99" y="-402.5" font-family="SegoeUI" font-size="10.00">&#45; MotionConstraintEndName</text>
<text text-anchor="start" x="99" y="-391.5" font-family="SegoeUI" font-size="10.00">&#45; motionConstraintStart</text>
<text text-anchor="start" x="99" y="-380.5" font-family="SegoeUI" font-size="10.00">&#45; motionConstraintEnd</text>
<polyline fill="none" stroke="black" points="91,-373.5 232,-373.5 "/>
<text text-anchor="start" x="99" y="-361.5" font-family="SegoeUI" font-size="10.00">+ OnValidate()</text>
<text text-anchor="start" x="99" y="-350.5" font-family="SegoeUI" font-size="10.00">+ OnDrag()</text>
<text text-anchor="start" x="99" y="-339.5" font-family="SegoeUI" font-size="10.00"># LateUpdate()</text>
<text text-anchor="start" x="99" y="-328.5" font-family="SegoeUI" font-size="10.00">&#45; ResolveConstraint()</text>
<text text-anchor="start" x="99" y="-317.5" font-family="SegoeUI" font-size="10.00">&#45; DestroyConstraint()</text>
</a>
</g>
</g>
<!-- Node6&#45;&gt;Node7 -->
<g id="edge25" class="edge"><title>Node6&#45;&gt;Node7</title>
<path fill="none" stroke="#404040" d="M209.953,-1264.3C196.963,-1240.89 179.881,-1205.99 172.5,-1173 119.66,-936.835 135.839,-649.837 149.996,-500.971"/>
<polygon fill="none" stroke="#404040" points="150.023,-500.692 146.622,-494.333 151.183,-488.748 154.584,-495.107 150.023,-500.692"/>
<text text-anchor="middle" x="177" y="-891" font-family="SegoeUI" font-size="10.00"> &#45;lastCamPosition</text>
</g>
<!-- Node8 -->
<g id="node6" class="node"><title>Node8</title>
<g id="a_node6"><a xlink:href="../../dd/d30/class_juniper_1_1_widgets_1_1_abstract_valued.html" target="_top" xlink:title="The Valued component adds a float field and range of valid values for that field to a Touchable objec...">
<polygon fill="white" stroke="black" points="462,-526.5 462,-869.5 599,-869.5 599,-526.5 462,-526.5"/>
<text text-anchor="middle" x="530.5" y="-857.5" font-family="SegoeUI" font-size="10.00">AbstractValued</text>
<polyline fill="none" stroke="black" points="462,-850.5 599,-850.5 "/>
<text text-anchor="start" x="470" y="-838.5" font-family="SegoeUI" font-size="10.00">+ Display</text>
<text text-anchor="start" x="470" y="-827.5" font-family="SegoeUI" font-size="10.00">+ SigFigs</text>
<text text-anchor="start" x="470" y="-816.5" font-family="SegoeUI" font-size="10.00">+ minValue</text>
<text text-anchor="start" x="470" y="-805.5" font-family="SegoeUI" font-size="10.00">+ maxValue</text>
<text text-anchor="start" x="470" y="-794.5" font-family="SegoeUI" font-size="10.00">+ _value</text>
<text text-anchor="start" x="470" y="-783.5" font-family="SegoeUI" font-size="10.00">+ Dragged</text>
<text text-anchor="start" x="470" y="-772.5" font-family="SegoeUI" font-size="10.00">+ value</text>
<text text-anchor="start" x="470" y="-761.5" font-family="SegoeUI" font-size="10.00">+ Delta</text>
<text text-anchor="start" x="470" y="-750.5" font-family="SegoeUI" font-size="10.00">+ DraggedChanged</text>
<text text-anchor="start" x="470" y="-739.5" font-family="SegoeUI" font-size="10.00">+ DraggedDown</text>
<text text-anchor="start" x="470" y="-728.5" font-family="SegoeUI" font-size="10.00">+ DraggedUp</text>
<text text-anchor="start" x="470" y="-717.5" font-family="SegoeUI" font-size="10.00">+ ValueChanged</text>
<text text-anchor="start" x="470" y="-706.5" font-family="SegoeUI" font-size="10.00">+ ConstraintRange</text>
<text text-anchor="start" x="470" y="-695.5" font-family="SegoeUI" font-size="10.00"># dragDistance</text>
<text text-anchor="start" x="470" y="-684.5" font-family="SegoeUI" font-size="10.00"># camT</text>
<text text-anchor="start" x="470" y="-673.5" font-family="SegoeUI" font-size="10.00"># internalValue</text>
<text text-anchor="start" x="470" y="-662.5" font-family="SegoeUI" font-size="10.00">&#45; wasDragged</text>
<text text-anchor="start" x="470" y="-651.5" font-family="SegoeUI" font-size="10.00">&#45; lastValue</text>
<text text-anchor="start" x="470" y="-640.5" font-family="SegoeUI" font-size="10.00">&#45; lastTickValue</text>
<polyline fill="none" stroke="black" points="462,-633.5 599,-633.5 "/>
<text text-anchor="start" x="470" y="-621.5" font-family="SegoeUI" font-size="10.00">+ SetValue()</text>
<text text-anchor="start" x="470" y="-610.5" font-family="SegoeUI" font-size="10.00">+ OnInitializePotentialDrag()</text>
<text text-anchor="start" x="470" y="-599.5" font-family="SegoeUI" font-size="10.00">+ OnBeginDrag()</text>
<text text-anchor="start" x="470" y="-588.5" font-family="SegoeUI" font-size="10.00">+ OnDrag()</text>
<text text-anchor="start" x="470" y="-577.5" font-family="SegoeUI" font-size="10.00">+ OnDrop()</text>
<text text-anchor="start" x="470" y="-566.5" font-family="SegoeUI" font-size="10.00">+ OnEndDrag()</text>
<text text-anchor="start" x="470" y="-555.5" font-family="SegoeUI" font-size="10.00"># LateUpdate()</text>
<text text-anchor="start" x="470" y="-544.5" font-family="SegoeUI" font-size="10.00"># UpdateInternalValue()</text>
<text text-anchor="start" x="470" y="-533.5" font-family="SegoeUI" font-size="10.00"># ResetInternalValue()</text>
</a>
</g>
</g>
<!-- Node6&#45;&gt;Node8 -->
<g id="edge24" class="edge"><title>Node6&#45;&gt;Node8</title>
<path fill="none" stroke="#404040" d="M259.96,-1275.97C282.437,-1265.55 312.885,-1252.06 340.5,-1242 343.696,-1240.84 573.461,-1175.72 575.5,-1173 609.44,-1127.66 594.154,-995.058 572.616,-881.597"/>
<polygon fill="none" stroke="#404040" points="572.58,-881.411 567.516,-876.277 570.307,-869.628 575.371,-874.762 572.58,-881.411"/>
<text text-anchor="middle" x="634.5" y="-1064.5" font-family="SegoeUI" font-size="10.00"> #interactionPoint</text>
<text text-anchor="middle" x="634.5" y="-1053.5" font-family="SegoeUI" font-size="10.00">#interactionOffset</text>
<text text-anchor="middle" x="634.5" y="-1042.5" font-family="SegoeUI" font-size="10.00">#angVel</text>
<text text-anchor="middle" x="634.5" y="-1031.5" font-family="SegoeUI" font-size="10.00">#grabOffset</text>
<text text-anchor="middle" x="634.5" y="-1020.5" font-family="SegoeUI" font-size="10.00">#velocity</text>
</g>
<!-- Node6&#45;&gt;Node9 -->
<g id="edge15" class="edge"><title>Node6&#45;&gt;Node9</title>
<path fill="none" stroke="#404040" d="M259.922,-1274.04C282.13,-1262.94 312.289,-1249.44 340.5,-1242 378.301,-1232.03 482.702,-1245.28 515.5,-1224 529.698,-1214.79 520.376,-1200.32 534.5,-1191 590.903,-1153.76 628.68,-1209.6 685.5,-1173 687.024,-1172.02 688.523,-1170.99 689.996,-1169.93"/>
<polygon fill="none" stroke="#404040" points="690.011,-1169.92 692.171,-1163.04 699.353,-1162.39 697.192,-1169.27 690.011,-1169.92"/>
<text text-anchor="middle" x="578.5" y="-1216" font-family="SegoeUI" font-size="10.00"> #lastPointerPosition</text>
<text text-anchor="middle" x="578.5" y="-1205" font-family="SegoeUI" font-size="10.00">+pointerPosition</text>
<text text-anchor="middle" x="578.5" y="-1194" font-family="SegoeUI" font-size="10.00">+clickButton</text>
</g>
<!-- Node7&#45;&gt;Node4 -->
<g id="edge4" class="edge"><title>Node7&#45;&gt;Node4</title>
<path fill="none" stroke="#404040" d="M119.372,-310.2C113.569,-298.039 107.629,-285.588 101.879,-273.537"/>
<polygon fill="none" stroke="#404040" points="101.829,-273.431 95.6347,-269.738 96.6611,-262.6 102.855,-266.293 101.829,-273.431"/>
<text text-anchor="middle" x="127.5" y="-284" font-family="SegoeUI" font-size="10.00"> &#45;handle</text>
</g>
<!-- Node8&#45;&gt;Node7 -->
<g id="edge5" class="edge"><title>Node8&#45;&gt;Node7</title>
<path fill="none" stroke="midnightblue" d="M454.143,-635.646C388.893,-583.215 295.751,-508.374 232.186,-457.298"/>
<polygon fill="none" stroke="midnightblue" points="451.971,-638.39 461.959,-641.925 456.356,-632.933 451.971,-638.39"/>
</g>
<!-- Node9&#45;&gt;Node8 -->
<g id="edge6" class="edge"><title>Node9&#45;&gt;Node8</title>
<path fill="none" stroke="midnightblue" d="M693.975,-930.06C691.137,-925.634 688.305,-921.267 685.5,-917 658.204,-875.479 626.648,-830.583 599.161,-792.387"/>
<polygon fill="none" stroke="midnightblue" points="691.111,-932.078 699.434,-938.633 697.015,-928.318 691.111,-932.078"/>
</g>
<!-- Node10 -->
<g id="node8" class="node"><title>Node10</title>
<g id="a_node8"><a xlink:title=" ">
<polygon fill="white" stroke="#bfbfbf" points="350,-1264.5 350,-1321.5 455,-1321.5 455,-1264.5 350,-1264.5"/>
<text text-anchor="middle" x="402.5" y="-1309.5" font-family="SegoeUI" font-size="10.00">IPointerEnterHandler</text>
<polyline fill="none" stroke="#bfbfbf" points="350,-1302.5 455,-1302.5 "/>
<text text-anchor="middle" x="402.5" y="-1290.5" font-family="SegoeUI" font-size="10.00"> </text>
<polyline fill="none" stroke="#bfbfbf" points="350,-1283.5 455,-1283.5 "/>
<text text-anchor="middle" x="402.5" y="-1271.5" font-family="SegoeUI" font-size="10.00"> </text>
</a>
</g>
</g>
<!-- Node10&#45;&gt;Node9 -->
<g id="edge8" class="edge"><title>Node10&#45;&gt;Node9</title>
<path fill="none" stroke="midnightblue" d="M437.798,-1257.96C446.012,-1251.69 455.118,-1245.91 464.5,-1242 531.374,-1214.15 562.544,-1258.02 626.5,-1224 643.481,-1214.97 639.747,-1203.34 654.5,-1191 666.72,-1180.78 674.128,-1184.16 685.5,-1173 690.285,-1168.3 694.893,-1163.25 699.309,-1157.97"/>
<polygon fill="none" stroke="midnightblue" points="435.488,-1255.32 429.903,-1264.33 439.884,-1260.77 435.488,-1255.32"/>
</g>
<!-- Node11 -->
<g id="node9" class="node"><title>Node11</title>
<g id="a_node9"><a xlink:title=" ">
<polygon fill="white" stroke="#bfbfbf" points="473.5,-1264.5 473.5,-1321.5 571.5,-1321.5 571.5,-1264.5 473.5,-1264.5"/>
<text text-anchor="middle" x="522.5" y="-1309.5" font-family="SegoeUI" font-size="10.00">IPointerExitHandler</text>
<polyline fill="none" stroke="#bfbfbf" points="473.5,-1302.5 571.5,-1302.5 "/>
<text text-anchor="middle" x="522.5" y="-1290.5" font-family="SegoeUI" font-size="10.00"> </text>
<polyline fill="none" stroke="#bfbfbf" points="473.5,-1283.5 571.5,-1283.5 "/>
<text text-anchor="middle" x="522.5" y="-1271.5" font-family="SegoeUI" font-size="10.00"> </text>
</a>
</g>
</g>
<!-- Node11&#45;&gt;Node9 -->
<g id="edge9" class="edge"><title>Node11&#45;&gt;Node9</title>
<path fill="none" stroke="midnightblue" d="M556.863,-1257.91C564.222,-1251.94 572.273,-1246.28 580.5,-1242 609.377,-1226.97 624.921,-1242.8 651.5,-1224 659.194,-1218.56 678.81,-1188.42 699.451,-1154.45"/>
<polygon fill="none" stroke="midnightblue" points="554.516,-1255.32 549.173,-1264.46 559.055,-1260.64 554.516,-1255.32"/>
</g>
<!-- Node12 -->
<g id="node10" class="node"><title>Node12</title>
<g id="a_node10"><a xlink:title=" ">
<polygon fill="white" stroke="#bfbfbf" points="590,-1264.5 590,-1321.5 697,-1321.5 697,-1264.5 590,-1264.5"/>
<text text-anchor="middle" x="643.5" y="-1309.5" font-family="SegoeUI" font-size="10.00">IPointerDownHandler</text>
<polyline fill="none" stroke="#bfbfbf" points="590,-1302.5 697,-1302.5 "/>
<text text-anchor="middle" x="643.5" y="-1290.5" font-family="SegoeUI" font-size="10.00"> </text>
<polyline fill="none" stroke="#bfbfbf" points="590,-1283.5 697,-1283.5 "/>
<text text-anchor="middle" x="643.5" y="-1271.5" font-family="SegoeUI" font-size="10.00"> </text>
</a>
</g>
</g>
<!-- Node12&#45;&gt;Node9 -->
<g id="edge10" class="edge"><title>Node12&#45;&gt;Node9</title>
<path fill="none" stroke="midnightblue" d="M661.366,-1255.21C666.275,-1245.1 671.596,-1234.13 676.5,-1224 684.502,-1207.47 692.916,-1190.08 701.219,-1172.91"/>
<polygon fill="none" stroke="midnightblue" points="658.216,-1253.69 656.998,-1264.21 664.513,-1256.75 658.216,-1253.69"/>
</g>
<!-- Node13 -->
<g id="node11" class="node"><title>Node13</title>
<g id="a_node11"><a xlink:title=" ">
<polygon fill="white" stroke="#bfbfbf" points="715.5,-1264.5 715.5,-1321.5 809.5,-1321.5 809.5,-1264.5 715.5,-1264.5"/>
<text text-anchor="middle" x="762.5" y="-1309.5" font-family="SegoeUI" font-size="10.00">IPointerUpHandler</text>
<polyline fill="none" stroke="#bfbfbf" points="715.5,-1302.5 809.5,-1302.5 "/>
<text text-anchor="middle" x="762.5" y="-1290.5" font-family="SegoeUI" font-size="10.00"> </text>
<polyline fill="none" stroke="#bfbfbf" points="715.5,-1283.5 809.5,-1283.5 "/>
<text text-anchor="middle" x="762.5" y="-1271.5" font-family="SegoeUI" font-size="10.00"> </text>
</a>
</g>
</g>
<!-- Node13&#45;&gt;Node9 -->
<g id="edge11" class="edge"><title>Node13&#45;&gt;Node9</title>
<path fill="none" stroke="midnightblue" d="M762.5,-1253.97C762.5,-1231.77 762.5,-1202.34 762.5,-1172.63"/>
<polygon fill="none" stroke="midnightblue" points="759,-1254.26 762.5,-1264.26 766,-1254.26 759,-1254.26"/>
</g>
<!-- Node14 -->
<g id="node12" class="node"><title>Node14</title>
<g id="a_node12"><a xlink:href="../../da/d7e/interface_juniper_1_1_events_1_1_i_interactable.html" target="_top" xlink:title="An interface for custom controls to report to the Input.UnifiedInputModule that they are enabled/disa...">
<polygon fill="white" stroke="black" points="827.5,-1264.5 827.5,-1321.5 919.5,-1321.5 919.5,-1264.5 827.5,-1264.5"/>
<text text-anchor="middle" x="873.5" y="-1309.5" font-family="SegoeUI" font-size="10.00">IInteractable</text>
<polyline fill="none" stroke="black" points="827.5,-1302.5 919.5,-1302.5 "/>
<text text-anchor="middle" x="873.5" y="-1290.5" font-family="SegoeUI" font-size="10.00"> </text>
<polyline fill="none" stroke="black" points="827.5,-1283.5 919.5,-1283.5 "/>
<text text-anchor="start" x="835.5" y="-1271.5" font-family="SegoeUI" font-size="10.00">+ IsInteractable()</text>
</a>
</g>
</g>
<!-- Node14&#45;&gt;Node9 -->
<g id="edge12" class="edge"><title>Node14&#45;&gt;Node9</title>
<path fill="none" stroke="midnightblue" d="M856.748,-1254.87C846.684,-1232.57 833.226,-1202.74 819.637,-1172.63"/>
<polygon fill="none" stroke="midnightblue" points="853.679,-1256.58 860.983,-1264.26 860.06,-1253.7 853.679,-1256.58"/>
</g>
<!-- Node15&#45;&gt;Node9 -->
<g id="edge13" class="edge"><title>Node15&#45;&gt;Node9</title>
<path fill="none" stroke="#404040" d="M1072.2,-1242.41C1058.91,-1223.08 1041.11,-1202.77 1019.5,-1191 950.219,-1153.25 907.719,-1212.23 835.934,-1172.73"/>
<polygon fill="none" stroke="#404040" points="835.872,-1172.69 828.668,-1173.01 825.605,-1166.48 832.809,-1166.16 835.872,-1172.69"/>
<text text-anchor="middle" x="1080.5" y="-1205" font-family="SegoeUI" font-size="10.00"> &#45;animator</text>
</g>
<!-- Node16 -->
<g id="node14" class="node"><title>Node16</title>
<g id="a_node14"><a xlink:title=" ">
<polygon fill="white" stroke="#bfbfbf" points="938,-1264.5 938,-1321.5 977,-1321.5 977,-1264.5 938,-1264.5"/>
<text text-anchor="middle" x="957.5" y="-1309.5" font-family="SegoeUI" font-size="10.00">static</text>
<polyline fill="none" stroke="#bfbfbf" points="938,-1302.5 977,-1302.5 "/>
<text text-anchor="middle" x="957.5" y="-1290.5" font-family="SegoeUI" font-size="10.00"> </text>
<polyline fill="none" stroke="#bfbfbf" points="938,-1283.5 977,-1283.5 "/>
<text text-anchor="middle" x="957.5" y="-1271.5" font-family="SegoeUI" font-size="10.00"> </text>
</a>
</g>
</g>
<!-- Node16&#45;&gt;Node9 -->
<g id="edge16" class="edge"><title>Node16&#45;&gt;Node9</title>
<path fill="none" stroke="#404040" d="M944.195,-1264.41C939.789,-1256.71 934.466,-1248.65 928.5,-1242 893.878,-1203.44 868.932,-1211.73 834.5,-1173 834.121,-1172.57 833.743,-1172.15 833.367,-1171.71"/>
<polygon fill="none" stroke="#404040" points="833.277,-1171.61 826.369,-1169.54 825.623,-1162.36 832.531,-1164.43 833.277,-1171.61"/>
<text text-anchor="middle" x="944" y="-1205" font-family="SegoeUI" font-size="10.00"> +PART_NAMES</text>
</g>
<!-- Node17 -->
<g id="node15" class="node"><title>Node17</title>
<g id="a_node15"><a xlink:title=" ">
<polygon fill="white" stroke="#bfbfbf" points="979.5,-1011 979.5,-1079 1091.5,-1079 1091.5,-1011 979.5,-1011"/>
<text text-anchor="start" x="987.5" y="-1067" font-family="SegoeUI" font-size="10.00">IInitializePotentialDrag</text>
<text text-anchor="middle" x="1035.5" y="-1056" font-family="SegoeUI" font-size="10.00">Handler</text>
<polyline fill="none" stroke="#bfbfbf" points="979.5,-1049 1091.5,-1049 "/>
<text text-anchor="middle" x="1035.5" y="-1037" font-family="SegoeUI" font-size="10.00"> </text>
<polyline fill="none" stroke="#bfbfbf" points="979.5,-1030 1091.5,-1030 "/>
<text text-anchor="middle" x="1035.5" y="-1018" font-family="SegoeUI" font-size="10.00"> </text>
</a>
</g>
</g>
<!-- Node17&#45;&gt;Node8 -->
<g id="edge17" class="edge"><title>Node17&#45;&gt;Node8</title>
<path fill="none" stroke="midnightblue" d="M1021.6,-1001.4C1011.05,-974.487 994.285,-940.477 970.5,-917 862.957,-810.851 693.402,-747.185 599.263,-718.061"/>
<polygon fill="none" stroke="midnightblue" points="1018.4,-1002.84 1025.2,-1010.97 1024.95,-1000.38 1018.4,-1002.84"/>
</g>
<!-- Node18 -->
<g id="node16" class="node"><title>Node18</title>
<g id="a_node16"><a xlink:title=" ">
<polygon fill="white" stroke="#bfbfbf" points="181.5,-1016.5 181.5,-1073.5 277.5,-1073.5 277.5,-1016.5 181.5,-1016.5"/>
<text text-anchor="middle" x="229.5" y="-1061.5" font-family="SegoeUI" font-size="10.00">IBeginDragHandler</text>
<polyline fill="none" stroke="#bfbfbf" points="181.5,-1054.5 277.5,-1054.5 "/>
<text text-anchor="middle" x="229.5" y="-1042.5" font-family="SegoeUI" font-size="10.00"> </text>
<polyline fill="none" stroke="#bfbfbf" points="181.5,-1035.5 277.5,-1035.5 "/>
<text text-anchor="middle" x="229.5" y="-1023.5" font-family="SegoeUI" font-size="10.00"> </text>
</a>
</g>
</g>
<!-- Node18&#45;&gt;Node8 -->
<g id="edge18" class="edge"><title>Node18&#45;&gt;Node8</title>
<path fill="none" stroke="midnightblue" d="M241.493,-1006.78C251.131,-980.227 266.378,-944.497 286.5,-917 335.646,-849.841 408.45,-788.156 461.74,-747.672"/>
<polygon fill="none" stroke="midnightblue" points="238.1,-1005.88 238.075,-1016.47 244.702,-1008.21 238.1,-1005.88"/>
</g>
<!-- Node19 -->
<g id="node17" class="node"><title>Node19</title>
<g id="a_node17"><a xlink:title=" ">
<polygon fill="white" stroke="#bfbfbf" points="296,-1016.5 296,-1073.5 369,-1073.5 369,-1016.5 296,-1016.5"/>
<text text-anchor="middle" x="332.5" y="-1061.5" font-family="SegoeUI" font-size="10.00">IDragHandler</text>
<polyline fill="none" stroke="#bfbfbf" points="296,-1054.5 369,-1054.5 "/>
<text text-anchor="middle" x="332.5" y="-1042.5" font-family="SegoeUI" font-size="10.00"> </text>
<polyline fill="none" stroke="#bfbfbf" points="296,-1035.5 369,-1035.5 "/>
<text text-anchor="middle" x="332.5" y="-1023.5" font-family="SegoeUI" font-size="10.00"> </text>
</a>
</g>
</g>
<!-- Node19&#45;&gt;Node8 -->
<g id="edge19" class="edge"><title>Node19&#45;&gt;Node8</title>
<path fill="none" stroke="midnightblue" d="M342.834,-1006.55C350.677,-980.654 362.637,-945.814 377.5,-917 401.135,-871.181 433.206,-823.92 461.881,-785.165"/>
<polygon fill="none" stroke="midnightblue" points="339.414,-1005.77 339.931,-1016.35 346.126,-1007.76 339.414,-1005.77"/>
</g>
<!-- Node20 -->
<g id="node18" class="node"><title>Node20</title>
<g id="a_node18"><a xlink:title=" ">
<polygon fill="white" stroke="#bfbfbf" points="387,-1016.5 387,-1073.5 476,-1073.5 476,-1016.5 387,-1016.5"/>
<text text-anchor="middle" x="431.5" y="-1061.5" font-family="SegoeUI" font-size="10.00">IEndDragHandler</text>
<polyline fill="none" stroke="#bfbfbf" points="387,-1054.5 476,-1054.5 "/>
<text text-anchor="middle" x="431.5" y="-1042.5" font-family="SegoeUI" font-size="10.00"> </text>
<polyline fill="none" stroke="#bfbfbf" points="387,-1035.5 476,-1035.5 "/>
<text text-anchor="middle" x="431.5" y="-1023.5" font-family="SegoeUI" font-size="10.00"> </text>
</a>
</g>
</g>
<!-- Node20&#45;&gt;Node8 -->
<g id="edge20" class="edge"><title>Node20&#45;&gt;Node8</title>
<path fill="none" stroke="midnightblue" d="M442.253,-1006.53C451.895,-972.928 466.764,-921.11 481.566,-869.527"/>
<polygon fill="none" stroke="midnightblue" points="438.828,-1005.77 439.434,-1016.35 445.557,-1007.7 438.828,-1005.77"/>
</g>
<!-- Node21 -->
<g id="node19" class="node"><title>Node21</title>
<g id="a_node19"><a xlink:title=" ">
<polygon fill="white" stroke="#bfbfbf" points="494,-1016.5 494,-1073.5 567,-1073.5 567,-1016.5 494,-1016.5"/>
<text text-anchor="middle" x="530.5" y="-1061.5" font-family="SegoeUI" font-size="10.00">IDropHandler</text>
<polyline fill="none" stroke="#bfbfbf" points="494,-1054.5 567,-1054.5 "/>
<text text-anchor="middle" x="530.5" y="-1042.5" font-family="SegoeUI" font-size="10.00"> </text>
<polyline fill="none" stroke="#bfbfbf" points="494,-1035.5 567,-1035.5 "/>
<text text-anchor="middle" x="530.5" y="-1023.5" font-family="SegoeUI" font-size="10.00"> </text>
</a>
</g>
</g>
<!-- Node21&#45;&gt;Node8 -->
<g id="edge21" class="edge"><title>Node21&#45;&gt;Node8</title>
<path fill="none" stroke="midnightblue" d="M530.5,-1006.09C530.5,-972.481 530.5,-920.887 530.5,-869.527"/>
<polygon fill="none" stroke="midnightblue" points="527,-1006.35 530.5,-1016.35 534,-1006.35 527,-1006.35"/>
</g>
<!-- Node22 -->
<g id="node20" class="node"><title>Node22</title>
<g id="a_node20"><a xlink:href="../../d0/d32/interface_juniper_1_1_widgets_1_1_i_valued_control.html" target="_top" xlink:title=" ">
<polygon fill="white" stroke="black" points="843.5,-1016.5 843.5,-1073.5 961.5,-1073.5 961.5,-1016.5 843.5,-1016.5"/>
<text text-anchor="middle" x="902.5" y="-1061.5" font-family="SegoeUI" font-size="10.00">IValuedControl&lt; float &gt;</text>
<polyline fill="none" stroke="black" points="843.5,-1054.5 961.5,-1054.5 "/>
<text text-anchor="start" x="851.5" y="-1042.5" font-family="SegoeUI" font-size="10.00">+ value</text>
<polyline fill="none" stroke="black" points="843.5,-1035.5 961.5,-1035.5 "/>
<text text-anchor="middle" x="902.5" y="-1023.5" font-family="SegoeUI" font-size="10.00"> </text>
</a>
</g>
</g>
<!-- Node22&#45;&gt;Node8 -->
<g id="edge22" class="edge"><title>Node22&#45;&gt;Node8</title>
<path fill="none" stroke="midnightblue" d="M888.003,-1006.79C876.296,-979.88 857.93,-943.707 834.5,-917 766.399,-839.375 665.622,-774.08 599.029,-735.743"/>
<polygon fill="none" stroke="midnightblue" points="884.888,-1008.41 892.012,-1016.25 891.333,-1005.68 884.888,-1008.41"/>
</g>
<!-- Node23 -->
<g id="node21" class="node"><title>Node23</title>
<g id="a_node21"><a xlink:href="../../d0/d32/interface_juniper_1_1_widgets_1_1_i_valued_control.html" target="_top" xlink:title=" ">
<polygon fill="white" stroke="black" points="1183.5,-1264.5 1183.5,-1321.5 1359.5,-1321.5 1359.5,-1264.5 1183.5,-1264.5"/>
<text text-anchor="middle" x="1271.5" y="-1309.5" font-family="SegoeUI" font-size="10.00">Juniper.Widgets.IValuedControl&lt; T &gt;</text>
<polyline fill="none" stroke="black" points="1183.5,-1302.5 1359.5,-1302.5 "/>
<text text-anchor="start" x="1191.5" y="-1290.5" font-family="SegoeUI" font-size="10.00">+ value</text>
<polyline fill="none" stroke="black" points="1183.5,-1283.5 1359.5,-1283.5 "/>
<text text-anchor="middle" x="1271.5" y="-1271.5" font-family="SegoeUI" font-size="10.00"> </text>
</a>
</g>
</g>
<!-- Node23&#45;&gt;Node22 -->
<g id="edge23" class="edge"><title>Node23&#45;&gt;Node22</title>
<path fill="none" stroke="orange" d="M1228.47,-1258.45C1196.81,-1235.59 1151.75,-1206.72 1107.5,-1191 1049.63,-1170.44 1021.01,-1207.92 970.5,-1173 936.453,-1149.46 918.008,-1103.28 909.221,-1073.57"/>
<polygon fill="orange" stroke="orange" points="1226.49,-1261.34 1236.63,-1264.42 1230.63,-1255.69 1226.49,-1261.34"/>
<text text-anchor="middle" x="1194.5" y="-1205" font-family="SegoeUI" font-size="10.00"> &lt; float &gt;</text>
</g>
</g>
</svg>
        <g id="navigator" transform="translate(0 0)" fill="#404254">
                <rect fill="#f2f5e9" fill-opacity="0.5" stroke="#606060" stroke-width=".5" x="0" y="0" width="60" height="60"/>
                <use id="zoomplus" xlink:href="#zoomPlus" x="17" y="9" onmousedown="handleZoom(evt,'in')"/>
                <use id="zoomminus" xlink:href="#zoomMin" x="42" y="9" onmousedown="handleZoom(evt,'out')"/>
                <use id="reset" xlink:href="#resetDef" x="30" y="36" onmousedown="handleReset()"/>
                <g id="arrowUp" xlink:href="#dirArrow" transform="translate(30 24)" onmousedown="handlePan(0,-1)">
                  <use xlink:href="#rim" fill="#404040">
                        <set attributeName="fill" to="#808080" begin="arrowUp.mouseover" end="arrowUp.mouseout"/>
                  </use>
                  <path fill="none" stroke="white" stroke-width="1.5" d="M0,-3.0v7 M-2.5,-0.5L0,-3.0L2.5,-0.5"/>
                </g>
                <g id="arrowRight" xlink:href="#dirArrow" transform="rotate(90) translate(36 -43)" onmousedown="handlePan(1,0)">
                  <use xlink:href="#rim" fill="#404040">
                        <set attributeName="fill" to="#808080" begin="arrowRight.mouseover" end="arrowRight.mouseout"/>
                  </use>
                  <path fill="none" stroke="white" stroke-width="1.5" d="M0,-3.0v7 M-2.5,-0.5L0,-3.0L2.5,-0.5"/>
                </g>
                <g id="arrowDown" xlink:href="#dirArrow" transform="rotate(180) translate(-30 -48)" onmousedown="handlePan(0,1)">
                  <use xlink:href="#rim" fill="#404040">
                        <set attributeName="fill" to="#808080" begin="arrowDown.mouseover" end="arrowDown.mouseout"/>
                  </use>
                  <path fill="none" stroke="white" stroke-width="1.5" d="M0,-3.0v7 M-2.5,-0.5L0,-3.0L2.5,-0.5"/>
                </g>
                <g id="arrowLeft" xlink:href="#dirArrow" transform="rotate(270) translate(-36 17)" onmousedown="handlePan(-1,0)">
                  <use xlink:href="#rim" fill="#404040">
                        <set attributeName="fill" to="#808080" begin="arrowLeft.mouseover" end="arrowLeft.mouseout"/>
                  </use>
                  <path fill="none" stroke="white" stroke-width="1.5" d="M0,-3.0v7 M-2.5,-0.5L0,-3.0L2.5,-0.5"/>
                </g>
        </g>
        <svg viewBox="0 0 15 15" width="100%" height="30px" preserveAspectRatio="xMaxYMin meet">
         <g id="arrow_out" transform="scale(0.3 0.3)">
          <a xlink:href="class_juniper_1_1_widgets_1_1_rotation_handle__coll__graph_org.svg" target="_base">
           <rect id="button" ry="5" rx="5" y="6" x="6" height="38" width="38"
                fill="#f2f5e9" fill-opacity="0.5" stroke="#606060" stroke-width="1.0"/>
           <path id="arrow"
             d="M 11.500037,31.436501 C 11.940474,20.09759 22.043105,11.32322 32.158766,21.979434 L 37.068811,17.246167 C 37.068811,17.246167 37.088388,32 37.088388,32 L 22.160133,31.978069 C 22.160133,31.978069 26.997745,27.140456 26.997745,27.140456 C 18.528582,18.264221 13.291696,25.230495 11.500037,31.436501 z"
             style="fill:#404040;"/>
          </a>
         </g>
        </svg>
</svg>
