<?xml version="1.0" encoding="UTF-8" standalone="no"?>
<!DOCTYPE svg PUBLIC "-//W3C//DTD SVG 1.1//EN"
 "http://www.w3.org/Graphics/SVG/1.1/DTD/svg11.dtd">
<!-- Generated by graphviz version 2.38.0 (20140413.2041)
 -->
<!-- Title: Juniper.Unity.Display.AbstractDisplayManager.DisplayTypeEvent Pages: 1 -->
<svg width="169pt" height="171pt"
 viewBox="0.00 0.00 169.00 171.00" xmlns="http://www.w3.org/2000/svg" xmlns:xlink="http://www.w3.org/1999/xlink">
<g id="graph0" class="graph" transform="scale(1 1) rotate(0) translate(4 167)">
<title>Juniper.Unity.Display.AbstractDisplayManager.DisplayTypeEvent</title>
<polygon fill="white" stroke="none" points="-4,4 -4,-167 165,-167 165,4 -4,4"/>
<!-- Node2 -->
<g id="node1" class="node"><title>Node2</title>
<g id="a_node1"><a xlink:title=" ">
<polygon fill="#bfbfbf" stroke="black" points="0,-0.5 0,-68.5 161,-68.5 161,-0.5 0,-0.5"/>
<text text-anchor="start" x="8" y="-56.5" font-family="SegoeUI" font-size="10.00">Juniper.Unity.Display.Abstract</text>
<text text-anchor="middle" x="80.5" y="-45.5" font-family="SegoeUI" font-size="10.00">DisplayManager.DisplayTypeEvent</text>
<polyline fill="none" stroke="black" points="0,-38.5 161,-38.5 "/>
<text text-anchor="middle" x="80.5" y="-26.5" font-family="SegoeUI" font-size="10.00"> </text>
<polyline fill="none" stroke="black" points="0,-19.5 161,-19.5 "/>
<text text-anchor="middle" x="80.5" y="-7.5" font-family="SegoeUI" font-size="10.00"> </text>
</a>
</g>
</g>
<!-- Node3 -->
<g id="node2" class="node"><title>Node3</title>
<g id="a_node2"><a xlink:title=" ">
<polygon fill="white" stroke="#bfbfbf" points="12.5,-105.5 12.5,-162.5 148.5,-162.5 148.5,-105.5 12.5,-105.5"/>
<text text-anchor="middle" x="80.5" y="-150.5" font-family="SegoeUI" font-size="10.00">UnityEvent&lt; DisplayTypes &gt;</text>
<polyline fill="none" stroke="#bfbfbf" points="12.5,-143.5 148.5,-143.5 "/>
<text text-anchor="middle" x="80.5" y="-131.5" font-family="SegoeUI" font-size="10.00"> </text>
<polyline fill="none" stroke="#bfbfbf" points="12.5,-124.5 148.5,-124.5 "/>
<text text-anchor="middle" x="80.5" y="-112.5" font-family="SegoeUI" font-size="10.00"> </text>
</a>
</g>
</g>
<!-- Node3&#45;&gt;Node2 -->
<g id="edge1" class="edge"><title>Node3&#45;&gt;Node2</title>
<path fill="none" stroke="midnightblue" d="M80.5,-95.0631C80.5,-86.3933 80.5,-77.2431 80.5,-68.7855"/>
<polygon fill="none" stroke="midnightblue" points="77.0001,-95.3212 80.5,-105.321 84.0001,-95.3212 77.0001,-95.3212"/>
</g>
</g>
</svg>
