<?xml version="1.0" encoding="UTF-8" standalone="no"?>
<!DOCTYPE svg PUBLIC "-//W3C//DTD SVG 1.1//EN"
 "http://www.w3.org/Graphics/SVG/1.1/DTD/svg11.dtd">
<!-- Generated by graphviz version 2.38.0 (20140413.2041)
 -->
<!-- Title: Hjg.Pngcs.Chunks.ChunkPredicateEquiv Pages: 1 -->
<!--zoomable 584 -->
<svg id="main" version="1.1" xmlns="http://www.w3.org/2000/svg" xmlns:xlink="http://www.w3.org/1999/xlink" xml:space="preserve" onload="init(evt)">
<style type="text/css"><![CDATA[
.edge:hover path { stroke: red; }
.edge:hover polygon { stroke: red; fill: red; }
]]></style>
<script type="text/javascript"><![CDATA[
var edges = document.getElementsByTagName('g');
if (edges && edges.length) {
  for (var i=0;i<edges.length;i++) {
    if (edges[i].id.substr(0,4)=='edge') {
      edges[i].setAttribute('class','edge');
    }
  }
}
]]></script>
        <defs>
                <circle id="rim" cx="0" cy="0" r="7"/>
                <circle id="rim2" cx="0" cy="0" r="3.5"/>
                <g id="zoomPlus">
                        <use xlink:href="#rim" fill="#404040">
                                <set attributeName="fill" to="#808080" begin="zoomplus.mouseover" end="zoomplus.mouseout"/>
                        </use>
                        <path d="M-4,0h8M0,-4v8" fill="none" stroke="white" stroke-width="1.5" pointer-events="none"/>
                </g>
                <g id="zoomMin">
                        <use xlink:href="#rim" fill="#404040">
                                <set attributeName="fill" to="#808080" begin="zoomminus.mouseover" end="zoomminus.mouseout"/>
                        </use>
                        <path d="M-4,0h8" fill="none" stroke="white" stroke-width="1.5" pointer-events="none"/>
                </g>
                <g id="dirArrow">
                        <path fill="none" stroke="white" stroke-width="1.5" d="M0,-3.0v7 M-2.5,-0.5L0,-3.0L2.5,-0.5"/>
                </g>
               <g id="resetDef">
                       <use xlink:href="#rim2" fill="#404040">
                               <set attributeName="fill" to="#808080" begin="reset.mouseover" end="reset.mouseout"/>
                       </use>
               </g>
        </defs>

<script type="text/javascript">
var viewWidth = 244;
var viewHeight = 584;
var sectionId = 'dynsection-1';
</script>
<script xlink:href="../../svgpan.js"/>
<svg id="graph" class="graph">
<g id="viewport">
<title>Hjg.Pngcs.Chunks.ChunkPredicateEquiv</title>
<polygon fill="white" stroke="none" points="-4,4 -4,-580 239.5,-580 239.5,4 -4,4"/>
<!-- Node2 -->
<g id="node1" class="node"><title>Node2</title>
<g id="a_node1"><a xlink:title="An ad&#45;hoc criterion, perhaps useful, for equivalence. ChunkHelper.Equivalent(AbstractPngChunk,...">
<polygon fill="#bfbfbf" stroke="black" points="2.5,-0.5 2.5,-79.5 163.5,-79.5 163.5,-0.5 2.5,-0.5"/>
<text text-anchor="start" x="10.5" y="-67.5" font-family="SegoeUI" font-size="10.00">Hjg.Pngcs.Chunks.ChunkPredicate</text>
<text text-anchor="middle" x="83" y="-56.5" font-family="SegoeUI" font-size="10.00">Equiv</text>
<polyline fill="none" stroke="black" points="2.5,-49.5 163.5,-49.5 "/>
<text text-anchor="middle" x="83" y="-37.5" font-family="SegoeUI" font-size="10.00"> </text>
<polyline fill="none" stroke="black" points="2.5,-30.5 163.5,-30.5 "/>
<text text-anchor="start" x="10.5" y="-18.5" font-family="SegoeUI" font-size="10.00">+ ChunkPredicateEquiv()</text>
<text text-anchor="start" x="10.5" y="-7.5" font-family="SegoeUI" font-size="10.00">+ Matches()</text>
</a>
</g>
</g>
<!-- Node3 -->
<g id="node2" class="node"><title>Node3</title>
<g id="a_node2"><a xlink:href="../../d0/d04/interface_hjg_1_1_pngcs_1_1_chunks_1_1_i_chunk_predicate.html" target="_top" xlink:title="Decides if another chunk &quot;matches&quot;, according to some criterion">
<polygon fill="white" stroke="black" points="0,-270.5 0,-327.5 86,-327.5 86,-270.5 0,-270.5"/>
<text text-anchor="middle" x="43" y="-315.5" font-family="SegoeUI" font-size="10.00">IChunkPredicate</text>
<polyline fill="none" stroke="black" points="0,-308.5 86,-308.5 "/>
<text text-anchor="middle" x="43" y="-296.5" font-family="SegoeUI" font-size="10.00"> </text>
<polyline fill="none" stroke="black" points="0,-289.5 86,-289.5 "/>
<text text-anchor="start" x="8" y="-277.5" font-family="SegoeUI" font-size="10.00">+ Matches()</text>
</a>
</g>
</g>
<!-- Node3&#45;&gt;Node2 -->
<g id="edge1" class="edge"><title>Node3&#45;&gt;Node2</title>
<path fill="none" stroke="midnightblue" d="M48.8453,-260.444C56.3757,-212.061 69.3984,-128.39 77.0021,-79.5363"/>
<polygon fill="none" stroke="midnightblue" points="45.3603,-260.077 47.2807,-270.496 52.2771,-261.154 45.3603,-260.077"/>
</g>
<!-- Node4 -->
<g id="node3" class="node"><title>Node4</title>
<g id="a_node3"><a xlink:href="../../d8/dd4/class_hjg_1_1_pngcs_1_1_chunks_1_1_abstract_png_chunk.html" target="_top" xlink:title="Represents a instance of a PNG chunk">
<polygon fill="white" stroke="black" points="104.5,-127.5 104.5,-470.5 235.5,-470.5 235.5,-127.5 104.5,-127.5"/>
<text text-anchor="start" x="112.5" y="-458.5" font-family="SegoeUI" font-size="10.00">Hjg.Pngcs.Chunks.Abstract</text>
<text text-anchor="middle" x="170" y="-447.5" font-family="SegoeUI" font-size="10.00">PngChunk</text>
<polyline fill="none" stroke="black" points="104.5,-440.5 235.5,-440.5 "/>
<text text-anchor="start" x="112.5" y="-428.5" font-family="SegoeUI" font-size="10.00">+ Id</text>
<text text-anchor="start" x="112.5" y="-417.5" font-family="SegoeUI" font-size="10.00">+ Crit</text>
<text text-anchor="start" x="112.5" y="-406.5" font-family="SegoeUI" font-size="10.00">+ Pub</text>
<text text-anchor="start" x="112.5" y="-395.5" font-family="SegoeUI" font-size="10.00">+ Safe</text>
<text text-anchor="start" x="112.5" y="-384.5" font-family="SegoeUI" font-size="10.00">+ ImgInfo</text>
<text text-anchor="start" x="112.5" y="-373.5" font-family="SegoeUI" font-size="10.00">+ Priority</text>
<text text-anchor="start" x="112.5" y="-362.5" font-family="SegoeUI" font-size="10.00">+ ChunkGroup</text>
<text text-anchor="start" x="112.5" y="-351.5" font-family="SegoeUI" font-size="10.00">+ Length</text>
<text text-anchor="start" x="112.5" y="-340.5" font-family="SegoeUI" font-size="10.00">+ Offset</text>
<polyline fill="none" stroke="black" points="104.5,-333.5 235.5,-333.5 "/>
<text text-anchor="start" x="112.5" y="-321.5" font-family="SegoeUI" font-size="10.00">+ CreateEmptyChunk()</text>
<text text-anchor="start" x="112.5" y="-310.5" font-family="SegoeUI" font-size="10.00">+ ToString()</text>
<text text-anchor="start" x="112.5" y="-299.5" font-family="SegoeUI" font-size="10.00">+ CreateRawChunk()</text>
<text text-anchor="start" x="112.5" y="-288.5" font-family="SegoeUI" font-size="10.00">+ ParseFromRaw()</text>
<text text-anchor="start" x="112.5" y="-277.5" font-family="SegoeUI" font-size="10.00">+ CloneDataFromRead()</text>
<text text-anchor="start" x="112.5" y="-266.5" font-family="SegoeUI" font-size="10.00">+ AllowsMultiple()</text>
<text text-anchor="start" x="112.5" y="-255.5" font-family="SegoeUI" font-size="10.00">+ GetOrderingConstraint()</text>
<text text-anchor="start" x="112.5" y="-244.5" font-family="SegoeUI" font-size="10.00">+ FactoryRegister()</text>
<text text-anchor="start" x="112.5" y="-233.5" font-family="SegoeUI" font-size="10.00">+ CloneChunk&lt; T &gt;()</text>
<text text-anchor="start" x="112.5" y="-222.5" font-family="SegoeUI" font-size="10.00"># AbstractPngChunk()</text>
<text text-anchor="start" x="112.5" y="-211.5" font-family="SegoeUI" font-size="10.00">&#45; MustGoBeforePLTE()</text>
<text text-anchor="start" x="112.5" y="-200.5" font-family="SegoeUI" font-size="10.00">&#45; MustGoBeforeIDAT()</text>
<text text-anchor="start" x="112.5" y="-189.5" font-family="SegoeUI" font-size="10.00">&#45; MustGoAfterPLTE()</text>
<text text-anchor="start" x="112.5" y="-178.5" font-family="SegoeUI" font-size="10.00">&#45; Write()</text>
<text text-anchor="start" x="112.5" y="-167.5" font-family="SegoeUI" font-size="10.00">&#45; InitFactory()</text>
<text text-anchor="start" x="112.5" y="-156.5" font-family="SegoeUI" font-size="10.00">&#45; IsKnown()</text>
<text text-anchor="start" x="112.5" y="-145.5" font-family="SegoeUI" font-size="10.00">&#45; Factory()</text>
<text text-anchor="start" x="112.5" y="-134.5" font-family="SegoeUI" font-size="10.00">&#45; FactoryFromId()</text>
</a>
</g>
</g>
<!-- Node4&#45;&gt;Node2 -->
<g id="edge2" class="edge"><title>Node4&#45;&gt;Node2</title>
<path fill="none" stroke="#404040" d="M112.212,-127.292C107.833,-114.356 103.671,-102.062 99.933,-91.0206"/>
<polygon fill="none" stroke="#404040" points="99.9013,-90.9266 94.1886,-86.526 96.0535,-79.5602 101.766,-83.9608 99.9013,-90.9266"/>
<text text-anchor="middle" x="120" y="-101" font-family="SegoeUI" font-size="10.00"> &#45;chunk</text>
</g>
<!-- Node5 -->
<g id="node4" class="node"><title>Node5</title>
<g id="a_node4"><a xlink:title=" ">
<polygon fill="white" stroke="#bfbfbf" points="150.5,-518.5 150.5,-575.5 189.5,-575.5 189.5,-518.5 150.5,-518.5"/>
<text text-anchor="middle" x="170" y="-563.5" font-family="SegoeUI" font-size="10.00">static</text>
<polyline fill="none" stroke="#bfbfbf" points="150.5,-556.5 189.5,-556.5 "/>
<text text-anchor="middle" x="170" y="-544.5" font-family="SegoeUI" font-size="10.00"> </text>
<polyline fill="none" stroke="#bfbfbf" points="150.5,-537.5 189.5,-537.5 "/>
<text text-anchor="middle" x="170" y="-525.5" font-family="SegoeUI" font-size="10.00"> </text>
</a>
</g>
</g>
<!-- Node5&#45;&gt;Node4 -->
<g id="edge3" class="edge"><title>Node5&#45;&gt;Node4</title>
<path fill="none" stroke="#404040" d="M170,-518.259C170,-508.249 170,-496.07 170,-482.639"/>
<polygon fill="none" stroke="#404040" points="170,-482.537 166,-476.537 170,-470.537 174,-476.537 170,-482.537"/>
<text text-anchor="middle" x="197.5" y="-492" font-family="SegoeUI" font-size="10.00"> &#45;factoryMap</text>
</g>
</g>
</svg>
        <g id="navigator" transform="translate(0 0)" fill="#404254">
                <rect fill="#f2f5e9" fill-opacity="0.5" stroke="#606060" stroke-width=".5" x="0" y="0" width="60" height="60"/>
                <use id="zoomplus" xlink:href="#zoomPlus" x="17" y="9" onmousedown="handleZoom(evt,'in')"/>
                <use id="zoomminus" xlink:href="#zoomMin" x="42" y="9" onmousedown="handleZoom(evt,'out')"/>
                <use id="reset" xlink:href="#resetDef" x="30" y="36" onmousedown="handleReset()"/>
                <g id="arrowUp" xlink:href="#dirArrow" transform="translate(30 24)" onmousedown="handlePan(0,-1)">
                  <use xlink:href="#rim" fill="#404040">
                        <set attributeName="fill" to="#808080" begin="arrowUp.mouseover" end="arrowUp.mouseout"/>
                  </use>
                  <path fill="none" stroke="white" stroke-width="1.5" d="M0,-3.0v7 M-2.5,-0.5L0,-3.0L2.5,-0.5"/>
                </g>
                <g id="arrowRight" xlink:href="#dirArrow" transform="rotate(90) translate(36 -43)" onmousedown="handlePan(1,0)">
                  <use xlink:href="#rim" fill="#404040">
                        <set attributeName="fill" to="#808080" begin="arrowRight.mouseover" end="arrowRight.mouseout"/>
                  </use>
                  <path fill="none" stroke="white" stroke-width="1.5" d="M0,-3.0v7 M-2.5,-0.5L0,-3.0L2.5,-0.5"/>
                </g>
                <g id="arrowDown" xlink:href="#dirArrow" transform="rotate(180) translate(-30 -48)" onmousedown="handlePan(0,1)">
                  <use xlink:href="#rim" fill="#404040">
                        <set attributeName="fill" to="#808080" begin="arrowDown.mouseover" end="arrowDown.mouseout"/>
                  </use>
                  <path fill="none" stroke="white" stroke-width="1.5" d="M0,-3.0v7 M-2.5,-0.5L0,-3.0L2.5,-0.5"/>
                </g>
                <g id="arrowLeft" xlink:href="#dirArrow" transform="rotate(270) translate(-36 17)" onmousedown="handlePan(-1,0)">
                  <use xlink:href="#rim" fill="#404040">
                        <set attributeName="fill" to="#808080" begin="arrowLeft.mouseover" end="arrowLeft.mouseout"/>
                  </use>
                  <path fill="none" stroke="white" stroke-width="1.5" d="M0,-3.0v7 M-2.5,-0.5L0,-3.0L2.5,-0.5"/>
                </g>
        </g>
        <svg viewBox="0 0 15 15" width="100%" height="30px" preserveAspectRatio="xMaxYMin meet">
         <g id="arrow_out" transform="scale(0.3 0.3)">
          <a xlink:href="class_hjg_1_1_pngcs_1_1_chunks_1_1_chunk_predicate_equiv__coll__graph_org.svg" target="_base">
           <rect id="button" ry="5" rx="5" y="6" x="6" height="38" width="38"
                fill="#f2f5e9" fill-opacity="0.5" stroke="#606060" stroke-width="1.0"/>
           <path id="arrow"
             d="M 11.500037,31.436501 C 11.940474,20.09759 22.043105,11.32322 32.158766,21.979434 L 37.068811,17.246167 C 37.068811,17.246167 37.088388,32 37.088388,32 L 22.160133,31.978069 C 22.160133,31.978069 26.997745,27.140456 26.997745,27.140456 C 18.528582,18.264221 13.291696,25.230495 11.500037,31.436501 z"
             style="fill:#404040;"/>
          </a>
         </g>
        </svg>
</svg>
