<?xml version="1.0" encoding="UTF-8" standalone="no"?>
<!DOCTYPE svg PUBLIC "-//W3C//DTD SVG 1.1//EN"
 "http://www.w3.org/Graphics/SVG/1.1/DTD/svg11.dtd">
<!-- Generated by graphviz version 2.38.0 (20140413.2041)
 -->
<!-- Title: Hjg.Pngcs.PngjException Pages: 1 -->
<svg width="487pt" height="342pt"
 viewBox="0.00 0.00 487.00 342.00" xmlns="http://www.w3.org/2000/svg" xmlns:xlink="http://www.w3.org/1999/xlink">
<g id="graph0" class="graph" transform="scale(1 1) rotate(0) translate(4 338)">
<title>Hjg.Pngcs.PngjException</title>
<polygon fill="white" stroke="none" points="-4,4 -4,-338 483,-338 483,4 -4,4"/>
<!-- Node0 -->
<g id="node1" class="node"><title>Node0</title>
<g id="a_node1"><a xlink:title="Gral exception class for PNGCS library">
<polygon fill="#bfbfbf" stroke="black" points="180,-138.5 180,-239.5 301,-239.5 301,-138.5 180,-138.5"/>
<text text-anchor="middle" x="240.5" y="-227.5" font-family="SegoeUI" font-size="10.00">Hjg.Pngcs.PngjException</text>
<polyline fill="none" stroke="black" points="180,-220.5 301,-220.5 "/>
<text text-anchor="middle" x="240.5" y="-208.5" font-family="SegoeUI" font-size="10.00"> </text>
<polyline fill="none" stroke="black" points="180,-201.5 301,-201.5 "/>
<text text-anchor="start" x="188" y="-189.5" font-family="SegoeUI" font-size="10.00">+ PngjException()</text>
<text text-anchor="start" x="188" y="-178.5" font-family="SegoeUI" font-size="10.00">+ PngjException()</text>
<text text-anchor="start" x="188" y="-167.5" font-family="SegoeUI" font-size="10.00">+ PngjException?()</text>
<text text-anchor="start" x="188" y="-156.5" font-family="SegoeUI" font-size="10.00">+ PngjException()</text>
<text text-anchor="start" x="188" y="-145.5" font-family="SegoeUI" font-size="10.00"># PngjException()</text>
</a>
</g>
</g>
<!-- Node2 -->
<g id="node3" class="node"><title>Node2</title>
<g id="a_node3"><a xlink:href="../../d7/d3c/class_hjg_1_1_pngcs_1_1_pngj_bad_crc_exception.html" target="_top" xlink:title="Exception for CRC check">
<polygon fill="white" stroke="black" points="0,-0.5 0,-101.5 151,-101.5 151,-0.5 0,-0.5"/>
<text text-anchor="middle" x="75.5" y="-89.5" font-family="SegoeUI" font-size="10.00">Hjg.Pngcs.PngjBadCrcException</text>
<polyline fill="none" stroke="black" points="0,-82.5 151,-82.5 "/>
<text text-anchor="middle" x="75.5" y="-70.5" font-family="SegoeUI" font-size="10.00"> </text>
<polyline fill="none" stroke="black" points="0,-63.5 151,-63.5 "/>
<text text-anchor="start" x="8" y="-51.5" font-family="SegoeUI" font-size="10.00">+ PngjBadCrcException()</text>
<text text-anchor="start" x="8" y="-40.5" font-family="SegoeUI" font-size="10.00">+ PngjBadCrcException()</text>
<text text-anchor="start" x="8" y="-29.5" font-family="SegoeUI" font-size="10.00">+ PngjBadCrcException()</text>
<text text-anchor="start" x="8" y="-18.5" font-family="SegoeUI" font-size="10.00">+ PngjBadCrcException()</text>
<text text-anchor="start" x="8" y="-7.5" font-family="SegoeUI" font-size="10.00"># PngjBadCrcException()</text>
</a>
</g>
</g>
<!-- Node0&#45;&gt;Node2 -->
<g id="edge2" class="edge"><title>Node0&#45;&gt;Node2</title>
<path fill="none" stroke="midnightblue" d="M172.13,-131.647C160.051,-121.69 147.555,-111.391 135.72,-101.636"/>
<polygon fill="none" stroke="midnightblue" points="170.054,-134.471 179.997,-138.131 174.507,-129.07 170.054,-134.471"/>
</g>
<!-- Node3 -->
<g id="node4" class="node"><title>Node3</title>
<g id="a_node4"><a xlink:href="../../d0/d99/class_hjg_1_1_pngcs_1_1_pngj_input_exception.html" target="_top" xlink:title="Exception associated with input (reading) operations">
<polygon fill="white" stroke="black" points="169,-0.5 169,-101.5 312,-101.5 312,-0.5 169,-0.5"/>
<text text-anchor="middle" x="240.5" y="-89.5" font-family="SegoeUI" font-size="10.00">Hjg.Pngcs.PngjInputException</text>
<polyline fill="none" stroke="black" points="169,-82.5 312,-82.5 "/>
<text text-anchor="middle" x="240.5" y="-70.5" font-family="SegoeUI" font-size="10.00"> </text>
<polyline fill="none" stroke="black" points="169,-63.5 312,-63.5 "/>
<text text-anchor="start" x="177" y="-51.5" font-family="SegoeUI" font-size="10.00">+ PngjInputException()</text>
<text text-anchor="start" x="177" y="-40.5" font-family="SegoeUI" font-size="10.00">+ PngjInputException()</text>
<text text-anchor="start" x="177" y="-29.5" font-family="SegoeUI" font-size="10.00">+ PngjInputException()</text>
<text text-anchor="start" x="177" y="-18.5" font-family="SegoeUI" font-size="10.00">+ PngjInputException()</text>
<text text-anchor="start" x="177" y="-7.5" font-family="SegoeUI" font-size="10.00"># PngjInputException()</text>
</a>
</g>
</g>
<!-- Node0&#45;&gt;Node3 -->
<g id="edge3" class="edge"><title>Node0&#45;&gt;Node3</title>
<path fill="none" stroke="midnightblue" d="M240.5,-128C240.5,-119.271 240.5,-110.363 240.5,-101.863"/>
<polygon fill="none" stroke="midnightblue" points="237,-128.131 240.5,-138.131 244,-128.131 237,-128.131"/>
</g>
<!-- Node4 -->
<g id="node5" class="node"><title>Node4</title>
<g id="a_node5"><a xlink:href="../../d5/d25/class_hjg_1_1_pngcs_1_1_pngj_output_exception.html" target="_top" xlink:title="Exception associated with input (reading) operations">
<polygon fill="white" stroke="black" points="330,-0.5 330,-101.5 479,-101.5 479,-0.5 330,-0.5"/>
<text text-anchor="middle" x="404.5" y="-89.5" font-family="SegoeUI" font-size="10.00">Hjg.Pngcs.PngjOutputException</text>
<polyline fill="none" stroke="black" points="330,-82.5 479,-82.5 "/>
<text text-anchor="middle" x="404.5" y="-70.5" font-family="SegoeUI" font-size="10.00"> </text>
<polyline fill="none" stroke="black" points="330,-63.5 479,-63.5 "/>
<text text-anchor="start" x="338" y="-51.5" font-family="SegoeUI" font-size="10.00">+ PngjOutputException()</text>
<text text-anchor="start" x="338" y="-40.5" font-family="SegoeUI" font-size="10.00">+ PngjOutputException()</text>
<text text-anchor="start" x="338" y="-29.5" font-family="SegoeUI" font-size="10.00">+ PngjOutputException()</text>
<text text-anchor="start" x="338" y="-18.5" font-family="SegoeUI" font-size="10.00">+ PngjOutputException()</text>
<text text-anchor="start" x="338" y="-7.5" font-family="SegoeUI" font-size="10.00"># PngjOutputException()</text>
</a>
</g>
</g>
<!-- Node0&#45;&gt;Node4 -->
<g id="edge4" class="edge"><title>Node0&#45;&gt;Node4</title>
<path fill="none" stroke="midnightblue" d="M308.455,-131.647C320.462,-121.69 332.882,-111.391 344.645,-101.636"/>
<polygon fill="none" stroke="midnightblue" points="306.1,-129.053 300.636,-138.131 310.568,-134.442 306.1,-129.053"/>
</g>
<!-- Node1 -->
<g id="node2" class="node"><title>Node1</title>
<g id="a_node2"><a xlink:title=" ">
<polygon fill="white" stroke="#bfbfbf" points="212,-276.5 212,-333.5 269,-333.5 269,-276.5 212,-276.5"/>
<text text-anchor="middle" x="240.5" y="-321.5" font-family="SegoeUI" font-size="10.00">Exception</text>
<polyline fill="none" stroke="#bfbfbf" points="212,-314.5 269,-314.5 "/>
<text text-anchor="middle" x="240.5" y="-302.5" font-family="SegoeUI" font-size="10.00"> </text>
<polyline fill="none" stroke="#bfbfbf" points="212,-295.5 269,-295.5 "/>
<text text-anchor="middle" x="240.5" y="-283.5" font-family="SegoeUI" font-size="10.00"> </text>
</a>
</g>
</g>
<!-- Node1&#45;&gt;Node0 -->
<g id="edge1" class="edge"><title>Node1&#45;&gt;Node0</title>
<path fill="none" stroke="midnightblue" d="M240.5,-266.354C240.5,-257.796 240.5,-248.578 240.5,-239.608"/>
<polygon fill="none" stroke="midnightblue" points="237,-266.404 240.5,-276.404 244,-266.404 237,-266.404"/>
</g>
</g>
</svg>
